solid 
 facet normal -1.000000e+00  0.000000e+00  0.000000e+00
   outer loop
     vertex  0.000000e+00  0.000000e+00  2.000000e+01
     vertex  0.000000e+00  1.081532e+02  0.000000e+00
     vertex  0.000000e+00  0.000000e+00  0.000000e+00
   endloop
 endfacet
 facet normal -1.000000e+00  0.000000e+00  0.000000e+00
   outer loop
     vertex  0.000000e+00  0.000000e+00  2.000000e+01
     vertex  0.000000e+00  1.081532e+02  2.000000e+01
     vertex  0.000000e+00  1.081532e+02  0.000000e+00
   endloop
 endfacet
 facet normal  0.000000e+00 -1.000000e+00  0.000000e+00
   outer loop
     vertex  1.478601e+02  0.000000e+00  0.000000e+00
     vertex  0.000000e+00  0.000000e+00  2.000000e+01
     vertex  0.000000e+00  0.000000e+00  0.000000e+00
   endloop
 endfacet
 facet normal -0.000000e+00 -1.000000e+00 -0.000000e+00
   outer loop
     vertex  1.478601e+02  0.000000e+00  2.000000e+01
     vertex  0.000000e+00  0.000000e+00  2.000000e+01
     vertex  1.478601e+02  0.000000e+00  0.000000e+00
   endloop
 endfacet
 facet normal  0.000000e+00  0.000000e+00  1.000000e+00
   outer loop
     vertex  8.307369e+01  4.838751e+01  2.000000e+01
     vertex  7.998833e+01  5.112090e+01  2.000000e+01
     vertex  0.000000e+00  0.000000e+00  2.000000e+01
   endloop
 endfacet
 facet normal  0.000000e+00  0.000000e+00  1.000000e+00
   outer loop
     vertex  7.764677e+01  5.451323e+01  2.000000e+01
     vertex  0.000000e+00  0.000000e+00  2.000000e+01
     vertex  7.998833e+01  5.112090e+01  2.000000e+01
   endloop
 endfacet
 facet normal  0.000000e+00  0.000000e+00  1.000000e+00
   outer loop
     vertex  8.672354e+01  4.647192e+01  2.000000e+01
     vertex  8.307369e+01  4.838751e+01  2.000000e+01
     vertex  0.000000e+00  0.000000e+00  2.000000e+01
   endloop
 endfacet
 facet normal  0.000000e+00  0.000000e+00  1.000000e+00
   outer loop
     vertex  7.618509e+01  5.836737e+01  2.000000e+01
     vertex  0.000000e+00  0.000000e+00  2.000000e+01
     vertex  7.764677e+01  5.451323e+01  2.000000e+01
   endloop
 endfacet
 facet normal  0.000000e+00  0.000000e+00  1.000000e+00
   outer loop
     vertex  9.072576e+01  4.548546e+01  2.000000e+01
     vertex  8.672354e+01  4.647192e+01  2.000000e+01
     vertex  0.000000e+00  0.000000e+00  2.000000e+01
   endloop
 endfacet
 facet normal  0.000000e+00  0.000000e+00  1.000000e+00
   outer loop
     vertex  7.568824e+01  6.245931e+01  2.000000e+01
     vertex  0.000000e+00  1.081532e+02  2.000000e+01
     vertex  0.000000e+00  0.000000e+00  2.000000e+01
   endloop
 endfacet
 facet normal  0.000000e+00  0.000000e+00  1.000000e+00
   outer loop
     vertex  7.568824e+01  6.245931e+01  2.000000e+01
     vertex  0.000000e+00  0.000000e+00  2.000000e+01
     vertex  7.618509e+01  5.836737e+01  2.000000e+01
   endloop
 endfacet
 facet normal  0.000000e+00  0.000000e+00  1.000000e+00
   outer loop
     vertex  7.618509e+01  6.655125e+01  2.000000e+01
     vertex  0.000000e+00  1.081532e+02  2.000000e+01
     vertex  7.568824e+01  6.245931e+01  2.000000e+01
   endloop
 endfacet
 facet normal  0.000000e+00  0.000000e+00  1.000000e+00
   outer loop
     vertex  1.478601e+02  0.000000e+00  2.000000e+01
     vertex  9.484775e+01  4.548546e+01  2.000000e+01
     vertex  9.072576e+01  4.548546e+01  2.000000e+01
   endloop
 endfacet
 facet normal  0.000000e+00  0.000000e+00  1.000000e+00
   outer loop
     vertex  1.478601e+02  0.000000e+00  2.000000e+01
     vertex  9.884997e+01  4.647192e+01  2.000000e+01
     vertex  9.484775e+01  4.548546e+01  2.000000e+01
   endloop
 endfacet
 facet normal  0.000000e+00  0.000000e+00  1.000000e+00
   outer loop
     vertex  1.478601e+02  0.000000e+00  2.000000e+01
     vertex  9.072576e+01  4.548546e+01  2.000000e+01
     vertex  0.000000e+00  0.000000e+00  2.000000e+01
   endloop
 endfacet
 facet normal  0.000000e+00  0.000000e+00  1.000000e+00
   outer loop
     vertex  7.764677e+01  7.040538e+01  2.000000e+01
     vertex  0.000000e+00  1.081532e+02  2.000000e+01
     vertex  7.618509e+01  6.655125e+01  2.000000e+01
   endloop
 endfacet
 facet normal  0.000000e+00  0.000000e+00  1.000000e+00
   outer loop
     vertex  1.024998e+02  4.838751e+01  2.000000e+01
     vertex  9.884997e+01  4.647192e+01  2.000000e+01
     vertex  1.478601e+02  0.000000e+00  2.000000e+01
   endloop
 endfacet
 facet normal  0.000000e+00  0.000000e+00  1.000000e+00
   outer loop
     vertex  7.998833e+01  7.379772e+01  2.000000e+01
     vertex  0.000000e+00  1.081532e+02  2.000000e+01
     vertex  7.764677e+01  7.040538e+01  2.000000e+01
   endloop
 endfacet
 facet normal  0.000000e+00  0.000000e+00  1.000000e+00
   outer loop
     vertex  1.055852e+02  5.112090e+01  2.000000e+01
     vertex  1.024998e+02  4.838751e+01  2.000000e+01
     vertex  1.478601e+02  0.000000e+00  2.000000e+01
   endloop
 endfacet
 facet normal  0.000000e+00  0.000000e+00  1.000000e+00
   outer loop
     vertex  8.307369e+01  7.653111e+01  2.000000e+01
     vertex  0.000000e+00  1.081532e+02  2.000000e+01
     vertex  7.998833e+01  7.379772e+01  2.000000e+01
   endloop
 endfacet
 facet normal  0.000000e+00  0.000000e+00  1.000000e+00
   outer loop
     vertex  1.079267e+02  5.451323e+01  2.000000e+01
     vertex  1.055852e+02  5.112090e+01  2.000000e+01
     vertex  1.478601e+02  0.000000e+00  2.000000e+01
   endloop
 endfacet
 facet normal  0.000000e+00  0.000000e+00  1.000000e+00
   outer loop
     vertex  8.672354e+01  7.844669e+01  2.000000e+01
     vertex  0.000000e+00  1.081532e+02  2.000000e+01
     vertex  8.307369e+01  7.653111e+01  2.000000e+01
   endloop
 endfacet
 facet normal  0.000000e+00  0.000000e+00  1.000000e+00
   outer loop
     vertex  1.093884e+02  5.836737e+01  2.000000e+01
     vertex  1.079267e+02  5.451323e+01  2.000000e+01
     vertex  1.478601e+02  0.000000e+00  2.000000e+01
   endloop
 endfacet
 facet normal  0.000000e+00  0.000000e+00  1.000000e+00
   outer loop
     vertex  9.072576e+01  7.943315e+01  2.000000e+01
     vertex  0.000000e+00  1.081532e+02  2.000000e+01
     vertex  8.672354e+01  7.844669e+01  2.000000e+01
   endloop
 endfacet
 facet normal  0.000000e+00  0.000000e+00  1.000000e+00
   outer loop
     vertex  1.098853e+02  6.245931e+01  2.000000e+01
     vertex  1.093884e+02  5.836737e+01  2.000000e+01
     vertex  1.478601e+02  0.000000e+00  2.000000e+01
   endloop
 endfacet
 facet normal  0.000000e+00  0.000000e+00  1.000000e+00
   outer loop
     vertex  1.478601e+02  1.081532e+02  2.000000e+01
     vertex  1.093884e+02  6.655125e+01  2.000000e+01
     vertex  1.098853e+02  6.245931e+01  2.000000e+01
   endloop
 endfacet
 facet normal  0.000000e+00  0.000000e+00  1.000000e+00
   outer loop
     vertex  1.478601e+02  1.081532e+02  2.000000e+01
     vertex  1.079267e+02  7.040538e+01  2.000000e+01
     vertex  1.093884e+02  6.655125e+01  2.000000e+01
   endloop
 endfacet
 facet normal  0.000000e+00  0.000000e+00  1.000000e+00
   outer loop
     vertex  1.478601e+02  1.081532e+02  2.000000e+01
     vertex  1.055852e+02  7.379772e+01  2.000000e+01
     vertex  1.079267e+02  7.040538e+01  2.000000e+01
   endloop
 endfacet
 facet normal  0.000000e+00  0.000000e+00  1.000000e+00
   outer loop
     vertex  1.478601e+02  1.081532e+02  2.000000e+01
     vertex  1.024998e+02  7.653111e+01  2.000000e+01
     vertex  1.055852e+02  7.379772e+01  2.000000e+01
   endloop
 endfacet
 facet normal  0.000000e+00  0.000000e+00  1.000000e+00
   outer loop
     vertex  1.478601e+02  1.081532e+02  2.000000e+01
     vertex  9.884997e+01  7.844669e+01  2.000000e+01
     vertex  1.024998e+02  7.653111e+01  2.000000e+01
   endloop
 endfacet
 facet normal  0.000000e+00  0.000000e+00  1.000000e+00
   outer loop
     vertex  1.478601e+02  1.081532e+02  2.000000e+01
     vertex  9.484775e+01  7.943315e+01  2.000000e+01
     vertex  9.884997e+01  7.844669e+01  2.000000e+01
   endloop
 endfacet
 facet normal  0.000000e+00  0.000000e+00  1.000000e+00
   outer loop
     vertex  1.478601e+02  1.081532e+02  2.000000e+01
     vertex  9.072576e+01  7.943315e+01  2.000000e+01
     vertex  9.484775e+01  7.943315e+01  2.000000e+01
   endloop
 endfacet
 facet normal  0.000000e+00  0.000000e+00  1.000000e+00
   outer loop
     vertex  1.478601e+02  1.081532e+02  2.000000e+01
     vertex  1.098853e+02  6.245931e+01  2.000000e+01
     vertex  1.478601e+02  0.000000e+00  2.000000e+01
   endloop
 endfacet
 facet normal  0.000000e+00  0.000000e+00  1.000000e+00
   outer loop
     vertex  1.478601e+02  1.081532e+02  2.000000e+01
     vertex  0.000000e+00  1.081532e+02  2.000000e+01
     vertex  9.072576e+01  7.943315e+01  2.000000e+01
   endloop
 endfacet
 facet normal  0.000000e+00  1.000000e+00  0.000000e+00
   outer loop
     vertex  1.478601e+02  1.081532e+02  0.000000e+00
     vertex  0.000000e+00  1.081532e+02  0.000000e+00
     vertex  0.000000e+00  1.081532e+02  2.000000e+01
   endloop
 endfacet
 facet normal  0.000000e+00  1.000000e+00  0.000000e+00
   outer loop
     vertex  1.478601e+02  1.081532e+02  2.000000e+01
     vertex  1.478601e+02  1.081532e+02  0.000000e+00
     vertex  0.000000e+00  1.081532e+02  2.000000e+01
   endloop
 endfacet
 facet normal -0.000000e+00  0.000000e+00 -1.000000e+00
   outer loop
     vertex  1.478601e+02  1.081532e+02  0.000000e+00
     vertex  0.000000e+00  0.000000e+00  0.000000e+00
     vertex  0.000000e+00  1.081532e+02  0.000000e+00
   endloop
 endfacet
 facet normal  0.000000e+00 -0.000000e+00 -1.000000e+00
   outer loop
     vertex  1.478601e+02  1.081532e+02  0.000000e+00
     vertex  1.478601e+02  0.000000e+00  0.000000e+00
     vertex  0.000000e+00  0.000000e+00  0.000000e+00
   endloop
 endfacet
 facet normal  1.000000e+00  0.000000e+00  0.000000e+00
   outer loop
     vertex  1.478601e+02  0.000000e+00  2.000000e+01
     vertex  1.478601e+02  0.000000e+00  0.000000e+00
     vertex  1.478601e+02  1.081532e+02  0.000000e+00
   endloop
 endfacet
 facet normal  1.000000e+00 -0.000000e+00  0.000000e+00
   outer loop
     vertex  1.478601e+02  0.000000e+00  2.000000e+01
     vertex  1.478601e+02  1.081532e+02  0.000000e+00
     vertex  1.478601e+02  1.081532e+02  2.000000e+01
   endloop
 endfacet
 facet normal  7.484524e-01  9.087858e-02  6.569323e-01
   outer loop
     vertex  1.043294e+02  6.245931e+01  2.632987e+01
     vertex  1.098853e+02  6.245931e+01  2.000000e+01
     vertex  1.093884e+02  6.655125e+01  2.000000e+01
   endloop
 endfacet
 facet normal  7.484524e-01  9.087858e-02  6.569323e-01
   outer loop
     vertex  9.320516e+01  6.256244e+01  3.898962e+01
     vertex  9.321768e+01  6.245931e+01  3.898962e+01
     vertex  9.877354e+01  6.245931e+01  3.265975e+01
   endloop
 endfacet
 facet normal  7.484524e-01 -9.087858e-02  6.569323e-01
   outer loop
     vertex  1.043294e+02  6.245931e+01  2.632987e+01
     vertex  1.093884e+02  5.836737e+01  2.000000e+01
     vertex  1.098853e+02  6.245931e+01  2.000000e+01
   endloop
 endfacet
 facet normal  7.484524e-01 -9.087858e-02  6.569323e-01
   outer loop
     vertex  9.321768e+01  6.245931e+01  3.898962e+01
     vertex  9.320516e+01  6.235618e+01  3.898962e+01
     vertex  9.877354e+01  6.245931e+01  3.265975e+01
   endloop
 endfacet
 facet normal  7.095915e-01  2.691125e-01  6.511977e-01
   outer loop
     vertex  1.035500e+02  6.662900e+01  2.632987e+01
     vertex  1.093884e+02  6.655125e+01  2.000000e+01
     vertex  1.079267e+02  7.040538e+01  2.000000e+01
   endloop
 endfacet
 facet normal  7.290395e-01  1.362811e-01  6.707674e-01
   outer loop
     vertex  1.035500e+02  6.662900e+01  2.632987e+01
     vertex  1.043294e+02  6.245931e+01  2.632987e+01
     vertex  1.093884e+02  6.655125e+01  2.000000e+01
   endloop
 endfacet
 facet normal  6.313491e-01  3.909148e-01  6.697641e-01
   outer loop
     vertex  1.013169e+02  7.023554e+01  2.632987e+01
     vertex  1.035500e+02  6.662900e+01  2.632987e+01
     vertex  1.079267e+02  7.040538e+01  2.000000e+01
   endloop
 endfacet
 facet normal  6.194725e-01  4.275910e-01  6.583463e-01
   outer loop
     vertex  1.013169e+02  7.023554e+01  2.632987e+01
     vertex  1.079267e+02  7.040538e+01  2.000000e+01
     vertex  1.055852e+02  7.379772e+01  2.000000e+01
   endloop
 endfacet
 facet normal  5.006898e-01  5.651620e-01  6.556689e-01
   outer loop
     vertex  1.013169e+02  7.023554e+01  2.632987e+01
     vertex  1.055852e+02  7.379772e+01  2.000000e+01
     vertex  1.024998e+02  7.653111e+01  2.000000e+01
   endloop
 endfacet
 facet normal  3.526180e-01  6.718574e-01  6.513587e-01
   outer loop
     vertex  9.793176e+01  7.279187e+01  2.632987e+01
     vertex  1.024998e+02  7.653111e+01  2.000000e+01
     vertex  9.884997e+01  7.844669e+01  2.000000e+01
   endloop
 endfacet
 facet normal  4.465302e-01  5.913016e-01  6.715453e-01
   outer loop
     vertex  9.793176e+01  7.279187e+01  2.632987e+01
     vertex  1.013169e+02  7.023554e+01  2.632987e+01
     vertex  1.024998e+02  7.653111e+01  2.000000e+01
   endloop
 endfacet
 facet normal  7.025585e-01  2.664453e-01  6.598625e-01
   outer loop
     vertex  9.836927e+01  6.462199e+01  3.265975e+01
     vertex  9.316832e+01  6.265957e+01  3.898962e+01
     vertex  9.320516e+01  6.256244e+01  3.898962e+01
   endloop
 endfacet
 facet normal  7.442533e-01  1.391251e-01  6.532466e-01
   outer loop
     vertex  9.836927e+01  6.462199e+01  3.265975e+01
     vertex  1.043294e+02  6.245931e+01  2.632987e+01
     vertex  1.035500e+02  6.662900e+01  2.632987e+01
   endloop
 endfacet
 facet normal  7.442533e-01  1.391251e-01  6.532466e-01
   outer loop
     vertex  9.836927e+01  6.462199e+01  3.265975e+01
     vertex  9.877354e+01  6.245931e+01  3.265975e+01
     vertex  1.043294e+02  6.245931e+01  2.632987e+01
   endloop
 endfacet
 facet normal  7.446396e-01  1.391973e-01  6.527909e-01
   outer loop
     vertex  9.836927e+01  6.462199e+01  3.265975e+01
     vertex  9.320516e+01  6.256244e+01  3.898962e+01
     vertex  9.877354e+01  6.245931e+01  3.265975e+01
   endloop
 endfacet
 facet normal  1.798089e-01  7.295135e-01  6.599082e-01
   outer loop
     vertex  9.385177e+01  7.395272e+01  2.632987e+01
     vertex  9.884997e+01  7.844669e+01  2.000000e+01
     vertex  9.484775e+01  7.943315e+01  2.000000e+01
   endloop
 endfacet
 facet normal  0.000000e+00  7.560116e-01  6.545582e-01
   outer loop
     vertex  9.385177e+01  7.395272e+01  2.632987e+01
     vertex  9.484775e+01  7.943315e+01  2.000000e+01
     vertex  9.072576e+01  7.943315e+01  2.000000e+01
   endloop
 endfacet
 facet normal  2.035183e-01  7.152926e-01  6.685333e-01
   outer loop
     vertex  9.385177e+01  7.395272e+01  2.632987e+01
     vertex  9.793176e+01  7.279187e+01  2.632987e+01
     vertex  9.884997e+01  7.844669e+01  2.000000e+01
   endloop
 endfacet
 facet normal  6.210157e-01  4.286562e-01  6.561962e-01
   outer loop
     vertex  9.721104e+01  6.649258e+01  3.265975e+01
     vertex  9.310931e+01  6.274507e+01  3.898962e+01
     vertex  9.316832e+01  6.265957e+01  3.898962e+01
   endloop
 endfacet
 facet normal  4.995833e-01  5.639130e-01  6.575854e-01
   outer loop
     vertex  9.721104e+01  6.649258e+01  3.265975e+01
     vertex  9.303155e+01  6.281396e+01  3.898962e+01
     vertex  9.310931e+01  6.274507e+01  3.898962e+01
   endloop
 endfacet
 facet normal  6.440522e-01  3.987802e-01  6.528178e-01
   outer loop
     vertex  9.721104e+01  6.649258e+01  3.265975e+01
     vertex  9.316832e+01  6.265957e+01  3.898962e+01
     vertex  9.836927e+01  6.462199e+01  3.265975e+01
   endloop
 endfacet
 facet normal  6.437378e-01  3.985856e-01  6.532466e-01
   outer loop
     vertex  9.721104e+01  6.649258e+01  3.265975e+01
     vertex  9.836927e+01  6.462199e+01  3.265975e+01
     vertex  1.035500e+02  6.662900e+01  2.632987e+01
   endloop
 endfacet
 facet normal  6.437378e-01  3.985856e-01  6.532466e-01
   outer loop
     vertex  9.721104e+01  6.649258e+01  3.265975e+01
     vertex  1.035500e+02  6.662900e+01  2.632987e+01
     vertex  1.013169e+02  7.023554e+01  2.632987e+01
   endloop
 endfacet
 facet normal -6.832108e-02  7.373019e-01  6.720998e-01
   outer loop
     vertex  8.962796e+01  7.356133e+01  2.632987e+01
     vertex  9.385177e+01  7.395272e+01  2.632987e+01
     vertex  9.072576e+01  7.943315e+01  2.000000e+01
   endloop
 endfacet
 facet normal -1.815194e-01  7.364532e-01  6.516804e-01
   outer loop
     vertex  8.962796e+01  7.356133e+01  2.632987e+01
     vertex  9.072576e+01  7.943315e+01  2.000000e+01
     vertex  8.672354e+01  7.844669e+01  2.000000e+01
   endloop
 endfacet
 facet normal  3.492198e-01  6.653827e-01  6.597814e-01
   outer loop
     vertex  9.545530e+01  6.781846e+01  3.265975e+01
     vertex  9.293956e+01  6.286223e+01  3.898962e+01
     vertex  9.303155e+01  6.281396e+01  3.898962e+01
   endloop
 endfacet
 facet normal  4.562819e-01  6.042149e-01  6.532466e-01
   outer loop
     vertex  9.545530e+01  6.781846e+01  3.265975e+01
     vertex  9.721104e+01  6.649258e+01  3.265975e+01
     vertex  1.013169e+02  7.023554e+01  2.632987e+01
   endloop
 endfacet
 facet normal  4.565296e-01  6.045429e-01  6.527700e-01
   outer loop
     vertex  9.545530e+01  6.781846e+01  3.265975e+01
     vertex  9.303155e+01  6.281396e+01  3.898962e+01
     vertex  9.721104e+01  6.649258e+01  3.265975e+01
   endloop
 endfacet
 facet normal  2.072026e-01  7.282416e-01  6.532466e-01
   outer loop
     vertex  9.545530e+01  6.781846e+01  3.265975e+01
     vertex  9.793176e+01  7.279187e+01  2.632987e+01
     vertex  9.385177e+01  7.395272e+01  2.632987e+01
   endloop
 endfacet
 facet normal  4.562819e-01  6.042149e-01  6.532466e-01
   outer loop
     vertex  9.545530e+01  6.781846e+01  3.265975e+01
     vertex  1.013169e+02  7.023554e+01  2.632987e+01
     vertex  9.793176e+01  7.279187e+01  2.632987e+01
   endloop
 endfacet
 facet normal -3.484696e-01  6.639534e-01  6.616153e-01
   outer loop
     vertex  8.583075e+01  7.167054e+01  2.632987e+01
     vertex  8.672354e+01  7.844669e+01  2.000000e+01
     vertex  8.307369e+01  7.653111e+01  2.000000e+01
   endloop
 endfacet
 facet normal -5.018764e-01  5.665014e-01  6.536025e-01
   outer loop
     vertex  8.583075e+01  7.167054e+01  2.632987e+01
     vertex  8.307369e+01  7.653111e+01  2.000000e+01
     vertex  7.998833e+01  7.379772e+01  2.000000e+01
   endloop
 endfacet
 facet normal -3.320720e-01  6.668905e-01  6.670722e-01
   outer loop
     vertex  8.583075e+01  7.167054e+01  2.632987e+01
     vertex  8.962796e+01  7.356133e+01  2.632987e+01
     vertex  8.672354e+01  7.844669e+01  2.000000e+01
   endloop
 endfacet
 facet normal  1.807557e-01  7.333546e-01  6.553766e-01
   outer loop
     vertex  9.333914e+01  6.842056e+01  3.265975e+01
     vertex  9.283870e+01  6.288710e+01  3.898962e+01
     vertex  9.293956e+01  6.286223e+01  3.898962e+01
   endloop
 endfacet
 facet normal  0.000000e+00  7.528816e-01  6.581560e-01
   outer loop
     vertex  9.333914e+01  6.842056e+01  3.265975e+01
     vertex  9.273481e+01  6.288710e+01  3.898962e+01
     vertex  9.283870e+01  6.288710e+01  3.898962e+01
   endloop
 endfacet
 facet normal  2.072026e-01  7.282416e-01  6.532466e-01
   outer loop
     vertex  9.333914e+01  6.842056e+01  3.265975e+01
     vertex  9.545530e+01  6.781846e+01  3.265975e+01
     vertex  9.385177e+01  7.395272e+01  2.632987e+01
   endloop
 endfacet
 facet normal  2.072961e-01  7.285701e-01  6.528507e-01
   outer loop
     vertex  9.333914e+01  6.842056e+01  3.265975e+01
     vertex  9.293956e+01  6.286223e+01  3.898962e+01
     vertex  9.545530e+01  6.781846e+01  3.265975e+01
   endloop
 endfacet
 facet normal -5.469840e-01  4.986418e-01  6.724320e-01
   outer loop
     vertex  8.297299e+01  6.853573e+01  2.632987e+01
     vertex  8.583075e+01  7.167054e+01  2.632987e+01
     vertex  7.998833e+01  7.379772e+01  2.000000e+01
   endloop
 endfacet
 facet normal -6.238871e-01  4.306382e-01  6.521623e-01
   outer loop
     vertex  8.297299e+01  6.853573e+01  2.632987e+01
     vertex  7.998833e+01  7.379772e+01  2.000000e+01
     vertex  7.764677e+01  7.040538e+01  2.000000e+01
   endloop
 endfacet
 facet normal -1.798697e-01  7.297599e-01  6.596192e-01
   outer loop
     vertex  9.114839e+01  6.821756e+01  3.265975e+01
     vertex  9.263394e+01  6.286223e+01  3.898962e+01
     vertex  9.273481e+01  6.288710e+01  3.898962e+01
   endloop
 endfacet
 facet normal -6.986054e-02  7.539153e-01  6.532466e-01
   outer loop
     vertex  9.114839e+01  6.821756e+01  3.265975e+01
     vertex  9.385177e+01  7.395272e+01  2.632987e+01
     vertex  8.962796e+01  7.356133e+01  2.632987e+01
   endloop
 endfacet
 facet normal -6.989965e-02  7.543374e-01  6.527550e-01
   outer loop
     vertex  9.114839e+01  6.821756e+01  3.265975e+01
     vertex  9.273481e+01  6.288710e+01  3.898962e+01
     vertex  9.333914e+01  6.842056e+01  3.265975e+01
   endloop
 endfacet
 facet normal -6.986054e-02  7.539153e-01  6.532466e-01
   outer loop
     vertex  9.114839e+01  6.821756e+01  3.265975e+01
     vertex  9.333914e+01  6.842056e+01  3.265975e+01
     vertex  9.385177e+01  7.395272e+01  2.632987e+01
   endloop
 endfacet
 facet normal -6.960971e-01  2.696695e-01  6.653775e-01
   outer loop
     vertex  8.144064e+01  6.458027e+01  2.632987e+01
     vertex  8.297299e+01  6.853573e+01  2.632987e+01
     vertex  7.764677e+01  7.040538e+01  2.000000e+01
   endloop
 endfacet
 facet normal -6.995864e-01  2.653181e-01  6.634645e-01
   outer loop
     vertex  8.144064e+01  6.458027e+01  2.632987e+01
     vertex  7.764677e+01  7.040538e+01  2.000000e+01
     vertex  7.618509e+01  6.655125e+01  2.000000e+01
   endloop
 endfacet
 facet normal -7.520042e-01  9.130984e-02  6.528033e-01
   outer loop
     vertex  8.144064e+01  6.458027e+01  2.632987e+01
     vertex  7.618509e+01  6.655125e+01  2.000000e+01
     vertex  7.568824e+01  6.245931e+01  2.000000e+01
   endloop
 endfacet
 facet normal -3.374886e-01  6.777686e-01  6.532466e-01
   outer loop
     vertex  8.917891e+01  6.723687e+01  3.265975e+01
     vertex  9.114839e+01  6.821756e+01  3.265975e+01
     vertex  8.962796e+01  7.356133e+01  2.632987e+01
   endloop
 endfacet
 facet normal -3.513704e-01  6.694804e-01  6.544730e-01
   outer loop
     vertex  8.917891e+01  6.723687e+01  3.265975e+01
     vertex  9.254196e+01  6.281396e+01  3.898962e+01
     vertex  9.263394e+01  6.286223e+01  3.898962e+01
   endloop
 endfacet
 facet normal -4.989696e-01  5.632202e-01  6.586443e-01
   outer loop
     vertex  8.917891e+01  6.723687e+01  3.265975e+01
     vertex  9.246420e+01  6.274507e+01  3.898962e+01
     vertex  9.254196e+01  6.281396e+01  3.898962e+01
   endloop
 endfacet
 facet normal -3.374886e-01  6.777686e-01  6.532466e-01
   outer loop
     vertex  8.917891e+01  6.723687e+01  3.265975e+01
     vertex  8.962796e+01  7.356133e+01  2.632987e+01
     vertex  8.583075e+01  7.167054e+01  2.632987e+01
   endloop
 endfacet
 facet normal -3.376259e-01  6.780443e-01  6.528895e-01
   outer loop
     vertex  8.917891e+01  6.723687e+01  3.265975e+01
     vertex  9.263394e+01  6.286223e+01  3.898962e+01
     vertex  9.114839e+01  6.821756e+01  3.265975e+01
   endloop
 endfacet
 facet normal -5.595370e-01  5.100854e-01  6.532466e-01
   outer loop
     vertex  8.917891e+01  6.723687e+01  3.265975e+01
     vertex  8.583075e+01  7.167054e+01  2.632987e+01
     vertex  8.297299e+01  6.853573e+01  2.632987e+01
   endloop
 endfacet
 facet normal -7.520042e-01 -9.130984e-02  6.528033e-01
   outer loop
     vertex  8.144064e+01  6.033835e+01  2.632987e+01
     vertex  7.568824e+01  6.245931e+01  2.000000e+01
     vertex  7.618509e+01  5.836737e+01  2.000000e+01
   endloop
 endfacet
 facet normal -6.995864e-01 -2.653181e-01  6.634645e-01
   outer loop
     vertex  8.144064e+01  6.033835e+01  2.632987e+01
     vertex  7.618509e+01  5.836737e+01  2.000000e+01
     vertex  7.764677e+01  5.451323e+01  2.000000e+01
   endloop
 endfacet
 facet normal -7.400584e-01  0.000000e+00  6.725426e-01
   outer loop
     vertex  8.144064e+01  6.033835e+01  2.632987e+01
     vertex  8.144064e+01  6.458027e+01  2.632987e+01
     vertex  7.568824e+01  6.245931e+01  2.000000e+01
   endloop
 endfacet
 facet normal -5.595370e-01  5.100854e-01  6.532466e-01
   outer loop
     vertex  8.769668e+01  6.561095e+01  3.265975e+01
     vertex  8.917891e+01  6.723687e+01  3.265975e+01
     vertex  8.297299e+01  6.853573e+01  2.632987e+01
   endloop
 endfacet
 facet normal -6.187305e-01  4.270788e-01  6.593757e-01
   outer loop
     vertex  8.769668e+01  6.561095e+01  3.265975e+01
     vertex  9.240518e+01  6.265957e+01  3.898962e+01
     vertex  9.246420e+01  6.274507e+01  3.898962e+01
   endloop
 endfacet
 facet normal -5.598560e-01  5.103762e-01  6.527461e-01
   outer loop
     vertex  8.769668e+01  6.561095e+01  3.265975e+01
     vertex  9.246420e+01  6.274507e+01  3.898962e+01
     vertex  8.917891e+01  6.723687e+01  3.265975e+01
   endloop
 endfacet
 facet normal -6.238871e-01 -4.306382e-01  6.521623e-01
   outer loop
     vertex  8.297299e+01  5.638289e+01  2.632987e+01
     vertex  7.764677e+01  5.451323e+01  2.000000e+01
     vertex  7.998833e+01  5.112090e+01  2.000000e+01
   endloop
 endfacet
 facet normal -6.960971e-01 -2.696695e-01  6.653775e-01
   outer loop
     vertex  8.297299e+01  5.638289e+01  2.632987e+01
     vertex  8.144064e+01  6.033835e+01  2.632987e+01
     vertex  7.764677e+01  5.451323e+01  2.000000e+01
   endloop
 endfacet
 facet normal -7.077508e-01  2.684145e-01  6.534848e-01
   outer loop
     vertex  8.690190e+01  6.355938e+01  3.265975e+01
     vertex  9.236835e+01  6.256244e+01  3.898962e+01
     vertex  9.240518e+01  6.265957e+01  3.898962e+01
   endloop
 endfacet
 facet normal -7.466148e-01  9.065544e-02  6.590508e-01
   outer loop
     vertex  8.690190e+01  6.355938e+01  3.265975e+01
     vertex  9.235582e+01  6.245931e+01  3.898962e+01
     vertex  9.236835e+01  6.256244e+01  3.898962e+01
   endloop
 endfacet
 facet normal -7.060169e-01  2.735124e-01  6.532466e-01
   outer loop
     vertex  8.690190e+01  6.355938e+01  3.265975e+01
     vertex  8.297299e+01  6.853573e+01  2.632987e+01
     vertex  8.144064e+01  6.458027e+01  2.632987e+01
   endloop
 endfacet
 facet normal -7.060169e-01  2.735124e-01  6.532466e-01
   outer loop
     vertex  8.690190e+01  6.355938e+01  3.265975e+01
     vertex  8.769668e+01  6.561095e+01  3.265975e+01
     vertex  8.297299e+01  6.853573e+01  2.632987e+01
   endloop
 endfacet
 facet normal -7.062681e-01  2.736097e-01  6.529342e-01
   outer loop
     vertex  8.690190e+01  6.355938e+01  3.265975e+01
     vertex  9.240518e+01  6.265957e+01  3.898962e+01
     vertex  8.769668e+01  6.561095e+01  3.265975e+01
   endloop
 endfacet
 facet normal -5.018764e-01 -5.665014e-01  6.536025e-01
   outer loop
     vertex  8.583075e+01  5.324807e+01  2.632987e+01
     vertex  7.998833e+01  5.112090e+01  2.000000e+01
     vertex  8.307369e+01  4.838751e+01  2.000000e+01
   endloop
 endfacet
 facet normal -3.484696e-01 -6.639534e-01  6.616153e-01
   outer loop
     vertex  8.583075e+01  5.324807e+01  2.632987e+01
     vertex  8.307369e+01  4.838751e+01  2.000000e+01
     vertex  8.672354e+01  4.647192e+01  2.000000e+01
   endloop
 endfacet
 facet normal -5.469840e-01 -4.986418e-01  6.724320e-01
   outer loop
     vertex  8.583075e+01  5.324807e+01  2.632987e+01
     vertex  8.297299e+01  5.638289e+01  2.632987e+01
     vertex  7.998833e+01  5.112090e+01  2.000000e+01
   endloop
 endfacet
 facet normal -7.466148e-01 -9.065544e-02  6.590508e-01
   outer loop
     vertex  8.690190e+01  6.135924e+01  3.265975e+01
     vertex  9.236835e+01  6.235618e+01  3.898962e+01
     vertex  9.235582e+01  6.245931e+01  3.898962e+01
   endloop
 endfacet
 facet normal -7.077508e-01 -2.684145e-01  6.534848e-01
   outer loop
     vertex  8.690190e+01  6.135924e+01  3.265975e+01
     vertex  9.240518e+01  6.225905e+01  3.898962e+01
     vertex  9.236835e+01  6.235618e+01  3.898962e+01
   endloop
 endfacet
 facet normal -7.575794e-01  0.000000e+00  6.527431e-01
   outer loop
     vertex  8.690190e+01  6.135924e+01  3.265975e+01
     vertex  9.235582e+01  6.245931e+01  3.898962e+01
     vertex  8.690190e+01  6.355938e+01  3.265975e+01
   endloop
 endfacet
 facet normal -7.571452e-01  0.000000e+00  6.532466e-01
   outer loop
     vertex  8.690190e+01  6.135924e+01  3.265975e+01
     vertex  8.144064e+01  6.458027e+01  2.632987e+01
     vertex  8.144064e+01  6.033835e+01  2.632987e+01
   endloop
 endfacet
 facet normal -7.060169e-01 -2.735124e-01  6.532466e-01
   outer loop
     vertex  8.690190e+01  6.135924e+01  3.265975e+01
     vertex  8.144064e+01  6.033835e+01  2.632987e+01
     vertex  8.297299e+01  5.638289e+01  2.632987e+01
   endloop
 endfacet
 facet normal -7.571452e-01  0.000000e+00  6.532466e-01
   outer loop
     vertex  8.690190e+01  6.135924e+01  3.265975e+01
     vertex  8.690190e+01  6.355938e+01  3.265975e+01
     vertex  8.144064e+01  6.458027e+01  2.632987e+01
   endloop
 endfacet
 facet normal -1.815194e-01 -7.364532e-01  6.516804e-01
   outer loop
     vertex  8.962796e+01  5.135729e+01  2.632987e+01
     vertex  8.672354e+01  4.647192e+01  2.000000e+01
     vertex  9.072576e+01  4.548546e+01  2.000000e+01
   endloop
 endfacet
 facet normal -3.320720e-01 -6.668905e-01  6.670722e-01
   outer loop
     vertex  8.962796e+01  5.135729e+01  2.632987e+01
     vertex  8.583075e+01  5.324807e+01  2.632987e+01
     vertex  8.672354e+01  4.647192e+01  2.000000e+01
   endloop
 endfacet
 facet normal -6.187305e-01 -4.270788e-01  6.593757e-01
   outer loop
     vertex  8.769668e+01  5.930767e+01  3.265975e+01
     vertex  9.246420e+01  6.217355e+01  3.898962e+01
     vertex  9.240518e+01  6.225905e+01  3.898962e+01
   endloop
 endfacet
 facet normal -7.062681e-01 -2.736097e-01  6.529342e-01
   outer loop
     vertex  8.769668e+01  5.930767e+01  3.265975e+01
     vertex  9.240518e+01  6.225905e+01  3.898962e+01
     vertex  8.690190e+01  6.135924e+01  3.265975e+01
   endloop
 endfacet
 facet normal -7.060169e-01 -2.735124e-01  6.532466e-01
   outer loop
     vertex  8.769668e+01  5.930767e+01  3.265975e+01
     vertex  8.690190e+01  6.135924e+01  3.265975e+01
     vertex  8.297299e+01  5.638289e+01  2.632987e+01
   endloop
 endfacet
 facet normal -6.832108e-02 -7.373019e-01  6.720998e-01
   outer loop
     vertex  9.385177e+01  5.096590e+01  2.632987e+01
     vertex  8.962796e+01  5.135729e+01  2.632987e+01
     vertex  9.072576e+01  4.548546e+01  2.000000e+01
   endloop
 endfacet
 facet normal  0.000000e+00 -7.560116e-01  6.545582e-01
   outer loop
     vertex  9.385177e+01  5.096590e+01  2.632987e+01
     vertex  9.072576e+01  4.548546e+01  2.000000e+01
     vertex  9.484775e+01  4.548546e+01  2.000000e+01
   endloop
 endfacet
 facet normal  1.798089e-01 -7.295135e-01  6.599082e-01
   outer loop
     vertex  9.385177e+01  5.096590e+01  2.632987e+01
     vertex  9.484775e+01  4.548546e+01  2.000000e+01
     vertex  9.884997e+01  4.647192e+01  2.000000e+01
   endloop
 endfacet
 facet normal -5.595370e-01 -5.100854e-01  6.532466e-01
   outer loop
     vertex  8.917891e+01  5.768175e+01  3.265975e+01
     vertex  8.769668e+01  5.930767e+01  3.265975e+01
     vertex  8.297299e+01  5.638289e+01  2.632987e+01
   endloop
 endfacet
 facet normal -4.989696e-01 -5.632202e-01  6.586443e-01
   outer loop
     vertex  8.917891e+01  5.768175e+01  3.265975e+01
     vertex  9.254196e+01  6.210466e+01  3.898962e+01
     vertex  9.246420e+01  6.217355e+01  3.898962e+01
   endloop
 endfacet
 facet normal -3.513704e-01 -6.694804e-01  6.544730e-01
   outer loop
     vertex  8.917891e+01  5.768175e+01  3.265975e+01
     vertex  9.263394e+01  6.205638e+01  3.898962e+01
     vertex  9.254196e+01  6.210466e+01  3.898962e+01
   endloop
 endfacet
 facet normal -5.595370e-01 -5.100854e-01  6.532466e-01
   outer loop
     vertex  8.917891e+01  5.768175e+01  3.265975e+01
     vertex  8.297299e+01  5.638289e+01  2.632987e+01
     vertex  8.583075e+01  5.324807e+01  2.632987e+01
   endloop
 endfacet
 facet normal -5.598560e-01 -5.103762e-01  6.527461e-01
   outer loop
     vertex  8.917891e+01  5.768175e+01  3.265975e+01
     vertex  9.246420e+01  6.217355e+01  3.898962e+01
     vertex  8.769668e+01  5.930767e+01  3.265975e+01
   endloop
 endfacet
 facet normal  2.035183e-01 -7.152926e-01  6.685333e-01
   outer loop
     vertex  9.793176e+01  5.212675e+01  2.632987e+01
     vertex  9.385177e+01  5.096590e+01  2.632987e+01
     vertex  9.884997e+01  4.647192e+01  2.000000e+01
   endloop
 endfacet
 facet normal  3.526180e-01 -6.718574e-01  6.513587e-01
   outer loop
     vertex  9.793176e+01  5.212675e+01  2.632987e+01
     vertex  9.884997e+01  4.647192e+01  2.000000e+01
     vertex  1.024998e+02  4.838751e+01  2.000000e+01
   endloop
 endfacet
 facet normal -1.798697e-01 -7.297599e-01  6.596192e-01
   outer loop
     vertex  9.114839e+01  5.670106e+01  3.265975e+01
     vertex  9.273481e+01  6.203152e+01  3.898962e+01
     vertex  9.263394e+01  6.205638e+01  3.898962e+01
   endloop
 endfacet
 facet normal -3.376259e-01 -6.780443e-01  6.528895e-01
   outer loop
     vertex  9.114839e+01  5.670106e+01  3.265975e+01
     vertex  9.263394e+01  6.205638e+01  3.898962e+01
     vertex  8.917891e+01  5.768175e+01  3.265975e+01
   endloop
 endfacet
 facet normal -6.986054e-02 -7.539153e-01  6.532466e-01
   outer loop
     vertex  9.114839e+01  5.670106e+01  3.265975e+01
     vertex  8.962796e+01  5.135729e+01  2.632987e+01
     vertex  9.385177e+01  5.096590e+01  2.632987e+01
   endloop
 endfacet
 facet normal -3.374886e-01 -6.777686e-01  6.532466e-01
   outer loop
     vertex  9.114839e+01  5.670106e+01  3.265975e+01
     vertex  8.917891e+01  5.768175e+01  3.265975e+01
     vertex  8.583075e+01  5.324807e+01  2.632987e+01
   endloop
 endfacet
 facet normal -3.374886e-01 -6.777686e-01  6.532466e-01
   outer loop
     vertex  9.114839e+01  5.670106e+01  3.265975e+01
     vertex  8.583075e+01  5.324807e+01  2.632987e+01
     vertex  8.962796e+01  5.135729e+01  2.632987e+01
   endloop
 endfacet
 facet normal  4.465302e-01 -5.913016e-01  6.715453e-01
   outer loop
     vertex  1.013169e+02  5.468307e+01  2.632987e+01
     vertex  9.793176e+01  5.212675e+01  2.632987e+01
     vertex  1.024998e+02  4.838751e+01  2.000000e+01
   endloop
 endfacet
 facet normal  5.006898e-01 -5.651620e-01  6.556689e-01
   outer loop
     vertex  1.013169e+02  5.468307e+01  2.632987e+01
     vertex  1.024998e+02  4.838751e+01  2.000000e+01
     vertex  1.055852e+02  5.112090e+01  2.000000e+01
   endloop
 endfacet
 facet normal  6.194725e-01 -4.275910e-01  6.583463e-01
   outer loop
     vertex  1.013169e+02  5.468307e+01  2.632987e+01
     vertex  1.055852e+02  5.112090e+01  2.000000e+01
     vertex  1.079267e+02  5.451323e+01  2.000000e+01
   endloop
 endfacet
 facet normal  0.000000e+00 -7.528816e-01  6.581560e-01
   outer loop
     vertex  9.333914e+01  5.649806e+01  3.265975e+01
     vertex  9.283870e+01  6.203152e+01  3.898962e+01
     vertex  9.273481e+01  6.203152e+01  3.898962e+01
   endloop
 endfacet
 facet normal  1.807557e-01 -7.333546e-01  6.553766e-01
   outer loop
     vertex  9.333914e+01  5.649806e+01  3.265975e+01
     vertex  9.293956e+01  6.205638e+01  3.898962e+01
     vertex  9.283870e+01  6.203152e+01  3.898962e+01
   endloop
 endfacet
 facet normal -6.989965e-02 -7.543374e-01  6.527550e-01
   outer loop
     vertex  9.333914e+01  5.649806e+01  3.265975e+01
     vertex  9.273481e+01  6.203152e+01  3.898962e+01
     vertex  9.114839e+01  5.670106e+01  3.265975e+01
   endloop
 endfacet
 facet normal -6.986054e-02 -7.539153e-01  6.532466e-01
   outer loop
     vertex  9.333914e+01  5.649806e+01  3.265975e+01
     vertex  9.114839e+01  5.670106e+01  3.265975e+01
     vertex  9.385177e+01  5.096590e+01  2.632987e+01
   endloop
 endfacet
 facet normal  2.072026e-01 -7.282416e-01  6.532466e-01
   outer loop
     vertex  9.333914e+01  5.649806e+01  3.265975e+01
     vertex  9.385177e+01  5.096590e+01  2.632987e+01
     vertex  9.793176e+01  5.212675e+01  2.632987e+01
   endloop
 endfacet
 facet normal  6.313491e-01 -3.909148e-01  6.697641e-01
   outer loop
     vertex  1.035500e+02  5.828962e+01  2.632987e+01
     vertex  1.013169e+02  5.468307e+01  2.632987e+01
     vertex  1.079267e+02  5.451323e+01  2.000000e+01
   endloop
 endfacet
 facet normal  7.095915e-01 -2.691125e-01  6.511977e-01
   outer loop
     vertex  1.035500e+02  5.828962e+01  2.632987e+01
     vertex  1.079267e+02  5.451323e+01  2.000000e+01
     vertex  1.093884e+02  5.836737e+01  2.000000e+01
   endloop
 endfacet
 facet normal  7.442533e-01 -1.391251e-01  6.532466e-01
   outer loop
     vertex  1.035500e+02  5.828962e+01  2.632987e+01
     vertex  1.043294e+02  6.245931e+01  2.632987e+01
     vertex  9.877354e+01  6.245931e+01  3.265975e+01
   endloop
 endfacet
 facet normal  7.290395e-01 -1.362811e-01  6.707674e-01
   outer loop
     vertex  1.035500e+02  5.828962e+01  2.632987e+01
     vertex  1.093884e+02  5.836737e+01  2.000000e+01
     vertex  1.043294e+02  6.245931e+01  2.632987e+01
   endloop
 endfacet
 facet normal  3.492198e-01 -6.653827e-01  6.597814e-01
   outer loop
     vertex  9.545530e+01  5.710015e+01  3.265975e+01
     vertex  9.303155e+01  6.210466e+01  3.898962e+01
     vertex  9.293956e+01  6.205638e+01  3.898962e+01
   endloop
 endfacet
 facet normal  2.072961e-01 -7.285701e-01  6.528507e-01
   outer loop
     vertex  9.545530e+01  5.710015e+01  3.265975e+01
     vertex  9.293956e+01  6.205638e+01  3.898962e+01
     vertex  9.333914e+01  5.649806e+01  3.265975e+01
   endloop
 endfacet
 facet normal  2.072026e-01 -7.282416e-01  6.532466e-01
   outer loop
     vertex  9.545530e+01  5.710015e+01  3.265975e+01
     vertex  9.333914e+01  5.649806e+01  3.265975e+01
     vertex  9.793176e+01  5.212675e+01  2.632987e+01
   endloop
 endfacet
 facet normal  4.995833e-01 -5.639130e-01  6.575854e-01
   outer loop
     vertex  9.721104e+01  5.842603e+01  3.265975e+01
     vertex  9.310931e+01  6.217355e+01  3.898962e+01
     vertex  9.303155e+01  6.210466e+01  3.898962e+01
   endloop
 endfacet
 facet normal  6.210157e-01 -4.286562e-01  6.561962e-01
   outer loop
     vertex  9.721104e+01  5.842603e+01  3.265975e+01
     vertex  9.316832e+01  6.225905e+01  3.898962e+01
     vertex  9.310931e+01  6.217355e+01  3.898962e+01
   endloop
 endfacet
 facet normal  4.562819e-01 -6.042149e-01  6.532466e-01
   outer loop
     vertex  9.721104e+01  5.842603e+01  3.265975e+01
     vertex  9.545530e+01  5.710015e+01  3.265975e+01
     vertex  9.793176e+01  5.212675e+01  2.632987e+01
   endloop
 endfacet
 facet normal  4.562819e-01 -6.042149e-01  6.532466e-01
   outer loop
     vertex  9.721104e+01  5.842603e+01  3.265975e+01
     vertex  9.793176e+01  5.212675e+01  2.632987e+01
     vertex  1.013169e+02  5.468307e+01  2.632987e+01
   endloop
 endfacet
 facet normal  6.437378e-01 -3.985856e-01  6.532466e-01
   outer loop
     vertex  9.721104e+01  5.842603e+01  3.265975e+01
     vertex  1.013169e+02  5.468307e+01  2.632987e+01
     vertex  1.035500e+02  5.828962e+01  2.632987e+01
   endloop
 endfacet
 facet normal  4.565296e-01 -6.045429e-01  6.527700e-01
   outer loop
     vertex  9.721104e+01  5.842603e+01  3.265975e+01
     vertex  9.303155e+01  6.210466e+01  3.898962e+01
     vertex  9.545530e+01  5.710015e+01  3.265975e+01
   endloop
 endfacet
 facet normal  6.437378e-01 -3.985856e-01  6.532466e-01
   outer loop
     vertex  9.836927e+01  6.029663e+01  3.265975e+01
     vertex  9.721104e+01  5.842603e+01  3.265975e+01
     vertex  1.035500e+02  5.828962e+01  2.632987e+01
   endloop
 endfacet
 facet normal  7.025585e-01 -2.664453e-01  6.598625e-01
   outer loop
     vertex  9.836927e+01  6.029663e+01  3.265975e+01
     vertex  9.320516e+01  6.235618e+01  3.898962e+01
     vertex  9.316832e+01  6.225905e+01  3.898962e+01
   endloop
 endfacet
 facet normal  7.446396e-01 -1.391973e-01  6.527909e-01
   outer loop
     vertex  9.836927e+01  6.029663e+01  3.265975e+01
     vertex  9.877354e+01  6.245931e+01  3.265975e+01
     vertex  9.320516e+01  6.235618e+01  3.898962e+01
   endloop
 endfacet
 facet normal  6.440522e-01 -3.987802e-01  6.528178e-01
   outer loop
     vertex  9.836927e+01  6.029663e+01  3.265975e+01
     vertex  9.316832e+01  6.225905e+01  3.898962e+01
     vertex  9.721104e+01  5.842603e+01  3.265975e+01
   endloop
 endfacet
 facet normal  7.442533e-01 -1.391251e-01  6.532466e-01
   outer loop
     vertex  9.836927e+01  6.029663e+01  3.265975e+01
     vertex  1.035500e+02  5.828962e+01  2.632987e+01
     vertex  9.877354e+01  6.245931e+01  3.265975e+01
   endloop
 endfacet
 facet normal  0.000000e+00  0.000000e+00  1.000000e+00
   outer loop
     vertex  9.303155e+01  6.281396e+01  3.898962e+01
     vertex  9.293956e+01  6.286223e+01  3.898962e+01
     vertex  9.283870e+01  6.288710e+01  3.898962e+01
   endloop
 endfacet
 facet normal  0.000000e+00  0.000000e+00  1.000000e+00
   outer loop
     vertex  9.310931e+01  6.274507e+01  3.898962e+01
     vertex  9.321768e+01  6.245931e+01  3.898962e+01
     vertex  9.320516e+01  6.256244e+01  3.898962e+01
   endloop
 endfacet
 facet normal  0.000000e+00  0.000000e+00  1.000000e+00
   outer loop
     vertex  9.310931e+01  6.274507e+01  3.898962e+01
     vertex  9.320516e+01  6.256244e+01  3.898962e+01
     vertex  9.316832e+01  6.265957e+01  3.898962e+01
   endloop
 endfacet
 facet normal  0.000000e+00  0.000000e+00  1.000000e+00
   outer loop
     vertex  9.310931e+01  6.274507e+01  3.898962e+01
     vertex  9.283870e+01  6.288710e+01  3.898962e+01
     vertex  9.273481e+01  6.288710e+01  3.898962e+01
   endloop
 endfacet
 facet normal  0.000000e+00  0.000000e+00  1.000000e+00
   outer loop
     vertex  9.310931e+01  6.274507e+01  3.898962e+01
     vertex  9.273481e+01  6.288710e+01  3.898962e+01
     vertex  9.263394e+01  6.286223e+01  3.898962e+01
   endloop
 endfacet
 facet normal  0.000000e+00  0.000000e+00  1.000000e+00
   outer loop
     vertex  9.310931e+01  6.274507e+01  3.898962e+01
     vertex  9.263394e+01  6.286223e+01  3.898962e+01
     vertex  9.254196e+01  6.281396e+01  3.898962e+01
   endloop
 endfacet
 facet normal  0.000000e+00  0.000000e+00  1.000000e+00
   outer loop
     vertex  9.310931e+01  6.274507e+01  3.898962e+01
     vertex  9.254196e+01  6.281396e+01  3.898962e+01
     vertex  9.246420e+01  6.274507e+01  3.898962e+01
   endloop
 endfacet
 facet normal  0.000000e+00  0.000000e+00  1.000000e+00
   outer loop
     vertex  9.310931e+01  6.274507e+01  3.898962e+01
     vertex  9.246420e+01  6.274507e+01  3.898962e+01
     vertex  9.240518e+01  6.265957e+01  3.898962e+01
   endloop
 endfacet
 facet normal  0.000000e+00  0.000000e+00  1.000000e+00
   outer loop
     vertex  9.310931e+01  6.274507e+01  3.898962e+01
     vertex  9.240518e+01  6.265957e+01  3.898962e+01
     vertex  9.236835e+01  6.256244e+01  3.898962e+01
   endloop
 endfacet
 facet normal  0.000000e+00  0.000000e+00  1.000000e+00
   outer loop
     vertex  9.310931e+01  6.274507e+01  3.898962e+01
     vertex  9.236835e+01  6.256244e+01  3.898962e+01
     vertex  9.235582e+01  6.245931e+01  3.898962e+01
   endloop
 endfacet
 facet normal  0.000000e+00  0.000000e+00  1.000000e+00
   outer loop
     vertex  9.310931e+01  6.274507e+01  3.898962e+01
     vertex  9.235582e+01  6.245931e+01  3.898962e+01
     vertex  9.236835e+01  6.235618e+01  3.898962e+01
   endloop
 endfacet
 facet normal  0.000000e+00  0.000000e+00  1.000000e+00
   outer loop
     vertex  9.310931e+01  6.274507e+01  3.898962e+01
     vertex  9.236835e+01  6.235618e+01  3.898962e+01
     vertex  9.240518e+01  6.225905e+01  3.898962e+01
   endloop
 endfacet
 facet normal  0.000000e+00  0.000000e+00  1.000000e+00
   outer loop
     vertex  9.310931e+01  6.274507e+01  3.898962e+01
     vertex  9.240518e+01  6.225905e+01  3.898962e+01
     vertex  9.246420e+01  6.217355e+01  3.898962e+01
   endloop
 endfacet
 facet normal  0.000000e+00  0.000000e+00  1.000000e+00
   outer loop
     vertex  9.310931e+01  6.274507e+01  3.898962e+01
     vertex  9.246420e+01  6.217355e+01  3.898962e+01
     vertex  9.254196e+01  6.210466e+01  3.898962e+01
   endloop
 endfacet
 facet normal  0.000000e+00  0.000000e+00  1.000000e+00
   outer loop
     vertex  9.310931e+01  6.274507e+01  3.898962e+01
     vertex  9.254196e+01  6.210466e+01  3.898962e+01
     vertex  9.263394e+01  6.205638e+01  3.898962e+01
   endloop
 endfacet
 facet normal  0.000000e+00  0.000000e+00  1.000000e+00
   outer loop
     vertex  9.310931e+01  6.274507e+01  3.898962e+01
     vertex  9.263394e+01  6.205638e+01  3.898962e+01
     vertex  9.273481e+01  6.203152e+01  3.898962e+01
   endloop
 endfacet
 facet normal  0.000000e+00  0.000000e+00  1.000000e+00
   outer loop
     vertex  9.310931e+01  6.274507e+01  3.898962e+01
     vertex  9.273481e+01  6.203152e+01  3.898962e+01
     vertex  9.283870e+01  6.203152e+01  3.898962e+01
   endloop
 endfacet
 facet normal  0.000000e+00  0.000000e+00  1.000000e+00
   outer loop
     vertex  9.310931e+01  6.274507e+01  3.898962e+01
     vertex  9.283870e+01  6.203152e+01  3.898962e+01
     vertex  9.293956e+01  6.205638e+01  3.898962e+01
   endloop
 endfacet
 facet normal  0.000000e+00  0.000000e+00  1.000000e+00
   outer loop
     vertex  9.310931e+01  6.274507e+01  3.898962e+01
     vertex  9.293956e+01  6.205638e+01  3.898962e+01
     vertex  9.303155e+01  6.210466e+01  3.898962e+01
   endloop
 endfacet
 facet normal  0.000000e+00  0.000000e+00  1.000000e+00
   outer loop
     vertex  9.310931e+01  6.274507e+01  3.898962e+01
     vertex  9.303155e+01  6.210466e+01  3.898962e+01
     vertex  9.310931e+01  6.217355e+01  3.898962e+01
   endloop
 endfacet
 facet normal  0.000000e+00  0.000000e+00  1.000000e+00
   outer loop
     vertex  9.310931e+01  6.274507e+01  3.898962e+01
     vertex  9.310931e+01  6.217355e+01  3.898962e+01
     vertex  9.316832e+01  6.225905e+01  3.898962e+01
   endloop
 endfacet
 facet normal  0.000000e+00  0.000000e+00  1.000000e+00
   outer loop
     vertex  9.310931e+01  6.274507e+01  3.898962e+01
     vertex  9.316832e+01  6.225905e+01  3.898962e+01
     vertex  9.320516e+01  6.235618e+01  3.898962e+01
   endloop
 endfacet
 facet normal  0.000000e+00  0.000000e+00  1.000000e+00
   outer loop
     vertex  9.310931e+01  6.274507e+01  3.898962e+01
     vertex  9.320516e+01  6.235618e+01  3.898962e+01
     vertex  9.321768e+01  6.245931e+01  3.898962e+01
   endloop
 endfacet
 facet normal  0.000000e+00  0.000000e+00  1.000000e+00
   outer loop
     vertex  9.310931e+01  6.274507e+01  3.898962e+01
     vertex  9.303155e+01  6.281396e+01  3.898962e+01
     vertex  9.283870e+01  6.288710e+01  3.898962e+01
   endloop
 endfacet
endsolid
