solid 
 facet normal -1.000000e+00  0.000000e+00  0.000000e+00
   outer loop
     vertex  0.000000e+00  0.000000e+00  2.000000e+01
     vertex  0.000000e+00  1.089982e+02  0.000000e+00
     vertex  0.000000e+00  0.000000e+00  0.000000e+00
   endloop
 endfacet
 facet normal -1.000000e+00  0.000000e+00  0.000000e+00
   outer loop
     vertex  0.000000e+00  0.000000e+00  2.000000e+01
     vertex  0.000000e+00  1.089982e+02  2.000000e+01
     vertex  0.000000e+00  1.089982e+02  0.000000e+00
   endloop
 endfacet
 facet normal  0.000000e+00 -1.000000e+00 -0.000000e+00
   outer loop
     vertex  1.465204e+02  0.000000e+00  2.000000e+01
     vertex  0.000000e+00  0.000000e+00  0.000000e+00
     vertex  1.465204e+02  0.000000e+00  0.000000e+00
   endloop
 endfacet
 facet normal -0.000000e+00 -1.000000e+00  0.000000e+00
   outer loop
     vertex  1.465204e+02  0.000000e+00  2.000000e+01
     vertex  0.000000e+00  0.000000e+00  2.000000e+01
     vertex  0.000000e+00  0.000000e+00  0.000000e+00
   endloop
 endfacet
 facet normal  0.000000e+00  0.000000e+00  1.000000e+00
   outer loop
     vertex  9.680776e+01  4.707987e+01  2.000000e+01
     vertex  9.450345e+01  4.912131e+01  2.000000e+01
     vertex  0.000000e+00  0.000000e+00  2.000000e+01
   endloop
 endfacet
 facet normal  0.000000e+00  0.000000e+00  1.000000e+00
   outer loop
     vertex  9.275465e+01  5.165490e+01  2.000000e+01
     vertex  0.000000e+00  0.000000e+00  2.000000e+01
     vertex  9.450345e+01  4.912131e+01  2.000000e+01
   endloop
 endfacet
 facet normal  0.000000e+00  0.000000e+00  1.000000e+00
   outer loop
     vertex  9.953367e+01  4.564921e+01  2.000000e+01
     vertex  9.680776e+01  4.707987e+01  2.000000e+01
     vertex  0.000000e+00  0.000000e+00  2.000000e+01
   endloop
 endfacet
 facet normal  0.000000e+00  0.000000e+00  1.000000e+00
   outer loop
     vertex  9.166298e+01  5.453337e+01  2.000000e+01
     vertex  0.000000e+00  0.000000e+00  2.000000e+01
     vertex  9.275465e+01  5.165490e+01  2.000000e+01
   endloop
 endfacet
 facet normal  0.000000e+00  0.000000e+00  1.000000e+00
   outer loop
     vertex  1.465204e+02  0.000000e+00  2.000000e+01
     vertex  9.953367e+01  4.564921e+01  2.000000e+01
     vertex  0.000000e+00  0.000000e+00  2.000000e+01
   endloop
 endfacet
 facet normal  0.000000e+00  0.000000e+00  1.000000e+00
   outer loop
     vertex  1.025227e+02  4.491247e+01  2.000000e+01
     vertex  9.953367e+01  4.564921e+01  2.000000e+01
     vertex  1.465204e+02  0.000000e+00  2.000000e+01
   endloop
 endfacet
 facet normal  0.000000e+00  0.000000e+00  1.000000e+00
   outer loop
     vertex  9.129191e+01  5.758946e+01  2.000000e+01
     vertex  0.000000e+00  1.089982e+02  2.000000e+01
     vertex  0.000000e+00  0.000000e+00  2.000000e+01
   endloop
 endfacet
 facet normal  0.000000e+00  0.000000e+00  1.000000e+00
   outer loop
     vertex  9.129191e+01  5.758946e+01  2.000000e+01
     vertex  0.000000e+00  0.000000e+00  2.000000e+01
     vertex  9.166298e+01  5.453337e+01  2.000000e+01
   endloop
 endfacet
 facet normal  0.000000e+00  0.000000e+00  1.000000e+00
   outer loop
     vertex  1.056013e+02  4.491247e+01  2.000000e+01
     vertex  1.025227e+02  4.491247e+01  2.000000e+01
     vertex  1.465204e+02  0.000000e+00  2.000000e+01
   endloop
 endfacet
 facet normal  0.000000e+00  0.000000e+00  1.000000e+00
   outer loop
     vertex  9.166298e+01  6.064554e+01  2.000000e+01
     vertex  0.000000e+00  1.089982e+02  2.000000e+01
     vertex  9.129191e+01  5.758946e+01  2.000000e+01
   endloop
 endfacet
 facet normal  0.000000e+00  0.000000e+00  1.000000e+00
   outer loop
     vertex  1.085903e+02  4.564921e+01  2.000000e+01
     vertex  1.056013e+02  4.491247e+01  2.000000e+01
     vertex  1.465204e+02  0.000000e+00  2.000000e+01
   endloop
 endfacet
 facet normal  0.000000e+00  0.000000e+00  1.000000e+00
   outer loop
     vertex  9.275465e+01  6.352402e+01  2.000000e+01
     vertex  0.000000e+00  1.089982e+02  2.000000e+01
     vertex  9.166298e+01  6.064554e+01  2.000000e+01
   endloop
 endfacet
 facet normal  0.000000e+00  0.000000e+00  1.000000e+00
   outer loop
     vertex  1.113162e+02  4.707987e+01  2.000000e+01
     vertex  1.085903e+02  4.564921e+01  2.000000e+01
     vertex  1.465204e+02  0.000000e+00  2.000000e+01
   endloop
 endfacet
 facet normal  0.000000e+00  0.000000e+00  1.000000e+00
   outer loop
     vertex  9.450345e+01  6.605760e+01  2.000000e+01
     vertex  0.000000e+00  1.089982e+02  2.000000e+01
     vertex  9.275465e+01  6.352402e+01  2.000000e+01
   endloop
 endfacet
 facet normal  0.000000e+00  0.000000e+00  1.000000e+00
   outer loop
     vertex  1.136206e+02  4.912131e+01  2.000000e+01
     vertex  1.113162e+02  4.707987e+01  2.000000e+01
     vertex  1.465204e+02  0.000000e+00  2.000000e+01
   endloop
 endfacet
 facet normal  0.000000e+00  0.000000e+00  1.000000e+00
   outer loop
     vertex  9.680776e+01  6.809904e+01  2.000000e+01
     vertex  0.000000e+00  1.089982e+02  2.000000e+01
     vertex  9.450345e+01  6.605760e+01  2.000000e+01
   endloop
 endfacet
 facet normal  0.000000e+00  0.000000e+00  1.000000e+00
   outer loop
     vertex  1.153694e+02  5.165490e+01  2.000000e+01
     vertex  1.136206e+02  4.912131e+01  2.000000e+01
     vertex  1.465204e+02  0.000000e+00  2.000000e+01
   endloop
 endfacet
 facet normal  0.000000e+00  0.000000e+00  1.000000e+00
   outer loop
     vertex  9.953367e+01  6.952970e+01  2.000000e+01
     vertex  0.000000e+00  1.089982e+02  2.000000e+01
     vertex  9.680776e+01  6.809904e+01  2.000000e+01
   endloop
 endfacet
 facet normal  0.000000e+00  0.000000e+00  1.000000e+00
   outer loop
     vertex  1.164610e+02  5.453337e+01  2.000000e+01
     vertex  1.153694e+02  5.165490e+01  2.000000e+01
     vertex  1.465204e+02  0.000000e+00  2.000000e+01
   endloop
 endfacet
 facet normal  0.000000e+00  0.000000e+00  1.000000e+00
   outer loop
     vertex  1.168321e+02  5.758946e+01  2.000000e+01
     vertex  1.164610e+02  5.453337e+01  2.000000e+01
     vertex  1.465204e+02  0.000000e+00  2.000000e+01
   endloop
 endfacet
 facet normal  0.000000e+00  0.000000e+00  1.000000e+00
   outer loop
     vertex  1.465204e+02  1.089982e+02  2.000000e+01
     vertex  1.164610e+02  6.064554e+01  2.000000e+01
     vertex  1.168321e+02  5.758946e+01  2.000000e+01
   endloop
 endfacet
 facet normal  0.000000e+00  0.000000e+00  1.000000e+00
   outer loop
     vertex  1.465204e+02  1.089982e+02  2.000000e+01
     vertex  1.153694e+02  6.352402e+01  2.000000e+01
     vertex  1.164610e+02  6.064554e+01  2.000000e+01
   endloop
 endfacet
 facet normal  0.000000e+00  0.000000e+00  1.000000e+00
   outer loop
     vertex  1.465204e+02  1.089982e+02  2.000000e+01
     vertex  1.136206e+02  6.605760e+01  2.000000e+01
     vertex  1.153694e+02  6.352402e+01  2.000000e+01
   endloop
 endfacet
 facet normal  0.000000e+00  0.000000e+00  1.000000e+00
   outer loop
     vertex  1.465204e+02  1.089982e+02  2.000000e+01
     vertex  1.113162e+02  6.809904e+01  2.000000e+01
     vertex  1.136206e+02  6.605760e+01  2.000000e+01
   endloop
 endfacet
 facet normal  0.000000e+00  0.000000e+00  1.000000e+00
   outer loop
     vertex  1.465204e+02  1.089982e+02  2.000000e+01
     vertex  1.085903e+02  6.952970e+01  2.000000e+01
     vertex  1.113162e+02  6.809904e+01  2.000000e+01
   endloop
 endfacet
 facet normal  0.000000e+00  0.000000e+00  1.000000e+00
   outer loop
     vertex  1.465204e+02  1.089982e+02  2.000000e+01
     vertex  1.056013e+02  7.026645e+01  2.000000e+01
     vertex  1.085903e+02  6.952970e+01  2.000000e+01
   endloop
 endfacet
 facet normal  0.000000e+00  0.000000e+00  1.000000e+00
   outer loop
     vertex  1.465204e+02  1.089982e+02  2.000000e+01
     vertex  1.025227e+02  7.026645e+01  2.000000e+01
     vertex  1.056013e+02  7.026645e+01  2.000000e+01
   endloop
 endfacet
 facet normal  0.000000e+00  0.000000e+00  1.000000e+00
   outer loop
     vertex  1.465204e+02  1.089982e+02  2.000000e+01
     vertex  9.953367e+01  6.952970e+01  2.000000e+01
     vertex  1.025227e+02  7.026645e+01  2.000000e+01
   endloop
 endfacet
 facet normal  0.000000e+00  0.000000e+00  1.000000e+00
   outer loop
     vertex  1.465204e+02  1.089982e+02  2.000000e+01
     vertex  0.000000e+00  1.089982e+02  2.000000e+01
     vertex  9.953367e+01  6.952970e+01  2.000000e+01
   endloop
 endfacet
 facet normal  0.000000e+00  0.000000e+00  1.000000e+00
   outer loop
     vertex  1.465204e+02  1.089982e+02  2.000000e+01
     vertex  1.168321e+02  5.758946e+01  2.000000e+01
     vertex  1.465204e+02  0.000000e+00  2.000000e+01
   endloop
 endfacet
 facet normal  0.000000e+00  1.000000e+00  0.000000e+00
   outer loop
     vertex  1.465204e+02  1.089982e+02  2.000000e+01
     vertex  1.465204e+02  1.089982e+02  0.000000e+00
     vertex  0.000000e+00  1.089982e+02  0.000000e+00
   endloop
 endfacet
 facet normal  0.000000e+00  1.000000e+00  0.000000e+00
   outer loop
     vertex  1.465204e+02  1.089982e+02  2.000000e+01
     vertex  0.000000e+00  1.089982e+02  0.000000e+00
     vertex  0.000000e+00  1.089982e+02  2.000000e+01
   endloop
 endfacet
 facet normal -0.000000e+00  0.000000e+00 -1.000000e+00
   outer loop
     vertex  1.465204e+02  1.089982e+02  0.000000e+00
     vertex  0.000000e+00  0.000000e+00  0.000000e+00
     vertex  0.000000e+00  1.089982e+02  0.000000e+00
   endloop
 endfacet
 facet normal  0.000000e+00 -0.000000e+00 -1.000000e+00
   outer loop
     vertex  1.465204e+02  1.089982e+02  0.000000e+00
     vertex  1.465204e+02  0.000000e+00  0.000000e+00
     vertex  0.000000e+00  0.000000e+00  0.000000e+00
   endloop
 endfacet
 facet normal  1.000000e+00  0.000000e+00  0.000000e+00
   outer loop
     vertex  1.465204e+02  0.000000e+00  2.000000e+01
     vertex  1.465204e+02  0.000000e+00  0.000000e+00
     vertex  1.465204e+02  1.089982e+02  0.000000e+00
   endloop
 endfacet
 facet normal  1.000000e+00 -0.000000e+00  0.000000e+00
   outer loop
     vertex  1.465204e+02  0.000000e+00  2.000000e+01
     vertex  1.465204e+02  1.089982e+02  0.000000e+00
     vertex  1.465204e+02  1.089982e+02  2.000000e+01
   endloop
 endfacet
 facet normal  9.003669e-01  1.093243e-01  4.211740e-01
   outer loop
     vertex  1.147854e+02  5.758946e+01  2.437530e+01
     vertex  1.168321e+02  5.758946e+01  2.000000e+01
     vertex  1.164610e+02  6.064554e+01  2.000000e+01
   endloop
 endfacet
 facet normal  9.003669e-01  1.093243e-01  4.211740e-01
   outer loop
     vertex  1.104994e+02  5.917613e+01  3.312591e+01
     vertex  1.106921e+02  5.758946e+01  3.312591e+01
     vertex  1.127387e+02  5.758946e+01  2.875061e+01
   endloop
 endfacet
 facet normal  9.003669e-01 -1.093243e-01  4.211740e-01
   outer loop
     vertex  1.147854e+02  5.758946e+01  2.437530e+01
     vertex  1.164610e+02  5.453337e+01  2.000000e+01
     vertex  1.168321e+02  5.758946e+01  2.000000e+01
   endloop
 endfacet
 facet normal  9.003669e-01 -1.093243e-01  4.211740e-01
   outer loop
     vertex  1.106921e+02  5.758946e+01  3.312591e+01
     vertex  1.104994e+02  5.600278e+01  3.312591e+01
     vertex  1.127387e+02  5.758946e+01  2.875061e+01
   endloop
 endfacet
 facet normal  8.525353e-01  3.233240e-01  4.106644e-01
   outer loop
     vertex  1.138583e+02  6.195106e+01  2.437530e+01
     vertex  1.164610e+02  6.064554e+01  2.000000e+01
     vertex  1.153694e+02  6.352402e+01  2.000000e+01
   endloop
 endfacet
 facet normal  7.394854e-01  5.104299e-01  4.388880e-01
   outer loop
     vertex  1.138583e+02  6.195106e+01  2.437530e+01
     vertex  1.153694e+02  6.352402e+01  2.000000e+01
     vertex  1.136206e+02  6.605760e+01  2.000000e+01
   endloop
 endfacet
 facet normal  8.678917e-01  1.844761e-01  4.612294e-01
   outer loop
     vertex  1.138583e+02  6.195106e+01  2.437530e+01
     vertex  1.147854e+02  5.758946e+01  2.437530e+01
     vertex  1.164610e+02  6.064554e+01  2.000000e+01
   endloop
 endfacet
 facet normal  7.213676e-01  5.241042e-01  4.527070e-01
   outer loop
     vertex  1.112374e+02  6.555851e+01  2.437530e+01
     vertex  1.138583e+02  6.195106e+01  2.437530e+01
     vertex  1.136206e+02  6.605760e+01  2.000000e+01
   endloop
 endfacet
 facet normal  6.054884e-01  6.834551e-01  4.077657e-01
   outer loop
     vertex  1.112374e+02  6.555851e+01  2.437530e+01
     vertex  1.136206e+02  6.605760e+01  2.000000e+01
     vertex  1.113162e+02  6.809904e+01  2.000000e+01
   endloop
 endfacet
 facet normal  8.443575e-01  3.202225e-01  4.295556e-01
   outer loop
     vertex  1.119886e+02  6.111860e+01  2.875061e+01
     vertex  1.099326e+02  6.067060e+01  3.312591e+01
     vertex  1.104994e+02  5.917613e+01  3.312591e+01
   endloop
 endfacet
 facet normal  7.519279e-01  5.190183e-01  4.064781e-01
   outer loop
     vertex  1.119886e+02  6.111860e+01  2.875061e+01
     vertex  1.090247e+02  6.198600e+01  3.312591e+01
     vertex  1.099326e+02  6.067060e+01  3.312591e+01
   endloop
 endfacet
 facet normal  8.894605e-01  1.890607e-01  4.160722e-01
   outer loop
     vertex  1.119886e+02  6.111860e+01  2.875061e+01
     vertex  1.127387e+02  5.758946e+01  2.875061e+01
     vertex  1.147854e+02  5.758946e+01  2.437530e+01
   endloop
 endfacet
 facet normal  7.356647e-01  5.344917e-01  4.160722e-01
   outer loop
     vertex  1.119886e+02  6.111860e+01  2.875061e+01
     vertex  1.138583e+02  6.195106e+01  2.437530e+01
     vertex  1.112374e+02  6.555851e+01  2.437530e+01
   endloop
 endfacet
 facet normal  9.001446e-01  1.913316e-01  3.913208e-01
   outer loop
     vertex  1.119886e+02  6.111860e+01  2.875061e+01
     vertex  1.104994e+02  5.917613e+01  3.312591e+01
     vertex  1.127387e+02  5.758946e+01  2.875061e+01
   endloop
 endfacet
 facet normal  8.894605e-01  1.890607e-01  4.160722e-01
   outer loop
     vertex  1.119886e+02  6.111860e+01  2.875061e+01
     vertex  1.147854e+02  5.758946e+01  2.437530e+01
     vertex  1.138583e+02  6.195106e+01  2.437530e+01
   endloop
 endfacet
 facet normal  4.187160e-01  7.977966e-01  4.338174e-01
   outer loop
     vertex  1.073757e+02  6.778803e+01  2.437530e+01
     vertex  1.113162e+02  6.809904e+01  2.000000e+01
     vertex  1.085903e+02  6.952970e+01  2.000000e+01
   endloop
 endfacet
 facet normal  2.179968e-01  8.844476e-01  4.125891e-01
   outer loop
     vertex  1.073757e+02  6.778803e+01  2.437530e+01
     vertex  1.085903e+02  6.952970e+01  2.000000e+01
     vertex  1.056013e+02  7.026645e+01  2.000000e+01
   endloop
 endfacet
 facet normal  4.450797e-01  7.709006e-01  4.556494e-01
   outer loop
     vertex  1.073757e+02  6.778803e+01  2.437530e+01
     vertex  1.112374e+02  6.555851e+01  2.437530e+01
     vertex  1.113162e+02  6.809904e+01  2.000000e+01
   endloop
 endfacet
 facet normal  5.981083e-01  6.751247e-01  4.318252e-01
   outer loop
     vertex  1.098679e+02  6.403753e+01  2.875061e+01
     vertex  1.078283e+02  6.304588e+01  3.312591e+01
     vertex  1.090247e+02  6.198600e+01  3.312591e+01
   endloop
 endfacet
 facet normal  7.428090e-01  5.396823e-01  3.962042e-01
   outer loop
     vertex  1.098679e+02  6.403753e+01  2.875061e+01
     vertex  1.090247e+02  6.198600e+01  3.312591e+01
     vertex  1.119886e+02  6.111860e+01  2.875061e+01
   endloop
 endfacet
 facet normal  7.356647e-01  5.344917e-01  4.160722e-01
   outer loop
     vertex  1.098679e+02  6.403753e+01  2.875061e+01
     vertex  1.119886e+02  6.111860e+01  2.875061e+01
     vertex  1.112374e+02  6.555851e+01  2.437530e+01
   endloop
 endfacet
 facet normal  0.000000e+00  9.085159e-01  4.178503e-01
   outer loop
     vertex  1.029411e+02  6.825413e+01  2.437530e+01
     vertex  1.056013e+02  7.026645e+01  2.000000e+01
     vertex  1.025227e+02  7.026645e+01  2.000000e+01
   endloop
 endfacet
 facet normal -2.166326e-01  8.789131e-01  4.249494e-01
   outer loop
     vertex  1.029411e+02  6.825413e+01  2.437530e+01
     vertex  1.025227e+02  7.026645e+01  2.000000e+01
     vertex  9.953367e+01  6.952970e+01  2.000000e+01
   endloop
 endfacet
 facet normal  9.270297e-02  8.820098e-01  4.620225e-01
   outer loop
     vertex  1.029411e+02  6.825413e+01  2.437530e+01
     vertex  1.073757e+02  6.778803e+01  2.437530e+01
     vertex  1.056013e+02  7.026645e+01  2.000000e+01
   endloop
 endfacet
 facet normal  4.594415e-01  7.957761e-01  3.945301e-01
   outer loop
     vertex  1.067433e+02  6.584152e+01  2.875061e+01
     vertex  1.078283e+02  6.304588e+01  3.312591e+01
     vertex  1.098679e+02  6.403753e+01  2.875061e+01
   endloop
 endfacet
 facet normal  4.237082e-01  8.073086e-01  4.107605e-01
   outer loop
     vertex  1.067433e+02  6.584152e+01  2.875061e+01
     vertex  1.064131e+02  6.378867e+01  3.312591e+01
     vertex  1.078283e+02  6.304588e+01  3.312591e+01
   endloop
 endfacet
 facet normal  2.162840e-01  8.774988e-01  4.280386e-01
   outer loop
     vertex  1.067433e+02  6.584152e+01  2.875061e+01
     vertex  1.048612e+02  6.417117e+01  3.312591e+01
     vertex  1.064131e+02  6.378867e+01  3.312591e+01
   endloop
 endfacet
 facet normal  4.546658e-01  7.875043e-01  4.160722e-01
   outer loop
     vertex  1.067433e+02  6.584152e+01  2.875061e+01
     vertex  1.098679e+02  6.403753e+01  2.875061e+01
     vertex  1.112374e+02  6.555851e+01  2.437530e+01
   endloop
 endfacet
 facet normal  4.546658e-01  7.875043e-01  4.160722e-01
   outer loop
     vertex  1.067433e+02  6.584152e+01  2.875061e+01
     vertex  1.112374e+02  6.555851e+01  2.437530e+01
     vertex  1.073757e+02  6.778803e+01  2.437530e+01
   endloop
 endfacet
 facet normal -4.240307e-01  8.079230e-01  4.092168e-01
   outer loop
     vertex  9.870030e+01  6.687621e+01  2.437530e+01
     vertex  9.953367e+01  6.952970e+01  2.000000e+01
     vertex  9.680776e+01  6.809904e+01  2.000000e+01
   endloop
 endfacet
 facet normal -5.940551e-01  6.705495e-01  4.443668e-01
   outer loop
     vertex  9.870030e+01  6.687621e+01  2.437530e+01
     vertex  9.680776e+01  6.809904e+01  2.000000e+01
     vertex  9.450345e+01  6.605760e+01  2.000000e+01
   endloop
 endfacet
 facet normal -2.743972e-01  8.445077e-01  4.599053e-01
   outer loop
     vertex  9.870030e+01  6.687621e+01  2.437530e+01
     vertex  1.029411e+02  6.825413e+01  2.437530e+01
     vertex  9.953367e+01  6.952970e+01  2.000000e+01
   endloop
 endfacet
 facet normal  0.000000e+00  9.057319e-01  4.238510e-01
   outer loop
     vertex  1.031550e+02  6.621866e+01  2.875061e+01
     vertex  1.032628e+02  6.417117e+01  3.312591e+01
     vertex  1.048612e+02  6.417117e+01  3.312591e+01
   endloop
 endfacet
 facet normal -2.173943e-01  8.820032e-01  4.181030e-01
   outer loop
     vertex  1.031550e+02  6.621866e+01  2.875061e+01
     vertex  1.017110e+02  6.378867e+01  3.312591e+01
     vertex  1.032628e+02  6.417117e+01  3.312591e+01
   endloop
 endfacet
 facet normal  9.505103e-02  9.043502e-01  4.160722e-01
   outer loop
     vertex  1.031550e+02  6.621866e+01  2.875061e+01
     vertex  1.073757e+02  6.778803e+01  2.437530e+01
     vertex  1.029411e+02  6.825413e+01  2.437530e+01
   endloop
 endfacet
 facet normal  9.621320e-02  9.154074e-01  3.908609e-01
   outer loop
     vertex  1.031550e+02  6.621866e+01  2.875061e+01
     vertex  1.048612e+02  6.417117e+01  3.312591e+01
     vertex  1.067433e+02  6.584152e+01  2.875061e+01
   endloop
 endfacet
 facet normal  9.505103e-02  9.043502e-01  4.160722e-01
   outer loop
     vertex  1.031550e+02  6.621866e+01  2.875061e+01
     vertex  1.067433e+02  6.584152e+01  2.875061e+01
     vertex  1.073757e+02  6.778803e+01  2.437530e+01
   endloop
 endfacet
 facet normal -2.809989e-01  8.648257e-01  4.160722e-01
   outer loop
     vertex  1.031550e+02  6.621866e+01  2.875061e+01
     vertex  1.029411e+02  6.825413e+01  2.437530e+01
     vertex  9.870030e+01  6.687621e+01  2.437530e+01
   endloop
 endfacet
 facet normal -5.978181e-01  6.639442e-01  4.492122e-01
   outer loop
     vertex  9.538658e+01  6.389252e+01  2.437530e+01
     vertex  9.870030e+01  6.687621e+01  2.437530e+01
     vertex  9.450345e+01  6.605760e+01  2.000000e+01
   endloop
 endfacet
 facet normal -7.512775e-01  5.185694e-01  4.082498e-01
   outer loop
     vertex  9.538658e+01  6.389252e+01  2.437530e+01
     vertex  9.450345e+01  6.605760e+01  2.000000e+01
     vertex  9.275465e+01  6.352402e+01  2.000000e+01
   endloop
 endfacet
 facet normal -2.842735e-01  8.749039e-01  3.920865e-01
   outer loop
     vertex  9.972364e+01  6.510373e+01  2.875061e+01
     vertex  1.017110e+02  6.378867e+01  3.312591e+01
     vertex  1.031550e+02  6.621866e+01  2.875061e+01
   endloop
 endfacet
 facet normal -4.194123e-01  7.991235e-01  4.306913e-01
   outer loop
     vertex  9.972364e+01  6.510373e+01  2.875061e+01
     vertex  1.002957e+02  6.304588e+01  3.312591e+01
     vertex  1.017110e+02  6.378867e+01  3.312591e+01
   endloop
 endfacet
 facet normal -6.072453e-01  6.854383e-01  4.017805e-01
   outer loop
     vertex  9.972364e+01  6.510373e+01  2.875061e+01
     vertex  9.909934e+01  6.198600e+01  3.312591e+01
     vertex  1.002957e+02  6.304588e+01  3.312591e+01
   endloop
 endfacet
 facet normal -2.809989e-01  8.648257e-01  4.160722e-01
   outer loop
     vertex  9.972364e+01  6.510373e+01  2.875061e+01
     vertex  1.031550e+02  6.621866e+01  2.875061e+01
     vertex  9.870030e+01  6.687621e+01  2.437530e+01
   endloop
 endfacet
 facet normal -8.120762e-01  3.615596e-01  4.580469e-01
   outer loop
     vertex  9.357292e+01  5.981898e+01  2.437530e+01
     vertex  9.538658e+01  6.389252e+01  2.437530e+01
     vertex  9.275465e+01  6.352402e+01  2.000000e+01
   endloop
 endfacet
 facet normal -8.445300e-01  3.202880e-01  4.291673e-01
   outer loop
     vertex  9.357292e+01  5.981898e+01  2.437530e+01
     vertex  9.275465e+01  6.352402e+01  2.000000e+01
     vertex  9.166298e+01  6.064554e+01  2.000000e+01
   endloop
 endfacet
 facet normal -9.031940e-01  1.096676e-01  4.149863e-01
   outer loop
     vertex  9.357292e+01  5.981898e+01  2.437530e+01
     vertex  9.166298e+01  6.064554e+01  2.000000e+01
     vertex  9.129191e+01  5.758946e+01  2.000000e+01
   endloop
 endfacet
 facet normal -6.084616e-01  6.757651e-01  4.160722e-01
   outer loop
     vertex  9.704238e+01  6.268951e+01  2.875061e+01
     vertex  9.870030e+01  6.687621e+01  2.437530e+01
     vertex  9.538658e+01  6.389252e+01  2.437530e+01
   endloop
 endfacet
 facet normal -7.424451e-01  5.124728e-01  4.314474e-01
   outer loop
     vertex  9.704238e+01  6.268951e+01  2.875061e+01
     vertex  9.819138e+01  6.067060e+01  3.312591e+01
     vertex  9.909934e+01  6.198600e+01  3.312591e+01
   endloop
 endfacet
 facet normal -8.307157e-01  3.698585e-01  4.160722e-01
   outer loop
     vertex  9.704238e+01  6.268951e+01  2.875061e+01
     vertex  9.538658e+01  6.389252e+01  2.437530e+01
     vertex  9.357292e+01  5.981898e+01  2.437530e+01
   endloop
 endfacet
 facet normal -6.137994e-01  6.816932e-01  3.981767e-01
   outer loop
     vertex  9.704238e+01  6.268951e+01  2.875061e+01
     vertex  9.909934e+01  6.198600e+01  3.312591e+01
     vertex  9.972364e+01  6.510373e+01  2.875061e+01
   endloop
 endfacet
 facet normal -6.084616e-01  6.757651e-01  4.160722e-01
   outer loop
     vertex  9.704238e+01  6.268951e+01  2.875061e+01
     vertex  9.972364e+01  6.510373e+01  2.875061e+01
     vertex  9.870030e+01  6.687621e+01  2.437530e+01
   endloop
 endfacet
 facet normal -8.867305e-01  0.000000e+00  4.622867e-01
   outer loop
     vertex  9.357292e+01  5.535993e+01  2.437530e+01
     vertex  9.357292e+01  5.981898e+01  2.437530e+01
     vertex  9.129191e+01  5.758946e+01  2.000000e+01
   endloop
 endfacet
 facet normal -9.031940e-01 -1.096676e-01  4.149863e-01
   outer loop
     vertex  9.357292e+01  5.535993e+01  2.437530e+01
     vertex  9.129191e+01  5.758946e+01  2.000000e+01
     vertex  9.166298e+01  5.453337e+01  2.000000e+01
   endloop
 endfacet
 facet normal -8.445300e-01 -3.202880e-01  4.291673e-01
   outer loop
     vertex  9.357292e+01  5.535993e+01  2.437530e+01
     vertex  9.166298e+01  5.453337e+01  2.000000e+01
     vertex  9.275465e+01  5.165490e+01  2.000000e+01
   endloop
 endfacet
 facet normal -8.508540e-01  3.226864e-01  4.146336e-01
   outer loop
     vertex  9.557488e+01  5.939345e+01  2.875061e+01
     vertex  9.762461e+01  5.917613e+01  3.312591e+01
     vertex  9.819138e+01  6.067060e+01  3.312591e+01
   endloop
 endfacet
 facet normal -8.980622e-01  1.090445e-01  4.261381e-01
   outer loop
     vertex  9.557488e+01  5.939345e+01  2.875061e+01
     vertex  9.743195e+01  5.758946e+01  3.312591e+01
     vertex  9.762461e+01  5.917613e+01  3.312591e+01
   endloop
 endfacet
 facet normal -8.399790e-01  3.739827e-01  3.931568e-01
   outer loop
     vertex  9.557488e+01  5.939345e+01  2.875061e+01
     vertex  9.819138e+01  6.067060e+01  3.312591e+01
     vertex  9.704238e+01  6.268951e+01  2.875061e+01
   endloop
 endfacet
 facet normal -8.307157e-01  3.698585e-01  4.160722e-01
   outer loop
     vertex  9.557488e+01  5.939345e+01  2.875061e+01
     vertex  9.704238e+01  6.268951e+01  2.875061e+01
     vertex  9.357292e+01  5.981898e+01  2.437530e+01
   endloop
 endfacet
 facet normal -7.512775e-01 -5.185694e-01  4.082498e-01
   outer loop
     vertex  9.538658e+01  5.128639e+01  2.437530e+01
     vertex  9.275465e+01  5.165490e+01  2.000000e+01
     vertex  9.450345e+01  4.912131e+01  2.000000e+01
   endloop
 endfacet
 facet normal -8.120762e-01 -3.615596e-01  4.580469e-01
   outer loop
     vertex  9.538658e+01  5.128639e+01  2.437530e+01
     vertex  9.357292e+01  5.535993e+01  2.437530e+01
     vertex  9.275465e+01  5.165490e+01  2.000000e+01
   endloop
 endfacet
 facet normal -8.980622e-01 -1.090445e-01  4.261381e-01
   outer loop
     vertex  9.557488e+01  5.578546e+01  2.875061e+01
     vertex  9.762461e+01  5.600278e+01  3.312591e+01
     vertex  9.743195e+01  5.758946e+01  3.312591e+01
   endloop
 endfacet
 facet normal -8.508540e-01 -3.226864e-01  4.146336e-01
   outer loop
     vertex  9.557488e+01  5.578546e+01  2.875061e+01
     vertex  9.819138e+01  5.450832e+01  3.312591e+01
     vertex  9.762461e+01  5.600278e+01  3.312591e+01
   endloop
 endfacet
 facet normal -9.093316e-01  0.000000e+00  4.160722e-01
   outer loop
     vertex  9.557488e+01  5.578546e+01  2.875061e+01
     vertex  9.557488e+01  5.939345e+01  2.875061e+01
     vertex  9.357292e+01  5.981898e+01  2.437530e+01
   endloop
 endfacet
 facet normal -9.093316e-01  0.000000e+00  4.160722e-01
   outer loop
     vertex  9.557488e+01  5.578546e+01  2.875061e+01
     vertex  9.357292e+01  5.981898e+01  2.437530e+01
     vertex  9.357292e+01  5.535993e+01  2.437530e+01
   endloop
 endfacet
 facet normal -9.205149e-01  0.000000e+00  3.907075e-01
   outer loop
     vertex  9.557488e+01  5.578546e+01  2.875061e+01
     vertex  9.743195e+01  5.758946e+01  3.312591e+01
     vertex  9.557488e+01  5.939345e+01  2.875061e+01
   endloop
 endfacet
 facet normal -5.940551e-01 -6.705495e-01  4.443668e-01
   outer loop
     vertex  9.870030e+01  4.830270e+01  2.437530e+01
     vertex  9.450345e+01  4.912131e+01  2.000000e+01
     vertex  9.680776e+01  4.707987e+01  2.000000e+01
   endloop
 endfacet
 facet normal -4.240307e-01 -8.079230e-01  4.092168e-01
   outer loop
     vertex  9.870030e+01  4.830270e+01  2.437530e+01
     vertex  9.680776e+01  4.707987e+01  2.000000e+01
     vertex  9.953367e+01  4.564921e+01  2.000000e+01
   endloop
 endfacet
 facet normal -5.978181e-01 -6.639442e-01  4.492122e-01
   outer loop
     vertex  9.870030e+01  4.830270e+01  2.437530e+01
     vertex  9.538658e+01  5.128639e+01  2.437530e+01
     vertex  9.450345e+01  4.912131e+01  2.000000e+01
   endloop
 endfacet
 facet normal -7.424451e-01 -5.124728e-01  4.314474e-01
   outer loop
     vertex  9.704238e+01  5.248940e+01  2.875061e+01
     vertex  9.909934e+01  5.319292e+01  3.312591e+01
     vertex  9.819138e+01  5.450832e+01  3.312591e+01
   endloop
 endfacet
 facet normal -8.399790e-01 -3.739827e-01  3.931568e-01
   outer loop
     vertex  9.704238e+01  5.248940e+01  2.875061e+01
     vertex  9.819138e+01  5.450832e+01  3.312591e+01
     vertex  9.557488e+01  5.578546e+01  2.875061e+01
   endloop
 endfacet
 facet normal -8.307157e-01 -3.698585e-01  4.160722e-01
   outer loop
     vertex  9.704238e+01  5.248940e+01  2.875061e+01
     vertex  9.357292e+01  5.535993e+01  2.437530e+01
     vertex  9.538658e+01  5.128639e+01  2.437530e+01
   endloop
 endfacet
 facet normal -8.307157e-01 -3.698585e-01  4.160722e-01
   outer loop
     vertex  9.704238e+01  5.248940e+01  2.875061e+01
     vertex  9.557488e+01  5.578546e+01  2.875061e+01
     vertex  9.357292e+01  5.535993e+01  2.437530e+01
   endloop
 endfacet
 facet normal -2.166326e-01 -8.789131e-01  4.249494e-01
   outer loop
     vertex  1.029411e+02  4.692478e+01  2.437530e+01
     vertex  9.953367e+01  4.564921e+01  2.000000e+01
     vertex  1.025227e+02  4.491247e+01  2.000000e+01
   endloop
 endfacet
 facet normal -2.156670e-15 -9.085159e-01  4.178503e-01
   outer loop
     vertex  1.029411e+02  4.692478e+01  2.437530e+01
     vertex  1.025227e+02  4.491247e+01  2.000000e+01
     vertex  1.056013e+02  4.491247e+01  2.000000e+01
   endloop
 endfacet
 facet normal -2.743972e-01 -8.445077e-01  4.599053e-01
   outer loop
     vertex  1.029411e+02  4.692478e+01  2.437530e+01
     vertex  9.870030e+01  4.830270e+01  2.437530e+01
     vertex  9.953367e+01  4.564921e+01  2.000000e+01
   endloop
 endfacet
 facet normal -6.084616e-01 -6.757651e-01  4.160722e-01
   outer loop
     vertex  9.972364e+01  5.007518e+01  2.875061e+01
     vertex  9.704238e+01  5.248940e+01  2.875061e+01
     vertex  9.538658e+01  5.128639e+01  2.437530e+01
   endloop
 endfacet
 facet normal -6.072453e-01 -6.854383e-01  4.017805e-01
   outer loop
     vertex  9.972364e+01  5.007518e+01  2.875061e+01
     vertex  1.002957e+02  5.213303e+01  3.312591e+01
     vertex  9.909934e+01  5.319292e+01  3.312591e+01
   endloop
 endfacet
 facet normal -4.194123e-01 -7.991235e-01  4.306913e-01
   outer loop
     vertex  9.972364e+01  5.007518e+01  2.875061e+01
     vertex  1.017110e+02  5.139025e+01  3.312591e+01
     vertex  1.002957e+02  5.213303e+01  3.312591e+01
   endloop
 endfacet
 facet normal -6.084616e-01 -6.757651e-01  4.160722e-01
   outer loop
     vertex  9.972364e+01  5.007518e+01  2.875061e+01
     vertex  9.538658e+01  5.128639e+01  2.437530e+01
     vertex  9.870030e+01  4.830270e+01  2.437530e+01
   endloop
 endfacet
 facet normal -2.809989e-01 -8.648257e-01  4.160722e-01
   outer loop
     vertex  9.972364e+01  5.007518e+01  2.875061e+01
     vertex  9.870030e+01  4.830270e+01  2.437530e+01
     vertex  1.029411e+02  4.692478e+01  2.437530e+01
   endloop
 endfacet
 facet normal -6.137994e-01 -6.816932e-01  3.981767e-01
   outer loop
     vertex  9.972364e+01  5.007518e+01  2.875061e+01
     vertex  9.909934e+01  5.319292e+01  3.312591e+01
     vertex  9.704238e+01  5.248940e+01  2.875061e+01
   endloop
 endfacet
 facet normal  9.270297e-02 -8.820098e-01  4.620225e-01
   outer loop
     vertex  1.073757e+02  4.739088e+01  2.437530e+01
     vertex  1.029411e+02  4.692478e+01  2.437530e+01
     vertex  1.056013e+02  4.491247e+01  2.000000e+01
   endloop
 endfacet
 facet normal  2.179968e-01 -8.844476e-01  4.125891e-01
   outer loop
     vertex  1.073757e+02  4.739088e+01  2.437530e+01
     vertex  1.056013e+02  4.491247e+01  2.000000e+01
     vertex  1.085903e+02  4.564921e+01  2.000000e+01
   endloop
 endfacet
 facet normal  4.187160e-01 -7.977966e-01  4.338174e-01
   outer loop
     vertex  1.073757e+02  4.739088e+01  2.437530e+01
     vertex  1.085903e+02  4.564921e+01  2.000000e+01
     vertex  1.113162e+02  4.707987e+01  2.000000e+01
   endloop
 endfacet
 facet normal -2.173943e-01 -8.820032e-01  4.181030e-01
   outer loop
     vertex  1.031550e+02  4.896025e+01  2.875061e+01
     vertex  1.032628e+02  5.100774e+01  3.312591e+01
     vertex  1.017110e+02  5.139025e+01  3.312591e+01
   endloop
 endfacet
 facet normal -3.911149e-15 -9.057319e-01  4.238510e-01
   outer loop
     vertex  1.031550e+02  4.896025e+01  2.875061e+01
     vertex  1.048612e+02  5.100774e+01  3.312591e+01
     vertex  1.032628e+02  5.100774e+01  3.312591e+01
   endloop
 endfacet
 facet normal -2.842735e-01 -8.749039e-01  3.920865e-01
   outer loop
     vertex  1.031550e+02  4.896025e+01  2.875061e+01
     vertex  1.017110e+02  5.139025e+01  3.312591e+01
     vertex  9.972364e+01  5.007518e+01  2.875061e+01
   endloop
 endfacet
 facet normal -2.809989e-01 -8.648257e-01  4.160722e-01
   outer loop
     vertex  1.031550e+02  4.896025e+01  2.875061e+01
     vertex  9.972364e+01  5.007518e+01  2.875061e+01
     vertex  1.029411e+02  4.692478e+01  2.437530e+01
   endloop
 endfacet
 facet normal  6.054884e-01 -6.834551e-01  4.077657e-01
   outer loop
     vertex  1.112374e+02  4.962040e+01  2.437530e+01
     vertex  1.113162e+02  4.707987e+01  2.000000e+01
     vertex  1.136206e+02  4.912131e+01  2.000000e+01
   endloop
 endfacet
 facet normal  4.450797e-01 -7.709006e-01  4.556494e-01
   outer loop
     vertex  1.112374e+02  4.962040e+01  2.437530e+01
     vertex  1.073757e+02  4.739088e+01  2.437530e+01
     vertex  1.113162e+02  4.707987e+01  2.000000e+01
   endloop
 endfacet
 facet normal  2.162840e-01 -8.774988e-01  4.280386e-01
   outer loop
     vertex  1.067433e+02  4.933739e+01  2.875061e+01
     vertex  1.064131e+02  5.139025e+01  3.312591e+01
     vertex  1.048612e+02  5.100774e+01  3.312591e+01
   endloop
 endfacet
 facet normal  4.237082e-01 -8.073086e-01  4.107605e-01
   outer loop
     vertex  1.067433e+02  4.933739e+01  2.875061e+01
     vertex  1.078283e+02  5.213303e+01  3.312591e+01
     vertex  1.064131e+02  5.139025e+01  3.312591e+01
   endloop
 endfacet
 facet normal  9.505103e-02 -9.043502e-01  4.160722e-01
   outer loop
     vertex  1.067433e+02  4.933739e+01  2.875061e+01
     vertex  1.029411e+02  4.692478e+01  2.437530e+01
     vertex  1.073757e+02  4.739088e+01  2.437530e+01
   endloop
 endfacet
 facet normal  9.621320e-02 -9.154074e-01  3.908609e-01
   outer loop
     vertex  1.067433e+02  4.933739e+01  2.875061e+01
     vertex  1.048612e+02  5.100774e+01  3.312591e+01
     vertex  1.031550e+02  4.896025e+01  2.875061e+01
   endloop
 endfacet
 facet normal  9.505103e-02 -9.043502e-01  4.160722e-01
   outer loop
     vertex  1.067433e+02  4.933739e+01  2.875061e+01
     vertex  1.031550e+02  4.896025e+01  2.875061e+01
     vertex  1.029411e+02  4.692478e+01  2.437530e+01
   endloop
 endfacet
 facet normal  7.394854e-01 -5.104299e-01  4.388880e-01
   outer loop
     vertex  1.138583e+02  5.322785e+01  2.437530e+01
     vertex  1.136206e+02  4.912131e+01  2.000000e+01
     vertex  1.153694e+02  5.165490e+01  2.000000e+01
   endloop
 endfacet
 facet normal  8.525353e-01 -3.233240e-01  4.106644e-01
   outer loop
     vertex  1.138583e+02  5.322785e+01  2.437530e+01
     vertex  1.153694e+02  5.165490e+01  2.000000e+01
     vertex  1.164610e+02  5.453337e+01  2.000000e+01
   endloop
 endfacet
 facet normal  8.678917e-01 -1.844761e-01  4.612294e-01
   outer loop
     vertex  1.138583e+02  5.322785e+01  2.437530e+01
     vertex  1.164610e+02  5.453337e+01  2.000000e+01
     vertex  1.147854e+02  5.758946e+01  2.437530e+01
   endloop
 endfacet
 facet normal  7.213676e-01 -5.241042e-01  4.527070e-01
   outer loop
     vertex  1.138583e+02  5.322785e+01  2.437530e+01
     vertex  1.112374e+02  4.962040e+01  2.437530e+01
     vertex  1.136206e+02  4.912131e+01  2.000000e+01
   endloop
 endfacet
 facet normal  5.981083e-01 -6.751247e-01  4.318252e-01
   outer loop
     vertex  1.098679e+02  5.114138e+01  2.875061e+01
     vertex  1.090247e+02  5.319292e+01  3.312591e+01
     vertex  1.078283e+02  5.213303e+01  3.312591e+01
   endloop
 endfacet
 facet normal  4.594415e-01 -7.957761e-01  3.945301e-01
   outer loop
     vertex  1.098679e+02  5.114138e+01  2.875061e+01
     vertex  1.078283e+02  5.213303e+01  3.312591e+01
     vertex  1.067433e+02  4.933739e+01  2.875061e+01
   endloop
 endfacet
 facet normal  4.546658e-01 -7.875043e-01  4.160722e-01
   outer loop
     vertex  1.098679e+02  5.114138e+01  2.875061e+01
     vertex  1.073757e+02  4.739088e+01  2.437530e+01
     vertex  1.112374e+02  4.962040e+01  2.437530e+01
   endloop
 endfacet
 facet normal  4.546658e-01 -7.875043e-01  4.160722e-01
   outer loop
     vertex  1.098679e+02  5.114138e+01  2.875061e+01
     vertex  1.067433e+02  4.933739e+01  2.875061e+01
     vertex  1.073757e+02  4.739088e+01  2.437530e+01
   endloop
 endfacet
 facet normal  7.519279e-01 -5.190183e-01  4.064781e-01
   outer loop
     vertex  1.119886e+02  5.406031e+01  2.875061e+01
     vertex  1.099326e+02  5.450832e+01  3.312591e+01
     vertex  1.090247e+02  5.319292e+01  3.312591e+01
   endloop
 endfacet
 facet normal  8.443575e-01 -3.202225e-01  4.295556e-01
   outer loop
     vertex  1.119886e+02  5.406031e+01  2.875061e+01
     vertex  1.104994e+02  5.600278e+01  3.312591e+01
     vertex  1.099326e+02  5.450832e+01  3.312591e+01
   endloop
 endfacet
 facet normal  8.894605e-01 -1.890607e-01  4.160722e-01
   outer loop
     vertex  1.119886e+02  5.406031e+01  2.875061e+01
     vertex  1.147854e+02  5.758946e+01  2.437530e+01
     vertex  1.127387e+02  5.758946e+01  2.875061e+01
   endloop
 endfacet
 facet normal  9.001446e-01 -1.913316e-01  3.913208e-01
   outer loop
     vertex  1.119886e+02  5.406031e+01  2.875061e+01
     vertex  1.127387e+02  5.758946e+01  2.875061e+01
     vertex  1.104994e+02  5.600278e+01  3.312591e+01
   endloop
 endfacet
 facet normal  7.428090e-01 -5.396823e-01  3.962042e-01
   outer loop
     vertex  1.119886e+02  5.406031e+01  2.875061e+01
     vertex  1.090247e+02  5.319292e+01  3.312591e+01
     vertex  1.098679e+02  5.114138e+01  2.875061e+01
   endloop
 endfacet
 facet normal  8.894605e-01 -1.890607e-01  4.160722e-01
   outer loop
     vertex  1.119886e+02  5.406031e+01  2.875061e+01
     vertex  1.138583e+02  5.322785e+01  2.437530e+01
     vertex  1.147854e+02  5.758946e+01  2.437530e+01
   endloop
 endfacet
 facet normal  7.356647e-01 -5.344917e-01  4.160722e-01
   outer loop
     vertex  1.119886e+02  5.406031e+01  2.875061e+01
     vertex  1.112374e+02  4.962040e+01  2.437530e+01
     vertex  1.138583e+02  5.322785e+01  2.437530e+01
   endloop
 endfacet
 facet normal  7.356647e-01 -5.344917e-01  4.160722e-01
   outer loop
     vertex  1.119886e+02  5.406031e+01  2.875061e+01
     vertex  1.098679e+02  5.114138e+01  2.875061e+01
     vertex  1.112374e+02  4.962040e+01  2.437530e+01
   endloop
 endfacet
 facet normal  0.000000e+00  0.000000e+00  1.000000e+00
   outer loop
     vertex  1.017110e+02  5.139025e+01  3.312591e+01
     vertex  9.819138e+01  5.450832e+01  3.312591e+01
     vertex  9.909934e+01  5.319292e+01  3.312591e+01
   endloop
 endfacet
 facet normal  0.000000e+00  0.000000e+00  1.000000e+00
   outer loop
     vertex  1.017110e+02  5.139025e+01  3.312591e+01
     vertex  9.909934e+01  5.319292e+01  3.312591e+01
     vertex  1.002957e+02  5.213303e+01  3.312591e+01
   endloop
 endfacet
 facet normal  0.000000e+00  0.000000e+00  1.000000e+00
   outer loop
     vertex  9.743195e+01  5.758946e+01  3.312591e+01
     vertex  9.762461e+01  5.600278e+01  3.312591e+01
     vertex  9.819138e+01  5.450832e+01  3.312591e+01
   endloop
 endfacet
 facet normal  0.000000e+00  0.000000e+00  1.000000e+00
   outer loop
     vertex  1.048612e+02  5.100774e+01  3.312591e+01
     vertex  1.017110e+02  5.139025e+01  3.312591e+01
     vertex  1.032628e+02  5.100774e+01  3.312591e+01
   endloop
 endfacet
 facet normal  0.000000e+00  0.000000e+00  1.000000e+00
   outer loop
     vertex  9.762461e+01  5.917613e+01  3.312591e+01
     vertex  9.743195e+01  5.758946e+01  3.312591e+01
     vertex  9.819138e+01  5.450832e+01  3.312591e+01
   endloop
 endfacet
 facet normal  0.000000e+00  0.000000e+00  1.000000e+00
   outer loop
     vertex  1.064131e+02  5.139025e+01  3.312591e+01
     vertex  1.017110e+02  5.139025e+01  3.312591e+01
     vertex  1.048612e+02  5.100774e+01  3.312591e+01
   endloop
 endfacet
 facet normal  0.000000e+00  0.000000e+00  1.000000e+00
   outer loop
     vertex  1.090247e+02  5.319292e+01  3.312591e+01
     vertex  1.064131e+02  5.139025e+01  3.312591e+01
     vertex  1.078283e+02  5.213303e+01  3.312591e+01
   endloop
 endfacet
 facet normal  0.000000e+00  0.000000e+00  1.000000e+00
   outer loop
     vertex  1.090247e+02  5.319292e+01  3.312591e+01
     vertex  9.819138e+01  5.450832e+01  3.312591e+01
     vertex  1.017110e+02  5.139025e+01  3.312591e+01
   endloop
 endfacet
 facet normal  0.000000e+00  0.000000e+00  1.000000e+00
   outer loop
     vertex  1.090247e+02  5.319292e+01  3.312591e+01
     vertex  9.762461e+01  5.917613e+01  3.312591e+01
     vertex  9.819138e+01  5.450832e+01  3.312591e+01
   endloop
 endfacet
 facet normal  0.000000e+00  0.000000e+00  1.000000e+00
   outer loop
     vertex  1.090247e+02  5.319292e+01  3.312591e+01
     vertex  1.017110e+02  5.139025e+01  3.312591e+01
     vertex  1.064131e+02  5.139025e+01  3.312591e+01
   endloop
 endfacet
 facet normal  0.000000e+00  0.000000e+00  1.000000e+00
   outer loop
     vertex  1.017110e+02  6.378867e+01  3.312591e+01
     vertex  1.002957e+02  6.304588e+01  3.312591e+01
     vertex  9.909934e+01  6.198600e+01  3.312591e+01
   endloop
 endfacet
 facet normal  0.000000e+00  0.000000e+00  1.000000e+00
   outer loop
     vertex  1.017110e+02  6.378867e+01  3.312591e+01
     vertex  9.909934e+01  6.198600e+01  3.312591e+01
     vertex  9.819138e+01  6.067060e+01  3.312591e+01
   endloop
 endfacet
 facet normal  0.000000e+00  0.000000e+00  1.000000e+00
   outer loop
     vertex  1.017110e+02  6.378867e+01  3.312591e+01
     vertex  9.819138e+01  6.067060e+01  3.312591e+01
     vertex  9.762461e+01  5.917613e+01  3.312591e+01
   endloop
 endfacet
 facet normal  0.000000e+00  0.000000e+00  1.000000e+00
   outer loop
     vertex  1.104994e+02  5.600278e+01  3.312591e+01
     vertex  1.090247e+02  5.319292e+01  3.312591e+01
     vertex  1.099326e+02  5.450832e+01  3.312591e+01
   endloop
 endfacet
 facet normal  0.000000e+00  0.000000e+00  1.000000e+00
   outer loop
     vertex  1.032628e+02  6.417117e+01  3.312591e+01
     vertex  1.017110e+02  6.378867e+01  3.312591e+01
     vertex  9.762461e+01  5.917613e+01  3.312591e+01
   endloop
 endfacet
 facet normal  0.000000e+00  0.000000e+00  1.000000e+00
   outer loop
     vertex  1.032628e+02  6.417117e+01  3.312591e+01
     vertex  9.762461e+01  5.917613e+01  3.312591e+01
     vertex  1.090247e+02  5.319292e+01  3.312591e+01
   endloop
 endfacet
 facet normal  0.000000e+00  0.000000e+00  1.000000e+00
   outer loop
     vertex  1.104994e+02  5.917613e+01  3.312591e+01
     vertex  1.104994e+02  5.600278e+01  3.312591e+01
     vertex  1.106921e+02  5.758946e+01  3.312591e+01
   endloop
 endfacet
 facet normal  0.000000e+00  0.000000e+00  1.000000e+00
   outer loop
     vertex  1.064131e+02  6.378867e+01  3.312591e+01
     vertex  1.048612e+02  6.417117e+01  3.312591e+01
     vertex  1.032628e+02  6.417117e+01  3.312591e+01
   endloop
 endfacet
 facet normal  0.000000e+00  0.000000e+00  1.000000e+00
   outer loop
     vertex  1.078283e+02  6.304588e+01  3.312591e+01
     vertex  1.064131e+02  6.378867e+01  3.312591e+01
     vertex  1.032628e+02  6.417117e+01  3.312591e+01
   endloop
 endfacet
 facet normal  0.000000e+00  0.000000e+00  1.000000e+00
   outer loop
     vertex  1.090247e+02  6.198600e+01  3.312591e+01
     vertex  1.104994e+02  5.917613e+01  3.312591e+01
     vertex  1.099326e+02  6.067060e+01  3.312591e+01
   endloop
 endfacet
 facet normal  0.000000e+00  0.000000e+00  1.000000e+00
   outer loop
     vertex  1.090247e+02  6.198600e+01  3.312591e+01
     vertex  1.032628e+02  6.417117e+01  3.312591e+01
     vertex  1.090247e+02  5.319292e+01  3.312591e+01
   endloop
 endfacet
 facet normal  0.000000e+00  0.000000e+00  1.000000e+00
   outer loop
     vertex  1.090247e+02  6.198600e+01  3.312591e+01
     vertex  1.090247e+02  5.319292e+01  3.312591e+01
     vertex  1.104994e+02  5.600278e+01  3.312591e+01
   endloop
 endfacet
 facet normal  0.000000e+00  0.000000e+00  1.000000e+00
   outer loop
     vertex  1.090247e+02  6.198600e+01  3.312591e+01
     vertex  1.104994e+02  5.600278e+01  3.312591e+01
     vertex  1.104994e+02  5.917613e+01  3.312591e+01
   endloop
 endfacet
 facet normal  0.000000e+00  0.000000e+00  1.000000e+00
   outer loop
     vertex  1.090247e+02  6.198600e+01  3.312591e+01
     vertex  1.078283e+02  6.304588e+01  3.312591e+01
     vertex  1.032628e+02  6.417117e+01  3.312591e+01
   endloop
 endfacet
endsolid
