solid 
 facet normal -1.000000e+00  0.000000e+00  0.000000e+00
   outer loop
     vertex  0.000000e+00  0.000000e+00  2.000000e+01
     vertex  0.000000e+00  9.721598e+01  0.000000e+00
     vertex  0.000000e+00  0.000000e+00  0.000000e+00
   endloop
 endfacet
 facet normal -1.000000e+00  0.000000e+00  0.000000e+00
   outer loop
     vertex  0.000000e+00  0.000000e+00  2.000000e+01
     vertex  0.000000e+00  9.721598e+01  2.000000e+01
     vertex  0.000000e+00  9.721598e+01  0.000000e+00
   endloop
 endfacet
 facet normal  0.000000e+00 -1.000000e+00 -0.000000e+00
   outer loop
     vertex  1.118094e+02  0.000000e+00  2.000000e+01
     vertex  0.000000e+00  0.000000e+00  0.000000e+00
     vertex  1.118094e+02  0.000000e+00  0.000000e+00
   endloop
 endfacet
 facet normal -0.000000e+00 -1.000000e+00  0.000000e+00
   outer loop
     vertex  1.118094e+02  0.000000e+00  2.000000e+01
     vertex  0.000000e+00  0.000000e+00  2.000000e+01
     vertex  0.000000e+00  0.000000e+00  0.000000e+00
   endloop
 endfacet
 facet normal  0.000000e+00  0.000000e+00  1.000000e+00
   outer loop
     vertex  1.892414e+01  4.034194e+01  2.000000e+01
     vertex  1.583848e+01  4.307560e+01  2.000000e+01
     vertex  0.000000e+00  0.000000e+00  2.000000e+01
   endloop
 endfacet
 facet normal  0.000000e+00  0.000000e+00  1.000000e+00
   outer loop
     vertex  1.349670e+01  4.646826e+01  2.000000e+01
     vertex  0.000000e+00  0.000000e+00  2.000000e+01
     vertex  1.583848e+01  4.307560e+01  2.000000e+01
   endloop
 endfacet
 facet normal  0.000000e+00  0.000000e+00  1.000000e+00
   outer loop
     vertex  2.257434e+01  3.842617e+01  2.000000e+01
     vertex  1.892414e+01  4.034194e+01  2.000000e+01
     vertex  0.000000e+00  0.000000e+00  2.000000e+01
   endloop
 endfacet
 facet normal  0.000000e+00  0.000000e+00  1.000000e+00
   outer loop
     vertex  1.203488e+01  5.032276e+01  2.000000e+01
     vertex  0.000000e+00  0.000000e+00  2.000000e+01
     vertex  1.349670e+01  4.646826e+01  2.000000e+01
   endloop
 endfacet
 facet normal  0.000000e+00  0.000000e+00  1.000000e+00
   outer loop
     vertex  2.657694e+01  3.743962e+01  2.000000e+01
     vertex  2.257434e+01  3.842617e+01  2.000000e+01
     vertex  0.000000e+00  0.000000e+00  2.000000e+01
   endloop
 endfacet
 facet normal  0.000000e+00  0.000000e+00  1.000000e+00
   outer loop
     vertex  1.153798e+01  5.441510e+01  2.000000e+01
     vertex  0.000000e+00  0.000000e+00  2.000000e+01
     vertex  1.203488e+01  5.032276e+01  2.000000e+01
   endloop
 endfacet
 facet normal  0.000000e+00  0.000000e+00  1.000000e+00
   outer loop
     vertex  3.069933e+01  3.743962e+01  2.000000e+01
     vertex  2.657694e+01  3.743962e+01  2.000000e+01
     vertex  0.000000e+00  0.000000e+00  2.000000e+01
   endloop
 endfacet
 facet normal  0.000000e+00  0.000000e+00  1.000000e+00
   outer loop
     vertex  3.470194e+01  3.842617e+01  2.000000e+01
     vertex  3.069933e+01  3.743962e+01  2.000000e+01
     vertex  0.000000e+00  0.000000e+00  2.000000e+01
   endloop
 endfacet
 facet normal  0.000000e+00  0.000000e+00  1.000000e+00
   outer loop
     vertex  0.000000e+00  9.721598e+01  2.000000e+01
     vertex  1.892414e+01  6.848826e+01  2.000000e+01
     vertex  2.257434e+01  7.040403e+01  2.000000e+01
   endloop
 endfacet
 facet normal  0.000000e+00  0.000000e+00  1.000000e+00
   outer loop
     vertex  0.000000e+00  9.721598e+01  2.000000e+01
     vertex  1.583848e+01  6.575460e+01  2.000000e+01
     vertex  1.892414e+01  6.848826e+01  2.000000e+01
   endloop
 endfacet
 facet normal  0.000000e+00  0.000000e+00  1.000000e+00
   outer loop
     vertex  0.000000e+00  9.721598e+01  2.000000e+01
     vertex  1.349670e+01  6.236194e+01  2.000000e+01
     vertex  1.583848e+01  6.575460e+01  2.000000e+01
   endloop
 endfacet
 facet normal  0.000000e+00  0.000000e+00  1.000000e+00
   outer loop
     vertex  0.000000e+00  9.721598e+01  2.000000e+01
     vertex  1.203488e+01  5.850744e+01  2.000000e+01
     vertex  1.349670e+01  6.236194e+01  2.000000e+01
   endloop
 endfacet
 facet normal  0.000000e+00  0.000000e+00  1.000000e+00
   outer loop
     vertex  0.000000e+00  9.721598e+01  2.000000e+01
     vertex  1.153798e+01  5.441510e+01  2.000000e+01
     vertex  1.203488e+01  5.850744e+01  2.000000e+01
   endloop
 endfacet
 facet normal  0.000000e+00  0.000000e+00  1.000000e+00
   outer loop
     vertex  0.000000e+00  9.721598e+01  2.000000e+01
     vertex  0.000000e+00  0.000000e+00  2.000000e+01
     vertex  1.153798e+01  5.441510e+01  2.000000e+01
   endloop
 endfacet
 facet normal  0.000000e+00  0.000000e+00  1.000000e+00
   outer loop
     vertex  2.657694e+01  7.139058e+01  2.000000e+01
     vertex  0.000000e+00  9.721598e+01  2.000000e+01
     vertex  2.257434e+01  7.040403e+01  2.000000e+01
   endloop
 endfacet
 facet normal  0.000000e+00  0.000000e+00  1.000000e+00
   outer loop
     vertex  3.069933e+01  7.139058e+01  2.000000e+01
     vertex  0.000000e+00  9.721598e+01  2.000000e+01
     vertex  2.657694e+01  7.139058e+01  2.000000e+01
   endloop
 endfacet
 facet normal  0.000000e+00  0.000000e+00  1.000000e+00
   outer loop
     vertex  3.470194e+01  7.040403e+01  2.000000e+01
     vertex  0.000000e+00  9.721598e+01  2.000000e+01
     vertex  3.069933e+01  7.139058e+01  2.000000e+01
   endloop
 endfacet
 facet normal  0.000000e+00  0.000000e+00  1.000000e+00
   outer loop
     vertex  1.118094e+02  0.000000e+00  2.000000e+01
     vertex  3.835214e+01  4.034194e+01  2.000000e+01
     vertex  3.470194e+01  3.842617e+01  2.000000e+01
   endloop
 endfacet
 facet normal  0.000000e+00  0.000000e+00  1.000000e+00
   outer loop
     vertex  1.118094e+02  0.000000e+00  2.000000e+01
     vertex  4.143779e+01  4.307560e+01  2.000000e+01
     vertex  3.835214e+01  4.034194e+01  2.000000e+01
   endloop
 endfacet
 facet normal  0.000000e+00  0.000000e+00  1.000000e+00
   outer loop
     vertex  1.118094e+02  0.000000e+00  2.000000e+01
     vertex  4.377958e+01  4.646826e+01  2.000000e+01
     vertex  4.143779e+01  4.307560e+01  2.000000e+01
   endloop
 endfacet
 facet normal  0.000000e+00  0.000000e+00  1.000000e+00
   outer loop
     vertex  1.118094e+02  0.000000e+00  2.000000e+01
     vertex  4.524140e+01  5.032276e+01  2.000000e+01
     vertex  4.377958e+01  4.646826e+01  2.000000e+01
   endloop
 endfacet
 facet normal  0.000000e+00  0.000000e+00  1.000000e+00
   outer loop
     vertex  1.118094e+02  0.000000e+00  2.000000e+01
     vertex  4.573830e+01  5.441510e+01  2.000000e+01
     vertex  4.524140e+01  5.032276e+01  2.000000e+01
   endloop
 endfacet
 facet normal  0.000000e+00  0.000000e+00  1.000000e+00
   outer loop
     vertex  1.118094e+02  0.000000e+00  2.000000e+01
     vertex  3.470194e+01  3.842617e+01  2.000000e+01
     vertex  0.000000e+00  0.000000e+00  2.000000e+01
   endloop
 endfacet
 facet normal  0.000000e+00  0.000000e+00  1.000000e+00
   outer loop
     vertex  1.118094e+02  9.721598e+01  2.000000e+01
     vertex  4.524140e+01  5.850744e+01  2.000000e+01
     vertex  4.573830e+01  5.441510e+01  2.000000e+01
   endloop
 endfacet
 facet normal  0.000000e+00  0.000000e+00  1.000000e+00
   outer loop
     vertex  1.118094e+02  9.721598e+01  2.000000e+01
     vertex  4.377958e+01  6.236194e+01  2.000000e+01
     vertex  4.524140e+01  5.850744e+01  2.000000e+01
   endloop
 endfacet
 facet normal  0.000000e+00  0.000000e+00  1.000000e+00
   outer loop
     vertex  1.118094e+02  9.721598e+01  2.000000e+01
     vertex  4.143779e+01  6.575460e+01  2.000000e+01
     vertex  4.377958e+01  6.236194e+01  2.000000e+01
   endloop
 endfacet
 facet normal  0.000000e+00  0.000000e+00  1.000000e+00
   outer loop
     vertex  1.118094e+02  9.721598e+01  2.000000e+01
     vertex  3.835214e+01  6.848826e+01  2.000000e+01
     vertex  4.143779e+01  6.575460e+01  2.000000e+01
   endloop
 endfacet
 facet normal  0.000000e+00  0.000000e+00  1.000000e+00
   outer loop
     vertex  1.118094e+02  9.721598e+01  2.000000e+01
     vertex  3.470194e+01  7.040403e+01  2.000000e+01
     vertex  3.835214e+01  6.848826e+01  2.000000e+01
   endloop
 endfacet
 facet normal  0.000000e+00  0.000000e+00  1.000000e+00
   outer loop
     vertex  1.118094e+02  9.721598e+01  2.000000e+01
     vertex  4.573830e+01  5.441510e+01  2.000000e+01
     vertex  1.118094e+02  0.000000e+00  2.000000e+01
   endloop
 endfacet
 facet normal  0.000000e+00  0.000000e+00  1.000000e+00
   outer loop
     vertex  1.118094e+02  9.721598e+01  2.000000e+01
     vertex  0.000000e+00  9.721598e+01  2.000000e+01
     vertex  3.470194e+01  7.040403e+01  2.000000e+01
   endloop
 endfacet
 facet normal  0.000000e+00  1.000000e+00  0.000000e+00
   outer loop
     vertex  1.118094e+02  9.721598e+01  2.000000e+01
     vertex  1.118094e+02  9.721598e+01  0.000000e+00
     vertex  0.000000e+00  9.721598e+01  0.000000e+00
   endloop
 endfacet
 facet normal  0.000000e+00  1.000000e+00  0.000000e+00
   outer loop
     vertex  1.118094e+02  9.721598e+01  2.000000e+01
     vertex  0.000000e+00  9.721598e+01  0.000000e+00
     vertex  0.000000e+00  9.721598e+01  2.000000e+01
   endloop
 endfacet
 facet normal -0.000000e+00  0.000000e+00 -1.000000e+00
   outer loop
     vertex  1.118094e+02  9.721598e+01  0.000000e+00
     vertex  0.000000e+00  0.000000e+00  0.000000e+00
     vertex  0.000000e+00  9.721598e+01  0.000000e+00
   endloop
 endfacet
 facet normal  0.000000e+00 -0.000000e+00 -1.000000e+00
   outer loop
     vertex  1.118094e+02  9.721598e+01  0.000000e+00
     vertex  1.118094e+02  0.000000e+00  0.000000e+00
     vertex  0.000000e+00  0.000000e+00  0.000000e+00
   endloop
 endfacet
 facet normal  1.000000e+00  0.000000e+00  0.000000e+00
   outer loop
     vertex  1.118094e+02  0.000000e+00  2.000000e+01
     vertex  1.118094e+02  0.000000e+00  0.000000e+00
     vertex  1.118094e+02  9.721598e+01  0.000000e+00
   endloop
 endfacet
 facet normal  1.000000e+00 -0.000000e+00  0.000000e+00
   outer loop
     vertex  1.118094e+02  0.000000e+00  2.000000e+01
     vertex  1.118094e+02  9.721598e+01  0.000000e+00
     vertex  1.118094e+02  9.721598e+01  2.000000e+01
   endloop
 endfacet
 facet normal  8.380602e-01  1.017589e-01  5.360039e-01
   outer loop
     vertex  4.186522e+01  5.441510e+01  2.605569e+01
     vertex  4.573830e+01  5.441510e+01  2.000000e+01
     vertex  4.524140e+01  5.850744e+01  2.000000e+01
   endloop
 endfacet
 facet normal  8.380602e-01  1.017589e-01  5.360039e-01
   outer loop
     vertex  3.395979e+01  5.572677e+01  3.816707e+01
     vertex  3.411906e+01  5.441510e+01  3.816707e+01
     vertex  3.799214e+01  5.441510e+01  3.211138e+01
   endloop
 endfacet
 facet normal  8.380602e-01 -1.017589e-01  5.360039e-01
   outer loop
     vertex  4.186522e+01  5.441510e+01  2.605569e+01
     vertex  4.524140e+01  5.032276e+01  2.000000e+01
     vertex  4.573830e+01  5.441510e+01  2.000000e+01
   endloop
 endfacet
 facet normal  8.380602e-01 -1.017589e-01  5.360039e-01
   outer loop
     vertex  3.411906e+01  5.441510e+01  3.816707e+01
     vertex  3.395979e+01  5.310343e+01  3.816707e+01
     vertex  3.799214e+01  5.441510e+01  3.211138e+01
   endloop
 endfacet
 facet normal  7.950133e-01  3.015088e-01  5.263519e-01
   outer loop
     vertex  4.097202e+01  5.919327e+01  2.605569e+01
     vertex  4.524140e+01  5.850744e+01  2.000000e+01
     vertex  4.377958e+01  6.236194e+01  2.000000e+01
   endloop
 endfacet
 facet normal  8.157922e-01  1.524980e-01  5.578776e-01
   outer loop
     vertex  4.097202e+01  5.919327e+01  2.605569e+01
     vertex  4.186522e+01  5.441510e+01  2.605569e+01
     vertex  4.524140e+01  5.850744e+01  2.000000e+01
   endloop
 endfacet
 facet normal  7.064531e-01  4.374173e-01  5.564082e-01
   outer loop
     vertex  3.841307e+01  6.332613e+01  2.605569e+01
     vertex  4.097202e+01  5.919327e+01  2.605569e+01
     vertex  4.377958e+01  6.236194e+01  2.000000e+01
   endloop
 endfacet
 facet normal  6.935297e-01  4.787090e-01  5.383811e-01
   outer loop
     vertex  3.841307e+01  6.332613e+01  2.605569e+01
     vertex  4.377958e+01  6.236194e+01  2.000000e+01
     vertex  4.143779e+01  6.575460e+01  2.000000e+01
   endloop
 endfacet
 facet normal  5.607106e-01  6.329115e-01  5.338789e-01
   outer loop
     vertex  3.841307e+01  6.332613e+01  2.605569e+01
     vertex  4.143779e+01  6.575460e+01  2.000000e+01
     vertex  3.835214e+01  6.848826e+01  2.000000e+01
   endloop
 endfacet
 facet normal  7.853418e-01  2.978408e-01  5.427054e-01
   outer loop
     vertex  3.736048e+01  5.779416e+01  3.211138e+01
     vertex  3.349125e+01  5.696221e+01  3.816707e+01
     vertex  3.395979e+01  5.572677e+01  3.816707e+01
   endloop
 endfacet
 facet normal  8.321777e-01  1.555610e-01  5.322416e-01
   outer loop
     vertex  3.736048e+01  5.779416e+01  3.211138e+01
     vertex  3.799214e+01  5.441510e+01  3.211138e+01
     vertex  4.186522e+01  5.441510e+01  2.605569e+01
   endloop
 endfacet
 facet normal  7.197875e-01  4.456735e-01  5.322416e-01
   outer loop
     vertex  3.736048e+01  5.779416e+01  3.211138e+01
     vertex  4.097202e+01  5.919327e+01  2.605569e+01
     vertex  3.841307e+01  6.332613e+01  2.605569e+01
   endloop
 endfacet
 facet normal  8.373985e-01  1.565369e-01  5.236983e-01
   outer loop
     vertex  3.736048e+01  5.779416e+01  3.211138e+01
     vertex  3.395979e+01  5.572677e+01  3.816707e+01
     vertex  3.799214e+01  5.441510e+01  3.211138e+01
   endloop
 endfacet
 facet normal  8.321777e-01  1.555610e-01  5.322416e-01
   outer loop
     vertex  3.736048e+01  5.779416e+01  3.211138e+01
     vertex  4.186522e+01  5.441510e+01  2.605569e+01
     vertex  4.097202e+01  5.919327e+01  2.605569e+01
   endloop
 endfacet
 facet normal  3.950606e-01  7.527251e-01  5.266232e-01
   outer loop
     vertex  3.453395e+01  6.625550e+01  2.605569e+01
     vertex  3.835214e+01  6.848826e+01  2.000000e+01
     vertex  3.470194e+01  7.040403e+01  2.000000e+01
   endloop
 endfacet
 facet normal  4.996781e-01  6.616808e-01  5.590172e-01
   outer loop
     vertex  3.453395e+01  6.625550e+01  2.605569e+01
     vertex  3.841307e+01  6.332613e+01  2.605569e+01
     vertex  3.835214e+01  6.848826e+01  2.000000e+01
   endloop
 endfacet
 facet normal  6.956562e-01  4.801768e-01  5.343151e-01
   outer loop
     vertex  3.555083e+01  6.071685e+01  3.211138e+01
     vertex  3.274067e+01  5.804962e+01  3.816707e+01
     vertex  3.349125e+01  5.696221e+01  3.816707e+01
   endloop
 endfacet
 facet normal  5.591870e-01  6.311917e-01  5.375006e-01
   outer loop
     vertex  3.555083e+01  6.071685e+01  3.211138e+01
     vertex  3.175166e+01  5.892581e+01  3.816707e+01
     vertex  3.274067e+01  5.804962e+01  3.816707e+01
   endloop
 endfacet
 facet normal  7.197875e-01  4.456735e-01  5.322416e-01
   outer loop
     vertex  3.555083e+01  6.071685e+01  3.211138e+01
     vertex  3.736048e+01  5.779416e+01  3.211138e+01
     vertex  3.841307e+01  6.332613e+01  2.605569e+01
   endloop
 endfacet
 facet normal  7.240374e-01  4.483050e-01  5.242066e-01
   outer loop
     vertex  3.555083e+01  6.071685e+01  3.211138e+01
     vertex  3.349125e+01  5.696221e+01  3.816707e+01
     vertex  3.736048e+01  5.779416e+01  3.211138e+01
   endloop
 endfacet
 facet normal  2.012690e-01  8.165804e-01  5.410057e-01
   outer loop
     vertex  2.985858e+01  6.758576e+01  2.605569e+01
     vertex  3.470194e+01  7.040403e+01  2.000000e+01
     vertex  3.069933e+01  7.139058e+01  2.000000e+01
   endloop
 endfacet
 facet normal  0.000000e+00  8.467379e-01  5.320102e-01
   outer loop
     vertex  2.985858e+01  6.758576e+01  2.605569e+01
     vertex  3.069933e+01  7.139058e+01  2.000000e+01
     vertex  2.657694e+01  7.139058e+01  2.000000e+01
   endloop
 endfacet
 facet normal  2.277186e-01  8.003479e-01  5.546057e-01
   outer loop
     vertex  2.985858e+01  6.758576e+01  2.605569e+01
     vertex  3.453395e+01  6.625550e+01  2.605569e+01
     vertex  3.470194e+01  7.040403e+01  2.000000e+01
   endloop
 endfacet
 facet normal  3.903873e-01  7.438208e-01  5.425204e-01
   outer loop
     vertex  3.280757e+01  6.278846e+01  3.211138e+01
     vertex  3.058170e+01  5.953985e+01  3.816707e+01
     vertex  3.175166e+01  5.892581e+01  3.816707e+01
   endloop
 endfacet
 facet normal  5.101860e-01  6.755954e-01  5.322416e-01
   outer loop
     vertex  3.280757e+01  6.278846e+01  3.211138e+01
     vertex  3.841307e+01  6.332613e+01  2.605569e+01
     vertex  3.453395e+01  6.625550e+01  2.605569e+01
   endloop
 endfacet
 facet normal  5.135333e-01  6.800279e-01  5.233026e-01
   outer loop
     vertex  3.280757e+01  6.278846e+01  3.211138e+01
     vertex  3.175166e+01  5.892581e+01  3.816707e+01
     vertex  3.555083e+01  6.071685e+01  3.211138e+01
   endloop
 endfacet
 facet normal  5.101860e-01  6.755954e-01  5.322416e-01
   outer loop
     vertex  3.280757e+01  6.278846e+01  3.211138e+01
     vertex  3.555083e+01  6.071685e+01  3.211138e+01
     vertex  3.841307e+01  6.332613e+01  2.605569e+01
   endloop
 endfacet
 facet normal  2.316810e-01  8.142744e-01  5.322416e-01
   outer loop
     vertex  3.280757e+01  6.278846e+01  3.211138e+01
     vertex  3.453395e+01  6.625550e+01  2.605569e+01
     vertex  2.985858e+01  6.758576e+01  2.605569e+01
   endloop
 endfacet
 facet normal -2.033616e-01  8.250703e-01  5.271651e-01
   outer loop
     vertex  2.501837e+01  6.713725e+01  2.605569e+01
     vertex  2.657694e+01  7.139058e+01  2.000000e+01
     vertex  2.257434e+01  7.040403e+01  2.000000e+01
   endloop
 endfacet
 facet normal -7.645429e-02  8.250732e-01  5.598295e-01
   outer loop
     vertex  2.501837e+01  6.713725e+01  2.605569e+01
     vertex  2.985858e+01  6.758576e+01  2.605569e+01
     vertex  2.657694e+01  7.139058e+01  2.000000e+01
   endloop
 endfacet
 facet normal  2.025742e-01  8.218756e-01  5.324323e-01
   outer loop
     vertex  2.950122e+01  6.372920e+01  3.211138e+01
     vertex  2.929879e+01  5.985606e+01  3.816707e+01
     vertex  3.058170e+01  5.953985e+01  3.816707e+01
   endloop
 endfacet
 facet normal  0.000000e+00  8.424294e-01  5.388067e-01
   outer loop
     vertex  2.950122e+01  6.372920e+01  3.211138e+01
     vertex  2.797748e+01  5.985606e+01  3.816707e+01
     vertex  2.929879e+01  5.985606e+01  3.816707e+01
   endloop
 endfacet
 facet normal  2.316810e-01  8.142744e-01  5.322416e-01
   outer loop
     vertex  2.950122e+01  6.372920e+01  3.211138e+01
     vertex  3.280757e+01  6.278846e+01  3.211138e+01
     vertex  2.985858e+01  6.758576e+01  2.605569e+01
   endloop
 endfacet
 facet normal  2.329444e-01  8.187147e-01  5.248267e-01
   outer loop
     vertex  2.950122e+01  6.372920e+01  3.211138e+01
     vertex  3.058170e+01  5.953985e+01  3.816707e+01
     vertex  3.280757e+01  6.278846e+01  3.211138e+01
   endloop
 endfacet
 facet normal -3.899807e-01  7.430461e-01  5.438727e-01
   outer loop
     vertex  2.066704e+01  6.497054e+01  2.605569e+01
     vertex  2.257434e+01  7.040403e+01  2.000000e+01
     vertex  1.892414e+01  6.848826e+01  2.000000e+01
   endloop
 endfacet
 facet normal -5.621599e-01  6.345474e-01  5.304016e-01
   outer loop
     vertex  2.066704e+01  6.497054e+01  2.605569e+01
     vertex  1.892414e+01  6.848826e+01  2.000000e+01
     vertex  1.583848e+01  6.575460e+01  2.000000e+01
   endloop
 endfacet
 facet normal -3.715386e-01  7.461502e-01  5.524663e-01
   outer loop
     vertex  2.066704e+01  6.497054e+01  2.605569e+01
     vertex  2.501837e+01  6.713725e+01  2.605569e+01
     vertex  2.257434e+01  7.040403e+01  2.000000e+01
   endloop
 endfacet
 facet normal -7.811370e-02  8.429811e-01  5.322416e-01
   outer loop
     vertex  2.607829e+01  6.341202e+01  3.211138e+01
     vertex  2.985858e+01  6.758576e+01  2.605569e+01
     vertex  2.501837e+01  6.713725e+01  2.605569e+01
   endloop
 endfacet
 facet normal -2.010925e-01  8.158645e-01  5.421502e-01
   outer loop
     vertex  2.607829e+01  6.341202e+01  3.211138e+01
     vertex  2.669458e+01  5.953985e+01  3.816707e+01
     vertex  2.797748e+01  5.985606e+01  3.816707e+01
   endloop
 endfacet
 facet normal -7.864223e-02  8.486848e-01  5.230196e-01
   outer loop
     vertex  2.607829e+01  6.341202e+01  3.211138e+01
     vertex  2.797748e+01  5.985606e+01  3.816707e+01
     vertex  2.950122e+01  6.372920e+01  3.211138e+01
   endloop
 endfacet
 facet normal -3.773588e-01  7.578385e-01  5.322416e-01
   outer loop
     vertex  2.607829e+01  6.341202e+01  3.211138e+01
     vertex  2.501837e+01  6.713725e+01  2.605569e+01
     vertex  2.066704e+01  6.497054e+01  2.605569e+01
   endloop
 endfacet
 facet normal -7.811370e-02  8.429811e-01  5.322416e-01
   outer loop
     vertex  2.607829e+01  6.341202e+01  3.211138e+01
     vertex  2.950122e+01  6.372920e+01  3.211138e+01
     vertex  2.985858e+01  6.758576e+01  2.605569e+01
   endloop
 endfacet
 facet normal -6.989264e-01  4.824340e-01  5.279766e-01
   outer loop
     vertex  1.739225e+01  6.137826e+01  2.605569e+01
     vertex  1.583848e+01  6.575460e+01  2.000000e+01
     vertex  1.349670e+01  6.236194e+01  2.000000e+01
   endloop
 endfacet
 facet normal -6.121055e-01  5.580079e-01  5.603161e-01
   outer loop
     vertex  1.739225e+01  6.137826e+01  2.605569e+01
     vertex  2.066704e+01  6.497054e+01  2.605569e+01
     vertex  1.583848e+01  6.575460e+01  2.000000e+01
   endloop
 endfacet
 facet normal -3.939814e-01  7.506689e-01  5.303535e-01
   outer loop
     vertex  2.300109e+01  6.187976e+01  3.211138e+01
     vertex  2.552462e+01  5.892581e+01  3.816707e+01
     vertex  2.669458e+01  5.953985e+01  3.816707e+01
   endloop
 endfacet
 facet normal -3.792153e-01  7.615670e-01  5.255583e-01
   outer loop
     vertex  2.300109e+01  6.187976e+01  3.211138e+01
     vertex  2.669458e+01  5.953985e+01  3.816707e+01
     vertex  2.607829e+01  6.341202e+01  3.211138e+01
   endloop
 endfacet
 facet normal -5.581596e-01  6.300320e-01  5.399236e-01
   outer loop
     vertex  2.300109e+01  6.187976e+01  3.211138e+01
     vertex  2.453561e+01  5.804962e+01  3.816707e+01
     vertex  2.552462e+01  5.892581e+01  3.816707e+01
   endloop
 endfacet
 facet normal -3.773588e-01  7.578385e-01  5.322416e-01
   outer loop
     vertex  2.300109e+01  6.187976e+01  3.211138e+01
     vertex  2.607829e+01  6.341202e+01  3.211138e+01
     vertex  2.066704e+01  6.497054e+01  2.605569e+01
   endloop
 endfacet
 facet normal -7.787769e-01  3.016998e-01  5.499852e-01
   outer loop
     vertex  1.563627e+01  5.684557e+01  2.605569e+01
     vertex  1.739225e+01  6.137826e+01  2.605569e+01
     vertex  1.349670e+01  6.236194e+01  2.000000e+01
   endloop
 endfacet
 facet normal -7.827471e-01  2.968568e-01  5.469762e-01
   outer loop
     vertex  1.563627e+01  5.684557e+01  2.605569e+01
     vertex  1.349670e+01  6.236194e+01  2.000000e+01
     vertex  1.203488e+01  5.850744e+01  2.000000e+01
   endloop
 endfacet
 facet normal -8.423997e-01  1.022858e-01  5.290562e-01
   outer loop
     vertex  1.563627e+01  5.684557e+01  2.605569e+01
     vertex  1.203488e+01  5.850744e+01  2.000000e+01
     vertex  1.153798e+01  5.441510e+01  2.000000e+01
   endloop
 endfacet
 facet normal -6.918331e-01  4.775379e-01  5.415945e-01
   outer loop
     vertex  2.068520e+01  5.933935e+01  3.211138e+01
     vertex  2.378502e+01  5.696221e+01  3.816707e+01
     vertex  2.453561e+01  5.804962e+01  3.816707e+01
   endloop
 endfacet
 facet normal -6.256394e-01  5.703457e-01  5.322416e-01
   outer loop
     vertex  2.068520e+01  5.933935e+01  3.211138e+01
     vertex  2.300109e+01  6.187976e+01  3.211138e+01
     vertex  2.066704e+01  6.497054e+01  2.605569e+01
   endloop
 endfacet
 facet normal -6.256394e-01  5.703457e-01  5.322416e-01
   outer loop
     vertex  2.068520e+01  5.933935e+01  3.211138e+01
     vertex  2.066704e+01  6.497054e+01  2.605569e+01
     vertex  1.739225e+01  6.137826e+01  2.605569e+01
   endloop
 endfacet
 facet normal -6.299496e-01  5.742749e-01  5.228497e-01
   outer loop
     vertex  2.068520e+01  5.933935e+01  3.211138e+01
     vertex  2.453561e+01  5.804962e+01  3.816707e+01
     vertex  2.300109e+01  6.187976e+01  3.211138e+01
   endloop
 endfacet
 facet normal -8.423997e-01 -1.022858e-01  5.290562e-01
   outer loop
     vertex  1.563627e+01  5.198463e+01  2.605569e+01
     vertex  1.153798e+01  5.441510e+01  2.000000e+01
     vertex  1.203488e+01  5.032276e+01  2.000000e+01
   endloop
 endfacet
 facet normal -7.827471e-01 -2.968568e-01  5.469762e-01
   outer loop
     vertex  1.563627e+01  5.198463e+01  2.605569e+01
     vertex  1.203488e+01  5.032276e+01  2.000000e+01
     vertex  1.349670e+01  4.646826e+01  2.000000e+01
   endloop
 endfacet
 facet normal -8.281692e-01  6.052838e-16  5.604782e-01
   outer loop
     vertex  1.563627e+01  5.198463e+01  2.605569e+01
     vertex  1.563627e+01  5.684557e+01  2.605569e+01
     vertex  1.153798e+01  5.441510e+01  2.000000e+01
   endloop
 endfacet
 facet normal -7.928221e-01  3.071409e-01  5.264006e-01
   outer loop
     vertex  1.944340e+01  5.613389e+01  3.211138e+01
     vertex  2.378502e+01  5.696221e+01  3.816707e+01
     vertex  2.068520e+01  5.933935e+01  3.211138e+01
   endloop
 endfacet
 facet normal -7.940128e-01  3.011293e-01  5.280765e-01
   outer loop
     vertex  1.944340e+01  5.613389e+01  3.211138e+01
     vertex  2.331648e+01  5.572677e+01  3.816707e+01
     vertex  2.378502e+01  5.696221e+01  3.816707e+01
   endloop
 endfacet
 facet normal -8.349848e-01  1.013855e-01  5.408525e-01
   outer loop
     vertex  1.944340e+01  5.613389e+01  3.211138e+01
     vertex  2.315721e+01  5.441510e+01  3.816707e+01
     vertex  2.331648e+01  5.572677e+01  3.816707e+01
   endloop
 endfacet
 facet normal -7.894240e-01  3.058245e-01  5.322416e-01
   outer loop
     vertex  1.944340e+01  5.613389e+01  3.211138e+01
     vertex  1.739225e+01  6.137826e+01  2.605569e+01
     vertex  1.563627e+01  5.684557e+01  2.605569e+01
   endloop
 endfacet
 facet normal -7.894240e-01  3.058245e-01  5.322416e-01
   outer loop
     vertex  1.944340e+01  5.613389e+01  3.211138e+01
     vertex  2.068520e+01  5.933935e+01  3.211138e+01
     vertex  1.739225e+01  6.137826e+01  2.605569e+01
   endloop
 endfacet
 facet normal -7.787769e-01 -3.016998e-01  5.499852e-01
   outer loop
     vertex  1.739225e+01  4.745194e+01  2.605569e+01
     vertex  1.563627e+01  5.198463e+01  2.605569e+01
     vertex  1.349670e+01  4.646826e+01  2.000000e+01
   endloop
 endfacet
 facet normal -6.989264e-01 -4.824340e-01  5.279766e-01
   outer loop
     vertex  1.739225e+01  4.745194e+01  2.605569e+01
     vertex  1.349670e+01  4.646826e+01  2.000000e+01
     vertex  1.583848e+01  4.307560e+01  2.000000e+01
   endloop
 endfacet
 facet normal -8.349848e-01 -1.013855e-01  5.408525e-01
   outer loop
     vertex  1.944340e+01  5.269631e+01  3.211138e+01
     vertex  2.331648e+01  5.310343e+01  3.816707e+01
     vertex  2.315721e+01  5.441510e+01  3.816707e+01
   endloop
 endfacet
 facet normal -7.940128e-01 -3.011293e-01  5.280765e-01
   outer loop
     vertex  1.944340e+01  5.269631e+01  3.211138e+01
     vertex  2.378502e+01  5.186799e+01  3.816707e+01
     vertex  2.331648e+01  5.310343e+01  3.816707e+01
   endloop
 endfacet
 facet normal -8.465925e-01  0.000000e+00  5.322416e-01
   outer loop
     vertex  1.944340e+01  5.269631e+01  3.211138e+01
     vertex  1.944340e+01  5.613389e+01  3.211138e+01
     vertex  1.563627e+01  5.684557e+01  2.605569e+01
   endloop
 endfacet
 facet normal -8.465925e-01  6.130587e-16  5.322416e-01
   outer loop
     vertex  1.944340e+01  5.269631e+01  3.211138e+01
     vertex  1.563627e+01  5.684557e+01  2.605569e+01
     vertex  1.563627e+01  5.198463e+01  2.605569e+01
   endloop
 endfacet
 facet normal -8.524596e-01  0.000000e+00  5.227931e-01
   outer loop
     vertex  1.944340e+01  5.269631e+01  3.211138e+01
     vertex  2.315721e+01  5.441510e+01  3.816707e+01
     vertex  1.944340e+01  5.613389e+01  3.211138e+01
   endloop
 endfacet
 facet normal -5.621599e-01 -6.345474e-01  5.304016e-01
   outer loop
     vertex  2.066704e+01  4.385966e+01  2.605569e+01
     vertex  1.583848e+01  4.307560e+01  2.000000e+01
     vertex  1.892414e+01  4.034194e+01  2.000000e+01
   endloop
 endfacet
 facet normal -3.899807e-01 -7.430461e-01  5.438727e-01
   outer loop
     vertex  2.066704e+01  4.385966e+01  2.605569e+01
     vertex  1.892414e+01  4.034194e+01  2.000000e+01
     vertex  2.257434e+01  3.842617e+01  2.000000e+01
   endloop
 endfacet
 facet normal -6.121055e-01 -5.580079e-01  5.603161e-01
   outer loop
     vertex  2.066704e+01  4.385966e+01  2.605569e+01
     vertex  1.739225e+01  4.745194e+01  2.605569e+01
     vertex  1.583848e+01  4.307560e+01  2.000000e+01
   endloop
 endfacet
 facet normal -7.894240e-01 -3.058245e-01  5.322416e-01
   outer loop
     vertex  2.068520e+01  4.949085e+01  3.211138e+01
     vertex  1.944340e+01  5.269631e+01  3.211138e+01
     vertex  1.563627e+01  5.198463e+01  2.605569e+01
   endloop
 endfacet
 facet normal -6.918331e-01 -4.775379e-01  5.415945e-01
   outer loop
     vertex  2.068520e+01  4.949085e+01  3.211138e+01
     vertex  2.453561e+01  5.078058e+01  3.816707e+01
     vertex  2.378502e+01  5.186799e+01  3.816707e+01
   endloop
 endfacet
 facet normal -7.894240e-01 -3.058245e-01  5.322416e-01
   outer loop
     vertex  2.068520e+01  4.949085e+01  3.211138e+01
     vertex  1.563627e+01  5.198463e+01  2.605569e+01
     vertex  1.739225e+01  4.745194e+01  2.605569e+01
   endloop
 endfacet
 facet normal -7.928221e-01 -3.071409e-01  5.264006e-01
   outer loop
     vertex  2.068520e+01  4.949085e+01  3.211138e+01
     vertex  2.378502e+01  5.186799e+01  3.816707e+01
     vertex  1.944340e+01  5.269631e+01  3.211138e+01
   endloop
 endfacet
 facet normal -3.715386e-01 -7.461502e-01  5.524663e-01
   outer loop
     vertex  2.501837e+01  4.169296e+01  2.605569e+01
     vertex  2.066704e+01  4.385966e+01  2.605569e+01
     vertex  2.257434e+01  3.842617e+01  2.000000e+01
   endloop
 endfacet
 facet normal -2.033616e-01 -8.250703e-01  5.271651e-01
   outer loop
     vertex  2.501837e+01  4.169296e+01  2.605569e+01
     vertex  2.257434e+01  3.842617e+01  2.000000e+01
     vertex  2.657694e+01  3.743962e+01  2.000000e+01
   endloop
 endfacet
 facet normal -5.581596e-01 -6.300320e-01  5.399236e-01
   outer loop
     vertex  2.300109e+01  4.695045e+01  3.211138e+01
     vertex  2.552462e+01  4.990439e+01  3.816707e+01
     vertex  2.453561e+01  5.078058e+01  3.816707e+01
   endloop
 endfacet
 facet normal -3.939814e-01 -7.506689e-01  5.303535e-01
   outer loop
     vertex  2.300109e+01  4.695045e+01  3.211138e+01
     vertex  2.669458e+01  4.929035e+01  3.816707e+01
     vertex  2.552462e+01  4.990439e+01  3.816707e+01
   endloop
 endfacet
 facet normal -6.299496e-01 -5.742749e-01  5.228497e-01
   outer loop
     vertex  2.300109e+01  4.695045e+01  3.211138e+01
     vertex  2.453561e+01  5.078058e+01  3.816707e+01
     vertex  2.068520e+01  4.949085e+01  3.211138e+01
   endloop
 endfacet
 facet normal -6.256394e-01 -5.703457e-01  5.322416e-01
   outer loop
     vertex  2.300109e+01  4.695045e+01  3.211138e+01
     vertex  2.068520e+01  4.949085e+01  3.211138e+01
     vertex  1.739225e+01  4.745194e+01  2.605569e+01
   endloop
 endfacet
 facet normal -3.773588e-01 -7.578385e-01  5.322416e-01
   outer loop
     vertex  2.300109e+01  4.695045e+01  3.211138e+01
     vertex  2.066704e+01  4.385966e+01  2.605569e+01
     vertex  2.501837e+01  4.169296e+01  2.605569e+01
   endloop
 endfacet
 facet normal -6.256394e-01 -5.703457e-01  5.322416e-01
   outer loop
     vertex  2.300109e+01  4.695045e+01  3.211138e+01
     vertex  1.739225e+01  4.745194e+01  2.605569e+01
     vertex  2.066704e+01  4.385966e+01  2.605569e+01
   endloop
 endfacet
 facet normal -2.892061e-15 -8.467379e-01  5.320102e-01
   outer loop
     vertex  2.985858e+01  4.124444e+01  2.605569e+01
     vertex  2.657694e+01  3.743962e+01  2.000000e+01
     vertex  3.069933e+01  3.743962e+01  2.000000e+01
   endloop
 endfacet
 facet normal  2.012690e-01 -8.165804e-01  5.410057e-01
   outer loop
     vertex  2.985858e+01  4.124444e+01  2.605569e+01
     vertex  3.069933e+01  3.743962e+01  2.000000e+01
     vertex  3.470194e+01  3.842617e+01  2.000000e+01
   endloop
 endfacet
 facet normal -7.645429e-02 -8.250732e-01  5.598295e-01
   outer loop
     vertex  2.985858e+01  4.124444e+01  2.605569e+01
     vertex  2.501837e+01  4.169296e+01  2.605569e+01
     vertex  2.657694e+01  3.743962e+01  2.000000e+01
   endloop
 endfacet
 facet normal -2.010925e-01 -8.158645e-01  5.421502e-01
   outer loop
     vertex  2.607829e+01  4.541818e+01  3.211138e+01
     vertex  2.797748e+01  4.897414e+01  3.816707e+01
     vertex  2.669458e+01  4.929035e+01  3.816707e+01
   endloop
 endfacet
 facet normal -3.773588e-01 -7.578385e-01  5.322416e-01
   outer loop
     vertex  2.607829e+01  4.541818e+01  3.211138e+01
     vertex  2.300109e+01  4.695045e+01  3.211138e+01
     vertex  2.501837e+01  4.169296e+01  2.605569e+01
   endloop
 endfacet
 facet normal -3.792153e-01 -7.615670e-01  5.255583e-01
   outer loop
     vertex  2.607829e+01  4.541818e+01  3.211138e+01
     vertex  2.669458e+01  4.929035e+01  3.816707e+01
     vertex  2.300109e+01  4.695045e+01  3.211138e+01
   endloop
 endfacet
 facet normal  3.950606e-01 -7.527251e-01  5.266232e-01
   outer loop
     vertex  3.453395e+01  4.257470e+01  2.605569e+01
     vertex  3.470194e+01  3.842617e+01  2.000000e+01
     vertex  3.835214e+01  4.034194e+01  2.000000e+01
   endloop
 endfacet
 facet normal  2.277186e-01 -8.003479e-01  5.546057e-01
   outer loop
     vertex  3.453395e+01  4.257470e+01  2.605569e+01
     vertex  2.985858e+01  4.124444e+01  2.605569e+01
     vertex  3.470194e+01  3.842617e+01  2.000000e+01
   endloop
 endfacet
 facet normal  0.000000e+00 -8.424294e-01  5.388067e-01
   outer loop
     vertex  2.950122e+01  4.510100e+01  3.211138e+01
     vertex  2.929879e+01  4.897414e+01  3.816707e+01
     vertex  2.797748e+01  4.897414e+01  3.816707e+01
   endloop
 endfacet
 facet normal  2.025742e-01 -8.218756e-01  5.324323e-01
   outer loop
     vertex  2.950122e+01  4.510100e+01  3.211138e+01
     vertex  3.058170e+01  4.929035e+01  3.816707e+01
     vertex  2.929879e+01  4.897414e+01  3.816707e+01
   endloop
 endfacet
 facet normal -7.864223e-02 -8.486848e-01  5.230196e-01
   outer loop
     vertex  2.950122e+01  4.510100e+01  3.211138e+01
     vertex  2.797748e+01  4.897414e+01  3.816707e+01
     vertex  2.607829e+01  4.541818e+01  3.211138e+01
   endloop
 endfacet
 facet normal -7.811370e-02 -8.429811e-01  5.322416e-01
   outer loop
     vertex  2.950122e+01  4.510100e+01  3.211138e+01
     vertex  2.607829e+01  4.541818e+01  3.211138e+01
     vertex  2.501837e+01  4.169296e+01  2.605569e+01
   endloop
 endfacet
 facet normal -7.811370e-02 -8.429811e-01  5.322416e-01
   outer loop
     vertex  2.950122e+01  4.510100e+01  3.211138e+01
     vertex  2.501837e+01  4.169296e+01  2.605569e+01
     vertex  2.985858e+01  4.124444e+01  2.605569e+01
   endloop
 endfacet
 facet normal  4.996781e-01 -6.616808e-01  5.590172e-01
   outer loop
     vertex  3.841307e+01  4.550407e+01  2.605569e+01
     vertex  3.453395e+01  4.257470e+01  2.605569e+01
     vertex  3.835214e+01  4.034194e+01  2.000000e+01
   endloop
 endfacet
 facet normal  5.607106e-01 -6.329115e-01  5.338789e-01
   outer loop
     vertex  3.841307e+01  4.550407e+01  2.605569e+01
     vertex  3.835214e+01  4.034194e+01  2.000000e+01
     vertex  4.143779e+01  4.307560e+01  2.000000e+01
   endloop
 endfacet
 facet normal  6.935297e-01 -4.787090e-01  5.383811e-01
   outer loop
     vertex  3.841307e+01  4.550407e+01  2.605569e+01
     vertex  4.143779e+01  4.307560e+01  2.000000e+01
     vertex  4.377958e+01  4.646826e+01  2.000000e+01
   endloop
 endfacet
 facet normal  3.903873e-01 -7.438208e-01  5.425204e-01
   outer loop
     vertex  3.280757e+01  4.604174e+01  3.211138e+01
     vertex  3.175166e+01  4.990439e+01  3.816707e+01
     vertex  3.058170e+01  4.929035e+01  3.816707e+01
   endloop
 endfacet
 facet normal  2.329444e-01 -8.187147e-01  5.248267e-01
   outer loop
     vertex  3.280757e+01  4.604174e+01  3.211138e+01
     vertex  3.058170e+01  4.929035e+01  3.816707e+01
     vertex  2.950122e+01  4.510100e+01  3.211138e+01
   endloop
 endfacet
 facet normal  5.101860e-01 -6.755954e-01  5.322416e-01
   outer loop
     vertex  3.280757e+01  4.604174e+01  3.211138e+01
     vertex  3.453395e+01  4.257470e+01  2.605569e+01
     vertex  3.841307e+01  4.550407e+01  2.605569e+01
   endloop
 endfacet
 facet normal  2.316810e-01 -8.142744e-01  5.322416e-01
   outer loop
     vertex  3.280757e+01  4.604174e+01  3.211138e+01
     vertex  2.985858e+01  4.124444e+01  2.605569e+01
     vertex  3.453395e+01  4.257470e+01  2.605569e+01
   endloop
 endfacet
 facet normal  2.316810e-01 -8.142744e-01  5.322416e-01
   outer loop
     vertex  3.280757e+01  4.604174e+01  3.211138e+01
     vertex  2.950122e+01  4.510100e+01  3.211138e+01
     vertex  2.985858e+01  4.124444e+01  2.605569e+01
   endloop
 endfacet
 facet normal  7.950133e-01 -3.015088e-01  5.263519e-01
   outer loop
     vertex  4.097202e+01  4.963693e+01  2.605569e+01
     vertex  4.377958e+01  4.646826e+01  2.000000e+01
     vertex  4.524140e+01  5.032276e+01  2.000000e+01
   endloop
 endfacet
 facet normal  8.157922e-01 -1.524980e-01  5.578776e-01
   outer loop
     vertex  4.097202e+01  4.963693e+01  2.605569e+01
     vertex  4.524140e+01  5.032276e+01  2.000000e+01
     vertex  4.186522e+01  5.441510e+01  2.605569e+01
   endloop
 endfacet
 facet normal  7.064531e-01 -4.374173e-01  5.564082e-01
   outer loop
     vertex  4.097202e+01  4.963693e+01  2.605569e+01
     vertex  3.841307e+01  4.550407e+01  2.605569e+01
     vertex  4.377958e+01  4.646826e+01  2.000000e+01
   endloop
 endfacet
 facet normal  5.591870e-01 -6.311917e-01  5.375006e-01
   outer loop
     vertex  3.555083e+01  4.811335e+01  3.211138e+01
     vertex  3.274067e+01  5.078058e+01  3.816707e+01
     vertex  3.175166e+01  4.990439e+01  3.816707e+01
   endloop
 endfacet
 facet normal  6.956562e-01 -4.801768e-01  5.343151e-01
   outer loop
     vertex  3.555083e+01  4.811335e+01  3.211138e+01
     vertex  3.349125e+01  5.186799e+01  3.816707e+01
     vertex  3.274067e+01  5.078058e+01  3.816707e+01
   endloop
 endfacet
 facet normal  5.135333e-01 -6.800279e-01  5.233026e-01
   outer loop
     vertex  3.555083e+01  4.811335e+01  3.211138e+01
     vertex  3.175166e+01  4.990439e+01  3.816707e+01
     vertex  3.280757e+01  4.604174e+01  3.211138e+01
   endloop
 endfacet
 facet normal  5.101860e-01 -6.755954e-01  5.322416e-01
   outer loop
     vertex  3.555083e+01  4.811335e+01  3.211138e+01
     vertex  3.280757e+01  4.604174e+01  3.211138e+01
     vertex  3.841307e+01  4.550407e+01  2.605569e+01
   endloop
 endfacet
 facet normal  7.197875e-01 -4.456735e-01  5.322416e-01
   outer loop
     vertex  3.736048e+01  5.103605e+01  3.211138e+01
     vertex  3.555083e+01  4.811335e+01  3.211138e+01
     vertex  3.841307e+01  4.550407e+01  2.605569e+01
   endloop
 endfacet
 facet normal  7.197875e-01 -4.456735e-01  5.322416e-01
   outer loop
     vertex  3.736048e+01  5.103605e+01  3.211138e+01
     vertex  3.841307e+01  4.550407e+01  2.605569e+01
     vertex  4.097202e+01  4.963693e+01  2.605569e+01
   endloop
 endfacet
 facet normal  7.240374e-01 -4.483050e-01  5.242066e-01
   outer loop
     vertex  3.736048e+01  5.103605e+01  3.211138e+01
     vertex  3.349125e+01  5.186799e+01  3.816707e+01
     vertex  3.555083e+01  4.811335e+01  3.211138e+01
   endloop
 endfacet
 facet normal  7.853418e-01 -2.978408e-01  5.427054e-01
   outer loop
     vertex  3.736048e+01  5.103605e+01  3.211138e+01
     vertex  3.395979e+01  5.310343e+01  3.816707e+01
     vertex  3.349125e+01  5.186799e+01  3.816707e+01
   endloop
 endfacet
 facet normal  8.321777e-01 -1.555610e-01  5.322416e-01
   outer loop
     vertex  3.736048e+01  5.103605e+01  3.211138e+01
     vertex  4.097202e+01  4.963693e+01  2.605569e+01
     vertex  4.186522e+01  5.441510e+01  2.605569e+01
   endloop
 endfacet
 facet normal  8.321777e-01 -1.555610e-01  5.322416e-01
   outer loop
     vertex  3.736048e+01  5.103605e+01  3.211138e+01
     vertex  4.186522e+01  5.441510e+01  2.605569e+01
     vertex  3.799214e+01  5.441510e+01  3.211138e+01
   endloop
 endfacet
 facet normal  8.373985e-01 -1.565369e-01  5.236983e-01
   outer loop
     vertex  3.736048e+01  5.103605e+01  3.211138e+01
     vertex  3.799214e+01  5.441510e+01  3.211138e+01
     vertex  3.395979e+01  5.310343e+01  3.816707e+01
   endloop
 endfacet
 facet normal  0.000000e+00  0.000000e+00  1.000000e+00
   outer loop
     vertex  2.929879e+01  4.897414e+01  3.816707e+01
     vertex  2.453561e+01  5.078058e+01  3.816707e+01
     vertex  2.552462e+01  4.990439e+01  3.816707e+01
   endloop
 endfacet
 facet normal  0.000000e+00  0.000000e+00  1.000000e+00
   outer loop
     vertex  2.929879e+01  4.897414e+01  3.816707e+01
     vertex  2.552462e+01  4.990439e+01  3.816707e+01
     vertex  2.669458e+01  4.929035e+01  3.816707e+01
   endloop
 endfacet
 facet normal  0.000000e+00  0.000000e+00  1.000000e+00
   outer loop
     vertex  2.929879e+01  4.897414e+01  3.816707e+01
     vertex  2.669458e+01  4.929035e+01  3.816707e+01
     vertex  2.797748e+01  4.897414e+01  3.816707e+01
   endloop
 endfacet
 facet normal  0.000000e+00  0.000000e+00  1.000000e+00
   outer loop
     vertex  2.378502e+01  5.696221e+01  3.816707e+01
     vertex  2.331648e+01  5.572677e+01  3.816707e+01
     vertex  2.315721e+01  5.441510e+01  3.816707e+01
   endloop
 endfacet
 facet normal  0.000000e+00  0.000000e+00  1.000000e+00
   outer loop
     vertex  2.378502e+01  5.696221e+01  3.816707e+01
     vertex  2.315721e+01  5.441510e+01  3.816707e+01
     vertex  2.331648e+01  5.310343e+01  3.816707e+01
   endloop
 endfacet
 facet normal  0.000000e+00  0.000000e+00  1.000000e+00
   outer loop
     vertex  3.274067e+01  5.078058e+01  3.816707e+01
     vertex  3.058170e+01  4.929035e+01  3.816707e+01
     vertex  3.175166e+01  4.990439e+01  3.816707e+01
   endloop
 endfacet
 facet normal  0.000000e+00  0.000000e+00  1.000000e+00
   outer loop
     vertex  3.349125e+01  5.186799e+01  3.816707e+01
     vertex  2.331648e+01  5.310343e+01  3.816707e+01
     vertex  2.378502e+01  5.186799e+01  3.816707e+01
   endloop
 endfacet
 facet normal  0.000000e+00  0.000000e+00  1.000000e+00
   outer loop
     vertex  3.349125e+01  5.186799e+01  3.816707e+01
     vertex  2.378502e+01  5.186799e+01  3.816707e+01
     vertex  2.453561e+01  5.078058e+01  3.816707e+01
   endloop
 endfacet
 facet normal  0.000000e+00  0.000000e+00  1.000000e+00
   outer loop
     vertex  3.349125e+01  5.186799e+01  3.816707e+01
     vertex  2.929879e+01  4.897414e+01  3.816707e+01
     vertex  3.058170e+01  4.929035e+01  3.816707e+01
   endloop
 endfacet
 facet normal  0.000000e+00  0.000000e+00  1.000000e+00
   outer loop
     vertex  3.349125e+01  5.186799e+01  3.816707e+01
     vertex  2.453561e+01  5.078058e+01  3.816707e+01
     vertex  2.929879e+01  4.897414e+01  3.816707e+01
   endloop
 endfacet
 facet normal  0.000000e+00  0.000000e+00  1.000000e+00
   outer loop
     vertex  3.349125e+01  5.186799e+01  3.816707e+01
     vertex  3.058170e+01  4.929035e+01  3.816707e+01
     vertex  3.274067e+01  5.078058e+01  3.816707e+01
   endloop
 endfacet
 facet normal  0.000000e+00  0.000000e+00  1.000000e+00
   outer loop
     vertex  2.669458e+01  5.953985e+01  3.816707e+01
     vertex  2.552462e+01  5.892581e+01  3.816707e+01
     vertex  2.453561e+01  5.804962e+01  3.816707e+01
   endloop
 endfacet
 facet normal  0.000000e+00  0.000000e+00  1.000000e+00
   outer loop
     vertex  2.669458e+01  5.953985e+01  3.816707e+01
     vertex  2.453561e+01  5.804962e+01  3.816707e+01
     vertex  2.378502e+01  5.696221e+01  3.816707e+01
   endloop
 endfacet
 facet normal  0.000000e+00  0.000000e+00  1.000000e+00
   outer loop
     vertex  2.669458e+01  5.953985e+01  3.816707e+01
     vertex  2.378502e+01  5.696221e+01  3.816707e+01
     vertex  2.331648e+01  5.310343e+01  3.816707e+01
   endloop
 endfacet
 facet normal  0.000000e+00  0.000000e+00  1.000000e+00
   outer loop
     vertex  2.797748e+01  5.985606e+01  3.816707e+01
     vertex  2.669458e+01  5.953985e+01  3.816707e+01
     vertex  2.331648e+01  5.310343e+01  3.816707e+01
   endloop
 endfacet
 facet normal  0.000000e+00  0.000000e+00  1.000000e+00
   outer loop
     vertex  3.411906e+01  5.441510e+01  3.816707e+01
     vertex  3.349125e+01  5.186799e+01  3.816707e+01
     vertex  3.395979e+01  5.310343e+01  3.816707e+01
   endloop
 endfacet
 facet normal  0.000000e+00  0.000000e+00  1.000000e+00
   outer loop
     vertex  3.395979e+01  5.572677e+01  3.816707e+01
     vertex  2.331648e+01  5.310343e+01  3.816707e+01
     vertex  3.349125e+01  5.186799e+01  3.816707e+01
   endloop
 endfacet
 facet normal  0.000000e+00  0.000000e+00  1.000000e+00
   outer loop
     vertex  3.395979e+01  5.572677e+01  3.816707e+01
     vertex  3.349125e+01  5.186799e+01  3.816707e+01
     vertex  3.411906e+01  5.441510e+01  3.816707e+01
   endloop
 endfacet
 facet normal  0.000000e+00  0.000000e+00  1.000000e+00
   outer loop
     vertex  3.395979e+01  5.572677e+01  3.816707e+01
     vertex  2.797748e+01  5.985606e+01  3.816707e+01
     vertex  2.331648e+01  5.310343e+01  3.816707e+01
   endloop
 endfacet
 facet normal  0.000000e+00  0.000000e+00  1.000000e+00
   outer loop
     vertex  3.058170e+01  5.953985e+01  3.816707e+01
     vertex  2.929879e+01  5.985606e+01  3.816707e+01
     vertex  2.797748e+01  5.985606e+01  3.816707e+01
   endloop
 endfacet
 facet normal  0.000000e+00  0.000000e+00  1.000000e+00
   outer loop
     vertex  3.349125e+01  5.696221e+01  3.816707e+01
     vertex  2.797748e+01  5.985606e+01  3.816707e+01
     vertex  3.395979e+01  5.572677e+01  3.816707e+01
   endloop
 endfacet
 facet normal  0.000000e+00  0.000000e+00  1.000000e+00
   outer loop
     vertex  3.274067e+01  5.804962e+01  3.816707e+01
     vertex  3.175166e+01  5.892581e+01  3.816707e+01
     vertex  3.058170e+01  5.953985e+01  3.816707e+01
   endloop
 endfacet
 facet normal  0.000000e+00  0.000000e+00  1.000000e+00
   outer loop
     vertex  3.274067e+01  5.804962e+01  3.816707e+01
     vertex  3.058170e+01  5.953985e+01  3.816707e+01
     vertex  2.797748e+01  5.985606e+01  3.816707e+01
   endloop
 endfacet
 facet normal  0.000000e+00  0.000000e+00  1.000000e+00
   outer loop
     vertex  3.274067e+01  5.804962e+01  3.816707e+01
     vertex  2.797748e+01  5.985606e+01  3.816707e+01
     vertex  3.349125e+01  5.696221e+01  3.816707e+01
   endloop
 endfacet
endsolid
