solid 
 facet normal -1.000000e+00  0.000000e+00  0.000000e+00
   outer loop
     vertex  0.000000e+00  0.000000e+00  6.000000e+01
     vertex  0.000000e+00  9.217721e+01  0.000000e+00
     vertex  0.000000e+00  0.000000e+00  0.000000e+00
   endloop
 endfacet
 facet normal -1.000000e+00  0.000000e+00  0.000000e+00
   outer loop
     vertex  0.000000e+00  0.000000e+00  6.000000e+01
     vertex  0.000000e+00  9.217721e+01  6.000000e+01
     vertex  0.000000e+00  9.217721e+01  0.000000e+00
   endloop
 endfacet
 facet normal  0.000000e+00 -1.000000e+00 -0.000000e+00
   outer loop
     vertex  1.159361e+02  0.000000e+00  6.000000e+01
     vertex  0.000000e+00  0.000000e+00  0.000000e+00
     vertex  1.159361e+02  0.000000e+00  0.000000e+00
   endloop
 endfacet
 facet normal -0.000000e+00 -1.000000e+00  0.000000e+00
   outer loop
     vertex  1.159361e+02  0.000000e+00  6.000000e+01
     vertex  0.000000e+00  0.000000e+00  6.000000e+01
     vertex  0.000000e+00  0.000000e+00  0.000000e+00
   endloop
 endfacet
 facet normal  0.000000e+00  0.000000e+00  1.000000e+00
   outer loop
     vertex  7.722691e+01  2.634963e+01  6.000000e+01
     vertex  7.455644e+01  2.871546e+01  6.000000e+01
     vertex  0.000000e+00  0.000000e+00  6.000000e+01
   endloop
 endfacet
 facet normal  0.000000e+00  0.000000e+00  1.000000e+00
   outer loop
     vertex  7.252975e+01  3.165163e+01  6.000000e+01
     vertex  0.000000e+00  0.000000e+00  6.000000e+01
     vertex  7.455644e+01  2.871546e+01  6.000000e+01
   endloop
 endfacet
 facet normal  0.000000e+00  0.000000e+00  1.000000e+00
   outer loop
     vertex  8.038597e+01  2.469163e+01  6.000000e+01
     vertex  7.722691e+01  2.634963e+01  6.000000e+01
     vertex  0.000000e+00  0.000000e+00  6.000000e+01
   endloop
 endfacet
 facet normal  0.000000e+00  0.000000e+00  1.000000e+00
   outer loop
     vertex  7.126462e+01  3.498751e+01  6.000000e+01
     vertex  0.000000e+00  0.000000e+00  6.000000e+01
     vertex  7.252975e+01  3.165163e+01  6.000000e+01
   endloop
 endfacet
 facet normal  0.000000e+00  0.000000e+00  1.000000e+00
   outer loop
     vertex  7.083458e+01  3.852921e+01  6.000000e+01
     vertex  0.000000e+00  9.217721e+01  6.000000e+01
     vertex  0.000000e+00  0.000000e+00  6.000000e+01
   endloop
 endfacet
 facet normal  0.000000e+00  0.000000e+00  1.000000e+00
   outer loop
     vertex  7.083458e+01  3.852921e+01  6.000000e+01
     vertex  0.000000e+00  0.000000e+00  6.000000e+01
     vertex  7.126462e+01  3.498751e+01  6.000000e+01
   endloop
 endfacet
 facet normal  0.000000e+00  0.000000e+00  1.000000e+00
   outer loop
     vertex  7.126462e+01  4.207091e+01  6.000000e+01
     vertex  0.000000e+00  9.217721e+01  6.000000e+01
     vertex  7.083458e+01  3.852921e+01  6.000000e+01
   endloop
 endfacet
 facet normal  0.000000e+00  0.000000e+00  1.000000e+00
   outer loop
     vertex  1.159361e+02  0.000000e+00  6.000000e+01
     vertex  9.088177e+01  2.469163e+01  6.000000e+01
     vertex  8.741773e+01  2.383782e+01  6.000000e+01
   endloop
 endfacet
 facet normal  0.000000e+00  0.000000e+00  1.000000e+00
   outer loop
     vertex  1.159361e+02  0.000000e+00  6.000000e+01
     vertex  8.741773e+01  2.383782e+01  6.000000e+01
     vertex  8.385001e+01  2.383782e+01  6.000000e+01
   endloop
 endfacet
 facet normal  0.000000e+00  0.000000e+00  1.000000e+00
   outer loop
     vertex  1.159361e+02  0.000000e+00  6.000000e+01
     vertex  8.385001e+01  2.383782e+01  6.000000e+01
     vertex  8.038597e+01  2.469163e+01  6.000000e+01
   endloop
 endfacet
 facet normal  0.000000e+00  0.000000e+00  1.000000e+00
   outer loop
     vertex  1.159361e+02  0.000000e+00  6.000000e+01
     vertex  8.038597e+01  2.469163e+01  6.000000e+01
     vertex  0.000000e+00  0.000000e+00  6.000000e+01
   endloop
 endfacet
 facet normal  0.000000e+00  0.000000e+00  1.000000e+00
   outer loop
     vertex  7.252975e+01  4.540678e+01  6.000000e+01
     vertex  0.000000e+00  9.217721e+01  6.000000e+01
     vertex  7.126462e+01  4.207091e+01  6.000000e+01
   endloop
 endfacet
 facet normal  0.000000e+00  0.000000e+00  1.000000e+00
   outer loop
     vertex  9.404083e+01  2.634963e+01  6.000000e+01
     vertex  9.088177e+01  2.469163e+01  6.000000e+01
     vertex  1.159361e+02  0.000000e+00  6.000000e+01
   endloop
 endfacet
 facet normal  0.000000e+00  0.000000e+00  1.000000e+00
   outer loop
     vertex  7.455644e+01  4.834296e+01  6.000000e+01
     vertex  0.000000e+00  9.217721e+01  6.000000e+01
     vertex  7.252975e+01  4.540678e+01  6.000000e+01
   endloop
 endfacet
 facet normal  0.000000e+00  0.000000e+00  1.000000e+00
   outer loop
     vertex  9.671130e+01  2.871546e+01  6.000000e+01
     vertex  9.404083e+01  2.634963e+01  6.000000e+01
     vertex  1.159361e+02  0.000000e+00  6.000000e+01
   endloop
 endfacet
 facet normal  0.000000e+00  0.000000e+00  1.000000e+00
   outer loop
     vertex  7.722691e+01  5.070879e+01  6.000000e+01
     vertex  0.000000e+00  9.217721e+01  6.000000e+01
     vertex  7.455644e+01  4.834296e+01  6.000000e+01
   endloop
 endfacet
 facet normal  0.000000e+00  0.000000e+00  1.000000e+00
   outer loop
     vertex  9.873800e+01  3.165163e+01  6.000000e+01
     vertex  9.671130e+01  2.871546e+01  6.000000e+01
     vertex  1.159361e+02  0.000000e+00  6.000000e+01
   endloop
 endfacet
 facet normal  0.000000e+00  0.000000e+00  1.000000e+00
   outer loop
     vertex  8.038597e+01  5.236679e+01  6.000000e+01
     vertex  0.000000e+00  9.217721e+01  6.000000e+01
     vertex  7.722691e+01  5.070879e+01  6.000000e+01
   endloop
 endfacet
 facet normal  0.000000e+00  0.000000e+00  1.000000e+00
   outer loop
     vertex  1.000031e+02  3.498751e+01  6.000000e+01
     vertex  9.873800e+01  3.165163e+01  6.000000e+01
     vertex  1.159361e+02  0.000000e+00  6.000000e+01
   endloop
 endfacet
 facet normal  0.000000e+00  0.000000e+00  1.000000e+00
   outer loop
     vertex  1.004332e+02  3.852921e+01  6.000000e+01
     vertex  1.000031e+02  3.498751e+01  6.000000e+01
     vertex  1.159361e+02  0.000000e+00  6.000000e+01
   endloop
 endfacet
 facet normal  0.000000e+00  0.000000e+00  1.000000e+00
   outer loop
     vertex  1.159361e+02  9.217721e+01  6.000000e+01
     vertex  8.038597e+01  5.236679e+01  6.000000e+01
     vertex  8.385001e+01  5.322060e+01  6.000000e+01
   endloop
 endfacet
 facet normal  0.000000e+00  0.000000e+00  1.000000e+00
   outer loop
     vertex  1.159361e+02  9.217721e+01  6.000000e+01
     vertex  8.385001e+01  5.322060e+01  6.000000e+01
     vertex  8.741773e+01  5.322060e+01  6.000000e+01
   endloop
 endfacet
 facet normal  0.000000e+00  0.000000e+00  1.000000e+00
   outer loop
     vertex  1.159361e+02  9.217721e+01  6.000000e+01
     vertex  8.741773e+01  5.322060e+01  6.000000e+01
     vertex  9.088177e+01  5.236679e+01  6.000000e+01
   endloop
 endfacet
 facet normal  0.000000e+00  0.000000e+00  1.000000e+00
   outer loop
     vertex  1.159361e+02  9.217721e+01  6.000000e+01
     vertex  9.088177e+01  5.236679e+01  6.000000e+01
     vertex  9.404083e+01  5.070879e+01  6.000000e+01
   endloop
 endfacet
 facet normal  0.000000e+00  0.000000e+00  1.000000e+00
   outer loop
     vertex  1.159361e+02  9.217721e+01  6.000000e+01
     vertex  9.404083e+01  5.070879e+01  6.000000e+01
     vertex  9.671130e+01  4.834296e+01  6.000000e+01
   endloop
 endfacet
 facet normal  0.000000e+00  0.000000e+00  1.000000e+00
   outer loop
     vertex  1.159361e+02  9.217721e+01  6.000000e+01
     vertex  9.671130e+01  4.834296e+01  6.000000e+01
     vertex  9.873800e+01  4.540678e+01  6.000000e+01
   endloop
 endfacet
 facet normal  0.000000e+00  0.000000e+00  1.000000e+00
   outer loop
     vertex  1.159361e+02  9.217721e+01  6.000000e+01
     vertex  9.873800e+01  4.540678e+01  6.000000e+01
     vertex  1.000031e+02  4.207091e+01  6.000000e+01
   endloop
 endfacet
 facet normal  0.000000e+00  0.000000e+00  1.000000e+00
   outer loop
     vertex  1.159361e+02  9.217721e+01  6.000000e+01
     vertex  1.000031e+02  4.207091e+01  6.000000e+01
     vertex  1.004332e+02  3.852921e+01  6.000000e+01
   endloop
 endfacet
 facet normal  0.000000e+00  0.000000e+00  1.000000e+00
   outer loop
     vertex  1.159361e+02  9.217721e+01  6.000000e+01
     vertex  0.000000e+00  9.217721e+01  6.000000e+01
     vertex  8.038597e+01  5.236679e+01  6.000000e+01
   endloop
 endfacet
 facet normal  0.000000e+00  0.000000e+00  1.000000e+00
   outer loop
     vertex  1.159361e+02  9.217721e+01  6.000000e+01
     vertex  1.004332e+02  3.852921e+01  6.000000e+01
     vertex  1.159361e+02  0.000000e+00  6.000000e+01
   endloop
 endfacet
 facet normal  0.000000e+00  1.000000e+00  0.000000e+00
   outer loop
     vertex  1.159361e+02  9.217721e+01  6.000000e+01
     vertex  1.159361e+02  9.217721e+01  0.000000e+00
     vertex  0.000000e+00  9.217721e+01  0.000000e+00
   endloop
 endfacet
 facet normal  0.000000e+00  1.000000e+00  0.000000e+00
   outer loop
     vertex  1.159361e+02  9.217721e+01  6.000000e+01
     vertex  0.000000e+00  9.217721e+01  0.000000e+00
     vertex  0.000000e+00  9.217721e+01  6.000000e+01
   endloop
 endfacet
 facet normal -0.000000e+00  0.000000e+00 -1.000000e+00
   outer loop
     vertex  1.159361e+02  9.217721e+01  0.000000e+00
     vertex  0.000000e+00  0.000000e+00  0.000000e+00
     vertex  0.000000e+00  9.217721e+01  0.000000e+00
   endloop
 endfacet
 facet normal  0.000000e+00 -0.000000e+00 -1.000000e+00
   outer loop
     vertex  1.159361e+02  9.217721e+01  0.000000e+00
     vertex  1.159361e+02  0.000000e+00  0.000000e+00
     vertex  0.000000e+00  0.000000e+00  0.000000e+00
   endloop
 endfacet
 facet normal  1.000000e+00  0.000000e+00  0.000000e+00
   outer loop
     vertex  1.159361e+02  0.000000e+00  6.000000e+01
     vertex  1.159361e+02  0.000000e+00  0.000000e+00
     vertex  1.159361e+02  9.217721e+01  0.000000e+00
   endloop
 endfacet
 facet normal  1.000000e+00 -0.000000e+00  0.000000e+00
   outer loop
     vertex  1.159361e+02  0.000000e+00  6.000000e+01
     vertex  1.159361e+02  9.217721e+01  0.000000e+00
     vertex  1.159361e+02  9.217721e+01  6.000000e+01
   endloop
 endfacet
 facet normal -9.099147e-01  1.104836e-01  3.998108e-01
   outer loop
     vertex  9.809781e+01  3.852921e+01  5.468504e+01
     vertex  1.000031e+02  3.498751e+01  6.000000e+01
     vertex  1.004332e+02  3.852921e+01  6.000000e+01
   endloop
 endfacet
 facet normal -9.099147e-01  1.104836e-01  3.998108e-01
   outer loop
     vertex  9.320063e+01  3.666417e+01  4.405513e+01
     vertex  9.576245e+01  3.852921e+01  4.937009e+01
     vertex  9.342709e+01  3.852921e+01  4.405513e+01
   endloop
 endfacet
 facet normal -9.099147e-01 -1.104836e-01  3.998108e-01
   outer loop
     vertex  9.809781e+01  3.852921e+01  5.468504e+01
     vertex  1.004332e+02  3.852921e+01  6.000000e+01
     vertex  1.000031e+02  4.207091e+01  6.000000e+01
   endloop
 endfacet
 facet normal -9.099147e-01 -1.104836e-01  3.998108e-01
   outer loop
     vertex  9.342709e+01  3.852921e+01  4.405513e+01
     vertex  9.576245e+01  3.852921e+01  4.937009e+01
     vertex  9.320063e+01  4.039425e+01  4.405513e+01
   endloop
 endfacet
 facet normal -8.620185e-01  3.269205e-01  3.873592e-01
   outer loop
     vertex  9.714905e+01  3.375947e+01  5.468504e+01
     vertex  9.873800e+01  3.165163e+01  6.000000e+01
     vertex  1.000031e+02  3.498751e+01  6.000000e+01
   endloop
 endfacet
 facet normal -8.836498e-01  1.757689e-01  4.338991e-01
   outer loop
     vertex  9.714905e+01  3.375947e+01  5.468504e+01
     vertex  1.000031e+02  3.498751e+01  6.000000e+01
     vertex  9.809781e+01  3.852921e+01  5.468504e+01
   endloop
 endfacet
 facet normal -7.528166e-01  5.030160e-01  4.245493e-01
   outer loop
     vertex  9.444720e+01  2.971588e+01  5.468504e+01
     vertex  9.873800e+01  3.165163e+01  6.000000e+01
     vertex  9.714905e+01  3.375947e+01  5.468504e+01
   endloop
 endfacet
 facet normal -7.483805e-01  5.165698e-01  4.160316e-01
   outer loop
     vertex  9.444720e+01  2.971588e+01  5.468504e+01
     vertex  9.671130e+01  2.871546e+01  6.000000e+01
     vertex  9.873800e+01  3.165163e+01  6.000000e+01
   endloop
 endfacet
 facet normal -6.106500e-01  6.892813e-01  3.898691e-01
   outer loop
     vertex  9.444720e+01  2.971588e+01  5.468504e+01
     vertex  9.404083e+01  2.634963e+01  6.000000e+01
     vertex  9.671130e+01  2.871546e+01  6.000000e+01
   endloop
 endfacet
 facet normal -8.529118e-01  3.234668e-01  4.097692e-01
   outer loop
     vertex  9.499146e+01  3.465317e+01  4.937009e+01
     vertex  9.320063e+01  3.666417e+01  4.405513e+01
     vertex  9.253442e+01  3.490752e+01  4.405513e+01
   endloop
 endfacet
 facet normal -9.007061e-01  1.791616e-01  3.957646e-01
   outer loop
     vertex  9.499146e+01  3.465317e+01  4.937009e+01
     vertex  9.809781e+01  3.852921e+01  5.468504e+01
     vertex  9.576245e+01  3.852921e+01  4.937009e+01
   endloop
 endfacet
 facet normal -9.092876e-01  1.808685e-01  3.748102e-01
   outer loop
     vertex  9.499146e+01  3.465317e+01  4.937009e+01
     vertex  9.576245e+01  3.852921e+01  4.937009e+01
     vertex  9.320063e+01  3.666417e+01  4.405513e+01
   endloop
 endfacet
 facet normal -9.007061e-01  1.791616e-01  3.957646e-01
   outer loop
     vertex  9.499146e+01  3.465317e+01  4.937009e+01
     vertex  9.714905e+01  3.375947e+01  5.468504e+01
     vertex  9.809781e+01  3.852921e+01  5.468504e+01
   endloop
 endfacet
 facet normal -4.271258e-01  8.138203e-01  3.940305e-01
   outer loop
     vertex  9.040361e+01  2.701403e+01  5.468504e+01
     vertex  9.088177e+01  2.469163e+01  6.000000e+01
     vertex  9.404083e+01  2.634963e+01  6.000000e+01
   endloop
 endfacet
 facet normal -2.185802e-01  8.868146e-01  4.071641e-01
   outer loop
     vertex  9.040361e+01  2.701403e+01  5.468504e+01
     vertex  8.741773e+01  2.383782e+01  6.000000e+01
     vertex  9.088177e+01  2.469163e+01  6.000000e+01
   endloop
 endfacet
 facet normal -5.000497e-01  7.483773e-01  4.357541e-01
   outer loop
     vertex  9.040361e+01  2.701403e+01  5.468504e+01
     vertex  9.404083e+01  2.634963e+01  6.000000e+01
     vertex  9.444720e+01  2.971588e+01  5.468504e+01
   endloop
 endfacet
 facet normal -7.590824e-01  5.239568e-01  3.863459e-01
   outer loop
     vertex  9.279586e+01  3.136722e+01  4.937009e+01
     vertex  9.253442e+01  3.490752e+01  4.405513e+01
     vertex  9.146718e+01  3.336135e+01  4.405513e+01
   endloop
 endfacet
 facet normal -6.054820e-01  6.834479e-01  4.077872e-01
   outer loop
     vertex  9.279586e+01  3.136722e+01  4.937009e+01
     vertex  9.146718e+01  3.336135e+01  4.405513e+01
     vertex  9.006092e+01  3.211552e+01  4.405513e+01
   endloop
 endfacet
 facet normal -7.635818e-01  5.102090e-01  3.957646e-01
   outer loop
     vertex  9.279586e+01  3.136722e+01  4.937009e+01
     vertex  9.444720e+01  2.971588e+01  5.468504e+01
     vertex  9.714905e+01  3.375947e+01  5.468504e+01
   endloop
 endfacet
 facet normal -7.635818e-01  5.102090e-01  3.957646e-01
   outer loop
     vertex  9.279586e+01  3.136722e+01  4.937009e+01
     vertex  9.714905e+01  3.375947e+01  5.468504e+01
     vertex  9.499146e+01  3.465317e+01  4.937009e+01
   endloop
 endfacet
 facet normal -7.690583e-01  5.138683e-01  3.801166e-01
   outer loop
     vertex  9.279586e+01  3.136722e+01  4.937009e+01
     vertex  9.499146e+01  3.465317e+01  4.937009e+01
     vertex  9.253442e+01  3.490752e+01  4.405513e+01
   endloop
 endfacet
 facet normal -1.761170e-01  8.854000e-01  4.301740e-01
   outer loop
     vertex  8.563387e+01  2.606527e+01  5.468504e+01
     vertex  8.741773e+01  2.383782e+01  6.000000e+01
     vertex  9.040361e+01  2.701403e+01  5.468504e+01
   endloop
 endfacet
 facet normal  0.000000e+00  9.222809e-01  3.865204e-01
   outer loop
     vertex  8.563387e+01  2.606527e+01  5.468504e+01
     vertex  8.385001e+01  2.383782e+01  6.000000e+01
     vertex  8.741773e+01  2.383782e+01  6.000000e+01
   endloop
 endfacet
 facet normal -4.250125e-01  8.097937e-01  4.044731e-01
   outer loop
     vertex  8.950991e+01  2.917162e+01  4.937009e+01
     vertex  9.006092e+01  3.211552e+01  4.405513e+01
     vertex  8.839738e+01  3.124242e+01  4.405513e+01
   endloop
 endfacet
 facet normal -2.199803e-01  8.924952e-01  3.937778e-01
   outer loop
     vertex  8.950991e+01  2.917162e+01  4.937009e+01
     vertex  8.839738e+01  3.124242e+01  4.405513e+01
     vertex  8.657324e+01  3.079281e+01  4.405513e+01
   endloop
 endfacet
 facet normal -5.153092e-01  7.712148e-01  3.737434e-01
   outer loop
     vertex  8.950991e+01  2.917162e+01  4.937009e+01
     vertex  9.279586e+01  3.136722e+01  4.937009e+01
     vertex  9.006092e+01  3.211552e+01  4.405513e+01
   endloop
 endfacet
 facet normal -5.102090e-01  7.635818e-01  3.957646e-01
   outer loop
     vertex  8.950991e+01  2.917162e+01  4.937009e+01
     vertex  9.444720e+01  2.971588e+01  5.468504e+01
     vertex  9.279586e+01  3.136722e+01  4.937009e+01
   endloop
 endfacet
 facet normal -1.791616e-01  9.007061e-01  3.957646e-01
   outer loop
     vertex  8.950991e+01  2.917162e+01  4.937009e+01
     vertex  8.563387e+01  2.606527e+01  5.468504e+01
     vertex  9.040361e+01  2.701403e+01  5.468504e+01
   endloop
 endfacet
 facet normal -5.102090e-01  7.635818e-01  3.957646e-01
   outer loop
     vertex  8.950991e+01  2.917162e+01  4.937009e+01
     vertex  9.040361e+01  2.701403e+01  5.468504e+01
     vertex  9.444720e+01  2.971588e+01  5.468504e+01
   endloop
 endfacet
 facet normal  2.185802e-01  8.868146e-01  4.071641e-01
   outer loop
     vertex  8.086413e+01  2.701403e+01  5.468504e+01
     vertex  8.038597e+01  2.469163e+01  6.000000e+01
     vertex  8.385001e+01  2.383782e+01  6.000000e+01
   endloop
 endfacet
 facet normal  4.271258e-01  8.138203e-01  3.940305e-01
   outer loop
     vertex  8.086413e+01  2.701403e+01  5.468504e+01
     vertex  7.722691e+01  2.634963e+01  6.000000e+01
     vertex  8.038597e+01  2.469163e+01  6.000000e+01
   endloop
 endfacet
 facet normal  1.761170e-01  8.854000e-01  4.301740e-01
   outer loop
     vertex  8.086413e+01  2.701403e+01  5.468504e+01
     vertex  8.385001e+01  2.383782e+01  6.000000e+01
     vertex  8.563387e+01  2.606527e+01  5.468504e+01
   endloop
 endfacet
 facet normal  0.000000e+00  9.118927e-01  4.104288e-01
   outer loop
     vertex  8.563387e+01  2.840063e+01  4.937009e+01
     vertex  8.657324e+01  3.079281e+01  4.405513e+01
     vertex  8.469450e+01  3.079281e+01  4.405513e+01
   endloop
 endfacet
 facet normal -1.791616e-01  9.007061e-01  3.957646e-01
   outer loop
     vertex  8.563387e+01  2.840063e+01  4.937009e+01
     vertex  8.563387e+01  2.606527e+01  5.468504e+01
     vertex  8.950991e+01  2.917162e+01  4.937009e+01
   endloop
 endfacet
 facet normal -1.807002e-01  9.084410e-01  3.769382e-01
   outer loop
     vertex  8.563387e+01  2.840063e+01  4.937009e+01
     vertex  8.950991e+01  2.917162e+01  4.937009e+01
     vertex  8.657324e+01  3.079281e+01  4.405513e+01
   endloop
 endfacet
 facet normal  6.106500e-01  6.892813e-01  3.898691e-01
   outer loop
     vertex  7.682054e+01  2.971588e+01  5.468504e+01
     vertex  7.455644e+01  2.871546e+01  6.000000e+01
     vertex  7.722691e+01  2.634963e+01  6.000000e+01
   endloop
 endfacet
 facet normal  7.483805e-01  5.165698e-01  4.160316e-01
   outer loop
     vertex  7.682054e+01  2.971588e+01  5.468504e+01
     vertex  7.252975e+01  3.165163e+01  6.000000e+01
     vertex  7.455644e+01  2.871546e+01  6.000000e+01
   endloop
 endfacet
 facet normal  5.000497e-01  7.483773e-01  4.357541e-01
   outer loop
     vertex  7.682054e+01  2.971588e+01  5.468504e+01
     vertex  7.722691e+01  2.634963e+01  6.000000e+01
     vertex  8.086413e+01  2.701403e+01  5.468504e+01
   endloop
 endfacet
 facet normal  1.807002e-01  9.084410e-01  3.769382e-01
   outer loop
     vertex  8.175783e+01  2.917162e+01  4.937009e+01
     vertex  8.563387e+01  2.840063e+01  4.937009e+01
     vertex  8.469450e+01  3.079281e+01  4.405513e+01
   endloop
 endfacet
 facet normal  2.199803e-01  8.924952e-01  3.937778e-01
   outer loop
     vertex  8.175783e+01  2.917162e+01  4.937009e+01
     vertex  8.469450e+01  3.079281e+01  4.405513e+01
     vertex  8.287036e+01  3.124242e+01  4.405513e+01
   endloop
 endfacet
 facet normal  4.250125e-01  8.097937e-01  4.044731e-01
   outer loop
     vertex  8.175783e+01  2.917162e+01  4.937009e+01
     vertex  8.287036e+01  3.124242e+01  4.405513e+01
     vertex  8.120682e+01  3.211552e+01  4.405513e+01
   endloop
 endfacet
 facet normal  1.791616e-01  9.007061e-01  3.957646e-01
   outer loop
     vertex  8.175783e+01  2.917162e+01  4.937009e+01
     vertex  8.563387e+01  2.606527e+01  5.468504e+01
     vertex  8.563387e+01  2.840063e+01  4.937009e+01
   endloop
 endfacet
 facet normal  1.791616e-01  9.007061e-01  3.957646e-01
   outer loop
     vertex  8.175783e+01  2.917162e+01  4.937009e+01
     vertex  8.086413e+01  2.701403e+01  5.468504e+01
     vertex  8.563387e+01  2.606527e+01  5.468504e+01
   endloop
 endfacet
 facet normal  8.620185e-01  3.269205e-01  3.873592e-01
   outer loop
     vertex  7.411869e+01  3.375947e+01  5.468504e+01
     vertex  7.126462e+01  3.498751e+01  6.000000e+01
     vertex  7.252975e+01  3.165163e+01  6.000000e+01
   endloop
 endfacet
 facet normal  7.528166e-01  5.030160e-01  4.245493e-01
   outer loop
     vertex  7.411869e+01  3.375947e+01  5.468504e+01
     vertex  7.252975e+01  3.165163e+01  6.000000e+01
     vertex  7.682054e+01  2.971588e+01  5.468504e+01
   endloop
 endfacet
 facet normal  6.054820e-01  6.834479e-01  4.077872e-01
   outer loop
     vertex  7.847188e+01  3.136722e+01  4.937009e+01
     vertex  8.120682e+01  3.211552e+01  4.405513e+01
     vertex  7.980056e+01  3.336135e+01  4.405513e+01
   endloop
 endfacet
 facet normal  7.590824e-01  5.239568e-01  3.863459e-01
   outer loop
     vertex  7.847188e+01  3.136722e+01  4.937009e+01
     vertex  7.980056e+01  3.336135e+01  4.405513e+01
     vertex  7.873332e+01  3.490752e+01  4.405513e+01
   endloop
 endfacet
 facet normal  5.102090e-01  7.635818e-01  3.957646e-01
   outer loop
     vertex  7.847188e+01  3.136722e+01  4.937009e+01
     vertex  7.682054e+01  2.971588e+01  5.468504e+01
     vertex  8.086413e+01  2.701403e+01  5.468504e+01
   endloop
 endfacet
 facet normal  5.153092e-01  7.712148e-01  3.737434e-01
   outer loop
     vertex  7.847188e+01  3.136722e+01  4.937009e+01
     vertex  8.175783e+01  2.917162e+01  4.937009e+01
     vertex  8.120682e+01  3.211552e+01  4.405513e+01
   endloop
 endfacet
 facet normal  5.102090e-01  7.635818e-01  3.957646e-01
   outer loop
     vertex  7.847188e+01  3.136722e+01  4.937009e+01
     vertex  8.086413e+01  2.701403e+01  5.468504e+01
     vertex  8.175783e+01  2.917162e+01  4.937009e+01
   endloop
 endfacet
 facet normal  9.099147e-01  1.104836e-01  3.998108e-01
   outer loop
     vertex  7.316993e+01  3.852921e+01  5.468504e+01
     vertex  7.083458e+01  3.852921e+01  6.000000e+01
     vertex  7.126462e+01  3.498751e+01  6.000000e+01
   endloop
 endfacet
 facet normal  9.099147e-01 -1.104836e-01  3.998108e-01
   outer loop
     vertex  7.316993e+01  3.852921e+01  5.468504e+01
     vertex  7.126462e+01  4.207091e+01  6.000000e+01
     vertex  7.083458e+01  3.852921e+01  6.000000e+01
   endloop
 endfacet
 facet normal  8.836498e-01  1.757689e-01  4.338991e-01
   outer loop
     vertex  7.316993e+01  3.852921e+01  5.468504e+01
     vertex  7.126462e+01  3.498751e+01  6.000000e+01
     vertex  7.411869e+01  3.375947e+01  5.468504e+01
   endloop
 endfacet
 facet normal  7.690583e-01  5.138683e-01  3.801166e-01
   outer loop
     vertex  7.627628e+01  3.465317e+01  4.937009e+01
     vertex  7.847188e+01  3.136722e+01  4.937009e+01
     vertex  7.873332e+01  3.490752e+01  4.405513e+01
   endloop
 endfacet
 facet normal  8.529118e-01  3.234668e-01  4.097692e-01
   outer loop
     vertex  7.627628e+01  3.465317e+01  4.937009e+01
     vertex  7.873332e+01  3.490752e+01  4.405513e+01
     vertex  7.806711e+01  3.666417e+01  4.405513e+01
   endloop
 endfacet
 facet normal  9.007061e-01  1.791616e-01  3.957646e-01
   outer loop
     vertex  7.627628e+01  3.465317e+01  4.937009e+01
     vertex  7.316993e+01  3.852921e+01  5.468504e+01
     vertex  7.411869e+01  3.375947e+01  5.468504e+01
   endloop
 endfacet
 facet normal  7.635818e-01  5.102090e-01  3.957646e-01
   outer loop
     vertex  7.627628e+01  3.465317e+01  4.937009e+01
     vertex  7.682054e+01  2.971588e+01  5.468504e+01
     vertex  7.847188e+01  3.136722e+01  4.937009e+01
   endloop
 endfacet
 facet normal  7.635818e-01  5.102090e-01  3.957646e-01
   outer loop
     vertex  7.627628e+01  3.465317e+01  4.937009e+01
     vertex  7.411869e+01  3.375947e+01  5.468504e+01
     vertex  7.682054e+01  2.971588e+01  5.468504e+01
   endloop
 endfacet
 facet normal  8.620185e-01 -3.269205e-01  3.873592e-01
   outer loop
     vertex  7.411869e+01  4.329895e+01  5.468504e+01
     vertex  7.252975e+01  4.540678e+01  6.000000e+01
     vertex  7.126462e+01  4.207091e+01  6.000000e+01
   endloop
 endfacet
 facet normal  8.836498e-01 -1.757689e-01  4.338991e-01
   outer loop
     vertex  7.411869e+01  4.329895e+01  5.468504e+01
     vertex  7.126462e+01  4.207091e+01  6.000000e+01
     vertex  7.316993e+01  3.852921e+01  5.468504e+01
   endloop
 endfacet
 facet normal  9.099147e-01  1.104836e-01  3.998108e-01
   outer loop
     vertex  7.550529e+01  3.852921e+01  4.937009e+01
     vertex  7.806711e+01  3.666417e+01  4.405513e+01
     vertex  7.784065e+01  3.852921e+01  4.405513e+01
   endloop
 endfacet
 facet normal  9.099147e-01 -1.104836e-01  3.998108e-01
   outer loop
     vertex  7.550529e+01  3.852921e+01  4.937009e+01
     vertex  7.784065e+01  3.852921e+01  4.405513e+01
     vertex  7.806711e+01  4.039425e+01  4.405513e+01
   endloop
 endfacet
 facet normal  9.092876e-01  1.808685e-01  3.748102e-01
   outer loop
     vertex  7.550529e+01  3.852921e+01  4.937009e+01
     vertex  7.627628e+01  3.465317e+01  4.937009e+01
     vertex  7.806711e+01  3.666417e+01  4.405513e+01
   endloop
 endfacet
 facet normal  9.007061e-01 -1.791616e-01  3.957646e-01
   outer loop
     vertex  7.550529e+01  3.852921e+01  4.937009e+01
     vertex  7.411869e+01  4.329895e+01  5.468504e+01
     vertex  7.316993e+01  3.852921e+01  5.468504e+01
   endloop
 endfacet
 facet normal  9.007061e-01  1.791616e-01  3.957646e-01
   outer loop
     vertex  7.550529e+01  3.852921e+01  4.937009e+01
     vertex  7.316993e+01  3.852921e+01  5.468504e+01
     vertex  7.627628e+01  3.465317e+01  4.937009e+01
   endloop
 endfacet
 facet normal  7.483805e-01 -5.165698e-01  4.160316e-01
   outer loop
     vertex  7.682054e+01  4.734254e+01  5.468504e+01
     vertex  7.455644e+01  4.834296e+01  6.000000e+01
     vertex  7.252975e+01  4.540678e+01  6.000000e+01
   endloop
 endfacet
 facet normal  6.106500e-01 -6.892813e-01  3.898691e-01
   outer loop
     vertex  7.682054e+01  4.734254e+01  5.468504e+01
     vertex  7.722691e+01  5.070879e+01  6.000000e+01
     vertex  7.455644e+01  4.834296e+01  6.000000e+01
   endloop
 endfacet
 facet normal  7.528166e-01 -5.030160e-01  4.245493e-01
   outer loop
     vertex  7.682054e+01  4.734254e+01  5.468504e+01
     vertex  7.252975e+01  4.540678e+01  6.000000e+01
     vertex  7.411869e+01  4.329895e+01  5.468504e+01
   endloop
 endfacet
 facet normal  8.529118e-01 -3.234668e-01  4.097692e-01
   outer loop
     vertex  7.627628e+01  4.240525e+01  4.937009e+01
     vertex  7.806711e+01  4.039425e+01  4.405513e+01
     vertex  7.873332e+01  4.215090e+01  4.405513e+01
   endloop
 endfacet
 facet normal  9.092876e-01 -1.808685e-01  3.748102e-01
   outer loop
     vertex  7.627628e+01  4.240525e+01  4.937009e+01
     vertex  7.550529e+01  3.852921e+01  4.937009e+01
     vertex  7.806711e+01  4.039425e+01  4.405513e+01
   endloop
 endfacet
 facet normal  9.007061e-01 -1.791616e-01  3.957646e-01
   outer loop
     vertex  7.627628e+01  4.240525e+01  4.937009e+01
     vertex  7.411869e+01  4.329895e+01  5.468504e+01
     vertex  7.550529e+01  3.852921e+01  4.937009e+01
   endloop
 endfacet
 facet normal  5.000497e-01 -7.483773e-01  4.357541e-01
   outer loop
     vertex  8.086413e+01  5.004438e+01  5.468504e+01
     vertex  7.722691e+01  5.070879e+01  6.000000e+01
     vertex  7.682054e+01  4.734254e+01  5.468504e+01
   endloop
 endfacet
 facet normal  4.271258e-01 -8.138203e-01  3.940305e-01
   outer loop
     vertex  8.086413e+01  5.004438e+01  5.468504e+01
     vertex  8.038597e+01  5.236679e+01  6.000000e+01
     vertex  7.722691e+01  5.070879e+01  6.000000e+01
   endloop
 endfacet
 facet normal  2.185802e-01 -8.868146e-01  4.071641e-01
   outer loop
     vertex  8.086413e+01  5.004438e+01  5.468504e+01
     vertex  8.385001e+01  5.322060e+01  6.000000e+01
     vertex  8.038597e+01  5.236679e+01  6.000000e+01
   endloop
 endfacet
 facet normal  5.102090e-01 -7.635818e-01  3.957646e-01
   outer loop
     vertex  7.847188e+01  4.569119e+01  4.937009e+01
     vertex  8.086413e+01  5.004438e+01  5.468504e+01
     vertex  7.682054e+01  4.734254e+01  5.468504e+01
   endloop
 endfacet
 facet normal  7.590824e-01 -5.239568e-01  3.863459e-01
   outer loop
     vertex  7.847188e+01  4.569119e+01  4.937009e+01
     vertex  7.873332e+01  4.215090e+01  4.405513e+01
     vertex  7.980056e+01  4.369707e+01  4.405513e+01
   endloop
 endfacet
 facet normal  6.054820e-01 -6.834479e-01  4.077872e-01
   outer loop
     vertex  7.847188e+01  4.569119e+01  4.937009e+01
     vertex  7.980056e+01  4.369707e+01  4.405513e+01
     vertex  8.120682e+01  4.494290e+01  4.405513e+01
   endloop
 endfacet
 facet normal  7.635818e-01 -5.102090e-01  3.957646e-01
   outer loop
     vertex  7.847188e+01  4.569119e+01  4.937009e+01
     vertex  7.682054e+01  4.734254e+01  5.468504e+01
     vertex  7.411869e+01  4.329895e+01  5.468504e+01
   endloop
 endfacet
 facet normal  7.635818e-01 -5.102090e-01  3.957646e-01
   outer loop
     vertex  7.847188e+01  4.569119e+01  4.937009e+01
     vertex  7.411869e+01  4.329895e+01  5.468504e+01
     vertex  7.627628e+01  4.240525e+01  4.937009e+01
   endloop
 endfacet
 facet normal  7.690583e-01 -5.138683e-01  3.801166e-01
   outer loop
     vertex  7.847188e+01  4.569119e+01  4.937009e+01
     vertex  7.627628e+01  4.240525e+01  4.937009e+01
     vertex  7.873332e+01  4.215090e+01  4.405513e+01
   endloop
 endfacet
 facet normal  1.761170e-01 -8.854000e-01  4.301740e-01
   outer loop
     vertex  8.563387e+01  5.099315e+01  5.468504e+01
     vertex  8.385001e+01  5.322060e+01  6.000000e+01
     vertex  8.086413e+01  5.004438e+01  5.468504e+01
   endloop
 endfacet
 facet normal  0.000000e+00 -9.222809e-01  3.865204e-01
   outer loop
     vertex  8.563387e+01  5.099315e+01  5.468504e+01
     vertex  8.741773e+01  5.322060e+01  6.000000e+01
     vertex  8.385001e+01  5.322060e+01  6.000000e+01
   endloop
 endfacet
 facet normal  4.250125e-01 -8.097937e-01  4.044731e-01
   outer loop
     vertex  8.175783e+01  4.788679e+01  4.937009e+01
     vertex  8.120682e+01  4.494290e+01  4.405513e+01
     vertex  8.287036e+01  4.581600e+01  4.405513e+01
   endloop
 endfacet
 facet normal  2.199803e-01 -8.924952e-01  3.937778e-01
   outer loop
     vertex  8.175783e+01  4.788679e+01  4.937009e+01
     vertex  8.287036e+01  4.581600e+01  4.405513e+01
     vertex  8.469450e+01  4.626561e+01  4.405513e+01
   endloop
 endfacet
 facet normal  5.153092e-01 -7.712148e-01  3.737434e-01
   outer loop
     vertex  8.175783e+01  4.788679e+01  4.937009e+01
     vertex  7.847188e+01  4.569119e+01  4.937009e+01
     vertex  8.120682e+01  4.494290e+01  4.405513e+01
   endloop
 endfacet
 facet normal  5.102090e-01 -7.635818e-01  3.957646e-01
   outer loop
     vertex  8.175783e+01  4.788679e+01  4.937009e+01
     vertex  8.086413e+01  5.004438e+01  5.468504e+01
     vertex  7.847188e+01  4.569119e+01  4.937009e+01
   endloop
 endfacet
 facet normal -2.185802e-01 -8.868146e-01  4.071641e-01
   outer loop
     vertex  9.040361e+01  5.004438e+01  5.468504e+01
     vertex  9.088177e+01  5.236679e+01  6.000000e+01
     vertex  8.741773e+01  5.322060e+01  6.000000e+01
   endloop
 endfacet
 facet normal -4.271258e-01 -8.138203e-01  3.940305e-01
   outer loop
     vertex  9.040361e+01  5.004438e+01  5.468504e+01
     vertex  9.404083e+01  5.070879e+01  6.000000e+01
     vertex  9.088177e+01  5.236679e+01  6.000000e+01
   endloop
 endfacet
 facet normal -1.761170e-01 -8.854000e-01  4.301740e-01
   outer loop
     vertex  9.040361e+01  5.004438e+01  5.468504e+01
     vertex  8.741773e+01  5.322060e+01  6.000000e+01
     vertex  8.563387e+01  5.099315e+01  5.468504e+01
   endloop
 endfacet
 facet normal  0.000000e+00 -9.118927e-01  4.104288e-01
   outer loop
     vertex  8.563387e+01  4.865779e+01  4.937009e+01
     vertex  8.469450e+01  4.626561e+01  4.405513e+01
     vertex  8.657324e+01  4.626561e+01  4.405513e+01
   endloop
 endfacet
 facet normal  1.807002e-01 -9.084410e-01  3.769382e-01
   outer loop
     vertex  8.563387e+01  4.865779e+01  4.937009e+01
     vertex  8.175783e+01  4.788679e+01  4.937009e+01
     vertex  8.469450e+01  4.626561e+01  4.405513e+01
   endloop
 endfacet
 facet normal -1.791616e-01 -9.007061e-01  3.957646e-01
   outer loop
     vertex  8.563387e+01  4.865779e+01  4.937009e+01
     vertex  9.040361e+01  5.004438e+01  5.468504e+01
     vertex  8.563387e+01  5.099315e+01  5.468504e+01
   endloop
 endfacet
 facet normal  1.791616e-01 -9.007061e-01  3.957646e-01
   outer loop
     vertex  8.563387e+01  4.865779e+01  4.937009e+01
     vertex  8.563387e+01  5.099315e+01  5.468504e+01
     vertex  8.086413e+01  5.004438e+01  5.468504e+01
   endloop
 endfacet
 facet normal  1.791616e-01 -9.007061e-01  3.957646e-01
   outer loop
     vertex  8.563387e+01  4.865779e+01  4.937009e+01
     vertex  8.086413e+01  5.004438e+01  5.468504e+01
     vertex  8.175783e+01  4.788679e+01  4.937009e+01
   endloop
 endfacet
 facet normal -5.000497e-01 -7.483773e-01  4.357541e-01
   outer loop
     vertex  9.444720e+01  4.734254e+01  5.468504e+01
     vertex  9.404083e+01  5.070879e+01  6.000000e+01
     vertex  9.040361e+01  5.004438e+01  5.468504e+01
   endloop
 endfacet
 facet normal -6.106500e-01 -6.892813e-01  3.898691e-01
   outer loop
     vertex  9.444720e+01  4.734254e+01  5.468504e+01
     vertex  9.671130e+01  4.834296e+01  6.000000e+01
     vertex  9.404083e+01  5.070879e+01  6.000000e+01
   endloop
 endfacet
 facet normal -7.483805e-01 -5.165698e-01  4.160316e-01
   outer loop
     vertex  9.444720e+01  4.734254e+01  5.468504e+01
     vertex  9.873800e+01  4.540678e+01  6.000000e+01
     vertex  9.671130e+01  4.834296e+01  6.000000e+01
   endloop
 endfacet
 facet normal -2.199803e-01 -8.924952e-01  3.937778e-01
   outer loop
     vertex  8.950991e+01  4.788679e+01  4.937009e+01
     vertex  8.657324e+01  4.626561e+01  4.405513e+01
     vertex  8.839738e+01  4.581600e+01  4.405513e+01
   endloop
 endfacet
 facet normal -4.250125e-01 -8.097937e-01  4.044731e-01
   outer loop
     vertex  8.950991e+01  4.788679e+01  4.937009e+01
     vertex  8.839738e+01  4.581600e+01  4.405513e+01
     vertex  9.006092e+01  4.494290e+01  4.405513e+01
   endloop
 endfacet
 facet normal -1.807002e-01 -9.084410e-01  3.769382e-01
   outer loop
     vertex  8.950991e+01  4.788679e+01  4.937009e+01
     vertex  8.563387e+01  4.865779e+01  4.937009e+01
     vertex  8.657324e+01  4.626561e+01  4.405513e+01
   endloop
 endfacet
 facet normal -1.791616e-01 -9.007061e-01  3.957646e-01
   outer loop
     vertex  8.950991e+01  4.788679e+01  4.937009e+01
     vertex  9.040361e+01  5.004438e+01  5.468504e+01
     vertex  8.563387e+01  4.865779e+01  4.937009e+01
   endloop
 endfacet
 facet normal -8.620185e-01 -3.269205e-01  3.873592e-01
   outer loop
     vertex  9.714905e+01  4.329895e+01  5.468504e+01
     vertex  1.000031e+02  4.207091e+01  6.000000e+01
     vertex  9.873800e+01  4.540678e+01  6.000000e+01
   endloop
 endfacet
 facet normal -8.836498e-01 -1.757689e-01  4.338991e-01
   outer loop
     vertex  9.714905e+01  4.329895e+01  5.468504e+01
     vertex  9.809781e+01  3.852921e+01  5.468504e+01
     vertex  1.000031e+02  4.207091e+01  6.000000e+01
   endloop
 endfacet
 facet normal -9.007061e-01 -1.791616e-01  3.957646e-01
   outer loop
     vertex  9.714905e+01  4.329895e+01  5.468504e+01
     vertex  9.576245e+01  3.852921e+01  4.937009e+01
     vertex  9.809781e+01  3.852921e+01  5.468504e+01
   endloop
 endfacet
 facet normal -7.528166e-01 -5.030160e-01  4.245493e-01
   outer loop
     vertex  9.714905e+01  4.329895e+01  5.468504e+01
     vertex  9.873800e+01  4.540678e+01  6.000000e+01
     vertex  9.444720e+01  4.734254e+01  5.468504e+01
   endloop
 endfacet
 facet normal -6.054820e-01 -6.834479e-01  4.077872e-01
   outer loop
     vertex  9.279586e+01  4.569119e+01  4.937009e+01
     vertex  9.006092e+01  4.494290e+01  4.405513e+01
     vertex  9.146718e+01  4.369707e+01  4.405513e+01
   endloop
 endfacet
 facet normal -7.590824e-01 -5.239568e-01  3.863459e-01
   outer loop
     vertex  9.279586e+01  4.569119e+01  4.937009e+01
     vertex  9.146718e+01  4.369707e+01  4.405513e+01
     vertex  9.253442e+01  4.215090e+01  4.405513e+01
   endloop
 endfacet
 facet normal -5.102090e-01 -7.635818e-01  3.957646e-01
   outer loop
     vertex  9.279586e+01  4.569119e+01  4.937009e+01
     vertex  9.444720e+01  4.734254e+01  5.468504e+01
     vertex  9.040361e+01  5.004438e+01  5.468504e+01
   endloop
 endfacet
 facet normal -5.153092e-01 -7.712148e-01  3.737434e-01
   outer loop
     vertex  9.279586e+01  4.569119e+01  4.937009e+01
     vertex  8.950991e+01  4.788679e+01  4.937009e+01
     vertex  9.006092e+01  4.494290e+01  4.405513e+01
   endloop
 endfacet
 facet normal -5.102090e-01 -7.635818e-01  3.957646e-01
   outer loop
     vertex  9.279586e+01  4.569119e+01  4.937009e+01
     vertex  9.040361e+01  5.004438e+01  5.468504e+01
     vertex  8.950991e+01  4.788679e+01  4.937009e+01
   endloop
 endfacet
 facet normal -7.635818e-01 -5.102090e-01  3.957646e-01
   outer loop
     vertex  9.279586e+01  4.569119e+01  4.937009e+01
     vertex  9.714905e+01  4.329895e+01  5.468504e+01
     vertex  9.444720e+01  4.734254e+01  5.468504e+01
   endloop
 endfacet
 facet normal -8.529118e-01 -3.234668e-01  4.097692e-01
   outer loop
     vertex  9.499146e+01  4.240525e+01  4.937009e+01
     vertex  9.253442e+01  4.215090e+01  4.405513e+01
     vertex  9.320063e+01  4.039425e+01  4.405513e+01
   endloop
 endfacet
 facet normal -9.092876e-01 -1.808685e-01  3.748102e-01
   outer loop
     vertex  9.499146e+01  4.240525e+01  4.937009e+01
     vertex  9.320063e+01  4.039425e+01  4.405513e+01
     vertex  9.576245e+01  3.852921e+01  4.937009e+01
   endloop
 endfacet
 facet normal -7.690583e-01 -5.138683e-01  3.801166e-01
   outer loop
     vertex  9.499146e+01  4.240525e+01  4.937009e+01
     vertex  9.279586e+01  4.569119e+01  4.937009e+01
     vertex  9.253442e+01  4.215090e+01  4.405513e+01
   endloop
 endfacet
 facet normal -9.007061e-01 -1.791616e-01  3.957646e-01
   outer loop
     vertex  9.499146e+01  4.240525e+01  4.937009e+01
     vertex  9.576245e+01  3.852921e+01  4.937009e+01
     vertex  9.714905e+01  4.329895e+01  5.468504e+01
   endloop
 endfacet
 facet normal -7.635818e-01 -5.102090e-01  3.957646e-01
   outer loop
     vertex  9.499146e+01  4.240525e+01  4.937009e+01
     vertex  9.714905e+01  4.329895e+01  5.468504e+01
     vertex  9.279586e+01  4.569119e+01  4.937009e+01
   endloop
 endfacet
 facet normal  0.000000e+00  0.000000e+00  1.000000e+00
   outer loop
     vertex  8.287036e+01  4.581600e+01  4.405513e+01
     vertex  8.120682e+01  4.494290e+01  4.405513e+01
     vertex  7.980056e+01  4.369707e+01  4.405513e+01
   endloop
 endfacet
 facet normal  0.000000e+00  0.000000e+00  1.000000e+00
   outer loop
     vertex  7.784065e+01  3.852921e+01  4.405513e+01
     vertex  7.873332e+01  4.215090e+01  4.405513e+01
     vertex  7.806711e+01  4.039425e+01  4.405513e+01
   endloop
 endfacet
 facet normal  0.000000e+00  0.000000e+00  1.000000e+00
   outer loop
     vertex  7.784065e+01  3.852921e+01  4.405513e+01
     vertex  7.980056e+01  4.369707e+01  4.405513e+01
     vertex  7.873332e+01  4.215090e+01  4.405513e+01
   endloop
 endfacet
 facet normal  0.000000e+00  0.000000e+00  1.000000e+00
   outer loop
     vertex  8.839738e+01  4.581600e+01  4.405513e+01
     vertex  8.469450e+01  4.626561e+01  4.405513e+01
     vertex  8.287036e+01  4.581600e+01  4.405513e+01
   endloop
 endfacet
 facet normal  0.000000e+00  0.000000e+00  1.000000e+00
   outer loop
     vertex  8.839738e+01  4.581600e+01  4.405513e+01
     vertex  8.657324e+01  4.626561e+01  4.405513e+01
     vertex  8.469450e+01  4.626561e+01  4.405513e+01
   endloop
 endfacet
 facet normal  0.000000e+00  0.000000e+00  1.000000e+00
   outer loop
     vertex  9.006092e+01  4.494290e+01  4.405513e+01
     vertex  8.839738e+01  4.581600e+01  4.405513e+01
     vertex  8.287036e+01  4.581600e+01  4.405513e+01
   endloop
 endfacet
 facet normal  0.000000e+00  0.000000e+00  1.000000e+00
   outer loop
     vertex  7.980056e+01  3.336135e+01  4.405513e+01
     vertex  7.806711e+01  3.666417e+01  4.405513e+01
     vertex  7.873332e+01  3.490752e+01  4.405513e+01
   endloop
 endfacet
 facet normal  0.000000e+00  0.000000e+00  1.000000e+00
   outer loop
     vertex  7.980056e+01  3.336135e+01  4.405513e+01
     vertex  7.784065e+01  3.852921e+01  4.405513e+01
     vertex  7.806711e+01  3.666417e+01  4.405513e+01
   endloop
 endfacet
 facet normal  0.000000e+00  0.000000e+00  1.000000e+00
   outer loop
     vertex  7.980056e+01  3.336135e+01  4.405513e+01
     vertex  7.980056e+01  4.369707e+01  4.405513e+01
     vertex  7.784065e+01  3.852921e+01  4.405513e+01
   endloop
 endfacet
 facet normal  0.000000e+00  0.000000e+00  1.000000e+00
   outer loop
     vertex  8.287036e+01  3.124242e+01  4.405513e+01
     vertex  7.980056e+01  3.336135e+01  4.405513e+01
     vertex  8.120682e+01  3.211552e+01  4.405513e+01
   endloop
 endfacet
 facet normal  0.000000e+00  0.000000e+00  1.000000e+00
   outer loop
     vertex  8.469450e+01  3.079281e+01  4.405513e+01
     vertex  8.287036e+01  4.581600e+01  4.405513e+01
     vertex  7.980056e+01  4.369707e+01  4.405513e+01
   endloop
 endfacet
 facet normal  0.000000e+00  0.000000e+00  1.000000e+00
   outer loop
     vertex  8.469450e+01  3.079281e+01  4.405513e+01
     vertex  7.980056e+01  4.369707e+01  4.405513e+01
     vertex  7.980056e+01  3.336135e+01  4.405513e+01
   endloop
 endfacet
 facet normal  0.000000e+00 -0.000000e+00  1.000000e+00
   outer loop
     vertex  8.469450e+01  3.079281e+01  4.405513e+01
     vertex  9.006092e+01  4.494290e+01  4.405513e+01
     vertex  8.287036e+01  4.581600e+01  4.405513e+01
   endloop
 endfacet
 facet normal  0.000000e+00  0.000000e+00  1.000000e+00
   outer loop
     vertex  8.469450e+01  3.079281e+01  4.405513e+01
     vertex  7.980056e+01  3.336135e+01  4.405513e+01
     vertex  8.287036e+01  3.124242e+01  4.405513e+01
   endloop
 endfacet
 facet normal  0.000000e+00  0.000000e+00  1.000000e+00
   outer loop
     vertex  8.657324e+01  3.079281e+01  4.405513e+01
     vertex  9.146718e+01  4.369707e+01  4.405513e+01
     vertex  9.006092e+01  4.494290e+01  4.405513e+01
   endloop
 endfacet
 facet normal  0.000000e+00  0.000000e+00  1.000000e+00
   outer loop
     vertex  8.657324e+01  3.079281e+01  4.405513e+01
     vertex  9.253442e+01  4.215090e+01  4.405513e+01
     vertex  9.146718e+01  4.369707e+01  4.405513e+01
   endloop
 endfacet
 facet normal  0.000000e+00 -0.000000e+00  1.000000e+00
   outer loop
     vertex  8.657324e+01  3.079281e+01  4.405513e+01
     vertex  9.006092e+01  4.494290e+01  4.405513e+01
     vertex  8.469450e+01  3.079281e+01  4.405513e+01
   endloop
 endfacet
 facet normal  0.000000e+00  0.000000e+00  1.000000e+00
   outer loop
     vertex  9.320063e+01  3.666417e+01  4.405513e+01
     vertex  9.342709e+01  3.852921e+01  4.405513e+01
     vertex  9.320063e+01  4.039425e+01  4.405513e+01
   endloop
 endfacet
 facet normal  0.000000e+00  0.000000e+00  1.000000e+00
   outer loop
     vertex  9.146718e+01  3.336135e+01  4.405513e+01
     vertex  9.253442e+01  3.490752e+01  4.405513e+01
     vertex  9.320063e+01  3.666417e+01  4.405513e+01
   endloop
 endfacet
 facet normal  0.000000e+00  0.000000e+00  1.000000e+00
   outer loop
     vertex  9.146718e+01  3.336135e+01  4.405513e+01
     vertex  8.839738e+01  3.124242e+01  4.405513e+01
     vertex  9.006092e+01  3.211552e+01  4.405513e+01
   endloop
 endfacet
 facet normal  0.000000e+00  0.000000e+00  1.000000e+00
   outer loop
     vertex  9.146718e+01  3.336135e+01  4.405513e+01
     vertex  8.657324e+01  3.079281e+01  4.405513e+01
     vertex  8.839738e+01  3.124242e+01  4.405513e+01
   endloop
 endfacet
 facet normal  0.000000e+00  0.000000e+00  1.000000e+00
   outer loop
     vertex  9.146718e+01  3.336135e+01  4.405513e+01
     vertex  9.320063e+01  4.039425e+01  4.405513e+01
     vertex  9.253442e+01  4.215090e+01  4.405513e+01
   endloop
 endfacet
 facet normal  0.000000e+00 -0.000000e+00  1.000000e+00
   outer loop
     vertex  9.146718e+01  3.336135e+01  4.405513e+01
     vertex  9.253442e+01  4.215090e+01  4.405513e+01
     vertex  8.657324e+01  3.079281e+01  4.405513e+01
   endloop
 endfacet
 facet normal  0.000000e+00  0.000000e+00  1.000000e+00
   outer loop
     vertex  9.146718e+01  3.336135e+01  4.405513e+01
     vertex  9.320063e+01  3.666417e+01  4.405513e+01
     vertex  9.320063e+01  4.039425e+01  4.405513e+01
   endloop
 endfacet
endsolid
