solid 
 facet normal -1.000000e+00  0.000000e+00  0.000000e+00
   outer loop
     vertex  0.000000e+00  0.000000e+00  6.000000e+01
     vertex  0.000000e+00  1.041533e+02  0.000000e+00
     vertex  0.000000e+00  0.000000e+00  0.000000e+00
   endloop
 endfacet
 facet normal -1.000000e+00  0.000000e+00  0.000000e+00
   outer loop
     vertex  0.000000e+00  0.000000e+00  6.000000e+01
     vertex  0.000000e+00  1.041533e+02  6.000000e+01
     vertex  0.000000e+00  1.041533e+02  0.000000e+00
   endloop
 endfacet
 facet normal  0.000000e+00 -1.000000e+00 -0.000000e+00
   outer loop
     vertex  1.371429e+02  0.000000e+00  6.000000e+01
     vertex  0.000000e+00  0.000000e+00  0.000000e+00
     vertex  1.371429e+02  0.000000e+00  0.000000e+00
   endloop
 endfacet
 facet normal -0.000000e+00 -1.000000e+00  0.000000e+00
   outer loop
     vertex  1.371429e+02  0.000000e+00  6.000000e+01
     vertex  0.000000e+00  0.000000e+00  6.000000e+01
     vertex  0.000000e+00  0.000000e+00  0.000000e+00
   endloop
 endfacet
 facet normal  0.000000e+00  0.000000e+00  1.000000e+00
   outer loop
     vertex  9.461328e+01  2.368045e+01  6.000000e+01
     vertex  9.180221e+01  2.617084e+01  6.000000e+01
     vertex  0.000000e+00  0.000000e+00  6.000000e+01
   endloop
 endfacet
 facet normal  0.000000e+00  0.000000e+00  1.000000e+00
   outer loop
     vertex  8.966881e+01  2.926160e+01  6.000000e+01
     vertex  0.000000e+00  0.000000e+00  6.000000e+01
     vertex  9.180221e+01  2.617084e+01  6.000000e+01
   endloop
 endfacet
 facet normal  0.000000e+00  0.000000e+00  1.000000e+00
   outer loop
     vertex  9.793866e+01  2.193516e+01  6.000000e+01
     vertex  9.461328e+01  2.368045e+01  6.000000e+01
     vertex  0.000000e+00  0.000000e+00  6.000000e+01
   endloop
 endfacet
 facet normal  0.000000e+00  0.000000e+00  1.000000e+00
   outer loop
     vertex  8.833708e+01  3.277310e+01  6.000000e+01
     vertex  0.000000e+00  0.000000e+00  6.000000e+01
     vertex  8.966881e+01  2.926160e+01  6.000000e+01
   endloop
 endfacet
 facet normal  0.000000e+00  0.000000e+00  1.000000e+00
   outer loop
     vertex  8.788439e+01  3.650127e+01  6.000000e+01
     vertex  0.000000e+00  0.000000e+00  6.000000e+01
     vertex  8.833708e+01  3.277310e+01  6.000000e+01
   endloop
 endfacet
 facet normal  0.000000e+00  0.000000e+00  1.000000e+00
   outer loop
     vertex  8.833708e+01  4.022944e+01  6.000000e+01
     vertex  0.000000e+00  1.041533e+02  6.000000e+01
     vertex  0.000000e+00  0.000000e+00  6.000000e+01
   endloop
 endfacet
 facet normal  0.000000e+00  0.000000e+00  1.000000e+00
   outer loop
     vertex  8.833708e+01  4.022944e+01  6.000000e+01
     vertex  0.000000e+00  0.000000e+00  6.000000e+01
     vertex  8.788439e+01  3.650127e+01  6.000000e+01
   endloop
 endfacet
 facet normal  0.000000e+00  0.000000e+00  1.000000e+00
   outer loop
     vertex  8.966881e+01  4.374095e+01  6.000000e+01
     vertex  0.000000e+00  1.041533e+02  6.000000e+01
     vertex  8.833708e+01  4.022944e+01  6.000000e+01
   endloop
 endfacet
 facet normal  0.000000e+00  0.000000e+00  1.000000e+00
   outer loop
     vertex  1.371429e+02  0.000000e+00  6.000000e+01
     vertex  1.123124e+02  2.368045e+01  6.000000e+01
     vertex  1.089871e+02  2.193516e+01  6.000000e+01
   endloop
 endfacet
 facet normal  0.000000e+00  0.000000e+00  1.000000e+00
   outer loop
     vertex  1.371429e+02  0.000000e+00  6.000000e+01
     vertex  1.089871e+02  2.193516e+01  6.000000e+01
     vertex  1.053406e+02  2.103639e+01  6.000000e+01
   endloop
 endfacet
 facet normal  0.000000e+00  0.000000e+00  1.000000e+00
   outer loop
     vertex  1.371429e+02  0.000000e+00  6.000000e+01
     vertex  1.053406e+02  2.103639e+01  6.000000e+01
     vertex  1.015851e+02  2.103639e+01  6.000000e+01
   endloop
 endfacet
 facet normal  0.000000e+00  0.000000e+00  1.000000e+00
   outer loop
     vertex  1.371429e+02  0.000000e+00  6.000000e+01
     vertex  1.015851e+02  2.103639e+01  6.000000e+01
     vertex  9.793866e+01  2.193516e+01  6.000000e+01
   endloop
 endfacet
 facet normal  0.000000e+00  0.000000e+00  1.000000e+00
   outer loop
     vertex  1.371429e+02  0.000000e+00  6.000000e+01
     vertex  9.793866e+01  2.193516e+01  6.000000e+01
     vertex  0.000000e+00  0.000000e+00  6.000000e+01
   endloop
 endfacet
 facet normal  0.000000e+00  0.000000e+00  1.000000e+00
   outer loop
     vertex  9.180221e+01  4.683170e+01  6.000000e+01
     vertex  0.000000e+00  1.041533e+02  6.000000e+01
     vertex  8.966881e+01  4.374095e+01  6.000000e+01
   endloop
 endfacet
 facet normal  0.000000e+00  0.000000e+00  1.000000e+00
   outer loop
     vertex  1.151235e+02  2.617084e+01  6.000000e+01
     vertex  1.123124e+02  2.368045e+01  6.000000e+01
     vertex  1.371429e+02  0.000000e+00  6.000000e+01
   endloop
 endfacet
 facet normal  0.000000e+00  0.000000e+00  1.000000e+00
   outer loop
     vertex  9.461328e+01  4.932210e+01  6.000000e+01
     vertex  0.000000e+00  1.041533e+02  6.000000e+01
     vertex  9.180221e+01  4.683170e+01  6.000000e+01
   endloop
 endfacet
 facet normal  0.000000e+00  0.000000e+00  1.000000e+00
   outer loop
     vertex  1.172569e+02  2.926160e+01  6.000000e+01
     vertex  1.151235e+02  2.617084e+01  6.000000e+01
     vertex  1.371429e+02  0.000000e+00  6.000000e+01
   endloop
 endfacet
 facet normal  0.000000e+00  0.000000e+00  1.000000e+00
   outer loop
     vertex  9.793866e+01  5.106739e+01  6.000000e+01
     vertex  0.000000e+00  1.041533e+02  6.000000e+01
     vertex  9.461328e+01  4.932210e+01  6.000000e+01
   endloop
 endfacet
 facet normal  0.000000e+00  0.000000e+00  1.000000e+00
   outer loop
     vertex  1.185886e+02  3.277310e+01  6.000000e+01
     vertex  1.172569e+02  2.926160e+01  6.000000e+01
     vertex  1.371429e+02  0.000000e+00  6.000000e+01
   endloop
 endfacet
 facet normal  0.000000e+00  0.000000e+00  1.000000e+00
   outer loop
     vertex  1.190413e+02  3.650127e+01  6.000000e+01
     vertex  1.185886e+02  3.277310e+01  6.000000e+01
     vertex  1.371429e+02  0.000000e+00  6.000000e+01
   endloop
 endfacet
 facet normal  0.000000e+00  0.000000e+00  1.000000e+00
   outer loop
     vertex  1.185886e+02  4.022944e+01  6.000000e+01
     vertex  1.190413e+02  3.650127e+01  6.000000e+01
     vertex  1.371429e+02  0.000000e+00  6.000000e+01
   endloop
 endfacet
 facet normal  0.000000e+00  0.000000e+00  1.000000e+00
   outer loop
     vertex  1.371429e+02  1.041533e+02  6.000000e+01
     vertex  9.793866e+01  5.106739e+01  6.000000e+01
     vertex  1.015851e+02  5.196615e+01  6.000000e+01
   endloop
 endfacet
 facet normal  0.000000e+00  0.000000e+00  1.000000e+00
   outer loop
     vertex  1.371429e+02  1.041533e+02  6.000000e+01
     vertex  1.015851e+02  5.196615e+01  6.000000e+01
     vertex  1.053406e+02  5.196615e+01  6.000000e+01
   endloop
 endfacet
 facet normal  0.000000e+00  0.000000e+00  1.000000e+00
   outer loop
     vertex  1.371429e+02  1.041533e+02  6.000000e+01
     vertex  1.053406e+02  5.196615e+01  6.000000e+01
     vertex  1.089871e+02  5.106739e+01  6.000000e+01
   endloop
 endfacet
 facet normal  0.000000e+00  0.000000e+00  1.000000e+00
   outer loop
     vertex  1.371429e+02  1.041533e+02  6.000000e+01
     vertex  1.089871e+02  5.106739e+01  6.000000e+01
     vertex  1.123124e+02  4.932210e+01  6.000000e+01
   endloop
 endfacet
 facet normal  0.000000e+00  0.000000e+00  1.000000e+00
   outer loop
     vertex  1.371429e+02  1.041533e+02  6.000000e+01
     vertex  1.123124e+02  4.932210e+01  6.000000e+01
     vertex  1.151235e+02  4.683170e+01  6.000000e+01
   endloop
 endfacet
 facet normal  0.000000e+00  0.000000e+00  1.000000e+00
   outer loop
     vertex  1.371429e+02  1.041533e+02  6.000000e+01
     vertex  1.151235e+02  4.683170e+01  6.000000e+01
     vertex  1.172569e+02  4.374095e+01  6.000000e+01
   endloop
 endfacet
 facet normal  0.000000e+00  0.000000e+00  1.000000e+00
   outer loop
     vertex  1.371429e+02  1.041533e+02  6.000000e+01
     vertex  1.172569e+02  4.374095e+01  6.000000e+01
     vertex  1.185886e+02  4.022944e+01  6.000000e+01
   endloop
 endfacet
 facet normal  0.000000e+00  0.000000e+00  1.000000e+00
   outer loop
     vertex  1.371429e+02  1.041533e+02  6.000000e+01
     vertex  0.000000e+00  1.041533e+02  6.000000e+01
     vertex  9.793866e+01  5.106739e+01  6.000000e+01
   endloop
 endfacet
 facet normal  0.000000e+00  0.000000e+00  1.000000e+00
   outer loop
     vertex  1.371429e+02  1.041533e+02  6.000000e+01
     vertex  1.185886e+02  4.022944e+01  6.000000e+01
     vertex  1.371429e+02  0.000000e+00  6.000000e+01
   endloop
 endfacet
 facet normal  0.000000e+00  1.000000e+00  0.000000e+00
   outer loop
     vertex  1.371429e+02  1.041533e+02  6.000000e+01
     vertex  1.371429e+02  1.041533e+02  0.000000e+00
     vertex  0.000000e+00  1.041533e+02  0.000000e+00
   endloop
 endfacet
 facet normal  0.000000e+00  1.000000e+00  0.000000e+00
   outer loop
     vertex  1.371429e+02  1.041533e+02  6.000000e+01
     vertex  0.000000e+00  1.041533e+02  0.000000e+00
     vertex  0.000000e+00  1.041533e+02  6.000000e+01
   endloop
 endfacet
 facet normal  0.000000e+00  0.000000e+00 -1.000000e+00
   outer loop
     vertex  1.371429e+02  0.000000e+00  0.000000e+00
     vertex  0.000000e+00  0.000000e+00  0.000000e+00
     vertex  0.000000e+00  1.041533e+02  0.000000e+00
   endloop
 endfacet
 facet normal -0.000000e+00 -0.000000e+00 -1.000000e+00
   outer loop
     vertex  1.371429e+02  1.041533e+02  0.000000e+00
     vertex  1.371429e+02  0.000000e+00  0.000000e+00
     vertex  0.000000e+00  1.041533e+02  0.000000e+00
   endloop
 endfacet
 facet normal  1.000000e+00  0.000000e+00  0.000000e+00
   outer loop
     vertex  1.371429e+02  0.000000e+00  6.000000e+01
     vertex  1.371429e+02  0.000000e+00  0.000000e+00
     vertex  1.371429e+02  1.041533e+02  0.000000e+00
   endloop
 endfacet
 facet normal  1.000000e+00 -0.000000e+00  0.000000e+00
   outer loop
     vertex  1.371429e+02  0.000000e+00  6.000000e+01
     vertex  1.371429e+02  1.041533e+02  0.000000e+00
     vertex  1.371429e+02  1.041533e+02  6.000000e+01
   endloop
 endfacet
 facet normal -9.424706e-01  1.144366e-01  3.140914e-01
   outer loop
     vertex  1.169347e+02  3.650127e+01  5.367881e+01
     vertex  1.185886e+02  3.277310e+01  6.000000e+01
     vertex  1.190413e+02  3.650127e+01  6.000000e+01
   endloop
 endfacet
 facet normal -9.424706e-01  1.144366e-01  3.140914e-01
   outer loop
     vertex  1.124524e+02  3.428555e+01  4.103642e+01
     vertex  1.148281e+02  3.650127e+01  4.735761e+01
     vertex  1.127214e+02  3.650127e+01  4.103642e+01
   endloop
 endfacet
 facet normal -9.424706e-01 -1.144366e-01  3.140914e-01
   outer loop
     vertex  1.169347e+02  3.650127e+01  5.367881e+01
     vertex  1.190413e+02  3.650127e+01  6.000000e+01
     vertex  1.185886e+02  4.022944e+01  6.000000e+01
   endloop
 endfacet
 facet normal -9.424706e-01 -1.144366e-01  3.140914e-01
   outer loop
     vertex  1.127214e+02  3.650127e+01  4.103642e+01
     vertex  1.148281e+02  3.650127e+01  4.735761e+01
     vertex  1.124524e+02  3.871700e+01  4.103642e+01
   endloop
 endfacet
 facet normal -8.914929e-01  3.380986e-01  3.015457e-01
   outer loop
     vertex  1.159092e+02  3.134582e+01  5.367881e+01
     vertex  1.172569e+02  2.926160e+01  6.000000e+01
     vertex  1.185886e+02  3.277310e+01  6.000000e+01
   endloop
 endfacet
 facet normal -9.193359e-01  1.828673e-01  3.483979e-01
   outer loop
     vertex  1.159092e+02  3.134582e+01  5.367881e+01
     vertex  1.185886e+02  3.277310e+01  6.000000e+01
     vertex  1.169347e+02  3.650127e+01  5.367881e+01
   endloop
 endfacet
 facet normal -7.822062e-01  5.226535e-01  3.390970e-01
   outer loop
     vertex  1.129889e+02  2.697524e+01  5.367881e+01
     vertex  1.172569e+02  2.926160e+01  6.000000e+01
     vertex  1.159092e+02  3.134582e+01  5.367881e+01
   endloop
 endfacet
 facet normal -7.767306e-01  5.361384e-01  3.305224e-01
   outer loop
     vertex  1.129889e+02  2.697524e+01  5.367881e+01
     vertex  1.151235e+02  2.617084e+01  6.000000e+01
     vertex  1.172569e+02  2.926160e+01  6.000000e+01
   endloop
 endfacet
 facet normal -6.317236e-01  7.130685e-01  3.040699e-01
   outer loop
     vertex  1.129889e+02  2.697524e+01  5.367881e+01
     vertex  1.123124e+02  2.368045e+01  6.000000e+01
     vertex  1.151235e+02  2.617084e+01  6.000000e+01
   endloop
 endfacet
 facet normal -8.844027e-01  3.354097e-01  3.245492e-01
   outer loop
     vertex  1.139629e+02  3.215199e+01  4.735761e+01
     vertex  1.124524e+02  3.428555e+01  4.103642e+01
     vertex  1.116609e+02  3.219859e+01  4.103642e+01
   endloop
 endfacet
 facet normal -9.322491e-01  1.854359e-01  3.106850e-01
   outer loop
     vertex  1.139629e+02  3.215199e+01  4.735761e+01
     vertex  1.169347e+02  3.650127e+01  5.367881e+01
     vertex  1.148281e+02  3.650127e+01  4.735761e+01
   endloop
 endfacet
 facet normal -9.393650e-01  1.868513e-01  2.875413e-01
   outer loop
     vertex  1.139629e+02  3.215199e+01  4.735761e+01
     vertex  1.148281e+02  3.650127e+01  4.735761e+01
     vertex  1.124524e+02  3.428555e+01  4.103642e+01
   endloop
 endfacet
 facet normal -9.322491e-01  1.854359e-01  3.106850e-01
   outer loop
     vertex  1.139629e+02  3.215199e+01  4.735761e+01
     vertex  1.159092e+02  3.134582e+01  5.367881e+01
     vertex  1.169347e+02  3.650127e+01  5.367881e+01
   endloop
 endfacet
 facet normal -4.420921e-01  8.423361e-01  3.082603e-01
   outer loop
     vertex  1.086183e+02  2.405492e+01  5.367881e+01
     vertex  1.089871e+02  2.193516e+01  6.000000e+01
     vertex  1.123124e+02  2.368045e+01  6.000000e+01
   endloop
 endfacet
 facet normal -2.266080e-01  9.193850e-01  3.215276e-01
   outer loop
     vertex  1.086183e+02  2.405492e+01  5.367881e+01
     vertex  1.053406e+02  2.103639e+01  6.000000e+01
     vertex  1.089871e+02  2.193516e+01  6.000000e+01
   endloop
 endfacet
 facet normal -5.203788e-01  7.788020e-01  3.502475e-01
   outer loop
     vertex  1.086183e+02  2.405492e+01  5.367881e+01
     vertex  1.123124e+02  2.368045e+01  6.000000e+01
     vertex  1.129889e+02  2.697524e+01  5.367881e+01
   endloop
 endfacet
 facet normal -7.850750e-01  5.418981e-01  3.000061e-01
   outer loop
     vertex  1.114993e+02  2.846485e+01  4.735761e+01
     vertex  1.116609e+02  3.219859e+01  4.103642e+01
     vertex  1.103930e+02  3.036169e+01  4.103642e+01
   endloop
 endfacet
 facet normal -6.276995e-01  7.085263e-01  3.224651e-01
   outer loop
     vertex  1.114993e+02  2.846485e+01  4.735761e+01
     vertex  1.103930e+02  3.036169e+01  4.103642e+01
     vertex  1.087223e+02  2.888161e+01  4.103642e+01
   endloop
 endfacet
 facet normal -5.280767e-01  7.903226e-01  3.106850e-01
   outer loop
     vertex  1.114993e+02  2.846485e+01  4.735761e+01
     vertex  1.086183e+02  2.405492e+01  5.367881e+01
     vertex  1.129889e+02  2.697524e+01  5.367881e+01
   endloop
 endfacet
 facet normal -7.903226e-01  5.280767e-01  3.106850e-01
   outer loop
     vertex  1.114993e+02  2.846485e+01  4.735761e+01
     vertex  1.129889e+02  2.697524e+01  5.367881e+01
     vertex  1.159092e+02  3.134582e+01  5.367881e+01
   endloop
 endfacet
 facet normal -7.903226e-01  5.280767e-01  3.106850e-01
   outer loop
     vertex  1.114993e+02  2.846485e+01  4.735761e+01
     vertex  1.159092e+02  3.134582e+01  5.367881e+01
     vertex  1.139629e+02  3.215199e+01  4.735761e+01
   endloop
 endfacet
 facet normal -7.948790e-01  5.311212e-01  2.933898e-01
   outer loop
     vertex  1.114993e+02  2.846485e+01  4.735761e+01
     vertex  1.139629e+02  3.215199e+01  4.735761e+01
     vertex  1.116609e+02  3.219859e+01  4.103642e+01
   endloop
 endfacet
 facet normal  0.000000e+00  9.537180e-01  3.007026e-01
   outer loop
     vertex  1.034629e+02  2.302943e+01  5.367881e+01
     vertex  1.015851e+02  2.103639e+01  6.000000e+01
     vertex  1.053406e+02  2.103639e+01  6.000000e+01
   endloop
 endfacet
 facet normal -1.831347e-01  9.206801e-01  3.446880e-01
   outer loop
     vertex  1.034629e+02  2.302943e+01  5.367881e+01
     vertex  1.053406e+02  2.103639e+01  6.000000e+01
     vertex  1.086183e+02  2.405492e+01  5.367881e+01
   endloop
 endfacet
 facet normal -4.404462e-01  8.392001e-01  3.189833e-01
   outer loop
     vertex  1.078121e+02  2.600119e+01  4.735761e+01
     vertex  1.087223e+02  2.888161e+01  4.103642e+01
     vertex  1.067460e+02  2.784434e+01  4.103642e+01
   endloop
 endfacet
 facet normal -2.276993e-01  9.238122e-01  3.077727e-01
   outer loop
     vertex  1.078121e+02  2.600119e+01  4.735761e+01
     vertex  1.067460e+02  2.784434e+01  4.103642e+01
     vertex  1.045789e+02  2.731019e+01  4.103642e+01
   endloop
 endfacet
 facet normal -5.323030e-01  7.966478e-01  2.863666e-01
   outer loop
     vertex  1.078121e+02  2.600119e+01  4.735761e+01
     vertex  1.114993e+02  2.846485e+01  4.735761e+01
     vertex  1.087223e+02  2.888161e+01  4.103642e+01
   endloop
 endfacet
 facet normal -5.280767e-01  7.903226e-01  3.106850e-01
   outer loop
     vertex  1.078121e+02  2.600119e+01  4.735761e+01
     vertex  1.086183e+02  2.405492e+01  5.367881e+01
     vertex  1.114993e+02  2.846485e+01  4.735761e+01
   endloop
 endfacet
 facet normal  2.266080e-01  9.193850e-01  3.215276e-01
   outer loop
     vertex  9.830741e+01  2.405492e+01  5.367881e+01
     vertex  9.793866e+01  2.193516e+01  6.000000e+01
     vertex  1.015851e+02  2.103639e+01  6.000000e+01
   endloop
 endfacet
 facet normal  4.420921e-01  8.423361e-01  3.082603e-01
   outer loop
     vertex  9.830741e+01  2.405492e+01  5.367881e+01
     vertex  9.461328e+01  2.368045e+01  6.000000e+01
     vertex  9.793866e+01  2.193516e+01  6.000000e+01
   endloop
 endfacet
 facet normal  1.831347e-01  9.206801e-01  3.446880e-01
   outer loop
     vertex  9.830741e+01  2.405492e+01  5.367881e+01
     vertex  1.015851e+02  2.103639e+01  6.000000e+01
     vertex  1.034629e+02  2.302943e+01  5.367881e+01
   endloop
 endfacet
 facet normal  0.000000e+00  9.456304e-01  3.252431e-01
   outer loop
     vertex  1.034629e+02  2.513606e+01  4.735761e+01
     vertex  1.045789e+02  2.731019e+01  4.103642e+01
     vertex  1.023469e+02  2.731019e+01  4.103642e+01
   endloop
 endfacet
 facet normal -1.854359e-01  9.322491e-01  3.106850e-01
   outer loop
     vertex  1.034629e+02  2.513606e+01  4.735761e+01
     vertex  1.034629e+02  2.302943e+01  5.367881e+01
     vertex  1.086183e+02  2.405492e+01  5.367881e+01
   endloop
 endfacet
 facet normal -1.867134e-01  9.386716e-01  2.898857e-01
   outer loop
     vertex  1.034629e+02  2.513606e+01  4.735761e+01
     vertex  1.078121e+02  2.600119e+01  4.735761e+01
     vertex  1.045789e+02  2.731019e+01  4.103642e+01
   endloop
 endfacet
 facet normal -1.854359e-01  9.322491e-01  3.106850e-01
   outer loop
     vertex  1.034629e+02  2.513606e+01  4.735761e+01
     vertex  1.086183e+02  2.405492e+01  5.367881e+01
     vertex  1.078121e+02  2.600119e+01  4.735761e+01
   endloop
 endfacet
 facet normal  6.317236e-01  7.130685e-01  3.040699e-01
   outer loop
     vertex  9.393683e+01  2.697524e+01  5.367881e+01
     vertex  9.180221e+01  2.617084e+01  6.000000e+01
     vertex  9.461328e+01  2.368045e+01  6.000000e+01
   endloop
 endfacet
 facet normal  7.767306e-01  5.361384e-01  3.305224e-01
   outer loop
     vertex  9.393683e+01  2.697524e+01  5.367881e+01
     vertex  8.966881e+01  2.926160e+01  6.000000e+01
     vertex  9.180221e+01  2.617084e+01  6.000000e+01
   endloop
 endfacet
 facet normal  5.203788e-01  7.788020e-01  3.502475e-01
   outer loop
     vertex  9.393683e+01  2.697524e+01  5.367881e+01
     vertex  9.461328e+01  2.368045e+01  6.000000e+01
     vertex  9.830741e+01  2.405492e+01  5.367881e+01
   endloop
 endfacet
 facet normal  2.276993e-01  9.238122e-01  3.077727e-01
   outer loop
     vertex  9.911358e+01  2.600119e+01  4.735761e+01
     vertex  1.023469e+02  2.731019e+01  4.103642e+01
     vertex  1.001797e+02  2.784434e+01  4.103642e+01
   endloop
 endfacet
 facet normal  4.404462e-01  8.392001e-01  3.189833e-01
   outer loop
     vertex  9.911358e+01  2.600119e+01  4.735761e+01
     vertex  1.001797e+02  2.784434e+01  4.103642e+01
     vertex  9.820338e+01  2.888161e+01  4.103642e+01
   endloop
 endfacet
 facet normal  1.854359e-01  9.322491e-01  3.106850e-01
   outer loop
     vertex  9.911358e+01  2.600119e+01  4.735761e+01
     vertex  1.034629e+02  2.302943e+01  5.367881e+01
     vertex  1.034629e+02  2.513606e+01  4.735761e+01
   endloop
 endfacet
 facet normal  1.867134e-01  9.386716e-01  2.898857e-01
   outer loop
     vertex  9.911358e+01  2.600119e+01  4.735761e+01
     vertex  1.034629e+02  2.513606e+01  4.735761e+01
     vertex  1.023469e+02  2.731019e+01  4.103642e+01
   endloop
 endfacet
 facet normal  1.854359e-01  9.322491e-01  3.106850e-01
   outer loop
     vertex  9.911358e+01  2.600119e+01  4.735761e+01
     vertex  9.830741e+01  2.405492e+01  5.367881e+01
     vertex  1.034629e+02  2.302943e+01  5.367881e+01
   endloop
 endfacet
 facet normal  8.914929e-01  3.380986e-01  3.015457e-01
   outer loop
     vertex  9.101650e+01  3.134582e+01  5.367881e+01
     vertex  8.833708e+01  3.277310e+01  6.000000e+01
     vertex  8.966881e+01  2.926160e+01  6.000000e+01
   endloop
 endfacet
 facet normal  7.822062e-01  5.226535e-01  3.390970e-01
   outer loop
     vertex  9.101650e+01  3.134582e+01  5.367881e+01
     vertex  8.966881e+01  2.926160e+01  6.000000e+01
     vertex  9.393683e+01  2.697524e+01  5.367881e+01
   endloop
 endfacet
 facet normal  5.323030e-01  7.966478e-01  2.863666e-01
   outer loop
     vertex  9.542644e+01  2.846485e+01  4.735761e+01
     vertex  9.911358e+01  2.600119e+01  4.735761e+01
     vertex  9.820338e+01  2.888161e+01  4.103642e+01
   endloop
 endfacet
 facet normal  6.276995e-01  7.085263e-01  3.224651e-01
   outer loop
     vertex  9.542644e+01  2.846485e+01  4.735761e+01
     vertex  9.820338e+01  2.888161e+01  4.103642e+01
     vertex  9.653271e+01  3.036169e+01  4.103642e+01
   endloop
 endfacet
 facet normal  7.850750e-01  5.418981e-01  3.000061e-01
   outer loop
     vertex  9.542644e+01  2.846485e+01  4.735761e+01
     vertex  9.653271e+01  3.036169e+01  4.103642e+01
     vertex  9.526479e+01  3.219859e+01  4.103642e+01
   endloop
 endfacet
 facet normal  5.280767e-01  7.903226e-01  3.106850e-01
   outer loop
     vertex  9.542644e+01  2.846485e+01  4.735761e+01
     vertex  9.830741e+01  2.405492e+01  5.367881e+01
     vertex  9.911358e+01  2.600119e+01  4.735761e+01
   endloop
 endfacet
 facet normal  5.280767e-01  7.903226e-01  3.106850e-01
   outer loop
     vertex  9.542644e+01  2.846485e+01  4.735761e+01
     vertex  9.393683e+01  2.697524e+01  5.367881e+01
     vertex  9.830741e+01  2.405492e+01  5.367881e+01
   endloop
 endfacet
 facet normal  9.424706e-01  1.144366e-01  3.140914e-01
   outer loop
     vertex  8.999102e+01  3.650127e+01  5.367881e+01
     vertex  8.788439e+01  3.650127e+01  6.000000e+01
     vertex  8.833708e+01  3.277310e+01  6.000000e+01
   endloop
 endfacet
 facet normal  9.424706e-01 -1.144366e-01  3.140914e-01
   outer loop
     vertex  8.999102e+01  3.650127e+01  5.367881e+01
     vertex  8.833708e+01  4.022944e+01  6.000000e+01
     vertex  8.788439e+01  3.650127e+01  6.000000e+01
   endloop
 endfacet
 facet normal  9.193359e-01  1.828673e-01  3.483979e-01
   outer loop
     vertex  8.999102e+01  3.650127e+01  5.367881e+01
     vertex  8.833708e+01  3.277310e+01  6.000000e+01
     vertex  9.101650e+01  3.134582e+01  5.367881e+01
   endloop
 endfacet
 facet normal  8.844027e-01  3.354097e-01  3.245492e-01
   outer loop
     vertex  9.296277e+01  3.215199e+01  4.735761e+01
     vertex  9.526479e+01  3.219859e+01  4.103642e+01
     vertex  9.447331e+01  3.428555e+01  4.103642e+01
   endloop
 endfacet
 facet normal  7.903226e-01  5.280767e-01  3.106850e-01
   outer loop
     vertex  9.296277e+01  3.215199e+01  4.735761e+01
     vertex  9.393683e+01  2.697524e+01  5.367881e+01
     vertex  9.542644e+01  2.846485e+01  4.735761e+01
   endloop
 endfacet
 facet normal  7.903226e-01  5.280767e-01  3.106850e-01
   outer loop
     vertex  9.296277e+01  3.215199e+01  4.735761e+01
     vertex  9.101650e+01  3.134582e+01  5.367881e+01
     vertex  9.393683e+01  2.697524e+01  5.367881e+01
   endloop
 endfacet
 facet normal  7.948790e-01  5.311212e-01  2.933898e-01
   outer loop
     vertex  9.296277e+01  3.215199e+01  4.735761e+01
     vertex  9.542644e+01  2.846485e+01  4.735761e+01
     vertex  9.526479e+01  3.219859e+01  4.103642e+01
   endloop
 endfacet
 facet normal  9.193359e-01 -1.828673e-01  3.483979e-01
   outer loop
     vertex  9.101650e+01  4.165672e+01  5.367881e+01
     vertex  8.833708e+01  4.022944e+01  6.000000e+01
     vertex  8.999102e+01  3.650127e+01  5.367881e+01
   endloop
 endfacet
 facet normal  8.914929e-01 -3.380986e-01  3.015457e-01
   outer loop
     vertex  9.101650e+01  4.165672e+01  5.367881e+01
     vertex  8.966881e+01  4.374095e+01  6.000000e+01
     vertex  8.833708e+01  4.022944e+01  6.000000e+01
   endloop
 endfacet
 facet normal  9.424706e-01  1.144366e-01  3.140914e-01
   outer loop
     vertex  9.209765e+01  3.650127e+01  4.735761e+01
     vertex  9.447331e+01  3.428555e+01  4.103642e+01
     vertex  9.420427e+01  3.650127e+01  4.103642e+01
   endloop
 endfacet
 facet normal  9.424706e-01 -1.144366e-01  3.140914e-01
   outer loop
     vertex  9.209765e+01  3.650127e+01  4.735761e+01
     vertex  9.420427e+01  3.650127e+01  4.103642e+01
     vertex  9.447331e+01  3.871700e+01  4.103642e+01
   endloop
 endfacet
 facet normal  9.322491e-01  1.854359e-01  3.106850e-01
   outer loop
     vertex  9.209765e+01  3.650127e+01  4.735761e+01
     vertex  9.101650e+01  3.134582e+01  5.367881e+01
     vertex  9.296277e+01  3.215199e+01  4.735761e+01
   endloop
 endfacet
 facet normal  9.393650e-01  1.868513e-01  2.875413e-01
   outer loop
     vertex  9.209765e+01  3.650127e+01  4.735761e+01
     vertex  9.296277e+01  3.215199e+01  4.735761e+01
     vertex  9.447331e+01  3.428555e+01  4.103642e+01
   endloop
 endfacet
 facet normal  9.322491e-01  1.854359e-01  3.106850e-01
   outer loop
     vertex  9.209765e+01  3.650127e+01  4.735761e+01
     vertex  8.999102e+01  3.650127e+01  5.367881e+01
     vertex  9.101650e+01  3.134582e+01  5.367881e+01
   endloop
 endfacet
 facet normal  7.767306e-01 -5.361384e-01  3.305224e-01
   outer loop
     vertex  9.393683e+01  4.602730e+01  5.367881e+01
     vertex  9.180221e+01  4.683170e+01  6.000000e+01
     vertex  8.966881e+01  4.374095e+01  6.000000e+01
   endloop
 endfacet
 facet normal  6.317236e-01 -7.130685e-01  3.040699e-01
   outer loop
     vertex  9.393683e+01  4.602730e+01  5.367881e+01
     vertex  9.461328e+01  4.932210e+01  6.000000e+01
     vertex  9.180221e+01  4.683170e+01  6.000000e+01
   endloop
 endfacet
 facet normal  7.822062e-01 -5.226535e-01  3.390970e-01
   outer loop
     vertex  9.393683e+01  4.602730e+01  5.367881e+01
     vertex  8.966881e+01  4.374095e+01  6.000000e+01
     vertex  9.101650e+01  4.165672e+01  5.367881e+01
   endloop
 endfacet
 facet normal  9.322491e-01 -1.854359e-01  3.106850e-01
   outer loop
     vertex  9.296277e+01  4.085055e+01  4.735761e+01
     vertex  9.101650e+01  4.165672e+01  5.367881e+01
     vertex  8.999102e+01  3.650127e+01  5.367881e+01
   endloop
 endfacet
 facet normal  9.393650e-01 -1.868513e-01  2.875413e-01
   outer loop
     vertex  9.296277e+01  4.085055e+01  4.735761e+01
     vertex  9.209765e+01  3.650127e+01  4.735761e+01
     vertex  9.447331e+01  3.871700e+01  4.103642e+01
   endloop
 endfacet
 facet normal  8.844027e-01 -3.354097e-01  3.245492e-01
   outer loop
     vertex  9.296277e+01  4.085055e+01  4.735761e+01
     vertex  9.447331e+01  3.871700e+01  4.103642e+01
     vertex  9.526479e+01  4.080395e+01  4.103642e+01
   endloop
 endfacet
 facet normal  7.903226e-01 -5.280767e-01  3.106850e-01
   outer loop
     vertex  9.296277e+01  4.085055e+01  4.735761e+01
     vertex  9.393683e+01  4.602730e+01  5.367881e+01
     vertex  9.101650e+01  4.165672e+01  5.367881e+01
   endloop
 endfacet
 facet normal  9.322491e-01 -1.854359e-01  3.106850e-01
   outer loop
     vertex  9.296277e+01  4.085055e+01  4.735761e+01
     vertex  8.999102e+01  3.650127e+01  5.367881e+01
     vertex  9.209765e+01  3.650127e+01  4.735761e+01
   endloop
 endfacet
 facet normal  4.420921e-01 -8.423361e-01  3.082603e-01
   outer loop
     vertex  9.830741e+01  4.894763e+01  5.367881e+01
     vertex  9.793866e+01  5.106739e+01  6.000000e+01
     vertex  9.461328e+01  4.932210e+01  6.000000e+01
   endloop
 endfacet
 facet normal  2.266080e-01 -9.193850e-01  3.215276e-01
   outer loop
     vertex  9.830741e+01  4.894763e+01  5.367881e+01
     vertex  1.015851e+02  5.196615e+01  6.000000e+01
     vertex  9.793866e+01  5.106739e+01  6.000000e+01
   endloop
 endfacet
 facet normal  5.203788e-01 -7.788020e-01  3.502475e-01
   outer loop
     vertex  9.830741e+01  4.894763e+01  5.367881e+01
     vertex  9.461328e+01  4.932210e+01  6.000000e+01
     vertex  9.393683e+01  4.602730e+01  5.367881e+01
   endloop
 endfacet
 facet normal  7.850750e-01 -5.418981e-01  3.000061e-01
   outer loop
     vertex  9.542644e+01  4.453769e+01  4.735761e+01
     vertex  9.526479e+01  4.080395e+01  4.103642e+01
     vertex  9.653271e+01  4.264085e+01  4.103642e+01
   endloop
 endfacet
 facet normal  6.276995e-01 -7.085263e-01  3.224651e-01
   outer loop
     vertex  9.542644e+01  4.453769e+01  4.735761e+01
     vertex  9.653271e+01  4.264085e+01  4.103642e+01
     vertex  9.820338e+01  4.412094e+01  4.103642e+01
   endloop
 endfacet
 facet normal  5.280767e-01 -7.903226e-01  3.106850e-01
   outer loop
     vertex  9.542644e+01  4.453769e+01  4.735761e+01
     vertex  9.830741e+01  4.894763e+01  5.367881e+01
     vertex  9.393683e+01  4.602730e+01  5.367881e+01
   endloop
 endfacet
 facet normal  7.948790e-01 -5.311212e-01  2.933898e-01
   outer loop
     vertex  9.542644e+01  4.453769e+01  4.735761e+01
     vertex  9.296277e+01  4.085055e+01  4.735761e+01
     vertex  9.526479e+01  4.080395e+01  4.103642e+01
   endloop
 endfacet
 facet normal  7.903226e-01 -5.280767e-01  3.106850e-01
   outer loop
     vertex  9.542644e+01  4.453769e+01  4.735761e+01
     vertex  9.393683e+01  4.602730e+01  5.367881e+01
     vertex  9.296277e+01  4.085055e+01  4.735761e+01
   endloop
 endfacet
 facet normal  1.855455e-15 -9.537180e-01  3.007026e-01
   outer loop
     vertex  1.034629e+02  4.997311e+01  5.367881e+01
     vertex  1.053406e+02  5.196615e+01  6.000000e+01
     vertex  1.015851e+02  5.196615e+01  6.000000e+01
   endloop
 endfacet
 facet normal  1.831347e-01 -9.206801e-01  3.446880e-01
   outer loop
     vertex  1.034629e+02  4.997311e+01  5.367881e+01
     vertex  1.015851e+02  5.196615e+01  6.000000e+01
     vertex  9.830741e+01  4.894763e+01  5.367881e+01
   endloop
 endfacet
 facet normal  5.323030e-01 -7.966478e-01  2.863666e-01
   outer loop
     vertex  9.911358e+01  4.700136e+01  4.735761e+01
     vertex  9.542644e+01  4.453769e+01  4.735761e+01
     vertex  9.820338e+01  4.412094e+01  4.103642e+01
   endloop
 endfacet
 facet normal  4.404462e-01 -8.392001e-01  3.189833e-01
   outer loop
     vertex  9.911358e+01  4.700136e+01  4.735761e+01
     vertex  9.820338e+01  4.412094e+01  4.103642e+01
     vertex  1.001797e+02  4.515820e+01  4.103642e+01
   endloop
 endfacet
 facet normal  2.276993e-01 -9.238122e-01  3.077727e-01
   outer loop
     vertex  9.911358e+01  4.700136e+01  4.735761e+01
     vertex  1.001797e+02  4.515820e+01  4.103642e+01
     vertex  1.023469e+02  4.569235e+01  4.103642e+01
   endloop
 endfacet
 facet normal  5.280767e-01 -7.903226e-01  3.106850e-01
   outer loop
     vertex  9.911358e+01  4.700136e+01  4.735761e+01
     vertex  9.830741e+01  4.894763e+01  5.367881e+01
     vertex  9.542644e+01  4.453769e+01  4.735761e+01
   endloop
 endfacet
 facet normal -2.266080e-01 -9.193850e-01  3.215276e-01
   outer loop
     vertex  1.086183e+02  4.894763e+01  5.367881e+01
     vertex  1.089871e+02  5.106739e+01  6.000000e+01
     vertex  1.053406e+02  5.196615e+01  6.000000e+01
   endloop
 endfacet
 facet normal -4.420921e-01 -8.423361e-01  3.082603e-01
   outer loop
     vertex  1.086183e+02  4.894763e+01  5.367881e+01
     vertex  1.123124e+02  4.932210e+01  6.000000e+01
     vertex  1.089871e+02  5.106739e+01  6.000000e+01
   endloop
 endfacet
 facet normal -1.831347e-01 -9.206801e-01  3.446880e-01
   outer loop
     vertex  1.086183e+02  4.894763e+01  5.367881e+01
     vertex  1.053406e+02  5.196615e+01  6.000000e+01
     vertex  1.034629e+02  4.997311e+01  5.367881e+01
   endloop
 endfacet
 facet normal  2.976450e-15 -9.456304e-01  3.252431e-01
   outer loop
     vertex  1.034629e+02  4.786648e+01  4.735761e+01
     vertex  1.023469e+02  4.569235e+01  4.103642e+01
     vertex  1.045789e+02  4.569235e+01  4.103642e+01
   endloop
 endfacet
 facet normal  1.854359e-01 -9.322491e-01  3.106850e-01
   outer loop
     vertex  1.034629e+02  4.786648e+01  4.735761e+01
     vertex  1.034629e+02  4.997311e+01  5.367881e+01
     vertex  9.830741e+01  4.894763e+01  5.367881e+01
   endloop
 endfacet
 facet normal  1.867134e-01 -9.386716e-01  2.898857e-01
   outer loop
     vertex  1.034629e+02  4.786648e+01  4.735761e+01
     vertex  9.911358e+01  4.700136e+01  4.735761e+01
     vertex  1.023469e+02  4.569235e+01  4.103642e+01
   endloop
 endfacet
 facet normal -1.854359e-01 -9.322491e-01  3.106850e-01
   outer loop
     vertex  1.034629e+02  4.786648e+01  4.735761e+01
     vertex  1.086183e+02  4.894763e+01  5.367881e+01
     vertex  1.034629e+02  4.997311e+01  5.367881e+01
   endloop
 endfacet
 facet normal  1.854359e-01 -9.322491e-01  3.106850e-01
   outer loop
     vertex  1.034629e+02  4.786648e+01  4.735761e+01
     vertex  9.830741e+01  4.894763e+01  5.367881e+01
     vertex  9.911358e+01  4.700136e+01  4.735761e+01
   endloop
 endfacet
 facet normal -6.317236e-01 -7.130685e-01  3.040699e-01
   outer loop
     vertex  1.129889e+02  4.602730e+01  5.367881e+01
     vertex  1.151235e+02  4.683170e+01  6.000000e+01
     vertex  1.123124e+02  4.932210e+01  6.000000e+01
   endloop
 endfacet
 facet normal -7.767306e-01 -5.361384e-01  3.305224e-01
   outer loop
     vertex  1.129889e+02  4.602730e+01  5.367881e+01
     vertex  1.172569e+02  4.374095e+01  6.000000e+01
     vertex  1.151235e+02  4.683170e+01  6.000000e+01
   endloop
 endfacet
 facet normal -5.203788e-01 -7.788020e-01  3.502475e-01
   outer loop
     vertex  1.129889e+02  4.602730e+01  5.367881e+01
     vertex  1.123124e+02  4.932210e+01  6.000000e+01
     vertex  1.086183e+02  4.894763e+01  5.367881e+01
   endloop
 endfacet
 facet normal -2.276993e-01 -9.238122e-01  3.077727e-01
   outer loop
     vertex  1.078121e+02  4.700136e+01  4.735761e+01
     vertex  1.045789e+02  4.569235e+01  4.103642e+01
     vertex  1.067460e+02  4.515820e+01  4.103642e+01
   endloop
 endfacet
 facet normal -4.404462e-01 -8.392001e-01  3.189833e-01
   outer loop
     vertex  1.078121e+02  4.700136e+01  4.735761e+01
     vertex  1.067460e+02  4.515820e+01  4.103642e+01
     vertex  1.087223e+02  4.412094e+01  4.103642e+01
   endloop
 endfacet
 facet normal -1.867134e-01 -9.386716e-01  2.898857e-01
   outer loop
     vertex  1.078121e+02  4.700136e+01  4.735761e+01
     vertex  1.034629e+02  4.786648e+01  4.735761e+01
     vertex  1.045789e+02  4.569235e+01  4.103642e+01
   endloop
 endfacet
 facet normal -1.854359e-01 -9.322491e-01  3.106850e-01
   outer loop
     vertex  1.078121e+02  4.700136e+01  4.735761e+01
     vertex  1.086183e+02  4.894763e+01  5.367881e+01
     vertex  1.034629e+02  4.786648e+01  4.735761e+01
   endloop
 endfacet
 facet normal -9.193359e-01 -1.828673e-01  3.483979e-01
   outer loop
     vertex  1.159092e+02  4.165672e+01  5.367881e+01
     vertex  1.169347e+02  3.650127e+01  5.367881e+01
     vertex  1.185886e+02  4.022944e+01  6.000000e+01
   endloop
 endfacet
 facet normal -8.914929e-01 -3.380986e-01  3.015457e-01
   outer loop
     vertex  1.159092e+02  4.165672e+01  5.367881e+01
     vertex  1.185886e+02  4.022944e+01  6.000000e+01
     vertex  1.172569e+02  4.374095e+01  6.000000e+01
   endloop
 endfacet
 facet normal -7.822062e-01 -5.226535e-01  3.390970e-01
   outer loop
     vertex  1.159092e+02  4.165672e+01  5.367881e+01
     vertex  1.172569e+02  4.374095e+01  6.000000e+01
     vertex  1.129889e+02  4.602730e+01  5.367881e+01
   endloop
 endfacet
 facet normal -6.276995e-01 -7.085263e-01  3.224651e-01
   outer loop
     vertex  1.114993e+02  4.453769e+01  4.735761e+01
     vertex  1.087223e+02  4.412094e+01  4.103642e+01
     vertex  1.103930e+02  4.264085e+01  4.103642e+01
   endloop
 endfacet
 facet normal -7.850750e-01 -5.418981e-01  3.000061e-01
   outer loop
     vertex  1.114993e+02  4.453769e+01  4.735761e+01
     vertex  1.103930e+02  4.264085e+01  4.103642e+01
     vertex  1.116609e+02  4.080395e+01  4.103642e+01
   endloop
 endfacet
 facet normal -5.280767e-01 -7.903226e-01  3.106850e-01
   outer loop
     vertex  1.114993e+02  4.453769e+01  4.735761e+01
     vertex  1.129889e+02  4.602730e+01  5.367881e+01
     vertex  1.086183e+02  4.894763e+01  5.367881e+01
   endloop
 endfacet
 facet normal -5.323030e-01 -7.966478e-01  2.863666e-01
   outer loop
     vertex  1.114993e+02  4.453769e+01  4.735761e+01
     vertex  1.078121e+02  4.700136e+01  4.735761e+01
     vertex  1.087223e+02  4.412094e+01  4.103642e+01
   endloop
 endfacet
 facet normal -5.280767e-01 -7.903226e-01  3.106850e-01
   outer loop
     vertex  1.114993e+02  4.453769e+01  4.735761e+01
     vertex  1.086183e+02  4.894763e+01  5.367881e+01
     vertex  1.078121e+02  4.700136e+01  4.735761e+01
   endloop
 endfacet
 facet normal -7.903226e-01 -5.280767e-01  3.106850e-01
   outer loop
     vertex  1.139629e+02  4.085055e+01  4.735761e+01
     vertex  1.129889e+02  4.602730e+01  5.367881e+01
     vertex  1.114993e+02  4.453769e+01  4.735761e+01
   endloop
 endfacet
 facet normal -8.844027e-01 -3.354097e-01  3.245492e-01
   outer loop
     vertex  1.139629e+02  4.085055e+01  4.735761e+01
     vertex  1.116609e+02  4.080395e+01  4.103642e+01
     vertex  1.124524e+02  3.871700e+01  4.103642e+01
   endloop
 endfacet
 facet normal -9.322491e-01 -1.854359e-01  3.106850e-01
   outer loop
     vertex  1.139629e+02  4.085055e+01  4.735761e+01
     vertex  1.148281e+02  3.650127e+01  4.735761e+01
     vertex  1.169347e+02  3.650127e+01  5.367881e+01
   endloop
 endfacet
 facet normal -7.903226e-01 -5.280767e-01  3.106850e-01
   outer loop
     vertex  1.139629e+02  4.085055e+01  4.735761e+01
     vertex  1.159092e+02  4.165672e+01  5.367881e+01
     vertex  1.129889e+02  4.602730e+01  5.367881e+01
   endloop
 endfacet
 facet normal -9.393650e-01 -1.868513e-01  2.875413e-01
   outer loop
     vertex  1.139629e+02  4.085055e+01  4.735761e+01
     vertex  1.124524e+02  3.871700e+01  4.103642e+01
     vertex  1.148281e+02  3.650127e+01  4.735761e+01
   endloop
 endfacet
 facet normal -7.948790e-01 -5.311212e-01  2.933898e-01
   outer loop
     vertex  1.139629e+02  4.085055e+01  4.735761e+01
     vertex  1.114993e+02  4.453769e+01  4.735761e+01
     vertex  1.116609e+02  4.080395e+01  4.103642e+01
   endloop
 endfacet
 facet normal -9.322491e-01 -1.854359e-01  3.106850e-01
   outer loop
     vertex  1.139629e+02  4.085055e+01  4.735761e+01
     vertex  1.169347e+02  3.650127e+01  5.367881e+01
     vertex  1.159092e+02  4.165672e+01  5.367881e+01
   endloop
 endfacet
 facet normal  0.000000e+00  0.000000e+00  1.000000e+00
   outer loop
     vertex  9.447331e+01  3.871700e+01  4.103642e+01
     vertex  9.653271e+01  4.264085e+01  4.103642e+01
     vertex  9.526479e+01  4.080395e+01  4.103642e+01
   endloop
 endfacet
 facet normal  0.000000e+00  0.000000e+00  1.000000e+00
   outer loop
     vertex  1.045789e+02  4.569235e+01  4.103642e+01
     vertex  9.820338e+01  4.412094e+01  4.103642e+01
     vertex  9.653271e+01  4.264085e+01  4.103642e+01
   endloop
 endfacet
 facet normal  0.000000e+00  0.000000e+00  1.000000e+00
   outer loop
     vertex  1.045789e+02  4.569235e+01  4.103642e+01
     vertex  1.001797e+02  4.515820e+01  4.103642e+01
     vertex  9.820338e+01  4.412094e+01  4.103642e+01
   endloop
 endfacet
 facet normal  0.000000e+00  0.000000e+00  1.000000e+00
   outer loop
     vertex  1.045789e+02  4.569235e+01  4.103642e+01
     vertex  1.023469e+02  4.569235e+01  4.103642e+01
     vertex  1.001797e+02  4.515820e+01  4.103642e+01
   endloop
 endfacet
 facet normal  0.000000e+00 -0.000000e+00  1.000000e+00
   outer loop
     vertex  9.447331e+01  3.428555e+01  4.103642e+01
     vertex  9.447331e+01  3.871700e+01  4.103642e+01
     vertex  9.420427e+01  3.650127e+01  4.103642e+01
   endloop
 endfacet
 facet normal  0.000000e+00  0.000000e+00  1.000000e+00
   outer loop
     vertex  9.447331e+01  3.428555e+01  4.103642e+01
     vertex  9.653271e+01  4.264085e+01  4.103642e+01
     vertex  9.447331e+01  3.871700e+01  4.103642e+01
   endloop
 endfacet
 facet normal  0.000000e+00  0.000000e+00  1.000000e+00
   outer loop
     vertex  9.447331e+01  3.428555e+01  4.103642e+01
     vertex  1.045789e+02  4.569235e+01  4.103642e+01
     vertex  9.653271e+01  4.264085e+01  4.103642e+01
   endloop
 endfacet
 facet normal  0.000000e+00  0.000000e+00  1.000000e+00
   outer loop
     vertex  1.087223e+02  4.412094e+01  4.103642e+01
     vertex  1.067460e+02  4.515820e+01  4.103642e+01
     vertex  1.045789e+02  4.569235e+01  4.103642e+01
   endloop
 endfacet
 facet normal  0.000000e+00  0.000000e+00  1.000000e+00
   outer loop
     vertex  9.653271e+01  3.036169e+01  4.103642e+01
     vertex  9.447331e+01  3.428555e+01  4.103642e+01
     vertex  9.526479e+01  3.219859e+01  4.103642e+01
   endloop
 endfacet
 facet normal  0.000000e+00  0.000000e+00  1.000000e+00
   outer loop
     vertex  1.116609e+02  4.080395e+01  4.103642e+01
     vertex  1.103930e+02  4.264085e+01  4.103642e+01
     vertex  1.087223e+02  4.412094e+01  4.103642e+01
   endloop
 endfacet
 facet normal  0.000000e+00  0.000000e+00  1.000000e+00
   outer loop
     vertex  1.116609e+02  4.080395e+01  4.103642e+01
     vertex  1.087223e+02  4.412094e+01  4.103642e+01
     vertex  1.045789e+02  4.569235e+01  4.103642e+01
   endloop
 endfacet
 facet normal  0.000000e+00  0.000000e+00  1.000000e+00
   outer loop
     vertex  1.023469e+02  2.731019e+01  4.103642e+01
     vertex  9.820338e+01  2.888161e+01  4.103642e+01
     vertex  1.001797e+02  2.784434e+01  4.103642e+01
   endloop
 endfacet
 facet normal  0.000000e+00  0.000000e+00  1.000000e+00
   outer loop
     vertex  1.023469e+02  2.731019e+01  4.103642e+01
     vertex  9.653271e+01  3.036169e+01  4.103642e+01
     vertex  9.820338e+01  2.888161e+01  4.103642e+01
   endloop
 endfacet
 facet normal  0.000000e+00  0.000000e+00  1.000000e+00
   outer loop
     vertex  1.023469e+02  2.731019e+01  4.103642e+01
     vertex  9.447331e+01  3.428555e+01  4.103642e+01
     vertex  9.653271e+01  3.036169e+01  4.103642e+01
   endloop
 endfacet
 facet normal  0.000000e+00  0.000000e+00  1.000000e+00
   outer loop
     vertex  1.116609e+02  3.219859e+01  4.103642e+01
     vertex  1.124524e+02  3.428555e+01  4.103642e+01
     vertex  1.127214e+02  3.650127e+01  4.103642e+01
   endloop
 endfacet
 facet normal  0.000000e+00  0.000000e+00  1.000000e+00
   outer loop
     vertex  1.116609e+02  3.219859e+01  4.103642e+01
     vertex  1.127214e+02  3.650127e+01  4.103642e+01
     vertex  1.124524e+02  3.871700e+01  4.103642e+01
   endloop
 endfacet
 facet normal  0.000000e+00  0.000000e+00  1.000000e+00
   outer loop
     vertex  1.087223e+02  2.888161e+01  4.103642e+01
     vertex  1.045789e+02  2.731019e+01  4.103642e+01
     vertex  1.067460e+02  2.784434e+01  4.103642e+01
   endloop
 endfacet
 facet normal  0.000000e+00  0.000000e+00  1.000000e+00
   outer loop
     vertex  1.103930e+02  3.036169e+01  4.103642e+01
     vertex  1.023469e+02  2.731019e+01  4.103642e+01
     vertex  1.045789e+02  2.731019e+01  4.103642e+01
   endloop
 endfacet
 facet normal  0.000000e+00  0.000000e+00  1.000000e+00
   outer loop
     vertex  1.103930e+02  3.036169e+01  4.103642e+01
     vertex  1.124524e+02  3.871700e+01  4.103642e+01
     vertex  1.116609e+02  4.080395e+01  4.103642e+01
   endloop
 endfacet
 facet normal  0.000000e+00  0.000000e+00  1.000000e+00
   outer loop
     vertex  1.103930e+02  3.036169e+01  4.103642e+01
     vertex  1.045789e+02  4.569235e+01  4.103642e+01
     vertex  9.447331e+01  3.428555e+01  4.103642e+01
   endloop
 endfacet
 facet normal  0.000000e+00  0.000000e+00  1.000000e+00
   outer loop
     vertex  1.103930e+02  3.036169e+01  4.103642e+01
     vertex  9.447331e+01  3.428555e+01  4.103642e+01
     vertex  1.023469e+02  2.731019e+01  4.103642e+01
   endloop
 endfacet
 facet normal  0.000000e+00 -0.000000e+00  1.000000e+00
   outer loop
     vertex  1.103930e+02  3.036169e+01  4.103642e+01
     vertex  1.116609e+02  4.080395e+01  4.103642e+01
     vertex  1.045789e+02  4.569235e+01  4.103642e+01
   endloop
 endfacet
 facet normal  0.000000e+00  0.000000e+00  1.000000e+00
   outer loop
     vertex  1.103930e+02  3.036169e+01  4.103642e+01
     vertex  1.116609e+02  3.219859e+01  4.103642e+01
     vertex  1.124524e+02  3.871700e+01  4.103642e+01
   endloop
 endfacet
 facet normal  0.000000e+00  0.000000e+00  1.000000e+00
   outer loop
     vertex  1.103930e+02  3.036169e+01  4.103642e+01
     vertex  1.045789e+02  2.731019e+01  4.103642e+01
     vertex  1.087223e+02  2.888161e+01  4.103642e+01
   endloop
 endfacet
endsolid
