solid 
 facet normal -1.000000e+00  0.000000e+00  0.000000e+00
   outer loop
     vertex  0.000000e+00  0.000000e+00  0.000000e+00
     vertex  0.000000e+00  8.593910e+01  6.000000e+01
     vertex  0.000000e+00  8.593910e+01  0.000000e+00
   endloop
 endfacet
 facet normal -1.000000e+00  0.000000e+00  0.000000e+00
   outer loop
     vertex  0.000000e+00  0.000000e+00  6.000000e+01
     vertex  0.000000e+00  8.593910e+01  6.000000e+01
     vertex  0.000000e+00  0.000000e+00  0.000000e+00
   endloop
 endfacet
 facet normal  0.000000e+00 -1.000000e+00 -0.000000e+00
   outer loop
     vertex  1.158542e+02  0.000000e+00  6.000000e+01
     vertex  0.000000e+00  0.000000e+00  0.000000e+00
     vertex  1.158542e+02  0.000000e+00  0.000000e+00
   endloop
 endfacet
 facet normal -0.000000e+00 -1.000000e+00  0.000000e+00
   outer loop
     vertex  1.158542e+02  0.000000e+00  6.000000e+01
     vertex  0.000000e+00  0.000000e+00  6.000000e+01
     vertex  0.000000e+00  0.000000e+00  0.000000e+00
   endloop
 endfacet
 facet normal  0.000000e+00  0.000000e+00  1.000000e+00
   outer loop
     vertex  8.656423e+01  5.374288e+01  6.000000e+01
     vertex  0.000000e+00  0.000000e+00  6.000000e+01
     vertex  1.158542e+02  0.000000e+00  6.000000e+01
   endloop
 endfacet
 facet normal  0.000000e+00  0.000000e+00  1.000000e+00
   outer loop
     vertex  8.656423e+01  5.374288e+01  6.000000e+01
     vertex  8.443852e+01  5.562609e+01  6.000000e+01
     vertex  0.000000e+00  0.000000e+00  6.000000e+01
   endloop
 endfacet
 facet normal  0.000000e+00  0.000000e+00  1.000000e+00
   outer loop
     vertex  8.282526e+01  5.796330e+01  6.000000e+01
     vertex  0.000000e+00  0.000000e+00  6.000000e+01
     vertex  8.443852e+01  5.562609e+01  6.000000e+01
   endloop
 endfacet
 facet normal  0.000000e+00  0.000000e+00  1.000000e+00
   outer loop
     vertex  8.907885e+01  5.242310e+01  6.000000e+01
     vertex  8.656423e+01  5.374288e+01  6.000000e+01
     vertex  1.158542e+02  0.000000e+00  6.000000e+01
   endloop
 endfacet
 facet normal  0.000000e+00  0.000000e+00  1.000000e+00
   outer loop
     vertex  8.181821e+01  6.061868e+01  6.000000e+01
     vertex  0.000000e+00  8.593910e+01  6.000000e+01
     vertex  0.000000e+00  0.000000e+00  6.000000e+01
   endloop
 endfacet
 facet normal  0.000000e+00  0.000000e+00  1.000000e+00
   outer loop
     vertex  8.181821e+01  6.061868e+01  6.000000e+01
     vertex  0.000000e+00  0.000000e+00  6.000000e+01
     vertex  8.282526e+01  5.796330e+01  6.000000e+01
   endloop
 endfacet
 facet normal  0.000000e+00  0.000000e+00  1.000000e+00
   outer loop
     vertex  9.183625e+01  5.174346e+01  6.000000e+01
     vertex  8.907885e+01  5.242310e+01  6.000000e+01
     vertex  1.158542e+02  0.000000e+00  6.000000e+01
   endloop
 endfacet
 facet normal  0.000000e+00  0.000000e+00  1.000000e+00
   outer loop
     vertex  8.147589e+01  6.343789e+01  6.000000e+01
     vertex  0.000000e+00  8.593910e+01  6.000000e+01
     vertex  8.181821e+01  6.061868e+01  6.000000e+01
   endloop
 endfacet
 facet normal  0.000000e+00  0.000000e+00  1.000000e+00
   outer loop
     vertex  9.467617e+01  5.174346e+01  6.000000e+01
     vertex  9.183625e+01  5.174346e+01  6.000000e+01
     vertex  1.158542e+02  0.000000e+00  6.000000e+01
   endloop
 endfacet
 facet normal  0.000000e+00  0.000000e+00  1.000000e+00
   outer loop
     vertex  8.181821e+01  6.625711e+01  6.000000e+01
     vertex  0.000000e+00  8.593910e+01  6.000000e+01
     vertex  8.147589e+01  6.343789e+01  6.000000e+01
   endloop
 endfacet
 facet normal  0.000000e+00  0.000000e+00  1.000000e+00
   outer loop
     vertex  9.743357e+01  5.242310e+01  6.000000e+01
     vertex  9.467617e+01  5.174346e+01  6.000000e+01
     vertex  1.158542e+02  0.000000e+00  6.000000e+01
   endloop
 endfacet
 facet normal  0.000000e+00  0.000000e+00  1.000000e+00
   outer loop
     vertex  8.282526e+01  6.891248e+01  6.000000e+01
     vertex  0.000000e+00  8.593910e+01  6.000000e+01
     vertex  8.181821e+01  6.625711e+01  6.000000e+01
   endloop
 endfacet
 facet normal  0.000000e+00  0.000000e+00  1.000000e+00
   outer loop
     vertex  9.994820e+01  5.374288e+01  6.000000e+01
     vertex  9.743357e+01  5.242310e+01  6.000000e+01
     vertex  1.158542e+02  0.000000e+00  6.000000e+01
   endloop
 endfacet
 facet normal  0.000000e+00  0.000000e+00  1.000000e+00
   outer loop
     vertex  8.443852e+01  7.124969e+01  6.000000e+01
     vertex  0.000000e+00  8.593910e+01  6.000000e+01
     vertex  8.282526e+01  6.891248e+01  6.000000e+01
   endloop
 endfacet
 facet normal  0.000000e+00  0.000000e+00  1.000000e+00
   outer loop
     vertex  1.020739e+02  5.562609e+01  6.000000e+01
     vertex  9.994820e+01  5.374288e+01  6.000000e+01
     vertex  1.158542e+02  0.000000e+00  6.000000e+01
   endloop
 endfacet
 facet normal  0.000000e+00  0.000000e+00  1.000000e+00
   outer loop
     vertex  8.656423e+01  7.313290e+01  6.000000e+01
     vertex  0.000000e+00  8.593910e+01  6.000000e+01
     vertex  8.443852e+01  7.124969e+01  6.000000e+01
   endloop
 endfacet
 facet normal  0.000000e+00  0.000000e+00  1.000000e+00
   outer loop
     vertex  1.036872e+02  5.796330e+01  6.000000e+01
     vertex  1.020739e+02  5.562609e+01  6.000000e+01
     vertex  1.158542e+02  0.000000e+00  6.000000e+01
   endloop
 endfacet
 facet normal  0.000000e+00  0.000000e+00  1.000000e+00
   outer loop
     vertex  1.046942e+02  6.061868e+01  6.000000e+01
     vertex  1.036872e+02  5.796330e+01  6.000000e+01
     vertex  1.158542e+02  0.000000e+00  6.000000e+01
   endloop
 endfacet
 facet normal  0.000000e+00  0.000000e+00  1.000000e+00
   outer loop
     vertex  1.158542e+02  8.593910e+01  6.000000e+01
     vertex  1.050365e+02  6.343789e+01  6.000000e+01
     vertex  1.046942e+02  6.061868e+01  6.000000e+01
   endloop
 endfacet
 facet normal  0.000000e+00  0.000000e+00  1.000000e+00
   outer loop
     vertex  1.158542e+02  8.593910e+01  6.000000e+01
     vertex  9.183625e+01  7.513232e+01  6.000000e+01
     vertex  9.467617e+01  7.513232e+01  6.000000e+01
   endloop
 endfacet
 facet normal  0.000000e+00  0.000000e+00  1.000000e+00
   outer loop
     vertex  1.158542e+02  8.593910e+01  6.000000e+01
     vertex  9.467617e+01  7.513232e+01  6.000000e+01
     vertex  9.743357e+01  7.445268e+01  6.000000e+01
   endloop
 endfacet
 facet normal  0.000000e+00  0.000000e+00  1.000000e+00
   outer loop
     vertex  1.158542e+02  8.593910e+01  6.000000e+01
     vertex  9.743357e+01  7.445268e+01  6.000000e+01
     vertex  9.994820e+01  7.313290e+01  6.000000e+01
   endloop
 endfacet
 facet normal  0.000000e+00  0.000000e+00  1.000000e+00
   outer loop
     vertex  1.158542e+02  8.593910e+01  6.000000e+01
     vertex  9.994820e+01  7.313290e+01  6.000000e+01
     vertex  1.020739e+02  7.124969e+01  6.000000e+01
   endloop
 endfacet
 facet normal  0.000000e+00  0.000000e+00  1.000000e+00
   outer loop
     vertex  1.158542e+02  8.593910e+01  6.000000e+01
     vertex  1.020739e+02  7.124969e+01  6.000000e+01
     vertex  1.036872e+02  6.891248e+01  6.000000e+01
   endloop
 endfacet
 facet normal  0.000000e+00  0.000000e+00  1.000000e+00
   outer loop
     vertex  1.158542e+02  8.593910e+01  6.000000e+01
     vertex  1.036872e+02  6.891248e+01  6.000000e+01
     vertex  1.046942e+02  6.625711e+01  6.000000e+01
   endloop
 endfacet
 facet normal  0.000000e+00  0.000000e+00  1.000000e+00
   outer loop
     vertex  1.158542e+02  8.593910e+01  6.000000e+01
     vertex  1.046942e+02  6.625711e+01  6.000000e+01
     vertex  1.050365e+02  6.343789e+01  6.000000e+01
   endloop
 endfacet
 facet normal  0.000000e+00  0.000000e+00  1.000000e+00
   outer loop
     vertex  1.158542e+02  8.593910e+01  6.000000e+01
     vertex  1.046942e+02  6.061868e+01  6.000000e+01
     vertex  1.158542e+02  0.000000e+00  6.000000e+01
   endloop
 endfacet
 facet normal  0.000000e+00  0.000000e+00  1.000000e+00
   outer loop
     vertex  1.158542e+02  8.593910e+01  6.000000e+01
     vertex  0.000000e+00  8.593910e+01  6.000000e+01
     vertex  9.183625e+01  7.513232e+01  6.000000e+01
   endloop
 endfacet
 facet normal  0.000000e+00  0.000000e+00  1.000000e+00
   outer loop
     vertex  9.183625e+01  7.513232e+01  6.000000e+01
     vertex  0.000000e+00  8.593910e+01  6.000000e+01
     vertex  8.907885e+01  7.445268e+01  6.000000e+01
   endloop
 endfacet
 facet normal  0.000000e+00  0.000000e+00  1.000000e+00
   outer loop
     vertex  8.907885e+01  7.445268e+01  6.000000e+01
     vertex  0.000000e+00  8.593910e+01  6.000000e+01
     vertex  8.656423e+01  7.313290e+01  6.000000e+01
   endloop
 endfacet
 facet normal  0.000000e+00  1.000000e+00  0.000000e+00
   outer loop
     vertex  1.158542e+02  8.593910e+01  6.000000e+01
     vertex  1.158542e+02  8.593910e+01  0.000000e+00
     vertex  0.000000e+00  8.593910e+01  0.000000e+00
   endloop
 endfacet
 facet normal  0.000000e+00  1.000000e+00  0.000000e+00
   outer loop
     vertex  1.158542e+02  8.593910e+01  6.000000e+01
     vertex  0.000000e+00  8.593910e+01  0.000000e+00
     vertex  0.000000e+00  8.593910e+01  6.000000e+01
   endloop
 endfacet
 facet normal -0.000000e+00  0.000000e+00 -1.000000e+00
   outer loop
     vertex  1.158542e+02  8.593910e+01  0.000000e+00
     vertex  0.000000e+00  0.000000e+00  0.000000e+00
     vertex  0.000000e+00  8.593910e+01  0.000000e+00
   endloop
 endfacet
 facet normal  0.000000e+00 -0.000000e+00 -1.000000e+00
   outer loop
     vertex  1.158542e+02  8.593910e+01  0.000000e+00
     vertex  1.158542e+02  0.000000e+00  0.000000e+00
     vertex  0.000000e+00  0.000000e+00  0.000000e+00
   endloop
 endfacet
 facet normal  1.000000e+00  0.000000e+00  0.000000e+00
   outer loop
     vertex  1.158542e+02  0.000000e+00  0.000000e+00
     vertex  1.158542e+02  8.593910e+01  0.000000e+00
     vertex  1.158542e+02  8.593910e+01  6.000000e+01
   endloop
 endfacet
 facet normal  1.000000e+00 -0.000000e+00  0.000000e+00
   outer loop
     vertex  1.158542e+02  0.000000e+00  6.000000e+01
     vertex  1.158542e+02  0.000000e+00  0.000000e+00
     vertex  1.158542e+02  8.593910e+01  6.000000e+01
   endloop
 endfacet
 facet normal -8.265242e-01  1.003582e-01  5.538826e-01
   outer loop
     vertex  1.023971e+02  6.343789e+01  5.606133e+01
     vertex  1.046942e+02  6.061868e+01  6.000000e+01
     vertex  1.050365e+02  6.343789e+01  6.000000e+01
   endloop
 endfacet
 facet normal -8.265242e-01  1.003582e-01  5.538826e-01
   outer loop
     vertex  9.700599e+01  6.251365e+01  4.818399e+01
     vertex  9.975765e+01  6.343789e+01  5.212266e+01
     vertex  9.711821e+01  6.343789e+01  4.818399e+01
   endloop
 endfacet
 facet normal -8.265242e-01 -1.003582e-01  5.538826e-01
   outer loop
     vertex  1.023971e+02  6.343789e+01  5.606133e+01
     vertex  1.050365e+02  6.343789e+01  6.000000e+01
     vertex  1.046942e+02  6.625711e+01  6.000000e+01
   endloop
 endfacet
 facet normal -8.265242e-01 -1.003582e-01  5.538826e-01
   outer loop
     vertex  9.711821e+01  6.343789e+01  4.818399e+01
     vertex  9.975765e+01  6.343789e+01  5.212266e+01
     vertex  9.700599e+01  6.436213e+01  4.818399e+01
   endloop
 endfacet
 facet normal -7.814616e-01  2.963693e-01  5.490746e-01
   outer loop
     vertex  1.014919e+02  5.947181e+01  5.606133e+01
     vertex  1.036872e+02  5.796330e+01  6.000000e+01
     vertex  1.046942e+02  6.061868e+01  6.000000e+01
   endloop
 endfacet
 facet normal -6.817251e-01  4.705608e-01  5.601995e-01
   outer loop
     vertex  1.014919e+02  5.947181e+01  5.606133e+01
     vertex  1.020739e+02  5.562609e+01  6.000000e+01
     vertex  1.036872e+02  5.796330e+01  6.000000e+01
   endloop
 endfacet
 facet normal -7.882329e-01  1.799090e-01  5.884910e-01
   outer loop
     vertex  1.014919e+02  5.947181e+01  5.606133e+01
     vertex  1.046942e+02  6.061868e+01  6.000000e+01
     vertex  1.023971e+02  6.343789e+01  5.606133e+01
   endloop
 endfacet
 facet normal -6.331856e-01  5.049487e-01  5.866027e-01
   outer loop
     vertex  9.895546e+01  5.629126e+01  5.606133e+01
     vertex  1.020739e+02  5.562609e+01  6.000000e+01
     vertex  1.014919e+02  5.947181e+01  5.606133e+01
   endloop
 endfacet
 facet normal -5.556254e-01  6.271715e-01  5.458354e-01
   outer loop
     vertex  9.895546e+01  5.629126e+01  5.606133e+01
     vertex  9.994820e+01  5.374288e+01  6.000000e+01
     vertex  1.020739e+02  5.562609e+01  6.000000e+01
   endloop
 endfacet
 facet normal -3.824976e-01  7.287883e-01  5.679465e-01
   outer loop
     vertex  9.895546e+01  5.629126e+01  5.606133e+01
     vertex  9.743357e+01  5.242310e+01  6.000000e+01
     vertex  9.994820e+01  5.374288e+01  6.000000e+01
   endloop
 endfacet
 facet normal -7.763739e-01  2.944398e-01  5.572690e-01
   outer loop
     vertex  9.911381e+01  6.061702e+01  5.212266e+01
     vertex  9.700599e+01  6.251365e+01  4.818399e+01
     vertex  9.667584e+01  6.164313e+01  4.818399e+01
   endloop
 endfacet
 facet normal -6.876894e-01  4.746777e-01  5.493308e-01
   outer loop
     vertex  9.911381e+01  6.061702e+01  5.212266e+01
     vertex  9.667584e+01  6.164313e+01  4.818399e+01
     vertex  9.614696e+01  6.087691e+01  4.818399e+01
   endloop
 endfacet
 facet normal -8.161768e-01  1.862870e-01  5.469485e-01
   outer loop
     vertex  9.911381e+01  6.061702e+01  5.212266e+01
     vertex  1.023971e+02  6.343789e+01  5.606133e+01
     vertex  9.975765e+01  6.343789e+01  5.212266e+01
   endloop
 endfacet
 facet normal -8.252892e-01  1.883669e-01  5.323680e-01
   outer loop
     vertex  9.911381e+01  6.061702e+01  5.212266e+01
     vertex  9.975765e+01  6.343789e+01  5.212266e+01
     vertex  9.700599e+01  6.251365e+01  4.818399e+01
   endloop
 endfacet
 facet normal -8.161768e-01  1.862870e-01  5.469485e-01
   outer loop
     vertex  9.911381e+01  6.061702e+01  5.212266e+01
     vertex  1.014919e+02  5.947181e+01  5.606133e+01
     vertex  1.023971e+02  6.343789e+01  5.606133e+01
   endloop
 endfacet
 facet normal -2.007743e-01  8.145734e-01  5.442056e-01
   outer loop
     vertex  9.529025e+01  5.452619e+01  5.606133e+01
     vertex  9.467617e+01  5.174346e+01  6.000000e+01
     vertex  9.743357e+01  5.242310e+01  6.000000e+01
   endloop
 endfacet
 facet normal -3.525808e-01  7.321417e-01  5.827995e-01
   outer loop
     vertex  9.529025e+01  5.452619e+01  5.606133e+01
     vertex  9.743357e+01  5.242310e+01  6.000000e+01
     vertex  9.895546e+01  5.629126e+01  5.606133e+01
   endloop
 endfacet
 facet normal -5.496102e-01  6.203816e-01  5.595134e-01
   outer loop
     vertex  9.730979e+01  5.835486e+01  5.212266e+01
     vertex  9.614696e+01  6.087691e+01  4.818399e+01
     vertex  9.545008e+01  6.025953e+01  4.818399e+01
   endloop
 endfacet
 facet normal -3.900683e-01  7.432130e-01  5.435818e-01
   outer loop
     vertex  9.730979e+01  5.835486e+01  5.212266e+01
     vertex  9.545008e+01  6.025953e+01  4.818399e+01
     vertex  9.462570e+01  5.982686e+01  4.818399e+01
   endloop
 endfacet
 facet normal -6.545229e-01  5.219646e-01  5.469485e-01
   outer loop
     vertex  9.730979e+01  5.835486e+01  5.212266e+01
     vertex  9.895546e+01  5.629126e+01  5.606133e+01
     vertex  1.014919e+02  5.947181e+01  5.606133e+01
   endloop
 endfacet
 facet normal -6.545229e-01  5.219646e-01  5.469485e-01
   outer loop
     vertex  9.730979e+01  5.835486e+01  5.212266e+01
     vertex  1.014919e+02  5.947181e+01  5.606133e+01
     vertex  9.911381e+01  6.061702e+01  5.212266e+01
   endloop
 endfacet
 facet normal -6.614820e-01  5.275143e-01  5.330761e-01
   outer loop
     vertex  9.730979e+01  5.835486e+01  5.212266e+01
     vertex  9.911381e+01  6.061702e+01  5.212266e+01
     vertex  9.614696e+01  6.087691e+01  4.818399e+01
   endloop
 endfacet
 facet normal  0.000000e+00  8.167244e-01  5.770280e-01
   outer loop
     vertex  9.122218e+01  5.452619e+01  5.606133e+01
     vertex  9.183625e+01  5.174346e+01  6.000000e+01
     vertex  9.467617e+01  5.174346e+01  6.000000e+01
   endloop
 endfacet
 facet normal  2.007743e-01  8.145734e-01  5.442056e-01
   outer loop
     vertex  9.122218e+01  5.452619e+01  5.606133e+01
     vertex  8.907885e+01  5.242310e+01  6.000000e+01
     vertex  9.183625e+01  5.174346e+01  6.000000e+01
   endloop
 endfacet
 facet normal -0.000000e+00  8.167244e-01  5.770280e-01
   outer loop
     vertex  9.122218e+01  5.452619e+01  5.606133e+01
     vertex  9.467617e+01  5.174346e+01  6.000000e+01
     vertex  9.529025e+01  5.452619e+01  5.606133e+01
   endloop
 endfacet
 facet normal -1.981690e-01  8.040032e-01  5.606317e-01
   outer loop
     vertex  9.470292e+01  5.709946e+01  5.212266e+01
     vertex  9.462570e+01  5.982686e+01  4.818399e+01
     vertex  9.372172e+01  5.960405e+01  4.818399e+01
   endloop
 endfacet
 facet normal -3.667081e-01  7.614772e-01  5.344883e-01
   outer loop
     vertex  9.470292e+01  5.709946e+01  5.212266e+01
     vertex  9.730979e+01  5.835486e+01  5.212266e+01
     vertex  9.462570e+01  5.982686e+01  4.818399e+01
   endloop
 endfacet
 facet normal -3.632328e-01  7.542607e-01  5.469485e-01
   outer loop
     vertex  9.470292e+01  5.709946e+01  5.212266e+01
     vertex  9.895546e+01  5.629126e+01  5.606133e+01
     vertex  9.730979e+01  5.835486e+01  5.212266e+01
   endloop
 endfacet
 facet normal -3.632328e-01  7.542607e-01  5.469485e-01
   outer loop
     vertex  9.470292e+01  5.709946e+01  5.212266e+01
     vertex  9.529025e+01  5.452619e+01  5.606133e+01
     vertex  9.895546e+01  5.629126e+01  5.606133e+01
   endloop
 endfacet
 facet normal  3.824976e-01  7.287883e-01  5.679465e-01
   outer loop
     vertex  8.755697e+01  5.629126e+01  5.606133e+01
     vertex  8.656423e+01  5.374288e+01  6.000000e+01
     vertex  8.907885e+01  5.242310e+01  6.000000e+01
   endloop
 endfacet
 facet normal  5.556254e-01  6.271715e-01  5.458354e-01
   outer loop
     vertex  8.755697e+01  5.629126e+01  5.606133e+01
     vertex  8.443852e+01  5.562609e+01  6.000000e+01
     vertex  8.656423e+01  5.374288e+01  6.000000e+01
   endloop
 endfacet
 facet normal  3.525808e-01  7.321417e-01  5.827995e-01
   outer loop
     vertex  8.755697e+01  5.629126e+01  5.606133e+01
     vertex  8.907885e+01  5.242310e+01  6.000000e+01
     vertex  9.122218e+01  5.452619e+01  5.606133e+01
   endloop
 endfacet
 facet normal  0.000000e+00  8.438393e-01  5.365960e-01
   outer loop
     vertex  9.180951e+01  5.709946e+01  5.212266e+01
     vertex  9.372172e+01  5.960405e+01  4.818399e+01
     vertex  9.279070e+01  5.960405e+01  4.818399e+01
   endloop
 endfacet
 facet normal  1.981690e-01  8.040032e-01  5.606317e-01
   outer loop
     vertex  9.180951e+01  5.709946e+01  5.212266e+01
     vertex  9.279070e+01  5.960405e+01  4.818399e+01
     vertex  9.188673e+01  5.982686e+01  4.818399e+01
   endloop
 endfacet
 facet normal  0.000000e+00  8.371663e-01  5.469485e-01
   outer loop
     vertex  9.180951e+01  5.709946e+01  5.212266e+01
     vertex  9.122218e+01  5.452619e+01  5.606133e+01
     vertex  9.529025e+01  5.452619e+01  5.606133e+01
   endloop
 endfacet
 facet normal -0.000000e+00  8.371663e-01  5.469485e-01
   outer loop
     vertex  9.180951e+01  5.709946e+01  5.212266e+01
     vertex  9.529025e+01  5.452619e+01  5.606133e+01
     vertex  9.470292e+01  5.709946e+01  5.212266e+01
   endloop
 endfacet
 facet normal -0.000000e+00  8.438393e-01  5.365960e-01
   outer loop
     vertex  9.180951e+01  5.709946e+01  5.212266e+01
     vertex  9.470292e+01  5.709946e+01  5.212266e+01
     vertex  9.372172e+01  5.960405e+01  4.818399e+01
   endloop
 endfacet
 facet normal  6.331856e-01  5.049487e-01  5.866027e-01
   outer loop
     vertex  8.502056e+01  5.947181e+01  5.606133e+01
     vertex  8.443852e+01  5.562609e+01  6.000000e+01
     vertex  8.755697e+01  5.629126e+01  5.606133e+01
   endloop
 endfacet
 facet normal  6.817251e-01  4.705608e-01  5.601995e-01
   outer loop
     vertex  8.502056e+01  5.947181e+01  5.606133e+01
     vertex  8.282526e+01  5.796330e+01  6.000000e+01
     vertex  8.443852e+01  5.562609e+01  6.000000e+01
   endloop
 endfacet
 facet normal  7.814616e-01  2.963693e-01  5.490746e-01
   outer loop
     vertex  8.502056e+01  5.947181e+01  5.606133e+01
     vertex  8.181821e+01  6.061868e+01  6.000000e+01
     vertex  8.282526e+01  5.796330e+01  6.000000e+01
   endloop
 endfacet
 facet normal  3.900683e-01  7.432130e-01  5.435818e-01
   outer loop
     vertex  8.920263e+01  5.835486e+01  5.212266e+01
     vertex  9.188673e+01  5.982686e+01  4.818399e+01
     vertex  9.106235e+01  6.025953e+01  4.818399e+01
   endloop
 endfacet
 facet normal  5.496102e-01  6.203816e-01  5.595134e-01
   outer loop
     vertex  8.920263e+01  5.835486e+01  5.212266e+01
     vertex  9.106235e+01  6.025953e+01  4.818399e+01
     vertex  9.036546e+01  6.087691e+01  4.818399e+01
   endloop
 endfacet
 facet normal  3.667081e-01  7.614772e-01  5.344883e-01
   outer loop
     vertex  8.920263e+01  5.835486e+01  5.212266e+01
     vertex  9.180951e+01  5.709946e+01  5.212266e+01
     vertex  9.188673e+01  5.982686e+01  4.818399e+01
   endloop
 endfacet
 facet normal  3.632328e-01  7.542607e-01  5.469485e-01
   outer loop
     vertex  8.920263e+01  5.835486e+01  5.212266e+01
     vertex  9.122218e+01  5.452619e+01  5.606133e+01
     vertex  9.180951e+01  5.709946e+01  5.212266e+01
   endloop
 endfacet
 facet normal  3.632328e-01  7.542607e-01  5.469485e-01
   outer loop
     vertex  8.920263e+01  5.835486e+01  5.212266e+01
     vertex  8.755697e+01  5.629126e+01  5.606133e+01
     vertex  9.122218e+01  5.452619e+01  5.606133e+01
   endloop
 endfacet
 facet normal  8.265242e-01  1.003582e-01  5.538826e-01
   outer loop
     vertex  8.411533e+01  6.343789e+01  5.606133e+01
     vertex  8.147589e+01  6.343789e+01  6.000000e+01
     vertex  8.181821e+01  6.061868e+01  6.000000e+01
   endloop
 endfacet
 facet normal  8.265242e-01 -1.003582e-01  5.538826e-01
   outer loop
     vertex  8.411533e+01  6.343789e+01  5.606133e+01
     vertex  8.181821e+01  6.625711e+01  6.000000e+01
     vertex  8.147589e+01  6.343789e+01  6.000000e+01
   endloop
 endfacet
 facet normal  7.882329e-01  1.799090e-01  5.884910e-01
   outer loop
     vertex  8.411533e+01  6.343789e+01  5.606133e+01
     vertex  8.181821e+01  6.061868e+01  6.000000e+01
     vertex  8.502056e+01  5.947181e+01  5.606133e+01
   endloop
 endfacet
 facet normal  6.545229e-01  5.219646e-01  5.469485e-01
   outer loop
     vertex  8.739862e+01  6.061702e+01  5.212266e+01
     vertex  8.502056e+01  5.947181e+01  5.606133e+01
     vertex  8.755697e+01  5.629126e+01  5.606133e+01
   endloop
 endfacet
 facet normal  6.876894e-01  4.746777e-01  5.493308e-01
   outer loop
     vertex  8.739862e+01  6.061702e+01  5.212266e+01
     vertex  9.036546e+01  6.087691e+01  4.818399e+01
     vertex  8.983658e+01  6.164313e+01  4.818399e+01
   endloop
 endfacet
 facet normal  7.763739e-01  2.944398e-01  5.572690e-01
   outer loop
     vertex  8.739862e+01  6.061702e+01  5.212266e+01
     vertex  8.983658e+01  6.164313e+01  4.818399e+01
     vertex  8.950644e+01  6.251365e+01  4.818399e+01
   endloop
 endfacet
 facet normal  8.161768e-01  1.862870e-01  5.469485e-01
   outer loop
     vertex  8.739862e+01  6.061702e+01  5.212266e+01
     vertex  8.411533e+01  6.343789e+01  5.606133e+01
     vertex  8.502056e+01  5.947181e+01  5.606133e+01
   endloop
 endfacet
 facet normal  6.614820e-01  5.275143e-01  5.330761e-01
   outer loop
     vertex  8.739862e+01  6.061702e+01  5.212266e+01
     vertex  8.920263e+01  5.835486e+01  5.212266e+01
     vertex  9.036546e+01  6.087691e+01  4.818399e+01
   endloop
 endfacet
 facet normal  6.545229e-01  5.219646e-01  5.469485e-01
   outer loop
     vertex  8.739862e+01  6.061702e+01  5.212266e+01
     vertex  8.755697e+01  5.629126e+01  5.606133e+01
     vertex  8.920263e+01  5.835486e+01  5.212266e+01
   endloop
 endfacet
 facet normal  7.814616e-01 -2.963693e-01  5.490746e-01
   outer loop
     vertex  8.502056e+01  6.740397e+01  5.606133e+01
     vertex  8.282526e+01  6.891248e+01  6.000000e+01
     vertex  8.181821e+01  6.625711e+01  6.000000e+01
   endloop
 endfacet
 facet normal  6.817251e-01 -4.705608e-01  5.601995e-01
   outer loop
     vertex  8.502056e+01  6.740397e+01  5.606133e+01
     vertex  8.443852e+01  7.124969e+01  6.000000e+01
     vertex  8.282526e+01  6.891248e+01  6.000000e+01
   endloop
 endfacet
 facet normal  7.882329e-01 -1.799090e-01  5.884910e-01
   outer loop
     vertex  8.502056e+01  6.740397e+01  5.606133e+01
     vertex  8.181821e+01  6.625711e+01  6.000000e+01
     vertex  8.411533e+01  6.343789e+01  5.606133e+01
   endloop
 endfacet
 facet normal  8.161768e-01  1.862870e-01  5.469485e-01
   outer loop
     vertex  8.675477e+01  6.343789e+01  5.212266e+01
     vertex  8.411533e+01  6.343789e+01  5.606133e+01
     vertex  8.739862e+01  6.061702e+01  5.212266e+01
   endloop
 endfacet
 facet normal  8.265242e-01  1.003582e-01  5.538826e-01
   outer loop
     vertex  8.675477e+01  6.343789e+01  5.212266e+01
     vertex  8.950644e+01  6.251365e+01  4.818399e+01
     vertex  8.939421e+01  6.343789e+01  4.818399e+01
   endloop
 endfacet
 facet normal  8.265242e-01 -1.003582e-01  5.538826e-01
   outer loop
     vertex  8.675477e+01  6.343789e+01  5.212266e+01
     vertex  8.939421e+01  6.343789e+01  4.818399e+01
     vertex  8.950644e+01  6.436213e+01  4.818399e+01
   endloop
 endfacet
 facet normal  8.252892e-01  1.883669e-01  5.323680e-01
   outer loop
     vertex  8.675477e+01  6.343789e+01  5.212266e+01
     vertex  8.739862e+01  6.061702e+01  5.212266e+01
     vertex  8.950644e+01  6.251365e+01  4.818399e+01
   endloop
 endfacet
 facet normal  6.331856e-01 -5.049487e-01  5.866027e-01
   outer loop
     vertex  8.755697e+01  7.058452e+01  5.606133e+01
     vertex  8.443852e+01  7.124969e+01  6.000000e+01
     vertex  8.502056e+01  6.740397e+01  5.606133e+01
   endloop
 endfacet
 facet normal  5.556254e-01 -6.271715e-01  5.458354e-01
   outer loop
     vertex  8.755697e+01  7.058452e+01  5.606133e+01
     vertex  8.656423e+01  7.313290e+01  6.000000e+01
     vertex  8.443852e+01  7.124969e+01  6.000000e+01
   endloop
 endfacet
 facet normal  3.824976e-01 -7.287883e-01  5.679465e-01
   outer loop
     vertex  8.755697e+01  7.058452e+01  5.606133e+01
     vertex  8.907885e+01  7.445268e+01  6.000000e+01
     vertex  8.656423e+01  7.313290e+01  6.000000e+01
   endloop
 endfacet
 facet normal  7.763739e-01 -2.944398e-01  5.572690e-01
   outer loop
     vertex  8.739862e+01  6.625876e+01  5.212266e+01
     vertex  8.950644e+01  6.436213e+01  4.818399e+01
     vertex  8.983658e+01  6.523265e+01  4.818399e+01
   endloop
 endfacet
 facet normal  6.876894e-01 -4.746777e-01  5.493308e-01
   outer loop
     vertex  8.739862e+01  6.625876e+01  5.212266e+01
     vertex  8.983658e+01  6.523265e+01  4.818399e+01
     vertex  9.036546e+01  6.599887e+01  4.818399e+01
   endloop
 endfacet
 facet normal  6.545229e-01 -5.219646e-01  5.469485e-01
   outer loop
     vertex  8.739862e+01  6.625876e+01  5.212266e+01
     vertex  8.755697e+01  7.058452e+01  5.606133e+01
     vertex  8.502056e+01  6.740397e+01  5.606133e+01
   endloop
 endfacet
 facet normal  8.252892e-01 -1.883669e-01  5.323680e-01
   outer loop
     vertex  8.739862e+01  6.625876e+01  5.212266e+01
     vertex  8.675477e+01  6.343789e+01  5.212266e+01
     vertex  8.950644e+01  6.436213e+01  4.818399e+01
   endloop
 endfacet
 facet normal  8.161768e-01 -1.862870e-01  5.469485e-01
   outer loop
     vertex  8.739862e+01  6.625876e+01  5.212266e+01
     vertex  8.502056e+01  6.740397e+01  5.606133e+01
     vertex  8.411533e+01  6.343789e+01  5.606133e+01
   endloop
 endfacet
 facet normal  8.161768e-01 -1.862870e-01  5.469485e-01
   outer loop
     vertex  8.739862e+01  6.625876e+01  5.212266e+01
     vertex  8.411533e+01  6.343789e+01  5.606133e+01
     vertex  8.675477e+01  6.343789e+01  5.212266e+01
   endloop
 endfacet
 facet normal  2.007743e-01 -8.145734e-01  5.442056e-01
   outer loop
     vertex  9.122218e+01  7.234959e+01  5.606133e+01
     vertex  9.183625e+01  7.513232e+01  6.000000e+01
     vertex  8.907885e+01  7.445268e+01  6.000000e+01
   endloop
 endfacet
 facet normal  0.000000e+00 -8.167244e-01  5.770280e-01
   outer loop
     vertex  9.122218e+01  7.234959e+01  5.606133e+01
     vertex  9.467617e+01  7.513232e+01  6.000000e+01
     vertex  9.183625e+01  7.513232e+01  6.000000e+01
   endloop
 endfacet
 facet normal  3.525808e-01 -7.321417e-01  5.827995e-01
   outer loop
     vertex  9.122218e+01  7.234959e+01  5.606133e+01
     vertex  8.907885e+01  7.445268e+01  6.000000e+01
     vertex  8.755697e+01  7.058452e+01  5.606133e+01
   endloop
 endfacet
 facet normal  5.496102e-01 -6.203816e-01  5.595134e-01
   outer loop
     vertex  8.920263e+01  6.852092e+01  5.212266e+01
     vertex  9.036546e+01  6.599887e+01  4.818399e+01
     vertex  9.106235e+01  6.661625e+01  4.818399e+01
   endloop
 endfacet
 facet normal  3.900683e-01 -7.432130e-01  5.435818e-01
   outer loop
     vertex  8.920263e+01  6.852092e+01  5.212266e+01
     vertex  9.106235e+01  6.661625e+01  4.818399e+01
     vertex  9.188673e+01  6.704892e+01  4.818399e+01
   endloop
 endfacet
 facet normal  6.545229e-01 -5.219646e-01  5.469485e-01
   outer loop
     vertex  8.920263e+01  6.852092e+01  5.212266e+01
     vertex  8.755697e+01  7.058452e+01  5.606133e+01
     vertex  8.739862e+01  6.625876e+01  5.212266e+01
   endloop
 endfacet
 facet normal  6.614820e-01 -5.275143e-01  5.330761e-01
   outer loop
     vertex  8.920263e+01  6.852092e+01  5.212266e+01
     vertex  8.739862e+01  6.625876e+01  5.212266e+01
     vertex  9.036546e+01  6.599887e+01  4.818399e+01
   endloop
 endfacet
 facet normal -2.007743e-01 -8.145734e-01  5.442056e-01
   outer loop
     vertex  9.529025e+01  7.234959e+01  5.606133e+01
     vertex  9.743357e+01  7.445268e+01  6.000000e+01
     vertex  9.467617e+01  7.513232e+01  6.000000e+01
   endloop
 endfacet
 facet normal  0.000000e+00 -8.167244e-01  5.770280e-01
   outer loop
     vertex  9.529025e+01  7.234959e+01  5.606133e+01
     vertex  9.467617e+01  7.513232e+01  6.000000e+01
     vertex  9.122218e+01  7.234959e+01  5.606133e+01
   endloop
 endfacet
 facet normal  1.981690e-01 -8.040032e-01  5.606317e-01
   outer loop
     vertex  9.180951e+01  6.977632e+01  5.212266e+01
     vertex  9.188673e+01  6.704892e+01  4.818399e+01
     vertex  9.279070e+01  6.727173e+01  4.818399e+01
   endloop
 endfacet
 facet normal  0.000000e+00 -8.438393e-01  5.365960e-01
   outer loop
     vertex  9.180951e+01  6.977632e+01  5.212266e+01
     vertex  9.279070e+01  6.727173e+01  4.818399e+01
     vertex  9.372172e+01  6.727173e+01  4.818399e+01
   endloop
 endfacet
 facet normal  3.632328e-01 -7.542607e-01  5.469485e-01
   outer loop
     vertex  9.180951e+01  6.977632e+01  5.212266e+01
     vertex  9.122218e+01  7.234959e+01  5.606133e+01
     vertex  8.755697e+01  7.058452e+01  5.606133e+01
   endloop
 endfacet
 facet normal  3.667081e-01 -7.614772e-01  5.344883e-01
   outer loop
     vertex  9.180951e+01  6.977632e+01  5.212266e+01
     vertex  8.920263e+01  6.852092e+01  5.212266e+01
     vertex  9.188673e+01  6.704892e+01  4.818399e+01
   endloop
 endfacet
 facet normal  3.632328e-01 -7.542607e-01  5.469485e-01
   outer loop
     vertex  9.180951e+01  6.977632e+01  5.212266e+01
     vertex  8.755697e+01  7.058452e+01  5.606133e+01
     vertex  8.920263e+01  6.852092e+01  5.212266e+01
   endloop
 endfacet
 facet normal -3.824976e-01 -7.287883e-01  5.679465e-01
   outer loop
     vertex  9.895546e+01  7.058452e+01  5.606133e+01
     vertex  9.994820e+01  7.313290e+01  6.000000e+01
     vertex  9.743357e+01  7.445268e+01  6.000000e+01
   endloop
 endfacet
 facet normal -5.556254e-01 -6.271715e-01  5.458354e-01
   outer loop
     vertex  9.895546e+01  7.058452e+01  5.606133e+01
     vertex  1.020739e+02  7.124969e+01  6.000000e+01
     vertex  9.994820e+01  7.313290e+01  6.000000e+01
   endloop
 endfacet
 facet normal -3.525808e-01 -7.321417e-01  5.827995e-01
   outer loop
     vertex  9.895546e+01  7.058452e+01  5.606133e+01
     vertex  9.743357e+01  7.445268e+01  6.000000e+01
     vertex  9.529025e+01  7.234959e+01  5.606133e+01
   endloop
 endfacet
 facet normal  0.000000e+00 -8.371663e-01  5.469485e-01
   outer loop
     vertex  9.470292e+01  6.977632e+01  5.212266e+01
     vertex  9.122218e+01  7.234959e+01  5.606133e+01
     vertex  9.180951e+01  6.977632e+01  5.212266e+01
   endloop
 endfacet
 facet normal -1.981690e-01 -8.040032e-01  5.606317e-01
   outer loop
     vertex  9.470292e+01  6.977632e+01  5.212266e+01
     vertex  9.372172e+01  6.727173e+01  4.818399e+01
     vertex  9.462570e+01  6.704892e+01  4.818399e+01
   endloop
 endfacet
 facet normal  0.000000e+00 -8.371663e-01  5.469485e-01
   outer loop
     vertex  9.470292e+01  6.977632e+01  5.212266e+01
     vertex  9.529025e+01  7.234959e+01  5.606133e+01
     vertex  9.122218e+01  7.234959e+01  5.606133e+01
   endloop
 endfacet
 facet normal  0.000000e+00 -8.438393e-01  5.365960e-01
   outer loop
     vertex  9.470292e+01  6.977632e+01  5.212266e+01
     vertex  9.180951e+01  6.977632e+01  5.212266e+01
     vertex  9.372172e+01  6.727173e+01  4.818399e+01
   endloop
 endfacet
 facet normal -6.331856e-01 -5.049487e-01  5.866027e-01
   outer loop
     vertex  1.014919e+02  6.740397e+01  5.606133e+01
     vertex  1.020739e+02  7.124969e+01  6.000000e+01
     vertex  9.895546e+01  7.058452e+01  5.606133e+01
   endloop
 endfacet
 facet normal -6.817251e-01 -4.705608e-01  5.601995e-01
   outer loop
     vertex  1.014919e+02  6.740397e+01  5.606133e+01
     vertex  1.036872e+02  6.891248e+01  6.000000e+01
     vertex  1.020739e+02  7.124969e+01  6.000000e+01
   endloop
 endfacet
 facet normal -7.882329e-01 -1.799090e-01  5.884910e-01
   outer loop
     vertex  1.014919e+02  6.740397e+01  5.606133e+01
     vertex  1.023971e+02  6.343789e+01  5.606133e+01
     vertex  1.046942e+02  6.625711e+01  6.000000e+01
   endloop
 endfacet
 facet normal -7.814616e-01 -2.963693e-01  5.490746e-01
   outer loop
     vertex  1.014919e+02  6.740397e+01  5.606133e+01
     vertex  1.046942e+02  6.625711e+01  6.000000e+01
     vertex  1.036872e+02  6.891248e+01  6.000000e+01
   endloop
 endfacet
 facet normal -3.900683e-01 -7.432130e-01  5.435818e-01
   outer loop
     vertex  9.730979e+01  6.852092e+01  5.212266e+01
     vertex  9.462570e+01  6.704892e+01  4.818399e+01
     vertex  9.545008e+01  6.661625e+01  4.818399e+01
   endloop
 endfacet
 facet normal -5.496102e-01 -6.203816e-01  5.595134e-01
   outer loop
     vertex  9.730979e+01  6.852092e+01  5.212266e+01
     vertex  9.545008e+01  6.661625e+01  4.818399e+01
     vertex  9.614696e+01  6.599887e+01  4.818399e+01
   endloop
 endfacet
 facet normal -3.632328e-01 -7.542607e-01  5.469485e-01
   outer loop
     vertex  9.730979e+01  6.852092e+01  5.212266e+01
     vertex  9.895546e+01  7.058452e+01  5.606133e+01
     vertex  9.529025e+01  7.234959e+01  5.606133e+01
   endloop
 endfacet
 facet normal -3.667081e-01 -7.614772e-01  5.344883e-01
   outer loop
     vertex  9.730979e+01  6.852092e+01  5.212266e+01
     vertex  9.470292e+01  6.977632e+01  5.212266e+01
     vertex  9.462570e+01  6.704892e+01  4.818399e+01
   endloop
 endfacet
 facet normal -6.545229e-01 -5.219646e-01  5.469485e-01
   outer loop
     vertex  9.730979e+01  6.852092e+01  5.212266e+01
     vertex  1.014919e+02  6.740397e+01  5.606133e+01
     vertex  9.895546e+01  7.058452e+01  5.606133e+01
   endloop
 endfacet
 facet normal -3.632328e-01 -7.542607e-01  5.469485e-01
   outer loop
     vertex  9.730979e+01  6.852092e+01  5.212266e+01
     vertex  9.529025e+01  7.234959e+01  5.606133e+01
     vertex  9.470292e+01  6.977632e+01  5.212266e+01
   endloop
 endfacet
 facet normal -6.876894e-01 -4.746777e-01  5.493308e-01
   outer loop
     vertex  9.911381e+01  6.625876e+01  5.212266e+01
     vertex  9.614696e+01  6.599887e+01  4.818399e+01
     vertex  9.667584e+01  6.523265e+01  4.818399e+01
   endloop
 endfacet
 facet normal -7.763739e-01 -2.944398e-01  5.572690e-01
   outer loop
     vertex  9.911381e+01  6.625876e+01  5.212266e+01
     vertex  9.667584e+01  6.523265e+01  4.818399e+01
     vertex  9.700599e+01  6.436213e+01  4.818399e+01
   endloop
 endfacet
 facet normal -6.614820e-01 -5.275143e-01  5.330761e-01
   outer loop
     vertex  9.911381e+01  6.625876e+01  5.212266e+01
     vertex  9.730979e+01  6.852092e+01  5.212266e+01
     vertex  9.614696e+01  6.599887e+01  4.818399e+01
   endloop
 endfacet
 facet normal -8.161768e-01 -1.862870e-01  5.469485e-01
   outer loop
     vertex  9.911381e+01  6.625876e+01  5.212266e+01
     vertex  9.975765e+01  6.343789e+01  5.212266e+01
     vertex  1.023971e+02  6.343789e+01  5.606133e+01
   endloop
 endfacet
 facet normal -8.252892e-01 -1.883669e-01  5.323680e-01
   outer loop
     vertex  9.911381e+01  6.625876e+01  5.212266e+01
     vertex  9.700599e+01  6.436213e+01  4.818399e+01
     vertex  9.975765e+01  6.343789e+01  5.212266e+01
   endloop
 endfacet
 facet normal -8.161768e-01 -1.862870e-01  5.469485e-01
   outer loop
     vertex  9.911381e+01  6.625876e+01  5.212266e+01
     vertex  1.023971e+02  6.343789e+01  5.606133e+01
     vertex  1.014919e+02  6.740397e+01  5.606133e+01
   endloop
 endfacet
 facet normal -6.545229e-01 -5.219646e-01  5.469485e-01
   outer loop
     vertex  9.911381e+01  6.625876e+01  5.212266e+01
     vertex  1.014919e+02  6.740397e+01  5.606133e+01
     vertex  9.730979e+01  6.852092e+01  5.212266e+01
   endloop
 endfacet
 facet normal  0.000000e+00  0.000000e+00  1.000000e+00
   outer loop
     vertex  8.939421e+01  6.343789e+01  4.818399e+01
     vertex  8.983658e+01  6.523265e+01  4.818399e+01
     vertex  8.950644e+01  6.436213e+01  4.818399e+01
   endloop
 endfacet
 facet normal  0.000000e+00  0.000000e+00  1.000000e+00
   outer loop
     vertex  9.462570e+01  6.704892e+01  4.818399e+01
     vertex  9.372172e+01  6.727173e+01  4.818399e+01
     vertex  9.279070e+01  6.727173e+01  4.818399e+01
   endloop
 endfacet
 facet normal  0.000000e+00  0.000000e+00  1.000000e+00
   outer loop
     vertex  8.983658e+01  6.164313e+01  4.818399e+01
     vertex  8.939421e+01  6.343789e+01  4.818399e+01
     vertex  8.950644e+01  6.251365e+01  4.818399e+01
   endloop
 endfacet
 facet normal  0.000000e+00  0.000000e+00  1.000000e+00
   outer loop
     vertex  9.036546e+01  6.087691e+01  4.818399e+01
     vertex  8.983658e+01  6.523265e+01  4.818399e+01
     vertex  8.939421e+01  6.343789e+01  4.818399e+01
   endloop
 endfacet
 facet normal  0.000000e+00  0.000000e+00  1.000000e+00
   outer loop
     vertex  9.036546e+01  6.087691e+01  4.818399e+01
     vertex  8.939421e+01  6.343789e+01  4.818399e+01
     vertex  8.983658e+01  6.164313e+01  4.818399e+01
   endloop
 endfacet
 facet normal  0.000000e+00  0.000000e+00  1.000000e+00
   outer loop
     vertex  9.614696e+01  6.599887e+01  4.818399e+01
     vertex  9.545008e+01  6.661625e+01  4.818399e+01
     vertex  9.462570e+01  6.704892e+01  4.818399e+01
   endloop
 endfacet
 facet normal  0.000000e+00  0.000000e+00  1.000000e+00
   outer loop
     vertex  9.188673e+01  5.982686e+01  4.818399e+01
     vertex  9.036546e+01  6.087691e+01  4.818399e+01
     vertex  9.106235e+01  6.025953e+01  4.818399e+01
   endloop
 endfacet
 facet normal  0.000000e+00  0.000000e+00  1.000000e+00
   outer loop
     vertex  9.279070e+01  5.960405e+01  4.818399e+01
     vertex  9.036546e+01  6.599887e+01  4.818399e+01
     vertex  8.983658e+01  6.523265e+01  4.818399e+01
   endloop
 endfacet
 facet normal  0.000000e+00  0.000000e+00  1.000000e+00
   outer loop
     vertex  9.279070e+01  5.960405e+01  4.818399e+01
     vertex  9.106235e+01  6.661625e+01  4.818399e+01
     vertex  9.036546e+01  6.599887e+01  4.818399e+01
   endloop
 endfacet
 facet normal  0.000000e+00  0.000000e+00  1.000000e+00
   outer loop
     vertex  9.279070e+01  5.960405e+01  4.818399e+01
     vertex  9.188673e+01  6.704892e+01  4.818399e+01
     vertex  9.106235e+01  6.661625e+01  4.818399e+01
   endloop
 endfacet
 facet normal  0.000000e+00  0.000000e+00  1.000000e+00
   outer loop
     vertex  9.279070e+01  5.960405e+01  4.818399e+01
     vertex  9.279070e+01  6.727173e+01  4.818399e+01
     vertex  9.188673e+01  6.704892e+01  4.818399e+01
   endloop
 endfacet
 facet normal  0.000000e+00  0.000000e+00  1.000000e+00
   outer loop
     vertex  9.279070e+01  5.960405e+01  4.818399e+01
     vertex  8.983658e+01  6.523265e+01  4.818399e+01
     vertex  9.036546e+01  6.087691e+01  4.818399e+01
   endloop
 endfacet
 facet normal  0.000000e+00  0.000000e+00  1.000000e+00
   outer loop
     vertex  9.279070e+01  5.960405e+01  4.818399e+01
     vertex  9.036546e+01  6.087691e+01  4.818399e+01
     vertex  9.188673e+01  5.982686e+01  4.818399e+01
   endloop
 endfacet
 facet normal  0.000000e+00  0.000000e+00  1.000000e+00
   outer loop
     vertex  9.711821e+01  6.343789e+01  4.818399e+01
     vertex  9.667584e+01  6.523265e+01  4.818399e+01
     vertex  9.614696e+01  6.599887e+01  4.818399e+01
   endloop
 endfacet
 facet normal  0.000000e+00  0.000000e+00  1.000000e+00
   outer loop
     vertex  9.711821e+01  6.343789e+01  4.818399e+01
     vertex  9.700599e+01  6.436213e+01  4.818399e+01
     vertex  9.667584e+01  6.523265e+01  4.818399e+01
   endloop
 endfacet
 facet normal  0.000000e+00  0.000000e+00  1.000000e+00
   outer loop
     vertex  9.372172e+01  5.960405e+01  4.818399e+01
     vertex  9.279070e+01  6.727173e+01  4.818399e+01
     vertex  9.279070e+01  5.960405e+01  4.818399e+01
   endloop
 endfacet
 facet normal  0.000000e+00 -0.000000e+00  1.000000e+00
   outer loop
     vertex  9.372172e+01  5.960405e+01  4.818399e+01
     vertex  9.462570e+01  6.704892e+01  4.818399e+01
     vertex  9.279070e+01  6.727173e+01  4.818399e+01
   endloop
 endfacet
 facet normal  0.000000e+00  0.000000e+00  1.000000e+00
   outer loop
     vertex  9.545008e+01  6.025953e+01  4.818399e+01
     vertex  9.372172e+01  5.960405e+01  4.818399e+01
     vertex  9.462570e+01  5.982686e+01  4.818399e+01
   endloop
 endfacet
 facet normal  0.000000e+00  0.000000e+00  1.000000e+00
   outer loop
     vertex  9.545008e+01  6.025953e+01  4.818399e+01
     vertex  9.462570e+01  6.704892e+01  4.818399e+01
     vertex  9.372172e+01  5.960405e+01  4.818399e+01
   endloop
 endfacet
 facet normal  0.000000e+00  0.000000e+00  1.000000e+00
   outer loop
     vertex  9.614696e+01  6.087691e+01  4.818399e+01
     vertex  9.700599e+01  6.251365e+01  4.818399e+01
     vertex  9.711821e+01  6.343789e+01  4.818399e+01
   endloop
 endfacet
 facet normal  0.000000e+00  0.000000e+00  1.000000e+00
   outer loop
     vertex  9.614696e+01  6.087691e+01  4.818399e+01
     vertex  9.667584e+01  6.164313e+01  4.818399e+01
     vertex  9.700599e+01  6.251365e+01  4.818399e+01
   endloop
 endfacet
 facet normal  0.000000e+00  0.000000e+00  1.000000e+00
   outer loop
     vertex  9.614696e+01  6.087691e+01  4.818399e+01
     vertex  9.614696e+01  6.599887e+01  4.818399e+01
     vertex  9.462570e+01  6.704892e+01  4.818399e+01
   endloop
 endfacet
 facet normal  0.000000e+00 -0.000000e+00  1.000000e+00
   outer loop
     vertex  9.614696e+01  6.087691e+01  4.818399e+01
     vertex  9.711821e+01  6.343789e+01  4.818399e+01
     vertex  9.614696e+01  6.599887e+01  4.818399e+01
   endloop
 endfacet
 facet normal  0.000000e+00  0.000000e+00  1.000000e+00
   outer loop
     vertex  9.614696e+01  6.087691e+01  4.818399e+01
     vertex  9.462570e+01  6.704892e+01  4.818399e+01
     vertex  9.545008e+01  6.025953e+01  4.818399e+01
   endloop
 endfacet
endsolid
