solid 
 facet normal -1.000000e+00  0.000000e+00  0.000000e+00
   outer loop
     vertex  0.000000e+00  0.000000e+00  6.000000e+01
     vertex  0.000000e+00  9.160049e+01  0.000000e+00
     vertex  0.000000e+00  0.000000e+00  0.000000e+00
   endloop
 endfacet
 facet normal -1.000000e+00  0.000000e+00  0.000000e+00
   outer loop
     vertex  0.000000e+00  0.000000e+00  6.000000e+01
     vertex  0.000000e+00  9.160049e+01  6.000000e+01
     vertex  0.000000e+00  9.160049e+01  0.000000e+00
   endloop
 endfacet
 facet normal  0.000000e+00 -1.000000e+00  0.000000e+00
   outer loop
     vertex  1.344708e+02  0.000000e+00  0.000000e+00
     vertex  0.000000e+00  0.000000e+00  6.000000e+01
     vertex  0.000000e+00  0.000000e+00  0.000000e+00
   endloop
 endfacet
 facet normal -0.000000e+00 -1.000000e+00 -0.000000e+00
   outer loop
     vertex  1.344708e+02  0.000000e+00  6.000000e+01
     vertex  0.000000e+00  0.000000e+00  6.000000e+01
     vertex  1.344708e+02  0.000000e+00  0.000000e+00
   endloop
 endfacet
 facet normal  0.000000e+00  0.000000e+00  1.000000e+00
   outer loop
     vertex  1.682500e+01  4.524639e+01  6.000000e+01
     vertex  1.529656e+01  4.660047e+01  6.000000e+01
     vertex  0.000000e+00  0.000000e+00  6.000000e+01
   endloop
 endfacet
 facet normal  0.000000e+00  0.000000e+00  1.000000e+00
   outer loop
     vertex  1.413659e+01  4.828097e+01  6.000000e+01
     vertex  0.000000e+00  0.000000e+00  6.000000e+01
     vertex  1.529656e+01  4.660047e+01  6.000000e+01
   endloop
 endfacet
 facet normal  0.000000e+00  0.000000e+00  1.000000e+00
   outer loop
     vertex  1.863307e+01  4.429744e+01  6.000000e+01
     vertex  1.682500e+01  4.524639e+01  6.000000e+01
     vertex  0.000000e+00  0.000000e+00  6.000000e+01
   endloop
 endfacet
 facet normal  0.000000e+00  0.000000e+00  1.000000e+00
   outer loop
     vertex  1.341249e+01  5.019025e+01  6.000000e+01
     vertex  0.000000e+00  0.000000e+00  6.000000e+01
     vertex  1.413659e+01  4.828097e+01  6.000000e+01
   endloop
 endfacet
 facet normal  0.000000e+00  0.000000e+00  1.000000e+00
   outer loop
     vertex  2.061571e+01  4.380876e+01  6.000000e+01
     vertex  1.863307e+01  4.429744e+01  6.000000e+01
     vertex  0.000000e+00  0.000000e+00  6.000000e+01
   endloop
 endfacet
 facet normal  0.000000e+00  0.000000e+00  1.000000e+00
   outer loop
     vertex  1.316636e+01  5.221733e+01  6.000000e+01
     vertex  0.000000e+00  0.000000e+00  6.000000e+01
     vertex  1.341249e+01  5.019025e+01  6.000000e+01
   endloop
 endfacet
 facet normal  0.000000e+00  0.000000e+00  1.000000e+00
   outer loop
     vertex  2.265768e+01  4.380876e+01  6.000000e+01
     vertex  2.061571e+01  4.380876e+01  6.000000e+01
     vertex  0.000000e+00  0.000000e+00  6.000000e+01
   endloop
 endfacet
 facet normal  0.000000e+00  0.000000e+00  1.000000e+00
   outer loop
     vertex  2.464031e+01  4.429744e+01  6.000000e+01
     vertex  2.265768e+01  4.380876e+01  6.000000e+01
     vertex  0.000000e+00  0.000000e+00  6.000000e+01
   endloop
 endfacet
 facet normal  0.000000e+00  0.000000e+00  1.000000e+00
   outer loop
     vertex  2.644839e+01  4.524639e+01  6.000000e+01
     vertex  2.464031e+01  4.429744e+01  6.000000e+01
     vertex  0.000000e+00  0.000000e+00  6.000000e+01
   endloop
 endfacet
 facet normal  0.000000e+00  0.000000e+00  1.000000e+00
   outer loop
     vertex  0.000000e+00  9.160049e+01  6.000000e+01
     vertex  1.316636e+01  5.221733e+01  6.000000e+01
     vertex  1.341249e+01  5.424441e+01  6.000000e+01
   endloop
 endfacet
 facet normal  0.000000e+00  0.000000e+00  1.000000e+00
   outer loop
     vertex  0.000000e+00  9.160049e+01  6.000000e+01
     vertex  1.341249e+01  5.424441e+01  6.000000e+01
     vertex  1.413659e+01  5.615369e+01  6.000000e+01
   endloop
 endfacet
 facet normal  0.000000e+00  0.000000e+00  1.000000e+00
   outer loop
     vertex  0.000000e+00  9.160049e+01  6.000000e+01
     vertex  1.413659e+01  5.615369e+01  6.000000e+01
     vertex  1.529656e+01  5.783420e+01  6.000000e+01
   endloop
 endfacet
 facet normal  0.000000e+00  0.000000e+00  1.000000e+00
   outer loop
     vertex  0.000000e+00  9.160049e+01  6.000000e+01
     vertex  1.529656e+01  5.783420e+01  6.000000e+01
     vertex  1.682500e+01  5.918828e+01  6.000000e+01
   endloop
 endfacet
 facet normal  0.000000e+00  0.000000e+00  1.000000e+00
   outer loop
     vertex  0.000000e+00  9.160049e+01  6.000000e+01
     vertex  1.682500e+01  5.918828e+01  6.000000e+01
     vertex  1.863307e+01  6.013723e+01  6.000000e+01
   endloop
 endfacet
 facet normal  0.000000e+00  0.000000e+00  1.000000e+00
   outer loop
     vertex  0.000000e+00  9.160049e+01  6.000000e+01
     vertex  1.863307e+01  6.013723e+01  6.000000e+01
     vertex  2.061571e+01  6.062590e+01  6.000000e+01
   endloop
 endfacet
 facet normal  0.000000e+00  0.000000e+00  1.000000e+00
   outer loop
     vertex  0.000000e+00  9.160049e+01  6.000000e+01
     vertex  2.061571e+01  6.062590e+01  6.000000e+01
     vertex  2.265768e+01  6.062590e+01  6.000000e+01
   endloop
 endfacet
 facet normal  0.000000e+00  0.000000e+00  1.000000e+00
   outer loop
     vertex  0.000000e+00  9.160049e+01  6.000000e+01
     vertex  2.265768e+01  6.062590e+01  6.000000e+01
     vertex  2.464031e+01  6.013723e+01  6.000000e+01
   endloop
 endfacet
 facet normal  0.000000e+00  0.000000e+00  1.000000e+00
   outer loop
     vertex  0.000000e+00  9.160049e+01  6.000000e+01
     vertex  2.464031e+01  6.013723e+01  6.000000e+01
     vertex  2.644839e+01  5.918828e+01  6.000000e+01
   endloop
 endfacet
 facet normal  0.000000e+00  0.000000e+00  1.000000e+00
   outer loop
     vertex  0.000000e+00  9.160049e+01  6.000000e+01
     vertex  0.000000e+00  0.000000e+00  6.000000e+01
     vertex  1.316636e+01  5.221733e+01  6.000000e+01
   endloop
 endfacet
 facet normal  0.000000e+00  0.000000e+00  1.000000e+00
   outer loop
     vertex  1.344708e+02  0.000000e+00  6.000000e+01
     vertex  3.010702e+01  5.221733e+01  6.000000e+01
     vertex  2.986089e+01  5.019025e+01  6.000000e+01
   endloop
 endfacet
 facet normal  0.000000e+00  0.000000e+00  1.000000e+00
   outer loop
     vertex  1.344708e+02  0.000000e+00  6.000000e+01
     vertex  2.986089e+01  5.019025e+01  6.000000e+01
     vertex  2.913680e+01  4.828097e+01  6.000000e+01
   endloop
 endfacet
 facet normal  0.000000e+00  0.000000e+00  1.000000e+00
   outer loop
     vertex  1.344708e+02  0.000000e+00  6.000000e+01
     vertex  2.913680e+01  4.828097e+01  6.000000e+01
     vertex  2.797682e+01  4.660047e+01  6.000000e+01
   endloop
 endfacet
 facet normal  0.000000e+00  0.000000e+00  1.000000e+00
   outer loop
     vertex  1.344708e+02  0.000000e+00  6.000000e+01
     vertex  2.797682e+01  4.660047e+01  6.000000e+01
     vertex  2.644839e+01  4.524639e+01  6.000000e+01
   endloop
 endfacet
 facet normal  0.000000e+00  0.000000e+00  1.000000e+00
   outer loop
     vertex  1.344708e+02  0.000000e+00  6.000000e+01
     vertex  2.644839e+01  4.524639e+01  6.000000e+01
     vertex  0.000000e+00  0.000000e+00  6.000000e+01
   endloop
 endfacet
 facet normal  0.000000e+00  0.000000e+00  1.000000e+00
   outer loop
     vertex  1.344708e+02  9.160049e+01  6.000000e+01
     vertex  2.644839e+01  5.918828e+01  6.000000e+01
     vertex  2.797682e+01  5.783420e+01  6.000000e+01
   endloop
 endfacet
 facet normal  0.000000e+00  0.000000e+00  1.000000e+00
   outer loop
     vertex  1.344708e+02  9.160049e+01  6.000000e+01
     vertex  2.797682e+01  5.783420e+01  6.000000e+01
     vertex  2.913680e+01  5.615369e+01  6.000000e+01
   endloop
 endfacet
 facet normal  0.000000e+00  0.000000e+00  1.000000e+00
   outer loop
     vertex  1.344708e+02  9.160049e+01  6.000000e+01
     vertex  2.913680e+01  5.615369e+01  6.000000e+01
     vertex  2.986089e+01  5.424441e+01  6.000000e+01
   endloop
 endfacet
 facet normal  0.000000e+00  0.000000e+00  1.000000e+00
   outer loop
     vertex  1.344708e+02  9.160049e+01  6.000000e+01
     vertex  2.986089e+01  5.424441e+01  6.000000e+01
     vertex  3.010702e+01  5.221733e+01  6.000000e+01
   endloop
 endfacet
 facet normal  0.000000e+00  0.000000e+00  1.000000e+00
   outer loop
     vertex  1.344708e+02  9.160049e+01  6.000000e+01
     vertex  3.010702e+01  5.221733e+01  6.000000e+01
     vertex  1.344708e+02  0.000000e+00  6.000000e+01
   endloop
 endfacet
 facet normal  0.000000e+00  0.000000e+00  1.000000e+00
   outer loop
     vertex  1.344708e+02  9.160049e+01  6.000000e+01
     vertex  0.000000e+00  9.160049e+01  6.000000e+01
     vertex  2.644839e+01  5.918828e+01  6.000000e+01
   endloop
 endfacet
 facet normal  0.000000e+00  1.000000e+00  0.000000e+00
   outer loop
     vertex  1.344708e+02  9.160049e+01  0.000000e+00
     vertex  0.000000e+00  9.160049e+01  0.000000e+00
     vertex  0.000000e+00  9.160049e+01  6.000000e+01
   endloop
 endfacet
 facet normal  0.000000e+00  1.000000e+00  0.000000e+00
   outer loop
     vertex  1.344708e+02  9.160049e+01  6.000000e+01
     vertex  1.344708e+02  9.160049e+01  0.000000e+00
     vertex  0.000000e+00  9.160049e+01  6.000000e+01
   endloop
 endfacet
 facet normal -0.000000e+00  0.000000e+00 -1.000000e+00
   outer loop
     vertex  1.344708e+02  9.160049e+01  0.000000e+00
     vertex  0.000000e+00  0.000000e+00  0.000000e+00
     vertex  0.000000e+00  9.160049e+01  0.000000e+00
   endloop
 endfacet
 facet normal  0.000000e+00 -0.000000e+00 -1.000000e+00
   outer loop
     vertex  1.344708e+02  9.160049e+01  0.000000e+00
     vertex  1.344708e+02  0.000000e+00  0.000000e+00
     vertex  0.000000e+00  0.000000e+00  0.000000e+00
   endloop
 endfacet
 facet normal  1.000000e+00  0.000000e+00  0.000000e+00
   outer loop
     vertex  1.344708e+02  0.000000e+00  6.000000e+01
     vertex  1.344708e+02  0.000000e+00  0.000000e+00
     vertex  1.344708e+02  9.160049e+01  0.000000e+00
   endloop
 endfacet
 facet normal  1.000000e+00 -0.000000e+00  0.000000e+00
   outer loop
     vertex  1.344708e+02  0.000000e+00  6.000000e+01
     vertex  1.344708e+02  9.160049e+01  0.000000e+00
     vertex  1.344708e+02  9.160049e+01  6.000000e+01
   endloop
 endfacet
 facet normal -8.841434e-01  1.073544e-01  4.547147e-01
   outer loop
     vertex  2.808129e+01  5.221733e+01  5.606120e+01
     vertex  2.986089e+01  5.019025e+01  6.000000e+01
     vertex  3.010702e+01  5.221733e+01  6.000000e+01
   endloop
 endfacet
 facet normal -8.841434e-01  1.073544e-01  4.547147e-01
   outer loop
     vertex  2.396030e+01  5.164461e+01  4.818359e+01
     vertex  2.605557e+01  5.221733e+01  5.212239e+01
     vertex  2.402984e+01  5.221733e+01  4.818359e+01
   endloop
 endfacet
 facet normal -8.841434e-01 -1.073544e-01  4.547147e-01
   outer loop
     vertex  2.808129e+01  5.221733e+01  5.606120e+01
     vertex  3.010702e+01  5.221733e+01  6.000000e+01
     vertex  2.986089e+01  5.424441e+01  6.000000e+01
   endloop
 endfacet
 facet normal -8.841434e-01 -1.073544e-01  4.547147e-01
   outer loop
     vertex  2.402984e+01  5.221733e+01  4.818359e+01
     vertex  2.605557e+01  5.221733e+01  5.212239e+01
     vertex  2.396030e+01  5.279005e+01  4.818359e+01
   endloop
 endfacet
 facet normal -8.327602e-01  3.158243e-01  4.547147e-01
   outer loop
     vertex  2.734310e+01  4.922238e+01  5.606120e+01
     vertex  2.913680e+01  4.828097e+01  6.000000e+01
     vertex  2.986089e+01  5.019025e+01  6.000000e+01
   endloop
 endfacet
 facet normal -7.329800e-01  5.059396e-01  4.547147e-01
   outer loop
     vertex  2.734310e+01  4.922238e+01  5.606120e+01
     vertex  2.797682e+01  4.660047e+01  6.000000e+01
     vertex  2.913680e+01  4.828097e+01  6.000000e+01
   endloop
 endfacet
 facet normal -8.464863e-01  2.086401e-01  4.898268e-01
   outer loop
     vertex  2.734310e+01  4.922238e+01  5.606120e+01
     vertex  2.986089e+01  5.019025e+01  6.000000e+01
     vertex  2.808129e+01  5.221733e+01  5.606120e+01
   endloop
 endfacet
 facet normal -6.525665e-01  5.781234e-01  4.898268e-01
   outer loop
     vertex  2.529764e+01  4.691353e+01  5.606120e+01
     vertex  2.797682e+01  4.660047e+01  6.000000e+01
     vertex  2.734310e+01  4.922238e+01  5.606120e+01
   endloop
 endfacet
 facet normal -5.906017e-01  6.666515e-01  4.547147e-01
   outer loop
     vertex  2.529764e+01  4.691353e+01  5.606120e+01
     vertex  2.644839e+01  4.524639e+01  6.000000e+01
     vertex  2.797682e+01  4.660047e+01  6.000000e+01
   endloop
 endfacet
 facet normal -4.138997e-01  7.886201e-01  4.547147e-01
   outer loop
     vertex  2.529764e+01  4.691353e+01  5.606120e+01
     vertex  2.464031e+01  4.429744e+01  6.000000e+01
     vertex  2.644839e+01  4.524639e+01  6.000000e+01
   endloop
 endfacet
 facet normal -8.327602e-01  3.158243e-01  4.547147e-01
   outer loop
     vertex  2.554941e+01  5.016378e+01  5.212239e+01
     vertex  2.396030e+01  5.164461e+01  4.818359e+01
     vertex  2.375572e+01  5.110518e+01  4.818359e+01
   endloop
 endfacet
 facet normal -7.329800e-01  5.059396e-01  4.547147e-01
   outer loop
     vertex  2.554941e+01  5.016378e+01  5.212239e+01
     vertex  2.375572e+01  5.110518e+01  4.818359e+01
     vertex  2.342799e+01  5.063038e+01  4.818359e+01
   endloop
 endfacet
 facet normal -8.686607e-01  2.141056e-01  4.467519e-01
   outer loop
     vertex  2.554941e+01  5.016378e+01  5.212239e+01
     vertex  2.734310e+01  4.922238e+01  5.606120e+01
     vertex  2.808129e+01  5.221733e+01  5.606120e+01
   endloop
 endfacet
 facet normal -8.686607e-01  2.141056e-01  4.467519e-01
   outer loop
     vertex  2.554941e+01  5.016378e+01  5.212239e+01
     vertex  2.808129e+01  5.221733e+01  5.606120e+01
     vertex  2.605557e+01  5.221733e+01  5.212239e+01
   endloop
 endfacet
 facet normal -8.747455e-01  2.156054e-01  4.339753e-01
   outer loop
     vertex  2.554941e+01  5.016378e+01  5.212239e+01
     vertex  2.605557e+01  5.221733e+01  5.212239e+01
     vertex  2.396030e+01  5.164461e+01  4.818359e+01
   endloop
 endfacet
 facet normal -2.131434e-01  8.647569e-01  4.547147e-01
   outer loop
     vertex  2.241350e+01  4.581972e+01  5.606120e+01
     vertex  2.265768e+01  4.380876e+01  6.000000e+01
     vertex  2.464031e+01  4.429744e+01  6.000000e+01
   endloop
 endfacet
 facet normal  0.000000e+00  8.906372e-01  4.547147e-01
   outer loop
     vertex  2.241350e+01  4.581972e+01  5.606120e+01
     vertex  2.061571e+01  4.380876e+01  6.000000e+01
     vertex  2.265768e+01  4.380876e+01  6.000000e+01
   endloop
 endfacet
 facet normal -3.091515e-01  8.151656e-01  4.898268e-01
   outer loop
     vertex  2.241350e+01  4.581972e+01  5.606120e+01
     vertex  2.464031e+01  4.429744e+01  6.000000e+01
     vertex  2.529764e+01  4.691353e+01  5.606120e+01
   endloop
 endfacet
 facet normal -5.906017e-01  6.666515e-01  4.547147e-01
   outer loop
     vertex  2.414690e+01  4.858067e+01  5.212239e+01
     vertex  2.342799e+01  5.063038e+01  4.818359e+01
     vertex  2.299616e+01  5.024781e+01  4.818359e+01
   endloop
 endfacet
 facet normal -4.138997e-01  7.886201e-01  4.547147e-01
   outer loop
     vertex  2.414690e+01  4.858067e+01  5.212239e+01
     vertex  2.299616e+01  5.024781e+01  4.818359e+01
     vertex  2.248531e+01  4.997970e+01  4.818359e+01
   endloop
 endfacet
 facet normal -6.743519e-01  5.974236e-01  4.339753e-01
   outer loop
     vertex  2.414690e+01  4.858067e+01  5.212239e+01
     vertex  2.554941e+01  5.016378e+01  5.212239e+01
     vertex  2.342799e+01  5.063038e+01  4.818359e+01
   endloop
 endfacet
 facet normal -6.696610e-01  5.932679e-01  4.467519e-01
   outer loop
     vertex  2.414690e+01  4.858067e+01  5.212239e+01
     vertex  2.529764e+01  4.691353e+01  5.606120e+01
     vertex  2.734310e+01  4.922238e+01  5.606120e+01
   endloop
 endfacet
 facet normal -6.696610e-01  5.932679e-01  4.467519e-01
   outer loop
     vertex  2.414690e+01  4.858067e+01  5.212239e+01
     vertex  2.734310e+01  4.922238e+01  5.606120e+01
     vertex  2.554941e+01  5.016378e+01  5.212239e+01
   endloop
 endfacet
 facet normal  2.131434e-01  8.647569e-01  4.547147e-01
   outer loop
     vertex  1.935140e+01  4.619152e+01  5.606120e+01
     vertex  1.863307e+01  4.429744e+01  6.000000e+01
     vertex  2.061571e+01  4.380876e+01  6.000000e+01
   endloop
 endfacet
 facet normal  4.138997e-01  7.886201e-01  4.547147e-01
   outer loop
     vertex  1.935140e+01  4.619152e+01  5.606120e+01
     vertex  1.682500e+01  4.524639e+01  6.000000e+01
     vertex  1.863307e+01  4.429744e+01  6.000000e+01
   endloop
 endfacet
 facet normal  1.050863e-01  8.654632e-01  4.898268e-01
   outer loop
     vertex  1.935140e+01  4.619152e+01  5.606120e+01
     vertex  2.061571e+01  4.380876e+01  6.000000e+01
     vertex  2.241350e+01  4.581972e+01  5.606120e+01
   endloop
 endfacet
 facet normal -2.131434e-01  8.647569e-01  4.547147e-01
   outer loop
     vertex  2.216933e+01  4.783067e+01  5.212239e+01
     vertex  2.248531e+01  4.997970e+01  4.818359e+01
     vertex  2.192515e+01  4.984163e+01  4.818359e+01
   endloop
 endfacet
 facet normal  0.000000e+00  8.906372e-01  4.547147e-01
   outer loop
     vertex  2.216933e+01  4.783067e+01  5.212239e+01
     vertex  2.192515e+01  4.984163e+01  4.818359e+01
     vertex  2.134823e+01  4.984163e+01  4.818359e+01
   endloop
 endfacet
 facet normal -3.172501e-01  8.365196e-01  4.467519e-01
   outer loop
     vertex  2.216933e+01  4.783067e+01  5.212239e+01
     vertex  2.241350e+01  4.581972e+01  5.606120e+01
     vertex  2.529764e+01  4.691353e+01  5.606120e+01
   endloop
 endfacet
 facet normal -3.194723e-01  8.423793e-01  4.339753e-01
   outer loop
     vertex  2.216933e+01  4.783067e+01  5.212239e+01
     vertex  2.414690e+01  4.858067e+01  5.212239e+01
     vertex  2.248531e+01  4.997970e+01  4.818359e+01
   endloop
 endfacet
 facet normal -3.172501e-01  8.365196e-01  4.467519e-01
   outer loop
     vertex  2.216933e+01  4.783067e+01  5.212239e+01
     vertex  2.529764e+01  4.691353e+01  5.606120e+01
     vertex  2.414690e+01  4.858067e+01  5.212239e+01
   endloop
 endfacet
 facet normal  4.952501e-01  7.174936e-01  4.898268e-01
   outer loop
     vertex  1.681284e+01  4.794377e+01  5.606120e+01
     vertex  1.682500e+01  4.524639e+01  6.000000e+01
     vertex  1.935140e+01  4.619152e+01  5.606120e+01
   endloop
 endfacet
 facet normal  5.906017e-01  6.666515e-01  4.547147e-01
   outer loop
     vertex  1.681284e+01  4.794377e+01  5.606120e+01
     vertex  1.529656e+01  4.660047e+01  6.000000e+01
     vertex  1.682500e+01  4.524639e+01  6.000000e+01
   endloop
 endfacet
 facet normal  7.329800e-01  5.059396e-01  4.547147e-01
   outer loop
     vertex  1.681284e+01  4.794377e+01  5.606120e+01
     vertex  1.413659e+01  4.828097e+01  6.000000e+01
     vertex  1.529656e+01  4.660047e+01  6.000000e+01
   endloop
 endfacet
 facet normal  1.085945e-01  8.943560e-01  4.339753e-01
   outer loop
     vertex  2.006974e+01  4.808561e+01  5.212239e+01
     vertex  2.216933e+01  4.783067e+01  5.212239e+01
     vertex  2.134823e+01  4.984163e+01  4.818359e+01
   endloop
 endfacet
 facet normal  2.131434e-01  8.647569e-01  4.547147e-01
   outer loop
     vertex  2.006974e+01  4.808561e+01  5.212239e+01
     vertex  2.134823e+01  4.984163e+01  4.818359e+01
     vertex  2.078807e+01  4.997970e+01  4.818359e+01
   endloop
 endfacet
 facet normal  4.138997e-01  7.886201e-01  4.547147e-01
   outer loop
     vertex  2.006974e+01  4.808561e+01  5.212239e+01
     vertex  2.078807e+01  4.997970e+01  4.818359e+01
     vertex  2.027723e+01  5.024781e+01  4.818359e+01
   endloop
 endfacet
 facet normal  1.078391e-01  8.881348e-01  4.467519e-01
   outer loop
     vertex  2.006974e+01  4.808561e+01  5.212239e+01
     vertex  1.935140e+01  4.619152e+01  5.606120e+01
     vertex  2.241350e+01  4.581972e+01  5.606120e+01
   endloop
 endfacet
 facet normal  1.078391e-01  8.881348e-01  4.467519e-01
   outer loop
     vertex  2.006974e+01  4.808561e+01  5.212239e+01
     vertex  2.241350e+01  4.581972e+01  5.606120e+01
     vertex  2.216933e+01  4.783067e+01  5.212239e+01
   endloop
 endfacet
 facet normal  8.327602e-01  3.158243e-01  4.547147e-01
   outer loop
     vertex  1.537936e+01  5.067504e+01  5.606120e+01
     vertex  1.341249e+01  5.019025e+01  6.000000e+01
     vertex  1.413659e+01  4.828097e+01  6.000000e+01
   endloop
 endfacet
 facet normal  8.841434e-01  1.073544e-01  4.547147e-01
   outer loop
     vertex  1.537936e+01  5.067504e+01  5.606120e+01
     vertex  1.316636e+01  5.221733e+01  6.000000e+01
     vertex  1.341249e+01  5.019025e+01  6.000000e+01
   endloop
 endfacet
 facet normal  7.719581e-01  4.051548e-01  4.898268e-01
   outer loop
     vertex  1.537936e+01  5.067504e+01  5.606120e+01
     vertex  1.413659e+01  4.828097e+01  6.000000e+01
     vertex  1.681284e+01  4.794377e+01  5.606120e+01
   endloop
 endfacet
 facet normal  5.906017e-01  6.666515e-01  4.547147e-01
   outer loop
     vertex  1.832911e+01  4.928707e+01  5.212239e+01
     vertex  2.027723e+01  5.024781e+01  4.818359e+01
     vertex  1.984539e+01  5.063038e+01  4.818359e+01
   endloop
 endfacet
 facet normal  7.329800e-01  5.059396e-01  4.547147e-01
   outer loop
     vertex  1.832911e+01  4.928707e+01  5.212239e+01
     vertex  1.984539e+01  5.063038e+01  4.818359e+01
     vertex  1.951766e+01  5.110518e+01  4.818359e+01
   endloop
 endfacet
 facet normal  5.082236e-01  7.362890e-01  4.467519e-01
   outer loop
     vertex  1.832911e+01  4.928707e+01  5.212239e+01
     vertex  1.935140e+01  4.619152e+01  5.606120e+01
     vertex  2.006974e+01  4.808561e+01  5.212239e+01
   endloop
 endfacet
 facet normal  5.082236e-01  7.362890e-01  4.467519e-01
   outer loop
     vertex  1.832911e+01  4.928707e+01  5.212239e+01
     vertex  1.681284e+01  4.794377e+01  5.606120e+01
     vertex  1.935140e+01  4.619152e+01  5.606120e+01
   endloop
 endfacet
 facet normal  7.921802e-01  4.157682e-01  4.467519e-01
   outer loop
     vertex  1.832911e+01  4.928707e+01  5.212239e+01
     vertex  1.537936e+01  5.067504e+01  5.606120e+01
     vertex  1.681284e+01  4.794377e+01  5.606120e+01
   endloop
 endfacet
 facet normal  5.117836e-01  7.414466e-01  4.339753e-01
   outer loop
     vertex  1.832911e+01  4.928707e+01  5.212239e+01
     vertex  2.006974e+01  4.808561e+01  5.212239e+01
     vertex  2.027723e+01  5.024781e+01  4.818359e+01
   endloop
 endfacet
 facet normal  8.718198e-01  0.000000e+00  4.898268e-01
   outer loop
     vertex  1.537936e+01  5.375963e+01  5.606120e+01
     vertex  1.316636e+01  5.221733e+01  6.000000e+01
     vertex  1.537936e+01  5.067504e+01  5.606120e+01
   endloop
 endfacet
 facet normal  8.841434e-01 -1.073544e-01  4.547147e-01
   outer loop
     vertex  1.537936e+01  5.375963e+01  5.606120e+01
     vertex  1.341249e+01  5.424441e+01  6.000000e+01
     vertex  1.316636e+01  5.221733e+01  6.000000e+01
   endloop
 endfacet
 facet normal  8.327602e-01 -3.158243e-01  4.547147e-01
   outer loop
     vertex  1.537936e+01  5.375963e+01  5.606120e+01
     vertex  1.413659e+01  5.615369e+01  6.000000e+01
     vertex  1.341249e+01  5.424441e+01  6.000000e+01
   endloop
 endfacet
 facet normal  8.327602e-01  3.158243e-01  4.547147e-01
   outer loop
     vertex  1.734622e+01  5.115983e+01  5.212239e+01
     vertex  1.951766e+01  5.110518e+01  4.818359e+01
     vertex  1.931308e+01  5.164461e+01  4.818359e+01
   endloop
 endfacet
 facet normal  8.841434e-01  1.073544e-01  4.547147e-01
   outer loop
     vertex  1.734622e+01  5.115983e+01  5.212239e+01
     vertex  1.931308e+01  5.164461e+01  4.818359e+01
     vertex  1.924354e+01  5.221733e+01  4.818359e+01
   endloop
 endfacet
 facet normal  8.946579e-01  0.000000e+00  4.467519e-01
   outer loop
     vertex  1.734622e+01  5.115983e+01  5.212239e+01
     vertex  1.537936e+01  5.375963e+01  5.606120e+01
     vertex  1.537936e+01  5.067504e+01  5.606120e+01
   endloop
 endfacet
 facet normal  7.921802e-01  4.157682e-01  4.467519e-01
   outer loop
     vertex  1.734622e+01  5.115983e+01  5.212239e+01
     vertex  1.537936e+01  5.067504e+01  5.606120e+01
     vertex  1.832911e+01  4.928707e+01  5.212239e+01
   endloop
 endfacet
 facet normal  7.977293e-01  4.186806e-01  4.339753e-01
   outer loop
     vertex  1.734622e+01  5.115983e+01  5.212239e+01
     vertex  1.832911e+01  4.928707e+01  5.212239e+01
     vertex  1.951766e+01  5.110518e+01  4.818359e+01
   endloop
 endfacet
 facet normal  7.719581e-01 -4.051548e-01  4.898268e-01
   outer loop
     vertex  1.681284e+01  5.649090e+01  5.606120e+01
     vertex  1.413659e+01  5.615369e+01  6.000000e+01
     vertex  1.537936e+01  5.375963e+01  5.606120e+01
   endloop
 endfacet
 facet normal  7.329800e-01 -5.059396e-01  4.547147e-01
   outer loop
     vertex  1.681284e+01  5.649090e+01  5.606120e+01
     vertex  1.529656e+01  5.783420e+01  6.000000e+01
     vertex  1.413659e+01  5.615369e+01  6.000000e+01
   endloop
 endfacet
 facet normal  5.906017e-01 -6.666515e-01  4.547147e-01
   outer loop
     vertex  1.681284e+01  5.649090e+01  5.606120e+01
     vertex  1.682500e+01  5.918828e+01  6.000000e+01
     vertex  1.529656e+01  5.783420e+01  6.000000e+01
   endloop
 endfacet
 facet normal  8.841434e-01 -1.073544e-01  4.547147e-01
   outer loop
     vertex  1.734622e+01  5.327484e+01  5.212239e+01
     vertex  1.924354e+01  5.221733e+01  4.818359e+01
     vertex  1.931308e+01  5.279005e+01  4.818359e+01
   endloop
 endfacet
 facet normal  8.327602e-01 -3.158243e-01  4.547147e-01
   outer loop
     vertex  1.734622e+01  5.327484e+01  5.212239e+01
     vertex  1.931308e+01  5.279005e+01  4.818359e+01
     vertex  1.951766e+01  5.332949e+01  4.818359e+01
   endloop
 endfacet
 facet normal  9.009248e-01  1.513337e-15  4.339753e-01
   outer loop
     vertex  1.734622e+01  5.327484e+01  5.212239e+01
     vertex  1.734622e+01  5.115983e+01  5.212239e+01
     vertex  1.924354e+01  5.221733e+01  4.818359e+01
   endloop
 endfacet
 facet normal  8.946579e-01  1.502810e-15  4.467519e-01
   outer loop
     vertex  1.734622e+01  5.327484e+01  5.212239e+01
     vertex  1.537936e+01  5.375963e+01  5.606120e+01
     vertex  1.734622e+01  5.115983e+01  5.212239e+01
   endloop
 endfacet
 facet normal  4.138997e-01 -7.886201e-01  4.547147e-01
   outer loop
     vertex  1.935140e+01  5.824314e+01  5.606120e+01
     vertex  1.863307e+01  6.013723e+01  6.000000e+01
     vertex  1.682500e+01  5.918828e+01  6.000000e+01
   endloop
 endfacet
 facet normal  2.131434e-01 -8.647569e-01  4.547147e-01
   outer loop
     vertex  1.935140e+01  5.824314e+01  5.606120e+01
     vertex  2.061571e+01  6.062590e+01  6.000000e+01
     vertex  1.863307e+01  6.013723e+01  6.000000e+01
   endloop
 endfacet
 facet normal  4.952501e-01 -7.174936e-01  4.898268e-01
   outer loop
     vertex  1.935140e+01  5.824314e+01  5.606120e+01
     vertex  1.682500e+01  5.918828e+01  6.000000e+01
     vertex  1.681284e+01  5.649090e+01  5.606120e+01
   endloop
 endfacet
 facet normal  7.921802e-01 -4.157682e-01  4.467519e-01
   outer loop
     vertex  1.832911e+01  5.514759e+01  5.212239e+01
     vertex  1.537936e+01  5.375963e+01  5.606120e+01
     vertex  1.734622e+01  5.327484e+01  5.212239e+01
   endloop
 endfacet
 facet normal  7.329800e-01 -5.059396e-01  4.547147e-01
   outer loop
     vertex  1.832911e+01  5.514759e+01  5.212239e+01
     vertex  1.951766e+01  5.332949e+01  4.818359e+01
     vertex  1.984539e+01  5.380429e+01  4.818359e+01
   endloop
 endfacet
 facet normal  5.906017e-01 -6.666515e-01  4.547147e-01
   outer loop
     vertex  1.832911e+01  5.514759e+01  5.212239e+01
     vertex  1.984539e+01  5.380429e+01  4.818359e+01
     vertex  2.027723e+01  5.418686e+01  4.818359e+01
   endloop
 endfacet
 facet normal  7.977293e-01 -4.186806e-01  4.339753e-01
   outer loop
     vertex  1.832911e+01  5.514759e+01  5.212239e+01
     vertex  1.734622e+01  5.327484e+01  5.212239e+01
     vertex  1.951766e+01  5.332949e+01  4.818359e+01
   endloop
 endfacet
 facet normal  7.921802e-01 -4.157682e-01  4.467519e-01
   outer loop
     vertex  1.832911e+01  5.514759e+01  5.212239e+01
     vertex  1.681284e+01  5.649090e+01  5.606120e+01
     vertex  1.537936e+01  5.375963e+01  5.606120e+01
   endloop
 endfacet
 facet normal  3.147292e-15 -8.906372e-01  4.547147e-01
   outer loop
     vertex  2.241350e+01  5.861495e+01  5.606120e+01
     vertex  2.265768e+01  6.062590e+01  6.000000e+01
     vertex  2.061571e+01  6.062590e+01  6.000000e+01
   endloop
 endfacet
 facet normal -2.131434e-01 -8.647569e-01  4.547147e-01
   outer loop
     vertex  2.241350e+01  5.861495e+01  5.606120e+01
     vertex  2.464031e+01  6.013723e+01  6.000000e+01
     vertex  2.265768e+01  6.062590e+01  6.000000e+01
   endloop
 endfacet
 facet normal  1.050863e-01 -8.654632e-01  4.898268e-01
   outer loop
     vertex  2.241350e+01  5.861495e+01  5.606120e+01
     vertex  2.061571e+01  6.062590e+01  6.000000e+01
     vertex  1.935140e+01  5.824314e+01  5.606120e+01
   endloop
 endfacet
 facet normal  4.138997e-01 -7.886201e-01  4.547147e-01
   outer loop
     vertex  2.006974e+01  5.634905e+01  5.212239e+01
     vertex  2.027723e+01  5.418686e+01  4.818359e+01
     vertex  2.078807e+01  5.445497e+01  4.818359e+01
   endloop
 endfacet
 facet normal  2.131434e-01 -8.647569e-01  4.547147e-01
   outer loop
     vertex  2.006974e+01  5.634905e+01  5.212239e+01
     vertex  2.078807e+01  5.445497e+01  4.818359e+01
     vertex  2.134823e+01  5.459304e+01  4.818359e+01
   endloop
 endfacet
 facet normal  5.082236e-01 -7.362890e-01  4.467519e-01
   outer loop
     vertex  2.006974e+01  5.634905e+01  5.212239e+01
     vertex  1.935140e+01  5.824314e+01  5.606120e+01
     vertex  1.681284e+01  5.649090e+01  5.606120e+01
   endloop
 endfacet
 facet normal  5.117836e-01 -7.414466e-01  4.339753e-01
   outer loop
     vertex  2.006974e+01  5.634905e+01  5.212239e+01
     vertex  1.832911e+01  5.514759e+01  5.212239e+01
     vertex  2.027723e+01  5.418686e+01  4.818359e+01
   endloop
 endfacet
 facet normal  5.082236e-01 -7.362890e-01  4.467519e-01
   outer loop
     vertex  2.006974e+01  5.634905e+01  5.212239e+01
     vertex  1.681284e+01  5.649090e+01  5.606120e+01
     vertex  1.832911e+01  5.514759e+01  5.212239e+01
   endloop
 endfacet
 facet normal -4.138997e-01 -7.886201e-01  4.547147e-01
   outer loop
     vertex  2.529764e+01  5.752114e+01  5.606120e+01
     vertex  2.644839e+01  5.918828e+01  6.000000e+01
     vertex  2.464031e+01  6.013723e+01  6.000000e+01
   endloop
 endfacet
 facet normal -5.906017e-01 -6.666515e-01  4.547147e-01
   outer loop
     vertex  2.529764e+01  5.752114e+01  5.606120e+01
     vertex  2.797682e+01  5.783420e+01  6.000000e+01
     vertex  2.644839e+01  5.918828e+01  6.000000e+01
   endloop
 endfacet
 facet normal -3.091515e-01 -8.151656e-01  4.898268e-01
   outer loop
     vertex  2.529764e+01  5.752114e+01  5.606120e+01
     vertex  2.464031e+01  6.013723e+01  6.000000e+01
     vertex  2.241350e+01  5.861495e+01  5.606120e+01
   endloop
 endfacet
 facet normal  1.085945e-01 -8.943560e-01  4.339753e-01
   outer loop
     vertex  2.216933e+01  5.660399e+01  5.212239e+01
     vertex  2.006974e+01  5.634905e+01  5.212239e+01
     vertex  2.134823e+01  5.459304e+01  4.818359e+01
   endloop
 endfacet
 facet normal  1.113954e-14 -8.906372e-01  4.547147e-01
   outer loop
     vertex  2.216933e+01  5.660399e+01  5.212239e+01
     vertex  2.134823e+01  5.459304e+01  4.818359e+01
     vertex  2.192515e+01  5.459304e+01  4.818359e+01
   endloop
 endfacet
 facet normal -2.131434e-01 -8.647569e-01  4.547147e-01
   outer loop
     vertex  2.216933e+01  5.660399e+01  5.212239e+01
     vertex  2.192515e+01  5.459304e+01  4.818359e+01
     vertex  2.248531e+01  5.445497e+01  4.818359e+01
   endloop
 endfacet
 facet normal -3.172501e-01 -8.365196e-01  4.467519e-01
   outer loop
     vertex  2.216933e+01  5.660399e+01  5.212239e+01
     vertex  2.529764e+01  5.752114e+01  5.606120e+01
     vertex  2.241350e+01  5.861495e+01  5.606120e+01
   endloop
 endfacet
 facet normal  1.078391e-01 -8.881348e-01  4.467519e-01
   outer loop
     vertex  2.216933e+01  5.660399e+01  5.212239e+01
     vertex  2.241350e+01  5.861495e+01  5.606120e+01
     vertex  1.935140e+01  5.824314e+01  5.606120e+01
   endloop
 endfacet
 facet normal  1.078391e-01 -8.881348e-01  4.467519e-01
   outer loop
     vertex  2.216933e+01  5.660399e+01  5.212239e+01
     vertex  1.935140e+01  5.824314e+01  5.606120e+01
     vertex  2.006974e+01  5.634905e+01  5.212239e+01
   endloop
 endfacet
 facet normal -8.464863e-01 -2.086401e-01  4.898268e-01
   outer loop
     vertex  2.734310e+01  5.521229e+01  5.606120e+01
     vertex  2.808129e+01  5.221733e+01  5.606120e+01
     vertex  2.986089e+01  5.424441e+01  6.000000e+01
   endloop
 endfacet
 facet normal -7.329800e-01 -5.059396e-01  4.547147e-01
   outer loop
     vertex  2.734310e+01  5.521229e+01  5.606120e+01
     vertex  2.913680e+01  5.615369e+01  6.000000e+01
     vertex  2.797682e+01  5.783420e+01  6.000000e+01
   endloop
 endfacet
 facet normal -8.327602e-01 -3.158243e-01  4.547147e-01
   outer loop
     vertex  2.734310e+01  5.521229e+01  5.606120e+01
     vertex  2.986089e+01  5.424441e+01  6.000000e+01
     vertex  2.913680e+01  5.615369e+01  6.000000e+01
   endloop
 endfacet
 facet normal -6.525665e-01 -5.781234e-01  4.898268e-01
   outer loop
     vertex  2.734310e+01  5.521229e+01  5.606120e+01
     vertex  2.797682e+01  5.783420e+01  6.000000e+01
     vertex  2.529764e+01  5.752114e+01  5.606120e+01
   endloop
 endfacet
 facet normal -4.138997e-01 -7.886201e-01  4.547147e-01
   outer loop
     vertex  2.414690e+01  5.585400e+01  5.212239e+01
     vertex  2.248531e+01  5.445497e+01  4.818359e+01
     vertex  2.299616e+01  5.418686e+01  4.818359e+01
   endloop
 endfacet
 facet normal -5.906017e-01 -6.666515e-01  4.547147e-01
   outer loop
     vertex  2.414690e+01  5.585400e+01  5.212239e+01
     vertex  2.299616e+01  5.418686e+01  4.818359e+01
     vertex  2.342799e+01  5.380429e+01  4.818359e+01
   endloop
 endfacet
 facet normal -3.194723e-01 -8.423793e-01  4.339753e-01
   outer loop
     vertex  2.414690e+01  5.585400e+01  5.212239e+01
     vertex  2.216933e+01  5.660399e+01  5.212239e+01
     vertex  2.248531e+01  5.445497e+01  4.818359e+01
   endloop
 endfacet
 facet normal -3.172501e-01 -8.365196e-01  4.467519e-01
   outer loop
     vertex  2.414690e+01  5.585400e+01  5.212239e+01
     vertex  2.529764e+01  5.752114e+01  5.606120e+01
     vertex  2.216933e+01  5.660399e+01  5.212239e+01
   endloop
 endfacet
 facet normal -8.686607e-01 -2.141056e-01  4.467519e-01
   outer loop
     vertex  2.554941e+01  5.427089e+01  5.212239e+01
     vertex  2.808129e+01  5.221733e+01  5.606120e+01
     vertex  2.734310e+01  5.521229e+01  5.606120e+01
   endloop
 endfacet
 facet normal -7.329800e-01 -5.059396e-01  4.547147e-01
   outer loop
     vertex  2.554941e+01  5.427089e+01  5.212239e+01
     vertex  2.342799e+01  5.380429e+01  4.818359e+01
     vertex  2.375572e+01  5.332949e+01  4.818359e+01
   endloop
 endfacet
 facet normal -8.327602e-01 -3.158243e-01  4.547147e-01
   outer loop
     vertex  2.554941e+01  5.427089e+01  5.212239e+01
     vertex  2.375572e+01  5.332949e+01  4.818359e+01
     vertex  2.396030e+01  5.279005e+01  4.818359e+01
   endloop
 endfacet
 facet normal -6.743519e-01 -5.974236e-01  4.339753e-01
   outer loop
     vertex  2.554941e+01  5.427089e+01  5.212239e+01
     vertex  2.414690e+01  5.585400e+01  5.212239e+01
     vertex  2.342799e+01  5.380429e+01  4.818359e+01
   endloop
 endfacet
 facet normal -8.686607e-01 -2.141056e-01  4.467519e-01
   outer loop
     vertex  2.554941e+01  5.427089e+01  5.212239e+01
     vertex  2.605557e+01  5.221733e+01  5.212239e+01
     vertex  2.808129e+01  5.221733e+01  5.606120e+01
   endloop
 endfacet
 facet normal -8.747455e-01 -2.156054e-01  4.339753e-01
   outer loop
     vertex  2.554941e+01  5.427089e+01  5.212239e+01
     vertex  2.396030e+01  5.279005e+01  4.818359e+01
     vertex  2.605557e+01  5.221733e+01  5.212239e+01
   endloop
 endfacet
 facet normal -6.696610e-01 -5.932679e-01  4.467519e-01
   outer loop
     vertex  2.554941e+01  5.427089e+01  5.212239e+01
     vertex  2.734310e+01  5.521229e+01  5.606120e+01
     vertex  2.529764e+01  5.752114e+01  5.606120e+01
   endloop
 endfacet
 facet normal -6.696610e-01 -5.932679e-01  4.467519e-01
   outer loop
     vertex  2.554941e+01  5.427089e+01  5.212239e+01
     vertex  2.529764e+01  5.752114e+01  5.606120e+01
     vertex  2.414690e+01  5.585400e+01  5.212239e+01
   endloop
 endfacet
 facet normal  0.000000e+00 -0.000000e+00  1.000000e+00
   outer loop
     vertex  1.931308e+01  5.164461e+01  4.818359e+01
     vertex  1.931308e+01  5.279005e+01  4.818359e+01
     vertex  1.924354e+01  5.221733e+01  4.818359e+01
   endloop
 endfacet
 facet normal  0.000000e+00  0.000000e+00  1.000000e+00
   outer loop
     vertex  1.951766e+01  5.110518e+01  4.818359e+01
     vertex  1.951766e+01  5.332949e+01  4.818359e+01
     vertex  1.931308e+01  5.279005e+01  4.818359e+01
   endloop
 endfacet
 facet normal  0.000000e+00 -0.000000e+00  1.000000e+00
   outer loop
     vertex  1.951766e+01  5.110518e+01  4.818359e+01
     vertex  1.984539e+01  5.380429e+01  4.818359e+01
     vertex  1.951766e+01  5.332949e+01  4.818359e+01
   endloop
 endfacet
 facet normal  0.000000e+00  0.000000e+00  1.000000e+00
   outer loop
     vertex  1.951766e+01  5.110518e+01  4.818359e+01
     vertex  2.027723e+01  5.418686e+01  4.818359e+01
     vertex  1.984539e+01  5.380429e+01  4.818359e+01
   endloop
 endfacet
 facet normal  0.000000e+00  0.000000e+00  1.000000e+00
   outer loop
     vertex  1.951766e+01  5.110518e+01  4.818359e+01
     vertex  2.078807e+01  5.445497e+01  4.818359e+01
     vertex  2.027723e+01  5.418686e+01  4.818359e+01
   endloop
 endfacet
 facet normal  0.000000e+00  0.000000e+00  1.000000e+00
   outer loop
     vertex  1.951766e+01  5.110518e+01  4.818359e+01
     vertex  2.134823e+01  5.459304e+01  4.818359e+01
     vertex  2.078807e+01  5.445497e+01  4.818359e+01
   endloop
 endfacet
 facet normal  0.000000e+00  0.000000e+00  1.000000e+00
   outer loop
     vertex  1.951766e+01  5.110518e+01  4.818359e+01
     vertex  1.931308e+01  5.279005e+01  4.818359e+01
     vertex  1.931308e+01  5.164461e+01  4.818359e+01
   endloop
 endfacet
 facet normal  0.000000e+00  0.000000e+00  1.000000e+00
   outer loop
     vertex  2.342799e+01  5.380429e+01  4.818359e+01
     vertex  2.248531e+01  5.445497e+01  4.818359e+01
     vertex  2.192515e+01  5.459304e+01  4.818359e+01
   endloop
 endfacet
 facet normal  0.000000e+00  0.000000e+00  1.000000e+00
   outer loop
     vertex  2.342799e+01  5.380429e+01  4.818359e+01
     vertex  2.299616e+01  5.418686e+01  4.818359e+01
     vertex  2.248531e+01  5.445497e+01  4.818359e+01
   endloop
 endfacet
 facet normal  0.000000e+00  0.000000e+00  1.000000e+00
   outer loop
     vertex  2.027723e+01  5.024781e+01  4.818359e+01
     vertex  1.951766e+01  5.110518e+01  4.818359e+01
     vertex  1.984539e+01  5.063038e+01  4.818359e+01
   endloop
 endfacet
 facet normal  0.000000e+00  0.000000e+00  1.000000e+00
   outer loop
     vertex  2.396030e+01  5.279005e+01  4.818359e+01
     vertex  2.375572e+01  5.332949e+01  4.818359e+01
     vertex  2.342799e+01  5.380429e+01  4.818359e+01
   endloop
 endfacet
 facet normal  0.000000e+00  0.000000e+00  1.000000e+00
   outer loop
     vertex  2.396030e+01  5.164461e+01  4.818359e+01
     vertex  2.192515e+01  5.459304e+01  4.818359e+01
     vertex  2.134823e+01  5.459304e+01  4.818359e+01
   endloop
 endfacet
 facet normal  0.000000e+00  0.000000e+00  1.000000e+00
   outer loop
     vertex  2.396030e+01  5.164461e+01  4.818359e+01
     vertex  2.402984e+01  5.221733e+01  4.818359e+01
     vertex  2.396030e+01  5.279005e+01  4.818359e+01
   endloop
 endfacet
 facet normal  0.000000e+00  0.000000e+00  1.000000e+00
   outer loop
     vertex  2.396030e+01  5.164461e+01  4.818359e+01
     vertex  2.342799e+01  5.380429e+01  4.818359e+01
     vertex  2.192515e+01  5.459304e+01  4.818359e+01
   endloop
 endfacet
 facet normal  0.000000e+00 -0.000000e+00  1.000000e+00
   outer loop
     vertex  2.396030e+01  5.164461e+01  4.818359e+01
     vertex  2.396030e+01  5.279005e+01  4.818359e+01
     vertex  2.342799e+01  5.380429e+01  4.818359e+01
   endloop
 endfacet
 facet normal  0.000000e+00  0.000000e+00  1.000000e+00
   outer loop
     vertex  2.299616e+01  5.024781e+01  4.818359e+01
     vertex  2.192515e+01  4.984163e+01  4.818359e+01
     vertex  2.248531e+01  4.997970e+01  4.818359e+01
   endloop
 endfacet
 facet normal  0.000000e+00  0.000000e+00  1.000000e+00
   outer loop
     vertex  2.342799e+01  5.063038e+01  4.818359e+01
     vertex  2.375572e+01  5.110518e+01  4.818359e+01
     vertex  2.396030e+01  5.164461e+01  4.818359e+01
   endloop
 endfacet
 facet normal  0.000000e+00  0.000000e+00  1.000000e+00
   outer loop
     vertex  2.342799e+01  5.063038e+01  4.818359e+01
     vertex  2.134823e+01  4.984163e+01  4.818359e+01
     vertex  2.192515e+01  4.984163e+01  4.818359e+01
   endloop
 endfacet
 facet normal  0.000000e+00  0.000000e+00  1.000000e+00
   outer loop
     vertex  2.342799e+01  5.063038e+01  4.818359e+01
     vertex  2.078807e+01  4.997970e+01  4.818359e+01
     vertex  2.134823e+01  4.984163e+01  4.818359e+01
   endloop
 endfacet
 facet normal  0.000000e+00  0.000000e+00  1.000000e+00
   outer loop
     vertex  2.342799e+01  5.063038e+01  4.818359e+01
     vertex  2.027723e+01  5.024781e+01  4.818359e+01
     vertex  2.078807e+01  4.997970e+01  4.818359e+01
   endloop
 endfacet
 facet normal  0.000000e+00  0.000000e+00  1.000000e+00
   outer loop
     vertex  2.342799e+01  5.063038e+01  4.818359e+01
     vertex  2.134823e+01  5.459304e+01  4.818359e+01
     vertex  1.951766e+01  5.110518e+01  4.818359e+01
   endloop
 endfacet
 facet normal  0.000000e+00  0.000000e+00  1.000000e+00
   outer loop
     vertex  2.342799e+01  5.063038e+01  4.818359e+01
     vertex  1.951766e+01  5.110518e+01  4.818359e+01
     vertex  2.027723e+01  5.024781e+01  4.818359e+01
   endloop
 endfacet
 facet normal  0.000000e+00  0.000000e+00  1.000000e+00
   outer loop
     vertex  2.342799e+01  5.063038e+01  4.818359e+01
     vertex  2.192515e+01  4.984163e+01  4.818359e+01
     vertex  2.299616e+01  5.024781e+01  4.818359e+01
   endloop
 endfacet
 facet normal  0.000000e+00 -0.000000e+00  1.000000e+00
   outer loop
     vertex  2.342799e+01  5.063038e+01  4.818359e+01
     vertex  2.396030e+01  5.164461e+01  4.818359e+01
     vertex  2.134823e+01  5.459304e+01  4.818359e+01
   endloop
 endfacet
endsolid
