solid 
 facet normal -1.000000e+00  0.000000e+00  0.000000e+00
   outer loop
     vertex  0.000000e+00  0.000000e+00  6.000000e+01
     vertex  0.000000e+00  8.021554e+01  0.000000e+00
     vertex  0.000000e+00  0.000000e+00  0.000000e+00
   endloop
 endfacet
 facet normal -1.000000e+00  0.000000e+00  0.000000e+00
   outer loop
     vertex  0.000000e+00  0.000000e+00  6.000000e+01
     vertex  0.000000e+00  8.021554e+01  6.000000e+01
     vertex  0.000000e+00  8.021554e+01  0.000000e+00
   endloop
 endfacet
 facet normal  0.000000e+00 -1.000000e+00 -0.000000e+00
   outer loop
     vertex  1.149275e+02  0.000000e+00  6.000000e+01
     vertex  0.000000e+00  0.000000e+00  0.000000e+00
     vertex  1.149275e+02  0.000000e+00  0.000000e+00
   endloop
 endfacet
 facet normal -0.000000e+00 -1.000000e+00  0.000000e+00
   outer loop
     vertex  1.149275e+02  0.000000e+00  6.000000e+01
     vertex  0.000000e+00  0.000000e+00  6.000000e+01
     vertex  0.000000e+00  0.000000e+00  0.000000e+00
   endloop
 endfacet
 facet normal  0.000000e+00  0.000000e+00  1.000000e+00
   outer loop
     vertex  7.651954e+01  1.895700e+01  6.000000e+01
     vertex  7.440989e+01  2.082599e+01  6.000000e+01
     vertex  0.000000e+00  0.000000e+00  6.000000e+01
   endloop
 endfacet
 facet normal  0.000000e+00  0.000000e+00  1.000000e+00
   outer loop
     vertex  7.280882e+01  2.314554e+01  6.000000e+01
     vertex  0.000000e+00  0.000000e+00  6.000000e+01
     vertex  7.440989e+01  2.082599e+01  6.000000e+01
   endloop
 endfacet
 facet normal  0.000000e+00  0.000000e+00  1.000000e+00
   outer loop
     vertex  7.901516e+01  1.764720e+01  6.000000e+01
     vertex  7.651954e+01  1.895700e+01  6.000000e+01
     vertex  0.000000e+00  0.000000e+00  6.000000e+01
   endloop
 endfacet
 facet normal  0.000000e+00  0.000000e+00  1.000000e+00
   outer loop
     vertex  7.180938e+01  2.578084e+01  6.000000e+01
     vertex  0.000000e+00  0.000000e+00  6.000000e+01
     vertex  7.280882e+01  2.314554e+01  6.000000e+01
   endloop
 endfacet
 facet normal  0.000000e+00  0.000000e+00  1.000000e+00
   outer loop
     vertex  7.146965e+01  2.857875e+01  6.000000e+01
     vertex  0.000000e+00  0.000000e+00  6.000000e+01
     vertex  7.180938e+01  2.578084e+01  6.000000e+01
   endloop
 endfacet
 facet normal  0.000000e+00  0.000000e+00  1.000000e+00
   outer loop
     vertex  7.180938e+01  3.137667e+01  6.000000e+01
     vertex  0.000000e+00  8.021554e+01  6.000000e+01
     vertex  0.000000e+00  0.000000e+00  6.000000e+01
   endloop
 endfacet
 facet normal  0.000000e+00  0.000000e+00  1.000000e+00
   outer loop
     vertex  7.180938e+01  3.137667e+01  6.000000e+01
     vertex  0.000000e+00  0.000000e+00  6.000000e+01
     vertex  7.146965e+01  2.857875e+01  6.000000e+01
   endloop
 endfacet
 facet normal  0.000000e+00  0.000000e+00  1.000000e+00
   outer loop
     vertex  7.280882e+01  3.401197e+01  6.000000e+01
     vertex  0.000000e+00  8.021554e+01  6.000000e+01
     vertex  7.180938e+01  3.137667e+01  6.000000e+01
   endloop
 endfacet
 facet normal  0.000000e+00  0.000000e+00  1.000000e+00
   outer loop
     vertex  7.440989e+01  3.633152e+01  6.000000e+01
     vertex  0.000000e+00  8.021554e+01  6.000000e+01
     vertex  7.280882e+01  3.401197e+01  6.000000e+01
   endloop
 endfacet
 facet normal  0.000000e+00  0.000000e+00  1.000000e+00
   outer loop
     vertex  7.651954e+01  3.820051e+01  6.000000e+01
     vertex  0.000000e+00  8.021554e+01  6.000000e+01
     vertex  7.440989e+01  3.633152e+01  6.000000e+01
   endloop
 endfacet
 facet normal  0.000000e+00  0.000000e+00  1.000000e+00
   outer loop
     vertex  1.149275e+02  0.000000e+00  6.000000e+01
     vertex  9.191202e+01  2.082599e+01  6.000000e+01
     vertex  8.980237e+01  1.895700e+01  6.000000e+01
   endloop
 endfacet
 facet normal  0.000000e+00  0.000000e+00  1.000000e+00
   outer loop
     vertex  1.149275e+02  0.000000e+00  6.000000e+01
     vertex  8.980237e+01  1.895700e+01  6.000000e+01
     vertex  8.730675e+01  1.764720e+01  6.000000e+01
   endloop
 endfacet
 facet normal  0.000000e+00  0.000000e+00  1.000000e+00
   outer loop
     vertex  1.149275e+02  0.000000e+00  6.000000e+01
     vertex  8.730675e+01  1.764720e+01  6.000000e+01
     vertex  8.457018e+01  1.697270e+01  6.000000e+01
   endloop
 endfacet
 facet normal  0.000000e+00  0.000000e+00  1.000000e+00
   outer loop
     vertex  1.149275e+02  0.000000e+00  6.000000e+01
     vertex  8.457018e+01  1.697270e+01  6.000000e+01
     vertex  8.175172e+01  1.697270e+01  6.000000e+01
   endloop
 endfacet
 facet normal  0.000000e+00  0.000000e+00  1.000000e+00
   outer loop
     vertex  1.149275e+02  0.000000e+00  6.000000e+01
     vertex  8.175172e+01  1.697270e+01  6.000000e+01
     vertex  7.901516e+01  1.764720e+01  6.000000e+01
   endloop
 endfacet
 facet normal  0.000000e+00  0.000000e+00  1.000000e+00
   outer loop
     vertex  1.149275e+02  0.000000e+00  6.000000e+01
     vertex  7.901516e+01  1.764720e+01  6.000000e+01
     vertex  0.000000e+00  0.000000e+00  6.000000e+01
   endloop
 endfacet
 facet normal  0.000000e+00  0.000000e+00  1.000000e+00
   outer loop
     vertex  9.351309e+01  2.314554e+01  6.000000e+01
     vertex  9.191202e+01  2.082599e+01  6.000000e+01
     vertex  1.149275e+02  0.000000e+00  6.000000e+01
   endloop
 endfacet
 facet normal  0.000000e+00  0.000000e+00  1.000000e+00
   outer loop
     vertex  7.901516e+01  3.951031e+01  6.000000e+01
     vertex  0.000000e+00  8.021554e+01  6.000000e+01
     vertex  7.651954e+01  3.820051e+01  6.000000e+01
   endloop
 endfacet
 facet normal  0.000000e+00  0.000000e+00  1.000000e+00
   outer loop
     vertex  9.451253e+01  2.578084e+01  6.000000e+01
     vertex  9.351309e+01  2.314554e+01  6.000000e+01
     vertex  1.149275e+02  0.000000e+00  6.000000e+01
   endloop
 endfacet
 facet normal  0.000000e+00  0.000000e+00  1.000000e+00
   outer loop
     vertex  9.485225e+01  2.857875e+01  6.000000e+01
     vertex  9.451253e+01  2.578084e+01  6.000000e+01
     vertex  1.149275e+02  0.000000e+00  6.000000e+01
   endloop
 endfacet
 facet normal  0.000000e+00  0.000000e+00  1.000000e+00
   outer loop
     vertex  9.451253e+01  3.137667e+01  6.000000e+01
     vertex  9.485225e+01  2.857875e+01  6.000000e+01
     vertex  1.149275e+02  0.000000e+00  6.000000e+01
   endloop
 endfacet
 facet normal  0.000000e+00  0.000000e+00  1.000000e+00
   outer loop
     vertex  1.149275e+02  8.021554e+01  6.000000e+01
     vertex  7.901516e+01  3.951031e+01  6.000000e+01
     vertex  8.175172e+01  4.018481e+01  6.000000e+01
   endloop
 endfacet
 facet normal  0.000000e+00  0.000000e+00  1.000000e+00
   outer loop
     vertex  1.149275e+02  8.021554e+01  6.000000e+01
     vertex  8.175172e+01  4.018481e+01  6.000000e+01
     vertex  8.457018e+01  4.018481e+01  6.000000e+01
   endloop
 endfacet
 facet normal  0.000000e+00  0.000000e+00  1.000000e+00
   outer loop
     vertex  1.149275e+02  8.021554e+01  6.000000e+01
     vertex  8.457018e+01  4.018481e+01  6.000000e+01
     vertex  8.730675e+01  3.951031e+01  6.000000e+01
   endloop
 endfacet
 facet normal  0.000000e+00  0.000000e+00  1.000000e+00
   outer loop
     vertex  1.149275e+02  8.021554e+01  6.000000e+01
     vertex  8.730675e+01  3.951031e+01  6.000000e+01
     vertex  8.980237e+01  3.820051e+01  6.000000e+01
   endloop
 endfacet
 facet normal  0.000000e+00  0.000000e+00  1.000000e+00
   outer loop
     vertex  1.149275e+02  8.021554e+01  6.000000e+01
     vertex  8.980237e+01  3.820051e+01  6.000000e+01
     vertex  9.191202e+01  3.633152e+01  6.000000e+01
   endloop
 endfacet
 facet normal  0.000000e+00  0.000000e+00  1.000000e+00
   outer loop
     vertex  1.149275e+02  8.021554e+01  6.000000e+01
     vertex  9.191202e+01  3.633152e+01  6.000000e+01
     vertex  9.351309e+01  3.401197e+01  6.000000e+01
   endloop
 endfacet
 facet normal  0.000000e+00  0.000000e+00  1.000000e+00
   outer loop
     vertex  1.149275e+02  8.021554e+01  6.000000e+01
     vertex  9.351309e+01  3.401197e+01  6.000000e+01
     vertex  9.451253e+01  3.137667e+01  6.000000e+01
   endloop
 endfacet
 facet normal  0.000000e+00  0.000000e+00  1.000000e+00
   outer loop
     vertex  1.149275e+02  8.021554e+01  6.000000e+01
     vertex  0.000000e+00  8.021554e+01  6.000000e+01
     vertex  7.901516e+01  3.951031e+01  6.000000e+01
   endloop
 endfacet
 facet normal  0.000000e+00  0.000000e+00  1.000000e+00
   outer loop
     vertex  1.149275e+02  8.021554e+01  6.000000e+01
     vertex  9.451253e+01  3.137667e+01  6.000000e+01
     vertex  1.149275e+02  0.000000e+00  6.000000e+01
   endloop
 endfacet
 facet normal  0.000000e+00  1.000000e+00  0.000000e+00
   outer loop
     vertex  1.149275e+02  8.021554e+01  6.000000e+01
     vertex  1.149275e+02  8.021554e+01  0.000000e+00
     vertex  0.000000e+00  8.021554e+01  0.000000e+00
   endloop
 endfacet
 facet normal  0.000000e+00  1.000000e+00  0.000000e+00
   outer loop
     vertex  1.149275e+02  8.021554e+01  6.000000e+01
     vertex  0.000000e+00  8.021554e+01  0.000000e+00
     vertex  0.000000e+00  8.021554e+01  6.000000e+01
   endloop
 endfacet
 facet normal -0.000000e+00  0.000000e+00 -1.000000e+00
   outer loop
     vertex  1.149275e+02  8.021554e+01  0.000000e+00
     vertex  0.000000e+00  0.000000e+00  0.000000e+00
     vertex  0.000000e+00  8.021554e+01  0.000000e+00
   endloop
 endfacet
 facet normal  0.000000e+00 -0.000000e+00 -1.000000e+00
   outer loop
     vertex  1.149275e+02  8.021554e+01  0.000000e+00
     vertex  1.149275e+02  0.000000e+00  0.000000e+00
     vertex  0.000000e+00  0.000000e+00  0.000000e+00
   endloop
 endfacet
 facet normal  1.000000e+00  0.000000e+00  0.000000e+00
   outer loop
     vertex  1.149275e+02  0.000000e+00  6.000000e+01
     vertex  1.149275e+02  0.000000e+00  0.000000e+00
     vertex  1.149275e+02  8.021554e+01  0.000000e+00
   endloop
 endfacet
 facet normal  1.000000e+00 -0.000000e+00  0.000000e+00
   outer loop
     vertex  1.149275e+02  0.000000e+00  6.000000e+01
     vertex  1.149275e+02  8.021554e+01  0.000000e+00
     vertex  1.149275e+02  8.021554e+01  6.000000e+01
   endloop
 endfacet
 facet normal -8.275527e-01  1.004831e-01  5.523220e-01
   outer loop
     vertex  9.101279e+01  2.857875e+01  5.424727e+01
     vertex  9.451253e+01  2.578084e+01  6.000000e+01
     vertex  9.485225e+01  2.857875e+01  6.000000e+01
   endloop
 endfacet
 facet normal -8.275527e-01  1.004831e-01  5.523220e-01
   outer loop
     vertex  8.332884e+01  2.853737e+01  4.274182e+01
     vertex  8.717333e+01  2.857875e+01  4.849455e+01
     vertex  8.333387e+01  2.857875e+01  4.274182e+01
   endloop
 endfacet
 facet normal -8.275527e-01 -1.004831e-01  5.523220e-01
   outer loop
     vertex  9.101279e+01  2.857875e+01  5.424727e+01
     vertex  9.485225e+01  2.857875e+01  6.000000e+01
     vertex  9.451253e+01  3.137667e+01  6.000000e+01
   endloop
 endfacet
 facet normal -8.275527e-01 -1.004831e-01  5.523220e-01
   outer loop
     vertex  8.333387e+01  2.857875e+01  4.274182e+01
     vertex  8.717333e+01  2.857875e+01  4.849455e+01
     vertex  8.332884e+01  2.862014e+01  4.274182e+01
   endloop
 endfacet
 facet normal -7.812060e-01  2.962724e-01  5.494905e-01
   outer loop
     vertex  9.023522e+01  2.517197e+01  5.424727e+01
     vertex  9.351309e+01  2.314554e+01  6.000000e+01
     vertex  9.451253e+01  2.578084e+01  6.000000e+01
   endloop
 endfacet
 facet normal -6.840151e-01  4.721415e-01  5.560627e-01
   outer loop
     vertex  9.023522e+01  2.517197e+01  5.424727e+01
     vertex  9.191202e+01  2.082599e+01  6.000000e+01
     vertex  9.351309e+01  2.314554e+01  6.000000e+01
   endloop
 endfacet
 facet normal -7.981915e-01  1.821820e-01  5.741951e-01
   outer loop
     vertex  9.023522e+01  2.517197e+01  5.424727e+01
     vertex  9.451253e+01  2.578084e+01  6.000000e+01
     vertex  9.101279e+01  2.857875e+01  5.424727e+01
   endloop
 endfacet
 facet normal -5.548656e-01  6.263138e-01  5.475904e-01
   outer loop
     vertex  8.805649e+01  2.243994e+01  5.424727e+01
     vertex  8.980237e+01  1.895700e+01  6.000000e+01
     vertex  9.191202e+01  2.082599e+01  6.000000e+01
   endloop
 endfacet
 facet normal -6.408286e-01  5.110437e-01  5.728639e-01
   outer loop
     vertex  8.805649e+01  2.243994e+01  5.424727e+01
     vertex  9.191202e+01  2.082599e+01  6.000000e+01
     vertex  9.023522e+01  2.517197e+01  5.424727e+01
   endloop
 endfacet
 facet normal -3.848049e-01  7.331845e-01  5.606832e-01
   outer loop
     vertex  8.805649e+01  2.243994e+01  5.424727e+01
     vertex  8.730675e+01  1.764720e+01  6.000000e+01
     vertex  8.980237e+01  1.895700e+01  6.000000e+01
   endloop
 endfacet
 facet normal -2.003958e-01  8.130375e-01  5.466365e-01
   outer loop
     vertex  8.490815e+01  2.092378e+01  5.424727e+01
     vertex  8.457018e+01  1.697270e+01  6.000000e+01
     vertex  8.730675e+01  1.764720e+01  6.000000e+01
   endloop
 endfacet
 facet normal -3.564412e-01  7.401578e-01  5.701895e-01
   outer loop
     vertex  8.490815e+01  2.092378e+01  5.424727e+01
     vertex  8.730675e+01  1.764720e+01  6.000000e+01
     vertex  8.805649e+01  2.243994e+01  5.424727e+01
   endloop
 endfacet
 facet normal -7.785649e-01  2.952707e-01  5.537616e-01
   outer loop
     vertex  8.677598e+01  2.683785e+01  4.849455e+01
     vertex  8.332884e+01  2.853737e+01  4.274182e+01
     vertex  8.331406e+01  2.849840e+01  4.274182e+01
   endloop
 endfacet
 facet normal -6.871115e-01  4.742788e-01  5.503975e-01
   outer loop
     vertex  8.677598e+01  2.683785e+01  4.849455e+01
     vertex  8.331406e+01  2.849840e+01  4.274182e+01
     vertex  8.329038e+01  2.846409e+01  4.274182e+01
   endloop
 endfacet
 facet normal -8.171671e-01  1.865131e-01  5.453905e-01
   outer loop
     vertex  8.677598e+01  2.683785e+01  4.849455e+01
     vertex  9.023522e+01  2.517197e+01  5.424727e+01
     vertex  9.101279e+01  2.857875e+01  5.424727e+01
   endloop
 endfacet
 facet normal -8.171671e-01  1.865131e-01  5.453905e-01
   outer loop
     vertex  8.677598e+01  2.683785e+01  4.849455e+01
     vertex  9.101279e+01  2.857875e+01  5.424727e+01
     vertex  8.717333e+01  2.857875e+01  4.849455e+01
   endloop
 endfacet
 facet normal -8.174469e-01  1.865769e-01  5.449491e-01
   outer loop
     vertex  8.677598e+01  2.683785e+01  4.849455e+01
     vertex  8.717333e+01  2.857875e+01  4.849455e+01
     vertex  8.332884e+01  2.853737e+01  4.274182e+01
   endloop
 endfacet
 facet normal -0.000000e+00  8.243039e-01  5.661476e-01
   outer loop
     vertex  8.141375e+01  2.092378e+01  5.424727e+01
     vertex  8.457018e+01  1.697270e+01  6.000000e+01
     vertex  8.490815e+01  2.092378e+01  5.424727e+01
   endloop
 endfacet
 facet normal  0.000000e+00  8.243039e-01  5.661476e-01
   outer loop
     vertex  8.141375e+01  2.092378e+01  5.424727e+01
     vertex  8.175172e+01  1.697270e+01  6.000000e+01
     vertex  8.457018e+01  1.697270e+01  6.000000e+01
   endloop
 endfacet
 facet normal  2.003958e-01  8.130375e-01  5.466365e-01
   outer loop
     vertex  8.141375e+01  2.092378e+01  5.424727e+01
     vertex  7.901516e+01  1.764720e+01  6.000000e+01
     vertex  8.175172e+01  1.697270e+01  6.000000e+01
   endloop
 endfacet
 facet normal -5.517428e-01  6.227889e-01  5.547196e-01
   outer loop
     vertex  8.566263e+01  2.544175e+01  4.849455e+01
     vertex  8.329038e+01  2.846409e+01  4.274182e+01
     vertex  8.325918e+01  2.843645e+01  4.274182e+01
   endloop
 endfacet
 facet normal -3.887358e-01  7.406741e-01  5.479839e-01
   outer loop
     vertex  8.566263e+01  2.544175e+01  4.849455e+01
     vertex  8.325918e+01  2.843645e+01  4.274182e+01
     vertex  8.322227e+01  2.841708e+01  4.274182e+01
   endloop
 endfacet
 facet normal -6.555308e-01  5.227684e-01  5.449703e-01
   outer loop
     vertex  8.566263e+01  2.544175e+01  4.849455e+01
     vertex  8.677598e+01  2.683785e+01  4.849455e+01
     vertex  8.329038e+01  2.846409e+01  4.274182e+01
   endloop
 endfacet
 facet normal -6.553171e-01  5.225980e-01  5.453905e-01
   outer loop
     vertex  8.566263e+01  2.544175e+01  4.849455e+01
     vertex  8.805649e+01  2.243994e+01  5.424727e+01
     vertex  9.023522e+01  2.517197e+01  5.424727e+01
   endloop
 endfacet
 facet normal -6.553171e-01  5.225980e-01  5.453905e-01
   outer loop
     vertex  8.566263e+01  2.544175e+01  4.849455e+01
     vertex  9.023522e+01  2.517197e+01  5.424727e+01
     vertex  8.677598e+01  2.683785e+01  4.849455e+01
   endloop
 endfacet
 facet normal  3.848049e-01  7.331845e-01  5.606832e-01
   outer loop
     vertex  7.826541e+01  2.243994e+01  5.424727e+01
     vertex  7.651954e+01  1.895700e+01  6.000000e+01
     vertex  7.901516e+01  1.764720e+01  6.000000e+01
   endloop
 endfacet
 facet normal  5.548656e-01  6.263138e-01  5.475904e-01
   outer loop
     vertex  7.826541e+01  2.243994e+01  5.424727e+01
     vertex  7.440989e+01  2.082599e+01  6.000000e+01
     vertex  7.651954e+01  1.895700e+01  6.000000e+01
   endloop
 endfacet
 facet normal  3.564412e-01  7.401578e-01  5.701895e-01
   outer loop
     vertex  7.826541e+01  2.243994e+01  5.424727e+01
     vertex  7.901516e+01  1.764720e+01  6.000000e+01
     vertex  8.141375e+01  2.092378e+01  5.424727e+01
   endloop
 endfacet
 facet normal -3.637803e-01  7.553975e-01  5.450124e-01
   outer loop
     vertex  8.405379e+01  2.466698e+01  4.849455e+01
     vertex  8.566263e+01  2.544175e+01  4.849455e+01
     vertex  8.322227e+01  2.841708e+01  4.274182e+01
   endloop
 endfacet
 facet normal -1.990432e-01  8.075500e-01  5.551980e-01
   outer loop
     vertex  8.405379e+01  2.466698e+01  4.849455e+01
     vertex  8.322227e+01  2.841708e+01  4.274182e+01
     vertex  8.318180e+01  2.840710e+01  4.274182e+01
   endloop
 endfacet
 facet normal -3.636736e-01  7.551760e-01  5.453905e-01
   outer loop
     vertex  8.405379e+01  2.466698e+01  4.849455e+01
     vertex  8.490815e+01  2.092378e+01  5.424727e+01
     vertex  8.805649e+01  2.243994e+01  5.424727e+01
   endloop
 endfacet
 facet normal -3.636736e-01  7.551760e-01  5.453905e-01
   outer loop
     vertex  8.405379e+01  2.466698e+01  4.849455e+01
     vertex  8.805649e+01  2.243994e+01  5.424727e+01
     vertex  8.566263e+01  2.544175e+01  4.849455e+01
   endloop
 endfacet
 facet normal  6.840151e-01  4.721415e-01  5.560627e-01
   outer loop
     vertex  7.608669e+01  2.517197e+01  5.424727e+01
     vertex  7.280882e+01  2.314554e+01  6.000000e+01
     vertex  7.440989e+01  2.082599e+01  6.000000e+01
   endloop
 endfacet
 facet normal  7.812060e-01  2.962724e-01  5.494905e-01
   outer loop
     vertex  7.608669e+01  2.517197e+01  5.424727e+01
     vertex  7.180938e+01  2.578084e+01  6.000000e+01
     vertex  7.280882e+01  2.314554e+01  6.000000e+01
   endloop
 endfacet
 facet normal  6.408286e-01  5.110437e-01  5.728639e-01
   outer loop
     vertex  7.608669e+01  2.517197e+01  5.424727e+01
     vertex  7.440989e+01  2.082599e+01  6.000000e+01
     vertex  7.826541e+01  2.243994e+01  5.424727e+01
   endloop
 endfacet
 facet normal -0.000000e+00  8.381821e-01  5.453905e-01
   outer loop
     vertex  8.226812e+01  2.466698e+01  4.849455e+01
     vertex  8.490815e+01  2.092378e+01  5.424727e+01
     vertex  8.405379e+01  2.466698e+01  4.849455e+01
   endloop
 endfacet
 facet normal  0.000000e+00  8.383869e-01  5.450757e-01
   outer loop
     vertex  8.226812e+01  2.466698e+01  4.849455e+01
     vertex  8.318180e+01  2.840710e+01  4.274182e+01
     vertex  8.314011e+01  2.840710e+01  4.274182e+01
   endloop
 endfacet
 facet normal  1.990432e-01  8.075500e-01  5.551980e-01
   outer loop
     vertex  8.226812e+01  2.466698e+01  4.849455e+01
     vertex  8.314011e+01  2.840710e+01  4.274182e+01
     vertex  8.309964e+01  2.841708e+01  4.274182e+01
   endloop
 endfacet
 facet normal  0.000000e+00  8.381821e-01  5.453905e-01
   outer loop
     vertex  8.226812e+01  2.466698e+01  4.849455e+01
     vertex  8.141375e+01  2.092378e+01  5.424727e+01
     vertex  8.490815e+01  2.092378e+01  5.424727e+01
   endloop
 endfacet
 facet normal -0.000000e+00  8.383869e-01  5.450757e-01
   outer loop
     vertex  8.226812e+01  2.466698e+01  4.849455e+01
     vertex  8.405379e+01  2.466698e+01  4.849455e+01
     vertex  8.318180e+01  2.840710e+01  4.274182e+01
   endloop
 endfacet
 facet normal  8.275527e-01  1.004831e-01  5.523220e-01
   outer loop
     vertex  7.530911e+01  2.857875e+01  5.424727e+01
     vertex  7.146965e+01  2.857875e+01  6.000000e+01
     vertex  7.180938e+01  2.578084e+01  6.000000e+01
   endloop
 endfacet
 facet normal  8.275527e-01 -1.004831e-01  5.523220e-01
   outer loop
     vertex  7.530911e+01  2.857875e+01  5.424727e+01
     vertex  7.180938e+01  3.137667e+01  6.000000e+01
     vertex  7.146965e+01  2.857875e+01  6.000000e+01
   endloop
 endfacet
 facet normal  7.981915e-01  1.821820e-01  5.741951e-01
   outer loop
     vertex  7.530911e+01  2.857875e+01  5.424727e+01
     vertex  7.180938e+01  2.578084e+01  6.000000e+01
     vertex  7.608669e+01  2.517197e+01  5.424727e+01
   endloop
 endfacet
 facet normal  3.887358e-01  7.406741e-01  5.479839e-01
   outer loop
     vertex  8.065928e+01  2.544175e+01  4.849455e+01
     vertex  8.309964e+01  2.841708e+01  4.274182e+01
     vertex  8.306273e+01  2.843645e+01  4.274182e+01
   endloop
 endfacet
 facet normal  5.517428e-01  6.227889e-01  5.547196e-01
   outer loop
     vertex  8.065928e+01  2.544175e+01  4.849455e+01
     vertex  8.306273e+01  2.843645e+01  4.274182e+01
     vertex  8.303152e+01  2.846409e+01  4.274182e+01
   endloop
 endfacet
 facet normal  3.637803e-01  7.553975e-01  5.450124e-01
   outer loop
     vertex  8.065928e+01  2.544175e+01  4.849455e+01
     vertex  8.226812e+01  2.466698e+01  4.849455e+01
     vertex  8.309964e+01  2.841708e+01  4.274182e+01
   endloop
 endfacet
 facet normal  6.553171e-01  5.225980e-01  5.453905e-01
   outer loop
     vertex  8.065928e+01  2.544175e+01  4.849455e+01
     vertex  7.608669e+01  2.517197e+01  5.424727e+01
     vertex  7.826541e+01  2.243994e+01  5.424727e+01
   endloop
 endfacet
 facet normal  3.636736e-01  7.551760e-01  5.453905e-01
   outer loop
     vertex  8.065928e+01  2.544175e+01  4.849455e+01
     vertex  8.141375e+01  2.092378e+01  5.424727e+01
     vertex  8.226812e+01  2.466698e+01  4.849455e+01
   endloop
 endfacet
 facet normal  3.636736e-01  7.551760e-01  5.453905e-01
   outer loop
     vertex  8.065928e+01  2.544175e+01  4.849455e+01
     vertex  7.826541e+01  2.243994e+01  5.424727e+01
     vertex  8.141375e+01  2.092378e+01  5.424727e+01
   endloop
 endfacet
 facet normal  7.981915e-01 -1.821820e-01  5.741951e-01
   outer loop
     vertex  7.608669e+01  3.198554e+01  5.424727e+01
     vertex  7.180938e+01  3.137667e+01  6.000000e+01
     vertex  7.530911e+01  2.857875e+01  5.424727e+01
   endloop
 endfacet
 facet normal  7.812060e-01 -2.962724e-01  5.494905e-01
   outer loop
     vertex  7.608669e+01  3.198554e+01  5.424727e+01
     vertex  7.280882e+01  3.401197e+01  6.000000e+01
     vertex  7.180938e+01  3.137667e+01  6.000000e+01
   endloop
 endfacet
 facet normal  6.840151e-01 -4.721415e-01  5.560627e-01
   outer loop
     vertex  7.608669e+01  3.198554e+01  5.424727e+01
     vertex  7.440989e+01  3.633152e+01  6.000000e+01
     vertex  7.280882e+01  3.401197e+01  6.000000e+01
   endloop
 endfacet
 facet normal  6.871115e-01  4.742788e-01  5.503975e-01
   outer loop
     vertex  7.954593e+01  2.683785e+01  4.849455e+01
     vertex  8.303152e+01  2.846409e+01  4.274182e+01
     vertex  8.300785e+01  2.849840e+01  4.274182e+01
   endloop
 endfacet
 facet normal  7.785649e-01  2.952707e-01  5.537616e-01
   outer loop
     vertex  7.954593e+01  2.683785e+01  4.849455e+01
     vertex  8.300785e+01  2.849840e+01  4.274182e+01
     vertex  8.299306e+01  2.853737e+01  4.274182e+01
   endloop
 endfacet
 facet normal  8.171671e-01  1.865131e-01  5.453905e-01
   outer loop
     vertex  7.954593e+01  2.683785e+01  4.849455e+01
     vertex  7.530911e+01  2.857875e+01  5.424727e+01
     vertex  7.608669e+01  2.517197e+01  5.424727e+01
   endloop
 endfacet
 facet normal  6.555308e-01  5.227684e-01  5.449703e-01
   outer loop
     vertex  7.954593e+01  2.683785e+01  4.849455e+01
     vertex  8.065928e+01  2.544175e+01  4.849455e+01
     vertex  8.303152e+01  2.846409e+01  4.274182e+01
   endloop
 endfacet
 facet normal  6.553171e-01  5.225980e-01  5.453905e-01
   outer loop
     vertex  7.954593e+01  2.683785e+01  4.849455e+01
     vertex  7.608669e+01  2.517197e+01  5.424727e+01
     vertex  8.065928e+01  2.544175e+01  4.849455e+01
   endloop
 endfacet
 facet normal  5.548656e-01 -6.263138e-01  5.475904e-01
   outer loop
     vertex  7.826541e+01  3.471757e+01  5.424727e+01
     vertex  7.651954e+01  3.820051e+01  6.000000e+01
     vertex  7.440989e+01  3.633152e+01  6.000000e+01
   endloop
 endfacet
 facet normal  6.408286e-01 -5.110437e-01  5.728639e-01
   outer loop
     vertex  7.826541e+01  3.471757e+01  5.424727e+01
     vertex  7.440989e+01  3.633152e+01  6.000000e+01
     vertex  7.608669e+01  3.198554e+01  5.424727e+01
   endloop
 endfacet
 facet normal  3.848049e-01 -7.331845e-01  5.606832e-01
   outer loop
     vertex  7.826541e+01  3.471757e+01  5.424727e+01
     vertex  7.901516e+01  3.951031e+01  6.000000e+01
     vertex  7.651954e+01  3.820051e+01  6.000000e+01
   endloop
 endfacet
 facet normal  8.275527e-01  1.004831e-01  5.523220e-01
   outer loop
     vertex  7.914858e+01  2.857875e+01  4.849455e+01
     vertex  8.299306e+01  2.853737e+01  4.274182e+01
     vertex  8.298804e+01  2.857875e+01  4.274182e+01
   endloop
 endfacet
 facet normal  8.275527e-01 -1.004831e-01  5.523220e-01
   outer loop
     vertex  7.914858e+01  2.857875e+01  4.849455e+01
     vertex  8.298804e+01  2.857875e+01  4.274182e+01
     vertex  8.299306e+01  2.862014e+01  4.274182e+01
   endloop
 endfacet
 facet normal  8.171671e-01  1.865131e-01  5.453905e-01
   outer loop
     vertex  7.914858e+01  2.857875e+01  4.849455e+01
     vertex  7.530911e+01  2.857875e+01  5.424727e+01
     vertex  7.954593e+01  2.683785e+01  4.849455e+01
   endloop
 endfacet
 facet normal  8.174469e-01  1.865769e-01  5.449491e-01
   outer loop
     vertex  7.914858e+01  2.857875e+01  4.849455e+01
     vertex  7.954593e+01  2.683785e+01  4.849455e+01
     vertex  8.299306e+01  2.853737e+01  4.274182e+01
   endloop
 endfacet
 facet normal  3.564412e-01 -7.401578e-01  5.701895e-01
   outer loop
     vertex  8.141375e+01  3.623373e+01  5.424727e+01
     vertex  7.901516e+01  3.951031e+01  6.000000e+01
     vertex  7.826541e+01  3.471757e+01  5.424727e+01
   endloop
 endfacet
 facet normal  2.003958e-01 -8.130375e-01  5.466365e-01
   outer loop
     vertex  8.141375e+01  3.623373e+01  5.424727e+01
     vertex  8.175172e+01  4.018481e+01  6.000000e+01
     vertex  7.901516e+01  3.951031e+01  6.000000e+01
   endloop
 endfacet
 facet normal  1.986801e-15 -8.243039e-01  5.661476e-01
   outer loop
     vertex  8.141375e+01  3.623373e+01  5.424727e+01
     vertex  8.457018e+01  4.018481e+01  6.000000e+01
     vertex  8.175172e+01  4.018481e+01  6.000000e+01
   endloop
 endfacet
 facet normal  7.785649e-01 -2.952707e-01  5.537616e-01
   outer loop
     vertex  7.954593e+01  3.031966e+01  4.849455e+01
     vertex  8.299306e+01  2.862014e+01  4.274182e+01
     vertex  8.300785e+01  2.865911e+01  4.274182e+01
   endloop
 endfacet
 facet normal  6.871115e-01 -4.742788e-01  5.503975e-01
   outer loop
     vertex  7.954593e+01  3.031966e+01  4.849455e+01
     vertex  8.300785e+01  2.865911e+01  4.274182e+01
     vertex  8.303152e+01  2.869342e+01  4.274182e+01
   endloop
 endfacet
 facet normal  8.171671e-01 -1.865131e-01  5.453905e-01
   outer loop
     vertex  7.954593e+01  3.031966e+01  4.849455e+01
     vertex  7.530911e+01  2.857875e+01  5.424727e+01
     vertex  7.914858e+01  2.857875e+01  4.849455e+01
   endloop
 endfacet
 facet normal  8.171671e-01 -1.865131e-01  5.453905e-01
   outer loop
     vertex  7.954593e+01  3.031966e+01  4.849455e+01
     vertex  7.608669e+01  3.198554e+01  5.424727e+01
     vertex  7.530911e+01  2.857875e+01  5.424727e+01
   endloop
 endfacet
 facet normal  8.174469e-01 -1.865769e-01  5.449491e-01
   outer loop
     vertex  7.954593e+01  3.031966e+01  4.849455e+01
     vertex  7.914858e+01  2.857875e+01  4.849455e+01
     vertex  8.299306e+01  2.862014e+01  4.274182e+01
   endloop
 endfacet
 facet normal -2.003958e-01 -8.130375e-01  5.466365e-01
   outer loop
     vertex  8.490815e+01  3.623373e+01  5.424727e+01
     vertex  8.730675e+01  3.951031e+01  6.000000e+01
     vertex  8.457018e+01  4.018481e+01  6.000000e+01
   endloop
 endfacet
 facet normal  0.000000e+00 -8.243039e-01  5.661476e-01
   outer loop
     vertex  8.490815e+01  3.623373e+01  5.424727e+01
     vertex  8.457018e+01  4.018481e+01  6.000000e+01
     vertex  8.141375e+01  3.623373e+01  5.424727e+01
   endloop
 endfacet
 facet normal  5.517428e-01 -6.227889e-01  5.547196e-01
   outer loop
     vertex  8.065928e+01  3.171576e+01  4.849455e+01
     vertex  8.303152e+01  2.869342e+01  4.274182e+01
     vertex  8.306273e+01  2.872106e+01  4.274182e+01
   endloop
 endfacet
 facet normal  3.887358e-01 -7.406741e-01  5.479839e-01
   outer loop
     vertex  8.065928e+01  3.171576e+01  4.849455e+01
     vertex  8.306273e+01  2.872106e+01  4.274182e+01
     vertex  8.309964e+01  2.874043e+01  4.274182e+01
   endloop
 endfacet
 facet normal  3.636736e-01 -7.551760e-01  5.453905e-01
   outer loop
     vertex  8.065928e+01  3.171576e+01  4.849455e+01
     vertex  8.141375e+01  3.623373e+01  5.424727e+01
     vertex  7.826541e+01  3.471757e+01  5.424727e+01
   endloop
 endfacet
 facet normal  6.553171e-01 -5.225980e-01  5.453905e-01
   outer loop
     vertex  8.065928e+01  3.171576e+01  4.849455e+01
     vertex  7.608669e+01  3.198554e+01  5.424727e+01
     vertex  7.954593e+01  3.031966e+01  4.849455e+01
   endloop
 endfacet
 facet normal  6.553171e-01 -5.225980e-01  5.453905e-01
   outer loop
     vertex  8.065928e+01  3.171576e+01  4.849455e+01
     vertex  7.826541e+01  3.471757e+01  5.424727e+01
     vertex  7.608669e+01  3.198554e+01  5.424727e+01
   endloop
 endfacet
 facet normal  6.555308e-01 -5.227684e-01  5.449703e-01
   outer loop
     vertex  8.065928e+01  3.171576e+01  4.849455e+01
     vertex  7.954593e+01  3.031966e+01  4.849455e+01
     vertex  8.303152e+01  2.869342e+01  4.274182e+01
   endloop
 endfacet
 facet normal -3.564412e-01 -7.401578e-01  5.701895e-01
   outer loop
     vertex  8.805649e+01  3.471757e+01  5.424727e+01
     vertex  8.730675e+01  3.951031e+01  6.000000e+01
     vertex  8.490815e+01  3.623373e+01  5.424727e+01
   endloop
 endfacet
 facet normal -3.848049e-01 -7.331845e-01  5.606832e-01
   outer loop
     vertex  8.805649e+01  3.471757e+01  5.424727e+01
     vertex  8.980237e+01  3.820051e+01  6.000000e+01
     vertex  8.730675e+01  3.951031e+01  6.000000e+01
   endloop
 endfacet
 facet normal -5.548656e-01 -6.263138e-01  5.475904e-01
   outer loop
     vertex  8.805649e+01  3.471757e+01  5.424727e+01
     vertex  9.191202e+01  3.633152e+01  6.000000e+01
     vertex  8.980237e+01  3.820051e+01  6.000000e+01
   endloop
 endfacet
 facet normal  3.636736e-01 -7.551760e-01  5.453905e-01
   outer loop
     vertex  8.226812e+01  3.249053e+01  4.849455e+01
     vertex  8.141375e+01  3.623373e+01  5.424727e+01
     vertex  8.065928e+01  3.171576e+01  4.849455e+01
   endloop
 endfacet
 facet normal  1.990432e-01 -8.075500e-01  5.551980e-01
   outer loop
     vertex  8.226812e+01  3.249053e+01  4.849455e+01
     vertex  8.309964e+01  2.874043e+01  4.274182e+01
     vertex  8.314011e+01  2.875041e+01  4.274182e+01
   endloop
 endfacet
 facet normal  3.637803e-01 -7.553975e-01  5.450124e-01
   outer loop
     vertex  8.226812e+01  3.249053e+01  4.849455e+01
     vertex  8.065928e+01  3.171576e+01  4.849455e+01
     vertex  8.309964e+01  2.874043e+01  4.274182e+01
   endloop
 endfacet
 facet normal -6.840151e-01 -4.721415e-01  5.560627e-01
   outer loop
     vertex  9.023522e+01  3.198554e+01  5.424727e+01
     vertex  9.351309e+01  3.401197e+01  6.000000e+01
     vertex  9.191202e+01  3.633152e+01  6.000000e+01
   endloop
 endfacet
 facet normal -7.812060e-01 -2.962724e-01  5.494905e-01
   outer loop
     vertex  9.023522e+01  3.198554e+01  5.424727e+01
     vertex  9.451253e+01  3.137667e+01  6.000000e+01
     vertex  9.351309e+01  3.401197e+01  6.000000e+01
   endloop
 endfacet
 facet normal -7.981915e-01 -1.821820e-01  5.741951e-01
   outer loop
     vertex  9.023522e+01  3.198554e+01  5.424727e+01
     vertex  9.101279e+01  2.857875e+01  5.424727e+01
     vertex  9.451253e+01  3.137667e+01  6.000000e+01
   endloop
 endfacet
 facet normal -6.408286e-01 -5.110437e-01  5.728639e-01
   outer loop
     vertex  9.023522e+01  3.198554e+01  5.424727e+01
     vertex  9.191202e+01  3.633152e+01  6.000000e+01
     vertex  8.805649e+01  3.471757e+01  5.424727e+01
   endloop
 endfacet
 facet normal  0.000000e+00 -8.383869e-01  5.450757e-01
   outer loop
     vertex  8.405379e+01  3.249053e+01  4.849455e+01
     vertex  8.314011e+01  2.875041e+01  4.274182e+01
     vertex  8.318180e+01  2.875041e+01  4.274182e+01
   endloop
 endfacet
 facet normal -1.990432e-01 -8.075500e-01  5.551980e-01
   outer loop
     vertex  8.405379e+01  3.249053e+01  4.849455e+01
     vertex  8.318180e+01  2.875041e+01  4.274182e+01
     vertex  8.322227e+01  2.874043e+01  4.274182e+01
   endloop
 endfacet
 facet normal  0.000000e+00 -8.381821e-01  5.453905e-01
   outer loop
     vertex  8.405379e+01  3.249053e+01  4.849455e+01
     vertex  8.141375e+01  3.623373e+01  5.424727e+01
     vertex  8.226812e+01  3.249053e+01  4.849455e+01
   endloop
 endfacet
 facet normal  0.000000e+00 -8.383869e-01  5.450757e-01
   outer loop
     vertex  8.405379e+01  3.249053e+01  4.849455e+01
     vertex  8.226812e+01  3.249053e+01  4.849455e+01
     vertex  8.314011e+01  2.875041e+01  4.274182e+01
   endloop
 endfacet
 facet normal  0.000000e+00 -8.381821e-01  5.453905e-01
   outer loop
     vertex  8.405379e+01  3.249053e+01  4.849455e+01
     vertex  8.490815e+01  3.623373e+01  5.424727e+01
     vertex  8.141375e+01  3.623373e+01  5.424727e+01
   endloop
 endfacet
 facet normal -3.887358e-01 -7.406741e-01  5.479839e-01
   outer loop
     vertex  8.566263e+01  3.171576e+01  4.849455e+01
     vertex  8.322227e+01  2.874043e+01  4.274182e+01
     vertex  8.325918e+01  2.872106e+01  4.274182e+01
   endloop
 endfacet
 facet normal -5.517428e-01 -6.227889e-01  5.547196e-01
   outer loop
     vertex  8.566263e+01  3.171576e+01  4.849455e+01
     vertex  8.325918e+01  2.872106e+01  4.274182e+01
     vertex  8.329038e+01  2.869342e+01  4.274182e+01
   endloop
 endfacet
 facet normal -3.636736e-01 -7.551760e-01  5.453905e-01
   outer loop
     vertex  8.566263e+01  3.171576e+01  4.849455e+01
     vertex  8.805649e+01  3.471757e+01  5.424727e+01
     vertex  8.490815e+01  3.623373e+01  5.424727e+01
   endloop
 endfacet
 facet normal -3.636736e-01 -7.551760e-01  5.453905e-01
   outer loop
     vertex  8.566263e+01  3.171576e+01  4.849455e+01
     vertex  8.490815e+01  3.623373e+01  5.424727e+01
     vertex  8.405379e+01  3.249053e+01  4.849455e+01
   endloop
 endfacet
 facet normal -3.637803e-01 -7.553975e-01  5.450124e-01
   outer loop
     vertex  8.566263e+01  3.171576e+01  4.849455e+01
     vertex  8.405379e+01  3.249053e+01  4.849455e+01
     vertex  8.322227e+01  2.874043e+01  4.274182e+01
   endloop
 endfacet
 facet normal -6.553171e-01 -5.225980e-01  5.453905e-01
   outer loop
     vertex  8.566263e+01  3.171576e+01  4.849455e+01
     vertex  9.023522e+01  3.198554e+01  5.424727e+01
     vertex  8.805649e+01  3.471757e+01  5.424727e+01
   endloop
 endfacet
 facet normal -6.871115e-01 -4.742788e-01  5.503975e-01
   outer loop
     vertex  8.677598e+01  3.031966e+01  4.849455e+01
     vertex  8.329038e+01  2.869342e+01  4.274182e+01
     vertex  8.331406e+01  2.865911e+01  4.274182e+01
   endloop
 endfacet
 facet normal -7.785649e-01 -2.952707e-01  5.537616e-01
   outer loop
     vertex  8.677598e+01  3.031966e+01  4.849455e+01
     vertex  8.331406e+01  2.865911e+01  4.274182e+01
     vertex  8.332884e+01  2.862014e+01  4.274182e+01
   endloop
 endfacet
 facet normal -8.171671e-01 -1.865131e-01  5.453905e-01
   outer loop
     vertex  8.677598e+01  3.031966e+01  4.849455e+01
     vertex  8.717333e+01  2.857875e+01  4.849455e+01
     vertex  9.101279e+01  2.857875e+01  5.424727e+01
   endloop
 endfacet
 facet normal -8.174469e-01 -1.865769e-01  5.449491e-01
   outer loop
     vertex  8.677598e+01  3.031966e+01  4.849455e+01
     vertex  8.332884e+01  2.862014e+01  4.274182e+01
     vertex  8.717333e+01  2.857875e+01  4.849455e+01
   endloop
 endfacet
 facet normal -8.171671e-01 -1.865131e-01  5.453905e-01
   outer loop
     vertex  8.677598e+01  3.031966e+01  4.849455e+01
     vertex  9.101279e+01  2.857875e+01  5.424727e+01
     vertex  9.023522e+01  3.198554e+01  5.424727e+01
   endloop
 endfacet
 facet normal -6.555308e-01 -5.227684e-01  5.449703e-01
   outer loop
     vertex  8.677598e+01  3.031966e+01  4.849455e+01
     vertex  8.566263e+01  3.171576e+01  4.849455e+01
     vertex  8.329038e+01  2.869342e+01  4.274182e+01
   endloop
 endfacet
 facet normal -6.553171e-01 -5.225980e-01  5.453905e-01
   outer loop
     vertex  8.677598e+01  3.031966e+01  4.849455e+01
     vertex  9.023522e+01  3.198554e+01  5.424727e+01
     vertex  8.566263e+01  3.171576e+01  4.849455e+01
   endloop
 endfacet
 facet normal  0.000000e+00  0.000000e+00  1.000000e+00
   outer loop
     vertex  8.333387e+01  2.857875e+01  4.274182e+01
     vertex  8.314011e+01  2.875041e+01  4.274182e+01
     vertex  8.309964e+01  2.874043e+01  4.274182e+01
   endloop
 endfacet
 facet normal  0.000000e+00  0.000000e+00  1.000000e+00
   outer loop
     vertex  8.333387e+01  2.857875e+01  4.274182e+01
     vertex  8.318180e+01  2.875041e+01  4.274182e+01
     vertex  8.314011e+01  2.875041e+01  4.274182e+01
   endloop
 endfacet
 facet normal  0.000000e+00  0.000000e+00  1.000000e+00
   outer loop
     vertex  8.333387e+01  2.857875e+01  4.274182e+01
     vertex  8.322227e+01  2.874043e+01  4.274182e+01
     vertex  8.318180e+01  2.875041e+01  4.274182e+01
   endloop
 endfacet
 facet normal  0.000000e+00  0.000000e+00  1.000000e+00
   outer loop
     vertex  8.333387e+01  2.857875e+01  4.274182e+01
     vertex  8.325918e+01  2.872106e+01  4.274182e+01
     vertex  8.322227e+01  2.874043e+01  4.274182e+01
   endloop
 endfacet
 facet normal  0.000000e+00  0.000000e+00  1.000000e+00
   outer loop
     vertex  8.333387e+01  2.857875e+01  4.274182e+01
     vertex  8.329038e+01  2.869342e+01  4.274182e+01
     vertex  8.325918e+01  2.872106e+01  4.274182e+01
   endloop
 endfacet
 facet normal  0.000000e+00  0.000000e+00  1.000000e+00
   outer loop
     vertex  8.333387e+01  2.857875e+01  4.274182e+01
     vertex  8.331406e+01  2.865911e+01  4.274182e+01
     vertex  8.329038e+01  2.869342e+01  4.274182e+01
   endloop
 endfacet
 facet normal  0.000000e+00  0.000000e+00  1.000000e+00
   outer loop
     vertex  8.333387e+01  2.857875e+01  4.274182e+01
     vertex  8.332884e+01  2.862014e+01  4.274182e+01
     vertex  8.331406e+01  2.865911e+01  4.274182e+01
   endloop
 endfacet
 facet normal  0.000000e+00  0.000000e+00  1.000000e+00
   outer loop
     vertex  8.332884e+01  2.853737e+01  4.274182e+01
     vertex  8.306273e+01  2.872106e+01  4.274182e+01
     vertex  8.303152e+01  2.869342e+01  4.274182e+01
   endloop
 endfacet
 facet normal  0.000000e+00  0.000000e+00  1.000000e+00
   outer loop
     vertex  8.332884e+01  2.853737e+01  4.274182e+01
     vertex  8.309964e+01  2.874043e+01  4.274182e+01
     vertex  8.306273e+01  2.872106e+01  4.274182e+01
   endloop
 endfacet
 facet normal  0.000000e+00 -0.000000e+00  1.000000e+00
   outer loop
     vertex  8.332884e+01  2.853737e+01  4.274182e+01
     vertex  8.333387e+01  2.857875e+01  4.274182e+01
     vertex  8.309964e+01  2.874043e+01  4.274182e+01
   endloop
 endfacet
 facet normal  0.000000e+00  0.000000e+00  1.000000e+00
   outer loop
     vertex  8.329038e+01  2.846409e+01  4.274182e+01
     vertex  8.331406e+01  2.849840e+01  4.274182e+01
     vertex  8.332884e+01  2.853737e+01  4.274182e+01
   endloop
 endfacet
 facet normal  0.000000e+00  0.000000e+00  1.000000e+00
   outer loop
     vertex  8.329038e+01  2.846409e+01  4.274182e+01
     vertex  8.322227e+01  2.841708e+01  4.274182e+01
     vertex  8.325918e+01  2.843645e+01  4.274182e+01
   endloop
 endfacet
 facet normal  0.000000e+00  0.000000e+00  1.000000e+00
   outer loop
     vertex  8.329038e+01  2.846409e+01  4.274182e+01
     vertex  8.318180e+01  2.840710e+01  4.274182e+01
     vertex  8.322227e+01  2.841708e+01  4.274182e+01
   endloop
 endfacet
 facet normal  0.000000e+00  0.000000e+00  1.000000e+00
   outer loop
     vertex  8.329038e+01  2.846409e+01  4.274182e+01
     vertex  8.314011e+01  2.840710e+01  4.274182e+01
     vertex  8.318180e+01  2.840710e+01  4.274182e+01
   endloop
 endfacet
 facet normal  0.000000e+00  0.000000e+00  1.000000e+00
   outer loop
     vertex  8.329038e+01  2.846409e+01  4.274182e+01
     vertex  8.309964e+01  2.841708e+01  4.274182e+01
     vertex  8.314011e+01  2.840710e+01  4.274182e+01
   endloop
 endfacet
 facet normal  0.000000e+00  0.000000e+00  1.000000e+00
   outer loop
     vertex  8.329038e+01  2.846409e+01  4.274182e+01
     vertex  8.306273e+01  2.843645e+01  4.274182e+01
     vertex  8.309964e+01  2.841708e+01  4.274182e+01
   endloop
 endfacet
 facet normal  0.000000e+00  0.000000e+00  1.000000e+00
   outer loop
     vertex  8.329038e+01  2.846409e+01  4.274182e+01
     vertex  8.303152e+01  2.846409e+01  4.274182e+01
     vertex  8.306273e+01  2.843645e+01  4.274182e+01
   endloop
 endfacet
 facet normal  0.000000e+00  0.000000e+00  1.000000e+00
   outer loop
     vertex  8.329038e+01  2.846409e+01  4.274182e+01
     vertex  8.300785e+01  2.849840e+01  4.274182e+01
     vertex  8.303152e+01  2.846409e+01  4.274182e+01
   endloop
 endfacet
 facet normal  0.000000e+00  0.000000e+00  1.000000e+00
   outer loop
     vertex  8.329038e+01  2.846409e+01  4.274182e+01
     vertex  8.299306e+01  2.853737e+01  4.274182e+01
     vertex  8.300785e+01  2.849840e+01  4.274182e+01
   endloop
 endfacet
 facet normal  0.000000e+00  0.000000e+00  1.000000e+00
   outer loop
     vertex  8.329038e+01  2.846409e+01  4.274182e+01
     vertex  8.298804e+01  2.857875e+01  4.274182e+01
     vertex  8.299306e+01  2.853737e+01  4.274182e+01
   endloop
 endfacet
 facet normal  0.000000e+00  0.000000e+00  1.000000e+00
   outer loop
     vertex  8.329038e+01  2.846409e+01  4.274182e+01
     vertex  8.299306e+01  2.862014e+01  4.274182e+01
     vertex  8.298804e+01  2.857875e+01  4.274182e+01
   endloop
 endfacet
 facet normal  0.000000e+00  0.000000e+00  1.000000e+00
   outer loop
     vertex  8.329038e+01  2.846409e+01  4.274182e+01
     vertex  8.300785e+01  2.865911e+01  4.274182e+01
     vertex  8.299306e+01  2.862014e+01  4.274182e+01
   endloop
 endfacet
 facet normal  0.000000e+00  0.000000e+00  1.000000e+00
   outer loop
     vertex  8.329038e+01  2.846409e+01  4.274182e+01
     vertex  8.303152e+01  2.869342e+01  4.274182e+01
     vertex  8.300785e+01  2.865911e+01  4.274182e+01
   endloop
 endfacet
 facet normal  0.000000e+00 -0.000000e+00  1.000000e+00
   outer loop
     vertex  8.329038e+01  2.846409e+01  4.274182e+01
     vertex  8.332884e+01  2.853737e+01  4.274182e+01
     vertex  8.303152e+01  2.869342e+01  4.274182e+01
   endloop
 endfacet
endsolid
