solid 
 facet normal -1.000000e+00  0.000000e+00  0.000000e+00
   outer loop
     vertex  0.000000e+00  0.000000e+00  6.000000e+01
     vertex  0.000000e+00  9.340156e+01  0.000000e+00
     vertex  0.000000e+00  0.000000e+00  0.000000e+00
   endloop
 endfacet
 facet normal -1.000000e+00  0.000000e+00  0.000000e+00
   outer loop
     vertex  0.000000e+00  0.000000e+00  6.000000e+01
     vertex  0.000000e+00  9.340156e+01  6.000000e+01
     vertex  0.000000e+00  9.340156e+01  0.000000e+00
   endloop
 endfacet
 facet normal  0.000000e+00 -1.000000e+00 -0.000000e+00
   outer loop
     vertex  1.112280e+02  0.000000e+00  6.000000e+01
     vertex  0.000000e+00  0.000000e+00  0.000000e+00
     vertex  1.112280e+02  0.000000e+00  0.000000e+00
   endloop
 endfacet
 facet normal -0.000000e+00 -1.000000e+00  0.000000e+00
   outer loop
     vertex  1.112280e+02  0.000000e+00  6.000000e+01
     vertex  0.000000e+00  0.000000e+00  6.000000e+01
     vertex  0.000000e+00  0.000000e+00  0.000000e+00
   endloop
 endfacet
 facet normal  0.000000e+00  0.000000e+00  1.000000e+00
   outer loop
     vertex  7.559796e+01  4.418695e+01  6.000000e+01
     vertex  7.291578e+01  4.656316e+01  6.000000e+01
     vertex  0.000000e+00  0.000000e+00  6.000000e+01
   endloop
 endfacet
 facet normal  0.000000e+00  0.000000e+00  1.000000e+00
   outer loop
     vertex  7.088020e+01  4.951220e+01  6.000000e+01
     vertex  0.000000e+00  0.000000e+00  6.000000e+01
     vertex  7.291578e+01  4.656316e+01  6.000000e+01
   endloop
 endfacet
 facet normal  0.000000e+00  0.000000e+00  1.000000e+00
   outer loop
     vertex  7.877087e+01  4.252168e+01  6.000000e+01
     vertex  0.000000e+00  0.000000e+00  6.000000e+01
     vertex  1.112280e+02  0.000000e+00  6.000000e+01
   endloop
 endfacet
 facet normal  0.000000e+00  0.000000e+00  1.000000e+00
   outer loop
     vertex  7.877087e+01  4.252168e+01  6.000000e+01
     vertex  7.559796e+01  4.418695e+01  6.000000e+01
     vertex  0.000000e+00  0.000000e+00  6.000000e+01
   endloop
 endfacet
 facet normal  0.000000e+00  0.000000e+00  1.000000e+00
   outer loop
     vertex  6.960952e+01  5.286270e+01  6.000000e+01
     vertex  0.000000e+00  9.340156e+01  6.000000e+01
     vertex  0.000000e+00  0.000000e+00  6.000000e+01
   endloop
 endfacet
 facet normal  0.000000e+00  0.000000e+00  1.000000e+00
   outer loop
     vertex  6.960952e+01  5.286270e+01  6.000000e+01
     vertex  0.000000e+00  0.000000e+00  6.000000e+01
     vertex  7.088020e+01  4.951220e+01  6.000000e+01
   endloop
 endfacet
 facet normal  0.000000e+00  0.000000e+00  1.000000e+00
   outer loop
     vertex  8.225010e+01  4.166413e+01  6.000000e+01
     vertex  7.877087e+01  4.252168e+01  6.000000e+01
     vertex  1.112280e+02  0.000000e+00  6.000000e+01
   endloop
 endfacet
 facet normal  0.000000e+00  0.000000e+00  1.000000e+00
   outer loop
     vertex  6.917760e+01  5.641993e+01  6.000000e+01
     vertex  0.000000e+00  9.340156e+01  6.000000e+01
     vertex  6.960952e+01  5.286270e+01  6.000000e+01
   endloop
 endfacet
 facet normal  0.000000e+00  0.000000e+00  1.000000e+00
   outer loop
     vertex  8.583346e+01  4.166413e+01  6.000000e+01
     vertex  8.225010e+01  4.166413e+01  6.000000e+01
     vertex  1.112280e+02  0.000000e+00  6.000000e+01
   endloop
 endfacet
 facet normal  0.000000e+00  0.000000e+00  1.000000e+00
   outer loop
     vertex  6.960952e+01  5.997716e+01  6.000000e+01
     vertex  0.000000e+00  9.340156e+01  6.000000e+01
     vertex  6.917760e+01  5.641993e+01  6.000000e+01
   endloop
 endfacet
 facet normal  0.000000e+00  0.000000e+00  1.000000e+00
   outer loop
     vertex  8.931269e+01  4.252168e+01  6.000000e+01
     vertex  8.583346e+01  4.166413e+01  6.000000e+01
     vertex  1.112280e+02  0.000000e+00  6.000000e+01
   endloop
 endfacet
 facet normal  0.000000e+00  0.000000e+00  1.000000e+00
   outer loop
     vertex  7.088020e+01  6.332766e+01  6.000000e+01
     vertex  0.000000e+00  9.340156e+01  6.000000e+01
     vertex  6.960952e+01  5.997716e+01  6.000000e+01
   endloop
 endfacet
 facet normal  0.000000e+00  0.000000e+00  1.000000e+00
   outer loop
     vertex  9.248560e+01  4.418695e+01  6.000000e+01
     vertex  8.931269e+01  4.252168e+01  6.000000e+01
     vertex  1.112280e+02  0.000000e+00  6.000000e+01
   endloop
 endfacet
 facet normal  0.000000e+00  0.000000e+00  1.000000e+00
   outer loop
     vertex  7.291578e+01  6.627671e+01  6.000000e+01
     vertex  0.000000e+00  9.340156e+01  6.000000e+01
     vertex  7.088020e+01  6.332766e+01  6.000000e+01
   endloop
 endfacet
 facet normal  0.000000e+00  0.000000e+00  1.000000e+00
   outer loop
     vertex  9.516778e+01  4.656316e+01  6.000000e+01
     vertex  9.248560e+01  4.418695e+01  6.000000e+01
     vertex  1.112280e+02  0.000000e+00  6.000000e+01
   endloop
 endfacet
 facet normal  0.000000e+00  0.000000e+00  1.000000e+00
   outer loop
     vertex  7.559796e+01  6.865291e+01  6.000000e+01
     vertex  0.000000e+00  9.340156e+01  6.000000e+01
     vertex  7.291578e+01  6.627671e+01  6.000000e+01
   endloop
 endfacet
 facet normal  0.000000e+00  0.000000e+00  1.000000e+00
   outer loop
     vertex  9.720336e+01  4.951220e+01  6.000000e+01
     vertex  9.516778e+01  4.656316e+01  6.000000e+01
     vertex  1.112280e+02  0.000000e+00  6.000000e+01
   endloop
 endfacet
 facet normal  0.000000e+00  0.000000e+00  1.000000e+00
   outer loop
     vertex  7.877087e+01  7.031818e+01  6.000000e+01
     vertex  0.000000e+00  9.340156e+01  6.000000e+01
     vertex  7.559796e+01  6.865291e+01  6.000000e+01
   endloop
 endfacet
 facet normal  0.000000e+00  0.000000e+00  1.000000e+00
   outer loop
     vertex  9.847403e+01  5.286270e+01  6.000000e+01
     vertex  9.720336e+01  4.951220e+01  6.000000e+01
     vertex  1.112280e+02  0.000000e+00  6.000000e+01
   endloop
 endfacet
 facet normal  0.000000e+00  0.000000e+00  1.000000e+00
   outer loop
     vertex  9.890596e+01  5.641993e+01  6.000000e+01
     vertex  9.847403e+01  5.286270e+01  6.000000e+01
     vertex  1.112280e+02  0.000000e+00  6.000000e+01
   endloop
 endfacet
 facet normal  0.000000e+00  0.000000e+00  1.000000e+00
   outer loop
     vertex  1.112280e+02  9.340156e+01  6.000000e+01
     vertex  7.877087e+01  7.031818e+01  6.000000e+01
     vertex  8.225010e+01  7.117574e+01  6.000000e+01
   endloop
 endfacet
 facet normal  0.000000e+00  0.000000e+00  1.000000e+00
   outer loop
     vertex  1.112280e+02  9.340156e+01  6.000000e+01
     vertex  8.225010e+01  7.117574e+01  6.000000e+01
     vertex  8.583346e+01  7.117574e+01  6.000000e+01
   endloop
 endfacet
 facet normal  0.000000e+00  0.000000e+00  1.000000e+00
   outer loop
     vertex  1.112280e+02  9.340156e+01  6.000000e+01
     vertex  8.583346e+01  7.117574e+01  6.000000e+01
     vertex  8.931269e+01  7.031818e+01  6.000000e+01
   endloop
 endfacet
 facet normal  0.000000e+00  0.000000e+00  1.000000e+00
   outer loop
     vertex  1.112280e+02  9.340156e+01  6.000000e+01
     vertex  8.931269e+01  7.031818e+01  6.000000e+01
     vertex  9.248560e+01  6.865291e+01  6.000000e+01
   endloop
 endfacet
 facet normal  0.000000e+00  0.000000e+00  1.000000e+00
   outer loop
     vertex  1.112280e+02  9.340156e+01  6.000000e+01
     vertex  9.248560e+01  6.865291e+01  6.000000e+01
     vertex  9.516778e+01  6.627671e+01  6.000000e+01
   endloop
 endfacet
 facet normal  0.000000e+00  0.000000e+00  1.000000e+00
   outer loop
     vertex  1.112280e+02  9.340156e+01  6.000000e+01
     vertex  9.516778e+01  6.627671e+01  6.000000e+01
     vertex  9.720336e+01  6.332766e+01  6.000000e+01
   endloop
 endfacet
 facet normal  0.000000e+00  0.000000e+00  1.000000e+00
   outer loop
     vertex  1.112280e+02  9.340156e+01  6.000000e+01
     vertex  9.720336e+01  6.332766e+01  6.000000e+01
     vertex  9.847403e+01  5.997716e+01  6.000000e+01
   endloop
 endfacet
 facet normal  0.000000e+00  0.000000e+00  1.000000e+00
   outer loop
     vertex  1.112280e+02  9.340156e+01  6.000000e+01
     vertex  9.847403e+01  5.997716e+01  6.000000e+01
     vertex  9.890596e+01  5.641993e+01  6.000000e+01
   endloop
 endfacet
 facet normal  0.000000e+00  0.000000e+00  1.000000e+00
   outer loop
     vertex  1.112280e+02  9.340156e+01  6.000000e+01
     vertex  9.890596e+01  5.641993e+01  6.000000e+01
     vertex  1.112280e+02  0.000000e+00  6.000000e+01
   endloop
 endfacet
 facet normal  0.000000e+00  0.000000e+00  1.000000e+00
   outer loop
     vertex  1.112280e+02  9.340156e+01  6.000000e+01
     vertex  0.000000e+00  9.340156e+01  6.000000e+01
     vertex  7.877087e+01  7.031818e+01  6.000000e+01
   endloop
 endfacet
 facet normal  0.000000e+00  1.000000e+00  0.000000e+00
   outer loop
     vertex  1.112280e+02  9.340156e+01  6.000000e+01
     vertex  1.112280e+02  9.340156e+01  0.000000e+00
     vertex  0.000000e+00  9.340156e+01  0.000000e+00
   endloop
 endfacet
 facet normal  0.000000e+00  1.000000e+00  0.000000e+00
   outer loop
     vertex  1.112280e+02  9.340156e+01  6.000000e+01
     vertex  0.000000e+00  9.340156e+01  0.000000e+00
     vertex  0.000000e+00  9.340156e+01  6.000000e+01
   endloop
 endfacet
 facet normal -0.000000e+00  0.000000e+00 -1.000000e+00
   outer loop
     vertex  1.112280e+02  9.340156e+01  0.000000e+00
     vertex  0.000000e+00  0.000000e+00  0.000000e+00
     vertex  0.000000e+00  9.340156e+01  0.000000e+00
   endloop
 endfacet
 facet normal  0.000000e+00 -0.000000e+00 -1.000000e+00
   outer loop
     vertex  1.112280e+02  9.340156e+01  0.000000e+00
     vertex  1.112280e+02  0.000000e+00  0.000000e+00
     vertex  0.000000e+00  0.000000e+00  0.000000e+00
   endloop
 endfacet
 facet normal  1.000000e+00  0.000000e+00  0.000000e+00
   outer loop
     vertex  1.112280e+02  0.000000e+00  6.000000e+01
     vertex  1.112280e+02  0.000000e+00  0.000000e+00
     vertex  1.112280e+02  9.340156e+01  0.000000e+00
   endloop
 endfacet
 facet normal  1.000000e+00 -0.000000e+00  0.000000e+00
   outer loop
     vertex  1.112280e+02  0.000000e+00  6.000000e+01
     vertex  1.112280e+02  9.340156e+01  0.000000e+00
     vertex  1.112280e+02  9.340156e+01  6.000000e+01
   endloop
 endfacet
 facet normal -8.174902e-01  9.926128e-02  5.673244e-01
   outer loop
     vertex  9.404082e+01  5.641993e+01  5.298954e+01
     vertex  9.847403e+01  5.286270e+01  6.000000e+01
     vertex  9.890596e+01  5.641993e+01  6.000000e+01
   endloop
 endfacet
 facet normal -8.174902e-01  9.926128e-02  5.673244e-01
   outer loop
     vertex  8.430272e+01  5.635562e+01  3.896861e+01
     vertex  8.917567e+01  5.641993e+01  4.597907e+01
     vertex  8.431053e+01  5.641993e+01  3.896861e+01
   endloop
 endfacet
 facet normal -8.174902e-01 -9.926128e-02  5.673244e-01
   outer loop
     vertex  9.404082e+01  5.641993e+01  5.298954e+01
     vertex  9.890596e+01  5.641993e+01  6.000000e+01
     vertex  9.847403e+01  5.997716e+01  6.000000e+01
   endloop
 endfacet
 facet normal -8.174902e-01 -9.926128e-02  5.673244e-01
   outer loop
     vertex  8.431053e+01  5.641993e+01  3.896861e+01
     vertex  8.917567e+01  5.641993e+01  4.597907e+01
     vertex  8.430272e+01  5.648425e+01  3.896861e+01
   endloop
 endfacet
 facet normal -7.734865e-01  2.933447e-01  5.618430e-01
   outer loop
     vertex  9.327968e+01  5.259347e+01  5.298954e+01
     vertex  9.720336e+01  4.951220e+01  6.000000e+01
     vertex  9.847403e+01  5.286270e+01  6.000000e+01
   endloop
 endfacet
 facet normal -7.962380e-01  1.583816e-01  5.838838e-01
   outer loop
     vertex  9.327968e+01  5.259347e+01  5.298954e+01
     vertex  9.847403e+01  5.286270e+01  6.000000e+01
     vertex  9.404082e+01  5.641993e+01  5.298954e+01
   endloop
 endfacet
 facet normal -6.781103e-01  4.530988e-01  5.786778e-01
   outer loop
     vertex  9.111217e+01  4.934955e+01  5.298954e+01
     vertex  9.720336e+01  4.951220e+01  6.000000e+01
     vertex  9.327968e+01  5.259347e+01  5.298954e+01
   endloop
 endfacet
 facet normal -6.736170e-01  4.649642e-01  5.744984e-01
   outer loop
     vertex  9.111217e+01  4.934955e+01  5.298954e+01
     vertex  9.516778e+01  4.656316e+01  6.000000e+01
     vertex  9.720336e+01  4.951220e+01  6.000000e+01
   endloop
 endfacet
 facet normal -5.480666e-01  6.186393e-01  5.629463e-01
   outer loop
     vertex  9.111217e+01  4.934955e+01  5.298954e+01
     vertex  9.248560e+01  4.418695e+01  6.000000e+01
     vertex  9.516778e+01  4.656316e+01  6.000000e+01
   endloop
 endfacet
 facet normal -3.835097e-01  7.307167e-01  5.647773e-01
   outer loop
     vertex  8.786824e+01  4.718203e+01  5.298954e+01
     vertex  8.931269e+01  4.252168e+01  6.000000e+01
     vertex  9.248560e+01  4.418695e+01  6.000000e+01
   endloop
 endfacet
 facet normal -1.965375e-01  7.973839e-01  5.705716e-01
   outer loop
     vertex  8.786824e+01  4.718203e+01  5.298954e+01
     vertex  8.583346e+01  4.166413e+01  6.000000e+01
     vertex  8.931269e+01  4.252168e+01  6.000000e+01
   endloop
 endfacet
 facet normal -4.506190e-01  6.743991e-01  5.849174e-01
   outer loop
     vertex  8.786824e+01  4.718203e+01  5.298954e+01
     vertex  9.248560e+01  4.418695e+01  6.000000e+01
     vertex  9.111217e+01  4.934955e+01  5.298954e+01
   endloop
 endfacet
 facet normal -7.681799e-01  2.913322e-01  5.701098e-01
   outer loop
     vertex  8.878488e+01  5.445528e+01  4.597907e+01
     vertex  8.430272e+01  5.635562e+01  3.896861e+01
     vertex  8.427975e+01  5.629504e+01  3.896861e+01
   endloop
 endfacet
 facet normal -8.107928e-01  1.612767e-01  5.626765e-01
   outer loop
     vertex  8.878488e+01  5.445528e+01  4.597907e+01
     vertex  9.327968e+01  5.259347e+01  5.298954e+01
     vertex  9.404082e+01  5.641993e+01  5.298954e+01
   endloop
 endfacet
 facet normal -8.107928e-01  1.612767e-01  5.626765e-01
   outer loop
     vertex  8.878488e+01  5.445528e+01  4.597907e+01
     vertex  9.404082e+01  5.641993e+01  5.298954e+01
     vertex  8.917567e+01  5.641993e+01  4.597907e+01
   endloop
 endfacet
 facet normal -8.110558e-01  1.613290e-01  5.622824e-01
   outer loop
     vertex  8.878488e+01  5.445528e+01  4.597907e+01
     vertex  8.917567e+01  5.641993e+01  4.597907e+01
     vertex  8.430272e+01  5.635562e+01  3.896861e+01
   endloop
 endfacet
 facet normal -1.586719e-01  7.976976e-01  5.818090e-01
   outer loop
     vertex  8.404178e+01  4.642089e+01  5.298954e+01
     vertex  8.583346e+01  4.166413e+01  6.000000e+01
     vertex  8.786824e+01  4.718203e+01  5.298954e+01
   endloop
 endfacet
 facet normal  0.000000e+00  8.274941e-01  5.614745e-01
   outer loop
     vertex  8.404178e+01  4.642089e+01  5.298954e+01
     vertex  8.225010e+01  4.166413e+01  6.000000e+01
     vertex  8.583346e+01  4.166413e+01  6.000000e+01
   endloop
 endfacet
 facet normal -6.798297e-01  4.692525e-01  5.635900e-01
   outer loop
     vertex  8.767199e+01  5.278972e+01  4.597907e+01
     vertex  8.427975e+01  5.629504e+01  3.896861e+01
     vertex  8.424294e+01  5.624172e+01  3.896861e+01
   endloop
 endfacet
 facet normal -5.450564e-01  6.152414e-01  5.695538e-01
   outer loop
     vertex  8.767199e+01  5.278972e+01  4.597907e+01
     vertex  8.424294e+01  5.624172e+01  3.896861e+01
     vertex  8.419445e+01  5.619875e+01  3.896861e+01
   endloop
 endfacet
 facet normal -6.875240e-01  4.593889e-01  5.623812e-01
   outer loop
     vertex  8.767199e+01  5.278972e+01  4.597907e+01
     vertex  8.878488e+01  5.445528e+01  4.597907e+01
     vertex  8.427975e+01  5.629504e+01  3.896861e+01
   endloop
 endfacet
 facet normal -6.873569e-01  4.592772e-01  5.626765e-01
   outer loop
     vertex  8.767199e+01  5.278972e+01  4.597907e+01
     vertex  9.327968e+01  5.259347e+01  5.298954e+01
     vertex  8.878488e+01  5.445528e+01  4.597907e+01
   endloop
 endfacet
 facet normal -6.873569e-01  4.592772e-01  5.626765e-01
   outer loop
     vertex  8.767199e+01  5.278972e+01  4.597907e+01
     vertex  9.111217e+01  4.934955e+01  5.298954e+01
     vertex  9.327968e+01  5.259347e+01  5.298954e+01
   endloop
 endfacet
 facet normal  1.965375e-01  7.973839e-01  5.705716e-01
   outer loop
     vertex  8.021531e+01  4.718203e+01  5.298954e+01
     vertex  7.877087e+01  4.252168e+01  6.000000e+01
     vertex  8.225010e+01  4.166413e+01  6.000000e+01
   endloop
 endfacet
 facet normal  3.835097e-01  7.307167e-01  5.647773e-01
   outer loop
     vertex  8.021531e+01  4.718203e+01  5.298954e+01
     vertex  7.559796e+01  4.418695e+01  6.000000e+01
     vertex  7.877087e+01  4.252168e+01  6.000000e+01
   endloop
 endfacet
 facet normal  1.586719e-01  7.976976e-01  5.818090e-01
   outer loop
     vertex  8.021531e+01  4.718203e+01  5.298954e+01
     vertex  8.225010e+01  4.166413e+01  6.000000e+01
     vertex  8.404178e+01  4.642089e+01  5.298954e+01
   endloop
 endfacet
 facet normal -4.594337e-01  6.875911e-01  5.622626e-01
   outer loop
     vertex  8.600643e+01  5.167683e+01  4.597907e+01
     vertex  8.767199e+01  5.278972e+01  4.597907e+01
     vertex  8.419445e+01  5.619875e+01  3.896861e+01
   endloop
 endfacet
 facet normal -3.822795e-01  7.283728e-01  5.686259e-01
   outer loop
     vertex  8.600643e+01  5.167683e+01  4.597907e+01
     vertex  8.419445e+01  5.619875e+01  3.896861e+01
     vertex  8.413708e+01  5.616865e+01  3.896861e+01
   endloop
 endfacet
 facet normal -1.973511e-01  8.006848e-01  5.656468e-01
   outer loop
     vertex  8.600643e+01  5.167683e+01  4.597907e+01
     vertex  8.413708e+01  5.616865e+01  3.896861e+01
     vertex  8.407417e+01  5.615314e+01  3.896861e+01
   endloop
 endfacet
 facet normal -4.592772e-01  6.873569e-01  5.626765e-01
   outer loop
     vertex  8.600643e+01  5.167683e+01  4.597907e+01
     vertex  9.111217e+01  4.934955e+01  5.298954e+01
     vertex  8.767199e+01  5.278972e+01  4.597907e+01
   endloop
 endfacet
 facet normal -4.592772e-01  6.873569e-01  5.626765e-01
   outer loop
     vertex  8.600643e+01  5.167683e+01  4.597907e+01
     vertex  8.786824e+01  4.718203e+01  5.298954e+01
     vertex  9.111217e+01  4.934955e+01  5.298954e+01
   endloop
 endfacet
 facet normal  4.506190e-01  6.743991e-01  5.849174e-01
   outer loop
     vertex  7.697139e+01  4.934955e+01  5.298954e+01
     vertex  7.559796e+01  4.418695e+01  6.000000e+01
     vertex  8.021531e+01  4.718203e+01  5.298954e+01
   endloop
 endfacet
 facet normal  5.480666e-01  6.186393e-01  5.629463e-01
   outer loop
     vertex  7.697139e+01  4.934955e+01  5.298954e+01
     vertex  7.291578e+01  4.656316e+01  6.000000e+01
     vertex  7.559796e+01  4.418695e+01  6.000000e+01
   endloop
 endfacet
 facet normal  6.736170e-01  4.649642e-01  5.744984e-01
   outer loop
     vertex  7.697139e+01  4.934955e+01  5.298954e+01
     vertex  7.088020e+01  4.951220e+01  6.000000e+01
     vertex  7.291578e+01  4.656316e+01  6.000000e+01
   endloop
 endfacet
 facet normal  0.000000e+00  8.214399e-01  5.702951e-01
   outer loop
     vertex  8.404178e+01  5.128604e+01  4.597907e+01
     vertex  8.407417e+01  5.615314e+01  3.896861e+01
     vertex  8.400938e+01  5.615314e+01  3.896861e+01
   endloop
 endfacet
 facet normal -1.613238e-01  8.110294e-01  5.623219e-01
   outer loop
     vertex  8.404178e+01  5.128604e+01  4.597907e+01
     vertex  8.600643e+01  5.167683e+01  4.597907e+01
     vertex  8.407417e+01  5.615314e+01  3.896861e+01
   endloop
 endfacet
 facet normal -1.612767e-01  8.107928e-01  5.626765e-01
   outer loop
     vertex  8.404178e+01  5.128604e+01  4.597907e+01
     vertex  8.786824e+01  4.718203e+01  5.298954e+01
     vertex  8.600643e+01  5.167683e+01  4.597907e+01
   endloop
 endfacet
 facet normal -1.612767e-01  8.107928e-01  5.626765e-01
   outer loop
     vertex  8.404178e+01  5.128604e+01  4.597907e+01
     vertex  8.404178e+01  4.642089e+01  5.298954e+01
     vertex  8.786824e+01  4.718203e+01  5.298954e+01
   endloop
 endfacet
 facet normal  7.734865e-01  2.933447e-01  5.618430e-01
   outer loop
     vertex  7.480387e+01  5.259347e+01  5.298954e+01
     vertex  6.960952e+01  5.286270e+01  6.000000e+01
     vertex  7.088020e+01  4.951220e+01  6.000000e+01
   endloop
 endfacet
 facet normal  6.781103e-01  4.530988e-01  5.786778e-01
   outer loop
     vertex  7.480387e+01  5.259347e+01  5.298954e+01
     vertex  7.088020e+01  4.951220e+01  6.000000e+01
     vertex  7.697139e+01  4.934955e+01  5.298954e+01
   endloop
 endfacet
 facet normal  1.973511e-01  8.006848e-01  5.656468e-01
   outer loop
     vertex  8.207712e+01  5.167683e+01  4.597907e+01
     vertex  8.400938e+01  5.615314e+01  3.896861e+01
     vertex  8.394648e+01  5.616865e+01  3.896861e+01
   endloop
 endfacet
 facet normal  3.822795e-01  7.283728e-01  5.686259e-01
   outer loop
     vertex  8.207712e+01  5.167683e+01  4.597907e+01
     vertex  8.394648e+01  5.616865e+01  3.896861e+01
     vertex  8.388911e+01  5.619875e+01  3.896861e+01
   endloop
 endfacet
 facet normal  1.613238e-01  8.110294e-01  5.623219e-01
   outer loop
     vertex  8.207712e+01  5.167683e+01  4.597907e+01
     vertex  8.404178e+01  5.128604e+01  4.597907e+01
     vertex  8.400938e+01  5.615314e+01  3.896861e+01
   endloop
 endfacet
 facet normal  1.612767e-01  8.107928e-01  5.626765e-01
   outer loop
     vertex  8.207712e+01  5.167683e+01  4.597907e+01
     vertex  8.404178e+01  4.642089e+01  5.298954e+01
     vertex  8.404178e+01  5.128604e+01  4.597907e+01
   endloop
 endfacet
 facet normal  1.612767e-01  8.107928e-01  5.626765e-01
   outer loop
     vertex  8.207712e+01  5.167683e+01  4.597907e+01
     vertex  8.021531e+01  4.718203e+01  5.298954e+01
     vertex  8.404178e+01  4.642089e+01  5.298954e+01
   endloop
 endfacet
 facet normal  4.592772e-01  6.873569e-01  5.626765e-01
   outer loop
     vertex  8.207712e+01  5.167683e+01  4.597907e+01
     vertex  7.697139e+01  4.934955e+01  5.298954e+01
     vertex  8.021531e+01  4.718203e+01  5.298954e+01
   endloop
 endfacet
 facet normal  7.962380e-01  1.583816e-01  5.838838e-01
   outer loop
     vertex  7.404274e+01  5.641993e+01  5.298954e+01
     vertex  6.960952e+01  5.286270e+01  6.000000e+01
     vertex  7.480387e+01  5.259347e+01  5.298954e+01
   endloop
 endfacet
 facet normal  8.174902e-01  9.926128e-02  5.673244e-01
   outer loop
     vertex  7.404274e+01  5.641993e+01  5.298954e+01
     vertex  6.917760e+01  5.641993e+01  6.000000e+01
     vertex  6.960952e+01  5.286270e+01  6.000000e+01
   endloop
 endfacet
 facet normal  8.174902e-01 -9.926128e-02  5.673244e-01
   outer loop
     vertex  7.404274e+01  5.641993e+01  5.298954e+01
     vertex  6.960952e+01  5.997716e+01  6.000000e+01
     vertex  6.917760e+01  5.641993e+01  6.000000e+01
   endloop
 endfacet
 facet normal  5.450564e-01  6.152414e-01  5.695538e-01
   outer loop
     vertex  8.041157e+01  5.278972e+01  4.597907e+01
     vertex  8.388911e+01  5.619875e+01  3.896861e+01
     vertex  8.384061e+01  5.624172e+01  3.896861e+01
   endloop
 endfacet
 facet normal  6.798297e-01  4.692525e-01  5.635900e-01
   outer loop
     vertex  8.041157e+01  5.278972e+01  4.597907e+01
     vertex  8.384061e+01  5.624172e+01  3.896861e+01
     vertex  8.380381e+01  5.629504e+01  3.896861e+01
   endloop
 endfacet
 facet normal  4.594337e-01  6.875911e-01  5.622626e-01
   outer loop
     vertex  8.041157e+01  5.278972e+01  4.597907e+01
     vertex  8.207712e+01  5.167683e+01  4.597907e+01
     vertex  8.388911e+01  5.619875e+01  3.896861e+01
   endloop
 endfacet
 facet normal  4.592772e-01  6.873569e-01  5.626765e-01
   outer loop
     vertex  8.041157e+01  5.278972e+01  4.597907e+01
     vertex  7.697139e+01  4.934955e+01  5.298954e+01
     vertex  8.207712e+01  5.167683e+01  4.597907e+01
   endloop
 endfacet
 facet normal  7.962380e-01 -1.583816e-01  5.838838e-01
   outer loop
     vertex  7.480387e+01  6.024640e+01  5.298954e+01
     vertex  6.960952e+01  5.997716e+01  6.000000e+01
     vertex  7.404274e+01  5.641993e+01  5.298954e+01
   endloop
 endfacet
 facet normal  7.734865e-01 -2.933447e-01  5.618430e-01
   outer loop
     vertex  7.480387e+01  6.024640e+01  5.298954e+01
     vertex  7.088020e+01  6.332766e+01  6.000000e+01
     vertex  6.960952e+01  5.997716e+01  6.000000e+01
   endloop
 endfacet
 facet normal  7.681799e-01  2.913322e-01  5.701098e-01
   outer loop
     vertex  7.929868e+01  5.445528e+01  4.597907e+01
     vertex  8.380381e+01  5.629504e+01  3.896861e+01
     vertex  8.378084e+01  5.635562e+01  3.896861e+01
   endloop
 endfacet
 facet normal  6.875240e-01  4.593889e-01  5.623812e-01
   outer loop
     vertex  7.929868e+01  5.445528e+01  4.597907e+01
     vertex  8.041157e+01  5.278972e+01  4.597907e+01
     vertex  8.380381e+01  5.629504e+01  3.896861e+01
   endloop
 endfacet
 facet normal  6.873569e-01  4.592772e-01  5.626765e-01
   outer loop
     vertex  7.929868e+01  5.445528e+01  4.597907e+01
     vertex  7.697139e+01  4.934955e+01  5.298954e+01
     vertex  8.041157e+01  5.278972e+01  4.597907e+01
   endloop
 endfacet
 facet normal  6.873569e-01  4.592772e-01  5.626765e-01
   outer loop
     vertex  7.929868e+01  5.445528e+01  4.597907e+01
     vertex  7.480387e+01  5.259347e+01  5.298954e+01
     vertex  7.697139e+01  4.934955e+01  5.298954e+01
   endloop
 endfacet
 facet normal  6.736170e-01 -4.649642e-01  5.744984e-01
   outer loop
     vertex  7.697139e+01  6.349032e+01  5.298954e+01
     vertex  7.291578e+01  6.627671e+01  6.000000e+01
     vertex  7.088020e+01  6.332766e+01  6.000000e+01
   endloop
 endfacet
 facet normal  5.480666e-01 -6.186393e-01  5.629463e-01
   outer loop
     vertex  7.697139e+01  6.349032e+01  5.298954e+01
     vertex  7.559796e+01  6.865291e+01  6.000000e+01
     vertex  7.291578e+01  6.627671e+01  6.000000e+01
   endloop
 endfacet
 facet normal  6.781103e-01 -4.530988e-01  5.786778e-01
   outer loop
     vertex  7.697139e+01  6.349032e+01  5.298954e+01
     vertex  7.088020e+01  6.332766e+01  6.000000e+01
     vertex  7.480387e+01  6.024640e+01  5.298954e+01
   endloop
 endfacet
 facet normal  8.107928e-01  1.612767e-01  5.626765e-01
   outer loop
     vertex  7.890788e+01  5.641993e+01  4.597907e+01
     vertex  7.404274e+01  5.641993e+01  5.298954e+01
     vertex  7.480387e+01  5.259347e+01  5.298954e+01
   endloop
 endfacet
 facet normal  8.174902e-01  9.926128e-02  5.673244e-01
   outer loop
     vertex  7.890788e+01  5.641993e+01  4.597907e+01
     vertex  8.378084e+01  5.635562e+01  3.896861e+01
     vertex  8.377303e+01  5.641993e+01  3.896861e+01
   endloop
 endfacet
 facet normal  8.174902e-01 -9.926128e-02  5.673244e-01
   outer loop
     vertex  7.890788e+01  5.641993e+01  4.597907e+01
     vertex  8.377303e+01  5.641993e+01  3.896861e+01
     vertex  8.378084e+01  5.648425e+01  3.896861e+01
   endloop
 endfacet
 facet normal  8.110558e-01  1.613290e-01  5.622824e-01
   outer loop
     vertex  7.890788e+01  5.641993e+01  4.597907e+01
     vertex  7.929868e+01  5.445528e+01  4.597907e+01
     vertex  8.378084e+01  5.635562e+01  3.896861e+01
   endloop
 endfacet
 facet normal  8.107928e-01  1.612767e-01  5.626765e-01
   outer loop
     vertex  7.890788e+01  5.641993e+01  4.597907e+01
     vertex  7.480387e+01  5.259347e+01  5.298954e+01
     vertex  7.929868e+01  5.445528e+01  4.597907e+01
   endloop
 endfacet
 facet normal  3.835097e-01 -7.307167e-01  5.647773e-01
   outer loop
     vertex  8.021531e+01  6.565784e+01  5.298954e+01
     vertex  7.877087e+01  7.031818e+01  6.000000e+01
     vertex  7.559796e+01  6.865291e+01  6.000000e+01
   endloop
 endfacet
 facet normal  1.965375e-01 -7.973839e-01  5.705716e-01
   outer loop
     vertex  8.021531e+01  6.565784e+01  5.298954e+01
     vertex  8.225010e+01  7.117574e+01  6.000000e+01
     vertex  7.877087e+01  7.031818e+01  6.000000e+01
   endloop
 endfacet
 facet normal  4.506190e-01 -6.743991e-01  5.849174e-01
   outer loop
     vertex  8.021531e+01  6.565784e+01  5.298954e+01
     vertex  7.559796e+01  6.865291e+01  6.000000e+01
     vertex  7.697139e+01  6.349032e+01  5.298954e+01
   endloop
 endfacet
 facet normal  7.681799e-01 -2.913322e-01  5.701098e-01
   outer loop
     vertex  7.929868e+01  5.838459e+01  4.597907e+01
     vertex  8.378084e+01  5.648425e+01  3.896861e+01
     vertex  8.380381e+01  5.654483e+01  3.896861e+01
   endloop
 endfacet
 facet normal  8.107928e-01 -1.612767e-01  5.626765e-01
   outer loop
     vertex  7.929868e+01  5.838459e+01  4.597907e+01
     vertex  7.404274e+01  5.641993e+01  5.298954e+01
     vertex  7.890788e+01  5.641993e+01  4.597907e+01
   endloop
 endfacet
 facet normal  8.110558e-01 -1.613290e-01  5.622824e-01
   outer loop
     vertex  7.929868e+01  5.838459e+01  4.597907e+01
     vertex  7.890788e+01  5.641993e+01  4.597907e+01
     vertex  8.378084e+01  5.648425e+01  3.896861e+01
   endloop
 endfacet
 facet normal  8.107928e-01 -1.612767e-01  5.626765e-01
   outer loop
     vertex  7.929868e+01  5.838459e+01  4.597907e+01
     vertex  7.480387e+01  6.024640e+01  5.298954e+01
     vertex  7.404274e+01  5.641993e+01  5.298954e+01
   endloop
 endfacet
 facet normal  6.873569e-01 -4.592772e-01  5.626765e-01
   outer loop
     vertex  7.929868e+01  5.838459e+01  4.597907e+01
     vertex  7.697139e+01  6.349032e+01  5.298954e+01
     vertex  7.480387e+01  6.024640e+01  5.298954e+01
   endloop
 endfacet
 facet normal  1.586719e-01 -7.976976e-01  5.818090e-01
   outer loop
     vertex  8.404178e+01  6.641897e+01  5.298954e+01
     vertex  8.225010e+01  7.117574e+01  6.000000e+01
     vertex  8.021531e+01  6.565784e+01  5.298954e+01
   endloop
 endfacet
 facet normal  3.276772e-15 -8.274941e-01  5.614745e-01
   outer loop
     vertex  8.404178e+01  6.641897e+01  5.298954e+01
     vertex  8.583346e+01  7.117574e+01  6.000000e+01
     vertex  8.225010e+01  7.117574e+01  6.000000e+01
   endloop
 endfacet
 facet normal  6.873569e-01 -4.592772e-01  5.626765e-01
   outer loop
     vertex  8.041157e+01  6.005015e+01  4.597907e+01
     vertex  7.697139e+01  6.349032e+01  5.298954e+01
     vertex  7.929868e+01  5.838459e+01  4.597907e+01
   endloop
 endfacet
 facet normal  6.875240e-01 -4.593889e-01  5.623812e-01
   outer loop
     vertex  8.041157e+01  6.005015e+01  4.597907e+01
     vertex  7.929868e+01  5.838459e+01  4.597907e+01
     vertex  8.380381e+01  5.654483e+01  3.896861e+01
   endloop
 endfacet
 facet normal  6.798297e-01 -4.692525e-01  5.635900e-01
   outer loop
     vertex  8.041157e+01  6.005015e+01  4.597907e+01
     vertex  8.380381e+01  5.654483e+01  3.896861e+01
     vertex  8.384061e+01  5.659815e+01  3.896861e+01
   endloop
 endfacet
 facet normal  5.450564e-01 -6.152414e-01  5.695538e-01
   outer loop
     vertex  8.041157e+01  6.005015e+01  4.597907e+01
     vertex  8.384061e+01  5.659815e+01  3.896861e+01
     vertex  8.388911e+01  5.664111e+01  3.896861e+01
   endloop
 endfacet
 facet normal  4.592772e-01 -6.873569e-01  5.626765e-01
   outer loop
     vertex  8.041157e+01  6.005015e+01  4.597907e+01
     vertex  8.021531e+01  6.565784e+01  5.298954e+01
     vertex  7.697139e+01  6.349032e+01  5.298954e+01
   endloop
 endfacet
 facet normal -1.965375e-01 -7.973839e-01  5.705716e-01
   outer loop
     vertex  8.786824e+01  6.565784e+01  5.298954e+01
     vertex  8.931269e+01  7.031818e+01  6.000000e+01
     vertex  8.583346e+01  7.117574e+01  6.000000e+01
   endloop
 endfacet
 facet normal -3.835097e-01 -7.307167e-01  5.647773e-01
   outer loop
     vertex  8.786824e+01  6.565784e+01  5.298954e+01
     vertex  9.248560e+01  6.865291e+01  6.000000e+01
     vertex  8.931269e+01  7.031818e+01  6.000000e+01
   endloop
 endfacet
 facet normal -1.586719e-01 -7.976976e-01  5.818090e-01
   outer loop
     vertex  8.786824e+01  6.565784e+01  5.298954e+01
     vertex  8.583346e+01  7.117574e+01  6.000000e+01
     vertex  8.404178e+01  6.641897e+01  5.298954e+01
   endloop
 endfacet
 facet normal  3.822795e-01 -7.283728e-01  5.686259e-01
   outer loop
     vertex  8.207712e+01  6.116303e+01  4.597907e+01
     vertex  8.388911e+01  5.664111e+01  3.896861e+01
     vertex  8.394648e+01  5.667122e+01  3.896861e+01
   endloop
 endfacet
 facet normal  1.973511e-01 -8.006848e-01  5.656468e-01
   outer loop
     vertex  8.207712e+01  6.116303e+01  4.597907e+01
     vertex  8.394648e+01  5.667122e+01  3.896861e+01
     vertex  8.400938e+01  5.668673e+01  3.896861e+01
   endloop
 endfacet
 facet normal  4.594337e-01 -6.875911e-01  5.622626e-01
   outer loop
     vertex  8.207712e+01  6.116303e+01  4.597907e+01
     vertex  8.041157e+01  6.005015e+01  4.597907e+01
     vertex  8.388911e+01  5.664111e+01  3.896861e+01
   endloop
 endfacet
 facet normal  4.592772e-01 -6.873569e-01  5.626765e-01
   outer loop
     vertex  8.207712e+01  6.116303e+01  4.597907e+01
     vertex  8.021531e+01  6.565784e+01  5.298954e+01
     vertex  8.041157e+01  6.005015e+01  4.597907e+01
   endloop
 endfacet
 facet normal -5.480666e-01 -6.186393e-01  5.629463e-01
   outer loop
     vertex  9.111217e+01  6.349032e+01  5.298954e+01
     vertex  9.516778e+01  6.627671e+01  6.000000e+01
     vertex  9.248560e+01  6.865291e+01  6.000000e+01
   endloop
 endfacet
 facet normal -6.736170e-01 -4.649642e-01  5.744984e-01
   outer loop
     vertex  9.111217e+01  6.349032e+01  5.298954e+01
     vertex  9.720336e+01  6.332766e+01  6.000000e+01
     vertex  9.516778e+01  6.627671e+01  6.000000e+01
   endloop
 endfacet
 facet normal -4.506190e-01 -6.743991e-01  5.849174e-01
   outer loop
     vertex  9.111217e+01  6.349032e+01  5.298954e+01
     vertex  9.248560e+01  6.865291e+01  6.000000e+01
     vertex  8.786824e+01  6.565784e+01  5.298954e+01
   endloop
 endfacet
 facet normal  0.000000e+00 -8.214399e-01  5.702951e-01
   outer loop
     vertex  8.404178e+01  6.155383e+01  4.597907e+01
     vertex  8.400938e+01  5.668673e+01  3.896861e+01
     vertex  8.407417e+01  5.668673e+01  3.896861e+01
   endloop
 endfacet
 facet normal  1.612767e-01 -8.107928e-01  5.626765e-01
   outer loop
     vertex  8.404178e+01  6.155383e+01  4.597907e+01
     vertex  8.404178e+01  6.641897e+01  5.298954e+01
     vertex  8.021531e+01  6.565784e+01  5.298954e+01
   endloop
 endfacet
 facet normal  1.613238e-01 -8.110294e-01  5.623219e-01
   outer loop
     vertex  8.404178e+01  6.155383e+01  4.597907e+01
     vertex  8.207712e+01  6.116303e+01  4.597907e+01
     vertex  8.400938e+01  5.668673e+01  3.896861e+01
   endloop
 endfacet
 facet normal  1.612767e-01 -8.107928e-01  5.626765e-01
   outer loop
     vertex  8.404178e+01  6.155383e+01  4.597907e+01
     vertex  8.021531e+01  6.565784e+01  5.298954e+01
     vertex  8.207712e+01  6.116303e+01  4.597907e+01
   endloop
 endfacet
 facet normal -6.781103e-01 -4.530988e-01  5.786778e-01
   outer loop
     vertex  9.327968e+01  6.024640e+01  5.298954e+01
     vertex  9.720336e+01  6.332766e+01  6.000000e+01
     vertex  9.111217e+01  6.349032e+01  5.298954e+01
   endloop
 endfacet
 facet normal -7.734865e-01 -2.933447e-01  5.618430e-01
   outer loop
     vertex  9.327968e+01  6.024640e+01  5.298954e+01
     vertex  9.847403e+01  5.997716e+01  6.000000e+01
     vertex  9.720336e+01  6.332766e+01  6.000000e+01
   endloop
 endfacet
 facet normal -7.962380e-01 -1.583816e-01  5.838838e-01
   outer loop
     vertex  9.327968e+01  6.024640e+01  5.298954e+01
     vertex  9.404082e+01  5.641993e+01  5.298954e+01
     vertex  9.847403e+01  5.997716e+01  6.000000e+01
   endloop
 endfacet
 facet normal -8.107928e-01 -1.612767e-01  5.626765e-01
   outer loop
     vertex  9.327968e+01  6.024640e+01  5.298954e+01
     vertex  8.917567e+01  5.641993e+01  4.597907e+01
     vertex  9.404082e+01  5.641993e+01  5.298954e+01
   endloop
 endfacet
 facet normal -1.973511e-01 -8.006848e-01  5.656468e-01
   outer loop
     vertex  8.600643e+01  6.116303e+01  4.597907e+01
     vertex  8.407417e+01  5.668673e+01  3.896861e+01
     vertex  8.413708e+01  5.667122e+01  3.896861e+01
   endloop
 endfacet
 facet normal -3.822795e-01 -7.283728e-01  5.686259e-01
   outer loop
     vertex  8.600643e+01  6.116303e+01  4.597907e+01
     vertex  8.413708e+01  5.667122e+01  3.896861e+01
     vertex  8.419445e+01  5.664111e+01  3.896861e+01
   endloop
 endfacet
 facet normal -1.612767e-01 -8.107928e-01  5.626765e-01
   outer loop
     vertex  8.600643e+01  6.116303e+01  4.597907e+01
     vertex  8.404178e+01  6.641897e+01  5.298954e+01
     vertex  8.404178e+01  6.155383e+01  4.597907e+01
   endloop
 endfacet
 facet normal -1.613238e-01 -8.110294e-01  5.623219e-01
   outer loop
     vertex  8.600643e+01  6.116303e+01  4.597907e+01
     vertex  8.404178e+01  6.155383e+01  4.597907e+01
     vertex  8.407417e+01  5.668673e+01  3.896861e+01
   endloop
 endfacet
 facet normal -1.612767e-01 -8.107928e-01  5.626765e-01
   outer loop
     vertex  8.600643e+01  6.116303e+01  4.597907e+01
     vertex  8.786824e+01  6.565784e+01  5.298954e+01
     vertex  8.404178e+01  6.641897e+01  5.298954e+01
   endloop
 endfacet
 facet normal -4.592772e-01 -6.873569e-01  5.626765e-01
   outer loop
     vertex  8.600643e+01  6.116303e+01  4.597907e+01
     vertex  9.111217e+01  6.349032e+01  5.298954e+01
     vertex  8.786824e+01  6.565784e+01  5.298954e+01
   endloop
 endfacet
 facet normal -5.450564e-01 -6.152414e-01  5.695538e-01
   outer loop
     vertex  8.767199e+01  6.005015e+01  4.597907e+01
     vertex  8.419445e+01  5.664111e+01  3.896861e+01
     vertex  8.424294e+01  5.659815e+01  3.896861e+01
   endloop
 endfacet
 facet normal -6.798297e-01 -4.692525e-01  5.635900e-01
   outer loop
     vertex  8.767199e+01  6.005015e+01  4.597907e+01
     vertex  8.424294e+01  5.659815e+01  3.896861e+01
     vertex  8.427975e+01  5.654483e+01  3.896861e+01
   endloop
 endfacet
 facet normal -4.594337e-01 -6.875911e-01  5.622626e-01
   outer loop
     vertex  8.767199e+01  6.005015e+01  4.597907e+01
     vertex  8.600643e+01  6.116303e+01  4.597907e+01
     vertex  8.419445e+01  5.664111e+01  3.896861e+01
   endloop
 endfacet
 facet normal -4.592772e-01 -6.873569e-01  5.626765e-01
   outer loop
     vertex  8.767199e+01  6.005015e+01  4.597907e+01
     vertex  9.111217e+01  6.349032e+01  5.298954e+01
     vertex  8.600643e+01  6.116303e+01  4.597907e+01
   endloop
 endfacet
 facet normal -7.681799e-01 -2.913322e-01  5.701098e-01
   outer loop
     vertex  8.878488e+01  5.838459e+01  4.597907e+01
     vertex  8.427975e+01  5.654483e+01  3.896861e+01
     vertex  8.430272e+01  5.648425e+01  3.896861e+01
   endloop
 endfacet
 facet normal -6.875240e-01 -4.593889e-01  5.623812e-01
   outer loop
     vertex  8.878488e+01  5.838459e+01  4.597907e+01
     vertex  8.767199e+01  6.005015e+01  4.597907e+01
     vertex  8.427975e+01  5.654483e+01  3.896861e+01
   endloop
 endfacet
 facet normal -8.110558e-01 -1.613290e-01  5.622824e-01
   outer loop
     vertex  8.878488e+01  5.838459e+01  4.597907e+01
     vertex  8.430272e+01  5.648425e+01  3.896861e+01
     vertex  8.917567e+01  5.641993e+01  4.597907e+01
   endloop
 endfacet
 facet normal -6.873569e-01 -4.592772e-01  5.626765e-01
   outer loop
     vertex  8.878488e+01  5.838459e+01  4.597907e+01
     vertex  9.327968e+01  6.024640e+01  5.298954e+01
     vertex  9.111217e+01  6.349032e+01  5.298954e+01
   endloop
 endfacet
 facet normal -8.107928e-01 -1.612767e-01  5.626765e-01
   outer loop
     vertex  8.878488e+01  5.838459e+01  4.597907e+01
     vertex  8.917567e+01  5.641993e+01  4.597907e+01
     vertex  9.327968e+01  6.024640e+01  5.298954e+01
   endloop
 endfacet
 facet normal -6.873569e-01 -4.592772e-01  5.626765e-01
   outer loop
     vertex  8.878488e+01  5.838459e+01  4.597907e+01
     vertex  9.111217e+01  6.349032e+01  5.298954e+01
     vertex  8.767199e+01  6.005015e+01  4.597907e+01
   endloop
 endfacet
 facet normal  0.000000e+00  0.000000e+00  1.000000e+00
   outer loop
     vertex  8.394648e+01  5.616865e+01  3.896861e+01
     vertex  8.384061e+01  5.624172e+01  3.896861e+01
     vertex  8.388911e+01  5.619875e+01  3.896861e+01
   endloop
 endfacet
 facet normal  0.000000e+00  0.000000e+00  1.000000e+00
   outer loop
     vertex  8.394648e+01  5.616865e+01  3.896861e+01
     vertex  8.380381e+01  5.629504e+01  3.896861e+01
     vertex  8.384061e+01  5.624172e+01  3.896861e+01
   endloop
 endfacet
 facet normal  0.000000e+00  0.000000e+00  1.000000e+00
   outer loop
     vertex  8.394648e+01  5.616865e+01  3.896861e+01
     vertex  8.378084e+01  5.635562e+01  3.896861e+01
     vertex  8.380381e+01  5.629504e+01  3.896861e+01
   endloop
 endfacet
 facet normal  0.000000e+00  0.000000e+00  1.000000e+00
   outer loop
     vertex  8.394648e+01  5.616865e+01  3.896861e+01
     vertex  8.377303e+01  5.641993e+01  3.896861e+01
     vertex  8.378084e+01  5.635562e+01  3.896861e+01
   endloop
 endfacet
 facet normal  0.000000e+00  0.000000e+00  1.000000e+00
   outer loop
     vertex  8.394648e+01  5.616865e+01  3.896861e+01
     vertex  8.378084e+01  5.648425e+01  3.896861e+01
     vertex  8.377303e+01  5.641993e+01  3.896861e+01
   endloop
 endfacet
 facet normal  0.000000e+00  0.000000e+00  1.000000e+00
   outer loop
     vertex  8.394648e+01  5.616865e+01  3.896861e+01
     vertex  8.380381e+01  5.654483e+01  3.896861e+01
     vertex  8.378084e+01  5.648425e+01  3.896861e+01
   endloop
 endfacet
 facet normal  0.000000e+00  0.000000e+00  1.000000e+00
   outer loop
     vertex  8.394648e+01  5.616865e+01  3.896861e+01
     vertex  8.384061e+01  5.659815e+01  3.896861e+01
     vertex  8.380381e+01  5.654483e+01  3.896861e+01
   endloop
 endfacet
 facet normal  0.000000e+00  0.000000e+00  1.000000e+00
   outer loop
     vertex  8.400938e+01  5.615314e+01  3.896861e+01
     vertex  8.388911e+01  5.664111e+01  3.896861e+01
     vertex  8.384061e+01  5.659815e+01  3.896861e+01
   endloop
 endfacet
 facet normal  0.000000e+00  0.000000e+00  1.000000e+00
   outer loop
     vertex  8.400938e+01  5.615314e+01  3.896861e+01
     vertex  8.394648e+01  5.667122e+01  3.896861e+01
     vertex  8.388911e+01  5.664111e+01  3.896861e+01
   endloop
 endfacet
 facet normal  0.000000e+00  0.000000e+00  1.000000e+00
   outer loop
     vertex  8.400938e+01  5.615314e+01  3.896861e+01
     vertex  8.384061e+01  5.659815e+01  3.896861e+01
     vertex  8.394648e+01  5.616865e+01  3.896861e+01
   endloop
 endfacet
 facet normal  0.000000e+00  0.000000e+00  1.000000e+00
   outer loop
     vertex  8.407417e+01  5.615314e+01  3.896861e+01
     vertex  8.400938e+01  5.668673e+01  3.896861e+01
     vertex  8.394648e+01  5.667122e+01  3.896861e+01
   endloop
 endfacet
 facet normal  0.000000e+00  0.000000e+00  1.000000e+00
   outer loop
     vertex  8.407417e+01  5.615314e+01  3.896861e+01
     vertex  8.394648e+01  5.667122e+01  3.896861e+01
     vertex  8.400938e+01  5.615314e+01  3.896861e+01
   endloop
 endfacet
 facet normal  0.000000e+00  0.000000e+00  1.000000e+00
   outer loop
     vertex  8.419445e+01  5.619875e+01  3.896861e+01
     vertex  8.407417e+01  5.615314e+01  3.896861e+01
     vertex  8.413708e+01  5.616865e+01  3.896861e+01
   endloop
 endfacet
 facet normal  0.000000e+00  0.000000e+00  1.000000e+00
   outer loop
     vertex  8.419445e+01  5.619875e+01  3.896861e+01
     vertex  8.407417e+01  5.668673e+01  3.896861e+01
     vertex  8.400938e+01  5.668673e+01  3.896861e+01
   endloop
 endfacet
 facet normal  0.000000e+00  0.000000e+00  1.000000e+00
   outer loop
     vertex  8.419445e+01  5.619875e+01  3.896861e+01
     vertex  8.413708e+01  5.667122e+01  3.896861e+01
     vertex  8.407417e+01  5.668673e+01  3.896861e+01
   endloop
 endfacet
 facet normal  0.000000e+00  0.000000e+00  1.000000e+00
   outer loop
     vertex  8.419445e+01  5.619875e+01  3.896861e+01
     vertex  8.400938e+01  5.668673e+01  3.896861e+01
     vertex  8.407417e+01  5.615314e+01  3.896861e+01
   endloop
 endfacet
 facet normal  0.000000e+00  0.000000e+00  1.000000e+00
   outer loop
     vertex  8.424294e+01  5.624172e+01  3.896861e+01
     vertex  8.430272e+01  5.635562e+01  3.896861e+01
     vertex  8.431053e+01  5.641993e+01  3.896861e+01
   endloop
 endfacet
 facet normal  0.000000e+00  0.000000e+00  1.000000e+00
   outer loop
     vertex  8.424294e+01  5.624172e+01  3.896861e+01
     vertex  8.427975e+01  5.629504e+01  3.896861e+01
     vertex  8.430272e+01  5.635562e+01  3.896861e+01
   endloop
 endfacet
 facet normal  0.000000e+00  0.000000e+00  1.000000e+00
   outer loop
     vertex  8.424294e+01  5.624172e+01  3.896861e+01
     vertex  8.419445e+01  5.664111e+01  3.896861e+01
     vertex  8.413708e+01  5.667122e+01  3.896861e+01
   endloop
 endfacet
 facet normal  0.000000e+00 -0.000000e+00  1.000000e+00
   outer loop
     vertex  8.424294e+01  5.624172e+01  3.896861e+01
     vertex  8.424294e+01  5.659815e+01  3.896861e+01
     vertex  8.419445e+01  5.664111e+01  3.896861e+01
   endloop
 endfacet
 facet normal  0.000000e+00  0.000000e+00  1.000000e+00
   outer loop
     vertex  8.424294e+01  5.624172e+01  3.896861e+01
     vertex  8.427975e+01  5.654483e+01  3.896861e+01
     vertex  8.424294e+01  5.659815e+01  3.896861e+01
   endloop
 endfacet
 facet normal  0.000000e+00  0.000000e+00  1.000000e+00
   outer loop
     vertex  8.424294e+01  5.624172e+01  3.896861e+01
     vertex  8.430272e+01  5.648425e+01  3.896861e+01
     vertex  8.427975e+01  5.654483e+01  3.896861e+01
   endloop
 endfacet
 facet normal  0.000000e+00  0.000000e+00  1.000000e+00
   outer loop
     vertex  8.424294e+01  5.624172e+01  3.896861e+01
     vertex  8.431053e+01  5.641993e+01  3.896861e+01
     vertex  8.430272e+01  5.648425e+01  3.896861e+01
   endloop
 endfacet
 facet normal  0.000000e+00  0.000000e+00  1.000000e+00
   outer loop
     vertex  8.424294e+01  5.624172e+01  3.896861e+01
     vertex  8.413708e+01  5.667122e+01  3.896861e+01
     vertex  8.419445e+01  5.619875e+01  3.896861e+01
   endloop
 endfacet
endsolid
