solid 
 facet normal -1.000000e+00  0.000000e+00  0.000000e+00
   outer loop
     vertex  0.000000e+00  0.000000e+00  6.000000e+01
     vertex  0.000000e+00  9.968251e+01  0.000000e+00
     vertex  0.000000e+00  0.000000e+00  0.000000e+00
   endloop
 endfacet
 facet normal -1.000000e+00  0.000000e+00  0.000000e+00
   outer loop
     vertex  0.000000e+00  0.000000e+00  6.000000e+01
     vertex  0.000000e+00  9.968251e+01  6.000000e+01
     vertex  0.000000e+00  9.968251e+01  0.000000e+00
   endloop
 endfacet
 facet normal  0.000000e+00 -1.000000e+00 -0.000000e+00
   outer loop
     vertex  1.159528e+02  0.000000e+00  6.000000e+01
     vertex  0.000000e+00  0.000000e+00  0.000000e+00
     vertex  1.159528e+02  0.000000e+00  0.000000e+00
   endloop
 endfacet
 facet normal -0.000000e+00 -1.000000e+00  0.000000e+00
   outer loop
     vertex  1.159528e+02  0.000000e+00  6.000000e+01
     vertex  0.000000e+00  0.000000e+00  6.000000e+01
     vertex  0.000000e+00  0.000000e+00  0.000000e+00
   endloop
 endfacet
 facet normal  0.000000e+00  0.000000e+00  1.000000e+00
   outer loop
     vertex  4.807673e+01  3.855931e+01  6.000000e+01
     vertex  4.488537e+01  4.138661e+01  6.000000e+01
     vertex  0.000000e+00  0.000000e+00  6.000000e+01
   endloop
 endfacet
 facet normal  0.000000e+00  0.000000e+00  1.000000e+00
   outer loop
     vertex  4.246336e+01  4.489550e+01  6.000000e+01
     vertex  0.000000e+00  0.000000e+00  6.000000e+01
     vertex  4.488537e+01  4.138661e+01  6.000000e+01
   endloop
 endfacet
 facet normal  0.000000e+00  0.000000e+00  1.000000e+00
   outer loop
     vertex  5.185198e+01  3.657790e+01  6.000000e+01
     vertex  4.807673e+01  3.855931e+01  6.000000e+01
     vertex  0.000000e+00  0.000000e+00  6.000000e+01
   endloop
 endfacet
 facet normal  0.000000e+00  0.000000e+00  1.000000e+00
   outer loop
     vertex  4.095146e+01  4.888205e+01  6.000000e+01
     vertex  0.000000e+00  0.000000e+00  6.000000e+01
     vertex  4.246336e+01  4.489550e+01  6.000000e+01
   endloop
 endfacet
 facet normal  0.000000e+00  0.000000e+00  1.000000e+00
   outer loop
     vertex  5.599171e+01  3.555755e+01  6.000000e+01
     vertex  5.185198e+01  3.657790e+01  6.000000e+01
     vertex  0.000000e+00  0.000000e+00  6.000000e+01
   endloop
 endfacet
 facet normal  0.000000e+00  0.000000e+00  1.000000e+00
   outer loop
     vertex  4.043753e+01  5.311458e+01  6.000000e+01
     vertex  0.000000e+00  0.000000e+00  6.000000e+01
     vertex  4.095146e+01  4.888205e+01  6.000000e+01
   endloop
 endfacet
 facet normal  0.000000e+00  0.000000e+00  1.000000e+00
   outer loop
     vertex  0.000000e+00  9.968251e+01  6.000000e+01
     vertex  4.043753e+01  5.311458e+01  6.000000e+01
     vertex  4.095146e+01  5.734712e+01  6.000000e+01
   endloop
 endfacet
 facet normal  0.000000e+00  0.000000e+00  1.000000e+00
   outer loop
     vertex  0.000000e+00  9.968251e+01  6.000000e+01
     vertex  0.000000e+00  0.000000e+00  6.000000e+01
     vertex  4.043753e+01  5.311458e+01  6.000000e+01
   endloop
 endfacet
 facet normal  0.000000e+00  0.000000e+00  1.000000e+00
   outer loop
     vertex  4.246336e+01  6.133367e+01  6.000000e+01
     vertex  0.000000e+00  9.968251e+01  6.000000e+01
     vertex  4.095146e+01  5.734712e+01  6.000000e+01
   endloop
 endfacet
 facet normal  0.000000e+00  0.000000e+00  1.000000e+00
   outer loop
     vertex  4.488537e+01  6.484256e+01  6.000000e+01
     vertex  0.000000e+00  9.968251e+01  6.000000e+01
     vertex  4.246336e+01  6.133367e+01  6.000000e+01
   endloop
 endfacet
 facet normal  0.000000e+00  0.000000e+00  1.000000e+00
   outer loop
     vertex  4.807673e+01  6.766986e+01  6.000000e+01
     vertex  0.000000e+00  9.968251e+01  6.000000e+01
     vertex  4.488537e+01  6.484256e+01  6.000000e+01
   endloop
 endfacet
 facet normal  0.000000e+00  0.000000e+00  1.000000e+00
   outer loop
     vertex  1.159528e+02  0.000000e+00  6.000000e+01
     vertex  7.136166e+01  4.138661e+01  6.000000e+01
     vertex  6.817030e+01  3.855931e+01  6.000000e+01
   endloop
 endfacet
 facet normal  0.000000e+00  0.000000e+00  1.000000e+00
   outer loop
     vertex  1.159528e+02  0.000000e+00  6.000000e+01
     vertex  6.817030e+01  3.855931e+01  6.000000e+01
     vertex  6.439505e+01  3.657790e+01  6.000000e+01
   endloop
 endfacet
 facet normal  0.000000e+00  0.000000e+00  1.000000e+00
   outer loop
     vertex  1.159528e+02  0.000000e+00  6.000000e+01
     vertex  6.439505e+01  3.657790e+01  6.000000e+01
     vertex  6.025533e+01  3.555755e+01  6.000000e+01
   endloop
 endfacet
 facet normal  0.000000e+00  0.000000e+00  1.000000e+00
   outer loop
     vertex  1.159528e+02  0.000000e+00  6.000000e+01
     vertex  6.025533e+01  3.555755e+01  6.000000e+01
     vertex  5.599171e+01  3.555755e+01  6.000000e+01
   endloop
 endfacet
 facet normal  0.000000e+00  0.000000e+00  1.000000e+00
   outer loop
     vertex  1.159528e+02  0.000000e+00  6.000000e+01
     vertex  5.599171e+01  3.555755e+01  6.000000e+01
     vertex  0.000000e+00  0.000000e+00  6.000000e+01
   endloop
 endfacet
 facet normal  0.000000e+00  0.000000e+00  1.000000e+00
   outer loop
     vertex  7.378368e+01  4.489550e+01  6.000000e+01
     vertex  7.136166e+01  4.138661e+01  6.000000e+01
     vertex  1.159528e+02  0.000000e+00  6.000000e+01
   endloop
 endfacet
 facet normal  0.000000e+00  0.000000e+00  1.000000e+00
   outer loop
     vertex  5.185198e+01  6.965127e+01  6.000000e+01
     vertex  0.000000e+00  9.968251e+01  6.000000e+01
     vertex  4.807673e+01  6.766986e+01  6.000000e+01
   endloop
 endfacet
 facet normal  0.000000e+00  0.000000e+00  1.000000e+00
   outer loop
     vertex  7.529558e+01  4.888205e+01  6.000000e+01
     vertex  7.378368e+01  4.489550e+01  6.000000e+01
     vertex  1.159528e+02  0.000000e+00  6.000000e+01
   endloop
 endfacet
 facet normal  0.000000e+00  0.000000e+00  1.000000e+00
   outer loop
     vertex  5.599171e+01  7.067162e+01  6.000000e+01
     vertex  0.000000e+00  9.968251e+01  6.000000e+01
     vertex  5.185198e+01  6.965127e+01  6.000000e+01
   endloop
 endfacet
 facet normal  0.000000e+00  0.000000e+00  1.000000e+00
   outer loop
     vertex  7.580950e+01  5.311458e+01  6.000000e+01
     vertex  7.529558e+01  4.888205e+01  6.000000e+01
     vertex  1.159528e+02  0.000000e+00  6.000000e+01
   endloop
 endfacet
 facet normal  0.000000e+00  0.000000e+00  1.000000e+00
   outer loop
     vertex  1.159528e+02  9.968251e+01  6.000000e+01
     vertex  5.599171e+01  7.067162e+01  6.000000e+01
     vertex  6.025533e+01  7.067162e+01  6.000000e+01
   endloop
 endfacet
 facet normal  0.000000e+00  0.000000e+00  1.000000e+00
   outer loop
     vertex  1.159528e+02  9.968251e+01  6.000000e+01
     vertex  6.025533e+01  7.067162e+01  6.000000e+01
     vertex  6.439505e+01  6.965127e+01  6.000000e+01
   endloop
 endfacet
 facet normal  0.000000e+00  0.000000e+00  1.000000e+00
   outer loop
     vertex  1.159528e+02  9.968251e+01  6.000000e+01
     vertex  6.439505e+01  6.965127e+01  6.000000e+01
     vertex  6.817030e+01  6.766986e+01  6.000000e+01
   endloop
 endfacet
 facet normal  0.000000e+00  0.000000e+00  1.000000e+00
   outer loop
     vertex  1.159528e+02  9.968251e+01  6.000000e+01
     vertex  6.817030e+01  6.766986e+01  6.000000e+01
     vertex  7.136166e+01  6.484256e+01  6.000000e+01
   endloop
 endfacet
 facet normal  0.000000e+00  0.000000e+00  1.000000e+00
   outer loop
     vertex  1.159528e+02  9.968251e+01  6.000000e+01
     vertex  7.136166e+01  6.484256e+01  6.000000e+01
     vertex  7.378368e+01  6.133367e+01  6.000000e+01
   endloop
 endfacet
 facet normal  0.000000e+00  0.000000e+00  1.000000e+00
   outer loop
     vertex  1.159528e+02  9.968251e+01  6.000000e+01
     vertex  7.378368e+01  6.133367e+01  6.000000e+01
     vertex  7.529558e+01  5.734712e+01  6.000000e+01
   endloop
 endfacet
 facet normal  0.000000e+00  0.000000e+00  1.000000e+00
   outer loop
     vertex  1.159528e+02  9.968251e+01  6.000000e+01
     vertex  7.529558e+01  5.734712e+01  6.000000e+01
     vertex  7.580950e+01  5.311458e+01  6.000000e+01
   endloop
 endfacet
 facet normal  0.000000e+00  0.000000e+00  1.000000e+00
   outer loop
     vertex  1.159528e+02  9.968251e+01  6.000000e+01
     vertex  0.000000e+00  9.968251e+01  6.000000e+01
     vertex  5.599171e+01  7.067162e+01  6.000000e+01
   endloop
 endfacet
 facet normal  0.000000e+00  0.000000e+00  1.000000e+00
   outer loop
     vertex  1.159528e+02  9.968251e+01  6.000000e+01
     vertex  7.580950e+01  5.311458e+01  6.000000e+01
     vertex  1.159528e+02  0.000000e+00  6.000000e+01
   endloop
 endfacet
 facet normal  0.000000e+00  1.000000e+00  0.000000e+00
   outer loop
     vertex  1.159528e+02  9.968251e+01  6.000000e+01
     vertex  1.159528e+02  9.968251e+01  0.000000e+00
     vertex  0.000000e+00  9.968251e+01  0.000000e+00
   endloop
 endfacet
 facet normal  0.000000e+00  1.000000e+00  0.000000e+00
   outer loop
     vertex  1.159528e+02  9.968251e+01  6.000000e+01
     vertex  0.000000e+00  9.968251e+01  0.000000e+00
     vertex  0.000000e+00  9.968251e+01  6.000000e+01
   endloop
 endfacet
 facet normal -0.000000e+00  0.000000e+00 -1.000000e+00
   outer loop
     vertex  1.159528e+02  9.968251e+01  0.000000e+00
     vertex  0.000000e+00  0.000000e+00  0.000000e+00
     vertex  0.000000e+00  9.968251e+01  0.000000e+00
   endloop
 endfacet
 facet normal  0.000000e+00 -0.000000e+00 -1.000000e+00
   outer loop
     vertex  1.159528e+02  9.968251e+01  0.000000e+00
     vertex  1.159528e+02  0.000000e+00  0.000000e+00
     vertex  0.000000e+00  0.000000e+00  0.000000e+00
   endloop
 endfacet
 facet normal  1.000000e+00  0.000000e+00  0.000000e+00
   outer loop
     vertex  1.159528e+02  0.000000e+00  6.000000e+01
     vertex  1.159528e+02  0.000000e+00  0.000000e+00
     vertex  1.159528e+02  9.968251e+01  0.000000e+00
   endloop
 endfacet
 facet normal  1.000000e+00 -0.000000e+00  0.000000e+00
   outer loop
     vertex  1.159528e+02  0.000000e+00  6.000000e+01
     vertex  1.159528e+02  9.968251e+01  0.000000e+00
     vertex  1.159528e+02  9.968251e+01  6.000000e+01
   endloop
 endfacet
 facet normal -8.557528e-01  1.039072e-01  5.068436e-01
   outer loop
     vertex  7.170045e+01  5.311458e+01  5.306230e+01
     vertex  7.529558e+01  4.888205e+01  6.000000e+01
     vertex  7.580950e+01  5.311458e+01  6.000000e+01
   endloop
 endfacet
 facet normal -8.557528e-01  1.039072e-01  5.068436e-01
   outer loop
     vertex  6.332665e+01  5.183213e+01  3.918691e+01
     vertex  6.759141e+01  5.311458e+01  4.612461e+01
     vertex  6.348237e+01  5.311458e+01  3.918691e+01
   endloop
 endfacet
 facet normal -8.557528e-01 -1.039072e-01  5.068436e-01
   outer loop
     vertex  7.170045e+01  5.311458e+01  5.306230e+01
     vertex  7.580950e+01  5.311458e+01  6.000000e+01
     vertex  7.529558e+01  5.734712e+01  6.000000e+01
   endloop
 endfacet
 facet normal -8.557528e-01 -1.039072e-01  5.068436e-01
   outer loop
     vertex  6.348237e+01  5.311458e+01  3.918691e+01
     vertex  6.759141e+01  5.311458e+01  4.612461e+01
     vertex  6.332665e+01  5.439704e+01  3.918691e+01
   endloop
 endfacet
 facet normal -8.109681e-01  3.075596e-01  4.977327e-01
   outer loop
     vertex  7.088167e+01  4.847100e+01  5.306230e+01
     vertex  7.378368e+01  4.489550e+01  6.000000e+01
     vertex  7.529558e+01  4.888205e+01  6.000000e+01
   endloop
 endfacet
 facet normal -8.383892e-01  1.478306e-01  5.246424e-01
   outer loop
     vertex  7.088167e+01  4.847100e+01  5.306230e+01
     vertex  7.529558e+01  4.888205e+01  6.000000e+01
     vertex  7.170045e+01  5.311458e+01  5.306230e+01
   endloop
 endfacet
 facet normal -7.360566e-01  4.249625e-01  5.269038e-01
   outer loop
     vertex  6.852405e+01  4.438750e+01  5.306230e+01
     vertex  7.378368e+01  4.489550e+01  6.000000e+01
     vertex  7.088167e+01  4.847100e+01  5.306230e+01
   endloop
 endfacet
 facet normal -7.111874e-01  4.908973e-01  5.032219e-01
   outer loop
     vertex  6.852405e+01  4.438750e+01  5.306230e+01
     vertex  7.136166e+01  4.138661e+01  6.000000e+01
     vertex  7.378368e+01  4.489550e+01  6.000000e+01
   endloop
 endfacet
 facet normal -5.698779e-01  6.432592e-01  5.113284e-01
   outer loop
     vertex  6.852405e+01  4.438750e+01  5.306230e+01
     vertex  6.817030e+01  3.855931e+01  6.000000e+01
     vertex  7.136166e+01  4.138661e+01  6.000000e+01
   endloop
 endfacet
 facet normal -4.028230e-01  7.675151e-01  4.986523e-01
   outer loop
     vertex  6.491199e+01  4.135661e+01  5.306230e+01
     vertex  6.439505e+01  3.657790e+01  6.000000e+01
     vertex  6.817030e+01  3.855931e+01  6.000000e+01
   endloop
 endfacet
 facet normal -5.485648e-01  6.537540e-01  5.212316e-01
   outer loop
     vertex  6.491199e+01  4.135661e+01  5.306230e+01
     vertex  6.817030e+01  3.855931e+01  6.000000e+01
     vertex  6.852405e+01  4.438750e+01  5.306230e+01
   endloop
 endfacet
 facet normal -8.025523e-01  3.043680e-01  5.130983e-01
   outer loop
     vertex  6.702043e+01  4.987637e+01  4.612461e+01
     vertex  6.332665e+01  5.183213e+01  3.918691e+01
     vertex  6.286854e+01  5.062420e+01  3.918691e+01
   endloop
 endfacet
 facet normal -8.506759e-01  1.499971e-01  5.038366e-01
   outer loop
     vertex  6.702043e+01  4.987637e+01  4.612461e+01
     vertex  7.088167e+01  4.847100e+01  5.306230e+01
     vertex  7.170045e+01  5.311458e+01  5.306230e+01
   endloop
 endfacet
 facet normal -8.506759e-01  1.499971e-01  5.038366e-01
   outer loop
     vertex  6.702043e+01  4.987637e+01  4.612461e+01
     vertex  7.170045e+01  5.311458e+01  5.306230e+01
     vertex  6.759141e+01  5.311458e+01  4.612461e+01
   endloop
 endfacet
 facet normal -8.543686e-01  1.506482e-01  4.973524e-01
   outer loop
     vertex  6.702043e+01  4.987637e+01  4.612461e+01
     vertex  6.759141e+01  5.311458e+01  4.612461e+01
     vertex  6.332665e+01  5.183213e+01  3.918691e+01
   endloop
 endfacet
 facet normal -2.071863e-01  8.405877e-01  5.004858e-01
   outer loop
     vertex  6.048113e+01  3.974391e+01  5.306230e+01
     vertex  6.025533e+01  3.555755e+01  6.000000e+01
     vertex  6.439505e+01  3.657790e+01  6.000000e+01
   endloop
 endfacet
 facet normal  0.000000e+00  8.561976e-01  5.166485e-01
   outer loop
     vertex  6.048113e+01  3.974391e+01  5.306230e+01
     vertex  5.599171e+01  3.555755e+01  6.000000e+01
     vertex  6.025533e+01  3.555755e+01  6.000000e+01
   endloop
 endfacet
 facet normal -2.904522e-01  7.980108e-01  5.280306e-01
   outer loop
     vertex  6.048113e+01  3.974391e+01  5.306230e+01
     vertex  6.439505e+01  3.657790e+01  6.000000e+01
     vertex  6.491199e+01  4.135661e+01  5.306230e+01
   endloop
 endfacet
 facet normal -7.082249e-01  4.888524e-01  5.093534e-01
   outer loop
     vertex  6.537634e+01  4.702874e+01  4.612461e+01
     vertex  6.286854e+01  5.062420e+01  3.918691e+01
     vertex  6.213467e+01  4.956101e+01  3.918691e+01
   endloop
 endfacet
 facet normal -5.728608e-01  6.466261e-01  5.036915e-01
   outer loop
     vertex  6.537634e+01  4.702874e+01  4.612461e+01
     vertex  6.213467e+01  4.956101e+01  3.918691e+01
     vertex  6.116769e+01  4.870434e+01  3.918691e+01
   endloop
 endfacet
 facet normal -7.480718e-01  4.318995e-01  5.038366e-01
   outer loop
     vertex  6.537634e+01  4.702874e+01  4.612461e+01
     vertex  7.088167e+01  4.847100e+01  5.306230e+01
     vertex  6.702043e+01  4.987637e+01  4.612461e+01
   endloop
 endfacet
 facet normal -7.480718e-01  4.318995e-01  5.038366e-01
   outer loop
     vertex  6.537634e+01  4.702874e+01  4.612461e+01
     vertex  6.852405e+01  4.438750e+01  5.306230e+01
     vertex  7.088167e+01  4.847100e+01  5.306230e+01
   endloop
 endfacet
 facet normal -7.516799e-01  4.339826e-01  4.966250e-01
   outer loop
     vertex  6.537634e+01  4.702874e+01  4.612461e+01
     vertex  6.702043e+01  4.987637e+01  4.612461e+01
     vertex  6.286854e+01  5.062420e+01  3.918691e+01
   endloop
 endfacet
 facet normal  2.071863e-01  8.405877e-01  5.004858e-01
   outer loop
     vertex  5.576591e+01  3.974391e+01  5.306230e+01
     vertex  5.185198e+01  3.657790e+01  6.000000e+01
     vertex  5.599171e+01  3.555755e+01  6.000000e+01
   endloop
 endfacet
 facet normal -0.000000e+00  8.561976e-01  5.166485e-01
   outer loop
     vertex  5.576591e+01  3.974391e+01  5.306230e+01
     vertex  5.599171e+01  3.555755e+01  6.000000e+01
     vertex  6.048113e+01  3.974391e+01  5.306230e+01
   endloop
 endfacet
 facet normal -3.990586e-01  7.603426e-01  5.124758e-01
   outer loop
     vertex  6.285746e+01  4.491515e+01  4.612461e+01
     vertex  6.116769e+01  4.870434e+01  3.918691e+01
     vertex  6.002379e+01  4.810397e+01  3.918691e+01
   endloop
 endfacet
 facet normal -2.954366e-01  8.117055e-01  5.038366e-01
   outer loop
     vertex  6.285746e+01  4.491515e+01  4.612461e+01
     vertex  6.048113e+01  3.974391e+01  5.306230e+01
     vertex  6.491199e+01  4.135661e+01  5.306230e+01
   endloop
 endfacet
 facet normal -5.552393e-01  6.617084e-01  5.038366e-01
   outer loop
     vertex  6.285746e+01  4.491515e+01  4.612461e+01
     vertex  6.852405e+01  4.438750e+01  5.306230e+01
     vertex  6.537634e+01  4.702874e+01  4.612461e+01
   endloop
 endfacet
 facet normal -5.572478e-01  6.641021e-01  4.984409e-01
   outer loop
     vertex  6.285746e+01  4.491515e+01  4.612461e+01
     vertex  6.537634e+01  4.702874e+01  4.612461e+01
     vertex  6.116769e+01  4.870434e+01  3.918691e+01
   endloop
 endfacet
 facet normal -5.552393e-01  6.617084e-01  5.038366e-01
   outer loop
     vertex  6.285746e+01  4.491515e+01  4.612461e+01
     vertex  6.491199e+01  4.135661e+01  5.306230e+01
     vertex  6.852405e+01  4.438750e+01  5.306230e+01
   endloop
 endfacet
 facet normal  2.904522e-01  7.980108e-01  5.280306e-01
   outer loop
     vertex  5.133505e+01  4.135661e+01  5.306230e+01
     vertex  5.185198e+01  3.657790e+01  6.000000e+01
     vertex  5.576591e+01  3.974391e+01  5.306230e+01
   endloop
 endfacet
 facet normal  4.028230e-01  7.675151e-01  4.986523e-01
   outer loop
     vertex  5.133505e+01  4.135661e+01  5.306230e+01
     vertex  4.807673e+01  3.855931e+01  6.000000e+01
     vertex  5.185198e+01  3.657790e+01  6.000000e+01
   endloop
 endfacet
 facet normal -2.056786e-01  8.344707e-01  5.112288e-01
   outer loop
     vertex  5.976760e+01  4.379053e+01  4.612461e+01
     vertex  6.002379e+01  4.810397e+01  3.918691e+01
     vertex  5.876945e+01  4.779481e+01  3.918691e+01
   endloop
 endfacet
 facet normal -2.954366e-01  8.117055e-01  5.038366e-01
   outer loop
     vertex  5.976760e+01  4.379053e+01  4.612461e+01
     vertex  6.048113e+01  3.974391e+01  5.306230e+01
     vertex  6.285746e+01  4.491515e+01  4.612461e+01
   endloop
 endfacet
 facet normal -2.969328e-01  8.158162e-01  4.962608e-01
   outer loop
     vertex  5.976760e+01  4.379053e+01  4.612461e+01
     vertex  6.285746e+01  4.491515e+01  4.612461e+01
     vertex  6.002379e+01  4.810397e+01  3.918691e+01
   endloop
 endfacet
 facet normal  5.698779e-01  6.432592e-01  5.113284e-01
   outer loop
     vertex  4.772298e+01  4.438750e+01  5.306230e+01
     vertex  4.488537e+01  4.138661e+01  6.000000e+01
     vertex  4.807673e+01  3.855931e+01  6.000000e+01
   endloop
 endfacet
 facet normal  7.111874e-01  4.908973e-01  5.032219e-01
   outer loop
     vertex  4.772298e+01  4.438750e+01  5.306230e+01
     vertex  4.246336e+01  4.489550e+01  6.000000e+01
     vertex  4.488537e+01  4.138661e+01  6.000000e+01
   endloop
 endfacet
 facet normal  5.485648e-01  6.537540e-01  5.212316e-01
   outer loop
     vertex  4.772298e+01  4.438750e+01  5.306230e+01
     vertex  4.807673e+01  3.855931e+01  6.000000e+01
     vertex  5.133505e+01  4.135661e+01  5.306230e+01
   endloop
 endfacet
 facet normal  0.000000e+00  8.660904e-01  4.998874e-01
   outer loop
     vertex  5.647943e+01  4.379053e+01  4.612461e+01
     vertex  5.876945e+01  4.779481e+01  3.918691e+01
     vertex  5.747758e+01  4.779481e+01  3.918691e+01
   endloop
 endfacet
 facet normal  2.056786e-01  8.344707e-01  5.112288e-01
   outer loop
     vertex  5.647943e+01  4.379053e+01  4.612461e+01
     vertex  5.747758e+01  4.779481e+01  3.918691e+01
     vertex  5.622324e+01  4.810397e+01  3.918691e+01
   endloop
 endfacet
 facet normal  0.000000e+00  8.637990e-01  5.038366e-01
   outer loop
     vertex  5.647943e+01  4.379053e+01  4.612461e+01
     vertex  5.576591e+01  3.974391e+01  5.306230e+01
     vertex  6.048113e+01  3.974391e+01  5.306230e+01
   endloop
 endfacet
 facet normal -0.000000e+00  8.660904e-01  4.998874e-01
   outer loop
     vertex  5.647943e+01  4.379053e+01  4.612461e+01
     vertex  5.976760e+01  4.379053e+01  4.612461e+01
     vertex  5.876945e+01  4.779481e+01  3.918691e+01
   endloop
 endfacet
 facet normal -0.000000e+00  8.637990e-01  5.038366e-01
   outer loop
     vertex  5.647943e+01  4.379053e+01  4.612461e+01
     vertex  6.048113e+01  3.974391e+01  5.306230e+01
     vertex  5.976760e+01  4.379053e+01  4.612461e+01
   endloop
 endfacet
 facet normal  7.360566e-01  4.249625e-01  5.269038e-01
   outer loop
     vertex  4.536537e+01  4.847100e+01  5.306230e+01
     vertex  4.246336e+01  4.489550e+01  6.000000e+01
     vertex  4.772298e+01  4.438750e+01  5.306230e+01
   endloop
 endfacet
 facet normal  8.109681e-01  3.075596e-01  4.977327e-01
   outer loop
     vertex  4.536537e+01  4.847100e+01  5.306230e+01
     vertex  4.095146e+01  4.888205e+01  6.000000e+01
     vertex  4.246336e+01  4.489550e+01  6.000000e+01
   endloop
 endfacet
 facet normal  2.954366e-01  8.117055e-01  5.038366e-01
   outer loop
     vertex  5.338957e+01  4.491515e+01  4.612461e+01
     vertex  5.576591e+01  3.974391e+01  5.306230e+01
     vertex  5.647943e+01  4.379053e+01  4.612461e+01
   endloop
 endfacet
 facet normal  2.954366e-01  8.117055e-01  5.038366e-01
   outer loop
     vertex  5.338957e+01  4.491515e+01  4.612461e+01
     vertex  5.133505e+01  4.135661e+01  5.306230e+01
     vertex  5.576591e+01  3.974391e+01  5.306230e+01
   endloop
 endfacet
 facet normal  3.990586e-01  7.603426e-01  5.124758e-01
   outer loop
     vertex  5.338957e+01  4.491515e+01  4.612461e+01
     vertex  5.622324e+01  4.810397e+01  3.918691e+01
     vertex  5.507934e+01  4.870434e+01  3.918691e+01
   endloop
 endfacet
 facet normal  5.552393e-01  6.617084e-01  5.038366e-01
   outer loop
     vertex  5.338957e+01  4.491515e+01  4.612461e+01
     vertex  4.772298e+01  4.438750e+01  5.306230e+01
     vertex  5.133505e+01  4.135661e+01  5.306230e+01
   endloop
 endfacet
 facet normal  2.969328e-01  8.158162e-01  4.962608e-01
   outer loop
     vertex  5.338957e+01  4.491515e+01  4.612461e+01
     vertex  5.647943e+01  4.379053e+01  4.612461e+01
     vertex  5.622324e+01  4.810397e+01  3.918691e+01
   endloop
 endfacet
 facet normal  8.557528e-01  1.039072e-01  5.068436e-01
   outer loop
     vertex  4.454658e+01  5.311458e+01  5.306230e+01
     vertex  4.043753e+01  5.311458e+01  6.000000e+01
     vertex  4.095146e+01  4.888205e+01  6.000000e+01
   endloop
 endfacet
 facet normal  8.557528e-01 -1.039072e-01  5.068436e-01
   outer loop
     vertex  4.454658e+01  5.311458e+01  5.306230e+01
     vertex  4.095146e+01  5.734712e+01  6.000000e+01
     vertex  4.043753e+01  5.311458e+01  6.000000e+01
   endloop
 endfacet
 facet normal  8.383892e-01  1.478306e-01  5.246424e-01
   outer loop
     vertex  4.454658e+01  5.311458e+01  5.306230e+01
     vertex  4.095146e+01  4.888205e+01  6.000000e+01
     vertex  4.536537e+01  4.847100e+01  5.306230e+01
   endloop
 endfacet
 facet normal  5.728608e-01  6.466261e-01  5.036915e-01
   outer loop
     vertex  5.087069e+01  4.702874e+01  4.612461e+01
     vertex  5.507934e+01  4.870434e+01  3.918691e+01
     vertex  5.411236e+01  4.956101e+01  3.918691e+01
   endloop
 endfacet
 facet normal  7.082249e-01  4.888524e-01  5.093534e-01
   outer loop
     vertex  5.087069e+01  4.702874e+01  4.612461e+01
     vertex  5.411236e+01  4.956101e+01  3.918691e+01
     vertex  5.337849e+01  5.062420e+01  3.918691e+01
   endloop
 endfacet
 facet normal  5.552393e-01  6.617084e-01  5.038366e-01
   outer loop
     vertex  5.087069e+01  4.702874e+01  4.612461e+01
     vertex  4.772298e+01  4.438750e+01  5.306230e+01
     vertex  5.338957e+01  4.491515e+01  4.612461e+01
   endloop
 endfacet
 facet normal  5.572478e-01  6.641021e-01  4.984409e-01
   outer loop
     vertex  5.087069e+01  4.702874e+01  4.612461e+01
     vertex  5.338957e+01  4.491515e+01  4.612461e+01
     vertex  5.507934e+01  4.870434e+01  3.918691e+01
   endloop
 endfacet
 facet normal  8.383892e-01 -1.478306e-01  5.246424e-01
   outer loop
     vertex  4.536537e+01  5.775817e+01  5.306230e+01
     vertex  4.095146e+01  5.734712e+01  6.000000e+01
     vertex  4.454658e+01  5.311458e+01  5.306230e+01
   endloop
 endfacet
 facet normal  8.109681e-01 -3.075596e-01  4.977327e-01
   outer loop
     vertex  4.536537e+01  5.775817e+01  5.306230e+01
     vertex  4.246336e+01  6.133367e+01  6.000000e+01
     vertex  4.095146e+01  5.734712e+01  6.000000e+01
   endloop
 endfacet
 facet normal  8.025523e-01  3.043680e-01  5.130983e-01
   outer loop
     vertex  4.922661e+01  4.987637e+01  4.612461e+01
     vertex  5.337849e+01  5.062420e+01  3.918691e+01
     vertex  5.292039e+01  5.183213e+01  3.918691e+01
   endloop
 endfacet
 facet normal  7.516799e-01  4.339826e-01  4.966250e-01
   outer loop
     vertex  4.922661e+01  4.987637e+01  4.612461e+01
     vertex  5.087069e+01  4.702874e+01  4.612461e+01
     vertex  5.337849e+01  5.062420e+01  3.918691e+01
   endloop
 endfacet
 facet normal  8.506759e-01  1.499971e-01  5.038366e-01
   outer loop
     vertex  4.922661e+01  4.987637e+01  4.612461e+01
     vertex  4.454658e+01  5.311458e+01  5.306230e+01
     vertex  4.536537e+01  4.847100e+01  5.306230e+01
   endloop
 endfacet
 facet normal  7.480718e-01  4.318995e-01  5.038366e-01
   outer loop
     vertex  4.922661e+01  4.987637e+01  4.612461e+01
     vertex  4.772298e+01  4.438750e+01  5.306230e+01
     vertex  5.087069e+01  4.702874e+01  4.612461e+01
   endloop
 endfacet
 facet normal  7.480718e-01  4.318995e-01  5.038366e-01
   outer loop
     vertex  4.922661e+01  4.987637e+01  4.612461e+01
     vertex  4.536537e+01  4.847100e+01  5.306230e+01
     vertex  4.772298e+01  4.438750e+01  5.306230e+01
   endloop
 endfacet
 facet normal  7.360566e-01 -4.249625e-01  5.269038e-01
   outer loop
     vertex  4.772298e+01  6.184167e+01  5.306230e+01
     vertex  4.246336e+01  6.133367e+01  6.000000e+01
     vertex  4.536537e+01  5.775817e+01  5.306230e+01
   endloop
 endfacet
 facet normal  7.111874e-01 -4.908973e-01  5.032219e-01
   outer loop
     vertex  4.772298e+01  6.184167e+01  5.306230e+01
     vertex  4.488537e+01  6.484256e+01  6.000000e+01
     vertex  4.246336e+01  6.133367e+01  6.000000e+01
   endloop
 endfacet
 facet normal  5.698779e-01 -6.432592e-01  5.113284e-01
   outer loop
     vertex  4.772298e+01  6.184167e+01  5.306230e+01
     vertex  4.807673e+01  6.766986e+01  6.000000e+01
     vertex  4.488537e+01  6.484256e+01  6.000000e+01
   endloop
 endfacet
 facet normal  8.557528e-01  1.039072e-01  5.068436e-01
   outer loop
     vertex  4.865562e+01  5.311458e+01  4.612461e+01
     vertex  5.292039e+01  5.183213e+01  3.918691e+01
     vertex  5.276467e+01  5.311458e+01  3.918691e+01
   endloop
 endfacet
 facet normal  8.557528e-01 -1.039072e-01  5.068436e-01
   outer loop
     vertex  4.865562e+01  5.311458e+01  4.612461e+01
     vertex  5.276467e+01  5.311458e+01  3.918691e+01
     vertex  5.292039e+01  5.439704e+01  3.918691e+01
   endloop
 endfacet
 facet normal  8.543686e-01  1.506482e-01  4.973524e-01
   outer loop
     vertex  4.865562e+01  5.311458e+01  4.612461e+01
     vertex  4.922661e+01  4.987637e+01  4.612461e+01
     vertex  5.292039e+01  5.183213e+01  3.918691e+01
   endloop
 endfacet
 facet normal  8.506759e-01  1.499971e-01  5.038366e-01
   outer loop
     vertex  4.865562e+01  5.311458e+01  4.612461e+01
     vertex  4.454658e+01  5.311458e+01  5.306230e+01
     vertex  4.922661e+01  4.987637e+01  4.612461e+01
   endloop
 endfacet
 facet normal  4.028230e-01 -7.675151e-01  4.986523e-01
   outer loop
     vertex  5.133505e+01  6.487256e+01  5.306230e+01
     vertex  5.185198e+01  6.965127e+01  6.000000e+01
     vertex  4.807673e+01  6.766986e+01  6.000000e+01
   endloop
 endfacet
 facet normal  5.485648e-01 -6.537540e-01  5.212316e-01
   outer loop
     vertex  5.133505e+01  6.487256e+01  5.306230e+01
     vertex  4.807673e+01  6.766986e+01  6.000000e+01
     vertex  4.772298e+01  6.184167e+01  5.306230e+01
   endloop
 endfacet
 facet normal  8.025523e-01 -3.043680e-01  5.130983e-01
   outer loop
     vertex  4.922661e+01  5.635280e+01  4.612461e+01
     vertex  5.292039e+01  5.439704e+01  3.918691e+01
     vertex  5.337849e+01  5.560497e+01  3.918691e+01
   endloop
 endfacet
 facet normal  8.506759e-01 -1.499971e-01  5.038366e-01
   outer loop
     vertex  4.922661e+01  5.635280e+01  4.612461e+01
     vertex  4.454658e+01  5.311458e+01  5.306230e+01
     vertex  4.865562e+01  5.311458e+01  4.612461e+01
   endloop
 endfacet
 facet normal  7.480718e-01 -4.318995e-01  5.038366e-01
   outer loop
     vertex  4.922661e+01  5.635280e+01  4.612461e+01
     vertex  4.772298e+01  6.184167e+01  5.306230e+01
     vertex  4.536537e+01  5.775817e+01  5.306230e+01
   endloop
 endfacet
 facet normal  8.543686e-01 -1.506482e-01  4.973524e-01
   outer loop
     vertex  4.922661e+01  5.635280e+01  4.612461e+01
     vertex  4.865562e+01  5.311458e+01  4.612461e+01
     vertex  5.292039e+01  5.439704e+01  3.918691e+01
   endloop
 endfacet
 facet normal  8.506759e-01 -1.499971e-01  5.038366e-01
   outer loop
     vertex  4.922661e+01  5.635280e+01  4.612461e+01
     vertex  4.536537e+01  5.775817e+01  5.306230e+01
     vertex  4.454658e+01  5.311458e+01  5.306230e+01
   endloop
 endfacet
 facet normal  2.071863e-01 -8.405877e-01  5.004858e-01
   outer loop
     vertex  5.576591e+01  6.648526e+01  5.306230e+01
     vertex  5.599171e+01  7.067162e+01  6.000000e+01
     vertex  5.185198e+01  6.965127e+01  6.000000e+01
   endloop
 endfacet
 facet normal  2.904522e-01 -7.980108e-01  5.280306e-01
   outer loop
     vertex  5.576591e+01  6.648526e+01  5.306230e+01
     vertex  5.185198e+01  6.965127e+01  6.000000e+01
     vertex  5.133505e+01  6.487256e+01  5.306230e+01
   endloop
 endfacet
 facet normal  7.082249e-01 -4.888524e-01  5.093534e-01
   outer loop
     vertex  5.087069e+01  5.920043e+01  4.612461e+01
     vertex  5.337849e+01  5.560497e+01  3.918691e+01
     vertex  5.411236e+01  5.666816e+01  3.918691e+01
   endloop
 endfacet
 facet normal  5.728608e-01 -6.466261e-01  5.036915e-01
   outer loop
     vertex  5.087069e+01  5.920043e+01  4.612461e+01
     vertex  5.411236e+01  5.666816e+01  3.918691e+01
     vertex  5.507934e+01  5.752483e+01  3.918691e+01
   endloop
 endfacet
 facet normal  7.516799e-01 -4.339826e-01  4.966250e-01
   outer loop
     vertex  5.087069e+01  5.920043e+01  4.612461e+01
     vertex  4.922661e+01  5.635280e+01  4.612461e+01
     vertex  5.337849e+01  5.560497e+01  3.918691e+01
   endloop
 endfacet
 facet normal  7.480718e-01 -4.318995e-01  5.038366e-01
   outer loop
     vertex  5.087069e+01  5.920043e+01  4.612461e+01
     vertex  4.772298e+01  6.184167e+01  5.306230e+01
     vertex  4.922661e+01  5.635280e+01  4.612461e+01
   endloop
 endfacet
 facet normal  2.879378e-15 -8.561976e-01  5.166485e-01
   outer loop
     vertex  6.048113e+01  6.648526e+01  5.306230e+01
     vertex  6.025533e+01  7.067162e+01  6.000000e+01
     vertex  5.599171e+01  7.067162e+01  6.000000e+01
   endloop
 endfacet
 facet normal -2.071863e-01 -8.405877e-01  5.004858e-01
   outer loop
     vertex  6.048113e+01  6.648526e+01  5.306230e+01
     vertex  6.439505e+01  6.965127e+01  6.000000e+01
     vertex  6.025533e+01  7.067162e+01  6.000000e+01
   endloop
 endfacet
 facet normal  0.000000e+00 -8.561976e-01  5.166485e-01
   outer loop
     vertex  6.048113e+01  6.648526e+01  5.306230e+01
     vertex  5.599171e+01  7.067162e+01  6.000000e+01
     vertex  5.576591e+01  6.648526e+01  5.306230e+01
   endloop
 endfacet
 facet normal  3.990586e-01 -7.603426e-01  5.124758e-01
   outer loop
     vertex  5.338957e+01  6.131402e+01  4.612461e+01
     vertex  5.507934e+01  5.752483e+01  3.918691e+01
     vertex  5.622324e+01  5.812520e+01  3.918691e+01
   endloop
 endfacet
 facet normal  2.954366e-01 -8.117055e-01  5.038366e-01
   outer loop
     vertex  5.338957e+01  6.131402e+01  4.612461e+01
     vertex  5.576591e+01  6.648526e+01  5.306230e+01
     vertex  5.133505e+01  6.487256e+01  5.306230e+01
   endloop
 endfacet
 facet normal  5.572478e-01 -6.641021e-01  4.984409e-01
   outer loop
     vertex  5.338957e+01  6.131402e+01  4.612461e+01
     vertex  5.087069e+01  5.920043e+01  4.612461e+01
     vertex  5.507934e+01  5.752483e+01  3.918691e+01
   endloop
 endfacet
 facet normal  5.552393e-01 -6.617084e-01  5.038366e-01
   outer loop
     vertex  5.338957e+01  6.131402e+01  4.612461e+01
     vertex  5.133505e+01  6.487256e+01  5.306230e+01
     vertex  4.772298e+01  6.184167e+01  5.306230e+01
   endloop
 endfacet
 facet normal  5.552393e-01 -6.617084e-01  5.038366e-01
   outer loop
     vertex  5.338957e+01  6.131402e+01  4.612461e+01
     vertex  4.772298e+01  6.184167e+01  5.306230e+01
     vertex  5.087069e+01  5.920043e+01  4.612461e+01
   endloop
 endfacet
 facet normal -4.028230e-01 -7.675151e-01  4.986523e-01
   outer loop
     vertex  6.491199e+01  6.487256e+01  5.306230e+01
     vertex  6.817030e+01  6.766986e+01  6.000000e+01
     vertex  6.439505e+01  6.965127e+01  6.000000e+01
   endloop
 endfacet
 facet normal -2.904522e-01 -7.980108e-01  5.280306e-01
   outer loop
     vertex  6.491199e+01  6.487256e+01  5.306230e+01
     vertex  6.439505e+01  6.965127e+01  6.000000e+01
     vertex  6.048113e+01  6.648526e+01  5.306230e+01
   endloop
 endfacet
 facet normal  2.056786e-01 -8.344707e-01  5.112288e-01
   outer loop
     vertex  5.647943e+01  6.243864e+01  4.612461e+01
     vertex  5.622324e+01  5.812520e+01  3.918691e+01
     vertex  5.747758e+01  5.843436e+01  3.918691e+01
   endloop
 endfacet
 facet normal  0.000000e+00 -8.660904e-01  4.998874e-01
   outer loop
     vertex  5.647943e+01  6.243864e+01  4.612461e+01
     vertex  5.747758e+01  5.843436e+01  3.918691e+01
     vertex  5.876945e+01  5.843436e+01  3.918691e+01
   endloop
 endfacet
 facet normal  2.969328e-01 -8.158162e-01  4.962608e-01
   outer loop
     vertex  5.647943e+01  6.243864e+01  4.612461e+01
     vertex  5.338957e+01  6.131402e+01  4.612461e+01
     vertex  5.622324e+01  5.812520e+01  3.918691e+01
   endloop
 endfacet
 facet normal  2.954366e-01 -8.117055e-01  5.038366e-01
   outer loop
     vertex  5.647943e+01  6.243864e+01  4.612461e+01
     vertex  5.576591e+01  6.648526e+01  5.306230e+01
     vertex  5.338957e+01  6.131402e+01  4.612461e+01
   endloop
 endfacet
 facet normal  0.000000e+00 -8.637990e-01  5.038366e-01
   outer loop
     vertex  5.647943e+01  6.243864e+01  4.612461e+01
     vertex  6.048113e+01  6.648526e+01  5.306230e+01
     vertex  5.576591e+01  6.648526e+01  5.306230e+01
   endloop
 endfacet
 facet normal -5.698779e-01 -6.432592e-01  5.113284e-01
   outer loop
     vertex  6.852405e+01  6.184167e+01  5.306230e+01
     vertex  7.136166e+01  6.484256e+01  6.000000e+01
     vertex  6.817030e+01  6.766986e+01  6.000000e+01
   endloop
 endfacet
 facet normal -5.485648e-01 -6.537540e-01  5.212316e-01
   outer loop
     vertex  6.852405e+01  6.184167e+01  5.306230e+01
     vertex  6.817030e+01  6.766986e+01  6.000000e+01
     vertex  6.491199e+01  6.487256e+01  5.306230e+01
   endloop
 endfacet
 facet normal -7.111874e-01 -4.908973e-01  5.032219e-01
   outer loop
     vertex  6.852405e+01  6.184167e+01  5.306230e+01
     vertex  7.378368e+01  6.133367e+01  6.000000e+01
     vertex  7.136166e+01  6.484256e+01  6.000000e+01
   endloop
 endfacet
 facet normal -2.056786e-01 -8.344707e-01  5.112288e-01
   outer loop
     vertex  5.976760e+01  6.243864e+01  4.612461e+01
     vertex  5.876945e+01  5.843436e+01  3.918691e+01
     vertex  6.002379e+01  5.812520e+01  3.918691e+01
   endloop
 endfacet
 facet normal  1.871543e-15 -8.660904e-01  4.998874e-01
   outer loop
     vertex  5.976760e+01  6.243864e+01  4.612461e+01
     vertex  5.647943e+01  6.243864e+01  4.612461e+01
     vertex  5.876945e+01  5.843436e+01  3.918691e+01
   endloop
 endfacet
 facet normal  1.866591e-15 -8.637990e-01  5.038366e-01
   outer loop
     vertex  5.976760e+01  6.243864e+01  4.612461e+01
     vertex  6.048113e+01  6.648526e+01  5.306230e+01
     vertex  5.647943e+01  6.243864e+01  4.612461e+01
   endloop
 endfacet
 facet normal -8.109681e-01 -3.075596e-01  4.977327e-01
   outer loop
     vertex  7.088167e+01  5.775817e+01  5.306230e+01
     vertex  7.529558e+01  5.734712e+01  6.000000e+01
     vertex  7.378368e+01  6.133367e+01  6.000000e+01
   endloop
 endfacet
 facet normal -8.383892e-01 -1.478306e-01  5.246424e-01
   outer loop
     vertex  7.088167e+01  5.775817e+01  5.306230e+01
     vertex  7.170045e+01  5.311458e+01  5.306230e+01
     vertex  7.529558e+01  5.734712e+01  6.000000e+01
   endloop
 endfacet
 facet normal -7.360566e-01 -4.249625e-01  5.269038e-01
   outer loop
     vertex  7.088167e+01  5.775817e+01  5.306230e+01
     vertex  7.378368e+01  6.133367e+01  6.000000e+01
     vertex  6.852405e+01  6.184167e+01  5.306230e+01
   endloop
 endfacet
 facet normal -2.954366e-01 -8.117055e-01  5.038366e-01
   outer loop
     vertex  6.285746e+01  6.131402e+01  4.612461e+01
     vertex  6.048113e+01  6.648526e+01  5.306230e+01
     vertex  5.976760e+01  6.243864e+01  4.612461e+01
   endloop
 endfacet
 facet normal -3.990586e-01 -7.603426e-01  5.124758e-01
   outer loop
     vertex  6.285746e+01  6.131402e+01  4.612461e+01
     vertex  6.002379e+01  5.812520e+01  3.918691e+01
     vertex  6.116769e+01  5.752483e+01  3.918691e+01
   endloop
 endfacet
 facet normal -5.552393e-01 -6.617084e-01  5.038366e-01
   outer loop
     vertex  6.285746e+01  6.131402e+01  4.612461e+01
     vertex  6.852405e+01  6.184167e+01  5.306230e+01
     vertex  6.491199e+01  6.487256e+01  5.306230e+01
   endloop
 endfacet
 facet normal -2.969328e-01 -8.158162e-01  4.962608e-01
   outer loop
     vertex  6.285746e+01  6.131402e+01  4.612461e+01
     vertex  5.976760e+01  6.243864e+01  4.612461e+01
     vertex  6.002379e+01  5.812520e+01  3.918691e+01
   endloop
 endfacet
 facet normal -2.954366e-01 -8.117055e-01  5.038366e-01
   outer loop
     vertex  6.285746e+01  6.131402e+01  4.612461e+01
     vertex  6.491199e+01  6.487256e+01  5.306230e+01
     vertex  6.048113e+01  6.648526e+01  5.306230e+01
   endloop
 endfacet
 facet normal -5.552393e-01 -6.617084e-01  5.038366e-01
   outer loop
     vertex  6.537634e+01  5.920043e+01  4.612461e+01
     vertex  6.852405e+01  6.184167e+01  5.306230e+01
     vertex  6.285746e+01  6.131402e+01  4.612461e+01
   endloop
 endfacet
 facet normal -5.728608e-01 -6.466261e-01  5.036915e-01
   outer loop
     vertex  6.537634e+01  5.920043e+01  4.612461e+01
     vertex  6.116769e+01  5.752483e+01  3.918691e+01
     vertex  6.213467e+01  5.666816e+01  3.918691e+01
   endloop
 endfacet
 facet normal -7.082249e-01 -4.888524e-01  5.093534e-01
   outer loop
     vertex  6.537634e+01  5.920043e+01  4.612461e+01
     vertex  6.213467e+01  5.666816e+01  3.918691e+01
     vertex  6.286854e+01  5.560497e+01  3.918691e+01
   endloop
 endfacet
 facet normal -5.572478e-01 -6.641021e-01  4.984409e-01
   outer loop
     vertex  6.537634e+01  5.920043e+01  4.612461e+01
     vertex  6.285746e+01  6.131402e+01  4.612461e+01
     vertex  6.116769e+01  5.752483e+01  3.918691e+01
   endloop
 endfacet
 facet normal -8.506759e-01 -1.499971e-01  5.038366e-01
   outer loop
     vertex  6.702043e+01  5.635280e+01  4.612461e+01
     vertex  7.170045e+01  5.311458e+01  5.306230e+01
     vertex  7.088167e+01  5.775817e+01  5.306230e+01
   endloop
 endfacet
 facet normal -7.480718e-01 -4.318995e-01  5.038366e-01
   outer loop
     vertex  6.702043e+01  5.635280e+01  4.612461e+01
     vertex  7.088167e+01  5.775817e+01  5.306230e+01
     vertex  6.852405e+01  6.184167e+01  5.306230e+01
   endloop
 endfacet
 facet normal -7.516799e-01 -4.339826e-01  4.966250e-01
   outer loop
     vertex  6.702043e+01  5.635280e+01  4.612461e+01
     vertex  6.537634e+01  5.920043e+01  4.612461e+01
     vertex  6.286854e+01  5.560497e+01  3.918691e+01
   endloop
 endfacet
 facet normal -8.025523e-01 -3.043680e-01  5.130983e-01
   outer loop
     vertex  6.702043e+01  5.635280e+01  4.612461e+01
     vertex  6.286854e+01  5.560497e+01  3.918691e+01
     vertex  6.332665e+01  5.439704e+01  3.918691e+01
   endloop
 endfacet
 facet normal -8.506759e-01 -1.499971e-01  5.038366e-01
   outer loop
     vertex  6.702043e+01  5.635280e+01  4.612461e+01
     vertex  6.759141e+01  5.311458e+01  4.612461e+01
     vertex  7.170045e+01  5.311458e+01  5.306230e+01
   endloop
 endfacet
 facet normal -8.543686e-01 -1.506482e-01  4.973524e-01
   outer loop
     vertex  6.702043e+01  5.635280e+01  4.612461e+01
     vertex  6.332665e+01  5.439704e+01  3.918691e+01
     vertex  6.759141e+01  5.311458e+01  4.612461e+01
   endloop
 endfacet
 facet normal -7.480718e-01 -4.318995e-01  5.038366e-01
   outer loop
     vertex  6.702043e+01  5.635280e+01  4.612461e+01
     vertex  6.852405e+01  6.184167e+01  5.306230e+01
     vertex  6.537634e+01  5.920043e+01  4.612461e+01
   endloop
 endfacet
 facet normal  0.000000e+00  0.000000e+00  1.000000e+00
   outer loop
     vertex  5.747758e+01  5.843436e+01  3.918691e+01
     vertex  5.507934e+01  5.752483e+01  3.918691e+01
     vertex  5.411236e+01  5.666816e+01  3.918691e+01
   endloop
 endfacet
 facet normal  0.000000e+00  0.000000e+00  1.000000e+00
   outer loop
     vertex  5.747758e+01  5.843436e+01  3.918691e+01
     vertex  5.622324e+01  5.812520e+01  3.918691e+01
     vertex  5.507934e+01  5.752483e+01  3.918691e+01
   endloop
 endfacet
 facet normal  0.000000e+00  0.000000e+00  1.000000e+00
   outer loop
     vertex  5.276467e+01  5.311458e+01  3.918691e+01
     vertex  5.337849e+01  5.560497e+01  3.918691e+01
     vertex  5.292039e+01  5.439704e+01  3.918691e+01
   endloop
 endfacet
 facet normal  0.000000e+00  0.000000e+00  1.000000e+00
   outer loop
     vertex  5.876945e+01  5.843436e+01  3.918691e+01
     vertex  5.747758e+01  5.843436e+01  3.918691e+01
     vertex  5.411236e+01  5.666816e+01  3.918691e+01
   endloop
 endfacet
 facet normal  0.000000e+00  0.000000e+00  1.000000e+00
   outer loop
     vertex  5.507934e+01  4.870434e+01  3.918691e+01
     vertex  5.337849e+01  5.062420e+01  3.918691e+01
     vertex  5.411236e+01  4.956101e+01  3.918691e+01
   endloop
 endfacet
 facet normal  0.000000e+00  0.000000e+00  1.000000e+00
   outer loop
     vertex  5.622324e+01  4.810397e+01  3.918691e+01
     vertex  5.292039e+01  5.183213e+01  3.918691e+01
     vertex  5.337849e+01  5.062420e+01  3.918691e+01
   endloop
 endfacet
 facet normal  0.000000e+00  0.000000e+00  1.000000e+00
   outer loop
     vertex  5.622324e+01  4.810397e+01  3.918691e+01
     vertex  5.276467e+01  5.311458e+01  3.918691e+01
     vertex  5.292039e+01  5.183213e+01  3.918691e+01
   endloop
 endfacet
 facet normal  0.000000e+00  0.000000e+00  1.000000e+00
   outer loop
     vertex  5.622324e+01  4.810397e+01  3.918691e+01
     vertex  5.411236e+01  5.666816e+01  3.918691e+01
     vertex  5.337849e+01  5.560497e+01  3.918691e+01
   endloop
 endfacet
 facet normal  0.000000e+00  0.000000e+00  1.000000e+00
   outer loop
     vertex  5.622324e+01  4.810397e+01  3.918691e+01
     vertex  5.337849e+01  5.560497e+01  3.918691e+01
     vertex  5.276467e+01  5.311458e+01  3.918691e+01
   endloop
 endfacet
 facet normal  0.000000e+00 -0.000000e+00  1.000000e+00
   outer loop
     vertex  5.622324e+01  4.810397e+01  3.918691e+01
     vertex  5.876945e+01  5.843436e+01  3.918691e+01
     vertex  5.411236e+01  5.666816e+01  3.918691e+01
   endloop
 endfacet
 facet normal  0.000000e+00  0.000000e+00  1.000000e+00
   outer loop
     vertex  5.622324e+01  4.810397e+01  3.918691e+01
     vertex  5.337849e+01  5.062420e+01  3.918691e+01
     vertex  5.507934e+01  4.870434e+01  3.918691e+01
   endloop
 endfacet
 facet normal  0.000000e+00  0.000000e+00  1.000000e+00
   outer loop
     vertex  6.332665e+01  5.439704e+01  3.918691e+01
     vertex  6.286854e+01  5.560497e+01  3.918691e+01
     vertex  6.213467e+01  5.666816e+01  3.918691e+01
   endloop
 endfacet
 facet normal  0.000000e+00 -0.000000e+00  1.000000e+00
   outer loop
     vertex  5.747758e+01  4.779481e+01  3.918691e+01
     vertex  5.876945e+01  5.843436e+01  3.918691e+01
     vertex  5.622324e+01  4.810397e+01  3.918691e+01
   endloop
 endfacet
 facet normal  0.000000e+00 -0.000000e+00  1.000000e+00
   outer loop
     vertex  6.332665e+01  5.183213e+01  3.918691e+01
     vertex  6.348237e+01  5.311458e+01  3.918691e+01
     vertex  6.332665e+01  5.439704e+01  3.918691e+01
   endloop
 endfacet
 facet normal  0.000000e+00  0.000000e+00  1.000000e+00
   outer loop
     vertex  6.002379e+01  4.810397e+01  3.918691e+01
     vertex  5.747758e+01  4.779481e+01  3.918691e+01
     vertex  5.876945e+01  4.779481e+01  3.918691e+01
   endloop
 endfacet
 facet normal  0.000000e+00  0.000000e+00  1.000000e+00
   outer loop
     vertex  6.002379e+01  4.810397e+01  3.918691e+01
     vertex  6.002379e+01  5.812520e+01  3.918691e+01
     vertex  5.876945e+01  5.843436e+01  3.918691e+01
   endloop
 endfacet
 facet normal  0.000000e+00 -0.000000e+00  1.000000e+00
   outer loop
     vertex  6.002379e+01  4.810397e+01  3.918691e+01
     vertex  6.116769e+01  5.752483e+01  3.918691e+01
     vertex  6.002379e+01  5.812520e+01  3.918691e+01
   endloop
 endfacet
 facet normal  0.000000e+00  0.000000e+00  1.000000e+00
   outer loop
     vertex  6.002379e+01  4.810397e+01  3.918691e+01
     vertex  6.213467e+01  5.666816e+01  3.918691e+01
     vertex  6.116769e+01  5.752483e+01  3.918691e+01
   endloop
 endfacet
 facet normal  0.000000e+00  0.000000e+00  1.000000e+00
   outer loop
     vertex  6.002379e+01  4.810397e+01  3.918691e+01
     vertex  6.332665e+01  5.439704e+01  3.918691e+01
     vertex  6.213467e+01  5.666816e+01  3.918691e+01
   endloop
 endfacet
 facet normal  0.000000e+00  0.000000e+00  1.000000e+00
   outer loop
     vertex  6.002379e+01  4.810397e+01  3.918691e+01
     vertex  5.876945e+01  5.843436e+01  3.918691e+01
     vertex  5.747758e+01  4.779481e+01  3.918691e+01
   endloop
 endfacet
 facet normal  0.000000e+00  0.000000e+00  1.000000e+00
   outer loop
     vertex  6.286854e+01  5.062420e+01  3.918691e+01
     vertex  6.332665e+01  5.183213e+01  3.918691e+01
     vertex  6.332665e+01  5.439704e+01  3.918691e+01
   endloop
 endfacet
 facet normal  0.000000e+00  0.000000e+00  1.000000e+00
   outer loop
     vertex  6.213467e+01  4.956101e+01  3.918691e+01
     vertex  6.002379e+01  4.810397e+01  3.918691e+01
     vertex  6.116769e+01  4.870434e+01  3.918691e+01
   endloop
 endfacet
 facet normal  0.000000e+00 -0.000000e+00  1.000000e+00
   outer loop
     vertex  6.213467e+01  4.956101e+01  3.918691e+01
     vertex  6.332665e+01  5.439704e+01  3.918691e+01
     vertex  6.002379e+01  4.810397e+01  3.918691e+01
   endloop
 endfacet
 facet normal  0.000000e+00  0.000000e+00  1.000000e+00
   outer loop
     vertex  6.213467e+01  4.956101e+01  3.918691e+01
     vertex  6.286854e+01  5.062420e+01  3.918691e+01
     vertex  6.332665e+01  5.439704e+01  3.918691e+01
   endloop
 endfacet
endsolid
