solid 
 facet normal -1.000000e+00  0.000000e+00  0.000000e+00
   outer loop
     vertex  0.000000e+00  0.000000e+00  6.000000e+01
     vertex  0.000000e+00  8.469209e+01  0.000000e+00
     vertex  0.000000e+00  0.000000e+00  0.000000e+00
   endloop
 endfacet
 facet normal -1.000000e+00  0.000000e+00  0.000000e+00
   outer loop
     vertex  0.000000e+00  0.000000e+00  6.000000e+01
     vertex  0.000000e+00  8.469209e+01  6.000000e+01
     vertex  0.000000e+00  8.469209e+01  0.000000e+00
   endloop
 endfacet
 facet normal  0.000000e+00 -1.000000e+00 -0.000000e+00
   outer loop
     vertex  1.332340e+02  0.000000e+00  6.000000e+01
     vertex  0.000000e+00  0.000000e+00  0.000000e+00
     vertex  1.332340e+02  0.000000e+00  0.000000e+00
   endloop
 endfacet
 facet normal -0.000000e+00 -1.000000e+00  0.000000e+00
   outer loop
     vertex  1.332340e+02  0.000000e+00  6.000000e+01
     vertex  0.000000e+00  0.000000e+00  6.000000e+01
     vertex  0.000000e+00  0.000000e+00  0.000000e+00
   endloop
 endfacet
 facet normal  0.000000e+00  0.000000e+00  1.000000e+00
   outer loop
     vertex  4.237688e+01  2.046968e+01  6.000000e+01
     vertex  3.931349e+01  2.318360e+01  6.000000e+01
     vertex  0.000000e+00  0.000000e+00  6.000000e+01
   endloop
 endfacet
 facet normal  0.000000e+00  0.000000e+00  1.000000e+00
   outer loop
     vertex  3.698860e+01  2.655178e+01  6.000000e+01
     vertex  0.000000e+00  0.000000e+00  6.000000e+01
     vertex  3.931349e+01  2.318360e+01  6.000000e+01
   endloop
 endfacet
 facet normal  0.000000e+00  0.000000e+00  1.000000e+00
   outer loop
     vertex  4.600073e+01  1.856773e+01  6.000000e+01
     vertex  4.237688e+01  2.046968e+01  6.000000e+01
     vertex  0.000000e+00  0.000000e+00  6.000000e+01
   endloop
 endfacet
 facet normal  0.000000e+00  0.000000e+00  1.000000e+00
   outer loop
     vertex  3.553733e+01  3.037847e+01  6.000000e+01
     vertex  0.000000e+00  0.000000e+00  6.000000e+01
     vertex  3.698860e+01  2.655178e+01  6.000000e+01
   endloop
 endfacet
 facet normal  0.000000e+00  0.000000e+00  1.000000e+00
   outer loop
     vertex  4.997445e+01  1.758830e+01  6.000000e+01
     vertex  4.600073e+01  1.856773e+01  6.000000e+01
     vertex  0.000000e+00  0.000000e+00  6.000000e+01
   endloop
 endfacet
 facet normal  0.000000e+00  0.000000e+00  1.000000e+00
   outer loop
     vertex  3.504402e+01  3.444127e+01  6.000000e+01
     vertex  0.000000e+00  0.000000e+00  6.000000e+01
     vertex  3.553733e+01  3.037847e+01  6.000000e+01
   endloop
 endfacet
 facet normal  0.000000e+00  0.000000e+00  1.000000e+00
   outer loop
     vertex  5.406709e+01  1.758830e+01  6.000000e+01
     vertex  4.997445e+01  1.758830e+01  6.000000e+01
     vertex  0.000000e+00  0.000000e+00  6.000000e+01
   endloop
 endfacet
 facet normal  0.000000e+00  0.000000e+00  1.000000e+00
   outer loop
     vertex  3.553733e+01  3.850407e+01  6.000000e+01
     vertex  0.000000e+00  0.000000e+00  6.000000e+01
     vertex  3.504402e+01  3.444127e+01  6.000000e+01
   endloop
 endfacet
 facet normal  0.000000e+00  0.000000e+00  1.000000e+00
   outer loop
     vertex  0.000000e+00  8.469209e+01  6.000000e+01
     vertex  3.553733e+01  3.850407e+01  6.000000e+01
     vertex  3.698860e+01  4.233076e+01  6.000000e+01
   endloop
 endfacet
 facet normal  0.000000e+00  0.000000e+00  1.000000e+00
   outer loop
     vertex  0.000000e+00  8.469209e+01  6.000000e+01
     vertex  0.000000e+00  0.000000e+00  6.000000e+01
     vertex  3.553733e+01  3.850407e+01  6.000000e+01
   endloop
 endfacet
 facet normal  0.000000e+00  0.000000e+00  1.000000e+00
   outer loop
     vertex  3.931349e+01  4.569894e+01  6.000000e+01
     vertex  0.000000e+00  8.469209e+01  6.000000e+01
     vertex  3.698860e+01  4.233076e+01  6.000000e+01
   endloop
 endfacet
 facet normal  0.000000e+00  0.000000e+00  1.000000e+00
   outer loop
     vertex  4.237688e+01  4.841286e+01  6.000000e+01
     vertex  0.000000e+00  8.469209e+01  6.000000e+01
     vertex  3.931349e+01  4.569894e+01  6.000000e+01
   endloop
 endfacet
 facet normal  0.000000e+00  0.000000e+00  1.000000e+00
   outer loop
     vertex  4.600073e+01  5.031481e+01  6.000000e+01
     vertex  0.000000e+00  8.469209e+01  6.000000e+01
     vertex  4.237688e+01  4.841286e+01  6.000000e+01
   endloop
 endfacet
 facet normal  0.000000e+00  0.000000e+00  1.000000e+00
   outer loop
     vertex  4.997445e+01  5.129424e+01  6.000000e+01
     vertex  0.000000e+00  8.469209e+01  6.000000e+01
     vertex  4.600073e+01  5.031481e+01  6.000000e+01
   endloop
 endfacet
 facet normal  0.000000e+00  0.000000e+00  1.000000e+00
   outer loop
     vertex  5.406709e+01  5.129424e+01  6.000000e+01
     vertex  0.000000e+00  8.469209e+01  6.000000e+01
     vertex  4.997445e+01  5.129424e+01  6.000000e+01
   endloop
 endfacet
 facet normal  0.000000e+00  0.000000e+00  1.000000e+00
   outer loop
     vertex  1.332340e+02  0.000000e+00  6.000000e+01
     vertex  6.899753e+01  3.444127e+01  6.000000e+01
     vertex  6.850421e+01  3.037847e+01  6.000000e+01
   endloop
 endfacet
 facet normal  0.000000e+00  0.000000e+00  1.000000e+00
   outer loop
     vertex  1.332340e+02  0.000000e+00  6.000000e+01
     vertex  6.850421e+01  3.037847e+01  6.000000e+01
     vertex  6.705294e+01  2.655178e+01  6.000000e+01
   endloop
 endfacet
 facet normal  0.000000e+00  0.000000e+00  1.000000e+00
   outer loop
     vertex  1.332340e+02  0.000000e+00  6.000000e+01
     vertex  6.705294e+01  2.655178e+01  6.000000e+01
     vertex  6.472806e+01  2.318360e+01  6.000000e+01
   endloop
 endfacet
 facet normal  0.000000e+00  0.000000e+00  1.000000e+00
   outer loop
     vertex  1.332340e+02  0.000000e+00  6.000000e+01
     vertex  6.472806e+01  2.318360e+01  6.000000e+01
     vertex  6.166467e+01  2.046968e+01  6.000000e+01
   endloop
 endfacet
 facet normal  0.000000e+00  0.000000e+00  1.000000e+00
   outer loop
     vertex  1.332340e+02  0.000000e+00  6.000000e+01
     vertex  6.166467e+01  2.046968e+01  6.000000e+01
     vertex  5.804081e+01  1.856773e+01  6.000000e+01
   endloop
 endfacet
 facet normal  0.000000e+00  0.000000e+00  1.000000e+00
   outer loop
     vertex  1.332340e+02  0.000000e+00  6.000000e+01
     vertex  5.804081e+01  1.856773e+01  6.000000e+01
     vertex  5.406709e+01  1.758830e+01  6.000000e+01
   endloop
 endfacet
 facet normal  0.000000e+00  0.000000e+00  1.000000e+00
   outer loop
     vertex  1.332340e+02  0.000000e+00  6.000000e+01
     vertex  6.850421e+01  3.850407e+01  6.000000e+01
     vertex  6.899753e+01  3.444127e+01  6.000000e+01
   endloop
 endfacet
 facet normal  0.000000e+00  0.000000e+00  1.000000e+00
   outer loop
     vertex  1.332340e+02  0.000000e+00  6.000000e+01
     vertex  5.406709e+01  1.758830e+01  6.000000e+01
     vertex  0.000000e+00  0.000000e+00  6.000000e+01
   endloop
 endfacet
 facet normal  0.000000e+00  0.000000e+00  1.000000e+00
   outer loop
     vertex  1.332340e+02  8.469209e+01  6.000000e+01
     vertex  5.406709e+01  5.129424e+01  6.000000e+01
     vertex  5.804081e+01  5.031481e+01  6.000000e+01
   endloop
 endfacet
 facet normal  0.000000e+00  0.000000e+00  1.000000e+00
   outer loop
     vertex  1.332340e+02  8.469209e+01  6.000000e+01
     vertex  5.804081e+01  5.031481e+01  6.000000e+01
     vertex  6.166467e+01  4.841286e+01  6.000000e+01
   endloop
 endfacet
 facet normal  0.000000e+00  0.000000e+00  1.000000e+00
   outer loop
     vertex  1.332340e+02  8.469209e+01  6.000000e+01
     vertex  6.166467e+01  4.841286e+01  6.000000e+01
     vertex  6.472806e+01  4.569894e+01  6.000000e+01
   endloop
 endfacet
 facet normal  0.000000e+00  0.000000e+00  1.000000e+00
   outer loop
     vertex  1.332340e+02  8.469209e+01  6.000000e+01
     vertex  6.472806e+01  4.569894e+01  6.000000e+01
     vertex  6.705294e+01  4.233076e+01  6.000000e+01
   endloop
 endfacet
 facet normal  0.000000e+00  0.000000e+00  1.000000e+00
   outer loop
     vertex  1.332340e+02  8.469209e+01  6.000000e+01
     vertex  6.705294e+01  4.233076e+01  6.000000e+01
     vertex  6.850421e+01  3.850407e+01  6.000000e+01
   endloop
 endfacet
 facet normal  0.000000e+00  0.000000e+00  1.000000e+00
   outer loop
     vertex  1.332340e+02  8.469209e+01  6.000000e+01
     vertex  6.850421e+01  3.850407e+01  6.000000e+01
     vertex  1.332340e+02  0.000000e+00  6.000000e+01
   endloop
 endfacet
 facet normal  0.000000e+00  0.000000e+00  1.000000e+00
   outer loop
     vertex  1.332340e+02  8.469209e+01  6.000000e+01
     vertex  0.000000e+00  8.469209e+01  6.000000e+01
     vertex  5.406709e+01  5.129424e+01  6.000000e+01
   endloop
 endfacet
 facet normal  0.000000e+00  1.000000e+00  0.000000e+00
   outer loop
     vertex  1.332340e+02  8.469209e+01  6.000000e+01
     vertex  1.332340e+02  8.469209e+01  0.000000e+00
     vertex  0.000000e+00  8.469209e+01  0.000000e+00
   endloop
 endfacet
 facet normal  0.000000e+00  1.000000e+00  0.000000e+00
   outer loop
     vertex  1.332340e+02  8.469209e+01  6.000000e+01
     vertex  0.000000e+00  8.469209e+01  0.000000e+00
     vertex  0.000000e+00  8.469209e+01  6.000000e+01
   endloop
 endfacet
 facet normal -0.000000e+00  0.000000e+00 -1.000000e+00
   outer loop
     vertex  1.332340e+02  8.469209e+01  0.000000e+00
     vertex  0.000000e+00  0.000000e+00  0.000000e+00
     vertex  0.000000e+00  8.469209e+01  0.000000e+00
   endloop
 endfacet
 facet normal  0.000000e+00 -0.000000e+00 -1.000000e+00
   outer loop
     vertex  1.332340e+02  8.469209e+01  0.000000e+00
     vertex  1.332340e+02  0.000000e+00  0.000000e+00
     vertex  0.000000e+00  0.000000e+00  0.000000e+00
   endloop
 endfacet
 facet normal  1.000000e+00  0.000000e+00  0.000000e+00
   outer loop
     vertex  1.332340e+02  0.000000e+00  6.000000e+01
     vertex  1.332340e+02  0.000000e+00  0.000000e+00
     vertex  1.332340e+02  8.469209e+01  0.000000e+00
   endloop
 endfacet
 facet normal  1.000000e+00 -0.000000e+00  0.000000e+00
   outer loop
     vertex  1.332340e+02  0.000000e+00  6.000000e+01
     vertex  1.332340e+02  8.469209e+01  0.000000e+00
     vertex  1.332340e+02  8.469209e+01  6.000000e+01
   endloop
 endfacet
 facet normal -9.307308e-01  1.130112e-01  3.478054e-01
   outer loop
     vertex  6.654952e+01  3.444127e+01  5.344911e+01
     vertex  6.850421e+01  3.037847e+01  6.000000e+01
     vertex  6.899753e+01  3.444127e+01  6.000000e+01
   endloop
 endfacet
 facet normal -9.307308e-01  1.130112e-01  3.478054e-01
   outer loop
     vertex  6.137359e+01  3.213601e+01  4.034732e+01
     vertex  6.410151e+01  3.444127e+01  4.689821e+01
     vertex  6.165350e+01  3.444127e+01  4.034732e+01
   endloop
 endfacet
 facet normal -9.307308e-01 -1.130112e-01  3.478054e-01
   outer loop
     vertex  6.654952e+01  3.444127e+01  5.344911e+01
     vertex  6.899753e+01  3.444127e+01  6.000000e+01
     vertex  6.850421e+01  3.850407e+01  6.000000e+01
   endloop
 endfacet
 facet normal -9.307308e-01 -1.130112e-01  3.478054e-01
   outer loop
     vertex  6.165350e+01  3.444127e+01  4.034732e+01
     vertex  6.410151e+01  3.444127e+01  4.689821e+01
     vertex  6.137359e+01  3.674653e+01  4.034732e+01
   endloop
 endfacet
 facet normal -8.811817e-01  3.341881e-01  3.344206e-01
   outer loop
     vertex  6.556842e+01  2.919288e+01  5.344911e+01
     vertex  6.705294e+01  2.655178e+01  6.000000e+01
     vertex  6.850421e+01  3.037847e+01  6.000000e+01
   endloop
 endfacet
 facet normal -9.103692e-01  1.701775e-01  3.771838e-01
   outer loop
     vertex  6.556842e+01  2.919288e+01  5.344911e+01
     vertex  6.850421e+01  3.037847e+01  6.000000e+01
     vertex  6.654952e+01  3.444127e+01  5.344911e+01
   endloop
 endfacet
 facet normal -7.880655e-01  4.879495e-01  3.753107e-01
   outer loop
     vertex  6.275765e+01  2.465332e+01  5.344911e+01
     vertex  6.705294e+01  2.655178e+01  6.000000e+01
     vertex  6.556842e+01  2.919288e+01  5.344911e+01
   endloop
 endfacet
 facet normal -7.705867e-01  5.318976e-01  3.511140e-01
   outer loop
     vertex  6.275765e+01  2.465332e+01  5.344911e+01
     vertex  6.472806e+01  2.318360e+01  6.000000e+01
     vertex  6.705294e+01  2.655178e+01  6.000000e+01
   endloop
 endfacet
 facet normal -6.224448e-01  7.025950e-01  3.448518e-01
   outer loop
     vertex  6.275765e+01  2.465332e+01  5.344911e+01
     vertex  6.166467e+01  2.046968e+01  6.000000e+01
     vertex  6.472806e+01  2.318360e+01  6.000000e+01
   endloop
 endfacet
 facet normal -8.727664e-01  3.309966e-01  3.587757e-01
   outer loop
     vertex  6.328572e+01  3.007721e+01  4.689821e+01
     vertex  6.137359e+01  3.213601e+01  4.034732e+01
     vertex  6.055013e+01  2.996472e+01  4.034732e+01
   endloop
 endfacet
 facet normal -9.226928e-01  1.724812e-01  3.448017e-01
   outer loop
     vertex  6.328572e+01  3.007721e+01  4.689821e+01
     vertex  6.654952e+01  3.444127e+01  5.344911e+01
     vertex  6.410151e+01  3.444127e+01  4.689821e+01
   endloop
 endfacet
 facet normal -9.293221e-01  1.737204e-01  3.258552e-01
   outer loop
     vertex  6.328572e+01  3.007721e+01  4.689821e+01
     vertex  6.410151e+01  3.444127e+01  4.689821e+01
     vertex  6.137359e+01  3.213601e+01  4.034732e+01
   endloop
 endfacet
 facet normal -9.226928e-01  1.724812e-01  3.448017e-01
   outer loop
     vertex  6.328572e+01  3.007721e+01  4.689821e+01
     vertex  6.556842e+01  2.919288e+01  5.344911e+01
     vertex  6.654952e+01  3.444127e+01  5.344911e+01
   endloop
 endfacet
 facet normal -4.379043e-01  8.343570e-01  3.347957e-01
   outer loop
     vertex  5.849679e+01  2.143567e+01  5.344911e+01
     vertex  5.804081e+01  1.856773e+01  6.000000e+01
     vertex  6.166467e+01  2.046968e+01  6.000000e+01
   endloop
 endfacet
 facet normal -5.577654e-01  7.386008e-01  3.786378e-01
   outer loop
     vertex  5.849679e+01  2.143567e+01  5.344911e+01
     vertex  6.166467e+01  2.046968e+01  6.000000e+01
     vertex  6.275765e+01  2.465332e+01  5.344911e+01
   endloop
 endfacet
 facet normal -7.724415e-01  5.331778e-01  3.450443e-01
   outer loop
     vertex  6.094855e+01  2.630253e+01  4.689821e+01
     vertex  6.055013e+01  2.996472e+01  4.034732e+01
     vertex  5.923097e+01  2.805359e+01  4.034732e+01
   endloop
 endfacet
 facet normal -6.211171e-01  7.010963e-01  3.502535e-01
   outer loop
     vertex  6.094855e+01  2.630253e+01  4.689821e+01
     vertex  5.923097e+01  2.805359e+01  4.034732e+01
     vertex  5.749279e+01  2.651369e+01  4.034732e+01
   endloop
 endfacet
 facet normal -5.656784e-01  7.490793e-01  3.448017e-01
   outer loop
     vertex  6.094855e+01  2.630253e+01  4.689821e+01
     vertex  5.849679e+01  2.143567e+01  5.344911e+01
     vertex  6.275765e+01  2.465332e+01  5.344911e+01
   endloop
 endfacet
 facet normal -7.980780e-01  4.941490e-01  3.448017e-01
   outer loop
     vertex  6.094855e+01  2.630253e+01  4.689821e+01
     vertex  6.275765e+01  2.465332e+01  5.344911e+01
     vertex  6.556842e+01  2.919288e+01  5.344911e+01
   endloop
 endfacet
 facet normal -7.980780e-01  4.941490e-01  3.448017e-01
   outer loop
     vertex  6.094855e+01  2.630253e+01  4.689821e+01
     vertex  6.556842e+01  2.919288e+01  5.344911e+01
     vertex  6.328572e+01  3.007721e+01  4.689821e+01
   endloop
 endfacet
 facet normal -8.034807e-01  4.974942e-01  3.269836e-01
   outer loop
     vertex  6.094855e+01  2.630253e+01  4.689821e+01
     vertex  6.328572e+01  3.007721e+01  4.689821e+01
     vertex  6.055013e+01  2.996472e+01  4.034732e+01
   endloop
 endfacet
 facet normal -2.237488e-01  9.077846e-01  3.547725e-01
   outer loop
     vertex  5.336132e+01  1.997450e+01  5.344911e+01
     vertex  5.406709e+01  1.758830e+01  6.000000e+01
     vertex  5.804081e+01  1.856773e+01  6.000000e+01
   endloop
 endfacet
 facet normal  0.000000e+00  9.396062e-01  3.422576e-01
   outer loop
     vertex  5.336132e+01  1.997450e+01  5.344911e+01
     vertex  4.997445e+01  1.758830e+01  6.000000e+01
     vertex  5.406709e+01  1.758830e+01  6.000000e+01
   endloop
 endfacet
 facet normal -2.539113e-01  8.924058e-01  3.730160e-01
   outer loop
     vertex  5.336132e+01  1.997450e+01  5.344911e+01
     vertex  5.804081e+01  1.856773e+01  6.000000e+01
     vertex  5.849679e+01  2.143567e+01  5.344911e+01
   endloop
 endfacet
 facet normal -4.338378e-01  8.266088e-01  3.584726e-01
   outer loop
     vertex  5.740562e+01  2.362704e+01  4.689821e+01
     vertex  5.749279e+01  2.651369e+01  4.034732e+01
     vertex  5.543659e+01  2.543451e+01  4.034732e+01
   endloop
 endfacet
 facet normal -5.699249e-01  7.547026e-01  3.249763e-01
   outer loop
     vertex  5.740562e+01  2.362704e+01  4.689821e+01
     vertex  6.094855e+01  2.630253e+01  4.689821e+01
     vertex  5.749279e+01  2.651369e+01  4.034732e+01
   endloop
 endfacet
 facet normal -5.656784e-01  7.490793e-01  3.448017e-01
   outer loop
     vertex  5.740562e+01  2.362704e+01  4.689821e+01
     vertex  5.849679e+01  2.143567e+01  5.344911e+01
     vertex  6.094855e+01  2.630253e+01  4.689821e+01
   endloop
 endfacet
 facet normal  2.254411e-01  9.146506e-01  3.355452e-01
   outer loop
     vertex  4.804479e+01  2.046715e+01  5.344911e+01
     vertex  4.600073e+01  1.856773e+01  6.000000e+01
     vertex  4.997445e+01  1.758830e+01  6.000000e+01
   endloop
 endfacet
 facet normal  8.535930e-02  9.211736e-01  3.796748e-01
   outer loop
     vertex  4.804479e+01  2.046715e+01  5.344911e+01
     vertex  4.997445e+01  1.758830e+01  6.000000e+01
     vertex  5.336132e+01  1.997450e+01  5.344911e+01
   endloop
 endfacet
 facet normal -2.248877e-01  9.124053e-01  3.419679e-01
   outer loop
     vertex  5.313544e+01  2.241207e+01  4.689821e+01
     vertex  5.543659e+01  2.543451e+01  4.034732e+01
     vertex  5.318187e+01  2.487878e+01  4.034732e+01
   endloop
 endfacet
 facet normal  0.000000e+00  9.358529e-01  3.523908e-01
   outer loop
     vertex  5.313544e+01  2.241207e+01  4.689821e+01
     vertex  5.318187e+01  2.487878e+01  4.034732e+01
     vertex  5.085968e+01  2.487878e+01  4.034732e+01
   endloop
 endfacet
 facet normal -2.568808e-01  9.028422e-01  3.448017e-01
   outer loop
     vertex  5.313544e+01  2.241207e+01  4.689821e+01
     vertex  5.336132e+01  1.997450e+01  5.344911e+01
     vertex  5.849679e+01  2.143567e+01  5.344911e+01
   endloop
 endfacet
 facet normal -2.584891e-01  9.084948e-01  3.283605e-01
   outer loop
     vertex  5.313544e+01  2.241207e+01  4.689821e+01
     vertex  5.740562e+01  2.362704e+01  4.689821e+01
     vertex  5.543659e+01  2.543451e+01  4.034732e+01
   endloop
 endfacet
 facet normal -2.568808e-01  9.028422e-01  3.448017e-01
   outer loop
     vertex  5.313544e+01  2.241207e+01  4.689821e+01
     vertex  5.849679e+01  2.143567e+01  5.344911e+01
     vertex  5.740562e+01  2.362704e+01  4.689821e+01
   endloop
 endfacet
 facet normal  4.140525e-01  8.315294e-01  3.702963e-01
   outer loop
     vertex  4.326525e+01  2.284708e+01  5.344911e+01
     vertex  4.600073e+01  1.856773e+01  6.000000e+01
     vertex  4.804479e+01  2.046715e+01  5.344911e+01
   endloop
 endfacet
 facet normal  4.337837e-01  8.265058e-01  3.587754e-01
   outer loop
     vertex  4.326525e+01  2.284708e+01  5.344911e+01
     vertex  4.237688e+01  2.046968e+01  6.000000e+01
     vertex  4.600073e+01  1.856773e+01  6.000000e+01
   endloop
 endfacet
 facet normal  6.236110e-01  7.039113e-01  3.400268e-01
   outer loop
     vertex  4.326525e+01  2.284708e+01  5.344911e+01
     vertex  3.931349e+01  2.318360e+01  6.000000e+01
     vertex  4.237688e+01  2.046968e+01  6.000000e+01
   endloop
 endfacet
 facet normal  8.661005e-02  9.346713e-01  3.448017e-01
   outer loop
     vertex  4.871472e+01  2.282171e+01  4.689821e+01
     vertex  5.336132e+01  1.997450e+01  5.344911e+01
     vertex  5.313544e+01  2.241207e+01  4.689821e+01
   endloop
 endfacet
 facet normal  2.234665e-01  9.066392e-01  3.578661e-01
   outer loop
     vertex  4.871472e+01  2.282171e+01  4.689821e+01
     vertex  5.085968e+01  2.487878e+01  4.034732e+01
     vertex  4.860496e+01  2.543451e+01  4.034732e+01
   endloop
 endfacet
 facet normal  4.184037e-01  8.402679e-01  3.448017e-01
   outer loop
     vertex  4.871472e+01  2.282171e+01  4.689821e+01
     vertex  4.326525e+01  2.284708e+01  5.344911e+01
     vertex  4.804479e+01  2.046715e+01  5.344911e+01
   endloop
 endfacet
 facet normal  8.661005e-02  9.346713e-01  3.448017e-01
   outer loop
     vertex  4.871472e+01  2.282171e+01  4.689821e+01
     vertex  4.804479e+01  2.046715e+01  5.344911e+01
     vertex  5.336132e+01  1.997450e+01  5.344911e+01
   endloop
 endfacet
 facet normal  8.728014e-02  9.419027e-01  3.243479e-01
   outer loop
     vertex  4.871472e+01  2.282171e+01  4.689821e+01
     vertex  5.313544e+01  2.241207e+01  4.689821e+01
     vertex  5.085968e+01  2.487878e+01  4.034732e+01
   endloop
 endfacet
 facet normal  7.749409e-01  5.349031e-01  3.366681e-01
   outer loop
     vertex  3.966818e+01  2.679287e+01  5.344911e+01
     vertex  3.698860e+01  2.655178e+01  6.000000e+01
     vertex  3.931349e+01  2.318360e+01  6.000000e+01
   endloop
 endfacet
 facet normal  6.834832e-01  6.230773e-01  3.802965e-01
   outer loop
     vertex  3.966818e+01  2.679287e+01  5.344911e+01
     vertex  3.931349e+01  2.318360e+01  6.000000e+01
     vertex  4.326525e+01  2.284708e+01  5.344911e+01
   endloop
 endfacet
 facet normal  4.184037e-01  8.402679e-01  3.448017e-01
   outer loop
     vertex  4.474050e+01  2.480063e+01  4.689821e+01
     vertex  4.326525e+01  2.284708e+01  5.344911e+01
     vertex  4.871472e+01  2.282171e+01  4.689821e+01
   endloop
 endfacet
 facet normal  4.372766e-01  8.331609e-01  3.385735e-01
   outer loop
     vertex  4.474050e+01  2.480063e+01  4.689821e+01
     vertex  4.860496e+01  2.543451e+01  4.034732e+01
     vertex  4.654876e+01  2.651369e+01  4.034732e+01
   endloop
 endfacet
 facet normal  6.201274e-01  6.999791e-01  3.542192e-01
   outer loop
     vertex  4.474050e+01  2.480063e+01  4.689821e+01
     vertex  4.654876e+01  2.651369e+01  4.034732e+01
     vertex  4.481057e+01  2.805359e+01  4.034732e+01
   endloop
 endfacet
 facet normal  4.207710e-01  8.450220e-01  3.299843e-01
   outer loop
     vertex  4.474050e+01  2.480063e+01  4.689821e+01
     vertex  4.871472e+01  2.282171e+01  4.689821e+01
     vertex  4.860496e+01  2.543451e+01  4.034732e+01
   endloop
 endfacet
 facet normal  8.711956e-01  3.304009e-01  3.631162e-01
   outer loop
     vertex  3.773941e+01  3.177162e+01  5.344911e+01
     vertex  3.553733e+01  3.037847e+01  6.000000e+01
     vertex  3.698860e+01  2.655178e+01  6.000000e+01
   endloop
 endfacet
 facet normal  9.342261e-01  1.134356e-01  3.381627e-01
   outer loop
     vertex  3.773941e+01  3.177162e+01  5.344911e+01
     vertex  3.504402e+01  3.444127e+01  6.000000e+01
     vertex  3.553733e+01  3.037847e+01  6.000000e+01
   endloop
 endfacet
 facet normal  8.673508e-01  3.360135e-01  3.671478e-01
   outer loop
     vertex  3.773941e+01  3.177162e+01  5.344911e+01
     vertex  3.698860e+01  2.655178e+01  6.000000e+01
     vertex  3.966818e+01  2.679287e+01  5.344911e+01
   endloop
 endfacet
 facet normal  6.936896e-01  6.323816e-01  3.448017e-01
   outer loop
     vertex  4.174952e+01  2.808158e+01  4.689821e+01
     vertex  4.326525e+01  2.284708e+01  5.344911e+01
     vertex  4.474050e+01  2.480063e+01  4.689821e+01
   endloop
 endfacet
 facet normal  7.687668e-01  5.306414e-01  3.569556e-01
   outer loop
     vertex  4.174952e+01  2.808158e+01  4.689821e+01
     vertex  4.481057e+01  2.805359e+01  4.034732e+01
     vertex  4.349141e+01  2.996472e+01  4.034732e+01
   endloop
 endfacet
 facet normal  6.936896e-01  6.323816e-01  3.448017e-01
   outer loop
     vertex  4.174952e+01  2.808158e+01  4.689821e+01
     vertex  3.966818e+01  2.679287e+01  5.344911e+01
     vertex  4.326525e+01  2.284708e+01  5.344911e+01
   endloop
 endfacet
 facet normal  6.991521e-01  6.373613e-01  3.239706e-01
   outer loop
     vertex  4.174952e+01  2.808158e+01  4.689821e+01
     vertex  4.474050e+01  2.480063e+01  4.689821e+01
     vertex  4.481057e+01  2.805359e+01  4.034732e+01
   endloop
 endfacet
 facet normal  9.342261e-01 -1.134356e-01  3.381627e-01
   outer loop
     vertex  3.773941e+01  3.711092e+01  5.344911e+01
     vertex  3.553733e+01  3.850407e+01  6.000000e+01
     vertex  3.504402e+01  3.444127e+01  6.000000e+01
   endloop
 endfacet
 facet normal  8.711956e-01 -3.304009e-01  3.631162e-01
   outer loop
     vertex  3.773941e+01  3.711092e+01  5.344911e+01
     vertex  3.698860e+01  4.233076e+01  6.000000e+01
     vertex  3.553733e+01  3.850407e+01  6.000000e+01
   endloop
 endfacet
 facet normal  9.247794e-01  1.230677e-15  3.805036e-01
   outer loop
     vertex  3.773941e+01  3.711092e+01  5.344911e+01
     vertex  3.504402e+01  3.444127e+01  6.000000e+01
     vertex  3.773941e+01  3.177162e+01  5.344911e+01
   endloop
 endfacet
 facet normal  8.810363e-01  3.341330e-01  3.348583e-01
   outer loop
     vertex  4.014573e+01  3.222144e+01  4.689821e+01
     vertex  4.349141e+01  2.996472e+01  4.034732e+01
     vertex  4.266795e+01  3.213601e+01  4.034732e+01
   endloop
 endfacet
 facet normal  9.277707e-01  1.126518e-01  3.557404e-01
   outer loop
     vertex  4.014573e+01  3.222144e+01  4.689821e+01
     vertex  4.266795e+01  3.213601e+01  4.034732e+01
     vertex  4.238804e+01  3.444127e+01  4.034732e+01
   endloop
 endfacet
 facet normal  8.752889e-01  3.390887e-01  3.448017e-01
   outer loop
     vertex  4.014573e+01  3.222144e+01  4.689821e+01
     vertex  3.966818e+01  2.679287e+01  5.344911e+01
     vertex  4.174952e+01  2.808158e+01  4.689821e+01
   endloop
 endfacet
 facet normal  8.796299e-01  3.407704e-01  3.318535e-01
   outer loop
     vertex  4.014573e+01  3.222144e+01  4.689821e+01
     vertex  4.174952e+01  2.808158e+01  4.689821e+01
     vertex  4.349141e+01  2.996472e+01  4.034732e+01
   endloop
 endfacet
 facet normal  8.752889e-01  3.390887e-01  3.448017e-01
   outer loop
     vertex  4.014573e+01  3.222144e+01  4.689821e+01
     vertex  3.773941e+01  3.177162e+01  5.344911e+01
     vertex  3.966818e+01  2.679287e+01  5.344911e+01
   endloop
 endfacet
 facet normal  8.673508e-01 -3.360135e-01  3.671478e-01
   outer loop
     vertex  3.966818e+01  4.208967e+01  5.344911e+01
     vertex  3.698860e+01  4.233076e+01  6.000000e+01
     vertex  3.773941e+01  3.711092e+01  5.344911e+01
   endloop
 endfacet
 facet normal  7.749409e-01 -5.349031e-01  3.366681e-01
   outer loop
     vertex  3.966818e+01  4.208967e+01  5.344911e+01
     vertex  3.931349e+01  4.569894e+01  6.000000e+01
     vertex  3.698860e+01  4.233076e+01  6.000000e+01
   endloop
 endfacet
 facet normal  9.277707e-01 -1.126518e-01  3.557404e-01
   outer loop
     vertex  4.014573e+01  3.666110e+01  4.689821e+01
     vertex  4.238804e+01  3.444127e+01  4.034732e+01
     vertex  4.266795e+01  3.674653e+01  4.034732e+01
   endloop
 endfacet
 facet normal  8.810363e-01 -3.341330e-01  3.348583e-01
   outer loop
     vertex  4.014573e+01  3.666110e+01  4.689821e+01
     vertex  4.266795e+01  3.674653e+01  4.034732e+01
     vertex  4.349141e+01  3.891782e+01  4.034732e+01
   endloop
 endfacet
 facet normal  9.386756e-01  1.239465e-15  3.448017e-01
   outer loop
     vertex  4.014573e+01  3.666110e+01  4.689821e+01
     vertex  3.773941e+01  3.711092e+01  5.344911e+01
     vertex  3.773941e+01  3.177162e+01  5.344911e+01
   endloop
 endfacet
 facet normal  9.386756e-01  0.000000e+00  3.448017e-01
   outer loop
     vertex  4.014573e+01  3.666110e+01  4.689821e+01
     vertex  3.773941e+01  3.177162e+01  5.344911e+01
     vertex  4.014573e+01  3.222144e+01  4.689821e+01
   endloop
 endfacet
 facet normal  8.752889e-01 -3.390887e-01  3.448017e-01
   outer loop
     vertex  4.014573e+01  3.666110e+01  4.689821e+01
     vertex  3.966818e+01  4.208967e+01  5.344911e+01
     vertex  3.773941e+01  3.711092e+01  5.344911e+01
   endloop
 endfacet
 facet normal  9.461102e-01  0.000000e+00  3.238448e-01
   outer loop
     vertex  4.014573e+01  3.666110e+01  4.689821e+01
     vertex  4.014573e+01  3.222144e+01  4.689821e+01
     vertex  4.238804e+01  3.444127e+01  4.034732e+01
   endloop
 endfacet
 facet normal  6.236110e-01 -7.039113e-01  3.400268e-01
   outer loop
     vertex  4.326525e+01  4.603546e+01  5.344911e+01
     vertex  4.237688e+01  4.841286e+01  6.000000e+01
     vertex  3.931349e+01  4.569894e+01  6.000000e+01
   endloop
 endfacet
 facet normal  4.337837e-01 -8.265058e-01  3.587754e-01
   outer loop
     vertex  4.326525e+01  4.603546e+01  5.344911e+01
     vertex  4.600073e+01  5.031481e+01  6.000000e+01
     vertex  4.237688e+01  4.841286e+01  6.000000e+01
   endloop
 endfacet
 facet normal  6.834832e-01 -6.230773e-01  3.802965e-01
   outer loop
     vertex  4.326525e+01  4.603546e+01  5.344911e+01
     vertex  3.931349e+01  4.569894e+01  6.000000e+01
     vertex  3.966818e+01  4.208967e+01  5.344911e+01
   endloop
 endfacet
 facet normal  7.687668e-01 -5.306414e-01  3.569556e-01
   outer loop
     vertex  4.174952e+01  4.080096e+01  4.689821e+01
     vertex  4.349141e+01  3.891782e+01  4.034732e+01
     vertex  4.481057e+01  4.082895e+01  4.034732e+01
   endloop
 endfacet
 facet normal  8.796299e-01 -3.407704e-01  3.318535e-01
   outer loop
     vertex  4.174952e+01  4.080096e+01  4.689821e+01
     vertex  4.014573e+01  3.666110e+01  4.689821e+01
     vertex  4.349141e+01  3.891782e+01  4.034732e+01
   endloop
 endfacet
 facet normal  8.752889e-01 -3.390887e-01  3.448017e-01
   outer loop
     vertex  4.174952e+01  4.080096e+01  4.689821e+01
     vertex  3.966818e+01  4.208967e+01  5.344911e+01
     vertex  4.014573e+01  3.666110e+01  4.689821e+01
   endloop
 endfacet
 facet normal  4.140525e-01 -8.315294e-01  3.702963e-01
   outer loop
     vertex  4.804479e+01  4.841539e+01  5.344911e+01
     vertex  4.600073e+01  5.031481e+01  6.000000e+01
     vertex  4.326525e+01  4.603546e+01  5.344911e+01
   endloop
 endfacet
 facet normal  2.254411e-01 -9.146506e-01  3.355452e-01
   outer loop
     vertex  4.804479e+01  4.841539e+01  5.344911e+01
     vertex  4.997445e+01  5.129424e+01  6.000000e+01
     vertex  4.600073e+01  5.031481e+01  6.000000e+01
   endloop
 endfacet
 facet normal  6.201274e-01 -6.999791e-01  3.542192e-01
   outer loop
     vertex  4.474050e+01  4.408191e+01  4.689821e+01
     vertex  4.481057e+01  4.082895e+01  4.034732e+01
     vertex  4.654876e+01  4.236885e+01  4.034732e+01
   endloop
 endfacet
 facet normal  4.372766e-01 -8.331609e-01  3.385735e-01
   outer loop
     vertex  4.474050e+01  4.408191e+01  4.689821e+01
     vertex  4.654876e+01  4.236885e+01  4.034732e+01
     vertex  4.860496e+01  4.344803e+01  4.034732e+01
   endloop
 endfacet
 facet normal  6.991521e-01 -6.373613e-01  3.239706e-01
   outer loop
     vertex  4.474050e+01  4.408191e+01  4.689821e+01
     vertex  4.174952e+01  4.080096e+01  4.689821e+01
     vertex  4.481057e+01  4.082895e+01  4.034732e+01
   endloop
 endfacet
 facet normal  6.936896e-01 -6.323816e-01  3.448017e-01
   outer loop
     vertex  4.474050e+01  4.408191e+01  4.689821e+01
     vertex  4.326525e+01  4.603546e+01  5.344911e+01
     vertex  3.966818e+01  4.208967e+01  5.344911e+01
   endloop
 endfacet
 facet normal  6.936896e-01 -6.323816e-01  3.448017e-01
   outer loop
     vertex  4.474050e+01  4.408191e+01  4.689821e+01
     vertex  3.966818e+01  4.208967e+01  5.344911e+01
     vertex  4.174952e+01  4.080096e+01  4.689821e+01
   endloop
 endfacet
 facet normal  1.680875e-15 -9.396062e-01  3.422576e-01
   outer loop
     vertex  5.336132e+01  4.890804e+01  5.344911e+01
     vertex  5.406709e+01  5.129424e+01  6.000000e+01
     vertex  4.997445e+01  5.129424e+01  6.000000e+01
   endloop
 endfacet
 facet normal -2.237488e-01 -9.077846e-01  3.547725e-01
   outer loop
     vertex  5.336132e+01  4.890804e+01  5.344911e+01
     vertex  5.804081e+01  5.031481e+01  6.000000e+01
     vertex  5.406709e+01  5.129424e+01  6.000000e+01
   endloop
 endfacet
 facet normal  8.535930e-02 -9.211736e-01  3.796748e-01
   outer loop
     vertex  5.336132e+01  4.890804e+01  5.344911e+01
     vertex  4.997445e+01  5.129424e+01  6.000000e+01
     vertex  4.804479e+01  4.841539e+01  5.344911e+01
   endloop
 endfacet
 facet normal  2.234665e-01 -9.066392e-01  3.578661e-01
   outer loop
     vertex  4.871472e+01  4.606083e+01  4.689821e+01
     vertex  4.860496e+01  4.344803e+01  4.034732e+01
     vertex  5.085968e+01  4.400377e+01  4.034732e+01
   endloop
 endfacet
 facet normal  8.661005e-02 -9.346713e-01  3.448017e-01
   outer loop
     vertex  4.871472e+01  4.606083e+01  4.689821e+01
     vertex  5.336132e+01  4.890804e+01  5.344911e+01
     vertex  4.804479e+01  4.841539e+01  5.344911e+01
   endloop
 endfacet
 facet normal  4.184037e-01 -8.402679e-01  3.448017e-01
   outer loop
     vertex  4.871472e+01  4.606083e+01  4.689821e+01
     vertex  4.804479e+01  4.841539e+01  5.344911e+01
     vertex  4.326525e+01  4.603546e+01  5.344911e+01
   endloop
 endfacet
 facet normal  4.207710e-01 -8.450220e-01  3.299843e-01
   outer loop
     vertex  4.871472e+01  4.606083e+01  4.689821e+01
     vertex  4.474050e+01  4.408191e+01  4.689821e+01
     vertex  4.860496e+01  4.344803e+01  4.034732e+01
   endloop
 endfacet
 facet normal  4.184037e-01 -8.402679e-01  3.448017e-01
   outer loop
     vertex  4.871472e+01  4.606083e+01  4.689821e+01
     vertex  4.326525e+01  4.603546e+01  5.344911e+01
     vertex  4.474050e+01  4.408191e+01  4.689821e+01
   endloop
 endfacet
 facet normal -4.379043e-01 -8.343570e-01  3.347957e-01
   outer loop
     vertex  5.849679e+01  4.744687e+01  5.344911e+01
     vertex  6.166467e+01  4.841286e+01  6.000000e+01
     vertex  5.804081e+01  5.031481e+01  6.000000e+01
   endloop
 endfacet
 facet normal -2.539113e-01 -8.924058e-01  3.730160e-01
   outer loop
     vertex  5.849679e+01  4.744687e+01  5.344911e+01
     vertex  5.804081e+01  5.031481e+01  6.000000e+01
     vertex  5.336132e+01  4.890804e+01  5.344911e+01
   endloop
 endfacet
 facet normal  3.059826e-15 -9.358529e-01  3.523908e-01
   outer loop
     vertex  5.313544e+01  4.647047e+01  4.689821e+01
     vertex  5.085968e+01  4.400377e+01  4.034732e+01
     vertex  5.318187e+01  4.400377e+01  4.034732e+01
   endloop
 endfacet
 facet normal -2.248877e-01 -9.124053e-01  3.419679e-01
   outer loop
     vertex  5.313544e+01  4.647047e+01  4.689821e+01
     vertex  5.318187e+01  4.400377e+01  4.034732e+01
     vertex  5.543659e+01  4.344803e+01  4.034732e+01
   endloop
 endfacet
 facet normal  8.661005e-02 -9.346713e-01  3.448017e-01
   outer loop
     vertex  5.313544e+01  4.647047e+01  4.689821e+01
     vertex  5.336132e+01  4.890804e+01  5.344911e+01
     vertex  4.871472e+01  4.606083e+01  4.689821e+01
   endloop
 endfacet
 facet normal  8.728014e-02 -9.419027e-01  3.243479e-01
   outer loop
     vertex  5.313544e+01  4.647047e+01  4.689821e+01
     vertex  4.871472e+01  4.606083e+01  4.689821e+01
     vertex  5.085968e+01  4.400377e+01  4.034732e+01
   endloop
 endfacet
 facet normal -5.577654e-01 -7.386008e-01  3.786378e-01
   outer loop
     vertex  6.275765e+01  4.422922e+01  5.344911e+01
     vertex  6.166467e+01  4.841286e+01  6.000000e+01
     vertex  5.849679e+01  4.744687e+01  5.344911e+01
   endloop
 endfacet
 facet normal -6.224448e-01 -7.025950e-01  3.448518e-01
   outer loop
     vertex  6.275765e+01  4.422922e+01  5.344911e+01
     vertex  6.472806e+01  4.569894e+01  6.000000e+01
     vertex  6.166467e+01  4.841286e+01  6.000000e+01
   endloop
 endfacet
 facet normal -7.705867e-01 -5.318976e-01  3.511140e-01
   outer loop
     vertex  6.275765e+01  4.422922e+01  5.344911e+01
     vertex  6.705294e+01  4.233076e+01  6.000000e+01
     vertex  6.472806e+01  4.569894e+01  6.000000e+01
   endloop
 endfacet
 facet normal -4.338378e-01 -8.266088e-01  3.584726e-01
   outer loop
     vertex  5.740562e+01  4.525550e+01  4.689821e+01
     vertex  5.543659e+01  4.344803e+01  4.034732e+01
     vertex  5.749279e+01  4.236885e+01  4.034732e+01
   endloop
 endfacet
 facet normal -2.584891e-01 -9.084948e-01  3.283605e-01
   outer loop
     vertex  5.740562e+01  4.525550e+01  4.689821e+01
     vertex  5.313544e+01  4.647047e+01  4.689821e+01
     vertex  5.543659e+01  4.344803e+01  4.034732e+01
   endloop
 endfacet
 facet normal -2.568808e-01 -9.028422e-01  3.448017e-01
   outer loop
     vertex  5.740562e+01  4.525550e+01  4.689821e+01
     vertex  5.849679e+01  4.744687e+01  5.344911e+01
     vertex  5.336132e+01  4.890804e+01  5.344911e+01
   endloop
 endfacet
 facet normal -2.568808e-01 -9.028422e-01  3.448017e-01
   outer loop
     vertex  5.740562e+01  4.525550e+01  4.689821e+01
     vertex  5.336132e+01  4.890804e+01  5.344911e+01
     vertex  5.313544e+01  4.647047e+01  4.689821e+01
   endloop
 endfacet
 facet normal -8.811817e-01 -3.341881e-01  3.344206e-01
   outer loop
     vertex  6.556842e+01  3.968966e+01  5.344911e+01
     vertex  6.850421e+01  3.850407e+01  6.000000e+01
     vertex  6.705294e+01  4.233076e+01  6.000000e+01
   endloop
 endfacet
 facet normal -9.103692e-01 -1.701775e-01  3.771838e-01
   outer loop
     vertex  6.556842e+01  3.968966e+01  5.344911e+01
     vertex  6.654952e+01  3.444127e+01  5.344911e+01
     vertex  6.850421e+01  3.850407e+01  6.000000e+01
   endloop
 endfacet
 facet normal -7.880655e-01 -4.879495e-01  3.753107e-01
   outer loop
     vertex  6.556842e+01  3.968966e+01  5.344911e+01
     vertex  6.705294e+01  4.233076e+01  6.000000e+01
     vertex  6.275765e+01  4.422922e+01  5.344911e+01
   endloop
 endfacet
 facet normal -6.211171e-01 -7.010963e-01  3.502535e-01
   outer loop
     vertex  6.094855e+01  4.258001e+01  4.689821e+01
     vertex  5.749279e+01  4.236885e+01  4.034732e+01
     vertex  5.923097e+01  4.082895e+01  4.034732e+01
   endloop
 endfacet
 facet normal -7.724415e-01 -5.331778e-01  3.450443e-01
   outer loop
     vertex  6.094855e+01  4.258001e+01  4.689821e+01
     vertex  5.923097e+01  4.082895e+01  4.034732e+01
     vertex  6.055013e+01  3.891782e+01  4.034732e+01
   endloop
 endfacet
 facet normal -5.656784e-01 -7.490793e-01  3.448017e-01
   outer loop
     vertex  6.094855e+01  4.258001e+01  4.689821e+01
     vertex  5.849679e+01  4.744687e+01  5.344911e+01
     vertex  5.740562e+01  4.525550e+01  4.689821e+01
   endloop
 endfacet
 facet normal -5.656784e-01 -7.490793e-01  3.448017e-01
   outer loop
     vertex  6.094855e+01  4.258001e+01  4.689821e+01
     vertex  6.275765e+01  4.422922e+01  5.344911e+01
     vertex  5.849679e+01  4.744687e+01  5.344911e+01
   endloop
 endfacet
 facet normal -5.699249e-01 -7.547026e-01  3.249763e-01
   outer loop
     vertex  6.094855e+01  4.258001e+01  4.689821e+01
     vertex  5.740562e+01  4.525550e+01  4.689821e+01
     vertex  5.749279e+01  4.236885e+01  4.034732e+01
   endloop
 endfacet
 facet normal -7.980780e-01 -4.941490e-01  3.448017e-01
   outer loop
     vertex  6.328572e+01  3.880534e+01  4.689821e+01
     vertex  6.556842e+01  3.968966e+01  5.344911e+01
     vertex  6.275765e+01  4.422922e+01  5.344911e+01
   endloop
 endfacet
 facet normal -8.727664e-01 -3.309966e-01  3.587757e-01
   outer loop
     vertex  6.328572e+01  3.880534e+01  4.689821e+01
     vertex  6.055013e+01  3.891782e+01  4.034732e+01
     vertex  6.137359e+01  3.674653e+01  4.034732e+01
   endloop
 endfacet
 facet normal -9.226928e-01 -1.724812e-01  3.448017e-01
   outer loop
     vertex  6.328572e+01  3.880534e+01  4.689821e+01
     vertex  6.654952e+01  3.444127e+01  5.344911e+01
     vertex  6.556842e+01  3.968966e+01  5.344911e+01
   endloop
 endfacet
 facet normal -9.226928e-01 -1.724812e-01  3.448017e-01
   outer loop
     vertex  6.328572e+01  3.880534e+01  4.689821e+01
     vertex  6.410151e+01  3.444127e+01  4.689821e+01
     vertex  6.654952e+01  3.444127e+01  5.344911e+01
   endloop
 endfacet
 facet normal -9.293221e-01 -1.737204e-01  3.258552e-01
   outer loop
     vertex  6.328572e+01  3.880534e+01  4.689821e+01
     vertex  6.137359e+01  3.674653e+01  4.034732e+01
     vertex  6.410151e+01  3.444127e+01  4.689821e+01
   endloop
 endfacet
 facet normal -7.980780e-01 -4.941490e-01  3.448017e-01
   outer loop
     vertex  6.328572e+01  3.880534e+01  4.689821e+01
     vertex  6.275765e+01  4.422922e+01  5.344911e+01
     vertex  6.094855e+01  4.258001e+01  4.689821e+01
   endloop
 endfacet
 facet normal -8.034807e-01 -4.974942e-01  3.269836e-01
   outer loop
     vertex  6.328572e+01  3.880534e+01  4.689821e+01
     vertex  6.094855e+01  4.258001e+01  4.689821e+01
     vertex  6.055013e+01  3.891782e+01  4.034732e+01
   endloop
 endfacet
 facet normal  0.000000e+00  0.000000e+00  1.000000e+00
   outer loop
     vertex  4.860496e+01  4.344803e+01  4.034732e+01
     vertex  4.481057e+01  4.082895e+01  4.034732e+01
     vertex  4.349141e+01  3.891782e+01  4.034732e+01
   endloop
 endfacet
 facet normal  0.000000e+00  0.000000e+00  1.000000e+00
   outer loop
     vertex  4.860496e+01  4.344803e+01  4.034732e+01
     vertex  4.654876e+01  4.236885e+01  4.034732e+01
     vertex  4.481057e+01  4.082895e+01  4.034732e+01
   endloop
 endfacet
 facet normal  0.000000e+00  0.000000e+00  1.000000e+00
   outer loop
     vertex  4.238804e+01  3.444127e+01  4.034732e+01
     vertex  4.349141e+01  3.891782e+01  4.034732e+01
     vertex  4.266795e+01  3.674653e+01  4.034732e+01
   endloop
 endfacet
 facet normal  0.000000e+00  0.000000e+00  1.000000e+00
   outer loop
     vertex  4.238804e+01  3.444127e+01  4.034732e+01
     vertex  4.860496e+01  4.344803e+01  4.034732e+01
     vertex  4.349141e+01  3.891782e+01  4.034732e+01
   endloop
 endfacet
 facet normal  0.000000e+00  0.000000e+00  1.000000e+00
   outer loop
     vertex  5.318187e+01  4.400377e+01  4.034732e+01
     vertex  5.085968e+01  4.400377e+01  4.034732e+01
     vertex  4.860496e+01  4.344803e+01  4.034732e+01
   endloop
 endfacet
 facet normal  0.000000e+00  0.000000e+00  1.000000e+00
   outer loop
     vertex  5.543659e+01  4.344803e+01  4.034732e+01
     vertex  5.318187e+01  4.400377e+01  4.034732e+01
     vertex  4.860496e+01  4.344803e+01  4.034732e+01
   endloop
 endfacet
 facet normal  0.000000e+00  0.000000e+00  1.000000e+00
   outer loop
     vertex  4.349141e+01  2.996472e+01  4.034732e+01
     vertex  4.238804e+01  3.444127e+01  4.034732e+01
     vertex  4.266795e+01  3.213601e+01  4.034732e+01
   endloop
 endfacet
 facet normal  0.000000e+00  0.000000e+00  1.000000e+00
   outer loop
     vertex  5.749279e+01  4.236885e+01  4.034732e+01
     vertex  4.860496e+01  4.344803e+01  4.034732e+01
     vertex  4.238804e+01  3.444127e+01  4.034732e+01
   endloop
 endfacet
 facet normal  0.000000e+00  0.000000e+00  1.000000e+00
   outer loop
     vertex  5.749279e+01  4.236885e+01  4.034732e+01
     vertex  5.543659e+01  4.344803e+01  4.034732e+01
     vertex  4.860496e+01  4.344803e+01  4.034732e+01
   endloop
 endfacet
 facet normal  0.000000e+00  0.000000e+00  1.000000e+00
   outer loop
     vertex  5.923097e+01  4.082895e+01  4.034732e+01
     vertex  5.749279e+01  4.236885e+01  4.034732e+01
     vertex  4.238804e+01  3.444127e+01  4.034732e+01
   endloop
 endfacet
 facet normal  0.000000e+00  0.000000e+00  1.000000e+00
   outer loop
     vertex  4.860496e+01  2.543451e+01  4.034732e+01
     vertex  4.481057e+01  2.805359e+01  4.034732e+01
     vertex  4.654876e+01  2.651369e+01  4.034732e+01
   endloop
 endfacet
 facet normal  0.000000e+00  0.000000e+00  1.000000e+00
   outer loop
     vertex  4.860496e+01  2.543451e+01  4.034732e+01
     vertex  4.349141e+01  2.996472e+01  4.034732e+01
     vertex  4.481057e+01  2.805359e+01  4.034732e+01
   endloop
 endfacet
 facet normal  0.000000e+00  0.000000e+00  1.000000e+00
   outer loop
     vertex  4.860496e+01  2.543451e+01  4.034732e+01
     vertex  4.238804e+01  3.444127e+01  4.034732e+01
     vertex  4.349141e+01  2.996472e+01  4.034732e+01
   endloop
 endfacet
 facet normal  0.000000e+00  0.000000e+00  1.000000e+00
   outer loop
     vertex  6.137359e+01  3.674653e+01  4.034732e+01
     vertex  6.055013e+01  3.891782e+01  4.034732e+01
     vertex  5.923097e+01  4.082895e+01  4.034732e+01
   endloop
 endfacet
 facet normal  0.000000e+00  0.000000e+00  1.000000e+00
   outer loop
     vertex  5.318187e+01  2.487878e+01  4.034732e+01
     vertex  4.860496e+01  2.543451e+01  4.034732e+01
     vertex  5.085968e+01  2.487878e+01  4.034732e+01
   endloop
 endfacet
 facet normal  0.000000e+00 -0.000000e+00  1.000000e+00
   outer loop
     vertex  5.543659e+01  2.543451e+01  4.034732e+01
     vertex  5.923097e+01  4.082895e+01  4.034732e+01
     vertex  4.238804e+01  3.444127e+01  4.034732e+01
   endloop
 endfacet
 facet normal  0.000000e+00  0.000000e+00  1.000000e+00
   outer loop
     vertex  5.543659e+01  2.543451e+01  4.034732e+01
     vertex  6.137359e+01  3.674653e+01  4.034732e+01
     vertex  5.923097e+01  4.082895e+01  4.034732e+01
   endloop
 endfacet
 facet normal  0.000000e+00  0.000000e+00  1.000000e+00
   outer loop
     vertex  5.543659e+01  2.543451e+01  4.034732e+01
     vertex  4.238804e+01  3.444127e+01  4.034732e+01
     vertex  4.860496e+01  2.543451e+01  4.034732e+01
   endloop
 endfacet
 facet normal  0.000000e+00  0.000000e+00  1.000000e+00
   outer loop
     vertex  5.543659e+01  2.543451e+01  4.034732e+01
     vertex  4.860496e+01  2.543451e+01  4.034732e+01
     vertex  5.318187e+01  2.487878e+01  4.034732e+01
   endloop
 endfacet
 facet normal  0.000000e+00  0.000000e+00  1.000000e+00
   outer loop
     vertex  5.923097e+01  2.805359e+01  4.034732e+01
     vertex  6.137359e+01  3.213601e+01  4.034732e+01
     vertex  6.165350e+01  3.444127e+01  4.034732e+01
   endloop
 endfacet
 facet normal  0.000000e+00  0.000000e+00  1.000000e+00
   outer loop
     vertex  5.923097e+01  2.805359e+01  4.034732e+01
     vertex  6.055013e+01  2.996472e+01  4.034732e+01
     vertex  6.137359e+01  3.213601e+01  4.034732e+01
   endloop
 endfacet
 facet normal  0.000000e+00  0.000000e+00  1.000000e+00
   outer loop
     vertex  5.923097e+01  2.805359e+01  4.034732e+01
     vertex  5.543659e+01  2.543451e+01  4.034732e+01
     vertex  5.749279e+01  2.651369e+01  4.034732e+01
   endloop
 endfacet
 facet normal  0.000000e+00  0.000000e+00  1.000000e+00
   outer loop
     vertex  5.923097e+01  2.805359e+01  4.034732e+01
     vertex  6.165350e+01  3.444127e+01  4.034732e+01
     vertex  6.137359e+01  3.674653e+01  4.034732e+01
   endloop
 endfacet
 facet normal  0.000000e+00 -0.000000e+00  1.000000e+00
   outer loop
     vertex  5.923097e+01  2.805359e+01  4.034732e+01
     vertex  6.137359e+01  3.674653e+01  4.034732e+01
     vertex  5.543659e+01  2.543451e+01  4.034732e+01
   endloop
 endfacet
endsolid
