solid 
 facet normal -1.000000e+00  0.000000e+00  0.000000e+00
   outer loop
     vertex  0.000000e+00  0.000000e+00  6.000000e+01
     vertex  0.000000e+00  8.211553e+01  0.000000e+00
     vertex  0.000000e+00  0.000000e+00  0.000000e+00
   endloop
 endfacet
 facet normal -1.000000e+00  0.000000e+00  0.000000e+00
   outer loop
     vertex  0.000000e+00  0.000000e+00  6.000000e+01
     vertex  0.000000e+00  8.211553e+01  6.000000e+01
     vertex  0.000000e+00  8.211553e+01  0.000000e+00
   endloop
 endfacet
 facet normal  0.000000e+00 -1.000000e+00 -0.000000e+00
   outer loop
     vertex  1.427603e+02  0.000000e+00  6.000000e+01
     vertex  0.000000e+00  0.000000e+00  0.000000e+00
     vertex  1.427603e+02  0.000000e+00  0.000000e+00
   endloop
 endfacet
 facet normal -0.000000e+00 -1.000000e+00  0.000000e+00
   outer loop
     vertex  1.427603e+02  0.000000e+00  6.000000e+01
     vertex  0.000000e+00  0.000000e+00  6.000000e+01
     vertex  0.000000e+00  0.000000e+00  0.000000e+00
   endloop
 endfacet
 facet normal  0.000000e+00  0.000000e+00  1.000000e+00
   outer loop
     vertex  7.720605e+01  3.950058e+01  6.000000e+01
     vertex  7.415031e+01  4.220773e+01  6.000000e+01
     vertex  0.000000e+00  0.000000e+00  6.000000e+01
   endloop
 endfacet
 facet normal  0.000000e+00  0.000000e+00  1.000000e+00
   outer loop
     vertex  7.183123e+01  4.556750e+01  6.000000e+01
     vertex  0.000000e+00  0.000000e+00  6.000000e+01
     vertex  7.415031e+01  4.220773e+01  6.000000e+01
   endloop
 endfacet
 facet normal  0.000000e+00  0.000000e+00  1.000000e+00
   outer loop
     vertex  8.082085e+01  3.760339e+01  6.000000e+01
     vertex  7.720605e+01  3.950058e+01  6.000000e+01
     vertex  0.000000e+00  0.000000e+00  6.000000e+01
   endloop
 endfacet
 facet normal  0.000000e+00  0.000000e+00  1.000000e+00
   outer loop
     vertex  7.038359e+01  4.938463e+01  6.000000e+01
     vertex  0.000000e+00  8.211553e+01  6.000000e+01
     vertex  0.000000e+00  0.000000e+00  6.000000e+01
   endloop
 endfacet
 facet normal  0.000000e+00  0.000000e+00  1.000000e+00
   outer loop
     vertex  7.038359e+01  4.938463e+01  6.000000e+01
     vertex  0.000000e+00  0.000000e+00  6.000000e+01
     vertex  7.183123e+01  4.556750e+01  6.000000e+01
   endloop
 endfacet
 facet normal  0.000000e+00  0.000000e+00  1.000000e+00
   outer loop
     vertex  8.478465e+01  3.662640e+01  6.000000e+01
     vertex  8.082085e+01  3.760339e+01  6.000000e+01
     vertex  0.000000e+00  0.000000e+00  6.000000e+01
   endloop
 endfacet
 facet normal  0.000000e+00  0.000000e+00  1.000000e+00
   outer loop
     vertex  6.989151e+01  5.343728e+01  6.000000e+01
     vertex  0.000000e+00  8.211553e+01  6.000000e+01
     vertex  7.038359e+01  4.938463e+01  6.000000e+01
   endloop
 endfacet
 facet normal  0.000000e+00  0.000000e+00  1.000000e+00
   outer loop
     vertex  7.038359e+01  5.748994e+01  6.000000e+01
     vertex  0.000000e+00  8.211553e+01  6.000000e+01
     vertex  6.989151e+01  5.343728e+01  6.000000e+01
   endloop
 endfacet
 facet normal  0.000000e+00  0.000000e+00  1.000000e+00
   outer loop
     vertex  7.183123e+01  6.130707e+01  6.000000e+01
     vertex  0.000000e+00  8.211553e+01  6.000000e+01
     vertex  7.038359e+01  5.748994e+01  6.000000e+01
   endloop
 endfacet
 facet normal  0.000000e+00  0.000000e+00  1.000000e+00
   outer loop
     vertex  7.415031e+01  6.466683e+01  6.000000e+01
     vertex  0.000000e+00  8.211553e+01  6.000000e+01
     vertex  7.183123e+01  6.130707e+01  6.000000e+01
   endloop
 endfacet
 facet normal  0.000000e+00  0.000000e+00  1.000000e+00
   outer loop
     vertex  1.427603e+02  0.000000e+00  6.000000e+01
     vertex  9.950140e+01  4.220773e+01  6.000000e+01
     vertex  9.644566e+01  3.950058e+01  6.000000e+01
   endloop
 endfacet
 facet normal  0.000000e+00  0.000000e+00  1.000000e+00
   outer loop
     vertex  1.427603e+02  0.000000e+00  6.000000e+01
     vertex  9.644566e+01  3.950058e+01  6.000000e+01
     vertex  9.283086e+01  3.760339e+01  6.000000e+01
   endloop
 endfacet
 facet normal  0.000000e+00  0.000000e+00  1.000000e+00
   outer loop
     vertex  1.427603e+02  0.000000e+00  6.000000e+01
     vertex  9.283086e+01  3.760339e+01  6.000000e+01
     vertex  8.886707e+01  3.662640e+01  6.000000e+01
   endloop
 endfacet
 facet normal  0.000000e+00  0.000000e+00  1.000000e+00
   outer loop
     vertex  1.427603e+02  0.000000e+00  6.000000e+01
     vertex  8.886707e+01  3.662640e+01  6.000000e+01
     vertex  8.478465e+01  3.662640e+01  6.000000e+01
   endloop
 endfacet
 facet normal  0.000000e+00  0.000000e+00  1.000000e+00
   outer loop
     vertex  1.427603e+02  0.000000e+00  6.000000e+01
     vertex  8.478465e+01  3.662640e+01  6.000000e+01
     vertex  0.000000e+00  0.000000e+00  6.000000e+01
   endloop
 endfacet
 facet normal  0.000000e+00  0.000000e+00  1.000000e+00
   outer loop
     vertex  7.720605e+01  6.737398e+01  6.000000e+01
     vertex  0.000000e+00  8.211553e+01  6.000000e+01
     vertex  7.415031e+01  6.466683e+01  6.000000e+01
   endloop
 endfacet
 facet normal  0.000000e+00  0.000000e+00  1.000000e+00
   outer loop
     vertex  1.018205e+02  4.556750e+01  6.000000e+01
     vertex  9.950140e+01  4.220773e+01  6.000000e+01
     vertex  1.427603e+02  0.000000e+00  6.000000e+01
   endloop
 endfacet
 facet normal  0.000000e+00  0.000000e+00  1.000000e+00
   outer loop
     vertex  8.082085e+01  6.927118e+01  6.000000e+01
     vertex  0.000000e+00  8.211553e+01  6.000000e+01
     vertex  7.720605e+01  6.737398e+01  6.000000e+01
   endloop
 endfacet
 facet normal  0.000000e+00  0.000000e+00  1.000000e+00
   outer loop
     vertex  1.032681e+02  4.938463e+01  6.000000e+01
     vertex  1.018205e+02  4.556750e+01  6.000000e+01
     vertex  1.427603e+02  0.000000e+00  6.000000e+01
   endloop
 endfacet
 facet normal  0.000000e+00  0.000000e+00  1.000000e+00
   outer loop
     vertex  1.427603e+02  8.211553e+01  6.000000e+01
     vertex  1.037602e+02  5.343728e+01  6.000000e+01
     vertex  1.032681e+02  4.938463e+01  6.000000e+01
   endloop
 endfacet
 facet normal  0.000000e+00  0.000000e+00  1.000000e+00
   outer loop
     vertex  1.427603e+02  8.211553e+01  6.000000e+01
     vertex  8.886707e+01  7.024816e+01  6.000000e+01
     vertex  9.283086e+01  6.927118e+01  6.000000e+01
   endloop
 endfacet
 facet normal  0.000000e+00  0.000000e+00  1.000000e+00
   outer loop
     vertex  1.427603e+02  8.211553e+01  6.000000e+01
     vertex  9.283086e+01  6.927118e+01  6.000000e+01
     vertex  9.644566e+01  6.737398e+01  6.000000e+01
   endloop
 endfacet
 facet normal  0.000000e+00  0.000000e+00  1.000000e+00
   outer loop
     vertex  1.427603e+02  8.211553e+01  6.000000e+01
     vertex  9.644566e+01  6.737398e+01  6.000000e+01
     vertex  9.950140e+01  6.466683e+01  6.000000e+01
   endloop
 endfacet
 facet normal  0.000000e+00  0.000000e+00  1.000000e+00
   outer loop
     vertex  1.427603e+02  8.211553e+01  6.000000e+01
     vertex  9.950140e+01  6.466683e+01  6.000000e+01
     vertex  1.018205e+02  6.130707e+01  6.000000e+01
   endloop
 endfacet
 facet normal  0.000000e+00  0.000000e+00  1.000000e+00
   outer loop
     vertex  1.427603e+02  8.211553e+01  6.000000e+01
     vertex  1.018205e+02  6.130707e+01  6.000000e+01
     vertex  1.032681e+02  5.748994e+01  6.000000e+01
   endloop
 endfacet
 facet normal  0.000000e+00  0.000000e+00  1.000000e+00
   outer loop
     vertex  1.427603e+02  8.211553e+01  6.000000e+01
     vertex  1.032681e+02  5.748994e+01  6.000000e+01
     vertex  1.037602e+02  5.343728e+01  6.000000e+01
   endloop
 endfacet
 facet normal  0.000000e+00  0.000000e+00  1.000000e+00
   outer loop
     vertex  1.427603e+02  8.211553e+01  6.000000e+01
     vertex  1.032681e+02  4.938463e+01  6.000000e+01
     vertex  1.427603e+02  0.000000e+00  6.000000e+01
   endloop
 endfacet
 facet normal  0.000000e+00  0.000000e+00  1.000000e+00
   outer loop
     vertex  1.427603e+02  8.211553e+01  6.000000e+01
     vertex  0.000000e+00  8.211553e+01  6.000000e+01
     vertex  8.886707e+01  7.024816e+01  6.000000e+01
   endloop
 endfacet
 facet normal  0.000000e+00  0.000000e+00  1.000000e+00
   outer loop
     vertex  8.886707e+01  7.024816e+01  6.000000e+01
     vertex  0.000000e+00  8.211553e+01  6.000000e+01
     vertex  8.478465e+01  7.024816e+01  6.000000e+01
   endloop
 endfacet
 facet normal  0.000000e+00  0.000000e+00  1.000000e+00
   outer loop
     vertex  8.478465e+01  7.024816e+01  6.000000e+01
     vertex  0.000000e+00  8.211553e+01  6.000000e+01
     vertex  8.082085e+01  6.927118e+01  6.000000e+01
   endloop
 endfacet
 facet normal  0.000000e+00  1.000000e+00  0.000000e+00
   outer loop
     vertex  1.427603e+02  8.211553e+01  6.000000e+01
     vertex  1.427603e+02  8.211553e+01  0.000000e+00
     vertex  0.000000e+00  8.211553e+01  0.000000e+00
   endloop
 endfacet
 facet normal  0.000000e+00  1.000000e+00  0.000000e+00
   outer loop
     vertex  1.427603e+02  8.211553e+01  6.000000e+01
     vertex  0.000000e+00  8.211553e+01  0.000000e+00
     vertex  0.000000e+00  8.211553e+01  6.000000e+01
   endloop
 endfacet
 facet normal -0.000000e+00  0.000000e+00 -1.000000e+00
   outer loop
     vertex  1.427603e+02  8.211553e+01  0.000000e+00
     vertex  0.000000e+00  0.000000e+00  0.000000e+00
     vertex  0.000000e+00  8.211553e+01  0.000000e+00
   endloop
 endfacet
 facet normal  0.000000e+00 -0.000000e+00 -1.000000e+00
   outer loop
     vertex  1.427603e+02  8.211553e+01  0.000000e+00
     vertex  1.427603e+02  0.000000e+00  0.000000e+00
     vertex  0.000000e+00  0.000000e+00  0.000000e+00
   endloop
 endfacet
 facet normal  1.000000e+00  0.000000e+00  0.000000e+00
   outer loop
     vertex  1.427603e+02  0.000000e+00  6.000000e+01
     vertex  1.427603e+02  0.000000e+00  0.000000e+00
     vertex  1.427603e+02  8.211553e+01  0.000000e+00
   endloop
 endfacet
 facet normal  1.000000e+00 -0.000000e+00  0.000000e+00
   outer loop
     vertex  1.427603e+02  0.000000e+00  6.000000e+01
     vertex  1.427603e+02  8.211553e+01  0.000000e+00
     vertex  1.427603e+02  8.211553e+01  6.000000e+01
   endloop
 endfacet
 facet normal -6.414708e-01  7.788866e-02  7.631832e-01
   outer loop
     vertex  9.881982e+01  5.343728e+01  5.584750e+01
     vertex  1.032681e+02  4.938463e+01  6.000000e+01
     vertex  1.037602e+02  5.343728e+01  6.000000e+01
   endloop
 endfacet
 facet normal -6.414708e-01  7.788866e-02  7.631832e-01
   outer loop
     vertex  8.887764e+01  5.293156e+01  4.754251e+01
     vertex  9.387943e+01  5.343728e+01  5.169501e+01
     vertex  8.893904e+01  5.343728e+01  4.754251e+01
   endloop
 endfacet
 facet normal -6.414708e-01 -7.788866e-02  7.631832e-01
   outer loop
     vertex  9.881982e+01  5.343728e+01  5.584750e+01
     vertex  1.037602e+02  5.343728e+01  6.000000e+01
     vertex  1.032681e+02  5.748994e+01  6.000000e+01
   endloop
 endfacet
 facet normal -6.414708e-01 -7.788866e-02  7.631832e-01
   outer loop
     vertex  8.893904e+01  5.343728e+01  4.754251e+01
     vertex  9.387943e+01  5.343728e+01  5.169501e+01
     vertex  8.887764e+01  5.394300e+01  4.754251e+01
   endloop
 endfacet
 facet normal -6.104855e-01  2.315266e-01  7.574318e-01
   outer loop
     vertex  9.800989e+01  4.910456e+01  5.584750e+01
     vertex  1.018205e+02  4.556750e+01  6.000000e+01
     vertex  1.032681e+02  4.938463e+01  6.000000e+01
   endloop
 endfacet
 facet normal -6.193828e-01  1.157827e-01  7.765046e-01
   outer loop
     vertex  9.800989e+01  4.910456e+01  5.584750e+01
     vertex  1.032681e+02  4.938463e+01  6.000000e+01
     vertex  9.881982e+01  5.343728e+01  5.584750e+01
   endloop
 endfacet
 facet normal -5.367043e-01  3.323132e-01  7.755749e-01
   outer loop
     vertex  9.568950e+01  4.535700e+01  5.584750e+01
     vertex  1.018205e+02  4.556750e+01  6.000000e+01
     vertex  9.800989e+01  4.910456e+01  5.584750e+01
   endloop
 endfacet
 facet normal -5.304259e-01  3.661266e-01  7.645912e-01
   outer loop
     vertex  9.568950e+01  4.535700e+01  5.584750e+01
     vertex  9.950140e+01  4.220773e+01  6.000000e+01
     vertex  1.018205e+02  4.556750e+01  6.000000e+01
   endloop
 endfacet
 facet normal -4.294841e-01  4.847873e-01  7.619217e-01
   outer loop
     vertex  9.568950e+01  4.535700e+01  5.584750e+01
     vertex  9.644566e+01  3.950058e+01  6.000000e+01
     vertex  9.950140e+01  4.220773e+01  6.000000e+01
   endloop
 endfacet
 facet normal -6.005278e-01  2.277502e-01  7.664830e-01
   outer loop
     vertex  9.340312e+01  5.088924e+01  5.169501e+01
     vertex  8.887764e+01  5.293156e+01  4.754251e+01
     vertex  8.869699e+01  5.245524e+01  4.754251e+01
   endloop
 endfacet
 facet normal -6.388213e-01  1.194164e-01  7.600309e-01
   outer loop
     vertex  9.340312e+01  5.088924e+01  5.169501e+01
     vertex  9.800989e+01  4.910456e+01  5.584750e+01
     vertex  9.881982e+01  5.343728e+01  5.584750e+01
   endloop
 endfacet
 facet normal -6.388213e-01  1.194164e-01  7.600309e-01
   outer loop
     vertex  9.340312e+01  5.088924e+01  5.169501e+01
     vertex  9.881982e+01  5.343728e+01  5.584750e+01
     vertex  9.387943e+01  5.343728e+01  5.169501e+01
   endloop
 endfacet
 facet normal -6.413020e-01  1.198801e-01  7.578658e-01
   outer loop
     vertex  9.340312e+01  5.088924e+01  5.169501e+01
     vertex  9.387943e+01  5.343728e+01  5.169501e+01
     vertex  8.887764e+01  5.293156e+01  4.754251e+01
   endloop
 endfacet
 facet normal -3.033368e-01  5.779601e-01  7.575942e-01
   outer loop
     vertex  9.217203e+01  4.270073e+01  5.584750e+01
     vertex  9.283086e+01  3.760339e+01  6.000000e+01
     vertex  9.644566e+01  3.950058e+01  6.000000e+01
   endloop
 endfacet
 facet normal -3.791919e-01  5.021313e-01  7.772243e-01
   outer loop
     vertex  9.217203e+01  4.270073e+01  5.584750e+01
     vertex  9.644566e+01  3.950058e+01  6.000000e+01
     vertex  9.568950e+01  4.535700e+01  5.584750e+01
   endloop
 endfacet
 facet normal -5.326063e-01  3.676316e-01  7.623500e-01
   outer loop
     vertex  9.203851e+01  4.868532e+01  5.169501e+01
     vertex  8.869699e+01  5.245524e+01  4.754251e+01
     vertex  8.840760e+01  5.203598e+01  4.754251e+01
   endloop
 endfacet
 facet normal -4.279195e-01  4.830213e-01  7.639210e-01
   outer loop
     vertex  9.203851e+01  4.868532e+01  5.169501e+01
     vertex  8.840760e+01  5.203598e+01  4.754251e+01
     vertex  8.802628e+01  5.169817e+01  4.754251e+01
   endloop
 endfacet
 facet normal -5.525450e-01  3.421214e-01  7.600309e-01
   outer loop
     vertex  9.203851e+01  4.868532e+01  5.169501e+01
     vertex  9.568950e+01  4.535700e+01  5.584750e+01
     vertex  9.800989e+01  4.910456e+01  5.584750e+01
   endloop
 endfacet
 facet normal -5.525450e-01  3.421214e-01  7.600309e-01
   outer loop
     vertex  9.203851e+01  4.868532e+01  5.169501e+01
     vertex  9.800989e+01  4.910456e+01  5.584750e+01
     vertex  9.340312e+01  5.088924e+01  5.169501e+01
   endloop
 endfacet
 facet normal -5.545638e-01  3.433714e-01  7.579942e-01
   outer loop
     vertex  9.203851e+01  4.868532e+01  5.169501e+01
     vertex  9.340312e+01  5.088924e+01  5.169501e+01
     vertex  8.869699e+01  5.245524e+01  4.754251e+01
   endloop
 endfacet
 facet normal -1.731348e-01  6.085057e-01  7.744322e-01
   outer loop
     vertex  8.793252e+01  4.149448e+01  5.584750e+01
     vertex  9.283086e+01  3.760339e+01  6.000000e+01
     vertex  9.217203e+01  4.270073e+01  5.584750e+01
   endloop
 endfacet
 facet normal -1.538013e-01  6.239966e-01  7.661419e-01
   outer loop
     vertex  8.793252e+01  4.149448e+01  5.584750e+01
     vertex  8.886707e+01  3.662640e+01  6.000000e+01
     vertex  9.283086e+01  3.760339e+01  6.000000e+01
   endloop
 endfacet
 facet normal  0.000000e+00  6.489745e-01  7.608102e-01
   outer loop
     vertex  8.793252e+01  4.149448e+01  5.584750e+01
     vertex  8.478465e+01  3.662640e+01  6.000000e+01
     vertex  8.886707e+01  3.662640e+01  6.000000e+01
   endloop
 endfacet
 facet normal -2.985257e-01  5.687931e-01  7.663921e-01
   outer loop
     vertex  8.996990e+01  4.712318e+01  5.169501e+01
     vertex  8.802628e+01  5.169817e+01  4.754251e+01
     vertex  8.757520e+01  5.146142e+01  4.754251e+01
   endloop
 endfacet
 facet normal -3.916443e-01  5.186209e-01  7.600309e-01
   outer loop
     vertex  8.996990e+01  4.712318e+01  5.169501e+01
     vertex  9.217203e+01  4.270073e+01  5.584750e+01
     vertex  9.568950e+01  4.535700e+01  5.584750e+01
   endloop
 endfacet
 facet normal -3.932351e-01  5.207274e-01  7.577658e-01
   outer loop
     vertex  8.996990e+01  4.712318e+01  5.169501e+01
     vertex  9.203851e+01  4.868532e+01  5.169501e+01
     vertex  8.802628e+01  5.169817e+01  4.754251e+01
   endloop
 endfacet
 facet normal -3.916443e-01  5.186209e-01  7.600309e-01
   outer loop
     vertex  8.996990e+01  4.712318e+01  5.169501e+01
     vertex  9.568950e+01  4.535700e+01  5.584750e+01
     vertex  9.203851e+01  4.868532e+01  5.169501e+01
   endloop
 endfacet
 facet normal  5.799899e-02  6.259087e-01  7.777367e-01
   outer loop
     vertex  8.354355e+01  4.190118e+01  5.584750e+01
     vertex  8.478465e+01  3.662640e+01  6.000000e+01
     vertex  8.793252e+01  4.149448e+01  5.584750e+01
   endloop
 endfacet
 facet normal  1.561174e-01  6.333932e-01  7.579185e-01
   outer loop
     vertex  8.354355e+01  4.190118e+01  5.584750e+01
     vertex  8.082085e+01  3.760339e+01  6.000000e+01
     vertex  8.478465e+01  3.662640e+01  6.000000e+01
   endloop
 endfacet
 facet normal -1.551384e-01  6.294212e-01  7.614204e-01
   outer loop
     vertex  8.747668e+01  4.641380e+01  5.169501e+01
     vertex  8.757520e+01  5.146142e+01  4.754251e+01
     vertex  8.708057e+01  5.133951e+01  4.754251e+01
   endloop
 endfacet
 facet normal  0.000000e+00  6.445473e-01  7.645644e-01
   outer loop
     vertex  8.747668e+01  4.641380e+01  5.169501e+01
     vertex  8.708057e+01  5.133951e+01  4.754251e+01
     vertex  8.657114e+01  5.133951e+01  4.754251e+01
   endloop
 endfacet
 facet normal -1.778500e-01  6.250779e-01  7.600309e-01
   outer loop
     vertex  8.747668e+01  4.641380e+01  5.169501e+01
     vertex  9.217203e+01  4.270073e+01  5.584750e+01
     vertex  8.996990e+01  4.712318e+01  5.169501e+01
   endloop
 endfacet
 facet normal -1.784499e-01  6.271865e-01  7.581509e-01
   outer loop
     vertex  8.747668e+01  4.641380e+01  5.169501e+01
     vertex  8.996990e+01  4.712318e+01  5.169501e+01
     vertex  8.757520e+01  5.146142e+01  4.754251e+01
   endloop
 endfacet
 facet normal -1.778500e-01  6.250779e-01  7.600309e-01
   outer loop
     vertex  8.747668e+01  4.641380e+01  5.169501e+01
     vertex  8.793252e+01  4.149448e+01  5.584750e+01
     vertex  9.217203e+01  4.270073e+01  5.584750e+01
   endloop
 endfacet
 facet normal  2.977259e-01  5.672694e-01  7.678312e-01
   outer loop
     vertex  7.959788e+01  4.386589e+01  5.584750e+01
     vertex  7.720605e+01  3.950058e+01  6.000000e+01
     vertex  8.082085e+01  3.760339e+01  6.000000e+01
   endloop
 endfacet
 facet normal  4.310937e-01  4.866042e-01  7.598516e-01
   outer loop
     vertex  7.959788e+01  4.386589e+01  5.584750e+01
     vertex  7.415031e+01  4.220773e+01  6.000000e+01
     vertex  7.720605e+01  3.950058e+01  6.000000e+01
   endloop
 endfacet
 facet normal  2.827398e-01  5.678181e-01  7.730723e-01
   outer loop
     vertex  7.959788e+01  4.386589e+01  5.584750e+01
     vertex  8.082085e+01  3.760339e+01  6.000000e+01
     vertex  8.354355e+01  4.190118e+01  5.584750e+01
   endloop
 endfacet
 facet normal  1.537819e-01  6.239177e-01  7.662100e-01
   outer loop
     vertex  8.489555e+01  4.665298e+01  5.169501e+01
     vertex  8.657114e+01  5.133951e+01  4.754251e+01
     vertex  8.607651e+01  5.146142e+01  4.754251e+01
   endloop
 endfacet
 facet normal  6.021521e-02  6.498256e-01  7.576944e-01
   outer loop
     vertex  8.489555e+01  4.665298e+01  5.169501e+01
     vertex  8.747668e+01  4.641380e+01  5.169501e+01
     vertex  8.657114e+01  5.133951e+01  4.754251e+01
   endloop
 endfacet
 facet normal  5.996400e-02  6.471146e-01  7.600309e-01
   outer loop
     vertex  8.489555e+01  4.665298e+01  5.169501e+01
     vertex  8.793252e+01  4.149448e+01  5.584750e+01
     vertex  8.747668e+01  4.641380e+01  5.169501e+01
   endloop
 endfacet
 facet normal  5.996400e-02  6.471146e-01  7.600309e-01
   outer loop
     vertex  8.489555e+01  4.665298e+01  5.169501e+01
     vertex  8.354355e+01  4.190118e+01  5.584750e+01
     vertex  8.793252e+01  4.149448e+01  5.584750e+01
   endloop
 endfacet
 facet normal  5.364085e-01  3.702561e-01  7.584038e-01
   outer loop
     vertex  7.662838e+01  4.712328e+01  5.584750e+01
     vertex  7.183123e+01  4.556750e+01  6.000000e+01
     vertex  7.415031e+01  4.220773e+01  6.000000e+01
   endloop
 endfacet
 facet normal  4.642532e-01  4.232227e-01  7.780434e-01
   outer loop
     vertex  7.662838e+01  4.712328e+01  5.584750e+01
     vertex  7.415031e+01  4.220773e+01  6.000000e+01
     vertex  7.959788e+01  4.386589e+01  5.584750e+01
   endloop
 endfacet
 facet normal  3.018205e-01  5.750710e-01  7.603931e-01
   outer loop
     vertex  8.257513e+01  4.780841e+01  5.169501e+01
     vertex  8.607651e+01  5.146142e+01  4.754251e+01
     vertex  8.562543e+01  5.169817e+01  4.754251e+01
   endloop
 endfacet
 facet normal  4.269809e-01  4.819618e-01  7.651144e-01
   outer loop
     vertex  8.257513e+01  4.780841e+01  5.169501e+01
     vertex  8.562543e+01  5.169817e+01  4.754251e+01
     vertex  8.524412e+01  5.203598e+01  4.754251e+01
   endloop
 endfacet
 facet normal  2.905608e-01  5.835248e-01  7.583359e-01
   outer loop
     vertex  8.257513e+01  4.780841e+01  5.169501e+01
     vertex  8.489555e+01  4.665298e+01  5.169501e+01
     vertex  8.607651e+01  5.146142e+01  4.754251e+01
   endloop
 endfacet
 facet normal  2.896795e-01  5.817549e-01  7.600309e-01
   outer loop
     vertex  8.257513e+01  4.780841e+01  5.169501e+01
     vertex  7.959788e+01  4.386589e+01  5.584750e+01
     vertex  8.354355e+01  4.190118e+01  5.584750e+01
   endloop
 endfacet
 facet normal  2.896795e-01  5.817549e-01  7.600309e-01
   outer loop
     vertex  8.257513e+01  4.780841e+01  5.169501e+01
     vertex  8.354355e+01  4.190118e+01  5.584750e+01
     vertex  8.489555e+01  4.665298e+01  5.169501e+01
   endloop
 endfacet
 facet normal  5.932767e-01  2.298366e-01  7.714907e-01
   outer loop
     vertex  7.503611e+01  5.123340e+01  5.584750e+01
     vertex  7.183123e+01  4.556750e+01  6.000000e+01
     vertex  7.662838e+01  4.712328e+01  5.584750e+01
   endloop
 endfacet
 facet normal  5.969710e-01  2.264012e-01  7.696546e-01
   outer loop
     vertex  7.503611e+01  5.123340e+01  5.584750e+01
     vertex  7.038359e+01  4.938463e+01  6.000000e+01
     vertex  7.183123e+01  4.556750e+01  6.000000e+01
   endloop
 endfacet
 facet normal  6.462870e-01  7.847345e-02  7.590488e-01
   outer loop
     vertex  7.503611e+01  5.123340e+01  5.584750e+01
     vertex  6.989151e+01  5.343728e+01  6.000000e+01
     vertex  7.038359e+01  4.938463e+01  6.000000e+01
   endloop
 endfacet
 facet normal  5.291095e-01  3.652179e-01  7.659367e-01
   outer loop
     vertex  8.082879e+01  4.972405e+01  5.169501e+01
     vertex  8.524412e+01  5.203598e+01  4.754251e+01
     vertex  8.495473e+01  5.245524e+01  4.754251e+01
   endloop
 endfacet
 facet normal  4.802722e-01  4.378260e-01  7.600309e-01
   outer loop
     vertex  8.082879e+01  4.972405e+01  5.169501e+01
     vertex  7.662838e+01  4.712328e+01  5.584750e+01
     vertex  7.959788e+01  4.386589e+01  5.584750e+01
   endloop
 endfacet
 facet normal  4.802722e-01  4.378260e-01  7.600309e-01
   outer loop
     vertex  8.082879e+01  4.972405e+01  5.169501e+01
     vertex  7.959788e+01  4.386589e+01  5.584750e+01
     vertex  8.257513e+01  4.780841e+01  5.169501e+01
   endloop
 endfacet
 facet normal  4.823210e-01  4.396937e-01  7.576515e-01
   outer loop
     vertex  8.082879e+01  4.972405e+01  5.169501e+01
     vertex  8.257513e+01  4.780841e+01  5.169501e+01
     vertex  8.524412e+01  5.203598e+01  4.754251e+01
   endloop
 endfacet
 facet normal  6.280840e-01  0.000000e+00  7.781455e-01
   outer loop
     vertex  7.503611e+01  5.564117e+01  5.584750e+01
     vertex  6.989151e+01  5.343728e+01  6.000000e+01
     vertex  7.503611e+01  5.123340e+01  5.584750e+01
   endloop
 endfacet
 facet normal  6.462870e-01 -7.847345e-02  7.590488e-01
   outer loop
     vertex  7.503611e+01  5.564117e+01  5.584750e+01
     vertex  7.038359e+01  5.748994e+01  6.000000e+01
     vertex  6.989151e+01  5.343728e+01  6.000000e+01
   endloop
 endfacet
 facet normal  5.969710e-01 -2.264012e-01  7.696546e-01
   outer loop
     vertex  7.503611e+01  5.564117e+01  5.584750e+01
     vertex  7.183123e+01  6.130707e+01  6.000000e+01
     vertex  7.038359e+01  5.748994e+01  6.000000e+01
   endloop
 endfacet
 facet normal  6.084894e-01  2.307696e-01  7.592668e-01
   outer loop
     vertex  7.989238e+01  5.214119e+01  5.169501e+01
     vertex  8.495473e+01  5.245524e+01  4.754251e+01
     vertex  8.477408e+01  5.293156e+01  4.754251e+01
   endloop
 endfacet
 facet normal  6.386599e-01  7.754735e-02  7.655716e-01
   outer loop
     vertex  7.989238e+01  5.214119e+01  5.169501e+01
     vertex  8.477408e+01  5.293156e+01  4.754251e+01
     vertex  8.471267e+01  5.343728e+01  4.754251e+01
   endloop
 endfacet
 facet normal  6.060015e-01  2.347662e-01  7.600309e-01
   outer loop
     vertex  7.989238e+01  5.214119e+01  5.169501e+01
     vertex  7.503611e+01  5.123340e+01  5.584750e+01
     vertex  7.662838e+01  4.712328e+01  5.584750e+01
   endloop
 endfacet
 facet normal  6.498869e-01  0.000000e+00  7.600309e-01
   outer loop
     vertex  7.989238e+01  5.214119e+01  5.169501e+01
     vertex  7.503611e+01  5.564117e+01  5.584750e+01
     vertex  7.503611e+01  5.123340e+01  5.584750e+01
   endloop
 endfacet
 facet normal  6.076139e-01  2.353909e-01  7.585490e-01
   outer loop
     vertex  7.989238e+01  5.214119e+01  5.169501e+01
     vertex  8.082879e+01  4.972405e+01  5.169501e+01
     vertex  8.495473e+01  5.245524e+01  4.754251e+01
   endloop
 endfacet
 facet normal  6.060015e-01  2.347662e-01  7.600309e-01
   outer loop
     vertex  7.989238e+01  5.214119e+01  5.169501e+01
     vertex  7.662838e+01  4.712328e+01  5.584750e+01
     vertex  8.082879e+01  4.972405e+01  5.169501e+01
   endloop
 endfacet
 facet normal  5.364085e-01 -3.702561e-01  7.584038e-01
   outer loop
     vertex  7.662838e+01  5.975129e+01  5.584750e+01
     vertex  7.415031e+01  6.466683e+01  6.000000e+01
     vertex  7.183123e+01  6.130707e+01  6.000000e+01
   endloop
 endfacet
 facet normal  5.932767e-01 -2.298366e-01  7.714907e-01
   outer loop
     vertex  7.662838e+01  5.975129e+01  5.584750e+01
     vertex  7.183123e+01  6.130707e+01  6.000000e+01
     vertex  7.503611e+01  5.564117e+01  5.584750e+01
   endloop
 endfacet
 facet normal  6.386599e-01 -7.754735e-02  7.655716e-01
   outer loop
     vertex  7.989238e+01  5.473337e+01  5.169501e+01
     vertex  8.471267e+01  5.343728e+01  4.754251e+01
     vertex  8.477408e+01  5.394300e+01  4.754251e+01
   endloop
 endfacet
 facet normal  6.084894e-01 -2.307696e-01  7.592668e-01
   outer loop
     vertex  7.989238e+01  5.473337e+01  5.169501e+01
     vertex  8.477408e+01  5.394300e+01  4.754251e+01
     vertex  8.495473e+01  5.441933e+01  4.754251e+01
   endloop
 endfacet
 facet normal  6.526759e-01  0.000000e+00  7.576372e-01
   outer loop
     vertex  7.989238e+01  5.473337e+01  5.169501e+01
     vertex  7.989238e+01  5.214119e+01  5.169501e+01
     vertex  8.471267e+01  5.343728e+01  4.754251e+01
   endloop
 endfacet
 facet normal  6.060015e-01 -2.347662e-01  7.600309e-01
   outer loop
     vertex  7.989238e+01  5.473337e+01  5.169501e+01
     vertex  7.662838e+01  5.975129e+01  5.584750e+01
     vertex  7.503611e+01  5.564117e+01  5.584750e+01
   endloop
 endfacet
 facet normal  6.498869e-01  0.000000e+00  7.600309e-01
   outer loop
     vertex  7.989238e+01  5.473337e+01  5.169501e+01
     vertex  7.503611e+01  5.564117e+01  5.584750e+01
     vertex  7.989238e+01  5.214119e+01  5.169501e+01
   endloop
 endfacet
 facet normal  4.310937e-01 -4.866042e-01  7.598516e-01
   outer loop
     vertex  7.959788e+01  6.300867e+01  5.584750e+01
     vertex  7.720605e+01  6.737398e+01  6.000000e+01
     vertex  7.415031e+01  6.466683e+01  6.000000e+01
   endloop
 endfacet
 facet normal  2.977259e-01 -5.672694e-01  7.678312e-01
   outer loop
     vertex  7.959788e+01  6.300867e+01  5.584750e+01
     vertex  8.082085e+01  6.927118e+01  6.000000e+01
     vertex  7.720605e+01  6.737398e+01  6.000000e+01
   endloop
 endfacet
 facet normal  4.642532e-01 -4.232227e-01  7.780434e-01
   outer loop
     vertex  7.959788e+01  6.300867e+01  5.584750e+01
     vertex  7.415031e+01  6.466683e+01  6.000000e+01
     vertex  7.662838e+01  5.975129e+01  5.584750e+01
   endloop
 endfacet
 facet normal  5.291095e-01 -3.652179e-01  7.659367e-01
   outer loop
     vertex  8.082879e+01  5.715051e+01  5.169501e+01
     vertex  8.495473e+01  5.441933e+01  4.754251e+01
     vertex  8.524412e+01  5.483858e+01  4.754251e+01
   endloop
 endfacet
 facet normal  6.076139e-01 -2.353909e-01  7.585490e-01
   outer loop
     vertex  8.082879e+01  5.715051e+01  5.169501e+01
     vertex  7.989238e+01  5.473337e+01  5.169501e+01
     vertex  8.495473e+01  5.441933e+01  4.754251e+01
   endloop
 endfacet
 facet normal  6.060015e-01 -2.347662e-01  7.600309e-01
   outer loop
     vertex  8.082879e+01  5.715051e+01  5.169501e+01
     vertex  7.662838e+01  5.975129e+01  5.584750e+01
     vertex  7.989238e+01  5.473337e+01  5.169501e+01
   endloop
 endfacet
 facet normal  1.561174e-01 -6.333932e-01  7.579185e-01
   outer loop
     vertex  8.354355e+01  6.497338e+01  5.584750e+01
     vertex  8.478465e+01  7.024816e+01  6.000000e+01
     vertex  8.082085e+01  6.927118e+01  6.000000e+01
   endloop
 endfacet
 facet normal  2.827398e-01 -5.678181e-01  7.730723e-01
   outer loop
     vertex  8.354355e+01  6.497338e+01  5.584750e+01
     vertex  8.082085e+01  6.927118e+01  6.000000e+01
     vertex  7.959788e+01  6.300867e+01  5.584750e+01
   endloop
 endfacet
 facet normal  4.823210e-01 -4.396937e-01  7.576515e-01
   outer loop
     vertex  8.257513e+01  5.906616e+01  5.169501e+01
     vertex  8.082879e+01  5.715051e+01  5.169501e+01
     vertex  8.524412e+01  5.483858e+01  4.754251e+01
   endloop
 endfacet
 facet normal  4.269809e-01 -4.819618e-01  7.651144e-01
   outer loop
     vertex  8.257513e+01  5.906616e+01  5.169501e+01
     vertex  8.524412e+01  5.483858e+01  4.754251e+01
     vertex  8.562543e+01  5.517640e+01  4.754251e+01
   endloop
 endfacet
 facet normal  3.018205e-01 -5.750710e-01  7.603931e-01
   outer loop
     vertex  8.257513e+01  5.906616e+01  5.169501e+01
     vertex  8.562543e+01  5.517640e+01  4.754251e+01
     vertex  8.607651e+01  5.541314e+01  4.754251e+01
   endloop
 endfacet
 facet normal  4.802722e-01 -4.378260e-01  7.600309e-01
   outer loop
     vertex  8.257513e+01  5.906616e+01  5.169501e+01
     vertex  7.959788e+01  6.300867e+01  5.584750e+01
     vertex  7.662838e+01  5.975129e+01  5.584750e+01
   endloop
 endfacet
 facet normal  4.802722e-01 -4.378260e-01  7.600309e-01
   outer loop
     vertex  8.257513e+01  5.906616e+01  5.169501e+01
     vertex  7.662838e+01  5.975129e+01  5.584750e+01
     vertex  8.082879e+01  5.715051e+01  5.169501e+01
   endloop
 endfacet
 facet normal  5.799899e-02 -6.259087e-01  7.777367e-01
   outer loop
     vertex  8.793252e+01  6.538008e+01  5.584750e+01
     vertex  8.478465e+01  7.024816e+01  6.000000e+01
     vertex  8.354355e+01  6.497338e+01  5.584750e+01
   endloop
 endfacet
 facet normal  0.000000e+00 -6.489745e-01  7.608102e-01
   outer loop
     vertex  8.793252e+01  6.538008e+01  5.584750e+01
     vertex  8.886707e+01  7.024816e+01  6.000000e+01
     vertex  8.478465e+01  7.024816e+01  6.000000e+01
   endloop
 endfacet
 facet normal -1.538013e-01 -6.239966e-01  7.661419e-01
   outer loop
     vertex  8.793252e+01  6.538008e+01  5.584750e+01
     vertex  9.283086e+01  6.927118e+01  6.000000e+01
     vertex  8.886707e+01  7.024816e+01  6.000000e+01
   endloop
 endfacet
 facet normal  1.537819e-01 -6.239177e-01  7.662100e-01
   outer loop
     vertex  8.489555e+01  6.022159e+01  5.169501e+01
     vertex  8.607651e+01  5.541314e+01  4.754251e+01
     vertex  8.657114e+01  5.553506e+01  4.754251e+01
   endloop
 endfacet
 facet normal  2.896795e-01 -5.817549e-01  7.600309e-01
   outer loop
     vertex  8.489555e+01  6.022159e+01  5.169501e+01
     vertex  8.354355e+01  6.497338e+01  5.584750e+01
     vertex  7.959788e+01  6.300867e+01  5.584750e+01
   endloop
 endfacet
 facet normal  2.896795e-01 -5.817549e-01  7.600309e-01
   outer loop
     vertex  8.489555e+01  6.022159e+01  5.169501e+01
     vertex  7.959788e+01  6.300867e+01  5.584750e+01
     vertex  8.257513e+01  5.906616e+01  5.169501e+01
   endloop
 endfacet
 facet normal  2.905608e-01 -5.835248e-01  7.583359e-01
   outer loop
     vertex  8.489555e+01  6.022159e+01  5.169501e+01
     vertex  8.257513e+01  5.906616e+01  5.169501e+01
     vertex  8.607651e+01  5.541314e+01  4.754251e+01
   endloop
 endfacet
 facet normal -3.033368e-01 -5.779601e-01  7.575942e-01
   outer loop
     vertex  9.217203e+01  6.417384e+01  5.584750e+01
     vertex  9.644566e+01  6.737398e+01  6.000000e+01
     vertex  9.283086e+01  6.927118e+01  6.000000e+01
   endloop
 endfacet
 facet normal -1.731348e-01 -6.085057e-01  7.744322e-01
   outer loop
     vertex  9.217203e+01  6.417384e+01  5.584750e+01
     vertex  9.283086e+01  6.927118e+01  6.000000e+01
     vertex  8.793252e+01  6.538008e+01  5.584750e+01
   endloop
 endfacet
 facet normal  8.659827e-15 -6.445473e-01  7.645644e-01
   outer loop
     vertex  8.747668e+01  6.046077e+01  5.169501e+01
     vertex  8.657114e+01  5.553506e+01  4.754251e+01
     vertex  8.708057e+01  5.553506e+01  4.754251e+01
   endloop
 endfacet
 facet normal -1.551384e-01 -6.294212e-01  7.614204e-01
   outer loop
     vertex  8.747668e+01  6.046077e+01  5.169501e+01
     vertex  8.708057e+01  5.553506e+01  4.754251e+01
     vertex  8.757520e+01  5.541314e+01  4.754251e+01
   endloop
 endfacet
 facet normal  6.021521e-02 -6.498256e-01  7.576944e-01
   outer loop
     vertex  8.747668e+01  6.046077e+01  5.169501e+01
     vertex  8.489555e+01  6.022159e+01  5.169501e+01
     vertex  8.657114e+01  5.553506e+01  4.754251e+01
   endloop
 endfacet
 facet normal  5.996400e-02 -6.471146e-01  7.600309e-01
   outer loop
     vertex  8.747668e+01  6.046077e+01  5.169501e+01
     vertex  8.793252e+01  6.538008e+01  5.584750e+01
     vertex  8.354355e+01  6.497338e+01  5.584750e+01
   endloop
 endfacet
 facet normal  5.996400e-02 -6.471146e-01  7.600309e-01
   outer loop
     vertex  8.747668e+01  6.046077e+01  5.169501e+01
     vertex  8.354355e+01  6.497338e+01  5.584750e+01
     vertex  8.489555e+01  6.022159e+01  5.169501e+01
   endloop
 endfacet
 facet normal -4.294841e-01 -4.847873e-01  7.619217e-01
   outer loop
     vertex  9.568950e+01  6.151756e+01  5.584750e+01
     vertex  9.950140e+01  6.466683e+01  6.000000e+01
     vertex  9.644566e+01  6.737398e+01  6.000000e+01
   endloop
 endfacet
 facet normal -5.304259e-01 -3.661266e-01  7.645912e-01
   outer loop
     vertex  9.568950e+01  6.151756e+01  5.584750e+01
     vertex  1.018205e+02  6.130707e+01  6.000000e+01
     vertex  9.950140e+01  6.466683e+01  6.000000e+01
   endloop
 endfacet
 facet normal -3.791919e-01 -5.021313e-01  7.772243e-01
   outer loop
     vertex  9.568950e+01  6.151756e+01  5.584750e+01
     vertex  9.644566e+01  6.737398e+01  6.000000e+01
     vertex  9.217203e+01  6.417384e+01  5.584750e+01
   endloop
 endfacet
 facet normal -2.985257e-01 -5.687931e-01  7.663921e-01
   outer loop
     vertex  8.996990e+01  5.975138e+01  5.169501e+01
     vertex  8.757520e+01  5.541314e+01  4.754251e+01
     vertex  8.802628e+01  5.517640e+01  4.754251e+01
   endloop
 endfacet
 facet normal -1.784499e-01 -6.271865e-01  7.581509e-01
   outer loop
     vertex  8.996990e+01  5.975138e+01  5.169501e+01
     vertex  8.747668e+01  6.046077e+01  5.169501e+01
     vertex  8.757520e+01  5.541314e+01  4.754251e+01
   endloop
 endfacet
 facet normal -1.778500e-01 -6.250779e-01  7.600309e-01
   outer loop
     vertex  8.996990e+01  5.975138e+01  5.169501e+01
     vertex  9.217203e+01  6.417384e+01  5.584750e+01
     vertex  8.793252e+01  6.538008e+01  5.584750e+01
   endloop
 endfacet
 facet normal -1.778500e-01 -6.250779e-01  7.600309e-01
   outer loop
     vertex  8.996990e+01  5.975138e+01  5.169501e+01
     vertex  8.793252e+01  6.538008e+01  5.584750e+01
     vertex  8.747668e+01  6.046077e+01  5.169501e+01
   endloop
 endfacet
 facet normal -6.193828e-01 -1.157827e-01  7.765046e-01
   outer loop
     vertex  9.800989e+01  5.777000e+01  5.584750e+01
     vertex  9.881982e+01  5.343728e+01  5.584750e+01
     vertex  1.032681e+02  5.748994e+01  6.000000e+01
   endloop
 endfacet
 facet normal -6.104855e-01 -2.315266e-01  7.574318e-01
   outer loop
     vertex  9.800989e+01  5.777000e+01  5.584750e+01
     vertex  1.032681e+02  5.748994e+01  6.000000e+01
     vertex  1.018205e+02  6.130707e+01  6.000000e+01
   endloop
 endfacet
 facet normal -5.367043e-01 -3.323132e-01  7.755749e-01
   outer loop
     vertex  9.800989e+01  5.777000e+01  5.584750e+01
     vertex  1.018205e+02  6.130707e+01  6.000000e+01
     vertex  9.568950e+01  6.151756e+01  5.584750e+01
   endloop
 endfacet
 facet normal -4.279195e-01 -4.830213e-01  7.639210e-01
   outer loop
     vertex  9.203851e+01  5.818924e+01  5.169501e+01
     vertex  8.802628e+01  5.517640e+01  4.754251e+01
     vertex  8.840760e+01  5.483858e+01  4.754251e+01
   endloop
 endfacet
 facet normal -5.326063e-01 -3.676316e-01  7.623500e-01
   outer loop
     vertex  9.203851e+01  5.818924e+01  5.169501e+01
     vertex  8.840760e+01  5.483858e+01  4.754251e+01
     vertex  8.869699e+01  5.441933e+01  4.754251e+01
   endloop
 endfacet
 facet normal -3.932351e-01 -5.207274e-01  7.577658e-01
   outer loop
     vertex  9.203851e+01  5.818924e+01  5.169501e+01
     vertex  8.996990e+01  5.975138e+01  5.169501e+01
     vertex  8.802628e+01  5.517640e+01  4.754251e+01
   endloop
 endfacet
 facet normal -3.916443e-01 -5.186209e-01  7.600309e-01
   outer loop
     vertex  9.203851e+01  5.818924e+01  5.169501e+01
     vertex  9.568950e+01  6.151756e+01  5.584750e+01
     vertex  9.217203e+01  6.417384e+01  5.584750e+01
   endloop
 endfacet
 facet normal -3.916443e-01 -5.186209e-01  7.600309e-01
   outer loop
     vertex  9.203851e+01  5.818924e+01  5.169501e+01
     vertex  9.217203e+01  6.417384e+01  5.584750e+01
     vertex  8.996990e+01  5.975138e+01  5.169501e+01
   endloop
 endfacet
 facet normal -5.525450e-01 -3.421214e-01  7.600309e-01
   outer loop
     vertex  9.340312e+01  5.598533e+01  5.169501e+01
     vertex  9.800989e+01  5.777000e+01  5.584750e+01
     vertex  9.568950e+01  6.151756e+01  5.584750e+01
   endloop
 endfacet
 facet normal -5.525450e-01 -3.421214e-01  7.600309e-01
   outer loop
     vertex  9.340312e+01  5.598533e+01  5.169501e+01
     vertex  9.568950e+01  6.151756e+01  5.584750e+01
     vertex  9.203851e+01  5.818924e+01  5.169501e+01
   endloop
 endfacet
 facet normal -6.005278e-01 -2.277502e-01  7.664830e-01
   outer loop
     vertex  9.340312e+01  5.598533e+01  5.169501e+01
     vertex  8.869699e+01  5.441933e+01  4.754251e+01
     vertex  8.887764e+01  5.394300e+01  4.754251e+01
   endloop
 endfacet
 facet normal -6.388213e-01 -1.194164e-01  7.600309e-01
   outer loop
     vertex  9.340312e+01  5.598533e+01  5.169501e+01
     vertex  9.387943e+01  5.343728e+01  5.169501e+01
     vertex  9.881982e+01  5.343728e+01  5.584750e+01
   endloop
 endfacet
 facet normal -6.413020e-01 -1.198801e-01  7.578658e-01
   outer loop
     vertex  9.340312e+01  5.598533e+01  5.169501e+01
     vertex  8.887764e+01  5.394300e+01  4.754251e+01
     vertex  9.387943e+01  5.343728e+01  5.169501e+01
   endloop
 endfacet
 facet normal -5.545638e-01 -3.433714e-01  7.579942e-01
   outer loop
     vertex  9.340312e+01  5.598533e+01  5.169501e+01
     vertex  9.203851e+01  5.818924e+01  5.169501e+01
     vertex  8.869699e+01  5.441933e+01  4.754251e+01
   endloop
 endfacet
 facet normal -6.388213e-01 -1.194164e-01  7.600309e-01
   outer loop
     vertex  9.340312e+01  5.598533e+01  5.169501e+01
     vertex  9.881982e+01  5.343728e+01  5.584750e+01
     vertex  9.800989e+01  5.777000e+01  5.584750e+01
   endloop
 endfacet
 facet normal  0.000000e+00  0.000000e+00  1.000000e+00
   outer loop
     vertex  8.840760e+01  5.483858e+01  4.754251e+01
     vertex  8.524412e+01  5.483858e+01  4.754251e+01
     vertex  8.495473e+01  5.441933e+01  4.754251e+01
   endloop
 endfacet
 facet normal  0.000000e+00  0.000000e+00  1.000000e+00
   outer loop
     vertex  8.840760e+01  5.483858e+01  4.754251e+01
     vertex  8.562543e+01  5.517640e+01  4.754251e+01
     vertex  8.524412e+01  5.483858e+01  4.754251e+01
   endloop
 endfacet
 facet normal  0.000000e+00  0.000000e+00  1.000000e+00
   outer loop
     vertex  8.840760e+01  5.483858e+01  4.754251e+01
     vertex  8.607651e+01  5.541314e+01  4.754251e+01
     vertex  8.562543e+01  5.517640e+01  4.754251e+01
   endloop
 endfacet
 facet normal  0.000000e+00  0.000000e+00  1.000000e+00
   outer loop
     vertex  8.840760e+01  5.483858e+01  4.754251e+01
     vertex  8.657114e+01  5.553506e+01  4.754251e+01
     vertex  8.607651e+01  5.541314e+01  4.754251e+01
   endloop
 endfacet
 facet normal  0.000000e+00  0.000000e+00  1.000000e+00
   outer loop
     vertex  8.840760e+01  5.483858e+01  4.754251e+01
     vertex  8.708057e+01  5.553506e+01  4.754251e+01
     vertex  8.657114e+01  5.553506e+01  4.754251e+01
   endloop
 endfacet
 facet normal  0.000000e+00  0.000000e+00  1.000000e+00
   outer loop
     vertex  8.840760e+01  5.483858e+01  4.754251e+01
     vertex  8.757520e+01  5.541314e+01  4.754251e+01
     vertex  8.708057e+01  5.553506e+01  4.754251e+01
   endloop
 endfacet
 facet normal  0.000000e+00  0.000000e+00  1.000000e+00
   outer loop
     vertex  8.840760e+01  5.483858e+01  4.754251e+01
     vertex  8.802628e+01  5.517640e+01  4.754251e+01
     vertex  8.757520e+01  5.541314e+01  4.754251e+01
   endloop
 endfacet
 facet normal  0.000000e+00  0.000000e+00  1.000000e+00
   outer loop
     vertex  8.887764e+01  5.394300e+01  4.754251e+01
     vertex  8.869699e+01  5.441933e+01  4.754251e+01
     vertex  8.840760e+01  5.483858e+01  4.754251e+01
   endloop
 endfacet
 facet normal  0.000000e+00  0.000000e+00  1.000000e+00
   outer loop
     vertex  8.887764e+01  5.293156e+01  4.754251e+01
     vertex  8.495473e+01  5.441933e+01  4.754251e+01
     vertex  8.477408e+01  5.394300e+01  4.754251e+01
   endloop
 endfacet
 facet normal  0.000000e+00 -0.000000e+00  1.000000e+00
   outer loop
     vertex  8.887764e+01  5.293156e+01  4.754251e+01
     vertex  8.893904e+01  5.343728e+01  4.754251e+01
     vertex  8.887764e+01  5.394300e+01  4.754251e+01
   endloop
 endfacet
 facet normal  0.000000e+00  0.000000e+00  1.000000e+00
   outer loop
     vertex  8.887764e+01  5.293156e+01  4.754251e+01
     vertex  8.840760e+01  5.483858e+01  4.754251e+01
     vertex  8.495473e+01  5.441933e+01  4.754251e+01
   endloop
 endfacet
 facet normal  0.000000e+00  0.000000e+00  1.000000e+00
   outer loop
     vertex  8.887764e+01  5.293156e+01  4.754251e+01
     vertex  8.887764e+01  5.394300e+01  4.754251e+01
     vertex  8.840760e+01  5.483858e+01  4.754251e+01
   endloop
 endfacet
 facet normal  0.000000e+00  0.000000e+00  1.000000e+00
   outer loop
     vertex  8.802628e+01  5.169817e+01  4.754251e+01
     vertex  8.708057e+01  5.133951e+01  4.754251e+01
     vertex  8.757520e+01  5.146142e+01  4.754251e+01
   endloop
 endfacet
 facet normal  0.000000e+00  0.000000e+00  1.000000e+00
   outer loop
     vertex  8.802628e+01  5.169817e+01  4.754251e+01
     vertex  8.657114e+01  5.133951e+01  4.754251e+01
     vertex  8.708057e+01  5.133951e+01  4.754251e+01
   endloop
 endfacet
 facet normal  0.000000e+00  0.000000e+00  1.000000e+00
   outer loop
     vertex  8.840760e+01  5.203598e+01  4.754251e+01
     vertex  8.869699e+01  5.245524e+01  4.754251e+01
     vertex  8.887764e+01  5.293156e+01  4.754251e+01
   endloop
 endfacet
 facet normal  0.000000e+00  0.000000e+00  1.000000e+00
   outer loop
     vertex  8.840760e+01  5.203598e+01  4.754251e+01
     vertex  8.607651e+01  5.146142e+01  4.754251e+01
     vertex  8.657114e+01  5.133951e+01  4.754251e+01
   endloop
 endfacet
 facet normal  0.000000e+00  0.000000e+00  1.000000e+00
   outer loop
     vertex  8.840760e+01  5.203598e+01  4.754251e+01
     vertex  8.562543e+01  5.169817e+01  4.754251e+01
     vertex  8.607651e+01  5.146142e+01  4.754251e+01
   endloop
 endfacet
 facet normal  0.000000e+00  0.000000e+00  1.000000e+00
   outer loop
     vertex  8.840760e+01  5.203598e+01  4.754251e+01
     vertex  8.524412e+01  5.203598e+01  4.754251e+01
     vertex  8.562543e+01  5.169817e+01  4.754251e+01
   endloop
 endfacet
 facet normal  0.000000e+00  0.000000e+00  1.000000e+00
   outer loop
     vertex  8.840760e+01  5.203598e+01  4.754251e+01
     vertex  8.495473e+01  5.245524e+01  4.754251e+01
     vertex  8.524412e+01  5.203598e+01  4.754251e+01
   endloop
 endfacet
 facet normal  0.000000e+00  0.000000e+00  1.000000e+00
   outer loop
     vertex  8.840760e+01  5.203598e+01  4.754251e+01
     vertex  8.477408e+01  5.293156e+01  4.754251e+01
     vertex  8.495473e+01  5.245524e+01  4.754251e+01
   endloop
 endfacet
 facet normal  0.000000e+00  0.000000e+00  1.000000e+00
   outer loop
     vertex  8.840760e+01  5.203598e+01  4.754251e+01
     vertex  8.471267e+01  5.343728e+01  4.754251e+01
     vertex  8.477408e+01  5.293156e+01  4.754251e+01
   endloop
 endfacet
 facet normal  0.000000e+00  0.000000e+00  1.000000e+00
   outer loop
     vertex  8.840760e+01  5.203598e+01  4.754251e+01
     vertex  8.477408e+01  5.394300e+01  4.754251e+01
     vertex  8.471267e+01  5.343728e+01  4.754251e+01
   endloop
 endfacet
 facet normal  0.000000e+00  0.000000e+00  1.000000e+00
   outer loop
     vertex  8.840760e+01  5.203598e+01  4.754251e+01
     vertex  8.657114e+01  5.133951e+01  4.754251e+01
     vertex  8.802628e+01  5.169817e+01  4.754251e+01
   endloop
 endfacet
 facet normal  0.000000e+00 -0.000000e+00  1.000000e+00
   outer loop
     vertex  8.840760e+01  5.203598e+01  4.754251e+01
     vertex  8.887764e+01  5.293156e+01  4.754251e+01
     vertex  8.477408e+01  5.394300e+01  4.754251e+01
   endloop
 endfacet
endsolid
