solid 
 facet normal -1.000000e+00  0.000000e+00  0.000000e+00
   outer loop
     vertex  0.000000e+00  0.000000e+00  6.000000e+01
     vertex  0.000000e+00  1.058998e+02  0.000000e+00
     vertex  0.000000e+00  0.000000e+00  0.000000e+00
   endloop
 endfacet
 facet normal -1.000000e+00  0.000000e+00  0.000000e+00
   outer loop
     vertex  0.000000e+00  0.000000e+00  6.000000e+01
     vertex  0.000000e+00  1.058998e+02  6.000000e+01
     vertex  0.000000e+00  1.058998e+02  0.000000e+00
   endloop
 endfacet
 facet normal  0.000000e+00 -1.000000e+00 -0.000000e+00
   outer loop
     vertex  1.296732e+02  0.000000e+00  6.000000e+01
     vertex  0.000000e+00  0.000000e+00  0.000000e+00
     vertex  1.296732e+02  0.000000e+00  0.000000e+00
   endloop
 endfacet
 facet normal -0.000000e+00 -1.000000e+00  0.000000e+00
   outer loop
     vertex  1.296732e+02  0.000000e+00  6.000000e+01
     vertex  0.000000e+00  0.000000e+00  6.000000e+01
     vertex  0.000000e+00  0.000000e+00  0.000000e+00
   endloop
 endfacet
 facet normal  0.000000e+00  0.000000e+00  1.000000e+00
   outer loop
     vertex  9.482812e+01  3.552697e+01  6.000000e+01
     vertex  9.209042e+01  3.795236e+01  6.000000e+01
     vertex  0.000000e+00  0.000000e+00  6.000000e+01
   endloop
 endfacet
 facet normal  0.000000e+00  0.000000e+00  1.000000e+00
   outer loop
     vertex  9.001270e+01  4.096246e+01  6.000000e+01
     vertex  0.000000e+00  0.000000e+00  6.000000e+01
     vertex  9.209042e+01  3.795236e+01  6.000000e+01
   endloop
 endfacet
 facet normal  0.000000e+00  0.000000e+00  1.000000e+00
   outer loop
     vertex  9.806671e+01  3.382722e+01  6.000000e+01
     vertex  0.000000e+00  0.000000e+00  6.000000e+01
     vertex  1.296732e+02  0.000000e+00  6.000000e+01
   endloop
 endfacet
 facet normal  0.000000e+00  0.000000e+00  1.000000e+00
   outer loop
     vertex  9.806671e+01  3.382722e+01  6.000000e+01
     vertex  9.482812e+01  3.552697e+01  6.000000e+01
     vertex  0.000000e+00  0.000000e+00  6.000000e+01
   endloop
 endfacet
 facet normal  0.000000e+00  0.000000e+00  1.000000e+00
   outer loop
     vertex  8.871572e+01  4.438231e+01  6.000000e+01
     vertex  0.000000e+00  0.000000e+00  6.000000e+01
     vertex  9.001270e+01  4.096246e+01  6.000000e+01
   endloop
 endfacet
 facet normal  0.000000e+00  0.000000e+00  1.000000e+00
   outer loop
     vertex  1.016180e+02  3.295192e+01  6.000000e+01
     vertex  9.806671e+01  3.382722e+01  6.000000e+01
     vertex  1.296732e+02  0.000000e+00  6.000000e+01
   endloop
 endfacet
 facet normal  0.000000e+00  0.000000e+00  1.000000e+00
   outer loop
     vertex  8.827485e+01  4.801318e+01  6.000000e+01
     vertex  0.000000e+00  1.058998e+02  6.000000e+01
     vertex  0.000000e+00  0.000000e+00  6.000000e+01
   endloop
 endfacet
 facet normal  0.000000e+00  0.000000e+00  1.000000e+00
   outer loop
     vertex  8.827485e+01  4.801318e+01  6.000000e+01
     vertex  0.000000e+00  0.000000e+00  6.000000e+01
     vertex  8.871572e+01  4.438231e+01  6.000000e+01
   endloop
 endfacet
 facet normal  0.000000e+00  0.000000e+00  1.000000e+00
   outer loop
     vertex  1.052755e+02  3.295192e+01  6.000000e+01
     vertex  1.016180e+02  3.295192e+01  6.000000e+01
     vertex  1.296732e+02  0.000000e+00  6.000000e+01
   endloop
 endfacet
 facet normal  0.000000e+00  0.000000e+00  1.000000e+00
   outer loop
     vertex  8.871572e+01  5.164405e+01  6.000000e+01
     vertex  0.000000e+00  1.058998e+02  6.000000e+01
     vertex  8.827485e+01  4.801318e+01  6.000000e+01
   endloop
 endfacet
 facet normal  0.000000e+00  0.000000e+00  1.000000e+00
   outer loop
     vertex  1.088268e+02  3.382722e+01  6.000000e+01
     vertex  1.052755e+02  3.295192e+01  6.000000e+01
     vertex  1.296732e+02  0.000000e+00  6.000000e+01
   endloop
 endfacet
 facet normal  0.000000e+00  0.000000e+00  1.000000e+00
   outer loop
     vertex  9.001270e+01  5.506391e+01  6.000000e+01
     vertex  0.000000e+00  1.058998e+02  6.000000e+01
     vertex  8.871572e+01  5.164405e+01  6.000000e+01
   endloop
 endfacet
 facet normal  0.000000e+00  0.000000e+00  1.000000e+00
   outer loop
     vertex  1.120654e+02  3.552697e+01  6.000000e+01
     vertex  1.088268e+02  3.382722e+01  6.000000e+01
     vertex  1.296732e+02  0.000000e+00  6.000000e+01
   endloop
 endfacet
 facet normal  0.000000e+00  0.000000e+00  1.000000e+00
   outer loop
     vertex  9.209042e+01  5.807401e+01  6.000000e+01
     vertex  0.000000e+00  1.058998e+02  6.000000e+01
     vertex  9.001270e+01  5.506391e+01  6.000000e+01
   endloop
 endfacet
 facet normal  0.000000e+00  0.000000e+00  1.000000e+00
   outer loop
     vertex  1.148031e+02  3.795236e+01  6.000000e+01
     vertex  1.120654e+02  3.552697e+01  6.000000e+01
     vertex  1.296732e+02  0.000000e+00  6.000000e+01
   endloop
 endfacet
 facet normal  0.000000e+00  0.000000e+00  1.000000e+00
   outer loop
     vertex  9.482812e+01  6.049940e+01  6.000000e+01
     vertex  0.000000e+00  1.058998e+02  6.000000e+01
     vertex  9.209042e+01  5.807401e+01  6.000000e+01
   endloop
 endfacet
 facet normal  0.000000e+00  0.000000e+00  1.000000e+00
   outer loop
     vertex  1.168808e+02  4.096246e+01  6.000000e+01
     vertex  1.148031e+02  3.795236e+01  6.000000e+01
     vertex  1.296732e+02  0.000000e+00  6.000000e+01
   endloop
 endfacet
 facet normal  0.000000e+00  0.000000e+00  1.000000e+00
   outer loop
     vertex  1.181778e+02  4.438231e+01  6.000000e+01
     vertex  1.168808e+02  4.096246e+01  6.000000e+01
     vertex  1.296732e+02  0.000000e+00  6.000000e+01
   endloop
 endfacet
 facet normal  0.000000e+00  0.000000e+00  1.000000e+00
   outer loop
     vertex  1.186186e+02  4.801318e+01  6.000000e+01
     vertex  1.181778e+02  4.438231e+01  6.000000e+01
     vertex  1.296732e+02  0.000000e+00  6.000000e+01
   endloop
 endfacet
 facet normal  0.000000e+00  0.000000e+00  1.000000e+00
   outer loop
     vertex  1.296732e+02  1.058998e+02  6.000000e+01
     vertex  9.482812e+01  6.049940e+01  6.000000e+01
     vertex  9.806671e+01  6.219915e+01  6.000000e+01
   endloop
 endfacet
 facet normal  0.000000e+00  0.000000e+00  1.000000e+00
   outer loop
     vertex  1.296732e+02  1.058998e+02  6.000000e+01
     vertex  9.806671e+01  6.219915e+01  6.000000e+01
     vertex  1.016180e+02  6.307445e+01  6.000000e+01
   endloop
 endfacet
 facet normal  0.000000e+00  0.000000e+00  1.000000e+00
   outer loop
     vertex  1.296732e+02  1.058998e+02  6.000000e+01
     vertex  1.016180e+02  6.307445e+01  6.000000e+01
     vertex  1.052755e+02  6.307445e+01  6.000000e+01
   endloop
 endfacet
 facet normal  0.000000e+00  0.000000e+00  1.000000e+00
   outer loop
     vertex  1.296732e+02  1.058998e+02  6.000000e+01
     vertex  1.052755e+02  6.307445e+01  6.000000e+01
     vertex  1.088268e+02  6.219915e+01  6.000000e+01
   endloop
 endfacet
 facet normal  0.000000e+00  0.000000e+00  1.000000e+00
   outer loop
     vertex  1.296732e+02  1.058998e+02  6.000000e+01
     vertex  1.088268e+02  6.219915e+01  6.000000e+01
     vertex  1.120654e+02  6.049940e+01  6.000000e+01
   endloop
 endfacet
 facet normal  0.000000e+00  0.000000e+00  1.000000e+00
   outer loop
     vertex  1.296732e+02  1.058998e+02  6.000000e+01
     vertex  1.120654e+02  6.049940e+01  6.000000e+01
     vertex  1.148031e+02  5.807401e+01  6.000000e+01
   endloop
 endfacet
 facet normal  0.000000e+00  0.000000e+00  1.000000e+00
   outer loop
     vertex  1.296732e+02  1.058998e+02  6.000000e+01
     vertex  1.148031e+02  5.807401e+01  6.000000e+01
     vertex  1.168808e+02  5.506391e+01  6.000000e+01
   endloop
 endfacet
 facet normal  0.000000e+00  0.000000e+00  1.000000e+00
   outer loop
     vertex  1.296732e+02  1.058998e+02  6.000000e+01
     vertex  1.168808e+02  5.506391e+01  6.000000e+01
     vertex  1.181778e+02  5.164405e+01  6.000000e+01
   endloop
 endfacet
 facet normal  0.000000e+00  0.000000e+00  1.000000e+00
   outer loop
     vertex  1.296732e+02  1.058998e+02  6.000000e+01
     vertex  1.181778e+02  5.164405e+01  6.000000e+01
     vertex  1.186186e+02  4.801318e+01  6.000000e+01
   endloop
 endfacet
 facet normal  0.000000e+00  0.000000e+00  1.000000e+00
   outer loop
     vertex  1.296732e+02  1.058998e+02  6.000000e+01
     vertex  0.000000e+00  1.058998e+02  6.000000e+01
     vertex  9.482812e+01  6.049940e+01  6.000000e+01
   endloop
 endfacet
 facet normal  0.000000e+00  0.000000e+00  1.000000e+00
   outer loop
     vertex  1.296732e+02  1.058998e+02  6.000000e+01
     vertex  1.186186e+02  4.801318e+01  6.000000e+01
     vertex  1.296732e+02  0.000000e+00  6.000000e+01
   endloop
 endfacet
 facet normal  0.000000e+00  1.000000e+00  0.000000e+00
   outer loop
     vertex  1.296732e+02  1.058998e+02  6.000000e+01
     vertex  1.296732e+02  1.058998e+02  0.000000e+00
     vertex  0.000000e+00  1.058998e+02  0.000000e+00
   endloop
 endfacet
 facet normal  0.000000e+00  1.000000e+00  0.000000e+00
   outer loop
     vertex  1.296732e+02  1.058998e+02  6.000000e+01
     vertex  0.000000e+00  1.058998e+02  0.000000e+00
     vertex  0.000000e+00  1.058998e+02  6.000000e+01
   endloop
 endfacet
 facet normal -0.000000e+00  0.000000e+00 -1.000000e+00
   outer loop
     vertex  1.296732e+02  1.058998e+02  0.000000e+00
     vertex  0.000000e+00  0.000000e+00  0.000000e+00
     vertex  0.000000e+00  1.058998e+02  0.000000e+00
   endloop
 endfacet
 facet normal  0.000000e+00 -0.000000e+00 -1.000000e+00
   outer loop
     vertex  1.296732e+02  1.058998e+02  0.000000e+00
     vertex  1.296732e+02  0.000000e+00  0.000000e+00
     vertex  0.000000e+00  0.000000e+00  0.000000e+00
   endloop
 endfacet
 facet normal  1.000000e+00  0.000000e+00  0.000000e+00
   outer loop
     vertex  1.296732e+02  0.000000e+00  6.000000e+01
     vertex  1.296732e+02  0.000000e+00  0.000000e+00
     vertex  1.296732e+02  1.058998e+02  0.000000e+00
   endloop
 endfacet
 facet normal  1.000000e+00 -0.000000e+00  0.000000e+00
   outer loop
     vertex  1.296732e+02  0.000000e+00  6.000000e+01
     vertex  1.296732e+02  1.058998e+02  0.000000e+00
     vertex  1.296732e+02  1.058998e+02  6.000000e+01
   endloop
 endfacet
 facet normal -7.905479e-01  9.598989e-02  6.048305e-01
   outer loop
     vertex  1.156051e+02  4.801318e+01  5.606117e+01
     vertex  1.181778e+02  4.438231e+01  6.000000e+01
     vertex  1.186186e+02  4.801318e+01  6.000000e+01
   endloop
 endfacet
 facet normal -7.905479e-01  9.598989e-02  6.048305e-01
   outer loop
     vertex  1.093999e+02  4.654585e+01  4.818351e+01
     vertex  1.125916e+02  4.801318e+01  5.212234e+01
     vertex  1.095781e+02  4.801318e+01  4.818351e+01
   endloop
 endfacet
 facet normal -7.905479e-01 -9.598989e-02  6.048305e-01
   outer loop
     vertex  1.156051e+02  4.801318e+01  5.606117e+01
     vertex  1.186186e+02  4.801318e+01  6.000000e+01
     vertex  1.181778e+02  5.164405e+01  6.000000e+01
   endloop
 endfacet
 facet normal -7.905479e-01 -9.598989e-02  6.048305e-01
   outer loop
     vertex  1.095781e+02  4.801318e+01  4.818351e+01
     vertex  1.125916e+02  4.801318e+01  5.212234e+01
     vertex  1.093999e+02  4.948051e+01  4.818351e+01
   endloop
 endfacet
 facet normal -7.521798e-01  2.852642e-01  5.940117e-01
   outer loop
     vertex  1.146796e+02  4.336037e+01  5.606117e+01
     vertex  1.168808e+02  4.096246e+01  6.000000e+01
     vertex  1.181778e+02  4.438231e+01  6.000000e+01
   endloop
 endfacet
 facet normal -7.582475e-01  1.508248e-01  6.342812e-01
   outer loop
     vertex  1.146796e+02  4.336037e+01  5.606117e+01
     vertex  1.181778e+02  4.438231e+01  6.000000e+01
     vertex  1.156051e+02  4.801318e+01  5.606117e+01
   endloop
 endfacet
 facet normal -6.483564e-01  4.332179e-01  6.260641e-01
   outer loop
     vertex  1.120440e+02  3.941591e+01  5.606117e+01
     vertex  1.168808e+02  4.096246e+01  6.000000e+01
     vertex  1.146796e+02  4.336037e+01  5.606117e+01
   endloop
 endfacet
 facet normal -6.465487e-01  4.462803e-01  6.187154e-01
   outer loop
     vertex  1.120440e+02  3.941591e+01  5.606117e+01
     vertex  1.148031e+02  3.795236e+01  6.000000e+01
     vertex  1.168808e+02  4.096246e+01  6.000000e+01
   endloop
 endfacet
 facet normal -5.323768e-01  6.009292e-01  5.962038e-01
   outer loop
     vertex  1.120440e+02  3.941591e+01  5.606117e+01
     vertex  1.120654e+02  3.552697e+01  6.000000e+01
     vertex  1.148031e+02  3.795236e+01  6.000000e+01
   endloop
 endfacet
 facet normal -7.389192e-01  2.802351e-01  6.127534e-01
   outer loop
     vertex  1.118955e+02  4.451359e+01  5.212234e+01
     vertex  1.093999e+02  4.654585e+01  4.818351e+01
     vertex  1.088758e+02  4.516380e+01  4.818351e+01
   endloop
 endfacet
 facet normal -7.844863e-01  1.560440e-01  6.001929e-01
   outer loop
     vertex  1.118955e+02  4.451359e+01  5.212234e+01
     vertex  1.156051e+02  4.801318e+01  5.606117e+01
     vertex  1.125916e+02  4.801318e+01  5.212234e+01
   endloop
 endfacet
 facet normal -7.951619e-01  1.581675e-01  5.854063e-01
   outer loop
     vertex  1.118955e+02  4.451359e+01  5.212234e+01
     vertex  1.125916e+02  4.801318e+01  5.212234e+01
     vertex  1.093999e+02  4.654585e+01  4.818351e+01
   endloop
 endfacet
 facet normal -7.844863e-01  1.560440e-01  6.001929e-01
   outer loop
     vertex  1.118955e+02  4.451359e+01  5.212234e+01
     vertex  1.146796e+02  4.336037e+01  5.606117e+01
     vertex  1.156051e+02  4.801318e+01  5.606117e+01
   endloop
 endfacet
 facet normal -3.718393e-01  7.084805e-01  5.998257e-01
   outer loop
     vertex  1.080995e+02  3.678031e+01  5.606117e+01
     vertex  1.088268e+02  3.382722e+01  6.000000e+01
     vertex  1.120654e+02  3.552697e+01  6.000000e+01
   endloop
 endfacet
 facet normal -1.894212e-01  7.685118e-01  6.111540e-01
   outer loop
     vertex  1.080995e+02  3.678031e+01  5.606117e+01
     vertex  1.052755e+02  3.295192e+01  6.000000e+01
     vertex  1.088268e+02  3.382722e+01  6.000000e+01
   endloop
 endfacet
 facet normal -4.287729e-01  6.417040e-01  6.359008e-01
   outer loop
     vertex  1.080995e+02  3.678031e+01  5.606117e+01
     vertex  1.120654e+02  3.552697e+01  6.000000e+01
     vertex  1.120440e+02  3.941591e+01  5.606117e+01
   endloop
 endfacet
 facet normal -6.620559e-01  4.569842e-01  5.940096e-01
   outer loop
     vertex  1.099131e+02  4.154679e+01  5.212234e+01
     vertex  1.088758e+02  4.516380e+01  4.818351e+01
     vertex  1.080361e+02  4.394734e+01  4.818351e+01
   endloop
 endfacet
 facet normal -5.248550e-01  5.924389e-01  6.111820e-01
   outer loop
     vertex  1.099131e+02  4.154679e+01  5.212234e+01
     vertex  1.080361e+02  4.394734e+01  4.818351e+01
     vertex  1.069297e+02  4.296718e+01  4.818351e+01
   endloop
 endfacet
 facet normal -6.650554e-01  4.443758e-01  6.001929e-01
   outer loop
     vertex  1.099131e+02  4.154679e+01  5.212234e+01
     vertex  1.120440e+02  3.941591e+01  5.606117e+01
     vertex  1.146796e+02  4.336037e+01  5.606117e+01
   endloop
 endfacet
 facet normal -6.718363e-01  4.489067e-01  5.891678e-01
   outer loop
     vertex  1.099131e+02  4.154679e+01  5.212234e+01
     vertex  1.118955e+02  4.451359e+01  5.212234e+01
     vertex  1.088758e+02  4.516380e+01  4.818351e+01
   endloop
 endfacet
 facet normal -6.650554e-01  4.443758e-01  6.001929e-01
   outer loop
     vertex  1.099131e+02  4.154679e+01  5.212234e+01
     vertex  1.146796e+02  4.336037e+01  5.606117e+01
     vertex  1.118955e+02  4.451359e+01  5.212234e+01
   endloop
 endfacet
 facet normal  0.000000e+00  8.049978e-01  5.932778e-01
   outer loop
     vertex  1.034467e+02  3.585481e+01  5.606117e+01
     vertex  1.016180e+02  3.295192e+01  6.000000e+01
     vertex  1.052755e+02  3.295192e+01  6.000000e+01
   endloop
 endfacet
 facet normal -1.513448e-01  7.608618e-01  6.310182e-01
   outer loop
     vertex  1.034467e+02  3.585481e+01  5.606117e+01
     vertex  1.052755e+02  3.295192e+01  6.000000e+01
     vertex  1.080995e+02  3.678031e+01  5.606117e+01
   endloop
 endfacet
 facet normal -3.687657e-01  7.026243e-01  6.085483e-01
   outer loop
     vertex  1.069463e+02  3.956443e+01  5.212234e+01
     vertex  1.069297e+02  4.296718e+01  4.818351e+01
     vertex  1.056209e+02  4.228026e+01  4.818351e+01
   endloop
 endfacet
 facet normal -1.914529e-01  7.767551e-01  5.999977e-01
   outer loop
     vertex  1.069463e+02  3.956443e+01  5.212234e+01
     vertex  1.056209e+02  4.228026e+01  4.818351e+01
     vertex  1.041858e+02  4.192653e+01  4.818351e+01
   endloop
 endfacet
 facet normal -1.560440e-01  7.844863e-01  6.001929e-01
   outer loop
     vertex  1.069463e+02  3.956443e+01  5.212234e+01
     vertex  1.034467e+02  3.585481e+01  5.606117e+01
     vertex  1.080995e+02  3.678031e+01  5.606117e+01
   endloop
 endfacet
 facet normal -4.507267e-01  6.745601e-01  5.846487e-01
   outer loop
     vertex  1.069463e+02  3.956443e+01  5.212234e+01
     vertex  1.099131e+02  4.154679e+01  5.212234e+01
     vertex  1.069297e+02  4.296718e+01  4.818351e+01
   endloop
 endfacet
 facet normal -4.443758e-01  6.650554e-01  6.001929e-01
   outer loop
     vertex  1.069463e+02  3.956443e+01  5.212234e+01
     vertex  1.120440e+02  3.941591e+01  5.606117e+01
     vertex  1.099131e+02  4.154679e+01  5.212234e+01
   endloop
 endfacet
 facet normal -4.443758e-01  6.650554e-01  6.001929e-01
   outer loop
     vertex  1.069463e+02  3.956443e+01  5.212234e+01
     vertex  1.080995e+02  3.678031e+01  5.606117e+01
     vertex  1.120440e+02  3.941591e+01  5.606117e+01
   endloop
 endfacet
 facet normal  1.894212e-01  7.685118e-01  6.111540e-01
   outer loop
     vertex  9.879393e+01  3.678031e+01  5.606117e+01
     vertex  9.806671e+01  3.382722e+01  6.000000e+01
     vertex  1.016180e+02  3.295192e+01  6.000000e+01
   endloop
 endfacet
 facet normal  3.718393e-01  7.084805e-01  5.998257e-01
   outer loop
     vertex  9.879393e+01  3.678031e+01  5.606117e+01
     vertex  9.482812e+01  3.552697e+01  6.000000e+01
     vertex  9.806671e+01  3.382722e+01  6.000000e+01
   endloop
 endfacet
 facet normal  1.513448e-01  7.608618e-01  6.310182e-01
   outer loop
     vertex  9.879393e+01  3.678031e+01  5.606117e+01
     vertex  1.016180e+02  3.295192e+01  6.000000e+01
     vertex  1.034467e+02  3.585481e+01  5.606117e+01
   endloop
 endfacet
 facet normal  0.000000e+00  7.898689e-01  6.132758e-01
   outer loop
     vertex  1.034467e+02  3.886832e+01  5.212234e+01
     vertex  1.041858e+02  4.192653e+01  4.818351e+01
     vertex  1.027077e+02  4.192653e+01  4.818351e+01
   endloop
 endfacet
 facet normal -1.579544e-01  7.940905e-01  5.869162e-01
   outer loop
     vertex  1.034467e+02  3.886832e+01  5.212234e+01
     vertex  1.069463e+02  3.956443e+01  5.212234e+01
     vertex  1.041858e+02  4.192653e+01  4.818351e+01
   endloop
 endfacet
 facet normal -1.560440e-01  7.844863e-01  6.001929e-01
   outer loop
     vertex  1.034467e+02  3.886832e+01  5.212234e+01
     vertex  1.034467e+02  3.585481e+01  5.606117e+01
     vertex  1.069463e+02  3.956443e+01  5.212234e+01
   endloop
 endfacet
 facet normal  5.323768e-01  6.009292e-01  5.962038e-01
   outer loop
     vertex  9.484947e+01  3.941591e+01  5.606117e+01
     vertex  9.209042e+01  3.795236e+01  6.000000e+01
     vertex  9.482812e+01  3.552697e+01  6.000000e+01
   endloop
 endfacet
 facet normal  6.465487e-01  4.462803e-01  6.187154e-01
   outer loop
     vertex  9.484947e+01  3.941591e+01  5.606117e+01
     vertex  9.001270e+01  4.096246e+01  6.000000e+01
     vertex  9.209042e+01  3.795236e+01  6.000000e+01
   endloop
 endfacet
 facet normal  4.287729e-01  6.417040e-01  6.359008e-01
   outer loop
     vertex  9.484947e+01  3.941591e+01  5.606117e+01
     vertex  9.482812e+01  3.552697e+01  6.000000e+01
     vertex  9.879393e+01  3.678031e+01  5.606117e+01
   endloop
 endfacet
 facet normal  1.914529e-01  7.767551e-01  5.999977e-01
   outer loop
     vertex  9.994715e+01  3.956443e+01  5.212234e+01
     vertex  1.027077e+02  4.192653e+01  4.818351e+01
     vertex  1.012725e+02  4.228026e+01  4.818351e+01
   endloop
 endfacet
 facet normal  3.687657e-01  7.026243e-01  6.085483e-01
   outer loop
     vertex  9.994715e+01  3.956443e+01  5.212234e+01
     vertex  1.012725e+02  4.228026e+01  4.818351e+01
     vertex  9.996373e+01  4.296718e+01  4.818351e+01
   endloop
 endfacet
 facet normal  1.560440e-01  7.844863e-01  6.001929e-01
   outer loop
     vertex  9.994715e+01  3.956443e+01  5.212234e+01
     vertex  1.034467e+02  3.585481e+01  5.606117e+01
     vertex  1.034467e+02  3.886832e+01  5.212234e+01
   endloop
 endfacet
 facet normal  1.579544e-01  7.940905e-01  5.869162e-01
   outer loop
     vertex  9.994715e+01  3.956443e+01  5.212234e+01
     vertex  1.034467e+02  3.886832e+01  5.212234e+01
     vertex  1.027077e+02  4.192653e+01  4.818351e+01
   endloop
 endfacet
 facet normal  1.560440e-01  7.844863e-01  6.001929e-01
   outer loop
     vertex  9.994715e+01  3.956443e+01  5.212234e+01
     vertex  9.879393e+01  3.678031e+01  5.606117e+01
     vertex  1.034467e+02  3.585481e+01  5.606117e+01
   endloop
 endfacet
 facet normal  6.483564e-01  4.332179e-01  6.260641e-01
   outer loop
     vertex  9.221386e+01  4.336037e+01  5.606117e+01
     vertex  9.001270e+01  4.096246e+01  6.000000e+01
     vertex  9.484947e+01  3.941591e+01  5.606117e+01
   endloop
 endfacet
 facet normal  7.521798e-01  2.852642e-01  5.940117e-01
   outer loop
     vertex  9.221386e+01  4.336037e+01  5.606117e+01
     vertex  8.871572e+01  4.438231e+01  6.000000e+01
     vertex  9.001270e+01  4.096246e+01  6.000000e+01
   endloop
 endfacet
 facet normal  6.650554e-01  4.443758e-01  6.001929e-01
   outer loop
     vertex  9.698034e+01  4.154679e+01  5.212234e+01
     vertex  9.221386e+01  4.336037e+01  5.606117e+01
     vertex  9.484947e+01  3.941591e+01  5.606117e+01
   endloop
 endfacet
 facet normal  5.248550e-01  5.924389e-01  6.111820e-01
   outer loop
     vertex  9.698034e+01  4.154679e+01  5.212234e+01
     vertex  9.996373e+01  4.296718e+01  4.818351e+01
     vertex  9.885735e+01  4.394734e+01  4.818351e+01
   endloop
 endfacet
 facet normal  6.620559e-01  4.569842e-01  5.940096e-01
   outer loop
     vertex  9.698034e+01  4.154679e+01  5.212234e+01
     vertex  9.885735e+01  4.394734e+01  4.818351e+01
     vertex  9.801769e+01  4.516380e+01  4.818351e+01
   endloop
 endfacet
 facet normal  4.443758e-01  6.650554e-01  6.001929e-01
   outer loop
     vertex  9.698034e+01  4.154679e+01  5.212234e+01
     vertex  9.484947e+01  3.941591e+01  5.606117e+01
     vertex  9.879393e+01  3.678031e+01  5.606117e+01
   endloop
 endfacet
 facet normal  4.507267e-01  6.745601e-01  5.846487e-01
   outer loop
     vertex  9.698034e+01  4.154679e+01  5.212234e+01
     vertex  9.994715e+01  3.956443e+01  5.212234e+01
     vertex  9.996373e+01  4.296718e+01  4.818351e+01
   endloop
 endfacet
 facet normal  4.443758e-01  6.650554e-01  6.001929e-01
   outer loop
     vertex  9.698034e+01  4.154679e+01  5.212234e+01
     vertex  9.879393e+01  3.678031e+01  5.606117e+01
     vertex  9.994715e+01  3.956443e+01  5.212234e+01
   endloop
 endfacet
 facet normal  7.582475e-01  1.508248e-01  6.342812e-01
   outer loop
     vertex  9.128836e+01  4.801318e+01  5.606117e+01
     vertex  8.871572e+01  4.438231e+01  6.000000e+01
     vertex  9.221386e+01  4.336037e+01  5.606117e+01
   endloop
 endfacet
 facet normal  7.905479e-01  9.598989e-02  6.048305e-01
   outer loop
     vertex  9.128836e+01  4.801318e+01  5.606117e+01
     vertex  8.827485e+01  4.801318e+01  6.000000e+01
     vertex  8.871572e+01  4.438231e+01  6.000000e+01
   endloop
 endfacet
 facet normal  7.905479e-01 -9.598989e-02  6.048305e-01
   outer loop
     vertex  9.128836e+01  4.801318e+01  5.606117e+01
     vertex  8.871572e+01  5.164405e+01  6.000000e+01
     vertex  8.827485e+01  4.801318e+01  6.000000e+01
   endloop
 endfacet
 facet normal  6.718363e-01  4.489067e-01  5.891678e-01
   outer loop
     vertex  9.499798e+01  4.451359e+01  5.212234e+01
     vertex  9.698034e+01  4.154679e+01  5.212234e+01
     vertex  9.801769e+01  4.516380e+01  4.818351e+01
   endloop
 endfacet
 facet normal  7.389192e-01  2.802351e-01  6.127534e-01
   outer loop
     vertex  9.499798e+01  4.451359e+01  5.212234e+01
     vertex  9.801769e+01  4.516380e+01  4.818351e+01
     vertex  9.749355e+01  4.654585e+01  4.818351e+01
   endloop
 endfacet
 facet normal  7.844863e-01  1.560440e-01  6.001929e-01
   outer loop
     vertex  9.499798e+01  4.451359e+01  5.212234e+01
     vertex  9.128836e+01  4.801318e+01  5.606117e+01
     vertex  9.221386e+01  4.336037e+01  5.606117e+01
   endloop
 endfacet
 facet normal  6.650554e-01  4.443758e-01  6.001929e-01
   outer loop
     vertex  9.499798e+01  4.451359e+01  5.212234e+01
     vertex  9.221386e+01  4.336037e+01  5.606117e+01
     vertex  9.698034e+01  4.154679e+01  5.212234e+01
   endloop
 endfacet
 facet normal  7.521798e-01 -2.852642e-01  5.940117e-01
   outer loop
     vertex  9.221386e+01  5.266599e+01  5.606117e+01
     vertex  9.001270e+01  5.506391e+01  6.000000e+01
     vertex  8.871572e+01  5.164405e+01  6.000000e+01
   endloop
 endfacet
 facet normal  7.582475e-01 -1.508248e-01  6.342812e-01
   outer loop
     vertex  9.221386e+01  5.266599e+01  5.606117e+01
     vertex  8.871572e+01  5.164405e+01  6.000000e+01
     vertex  9.128836e+01  4.801318e+01  5.606117e+01
   endloop
 endfacet
 facet normal  7.905479e-01  9.598989e-02  6.048305e-01
   outer loop
     vertex  9.430187e+01  4.801318e+01  5.212234e+01
     vertex  9.749355e+01  4.654585e+01  4.818351e+01
     vertex  9.731538e+01  4.801318e+01  4.818351e+01
   endloop
 endfacet
 facet normal  7.905479e-01 -9.598989e-02  6.048305e-01
   outer loop
     vertex  9.430187e+01  4.801318e+01  5.212234e+01
     vertex  9.731538e+01  4.801318e+01  4.818351e+01
     vertex  9.749355e+01  4.948051e+01  4.818351e+01
   endloop
 endfacet
 facet normal  7.844863e-01  1.560440e-01  6.001929e-01
   outer loop
     vertex  9.430187e+01  4.801318e+01  5.212234e+01
     vertex  9.128836e+01  4.801318e+01  5.606117e+01
     vertex  9.499798e+01  4.451359e+01  5.212234e+01
   endloop
 endfacet
 facet normal  7.951619e-01  1.581675e-01  5.854063e-01
   outer loop
     vertex  9.430187e+01  4.801318e+01  5.212234e+01
     vertex  9.499798e+01  4.451359e+01  5.212234e+01
     vertex  9.749355e+01  4.654585e+01  4.818351e+01
   endloop
 endfacet
 facet normal  6.465487e-01 -4.462803e-01  6.187154e-01
   outer loop
     vertex  9.484947e+01  5.661046e+01  5.606117e+01
     vertex  9.209042e+01  5.807401e+01  6.000000e+01
     vertex  9.001270e+01  5.506391e+01  6.000000e+01
   endloop
 endfacet
 facet normal  5.323768e-01 -6.009292e-01  5.962038e-01
   outer loop
     vertex  9.484947e+01  5.661046e+01  5.606117e+01
     vertex  9.482812e+01  6.049940e+01  6.000000e+01
     vertex  9.209042e+01  5.807401e+01  6.000000e+01
   endloop
 endfacet
 facet normal  6.483564e-01 -4.332179e-01  6.260641e-01
   outer loop
     vertex  9.484947e+01  5.661046e+01  5.606117e+01
     vertex  9.001270e+01  5.506391e+01  6.000000e+01
     vertex  9.221386e+01  5.266599e+01  5.606117e+01
   endloop
 endfacet
 facet normal  7.389192e-01 -2.802351e-01  6.127534e-01
   outer loop
     vertex  9.499798e+01  5.151277e+01  5.212234e+01
     vertex  9.749355e+01  4.948051e+01  4.818351e+01
     vertex  9.801769e+01  5.086257e+01  4.818351e+01
   endloop
 endfacet
 facet normal  7.844863e-01 -1.560440e-01  6.001929e-01
   outer loop
     vertex  9.499798e+01  5.151277e+01  5.212234e+01
     vertex  9.221386e+01  5.266599e+01  5.606117e+01
     vertex  9.128836e+01  4.801318e+01  5.606117e+01
   endloop
 endfacet
 facet normal  7.951619e-01 -1.581675e-01  5.854063e-01
   outer loop
     vertex  9.499798e+01  5.151277e+01  5.212234e+01
     vertex  9.430187e+01  4.801318e+01  5.212234e+01
     vertex  9.749355e+01  4.948051e+01  4.818351e+01
   endloop
 endfacet
 facet normal  7.844863e-01 -1.560440e-01  6.001929e-01
   outer loop
     vertex  9.499798e+01  5.151277e+01  5.212234e+01
     vertex  9.128836e+01  4.801318e+01  5.606117e+01
     vertex  9.430187e+01  4.801318e+01  5.212234e+01
   endloop
 endfacet
 facet normal  4.287729e-01 -6.417040e-01  6.359008e-01
   outer loop
     vertex  9.879393e+01  5.924606e+01  5.606117e+01
     vertex  9.482812e+01  6.049940e+01  6.000000e+01
     vertex  9.484947e+01  5.661046e+01  5.606117e+01
   endloop
 endfacet
 facet normal  3.718393e-01 -7.084805e-01  5.998257e-01
   outer loop
     vertex  9.879393e+01  5.924606e+01  5.606117e+01
     vertex  9.806671e+01  6.219915e+01  6.000000e+01
     vertex  9.482812e+01  6.049940e+01  6.000000e+01
   endloop
 endfacet
 facet normal  1.894212e-01 -7.685118e-01  6.111540e-01
   outer loop
     vertex  9.879393e+01  5.924606e+01  5.606117e+01
     vertex  1.016180e+02  6.307445e+01  6.000000e+01
     vertex  9.806671e+01  6.219915e+01  6.000000e+01
   endloop
 endfacet
 facet normal  6.620559e-01 -4.569842e-01  5.940096e-01
   outer loop
     vertex  9.698034e+01  5.447958e+01  5.212234e+01
     vertex  9.801769e+01  5.086257e+01  4.818351e+01
     vertex  9.885735e+01  5.207903e+01  4.818351e+01
   endloop
 endfacet
 facet normal  5.248550e-01 -5.924389e-01  6.111820e-01
   outer loop
     vertex  9.698034e+01  5.447958e+01  5.212234e+01
     vertex  9.885735e+01  5.207903e+01  4.818351e+01
     vertex  9.996373e+01  5.305919e+01  4.818351e+01
   endloop
 endfacet
 facet normal  6.650554e-01 -4.443758e-01  6.001929e-01
   outer loop
     vertex  9.698034e+01  5.447958e+01  5.212234e+01
     vertex  9.221386e+01  5.266599e+01  5.606117e+01
     vertex  9.499798e+01  5.151277e+01  5.212234e+01
   endloop
 endfacet
 facet normal  4.443758e-01 -6.650554e-01  6.001929e-01
   outer loop
     vertex  9.698034e+01  5.447958e+01  5.212234e+01
     vertex  9.879393e+01  5.924606e+01  5.606117e+01
     vertex  9.484947e+01  5.661046e+01  5.606117e+01
   endloop
 endfacet
 facet normal  6.718363e-01 -4.489067e-01  5.891678e-01
   outer loop
     vertex  9.698034e+01  5.447958e+01  5.212234e+01
     vertex  9.499798e+01  5.151277e+01  5.212234e+01
     vertex  9.801769e+01  5.086257e+01  4.818351e+01
   endloop
 endfacet
 facet normal  6.650554e-01 -4.443758e-01  6.001929e-01
   outer loop
     vertex  9.698034e+01  5.447958e+01  5.212234e+01
     vertex  9.484947e+01  5.661046e+01  5.606117e+01
     vertex  9.221386e+01  5.266599e+01  5.606117e+01
   endloop
 endfacet
 facet normal  1.588141e-15 -8.049978e-01  5.932778e-01
   outer loop
     vertex  1.034467e+02  6.017156e+01  5.606117e+01
     vertex  1.052755e+02  6.307445e+01  6.000000e+01
     vertex  1.016180e+02  6.307445e+01  6.000000e+01
   endloop
 endfacet
 facet normal  1.513448e-01 -7.608618e-01  6.310182e-01
   outer loop
     vertex  1.034467e+02  6.017156e+01  5.606117e+01
     vertex  1.016180e+02  6.307445e+01  6.000000e+01
     vertex  9.879393e+01  5.924606e+01  5.606117e+01
   endloop
 endfacet
 facet normal  4.443758e-01 -6.650554e-01  6.001929e-01
   outer loop
     vertex  9.994715e+01  5.646194e+01  5.212234e+01
     vertex  9.879393e+01  5.924606e+01  5.606117e+01
     vertex  9.698034e+01  5.447958e+01  5.212234e+01
   endloop
 endfacet
 facet normal  3.687657e-01 -7.026243e-01  6.085483e-01
   outer loop
     vertex  9.994715e+01  5.646194e+01  5.212234e+01
     vertex  9.996373e+01  5.305919e+01  4.818351e+01
     vertex  1.012725e+02  5.374610e+01  4.818351e+01
   endloop
 endfacet
 facet normal  1.914529e-01 -7.767551e-01  5.999977e-01
   outer loop
     vertex  9.994715e+01  5.646194e+01  5.212234e+01
     vertex  1.012725e+02  5.374610e+01  4.818351e+01
     vertex  1.027077e+02  5.409984e+01  4.818351e+01
   endloop
 endfacet
 facet normal  4.507267e-01 -6.745601e-01  5.846487e-01
   outer loop
     vertex  9.994715e+01  5.646194e+01  5.212234e+01
     vertex  9.698034e+01  5.447958e+01  5.212234e+01
     vertex  9.996373e+01  5.305919e+01  4.818351e+01
   endloop
 endfacet
 facet normal -1.894212e-01 -7.685118e-01  6.111540e-01
   outer loop
     vertex  1.080995e+02  5.924606e+01  5.606117e+01
     vertex  1.088268e+02  6.219915e+01  6.000000e+01
     vertex  1.052755e+02  6.307445e+01  6.000000e+01
   endloop
 endfacet
 facet normal -3.718393e-01 -7.084805e-01  5.998257e-01
   outer loop
     vertex  1.080995e+02  5.924606e+01  5.606117e+01
     vertex  1.120654e+02  6.049940e+01  6.000000e+01
     vertex  1.088268e+02  6.219915e+01  6.000000e+01
   endloop
 endfacet
 facet normal -1.513448e-01 -7.608618e-01  6.310182e-01
   outer loop
     vertex  1.080995e+02  5.924606e+01  5.606117e+01
     vertex  1.052755e+02  6.307445e+01  6.000000e+01
     vertex  1.034467e+02  6.017156e+01  5.606117e+01
   endloop
 endfacet
 facet normal  3.855957e-15 -7.898689e-01  6.132758e-01
   outer loop
     vertex  1.034467e+02  5.715805e+01  5.212234e+01
     vertex  1.027077e+02  5.409984e+01  4.818351e+01
     vertex  1.041858e+02  5.409984e+01  4.818351e+01
   endloop
 endfacet
 facet normal  1.560440e-01 -7.844863e-01  6.001929e-01
   outer loop
     vertex  1.034467e+02  5.715805e+01  5.212234e+01
     vertex  9.879393e+01  5.924606e+01  5.606117e+01
     vertex  9.994715e+01  5.646194e+01  5.212234e+01
   endloop
 endfacet
 facet normal  1.560440e-01 -7.844863e-01  6.001929e-01
   outer loop
     vertex  1.034467e+02  5.715805e+01  5.212234e+01
     vertex  1.034467e+02  6.017156e+01  5.606117e+01
     vertex  9.879393e+01  5.924606e+01  5.606117e+01
   endloop
 endfacet
 facet normal  1.579544e-01 -7.940905e-01  5.869162e-01
   outer loop
     vertex  1.034467e+02  5.715805e+01  5.212234e+01
     vertex  9.994715e+01  5.646194e+01  5.212234e+01
     vertex  1.027077e+02  5.409984e+01  4.818351e+01
   endloop
 endfacet
 facet normal -5.323768e-01 -6.009292e-01  5.962038e-01
   outer loop
     vertex  1.120440e+02  5.661046e+01  5.606117e+01
     vertex  1.148031e+02  5.807401e+01  6.000000e+01
     vertex  1.120654e+02  6.049940e+01  6.000000e+01
   endloop
 endfacet
 facet normal -6.465487e-01 -4.462803e-01  6.187154e-01
   outer loop
     vertex  1.120440e+02  5.661046e+01  5.606117e+01
     vertex  1.168808e+02  5.506391e+01  6.000000e+01
     vertex  1.148031e+02  5.807401e+01  6.000000e+01
   endloop
 endfacet
 facet normal -4.287729e-01 -6.417040e-01  6.359008e-01
   outer loop
     vertex  1.120440e+02  5.661046e+01  5.606117e+01
     vertex  1.120654e+02  6.049940e+01  6.000000e+01
     vertex  1.080995e+02  5.924606e+01  5.606117e+01
   endloop
 endfacet
 facet normal -1.914529e-01 -7.767551e-01  5.999977e-01
   outer loop
     vertex  1.069463e+02  5.646194e+01  5.212234e+01
     vertex  1.041858e+02  5.409984e+01  4.818351e+01
     vertex  1.056209e+02  5.374610e+01  4.818351e+01
   endloop
 endfacet
 facet normal -3.687657e-01 -7.026243e-01  6.085483e-01
   outer loop
     vertex  1.069463e+02  5.646194e+01  5.212234e+01
     vertex  1.056209e+02  5.374610e+01  4.818351e+01
     vertex  1.069297e+02  5.305919e+01  4.818351e+01
   endloop
 endfacet
 facet normal -1.579544e-01 -7.940905e-01  5.869162e-01
   outer loop
     vertex  1.069463e+02  5.646194e+01  5.212234e+01
     vertex  1.034467e+02  5.715805e+01  5.212234e+01
     vertex  1.041858e+02  5.409984e+01  4.818351e+01
   endloop
 endfacet
 facet normal -1.560440e-01 -7.844863e-01  6.001929e-01
   outer loop
     vertex  1.069463e+02  5.646194e+01  5.212234e+01
     vertex  1.080995e+02  5.924606e+01  5.606117e+01
     vertex  1.034467e+02  6.017156e+01  5.606117e+01
   endloop
 endfacet
 facet normal -1.560440e-01 -7.844863e-01  6.001929e-01
   outer loop
     vertex  1.069463e+02  5.646194e+01  5.212234e+01
     vertex  1.034467e+02  6.017156e+01  5.606117e+01
     vertex  1.034467e+02  5.715805e+01  5.212234e+01
   endloop
 endfacet
 facet normal -7.582475e-01 -1.508248e-01  6.342812e-01
   outer loop
     vertex  1.146796e+02  5.266599e+01  5.606117e+01
     vertex  1.156051e+02  4.801318e+01  5.606117e+01
     vertex  1.181778e+02  5.164405e+01  6.000000e+01
   endloop
 endfacet
 facet normal -7.521798e-01 -2.852642e-01  5.940117e-01
   outer loop
     vertex  1.146796e+02  5.266599e+01  5.606117e+01
     vertex  1.181778e+02  5.164405e+01  6.000000e+01
     vertex  1.168808e+02  5.506391e+01  6.000000e+01
   endloop
 endfacet
 facet normal -6.483564e-01 -4.332179e-01  6.260641e-01
   outer loop
     vertex  1.146796e+02  5.266599e+01  5.606117e+01
     vertex  1.168808e+02  5.506391e+01  6.000000e+01
     vertex  1.120440e+02  5.661046e+01  5.606117e+01
   endloop
 endfacet
 facet normal -5.248550e-01 -5.924389e-01  6.111820e-01
   outer loop
     vertex  1.099131e+02  5.447958e+01  5.212234e+01
     vertex  1.069297e+02  5.305919e+01  4.818351e+01
     vertex  1.080361e+02  5.207903e+01  4.818351e+01
   endloop
 endfacet
 facet normal -6.620559e-01 -4.569842e-01  5.940096e-01
   outer loop
     vertex  1.099131e+02  5.447958e+01  5.212234e+01
     vertex  1.080361e+02  5.207903e+01  4.818351e+01
     vertex  1.088758e+02  5.086257e+01  4.818351e+01
   endloop
 endfacet
 facet normal -4.507267e-01 -6.745601e-01  5.846487e-01
   outer loop
     vertex  1.099131e+02  5.447958e+01  5.212234e+01
     vertex  1.069463e+02  5.646194e+01  5.212234e+01
     vertex  1.069297e+02  5.305919e+01  4.818351e+01
   endloop
 endfacet
 facet normal -4.443758e-01 -6.650554e-01  6.001929e-01
   outer loop
     vertex  1.099131e+02  5.447958e+01  5.212234e+01
     vertex  1.120440e+02  5.661046e+01  5.606117e+01
     vertex  1.080995e+02  5.924606e+01  5.606117e+01
   endloop
 endfacet
 facet normal -4.443758e-01 -6.650554e-01  6.001929e-01
   outer loop
     vertex  1.099131e+02  5.447958e+01  5.212234e+01
     vertex  1.080995e+02  5.924606e+01  5.606117e+01
     vertex  1.069463e+02  5.646194e+01  5.212234e+01
   endloop
 endfacet
 facet normal -6.650554e-01 -4.443758e-01  6.001929e-01
   outer loop
     vertex  1.099131e+02  5.447958e+01  5.212234e+01
     vertex  1.146796e+02  5.266599e+01  5.606117e+01
     vertex  1.120440e+02  5.661046e+01  5.606117e+01
   endloop
 endfacet
 facet normal -7.389192e-01 -2.802351e-01  6.127534e-01
   outer loop
     vertex  1.118955e+02  5.151277e+01  5.212234e+01
     vertex  1.088758e+02  5.086257e+01  4.818351e+01
     vertex  1.093999e+02  4.948051e+01  4.818351e+01
   endloop
 endfacet
 facet normal -7.844863e-01 -1.560440e-01  6.001929e-01
   outer loop
     vertex  1.118955e+02  5.151277e+01  5.212234e+01
     vertex  1.156051e+02  4.801318e+01  5.606117e+01
     vertex  1.146796e+02  5.266599e+01  5.606117e+01
   endloop
 endfacet
 facet normal -7.844863e-01 -1.560440e-01  6.001929e-01
   outer loop
     vertex  1.118955e+02  5.151277e+01  5.212234e+01
     vertex  1.125916e+02  4.801318e+01  5.212234e+01
     vertex  1.156051e+02  4.801318e+01  5.606117e+01
   endloop
 endfacet
 facet normal -6.718363e-01 -4.489067e-01  5.891678e-01
   outer loop
     vertex  1.118955e+02  5.151277e+01  5.212234e+01
     vertex  1.099131e+02  5.447958e+01  5.212234e+01
     vertex  1.088758e+02  5.086257e+01  4.818351e+01
   endloop
 endfacet
 facet normal -7.951619e-01 -1.581675e-01  5.854063e-01
   outer loop
     vertex  1.118955e+02  5.151277e+01  5.212234e+01
     vertex  1.093999e+02  4.948051e+01  4.818351e+01
     vertex  1.125916e+02  4.801318e+01  5.212234e+01
   endloop
 endfacet
 facet normal -6.650554e-01 -4.443758e-01  6.001929e-01
   outer loop
     vertex  1.118955e+02  5.151277e+01  5.212234e+01
     vertex  1.146796e+02  5.266599e+01  5.606117e+01
     vertex  1.099131e+02  5.447958e+01  5.212234e+01
   endloop
 endfacet
 facet normal  0.000000e+00  0.000000e+00  1.000000e+00
   outer loop
     vertex  1.027077e+02  5.409984e+01  4.818351e+01
     vertex  9.996373e+01  5.305919e+01  4.818351e+01
     vertex  9.885735e+01  5.207903e+01  4.818351e+01
   endloop
 endfacet
 facet normal  0.000000e+00  0.000000e+00  1.000000e+00
   outer loop
     vertex  1.027077e+02  5.409984e+01  4.818351e+01
     vertex  1.012725e+02  5.374610e+01  4.818351e+01
     vertex  9.996373e+01  5.305919e+01  4.818351e+01
   endloop
 endfacet
 facet normal  0.000000e+00  0.000000e+00  1.000000e+00
   outer loop
     vertex  1.069297e+02  5.305919e+01  4.818351e+01
     vertex  9.801769e+01  5.086257e+01  4.818351e+01
     vertex  9.749355e+01  4.948051e+01  4.818351e+01
   endloop
 endfacet
 facet normal  0.000000e+00  0.000000e+00  1.000000e+00
   outer loop
     vertex  1.069297e+02  5.305919e+01  4.818351e+01
     vertex  9.885735e+01  5.207903e+01  4.818351e+01
     vertex  9.801769e+01  5.086257e+01  4.818351e+01
   endloop
 endfacet
 facet normal  0.000000e+00  0.000000e+00  1.000000e+00
   outer loop
     vertex  1.069297e+02  5.305919e+01  4.818351e+01
     vertex  1.041858e+02  5.409984e+01  4.818351e+01
     vertex  1.027077e+02  5.409984e+01  4.818351e+01
   endloop
 endfacet
 facet normal  0.000000e+00  0.000000e+00  1.000000e+00
   outer loop
     vertex  1.069297e+02  5.305919e+01  4.818351e+01
     vertex  1.056209e+02  5.374610e+01  4.818351e+01
     vertex  1.041858e+02  5.409984e+01  4.818351e+01
   endloop
 endfacet
 facet normal  0.000000e+00  0.000000e+00  1.000000e+00
   outer loop
     vertex  1.069297e+02  5.305919e+01  4.818351e+01
     vertex  1.027077e+02  5.409984e+01  4.818351e+01
     vertex  9.885735e+01  5.207903e+01  4.818351e+01
   endloop
 endfacet
 facet normal  0.000000e+00  0.000000e+00  1.000000e+00
   outer loop
     vertex  9.996373e+01  4.296718e+01  4.818351e+01
     vertex  9.801769e+01  4.516380e+01  4.818351e+01
     vertex  9.885735e+01  4.394734e+01  4.818351e+01
   endloop
 endfacet
 facet normal  0.000000e+00  0.000000e+00  1.000000e+00
   outer loop
     vertex  9.996373e+01  4.296718e+01  4.818351e+01
     vertex  9.749355e+01  4.654585e+01  4.818351e+01
     vertex  9.801769e+01  4.516380e+01  4.818351e+01
   endloop
 endfacet
 facet normal  0.000000e+00  0.000000e+00  1.000000e+00
   outer loop
     vertex  9.996373e+01  4.296718e+01  4.818351e+01
     vertex  9.731538e+01  4.801318e+01  4.818351e+01
     vertex  9.749355e+01  4.654585e+01  4.818351e+01
   endloop
 endfacet
 facet normal  0.000000e+00  0.000000e+00  1.000000e+00
   outer loop
     vertex  1.093999e+02  4.948051e+01  4.818351e+01
     vertex  1.088758e+02  5.086257e+01  4.818351e+01
     vertex  1.080361e+02  5.207903e+01  4.818351e+01
   endloop
 endfacet
 facet normal  0.000000e+00  0.000000e+00  1.000000e+00
   outer loop
     vertex  1.027077e+02  4.192653e+01  4.818351e+01
     vertex  9.996373e+01  4.296718e+01  4.818351e+01
     vertex  1.012725e+02  4.228026e+01  4.818351e+01
   endloop
 endfacet
 facet normal  0.000000e+00  0.000000e+00  1.000000e+00
   outer loop
     vertex  1.027077e+02  4.192653e+01  4.818351e+01
     vertex  9.731538e+01  4.801318e+01  4.818351e+01
     vertex  9.996373e+01  4.296718e+01  4.818351e+01
   endloop
 endfacet
 facet normal  0.000000e+00  0.000000e+00  1.000000e+00
   outer loop
     vertex  1.095781e+02  4.801318e+01  4.818351e+01
     vertex  9.749355e+01  4.948051e+01  4.818351e+01
     vertex  9.731538e+01  4.801318e+01  4.818351e+01
   endloop
 endfacet
 facet normal  0.000000e+00  0.000000e+00  1.000000e+00
   outer loop
     vertex  1.095781e+02  4.801318e+01  4.818351e+01
     vertex  1.080361e+02  5.207903e+01  4.818351e+01
     vertex  1.069297e+02  5.305919e+01  4.818351e+01
   endloop
 endfacet
 facet normal  0.000000e+00  0.000000e+00  1.000000e+00
   outer loop
     vertex  1.095781e+02  4.801318e+01  4.818351e+01
     vertex  1.069297e+02  5.305919e+01  4.818351e+01
     vertex  9.749355e+01  4.948051e+01  4.818351e+01
   endloop
 endfacet
 facet normal  0.000000e+00  0.000000e+00  1.000000e+00
   outer loop
     vertex  1.095781e+02  4.801318e+01  4.818351e+01
     vertex  1.093999e+02  4.948051e+01  4.818351e+01
     vertex  1.080361e+02  5.207903e+01  4.818351e+01
   endloop
 endfacet
 facet normal  0.000000e+00  0.000000e+00  1.000000e+00
   outer loop
     vertex  1.056209e+02  4.228026e+01  4.818351e+01
     vertex  1.027077e+02  4.192653e+01  4.818351e+01
     vertex  1.041858e+02  4.192653e+01  4.818351e+01
   endloop
 endfacet
 facet normal  0.000000e+00  0.000000e+00  1.000000e+00
   outer loop
     vertex  1.056209e+02  4.228026e+01  4.818351e+01
     vertex  9.731538e+01  4.801318e+01  4.818351e+01
     vertex  1.027077e+02  4.192653e+01  4.818351e+01
   endloop
 endfacet
 facet normal  0.000000e+00  0.000000e+00  1.000000e+00
   outer loop
     vertex  1.080361e+02  4.394734e+01  4.818351e+01
     vertex  1.093999e+02  4.654585e+01  4.818351e+01
     vertex  1.095781e+02  4.801318e+01  4.818351e+01
   endloop
 endfacet
 facet normal  0.000000e+00  0.000000e+00  1.000000e+00
   outer loop
     vertex  1.080361e+02  4.394734e+01  4.818351e+01
     vertex  1.088758e+02  4.516380e+01  4.818351e+01
     vertex  1.093999e+02  4.654585e+01  4.818351e+01
   endloop
 endfacet
 facet normal  0.000000e+00  0.000000e+00  1.000000e+00
   outer loop
     vertex  1.080361e+02  4.394734e+01  4.818351e+01
     vertex  1.056209e+02  4.228026e+01  4.818351e+01
     vertex  1.069297e+02  4.296718e+01  4.818351e+01
   endloop
 endfacet
 facet normal  0.000000e+00 -0.000000e+00  1.000000e+00
   outer loop
     vertex  1.080361e+02  4.394734e+01  4.818351e+01
     vertex  1.095781e+02  4.801318e+01  4.818351e+01
     vertex  9.731538e+01  4.801318e+01  4.818351e+01
   endloop
 endfacet
 facet normal  0.000000e+00  0.000000e+00  1.000000e+00
   outer loop
     vertex  1.080361e+02  4.394734e+01  4.818351e+01
     vertex  9.731538e+01  4.801318e+01  4.818351e+01
     vertex  1.056209e+02  4.228026e+01  4.818351e+01
   endloop
 endfacet
endsolid
