solid 
 facet normal -1.000000e+00  0.000000e+00  0.000000e+00
   outer loop
     vertex  0.000000e+00  0.000000e+00  6.000000e+01
     vertex  0.000000e+00  8.719118e+01  0.000000e+00
     vertex  0.000000e+00  0.000000e+00  0.000000e+00
   endloop
 endfacet
 facet normal -1.000000e+00  0.000000e+00  0.000000e+00
   outer loop
     vertex  0.000000e+00  0.000000e+00  6.000000e+01
     vertex  0.000000e+00  8.719118e+01  6.000000e+01
     vertex  0.000000e+00  8.719118e+01  0.000000e+00
   endloop
 endfacet
 facet normal  0.000000e+00 -1.000000e+00 -0.000000e+00
   outer loop
     vertex  1.291226e+02  0.000000e+00  6.000000e+01
     vertex  0.000000e+00  0.000000e+00  0.000000e+00
     vertex  1.291226e+02  0.000000e+00  0.000000e+00
   endloop
 endfacet
 facet normal -0.000000e+00 -1.000000e+00  0.000000e+00
   outer loop
     vertex  1.291226e+02  0.000000e+00  6.000000e+01
     vertex  0.000000e+00  0.000000e+00  6.000000e+01
     vertex  0.000000e+00  0.000000e+00  0.000000e+00
   endloop
 endfacet
 facet normal  0.000000e+00  0.000000e+00  1.000000e+00
   outer loop
     vertex  2.019446e+01  3.175115e+01  6.000000e+01
     vertex  1.866382e+01  3.310718e+01  6.000000e+01
     vertex  0.000000e+00  0.000000e+00  6.000000e+01
   endloop
 endfacet
 facet normal  0.000000e+00  0.000000e+00  1.000000e+00
   outer loop
     vertex  1.750217e+01  3.479012e+01  6.000000e+01
     vertex  0.000000e+00  0.000000e+00  6.000000e+01
     vertex  1.866382e+01  3.310718e+01  6.000000e+01
   endloop
 endfacet
 facet normal  0.000000e+00  0.000000e+00  1.000000e+00
   outer loop
     vertex  2.200515e+01  3.080082e+01  6.000000e+01
     vertex  2.019446e+01  3.175115e+01  6.000000e+01
     vertex  0.000000e+00  0.000000e+00  6.000000e+01
   endloop
 endfacet
 facet normal  0.000000e+00  0.000000e+00  1.000000e+00
   outer loop
     vertex  1.677703e+01  3.670215e+01  6.000000e+01
     vertex  0.000000e+00  0.000000e+00  6.000000e+01
     vertex  1.750217e+01  3.479012e+01  6.000000e+01
   endloop
 endfacet
 facet normal  0.000000e+00  0.000000e+00  1.000000e+00
   outer loop
     vertex  2.399065e+01  3.031144e+01  6.000000e+01
     vertex  2.200515e+01  3.080082e+01  6.000000e+01
     vertex  0.000000e+00  0.000000e+00  6.000000e+01
   endloop
 endfacet
 facet normal  0.000000e+00  0.000000e+00  1.000000e+00
   outer loop
     vertex  1.653054e+01  3.873216e+01  6.000000e+01
     vertex  0.000000e+00  0.000000e+00  6.000000e+01
     vertex  1.677703e+01  3.670215e+01  6.000000e+01
   endloop
 endfacet
 facet normal  0.000000e+00  0.000000e+00  1.000000e+00
   outer loop
     vertex  2.603557e+01  3.031144e+01  6.000000e+01
     vertex  2.399065e+01  3.031144e+01  6.000000e+01
     vertex  0.000000e+00  0.000000e+00  6.000000e+01
   endloop
 endfacet
 facet normal  0.000000e+00  0.000000e+00  1.000000e+00
   outer loop
     vertex  2.802107e+01  3.080082e+01  6.000000e+01
     vertex  2.603557e+01  3.031144e+01  6.000000e+01
     vertex  0.000000e+00  0.000000e+00  6.000000e+01
   endloop
 endfacet
 facet normal  0.000000e+00  0.000000e+00  1.000000e+00
   outer loop
     vertex  2.983175e+01  3.175115e+01  6.000000e+01
     vertex  2.802107e+01  3.080082e+01  6.000000e+01
     vertex  0.000000e+00  0.000000e+00  6.000000e+01
   endloop
 endfacet
 facet normal  0.000000e+00  0.000000e+00  1.000000e+00
   outer loop
     vertex  0.000000e+00  8.719118e+01  6.000000e+01
     vertex  1.653054e+01  3.873216e+01  6.000000e+01
     vertex  1.677703e+01  4.076217e+01  6.000000e+01
   endloop
 endfacet
 facet normal  0.000000e+00  0.000000e+00  1.000000e+00
   outer loop
     vertex  0.000000e+00  8.719118e+01  6.000000e+01
     vertex  1.677703e+01  4.076217e+01  6.000000e+01
     vertex  1.750217e+01  4.267420e+01  6.000000e+01
   endloop
 endfacet
 facet normal  0.000000e+00  0.000000e+00  1.000000e+00
   outer loop
     vertex  0.000000e+00  8.719118e+01  6.000000e+01
     vertex  1.750217e+01  4.267420e+01  6.000000e+01
     vertex  1.866382e+01  4.435714e+01  6.000000e+01
   endloop
 endfacet
 facet normal  0.000000e+00  0.000000e+00  1.000000e+00
   outer loop
     vertex  0.000000e+00  8.719118e+01  6.000000e+01
     vertex  1.866382e+01  4.435714e+01  6.000000e+01
     vertex  2.019446e+01  4.571317e+01  6.000000e+01
   endloop
 endfacet
 facet normal  0.000000e+00  0.000000e+00  1.000000e+00
   outer loop
     vertex  0.000000e+00  8.719118e+01  6.000000e+01
     vertex  2.019446e+01  4.571317e+01  6.000000e+01
     vertex  2.200515e+01  4.666349e+01  6.000000e+01
   endloop
 endfacet
 facet normal  0.000000e+00  0.000000e+00  1.000000e+00
   outer loop
     vertex  0.000000e+00  8.719118e+01  6.000000e+01
     vertex  2.200515e+01  4.666349e+01  6.000000e+01
     vertex  2.399065e+01  4.715288e+01  6.000000e+01
   endloop
 endfacet
 facet normal  0.000000e+00  0.000000e+00  1.000000e+00
   outer loop
     vertex  0.000000e+00  8.719118e+01  6.000000e+01
     vertex  2.399065e+01  4.715288e+01  6.000000e+01
     vertex  2.603557e+01  4.715288e+01  6.000000e+01
   endloop
 endfacet
 facet normal  0.000000e+00  0.000000e+00  1.000000e+00
   outer loop
     vertex  0.000000e+00  8.719118e+01  6.000000e+01
     vertex  2.603557e+01  4.715288e+01  6.000000e+01
     vertex  2.802107e+01  4.666349e+01  6.000000e+01
   endloop
 endfacet
 facet normal  0.000000e+00  0.000000e+00  1.000000e+00
   outer loop
     vertex  0.000000e+00  8.719118e+01  6.000000e+01
     vertex  2.802107e+01  4.666349e+01  6.000000e+01
     vertex  2.983175e+01  4.571317e+01  6.000000e+01
   endloop
 endfacet
 facet normal  0.000000e+00  0.000000e+00  1.000000e+00
   outer loop
     vertex  0.000000e+00  8.719118e+01  6.000000e+01
     vertex  0.000000e+00  0.000000e+00  6.000000e+01
     vertex  1.653054e+01  3.873216e+01  6.000000e+01
   endloop
 endfacet
 facet normal  0.000000e+00  0.000000e+00  1.000000e+00
   outer loop
     vertex  1.291226e+02  0.000000e+00  6.000000e+01
     vertex  3.349567e+01  3.873216e+01  6.000000e+01
     vertex  3.324918e+01  3.670215e+01  6.000000e+01
   endloop
 endfacet
 facet normal  0.000000e+00  0.000000e+00  1.000000e+00
   outer loop
     vertex  1.291226e+02  0.000000e+00  6.000000e+01
     vertex  3.324918e+01  3.670215e+01  6.000000e+01
     vertex  3.252404e+01  3.479012e+01  6.000000e+01
   endloop
 endfacet
 facet normal  0.000000e+00  0.000000e+00  1.000000e+00
   outer loop
     vertex  1.291226e+02  0.000000e+00  6.000000e+01
     vertex  3.252404e+01  3.479012e+01  6.000000e+01
     vertex  3.136240e+01  3.310718e+01  6.000000e+01
   endloop
 endfacet
 facet normal  0.000000e+00  0.000000e+00  1.000000e+00
   outer loop
     vertex  1.291226e+02  0.000000e+00  6.000000e+01
     vertex  3.136240e+01  3.310718e+01  6.000000e+01
     vertex  2.983175e+01  3.175115e+01  6.000000e+01
   endloop
 endfacet
 facet normal  0.000000e+00  0.000000e+00  1.000000e+00
   outer loop
     vertex  1.291226e+02  0.000000e+00  6.000000e+01
     vertex  2.983175e+01  3.175115e+01  6.000000e+01
     vertex  0.000000e+00  0.000000e+00  6.000000e+01
   endloop
 endfacet
 facet normal  0.000000e+00  0.000000e+00  1.000000e+00
   outer loop
     vertex  1.291226e+02  8.719118e+01  6.000000e+01
     vertex  2.983175e+01  4.571317e+01  6.000000e+01
     vertex  3.136240e+01  4.435714e+01  6.000000e+01
   endloop
 endfacet
 facet normal  0.000000e+00  0.000000e+00  1.000000e+00
   outer loop
     vertex  1.291226e+02  8.719118e+01  6.000000e+01
     vertex  3.136240e+01  4.435714e+01  6.000000e+01
     vertex  3.252404e+01  4.267420e+01  6.000000e+01
   endloop
 endfacet
 facet normal  0.000000e+00  0.000000e+00  1.000000e+00
   outer loop
     vertex  1.291226e+02  8.719118e+01  6.000000e+01
     vertex  3.252404e+01  4.267420e+01  6.000000e+01
     vertex  3.324918e+01  4.076217e+01  6.000000e+01
   endloop
 endfacet
 facet normal  0.000000e+00  0.000000e+00  1.000000e+00
   outer loop
     vertex  1.291226e+02  8.719118e+01  6.000000e+01
     vertex  3.324918e+01  4.076217e+01  6.000000e+01
     vertex  3.349567e+01  3.873216e+01  6.000000e+01
   endloop
 endfacet
 facet normal  0.000000e+00  0.000000e+00  1.000000e+00
   outer loop
     vertex  1.291226e+02  8.719118e+01  6.000000e+01
     vertex  0.000000e+00  8.719118e+01  6.000000e+01
     vertex  2.983175e+01  4.571317e+01  6.000000e+01
   endloop
 endfacet
 facet normal  0.000000e+00  0.000000e+00  1.000000e+00
   outer loop
     vertex  1.291226e+02  8.719118e+01  6.000000e+01
     vertex  3.349567e+01  3.873216e+01  6.000000e+01
     vertex  1.291226e+02  0.000000e+00  6.000000e+01
   endloop
 endfacet
 facet normal  0.000000e+00  1.000000e+00  0.000000e+00
   outer loop
     vertex  1.291226e+02  8.719118e+01  6.000000e+01
     vertex  1.291226e+02  8.719118e+01  0.000000e+00
     vertex  0.000000e+00  8.719118e+01  0.000000e+00
   endloop
 endfacet
 facet normal  0.000000e+00  1.000000e+00  0.000000e+00
   outer loop
     vertex  1.291226e+02  8.719118e+01  6.000000e+01
     vertex  0.000000e+00  8.719118e+01  0.000000e+00
     vertex  0.000000e+00  8.719118e+01  6.000000e+01
   endloop
 endfacet
 facet normal -0.000000e+00  0.000000e+00 -1.000000e+00
   outer loop
     vertex  1.291226e+02  8.719118e+01  0.000000e+00
     vertex  0.000000e+00  0.000000e+00  0.000000e+00
     vertex  0.000000e+00  8.719118e+01  0.000000e+00
   endloop
 endfacet
 facet normal  0.000000e+00 -0.000000e+00 -1.000000e+00
   outer loop
     vertex  1.291226e+02  8.719118e+01  0.000000e+00
     vertex  1.291226e+02  0.000000e+00  0.000000e+00
     vertex  0.000000e+00  0.000000e+00  0.000000e+00
   endloop
 endfacet
 facet normal  1.000000e+00  0.000000e+00  0.000000e+00
   outer loop
     vertex  1.291226e+02  0.000000e+00  6.000000e+01
     vertex  1.291226e+02  0.000000e+00  0.000000e+00
     vertex  1.291226e+02  8.719118e+01  0.000000e+00
   endloop
 endfacet
 facet normal  1.000000e+00 -0.000000e+00  0.000000e+00
   outer loop
     vertex  1.291226e+02  0.000000e+00  6.000000e+01
     vertex  1.291226e+02  8.719118e+01  0.000000e+00
     vertex  1.291226e+02  8.719118e+01  6.000000e+01
   endloop
 endfacet
 facet normal -9.013164e-01  1.094396e-01  4.191082e-01
   outer loop
     vertex  3.097282e+01  3.873216e+01  5.457447e+01
     vertex  3.324918e+01  3.670215e+01  6.000000e+01
     vertex  3.349567e+01  3.873216e+01  6.000000e+01
   endloop
 endfacet
 facet normal -9.013164e-01  1.094396e-01  4.191082e-01
   outer loop
     vertex  2.590056e+01  3.851342e+01  4.372340e+01
     vertex  2.844997e+01  3.873216e+01  4.914893e+01
     vertex  2.592712e+01  3.873216e+01  4.372340e+01
   endloop
 endfacet
 facet normal -9.013164e-01 -1.094396e-01  4.191082e-01
   outer loop
     vertex  3.097282e+01  3.873216e+01  5.457447e+01
     vertex  3.349567e+01  3.873216e+01  6.000000e+01
     vertex  3.324918e+01  4.076217e+01  6.000000e+01
   endloop
 endfacet
 facet normal -9.013164e-01 -1.094396e-01  4.191082e-01
   outer loop
     vertex  2.592712e+01  3.873216e+01  4.372340e+01
     vertex  2.844997e+01  3.873216e+01  4.914893e+01
     vertex  2.590056e+01  3.895090e+01  4.372340e+01
   endloop
 endfacet
 facet normal -8.489352e-01  3.219586e-01  4.191082e-01
   outer loop
     vertex  3.029017e+01  3.596254e+01  5.457447e+01
     vertex  3.252404e+01  3.479012e+01  6.000000e+01
     vertex  3.324918e+01  3.670215e+01  6.000000e+01
   endloop
 endfacet
 facet normal -7.472169e-01  5.157666e-01  4.191082e-01
   outer loop
     vertex  3.029017e+01  3.596254e+01  5.457447e+01
     vertex  3.136240e+01  3.310718e+01  6.000000e+01
     vertex  3.252404e+01  3.479012e+01  6.000000e+01
   endloop
 endfacet
 facet normal -8.695072e-01  2.143143e-01  4.450019e-01
   outer loop
     vertex  3.029017e+01  3.596254e+01  5.457447e+01
     vertex  3.324918e+01  3.670215e+01  6.000000e+01
     vertex  3.097282e+01  3.873216e+01  5.457447e+01
   endloop
 endfacet
 facet normal -6.020731e-01  6.796001e-01  4.191082e-01
   outer loop
     vertex  2.839861e+01  3.382741e+01  5.457447e+01
     vertex  2.983175e+01  3.175115e+01  6.000000e+01
     vertex  3.136240e+01  3.310718e+01  6.000000e+01
   endloop
 endfacet
 facet normal -4.219390e-01  8.039377e-01  4.191082e-01
   outer loop
     vertex  2.839861e+01  3.382741e+01  5.457447e+01
     vertex  2.802107e+01  3.080082e+01  6.000000e+01
     vertex  2.983175e+01  3.175115e+01  6.000000e+01
   endloop
 endfacet
 facet normal -6.703135e-01  5.938460e-01  4.450019e-01
   outer loop
     vertex  2.839861e+01  3.382741e+01  5.457447e+01
     vertex  3.136240e+01  3.310718e+01  6.000000e+01
     vertex  3.029017e+01  3.596254e+01  5.457447e+01
   endloop
 endfacet
 facet normal -2.172834e-01  8.815533e-01  4.191082e-01
   outer loop
     vertex  2.573147e+01  3.281590e+01  5.457447e+01
     vertex  2.603557e+01  3.031144e+01  6.000000e+01
     vertex  2.802107e+01  3.080082e+01  6.000000e+01
   endloop
 endfacet
 facet normal  0.000000e+00  9.079363e-01  4.191082e-01
   outer loop
     vertex  2.573147e+01  3.281590e+01  5.457447e+01
     vertex  2.399065e+01  3.031144e+01  6.000000e+01
     vertex  2.603557e+01  3.031144e+01  6.000000e+01
   endloop
 endfacet
 facet normal -3.175592e-01  8.373347e-01  4.450019e-01
   outer loop
     vertex  2.573147e+01  3.281590e+01  5.457447e+01
     vertex  2.802107e+01  3.080082e+01  6.000000e+01
     vertex  2.839861e+01  3.382741e+01  5.457447e+01
   endloop
 endfacet
 facet normal -8.489352e-01  3.219586e-01  4.191082e-01
   outer loop
     vertex  2.805630e+01  3.713497e+01  4.914893e+01
     vertex  2.590056e+01  3.851342e+01  4.372340e+01
     vertex  2.582243e+01  3.830740e+01  4.372340e+01
   endloop
 endfacet
 facet normal -7.472169e-01  5.157666e-01  4.191082e-01
   outer loop
     vertex  2.805630e+01  3.713497e+01  4.914893e+01
     vertex  2.582243e+01  3.830740e+01  4.372340e+01
     vertex  2.569726e+01  3.812606e+01  4.372340e+01
   endloop
 endfacet
 facet normal -8.849307e-01  2.181158e-01  4.114889e-01
   outer loop
     vertex  2.805630e+01  3.713497e+01  4.914893e+01
     vertex  3.029017e+01  3.596254e+01  5.457447e+01
     vertex  3.097282e+01  3.873216e+01  5.457447e+01
   endloop
 endfacet
 facet normal -8.849307e-01  2.181158e-01  4.114889e-01
   outer loop
     vertex  2.805630e+01  3.713497e+01  4.914893e+01
     vertex  3.097282e+01  3.873216e+01  5.457447e+01
     vertex  2.844997e+01  3.873216e+01  4.914893e+01
   endloop
 endfacet
 facet normal -8.865510e-01  2.185152e-01  4.077725e-01
   outer loop
     vertex  2.805630e+01  3.713497e+01  4.914893e+01
     vertex  2.844997e+01  3.873216e+01  4.914893e+01
     vertex  2.590056e+01  3.851342e+01  4.372340e+01
   endloop
 endfacet
 facet normal  2.172834e-01  8.815533e-01  4.191082e-01
   outer loop
     vertex  2.289976e+01  3.315973e+01  5.457447e+01
     vertex  2.200515e+01  3.080082e+01  6.000000e+01
     vertex  2.399065e+01  3.031144e+01  6.000000e+01
   endloop
 endfacet
 facet normal  1.079442e-01  8.890002e-01  4.450019e-01
   outer loop
     vertex  2.289976e+01  3.315973e+01  5.457447e+01
     vertex  2.399065e+01  3.031144e+01  6.000000e+01
     vertex  2.573147e+01  3.281590e+01  5.457447e+01
   endloop
 endfacet
 facet normal  4.219390e-01  8.039377e-01  4.191082e-01
   outer loop
     vertex  2.289976e+01  3.315973e+01  5.457447e+01
     vertex  2.019446e+01  3.175115e+01  6.000000e+01
     vertex  2.200515e+01  3.080082e+01  6.000000e+01
   endloop
 endfacet
 facet normal -6.020731e-01  6.796001e-01  4.191082e-01
   outer loop
     vertex  2.696547e+01  3.590368e+01  4.914893e+01
     vertex  2.569726e+01  3.812606e+01  4.372340e+01
     vertex  2.553233e+01  3.797994e+01  4.372340e+01
   endloop
 endfacet
 facet normal -4.219390e-01  8.039377e-01  4.191082e-01
   outer loop
     vertex  2.696547e+01  3.590368e+01  4.914893e+01
     vertex  2.553233e+01  3.797994e+01  4.372340e+01
     vertex  2.533722e+01  3.787754e+01  4.372340e+01
   endloop
 endfacet
 facet normal -6.822037e-01  6.043798e-01  4.114889e-01
   outer loop
     vertex  2.696547e+01  3.590368e+01  4.914893e+01
     vertex  3.029017e+01  3.596254e+01  5.457447e+01
     vertex  2.805630e+01  3.713497e+01  4.914893e+01
   endloop
 endfacet
 facet normal -6.822037e-01  6.043798e-01  4.114889e-01
   outer loop
     vertex  2.696547e+01  3.590368e+01  4.914893e+01
     vertex  2.839861e+01  3.382741e+01  5.457447e+01
     vertex  3.029017e+01  3.596254e+01  5.457447e+01
   endloop
 endfacet
 facet normal -6.834528e-01  6.054864e-01  4.077725e-01
   outer loop
     vertex  2.696547e+01  3.590368e+01  4.914893e+01
     vertex  2.805630e+01  3.713497e+01  4.914893e+01
     vertex  2.569726e+01  3.812606e+01  4.372340e+01
   endloop
 endfacet
 facet normal  5.087188e-01  7.370064e-01  4.450019e-01
   outer loop
     vertex  2.055220e+01  3.478014e+01  5.457447e+01
     vertex  2.019446e+01  3.175115e+01  6.000000e+01
     vertex  2.289976e+01  3.315973e+01  5.457447e+01
   endloop
 endfacet
 facet normal  6.020731e-01  6.796001e-01  4.191082e-01
   outer loop
     vertex  2.055220e+01  3.478014e+01  5.457447e+01
     vertex  1.866382e+01  3.310718e+01  6.000000e+01
     vertex  2.019446e+01  3.175115e+01  6.000000e+01
   endloop
 endfacet
 facet normal  7.472169e-01  5.157666e-01  4.191082e-01
   outer loop
     vertex  2.055220e+01  3.478014e+01  5.457447e+01
     vertex  1.750217e+01  3.479012e+01  6.000000e+01
     vertex  1.866382e+01  3.310718e+01  6.000000e+01
   endloop
 endfacet
 facet normal -2.172834e-01  8.815533e-01  4.191082e-01
   outer loop
     vertex  2.542738e+01  3.532035e+01  4.914893e+01
     vertex  2.533722e+01  3.787754e+01  4.372340e+01
     vertex  2.512328e+01  3.782481e+01  4.372340e+01
   endloop
 endfacet
 facet normal  0.000000e+00  9.079363e-01  4.191082e-01
   outer loop
     vertex  2.542738e+01  3.532035e+01  4.914893e+01
     vertex  2.512328e+01  3.782481e+01  4.372340e+01
     vertex  2.490293e+01  3.782481e+01  4.372340e+01
   endloop
 endfacet
 facet normal -3.231921e-01  8.521876e-01  4.114889e-01
   outer loop
     vertex  2.542738e+01  3.532035e+01  4.914893e+01
     vertex  2.573147e+01  3.281590e+01  5.457447e+01
     vertex  2.839861e+01  3.382741e+01  5.457447e+01
   endloop
 endfacet
 facet normal -3.231921e-01  8.521876e-01  4.114889e-01
   outer loop
     vertex  2.542738e+01  3.532035e+01  4.914893e+01
     vertex  2.839861e+01  3.382741e+01  5.457447e+01
     vertex  2.696547e+01  3.590368e+01  4.914893e+01
   endloop
 endfacet
 facet normal -3.237839e-01  8.537479e-01  4.077725e-01
   outer loop
     vertex  2.542738e+01  3.532035e+01  4.914893e+01
     vertex  2.696547e+01  3.590368e+01  4.914893e+01
     vertex  2.533722e+01  3.787754e+01  4.372340e+01
   endloop
 endfacet
 facet normal  7.929521e-01  4.161734e-01  4.450019e-01
   outer loop
     vertex  1.922657e+01  3.730591e+01  5.457447e+01
     vertex  1.750217e+01  3.479012e+01  6.000000e+01
     vertex  2.055220e+01  3.478014e+01  5.457447e+01
   endloop
 endfacet
 facet normal  8.489352e-01  3.219586e-01  4.191082e-01
   outer loop
     vertex  1.922657e+01  3.730591e+01  5.457447e+01
     vertex  1.677703e+01  3.670215e+01  6.000000e+01
     vertex  1.750217e+01  3.479012e+01  6.000000e+01
   endloop
 endfacet
 facet normal  9.013164e-01  1.094396e-01  4.191082e-01
   outer loop
     vertex  1.922657e+01  3.730591e+01  5.457447e+01
     vertex  1.653054e+01  3.873216e+01  6.000000e+01
     vertex  1.677703e+01  3.670215e+01  6.000000e+01
   endloop
 endfacet
 facet normal  2.172834e-01  8.815533e-01  4.191082e-01
   outer loop
     vertex  2.379438e+01  3.551864e+01  4.914893e+01
     vertex  2.490293e+01  3.782481e+01  4.372340e+01
     vertex  2.468899e+01  3.787754e+01  4.372340e+01
   endloop
 endfacet
 facet normal  4.219390e-01  8.039377e-01  4.191082e-01
   outer loop
     vertex  2.379438e+01  3.551864e+01  4.914893e+01
     vertex  2.468899e+01  3.787754e+01  4.372340e+01
     vertex  2.449389e+01  3.797994e+01  4.372340e+01
   endloop
 endfacet
 facet normal  1.098589e-01  9.047695e-01  4.114889e-01
   outer loop
     vertex  2.379438e+01  3.551864e+01  4.914893e+01
     vertex  2.573147e+01  3.281590e+01  5.457447e+01
     vertex  2.542738e+01  3.532035e+01  4.914893e+01
   endloop
 endfacet
 facet normal  1.100601e-01  9.064261e-01  4.077725e-01
   outer loop
     vertex  2.379438e+01  3.551864e+01  4.914893e+01
     vertex  2.542738e+01  3.532035e+01  4.914893e+01
     vertex  2.490293e+01  3.782481e+01  4.372340e+01
   endloop
 endfacet
 facet normal  1.098589e-01  9.047695e-01  4.114889e-01
   outer loop
     vertex  2.379438e+01  3.551864e+01  4.914893e+01
     vertex  2.289976e+01  3.315973e+01  5.457447e+01
     vertex  2.573147e+01  3.281590e+01  5.457447e+01
   endloop
 endfacet
 facet normal  5.177426e-01  7.500796e-01  4.114889e-01
   outer loop
     vertex  2.379438e+01  3.551864e+01  4.914893e+01
     vertex  2.055220e+01  3.478014e+01  5.457447e+01
     vertex  2.289976e+01  3.315973e+01  5.457447e+01
   endloop
 endfacet
 facet normal  8.955296e-01  1.115356e-15  4.450019e-01
   outer loop
     vertex  1.922657e+01  4.015841e+01  5.457447e+01
     vertex  1.653054e+01  3.873216e+01  6.000000e+01
     vertex  1.922657e+01  3.730591e+01  5.457447e+01
   endloop
 endfacet
 facet normal  9.013164e-01 -1.094396e-01  4.191082e-01
   outer loop
     vertex  1.922657e+01  4.015841e+01  5.457447e+01
     vertex  1.677703e+01  4.076217e+01  6.000000e+01
     vertex  1.653054e+01  3.873216e+01  6.000000e+01
   endloop
 endfacet
 facet normal  8.489352e-01 -3.219586e-01  4.191082e-01
   outer loop
     vertex  1.922657e+01  4.015841e+01  5.457447e+01
     vertex  1.750217e+01  4.267420e+01  6.000000e+01
     vertex  1.677703e+01  4.076217e+01  6.000000e+01
   endloop
 endfacet
 facet normal  6.020731e-01  6.796001e-01  4.191082e-01
   outer loop
     vertex  2.244058e+01  3.645310e+01  4.914893e+01
     vertex  2.449389e+01  3.797994e+01  4.372340e+01
     vertex  2.432896e+01  3.812606e+01  4.372340e+01
   endloop
 endfacet
 facet normal  7.472169e-01  5.157666e-01  4.191082e-01
   outer loop
     vertex  2.244058e+01  3.645310e+01  4.914893e+01
     vertex  2.432896e+01  3.812606e+01  4.372340e+01
     vertex  2.420379e+01  3.830740e+01  4.372340e+01
   endloop
 endfacet
 facet normal  5.186906e-01  7.514530e-01  4.077725e-01
   outer loop
     vertex  2.244058e+01  3.645310e+01  4.914893e+01
     vertex  2.379438e+01  3.551864e+01  4.914893e+01
     vertex  2.449389e+01  3.797994e+01  4.372340e+01
   endloop
 endfacet
 facet normal  5.177426e-01  7.500796e-01  4.114889e-01
   outer loop
     vertex  2.244058e+01  3.645310e+01  4.914893e+01
     vertex  2.055220e+01  3.478014e+01  5.457447e+01
     vertex  2.379438e+01  3.551864e+01  4.914893e+01
   endloop
 endfacet
 facet normal  7.929521e-01 -4.161734e-01  4.450019e-01
   outer loop
     vertex  2.055220e+01  4.268418e+01  5.457447e+01
     vertex  1.750217e+01  4.267420e+01  6.000000e+01
     vertex  1.922657e+01  4.015841e+01  5.457447e+01
   endloop
 endfacet
 facet normal  7.472169e-01 -5.157666e-01  4.191082e-01
   outer loop
     vertex  2.055220e+01  4.268418e+01  5.457447e+01
     vertex  1.866382e+01  4.435714e+01  6.000000e+01
     vertex  1.750217e+01  4.267420e+01  6.000000e+01
   endloop
 endfacet
 facet normal  6.020731e-01 -6.796001e-01  4.191082e-01
   outer loop
     vertex  2.055220e+01  4.268418e+01  5.457447e+01
     vertex  2.019446e+01  4.571317e+01  6.000000e+01
     vertex  1.866382e+01  4.435714e+01  6.000000e+01
   endloop
 endfacet
 facet normal  8.489352e-01  3.219586e-01  4.191082e-01
   outer loop
     vertex  2.167611e+01  3.790966e+01  4.914893e+01
     vertex  2.420379e+01  3.830740e+01  4.372340e+01
     vertex  2.412565e+01  3.851342e+01  4.372340e+01
   endloop
 endfacet
 facet normal  9.013164e-01  1.094396e-01  4.191082e-01
   outer loop
     vertex  2.167611e+01  3.790966e+01  4.914893e+01
     vertex  2.412565e+01  3.851342e+01  4.372340e+01
     vertex  2.409909e+01  3.873216e+01  4.372340e+01
   endloop
 endfacet
 facet normal  8.070177e-01  4.235556e-01  4.114889e-01
   outer loop
     vertex  2.167611e+01  3.790966e+01  4.914893e+01
     vertex  1.922657e+01  3.730591e+01  5.457447e+01
     vertex  2.055220e+01  3.478014e+01  5.457447e+01
   endloop
 endfacet
 facet normal  8.070177e-01  4.235556e-01  4.114889e-01
   outer loop
     vertex  2.167611e+01  3.790966e+01  4.914893e+01
     vertex  2.055220e+01  3.478014e+01  5.457447e+01
     vertex  2.244058e+01  3.645310e+01  4.914893e+01
   endloop
 endfacet
 facet normal  8.084953e-01  4.243311e-01  4.077725e-01
   outer loop
     vertex  2.167611e+01  3.790966e+01  4.914893e+01
     vertex  2.244058e+01  3.645310e+01  4.914893e+01
     vertex  2.420379e+01  3.830740e+01  4.372340e+01
   endloop
 endfacet
 facet normal  5.087188e-01 -7.370064e-01  4.450019e-01
   outer loop
     vertex  2.289976e+01  4.430459e+01  5.457447e+01
     vertex  2.019446e+01  4.571317e+01  6.000000e+01
     vertex  2.055220e+01  4.268418e+01  5.457447e+01
   endloop
 endfacet
 facet normal  4.219390e-01 -8.039377e-01  4.191082e-01
   outer loop
     vertex  2.289976e+01  4.430459e+01  5.457447e+01
     vertex  2.200515e+01  4.666349e+01  6.000000e+01
     vertex  2.019446e+01  4.571317e+01  6.000000e+01
   endloop
 endfacet
 facet normal  2.172834e-01 -8.815533e-01  4.191082e-01
   outer loop
     vertex  2.289976e+01  4.430459e+01  5.457447e+01
     vertex  2.399065e+01  4.715288e+01  6.000000e+01
     vertex  2.200515e+01  4.666349e+01  6.000000e+01
   endloop
 endfacet
 facet normal  9.114148e-01  0.000000e+00  4.114889e-01
   outer loop
     vertex  2.167611e+01  3.955465e+01  4.914893e+01
     vertex  1.922657e+01  3.730591e+01  5.457447e+01
     vertex  2.167611e+01  3.790966e+01  4.914893e+01
   endloop
 endfacet
 facet normal  9.013164e-01 -1.094396e-01  4.191082e-01
   outer loop
     vertex  2.167611e+01  3.955465e+01  4.914893e+01
     vertex  2.409909e+01  3.873216e+01  4.372340e+01
     vertex  2.412565e+01  3.895090e+01  4.372340e+01
   endloop
 endfacet
 facet normal  8.489352e-01 -3.219586e-01  4.191082e-01
   outer loop
     vertex  2.167611e+01  3.955465e+01  4.914893e+01
     vertex  2.412565e+01  3.895090e+01  4.372340e+01
     vertex  2.420379e+01  3.915692e+01  4.372340e+01
   endloop
 endfacet
 facet normal  9.130835e-01  0.000000e+00  4.077725e-01
   outer loop
     vertex  2.167611e+01  3.955465e+01  4.914893e+01
     vertex  2.167611e+01  3.790966e+01  4.914893e+01
     vertex  2.409909e+01  3.873216e+01  4.372340e+01
   endloop
 endfacet
 facet normal  9.114148e-01  1.150721e-15  4.114889e-01
   outer loop
     vertex  2.167611e+01  3.955465e+01  4.914893e+01
     vertex  1.922657e+01  4.015841e+01  5.457447e+01
     vertex  1.922657e+01  3.730591e+01  5.457447e+01
   endloop
 endfacet
 facet normal  0.000000e+00 -9.079363e-01  4.191082e-01
   outer loop
     vertex  2.573147e+01  4.464842e+01  5.457447e+01
     vertex  2.603557e+01  4.715288e+01  6.000000e+01
     vertex  2.399065e+01  4.715288e+01  6.000000e+01
   endloop
 endfacet
 facet normal -2.172834e-01 -8.815533e-01  4.191082e-01
   outer loop
     vertex  2.573147e+01  4.464842e+01  5.457447e+01
     vertex  2.802107e+01  4.666349e+01  6.000000e+01
     vertex  2.603557e+01  4.715288e+01  6.000000e+01
   endloop
 endfacet
 facet normal  1.079442e-01 -8.890002e-01  4.450019e-01
   outer loop
     vertex  2.573147e+01  4.464842e+01  5.457447e+01
     vertex  2.399065e+01  4.715288e+01  6.000000e+01
     vertex  2.289976e+01  4.430459e+01  5.457447e+01
   endloop
 endfacet
 facet normal  8.070177e-01 -4.235556e-01  4.114889e-01
   outer loop
     vertex  2.244058e+01  4.101122e+01  4.914893e+01
     vertex  2.055220e+01  4.268418e+01  5.457447e+01
     vertex  1.922657e+01  4.015841e+01  5.457447e+01
   endloop
 endfacet
 facet normal  7.472169e-01 -5.157666e-01  4.191082e-01
   outer loop
     vertex  2.244058e+01  4.101122e+01  4.914893e+01
     vertex  2.420379e+01  3.915692e+01  4.372340e+01
     vertex  2.432896e+01  3.933826e+01  4.372340e+01
   endloop
 endfacet
 facet normal  6.020731e-01 -6.796001e-01  4.191082e-01
   outer loop
     vertex  2.244058e+01  4.101122e+01  4.914893e+01
     vertex  2.432896e+01  3.933826e+01  4.372340e+01
     vertex  2.449389e+01  3.948438e+01  4.372340e+01
   endloop
 endfacet
 facet normal  5.177426e-01 -7.500796e-01  4.114889e-01
   outer loop
     vertex  2.244058e+01  4.101122e+01  4.914893e+01
     vertex  2.289976e+01  4.430459e+01  5.457447e+01
     vertex  2.055220e+01  4.268418e+01  5.457447e+01
   endloop
 endfacet
 facet normal  8.070177e-01 -4.235556e-01  4.114889e-01
   outer loop
     vertex  2.244058e+01  4.101122e+01  4.914893e+01
     vertex  1.922657e+01  4.015841e+01  5.457447e+01
     vertex  2.167611e+01  3.955465e+01  4.914893e+01
   endloop
 endfacet
 facet normal  8.084953e-01 -4.243311e-01  4.077725e-01
   outer loop
     vertex  2.244058e+01  4.101122e+01  4.914893e+01
     vertex  2.167611e+01  3.955465e+01  4.914893e+01
     vertex  2.420379e+01  3.915692e+01  4.372340e+01
   endloop
 endfacet
 facet normal -4.219390e-01 -8.039377e-01  4.191082e-01
   outer loop
     vertex  2.839861e+01  4.363691e+01  5.457447e+01
     vertex  2.983175e+01  4.571317e+01  6.000000e+01
     vertex  2.802107e+01  4.666349e+01  6.000000e+01
   endloop
 endfacet
 facet normal -6.020731e-01 -6.796001e-01  4.191082e-01
   outer loop
     vertex  2.839861e+01  4.363691e+01  5.457447e+01
     vertex  3.136240e+01  4.435714e+01  6.000000e+01
     vertex  2.983175e+01  4.571317e+01  6.000000e+01
   endloop
 endfacet
 facet normal -3.175592e-01 -8.373347e-01  4.450019e-01
   outer loop
     vertex  2.839861e+01  4.363691e+01  5.457447e+01
     vertex  2.802107e+01  4.666349e+01  6.000000e+01
     vertex  2.573147e+01  4.464842e+01  5.457447e+01
   endloop
 endfacet
 facet normal  4.219390e-01 -8.039377e-01  4.191082e-01
   outer loop
     vertex  2.379438e+01  4.194568e+01  4.914893e+01
     vertex  2.449389e+01  3.948438e+01  4.372340e+01
     vertex  2.468899e+01  3.958678e+01  4.372340e+01
   endloop
 endfacet
 facet normal  2.172834e-01 -8.815533e-01  4.191082e-01
   outer loop
     vertex  2.379438e+01  4.194568e+01  4.914893e+01
     vertex  2.468899e+01  3.958678e+01  4.372340e+01
     vertex  2.490293e+01  3.963951e+01  4.372340e+01
   endloop
 endfacet
 facet normal  1.098589e-01 -9.047695e-01  4.114889e-01
   outer loop
     vertex  2.379438e+01  4.194568e+01  4.914893e+01
     vertex  2.573147e+01  4.464842e+01  5.457447e+01
     vertex  2.289976e+01  4.430459e+01  5.457447e+01
   endloop
 endfacet
 facet normal  5.177426e-01 -7.500796e-01  4.114889e-01
   outer loop
     vertex  2.379438e+01  4.194568e+01  4.914893e+01
     vertex  2.289976e+01  4.430459e+01  5.457447e+01
     vertex  2.244058e+01  4.101122e+01  4.914893e+01
   endloop
 endfacet
 facet normal  5.186906e-01 -7.514530e-01  4.077725e-01
   outer loop
     vertex  2.379438e+01  4.194568e+01  4.914893e+01
     vertex  2.244058e+01  4.101122e+01  4.914893e+01
     vertex  2.449389e+01  3.948438e+01  4.372340e+01
   endloop
 endfacet
 facet normal -8.695072e-01 -2.143143e-01  4.450019e-01
   outer loop
     vertex  3.029017e+01  4.150178e+01  5.457447e+01
     vertex  3.097282e+01  3.873216e+01  5.457447e+01
     vertex  3.324918e+01  4.076217e+01  6.000000e+01
   endloop
 endfacet
 facet normal -7.472169e-01 -5.157666e-01  4.191082e-01
   outer loop
     vertex  3.029017e+01  4.150178e+01  5.457447e+01
     vertex  3.252404e+01  4.267420e+01  6.000000e+01
     vertex  3.136240e+01  4.435714e+01  6.000000e+01
   endloop
 endfacet
 facet normal -8.489352e-01 -3.219586e-01  4.191082e-01
   outer loop
     vertex  3.029017e+01  4.150178e+01  5.457447e+01
     vertex  3.324918e+01  4.076217e+01  6.000000e+01
     vertex  3.252404e+01  4.267420e+01  6.000000e+01
   endloop
 endfacet
 facet normal -6.703135e-01 -5.938460e-01  4.450019e-01
   outer loop
     vertex  3.029017e+01  4.150178e+01  5.457447e+01
     vertex  3.136240e+01  4.435714e+01  6.000000e+01
     vertex  2.839861e+01  4.363691e+01  5.457447e+01
   endloop
 endfacet
 facet normal  0.000000e+00 -9.079363e-01  4.191082e-01
   outer loop
     vertex  2.542738e+01  4.214396e+01  4.914893e+01
     vertex  2.490293e+01  3.963951e+01  4.372340e+01
     vertex  2.512328e+01  3.963951e+01  4.372340e+01
   endloop
 endfacet
 facet normal -2.172834e-01 -8.815533e-01  4.191082e-01
   outer loop
     vertex  2.542738e+01  4.214396e+01  4.914893e+01
     vertex  2.512328e+01  3.963951e+01  4.372340e+01
     vertex  2.533722e+01  3.958678e+01  4.372340e+01
   endloop
 endfacet
 facet normal  1.100601e-01 -9.064261e-01  4.077725e-01
   outer loop
     vertex  2.542738e+01  4.214396e+01  4.914893e+01
     vertex  2.379438e+01  4.194568e+01  4.914893e+01
     vertex  2.490293e+01  3.963951e+01  4.372340e+01
   endloop
 endfacet
 facet normal  1.098589e-01 -9.047695e-01  4.114889e-01
   outer loop
     vertex  2.542738e+01  4.214396e+01  4.914893e+01
     vertex  2.573147e+01  4.464842e+01  5.457447e+01
     vertex  2.379438e+01  4.194568e+01  4.914893e+01
   endloop
 endfacet
 facet normal -3.231921e-01 -8.521876e-01  4.114889e-01
   outer loop
     vertex  2.696547e+01  4.156064e+01  4.914893e+01
     vertex  2.839861e+01  4.363691e+01  5.457447e+01
     vertex  2.573147e+01  4.464842e+01  5.457447e+01
   endloop
 endfacet
 facet normal -3.237839e-01 -8.537479e-01  4.077725e-01
   outer loop
     vertex  2.696547e+01  4.156064e+01  4.914893e+01
     vertex  2.542738e+01  4.214396e+01  4.914893e+01
     vertex  2.533722e+01  3.958678e+01  4.372340e+01
   endloop
 endfacet
 facet normal -4.219390e-01 -8.039377e-01  4.191082e-01
   outer loop
     vertex  2.696547e+01  4.156064e+01  4.914893e+01
     vertex  2.533722e+01  3.958678e+01  4.372340e+01
     vertex  2.553233e+01  3.948438e+01  4.372340e+01
   endloop
 endfacet
 facet normal -6.020731e-01 -6.796001e-01  4.191082e-01
   outer loop
     vertex  2.696547e+01  4.156064e+01  4.914893e+01
     vertex  2.553233e+01  3.948438e+01  4.372340e+01
     vertex  2.569726e+01  3.933826e+01  4.372340e+01
   endloop
 endfacet
 facet normal -3.231921e-01 -8.521876e-01  4.114889e-01
   outer loop
     vertex  2.696547e+01  4.156064e+01  4.914893e+01
     vertex  2.573147e+01  4.464842e+01  5.457447e+01
     vertex  2.542738e+01  4.214396e+01  4.914893e+01
   endloop
 endfacet
 facet normal -6.822037e-01 -6.043798e-01  4.114889e-01
   outer loop
     vertex  2.696547e+01  4.156064e+01  4.914893e+01
     vertex  3.029017e+01  4.150178e+01  5.457447e+01
     vertex  2.839861e+01  4.363691e+01  5.457447e+01
   endloop
 endfacet
 facet normal -7.472169e-01 -5.157666e-01  4.191082e-01
   outer loop
     vertex  2.805630e+01  4.032935e+01  4.914893e+01
     vertex  2.569726e+01  3.933826e+01  4.372340e+01
     vertex  2.582243e+01  3.915692e+01  4.372340e+01
   endloop
 endfacet
 facet normal -8.489352e-01 -3.219586e-01  4.191082e-01
   outer loop
     vertex  2.805630e+01  4.032935e+01  4.914893e+01
     vertex  2.582243e+01  3.915692e+01  4.372340e+01
     vertex  2.590056e+01  3.895090e+01  4.372340e+01
   endloop
 endfacet
 facet normal -8.849307e-01 -2.181158e-01  4.114889e-01
   outer loop
     vertex  2.805630e+01  4.032935e+01  4.914893e+01
     vertex  2.844997e+01  3.873216e+01  4.914893e+01
     vertex  3.097282e+01  3.873216e+01  5.457447e+01
   endloop
 endfacet
 facet normal -8.849307e-01 -2.181158e-01  4.114889e-01
   outer loop
     vertex  2.805630e+01  4.032935e+01  4.914893e+01
     vertex  3.097282e+01  3.873216e+01  5.457447e+01
     vertex  3.029017e+01  4.150178e+01  5.457447e+01
   endloop
 endfacet
 facet normal -6.834528e-01 -6.054864e-01  4.077725e-01
   outer loop
     vertex  2.805630e+01  4.032935e+01  4.914893e+01
     vertex  2.696547e+01  4.156064e+01  4.914893e+01
     vertex  2.569726e+01  3.933826e+01  4.372340e+01
   endloop
 endfacet
 facet normal -8.865510e-01 -2.185152e-01  4.077725e-01
   outer loop
     vertex  2.805630e+01  4.032935e+01  4.914893e+01
     vertex  2.590056e+01  3.895090e+01  4.372340e+01
     vertex  2.844997e+01  3.873216e+01  4.914893e+01
   endloop
 endfacet
 facet normal -6.822037e-01 -6.043798e-01  4.114889e-01
   outer loop
     vertex  2.805630e+01  4.032935e+01  4.914893e+01
     vertex  3.029017e+01  4.150178e+01  5.457447e+01
     vertex  2.696547e+01  4.156064e+01  4.914893e+01
   endloop
 endfacet
 facet normal  0.000000e+00  0.000000e+00  1.000000e+00
   outer loop
     vertex  2.512328e+01  3.963951e+01  4.372340e+01
     vertex  2.490293e+01  3.963951e+01  4.372340e+01
     vertex  2.468899e+01  3.958678e+01  4.372340e+01
   endloop
 endfacet
 facet normal  0.000000e+00  0.000000e+00  1.000000e+00
   outer loop
     vertex  2.569726e+01  3.933826e+01  4.372340e+01
     vertex  2.533722e+01  3.958678e+01  4.372340e+01
     vertex  2.512328e+01  3.963951e+01  4.372340e+01
   endloop
 endfacet
 facet normal  0.000000e+00  0.000000e+00  1.000000e+00
   outer loop
     vertex  2.569726e+01  3.933826e+01  4.372340e+01
     vertex  2.553233e+01  3.948438e+01  4.372340e+01
     vertex  2.533722e+01  3.958678e+01  4.372340e+01
   endloop
 endfacet
 facet normal  0.000000e+00  0.000000e+00  1.000000e+00
   outer loop
     vertex  2.569726e+01  3.933826e+01  4.372340e+01
     vertex  2.512328e+01  3.963951e+01  4.372340e+01
     vertex  2.468899e+01  3.958678e+01  4.372340e+01
   endloop
 endfacet
 facet normal  0.000000e+00  0.000000e+00  1.000000e+00
   outer loop
     vertex  2.590056e+01  3.895090e+01  4.372340e+01
     vertex  2.432896e+01  3.933826e+01  4.372340e+01
     vertex  2.420379e+01  3.915692e+01  4.372340e+01
   endloop
 endfacet
 facet normal  0.000000e+00  0.000000e+00  1.000000e+00
   outer loop
     vertex  2.590056e+01  3.895090e+01  4.372340e+01
     vertex  2.449389e+01  3.948438e+01  4.372340e+01
     vertex  2.432896e+01  3.933826e+01  4.372340e+01
   endloop
 endfacet
 facet normal  0.000000e+00  0.000000e+00  1.000000e+00
   outer loop
     vertex  2.590056e+01  3.895090e+01  4.372340e+01
     vertex  2.468899e+01  3.958678e+01  4.372340e+01
     vertex  2.449389e+01  3.948438e+01  4.372340e+01
   endloop
 endfacet
 facet normal  0.000000e+00  0.000000e+00  1.000000e+00
   outer loop
     vertex  2.590056e+01  3.895090e+01  4.372340e+01
     vertex  2.582243e+01  3.915692e+01  4.372340e+01
     vertex  2.569726e+01  3.933826e+01  4.372340e+01
   endloop
 endfacet
 facet normal  0.000000e+00  0.000000e+00  1.000000e+00
   outer loop
     vertex  2.590056e+01  3.895090e+01  4.372340e+01
     vertex  2.569726e+01  3.933826e+01  4.372340e+01
     vertex  2.468899e+01  3.958678e+01  4.372340e+01
   endloop
 endfacet
 facet normal  0.000000e+00  0.000000e+00  1.000000e+00
   outer loop
     vertex  2.512328e+01  3.782481e+01  4.372340e+01
     vertex  2.468899e+01  3.787754e+01  4.372340e+01
     vertex  2.490293e+01  3.782481e+01  4.372340e+01
   endloop
 endfacet
 facet normal  0.000000e+00  0.000000e+00  1.000000e+00
   outer loop
     vertex  2.512328e+01  3.782481e+01  4.372340e+01
     vertex  2.449389e+01  3.797994e+01  4.372340e+01
     vertex  2.468899e+01  3.787754e+01  4.372340e+01
   endloop
 endfacet
 facet normal  0.000000e+00  0.000000e+00  1.000000e+00
   outer loop
     vertex  2.590056e+01  3.851342e+01  4.372340e+01
     vertex  2.420379e+01  3.915692e+01  4.372340e+01
     vertex  2.412565e+01  3.895090e+01  4.372340e+01
   endloop
 endfacet
 facet normal  0.000000e+00  0.000000e+00  1.000000e+00
   outer loop
     vertex  2.590056e+01  3.851342e+01  4.372340e+01
     vertex  2.592712e+01  3.873216e+01  4.372340e+01
     vertex  2.590056e+01  3.895090e+01  4.372340e+01
   endloop
 endfacet
 facet normal  0.000000e+00 -0.000000e+00  1.000000e+00
   outer loop
     vertex  2.590056e+01  3.851342e+01  4.372340e+01
     vertex  2.590056e+01  3.895090e+01  4.372340e+01
     vertex  2.420379e+01  3.915692e+01  4.372340e+01
   endloop
 endfacet
 facet normal  0.000000e+00  0.000000e+00  1.000000e+00
   outer loop
     vertex  2.582243e+01  3.830740e+01  4.372340e+01
     vertex  2.412565e+01  3.895090e+01  4.372340e+01
     vertex  2.409909e+01  3.873216e+01  4.372340e+01
   endloop
 endfacet
 facet normal  0.000000e+00 -0.000000e+00  1.000000e+00
   outer loop
     vertex  2.582243e+01  3.830740e+01  4.372340e+01
     vertex  2.590056e+01  3.851342e+01  4.372340e+01
     vertex  2.412565e+01  3.895090e+01  4.372340e+01
   endloop
 endfacet
 facet normal  0.000000e+00  0.000000e+00  1.000000e+00
   outer loop
     vertex  2.569726e+01  3.812606e+01  4.372340e+01
     vertex  2.533722e+01  3.787754e+01  4.372340e+01
     vertex  2.553233e+01  3.797994e+01  4.372340e+01
   endloop
 endfacet
 facet normal  0.000000e+00  0.000000e+00  1.000000e+00
   outer loop
     vertex  2.569726e+01  3.812606e+01  4.372340e+01
     vertex  2.512328e+01  3.782481e+01  4.372340e+01
     vertex  2.533722e+01  3.787754e+01  4.372340e+01
   endloop
 endfacet
 facet normal  0.000000e+00  0.000000e+00  1.000000e+00
   outer loop
     vertex  2.569726e+01  3.812606e+01  4.372340e+01
     vertex  2.432896e+01  3.812606e+01  4.372340e+01
     vertex  2.449389e+01  3.797994e+01  4.372340e+01
   endloop
 endfacet
 facet normal  0.000000e+00  0.000000e+00  1.000000e+00
   outer loop
     vertex  2.569726e+01  3.812606e+01  4.372340e+01
     vertex  2.420379e+01  3.830740e+01  4.372340e+01
     vertex  2.432896e+01  3.812606e+01  4.372340e+01
   endloop
 endfacet
 facet normal  0.000000e+00  0.000000e+00  1.000000e+00
   outer loop
     vertex  2.569726e+01  3.812606e+01  4.372340e+01
     vertex  2.412565e+01  3.851342e+01  4.372340e+01
     vertex  2.420379e+01  3.830740e+01  4.372340e+01
   endloop
 endfacet
 facet normal  0.000000e+00  0.000000e+00  1.000000e+00
   outer loop
     vertex  2.569726e+01  3.812606e+01  4.372340e+01
     vertex  2.409909e+01  3.873216e+01  4.372340e+01
     vertex  2.412565e+01  3.851342e+01  4.372340e+01
   endloop
 endfacet
 facet normal  0.000000e+00 -0.000000e+00  1.000000e+00
   outer loop
     vertex  2.569726e+01  3.812606e+01  4.372340e+01
     vertex  2.582243e+01  3.830740e+01  4.372340e+01
     vertex  2.409909e+01  3.873216e+01  4.372340e+01
   endloop
 endfacet
 facet normal  0.000000e+00  0.000000e+00  1.000000e+00
   outer loop
     vertex  2.569726e+01  3.812606e+01  4.372340e+01
     vertex  2.449389e+01  3.797994e+01  4.372340e+01
     vertex  2.512328e+01  3.782481e+01  4.372340e+01
   endloop
 endfacet
endsolid
