solid 
 facet normal -1.000000e+00  0.000000e+00  0.000000e+00
   outer loop
     vertex  0.000000e+00  0.000000e+00  6.000000e+01
     vertex  0.000000e+00  9.334433e+01  0.000000e+00
     vertex  0.000000e+00  0.000000e+00  0.000000e+00
   endloop
 endfacet
 facet normal -1.000000e+00  0.000000e+00  0.000000e+00
   outer loop
     vertex  0.000000e+00  0.000000e+00  6.000000e+01
     vertex  0.000000e+00  9.334433e+01  6.000000e+01
     vertex  0.000000e+00  9.334433e+01  0.000000e+00
   endloop
 endfacet
 facet normal  0.000000e+00 -1.000000e+00 -0.000000e+00
   outer loop
     vertex  1.133822e+02  0.000000e+00  6.000000e+01
     vertex  0.000000e+00  0.000000e+00  0.000000e+00
     vertex  1.133822e+02  0.000000e+00  0.000000e+00
   endloop
 endfacet
 facet normal -0.000000e+00 -1.000000e+00  0.000000e+00
   outer loop
     vertex  1.133822e+02  0.000000e+00  6.000000e+01
     vertex  0.000000e+00  0.000000e+00  6.000000e+01
     vertex  0.000000e+00  0.000000e+00  0.000000e+00
   endloop
 endfacet
 facet normal  0.000000e+00  0.000000e+00  1.000000e+00
   outer loop
     vertex  4.365308e+01  3.291403e+01  6.000000e+01
     vertex  4.154321e+01  3.478322e+01  6.000000e+01
     vertex  0.000000e+00  0.000000e+00  6.000000e+01
   endloop
 endfacet
 facet normal  0.000000e+00  0.000000e+00  1.000000e+00
   outer loop
     vertex  3.994197e+01  3.710301e+01  6.000000e+01
     vertex  0.000000e+00  0.000000e+00  6.000000e+01
     vertex  4.154321e+01  3.478322e+01  6.000000e+01
   endloop
 endfacet
 facet normal  0.000000e+00  0.000000e+00  1.000000e+00
   outer loop
     vertex  4.614897e+01  3.160408e+01  6.000000e+01
     vertex  4.365308e+01  3.291403e+01  6.000000e+01
     vertex  0.000000e+00  0.000000e+00  6.000000e+01
   endloop
 endfacet
 facet normal  0.000000e+00  0.000000e+00  1.000000e+00
   outer loop
     vertex  3.894242e+01  3.973860e+01  6.000000e+01
     vertex  0.000000e+00  0.000000e+00  6.000000e+01
     vertex  3.994197e+01  3.710301e+01  6.000000e+01
   endloop
 endfacet
 facet normal  0.000000e+00  0.000000e+00  1.000000e+00
   outer loop
     vertex  4.888583e+01  3.092951e+01  6.000000e+01
     vertex  4.614897e+01  3.160408e+01  6.000000e+01
     vertex  0.000000e+00  0.000000e+00  6.000000e+01
   endloop
 endfacet
 facet normal  0.000000e+00  0.000000e+00  1.000000e+00
   outer loop
     vertex  3.860265e+01  4.253682e+01  6.000000e+01
     vertex  0.000000e+00  0.000000e+00  6.000000e+01
     vertex  3.894242e+01  3.973860e+01  6.000000e+01
   endloop
 endfacet
 facet normal  0.000000e+00  0.000000e+00  1.000000e+00
   outer loop
     vertex  5.170460e+01  3.092951e+01  6.000000e+01
     vertex  4.888583e+01  3.092951e+01  6.000000e+01
     vertex  0.000000e+00  0.000000e+00  6.000000e+01
   endloop
 endfacet
 facet normal  0.000000e+00  0.000000e+00  1.000000e+00
   outer loop
     vertex  0.000000e+00  9.334433e+01  6.000000e+01
     vertex  3.860265e+01  4.253682e+01  6.000000e+01
     vertex  3.894242e+01  4.533503e+01  6.000000e+01
   endloop
 endfacet
 facet normal  0.000000e+00  0.000000e+00  1.000000e+00
   outer loop
     vertex  0.000000e+00  9.334433e+01  6.000000e+01
     vertex  3.894242e+01  4.533503e+01  6.000000e+01
     vertex  3.994197e+01  4.797062e+01  6.000000e+01
   endloop
 endfacet
 facet normal  0.000000e+00  0.000000e+00  1.000000e+00
   outer loop
     vertex  0.000000e+00  9.334433e+01  6.000000e+01
     vertex  3.994197e+01  4.797062e+01  6.000000e+01
     vertex  4.154321e+01  5.029042e+01  6.000000e+01
   endloop
 endfacet
 facet normal  0.000000e+00  0.000000e+00  1.000000e+00
   outer loop
     vertex  0.000000e+00  9.334433e+01  6.000000e+01
     vertex  0.000000e+00  0.000000e+00  6.000000e+01
     vertex  3.860265e+01  4.253682e+01  6.000000e+01
   endloop
 endfacet
 facet normal  0.000000e+00  0.000000e+00  1.000000e+00
   outer loop
     vertex  4.365308e+01  5.215961e+01  6.000000e+01
     vertex  0.000000e+00  9.334433e+01  6.000000e+01
     vertex  4.154321e+01  5.029042e+01  6.000000e+01
   endloop
 endfacet
 facet normal  0.000000e+00  0.000000e+00  1.000000e+00
   outer loop
     vertex  4.614897e+01  5.346955e+01  6.000000e+01
     vertex  0.000000e+00  9.334433e+01  6.000000e+01
     vertex  4.365308e+01  5.215961e+01  6.000000e+01
   endloop
 endfacet
 facet normal  0.000000e+00  0.000000e+00  1.000000e+00
   outer loop
     vertex  4.888583e+01  5.414413e+01  6.000000e+01
     vertex  0.000000e+00  9.334433e+01  6.000000e+01
     vertex  4.614897e+01  5.346955e+01  6.000000e+01
   endloop
 endfacet
 facet normal  0.000000e+00  0.000000e+00  1.000000e+00
   outer loop
     vertex  5.170460e+01  5.414413e+01  6.000000e+01
     vertex  0.000000e+00  9.334433e+01  6.000000e+01
     vertex  4.888583e+01  5.414413e+01  6.000000e+01
   endloop
 endfacet
 facet normal  0.000000e+00  0.000000e+00  1.000000e+00
   outer loop
     vertex  1.133822e+02  0.000000e+00  6.000000e+01
     vertex  6.198777e+01  4.253682e+01  6.000000e+01
     vertex  6.164801e+01  3.973860e+01  6.000000e+01
   endloop
 endfacet
 facet normal  0.000000e+00  0.000000e+00  1.000000e+00
   outer loop
     vertex  1.133822e+02  0.000000e+00  6.000000e+01
     vertex  6.164801e+01  3.973860e+01  6.000000e+01
     vertex  6.064846e+01  3.710301e+01  6.000000e+01
   endloop
 endfacet
 facet normal  0.000000e+00  0.000000e+00  1.000000e+00
   outer loop
     vertex  1.133822e+02  0.000000e+00  6.000000e+01
     vertex  6.064846e+01  3.710301e+01  6.000000e+01
     vertex  5.904722e+01  3.478322e+01  6.000000e+01
   endloop
 endfacet
 facet normal  0.000000e+00  0.000000e+00  1.000000e+00
   outer loop
     vertex  1.133822e+02  0.000000e+00  6.000000e+01
     vertex  5.904722e+01  3.478322e+01  6.000000e+01
     vertex  5.693735e+01  3.291403e+01  6.000000e+01
   endloop
 endfacet
 facet normal  0.000000e+00  0.000000e+00  1.000000e+00
   outer loop
     vertex  1.133822e+02  0.000000e+00  6.000000e+01
     vertex  5.693735e+01  3.291403e+01  6.000000e+01
     vertex  5.444145e+01  3.160408e+01  6.000000e+01
   endloop
 endfacet
 facet normal  0.000000e+00  0.000000e+00  1.000000e+00
   outer loop
     vertex  1.133822e+02  0.000000e+00  6.000000e+01
     vertex  5.444145e+01  3.160408e+01  6.000000e+01
     vertex  5.170460e+01  3.092951e+01  6.000000e+01
   endloop
 endfacet
 facet normal  0.000000e+00  0.000000e+00  1.000000e+00
   outer loop
     vertex  1.133822e+02  0.000000e+00  6.000000e+01
     vertex  5.170460e+01  3.092951e+01  6.000000e+01
     vertex  0.000000e+00  0.000000e+00  6.000000e+01
   endloop
 endfacet
 facet normal  0.000000e+00  0.000000e+00  1.000000e+00
   outer loop
     vertex  1.133822e+02  9.334433e+01  6.000000e+01
     vertex  5.170460e+01  5.414413e+01  6.000000e+01
     vertex  5.444145e+01  5.346955e+01  6.000000e+01
   endloop
 endfacet
 facet normal  0.000000e+00  0.000000e+00  1.000000e+00
   outer loop
     vertex  1.133822e+02  9.334433e+01  6.000000e+01
     vertex  5.444145e+01  5.346955e+01  6.000000e+01
     vertex  5.693735e+01  5.215961e+01  6.000000e+01
   endloop
 endfacet
 facet normal  0.000000e+00  0.000000e+00  1.000000e+00
   outer loop
     vertex  1.133822e+02  9.334433e+01  6.000000e+01
     vertex  5.693735e+01  5.215961e+01  6.000000e+01
     vertex  5.904722e+01  5.029042e+01  6.000000e+01
   endloop
 endfacet
 facet normal  0.000000e+00  0.000000e+00  1.000000e+00
   outer loop
     vertex  1.133822e+02  9.334433e+01  6.000000e+01
     vertex  5.904722e+01  5.029042e+01  6.000000e+01
     vertex  6.064846e+01  4.797062e+01  6.000000e+01
   endloop
 endfacet
 facet normal  0.000000e+00  0.000000e+00  1.000000e+00
   outer loop
     vertex  1.133822e+02  9.334433e+01  6.000000e+01
     vertex  6.064846e+01  4.797062e+01  6.000000e+01
     vertex  6.164801e+01  4.533503e+01  6.000000e+01
   endloop
 endfacet
 facet normal  0.000000e+00  0.000000e+00  1.000000e+00
   outer loop
     vertex  1.133822e+02  9.334433e+01  6.000000e+01
     vertex  6.164801e+01  4.533503e+01  6.000000e+01
     vertex  6.198777e+01  4.253682e+01  6.000000e+01
   endloop
 endfacet
 facet normal  0.000000e+00  0.000000e+00  1.000000e+00
   outer loop
     vertex  1.133822e+02  9.334433e+01  6.000000e+01
     vertex  6.198777e+01  4.253682e+01  6.000000e+01
     vertex  1.133822e+02  0.000000e+00  6.000000e+01
   endloop
 endfacet
 facet normal  0.000000e+00  0.000000e+00  1.000000e+00
   outer loop
     vertex  1.133822e+02  9.334433e+01  6.000000e+01
     vertex  0.000000e+00  9.334433e+01  6.000000e+01
     vertex  5.170460e+01  5.414413e+01  6.000000e+01
   endloop
 endfacet
 facet normal  0.000000e+00  1.000000e+00  0.000000e+00
   outer loop
     vertex  1.133822e+02  9.334433e+01  6.000000e+01
     vertex  1.133822e+02  9.334433e+01  0.000000e+00
     vertex  0.000000e+00  9.334433e+01  0.000000e+00
   endloop
 endfacet
 facet normal  0.000000e+00  1.000000e+00  0.000000e+00
   outer loop
     vertex  1.133822e+02  9.334433e+01  6.000000e+01
     vertex  0.000000e+00  9.334433e+01  0.000000e+00
     vertex  0.000000e+00  9.334433e+01  6.000000e+01
   endloop
 endfacet
 facet normal -0.000000e+00  0.000000e+00 -1.000000e+00
   outer loop
     vertex  1.133822e+02  9.334433e+01  0.000000e+00
     vertex  0.000000e+00  0.000000e+00  0.000000e+00
     vertex  0.000000e+00  9.334433e+01  0.000000e+00
   endloop
 endfacet
 facet normal  0.000000e+00 -0.000000e+00 -1.000000e+00
   outer loop
     vertex  1.133822e+02  9.334433e+01  0.000000e+00
     vertex  1.133822e+02  0.000000e+00  0.000000e+00
     vertex  0.000000e+00  0.000000e+00  0.000000e+00
   endloop
 endfacet
 facet normal  1.000000e+00  0.000000e+00  0.000000e+00
   outer loop
     vertex  1.133822e+02  0.000000e+00  6.000000e+01
     vertex  1.133822e+02  0.000000e+00  0.000000e+00
     vertex  1.133822e+02  9.334433e+01  0.000000e+00
   endloop
 endfacet
 facet normal  1.000000e+00 -0.000000e+00  0.000000e+00
   outer loop
     vertex  1.133822e+02  0.000000e+00  6.000000e+01
     vertex  1.133822e+02  9.334433e+01  0.000000e+00
     vertex  1.133822e+02  9.334433e+01  6.000000e+01
   endloop
 endfacet
 facet normal -8.993208e-01  1.091973e-01  4.234359e-01
   outer loop
     vertex  6.030934e+01  4.253682e+01  5.643524e+01
     vertex  6.164801e+01  3.973860e+01  6.000000e+01
     vertex  6.198777e+01  4.253682e+01  6.000000e+01
   endloop
 endfacet
 facet normal -8.993208e-01  1.091973e-01  4.234359e-01
   outer loop
     vertex  5.675903e+01  4.094363e+01  4.930571e+01
     vertex  5.863091e+01  4.253682e+01  5.287048e+01
     vertex  5.695248e+01  4.253682e+01  4.930571e+01
   endloop
 endfacet
 facet normal -8.993208e-01 -1.091973e-01  4.234359e-01
   outer loop
     vertex  6.030934e+01  4.253682e+01  5.643524e+01
     vertex  6.198777e+01  4.253682e+01  6.000000e+01
     vertex  6.164801e+01  4.533503e+01  6.000000e+01
   endloop
 endfacet
 facet normal -8.993208e-01 -1.091973e-01  4.234359e-01
   outer loop
     vertex  5.695248e+01  4.253682e+01  4.930571e+01
     vertex  5.863091e+01  4.253682e+01  5.287048e+01
     vertex  5.675903e+01  4.413001e+01  4.930571e+01
   endloop
 endfacet
 facet normal -8.502969e-01  3.224751e-01  4.159388e-01
   outer loop
     vertex  5.931763e+01  3.819185e+01  5.643524e+01
     vertex  6.064846e+01  3.710301e+01  6.000000e+01
     vertex  6.164801e+01  3.973860e+01  6.000000e+01
   endloop
 endfacet
 facet normal -7.417200e-01  5.119724e-01  4.332847e-01
   outer loop
     vertex  5.931763e+01  3.819185e+01  5.643524e+01
     vertex  5.904722e+01  3.478322e+01  6.000000e+01
     vertex  6.064846e+01  3.710301e+01  6.000000e+01
   endloop
 endfacet
 facet normal -8.575632e-01  1.957332e-01  4.756825e-01
   outer loop
     vertex  5.931763e+01  3.819185e+01  5.643524e+01
     vertex  6.164801e+01  3.973860e+01  6.000000e+01
     vertex  6.030934e+01  4.253682e+01  5.643524e+01
   endloop
 endfacet
 facet normal -8.443328e-01  3.202132e-01  4.296110e-01
   outer loop
     vertex  5.780542e+01  3.892009e+01  5.287048e+01
     vertex  5.675903e+01  4.094363e+01  4.930571e+01
     vertex  5.618993e+01  3.944303e+01  4.930571e+01
   endloop
 endfacet
 facet normal -7.487227e-01  5.168060e-01  4.151216e-01
   outer loop
     vertex  5.780542e+01  3.892009e+01  5.287048e+01
     vertex  5.618993e+01  3.944303e+01  4.930571e+01
     vertex  5.527825e+01  3.812223e+01  4.930571e+01
   endloop
 endfacet
 facet normal -8.860371e-01  2.022322e-01  4.171814e-01
   outer loop
     vertex  5.780542e+01  3.892009e+01  5.287048e+01
     vertex  6.030934e+01  4.253682e+01  5.643524e+01
     vertex  5.863091e+01  4.253682e+01  5.287048e+01
   endloop
 endfacet
 facet normal -9.012641e-01  2.057076e-01  3.813233e-01
   outer loop
     vertex  5.780542e+01  3.892009e+01  5.287048e+01
     vertex  5.863091e+01  4.253682e+01  5.287048e+01
     vertex  5.675903e+01  4.094363e+01  4.930571e+01
   endloop
 endfacet
 facet normal -8.860371e-01  2.022322e-01  4.171814e-01
   outer loop
     vertex  5.780542e+01  3.892009e+01  5.287048e+01
     vertex  5.931763e+01  3.819185e+01  5.643524e+01
     vertex  6.030934e+01  4.253682e+01  5.643524e+01
   endloop
 endfacet
 facet normal -6.888356e-01  5.493281e-01  4.730160e-01
   outer loop
     vertex  5.653892e+01  3.470746e+01  5.643524e+01
     vertex  5.904722e+01  3.478322e+01  6.000000e+01
     vertex  5.931763e+01  3.819185e+01  5.643524e+01
   endloop
 endfacet
 facet normal -6.045595e-01  6.824067e-01  4.108880e-01
   outer loop
     vertex  5.653892e+01  3.470746e+01  5.643524e+01
     vertex  5.693735e+01  3.291403e+01  6.000000e+01
     vertex  5.904722e+01  3.478322e+01  6.000000e+01
   endloop
 endfacet
 facet normal -4.160908e-01  7.927947e-01  4.453594e-01
   outer loop
     vertex  5.653892e+01  3.470746e+01  5.643524e+01
     vertex  5.444145e+01  3.160408e+01  6.000000e+01
     vertex  5.693735e+01  3.291403e+01  6.000000e+01
   endloop
 endfacet
 facet normal -5.975120e-01  6.744516e-01  4.336985e-01
   outer loop
     vertex  5.549244e+01  3.601971e+01  5.287048e+01
     vertex  5.527825e+01  3.812223e+01  4.930571e+01
     vertex  5.407697e+01  3.705799e+01  4.930571e+01
   endloop
 endfacet
 facet normal -4.249865e-01  8.097442e-01  4.045995e-01
   outer loop
     vertex  5.549244e+01  3.601971e+01  5.287048e+01
     vertex  5.407697e+01  3.705799e+01  4.930571e+01
     vertex  5.265591e+01  3.631217e+01  4.930571e+01
   endloop
 endfacet
 facet normal -7.221899e-01  5.759272e-01  3.830792e-01
   outer loop
     vertex  5.549244e+01  3.601971e+01  5.287048e+01
     vertex  5.780542e+01  3.892009e+01  5.287048e+01
     vertex  5.527825e+01  3.812223e+01  4.930571e+01
   endloop
 endfacet
 facet normal -7.105466e-01  5.666420e-01  4.171814e-01
   outer loop
     vertex  5.549244e+01  3.601971e+01  5.287048e+01
     vertex  5.931763e+01  3.819185e+01  5.643524e+01
     vertex  5.780542e+01  3.892009e+01  5.287048e+01
   endloop
 endfacet
 facet normal -7.105466e-01  5.666420e-01  4.171814e-01
   outer loop
     vertex  5.549244e+01  3.601971e+01  5.287048e+01
     vertex  5.653892e+01  3.470746e+01  5.643524e+01
     vertex  5.931763e+01  3.819185e+01  5.643524e+01
   endloop
 endfacet
 facet normal -2.184538e-01  8.863018e-01  4.083467e-01
   outer loop
     vertex  5.252357e+01  3.277376e+01  5.643524e+01
     vertex  5.170460e+01  3.092951e+01  6.000000e+01
     vertex  5.444145e+01  3.160408e+01  6.000000e+01
   endloop
 endfacet
 facet normal -3.835165e-01  7.963801e-01  4.676471e-01
   outer loop
     vertex  5.252357e+01  3.277376e+01  5.643524e+01
     vertex  5.444145e+01  3.160408e+01  6.000000e+01
     vertex  5.653892e+01  3.470746e+01  5.643524e+01
   endloop
 endfacet
 facet normal -2.154022e-01  8.739211e-01  4.357335e-01
   outer loop
     vertex  5.215008e+01  3.441011e+01  5.287048e+01
     vertex  5.265591e+01  3.631217e+01  4.930571e+01
     vertex  5.109766e+01  3.592809e+01  4.930571e+01
   endloop
 endfacet
 facet normal -3.943236e-01  8.188214e-01  4.171814e-01
   outer loop
     vertex  5.215008e+01  3.441011e+01  5.287048e+01
     vertex  5.252357e+01  3.277376e+01  5.643524e+01
     vertex  5.653892e+01  3.470746e+01  5.643524e+01
   endloop
 endfacet
 facet normal -4.001525e-01  8.309252e-01  3.865765e-01
   outer loop
     vertex  5.215008e+01  3.441011e+01  5.287048e+01
     vertex  5.549244e+01  3.601971e+01  5.287048e+01
     vertex  5.265591e+01  3.631217e+01  4.930571e+01
   endloop
 endfacet
 facet normal -3.943236e-01  8.188214e-01  4.171814e-01
   outer loop
     vertex  5.215008e+01  3.441011e+01  5.287048e+01
     vertex  5.653892e+01  3.470746e+01  5.643524e+01
     vertex  5.549244e+01  3.601971e+01  5.287048e+01
   endloop
 endfacet
 facet normal  0.000000e+00  8.881757e-01  4.595039e-01
   outer loop
     vertex  4.806686e+01  3.277376e+01  5.643524e+01
     vertex  4.888583e+01  3.092951e+01  6.000000e+01
     vertex  5.170460e+01  3.092951e+01  6.000000e+01
   endloop
 endfacet
 facet normal  2.184538e-01  8.863018e-01  4.083467e-01
   outer loop
     vertex  4.806686e+01  3.277376e+01  5.643524e+01
     vertex  4.614897e+01  3.160408e+01  6.000000e+01
     vertex  4.888583e+01  3.092951e+01  6.000000e+01
   endloop
 endfacet
 facet normal -0.000000e+00  8.881757e-01  4.595039e-01
   outer loop
     vertex  4.806686e+01  3.277376e+01  5.643524e+01
     vertex  5.170460e+01  3.092951e+01  6.000000e+01
     vertex  5.252357e+01  3.277376e+01  5.643524e+01
   endloop
 endfacet
 facet normal  0.000000e+00  9.200563e-01  3.917861e-01
   outer loop
     vertex  4.844035e+01  3.441011e+01  5.287048e+01
     vertex  5.109766e+01  3.592809e+01  4.930571e+01
     vertex  4.949277e+01  3.592809e+01  4.930571e+01
   endloop
 endfacet
 facet normal  2.154022e-01  8.739211e-01  4.357335e-01
   outer loop
     vertex  4.844035e+01  3.441011e+01  5.287048e+01
     vertex  4.949277e+01  3.592809e+01  4.930571e+01
     vertex  4.793451e+01  3.631217e+01  4.930571e+01
   endloop
 endfacet
 facet normal -0.000000e+00  9.200563e-01  3.917861e-01
   outer loop
     vertex  4.844035e+01  3.441011e+01  5.287048e+01
     vertex  5.215008e+01  3.441011e+01  5.287048e+01
     vertex  5.109766e+01  3.592809e+01  4.930571e+01
   endloop
 endfacet
 facet normal -0.000000e+00  9.088232e-01  4.171814e-01
   outer loop
     vertex  4.844035e+01  3.441011e+01  5.287048e+01
     vertex  5.252357e+01  3.277376e+01  5.643524e+01
     vertex  5.215008e+01  3.441011e+01  5.287048e+01
   endloop
 endfacet
 facet normal  0.000000e+00  9.088232e-01  4.171814e-01
   outer loop
     vertex  4.844035e+01  3.441011e+01  5.287048e+01
     vertex  4.806686e+01  3.277376e+01  5.643524e+01
     vertex  5.252357e+01  3.277376e+01  5.643524e+01
   endloop
 endfacet
 facet normal  4.160908e-01  7.927947e-01  4.453594e-01
   outer loop
     vertex  4.405151e+01  3.470746e+01  5.643524e+01
     vertex  4.365308e+01  3.291403e+01  6.000000e+01
     vertex  4.614897e+01  3.160408e+01  6.000000e+01
   endloop
 endfacet
 facet normal  6.045595e-01  6.824067e-01  4.108880e-01
   outer loop
     vertex  4.405151e+01  3.470746e+01  5.643524e+01
     vertex  4.154321e+01  3.478322e+01  6.000000e+01
     vertex  4.365308e+01  3.291403e+01  6.000000e+01
   endloop
 endfacet
 facet normal  3.835165e-01  7.963801e-01  4.676471e-01
   outer loop
     vertex  4.405151e+01  3.470746e+01  5.643524e+01
     vertex  4.614897e+01  3.160408e+01  6.000000e+01
     vertex  4.806686e+01  3.277376e+01  5.643524e+01
   endloop
 endfacet
 facet normal  4.249865e-01  8.097442e-01  4.045995e-01
   outer loop
     vertex  4.509799e+01  3.601971e+01  5.287048e+01
     vertex  4.793451e+01  3.631217e+01  4.930571e+01
     vertex  4.651346e+01  3.705799e+01  4.930571e+01
   endloop
 endfacet
 facet normal  5.975120e-01  6.744516e-01  4.336985e-01
   outer loop
     vertex  4.509799e+01  3.601971e+01  5.287048e+01
     vertex  4.651346e+01  3.705799e+01  4.930571e+01
     vertex  4.531218e+01  3.812223e+01  4.930571e+01
   endloop
 endfacet
 facet normal  3.943236e-01  8.188214e-01  4.171814e-01
   outer loop
     vertex  4.509799e+01  3.601971e+01  5.287048e+01
     vertex  4.405151e+01  3.470746e+01  5.643524e+01
     vertex  4.806686e+01  3.277376e+01  5.643524e+01
   endloop
 endfacet
 facet normal  3.943236e-01  8.188214e-01  4.171814e-01
   outer loop
     vertex  4.509799e+01  3.601971e+01  5.287048e+01
     vertex  4.806686e+01  3.277376e+01  5.643524e+01
     vertex  4.844035e+01  3.441011e+01  5.287048e+01
   endloop
 endfacet
 facet normal  4.001525e-01  8.309252e-01  3.865765e-01
   outer loop
     vertex  4.509799e+01  3.601971e+01  5.287048e+01
     vertex  4.844035e+01  3.441011e+01  5.287048e+01
     vertex  4.793451e+01  3.631217e+01  4.930571e+01
   endloop
 endfacet
 facet normal  7.417200e-01  5.119724e-01  4.332847e-01
   outer loop
     vertex  4.127280e+01  3.819185e+01  5.643524e+01
     vertex  3.994197e+01  3.710301e+01  6.000000e+01
     vertex  4.154321e+01  3.478322e+01  6.000000e+01
   endloop
 endfacet
 facet normal  8.502969e-01  3.224751e-01  4.159388e-01
   outer loop
     vertex  4.127280e+01  3.819185e+01  5.643524e+01
     vertex  3.894242e+01  3.973860e+01  6.000000e+01
     vertex  3.994197e+01  3.710301e+01  6.000000e+01
   endloop
 endfacet
 facet normal  6.888356e-01  5.493281e-01  4.730160e-01
   outer loop
     vertex  4.127280e+01  3.819185e+01  5.643524e+01
     vertex  4.154321e+01  3.478322e+01  6.000000e+01
     vertex  4.405151e+01  3.470746e+01  5.643524e+01
   endloop
 endfacet
 facet normal  7.105466e-01  5.666420e-01  4.171814e-01
   outer loop
     vertex  4.278501e+01  3.892009e+01  5.287048e+01
     vertex  4.127280e+01  3.819185e+01  5.643524e+01
     vertex  4.405151e+01  3.470746e+01  5.643524e+01
   endloop
 endfacet
 facet normal  7.487227e-01  5.168060e-01  4.151216e-01
   outer loop
     vertex  4.278501e+01  3.892009e+01  5.287048e+01
     vertex  4.531218e+01  3.812223e+01  4.930571e+01
     vertex  4.440050e+01  3.944303e+01  4.930571e+01
   endloop
 endfacet
 facet normal  8.443328e-01  3.202132e-01  4.296110e-01
   outer loop
     vertex  4.278501e+01  3.892009e+01  5.287048e+01
     vertex  4.440050e+01  3.944303e+01  4.930571e+01
     vertex  4.383140e+01  4.094363e+01  4.930571e+01
   endloop
 endfacet
 facet normal  7.221899e-01  5.759272e-01  3.830792e-01
   outer loop
     vertex  4.278501e+01  3.892009e+01  5.287048e+01
     vertex  4.509799e+01  3.601971e+01  5.287048e+01
     vertex  4.531218e+01  3.812223e+01  4.930571e+01
   endloop
 endfacet
 facet normal  7.105466e-01  5.666420e-01  4.171814e-01
   outer loop
     vertex  4.278501e+01  3.892009e+01  5.287048e+01
     vertex  4.405151e+01  3.470746e+01  5.643524e+01
     vertex  4.509799e+01  3.601971e+01  5.287048e+01
   endloop
 endfacet
 facet normal  8.860371e-01  2.022322e-01  4.171814e-01
   outer loop
     vertex  4.028108e+01  4.253682e+01  5.643524e+01
     vertex  4.127280e+01  3.819185e+01  5.643524e+01
     vertex  4.278501e+01  3.892009e+01  5.287048e+01
   endloop
 endfacet
 facet normal  8.993208e-01  1.091973e-01  4.234359e-01
   outer loop
     vertex  4.028108e+01  4.253682e+01  5.643524e+01
     vertex  3.860265e+01  4.253682e+01  6.000000e+01
     vertex  3.894242e+01  3.973860e+01  6.000000e+01
   endloop
 endfacet
 facet normal  8.993208e-01 -1.091973e-01  4.234359e-01
   outer loop
     vertex  4.028108e+01  4.253682e+01  5.643524e+01
     vertex  3.894242e+01  4.533503e+01  6.000000e+01
     vertex  3.860265e+01  4.253682e+01  6.000000e+01
   endloop
 endfacet
 facet normal  8.575632e-01  1.957332e-01  4.756825e-01
   outer loop
     vertex  4.028108e+01  4.253682e+01  5.643524e+01
     vertex  3.894242e+01  3.973860e+01  6.000000e+01
     vertex  4.127280e+01  3.819185e+01  5.643524e+01
   endloop
 endfacet
 facet normal  8.993208e-01  1.091973e-01  4.234359e-01
   outer loop
     vertex  4.195952e+01  4.253682e+01  5.287048e+01
     vertex  4.383140e+01  4.094363e+01  4.930571e+01
     vertex  4.363795e+01  4.253682e+01  4.930571e+01
   endloop
 endfacet
 facet normal  8.993208e-01 -1.091973e-01  4.234359e-01
   outer loop
     vertex  4.195952e+01  4.253682e+01  5.287048e+01
     vertex  4.363795e+01  4.253682e+01  4.930571e+01
     vertex  4.383140e+01  4.413001e+01  4.930571e+01
   endloop
 endfacet
 facet normal  8.860371e-01  2.022322e-01  4.171814e-01
   outer loop
     vertex  4.195952e+01  4.253682e+01  5.287048e+01
     vertex  4.028108e+01  4.253682e+01  5.643524e+01
     vertex  4.278501e+01  3.892009e+01  5.287048e+01
   endloop
 endfacet
 facet normal  9.012641e-01  2.057076e-01  3.813233e-01
   outer loop
     vertex  4.195952e+01  4.253682e+01  5.287048e+01
     vertex  4.278501e+01  3.892009e+01  5.287048e+01
     vertex  4.383140e+01  4.094363e+01  4.930571e+01
   endloop
 endfacet
 facet normal  8.860371e-01 -2.022322e-01  4.171814e-01
   outer loop
     vertex  4.127280e+01  4.688179e+01  5.643524e+01
     vertex  4.028108e+01  4.253682e+01  5.643524e+01
     vertex  4.195952e+01  4.253682e+01  5.287048e+01
   endloop
 endfacet
 facet normal  8.502969e-01 -3.224751e-01  4.159388e-01
   outer loop
     vertex  4.127280e+01  4.688179e+01  5.643524e+01
     vertex  3.994197e+01  4.797062e+01  6.000000e+01
     vertex  3.894242e+01  4.533503e+01  6.000000e+01
   endloop
 endfacet
 facet normal  7.417200e-01 -5.119724e-01  4.332847e-01
   outer loop
     vertex  4.127280e+01  4.688179e+01  5.643524e+01
     vertex  4.154321e+01  5.029042e+01  6.000000e+01
     vertex  3.994197e+01  4.797062e+01  6.000000e+01
   endloop
 endfacet
 facet normal  8.575632e-01 -1.957332e-01  4.756825e-01
   outer loop
     vertex  4.127280e+01  4.688179e+01  5.643524e+01
     vertex  3.894242e+01  4.533503e+01  6.000000e+01
     vertex  4.028108e+01  4.253682e+01  5.643524e+01
   endloop
 endfacet
 facet normal  8.443328e-01 -3.202132e-01  4.296110e-01
   outer loop
     vertex  4.278501e+01  4.615354e+01  5.287048e+01
     vertex  4.383140e+01  4.413001e+01  4.930571e+01
     vertex  4.440050e+01  4.563060e+01  4.930571e+01
   endloop
 endfacet
 facet normal  7.487227e-01 -5.168060e-01  4.151216e-01
   outer loop
     vertex  4.278501e+01  4.615354e+01  5.287048e+01
     vertex  4.440050e+01  4.563060e+01  4.930571e+01
     vertex  4.531218e+01  4.695140e+01  4.930571e+01
   endloop
 endfacet
 facet normal  8.860371e-01 -2.022322e-01  4.171814e-01
   outer loop
     vertex  4.278501e+01  4.615354e+01  5.287048e+01
     vertex  4.127280e+01  4.688179e+01  5.643524e+01
     vertex  4.195952e+01  4.253682e+01  5.287048e+01
   endloop
 endfacet
 facet normal  9.012641e-01 -2.057076e-01  3.813233e-01
   outer loop
     vertex  4.278501e+01  4.615354e+01  5.287048e+01
     vertex  4.195952e+01  4.253682e+01  5.287048e+01
     vertex  4.383140e+01  4.413001e+01  4.930571e+01
   endloop
 endfacet
 facet normal  6.888356e-01 -5.493281e-01  4.730160e-01
   outer loop
     vertex  4.405151e+01  5.036618e+01  5.643524e+01
     vertex  4.154321e+01  5.029042e+01  6.000000e+01
     vertex  4.127280e+01  4.688179e+01  5.643524e+01
   endloop
 endfacet
 facet normal  6.045595e-01 -6.824067e-01  4.108880e-01
   outer loop
     vertex  4.405151e+01  5.036618e+01  5.643524e+01
     vertex  4.365308e+01  5.215961e+01  6.000000e+01
     vertex  4.154321e+01  5.029042e+01  6.000000e+01
   endloop
 endfacet
 facet normal  4.160908e-01 -7.927947e-01  4.453594e-01
   outer loop
     vertex  4.405151e+01  5.036618e+01  5.643524e+01
     vertex  4.614897e+01  5.346955e+01  6.000000e+01
     vertex  4.365308e+01  5.215961e+01  6.000000e+01
   endloop
 endfacet
 facet normal  7.105466e-01 -5.666420e-01  4.171814e-01
   outer loop
     vertex  4.509799e+01  4.905393e+01  5.287048e+01
     vertex  4.405151e+01  5.036618e+01  5.643524e+01
     vertex  4.127280e+01  4.688179e+01  5.643524e+01
   endloop
 endfacet
 facet normal  5.975120e-01 -6.744516e-01  4.336985e-01
   outer loop
     vertex  4.509799e+01  4.905393e+01  5.287048e+01
     vertex  4.531218e+01  4.695140e+01  4.930571e+01
     vertex  4.651346e+01  4.801564e+01  4.930571e+01
   endloop
 endfacet
 facet normal  4.249865e-01 -8.097442e-01  4.045995e-01
   outer loop
     vertex  4.509799e+01  4.905393e+01  5.287048e+01
     vertex  4.651346e+01  4.801564e+01  4.930571e+01
     vertex  4.793451e+01  4.876147e+01  4.930571e+01
   endloop
 endfacet
 facet normal  7.221899e-01 -5.759272e-01  3.830792e-01
   outer loop
     vertex  4.509799e+01  4.905393e+01  5.287048e+01
     vertex  4.278501e+01  4.615354e+01  5.287048e+01
     vertex  4.531218e+01  4.695140e+01  4.930571e+01
   endloop
 endfacet
 facet normal  7.105466e-01 -5.666420e-01  4.171814e-01
   outer loop
     vertex  4.509799e+01  4.905393e+01  5.287048e+01
     vertex  4.127280e+01  4.688179e+01  5.643524e+01
     vertex  4.278501e+01  4.615354e+01  5.287048e+01
   endloop
 endfacet
 facet normal  2.184538e-01 -8.863018e-01  4.083467e-01
   outer loop
     vertex  4.806686e+01  5.229987e+01  5.643524e+01
     vertex  4.888583e+01  5.414413e+01  6.000000e+01
     vertex  4.614897e+01  5.346955e+01  6.000000e+01
   endloop
 endfacet
 facet normal  2.198203e-15 -8.881757e-01  4.595039e-01
   outer loop
     vertex  4.806686e+01  5.229987e+01  5.643524e+01
     vertex  5.170460e+01  5.414413e+01  6.000000e+01
     vertex  4.888583e+01  5.414413e+01  6.000000e+01
   endloop
 endfacet
 facet normal  3.835165e-01 -7.963801e-01  4.676471e-01
   outer loop
     vertex  4.806686e+01  5.229987e+01  5.643524e+01
     vertex  4.614897e+01  5.346955e+01  6.000000e+01
     vertex  4.405151e+01  5.036618e+01  5.643524e+01
   endloop
 endfacet
 facet normal  2.154022e-01 -8.739211e-01  4.357335e-01
   outer loop
     vertex  4.844035e+01  5.066352e+01  5.287048e+01
     vertex  4.793451e+01  4.876147e+01  4.930571e+01
     vertex  4.949277e+01  4.914554e+01  4.930571e+01
   endloop
 endfacet
 facet normal  0.000000e+00 -9.200563e-01  3.917861e-01
   outer loop
     vertex  4.844035e+01  5.066352e+01  5.287048e+01
     vertex  4.949277e+01  4.914554e+01  4.930571e+01
     vertex  5.109766e+01  4.914554e+01  4.930571e+01
   endloop
 endfacet
 facet normal  4.001525e-01 -8.309252e-01  3.865765e-01
   outer loop
     vertex  4.844035e+01  5.066352e+01  5.287048e+01
     vertex  4.509799e+01  4.905393e+01  5.287048e+01
     vertex  4.793451e+01  4.876147e+01  4.930571e+01
   endloop
 endfacet
 facet normal  3.943236e-01 -8.188214e-01  4.171814e-01
   outer loop
     vertex  4.844035e+01  5.066352e+01  5.287048e+01
     vertex  4.405151e+01  5.036618e+01  5.643524e+01
     vertex  4.509799e+01  4.905393e+01  5.287048e+01
   endloop
 endfacet
 facet normal  3.943236e-01 -8.188214e-01  4.171814e-01
   outer loop
     vertex  4.844035e+01  5.066352e+01  5.287048e+01
     vertex  4.806686e+01  5.229987e+01  5.643524e+01
     vertex  4.405151e+01  5.036618e+01  5.643524e+01
   endloop
 endfacet
 facet normal  0.000000e+00 -8.881757e-01  4.595039e-01
   outer loop
     vertex  5.252357e+01  5.229987e+01  5.643524e+01
     vertex  5.170460e+01  5.414413e+01  6.000000e+01
     vertex  4.806686e+01  5.229987e+01  5.643524e+01
   endloop
 endfacet
 facet normal -2.184538e-01 -8.863018e-01  4.083467e-01
   outer loop
     vertex  5.252357e+01  5.229987e+01  5.643524e+01
     vertex  5.444145e+01  5.346955e+01  6.000000e+01
     vertex  5.170460e+01  5.414413e+01  6.000000e+01
   endloop
 endfacet
 facet normal  0.000000e+00 -9.200563e-01  3.917861e-01
   outer loop
     vertex  5.215008e+01  5.066352e+01  5.287048e+01
     vertex  4.844035e+01  5.066352e+01  5.287048e+01
     vertex  5.109766e+01  4.914554e+01  4.930571e+01
   endloop
 endfacet
 facet normal -2.154022e-01 -8.739211e-01  4.357335e-01
   outer loop
     vertex  5.215008e+01  5.066352e+01  5.287048e+01
     vertex  5.109766e+01  4.914554e+01  4.930571e+01
     vertex  5.265591e+01  4.876147e+01  4.930571e+01
   endloop
 endfacet
 facet normal  0.000000e+00 -9.088232e-01  4.171814e-01
   outer loop
     vertex  5.215008e+01  5.066352e+01  5.287048e+01
     vertex  5.252357e+01  5.229987e+01  5.643524e+01
     vertex  4.806686e+01  5.229987e+01  5.643524e+01
   endloop
 endfacet
 facet normal  0.000000e+00 -9.088232e-01  4.171814e-01
   outer loop
     vertex  5.215008e+01  5.066352e+01  5.287048e+01
     vertex  4.806686e+01  5.229987e+01  5.643524e+01
     vertex  4.844035e+01  5.066352e+01  5.287048e+01
   endloop
 endfacet
 facet normal -4.160908e-01 -7.927947e-01  4.453594e-01
   outer loop
     vertex  5.653892e+01  5.036618e+01  5.643524e+01
     vertex  5.693735e+01  5.215961e+01  6.000000e+01
     vertex  5.444145e+01  5.346955e+01  6.000000e+01
   endloop
 endfacet
 facet normal -6.045595e-01 -6.824067e-01  4.108880e-01
   outer loop
     vertex  5.653892e+01  5.036618e+01  5.643524e+01
     vertex  5.904722e+01  5.029042e+01  6.000000e+01
     vertex  5.693735e+01  5.215961e+01  6.000000e+01
   endloop
 endfacet
 facet normal -3.835165e-01 -7.963801e-01  4.676471e-01
   outer loop
     vertex  5.653892e+01  5.036618e+01  5.643524e+01
     vertex  5.444145e+01  5.346955e+01  6.000000e+01
     vertex  5.252357e+01  5.229987e+01  5.643524e+01
   endloop
 endfacet
 facet normal -4.249865e-01 -8.097442e-01  4.045995e-01
   outer loop
     vertex  5.549244e+01  4.905393e+01  5.287048e+01
     vertex  5.265591e+01  4.876147e+01  4.930571e+01
     vertex  5.407697e+01  4.801564e+01  4.930571e+01
   endloop
 endfacet
 facet normal -5.975120e-01 -6.744516e-01  4.336985e-01
   outer loop
     vertex  5.549244e+01  4.905393e+01  5.287048e+01
     vertex  5.407697e+01  4.801564e+01  4.930571e+01
     vertex  5.527825e+01  4.695140e+01  4.930571e+01
   endloop
 endfacet
 facet normal -4.001525e-01 -8.309252e-01  3.865765e-01
   outer loop
     vertex  5.549244e+01  4.905393e+01  5.287048e+01
     vertex  5.215008e+01  5.066352e+01  5.287048e+01
     vertex  5.265591e+01  4.876147e+01  4.930571e+01
   endloop
 endfacet
 facet normal -3.943236e-01 -8.188214e-01  4.171814e-01
   outer loop
     vertex  5.549244e+01  4.905393e+01  5.287048e+01
     vertex  5.252357e+01  5.229987e+01  5.643524e+01
     vertex  5.215008e+01  5.066352e+01  5.287048e+01
   endloop
 endfacet
 facet normal -3.943236e-01 -8.188214e-01  4.171814e-01
   outer loop
     vertex  5.549244e+01  4.905393e+01  5.287048e+01
     vertex  5.653892e+01  5.036618e+01  5.643524e+01
     vertex  5.252357e+01  5.229987e+01  5.643524e+01
   endloop
 endfacet
 facet normal -8.575632e-01 -1.957332e-01  4.756825e-01
   outer loop
     vertex  5.931763e+01  4.688179e+01  5.643524e+01
     vertex  6.030934e+01  4.253682e+01  5.643524e+01
     vertex  6.164801e+01  4.533503e+01  6.000000e+01
   endloop
 endfacet
 facet normal -7.417200e-01 -5.119724e-01  4.332847e-01
   outer loop
     vertex  5.931763e+01  4.688179e+01  5.643524e+01
     vertex  6.064846e+01  4.797062e+01  6.000000e+01
     vertex  5.904722e+01  5.029042e+01  6.000000e+01
   endloop
 endfacet
 facet normal -8.502969e-01 -3.224751e-01  4.159388e-01
   outer loop
     vertex  5.931763e+01  4.688179e+01  5.643524e+01
     vertex  6.164801e+01  4.533503e+01  6.000000e+01
     vertex  6.064846e+01  4.797062e+01  6.000000e+01
   endloop
 endfacet
 facet normal -6.888356e-01 -5.493281e-01  4.730160e-01
   outer loop
     vertex  5.931763e+01  4.688179e+01  5.643524e+01
     vertex  5.904722e+01  5.029042e+01  6.000000e+01
     vertex  5.653892e+01  5.036618e+01  5.643524e+01
   endloop
 endfacet
 facet normal -7.487227e-01 -5.168060e-01  4.151216e-01
   outer loop
     vertex  5.780542e+01  4.615354e+01  5.287048e+01
     vertex  5.527825e+01  4.695140e+01  4.930571e+01
     vertex  5.618993e+01  4.563060e+01  4.930571e+01
   endloop
 endfacet
 facet normal -8.443328e-01 -3.202132e-01  4.296110e-01
   outer loop
     vertex  5.780542e+01  4.615354e+01  5.287048e+01
     vertex  5.618993e+01  4.563060e+01  4.930571e+01
     vertex  5.675903e+01  4.413001e+01  4.930571e+01
   endloop
 endfacet
 facet normal -8.860371e-01 -2.022322e-01  4.171814e-01
   outer loop
     vertex  5.780542e+01  4.615354e+01  5.287048e+01
     vertex  6.030934e+01  4.253682e+01  5.643524e+01
     vertex  5.931763e+01  4.688179e+01  5.643524e+01
   endloop
 endfacet
 facet normal -8.860371e-01 -2.022322e-01  4.171814e-01
   outer loop
     vertex  5.780542e+01  4.615354e+01  5.287048e+01
     vertex  5.863091e+01  4.253682e+01  5.287048e+01
     vertex  6.030934e+01  4.253682e+01  5.643524e+01
   endloop
 endfacet
 facet normal -9.012641e-01 -2.057076e-01  3.813233e-01
   outer loop
     vertex  5.780542e+01  4.615354e+01  5.287048e+01
     vertex  5.675903e+01  4.413001e+01  4.930571e+01
     vertex  5.863091e+01  4.253682e+01  5.287048e+01
   endloop
 endfacet
 facet normal -7.221899e-01 -5.759272e-01  3.830792e-01
   outer loop
     vertex  5.780542e+01  4.615354e+01  5.287048e+01
     vertex  5.549244e+01  4.905393e+01  5.287048e+01
     vertex  5.527825e+01  4.695140e+01  4.930571e+01
   endloop
 endfacet
 facet normal -7.105466e-01 -5.666420e-01  4.171814e-01
   outer loop
     vertex  5.780542e+01  4.615354e+01  5.287048e+01
     vertex  5.653892e+01  5.036618e+01  5.643524e+01
     vertex  5.549244e+01  4.905393e+01  5.287048e+01
   endloop
 endfacet
 facet normal -7.105466e-01 -5.666420e-01  4.171814e-01
   outer loop
     vertex  5.780542e+01  4.615354e+01  5.287048e+01
     vertex  5.931763e+01  4.688179e+01  5.643524e+01
     vertex  5.653892e+01  5.036618e+01  5.643524e+01
   endloop
 endfacet
 facet normal  0.000000e+00  0.000000e+00  1.000000e+00
   outer loop
     vertex  4.793451e+01  4.876147e+01  4.930571e+01
     vertex  4.651346e+01  4.801564e+01  4.930571e+01
     vertex  4.531218e+01  4.695140e+01  4.930571e+01
   endloop
 endfacet
 facet normal  0.000000e+00  0.000000e+00  1.000000e+00
   outer loop
     vertex  4.383140e+01  4.094363e+01  4.930571e+01
     vertex  4.383140e+01  4.413001e+01  4.930571e+01
     vertex  4.363795e+01  4.253682e+01  4.930571e+01
   endloop
 endfacet
 facet normal  0.000000e+00 -0.000000e+00  1.000000e+00
   outer loop
     vertex  4.383140e+01  4.094363e+01  4.930571e+01
     vertex  4.440050e+01  4.563060e+01  4.930571e+01
     vertex  4.383140e+01  4.413001e+01  4.930571e+01
   endloop
 endfacet
 facet normal  0.000000e+00  0.000000e+00  1.000000e+00
   outer loop
     vertex  4.383140e+01  4.094363e+01  4.930571e+01
     vertex  4.531218e+01  4.695140e+01  4.930571e+01
     vertex  4.440050e+01  4.563060e+01  4.930571e+01
   endloop
 endfacet
 facet normal  0.000000e+00  0.000000e+00  1.000000e+00
   outer loop
     vertex  5.407697e+01  4.801564e+01  4.930571e+01
     vertex  4.949277e+01  4.914554e+01  4.930571e+01
     vertex  4.793451e+01  4.876147e+01  4.930571e+01
   endloop
 endfacet
 facet normal  0.000000e+00  0.000000e+00  1.000000e+00
   outer loop
     vertex  5.407697e+01  4.801564e+01  4.930571e+01
     vertex  5.109766e+01  4.914554e+01  4.930571e+01
     vertex  4.949277e+01  4.914554e+01  4.930571e+01
   endloop
 endfacet
 facet normal  0.000000e+00  0.000000e+00  1.000000e+00
   outer loop
     vertex  5.407697e+01  4.801564e+01  4.930571e+01
     vertex  5.265591e+01  4.876147e+01  4.930571e+01
     vertex  5.109766e+01  4.914554e+01  4.930571e+01
   endloop
 endfacet
 facet normal  0.000000e+00  0.000000e+00  1.000000e+00
   outer loop
     vertex  5.675903e+01  4.413001e+01  4.930571e+01
     vertex  5.618993e+01  4.563060e+01  4.930571e+01
     vertex  5.527825e+01  4.695140e+01  4.930571e+01
   endloop
 endfacet
 facet normal  0.000000e+00  0.000000e+00  1.000000e+00
   outer loop
     vertex  4.949277e+01  3.592809e+01  4.930571e+01
     vertex  4.651346e+01  3.705799e+01  4.930571e+01
     vertex  4.793451e+01  3.631217e+01  4.930571e+01
   endloop
 endfacet
 facet normal  0.000000e+00  0.000000e+00  1.000000e+00
   outer loop
     vertex  4.949277e+01  3.592809e+01  4.930571e+01
     vertex  4.531218e+01  3.812223e+01  4.930571e+01
     vertex  4.651346e+01  3.705799e+01  4.930571e+01
   endloop
 endfacet
 facet normal  0.000000e+00  0.000000e+00  1.000000e+00
   outer loop
     vertex  4.949277e+01  3.592809e+01  4.930571e+01
     vertex  4.440050e+01  3.944303e+01  4.930571e+01
     vertex  4.531218e+01  3.812223e+01  4.930571e+01
   endloop
 endfacet
 facet normal  0.000000e+00  0.000000e+00  1.000000e+00
   outer loop
     vertex  4.949277e+01  3.592809e+01  4.930571e+01
     vertex  4.383140e+01  4.094363e+01  4.930571e+01
     vertex  4.440050e+01  3.944303e+01  4.930571e+01
   endloop
 endfacet
 facet normal  0.000000e+00  0.000000e+00  1.000000e+00
   outer loop
     vertex  4.949277e+01  3.592809e+01  4.930571e+01
     vertex  4.531218e+01  4.695140e+01  4.930571e+01
     vertex  4.383140e+01  4.094363e+01  4.930571e+01
   endloop
 endfacet
 facet normal  0.000000e+00  0.000000e+00  1.000000e+00
   outer loop
     vertex  5.695248e+01  4.253682e+01  4.930571e+01
     vertex  5.675903e+01  4.413001e+01  4.930571e+01
     vertex  5.527825e+01  4.695140e+01  4.930571e+01
   endloop
 endfacet
 facet normal  0.000000e+00  0.000000e+00  1.000000e+00
   outer loop
     vertex  5.109766e+01  3.592809e+01  4.930571e+01
     vertex  4.531218e+01  4.695140e+01  4.930571e+01
     vertex  4.949277e+01  3.592809e+01  4.930571e+01
   endloop
 endfacet
 facet normal  0.000000e+00  0.000000e+00  1.000000e+00
   outer loop
     vertex  5.265591e+01  3.631217e+01  4.930571e+01
     vertex  4.531218e+01  4.695140e+01  4.930571e+01
     vertex  5.109766e+01  3.592809e+01  4.930571e+01
   endloop
 endfacet
 facet normal  0.000000e+00  0.000000e+00  1.000000e+00
   outer loop
     vertex  5.618993e+01  3.944303e+01  4.930571e+01
     vertex  5.675903e+01  4.094363e+01  4.930571e+01
     vertex  5.695248e+01  4.253682e+01  4.930571e+01
   endloop
 endfacet
 facet normal  0.000000e+00 -0.000000e+00  1.000000e+00
   outer loop
     vertex  5.618993e+01  3.944303e+01  4.930571e+01
     vertex  5.695248e+01  4.253682e+01  4.930571e+01
     vertex  5.527825e+01  4.695140e+01  4.930571e+01
   endloop
 endfacet
 facet normal  0.000000e+00 -0.000000e+00  1.000000e+00
   outer loop
     vertex  5.407697e+01  3.705799e+01  4.930571e+01
     vertex  5.527825e+01  4.695140e+01  4.930571e+01
     vertex  5.407697e+01  4.801564e+01  4.930571e+01
   endloop
 endfacet
 facet normal  0.000000e+00  0.000000e+00  1.000000e+00
   outer loop
     vertex  5.407697e+01  3.705799e+01  4.930571e+01
     vertex  4.793451e+01  4.876147e+01  4.930571e+01
     vertex  4.531218e+01  4.695140e+01  4.930571e+01
   endloop
 endfacet
 facet normal  0.000000e+00  0.000000e+00  1.000000e+00
   outer loop
     vertex  5.407697e+01  3.705799e+01  4.930571e+01
     vertex  5.407697e+01  4.801564e+01  4.930571e+01
     vertex  4.793451e+01  4.876147e+01  4.930571e+01
   endloop
 endfacet
 facet normal  0.000000e+00  0.000000e+00  1.000000e+00
   outer loop
     vertex  5.407697e+01  3.705799e+01  4.930571e+01
     vertex  4.531218e+01  4.695140e+01  4.930571e+01
     vertex  5.265591e+01  3.631217e+01  4.930571e+01
   endloop
 endfacet
 facet normal  0.000000e+00  0.000000e+00  1.000000e+00
   outer loop
     vertex  5.407697e+01  3.705799e+01  4.930571e+01
     vertex  5.618993e+01  3.944303e+01  4.930571e+01
     vertex  5.527825e+01  4.695140e+01  4.930571e+01
   endloop
 endfacet
 facet normal  0.000000e+00 -0.000000e+00  1.000000e+00
   outer loop
     vertex  5.527825e+01  3.812223e+01  4.930571e+01
     vertex  5.618993e+01  3.944303e+01  4.930571e+01
     vertex  5.407697e+01  3.705799e+01  4.930571e+01
   endloop
 endfacet
endsolid
