solid 
 facet normal -1.000000e+00  0.000000e+00  0.000000e+00
   outer loop
     vertex  0.000000e+00  0.000000e+00  0.000000e+00
     vertex  0.000000e+00  8.873179e+01  6.000000e+01
     vertex  0.000000e+00  8.873179e+01  0.000000e+00
   endloop
 endfacet
 facet normal -1.000000e+00  0.000000e+00  0.000000e+00
   outer loop
     vertex  0.000000e+00  0.000000e+00  6.000000e+01
     vertex  0.000000e+00  8.873179e+01  6.000000e+01
     vertex  0.000000e+00  0.000000e+00  0.000000e+00
   endloop
 endfacet
 facet normal  0.000000e+00 -1.000000e+00 -0.000000e+00
   outer loop
     vertex  1.401943e+02  0.000000e+00  6.000000e+01
     vertex  0.000000e+00  0.000000e+00  0.000000e+00
     vertex  1.401943e+02  0.000000e+00  0.000000e+00
   endloop
 endfacet
 facet normal -0.000000e+00 -1.000000e+00  0.000000e+00
   outer loop
     vertex  1.401943e+02  0.000000e+00  6.000000e+01
     vertex  0.000000e+00  0.000000e+00  6.000000e+01
     vertex  0.000000e+00  0.000000e+00  0.000000e+00
   endloop
 endfacet
 facet normal  0.000000e+00  0.000000e+00  1.000000e+00
   outer loop
     vertex  1.723731e+01  1.561393e+01  6.000000e+01
     vertex  1.503625e+01  1.756390e+01  6.000000e+01
     vertex  0.000000e+00  0.000000e+00  6.000000e+01
   endloop
 endfacet
 facet normal  0.000000e+00  0.000000e+00  1.000000e+00
   outer loop
     vertex  1.336582e+01  1.998395e+01  6.000000e+01
     vertex  0.000000e+00  0.000000e+00  6.000000e+01
     vertex  1.503625e+01  1.756390e+01  6.000000e+01
   endloop
 endfacet
 facet normal  0.000000e+00  0.000000e+00  1.000000e+00
   outer loop
     vertex  1.984106e+01  1.424738e+01  6.000000e+01
     vertex  1.723731e+01  1.561393e+01  6.000000e+01
     vertex  0.000000e+00  0.000000e+00  6.000000e+01
   endloop
 endfacet
 facet normal  0.000000e+00  0.000000e+00  1.000000e+00
   outer loop
     vertex  1.232307e+01  2.273343e+01  6.000000e+01
     vertex  0.000000e+00  0.000000e+00  6.000000e+01
     vertex  1.336582e+01  1.998395e+01  6.000000e+01
   endloop
 endfacet
 facet normal  0.000000e+00  0.000000e+00  1.000000e+00
   outer loop
     vertex  2.269619e+01  1.354365e+01  6.000000e+01
     vertex  1.984106e+01  1.424738e+01  6.000000e+01
     vertex  0.000000e+00  0.000000e+00  6.000000e+01
   endloop
 endfacet
 facet normal  0.000000e+00  0.000000e+00  1.000000e+00
   outer loop
     vertex  1.196863e+01  2.565257e+01  6.000000e+01
     vertex  0.000000e+00  0.000000e+00  6.000000e+01
     vertex  1.232307e+01  2.273343e+01  6.000000e+01
   endloop
 endfacet
 facet normal  0.000000e+00  0.000000e+00  1.000000e+00
   outer loop
     vertex  2.563677e+01  1.354365e+01  6.000000e+01
     vertex  2.269619e+01  1.354365e+01  6.000000e+01
     vertex  0.000000e+00  0.000000e+00  6.000000e+01
   endloop
 endfacet
 facet normal  0.000000e+00  0.000000e+00  1.000000e+00
   outer loop
     vertex  1.232307e+01  2.857171e+01  6.000000e+01
     vertex  0.000000e+00  0.000000e+00  6.000000e+01
     vertex  1.196863e+01  2.565257e+01  6.000000e+01
   endloop
 endfacet
 facet normal  0.000000e+00  0.000000e+00  1.000000e+00
   outer loop
     vertex  2.849190e+01  1.424738e+01  6.000000e+01
     vertex  2.563677e+01  1.354365e+01  6.000000e+01
     vertex  0.000000e+00  0.000000e+00  6.000000e+01
   endloop
 endfacet
 facet normal  0.000000e+00  0.000000e+00  1.000000e+00
   outer loop
     vertex  0.000000e+00  8.873179e+01  6.000000e+01
     vertex  1.232307e+01  2.857171e+01  6.000000e+01
     vertex  1.336582e+01  3.132120e+01  6.000000e+01
   endloop
 endfacet
 facet normal  0.000000e+00  0.000000e+00  1.000000e+00
   outer loop
     vertex  0.000000e+00  8.873179e+01  6.000000e+01
     vertex  1.336582e+01  3.132120e+01  6.000000e+01
     vertex  1.503625e+01  3.374124e+01  6.000000e+01
   endloop
 endfacet
 facet normal  0.000000e+00  0.000000e+00  1.000000e+00
   outer loop
     vertex  0.000000e+00  8.873179e+01  6.000000e+01
     vertex  1.503625e+01  3.374124e+01  6.000000e+01
     vertex  1.723731e+01  3.569121e+01  6.000000e+01
   endloop
 endfacet
 facet normal  0.000000e+00  0.000000e+00  1.000000e+00
   outer loop
     vertex  0.000000e+00  8.873179e+01  6.000000e+01
     vertex  1.723731e+01  3.569121e+01  6.000000e+01
     vertex  1.984106e+01  3.705776e+01  6.000000e+01
   endloop
 endfacet
 facet normal  0.000000e+00  0.000000e+00  1.000000e+00
   outer loop
     vertex  0.000000e+00  8.873179e+01  6.000000e+01
     vertex  1.984106e+01  3.705776e+01  6.000000e+01
     vertex  2.269619e+01  3.776149e+01  6.000000e+01
   endloop
 endfacet
 facet normal  0.000000e+00  0.000000e+00  1.000000e+00
   outer loop
     vertex  0.000000e+00  8.873179e+01  6.000000e+01
     vertex  2.269619e+01  3.776149e+01  6.000000e+01
     vertex  2.563677e+01  3.776149e+01  6.000000e+01
   endloop
 endfacet
 facet normal  0.000000e+00  0.000000e+00  1.000000e+00
   outer loop
     vertex  0.000000e+00  8.873179e+01  6.000000e+01
     vertex  2.563677e+01  3.776149e+01  6.000000e+01
     vertex  2.849190e+01  3.705776e+01  6.000000e+01
   endloop
 endfacet
 facet normal  0.000000e+00  0.000000e+00  1.000000e+00
   outer loop
     vertex  0.000000e+00  8.873179e+01  6.000000e+01
     vertex  2.849190e+01  3.705776e+01  6.000000e+01
     vertex  3.109565e+01  3.569121e+01  6.000000e+01
   endloop
 endfacet
 facet normal  0.000000e+00  0.000000e+00  1.000000e+00
   outer loop
     vertex  0.000000e+00  8.873179e+01  6.000000e+01
     vertex  0.000000e+00  0.000000e+00  6.000000e+01
     vertex  1.232307e+01  2.857171e+01  6.000000e+01
   endloop
 endfacet
 facet normal  0.000000e+00  0.000000e+00  1.000000e+00
   outer loop
     vertex  1.401943e+02  0.000000e+00  6.000000e+01
     vertex  3.636433e+01  2.565257e+01  6.000000e+01
     vertex  3.600989e+01  2.273343e+01  6.000000e+01
   endloop
 endfacet
 facet normal  0.000000e+00  0.000000e+00  1.000000e+00
   outer loop
     vertex  1.401943e+02  0.000000e+00  6.000000e+01
     vertex  3.600989e+01  2.273343e+01  6.000000e+01
     vertex  3.496714e+01  1.998395e+01  6.000000e+01
   endloop
 endfacet
 facet normal  0.000000e+00  0.000000e+00  1.000000e+00
   outer loop
     vertex  1.401943e+02  0.000000e+00  6.000000e+01
     vertex  3.496714e+01  1.998395e+01  6.000000e+01
     vertex  3.329670e+01  1.756390e+01  6.000000e+01
   endloop
 endfacet
 facet normal  0.000000e+00  0.000000e+00  1.000000e+00
   outer loop
     vertex  1.401943e+02  0.000000e+00  6.000000e+01
     vertex  3.329670e+01  1.756390e+01  6.000000e+01
     vertex  3.109565e+01  1.561393e+01  6.000000e+01
   endloop
 endfacet
 facet normal  0.000000e+00  0.000000e+00  1.000000e+00
   outer loop
     vertex  1.401943e+02  0.000000e+00  6.000000e+01
     vertex  3.109565e+01  1.561393e+01  6.000000e+01
     vertex  2.849190e+01  1.424738e+01  6.000000e+01
   endloop
 endfacet
 facet normal  0.000000e+00  0.000000e+00  1.000000e+00
   outer loop
     vertex  1.401943e+02  0.000000e+00  6.000000e+01
     vertex  3.600989e+01  2.857171e+01  6.000000e+01
     vertex  3.636433e+01  2.565257e+01  6.000000e+01
   endloop
 endfacet
 facet normal  0.000000e+00  0.000000e+00  1.000000e+00
   outer loop
     vertex  1.401943e+02  0.000000e+00  6.000000e+01
     vertex  2.849190e+01  1.424738e+01  6.000000e+01
     vertex  0.000000e+00  0.000000e+00  6.000000e+01
   endloop
 endfacet
 facet normal  0.000000e+00  0.000000e+00  1.000000e+00
   outer loop
     vertex  1.401943e+02  8.873179e+01  6.000000e+01
     vertex  3.109565e+01  3.569121e+01  6.000000e+01
     vertex  3.329670e+01  3.374124e+01  6.000000e+01
   endloop
 endfacet
 facet normal  0.000000e+00  0.000000e+00  1.000000e+00
   outer loop
     vertex  1.401943e+02  8.873179e+01  6.000000e+01
     vertex  3.329670e+01  3.374124e+01  6.000000e+01
     vertex  3.496714e+01  3.132120e+01  6.000000e+01
   endloop
 endfacet
 facet normal  0.000000e+00  0.000000e+00  1.000000e+00
   outer loop
     vertex  1.401943e+02  8.873179e+01  6.000000e+01
     vertex  3.496714e+01  3.132120e+01  6.000000e+01
     vertex  3.600989e+01  2.857171e+01  6.000000e+01
   endloop
 endfacet
 facet normal  0.000000e+00  0.000000e+00  1.000000e+00
   outer loop
     vertex  1.401943e+02  8.873179e+01  6.000000e+01
     vertex  3.600989e+01  2.857171e+01  6.000000e+01
     vertex  1.401943e+02  0.000000e+00  6.000000e+01
   endloop
 endfacet
 facet normal  0.000000e+00  0.000000e+00  1.000000e+00
   outer loop
     vertex  1.401943e+02  8.873179e+01  6.000000e+01
     vertex  0.000000e+00  8.873179e+01  6.000000e+01
     vertex  3.109565e+01  3.569121e+01  6.000000e+01
   endloop
 endfacet
 facet normal  0.000000e+00  1.000000e+00  0.000000e+00
   outer loop
     vertex  1.401943e+02  8.873179e+01  6.000000e+01
     vertex  1.401943e+02  8.873179e+01  0.000000e+00
     vertex  0.000000e+00  8.873179e+01  0.000000e+00
   endloop
 endfacet
 facet normal  0.000000e+00  1.000000e+00  0.000000e+00
   outer loop
     vertex  1.401943e+02  8.873179e+01  6.000000e+01
     vertex  0.000000e+00  8.873179e+01  0.000000e+00
     vertex  0.000000e+00  8.873179e+01  6.000000e+01
   endloop
 endfacet
 facet normal -0.000000e+00  0.000000e+00 -1.000000e+00
   outer loop
     vertex  1.401943e+02  8.873179e+01  0.000000e+00
     vertex  0.000000e+00  0.000000e+00  0.000000e+00
     vertex  0.000000e+00  8.873179e+01  0.000000e+00
   endloop
 endfacet
 facet normal  0.000000e+00 -0.000000e+00 -1.000000e+00
   outer loop
     vertex  1.401943e+02  8.873179e+01  0.000000e+00
     vertex  1.401943e+02  0.000000e+00  0.000000e+00
     vertex  0.000000e+00  0.000000e+00  0.000000e+00
   endloop
 endfacet
 facet normal  1.000000e+00  0.000000e+00  0.000000e+00
   outer loop
     vertex  1.401943e+02  0.000000e+00  0.000000e+00
     vertex  1.401943e+02  8.873179e+01  0.000000e+00
     vertex  1.401943e+02  8.873179e+01  6.000000e+01
   endloop
 endfacet
 facet normal  1.000000e+00 -0.000000e+00  0.000000e+00
   outer loop
     vertex  1.401943e+02  0.000000e+00  6.000000e+01
     vertex  1.401943e+02  0.000000e+00  0.000000e+00
     vertex  1.401943e+02  8.873179e+01  6.000000e+01
   endloop
 endfacet
 facet normal -6.963384e-01  8.455079e-02  7.127159e-01
   outer loop
     vertex  3.241123e+01  2.565257e+01  5.613773e+01
     vertex  3.600989e+01  2.273343e+01  6.000000e+01
     vertex  3.636433e+01  2.565257e+01  6.000000e+01
   endloop
 endfacet
 facet normal -6.963384e-01  8.455079e-02  7.127159e-01
   outer loop
     vertex  2.449517e+01  2.557155e+01  4.841319e+01
     vertex  2.845812e+01  2.565257e+01  5.227546e+01
     vertex  2.450501e+01  2.565257e+01  4.841319e+01
   endloop
 endfacet
 facet normal -6.963384e-01 -8.455079e-02  7.127159e-01
   outer loop
     vertex  3.241123e+01  2.565257e+01  5.613773e+01
     vertex  3.636433e+01  2.565257e+01  6.000000e+01
     vertex  3.600989e+01  2.857171e+01  6.000000e+01
   endloop
 endfacet
 facet normal -6.963384e-01 -8.455079e-02  7.127159e-01
   outer loop
     vertex  2.450501e+01  2.565257e+01  4.841319e+01
     vertex  2.845812e+01  2.565257e+01  5.227546e+01
     vertex  2.449517e+01  2.573359e+01  4.841319e+01
   endloop
 endfacet
 facet normal -6.598731e-01  2.502569e-01  7.084765e-01
   outer loop
     vertex  3.169843e+01  2.229913e+01  5.613773e+01
     vertex  3.496714e+01  1.998395e+01  6.000000e+01
     vertex  3.600989e+01  2.273343e+01  6.000000e+01
   endloop
 endfacet
 facet normal -5.712656e-01  3.943161e-01  7.198406e-01
   outer loop
     vertex  3.169843e+01  2.229913e+01  5.613773e+01
     vertex  3.329670e+01  1.756390e+01  6.000000e+01
     vertex  3.496714e+01  1.998395e+01  6.000000e+01
   endloop
 endfacet
 facet normal -6.683743e-01  1.420673e-01  7.301320e-01
   outer loop
     vertex  3.169843e+01  2.229913e+01  5.613773e+01
     vertex  3.600989e+01  2.273343e+01  6.000000e+01
     vertex  3.241123e+01  2.565257e+01  5.613773e+01
   endloop
 endfacet
 facet normal -5.564337e-01  4.042727e-01  7.259099e-01
   outer loop
     vertex  2.968329e+01  1.952553e+01  5.613773e+01
     vertex  3.329670e+01  1.756390e+01  6.000000e+01
     vertex  3.169843e+01  2.229913e+01  5.613773e+01
   endloop
 endfacet
 facet normal -4.687668e-01  5.291284e-01  7.073053e-01
   outer loop
     vertex  2.968329e+01  1.952553e+01  5.613773e+01
     vertex  3.109565e+01  1.561393e+01  6.000000e+01
     vertex  3.329670e+01  1.756390e+01  6.000000e+01
   endloop
 endfacet
 facet normal -3.235615e-01  6.164949e-01  7.178036e-01
   outer loop
     vertex  2.671425e+01  1.781135e+01  5.613773e+01
     vertex  2.849190e+01  1.424738e+01  6.000000e+01
     vertex  3.109565e+01  1.561393e+01  6.000000e+01
   endloop
 endfacet
 facet normal -1.687064e-01  6.844687e-01  7.092537e-01
   outer loop
     vertex  2.671425e+01  1.781135e+01  5.613773e+01
     vertex  2.563677e+01  1.354365e+01  6.000000e+01
     vertex  2.849190e+01  1.424738e+01  6.000000e+01
   endloop
 endfacet
 facet normal -3.431228e-01  5.943061e-01  7.273699e-01
   outer loop
     vertex  2.671425e+01  1.781135e+01  5.613773e+01
     vertex  3.109565e+01  1.561393e+01  6.000000e+01
     vertex  2.968329e+01  1.952553e+01  5.613773e+01
   endloop
 endfacet
 facet normal -6.537957e-01  2.479520e-01  7.148923e-01
   outer loop
     vertex  2.808709e+01  2.390700e+01  5.227546e+01
     vertex  2.449517e+01  2.557155e+01  4.841319e+01
     vertex  2.446623e+01  2.549525e+01  4.841319e+01
   endloop
 endfacet
 facet normal -5.804433e-01  4.006511e-01  7.089177e-01
   outer loop
     vertex  2.808709e+01  2.390700e+01  5.227546e+01
     vertex  2.446623e+01  2.549525e+01  4.841319e+01
     vertex  2.441987e+01  2.542808e+01  4.841319e+01
   endloop
 endfacet
 facet normal -6.912561e-01  1.469310e-01  7.075141e-01
   outer loop
     vertex  2.808709e+01  2.390700e+01  5.227546e+01
     vertex  3.169843e+01  2.229913e+01  5.613773e+01
     vertex  3.241123e+01  2.565257e+01  5.613773e+01
   endloop
 endfacet
 facet normal -6.912561e-01  1.469310e-01  7.075141e-01
   outer loop
     vertex  2.808709e+01  2.390700e+01  5.227546e+01
     vertex  3.241123e+01  2.565257e+01  5.613773e+01
     vertex  2.845812e+01  2.565257e+01  5.227546e+01
   endloop
 endfacet
 facet normal -6.919027e-01  1.470685e-01  7.068532e-01
   outer loop
     vertex  2.808709e+01  2.390700e+01  5.227546e+01
     vertex  2.845812e+01  2.565257e+01  5.227546e+01
     vertex  2.449517e+01  2.557155e+01  4.841319e+01
   endloop
 endfacet
 facet normal  0.000000e+00  7.028113e-01  7.113763e-01
   outer loop
     vertex  2.330467e+01  1.745299e+01  5.613773e+01
     vertex  2.269619e+01  1.354365e+01  6.000000e+01
     vertex  2.563677e+01  1.354365e+01  6.000000e+01
   endloop
 endfacet
 facet normal  1.674981e-01  6.795665e-01  7.142365e-01
   outer loop
     vertex  2.330467e+01  1.745299e+01  5.613773e+01
     vertex  1.984106e+01  1.424738e+01  6.000000e+01
     vertex  2.269619e+01  1.354365e+01  6.000000e+01
   endloop
 endfacet
 facet normal -7.138115e-02  6.791462e-01  7.305239e-01
   outer loop
     vertex  2.330467e+01  1.745299e+01  5.613773e+01
     vertex  2.563677e+01  1.354365e+01  6.000000e+01
     vertex  2.671425e+01  1.781135e+01  5.613773e+01
   endloop
 endfacet
 facet normal -4.632775e-01  5.229322e-01  7.154829e-01
   outer loop
     vertex  2.703815e+01  2.246326e+01  5.227546e+01
     vertex  2.441987e+01  2.542808e+01  4.841319e+01
     vertex  2.435879e+01  2.537396e+01  4.841319e+01
   endloop
 endfacet
 facet normal -5.721624e-01  4.157003e-01  7.069819e-01
   outer loop
     vertex  2.703815e+01  2.246326e+01  5.227546e+01
     vertex  2.808709e+01  2.390700e+01  5.227546e+01
     vertex  2.441987e+01  2.542808e+01  4.841319e+01
   endloop
 endfacet
 facet normal -5.717317e-01  4.153874e-01  7.075141e-01
   outer loop
     vertex  2.703815e+01  2.246326e+01  5.227546e+01
     vertex  3.169843e+01  2.229913e+01  5.613773e+01
     vertex  2.808709e+01  2.390700e+01  5.227546e+01
   endloop
 endfacet
 facet normal -5.717317e-01  4.153874e-01  7.075141e-01
   outer loop
     vertex  2.703815e+01  2.246326e+01  5.227546e+01
     vertex  2.968329e+01  1.952553e+01  5.613773e+01
     vertex  3.169843e+01  2.229913e+01  5.613773e+01
   endloop
 endfacet
 facet normal  3.282437e-01  6.254162e-01  7.078917e-01
   outer loop
     vertex  2.004411e+01  1.851241e+01  5.613773e+01
     vertex  1.723731e+01  1.561393e+01  6.000000e+01
     vertex  1.984106e+01  1.424738e+01  6.000000e+01
   endloop
 endfacet
 facet normal  4.587826e-01  5.178585e-01  7.220396e-01
   outer loop
     vertex  2.004411e+01  1.851241e+01  5.613773e+01
     vertex  1.503625e+01  1.756390e+01  6.000000e+01
     vertex  1.723731e+01  1.561393e+01  6.000000e+01
   endloop
 endfacet
 facet normal  2.113692e-01  6.505274e-01  7.294773e-01
   outer loop
     vertex  2.004411e+01  1.851241e+01  5.613773e+01
     vertex  1.984106e+01  1.424738e+01  6.000000e+01
     vertex  2.330467e+01  1.745299e+01  5.613773e+01
   endloop
 endfacet
 facet normal -3.272484e-01  6.235197e-01  7.100223e-01
   outer loop
     vertex  2.549267e+01  2.157098e+01  5.227546e+01
     vertex  2.435879e+01  2.537396e+01  4.841319e+01
     vertex  2.428652e+01  2.533604e+01  4.841319e+01
   endloop
 endfacet
 facet normal -1.674343e-01  6.793075e-01  7.144978e-01
   outer loop
     vertex  2.549267e+01  2.157098e+01  5.227546e+01
     vertex  2.428652e+01  2.533604e+01  4.841319e+01
     vertex  2.420728e+01  2.531651e+01  4.841319e+01
   endloop
 endfacet
 facet normal -3.533496e-01  6.120195e-01  7.075141e-01
   outer loop
     vertex  2.549267e+01  2.157098e+01  5.227546e+01
     vertex  2.968329e+01  1.952553e+01  5.613773e+01
     vertex  2.703815e+01  2.246326e+01  5.227546e+01
   endloop
 endfacet
 facet normal -3.536379e-01  6.125188e-01  7.069377e-01
   outer loop
     vertex  2.549267e+01  2.157098e+01  5.227546e+01
     vertex  2.703815e+01  2.246326e+01  5.227546e+01
     vertex  2.435879e+01  2.537396e+01  4.841319e+01
   endloop
 endfacet
 facet normal -3.533496e-01  6.120195e-01  7.075141e-01
   outer loop
     vertex  2.549267e+01  2.157098e+01  5.227546e+01
     vertex  2.671425e+01  1.781135e+01  5.613773e+01
     vertex  2.968329e+01  1.952553e+01  5.613773e+01
   endloop
 endfacet
 facet normal  5.816129e-01  4.014584e-01  7.075010e-01
   outer loop
     vertex  1.749634e+01  2.080643e+01  5.613773e+01
     vertex  1.336582e+01  1.998395e+01  6.000000e+01
     vertex  1.503625e+01  1.756390e+01  6.000000e+01
   endloop
 endfacet
 facet normal  4.614451e-01  5.124867e-01  7.241725e-01
   outer loop
     vertex  1.749634e+01  2.080643e+01  5.613773e+01
     vertex  1.503625e+01  1.756390e+01  6.000000e+01
     vertex  2.004411e+01  1.851241e+01  5.613773e+01
   endloop
 endfacet
 facet normal -7.387018e-02  7.028278e-01  7.075141e-01
   outer loop
     vertex  2.371788e+01  2.138444e+01  5.227546e+01
     vertex  2.671425e+01  1.781135e+01  5.613773e+01
     vertex  2.549267e+01  2.157098e+01  5.227546e+01
   endloop
 endfacet
 facet normal  0.000000e+00  7.007467e-01  7.134102e-01
   outer loop
     vertex  2.371788e+01  2.138444e+01  5.227546e+01
     vertex  2.420728e+01  2.531651e+01  4.841319e+01
     vertex  2.412567e+01  2.531651e+01  4.841319e+01
   endloop
 endfacet
 facet normal  1.680618e-01  6.818537e-01  7.119204e-01
   outer loop
     vertex  2.371788e+01  2.138444e+01  5.227546e+01
     vertex  2.412567e+01  2.531651e+01  4.841319e+01
     vertex  2.404643e+01  2.533604e+01  4.841319e+01
   endloop
 endfacet
 facet normal -7.394054e-02  7.034972e-01  7.068412e-01
   outer loop
     vertex  2.371788e+01  2.138444e+01  5.227546e+01
     vertex  2.549267e+01  2.157098e+01  5.227546e+01
     vertex  2.420728e+01  2.531651e+01  4.841319e+01
   endloop
 endfacet
 facet normal -7.387018e-02  7.028278e-01  7.075141e-01
   outer loop
     vertex  2.371788e+01  2.138444e+01  5.227546e+01
     vertex  2.330467e+01  1.745299e+01  5.613773e+01
     vertex  2.671425e+01  1.781135e+01  5.613773e+01
   endloop
 endfacet
 facet normal  6.257644e-01  2.786083e-01  7.285577e-01
   outer loop
     vertex  1.610190e+01  2.393839e+01  5.613773e+01
     vertex  1.336582e+01  1.998395e+01  6.000000e+01
     vertex  1.749634e+01  2.080643e+01  5.613773e+01
   endloop
 endfacet
 facet normal  6.527985e-01  2.475738e-01  7.159339e-01
   outer loop
     vertex  1.610190e+01  2.393839e+01  5.613773e+01
     vertex  1.232307e+01  2.273343e+01  6.000000e+01
     vertex  1.336582e+01  1.998395e+01  6.000000e+01
   endloop
 endfacet
 facet normal  6.988458e-01  8.485525e-02  7.102211e-01
   outer loop
     vertex  1.610190e+01  2.393839e+01  5.613773e+01
     vertex  1.196863e+01  2.565257e+01  6.000000e+01
     vertex  1.232307e+01  2.273343e+01  6.000000e+01
   endloop
 endfacet
 facet normal  3.248101e-01  6.188739e-01  7.151878e-01
   outer loop
     vertex  2.202066e+01  2.193590e+01  5.227546e+01
     vertex  2.404643e+01  2.533604e+01  4.841319e+01
     vertex  2.397417e+01  2.537396e+01  4.841319e+01
   endloop
 endfacet
 facet normal  4.684995e-01  5.288267e-01  7.077080e-01
   outer loop
     vertex  2.202066e+01  2.193590e+01  5.227546e+01
     vertex  2.397417e+01  2.537396e+01  4.841319e+01
     vertex  2.391308e+01  2.542808e+01  4.841319e+01
   endloop
 endfacet
 facet normal  2.183821e-01  6.721109e-01  7.075141e-01
   outer loop
     vertex  2.202066e+01  2.193590e+01  5.227546e+01
     vertex  2.004411e+01  1.851241e+01  5.613773e+01
     vertex  2.330467e+01  1.745299e+01  5.613773e+01
   endloop
 endfacet
 facet normal  2.185801e-01  6.727204e-01  7.068734e-01
   outer loop
     vertex  2.202066e+01  2.193590e+01  5.227546e+01
     vertex  2.371788e+01  2.138444e+01  5.227546e+01
     vertex  2.404643e+01  2.533604e+01  4.841319e+01
   endloop
 endfacet
 facet normal  2.183821e-01  6.721109e-01  7.075141e-01
   outer loop
     vertex  2.202066e+01  2.193590e+01  5.227546e+01
     vertex  2.330467e+01  1.745299e+01  5.613773e+01
     vertex  2.371788e+01  2.138444e+01  5.227546e+01
   endloop
 endfacet
 facet normal  6.988458e-01 -8.485525e-02  7.102211e-01
   outer loop
     vertex  1.610190e+01  2.736675e+01  5.613773e+01
     vertex  1.232307e+01  2.857171e+01  6.000000e+01
     vertex  1.196863e+01  2.565257e+01  6.000000e+01
   endloop
 endfacet
 facet normal  6.527985e-01 -2.475738e-01  7.159339e-01
   outer loop
     vertex  1.610190e+01  2.736675e+01  5.613773e+01
     vertex  1.336582e+01  3.132120e+01  6.000000e+01
     vertex  1.232307e+01  2.857171e+01  6.000000e+01
   endloop
 endfacet
 facet normal  6.827476e-01 -7.075126e-16  7.306543e-01
   outer loop
     vertex  1.610190e+01  2.736675e+01  5.613773e+01
     vertex  1.196863e+01  2.565257e+01  6.000000e+01
     vertex  1.610190e+01  2.393839e+01  5.613773e+01
   endloop
 endfacet
 facet normal  5.750443e-01  3.969244e-01  7.153846e-01
   outer loop
     vertex  2.069447e+01  2.313001e+01  5.227546e+01
     vertex  2.391308e+01  2.542808e+01  4.841319e+01
     vertex  2.386672e+01  2.549525e+01  4.841319e+01
   endloop
 endfacet
 facet normal  4.731954e-01  5.255367e-01  7.070341e-01
   outer loop
     vertex  2.069447e+01  2.313001e+01  5.227546e+01
     vertex  2.202066e+01  2.193590e+01  5.227546e+01
     vertex  2.391308e+01  2.542808e+01  4.841319e+01
   endloop
 endfacet
 facet normal  4.728741e-01  5.251799e-01  7.075141e-01
   outer loop
     vertex  2.069447e+01  2.313001e+01  5.227546e+01
     vertex  1.749634e+01  2.080643e+01  5.613773e+01
     vertex  2.004411e+01  1.851241e+01  5.613773e+01
   endloop
 endfacet
 facet normal  4.728741e-01  5.251799e-01  7.075141e-01
   outer loop
     vertex  2.069447e+01  2.313001e+01  5.227546e+01
     vertex  2.004411e+01  1.851241e+01  5.613773e+01
     vertex  2.202066e+01  2.193590e+01  5.227546e+01
   endloop
 endfacet
 facet normal  6.257644e-01 -2.786083e-01  7.285577e-01
   outer loop
     vertex  1.749634e+01  3.049871e+01  5.613773e+01
     vertex  1.336582e+01  3.132120e+01  6.000000e+01
     vertex  1.610190e+01  2.736675e+01  5.613773e+01
   endloop
 endfacet
 facet normal  5.816129e-01 -4.014584e-01  7.075010e-01
   outer loop
     vertex  1.749634e+01  3.049871e+01  5.613773e+01
     vertex  1.503625e+01  3.374124e+01  6.000000e+01
     vertex  1.336582e+01  3.132120e+01  6.000000e+01
   endloop
 endfacet
 facet normal  6.456018e-01  2.874405e-01  7.075141e-01
   outer loop
     vertex  1.996862e+01  2.476029e+01  5.227546e+01
     vertex  1.749634e+01  2.080643e+01  5.613773e+01
     vertex  2.069447e+01  2.313001e+01  5.227546e+01
   endloop
 endfacet
 facet normal  6.574743e-01  2.493471e-01  7.110229e-01
   outer loop
     vertex  1.996862e+01  2.476029e+01  5.227546e+01
     vertex  2.386672e+01  2.549525e+01  4.841319e+01
     vertex  2.383778e+01  2.557155e+01  4.841319e+01
   endloop
 endfacet
 facet normal  6.950369e-01  8.439275e-02  7.140039e-01
   outer loop
     vertex  1.996862e+01  2.476029e+01  5.227546e+01
     vertex  2.383778e+01  2.557155e+01  4.841319e+01
     vertex  2.382795e+01  2.565257e+01  4.841319e+01
   endloop
 endfacet
 facet normal  6.456018e-01  2.874405e-01  7.075141e-01
   outer loop
     vertex  1.996862e+01  2.476029e+01  5.227546e+01
     vertex  1.610190e+01  2.393839e+01  5.613773e+01
     vertex  1.749634e+01  2.080643e+01  5.613773e+01
   endloop
 endfacet
 facet normal  7.066992e-01 -7.584485e-16  7.075141e-01
   outer loop
     vertex  1.996862e+01  2.476029e+01  5.227546e+01
     vertex  1.610190e+01  2.736675e+01  5.613773e+01
     vertex  1.610190e+01  2.393839e+01  5.613773e+01
   endloop
 endfacet
 facet normal  6.461616e-01  2.876897e-01  7.069015e-01
   outer loop
     vertex  1.996862e+01  2.476029e+01  5.227546e+01
     vertex  2.069447e+01  2.313001e+01  5.227546e+01
     vertex  2.386672e+01  2.549525e+01  4.841319e+01
   endloop
 endfacet
 facet normal  4.614451e-01 -5.124867e-01  7.241725e-01
   outer loop
     vertex  2.004411e+01  3.279273e+01  5.613773e+01
     vertex  1.503625e+01  3.374124e+01  6.000000e+01
     vertex  1.749634e+01  3.049871e+01  5.613773e+01
   endloop
 endfacet
 facet normal  4.587826e-01 -5.178585e-01  7.220396e-01
   outer loop
     vertex  2.004411e+01  3.279273e+01  5.613773e+01
     vertex  1.723731e+01  3.569121e+01  6.000000e+01
     vertex  1.503625e+01  3.374124e+01  6.000000e+01
   endloop
 endfacet
 facet normal  3.282437e-01 -6.254162e-01  7.078917e-01
   outer loop
     vertex  2.004411e+01  3.279273e+01  5.613773e+01
     vertex  1.984106e+01  3.705776e+01  6.000000e+01
     vertex  1.723731e+01  3.569121e+01  6.000000e+01
   endloop
 endfacet
 facet normal  7.066992e-01  0.000000e+00  7.075141e-01
   outer loop
     vertex  1.996862e+01  2.654485e+01  5.227546e+01
     vertex  1.610190e+01  2.736675e+01  5.613773e+01
     vertex  1.996862e+01  2.476029e+01  5.227546e+01
   endloop
 endfacet
 facet normal  6.950369e-01 -8.439275e-02  7.140039e-01
   outer loop
     vertex  1.996862e+01  2.654485e+01  5.227546e+01
     vertex  2.382795e+01  2.565257e+01  4.841319e+01
     vertex  2.383778e+01  2.573359e+01  4.841319e+01
   endloop
 endfacet
 facet normal  6.574743e-01 -2.493471e-01  7.110229e-01
   outer loop
     vertex  1.996862e+01  2.654485e+01  5.227546e+01
     vertex  2.383778e+01  2.573359e+01  4.841319e+01
     vertex  2.386672e+01  2.580989e+01  4.841319e+01
   endloop
 endfacet
 facet normal  7.073763e-01  0.000000e+00  7.068371e-01
   outer loop
     vertex  1.996862e+01  2.654485e+01  5.227546e+01
     vertex  1.996862e+01  2.476029e+01  5.227546e+01
     vertex  2.382795e+01  2.565257e+01  4.841319e+01
   endloop
 endfacet
 facet normal  1.674981e-01 -6.795665e-01  7.142365e-01
   outer loop
     vertex  2.330467e+01  3.385215e+01  5.613773e+01
     vertex  2.269619e+01  3.776149e+01  6.000000e+01
     vertex  1.984106e+01  3.705776e+01  6.000000e+01
   endloop
 endfacet
 facet normal  1.758789e-15 -7.028113e-01  7.113763e-01
   outer loop
     vertex  2.330467e+01  3.385215e+01  5.613773e+01
     vertex  2.563677e+01  3.776149e+01  6.000000e+01
     vertex  2.269619e+01  3.776149e+01  6.000000e+01
   endloop
 endfacet
 facet normal  2.113692e-01 -6.505274e-01  7.294773e-01
   outer loop
     vertex  2.330467e+01  3.385215e+01  5.613773e+01
     vertex  1.984106e+01  3.705776e+01  6.000000e+01
     vertex  2.004411e+01  3.279273e+01  5.613773e+01
   endloop
 endfacet
 facet normal  6.456018e-01 -2.874405e-01  7.075141e-01
   outer loop
     vertex  2.069447e+01  2.817513e+01  5.227546e+01
     vertex  1.749634e+01  3.049871e+01  5.613773e+01
     vertex  1.610190e+01  2.736675e+01  5.613773e+01
   endloop
 endfacet
 facet normal  5.750443e-01 -3.969244e-01  7.153846e-01
   outer loop
     vertex  2.069447e+01  2.817513e+01  5.227546e+01
     vertex  2.386672e+01  2.580989e+01  4.841319e+01
     vertex  2.391308e+01  2.587706e+01  4.841319e+01
   endloop
 endfacet
 facet normal  6.461616e-01 -2.876897e-01  7.069015e-01
   outer loop
     vertex  2.069447e+01  2.817513e+01  5.227546e+01
     vertex  1.996862e+01  2.654485e+01  5.227546e+01
     vertex  2.386672e+01  2.580989e+01  4.841319e+01
   endloop
 endfacet
 facet normal  6.456018e-01 -2.874405e-01  7.075141e-01
   outer loop
     vertex  2.069447e+01  2.817513e+01  5.227546e+01
     vertex  1.610190e+01  2.736675e+01  5.613773e+01
     vertex  1.996862e+01  2.654485e+01  5.227546e+01
   endloop
 endfacet
 facet normal  4.728741e-01 -5.251799e-01  7.075141e-01
   outer loop
     vertex  2.069447e+01  2.817513e+01  5.227546e+01
     vertex  2.004411e+01  3.279273e+01  5.613773e+01
     vertex  1.749634e+01  3.049871e+01  5.613773e+01
   endloop
 endfacet
 facet normal -7.138115e-02 -6.791462e-01  7.305239e-01
   outer loop
     vertex  2.671425e+01  3.349379e+01  5.613773e+01
     vertex  2.563677e+01  3.776149e+01  6.000000e+01
     vertex  2.330467e+01  3.385215e+01  5.613773e+01
   endloop
 endfacet
 facet normal -1.687064e-01 -6.844687e-01  7.092537e-01
   outer loop
     vertex  2.671425e+01  3.349379e+01  5.613773e+01
     vertex  2.849190e+01  3.705776e+01  6.000000e+01
     vertex  2.563677e+01  3.776149e+01  6.000000e+01
   endloop
 endfacet
 facet normal -3.235615e-01 -6.164949e-01  7.178036e-01
   outer loop
     vertex  2.671425e+01  3.349379e+01  5.613773e+01
     vertex  3.109565e+01  3.569121e+01  6.000000e+01
     vertex  2.849190e+01  3.705776e+01  6.000000e+01
   endloop
 endfacet
 facet normal  4.684995e-01 -5.288267e-01  7.077080e-01
   outer loop
     vertex  2.202066e+01  2.936924e+01  5.227546e+01
     vertex  2.391308e+01  2.587706e+01  4.841319e+01
     vertex  2.397417e+01  2.593118e+01  4.841319e+01
   endloop
 endfacet
 facet normal  3.248101e-01 -6.188739e-01  7.151878e-01
   outer loop
     vertex  2.202066e+01  2.936924e+01  5.227546e+01
     vertex  2.397417e+01  2.593118e+01  4.841319e+01
     vertex  2.404643e+01  2.596910e+01  4.841319e+01
   endloop
 endfacet
 facet normal  4.731954e-01 -5.255367e-01  7.070341e-01
   outer loop
     vertex  2.202066e+01  2.936924e+01  5.227546e+01
     vertex  2.069447e+01  2.817513e+01  5.227546e+01
     vertex  2.391308e+01  2.587706e+01  4.841319e+01
   endloop
 endfacet
 facet normal  4.728741e-01 -5.251799e-01  7.075141e-01
   outer loop
     vertex  2.202066e+01  2.936924e+01  5.227546e+01
     vertex  2.004411e+01  3.279273e+01  5.613773e+01
     vertex  2.069447e+01  2.817513e+01  5.227546e+01
   endloop
 endfacet
 facet normal -3.431228e-01 -5.943061e-01  7.273699e-01
   outer loop
     vertex  2.968329e+01  3.177961e+01  5.613773e+01
     vertex  3.109565e+01  3.569121e+01  6.000000e+01
     vertex  2.671425e+01  3.349379e+01  5.613773e+01
   endloop
 endfacet
 facet normal -4.687668e-01 -5.291284e-01  7.073053e-01
   outer loop
     vertex  2.968329e+01  3.177961e+01  5.613773e+01
     vertex  3.329670e+01  3.374124e+01  6.000000e+01
     vertex  3.109565e+01  3.569121e+01  6.000000e+01
   endloop
 endfacet
 facet normal  2.183821e-01 -6.721109e-01  7.075141e-01
   outer loop
     vertex  2.371788e+01  2.992070e+01  5.227546e+01
     vertex  2.330467e+01  3.385215e+01  5.613773e+01
     vertex  2.004411e+01  3.279273e+01  5.613773e+01
   endloop
 endfacet
 facet normal  1.680618e-01 -6.818537e-01  7.119204e-01
   outer loop
     vertex  2.371788e+01  2.992070e+01  5.227546e+01
     vertex  2.404643e+01  2.596910e+01  4.841319e+01
     vertex  2.412567e+01  2.598863e+01  4.841319e+01
   endloop
 endfacet
 facet normal  0.000000e+00 -7.007467e-01  7.134102e-01
   outer loop
     vertex  2.371788e+01  2.992070e+01  5.227546e+01
     vertex  2.412567e+01  2.598863e+01  4.841319e+01
     vertex  2.420728e+01  2.598863e+01  4.841319e+01
   endloop
 endfacet
 facet normal  2.185801e-01 -6.727204e-01  7.068734e-01
   outer loop
     vertex  2.371788e+01  2.992070e+01  5.227546e+01
     vertex  2.202066e+01  2.936924e+01  5.227546e+01
     vertex  2.404643e+01  2.596910e+01  4.841319e+01
   endloop
 endfacet
 facet normal  2.183821e-01 -6.721109e-01  7.075141e-01
   outer loop
     vertex  2.371788e+01  2.992070e+01  5.227546e+01
     vertex  2.004411e+01  3.279273e+01  5.613773e+01
     vertex  2.202066e+01  2.936924e+01  5.227546e+01
   endloop
 endfacet
 facet normal -6.683743e-01 -1.420673e-01  7.301320e-01
   outer loop
     vertex  3.169843e+01  2.900601e+01  5.613773e+01
     vertex  3.241123e+01  2.565257e+01  5.613773e+01
     vertex  3.600989e+01  2.857171e+01  6.000000e+01
   endloop
 endfacet
 facet normal -5.712656e-01 -3.943161e-01  7.198406e-01
   outer loop
     vertex  3.169843e+01  2.900601e+01  5.613773e+01
     vertex  3.496714e+01  3.132120e+01  6.000000e+01
     vertex  3.329670e+01  3.374124e+01  6.000000e+01
   endloop
 endfacet
 facet normal -6.598731e-01 -2.502569e-01  7.084765e-01
   outer loop
     vertex  3.169843e+01  2.900601e+01  5.613773e+01
     vertex  3.600989e+01  2.857171e+01  6.000000e+01
     vertex  3.496714e+01  3.132120e+01  6.000000e+01
   endloop
 endfacet
 facet normal -5.564337e-01 -4.042727e-01  7.259099e-01
   outer loop
     vertex  3.169843e+01  2.900601e+01  5.613773e+01
     vertex  3.329670e+01  3.374124e+01  6.000000e+01
     vertex  2.968329e+01  3.177961e+01  5.613773e+01
   endloop
 endfacet
 facet normal -1.674343e-01 -6.793075e-01  7.144978e-01
   outer loop
     vertex  2.549267e+01  2.973416e+01  5.227546e+01
     vertex  2.420728e+01  2.598863e+01  4.841319e+01
     vertex  2.428652e+01  2.596910e+01  4.841319e+01
   endloop
 endfacet
 facet normal -3.272484e-01 -6.235197e-01  7.100223e-01
   outer loop
     vertex  2.549267e+01  2.973416e+01  5.227546e+01
     vertex  2.428652e+01  2.596910e+01  4.841319e+01
     vertex  2.435879e+01  2.593118e+01  4.841319e+01
   endloop
 endfacet
 facet normal -7.387018e-02 -7.028278e-01  7.075141e-01
   outer loop
     vertex  2.549267e+01  2.973416e+01  5.227546e+01
     vertex  2.671425e+01  3.349379e+01  5.613773e+01
     vertex  2.330467e+01  3.385215e+01  5.613773e+01
   endloop
 endfacet
 facet normal -7.394054e-02 -7.034972e-01  7.068412e-01
   outer loop
     vertex  2.549267e+01  2.973416e+01  5.227546e+01
     vertex  2.371788e+01  2.992070e+01  5.227546e+01
     vertex  2.420728e+01  2.598863e+01  4.841319e+01
   endloop
 endfacet
 facet normal -7.387018e-02 -7.028278e-01  7.075141e-01
   outer loop
     vertex  2.549267e+01  2.973416e+01  5.227546e+01
     vertex  2.330467e+01  3.385215e+01  5.613773e+01
     vertex  2.371788e+01  2.992070e+01  5.227546e+01
   endloop
 endfacet
 facet normal -4.632775e-01 -5.229322e-01  7.154829e-01
   outer loop
     vertex  2.703815e+01  2.884188e+01  5.227546e+01
     vertex  2.435879e+01  2.593118e+01  4.841319e+01
     vertex  2.441987e+01  2.587706e+01  4.841319e+01
   endloop
 endfacet
 facet normal -3.533496e-01 -6.120195e-01  7.075141e-01
   outer loop
     vertex  2.703815e+01  2.884188e+01  5.227546e+01
     vertex  2.968329e+01  3.177961e+01  5.613773e+01
     vertex  2.671425e+01  3.349379e+01  5.613773e+01
   endloop
 endfacet
 facet normal -3.533496e-01 -6.120195e-01  7.075141e-01
   outer loop
     vertex  2.703815e+01  2.884188e+01  5.227546e+01
     vertex  2.671425e+01  3.349379e+01  5.613773e+01
     vertex  2.549267e+01  2.973416e+01  5.227546e+01
   endloop
 endfacet
 facet normal -3.536379e-01 -6.125188e-01  7.069377e-01
   outer loop
     vertex  2.703815e+01  2.884188e+01  5.227546e+01
     vertex  2.549267e+01  2.973416e+01  5.227546e+01
     vertex  2.435879e+01  2.593118e+01  4.841319e+01
   endloop
 endfacet
 facet normal -5.804433e-01 -4.006511e-01  7.089177e-01
   outer loop
     vertex  2.808709e+01  2.739814e+01  5.227546e+01
     vertex  2.441987e+01  2.587706e+01  4.841319e+01
     vertex  2.446623e+01  2.580989e+01  4.841319e+01
   endloop
 endfacet
 facet normal -6.537957e-01 -2.479520e-01  7.148923e-01
   outer loop
     vertex  2.808709e+01  2.739814e+01  5.227546e+01
     vertex  2.446623e+01  2.580989e+01  4.841319e+01
     vertex  2.449517e+01  2.573359e+01  4.841319e+01
   endloop
 endfacet
 facet normal -6.912561e-01 -1.469310e-01  7.075141e-01
   outer loop
     vertex  2.808709e+01  2.739814e+01  5.227546e+01
     vertex  2.845812e+01  2.565257e+01  5.227546e+01
     vertex  3.241123e+01  2.565257e+01  5.613773e+01
   endloop
 endfacet
 facet normal -5.717317e-01 -4.153874e-01  7.075141e-01
   outer loop
     vertex  2.808709e+01  2.739814e+01  5.227546e+01
     vertex  2.968329e+01  3.177961e+01  5.613773e+01
     vertex  2.703815e+01  2.884188e+01  5.227546e+01
   endloop
 endfacet
 facet normal -6.919027e-01 -1.470685e-01  7.068532e-01
   outer loop
     vertex  2.808709e+01  2.739814e+01  5.227546e+01
     vertex  2.449517e+01  2.573359e+01  4.841319e+01
     vertex  2.845812e+01  2.565257e+01  5.227546e+01
   endloop
 endfacet
 facet normal -5.717317e-01 -4.153874e-01  7.075141e-01
   outer loop
     vertex  2.808709e+01  2.739814e+01  5.227546e+01
     vertex  3.169843e+01  2.900601e+01  5.613773e+01
     vertex  2.968329e+01  3.177961e+01  5.613773e+01
   endloop
 endfacet
 facet normal -5.721624e-01 -4.157003e-01  7.069819e-01
   outer loop
     vertex  2.808709e+01  2.739814e+01  5.227546e+01
     vertex  2.703815e+01  2.884188e+01  5.227546e+01
     vertex  2.441987e+01  2.587706e+01  4.841319e+01
   endloop
 endfacet
 facet normal -6.912561e-01 -1.469310e-01  7.075141e-01
   outer loop
     vertex  2.808709e+01  2.739814e+01  5.227546e+01
     vertex  3.241123e+01  2.565257e+01  5.613773e+01
     vertex  3.169843e+01  2.900601e+01  5.613773e+01
   endloop
 endfacet
 facet normal  0.000000e+00  0.000000e+00  1.000000e+00
   outer loop
     vertex  2.449517e+01  2.573359e+01  4.841319e+01
     vertex  2.446623e+01  2.580989e+01  4.841319e+01
     vertex  2.441987e+01  2.587706e+01  4.841319e+01
   endloop
 endfacet
 facet normal  0.000000e+00  0.000000e+00  1.000000e+00
   outer loop
     vertex  2.412567e+01  2.531651e+01  4.841319e+01
     vertex  2.397417e+01  2.537396e+01  4.841319e+01
     vertex  2.404643e+01  2.533604e+01  4.841319e+01
   endloop
 endfacet
 facet normal  0.000000e+00  0.000000e+00  1.000000e+00
   outer loop
     vertex  2.412567e+01  2.531651e+01  4.841319e+01
     vertex  2.391308e+01  2.542808e+01  4.841319e+01
     vertex  2.397417e+01  2.537396e+01  4.841319e+01
   endloop
 endfacet
 facet normal  0.000000e+00  0.000000e+00  1.000000e+00
   outer loop
     vertex  2.412567e+01  2.531651e+01  4.841319e+01
     vertex  2.386672e+01  2.549525e+01  4.841319e+01
     vertex  2.391308e+01  2.542808e+01  4.841319e+01
   endloop
 endfacet
 facet normal  0.000000e+00  0.000000e+00  1.000000e+00
   outer loop
     vertex  2.412567e+01  2.531651e+01  4.841319e+01
     vertex  2.383778e+01  2.557155e+01  4.841319e+01
     vertex  2.386672e+01  2.549525e+01  4.841319e+01
   endloop
 endfacet
 facet normal  0.000000e+00  0.000000e+00  1.000000e+00
   outer loop
     vertex  2.412567e+01  2.531651e+01  4.841319e+01
     vertex  2.382795e+01  2.565257e+01  4.841319e+01
     vertex  2.383778e+01  2.557155e+01  4.841319e+01
   endloop
 endfacet
 facet normal  0.000000e+00  0.000000e+00  1.000000e+00
   outer loop
     vertex  2.412567e+01  2.531651e+01  4.841319e+01
     vertex  2.383778e+01  2.573359e+01  4.841319e+01
     vertex  2.382795e+01  2.565257e+01  4.841319e+01
   endloop
 endfacet
 facet normal  0.000000e+00  0.000000e+00  1.000000e+00
   outer loop
     vertex  2.412567e+01  2.531651e+01  4.841319e+01
     vertex  2.386672e+01  2.580989e+01  4.841319e+01
     vertex  2.383778e+01  2.573359e+01  4.841319e+01
   endloop
 endfacet
 facet normal  0.000000e+00  0.000000e+00  1.000000e+00
   outer loop
     vertex  2.412567e+01  2.531651e+01  4.841319e+01
     vertex  2.391308e+01  2.587706e+01  4.841319e+01
     vertex  2.386672e+01  2.580989e+01  4.841319e+01
   endloop
 endfacet
 facet normal  0.000000e+00  0.000000e+00  1.000000e+00
   outer loop
     vertex  2.420728e+01  2.531651e+01  4.841319e+01
     vertex  2.397417e+01  2.593118e+01  4.841319e+01
     vertex  2.391308e+01  2.587706e+01  4.841319e+01
   endloop
 endfacet
 facet normal  0.000000e+00  0.000000e+00  1.000000e+00
   outer loop
     vertex  2.420728e+01  2.531651e+01  4.841319e+01
     vertex  2.391308e+01  2.587706e+01  4.841319e+01
     vertex  2.412567e+01  2.531651e+01  4.841319e+01
   endloop
 endfacet
 facet normal  0.000000e+00  0.000000e+00  1.000000e+00
   outer loop
     vertex  2.428652e+01  2.533604e+01  4.841319e+01
     vertex  2.404643e+01  2.596910e+01  4.841319e+01
     vertex  2.397417e+01  2.593118e+01  4.841319e+01
   endloop
 endfacet
 facet normal  0.000000e+00  0.000000e+00  1.000000e+00
   outer loop
     vertex  2.428652e+01  2.533604e+01  4.841319e+01
     vertex  2.397417e+01  2.593118e+01  4.841319e+01
     vertex  2.420728e+01  2.531651e+01  4.841319e+01
   endloop
 endfacet
 facet normal  0.000000e+00  0.000000e+00  1.000000e+00
   outer loop
     vertex  2.441987e+01  2.542808e+01  4.841319e+01
     vertex  2.449517e+01  2.557155e+01  4.841319e+01
     vertex  2.450501e+01  2.565257e+01  4.841319e+01
   endloop
 endfacet
 facet normal  0.000000e+00  0.000000e+00  1.000000e+00
   outer loop
     vertex  2.441987e+01  2.542808e+01  4.841319e+01
     vertex  2.446623e+01  2.549525e+01  4.841319e+01
     vertex  2.449517e+01  2.557155e+01  4.841319e+01
   endloop
 endfacet
 facet normal  0.000000e+00  0.000000e+00  1.000000e+00
   outer loop
     vertex  2.441987e+01  2.542808e+01  4.841319e+01
     vertex  2.428652e+01  2.533604e+01  4.841319e+01
     vertex  2.435879e+01  2.537396e+01  4.841319e+01
   endloop
 endfacet
 facet normal  0.000000e+00  0.000000e+00  1.000000e+00
   outer loop
     vertex  2.441987e+01  2.542808e+01  4.841319e+01
     vertex  2.412567e+01  2.598863e+01  4.841319e+01
     vertex  2.404643e+01  2.596910e+01  4.841319e+01
   endloop
 endfacet
 facet normal  0.000000e+00  0.000000e+00  1.000000e+00
   outer loop
     vertex  2.441987e+01  2.542808e+01  4.841319e+01
     vertex  2.420728e+01  2.598863e+01  4.841319e+01
     vertex  2.412567e+01  2.598863e+01  4.841319e+01
   endloop
 endfacet
 facet normal  0.000000e+00  0.000000e+00  1.000000e+00
   outer loop
     vertex  2.441987e+01  2.542808e+01  4.841319e+01
     vertex  2.428652e+01  2.596910e+01  4.841319e+01
     vertex  2.420728e+01  2.598863e+01  4.841319e+01
   endloop
 endfacet
 facet normal  0.000000e+00  0.000000e+00  1.000000e+00
   outer loop
     vertex  2.441987e+01  2.542808e+01  4.841319e+01
     vertex  2.435879e+01  2.593118e+01  4.841319e+01
     vertex  2.428652e+01  2.596910e+01  4.841319e+01
   endloop
 endfacet
 facet normal  0.000000e+00 -0.000000e+00  1.000000e+00
   outer loop
     vertex  2.441987e+01  2.542808e+01  4.841319e+01
     vertex  2.441987e+01  2.587706e+01  4.841319e+01
     vertex  2.435879e+01  2.593118e+01  4.841319e+01
   endloop
 endfacet
 facet normal  0.000000e+00  0.000000e+00  1.000000e+00
   outer loop
     vertex  2.441987e+01  2.542808e+01  4.841319e+01
     vertex  2.450501e+01  2.565257e+01  4.841319e+01
     vertex  2.449517e+01  2.573359e+01  4.841319e+01
   endloop
 endfacet
 facet normal  0.000000e+00  0.000000e+00  1.000000e+00
   outer loop
     vertex  2.441987e+01  2.542808e+01  4.841319e+01
     vertex  2.404643e+01  2.596910e+01  4.841319e+01
     vertex  2.428652e+01  2.533604e+01  4.841319e+01
   endloop
 endfacet
 facet normal  0.000000e+00  0.000000e+00  1.000000e+00
   outer loop
     vertex  2.441987e+01  2.542808e+01  4.841319e+01
     vertex  2.449517e+01  2.573359e+01  4.841319e+01
     vertex  2.441987e+01  2.587706e+01  4.841319e+01
   endloop
 endfacet
endsolid
