solid 
 facet normal -1.000000e+00  0.000000e+00  0.000000e+00
   outer loop
     vertex  0.000000e+00  0.000000e+00  6.000000e+01
     vertex  0.000000e+00  9.507390e+01  0.000000e+00
     vertex  0.000000e+00  0.000000e+00  0.000000e+00
   endloop
 endfacet
 facet normal -1.000000e+00  0.000000e+00  0.000000e+00
   outer loop
     vertex  0.000000e+00  0.000000e+00  6.000000e+01
     vertex  0.000000e+00  9.507390e+01  6.000000e+01
     vertex  0.000000e+00  9.507390e+01  0.000000e+00
   endloop
 endfacet
 facet normal  0.000000e+00 -1.000000e+00 -0.000000e+00
   outer loop
     vertex  1.472333e+02  0.000000e+00  6.000000e+01
     vertex  0.000000e+00  0.000000e+00  0.000000e+00
     vertex  1.472333e+02  0.000000e+00  0.000000e+00
   endloop
 endfacet
 facet normal -0.000000e+00 -1.000000e+00  0.000000e+00
   outer loop
     vertex  1.472333e+02  0.000000e+00  6.000000e+01
     vertex  0.000000e+00  0.000000e+00  6.000000e+01
     vertex  0.000000e+00  0.000000e+00  0.000000e+00
   endloop
 endfacet
 facet normal  0.000000e+00  0.000000e+00  1.000000e+00
   outer loop
     vertex  4.919008e+01  5.567189e+01  6.000000e+01
     vertex  4.671403e+01  5.786547e+01  6.000000e+01
     vertex  0.000000e+00  0.000000e+00  6.000000e+01
   endloop
 endfacet
 facet normal  0.000000e+00  0.000000e+00  1.000000e+00
   outer loop
     vertex  4.483490e+01  6.058787e+01  6.000000e+01
     vertex  0.000000e+00  0.000000e+00  6.000000e+01
     vertex  4.671403e+01  5.786547e+01  6.000000e+01
   endloop
 endfacet
 facet normal  0.000000e+00  0.000000e+00  1.000000e+00
   outer loop
     vertex  5.211914e+01  5.413460e+01  6.000000e+01
     vertex  4.919008e+01  5.567189e+01  6.000000e+01
     vertex  0.000000e+00  0.000000e+00  6.000000e+01
   endloop
 endfacet
 facet normal  0.000000e+00  0.000000e+00  1.000000e+00
   outer loop
     vertex  4.366188e+01  6.368087e+01  6.000000e+01
     vertex  0.000000e+00  9.507390e+01  6.000000e+01
     vertex  0.000000e+00  0.000000e+00  6.000000e+01
   endloop
 endfacet
 facet normal  0.000000e+00  0.000000e+00  1.000000e+00
   outer loop
     vertex  4.366188e+01  6.368087e+01  6.000000e+01
     vertex  0.000000e+00  0.000000e+00  6.000000e+01
     vertex  4.483490e+01  6.058787e+01  6.000000e+01
   endloop
 endfacet
 facet normal  0.000000e+00  0.000000e+00  1.000000e+00
   outer loop
     vertex  5.533098e+01  5.334295e+01  6.000000e+01
     vertex  5.211914e+01  5.413460e+01  6.000000e+01
     vertex  0.000000e+00  0.000000e+00  6.000000e+01
   endloop
 endfacet
 facet normal  0.000000e+00  0.000000e+00  1.000000e+00
   outer loop
     vertex  4.326315e+01  6.696472e+01  6.000000e+01
     vertex  0.000000e+00  9.507390e+01  6.000000e+01
     vertex  4.366188e+01  6.368087e+01  6.000000e+01
   endloop
 endfacet
 facet normal  0.000000e+00  0.000000e+00  1.000000e+00
   outer loop
     vertex  5.863894e+01  5.334295e+01  6.000000e+01
     vertex  5.533098e+01  5.334295e+01  6.000000e+01
     vertex  0.000000e+00  0.000000e+00  6.000000e+01
   endloop
 endfacet
 facet normal  0.000000e+00  0.000000e+00  1.000000e+00
   outer loop
     vertex  4.366188e+01  7.024856e+01  6.000000e+01
     vertex  0.000000e+00  9.507390e+01  6.000000e+01
     vertex  4.326315e+01  6.696472e+01  6.000000e+01
   endloop
 endfacet
 facet normal  0.000000e+00  0.000000e+00  1.000000e+00
   outer loop
     vertex  4.483490e+01  7.334156e+01  6.000000e+01
     vertex  0.000000e+00  9.507390e+01  6.000000e+01
     vertex  4.366188e+01  7.024856e+01  6.000000e+01
   endloop
 endfacet
 facet normal  0.000000e+00  0.000000e+00  1.000000e+00
   outer loop
     vertex  4.671403e+01  7.606396e+01  6.000000e+01
     vertex  0.000000e+00  9.507390e+01  6.000000e+01
     vertex  4.483490e+01  7.334156e+01  6.000000e+01
   endloop
 endfacet
 facet normal  0.000000e+00  0.000000e+00  1.000000e+00
   outer loop
     vertex  4.919008e+01  7.825755e+01  6.000000e+01
     vertex  0.000000e+00  9.507390e+01  6.000000e+01
     vertex  4.671403e+01  7.606396e+01  6.000000e+01
   endloop
 endfacet
 facet normal  0.000000e+00  0.000000e+00  1.000000e+00
   outer loop
     vertex  5.211914e+01  7.979484e+01  6.000000e+01
     vertex  0.000000e+00  9.507390e+01  6.000000e+01
     vertex  4.919008e+01  7.825755e+01  6.000000e+01
   endloop
 endfacet
 facet normal  0.000000e+00  0.000000e+00  1.000000e+00
   outer loop
     vertex  5.533098e+01  8.058649e+01  6.000000e+01
     vertex  0.000000e+00  9.507390e+01  6.000000e+01
     vertex  5.211914e+01  7.979484e+01  6.000000e+01
   endloop
 endfacet
 facet normal  0.000000e+00  0.000000e+00  1.000000e+00
   outer loop
     vertex  1.472333e+02  0.000000e+00  6.000000e+01
     vertex  6.185078e+01  5.413460e+01  6.000000e+01
     vertex  5.863894e+01  5.334295e+01  6.000000e+01
   endloop
 endfacet
 facet normal  0.000000e+00  0.000000e+00  1.000000e+00
   outer loop
     vertex  1.472333e+02  0.000000e+00  6.000000e+01
     vertex  6.477984e+01  5.567189e+01  6.000000e+01
     vertex  6.185078e+01  5.413460e+01  6.000000e+01
   endloop
 endfacet
 facet normal  0.000000e+00  0.000000e+00  1.000000e+00
   outer loop
     vertex  1.472333e+02  0.000000e+00  6.000000e+01
     vertex  6.725589e+01  5.786547e+01  6.000000e+01
     vertex  6.477984e+01  5.567189e+01  6.000000e+01
   endloop
 endfacet
 facet normal  0.000000e+00  0.000000e+00  1.000000e+00
   outer loop
     vertex  1.472333e+02  0.000000e+00  6.000000e+01
     vertex  6.913502e+01  6.058787e+01  6.000000e+01
     vertex  6.725589e+01  5.786547e+01  6.000000e+01
   endloop
 endfacet
 facet normal  0.000000e+00  0.000000e+00  1.000000e+00
   outer loop
     vertex  1.472333e+02  0.000000e+00  6.000000e+01
     vertex  7.030804e+01  6.368087e+01  6.000000e+01
     vertex  6.913502e+01  6.058787e+01  6.000000e+01
   endloop
 endfacet
 facet normal  0.000000e+00  0.000000e+00  1.000000e+00
   outer loop
     vertex  1.472333e+02  0.000000e+00  6.000000e+01
     vertex  5.863894e+01  5.334295e+01  6.000000e+01
     vertex  0.000000e+00  0.000000e+00  6.000000e+01
   endloop
 endfacet
 facet normal  0.000000e+00  0.000000e+00  1.000000e+00
   outer loop
     vertex  1.472333e+02  9.507390e+01  6.000000e+01
     vertex  7.030804e+01  7.024856e+01  6.000000e+01
     vertex  7.070678e+01  6.696472e+01  6.000000e+01
   endloop
 endfacet
 facet normal  0.000000e+00  0.000000e+00  1.000000e+00
   outer loop
     vertex  1.472333e+02  9.507390e+01  6.000000e+01
     vertex  6.913502e+01  7.334156e+01  6.000000e+01
     vertex  7.030804e+01  7.024856e+01  6.000000e+01
   endloop
 endfacet
 facet normal  0.000000e+00  0.000000e+00  1.000000e+00
   outer loop
     vertex  1.472333e+02  9.507390e+01  6.000000e+01
     vertex  6.725589e+01  7.606396e+01  6.000000e+01
     vertex  6.913502e+01  7.334156e+01  6.000000e+01
   endloop
 endfacet
 facet normal  0.000000e+00  0.000000e+00  1.000000e+00
   outer loop
     vertex  1.472333e+02  9.507390e+01  6.000000e+01
     vertex  6.477984e+01  7.825755e+01  6.000000e+01
     vertex  6.725589e+01  7.606396e+01  6.000000e+01
   endloop
 endfacet
 facet normal  0.000000e+00  0.000000e+00  1.000000e+00
   outer loop
     vertex  1.472333e+02  9.507390e+01  6.000000e+01
     vertex  6.185078e+01  7.979484e+01  6.000000e+01
     vertex  6.477984e+01  7.825755e+01  6.000000e+01
   endloop
 endfacet
 facet normal  0.000000e+00  0.000000e+00  1.000000e+00
   outer loop
     vertex  1.472333e+02  9.507390e+01  6.000000e+01
     vertex  7.070678e+01  6.696472e+01  6.000000e+01
     vertex  7.030804e+01  6.368087e+01  6.000000e+01
   endloop
 endfacet
 facet normal  0.000000e+00  0.000000e+00  1.000000e+00
   outer loop
     vertex  1.472333e+02  9.507390e+01  6.000000e+01
     vertex  7.030804e+01  6.368087e+01  6.000000e+01
     vertex  1.472333e+02  0.000000e+00  6.000000e+01
   endloop
 endfacet
 facet normal  0.000000e+00  0.000000e+00  1.000000e+00
   outer loop
     vertex  1.472333e+02  9.507390e+01  6.000000e+01
     vertex  0.000000e+00  9.507390e+01  6.000000e+01
     vertex  5.533098e+01  8.058649e+01  6.000000e+01
   endloop
 endfacet
 facet normal  0.000000e+00  0.000000e+00  1.000000e+00
   outer loop
     vertex  1.472333e+02  9.507390e+01  6.000000e+01
     vertex  5.533098e+01  8.058649e+01  6.000000e+01
     vertex  5.863894e+01  8.058649e+01  6.000000e+01
   endloop
 endfacet
 facet normal  0.000000e+00  0.000000e+00  1.000000e+00
   outer loop
     vertex  1.472333e+02  9.507390e+01  6.000000e+01
     vertex  5.863894e+01  8.058649e+01  6.000000e+01
     vertex  6.185078e+01  7.979484e+01  6.000000e+01
   endloop
 endfacet
 facet normal  0.000000e+00  1.000000e+00  0.000000e+00
   outer loop
     vertex  1.472333e+02  9.507390e+01  6.000000e+01
     vertex  1.472333e+02  9.507390e+01  0.000000e+00
     vertex  0.000000e+00  9.507390e+01  0.000000e+00
   endloop
 endfacet
 facet normal  0.000000e+00  1.000000e+00  0.000000e+00
   outer loop
     vertex  1.472333e+02  9.507390e+01  6.000000e+01
     vertex  0.000000e+00  9.507390e+01  0.000000e+00
     vertex  0.000000e+00  9.507390e+01  6.000000e+01
   endloop
 endfacet
 facet normal -0.000000e+00  0.000000e+00 -1.000000e+00
   outer loop
     vertex  1.472333e+02  9.507390e+01  0.000000e+00
     vertex  0.000000e+00  0.000000e+00  0.000000e+00
     vertex  0.000000e+00  9.507390e+01  0.000000e+00
   endloop
 endfacet
 facet normal  0.000000e+00 -0.000000e+00 -1.000000e+00
   outer loop
     vertex  1.472333e+02  9.507390e+01  0.000000e+00
     vertex  1.472333e+02  0.000000e+00  0.000000e+00
     vertex  0.000000e+00  0.000000e+00  0.000000e+00
   endloop
 endfacet
 facet normal  1.000000e+00  0.000000e+00  0.000000e+00
   outer loop
     vertex  1.472333e+02  0.000000e+00  6.000000e+01
     vertex  1.472333e+02  0.000000e+00  0.000000e+00
     vertex  1.472333e+02  9.507390e+01  0.000000e+00
   endloop
 endfacet
 facet normal  1.000000e+00 -0.000000e+00  0.000000e+00
   outer loop
     vertex  1.472333e+02  0.000000e+00  6.000000e+01
     vertex  1.472333e+02  9.507390e+01  0.000000e+00
     vertex  1.472333e+02  9.507390e+01  6.000000e+01
   endloop
 endfacet
 facet normal -9.271843e-01 -1.125806e-01  3.572882e-01
   outer loop
     vertex  7.030804e+01  7.024856e+01  6.000000e+01
     vertex  6.959274e+01  6.696472e+01  5.710900e+01
     vertex  7.070678e+01  6.696472e+01  6.000000e+01
   endloop
 endfacet
 facet normal -9.271843e-01  1.125806e-01  3.572882e-01
   outer loop
     vertex  7.070678e+01  6.696472e+01  6.000000e+01
     vertex  6.959274e+01  6.696472e+01  5.710900e+01
     vertex  7.030804e+01  6.368087e+01  6.000000e+01
   endloop
 endfacet
 facet normal -1.077259e-01 -1.607013e-01  9.811066e-01
   outer loop
     vertex  6.063013e+01  6.748882e+01  4.992040e+01
     vertex  5.698496e+01  6.696472e+01  4.943432e+01
     vertex  6.006467e+01  6.696472e+01  4.977247e+01
   endloop
 endfacet
 facet normal -3.211945e-01  8.020021e-02  9.436112e-01
   outer loop
     vertex  6.063013e+01  6.748882e+01  4.992040e+01
     vertex  6.006467e+01  6.696472e+01  4.977247e+01
     vertex  6.299763e+01  6.696472e+01  5.077081e+01
   endloop
 endfacet
 facet normal -1.268263e-01 -3.723958e-02  9.912257e-01
   outer loop
     vertex  6.033482e+01  6.849455e+01  4.992040e+01
     vertex  5.698496e+01  6.696472e+01  4.943432e+01
     vertex  6.063013e+01  6.748882e+01  4.992040e+01
   endloop
 endfacet
 facet normal -1.111974e-01 -7.146222e-02  9.912257e-01
   outer loop
     vertex  5.976813e+01  6.937635e+01  4.992040e+01
     vertex  5.698496e+01  6.696472e+01  4.943432e+01
     vertex  6.033482e+01  6.849455e+01  4.992040e+01
   endloop
 endfacet
 facet normal -5.196633e-01 -3.412253e-02  8.536894e-01
   outer loop
     vertex  6.380990e+01  6.896870e+01  5.134537e+01
     vertex  6.299763e+01  6.696472e+01  5.077081e+01
     vertex  6.564409e+01  6.696472e+01  5.238178e+01
   endloop
 endfacet
 facet normal -3.646717e-01 -1.070773e-01  9.249589e-01
   outer loop
     vertex  6.380990e+01  6.896870e+01  5.134537e+01
     vertex  6.033482e+01  6.849455e+01  4.992040e+01
     vertex  6.063013e+01  6.748882e+01  4.992040e+01
   endloop
 endfacet
 facet normal -3.590134e-01 -1.198568e-01  9.256045e-01
   outer loop
     vertex  6.380990e+01  6.896870e+01  5.134537e+01
     vertex  6.063013e+01  6.748882e+01  4.992040e+01
     vertex  6.299763e+01  6.696472e+01  5.077081e+01
   endloop
 endfacet
 facet normal -8.655988e-02 -9.989543e-02  9.912257e-01
   outer loop
     vertex  5.897596e+01  7.006277e+01  4.992040e+01
     vertex  5.698496e+01  6.696472e+01  4.943432e+01
     vertex  5.976813e+01  6.937635e+01  4.992040e+01
   endloop
 endfacet
 facet normal -3.197328e-01 -2.054798e-01  9.249589e-01
   outer loop
     vertex  6.296885e+01  7.081033e+01  5.134537e+01
     vertex  5.976813e+01  6.937635e+01  4.992040e+01
     vertex  6.033482e+01  6.849455e+01  4.992040e+01
   endloop
 endfacet
 facet normal -3.553313e-01 -1.622744e-01  9.205470e-01
   outer loop
     vertex  6.296885e+01  7.081033e+01  5.134537e+01
     vertex  6.033482e+01  6.849455e+01  4.992040e+01
     vertex  6.380990e+01  6.896870e+01  5.134537e+01
   endloop
 endfacet
 facet normal -6.929049e-01  7.315700e-03  7.209919e-01
   outer loop
     vertex  6.693887e+01  6.839587e+01  5.361160e+01
     vertex  6.564409e+01  6.696472e+01  5.238178e+01
     vertex  6.787794e+01  6.696472e+01  5.452861e+01
   endloop
 endfacet
 facet normal -5.974286e-01 -1.382846e-01  7.899091e-01
   outer loop
     vertex  6.693887e+01  6.839587e+01  5.361160e+01
     vertex  6.380990e+01  6.896870e+01  5.134537e+01
     vertex  6.564409e+01  6.696472e+01  5.238178e+01
   endloop
 endfacet
 facet normal -5.490980e-02 -1.202357e-01  9.912257e-01
   outer loop
     vertex  5.802249e+01  7.049820e+01  4.992040e+01
     vertex  5.698496e+01  6.696472e+01  4.943432e+01
     vertex  5.897596e+01  7.006277e+01  4.992040e+01
   endloop
 endfacet
 facet normal -2.488910e-01 -2.872356e-01  9.249589e-01
   outer loop
     vertex  6.164303e+01  7.234042e+01  5.134537e+01
     vertex  5.897596e+01  7.006277e+01  4.992040e+01
     vertex  5.976813e+01  6.937635e+01  4.992040e+01
   endloop
 endfacet
 facet normal -2.952199e-01 -2.558095e-01  9.205470e-01
   outer loop
     vertex  6.164303e+01  7.234042e+01  5.134537e+01
     vertex  5.976813e+01  6.937635e+01  4.992040e+01
     vertex  6.296885e+01  7.081033e+01  5.134537e+01
   endloop
 endfacet
 facet normal -5.983542e-01 -1.756926e-01  7.817316e-01
   outer loop
     vertex  6.613246e+01  7.114224e+01  5.361160e+01
     vertex  6.380990e+01  6.896870e+01  5.134537e+01
     vertex  6.693887e+01  6.839587e+01  5.361160e+01
   endloop
 endfacet
 facet normal -5.464795e-01 -2.495688e-01  7.994220e-01
   outer loop
     vertex  6.613246e+01  7.114224e+01  5.361160e+01
     vertex  6.296885e+01  7.081033e+01  5.134537e+01
     vertex  6.380990e+01  6.896870e+01  5.134537e+01
   endloop
 endfacet
 facet normal -1.881126e-02 -1.308352e-01  9.912257e-01
   outer loop
     vertex  5.698496e+01  7.064738e+01  4.992040e+01
     vertex  5.698496e+01  6.696472e+01  4.943432e+01
     vertex  5.802249e+01  7.049820e+01  4.992040e+01
   endloop
 endfacet
 facet normal -1.578856e-01 -3.457212e-01  9.249589e-01
   outer loop
     vertex  5.993984e+01  7.343499e+01  5.134537e+01
     vertex  5.802249e+01  7.049820e+01  4.992040e+01
     vertex  5.897596e+01  7.006277e+01  4.992040e+01
   endloop
 endfacet
 facet normal -2.111916e-01 -3.286205e-01  9.205470e-01
   outer loop
     vertex  5.993984e+01  7.343499e+01  5.134537e+01
     vertex  5.897596e+01  7.006277e+01  4.992040e+01
     vertex  6.164303e+01  7.234042e+01  5.134537e+01
   endloop
 endfacet
 facet normal -4.540316e-01 -3.934206e-01  7.994220e-01
   outer loop
     vertex  6.458498e+01  7.355017e+01  5.361160e+01
     vertex  6.164303e+01  7.234042e+01  5.134537e+01
     vertex  6.296885e+01  7.081033e+01  5.134537e+01
   endloop
 endfacet
 facet normal -5.246183e-01 -3.371517e-01  7.817316e-01
   outer loop
     vertex  6.458498e+01  7.355017e+01  5.361160e+01
     vertex  6.296885e+01  7.081033e+01  5.134537e+01
     vertex  6.613246e+01  7.114224e+01  5.361160e+01
   endloop
 endfacet
 facet normal -8.704756e-01 -3.301279e-01  3.650860e-01
   outer loop
     vertex  6.879695e+01  7.043303e+01  5.656389e+01
     vertex  7.030804e+01  7.024856e+01  6.000000e+01
     vertex  6.913502e+01  7.334156e+01  6.000000e+01
   endloop
 endfacet
 facet normal -7.921025e-01 -1.389045e-01  5.943729e-01
   outer loop
     vertex  6.879695e+01  7.043303e+01  5.656389e+01
     vertex  6.693887e+01  6.839587e+01  5.361160e+01
     vertex  6.787794e+01  6.696472e+01  5.452861e+01
   endloop
 endfacet
 facet normal -8.283859e-01 -1.035472e-01  5.505041e-01
   outer loop
     vertex  6.879695e+01  7.043303e+01  5.656389e+01
     vertex  6.787794e+01  6.696472e+01  5.452861e+01
     vertex  6.959274e+01  6.696472e+01  5.710900e+01
   endloop
 endfacet
 facet normal -9.083472e-01 -1.468723e-01  3.915788e-01
   outer loop
     vertex  6.879695e+01  7.043303e+01  5.656389e+01
     vertex  6.959274e+01  6.696472e+01  5.710900e+01
     vertex  7.030804e+01  7.024856e+01  6.000000e+01
   endloop
 endfacet
 facet normal -7.498674e-01 -2.201809e-01  6.238744e-01
   outer loop
     vertex  6.879695e+01  7.043303e+01  5.656389e+01
     vertex  6.613246e+01  7.114224e+01  5.361160e+01
     vertex  6.693887e+01  6.839587e+01  5.361160e+01
   endloop
 endfacet
 facet normal  1.881126e-02 -1.308352e-01  9.912257e-01
   outer loop
     vertex  5.594744e+01  7.049820e+01  4.992040e+01
     vertex  5.698496e+01  6.696472e+01  4.943432e+01
     vertex  5.698496e+01  7.064738e+01  4.992040e+01
   endloop
 endfacet
 facet normal -1.100537e-01 -3.748086e-01  9.205470e-01
   outer loop
     vertex  5.799726e+01  7.400539e+01  5.134537e+01
     vertex  5.802249e+01  7.049820e+01  4.992040e+01
     vertex  5.993984e+01  7.343499e+01  5.134537e+01
   endloop
 endfacet
 facet normal -5.408919e-02 -3.761986e-01  9.249589e-01
   outer loop
     vertex  5.799726e+01  7.400539e+01  5.134537e+01
     vertex  5.698496e+01  7.064738e+01  4.992040e+01
     vertex  5.802249e+01  7.049820e+01  4.992040e+01
   endloop
 endfacet
 facet normal -4.083810e-01 -4.712968e-01  7.817316e-01
   outer loop
     vertex  6.242179e+01  7.542459e+01  5.361160e+01
     vertex  6.164303e+01  7.234042e+01  5.134537e+01
     vertex  6.458498e+01  7.355017e+01  5.361160e+01
   endloop
 endfacet
 facet normal -3.248007e-01 -5.053998e-01  7.994220e-01
   outer loop
     vertex  6.242179e+01  7.542459e+01  5.361160e+01
     vertex  5.993984e+01  7.343499e+01  5.134537e+01
     vertex  6.164303e+01  7.234042e+01  5.134537e+01
   endloop
 endfacet
 facet normal -7.684115e-01 -5.303962e-01  3.580832e-01
   outer loop
     vertex  6.734134e+01  7.362036e+01  5.656389e+01
     vertex  6.913502e+01  7.334156e+01  6.000000e+01
     vertex  6.725589e+01  7.606396e+01  6.000000e+01
   endloop
 endfacet
 facet normal -6.574604e-01 -4.225241e-01  6.238744e-01
   outer loop
     vertex  6.734134e+01  7.362036e+01  5.656389e+01
     vertex  6.458498e+01  7.355017e+01  5.361160e+01
     vertex  6.613246e+01  7.114224e+01  5.361160e+01
   endloop
 endfacet
 facet normal -7.377900e-01 -3.369374e-01  5.849266e-01
   outer loop
     vertex  6.734134e+01  7.362036e+01  5.656389e+01
     vertex  6.613246e+01  7.114224e+01  5.361160e+01
     vertex  6.879695e+01  7.043303e+01  5.656389e+01
   endloop
 endfacet
 facet normal -8.322525e-01 -3.800770e-01  4.036053e-01
   outer loop
     vertex  6.734134e+01  7.362036e+01  5.656389e+01
     vertex  6.879695e+01  7.043303e+01  5.656389e+01
     vertex  6.913502e+01  7.334156e+01  6.000000e+01
   endloop
 endfacet
 facet normal  5.490980e-02 -1.202357e-01  9.912257e-01
   outer loop
     vertex  5.499397e+01  7.006277e+01  4.992040e+01
     vertex  5.698496e+01  6.696472e+01  4.943432e+01
     vertex  5.594744e+01  7.049820e+01  4.992040e+01
   endloop
 endfacet
 facet normal  5.408919e-02 -3.761986e-01  9.249589e-01
   outer loop
     vertex  5.597267e+01  7.400539e+01  5.134537e+01
     vertex  5.594744e+01  7.049820e+01  4.992040e+01
     vertex  5.698496e+01  7.064738e+01  4.992040e+01
   endloop
 endfacet
 facet normal  0.000000e+00 -3.906319e-01  9.205470e-01
   outer loop
     vertex  5.597267e+01  7.400539e+01  5.134537e+01
     vertex  5.698496e+01  7.064738e+01  4.992040e+01
     vertex  5.799726e+01  7.400539e+01  5.134537e+01
   endloop
 endfacet
 facet normal -1.692564e-01 -5.764345e-01  7.994220e-01
   outer loop
     vertex  5.981814e+01  7.661364e+01  5.361160e+01
     vertex  5.799726e+01  7.400539e+01  5.134537e+01
     vertex  5.993984e+01  7.343499e+01  5.134537e+01
   endloop
 endfacet
 facet normal -2.590590e-01 -5.672601e-01  7.817316e-01
   outer loop
     vertex  5.981814e+01  7.661364e+01  5.361160e+01
     vertex  5.993984e+01  7.343499e+01  5.134537e+01
     vertex  6.242179e+01  7.542459e+01  5.361160e+01
   endloop
 endfacet
 facet normal -6.195082e-01 -6.992802e-01  3.566746e-01
   outer loop
     vertex  6.504672e+01  7.626849e+01  5.656389e+01
     vertex  6.725589e+01  7.606396e+01  6.000000e+01
     vertex  6.477984e+01  7.825755e+01  6.000000e+01
   endloop
 endfacet
 facet normal -5.117898e-01 -5.906369e-01  6.238744e-01
   outer loop
     vertex  6.504672e+01  7.626849e+01  5.656389e+01
     vertex  6.242179e+01  7.542459e+01  5.361160e+01
     vertex  6.458498e+01  7.355017e+01  5.361160e+01
   endloop
 endfacet
 facet normal -6.129781e-01 -5.311485e-01  5.849266e-01
   outer loop
     vertex  6.504672e+01  7.626849e+01  5.656389e+01
     vertex  6.458498e+01  7.355017e+01  5.361160e+01
     vertex  6.734134e+01  7.362036e+01  5.656389e+01
   endloop
 endfacet
 facet normal -6.899795e-01 -5.978706e-01  4.080185e-01
   outer loop
     vertex  6.504672e+01  7.626849e+01  5.656389e+01
     vertex  6.734134e+01  7.362036e+01  5.656389e+01
     vertex  6.725589e+01  7.606396e+01  6.000000e+01
   endloop
 endfacet
 facet normal  8.655988e-02 -9.989543e-02  9.912257e-01
   outer loop
     vertex  5.420179e+01  6.937635e+01  4.992040e+01
     vertex  5.698496e+01  6.696472e+01  4.943432e+01
     vertex  5.499397e+01  7.006277e+01  4.992040e+01
   endloop
 endfacet
 facet normal  1.100537e-01 -3.748086e-01  9.205470e-01
   outer loop
     vertex  5.403009e+01  7.343499e+01  5.134537e+01
     vertex  5.594744e+01  7.049820e+01  4.992040e+01
     vertex  5.597267e+01  7.400539e+01  5.134537e+01
   endloop
 endfacet
 facet normal  1.578856e-01 -3.457212e-01  9.249589e-01
   outer loop
     vertex  5.403009e+01  7.343499e+01  5.134537e+01
     vertex  5.499397e+01  7.006277e+01  4.992040e+01
     vertex  5.594744e+01  7.049820e+01  4.992040e+01
   endloop
 endfacet
 facet normal  0.000000e+00 -6.007699e-01  7.994220e-01
   outer loop
     vertex  5.698496e+01  7.702098e+01  5.361160e+01
     vertex  5.597267e+01  7.400539e+01  5.134537e+01
     vertex  5.799726e+01  7.400539e+01  5.134537e+01
   endloop
 endfacet
 facet normal -8.874967e-02 -6.172675e-01  7.817316e-01
   outer loop
     vertex  5.698496e+01  7.702098e+01  5.361160e+01
     vertex  5.799726e+01  7.400539e+01  5.134537e+01
     vertex  5.981814e+01  7.661364e+01  5.361160e+01
   endloop
 endfacet
 facet normal -4.334043e-01 -8.257829e-01  3.608924e-01
   outer loop
     vertex  6.209899e+01  7.816288e+01  5.656389e+01
     vertex  6.477984e+01  7.825755e+01  6.000000e+01
     vertex  6.185078e+01  7.979484e+01  6.000000e+01
   endloop
 endfacet
 facet normal -4.939448e-01 -7.685931e-01  4.065503e-01
   outer loop
     vertex  6.209899e+01  7.816288e+01  5.656389e+01
     vertex  6.504672e+01  7.626849e+01  5.656389e+01
     vertex  6.477984e+01  7.825755e+01  6.000000e+01
   endloop
 endfacet
 facet normal -3.246571e-01 -7.108998e-01  6.238744e-01
   outer loop
     vertex  6.209899e+01  7.816288e+01  5.656389e+01
     vertex  5.981814e+01  7.661364e+01  5.361160e+01
     vertex  6.242179e+01  7.542459e+01  5.361160e+01
   endloop
 endfacet
 facet normal -4.385063e-01 -6.823292e-01  5.849266e-01
   outer loop
     vertex  6.209899e+01  7.816288e+01  5.656389e+01
     vertex  6.242179e+01  7.542459e+01  5.361160e+01
     vertex  6.504672e+01  7.626849e+01  5.656389e+01
   endloop
 endfacet
 facet normal  1.111974e-01 -7.146222e-02  9.912257e-01
   outer loop
     vertex  5.363510e+01  6.849455e+01  4.992040e+01
     vertex  5.698496e+01  6.696472e+01  4.943432e+01
     vertex  5.420179e+01  6.937635e+01  4.992040e+01
   endloop
 endfacet
 facet normal  2.488910e-01 -2.872356e-01  9.249589e-01
   outer loop
     vertex  5.232689e+01  7.234042e+01  5.134537e+01
     vertex  5.420179e+01  6.937635e+01  4.992040e+01
     vertex  5.499397e+01  7.006277e+01  4.992040e+01
   endloop
 endfacet
 facet normal  2.111916e-01 -3.286205e-01  9.205470e-01
   outer loop
     vertex  5.232689e+01  7.234042e+01  5.134537e+01
     vertex  5.499397e+01  7.006277e+01  4.992040e+01
     vertex  5.403009e+01  7.343499e+01  5.134537e+01
   endloop
 endfacet
 facet normal  8.874967e-02 -6.172675e-01  7.817316e-01
   outer loop
     vertex  5.415178e+01  7.661364e+01  5.361160e+01
     vertex  5.597267e+01  7.400539e+01  5.134537e+01
     vertex  5.698496e+01  7.702098e+01  5.361160e+01
   endloop
 endfacet
 facet normal  1.692564e-01 -5.764345e-01  7.994220e-01
   outer loop
     vertex  5.415178e+01  7.661364e+01  5.361160e+01
     vertex  5.403009e+01  7.343499e+01  5.134537e+01
     vertex  5.597267e+01  7.400539e+01  5.134537e+01
   endloop
 endfacet
 facet normal -2.222708e-01 -9.017880e-01  3.706401e-01
   outer loop
     vertex  5.873695e+01  7.915007e+01  5.656389e+01
     vertex  6.185078e+01  7.979484e+01  6.000000e+01
     vertex  5.863894e+01  8.058649e+01  6.000000e+01
   endloop
 endfacet
 facet normal -1.112226e-01 -7.735698e-01  6.238744e-01
   outer loop
     vertex  5.873695e+01  7.915007e+01  5.656389e+01
     vertex  5.698496e+01  7.702098e+01  5.361160e+01
     vertex  5.981814e+01  7.661364e+01  5.361160e+01
   endloop
 endfacet
 facet normal -2.583146e-01 -8.797387e-01  3.991659e-01
   outer loop
     vertex  5.873695e+01  7.915007e+01  5.656389e+01
     vertex  6.209899e+01  7.816288e+01  5.656389e+01
     vertex  6.185078e+01  7.979484e+01  6.000000e+01
   endloop
 endfacet
 facet normal -2.285094e-01 -7.782316e-01  5.849266e-01
   outer loop
     vertex  5.873695e+01  7.915007e+01  5.656389e+01
     vertex  5.981814e+01  7.661364e+01  5.361160e+01
     vertex  6.209899e+01  7.816288e+01  5.656389e+01
   endloop
 endfacet
 facet normal  1.268263e-01 -3.723958e-02  9.912257e-01
   outer loop
     vertex  5.333979e+01  6.748882e+01  4.992040e+01
     vertex  5.698496e+01  6.696472e+01  4.943432e+01
     vertex  5.363510e+01  6.849455e+01  4.992040e+01
   endloop
 endfacet
 facet normal  0.000000e+00  0.000000e+00  0.000000e+00
   outer loop
     vertex  5.333979e+01  6.748882e+01  4.992040e+01
     vertex  5.698496e+01  6.696472e+01  4.943432e+01
     vertex  5.698496e+01  6.696472e+01  4.943432e+01
   endloop
 endfacet
 facet normal  3.197328e-01 -2.054798e-01  9.249589e-01
   outer loop
     vertex  5.100107e+01  7.081033e+01  5.134537e+01
     vertex  5.363510e+01  6.849455e+01  4.992040e+01
     vertex  5.420179e+01  6.937635e+01  4.992040e+01
   endloop
 endfacet
 facet normal  2.952199e-01 -2.558095e-01  9.205470e-01
   outer loop
     vertex  5.100107e+01  7.081033e+01  5.134537e+01
     vertex  5.420179e+01  6.937635e+01  4.992040e+01
     vertex  5.232689e+01  7.234042e+01  5.134537e+01
   endloop
 endfacet
 facet normal  3.248007e-01 -5.053998e-01  7.994220e-01
   outer loop
     vertex  5.154813e+01  7.542459e+01  5.361160e+01
     vertex  5.232689e+01  7.234042e+01  5.134537e+01
     vertex  5.403009e+01  7.343499e+01  5.134537e+01
   endloop
 endfacet
 facet normal  2.590590e-01 -5.672601e-01  7.817316e-01
   outer loop
     vertex  5.154813e+01  7.542459e+01  5.361160e+01
     vertex  5.403009e+01  7.343499e+01  5.134537e+01
     vertex  5.415178e+01  7.661364e+01  5.361160e+01
   endloop
 endfacet
 facet normal  0.000000e+00 -9.226278e-01  3.856916e-01
   outer loop
     vertex  5.523297e+01  7.915007e+01  5.656389e+01
     vertex  5.863894e+01  8.058649e+01  6.000000e+01
     vertex  5.533098e+01  8.058649e+01  6.000000e+01
   endloop
 endfacet
 facet normal  2.222708e-01 -9.017880e-01  3.706401e-01
   outer loop
     vertex  5.523297e+01  7.915007e+01  5.656389e+01
     vertex  5.533098e+01  8.058649e+01  6.000000e+01
     vertex  5.211914e+01  7.979484e+01  6.000000e+01
   endloop
 endfacet
 facet normal  0.000000e+00 -9.226278e-01  3.856916e-01
   outer loop
     vertex  5.523297e+01  7.915007e+01  5.656389e+01
     vertex  5.873695e+01  7.915007e+01  5.656389e+01
     vertex  5.863894e+01  8.058649e+01  6.000000e+01
   endloop
 endfacet
 facet normal  1.112226e-01 -7.735698e-01  6.238744e-01
   outer loop
     vertex  5.523297e+01  7.915007e+01  5.656389e+01
     vertex  5.415178e+01  7.661364e+01  5.361160e+01
     vertex  5.698496e+01  7.702098e+01  5.361160e+01
   endloop
 endfacet
 facet normal  0.000000e+00 -8.110863e-01  5.849266e-01
   outer loop
     vertex  5.523297e+01  7.915007e+01  5.656389e+01
     vertex  5.698496e+01  7.702098e+01  5.361160e+01
     vertex  5.873695e+01  7.915007e+01  5.656389e+01
   endloop
 endfacet
 facet normal  1.321806e-01 -8.960173e-16  9.912257e-01
   outer loop
     vertex  5.333979e+01  6.644062e+01  4.992040e+01
     vertex  5.698496e+01  6.696472e+01  4.943432e+01
     vertex  5.333979e+01  6.748882e+01  4.992040e+01
   endloop
 endfacet
 facet normal  3.646717e-01 -1.070773e-01  9.249589e-01
   outer loop
     vertex  5.016002e+01  6.896870e+01  5.134537e+01
     vertex  5.333979e+01  6.748882e+01  4.992040e+01
     vertex  5.363510e+01  6.849455e+01  4.992040e+01
   endloop
 endfacet
 facet normal  3.553313e-01 -1.622744e-01  9.205470e-01
   outer loop
     vertex  5.016002e+01  6.896870e+01  5.134537e+01
     vertex  5.363510e+01  6.849455e+01  4.992040e+01
     vertex  5.100107e+01  7.081033e+01  5.134537e+01
   endloop
 endfacet
 facet normal  4.540316e-01 -3.934206e-01  7.994220e-01
   outer loop
     vertex  4.938494e+01  7.355017e+01  5.361160e+01
     vertex  5.100107e+01  7.081033e+01  5.134537e+01
     vertex  5.232689e+01  7.234042e+01  5.134537e+01
   endloop
 endfacet
 facet normal  4.083810e-01 -4.712968e-01  7.817316e-01
   outer loop
     vertex  4.938494e+01  7.355017e+01  5.361160e+01
     vertex  5.232689e+01  7.234042e+01  5.134537e+01
     vertex  5.154813e+01  7.542459e+01  5.361160e+01
   endloop
 endfacet
 facet normal  4.334043e-01 -8.257829e-01  3.608924e-01
   outer loop
     vertex  5.187093e+01  7.816288e+01  5.656389e+01
     vertex  5.211914e+01  7.979484e+01  6.000000e+01
     vertex  4.919008e+01  7.825755e+01  6.000000e+01
   endloop
 endfacet
 facet normal  2.583146e-01 -8.797387e-01  3.991659e-01
   outer loop
     vertex  5.187093e+01  7.816288e+01  5.656389e+01
     vertex  5.523297e+01  7.915007e+01  5.656389e+01
     vertex  5.211914e+01  7.979484e+01  6.000000e+01
   endloop
 endfacet
 facet normal  3.246571e-01 -7.108998e-01  6.238744e-01
   outer loop
     vertex  5.187093e+01  7.816288e+01  5.656389e+01
     vertex  5.154813e+01  7.542459e+01  5.361160e+01
     vertex  5.415178e+01  7.661364e+01  5.361160e+01
   endloop
 endfacet
 facet normal  2.285094e-01 -7.782316e-01  5.849266e-01
   outer loop
     vertex  5.187093e+01  7.816288e+01  5.656389e+01
     vertex  5.415178e+01  7.661364e+01  5.361160e+01
     vertex  5.523297e+01  7.915007e+01  5.656389e+01
   endloop
 endfacet
 facet normal  1.268263e-01  3.723958e-02  9.912257e-01
   outer loop
     vertex  5.363510e+01  6.543489e+01  4.992040e+01
     vertex  5.698496e+01  6.696472e+01  4.943432e+01
     vertex  5.333979e+01  6.644062e+01  4.992040e+01
   endloop
 endfacet
 facet normal  3.866559e-01 -5.559272e-02  9.205470e-01
   outer loop
     vertex  4.987189e+01  6.696472e+01  5.134537e+01
     vertex  5.333979e+01  6.748882e+01  4.992040e+01
     vertex  5.016002e+01  6.896870e+01  5.134537e+01
   endloop
 endfacet
 facet normal  3.800671e-01 -2.712042e-15  9.249589e-01
   outer loop
     vertex  4.987189e+01  6.696472e+01  5.134537e+01
     vertex  5.333979e+01  6.644062e+01  4.992040e+01
     vertex  5.333979e+01  6.748882e+01  4.992040e+01
   endloop
 endfacet
 facet normal  5.464795e-01 -2.495688e-01  7.994220e-01
   outer loop
     vertex  4.783746e+01  7.114224e+01  5.361160e+01
     vertex  5.016002e+01  6.896870e+01  5.134537e+01
     vertex  5.100107e+01  7.081033e+01  5.134537e+01
   endloop
 endfacet
 facet normal  5.246183e-01 -3.371517e-01  7.817316e-01
   outer loop
     vertex  4.783746e+01  7.114224e+01  5.361160e+01
     vertex  5.100107e+01  7.081033e+01  5.134537e+01
     vertex  4.938494e+01  7.355017e+01  5.361160e+01
   endloop
 endfacet
 facet normal  6.195082e-01 -6.992802e-01  3.566746e-01
   outer loop
     vertex  4.892320e+01  7.626849e+01  5.656389e+01
     vertex  4.919008e+01  7.825755e+01  6.000000e+01
     vertex  4.671403e+01  7.606396e+01  6.000000e+01
   endloop
 endfacet
 facet normal  4.385063e-01 -6.823292e-01  5.849266e-01
   outer loop
     vertex  4.892320e+01  7.626849e+01  5.656389e+01
     vertex  5.154813e+01  7.542459e+01  5.361160e+01
     vertex  5.187093e+01  7.816288e+01  5.656389e+01
   endloop
 endfacet
 facet normal  5.117898e-01 -5.906369e-01  6.238744e-01
   outer loop
     vertex  4.892320e+01  7.626849e+01  5.656389e+01
     vertex  4.938494e+01  7.355017e+01  5.361160e+01
     vertex  5.154813e+01  7.542459e+01  5.361160e+01
   endloop
 endfacet
 facet normal  4.939448e-01 -7.685931e-01  4.065503e-01
   outer loop
     vertex  4.892320e+01  7.626849e+01  5.656389e+01
     vertex  5.187093e+01  7.816288e+01  5.656389e+01
     vertex  4.919008e+01  7.825755e+01  6.000000e+01
   endloop
 endfacet
 facet normal  1.111974e-01  7.146222e-02  9.912257e-01
   outer loop
     vertex  5.420179e+01  6.455309e+01  4.992040e+01
     vertex  5.698496e+01  6.696472e+01  4.943432e+01
     vertex  5.363510e+01  6.543489e+01  4.992040e+01
   endloop
 endfacet
 facet normal  3.646717e-01  1.070773e-01  9.249589e-01
   outer loop
     vertex  5.016002e+01  6.496074e+01  5.134537e+01
     vertex  5.363510e+01  6.543489e+01  4.992040e+01
     vertex  5.333979e+01  6.644062e+01  4.992040e+01
   endloop
 endfacet
 facet normal  3.866559e-01  5.559272e-02  9.205470e-01
   outer loop
     vertex  5.016002e+01  6.496074e+01  5.134537e+01
     vertex  5.333979e+01  6.644062e+01  4.992040e+01
     vertex  4.987189e+01  6.696472e+01  5.134537e+01
   endloop
 endfacet
 facet normal  5.946549e-01 -8.549846e-02  7.994220e-01
   outer loop
     vertex  4.703105e+01  6.839587e+01  5.361160e+01
     vertex  4.987189e+01  6.696472e+01  5.134537e+01
     vertex  5.016002e+01  6.896870e+01  5.134537e+01
   endloop
 endfacet
 facet normal  5.983542e-01 -1.756926e-01  7.817316e-01
   outer loop
     vertex  4.703105e+01  6.839587e+01  5.361160e+01
     vertex  5.016002e+01  6.896870e+01  5.134537e+01
     vertex  4.783746e+01  7.114224e+01  5.361160e+01
   endloop
 endfacet
 facet normal  7.684115e-01 -5.303962e-01  3.580832e-01
   outer loop
     vertex  4.662858e+01  7.362036e+01  5.656389e+01
     vertex  4.671403e+01  7.606396e+01  6.000000e+01
     vertex  4.483490e+01  7.334156e+01  6.000000e+01
   endloop
 endfacet
 facet normal  6.574604e-01 -4.225241e-01  6.238744e-01
   outer loop
     vertex  4.662858e+01  7.362036e+01  5.656389e+01
     vertex  4.783746e+01  7.114224e+01  5.361160e+01
     vertex  4.938494e+01  7.355017e+01  5.361160e+01
   endloop
 endfacet
 facet normal  6.899795e-01 -5.978706e-01  4.080185e-01
   outer loop
     vertex  4.662858e+01  7.362036e+01  5.656389e+01
     vertex  4.892320e+01  7.626849e+01  5.656389e+01
     vertex  4.671403e+01  7.606396e+01  6.000000e+01
   endloop
 endfacet
 facet normal  6.129781e-01 -5.311485e-01  5.849266e-01
   outer loop
     vertex  4.662858e+01  7.362036e+01  5.656389e+01
     vertex  4.938494e+01  7.355017e+01  5.361160e+01
     vertex  4.892320e+01  7.626849e+01  5.656389e+01
   endloop
 endfacet
 facet normal  8.655988e-02  9.989543e-02  9.912257e-01
   outer loop
     vertex  5.499397e+01  6.386667e+01  4.992040e+01
     vertex  5.698496e+01  6.696472e+01  4.943432e+01
     vertex  5.420179e+01  6.455309e+01  4.992040e+01
   endloop
 endfacet
 facet normal  3.553313e-01  1.622744e-01  9.205470e-01
   outer loop
     vertex  5.100107e+01  6.311910e+01  5.134537e+01
     vertex  5.363510e+01  6.543489e+01  4.992040e+01
     vertex  5.016002e+01  6.496074e+01  5.134537e+01
   endloop
 endfacet
 facet normal  3.197328e-01  2.054798e-01  9.249589e-01
   outer loop
     vertex  5.100107e+01  6.311910e+01  5.134537e+01
     vertex  5.420179e+01  6.455309e+01  4.992040e+01
     vertex  5.363510e+01  6.543489e+01  4.992040e+01
   endloop
 endfacet
 facet normal  6.236150e-01 -0.000000e+00  7.817316e-01
   outer loop
     vertex  4.703105e+01  6.553356e+01  5.361160e+01
     vertex  4.987189e+01  6.696472e+01  5.134537e+01
     vertex  4.703105e+01  6.839587e+01  5.361160e+01
   endloop
 endfacet
 facet normal  5.946549e-01  8.549846e-02  7.994220e-01
   outer loop
     vertex  4.703105e+01  6.553356e+01  5.361160e+01
     vertex  5.016002e+01  6.496074e+01  5.134537e+01
     vertex  4.987189e+01  6.696472e+01  5.134537e+01
   endloop
 endfacet
 facet normal  7.498674e-01 -2.201809e-01  6.238744e-01
   outer loop
     vertex  4.517298e+01  7.043303e+01  5.656389e+01
     vertex  4.703105e+01  6.839587e+01  5.361160e+01
     vertex  4.783746e+01  7.114224e+01  5.361160e+01
   endloop
 endfacet
 facet normal  8.704756e-01 -3.301279e-01  3.650860e-01
   outer loop
     vertex  4.517298e+01  7.043303e+01  5.656389e+01
     vertex  4.483490e+01  7.334156e+01  6.000000e+01
     vertex  4.366188e+01  7.024856e+01  6.000000e+01
   endloop
 endfacet
 facet normal  7.377900e-01 -3.369374e-01  5.849266e-01
   outer loop
     vertex  4.517298e+01  7.043303e+01  5.656389e+01
     vertex  4.783746e+01  7.114224e+01  5.361160e+01
     vertex  4.662858e+01  7.362036e+01  5.656389e+01
   endloop
 endfacet
 facet normal  8.322525e-01 -3.800770e-01  4.036053e-01
   outer loop
     vertex  4.517298e+01  7.043303e+01  5.656389e+01
     vertex  4.662858e+01  7.362036e+01  5.656389e+01
     vertex  4.483490e+01  7.334156e+01  6.000000e+01
   endloop
 endfacet
 facet normal  5.490980e-02  1.202357e-01  9.912257e-01
   outer loop
     vertex  5.594744e+01  6.343123e+01  4.992040e+01
     vertex  5.698496e+01  6.696472e+01  4.943432e+01
     vertex  5.499397e+01  6.386667e+01  4.992040e+01
   endloop
 endfacet
 facet normal  2.488910e-01  2.872356e-01  9.249589e-01
   outer loop
     vertex  5.232689e+01  6.158902e+01  5.134537e+01
     vertex  5.499397e+01  6.386667e+01  4.992040e+01
     vertex  5.420179e+01  6.455309e+01  4.992040e+01
   endloop
 endfacet
 facet normal  2.952199e-01  2.558095e-01  9.205470e-01
   outer loop
     vertex  5.232689e+01  6.158902e+01  5.134537e+01
     vertex  5.420179e+01  6.455309e+01  4.992040e+01
     vertex  5.100107e+01  6.311910e+01  5.134537e+01
   endloop
 endfacet
 facet normal  5.464795e-01  2.495688e-01  7.994220e-01
   outer loop
     vertex  4.783746e+01  6.278719e+01  5.361160e+01
     vertex  5.100107e+01  6.311910e+01  5.134537e+01
     vertex  5.016002e+01  6.496074e+01  5.134537e+01
   endloop
 endfacet
 facet normal  5.983542e-01  1.756926e-01  7.817316e-01
   outer loop
     vertex  4.783746e+01  6.278719e+01  5.361160e+01
     vertex  5.016002e+01  6.496074e+01  5.134537e+01
     vertex  4.703105e+01  6.553356e+01  5.361160e+01
   endloop
 endfacet
 facet normal  9.100917e-01 -1.308514e-01  3.932061e-01
   outer loop
     vertex  4.467431e+01  6.696472e+01  5.656389e+01
     vertex  4.517298e+01  7.043303e+01  5.656389e+01
     vertex  4.366188e+01  7.024856e+01  6.000000e+01
   endloop
 endfacet
 facet normal  9.192490e-01 -1.116170e-01  3.775222e-01
   outer loop
     vertex  4.467431e+01  6.696472e+01  5.656389e+01
     vertex  4.366188e+01  7.024856e+01  6.000000e+01
     vertex  4.326315e+01  6.696472e+01  6.000000e+01
   endloop
 endfacet
 facet normal  9.192490e-01  1.116170e-01  3.775222e-01
   outer loop
     vertex  4.467431e+01  6.696472e+01  5.656389e+01
     vertex  4.326315e+01  6.696472e+01  6.000000e+01
     vertex  4.366188e+01  6.368087e+01  6.000000e+01
   endloop
 endfacet
 facet normal  7.815246e-01  0.000000e+00  6.238744e-01
   outer loop
     vertex  4.467431e+01  6.696472e+01  5.656389e+01
     vertex  4.703105e+01  6.553356e+01  5.361160e+01
     vertex  4.703105e+01  6.839587e+01  5.361160e+01
   endloop
 endfacet
 facet normal  8.028306e-01 -1.154296e-01  5.849266e-01
   outer loop
     vertex  4.467431e+01  6.696472e+01  5.656389e+01
     vertex  4.703105e+01  6.839587e+01  5.361160e+01
     vertex  4.517298e+01  7.043303e+01  5.656389e+01
   endloop
 endfacet
 facet normal  1.881126e-02  1.308352e-01  9.912257e-01
   outer loop
     vertex  5.698496e+01  6.328206e+01  4.992040e+01
     vertex  5.698496e+01  6.696472e+01  4.943432e+01
     vertex  5.594744e+01  6.343123e+01  4.992040e+01
   endloop
 endfacet
 facet normal  2.111916e-01  3.286205e-01  9.205470e-01
   outer loop
     vertex  5.403009e+01  6.049444e+01  5.134537e+01
     vertex  5.499397e+01  6.386667e+01  4.992040e+01
     vertex  5.232689e+01  6.158902e+01  5.134537e+01
   endloop
 endfacet
 facet normal  1.578856e-01  3.457212e-01  9.249589e-01
   outer loop
     vertex  5.403009e+01  6.049444e+01  5.134537e+01
     vertex  5.594744e+01  6.343123e+01  4.992040e+01
     vertex  5.499397e+01  6.386667e+01  4.992040e+01
   endloop
 endfacet
 facet normal  5.246183e-01  3.371517e-01  7.817316e-01
   outer loop
     vertex  4.938494e+01  6.037926e+01  5.361160e+01
     vertex  5.100107e+01  6.311910e+01  5.134537e+01
     vertex  4.783746e+01  6.278719e+01  5.361160e+01
   endloop
 endfacet
 facet normal  4.540316e-01  3.934206e-01  7.994220e-01
   outer loop
     vertex  4.938494e+01  6.037926e+01  5.361160e+01
     vertex  5.232689e+01  6.158902e+01  5.134537e+01
     vertex  5.100107e+01  6.311910e+01  5.134537e+01
   endloop
 endfacet
 facet normal  8.704756e-01  3.301279e-01  3.650860e-01
   outer loop
     vertex  4.517298e+01  6.349641e+01  5.656389e+01
     vertex  4.366188e+01  6.368087e+01  6.000000e+01
     vertex  4.483490e+01  6.058787e+01  6.000000e+01
   endloop
 endfacet
 facet normal  9.100917e-01  1.308514e-01  3.932061e-01
   outer loop
     vertex  4.517298e+01  6.349641e+01  5.656389e+01
     vertex  4.467431e+01  6.696472e+01  5.656389e+01
     vertex  4.366188e+01  6.368087e+01  6.000000e+01
   endloop
 endfacet
 facet normal  7.498674e-01  2.201809e-01  6.238744e-01
   outer loop
     vertex  4.517298e+01  6.349641e+01  5.656389e+01
     vertex  4.783746e+01  6.278719e+01  5.361160e+01
     vertex  4.703105e+01  6.553356e+01  5.361160e+01
   endloop
 endfacet
 facet normal  8.028306e-01  1.154296e-01  5.849266e-01
   outer loop
     vertex  4.517298e+01  6.349641e+01  5.656389e+01
     vertex  4.703105e+01  6.553356e+01  5.361160e+01
     vertex  4.467431e+01  6.696472e+01  5.656389e+01
   endloop
 endfacet
 facet normal -1.881126e-02  1.308352e-01  9.912257e-01
   outer loop
     vertex  5.802249e+01  6.343123e+01  4.992040e+01
     vertex  5.698496e+01  6.696472e+01  4.943432e+01
     vertex  5.698496e+01  6.328206e+01  4.992040e+01
   endloop
 endfacet
 facet normal  1.100537e-01  3.748086e-01  9.205470e-01
   outer loop
     vertex  5.597267e+01  5.992405e+01  5.134537e+01
     vertex  5.594744e+01  6.343123e+01  4.992040e+01
     vertex  5.403009e+01  6.049444e+01  5.134537e+01
   endloop
 endfacet
 facet normal  5.408919e-02  3.761986e-01  9.249589e-01
   outer loop
     vertex  5.597267e+01  5.992405e+01  5.134537e+01
     vertex  5.698496e+01  6.328206e+01  4.992040e+01
     vertex  5.594744e+01  6.343123e+01  4.992040e+01
   endloop
 endfacet
 facet normal  4.083810e-01  4.712968e-01  7.817316e-01
   outer loop
     vertex  5.154813e+01  5.850485e+01  5.361160e+01
     vertex  5.232689e+01  6.158902e+01  5.134537e+01
     vertex  4.938494e+01  6.037926e+01  5.361160e+01
   endloop
 endfacet
 facet normal  3.248007e-01  5.053998e-01  7.994220e-01
   outer loop
     vertex  5.154813e+01  5.850485e+01  5.361160e+01
     vertex  5.403009e+01  6.049444e+01  5.134537e+01
     vertex  5.232689e+01  6.158902e+01  5.134537e+01
   endloop
 endfacet
 facet normal  7.684115e-01  5.303962e-01  3.580832e-01
   outer loop
     vertex  4.662858e+01  6.030908e+01  5.656389e+01
     vertex  4.483490e+01  6.058787e+01  6.000000e+01
     vertex  4.671403e+01  5.786547e+01  6.000000e+01
   endloop
 endfacet
 facet normal  6.574604e-01  4.225241e-01  6.238744e-01
   outer loop
     vertex  4.662858e+01  6.030908e+01  5.656389e+01
     vertex  4.938494e+01  6.037926e+01  5.361160e+01
     vertex  4.783746e+01  6.278719e+01  5.361160e+01
   endloop
 endfacet
 facet normal  7.377900e-01  3.369374e-01  5.849266e-01
   outer loop
     vertex  4.662858e+01  6.030908e+01  5.656389e+01
     vertex  4.783746e+01  6.278719e+01  5.361160e+01
     vertex  4.517298e+01  6.349641e+01  5.656389e+01
   endloop
 endfacet
 facet normal  8.322525e-01  3.800770e-01  4.036053e-01
   outer loop
     vertex  4.662858e+01  6.030908e+01  5.656389e+01
     vertex  4.517298e+01  6.349641e+01  5.656389e+01
     vertex  4.483490e+01  6.058787e+01  6.000000e+01
   endloop
 endfacet
 facet normal -5.490980e-02  1.202357e-01  9.912257e-01
   outer loop
     vertex  5.897596e+01  6.386667e+01  4.992040e+01
     vertex  5.698496e+01  6.696472e+01  4.943432e+01
     vertex  5.802249e+01  6.343123e+01  4.992040e+01
   endloop
 endfacet
 facet normal -5.408919e-02  3.761986e-01  9.249589e-01
   outer loop
     vertex  5.799726e+01  5.992405e+01  5.134537e+01
     vertex  5.802249e+01  6.343123e+01  4.992040e+01
     vertex  5.698496e+01  6.328206e+01  4.992040e+01
   endloop
 endfacet
 facet normal  1.370947e-15  3.906319e-01  9.205470e-01
   outer loop
     vertex  5.799726e+01  5.992405e+01  5.134537e+01
     vertex  5.698496e+01  6.328206e+01  4.992040e+01
     vertex  5.597267e+01  5.992405e+01  5.134537e+01
   endloop
 endfacet
 facet normal  1.692564e-01  5.764345e-01  7.994220e-01
   outer loop
     vertex  5.415178e+01  5.731580e+01  5.361160e+01
     vertex  5.597267e+01  5.992405e+01  5.134537e+01
     vertex  5.403009e+01  6.049444e+01  5.134537e+01
   endloop
 endfacet
 facet normal  2.590590e-01  5.672601e-01  7.817316e-01
   outer loop
     vertex  5.415178e+01  5.731580e+01  5.361160e+01
     vertex  5.403009e+01  6.049444e+01  5.134537e+01
     vertex  5.154813e+01  5.850485e+01  5.361160e+01
   endloop
 endfacet
 facet normal  6.195082e-01  6.992802e-01  3.566746e-01
   outer loop
     vertex  4.892320e+01  5.766095e+01  5.656389e+01
     vertex  4.671403e+01  5.786547e+01  6.000000e+01
     vertex  4.919008e+01  5.567189e+01  6.000000e+01
   endloop
 endfacet
 facet normal  6.899795e-01  5.978706e-01  4.080185e-01
   outer loop
     vertex  4.892320e+01  5.766095e+01  5.656389e+01
     vertex  4.662858e+01  6.030908e+01  5.656389e+01
     vertex  4.671403e+01  5.786547e+01  6.000000e+01
   endloop
 endfacet
 facet normal  5.117898e-01  5.906369e-01  6.238744e-01
   outer loop
     vertex  4.892320e+01  5.766095e+01  5.656389e+01
     vertex  5.154813e+01  5.850485e+01  5.361160e+01
     vertex  4.938494e+01  6.037926e+01  5.361160e+01
   endloop
 endfacet
 facet normal  6.129781e-01  5.311485e-01  5.849266e-01
   outer loop
     vertex  4.892320e+01  5.766095e+01  5.656389e+01
     vertex  4.938494e+01  6.037926e+01  5.361160e+01
     vertex  4.662858e+01  6.030908e+01  5.656389e+01
   endloop
 endfacet
 facet normal -8.655988e-02  9.989543e-02  9.912257e-01
   outer loop
     vertex  5.976813e+01  6.455309e+01  4.992040e+01
     vertex  5.698496e+01  6.696472e+01  4.943432e+01
     vertex  5.897596e+01  6.386667e+01  4.992040e+01
   endloop
 endfacet
 facet normal -1.578856e-01  3.457212e-01  9.249589e-01
   outer loop
     vertex  5.993984e+01  6.049444e+01  5.134537e+01
     vertex  5.897596e+01  6.386667e+01  4.992040e+01
     vertex  5.802249e+01  6.343123e+01  4.992040e+01
   endloop
 endfacet
 facet normal -1.100537e-01  3.748086e-01  9.205470e-01
   outer loop
     vertex  5.993984e+01  6.049444e+01  5.134537e+01
     vertex  5.802249e+01  6.343123e+01  4.992040e+01
     vertex  5.799726e+01  5.992405e+01  5.134537e+01
   endloop
 endfacet
 facet normal  2.093332e-15  6.007699e-01  7.994220e-01
   outer loop
     vertex  5.698496e+01  5.690845e+01  5.361160e+01
     vertex  5.799726e+01  5.992405e+01  5.134537e+01
     vertex  5.597267e+01  5.992405e+01  5.134537e+01
   endloop
 endfacet
 facet normal  8.874967e-02  6.172675e-01  7.817316e-01
   outer loop
     vertex  5.698496e+01  5.690845e+01  5.361160e+01
     vertex  5.597267e+01  5.992405e+01  5.134537e+01
     vertex  5.415178e+01  5.731580e+01  5.361160e+01
   endloop
 endfacet
 facet normal  4.334043e-01  8.257829e-01  3.608924e-01
   outer loop
     vertex  5.187093e+01  5.576655e+01  5.656389e+01
     vertex  4.919008e+01  5.567189e+01  6.000000e+01
     vertex  5.211914e+01  5.413460e+01  6.000000e+01
   endloop
 endfacet
 facet normal  3.246571e-01  7.108998e-01  6.238744e-01
   outer loop
     vertex  5.187093e+01  5.576655e+01  5.656389e+01
     vertex  5.415178e+01  5.731580e+01  5.361160e+01
     vertex  5.154813e+01  5.850485e+01  5.361160e+01
   endloop
 endfacet
 facet normal  4.385063e-01  6.823292e-01  5.849266e-01
   outer loop
     vertex  5.187093e+01  5.576655e+01  5.656389e+01
     vertex  5.154813e+01  5.850485e+01  5.361160e+01
     vertex  4.892320e+01  5.766095e+01  5.656389e+01
   endloop
 endfacet
 facet normal  4.939448e-01  7.685931e-01  4.065503e-01
   outer loop
     vertex  5.187093e+01  5.576655e+01  5.656389e+01
     vertex  4.892320e+01  5.766095e+01  5.656389e+01
     vertex  4.919008e+01  5.567189e+01  6.000000e+01
   endloop
 endfacet
 facet normal -1.111974e-01  7.146222e-02  9.912257e-01
   outer loop
     vertex  6.033482e+01  6.543489e+01  4.992040e+01
     vertex  5.698496e+01  6.696472e+01  4.943432e+01
     vertex  5.976813e+01  6.455309e+01  4.992040e+01
   endloop
 endfacet
 facet normal -2.488910e-01  2.872356e-01  9.249589e-01
   outer loop
     vertex  6.164303e+01  6.158902e+01  5.134537e+01
     vertex  5.976813e+01  6.455309e+01  4.992040e+01
     vertex  5.897596e+01  6.386667e+01  4.992040e+01
   endloop
 endfacet
 facet normal -2.111916e-01  3.286205e-01  9.205470e-01
   outer loop
     vertex  6.164303e+01  6.158902e+01  5.134537e+01
     vertex  5.897596e+01  6.386667e+01  4.992040e+01
     vertex  5.993984e+01  6.049444e+01  5.134537e+01
   endloop
 endfacet
 facet normal -1.692564e-01  5.764345e-01  7.994220e-01
   outer loop
     vertex  5.981814e+01  5.731580e+01  5.361160e+01
     vertex  5.993984e+01  6.049444e+01  5.134537e+01
     vertex  5.799726e+01  5.992405e+01  5.134537e+01
   endloop
 endfacet
 facet normal -8.874967e-02  6.172675e-01  7.817316e-01
   outer loop
     vertex  5.981814e+01  5.731580e+01  5.361160e+01
     vertex  5.799726e+01  5.992405e+01  5.134537e+01
     vertex  5.698496e+01  5.690845e+01  5.361160e+01
   endloop
 endfacet
 facet normal  2.583146e-01  8.797387e-01  3.991659e-01
   outer loop
     vertex  5.523297e+01  5.477937e+01  5.656389e+01
     vertex  5.187093e+01  5.576655e+01  5.656389e+01
     vertex  5.211914e+01  5.413460e+01  6.000000e+01
   endloop
 endfacet
 facet normal  2.222708e-01  9.017880e-01  3.706401e-01
   outer loop
     vertex  5.523297e+01  5.477937e+01  5.656389e+01
     vertex  5.211914e+01  5.413460e+01  6.000000e+01
     vertex  5.533098e+01  5.334295e+01  6.000000e+01
   endloop
 endfacet
 facet normal  1.946536e-15  9.226278e-01  3.856916e-01
   outer loop
     vertex  5.523297e+01  5.477937e+01  5.656389e+01
     vertex  5.533098e+01  5.334295e+01  6.000000e+01
     vertex  5.863894e+01  5.334295e+01  6.000000e+01
   endloop
 endfacet
 facet normal  1.112226e-01  7.735698e-01  6.238744e-01
   outer loop
     vertex  5.523297e+01  5.477937e+01  5.656389e+01
     vertex  5.698496e+01  5.690845e+01  5.361160e+01
     vertex  5.415178e+01  5.731580e+01  5.361160e+01
   endloop
 endfacet
 facet normal  2.285094e-01  7.782316e-01  5.849266e-01
   outer loop
     vertex  5.523297e+01  5.477937e+01  5.656389e+01
     vertex  5.415178e+01  5.731580e+01  5.361160e+01
     vertex  5.187093e+01  5.576655e+01  5.656389e+01
   endloop
 endfacet
 facet normal -1.077259e-01  1.607013e-01  9.811066e-01
   outer loop
     vertex  6.063013e+01  6.644062e+01  4.992040e+01
     vertex  6.006467e+01  6.696472e+01  4.977247e+01
     vertex  5.698496e+01  6.696472e+01  4.943432e+01
   endloop
 endfacet
 facet normal -3.211945e-01 -8.020021e-02  9.436112e-01
   outer loop
     vertex  6.063013e+01  6.644062e+01  4.992040e+01
     vertex  6.299763e+01  6.696472e+01  5.077081e+01
     vertex  6.006467e+01  6.696472e+01  4.977247e+01
   endloop
 endfacet
 facet normal -1.268263e-01  3.723958e-02  9.912257e-01
   outer loop
     vertex  6.063013e+01  6.644062e+01  4.992040e+01
     vertex  5.698496e+01  6.696472e+01  4.943432e+01
     vertex  6.033482e+01  6.543489e+01  4.992040e+01
   endloop
 endfacet
 facet normal -2.952199e-01  2.558095e-01  9.205470e-01
   outer loop
     vertex  6.296885e+01  6.311910e+01  5.134537e+01
     vertex  5.976813e+01  6.455309e+01  4.992040e+01
     vertex  6.164303e+01  6.158902e+01  5.134537e+01
   endloop
 endfacet
 facet normal -3.197328e-01  2.054798e-01  9.249589e-01
   outer loop
     vertex  6.296885e+01  6.311910e+01  5.134537e+01
     vertex  6.033482e+01  6.543489e+01  4.992040e+01
     vertex  5.976813e+01  6.455309e+01  4.992040e+01
   endloop
 endfacet
 facet normal -3.248007e-01  5.053998e-01  7.994220e-01
   outer loop
     vertex  6.242179e+01  5.850485e+01  5.361160e+01
     vertex  6.164303e+01  6.158902e+01  5.134537e+01
     vertex  5.993984e+01  6.049444e+01  5.134537e+01
   endloop
 endfacet
 facet normal -2.590590e-01  5.672601e-01  7.817316e-01
   outer loop
     vertex  6.242179e+01  5.850485e+01  5.361160e+01
     vertex  5.993984e+01  6.049444e+01  5.134537e+01
     vertex  5.981814e+01  5.731580e+01  5.361160e+01
   endloop
 endfacet
 facet normal -2.222708e-01  9.017880e-01  3.706401e-01
   outer loop
     vertex  5.873695e+01  5.477937e+01  5.656389e+01
     vertex  5.863894e+01  5.334295e+01  6.000000e+01
     vertex  6.185078e+01  5.413460e+01  6.000000e+01
   endloop
 endfacet
 facet normal  0.000000e+00  9.226278e-01  3.856916e-01
   outer loop
     vertex  5.873695e+01  5.477937e+01  5.656389e+01
     vertex  5.523297e+01  5.477937e+01  5.656389e+01
     vertex  5.863894e+01  5.334295e+01  6.000000e+01
   endloop
 endfacet
 facet normal -1.112226e-01  7.735698e-01  6.238744e-01
   outer loop
     vertex  5.873695e+01  5.477937e+01  5.656389e+01
     vertex  5.981814e+01  5.731580e+01  5.361160e+01
     vertex  5.698496e+01  5.690845e+01  5.361160e+01
   endloop
 endfacet
 facet normal  0.000000e+00  8.110863e-01  5.849266e-01
   outer loop
     vertex  5.873695e+01  5.477937e+01  5.656389e+01
     vertex  5.698496e+01  5.690845e+01  5.361160e+01
     vertex  5.523297e+01  5.477937e+01  5.656389e+01
   endloop
 endfacet
 facet normal -5.196633e-01  3.412253e-02  8.536894e-01
   outer loop
     vertex  6.380990e+01  6.496074e+01  5.134537e+01
     vertex  6.564409e+01  6.696472e+01  5.238178e+01
     vertex  6.299763e+01  6.696472e+01  5.077081e+01
   endloop
 endfacet
 facet normal -3.590134e-01  1.198568e-01  9.256045e-01
   outer loop
     vertex  6.380990e+01  6.496074e+01  5.134537e+01
     vertex  6.299763e+01  6.696472e+01  5.077081e+01
     vertex  6.063013e+01  6.644062e+01  4.992040e+01
   endloop
 endfacet
 facet normal -3.646717e-01  1.070773e-01  9.249589e-01
   outer loop
     vertex  6.380990e+01  6.496074e+01  5.134537e+01
     vertex  6.063013e+01  6.644062e+01  4.992040e+01
     vertex  6.033482e+01  6.543489e+01  4.992040e+01
   endloop
 endfacet
 facet normal -3.553313e-01  1.622744e-01  9.205470e-01
   outer loop
     vertex  6.380990e+01  6.496074e+01  5.134537e+01
     vertex  6.033482e+01  6.543489e+01  4.992040e+01
     vertex  6.296885e+01  6.311910e+01  5.134537e+01
   endloop
 endfacet
 facet normal -4.083810e-01  4.712968e-01  7.817316e-01
   outer loop
     vertex  6.458498e+01  6.037926e+01  5.361160e+01
     vertex  6.164303e+01  6.158902e+01  5.134537e+01
     vertex  6.242179e+01  5.850485e+01  5.361160e+01
   endloop
 endfacet
 facet normal -4.540316e-01  3.934206e-01  7.994220e-01
   outer loop
     vertex  6.458498e+01  6.037926e+01  5.361160e+01
     vertex  6.296885e+01  6.311910e+01  5.134537e+01
     vertex  6.164303e+01  6.158902e+01  5.134537e+01
   endloop
 endfacet
 facet normal -3.246571e-01  7.108998e-01  6.238744e-01
   outer loop
     vertex  6.209899e+01  5.576655e+01  5.656389e+01
     vertex  6.242179e+01  5.850485e+01  5.361160e+01
     vertex  5.981814e+01  5.731580e+01  5.361160e+01
   endloop
 endfacet
 facet normal -4.334043e-01  8.257829e-01  3.608924e-01
   outer loop
     vertex  6.209899e+01  5.576655e+01  5.656389e+01
     vertex  6.185078e+01  5.413460e+01  6.000000e+01
     vertex  6.477984e+01  5.567189e+01  6.000000e+01
   endloop
 endfacet
 facet normal -2.285094e-01  7.782316e-01  5.849266e-01
   outer loop
     vertex  6.209899e+01  5.576655e+01  5.656389e+01
     vertex  5.981814e+01  5.731580e+01  5.361160e+01
     vertex  5.873695e+01  5.477937e+01  5.656389e+01
   endloop
 endfacet
 facet normal -2.583146e-01  8.797387e-01  3.991659e-01
   outer loop
     vertex  6.209899e+01  5.576655e+01  5.656389e+01
     vertex  5.873695e+01  5.477937e+01  5.656389e+01
     vertex  6.185078e+01  5.413460e+01  6.000000e+01
   endloop
 endfacet
 facet normal -5.246183e-01  3.371517e-01  7.817316e-01
   outer loop
     vertex  6.613246e+01  6.278719e+01  5.361160e+01
     vertex  6.296885e+01  6.311910e+01  5.134537e+01
     vertex  6.458498e+01  6.037926e+01  5.361160e+01
   endloop
 endfacet
 facet normal -5.464795e-01  2.495688e-01  7.994220e-01
   outer loop
     vertex  6.613246e+01  6.278719e+01  5.361160e+01
     vertex  6.380990e+01  6.496074e+01  5.134537e+01
     vertex  6.296885e+01  6.311910e+01  5.134537e+01
   endloop
 endfacet
 facet normal -5.117898e-01  5.906369e-01  6.238744e-01
   outer loop
     vertex  6.504672e+01  5.766095e+01  5.656389e+01
     vertex  6.458498e+01  6.037926e+01  5.361160e+01
     vertex  6.242179e+01  5.850485e+01  5.361160e+01
   endloop
 endfacet
 facet normal -4.385063e-01  6.823292e-01  5.849266e-01
   outer loop
     vertex  6.504672e+01  5.766095e+01  5.656389e+01
     vertex  6.242179e+01  5.850485e+01  5.361160e+01
     vertex  6.209899e+01  5.576655e+01  5.656389e+01
   endloop
 endfacet
 facet normal -6.195082e-01  6.992802e-01  3.566746e-01
   outer loop
     vertex  6.504672e+01  5.766095e+01  5.656389e+01
     vertex  6.477984e+01  5.567189e+01  6.000000e+01
     vertex  6.725589e+01  5.786547e+01  6.000000e+01
   endloop
 endfacet
 facet normal -4.939448e-01  7.685931e-01  4.065503e-01
   outer loop
     vertex  6.504672e+01  5.766095e+01  5.656389e+01
     vertex  6.209899e+01  5.576655e+01  5.656389e+01
     vertex  6.477984e+01  5.567189e+01  6.000000e+01
   endloop
 endfacet
 facet normal -6.929049e-01 -7.315700e-03  7.209919e-01
   outer loop
     vertex  6.693887e+01  6.553356e+01  5.361160e+01
     vertex  6.787794e+01  6.696472e+01  5.452861e+01
     vertex  6.564409e+01  6.696472e+01  5.238178e+01
   endloop
 endfacet
 facet normal -5.983542e-01  1.756926e-01  7.817316e-01
   outer loop
     vertex  6.693887e+01  6.553356e+01  5.361160e+01
     vertex  6.380990e+01  6.496074e+01  5.134537e+01
     vertex  6.613246e+01  6.278719e+01  5.361160e+01
   endloop
 endfacet
 facet normal -5.974286e-01  1.382846e-01  7.899091e-01
   outer loop
     vertex  6.693887e+01  6.553356e+01  5.361160e+01
     vertex  6.564409e+01  6.696472e+01  5.238178e+01
     vertex  6.380990e+01  6.496074e+01  5.134537e+01
   endloop
 endfacet
 facet normal -6.129781e-01  5.311485e-01  5.849266e-01
   outer loop
     vertex  6.734134e+01  6.030908e+01  5.656389e+01
     vertex  6.458498e+01  6.037926e+01  5.361160e+01
     vertex  6.504672e+01  5.766095e+01  5.656389e+01
   endloop
 endfacet
 facet normal -6.574604e-01  4.225241e-01  6.238744e-01
   outer loop
     vertex  6.734134e+01  6.030908e+01  5.656389e+01
     vertex  6.613246e+01  6.278719e+01  5.361160e+01
     vertex  6.458498e+01  6.037926e+01  5.361160e+01
   endloop
 endfacet
 facet normal -6.899795e-01  5.978706e-01  4.080185e-01
   outer loop
     vertex  6.734134e+01  6.030908e+01  5.656389e+01
     vertex  6.504672e+01  5.766095e+01  5.656389e+01
     vertex  6.725589e+01  5.786547e+01  6.000000e+01
   endloop
 endfacet
 facet normal -7.684115e-01  5.303962e-01  3.580832e-01
   outer loop
     vertex  6.734134e+01  6.030908e+01  5.656389e+01
     vertex  6.725589e+01  5.786547e+01  6.000000e+01
     vertex  6.913502e+01  6.058787e+01  6.000000e+01
   endloop
 endfacet
 facet normal -9.083472e-01  1.468723e-01  3.915788e-01
   outer loop
     vertex  6.879695e+01  6.349641e+01  5.656389e+01
     vertex  7.030804e+01  6.368087e+01  6.000000e+01
     vertex  6.959274e+01  6.696472e+01  5.710900e+01
   endloop
 endfacet
 facet normal -7.921025e-01  1.389045e-01  5.943729e-01
   outer loop
     vertex  6.879695e+01  6.349641e+01  5.656389e+01
     vertex  6.787794e+01  6.696472e+01  5.452861e+01
     vertex  6.693887e+01  6.553356e+01  5.361160e+01
   endloop
 endfacet
 facet normal -7.498674e-01  2.201809e-01  6.238744e-01
   outer loop
     vertex  6.879695e+01  6.349641e+01  5.656389e+01
     vertex  6.693887e+01  6.553356e+01  5.361160e+01
     vertex  6.613246e+01  6.278719e+01  5.361160e+01
   endloop
 endfacet
 facet normal -8.704756e-01  3.301279e-01  3.650860e-01
   outer loop
     vertex  6.879695e+01  6.349641e+01  5.656389e+01
     vertex  6.913502e+01  6.058787e+01  6.000000e+01
     vertex  7.030804e+01  6.368087e+01  6.000000e+01
   endloop
 endfacet
 facet normal -8.322525e-01  3.800770e-01  4.036053e-01
   outer loop
     vertex  6.879695e+01  6.349641e+01  5.656389e+01
     vertex  6.734134e+01  6.030908e+01  5.656389e+01
     vertex  6.913502e+01  6.058787e+01  6.000000e+01
   endloop
 endfacet
 facet normal -8.283859e-01  1.035472e-01  5.505041e-01
   outer loop
     vertex  6.879695e+01  6.349641e+01  5.656389e+01
     vertex  6.959274e+01  6.696472e+01  5.710900e+01
     vertex  6.787794e+01  6.696472e+01  5.452861e+01
   endloop
 endfacet
 facet normal -7.377900e-01  3.369374e-01  5.849266e-01
   outer loop
     vertex  6.879695e+01  6.349641e+01  5.656389e+01
     vertex  6.613246e+01  6.278719e+01  5.361160e+01
     vertex  6.734134e+01  6.030908e+01  5.656389e+01
   endloop
 endfacet
endsolid
