solid 
 facet normal -1.000000e+00  0.000000e+00  0.000000e+00
   outer loop
     vertex  0.000000e+00  0.000000e+00  6.000000e+01
     vertex  0.000000e+00  1.022104e+02  0.000000e+00
     vertex  0.000000e+00  0.000000e+00  0.000000e+00
   endloop
 endfacet
 facet normal -1.000000e+00  0.000000e+00  0.000000e+00
   outer loop
     vertex  0.000000e+00  0.000000e+00  6.000000e+01
     vertex  0.000000e+00  1.022104e+02  6.000000e+01
     vertex  0.000000e+00  1.022104e+02  0.000000e+00
   endloop
 endfacet
 facet normal  0.000000e+00 -1.000000e+00 -0.000000e+00
   outer loop
     vertex  1.232888e+02  0.000000e+00  6.000000e+01
     vertex  0.000000e+00  0.000000e+00  0.000000e+00
     vertex  1.232888e+02  0.000000e+00  0.000000e+00
   endloop
 endfacet
 facet normal -0.000000e+00 -1.000000e+00  0.000000e+00
   outer loop
     vertex  1.232888e+02  0.000000e+00  6.000000e+01
     vertex  0.000000e+00  0.000000e+00  6.000000e+01
     vertex  0.000000e+00  0.000000e+00  0.000000e+00
   endloop
 endfacet
 facet normal  0.000000e+00  0.000000e+00  1.000000e+00
   outer loop
     vertex  2.714637e+01  4.496439e+01  6.000000e+01
     vertex  2.484220e+01  4.700571e+01  6.000000e+01
     vertex  0.000000e+00  0.000000e+00  6.000000e+01
   endloop
 endfacet
 facet normal  0.000000e+00  0.000000e+00  1.000000e+00
   outer loop
     vertex  2.309351e+01  4.953913e+01  6.000000e+01
     vertex  0.000000e+00  0.000000e+00  6.000000e+01
     vertex  2.484220e+01  4.700571e+01  6.000000e+01
   endloop
 endfacet
 facet normal  0.000000e+00  0.000000e+00  1.000000e+00
   outer loop
     vertex  2.987210e+01  4.353382e+01  6.000000e+01
     vertex  2.714637e+01  4.496439e+01  6.000000e+01
     vertex  0.000000e+00  0.000000e+00  6.000000e+01
   endloop
 endfacet
 facet normal  0.000000e+00  0.000000e+00  1.000000e+00
   outer loop
     vertex  2.200191e+01  5.241743e+01  6.000000e+01
     vertex  0.000000e+00  0.000000e+00  6.000000e+01
     vertex  2.309351e+01  4.953913e+01  6.000000e+01
   endloop
 endfacet
 facet normal  0.000000e+00  0.000000e+00  1.000000e+00
   outer loop
     vertex  3.286099e+01  4.279712e+01  6.000000e+01
     vertex  2.987210e+01  4.353382e+01  6.000000e+01
     vertex  0.000000e+00  0.000000e+00  6.000000e+01
   endloop
 endfacet
 facet normal  0.000000e+00  0.000000e+00  1.000000e+00
   outer loop
     vertex  2.163086e+01  5.547332e+01  6.000000e+01
     vertex  0.000000e+00  0.000000e+00  6.000000e+01
     vertex  2.200191e+01  5.241743e+01  6.000000e+01
   endloop
 endfacet
 facet normal  0.000000e+00  0.000000e+00  1.000000e+00
   outer loop
     vertex  3.593933e+01  4.279712e+01  6.000000e+01
     vertex  3.286099e+01  4.279712e+01  6.000000e+01
     vertex  0.000000e+00  0.000000e+00  6.000000e+01
   endloop
 endfacet
 facet normal  0.000000e+00  0.000000e+00  1.000000e+00
   outer loop
     vertex  3.892821e+01  4.353382e+01  6.000000e+01
     vertex  3.593933e+01  4.279712e+01  6.000000e+01
     vertex  0.000000e+00  0.000000e+00  6.000000e+01
   endloop
 endfacet
 facet normal  0.000000e+00  0.000000e+00  1.000000e+00
   outer loop
     vertex  0.000000e+00  1.022104e+02  6.000000e+01
     vertex  2.987210e+01  6.741282e+01  6.000000e+01
     vertex  3.286099e+01  6.814951e+01  6.000000e+01
   endloop
 endfacet
 facet normal  0.000000e+00  0.000000e+00  1.000000e+00
   outer loop
     vertex  0.000000e+00  1.022104e+02  6.000000e+01
     vertex  2.714637e+01  6.598224e+01  6.000000e+01
     vertex  2.987210e+01  6.741282e+01  6.000000e+01
   endloop
 endfacet
 facet normal  0.000000e+00  0.000000e+00  1.000000e+00
   outer loop
     vertex  0.000000e+00  1.022104e+02  6.000000e+01
     vertex  2.484220e+01  6.394093e+01  6.000000e+01
     vertex  2.714637e+01  6.598224e+01  6.000000e+01
   endloop
 endfacet
 facet normal  0.000000e+00  0.000000e+00  1.000000e+00
   outer loop
     vertex  0.000000e+00  1.022104e+02  6.000000e+01
     vertex  2.309351e+01  6.140751e+01  6.000000e+01
     vertex  2.484220e+01  6.394093e+01  6.000000e+01
   endloop
 endfacet
 facet normal  0.000000e+00  0.000000e+00  1.000000e+00
   outer loop
     vertex  0.000000e+00  1.022104e+02  6.000000e+01
     vertex  2.200191e+01  5.852921e+01  6.000000e+01
     vertex  2.309351e+01  6.140751e+01  6.000000e+01
   endloop
 endfacet
 facet normal  0.000000e+00  0.000000e+00  1.000000e+00
   outer loop
     vertex  0.000000e+00  1.022104e+02  6.000000e+01
     vertex  2.163086e+01  5.547332e+01  6.000000e+01
     vertex  2.200191e+01  5.852921e+01  6.000000e+01
   endloop
 endfacet
 facet normal  0.000000e+00  0.000000e+00  1.000000e+00
   outer loop
     vertex  0.000000e+00  1.022104e+02  6.000000e+01
     vertex  0.000000e+00  0.000000e+00  6.000000e+01
     vertex  2.163086e+01  5.547332e+01  6.000000e+01
   endloop
 endfacet
 facet normal  0.000000e+00  0.000000e+00  1.000000e+00
   outer loop
     vertex  3.593933e+01  6.814951e+01  6.000000e+01
     vertex  0.000000e+00  1.022104e+02  6.000000e+01
     vertex  3.286099e+01  6.814951e+01  6.000000e+01
   endloop
 endfacet
 facet normal  0.000000e+00  0.000000e+00  1.000000e+00
   outer loop
     vertex  3.892821e+01  6.741282e+01  6.000000e+01
     vertex  0.000000e+00  1.022104e+02  6.000000e+01
     vertex  3.593933e+01  6.814951e+01  6.000000e+01
   endloop
 endfacet
 facet normal  0.000000e+00  0.000000e+00  1.000000e+00
   outer loop
     vertex  1.232888e+02  0.000000e+00  6.000000e+01
     vertex  4.165394e+01  4.496439e+01  6.000000e+01
     vertex  3.892821e+01  4.353382e+01  6.000000e+01
   endloop
 endfacet
 facet normal  0.000000e+00  0.000000e+00  1.000000e+00
   outer loop
     vertex  1.232888e+02  0.000000e+00  6.000000e+01
     vertex  4.395811e+01  4.700571e+01  6.000000e+01
     vertex  4.165394e+01  4.496439e+01  6.000000e+01
   endloop
 endfacet
 facet normal  0.000000e+00  0.000000e+00  1.000000e+00
   outer loop
     vertex  1.232888e+02  0.000000e+00  6.000000e+01
     vertex  4.570681e+01  4.953913e+01  6.000000e+01
     vertex  4.395811e+01  4.700571e+01  6.000000e+01
   endloop
 endfacet
 facet normal  0.000000e+00  0.000000e+00  1.000000e+00
   outer loop
     vertex  1.232888e+02  0.000000e+00  6.000000e+01
     vertex  4.679840e+01  5.241743e+01  6.000000e+01
     vertex  4.570681e+01  4.953913e+01  6.000000e+01
   endloop
 endfacet
 facet normal  4.412963e-15  6.439637e-15  1.000000e+00
   outer loop
     vertex  1.232888e+02  0.000000e+00  6.000000e+01
     vertex  4.716945e+01  5.547332e+01  6.000000e+01
     vertex  4.679840e+01  5.241743e+01  6.000000e+01
   endloop
 endfacet
 facet normal  0.000000e+00  0.000000e+00  1.000000e+00
   outer loop
     vertex  1.232888e+02  0.000000e+00  6.000000e+01
     vertex  3.892821e+01  4.353382e+01  6.000000e+01
     vertex  0.000000e+00  0.000000e+00  6.000000e+01
   endloop
 endfacet
 facet normal  3.725158e-15 -6.523152e-15  1.000000e+00
   outer loop
     vertex  1.232888e+02  1.022104e+02  6.000000e+01
     vertex  4.679840e+01  5.852921e+01  6.000000e+01
     vertex  4.716945e+01  5.547332e+01  6.000000e+01
   endloop
 endfacet
 facet normal  0.000000e+00  0.000000e+00  1.000000e+00
   outer loop
     vertex  1.232888e+02  1.022104e+02  6.000000e+01
     vertex  4.570681e+01  6.140751e+01  6.000000e+01
     vertex  4.679840e+01  5.852921e+01  6.000000e+01
   endloop
 endfacet
 facet normal  0.000000e+00  0.000000e+00  1.000000e+00
   outer loop
     vertex  1.232888e+02  1.022104e+02  6.000000e+01
     vertex  4.395811e+01  6.394093e+01  6.000000e+01
     vertex  4.570681e+01  6.140751e+01  6.000000e+01
   endloop
 endfacet
 facet normal  0.000000e+00  0.000000e+00  1.000000e+00
   outer loop
     vertex  1.232888e+02  1.022104e+02  6.000000e+01
     vertex  4.165394e+01  6.598224e+01  6.000000e+01
     vertex  4.395811e+01  6.394093e+01  6.000000e+01
   endloop
 endfacet
 facet normal  0.000000e+00  0.000000e+00  1.000000e+00
   outer loop
     vertex  1.232888e+02  1.022104e+02  6.000000e+01
     vertex  3.892821e+01  6.741282e+01  6.000000e+01
     vertex  4.165394e+01  6.598224e+01  6.000000e+01
   endloop
 endfacet
 facet normal -2.800377e-16  0.000000e+00  1.000000e+00
   outer loop
     vertex  1.232888e+02  1.022104e+02  6.000000e+01
     vertex  4.716945e+01  5.547332e+01  6.000000e+01
     vertex  1.232888e+02  0.000000e+00  6.000000e+01
   endloop
 endfacet
 facet normal  0.000000e+00  0.000000e+00  1.000000e+00
   outer loop
     vertex  1.232888e+02  1.022104e+02  6.000000e+01
     vertex  0.000000e+00  1.022104e+02  6.000000e+01
     vertex  3.892821e+01  6.741282e+01  6.000000e+01
   endloop
 endfacet
 facet normal  0.000000e+00  1.000000e+00  0.000000e+00
   outer loop
     vertex  1.232888e+02  1.022104e+02  6.000000e+01
     vertex  1.232888e+02  1.022104e+02  0.000000e+00
     vertex  0.000000e+00  1.022104e+02  0.000000e+00
   endloop
 endfacet
 facet normal  0.000000e+00  1.000000e+00  0.000000e+00
   outer loop
     vertex  1.232888e+02  1.022104e+02  6.000000e+01
     vertex  0.000000e+00  1.022104e+02  0.000000e+00
     vertex  0.000000e+00  1.022104e+02  6.000000e+01
   endloop
 endfacet
 facet normal -0.000000e+00  0.000000e+00 -1.000000e+00
   outer loop
     vertex  1.232888e+02  1.022104e+02  0.000000e+00
     vertex  0.000000e+00  0.000000e+00  0.000000e+00
     vertex  0.000000e+00  1.022104e+02  0.000000e+00
   endloop
 endfacet
 facet normal  0.000000e+00 -0.000000e+00 -1.000000e+00
   outer loop
     vertex  1.232888e+02  1.022104e+02  0.000000e+00
     vertex  1.232888e+02  0.000000e+00  0.000000e+00
     vertex  0.000000e+00  0.000000e+00  0.000000e+00
   endloop
 endfacet
 facet normal  1.000000e+00  0.000000e+00  0.000000e+00
   outer loop
     vertex  1.232888e+02  0.000000e+00  6.000000e+01
     vertex  1.232888e+02  0.000000e+00  0.000000e+00
     vertex  1.232888e+02  1.022104e+02  0.000000e+00
   endloop
 endfacet
 facet normal  1.000000e+00 -0.000000e+00  0.000000e+00
   outer loop
     vertex  1.232888e+02  0.000000e+00  6.000000e+01
     vertex  1.232888e+02  1.022104e+02  0.000000e+00
     vertex  1.232888e+02  1.022104e+02  6.000000e+01
   endloop
 endfacet
 facet normal -9.816047e-01 -1.191884e-01 -1.491518e-01
   outer loop
     vertex  4.679840e+01  5.852921e+01  6.000000e+01
     vertex  4.762477e+01  5.547332e+01  5.700344e+01
     vertex  4.716945e+01  5.547332e+01  6.000000e+01
   endloop
 endfacet
 facet normal -9.816047e-01  1.191884e-01 -1.491518e-01
   outer loop
     vertex  4.716945e+01  5.547332e+01  6.000000e+01
     vertex  4.762477e+01  5.547332e+01  5.700344e+01
     vertex  4.679840e+01  5.241743e+01  6.000000e+01
   endloop
 endfacet
 facet normal -1.136450e-01 -1.234424e-01  9.858229e-01
   outer loop
     vertex  3.779711e+01  5.596173e+01  4.374643e+01
     vertex  3.440016e+01  5.547332e+01  4.329367e+01
     vertex  3.741117e+01  5.547332e+01  4.364078e+01
   endloop
 endfacet
 facet normal -3.368843e-01  6.299405e-02  9.394364e-01
   outer loop
     vertex  3.779711e+01  5.596173e+01  4.374643e+01
     vertex  3.741117e+01  5.547332e+01  4.364078e+01
     vertex  4.026423e+01  5.547332e+01  4.466389e+01
   endloop
 endfacet
 facet normal -1.267630e-01 -3.722097e-02  9.912345e-01
   outer loop
     vertex  3.752191e+01  5.689897e+01  4.374643e+01
     vertex  3.440016e+01  5.547332e+01  4.329367e+01
     vertex  3.779711e+01  5.596173e+01  4.374643e+01
   endloop
 endfacet
 facet normal -1.111418e-01 -7.142652e-02  9.912345e-01
   outer loop
     vertex  3.699380e+01  5.772072e+01  4.374643e+01
     vertex  3.440016e+01  5.547332e+01  4.329367e+01
     vertex  3.752191e+01  5.689897e+01  4.374643e+01
   endloop
 endfacet
 facet normal -5.424466e-01 -3.997455e-02  8.391387e-01
   outer loop
     vertex  4.076057e+01  5.734090e+01  4.507371e+01
     vertex  4.026423e+01  5.547332e+01  4.466389e+01
     vertex  4.280965e+01  5.547332e+01  4.630934e+01
   endloop
 endfacet
 facet normal -3.644977e-01 -1.070262e-01  9.250334e-01
   outer loop
     vertex  4.076057e+01  5.734090e+01  4.507371e+01
     vertex  3.752191e+01  5.689897e+01  4.374643e+01
     vertex  3.779711e+01  5.596173e+01  4.374643e+01
   endloop
 endfacet
 facet normal -3.649570e-01 -1.059807e-01  9.249727e-01
   outer loop
     vertex  4.076057e+01  5.734090e+01  4.507371e+01
     vertex  3.779711e+01  5.596173e+01  4.374643e+01
     vertex  4.026423e+01  5.547332e+01  4.466389e+01
   endloop
 endfacet
 facet normal -8.651663e-02 -9.984552e-02  9.912345e-01
   outer loop
     vertex  3.625557e+01  5.836040e+01  4.374643e+01
     vertex  3.440016e+01  5.547332e+01  4.329367e+01
     vertex  3.699380e+01  5.772072e+01  4.374643e+01
   endloop
 endfacet
 facet normal -3.551628e-01 -1.621974e-01  9.206255e-01
   outer loop
     vertex  3.997677e+01  5.905719e+01  4.507371e+01
     vertex  3.752191e+01  5.689897e+01  4.374643e+01
     vertex  4.076057e+01  5.734090e+01  4.507371e+01
   endloop
 endfacet
 facet normal -3.195802e-01 -2.053817e-01  9.250334e-01
   outer loop
     vertex  3.997677e+01  5.905719e+01  4.507371e+01
     vertex  3.699380e+01  5.772072e+01  4.374643e+01
     vertex  3.752191e+01  5.689897e+01  4.374643e+01
   endloop
 endfacet
 facet normal -7.196708e-01  1.246282e-02  6.942036e-01
   outer loop
     vertex  4.367714e+01  5.680715e+01  4.718471e+01
     vertex  4.280965e+01  5.547332e+01  4.630934e+01
     vertex  4.491391e+01  5.547332e+01  4.849080e+01
   endloop
 endfacet
 facet normal -5.969042e-01 -1.312391e-01  7.915060e-01
   outer loop
     vertex  4.367714e+01  5.680715e+01  4.718471e+01
     vertex  4.076057e+01  5.734090e+01  4.507371e+01
     vertex  4.280965e+01  5.547332e+01  4.630934e+01
   endloop
 endfacet
 facet normal -5.488237e-02 -1.201756e-01  9.912345e-01
   outer loop
     vertex  3.536703e+01  5.876619e+01  4.374643e+01
     vertex  3.440016e+01  5.547332e+01  4.329367e+01
     vertex  3.625557e+01  5.836040e+01  4.374643e+01
   endloop
 endfacet
 facet normal -2.950800e-01 -2.556882e-01  9.206255e-01
   outer loop
     vertex  3.874118e+01  6.048313e+01  4.507371e+01
     vertex  3.699380e+01  5.772072e+01  4.374643e+01
     vertex  3.997677e+01  5.905719e+01  4.507371e+01
   endloop
 endfacet
 facet normal -2.487722e-01 -2.870985e-01  9.250334e-01
   outer loop
     vertex  3.874118e+01  6.048313e+01  4.507371e+01
     vertex  3.625557e+01  5.836040e+01  4.374643e+01
     vertex  3.699380e+01  5.772072e+01  4.374643e+01
   endloop
 endfacet
 facet normal -5.462429e-01 -2.494608e-01  7.996174e-01
   outer loop
     vertex  4.292557e+01  5.936675e+01  4.718471e+01
     vertex  3.997677e+01  5.905719e+01  4.507371e+01
     vertex  4.076057e+01  5.734090e+01  4.507371e+01
   endloop
 endfacet
 facet normal -5.981027e-01 -1.756188e-01  7.819407e-01
   outer loop
     vertex  4.292557e+01  5.936675e+01  4.718471e+01
     vertex  4.076057e+01  5.734090e+01  4.507371e+01
     vertex  4.367714e+01  5.680715e+01  4.718471e+01
   endloop
 endfacet
 facet normal -1.880186e-02 -1.307698e-01  9.912345e-01
   outer loop
     vertex  3.440016e+01  5.890520e+01  4.374643e+01
     vertex  3.440016e+01  5.547332e+01  4.329367e+01
     vertex  3.536703e+01  5.876619e+01  4.374643e+01
   endloop
 endfacet
 facet normal -1.578102e-01 -3.455562e-01  9.250334e-01
   outer loop
     vertex  3.715391e+01  6.150321e+01  4.507371e+01
     vertex  3.536703e+01  5.876619e+01  4.374643e+01
     vertex  3.625557e+01  5.836040e+01  4.374643e+01
   endloop
 endfacet
 facet normal -2.110914e-01 -3.284647e-01  9.206255e-01
   outer loop
     vertex  3.715391e+01  6.150321e+01  4.507371e+01
     vertex  3.625557e+01  5.836040e+01  4.374643e+01
     vertex  3.874118e+01  6.048313e+01  4.507371e+01
   endloop
 endfacet
 facet normal -5.243978e-01 -3.370100e-01  7.819407e-01
   outer loop
     vertex  4.148333e+01  6.161092e+01  4.718471e+01
     vertex  3.997677e+01  5.905719e+01  4.507371e+01
     vertex  4.292557e+01  5.936675e+01  4.718471e+01
   endloop
 endfacet
 facet normal -4.538350e-01 -3.932503e-01  7.996174e-01
   outer loop
     vertex  4.148333e+01  6.161092e+01  4.718471e+01
     vertex  3.874118e+01  6.048313e+01  4.507371e+01
     vertex  3.997677e+01  5.905719e+01  4.507371e+01
   endloop
 endfacet
 facet normal -7.884481e-01 -1.459743e-01  5.975291e-01
   outer loop
     vertex  4.540986e+01  5.870606e+01  4.993496e+01
     vertex  4.367714e+01  5.680715e+01  4.718471e+01
     vertex  4.491391e+01  5.547332e+01  4.849080e+01
   endloop
 endfacet
 facet normal -8.547959e-01 -9.664309e-02  5.098863e-01
   outer loop
     vertex  4.540986e+01  5.870606e+01  4.993496e+01
     vertex  4.491391e+01  5.547332e+01  4.849080e+01
     vertex  4.646662e+01  5.547332e+01  5.109383e+01
   endloop
 endfacet
 facet normal -7.495942e-01 -2.201007e-01  6.242309e-01
   outer loop
     vertex  4.540986e+01  5.870606e+01  4.993496e+01
     vertex  4.292557e+01  5.936675e+01  4.718471e+01
     vertex  4.367714e+01  5.680715e+01  4.718471e+01
   endloop
 endfacet
 facet normal  1.880186e-02 -1.307698e-01  9.912345e-01
   outer loop
     vertex  3.343328e+01  5.876619e+01  4.374643e+01
     vertex  3.440016e+01  5.547332e+01  4.329367e+01
     vertex  3.440016e+01  5.890520e+01  4.374643e+01
   endloop
 endfacet
 facet normal -5.406338e-02 -3.760190e-01  9.250334e-01
   outer loop
     vertex  3.534355e+01  6.203478e+01  4.507371e+01
     vertex  3.440016e+01  5.890520e+01  4.374643e+01
     vertex  3.536703e+01  5.876619e+01  4.374643e+01
   endloop
 endfacet
 facet normal -1.100016e-01 -3.746309e-01  9.206255e-01
   outer loop
     vertex  3.534355e+01  6.203478e+01  4.507371e+01
     vertex  3.536703e+01  5.876619e+01  4.374643e+01
     vertex  3.715391e+01  6.150321e+01  4.507371e+01
   endloop
 endfacet
 facet normal -3.246601e-01 -5.051810e-01  7.996174e-01
   outer loop
     vertex  3.946725e+01  6.335787e+01  4.718471e+01
     vertex  3.715391e+01  6.150321e+01  4.507371e+01
     vertex  3.874118e+01  6.048313e+01  4.507371e+01
   endloop
 endfacet
 facet normal -4.082093e-01 -4.710987e-01  7.819407e-01
   outer loop
     vertex  3.946725e+01  6.335787e+01  4.718471e+01
     vertex  3.874118e+01  6.048313e+01  4.507371e+01
     vertex  4.148333e+01  6.161092e+01  4.718471e+01
   endloop
 endfacet
 facet normal -7.375422e-01 -3.368242e-01  5.853041e-01
   outer loop
     vertex  4.405312e+01  6.167690e+01  4.993496e+01
     vertex  4.292557e+01  5.936675e+01  4.718471e+01
     vertex  4.540986e+01  5.870606e+01  4.993496e+01
   endloop
 endfacet
 facet normal -6.572209e-01 -4.223702e-01  6.242309e-01
   outer loop
     vertex  4.405312e+01  6.167690e+01  4.993496e+01
     vertex  4.148333e+01  6.161092e+01  4.718471e+01
     vertex  4.292557e+01  5.936675e+01  4.718471e+01
   endloop
 endfacet
 facet normal -9.524480e-01 -2.910315e-02  3.033080e-01
   outer loop
     vertex  4.706142e+01  5.729373e+01  5.313627e+01
     vertex  4.646662e+01  5.547332e+01  5.109383e+01
     vertex  4.738633e+01  5.547332e+01  5.398188e+01
   endloop
 endfacet
 facet normal -9.041124e-01 -1.524530e-01  3.991727e-01
   outer loop
     vertex  4.706142e+01  5.729373e+01  5.313627e+01
     vertex  4.540986e+01  5.870606e+01  4.993496e+01
     vertex  4.646662e+01  5.547332e+01  5.109383e+01
   endloop
 endfacet
 facet normal  5.488237e-02 -1.201756e-01  9.912345e-01
   outer loop
     vertex  3.254474e+01  5.836040e+01  4.374643e+01
     vertex  3.440016e+01  5.547332e+01  4.329367e+01
     vertex  3.343328e+01  5.876619e+01  4.374643e+01
   endloop
 endfacet
 facet normal  5.406338e-02 -3.760190e-01  9.250334e-01
   outer loop
     vertex  3.345676e+01  6.203478e+01  4.507371e+01
     vertex  3.343328e+01  5.876619e+01  4.374643e+01
     vertex  3.440016e+01  5.890520e+01  4.374643e+01
   endloop
 endfacet
 facet normal  0.000000e+00 -3.904467e-01  9.206255e-01
   outer loop
     vertex  3.345676e+01  6.203478e+01  4.507371e+01
     vertex  3.440016e+01  5.890520e+01  4.374643e+01
     vertex  3.534355e+01  6.203478e+01  4.507371e+01
   endloop
 endfacet
 facet normal -2.589501e-01 -5.670217e-01  7.819407e-01
   outer loop
     vertex  3.704066e+01  6.446605e+01  4.718471e+01
     vertex  3.715391e+01  6.150321e+01  4.507371e+01
     vertex  3.946725e+01  6.335787e+01  4.718471e+01
   endloop
 endfacet
 facet normal -1.691832e-01 -5.761849e-01  7.996174e-01
   outer loop
     vertex  3.704066e+01  6.446605e+01  4.718471e+01
     vertex  3.534355e+01  6.203478e+01  4.507371e+01
     vertex  3.715391e+01  6.150321e+01  4.507371e+01
   endloop
 endfacet
 facet normal -5.116034e-01 -5.904218e-01  6.242309e-01
   outer loop
     vertex  4.191436e+01  6.414517e+01  4.993496e+01
     vertex  3.946725e+01  6.335787e+01  4.718471e+01
     vertex  4.148333e+01  6.161092e+01  4.718471e+01
   endloop
 endfacet
 facet normal -6.127722e-01 -5.309702e-01  5.853041e-01
   outer loop
     vertex  4.191436e+01  6.414517e+01  4.993496e+01
     vertex  4.148333e+01  6.161092e+01  4.718471e+01
     vertex  4.405312e+01  6.167690e+01  4.993496e+01
   endloop
 endfacet
 facet normal -8.996640e-01 -2.641652e-01  3.475937e-01
   outer loop
     vertex  4.603568e+01  6.078708e+01  5.313627e+01
     vertex  4.540986e+01  5.870606e+01  4.993496e+01
     vertex  4.706142e+01  5.729373e+01  5.313627e+01
   endloop
 endfacet
 facet normal -8.301757e-01 -3.791285e-01  4.087418e-01
   outer loop
     vertex  4.603568e+01  6.078708e+01  5.313627e+01
     vertex  4.405312e+01  6.167690e+01  4.993496e+01
     vertex  4.540986e+01  5.870606e+01  4.993496e+01
   endloop
 endfacet
 facet normal  8.651663e-02 -9.984552e-02  9.912345e-01
   outer loop
     vertex  3.180651e+01  5.772072e+01  4.374643e+01
     vertex  3.440016e+01  5.547332e+01  4.329367e+01
     vertex  3.254474e+01  5.836040e+01  4.374643e+01
   endloop
 endfacet
 facet normal  1.578102e-01 -3.455562e-01  9.250334e-01
   outer loop
     vertex  3.164640e+01  6.150321e+01  4.507371e+01
     vertex  3.254474e+01  5.836040e+01  4.374643e+01
     vertex  3.343328e+01  5.876619e+01  4.374643e+01
   endloop
 endfacet
 facet normal  1.100016e-01 -3.746309e-01  9.206255e-01
   outer loop
     vertex  3.164640e+01  6.150321e+01  4.507371e+01
     vertex  3.343328e+01  5.876619e+01  4.374643e+01
     vertex  3.345676e+01  6.203478e+01  4.507371e+01
   endloop
 endfacet
 facet normal  0.000000e+00 -6.005098e-01  7.996174e-01
   outer loop
     vertex  3.440016e+01  6.484570e+01  4.718471e+01
     vertex  3.345676e+01  6.203478e+01  4.507371e+01
     vertex  3.534355e+01  6.203478e+01  4.507371e+01
   endloop
 endfacet
 facet normal -8.871236e-02 -6.170080e-01  7.819407e-01
   outer loop
     vertex  3.440016e+01  6.484570e+01  4.718471e+01
     vertex  3.534355e+01  6.203478e+01  4.507371e+01
     vertex  3.704066e+01  6.446605e+01  4.718471e+01
   endloop
 endfacet
 facet normal -3.245388e-01 -7.106408e-01  6.242309e-01
   outer loop
     vertex  3.916684e+01  6.591089e+01  4.993496e+01
     vertex  3.704066e+01  6.446605e+01  4.718471e+01
     vertex  3.946725e+01  6.335787e+01  4.718471e+01
   endloop
 endfacet
 facet normal -4.383591e-01 -6.821000e-01  5.853041e-01
   outer loop
     vertex  3.916684e+01  6.591089e+01  4.993496e+01
     vertex  3.946725e+01  6.335787e+01  4.718471e+01
     vertex  4.191436e+01  6.414517e+01  4.993496e+01
   endloop
 endfacet
 facet normal -6.897349e-01 -5.976587e-01  4.087418e-01
   outer loop
     vertex  4.406730e+01  6.384994e+01  5.313627e+01
     vertex  4.191436e+01  6.414517e+01  4.993496e+01
     vertex  4.405312e+01  6.167690e+01  4.993496e+01
   endloop
 endfacet
 facet normal -7.887974e-01 -5.069293e-01  3.475937e-01
   outer loop
     vertex  4.406730e+01  6.384994e+01  5.313627e+01
     vertex  4.405312e+01  6.167690e+01  4.993496e+01
     vertex  4.603568e+01  6.078708e+01  5.313627e+01
   endloop
 endfacet
 facet normal -9.245417e-01 -3.506324e-01 -1.492636e-01
   outer loop
     vertex  4.709725e+01  5.920152e+01  5.656960e+01
     vertex  4.679840e+01  5.852921e+01  6.000000e+01
     vertex  4.570681e+01  6.140751e+01  6.000000e+01
   endloop
 endfacet
 facet normal -9.464537e-01 -2.779039e-01  1.643012e-01
   outer loop
     vertex  4.709725e+01  5.920152e+01  5.656960e+01
     vertex  4.603568e+01  6.078708e+01  5.313627e+01
     vertex  4.706142e+01  5.729373e+01  5.313627e+01
   endloop
 endfacet
 facet normal -9.883402e-01 -1.307684e-01  7.799490e-02
   outer loop
     vertex  4.709725e+01  5.920152e+01  5.656960e+01
     vertex  4.738633e+01  5.547332e+01  5.398188e+01
     vertex  4.762477e+01  5.547332e+01  5.700344e+01
   endloop
 endfacet
 facet normal -9.869415e-01 -1.362078e-01  8.598783e-02
   outer loop
     vertex  4.709725e+01  5.920152e+01  5.656960e+01
     vertex  4.706142e+01  5.729373e+01  5.313627e+01
     vertex  4.738633e+01  5.547332e+01  5.398188e+01
   endloop
 endfacet
 facet normal -9.815763e-01 -1.523122e-01 -1.153644e-01
   outer loop
     vertex  4.709725e+01  5.920152e+01  5.656960e+01
     vertex  4.762477e+01  5.547332e+01  5.700344e+01
     vertex  4.679840e+01  5.852921e+01  6.000000e+01
   endloop
 endfacet
 facet normal  1.111418e-01 -7.142652e-02  9.912345e-01
   outer loop
     vertex  3.127841e+01  5.689897e+01  4.374643e+01
     vertex  3.440016e+01  5.547332e+01  4.329367e+01
     vertex  3.180651e+01  5.772072e+01  4.374643e+01
   endloop
 endfacet
 facet normal  2.487722e-01 -2.870985e-01  9.250334e-01
   outer loop
     vertex  3.005913e+01  6.048313e+01  4.507371e+01
     vertex  3.180651e+01  5.772072e+01  4.374643e+01
     vertex  3.254474e+01  5.836040e+01  4.374643e+01
   endloop
 endfacet
 facet normal  2.110914e-01 -3.284647e-01  9.206255e-01
   outer loop
     vertex  3.005913e+01  6.048313e+01  4.507371e+01
     vertex  3.254474e+01  5.836040e+01  4.374643e+01
     vertex  3.164640e+01  6.150321e+01  4.507371e+01
   endloop
 endfacet
 facet normal  1.691832e-01 -5.761849e-01  7.996174e-01
   outer loop
     vertex  3.175965e+01  6.446605e+01  4.718471e+01
     vertex  3.164640e+01  6.150321e+01  4.507371e+01
     vertex  3.345676e+01  6.203478e+01  4.507371e+01
   endloop
 endfacet
 facet normal  8.871236e-02 -6.170080e-01  7.819407e-01
   outer loop
     vertex  3.175965e+01  6.446605e+01  4.718471e+01
     vertex  3.345676e+01  6.203478e+01  4.507371e+01
     vertex  3.440016e+01  6.484570e+01  4.718471e+01
   endloop
 endfacet
 facet normal -2.284327e-01 -7.779702e-01  5.853041e-01
   outer loop
     vertex  3.603315e+01  6.683103e+01  4.993496e+01
     vertex  3.704066e+01  6.446605e+01  4.718471e+01
     vertex  3.916684e+01  6.591089e+01  4.993496e+01
   endloop
 endfacet
 facet normal -1.111820e-01 -7.732880e-01  6.242309e-01
   outer loop
     vertex  3.603315e+01  6.683103e+01  4.993496e+01
     vertex  3.440016e+01  6.484570e+01  4.718471e+01
     vertex  3.704066e+01  6.446605e+01  4.718471e+01
   endloop
 endfacet
 facet normal -4.934159e-01 -7.677701e-01  4.087418e-01
   outer loop
     vertex  4.131574e+01  6.623418e+01  5.313627e+01
     vertex  3.916684e+01  6.591089e+01  4.993496e+01
     vertex  4.191436e+01  6.414517e+01  4.993496e+01
   endloop
 endfacet
 facet normal -6.140271e-01 -7.086250e-01  3.475937e-01
   outer loop
     vertex  4.131574e+01  6.623418e+01  5.313627e+01
     vertex  4.191436e+01  6.414517e+01  4.993496e+01
     vertex  4.406730e+01  6.384994e+01  5.313627e+01
   endloop
 endfacet
 facet normal -8.126149e-01 -5.609076e-01 -1.582394e-01
   outer loop
     vertex  4.553258e+01  6.262769e+01  5.656960e+01
     vertex  4.570681e+01  6.140751e+01  6.000000e+01
     vertex  4.395811e+01  6.394093e+01  6.000000e+01
   endloop
 endfacet
 facet normal -9.060177e-01 -4.137644e-01  8.905610e-02
   outer loop
     vertex  4.553258e+01  6.262769e+01  5.656960e+01
     vertex  4.603568e+01  6.078708e+01  5.313627e+01
     vertex  4.709725e+01  5.920152e+01  5.656960e+01
   endloop
 endfacet
 facet normal -8.298211e-01 -5.332936e-01  1.643012e-01
   outer loop
     vertex  4.553258e+01  6.262769e+01  5.656960e+01
     vertex  4.406730e+01  6.384994e+01  5.313627e+01
     vertex  4.603568e+01  6.078708e+01  5.313627e+01
   endloop
 endfacet
 facet normal -9.049768e-01 -4.132890e-01 -1.010408e-01
   outer loop
     vertex  4.553258e+01  6.262769e+01  5.656960e+01
     vertex  4.709725e+01  5.920152e+01  5.656960e+01
     vertex  4.570681e+01  6.140751e+01  6.000000e+01
   endloop
 endfacet
 facet normal  1.267630e-01 -3.722097e-02  9.912345e-01
   outer loop
     vertex  3.100321e+01  5.596173e+01  4.374643e+01
     vertex  3.440016e+01  5.547332e+01  4.329367e+01
     vertex  3.127841e+01  5.689897e+01  4.374643e+01
   endloop
 endfacet
 facet normal  3.195802e-01 -2.053817e-01  9.250334e-01
   outer loop
     vertex  2.882355e+01  5.905719e+01  4.507371e+01
     vertex  3.127841e+01  5.689897e+01  4.374643e+01
     vertex  3.180651e+01  5.772072e+01  4.374643e+01
   endloop
 endfacet
 facet normal  2.950800e-01 -2.556882e-01  9.206255e-01
   outer loop
     vertex  2.882355e+01  5.905719e+01  4.507371e+01
     vertex  3.180651e+01  5.772072e+01  4.374643e+01
     vertex  3.005913e+01  6.048313e+01  4.507371e+01
   endloop
 endfacet
 facet normal  2.589501e-01 -5.670217e-01  7.819407e-01
   outer loop
     vertex  2.933307e+01  6.335787e+01  4.718471e+01
     vertex  3.164640e+01  6.150321e+01  4.507371e+01
     vertex  3.175965e+01  6.446605e+01  4.718471e+01
   endloop
 endfacet
 facet normal  3.246601e-01 -5.051810e-01  7.996174e-01
   outer loop
     vertex  2.933307e+01  6.335787e+01  4.718471e+01
     vertex  3.005913e+01  6.048313e+01  4.507371e+01
     vertex  3.164640e+01  6.150321e+01  4.507371e+01
   endloop
 endfacet
 facet normal  1.111820e-01 -7.732880e-01  6.242309e-01
   outer loop
     vertex  3.276717e+01  6.683103e+01  4.993496e+01
     vertex  3.175965e+01  6.446605e+01  4.718471e+01
     vertex  3.440016e+01  6.484570e+01  4.718471e+01
   endloop
 endfacet
 facet normal  0.000000e+00 -8.108138e-01  5.853041e-01
   outer loop
     vertex  3.276717e+01  6.683103e+01  4.993496e+01
     vertex  3.440016e+01  6.484570e+01  4.718471e+01
     vertex  3.603315e+01  6.683103e+01  4.993496e+01
   endloop
 endfacet
 facet normal -3.895119e-01 -8.529121e-01  3.475937e-01
   outer loop
     vertex  3.800393e+01  6.774663e+01  5.313627e+01
     vertex  3.916684e+01  6.591089e+01  4.993496e+01
     vertex  4.131574e+01  6.623418e+01  5.313627e+01
   endloop
 endfacet
 facet normal -2.571232e-01 -8.756813e-01  4.087418e-01
   outer loop
     vertex  3.800393e+01  6.774663e+01  5.313627e+01
     vertex  3.603315e+01  6.683103e+01  4.993496e+01
     vertex  3.916684e+01  6.591089e+01  4.993496e+01
   endloop
 endfacet
 facet normal -6.545764e-01 -7.388640e-01 -1.600308e-01
   outer loop
     vertex  4.306601e+01  6.547425e+01  5.656960e+01
     vertex  4.395811e+01  6.394093e+01  6.000000e+01
     vertex  4.165394e+01  6.598224e+01  6.000000e+01
   endloop
 endfacet
 facet normal -6.459613e-01 -7.454791e-01  1.643012e-01
   outer loop
     vertex  4.306601e+01  6.547425e+01  5.656960e+01
     vertex  4.131574e+01  6.623418e+01  5.313627e+01
     vertex  4.406730e+01  6.384994e+01  5.313627e+01
   endloop
 endfacet
 facet normal -7.522786e-01 -6.518531e-01 -9.573052e-02
   outer loop
     vertex  4.306601e+01  6.547425e+01  5.656960e+01
     vertex  4.553258e+01  6.262769e+01  5.656960e+01
     vertex  4.395811e+01  6.394093e+01  6.000000e+01
   endloop
 endfacet
 facet normal -7.527467e-01 -6.522587e-01  8.905610e-02
   outer loop
     vertex  4.306601e+01  6.547425e+01  5.656960e+01
     vertex  4.406730e+01  6.384994e+01  5.313627e+01
     vertex  4.553258e+01  6.262769e+01  5.656960e+01
   endloop
 endfacet
 facet normal  0.000000e+00  0.000000e+00  0.000000e+00
   outer loop
     vertex  3.100321e+01  5.498491e+01  4.374643e+01
     vertex  3.440016e+01  5.547332e+01  4.329367e+01
     vertex  3.440016e+01  5.547332e+01  4.329367e+01
   endloop
 endfacet
 facet normal  1.321146e-01 -0.000000e+00  9.912345e-01
   outer loop
     vertex  3.100321e+01  5.498491e+01  4.374643e+01
     vertex  3.440016e+01  5.547332e+01  4.329367e+01
     vertex  3.100321e+01  5.596173e+01  4.374643e+01
   endloop
 endfacet
 facet normal  3.644977e-01 -1.070262e-01  9.250334e-01
   outer loop
     vertex  2.803975e+01  5.734090e+01  4.507371e+01
     vertex  3.100321e+01  5.596173e+01  4.374643e+01
     vertex  3.127841e+01  5.689897e+01  4.374643e+01
   endloop
 endfacet
 facet normal  3.551628e-01 -1.621974e-01  9.206255e-01
   outer loop
     vertex  2.803975e+01  5.734090e+01  4.507371e+01
     vertex  3.127841e+01  5.689897e+01  4.374643e+01
     vertex  2.882355e+01  5.905719e+01  4.507371e+01
   endloop
 endfacet
 facet normal  4.538350e-01 -3.932503e-01  7.996174e-01
   outer loop
     vertex  2.731699e+01  6.161092e+01  4.718471e+01
     vertex  2.882355e+01  5.905719e+01  4.507371e+01
     vertex  3.005913e+01  6.048313e+01  4.507371e+01
   endloop
 endfacet
 facet normal  4.082093e-01 -4.710987e-01  7.819407e-01
   outer loop
     vertex  2.731699e+01  6.161092e+01  4.718471e+01
     vertex  3.005913e+01  6.048313e+01  4.507371e+01
     vertex  2.933307e+01  6.335787e+01  4.718471e+01
   endloop
 endfacet
 facet normal  3.245388e-01 -7.106408e-01  6.242309e-01
   outer loop
     vertex  2.963348e+01  6.591089e+01  4.993496e+01
     vertex  2.933307e+01  6.335787e+01  4.718471e+01
     vertex  3.175965e+01  6.446605e+01  4.718471e+01
   endloop
 endfacet
 facet normal  2.284327e-01 -7.779702e-01  5.853041e-01
   outer loop
     vertex  2.963348e+01  6.591089e+01  4.993496e+01
     vertex  3.175965e+01  6.446605e+01  4.718471e+01
     vertex  3.276717e+01  6.683103e+01  4.993496e+01
   endloop
 endfacet
 facet normal  0.000000e+00 -9.126501e-01  4.087418e-01
   outer loop
     vertex  3.440016e+01  6.826478e+01  5.313627e+01
     vertex  3.276717e+01  6.683103e+01  4.993496e+01
     vertex  3.603315e+01  6.683103e+01  4.993496e+01
   endloop
 endfacet
 facet normal -1.334408e-01 -9.281014e-01  3.475937e-01
   outer loop
     vertex  3.440016e+01  6.826478e+01  5.313627e+01
     vertex  3.603315e+01  6.683103e+01  4.993496e+01
     vertex  3.800393e+01  6.774663e+01  5.313627e+01
   endloop
 endfacet
 facet normal -4.097696e-01 -8.972703e-01  1.643012e-01
   outer loop
     vertex  3.989740e+01  6.751060e+01  5.656960e+01
     vertex  3.800393e+01  6.774663e+01  5.313627e+01
     vertex  4.131574e+01  6.623418e+01  5.313627e+01
   endloop
 endfacet
 facet normal -4.591320e-01 -8.748030e-01 -1.546528e-01
   outer loop
     vertex  3.989740e+01  6.751060e+01  5.656960e+01
     vertex  4.165394e+01  6.598224e+01  6.000000e+01
     vertex  3.892821e+01  6.741282e+01  6.000000e+01
   endloop
 endfacet
 facet normal -5.380649e-01 -8.372453e-01 -9.750183e-02
   outer loop
     vertex  3.989740e+01  6.751060e+01  5.656960e+01
     vertex  4.306601e+01  6.547425e+01  5.656960e+01
     vertex  4.165394e+01  6.598224e+01  6.000000e+01
   endloop
 endfacet
 facet normal -5.384926e-01 -8.379109e-01  8.905610e-02
   outer loop
     vertex  3.989740e+01  6.751060e+01  5.656960e+01
     vertex  4.131574e+01  6.623418e+01  5.313627e+01
     vertex  4.306601e+01  6.547425e+01  5.656960e+01
   endloop
 endfacet
 facet normal  1.267630e-01  3.722097e-02  9.912345e-01
   outer loop
     vertex  3.127841e+01  5.404766e+01  4.374643e+01
     vertex  3.440016e+01  5.547332e+01  4.329367e+01
     vertex  3.100321e+01  5.498491e+01  4.374643e+01
   endloop
 endfacet
 facet normal  3.864726e-01 -5.556636e-02  9.206255e-01
   outer loop
     vertex  2.777123e+01  5.547332e+01  4.507371e+01
     vertex  3.100321e+01  5.596173e+01  4.374643e+01
     vertex  2.803975e+01  5.734090e+01  4.507371e+01
   endloop
 endfacet
 facet normal  3.798857e-01  0.000000e+00  9.250334e-01
   outer loop
     vertex  2.777123e+01  5.547332e+01  4.507371e+01
     vertex  3.100321e+01  5.498491e+01  4.374643e+01
     vertex  3.100321e+01  5.596173e+01  4.374643e+01
   endloop
 endfacet
 facet normal  5.462429e-01 -2.494608e-01  7.996174e-01
   outer loop
     vertex  2.587474e+01  5.936675e+01  4.718471e+01
     vertex  2.803975e+01  5.734090e+01  4.507371e+01
     vertex  2.882355e+01  5.905719e+01  4.507371e+01
   endloop
 endfacet
 facet normal  5.243978e-01 -3.370100e-01  7.819407e-01
   outer loop
     vertex  2.587474e+01  5.936675e+01  4.718471e+01
     vertex  2.882355e+01  5.905719e+01  4.507371e+01
     vertex  2.731699e+01  6.161092e+01  4.718471e+01
   endloop
 endfacet
 facet normal  5.116034e-01 -5.904218e-01  6.242309e-01
   outer loop
     vertex  2.688596e+01  6.414517e+01  4.993496e+01
     vertex  2.731699e+01  6.161092e+01  4.718471e+01
     vertex  2.933307e+01  6.335787e+01  4.718471e+01
   endloop
 endfacet
 facet normal  4.383591e-01 -6.821000e-01  5.853041e-01
   outer loop
     vertex  2.688596e+01  6.414517e+01  4.993496e+01
     vertex  2.933307e+01  6.335787e+01  4.718471e+01
     vertex  2.963348e+01  6.591089e+01  4.993496e+01
   endloop
 endfacet
 facet normal  2.571232e-01 -8.756813e-01  4.087418e-01
   outer loop
     vertex  3.079639e+01  6.774663e+01  5.313627e+01
     vertex  2.963348e+01  6.591089e+01  4.993496e+01
     vertex  3.276717e+01  6.683103e+01  4.993496e+01
   endloop
 endfacet
 facet normal  1.334408e-01 -9.281014e-01  3.475937e-01
   outer loop
     vertex  3.079639e+01  6.774663e+01  5.313627e+01
     vertex  3.276717e+01  6.683103e+01  4.993496e+01
     vertex  3.440016e+01  6.826478e+01  5.313627e+01
   endloop
 endfacet
 facet normal -2.368885e-01 -9.610944e-01 -1.420614e-01
   outer loop
     vertex  3.628343e+01  6.857175e+01  5.656960e+01
     vertex  3.892821e+01  6.741282e+01  6.000000e+01
     vertex  3.593933e+01  6.814951e+01  6.000000e+01
   endloop
 endfacet
 facet normal -1.403808e-01 -9.763700e-01  1.643012e-01
   outer loop
     vertex  3.628343e+01  6.857175e+01  5.656960e+01
     vertex  3.440016e+01  6.826478e+01  5.313627e+01
     vertex  3.800393e+01  6.774663e+01  5.313627e+01
   endloop
 endfacet
 facet normal -2.806131e-01 -9.556805e-01  8.905610e-02
   outer loop
     vertex  3.628343e+01  6.857175e+01  5.656960e+01
     vertex  3.800393e+01  6.774663e+01  5.313627e+01
     vertex  3.989740e+01  6.751060e+01  5.656960e+01
   endloop
 endfacet
 facet normal -2.801351e-01 -9.540525e-01 -1.063399e-01
   outer loop
     vertex  3.628343e+01  6.857175e+01  5.656960e+01
     vertex  3.989740e+01  6.751060e+01  5.656960e+01
     vertex  3.892821e+01  6.741282e+01  6.000000e+01
   endloop
 endfacet
 facet normal  1.111418e-01  7.142652e-02  9.912345e-01
   outer loop
     vertex  3.180651e+01  5.322591e+01  4.374643e+01
     vertex  3.440016e+01  5.547332e+01  4.329367e+01
     vertex  3.127841e+01  5.404766e+01  4.374643e+01
   endloop
 endfacet
 facet normal  3.644977e-01  1.070262e-01  9.250334e-01
   outer loop
     vertex  2.803975e+01  5.360573e+01  4.507371e+01
     vertex  3.127841e+01  5.404766e+01  4.374643e+01
     vertex  3.100321e+01  5.498491e+01  4.374643e+01
   endloop
 endfacet
 facet normal  3.864726e-01  5.556636e-02  9.206255e-01
   outer loop
     vertex  2.803975e+01  5.360573e+01  4.507371e+01
     vertex  3.100321e+01  5.498491e+01  4.374643e+01
     vertex  2.777123e+01  5.547332e+01  4.507371e+01
   endloop
 endfacet
 facet normal  5.943975e-01 -8.546145e-02  7.996174e-01
   outer loop
     vertex  2.512318e+01  5.680715e+01  4.718471e+01
     vertex  2.777123e+01  5.547332e+01  4.507371e+01
     vertex  2.803975e+01  5.734090e+01  4.507371e+01
   endloop
 endfacet
 facet normal  5.981027e-01 -1.756188e-01  7.819407e-01
   outer loop
     vertex  2.512318e+01  5.680715e+01  4.718471e+01
     vertex  2.803975e+01  5.734090e+01  4.507371e+01
     vertex  2.587474e+01  5.936675e+01  4.718471e+01
   endloop
 endfacet
 facet normal  6.127722e-01 -5.309702e-01  5.853041e-01
   outer loop
     vertex  2.474719e+01  6.167690e+01  4.993496e+01
     vertex  2.731699e+01  6.161092e+01  4.718471e+01
     vertex  2.688596e+01  6.414517e+01  4.993496e+01
   endloop
 endfacet
 facet normal  6.572209e-01 -4.223702e-01  6.242309e-01
   outer loop
     vertex  2.474719e+01  6.167690e+01  4.993496e+01
     vertex  2.587474e+01  5.936675e+01  4.718471e+01
     vertex  2.731699e+01  6.161092e+01  4.718471e+01
   endloop
 endfacet
 facet normal  4.934159e-01 -7.677701e-01  4.087418e-01
   outer loop
     vertex  2.748457e+01  6.623418e+01  5.313627e+01
     vertex  2.688596e+01  6.414517e+01  4.993496e+01
     vertex  2.963348e+01  6.591089e+01  4.993496e+01
   endloop
 endfacet
 facet normal  3.895119e-01 -8.529121e-01  3.475937e-01
   outer loop
     vertex  2.748457e+01  6.623418e+01  5.313627e+01
     vertex  2.963348e+01  6.591089e+01  4.993496e+01
     vertex  3.079639e+01  6.774663e+01  5.313627e+01
   endloop
 endfacet
 facet normal  0.000000e+00 -9.925097e-01 -1.221661e-01
   outer loop
     vertex  3.251689e+01  6.857175e+01  5.656960e+01
     vertex  3.593933e+01  6.814951e+01  6.000000e+01
     vertex  3.286099e+01  6.814951e+01  6.000000e+01
   endloop
 endfacet
 facet normal  2.368885e-01 -9.610944e-01 -1.420614e-01
   outer loop
     vertex  3.251689e+01  6.857175e+01  5.656960e+01
     vertex  3.286099e+01  6.814951e+01  6.000000e+01
     vertex  2.987210e+01  6.741282e+01  6.000000e+01
   endloop
 endfacet
 facet normal  1.403808e-01 -9.763700e-01  1.643012e-01
   outer loop
     vertex  3.251689e+01  6.857175e+01  5.656960e+01
     vertex  3.079639e+01  6.774663e+01  5.313627e+01
     vertex  3.440016e+01  6.826478e+01  5.313627e+01
   endloop
 endfacet
 facet normal  0.000000e+00 -9.960266e-01  8.905610e-02
   outer loop
     vertex  3.251689e+01  6.857175e+01  5.656960e+01
     vertex  3.440016e+01  6.826478e+01  5.313627e+01
     vertex  3.628343e+01  6.857175e+01  5.656960e+01
   endloop
 endfacet
 facet normal  0.000000e+00 -9.925097e-01 -1.221661e-01
   outer loop
     vertex  3.251689e+01  6.857175e+01  5.656960e+01
     vertex  3.628343e+01  6.857175e+01  5.656960e+01
     vertex  3.593933e+01  6.814951e+01  6.000000e+01
   endloop
 endfacet
 facet normal  8.651663e-02  9.984552e-02  9.912345e-01
   outer loop
     vertex  3.254474e+01  5.258624e+01  4.374643e+01
     vertex  3.440016e+01  5.547332e+01  4.329367e+01
     vertex  3.180651e+01  5.322591e+01  4.374643e+01
   endloop
 endfacet
 facet normal  3.551628e-01  1.621974e-01  9.206255e-01
   outer loop
     vertex  2.882355e+01  5.188945e+01  4.507371e+01
     vertex  3.127841e+01  5.404766e+01  4.374643e+01
     vertex  2.803975e+01  5.360573e+01  4.507371e+01
   endloop
 endfacet
 facet normal  3.195802e-01  2.053817e-01  9.250334e-01
   outer loop
     vertex  2.882355e+01  5.188945e+01  4.507371e+01
     vertex  3.180651e+01  5.322591e+01  4.374643e+01
     vertex  3.127841e+01  5.404766e+01  4.374643e+01
   endloop
 endfacet
 facet normal  5.943975e-01  8.546145e-02  7.996174e-01
   outer loop
     vertex  2.512318e+01  5.413949e+01  4.718471e+01
     vertex  2.803975e+01  5.360573e+01  4.507371e+01
     vertex  2.777123e+01  5.547332e+01  4.507371e+01
   endloop
 endfacet
 facet normal  6.233529e-01 -0.000000e+00  7.819407e-01
   outer loop
     vertex  2.512318e+01  5.413949e+01  4.718471e+01
     vertex  2.777123e+01  5.547332e+01  4.507371e+01
     vertex  2.512318e+01  5.680715e+01  4.718471e+01
   endloop
 endfacet
 facet normal  7.495942e-01 -2.201007e-01  6.242309e-01
   outer loop
     vertex  2.339045e+01  5.870606e+01  4.993496e+01
     vertex  2.512318e+01  5.680715e+01  4.718471e+01
     vertex  2.587474e+01  5.936675e+01  4.718471e+01
   endloop
 endfacet
 facet normal  7.375422e-01 -3.368242e-01  5.853041e-01
   outer loop
     vertex  2.339045e+01  5.870606e+01  4.993496e+01
     vertex  2.587474e+01  5.936675e+01  4.718471e+01
     vertex  2.474719e+01  6.167690e+01  4.993496e+01
   endloop
 endfacet
 facet normal  6.140271e-01 -7.086250e-01  3.475937e-01
   outer loop
     vertex  2.473302e+01  6.384994e+01  5.313627e+01
     vertex  2.688596e+01  6.414517e+01  4.993496e+01
     vertex  2.748457e+01  6.623418e+01  5.313627e+01
   endloop
 endfacet
 facet normal  6.897349e-01 -5.976587e-01  4.087418e-01
   outer loop
     vertex  2.473302e+01  6.384994e+01  5.313627e+01
     vertex  2.474719e+01  6.167690e+01  4.993496e+01
     vertex  2.688596e+01  6.414517e+01  4.993496e+01
   endloop
 endfacet
 facet normal  4.591320e-01 -8.748030e-01 -1.546528e-01
   outer loop
     vertex  2.890292e+01  6.751060e+01  5.656960e+01
     vertex  2.987210e+01  6.741282e+01  6.000000e+01
     vertex  2.714637e+01  6.598224e+01  6.000000e+01
   endloop
 endfacet
 facet normal  2.801351e-01 -9.540525e-01 -1.063399e-01
   outer loop
     vertex  2.890292e+01  6.751060e+01  5.656960e+01
     vertex  3.251689e+01  6.857175e+01  5.656960e+01
     vertex  2.987210e+01  6.741282e+01  6.000000e+01
   endloop
 endfacet
 facet normal  4.097696e-01 -8.972703e-01  1.643012e-01
   outer loop
     vertex  2.890292e+01  6.751060e+01  5.656960e+01
     vertex  2.748457e+01  6.623418e+01  5.313627e+01
     vertex  3.079639e+01  6.774663e+01  5.313627e+01
   endloop
 endfacet
 facet normal  2.806131e-01 -9.556805e-01  8.905610e-02
   outer loop
     vertex  2.890292e+01  6.751060e+01  5.656960e+01
     vertex  3.079639e+01  6.774663e+01  5.313627e+01
     vertex  3.251689e+01  6.857175e+01  5.656960e+01
   endloop
 endfacet
 facet normal  5.488237e-02  1.201756e-01  9.912345e-01
   outer loop
     vertex  3.343328e+01  5.218045e+01  4.374643e+01
     vertex  3.440016e+01  5.547332e+01  4.329367e+01
     vertex  3.254474e+01  5.258624e+01  4.374643e+01
   endloop
 endfacet
 facet normal  2.487722e-01  2.870985e-01  9.250334e-01
   outer loop
     vertex  3.005913e+01  5.046351e+01  4.507371e+01
     vertex  3.254474e+01  5.258624e+01  4.374643e+01
     vertex  3.180651e+01  5.322591e+01  4.374643e+01
   endloop
 endfacet
 facet normal  2.950800e-01  2.556882e-01  9.206255e-01
   outer loop
     vertex  3.005913e+01  5.046351e+01  4.507371e+01
     vertex  3.180651e+01  5.322591e+01  4.374643e+01
     vertex  2.882355e+01  5.188945e+01  4.507371e+01
   endloop
 endfacet
 facet normal  5.462429e-01  2.494608e-01  7.996174e-01
   outer loop
     vertex  2.587474e+01  5.157989e+01  4.718471e+01
     vertex  2.882355e+01  5.188945e+01  4.507371e+01
     vertex  2.803975e+01  5.360573e+01  4.507371e+01
   endloop
 endfacet
 facet normal  5.981027e-01  1.756188e-01  7.819407e-01
   outer loop
     vertex  2.587474e+01  5.157989e+01  4.718471e+01
     vertex  2.803975e+01  5.360573e+01  4.507371e+01
     vertex  2.512318e+01  5.413949e+01  4.718471e+01
   endloop
 endfacet
 facet normal  7.812399e-01  0.000000e+00  6.242309e-01
   outer loop
     vertex  2.292566e+01  5.547332e+01  4.993496e+01
     vertex  2.512318e+01  5.413949e+01  4.718471e+01
     vertex  2.512318e+01  5.680715e+01  4.718471e+01
   endloop
 endfacet
 facet normal  8.025609e-01 -1.153908e-01  5.853041e-01
   outer loop
     vertex  2.292566e+01  5.547332e+01  4.993496e+01
     vertex  2.512318e+01  5.680715e+01  4.718471e+01
     vertex  2.339045e+01  5.870606e+01  4.993496e+01
   endloop
 endfacet
 facet normal  7.887974e-01 -5.069293e-01  3.475937e-01
   outer loop
     vertex  2.276464e+01  6.078708e+01  5.313627e+01
     vertex  2.474719e+01  6.167690e+01  4.993496e+01
     vertex  2.473302e+01  6.384994e+01  5.313627e+01
   endloop
 endfacet
 facet normal  8.301757e-01 -3.791285e-01  4.087418e-01
   outer loop
     vertex  2.276464e+01  6.078708e+01  5.313627e+01
     vertex  2.339045e+01  5.870606e+01  4.993496e+01
     vertex  2.474719e+01  6.167690e+01  4.993496e+01
   endloop
 endfacet
 facet normal  6.545764e-01 -7.388640e-01 -1.600308e-01
   outer loop
     vertex  2.573430e+01  6.547425e+01  5.656960e+01
     vertex  2.714637e+01  6.598224e+01  6.000000e+01
     vertex  2.484220e+01  6.394093e+01  6.000000e+01
   endloop
 endfacet
 facet normal  5.380649e-01 -8.372453e-01 -9.750183e-02
   outer loop
     vertex  2.573430e+01  6.547425e+01  5.656960e+01
     vertex  2.890292e+01  6.751060e+01  5.656960e+01
     vertex  2.714637e+01  6.598224e+01  6.000000e+01
   endloop
 endfacet
 facet normal  6.459613e-01 -7.454791e-01  1.643012e-01
   outer loop
     vertex  2.573430e+01  6.547425e+01  5.656960e+01
     vertex  2.473302e+01  6.384994e+01  5.313627e+01
     vertex  2.748457e+01  6.623418e+01  5.313627e+01
   endloop
 endfacet
 facet normal  5.384926e-01 -8.379109e-01  8.905610e-02
   outer loop
     vertex  2.573430e+01  6.547425e+01  5.656960e+01
     vertex  2.748457e+01  6.623418e+01  5.313627e+01
     vertex  2.890292e+01  6.751060e+01  5.656960e+01
   endloop
 endfacet
 facet normal  1.880186e-02  1.307698e-01  9.912345e-01
   outer loop
     vertex  3.440016e+01  5.204144e+01  4.374643e+01
     vertex  3.440016e+01  5.547332e+01  4.329367e+01
     vertex  3.343328e+01  5.218045e+01  4.374643e+01
   endloop
 endfacet
 facet normal  1.578102e-01  3.455562e-01  9.250334e-01
   outer loop
     vertex  3.164640e+01  4.944343e+01  4.507371e+01
     vertex  3.343328e+01  5.218045e+01  4.374643e+01
     vertex  3.254474e+01  5.258624e+01  4.374643e+01
   endloop
 endfacet
 facet normal  2.110914e-01  3.284647e-01  9.206255e-01
   outer loop
     vertex  3.164640e+01  4.944343e+01  4.507371e+01
     vertex  3.254474e+01  5.258624e+01  4.374643e+01
     vertex  3.005913e+01  5.046351e+01  4.507371e+01
   endloop
 endfacet
 facet normal  4.538350e-01  3.932503e-01  7.996174e-01
   outer loop
     vertex  2.731699e+01  4.933572e+01  4.718471e+01
     vertex  3.005913e+01  5.046351e+01  4.507371e+01
     vertex  2.882355e+01  5.188945e+01  4.507371e+01
   endloop
 endfacet
 facet normal  5.243978e-01  3.370100e-01  7.819407e-01
   outer loop
     vertex  2.731699e+01  4.933572e+01  4.718471e+01
     vertex  2.882355e+01  5.188945e+01  4.507371e+01
     vertex  2.587474e+01  5.157989e+01  4.718471e+01
   endloop
 endfacet
 facet normal  7.495942e-01  2.201007e-01  6.242309e-01
   outer loop
     vertex  2.339045e+01  5.224058e+01  4.993496e+01
     vertex  2.587474e+01  5.157989e+01  4.718471e+01
     vertex  2.512318e+01  5.413949e+01  4.718471e+01
   endloop
 endfacet
 facet normal  8.025609e-01  1.153908e-01  5.853041e-01
   outer loop
     vertex  2.339045e+01  5.224058e+01  4.993496e+01
     vertex  2.512318e+01  5.413949e+01  4.718471e+01
     vertex  2.292566e+01  5.547332e+01  4.993496e+01
   endloop
 endfacet
 facet normal  9.033606e-01 -1.298836e-01  4.087418e-01
   outer loop
     vertex  2.173890e+01  5.729373e+01  5.313627e+01
     vertex  2.292566e+01  5.547332e+01  4.993496e+01
     vertex  2.339045e+01  5.870606e+01  4.993496e+01
   endloop
 endfacet
 facet normal  8.996640e-01 -2.641652e-01  3.475937e-01
   outer loop
     vertex  2.173890e+01  5.729373e+01  5.313627e+01
     vertex  2.339045e+01  5.870606e+01  4.993496e+01
     vertex  2.276464e+01  6.078708e+01  5.313627e+01
   endloop
 endfacet
 facet normal  8.126149e-01 -5.609076e-01 -1.582394e-01
   outer loop
     vertex  2.326774e+01  6.262769e+01  5.656960e+01
     vertex  2.484220e+01  6.394093e+01  6.000000e+01
     vertex  2.309351e+01  6.140751e+01  6.000000e+01
   endloop
 endfacet
 facet normal  8.298211e-01 -5.332936e-01  1.643012e-01
   outer loop
     vertex  2.326774e+01  6.262769e+01  5.656960e+01
     vertex  2.276464e+01  6.078708e+01  5.313627e+01
     vertex  2.473302e+01  6.384994e+01  5.313627e+01
   endloop
 endfacet
 facet normal  7.527467e-01 -6.522587e-01  8.905610e-02
   outer loop
     vertex  2.326774e+01  6.262769e+01  5.656960e+01
     vertex  2.473302e+01  6.384994e+01  5.313627e+01
     vertex  2.573430e+01  6.547425e+01  5.656960e+01
   endloop
 endfacet
 facet normal  7.522786e-01 -6.518531e-01 -9.573052e-02
   outer loop
     vertex  2.326774e+01  6.262769e+01  5.656960e+01
     vertex  2.573430e+01  6.547425e+01  5.656960e+01
     vertex  2.484220e+01  6.394093e+01  6.000000e+01
   endloop
 endfacet
 facet normal -1.880186e-02  1.307698e-01  9.912345e-01
   outer loop
     vertex  3.536703e+01  5.218045e+01  4.374643e+01
     vertex  3.440016e+01  5.547332e+01  4.329367e+01
     vertex  3.440016e+01  5.204144e+01  4.374643e+01
   endloop
 endfacet
 facet normal  1.100016e-01  3.746309e-01  9.206255e-01
   outer loop
     vertex  3.345676e+01  4.891186e+01  4.507371e+01
     vertex  3.343328e+01  5.218045e+01  4.374643e+01
     vertex  3.164640e+01  4.944343e+01  4.507371e+01
   endloop
 endfacet
 facet normal  5.406338e-02  3.760190e-01  9.250334e-01
   outer loop
     vertex  3.345676e+01  4.891186e+01  4.507371e+01
     vertex  3.440016e+01  5.204144e+01  4.374643e+01
     vertex  3.343328e+01  5.218045e+01  4.374643e+01
   endloop
 endfacet
 facet normal  3.246601e-01  5.051810e-01  7.996174e-01
   outer loop
     vertex  2.933307e+01  4.758877e+01  4.718471e+01
     vertex  3.164640e+01  4.944343e+01  4.507371e+01
     vertex  3.005913e+01  5.046351e+01  4.507371e+01
   endloop
 endfacet
 facet normal  4.082093e-01  4.710987e-01  7.819407e-01
   outer loop
     vertex  2.933307e+01  4.758877e+01  4.718471e+01
     vertex  3.005913e+01  5.046351e+01  4.507371e+01
     vertex  2.731699e+01  4.933572e+01  4.718471e+01
   endloop
 endfacet
 facet normal  7.375422e-01  3.368242e-01  5.853041e-01
   outer loop
     vertex  2.474719e+01  4.926973e+01  4.993496e+01
     vertex  2.587474e+01  5.157989e+01  4.718471e+01
     vertex  2.339045e+01  5.224058e+01  4.993496e+01
   endloop
 endfacet
 facet normal  6.572209e-01  4.223702e-01  6.242309e-01
   outer loop
     vertex  2.474719e+01  4.926973e+01  4.993496e+01
     vertex  2.731699e+01  4.933572e+01  4.718471e+01
     vertex  2.587474e+01  5.157989e+01  4.718471e+01
   endloop
 endfacet
 facet normal  9.376453e-01 -0.000000e+00  3.475937e-01
   outer loop
     vertex  2.173890e+01  5.365290e+01  5.313627e+01
     vertex  2.292566e+01  5.547332e+01  4.993496e+01
     vertex  2.173890e+01  5.729373e+01  5.313627e+01
   endloop
 endfacet
 facet normal  9.033606e-01  1.298836e-01  4.087418e-01
   outer loop
     vertex  2.173890e+01  5.365290e+01  5.313627e+01
     vertex  2.339045e+01  5.224058e+01  4.993496e+01
     vertex  2.292566e+01  5.547332e+01  4.993496e+01
   endloop
 endfacet
 facet normal  9.049768e-01 -4.132890e-01 -1.010408e-01
   outer loop
     vertex  2.170306e+01  5.920152e+01  5.656960e+01
     vertex  2.326774e+01  6.262769e+01  5.656960e+01
     vertex  2.309351e+01  6.140751e+01  6.000000e+01
   endloop
 endfacet
 facet normal  9.464537e-01 -2.779039e-01  1.643012e-01
   outer loop
     vertex  2.170306e+01  5.920152e+01  5.656960e+01
     vertex  2.173890e+01  5.729373e+01  5.313627e+01
     vertex  2.276464e+01  6.078708e+01  5.313627e+01
   endloop
 endfacet
 facet normal  9.245417e-01 -3.506324e-01 -1.492636e-01
   outer loop
     vertex  2.170306e+01  5.920152e+01  5.656960e+01
     vertex  2.309351e+01  6.140751e+01  6.000000e+01
     vertex  2.200191e+01  5.852921e+01  6.000000e+01
   endloop
 endfacet
 facet normal  9.060177e-01 -4.137644e-01  8.905610e-02
   outer loop
     vertex  2.170306e+01  5.920152e+01  5.656960e+01
     vertex  2.276464e+01  6.078708e+01  5.313627e+01
     vertex  2.326774e+01  6.262769e+01  5.656960e+01
   endloop
 endfacet
 facet normal -5.488237e-02  1.201756e-01  9.912345e-01
   outer loop
     vertex  3.625557e+01  5.258624e+01  4.374643e+01
     vertex  3.440016e+01  5.547332e+01  4.329367e+01
     vertex  3.536703e+01  5.218045e+01  4.374643e+01
   endloop
 endfacet
 facet normal -5.406338e-02  3.760190e-01  9.250334e-01
   outer loop
     vertex  3.534355e+01  4.891186e+01  4.507371e+01
     vertex  3.536703e+01  5.218045e+01  4.374643e+01
     vertex  3.440016e+01  5.204144e+01  4.374643e+01
   endloop
 endfacet
 facet normal  1.470376e-15  3.904467e-01  9.206255e-01
   outer loop
     vertex  3.534355e+01  4.891186e+01  4.507371e+01
     vertex  3.440016e+01  5.204144e+01  4.374643e+01
     vertex  3.345676e+01  4.891186e+01  4.507371e+01
   endloop
 endfacet
 facet normal  2.589501e-01  5.670217e-01  7.819407e-01
   outer loop
     vertex  3.175965e+01  4.648059e+01  4.718471e+01
     vertex  3.164640e+01  4.944343e+01  4.507371e+01
     vertex  2.933307e+01  4.758877e+01  4.718471e+01
   endloop
 endfacet
 facet normal  1.691832e-01  5.761849e-01  7.996174e-01
   outer loop
     vertex  3.175965e+01  4.648059e+01  4.718471e+01
     vertex  3.345676e+01  4.891186e+01  4.507371e+01
     vertex  3.164640e+01  4.944343e+01  4.507371e+01
   endloop
 endfacet
 facet normal  5.116034e-01  5.904218e-01  6.242309e-01
   outer loop
     vertex  2.688596e+01  4.680147e+01  4.993496e+01
     vertex  2.933307e+01  4.758877e+01  4.718471e+01
     vertex  2.731699e+01  4.933572e+01  4.718471e+01
   endloop
 endfacet
 facet normal  6.127722e-01  5.309702e-01  5.853041e-01
   outer loop
     vertex  2.688596e+01  4.680147e+01  4.993496e+01
     vertex  2.731699e+01  4.933572e+01  4.718471e+01
     vertex  2.474719e+01  4.926973e+01  4.993496e+01
   endloop
 endfacet
 facet normal  8.996640e-01  2.641652e-01  3.475937e-01
   outer loop
     vertex  2.276464e+01  5.015956e+01  5.313627e+01
     vertex  2.339045e+01  5.224058e+01  4.993496e+01
     vertex  2.173890e+01  5.365290e+01  5.313627e+01
   endloop
 endfacet
 facet normal  8.301757e-01  3.791285e-01  4.087418e-01
   outer loop
     vertex  2.276464e+01  5.015956e+01  5.313627e+01
     vertex  2.474719e+01  4.926973e+01  4.993496e+01
     vertex  2.339045e+01  5.224058e+01  4.993496e+01
   endloop
 endfacet
 facet normal  9.838852e-01 -1.194653e-01 -1.330336e-01
   outer loop
     vertex  2.116703e+01  5.547332e+01  5.656960e+01
     vertex  2.200191e+01  5.852921e+01  6.000000e+01
     vertex  2.163086e+01  5.547332e+01  6.000000e+01
   endloop
 endfacet
 facet normal  9.838852e-01  1.194653e-01 -1.330336e-01
   outer loop
     vertex  2.116703e+01  5.547332e+01  5.656960e+01
     vertex  2.163086e+01  5.547332e+01  6.000000e+01
     vertex  2.200191e+01  5.241743e+01  6.000000e+01
   endloop
 endfacet
 facet normal  9.858885e-01 -1.417494e-01  8.905610e-02
   outer loop
     vertex  2.116703e+01  5.547332e+01  5.656960e+01
     vertex  2.173890e+01  5.729373e+01  5.313627e+01
     vertex  2.170306e+01  5.920152e+01  5.656960e+01
   endloop
 endfacet
 facet normal  9.834379e-01 -1.413970e-01 -1.133873e-01
   outer loop
     vertex  2.116703e+01  5.547332e+01  5.656960e+01
     vertex  2.170306e+01  5.920152e+01  5.656960e+01
     vertex  2.200191e+01  5.852921e+01  6.000000e+01
   endloop
 endfacet
 facet normal  9.864102e-01  0.000000e+00  1.643012e-01
   outer loop
     vertex  2.116703e+01  5.547332e+01  5.656960e+01
     vertex  2.173890e+01  5.365290e+01  5.313627e+01
     vertex  2.173890e+01  5.729373e+01  5.313627e+01
   endloop
 endfacet
 facet normal -8.651663e-02  9.984552e-02  9.912345e-01
   outer loop
     vertex  3.699380e+01  5.322591e+01  4.374643e+01
     vertex  3.440016e+01  5.547332e+01  4.329367e+01
     vertex  3.625557e+01  5.258624e+01  4.374643e+01
   endloop
 endfacet
 facet normal -1.578102e-01  3.455562e-01  9.250334e-01
   outer loop
     vertex  3.715391e+01  4.944343e+01  4.507371e+01
     vertex  3.625557e+01  5.258624e+01  4.374643e+01
     vertex  3.536703e+01  5.218045e+01  4.374643e+01
   endloop
 endfacet
 facet normal -1.100016e-01  3.746309e-01  9.206255e-01
   outer loop
     vertex  3.715391e+01  4.944343e+01  4.507371e+01
     vertex  3.536703e+01  5.218045e+01  4.374643e+01
     vertex  3.534355e+01  4.891186e+01  4.507371e+01
   endloop
 endfacet
 facet normal  2.276455e-15  6.005098e-01  7.996174e-01
   outer loop
     vertex  3.440016e+01  4.610094e+01  4.718471e+01
     vertex  3.534355e+01  4.891186e+01  4.507371e+01
     vertex  3.345676e+01  4.891186e+01  4.507371e+01
   endloop
 endfacet
 facet normal  8.871236e-02  6.170080e-01  7.819407e-01
   outer loop
     vertex  3.440016e+01  4.610094e+01  4.718471e+01
     vertex  3.345676e+01  4.891186e+01  4.507371e+01
     vertex  3.175965e+01  4.648059e+01  4.718471e+01
   endloop
 endfacet
 facet normal  3.245388e-01  7.106408e-01  6.242309e-01
   outer loop
     vertex  2.963348e+01  4.503574e+01  4.993496e+01
     vertex  3.175965e+01  4.648059e+01  4.718471e+01
     vertex  2.933307e+01  4.758877e+01  4.718471e+01
   endloop
 endfacet
 facet normal  4.383591e-01  6.821000e-01  5.853041e-01
   outer loop
     vertex  2.963348e+01  4.503574e+01  4.993496e+01
     vertex  2.933307e+01  4.758877e+01  4.718471e+01
     vertex  2.688596e+01  4.680147e+01  4.993496e+01
   endloop
 endfacet
 facet normal  6.897349e-01  5.976587e-01  4.087418e-01
   outer loop
     vertex  2.473302e+01  4.709670e+01  5.313627e+01
     vertex  2.688596e+01  4.680147e+01  4.993496e+01
     vertex  2.474719e+01  4.926973e+01  4.993496e+01
   endloop
 endfacet
 facet normal  7.887974e-01  5.069293e-01  3.475937e-01
   outer loop
     vertex  2.473302e+01  4.709670e+01  5.313627e+01
     vertex  2.474719e+01  4.926973e+01  4.993496e+01
     vertex  2.276464e+01  5.015956e+01  5.313627e+01
   endloop
 endfacet
 facet normal  9.245417e-01  3.506324e-01 -1.492636e-01
   outer loop
     vertex  2.170306e+01  5.174512e+01  5.656960e+01
     vertex  2.200191e+01  5.241743e+01  6.000000e+01
     vertex  2.309351e+01  4.953913e+01  6.000000e+01
   endloop
 endfacet
 facet normal  9.834379e-01  1.413970e-01 -1.133873e-01
   outer loop
     vertex  2.170306e+01  5.174512e+01  5.656960e+01
     vertex  2.116703e+01  5.547332e+01  5.656960e+01
     vertex  2.200191e+01  5.241743e+01  6.000000e+01
   endloop
 endfacet
 facet normal  9.464537e-01  2.779039e-01  1.643012e-01
   outer loop
     vertex  2.170306e+01  5.174512e+01  5.656960e+01
     vertex  2.276464e+01  5.015956e+01  5.313627e+01
     vertex  2.173890e+01  5.365290e+01  5.313627e+01
   endloop
 endfacet
 facet normal  9.858885e-01  1.417494e-01  8.905610e-02
   outer loop
     vertex  2.170306e+01  5.174512e+01  5.656960e+01
     vertex  2.173890e+01  5.365290e+01  5.313627e+01
     vertex  2.116703e+01  5.547332e+01  5.656960e+01
   endloop
 endfacet
 facet normal -1.111418e-01  7.142652e-02  9.912345e-01
   outer loop
     vertex  3.752191e+01  5.404766e+01  4.374643e+01
     vertex  3.440016e+01  5.547332e+01  4.329367e+01
     vertex  3.699380e+01  5.322591e+01  4.374643e+01
   endloop
 endfacet
 facet normal -2.487722e-01  2.870985e-01  9.250334e-01
   outer loop
     vertex  3.874118e+01  5.046351e+01  4.507371e+01
     vertex  3.699380e+01  5.322591e+01  4.374643e+01
     vertex  3.625557e+01  5.258624e+01  4.374643e+01
   endloop
 endfacet
 facet normal -2.110914e-01  3.284647e-01  9.206255e-01
   outer loop
     vertex  3.874118e+01  5.046351e+01  4.507371e+01
     vertex  3.625557e+01  5.258624e+01  4.374643e+01
     vertex  3.715391e+01  4.944343e+01  4.507371e+01
   endloop
 endfacet
 facet normal -1.691832e-01  5.761849e-01  7.996174e-01
   outer loop
     vertex  3.704066e+01  4.648059e+01  4.718471e+01
     vertex  3.715391e+01  4.944343e+01  4.507371e+01
     vertex  3.534355e+01  4.891186e+01  4.507371e+01
   endloop
 endfacet
 facet normal -8.871236e-02  6.170080e-01  7.819407e-01
   outer loop
     vertex  3.704066e+01  4.648059e+01  4.718471e+01
     vertex  3.534355e+01  4.891186e+01  4.507371e+01
     vertex  3.440016e+01  4.610094e+01  4.718471e+01
   endloop
 endfacet
 facet normal  2.284327e-01  7.779702e-01  5.853041e-01
   outer loop
     vertex  3.276717e+01  4.411561e+01  4.993496e+01
     vertex  3.175965e+01  4.648059e+01  4.718471e+01
     vertex  2.963348e+01  4.503574e+01  4.993496e+01
   endloop
 endfacet
 facet normal  1.111820e-01  7.732880e-01  6.242309e-01
   outer loop
     vertex  3.276717e+01  4.411561e+01  4.993496e+01
     vertex  3.440016e+01  4.610094e+01  4.718471e+01
     vertex  3.175965e+01  4.648059e+01  4.718471e+01
   endloop
 endfacet
 facet normal  4.934159e-01  7.677701e-01  4.087418e-01
   outer loop
     vertex  2.748457e+01  4.471246e+01  5.313627e+01
     vertex  2.963348e+01  4.503574e+01  4.993496e+01
     vertex  2.688596e+01  4.680147e+01  4.993496e+01
   endloop
 endfacet
 facet normal  6.140271e-01  7.086250e-01  3.475937e-01
   outer loop
     vertex  2.748457e+01  4.471246e+01  5.313627e+01
     vertex  2.688596e+01  4.680147e+01  4.993496e+01
     vertex  2.473302e+01  4.709670e+01  5.313627e+01
   endloop
 endfacet
 facet normal  8.126149e-01  5.609076e-01 -1.582394e-01
   outer loop
     vertex  2.326774e+01  4.831895e+01  5.656960e+01
     vertex  2.309351e+01  4.953913e+01  6.000000e+01
     vertex  2.484220e+01  4.700571e+01  6.000000e+01
   endloop
 endfacet
 facet normal  9.049768e-01  4.132890e-01 -1.010408e-01
   outer loop
     vertex  2.326774e+01  4.831895e+01  5.656960e+01
     vertex  2.170306e+01  5.174512e+01  5.656960e+01
     vertex  2.309351e+01  4.953913e+01  6.000000e+01
   endloop
 endfacet
 facet normal  8.298211e-01  5.332936e-01  1.643012e-01
   outer loop
     vertex  2.326774e+01  4.831895e+01  5.656960e+01
     vertex  2.473302e+01  4.709670e+01  5.313627e+01
     vertex  2.276464e+01  5.015956e+01  5.313627e+01
   endloop
 endfacet
 facet normal  9.060177e-01  4.137644e-01  8.905610e-02
   outer loop
     vertex  2.326774e+01  4.831895e+01  5.656960e+01
     vertex  2.276464e+01  5.015956e+01  5.313627e+01
     vertex  2.170306e+01  5.174512e+01  5.656960e+01
   endloop
 endfacet
 facet normal -1.136450e-01  1.234424e-01  9.858229e-01
   outer loop
     vertex  3.779711e+01  5.498491e+01  4.374643e+01
     vertex  3.741117e+01  5.547332e+01  4.364078e+01
     vertex  3.440016e+01  5.547332e+01  4.329367e+01
   endloop
 endfacet
 facet normal -3.368843e-01 -6.299405e-02  9.394364e-01
   outer loop
     vertex  3.779711e+01  5.498491e+01  4.374643e+01
     vertex  4.026423e+01  5.547332e+01  4.466389e+01
     vertex  3.741117e+01  5.547332e+01  4.364078e+01
   endloop
 endfacet
 facet normal -1.267630e-01  3.722097e-02  9.912345e-01
   outer loop
     vertex  3.779711e+01  5.498491e+01  4.374643e+01
     vertex  3.440016e+01  5.547332e+01  4.329367e+01
     vertex  3.752191e+01  5.404766e+01  4.374643e+01
   endloop
 endfacet
 facet normal -3.195802e-01  2.053817e-01  9.250334e-01
   outer loop
     vertex  3.997677e+01  5.188945e+01  4.507371e+01
     vertex  3.752191e+01  5.404766e+01  4.374643e+01
     vertex  3.699380e+01  5.322591e+01  4.374643e+01
   endloop
 endfacet
 facet normal -2.950800e-01  2.556882e-01  9.206255e-01
   outer loop
     vertex  3.997677e+01  5.188945e+01  4.507371e+01
     vertex  3.699380e+01  5.322591e+01  4.374643e+01
     vertex  3.874118e+01  5.046351e+01  4.507371e+01
   endloop
 endfacet
 facet normal -2.589501e-01  5.670217e-01  7.819407e-01
   outer loop
     vertex  3.946725e+01  4.758877e+01  4.718471e+01
     vertex  3.715391e+01  4.944343e+01  4.507371e+01
     vertex  3.704066e+01  4.648059e+01  4.718471e+01
   endloop
 endfacet
 facet normal -3.246601e-01  5.051810e-01  7.996174e-01
   outer loop
     vertex  3.946725e+01  4.758877e+01  4.718471e+01
     vertex  3.874118e+01  5.046351e+01  4.507371e+01
     vertex  3.715391e+01  4.944343e+01  4.507371e+01
   endloop
 endfacet
 facet normal -1.111820e-01  7.732880e-01  6.242309e-01
   outer loop
     vertex  3.603315e+01  4.411561e+01  4.993496e+01
     vertex  3.704066e+01  4.648059e+01  4.718471e+01
     vertex  3.440016e+01  4.610094e+01  4.718471e+01
   endloop
 endfacet
 facet normal  0.000000e+00  8.108138e-01  5.853041e-01
   outer loop
     vertex  3.603315e+01  4.411561e+01  4.993496e+01
     vertex  3.440016e+01  4.610094e+01  4.718471e+01
     vertex  3.276717e+01  4.411561e+01  4.993496e+01
   endloop
 endfacet
 facet normal  2.571232e-01  8.756813e-01  4.087418e-01
   outer loop
     vertex  3.079639e+01  4.320000e+01  5.313627e+01
     vertex  3.276717e+01  4.411561e+01  4.993496e+01
     vertex  2.963348e+01  4.503574e+01  4.993496e+01
   endloop
 endfacet
 facet normal  3.895119e-01  8.529121e-01  3.475937e-01
   outer loop
     vertex  3.079639e+01  4.320000e+01  5.313627e+01
     vertex  2.963348e+01  4.503574e+01  4.993496e+01
     vertex  2.748457e+01  4.471246e+01  5.313627e+01
   endloop
 endfacet
 facet normal  6.545764e-01  7.388640e-01 -1.600308e-01
   outer loop
     vertex  2.573430e+01  4.547239e+01  5.656960e+01
     vertex  2.484220e+01  4.700571e+01  6.000000e+01
     vertex  2.714637e+01  4.496439e+01  6.000000e+01
   endloop
 endfacet
 facet normal  6.459613e-01  7.454791e-01  1.643012e-01
   outer loop
     vertex  2.573430e+01  4.547239e+01  5.656960e+01
     vertex  2.748457e+01  4.471246e+01  5.313627e+01
     vertex  2.473302e+01  4.709670e+01  5.313627e+01
   endloop
 endfacet
 facet normal  7.522786e-01  6.518531e-01 -9.573052e-02
   outer loop
     vertex  2.573430e+01  4.547239e+01  5.656960e+01
     vertex  2.326774e+01  4.831895e+01  5.656960e+01
     vertex  2.484220e+01  4.700571e+01  6.000000e+01
   endloop
 endfacet
 facet normal  7.527467e-01  6.522587e-01  8.905610e-02
   outer loop
     vertex  2.573430e+01  4.547239e+01  5.656960e+01
     vertex  2.473302e+01  4.709670e+01  5.313627e+01
     vertex  2.326774e+01  4.831895e+01  5.656960e+01
   endloop
 endfacet
 facet normal -5.424466e-01  3.997455e-02  8.391387e-01
   outer loop
     vertex  4.076057e+01  5.360573e+01  4.507371e+01
     vertex  4.280965e+01  5.547332e+01  4.630934e+01
     vertex  4.026423e+01  5.547332e+01  4.466389e+01
   endloop
 endfacet
 facet normal -3.649570e-01  1.059807e-01  9.249727e-01
   outer loop
     vertex  4.076057e+01  5.360573e+01  4.507371e+01
     vertex  4.026423e+01  5.547332e+01  4.466389e+01
     vertex  3.779711e+01  5.498491e+01  4.374643e+01
   endloop
 endfacet
 facet normal -3.644977e-01  1.070262e-01  9.250334e-01
   outer loop
     vertex  4.076057e+01  5.360573e+01  4.507371e+01
     vertex  3.779711e+01  5.498491e+01  4.374643e+01
     vertex  3.752191e+01  5.404766e+01  4.374643e+01
   endloop
 endfacet
 facet normal -3.551628e-01  1.621974e-01  9.206255e-01
   outer loop
     vertex  4.076057e+01  5.360573e+01  4.507371e+01
     vertex  3.752191e+01  5.404766e+01  4.374643e+01
     vertex  3.997677e+01  5.188945e+01  4.507371e+01
   endloop
 endfacet
 facet normal -4.538350e-01  3.932503e-01  7.996174e-01
   outer loop
     vertex  4.148333e+01  4.933572e+01  4.718471e+01
     vertex  3.997677e+01  5.188945e+01  4.507371e+01
     vertex  3.874118e+01  5.046351e+01  4.507371e+01
   endloop
 endfacet
 facet normal -4.082093e-01  4.710987e-01  7.819407e-01
   outer loop
     vertex  4.148333e+01  4.933572e+01  4.718471e+01
     vertex  3.874118e+01  5.046351e+01  4.507371e+01
     vertex  3.946725e+01  4.758877e+01  4.718471e+01
   endloop
 endfacet
 facet normal -3.245388e-01  7.106408e-01  6.242309e-01
   outer loop
     vertex  3.916684e+01  4.503574e+01  4.993496e+01
     vertex  3.946725e+01  4.758877e+01  4.718471e+01
     vertex  3.704066e+01  4.648059e+01  4.718471e+01
   endloop
 endfacet
 facet normal -2.284327e-01  7.779702e-01  5.853041e-01
   outer loop
     vertex  3.916684e+01  4.503574e+01  4.993496e+01
     vertex  3.704066e+01  4.648059e+01  4.718471e+01
     vertex  3.603315e+01  4.411561e+01  4.993496e+01
   endloop
 endfacet
 facet normal  0.000000e+00  9.126501e-01  4.087418e-01
   outer loop
     vertex  3.440016e+01  4.268186e+01  5.313627e+01
     vertex  3.603315e+01  4.411561e+01  4.993496e+01
     vertex  3.276717e+01  4.411561e+01  4.993496e+01
   endloop
 endfacet
 facet normal  1.334408e-01  9.281014e-01  3.475937e-01
   outer loop
     vertex  3.440016e+01  4.268186e+01  5.313627e+01
     vertex  3.276717e+01  4.411561e+01  4.993496e+01
     vertex  3.079639e+01  4.320000e+01  5.313627e+01
   endloop
 endfacet
 facet normal  4.591320e-01  8.748030e-01 -1.546528e-01
   outer loop
     vertex  2.890292e+01  4.343604e+01  5.656960e+01
     vertex  2.714637e+01  4.496439e+01  6.000000e+01
     vertex  2.987210e+01  4.353382e+01  6.000000e+01
   endloop
 endfacet
 facet normal  5.384926e-01  8.379109e-01  8.905610e-02
   outer loop
     vertex  2.890292e+01  4.343604e+01  5.656960e+01
     vertex  2.748457e+01  4.471246e+01  5.313627e+01
     vertex  2.573430e+01  4.547239e+01  5.656960e+01
   endloop
 endfacet
 facet normal  4.097696e-01  8.972703e-01  1.643012e-01
   outer loop
     vertex  2.890292e+01  4.343604e+01  5.656960e+01
     vertex  3.079639e+01  4.320000e+01  5.313627e+01
     vertex  2.748457e+01  4.471246e+01  5.313627e+01
   endloop
 endfacet
 facet normal  5.380649e-01  8.372453e-01 -9.750183e-02
   outer loop
     vertex  2.890292e+01  4.343604e+01  5.656960e+01
     vertex  2.573430e+01  4.547239e+01  5.656960e+01
     vertex  2.714637e+01  4.496439e+01  6.000000e+01
   endloop
 endfacet
 facet normal -5.462429e-01  2.494608e-01  7.996174e-01
   outer loop
     vertex  4.292557e+01  5.157989e+01  4.718471e+01
     vertex  4.076057e+01  5.360573e+01  4.507371e+01
     vertex  3.997677e+01  5.188945e+01  4.507371e+01
   endloop
 endfacet
 facet normal -5.243978e-01  3.370100e-01  7.819407e-01
   outer loop
     vertex  4.292557e+01  5.157989e+01  4.718471e+01
     vertex  3.997677e+01  5.188945e+01  4.507371e+01
     vertex  4.148333e+01  4.933572e+01  4.718471e+01
   endloop
 endfacet
 facet normal -5.116034e-01  5.904218e-01  6.242309e-01
   outer loop
     vertex  4.191436e+01  4.680147e+01  4.993496e+01
     vertex  4.148333e+01  4.933572e+01  4.718471e+01
     vertex  3.946725e+01  4.758877e+01  4.718471e+01
   endloop
 endfacet
 facet normal -4.383591e-01  6.821000e-01  5.853041e-01
   outer loop
     vertex  4.191436e+01  4.680147e+01  4.993496e+01
     vertex  3.946725e+01  4.758877e+01  4.718471e+01
     vertex  3.916684e+01  4.503574e+01  4.993496e+01
   endloop
 endfacet
 facet normal -2.571232e-01  8.756813e-01  4.087418e-01
   outer loop
     vertex  3.800393e+01  4.320000e+01  5.313627e+01
     vertex  3.916684e+01  4.503574e+01  4.993496e+01
     vertex  3.603315e+01  4.411561e+01  4.993496e+01
   endloop
 endfacet
 facet normal -1.334408e-01  9.281014e-01  3.475937e-01
   outer loop
     vertex  3.800393e+01  4.320000e+01  5.313627e+01
     vertex  3.603315e+01  4.411561e+01  4.993496e+01
     vertex  3.440016e+01  4.268186e+01  5.313627e+01
   endloop
 endfacet
 facet normal  2.806131e-01  9.556805e-01  8.905610e-02
   outer loop
     vertex  3.251689e+01  4.237488e+01  5.656960e+01
     vertex  3.079639e+01  4.320000e+01  5.313627e+01
     vertex  2.890292e+01  4.343604e+01  5.656960e+01
   endloop
 endfacet
 facet normal  1.403808e-01  9.763700e-01  1.643012e-01
   outer loop
     vertex  3.251689e+01  4.237488e+01  5.656960e+01
     vertex  3.440016e+01  4.268186e+01  5.313627e+01
     vertex  3.079639e+01  4.320000e+01  5.313627e+01
   endloop
 endfacet
 facet normal  2.368885e-01  9.610944e-01 -1.420614e-01
   outer loop
     vertex  3.251689e+01  4.237488e+01  5.656960e+01
     vertex  2.987210e+01  4.353382e+01  6.000000e+01
     vertex  3.286099e+01  4.279712e+01  6.000000e+01
   endloop
 endfacet
 facet normal  2.801351e-01  9.540525e-01 -1.063399e-01
   outer loop
     vertex  3.251689e+01  4.237488e+01  5.656960e+01
     vertex  2.890292e+01  4.343604e+01  5.656960e+01
     vertex  2.987210e+01  4.353382e+01  6.000000e+01
   endloop
 endfacet
 facet normal -5.981027e-01  1.756188e-01  7.819407e-01
   outer loop
     vertex  4.367714e+01  5.413949e+01  4.718471e+01
     vertex  4.076057e+01  5.360573e+01  4.507371e+01
     vertex  4.292557e+01  5.157989e+01  4.718471e+01
   endloop
 endfacet
 facet normal -7.196708e-01 -1.246282e-02  6.942036e-01
   outer loop
     vertex  4.367714e+01  5.413949e+01  4.718471e+01
     vertex  4.491391e+01  5.547332e+01  4.849080e+01
     vertex  4.280965e+01  5.547332e+01  4.630934e+01
   endloop
 endfacet
 facet normal -5.969042e-01  1.312391e-01  7.915060e-01
   outer loop
     vertex  4.367714e+01  5.413949e+01  4.718471e+01
     vertex  4.280965e+01  5.547332e+01  4.630934e+01
     vertex  4.076057e+01  5.360573e+01  4.507371e+01
   endloop
 endfacet
 facet normal -6.127722e-01  5.309702e-01  5.853041e-01
   outer loop
     vertex  4.405312e+01  4.926973e+01  4.993496e+01
     vertex  4.148333e+01  4.933572e+01  4.718471e+01
     vertex  4.191436e+01  4.680147e+01  4.993496e+01
   endloop
 endfacet
 facet normal -6.572209e-01  4.223702e-01  6.242309e-01
   outer loop
     vertex  4.405312e+01  4.926973e+01  4.993496e+01
     vertex  4.292557e+01  5.157989e+01  4.718471e+01
     vertex  4.148333e+01  4.933572e+01  4.718471e+01
   endloop
 endfacet
 facet normal -3.895119e-01  8.529121e-01  3.475937e-01
   outer loop
     vertex  4.131574e+01  4.471246e+01  5.313627e+01
     vertex  3.916684e+01  4.503574e+01  4.993496e+01
     vertex  3.800393e+01  4.320000e+01  5.313627e+01
   endloop
 endfacet
 facet normal -4.934159e-01  7.677701e-01  4.087418e-01
   outer loop
     vertex  4.131574e+01  4.471246e+01  5.313627e+01
     vertex  4.191436e+01  4.680147e+01  4.993496e+01
     vertex  3.916684e+01  4.503574e+01  4.993496e+01
   endloop
 endfacet
 facet normal  0.000000e+00  9.925097e-01 -1.221661e-01
   outer loop
     vertex  3.628343e+01  4.237488e+01  5.656960e+01
     vertex  3.286099e+01  4.279712e+01  6.000000e+01
     vertex  3.593933e+01  4.279712e+01  6.000000e+01
   endloop
 endfacet
 facet normal -2.368885e-01  9.610944e-01 -1.420614e-01
   outer loop
     vertex  3.628343e+01  4.237488e+01  5.656960e+01
     vertex  3.593933e+01  4.279712e+01  6.000000e+01
     vertex  3.892821e+01  4.353382e+01  6.000000e+01
   endloop
 endfacet
 facet normal  1.872329e-15  9.925097e-01 -1.221661e-01
   outer loop
     vertex  3.628343e+01  4.237488e+01  5.656960e+01
     vertex  3.251689e+01  4.237488e+01  5.656960e+01
     vertex  3.286099e+01  4.279712e+01  6.000000e+01
   endloop
 endfacet
 facet normal -1.403808e-01  9.763700e-01  1.643012e-01
   outer loop
     vertex  3.628343e+01  4.237488e+01  5.656960e+01
     vertex  3.800393e+01  4.320000e+01  5.313627e+01
     vertex  3.440016e+01  4.268186e+01  5.313627e+01
   endloop
 endfacet
 facet normal  1.878964e-15  9.960266e-01  8.905610e-02
   outer loop
     vertex  3.628343e+01  4.237488e+01  5.656960e+01
     vertex  3.440016e+01  4.268186e+01  5.313627e+01
     vertex  3.251689e+01  4.237488e+01  5.656960e+01
   endloop
 endfacet
 facet normal -7.495942e-01  2.201007e-01  6.242309e-01
   outer loop
     vertex  4.540986e+01  5.224058e+01  4.993496e+01
     vertex  4.367714e+01  5.413949e+01  4.718471e+01
     vertex  4.292557e+01  5.157989e+01  4.718471e+01
   endloop
 endfacet
 facet normal -7.884481e-01  1.459743e-01  5.975291e-01
   outer loop
     vertex  4.540986e+01  5.224058e+01  4.993496e+01
     vertex  4.491391e+01  5.547332e+01  4.849080e+01
     vertex  4.367714e+01  5.413949e+01  4.718471e+01
   endloop
 endfacet
 facet normal -7.375422e-01  3.368242e-01  5.853041e-01
   outer loop
     vertex  4.540986e+01  5.224058e+01  4.993496e+01
     vertex  4.292557e+01  5.157989e+01  4.718471e+01
     vertex  4.405312e+01  4.926973e+01  4.993496e+01
   endloop
 endfacet
 facet normal -8.547959e-01  9.664309e-02  5.098863e-01
   outer loop
     vertex  4.540986e+01  5.224058e+01  4.993496e+01
     vertex  4.646662e+01  5.547332e+01  5.109383e+01
     vertex  4.491391e+01  5.547332e+01  4.849080e+01
   endloop
 endfacet
 facet normal -6.140271e-01  7.086250e-01  3.475937e-01
   outer loop
     vertex  4.406730e+01  4.709670e+01  5.313627e+01
     vertex  4.191436e+01  4.680147e+01  4.993496e+01
     vertex  4.131574e+01  4.471246e+01  5.313627e+01
   endloop
 endfacet
 facet normal -6.897349e-01  5.976587e-01  4.087418e-01
   outer loop
     vertex  4.406730e+01  4.709670e+01  5.313627e+01
     vertex  4.405312e+01  4.926973e+01  4.993496e+01
     vertex  4.191436e+01  4.680147e+01  4.993496e+01
   endloop
 endfacet
 facet normal -4.591320e-01  8.748030e-01 -1.546528e-01
   outer loop
     vertex  3.989740e+01  4.343604e+01  5.656960e+01
     vertex  3.892821e+01  4.353382e+01  6.000000e+01
     vertex  4.165394e+01  4.496439e+01  6.000000e+01
   endloop
 endfacet
 facet normal -4.097696e-01  8.972703e-01  1.643012e-01
   outer loop
     vertex  3.989740e+01  4.343604e+01  5.656960e+01
     vertex  4.131574e+01  4.471246e+01  5.313627e+01
     vertex  3.800393e+01  4.320000e+01  5.313627e+01
   endloop
 endfacet
 facet normal -2.801351e-01  9.540525e-01 -1.063399e-01
   outer loop
     vertex  3.989740e+01  4.343604e+01  5.656960e+01
     vertex  3.628343e+01  4.237488e+01  5.656960e+01
     vertex  3.892821e+01  4.353382e+01  6.000000e+01
   endloop
 endfacet
 facet normal -2.806131e-01  9.556805e-01  8.905610e-02
   outer loop
     vertex  3.989740e+01  4.343604e+01  5.656960e+01
     vertex  3.800393e+01  4.320000e+01  5.313627e+01
     vertex  3.628343e+01  4.237488e+01  5.656960e+01
   endloop
 endfacet
 facet normal -8.301757e-01  3.791285e-01  4.087418e-01
   outer loop
     vertex  4.603568e+01  5.015956e+01  5.313627e+01
     vertex  4.540986e+01  5.224058e+01  4.993496e+01
     vertex  4.405312e+01  4.926973e+01  4.993496e+01
   endloop
 endfacet
 facet normal -7.887974e-01  5.069293e-01  3.475937e-01
   outer loop
     vertex  4.603568e+01  5.015956e+01  5.313627e+01
     vertex  4.405312e+01  4.926973e+01  4.993496e+01
     vertex  4.406730e+01  4.709670e+01  5.313627e+01
   endloop
 endfacet
 facet normal -5.380649e-01  8.372453e-01 -9.750183e-02
   outer loop
     vertex  4.306601e+01  4.547239e+01  5.656960e+01
     vertex  3.989740e+01  4.343604e+01  5.656960e+01
     vertex  4.165394e+01  4.496439e+01  6.000000e+01
   endloop
 endfacet
 facet normal -6.545764e-01  7.388640e-01 -1.600308e-01
   outer loop
     vertex  4.306601e+01  4.547239e+01  5.656960e+01
     vertex  4.165394e+01  4.496439e+01  6.000000e+01
     vertex  4.395811e+01  4.700571e+01  6.000000e+01
   endloop
 endfacet
 facet normal -6.459613e-01  7.454791e-01  1.643012e-01
   outer loop
     vertex  4.306601e+01  4.547239e+01  5.656960e+01
     vertex  4.406730e+01  4.709670e+01  5.313627e+01
     vertex  4.131574e+01  4.471246e+01  5.313627e+01
   endloop
 endfacet
 facet normal -5.384926e-01  8.379109e-01  8.905610e-02
   outer loop
     vertex  4.306601e+01  4.547239e+01  5.656960e+01
     vertex  4.131574e+01  4.471246e+01  5.313627e+01
     vertex  3.989740e+01  4.343604e+01  5.656960e+01
   endloop
 endfacet
 facet normal -9.524480e-01  2.910315e-02  3.033080e-01
   outer loop
     vertex  4.706142e+01  5.365290e+01  5.313627e+01
     vertex  4.738633e+01  5.547332e+01  5.398188e+01
     vertex  4.646662e+01  5.547332e+01  5.109383e+01
   endloop
 endfacet
 facet normal -9.041124e-01  1.524530e-01  3.991727e-01
   outer loop
     vertex  4.706142e+01  5.365290e+01  5.313627e+01
     vertex  4.646662e+01  5.547332e+01  5.109383e+01
     vertex  4.540986e+01  5.224058e+01  4.993496e+01
   endloop
 endfacet
 facet normal -8.996640e-01  2.641652e-01  3.475937e-01
   outer loop
     vertex  4.706142e+01  5.365290e+01  5.313627e+01
     vertex  4.540986e+01  5.224058e+01  4.993496e+01
     vertex  4.603568e+01  5.015956e+01  5.313627e+01
   endloop
 endfacet
 facet normal -7.522786e-01  6.518531e-01 -9.573052e-02
   outer loop
     vertex  4.553258e+01  4.831895e+01  5.656960e+01
     vertex  4.306601e+01  4.547239e+01  5.656960e+01
     vertex  4.395811e+01  4.700571e+01  6.000000e+01
   endloop
 endfacet
 facet normal -8.126149e-01  5.609076e-01 -1.582394e-01
   outer loop
     vertex  4.553258e+01  4.831895e+01  5.656960e+01
     vertex  4.395811e+01  4.700571e+01  6.000000e+01
     vertex  4.570681e+01  4.953913e+01  6.000000e+01
   endloop
 endfacet
 facet normal -8.298211e-01  5.332936e-01  1.643012e-01
   outer loop
     vertex  4.553258e+01  4.831895e+01  5.656960e+01
     vertex  4.603568e+01  5.015956e+01  5.313627e+01
     vertex  4.406730e+01  4.709670e+01  5.313627e+01
   endloop
 endfacet
 facet normal -7.527467e-01  6.522587e-01  8.905610e-02
   outer loop
     vertex  4.553258e+01  4.831895e+01  5.656960e+01
     vertex  4.406730e+01  4.709670e+01  5.313627e+01
     vertex  4.306601e+01  4.547239e+01  5.656960e+01
   endloop
 endfacet
 facet normal -9.245417e-01  3.506324e-01 -1.492636e-01
   outer loop
     vertex  4.709725e+01  5.174512e+01  5.656960e+01
     vertex  4.570681e+01  4.953913e+01  6.000000e+01
     vertex  4.679840e+01  5.241743e+01  6.000000e+01
   endloop
 endfacet
 facet normal -9.815763e-01  1.523122e-01 -1.153644e-01
   outer loop
     vertex  4.709725e+01  5.174512e+01  5.656960e+01
     vertex  4.679840e+01  5.241743e+01  6.000000e+01
     vertex  4.762477e+01  5.547332e+01  5.700344e+01
   endloop
 endfacet
 facet normal -9.883402e-01  1.307684e-01  7.799490e-02
   outer loop
     vertex  4.709725e+01  5.174512e+01  5.656960e+01
     vertex  4.762477e+01  5.547332e+01  5.700344e+01
     vertex  4.738633e+01  5.547332e+01  5.398188e+01
   endloop
 endfacet
 facet normal -9.869415e-01  1.362078e-01  8.598783e-02
   outer loop
     vertex  4.709725e+01  5.174512e+01  5.656960e+01
     vertex  4.738633e+01  5.547332e+01  5.398188e+01
     vertex  4.706142e+01  5.365290e+01  5.313627e+01
   endloop
 endfacet
 facet normal -9.049768e-01  4.132890e-01 -1.010408e-01
   outer loop
     vertex  4.709725e+01  5.174512e+01  5.656960e+01
     vertex  4.553258e+01  4.831895e+01  5.656960e+01
     vertex  4.570681e+01  4.953913e+01  6.000000e+01
   endloop
 endfacet
 facet normal -9.464537e-01  2.779039e-01  1.643012e-01
   outer loop
     vertex  4.709725e+01  5.174512e+01  5.656960e+01
     vertex  4.706142e+01  5.365290e+01  5.313627e+01
     vertex  4.603568e+01  5.015956e+01  5.313627e+01
   endloop
 endfacet
 facet normal -9.060177e-01  4.137644e-01  8.905610e-02
   outer loop
     vertex  4.709725e+01  5.174512e+01  5.656960e+01
     vertex  4.603568e+01  5.015956e+01  5.313627e+01
     vertex  4.553258e+01  4.831895e+01  5.656960e+01
   endloop
 endfacet
endsolid
