solid 
 facet normal -1.000000e+00  0.000000e+00  0.000000e+00
   outer loop
     vertex  0.000000e+00  0.000000e+00  6.000000e+01
     vertex  0.000000e+00  9.543114e+01  0.000000e+00
     vertex  0.000000e+00  0.000000e+00  0.000000e+00
   endloop
 endfacet
 facet normal -1.000000e+00  0.000000e+00  0.000000e+00
   outer loop
     vertex  0.000000e+00  0.000000e+00  6.000000e+01
     vertex  0.000000e+00  9.543114e+01  6.000000e+01
     vertex  0.000000e+00  9.543114e+01  0.000000e+00
   endloop
 endfacet
 facet normal  0.000000e+00 -1.000000e+00 -0.000000e+00
   outer loop
     vertex  1.186554e+02  0.000000e+00  6.000000e+01
     vertex  0.000000e+00  0.000000e+00  0.000000e+00
     vertex  1.186554e+02  0.000000e+00  0.000000e+00
   endloop
 endfacet
 facet normal -0.000000e+00 -1.000000e+00  0.000000e+00
   outer loop
     vertex  1.186554e+02  0.000000e+00  6.000000e+01
     vertex  0.000000e+00  0.000000e+00  6.000000e+01
     vertex  0.000000e+00  0.000000e+00  0.000000e+00
   endloop
 endfacet
 facet normal  0.000000e+00  0.000000e+00  1.000000e+00
   outer loop
     vertex  7.207016e+01  3.644095e+01  6.000000e+01
     vertex  6.942569e+01  3.878375e+01  6.000000e+01
     vertex  0.000000e+00  0.000000e+00  6.000000e+01
   endloop
 endfacet
 facet normal  0.000000e+00  0.000000e+00  1.000000e+00
   outer loop
     vertex  6.741872e+01  4.169134e+01  6.000000e+01
     vertex  0.000000e+00  0.000000e+00  6.000000e+01
     vertex  6.942569e+01  3.878375e+01  6.000000e+01
   endloop
 endfacet
 facet normal  0.000000e+00  0.000000e+00  1.000000e+00
   outer loop
     vertex  7.519847e+01  3.479909e+01  6.000000e+01
     vertex  7.207016e+01  3.644095e+01  6.000000e+01
     vertex  0.000000e+00  0.000000e+00  6.000000e+01
   endloop
 endfacet
 facet normal  0.000000e+00  0.000000e+00  1.000000e+00
   outer loop
     vertex  6.616591e+01  4.499473e+01  6.000000e+01
     vertex  0.000000e+00  0.000000e+00  6.000000e+01
     vertex  6.741872e+01  4.169134e+01  6.000000e+01
   endloop
 endfacet
 facet normal  0.000000e+00  0.000000e+00  1.000000e+00
   outer loop
     vertex  6.574006e+01  4.850196e+01  6.000000e+01
     vertex  0.000000e+00  9.543114e+01  6.000000e+01
     vertex  0.000000e+00  0.000000e+00  6.000000e+01
   endloop
 endfacet
 facet normal  0.000000e+00  0.000000e+00  1.000000e+00
   outer loop
     vertex  6.574006e+01  4.850196e+01  6.000000e+01
     vertex  0.000000e+00  0.000000e+00  6.000000e+01
     vertex  6.616591e+01  4.499473e+01  6.000000e+01
   endloop
 endfacet
 facet normal  0.000000e+00  0.000000e+00  1.000000e+00
   outer loop
     vertex  6.616591e+01  5.200918e+01  6.000000e+01
     vertex  0.000000e+00  9.543114e+01  6.000000e+01
     vertex  6.574006e+01  4.850196e+01  6.000000e+01
   endloop
 endfacet
 facet normal  0.000000e+00  0.000000e+00  1.000000e+00
   outer loop
     vertex  1.186554e+02  0.000000e+00  6.000000e+01
     vertex  7.862879e+01  3.395359e+01  6.000000e+01
     vertex  7.519847e+01  3.479909e+01  6.000000e+01
   endloop
 endfacet
 facet normal  0.000000e+00  0.000000e+00  1.000000e+00
   outer loop
     vertex  1.186554e+02  0.000000e+00  6.000000e+01
     vertex  8.216177e+01  3.395359e+01  6.000000e+01
     vertex  7.862879e+01  3.395359e+01  6.000000e+01
   endloop
 endfacet
 facet normal  0.000000e+00  0.000000e+00  1.000000e+00
   outer loop
     vertex  1.186554e+02  0.000000e+00  6.000000e+01
     vertex  7.519847e+01  3.479909e+01  6.000000e+01
     vertex  0.000000e+00  0.000000e+00  6.000000e+01
   endloop
 endfacet
 facet normal  0.000000e+00  0.000000e+00  1.000000e+00
   outer loop
     vertex  8.559209e+01  3.479909e+01  6.000000e+01
     vertex  8.216177e+01  3.395359e+01  6.000000e+01
     vertex  1.186554e+02  0.000000e+00  6.000000e+01
   endloop
 endfacet
 facet normal  0.000000e+00  0.000000e+00  1.000000e+00
   outer loop
     vertex  6.741872e+01  5.531258e+01  6.000000e+01
     vertex  0.000000e+00  9.543114e+01  6.000000e+01
     vertex  6.616591e+01  5.200918e+01  6.000000e+01
   endloop
 endfacet
 facet normal  0.000000e+00  0.000000e+00  1.000000e+00
   outer loop
     vertex  8.872040e+01  3.644095e+01  6.000000e+01
     vertex  8.559209e+01  3.479909e+01  6.000000e+01
     vertex  1.186554e+02  0.000000e+00  6.000000e+01
   endloop
 endfacet
 facet normal  0.000000e+00  0.000000e+00  1.000000e+00
   outer loop
     vertex  6.942569e+01  5.822017e+01  6.000000e+01
     vertex  0.000000e+00  9.543114e+01  6.000000e+01
     vertex  6.741872e+01  5.531258e+01  6.000000e+01
   endloop
 endfacet
 facet normal  0.000000e+00  0.000000e+00  1.000000e+00
   outer loop
     vertex  9.136487e+01  3.878375e+01  6.000000e+01
     vertex  8.872040e+01  3.644095e+01  6.000000e+01
     vertex  1.186554e+02  0.000000e+00  6.000000e+01
   endloop
 endfacet
 facet normal  0.000000e+00  0.000000e+00  1.000000e+00
   outer loop
     vertex  7.207016e+01  6.056297e+01  6.000000e+01
     vertex  0.000000e+00  9.543114e+01  6.000000e+01
     vertex  6.942569e+01  5.822017e+01  6.000000e+01
   endloop
 endfacet
 facet normal  0.000000e+00  0.000000e+00  1.000000e+00
   outer loop
     vertex  9.337184e+01  4.169134e+01  6.000000e+01
     vertex  9.136487e+01  3.878375e+01  6.000000e+01
     vertex  1.186554e+02  0.000000e+00  6.000000e+01
   endloop
 endfacet
 facet normal  0.000000e+00  0.000000e+00  1.000000e+00
   outer loop
     vertex  7.519847e+01  6.220483e+01  6.000000e+01
     vertex  0.000000e+00  9.543114e+01  6.000000e+01
     vertex  7.207016e+01  6.056297e+01  6.000000e+01
   endloop
 endfacet
 facet normal  0.000000e+00  0.000000e+00  1.000000e+00
   outer loop
     vertex  9.462465e+01  4.499473e+01  6.000000e+01
     vertex  9.337184e+01  4.169134e+01  6.000000e+01
     vertex  1.186554e+02  0.000000e+00  6.000000e+01
   endloop
 endfacet
 facet normal  0.000000e+00  0.000000e+00  1.000000e+00
   outer loop
     vertex  9.505050e+01  4.850196e+01  6.000000e+01
     vertex  9.462465e+01  4.499473e+01  6.000000e+01
     vertex  1.186554e+02  0.000000e+00  6.000000e+01
   endloop
 endfacet
 facet normal  0.000000e+00  0.000000e+00  1.000000e+00
   outer loop
     vertex  1.186554e+02  9.543114e+01  6.000000e+01
     vertex  9.462465e+01  5.200918e+01  6.000000e+01
     vertex  9.505050e+01  4.850196e+01  6.000000e+01
   endloop
 endfacet
 facet normal  0.000000e+00  0.000000e+00  1.000000e+00
   outer loop
     vertex  1.186554e+02  9.543114e+01  6.000000e+01
     vertex  9.337184e+01  5.531258e+01  6.000000e+01
     vertex  9.462465e+01  5.200918e+01  6.000000e+01
   endloop
 endfacet
 facet normal  0.000000e+00  0.000000e+00  1.000000e+00
   outer loop
     vertex  1.186554e+02  9.543114e+01  6.000000e+01
     vertex  9.136487e+01  5.822017e+01  6.000000e+01
     vertex  9.337184e+01  5.531258e+01  6.000000e+01
   endloop
 endfacet
 facet normal  0.000000e+00  0.000000e+00  1.000000e+00
   outer loop
     vertex  1.186554e+02  9.543114e+01  6.000000e+01
     vertex  8.872040e+01  6.056297e+01  6.000000e+01
     vertex  9.136487e+01  5.822017e+01  6.000000e+01
   endloop
 endfacet
 facet normal  0.000000e+00  0.000000e+00  1.000000e+00
   outer loop
     vertex  1.186554e+02  9.543114e+01  6.000000e+01
     vertex  8.559209e+01  6.220483e+01  6.000000e+01
     vertex  8.872040e+01  6.056297e+01  6.000000e+01
   endloop
 endfacet
 facet normal  0.000000e+00  0.000000e+00  1.000000e+00
   outer loop
     vertex  1.186554e+02  9.543114e+01  6.000000e+01
     vertex  8.216177e+01  6.305033e+01  6.000000e+01
     vertex  8.559209e+01  6.220483e+01  6.000000e+01
   endloop
 endfacet
 facet normal  0.000000e+00  0.000000e+00  1.000000e+00
   outer loop
     vertex  1.186554e+02  9.543114e+01  6.000000e+01
     vertex  7.862879e+01  6.305033e+01  6.000000e+01
     vertex  8.216177e+01  6.305033e+01  6.000000e+01
   endloop
 endfacet
 facet normal  0.000000e+00  0.000000e+00  1.000000e+00
   outer loop
     vertex  1.186554e+02  9.543114e+01  6.000000e+01
     vertex  7.519847e+01  6.220483e+01  6.000000e+01
     vertex  7.862879e+01  6.305033e+01  6.000000e+01
   endloop
 endfacet
 facet normal  0.000000e+00  0.000000e+00  1.000000e+00
   outer loop
     vertex  1.186554e+02  9.543114e+01  6.000000e+01
     vertex  0.000000e+00  9.543114e+01  6.000000e+01
     vertex  7.519847e+01  6.220483e+01  6.000000e+01
   endloop
 endfacet
 facet normal  0.000000e+00  0.000000e+00  1.000000e+00
   outer loop
     vertex  1.186554e+02  9.543114e+01  6.000000e+01
     vertex  9.505050e+01  4.850196e+01  6.000000e+01
     vertex  1.186554e+02  0.000000e+00  6.000000e+01
   endloop
 endfacet
 facet normal  0.000000e+00  1.000000e+00  0.000000e+00
   outer loop
     vertex  1.186554e+02  9.543114e+01  6.000000e+01
     vertex  1.186554e+02  9.543114e+01  0.000000e+00
     vertex  0.000000e+00  9.543114e+01  0.000000e+00
   endloop
 endfacet
 facet normal  0.000000e+00  1.000000e+00  0.000000e+00
   outer loop
     vertex  1.186554e+02  9.543114e+01  6.000000e+01
     vertex  0.000000e+00  9.543114e+01  0.000000e+00
     vertex  0.000000e+00  9.543114e+01  6.000000e+01
   endloop
 endfacet
 facet normal -0.000000e+00  0.000000e+00 -1.000000e+00
   outer loop
     vertex  1.186554e+02  9.543114e+01  0.000000e+00
     vertex  0.000000e+00  0.000000e+00  0.000000e+00
     vertex  0.000000e+00  9.543114e+01  0.000000e+00
   endloop
 endfacet
 facet normal  0.000000e+00 -0.000000e+00 -1.000000e+00
   outer loop
     vertex  1.186554e+02  9.543114e+01  0.000000e+00
     vertex  1.186554e+02  0.000000e+00  0.000000e+00
     vertex  0.000000e+00  0.000000e+00  0.000000e+00
   endloop
 endfacet
 facet normal  1.000000e+00  0.000000e+00  0.000000e+00
   outer loop
     vertex  1.186554e+02  0.000000e+00  6.000000e+01
     vertex  1.186554e+02  0.000000e+00  0.000000e+00
     vertex  1.186554e+02  9.543114e+01  0.000000e+00
   endloop
 endfacet
 facet normal  1.000000e+00 -0.000000e+00  0.000000e+00
   outer loop
     vertex  1.186554e+02  0.000000e+00  6.000000e+01
     vertex  1.186554e+02  9.543114e+01  0.000000e+00
     vertex  1.186554e+02  9.543114e+01  6.000000e+01
   endloop
 endfacet
 facet normal -9.322748e-01 -1.131987e-01  3.435837e-01
   outer loop
     vertex  9.462465e+01  5.200918e+01  6.000000e+01
     vertex  9.389705e+01  4.850196e+01  5.687023e+01
     vertex  9.505050e+01  4.850196e+01  6.000000e+01
   endloop
 endfacet
 facet normal -9.322748e-01  1.131987e-01  3.435837e-01
   outer loop
     vertex  9.505050e+01  4.850196e+01  6.000000e+01
     vertex  9.389705e+01  4.850196e+01  5.687023e+01
     vertex  9.462465e+01  4.499473e+01  6.000000e+01
   endloop
 endfacet
 facet normal -1.088827e-01 -1.691118e-01  9.795641e-01
   outer loop
     vertex  8.432219e+01  4.904170e+01  4.905676e+01
     vertex  8.039528e+01  4.850196e+01  4.852708e+01
     vertex  8.371042e+01  4.850196e+01  4.889557e+01
   endloop
 endfacet
 facet normal -3.247952e-01  8.689901e-02  9.417837e-01
   outer loop
     vertex  8.432219e+01  4.904170e+01  4.905676e+01
     vertex  8.371042e+01  4.850196e+01  4.889557e+01
     vertex  8.686371e+01  4.850196e+01  4.998306e+01
   endloop
 endfacet
 facet normal -1.287156e-01 -3.606442e-02  9.910256e-01
   outer loop
     vertex  8.403095e+01  5.008115e+01  4.905676e+01
     vertex  8.039528e+01  4.850196e+01  4.852708e+01
     vertex  8.432219e+01  4.904170e+01  4.905676e+01
   endloop
 endfacet
 facet normal -1.142124e-01 -6.945411e-02  9.910256e-01
   outer loop
     vertex  8.347007e+01  5.100349e+01  4.905676e+01
     vertex  8.039528e+01  4.850196e+01  4.852708e+01
     vertex  8.403095e+01  5.008115e+01  4.905676e+01
   endloop
 endfacet
 facet normal -5.254421e-01 -2.925727e-02  8.503262e-01
   outer loop
     vertex  8.776113e+01  5.056577e+01  5.060861e+01
     vertex  8.686371e+01  4.850196e+01  4.998306e+01
     vertex  8.970124e+01  4.850196e+01  5.173645e+01
   endloop
 endfacet
 facet normal -3.705093e-01 -1.038118e-01  9.230092e-01
   outer loop
     vertex  8.776113e+01  5.056577e+01  5.060861e+01
     vertex  8.403095e+01  5.008115e+01  4.905676e+01
     vertex  8.432219e+01  4.904170e+01  4.905676e+01
   endloop
 endfacet
 facet normal -3.626887e-01 -1.223130e-01  9.238487e-01
   outer loop
     vertex  8.776113e+01  5.056577e+01  5.060861e+01
     vertex  8.432219e+01  4.904170e+01  4.905676e+01
     vertex  8.686371e+01  4.850196e+01  4.998306e+01
   endloop
 endfacet
 facet normal -9.123862e-02 -9.769271e-02  9.910256e-01
   outer loop
     vertex  8.268114e+01  5.174029e+01  4.905676e+01
     vertex  8.039528e+01  4.850196e+01  4.852708e+01
     vertex  8.347007e+01  5.100349e+01  4.905676e+01
   endloop
 endfacet
 facet normal -3.287617e-01 -1.999244e-01  9.230092e-01
   outer loop
     vertex  8.693117e+01  5.247653e+01  5.060861e+01
     vertex  8.347007e+01  5.100349e+01  4.905676e+01
     vertex  8.403095e+01  5.008115e+01  4.905676e+01
   endloop
 endfacet
 facet normal -3.618607e-01 -1.571783e-01  9.188862e-01
   outer loop
     vertex  8.693117e+01  5.247653e+01  5.060861e+01
     vertex  8.403095e+01  5.008115e+01  4.905676e+01
     vertex  8.776113e+01  5.056577e+01  5.060861e+01
   endloop
 endfacet
 facet normal -6.995894e-01  1.247038e-02  7.144362e-01
   outer loop
     vertex  9.109313e+01  4.997234e+01  5.307375e+01
     vertex  8.970124e+01  4.850196e+01  5.173645e+01
     vertex  9.208446e+01  4.850196e+01  5.407015e+01
   endloop
 endfacet
 facet normal -6.049033e-01 -1.402866e-01  7.838442e-01
   outer loop
     vertex  9.109313e+01  4.997234e+01  5.307375e+01
     vertex  8.776113e+01  5.056577e+01  5.060861e+01
     vertex  8.970124e+01  4.850196e+01  5.173645e+01
   endloop
 endfacet
 facet normal -6.149807e-02 -1.186859e-01  9.910256e-01
   outer loop
     vertex  8.172269e+01  5.223692e+01  4.905676e+01
     vertex  8.039528e+01  4.850196e+01  4.852708e+01
     vertex  8.268114e+01  5.174029e+01  4.905676e+01
   endloop
 endfacet
 facet normal -2.626313e-01 -2.812095e-01  9.230092e-01
   outer loop
     vertex  8.561648e+01  5.409250e+01  5.060861e+01
     vertex  8.268114e+01  5.174029e+01  4.905676e+01
     vertex  8.347007e+01  5.100349e+01  4.905676e+01
   endloop
 endfacet
 facet normal -3.060357e-01 -2.489785e-01  9.188862e-01
   outer loop
     vertex  8.561648e+01  5.409250e+01  5.060861e+01
     vertex  8.347007e+01  5.100349e+01  4.905676e+01
     vertex  8.693117e+01  5.247653e+01  5.060861e+01
   endloop
 endfacet
 facet normal -6.054863e-01 -1.696493e-01  7.775638e-01
   outer loop
     vertex  9.029972e+01  5.280406e+01  5.307375e+01
     vertex  8.776113e+01  5.056577e+01  5.060861e+01
     vertex  9.109313e+01  4.997234e+01  5.307375e+01
   endloop
 endfacet
 facet normal -5.575406e-01 -2.421741e-01  7.940404e-01
   outer loop
     vertex  9.029972e+01  5.280406e+01  5.307375e+01
     vertex  8.693117e+01  5.247653e+01  5.060861e+01
     vertex  8.776113e+01  5.056577e+01  5.060861e+01
   endloop
 endfacet
 facet normal -2.719648e-02 -1.308767e-01  9.910256e-01
   outer loop
     vertex  8.066578e+01  5.245655e+01  4.905676e+01
     vertex  8.039528e+01  4.850196e+01  4.852708e+01
     vertex  8.172269e+01  5.223692e+01  4.905676e+01
   endloop
 endfacet
 facet normal -2.275135e-01 -3.223132e-01  9.188862e-01
   outer loop
     vertex  8.391455e+01  5.529385e+01  5.060861e+01
     vertex  8.268114e+01  5.174029e+01  4.905676e+01
     vertex  8.561648e+01  5.409250e+01  5.060861e+01
   endloop
 endfacet
 facet normal -1.770228e-01 -3.416386e-01  9.230092e-01
   outer loop
     vertex  8.391455e+01  5.529385e+01  5.060861e+01
     vertex  8.172269e+01  5.223692e+01  4.905676e+01
     vertex  8.268114e+01  5.174029e+01  4.905676e+01
   endloop
 endfacet
 facet normal -4.715277e-01 -3.836162e-01  7.940404e-01
   outer loop
     vertex  8.877174e+01  5.531671e+01  5.307375e+01
     vertex  8.561648e+01  5.409250e+01  5.060861e+01
     vertex  8.693117e+01  5.247653e+01  5.060861e+01
   endloop
 endfacet
 facet normal -5.372624e-01 -3.267165e-01  7.775638e-01
   outer loop
     vertex  8.877174e+01  5.531671e+01  5.307375e+01
     vertex  8.693117e+01  5.247653e+01  5.060861e+01
     vertex  9.029972e+01  5.280406e+01  5.307375e+01
   endloop
 endfacet
 facet normal  9.122137e-03 -1.333609e-01  9.910256e-01
   outer loop
     vertex  7.958881e+01  5.238288e+01  4.905676e+01
     vertex  8.039528e+01  4.850196e+01  4.852708e+01
     vertex  8.066578e+01  5.245655e+01  4.905676e+01
   endloop
 endfacet
 facet normal -8.742375e-01 -3.315546e-01  3.546552e-01
   outer loop
     vertex  9.309576e+01  5.206047e+01  5.627919e+01
     vertex  9.462465e+01  5.200918e+01  6.000000e+01
     vertex  9.337184e+01  5.531258e+01  6.000000e+01
   endloop
 endfacet
 facet normal -7.967923e-01 -1.386551e-01  5.881299e-01
   outer loop
     vertex  9.309576e+01  5.206047e+01  5.627919e+01
     vertex  9.109313e+01  4.997234e+01  5.307375e+01
     vertex  9.208446e+01  4.850196e+01  5.407015e+01
   endloop
 endfacet
 facet normal -8.354004e-01 -9.829048e-02  5.407819e-01
   outer loop
     vertex  9.309576e+01  5.206047e+01  5.627919e+01
     vertex  9.208446e+01  4.850196e+01  5.407015e+01
     vertex  9.389705e+01  4.850196e+01  5.687023e+01
   endloop
 endfacet
 facet normal -9.160053e-01 -1.440751e-01  3.744017e-01
   outer loop
     vertex  9.309576e+01  5.206047e+01  5.627919e+01
     vertex  9.389705e+01  4.850196e+01  5.687023e+01
     vertex  9.462465e+01  5.200918e+01  6.000000e+01
   endloop
 endfacet
 facet normal -7.602391e-01 -2.130090e-01  6.137293e-01
   outer loop
     vertex  9.309576e+01  5.206047e+01  5.627919e+01
     vertex  9.029972e+01  5.280406e+01  5.307375e+01
     vertex  9.109313e+01  4.997234e+01  5.307375e+01
   endloop
 endfacet
 facet normal -1.321176e-01 -3.717433e-01  9.188862e-01
   outer loop
     vertex  8.195162e+01  5.599148e+01  5.060861e+01
     vertex  8.172269e+01  5.223692e+01  4.905676e+01
     vertex  8.391455e+01  5.529385e+01  5.060861e+01
   endloop
 endfacet
 facet normal -7.828537e-02 -3.767299e-01  9.230092e-01
   outer loop
     vertex  8.195162e+01  5.599148e+01  5.060861e+01
     vertex  8.066578e+01  5.245655e+01  4.905676e+01
     vertex  8.172269e+01  5.223692e+01  4.905676e+01
   endloop
 endfacet
 facet normal -4.291922e-01 -4.595526e-01  7.775638e-01
   outer loop
     vertex  8.662252e+01  5.732395e+01  5.307375e+01
     vertex  8.561648e+01  5.409250e+01  5.060861e+01
     vertex  8.877174e+01  5.531671e+01  5.307375e+01
   endloop
 endfacet
 facet normal -3.505438e-01 -4.966074e-01  7.940404e-01
   outer loop
     vertex  8.662252e+01  5.732395e+01  5.307375e+01
     vertex  8.391455e+01  5.529385e+01  5.060861e+01
     vertex  8.561648e+01  5.409250e+01  5.060861e+01
   endloop
 endfacet
 facet normal  4.476421e-02 -1.259544e-01  9.910256e-01
   outer loop
     vertex  7.857166e+01  5.202139e+01  4.905676e+01
     vertex  8.039528e+01  4.850196e+01  4.852708e+01
     vertex  7.958881e+01  5.238288e+01  4.905676e+01
   endloop
 endfacet
 facet normal -7.715683e-01 -5.325751e-01  3.479168e-01
   outer loop
     vertex  9.166472e+01  5.535506e+01  5.627919e+01
     vertex  9.337184e+01  5.531258e+01  6.000000e+01
     vertex  9.136487e+01  5.822017e+01  6.000000e+01
   endloop
 endfacet
 facet normal -7.487095e-01 -3.252104e-01  5.776438e-01
   outer loop
     vertex  9.166472e+01  5.535506e+01  5.627919e+01
     vertex  9.029972e+01  5.280406e+01  5.307375e+01
     vertex  9.309576e+01  5.206047e+01  5.627919e+01
   endloop
 endfacet
 facet normal -8.467758e-01 -3.678067e-01  3.843032e-01
   outer loop
     vertex  9.166472e+01  5.535506e+01  5.627919e+01
     vertex  9.309576e+01  5.206047e+01  5.627919e+01
     vertex  9.337184e+01  5.531258e+01  6.000000e+01
   endloop
 endfacet
 facet normal -6.745783e-01 -4.102201e-01  6.137293e-01
   outer loop
     vertex  9.166472e+01  5.535506e+01  5.627919e+01
     vertex  8.877174e+01  5.531671e+01  5.307375e+01
     vertex  9.029972e+01  5.280406e+01  5.307375e+01
   endloop
 endfacet
 facet normal -2.692318e-02 -3.936030e-01  9.188862e-01
   outer loop
     vertex  7.987326e+01  5.613364e+01  5.060861e+01
     vertex  8.066578e+01  5.245655e+01  4.905676e+01
     vertex  8.195162e+01  5.599148e+01  5.060861e+01
   endloop
 endfacet
 facet normal  2.625817e-02 -3.838809e-01  9.230092e-01
   outer loop
     vertex  7.987326e+01  5.613364e+01  5.060861e+01
     vertex  7.958881e+01  5.238288e+01  4.905676e+01
     vertex  8.066578e+01  5.245655e+01  4.905676e+01
   endloop
 endfacet
 facet normal -2.892908e-01 -5.583058e-01  7.775638e-01
   outer loop
     vertex  8.401145e+01  5.867689e+01  5.307375e+01
     vertex  8.391455e+01  5.529385e+01  5.060861e+01
     vertex  8.662252e+01  5.732395e+01  5.307375e+01
   endloop
 endfacet
 facet normal -2.035616e-01 -5.727674e-01  7.940404e-01
   outer loop
     vertex  8.401145e+01  5.867689e+01  5.307375e+01
     vertex  8.195162e+01  5.599148e+01  5.060861e+01
     vertex  8.391455e+01  5.529385e+01  5.060861e+01
   endloop
 endfacet
 facet normal  7.708633e-02 -1.092064e-01  9.910256e-01
   outer loop
     vertex  7.768975e+01  5.139887e+01  4.905676e+01
     vertex  8.039528e+01  4.850196e+01  4.852708e+01
     vertex  7.857166e+01  5.202139e+01  4.905676e+01
   endloop
 endfacet
 facet normal -6.226424e-01 -7.028180e-01  3.440395e-01
   outer loop
     vertex  8.939788e+01  5.814139e+01  5.627919e+01
     vertex  9.136487e+01  5.822017e+01  6.000000e+01
     vertex  8.872040e+01  6.056297e+01  6.000000e+01
   endloop
 endfacet
 facet normal -5.388870e-01 -5.770071e-01  6.137293e-01
   outer loop
     vertex  8.939788e+01  5.814139e+01  5.627919e+01
     vertex  8.662252e+01  5.732395e+01  5.307375e+01
     vertex  8.877174e+01  5.531671e+01  5.307375e+01
   endloop
 endfacet
 facet normal -6.332046e-01 -5.151501e-01  5.776438e-01
   outer loop
     vertex  8.939788e+01  5.814139e+01  5.627919e+01
     vertex  8.877174e+01  5.531671e+01  5.307375e+01
     vertex  9.166472e+01  5.535506e+01  5.627919e+01
   endloop
 endfacet
 facet normal -7.143116e-01 -5.811356e-01  3.899236e-01
   outer loop
     vertex  8.939788e+01  5.814139e+01  5.627919e+01
     vertex  9.166472e+01  5.535506e+01  5.627919e+01
     vertex  9.136487e+01  5.822017e+01  6.000000e+01
   endloop
 endfacet
 facet normal  8.026801e-02 -3.862709e-01  9.188862e-01
   outer loop
     vertex  7.783361e+01  5.570980e+01  5.060861e+01
     vertex  7.958881e+01  5.238288e+01  4.905676e+01
     vertex  7.987326e+01  5.613364e+01  5.060861e+01
   endloop
 endfacet
 facet normal  1.288543e-01 -3.625611e-01  9.230092e-01
   outer loop
     vertex  7.783361e+01  5.570980e+01  5.060861e+01
     vertex  7.857166e+01  5.202139e+01  4.905676e+01
     vertex  7.958881e+01  5.238288e+01  4.905676e+01
   endloop
 endfacet
 facet normal -4.148217e-02 -6.064479e-01  7.940404e-01
   outer loop
     vertex  8.113219e+01  5.927521e+01  5.307375e+01
     vertex  7.987326e+01  5.613364e+01  5.060861e+01
     vertex  8.195162e+01  5.599148e+01  5.060861e+01
   endloop
 endfacet
 facet normal -1.279340e-01 -6.156521e-01  7.775638e-01
   outer loop
     vertex  8.113219e+01  5.927521e+01  5.307375e+01
     vertex  8.195162e+01  5.599148e+01  5.060861e+01
     vertex  8.401145e+01  5.867689e+01  5.307375e+01
   endloop
 endfacet
 facet normal  1.036913e-01 -8.435913e-02  9.910256e-01
   outer loop
     vertex  7.700850e+01  5.056150e+01  4.905676e+01
     vertex  8.039528e+01  4.850196e+01  4.852708e+01
     vertex  7.768975e+01  5.139887e+01  4.905676e+01
   endloop
 endfacet
 facet normal -4.365195e-01 -8.317185e-01  3.430672e-01
   outer loop
     vertex  8.646335e+01  6.021280e+01  5.627919e+01
     vertex  8.872040e+01  6.056297e+01  6.000000e+01
     vertex  8.559209e+01  6.220483e+01  6.000000e+01
   endloop
 endfacet
 facet normal -3.632290e-01 -7.010001e-01  6.137293e-01
   outer loop
     vertex  8.646335e+01  6.021280e+01  5.627919e+01
     vertex  8.401145e+01  5.867689e+01  5.307375e+01
     vertex  8.662252e+01  5.732395e+01  5.307375e+01
   endloop
 endfacet
 facet normal -4.707378e-01 -6.668835e-01  5.776438e-01
   outer loop
     vertex  8.646335e+01  6.021280e+01  5.627919e+01
     vertex  8.662252e+01  5.732395e+01  5.307375e+01
     vertex  8.939788e+01  5.814139e+01  5.627919e+01
   endloop
 endfacet
 facet normal -5.304114e-01 -7.514218e-01  3.924652e-01
   outer loop
     vertex  8.646335e+01  6.021280e+01  5.627919e+01
     vertex  8.939788e+01  5.814139e+01  5.627919e+01
     vertex  8.872040e+01  6.056297e+01  6.000000e+01
   endloop
 endfacet
 facet normal  1.815061e-01 -3.502909e-01  9.188862e-01
   outer loop
     vertex  7.598395e+01  5.475138e+01  5.060861e+01
     vertex  7.857166e+01  5.202139e+01  4.905676e+01
     vertex  7.783361e+01  5.570980e+01  5.060861e+01
   endloop
 endfacet
 facet normal  2.218938e-01 -3.143519e-01  9.230092e-01
   outer loop
     vertex  7.598395e+01  5.475138e+01  5.060861e+01
     vertex  7.768975e+01  5.139887e+01  4.905676e+01
     vertex  7.857166e+01  5.202139e+01  4.905676e+01
   endloop
 endfacet
 facet normal  1.236738e-01 -5.951509e-01  7.940404e-01
   outer loop
     vertex  7.819828e+01  5.907452e+01  5.307375e+01
     vertex  7.783361e+01  5.570980e+01  5.060861e+01
     vertex  7.987326e+01  5.613364e+01  5.060861e+01
   endloop
 endfacet
 facet normal  4.291111e-02 -6.273382e-01  7.775638e-01
   outer loop
     vertex  7.819828e+01  5.907452e+01  5.307375e+01
     vertex  7.987326e+01  5.613364e+01  5.060861e+01
     vertex  8.113219e+01  5.927521e+01  5.307375e+01
   endloop
 endfacet
 facet normal  1.226060e-01 -5.325529e-02  9.910256e-01
   outer loop
     vertex  7.657844e+01  4.957139e+01  4.905676e+01
     vertex  8.039528e+01  4.850196e+01  4.852708e+01
     vertex  7.700850e+01  5.056150e+01  4.905676e+01
   endloop
 endfacet
 facet normal -2.246214e-01 -9.113248e-01  3.450107e-01
   outer loop
     vertex  8.307878e+01  6.141568e+01  5.627919e+01
     vertex  8.559209e+01  6.220483e+01  6.000000e+01
     vertex  8.216177e+01  6.305033e+01  6.000000e+01
   endloop
 endfacet
 facet normal -3.080837e-01 -8.668643e-01  3.919576e-01
   outer loop
     vertex  8.307878e+01  6.141568e+01  5.627919e+01
     vertex  8.646335e+01  6.021280e+01  5.627919e+01
     vertex  8.559209e+01  6.220483e+01  6.000000e+01
   endloop
 endfacet
 facet normal -1.606319e-01 -7.730031e-01  6.137293e-01
   outer loop
     vertex  8.307878e+01  6.141568e+01  5.627919e+01
     vertex  8.113219e+01  5.927521e+01  5.307375e+01
     vertex  8.401145e+01  5.867689e+01  5.307375e+01
   endloop
 endfacet
 facet normal -2.733585e-01 -7.691572e-01  5.776438e-01
   outer loop
     vertex  8.307878e+01  6.141568e+01  5.627919e+01
     vertex  8.401145e+01  5.867689e+01  5.307375e+01
     vertex  8.646335e+01  6.021280e+01  5.627919e+01
   endloop
 endfacet
 facet normal  2.984765e-01 -2.428287e-01  9.230092e-01
   outer loop
     vertex  7.446146e+01  5.332948e+01  5.060861e+01
     vertex  7.700850e+01  5.056150e+01  4.905676e+01
     vertex  7.768975e+01  5.139887e+01  4.905676e+01
   endloop
 endfacet
 facet normal  2.692827e-01 -2.883314e-01  9.188862e-01
   outer loop
     vertex  7.446146e+01  5.332948e+01  5.060861e+01
     vertex  7.768975e+01  5.139887e+01  4.905676e+01
     vertex  7.598395e+01  5.475138e+01  5.060861e+01
   endloop
 endfacet
 facet normal  2.796574e-01 -5.397143e-01  7.940404e-01
   outer loop
     vertex  7.542730e+01  5.808972e+01  5.307375e+01
     vertex  7.598395e+01  5.475138e+01  5.060861e+01
     vertex  7.783361e+01  5.570980e+01  5.060861e+01
   endloop
 endfacet
 facet normal  2.105737e-01 -5.924975e-01  7.775638e-01
   outer loop
     vertex  7.542730e+01  5.808972e+01  5.307375e+01
     vertex  7.783361e+01  5.570980e+01  5.060861e+01
     vertex  7.819828e+01  5.907452e+01  5.307375e+01
   endloop
 endfacet
 facet normal  1.324275e-01 -1.820174e-02  9.910256e-01
   outer loop
     vertex  7.643145e+01  4.850196e+01  4.905676e+01
     vertex  8.039528e+01  4.850196e+01  4.852708e+01
     vertex  7.657844e+01  4.957139e+01  4.905676e+01
   endloop
 endfacet
 facet normal  0.000000e+00  0.000000e+00  0.000000e+00
   outer loop
     vertex  7.643145e+01  4.850196e+01  4.905676e+01
     vertex  8.039528e+01  4.850196e+01  4.852708e+01
     vertex  8.039528e+01  4.850196e+01  4.852708e+01
   endloop
 endfacet
 facet normal  0.000000e+00 -9.368064e-01  3.498482e-01
   outer loop
     vertex  7.949519e+01  6.166080e+01  5.627919e+01
     vertex  8.216177e+01  6.305033e+01  6.000000e+01
     vertex  7.862879e+01  6.305033e+01  6.000000e+01
   endloop
 endfacet
 facet normal -6.288491e-02 -9.193449e-01  3.883947e-01
   outer loop
     vertex  7.949519e+01  6.166080e+01  5.627919e+01
     vertex  8.307878e+01  6.141568e+01  5.627919e+01
     vertex  8.216177e+01  6.305033e+01  6.000000e+01
   endloop
 endfacet
 facet normal  5.387851e-02 -7.876760e-01  6.137293e-01
   outer loop
     vertex  7.949519e+01  6.166080e+01  5.627919e+01
     vertex  7.819828e+01  5.907452e+01  5.307375e+01
     vertex  8.113219e+01  5.927521e+01  5.307375e+01
   endloop
 endfacet
 facet normal -5.570553e-02 -8.143860e-01  5.776438e-01
   outer loop
     vertex  7.949519e+01  6.166080e+01  5.627919e+01
     vertex  8.113219e+01  5.927521e+01  5.307375e+01
     vertex  8.307878e+01  6.141568e+01  5.627919e+01
   endloop
 endfacet
 facet normal  3.529226e-01 -1.532959e-01  9.230092e-01
   outer loop
     vertex  7.337906e+01  5.154954e+01  5.060861e+01
     vertex  7.657844e+01  4.957139e+01  4.905676e+01
     vertex  7.700850e+01  5.056150e+01  4.905676e+01
   endloop
 endfacet
 facet normal  3.370878e-01 -2.049877e-01  9.188862e-01
   outer loop
     vertex  7.337906e+01  5.154954e+01  5.060861e+01
     vertex  7.700850e+01  5.056150e+01  4.905676e+01
     vertex  7.446146e+01  5.332948e+01  5.060861e+01
   endloop
 endfacet
 facet normal  4.149001e-01 -4.442496e-01  7.940404e-01
   outer loop
     vertex  7.302478e+01  5.639384e+01  5.307375e+01
     vertex  7.446146e+01  5.332948e+01  5.060861e+01
     vertex  7.598395e+01  5.475138e+01  5.060861e+01
   endloop
 endfacet
 facet normal  3.626189e-01 -5.137140e-01  7.775638e-01
   outer loop
     vertex  7.302478e+01  5.639384e+01  5.307375e+01
     vertex  7.598395e+01  5.475138e+01  5.060861e+01
     vertex  7.542730e+01  5.808972e+01  5.307375e+01
   endloop
 endfacet
 facet normal  1.324275e-01  1.820174e-02  9.910256e-01
   outer loop
     vertex  7.657844e+01  4.743253e+01  4.905676e+01
     vertex  8.039528e+01  4.850196e+01  4.852708e+01
     vertex  7.643145e+01  4.850196e+01  4.905676e+01
   endloop
 endfacet
 facet normal  2.234978e-01 -9.067661e-01  3.575248e-01
   outer loop
     vertex  7.597835e+01  6.092999e+01  5.627919e+01
     vertex  7.862879e+01  6.305033e+01  6.000000e+01
     vertex  7.519847e+01  6.220483e+01  6.000000e+01
   endloop
 endfacet
 facet normal  1.880486e-01 -9.049397e-01  3.817353e-01
   outer loop
     vertex  7.597835e+01  6.092999e+01  5.627919e+01
     vertex  7.949519e+01  6.166080e+01  5.627919e+01
     vertex  7.862879e+01  6.305033e+01  6.000000e+01
   endloop
 endfacet
 facet normal  2.643930e-01 -7.439306e-01  6.137293e-01
   outer loop
     vertex  7.597835e+01  6.092999e+01  5.627919e+01
     vertex  7.542730e+01  5.808972e+01  5.307375e+01
     vertex  7.819828e+01  5.907452e+01  5.307375e+01
   endloop
 endfacet
 facet normal  1.660789e-01 -7.992155e-01  5.776438e-01
   outer loop
     vertex  7.597835e+01  6.092999e+01  5.627919e+01
     vertex  7.819828e+01  5.907452e+01  5.307375e+01
     vertex  7.949519e+01  6.166080e+01  5.627919e+01
   endloop
 endfacet
 facet normal  3.811940e-01 -5.239391e-02  9.230092e-01
   outer loop
     vertex  7.281701e+01  4.954357e+01  5.060861e+01
     vertex  7.643145e+01  4.850196e+01  4.905676e+01
     vertex  7.657844e+01  4.957139e+01  4.905676e+01
   endloop
 endfacet
 facet normal  3.798927e-01 -1.064409e-01  9.188862e-01
   outer loop
     vertex  7.281701e+01  4.954357e+01  5.060861e+01
     vertex  7.657844e+01  4.957139e+01  4.905676e+01
     vertex  7.337906e+01  5.154954e+01  5.060861e+01
   endloop
 endfacet
 facet normal  5.193716e-01 -3.158369e-01  7.940404e-01
   outer loop
     vertex  7.116890e+01  5.411265e+01  5.307375e+01
     vertex  7.337906e+01  5.154954e+01  5.060861e+01
     vertex  7.446146e+01  5.332948e+01  5.060861e+01
   endloop
 endfacet
 facet normal  4.877704e-01 -3.968307e-01  7.775638e-01
   outer loop
     vertex  7.116890e+01  5.411265e+01  5.307375e+01
     vertex  7.446146e+01  5.332948e+01  5.060861e+01
     vertex  7.302478e+01  5.639384e+01  5.307375e+01
   endloop
 endfacet
 facet normal  1.226060e-01  5.325529e-02  9.910256e-01
   outer loop
     vertex  7.700850e+01  4.644242e+01  4.905676e+01
     vertex  8.039528e+01  4.850196e+01  4.852708e+01
     vertex  7.657844e+01  4.743253e+01  4.905676e+01
   endloop
 endfacet
 facet normal  4.321204e-01 -8.233367e-01  3.679519e-01
   outer loop
     vertex  7.278910e+01  5.927746e+01  5.627919e+01
     vertex  7.519847e+01  6.220483e+01  6.000000e+01
     vertex  7.207016e+01  6.056297e+01  6.000000e+01
   endloop
 endfacet
 facet normal  6.184824e-01 -6.981224e-01  3.607002e-01
   outer loop
     vertex  7.278910e+01  5.927746e+01  5.627919e+01
     vertex  7.207016e+01  6.056297e+01  6.000000e+01
     vertex  6.942569e+01  5.822017e+01  6.000000e+01
   endloop
 endfacet
 facet normal  4.270652e-01 -8.241985e-01  3.719033e-01
   outer loop
     vertex  7.278910e+01  5.927746e+01  5.627919e+01
     vertex  7.597835e+01  6.092999e+01  5.627919e+01
     vertex  7.519847e+01  6.220483e+01  6.000000e+01
   endloop
 endfacet
 facet normal  4.552987e-01 -6.450112e-01  6.137293e-01
   outer loop
     vertex  7.278910e+01  5.927746e+01  5.627919e+01
     vertex  7.302478e+01  5.639384e+01  5.307375e+01
     vertex  7.542730e+01  5.808972e+01  5.307375e+01
   endloop
 endfacet
 facet normal  3.755460e-01 -7.247709e-01  5.776438e-01
   outer loop
     vertex  7.278910e+01  5.927746e+01  5.627919e+01
     vertex  7.542730e+01  5.808972e+01  5.307375e+01
     vertex  7.597835e+01  6.092999e+01  5.627919e+01
   endloop
 endfacet
 facet normal  3.811940e-01  5.239391e-02  9.230092e-01
   outer loop
     vertex  7.281701e+01  4.746035e+01  5.060861e+01
     vertex  7.657844e+01  4.743253e+01  4.905676e+01
     vertex  7.643145e+01  4.850196e+01  4.905676e+01
   endloop
 endfacet
 facet normal  3.945227e-01 -0.000000e+00  9.188862e-01
   outer loop
     vertex  7.281701e+01  4.746035e+01  5.060861e+01
     vertex  7.643145e+01  4.850196e+01  4.905676e+01
     vertex  7.281701e+01  4.954357e+01  5.060861e+01
   endloop
 endfacet
 facet normal  5.853237e-01 -1.640000e-01  7.940404e-01
   outer loop
     vertex  6.999729e+01  5.141534e+01  5.307375e+01
     vertex  7.281701e+01  4.954357e+01  5.060861e+01
     vertex  7.337906e+01  5.154954e+01  5.060861e+01
   endloop
 endfacet
 facet normal  5.767462e-01 -2.505162e-01  7.775638e-01
   outer loop
     vertex  6.999729e+01  5.141534e+01  5.307375e+01
     vertex  7.337906e+01  5.154954e+01  5.060861e+01
     vertex  7.116890e+01  5.411265e+01  5.307375e+01
   endloop
 endfacet
 facet normal  1.036913e-01  8.435913e-02  9.910256e-01
   outer loop
     vertex  7.768975e+01  4.560505e+01  4.905676e+01
     vertex  8.039528e+01  4.850196e+01  4.852708e+01
     vertex  7.700850e+01  4.644242e+01  4.905676e+01
   endloop
 endfacet
 facet normal  5.571606e-01 -5.965733e-01  5.776438e-01
   outer loop
     vertex  7.016397e+01  5.682575e+01  5.627919e+01
     vertex  7.302478e+01  5.639384e+01  5.307375e+01
     vertex  7.278910e+01  5.927746e+01  5.627919e+01
   endloop
 endfacet
 facet normal  7.702834e-01 -5.316882e-01  3.520953e-01
   outer loop
     vertex  7.016397e+01  5.682575e+01  5.627919e+01
     vertex  6.942569e+01  5.822017e+01  6.000000e+01
     vertex  6.741872e+01  5.531258e+01  6.000000e+01
   endloop
 endfacet
 facet normal  6.316840e-01 -6.763685e-01  3.788152e-01
   outer loop
     vertex  7.016397e+01  5.682575e+01  5.627919e+01
     vertex  7.278910e+01  5.927746e+01  5.627919e+01
     vertex  6.942569e+01  5.822017e+01  6.000000e+01
   endloop
 endfacet
 facet normal  6.124369e-01 -4.982544e-01  6.137293e-01
   outer loop
     vertex  7.016397e+01  5.682575e+01  5.627919e+01
     vertex  7.116890e+01  5.411265e+01  5.307375e+01
     vertex  7.302478e+01  5.639384e+01  5.307375e+01
   endloop
 endfacet
 facet normal  3.798927e-01  1.064409e-01  9.188862e-01
   outer loop
     vertex  7.337906e+01  4.545438e+01  5.060861e+01
     vertex  7.657844e+01  4.743253e+01  4.905676e+01
     vertex  7.281701e+01  4.746035e+01  5.060861e+01
   endloop
 endfacet
 facet normal  3.529226e-01  1.532959e-01  9.230092e-01
   outer loop
     vertex  7.337906e+01  4.545438e+01  5.060861e+01
     vertex  7.700850e+01  4.644242e+01  4.905676e+01
     vertex  7.657844e+01  4.743253e+01  4.905676e+01
   endloop
 endfacet
 facet normal  6.078650e-01  0.000000e+00  7.940404e-01
   outer loop
     vertex  6.959686e+01  4.850196e+01  5.307375e+01
     vertex  7.281701e+01  4.746035e+01  5.060861e+01
     vertex  7.281701e+01  4.954357e+01  5.060861e+01
   endloop
 endfacet
 facet normal  6.229474e-01 -8.562214e-02  7.775638e-01
   outer loop
     vertex  6.959686e+01  4.850196e+01  5.307375e+01
     vertex  7.281701e+01  4.954357e+01  5.060861e+01
     vertex  6.999729e+01  5.141534e+01  5.307375e+01
   endloop
 endfacet
 facet normal  7.708633e-02  1.092064e-01  9.910256e-01
   outer loop
     vertex  7.857166e+01  4.498253e+01  4.905676e+01
     vertex  8.039528e+01  4.850196e+01  4.852708e+01
     vertex  7.768975e+01  4.560505e+01  4.905676e+01
   endloop
 endfacet
 facet normal  7.241535e-01 -3.145443e-01  6.137293e-01
   outer loop
     vertex  6.829764e+01  5.375671e+01  5.627919e+01
     vertex  6.999729e+01  5.141534e+01  5.307375e+01
     vertex  7.116890e+01  5.411265e+01  5.307375e+01
   endloop
 endfacet
 facet normal  7.880141e-01 -4.792020e-01  3.865220e-01
   outer loop
     vertex  6.829764e+01  5.375671e+01  5.627919e+01
     vertex  7.016397e+01  5.682575e+01  5.627919e+01
     vertex  6.741872e+01  5.531258e+01  6.000000e+01
   endloop
 endfacet
 facet normal  8.771598e-01 -3.326628e-01  3.463036e-01
   outer loop
     vertex  6.829764e+01  5.375671e+01  5.627919e+01
     vertex  6.741872e+01  5.531258e+01  6.000000e+01
     vertex  6.616591e+01  5.200918e+01  6.000000e+01
   endloop
 endfacet
 facet normal  6.974531e-01 -4.241306e-01  5.776438e-01
   outer loop
     vertex  6.829764e+01  5.375671e+01  5.627919e+01
     vertex  7.116890e+01  5.411265e+01  5.307375e+01
     vertex  7.016397e+01  5.682575e+01  5.627919e+01
   endloop
 endfacet
 facet normal  2.984765e-01  2.428287e-01  9.230092e-01
   outer loop
     vertex  7.446146e+01  4.367444e+01  5.060861e+01
     vertex  7.768975e+01  4.560505e+01  4.905676e+01
     vertex  7.700850e+01  4.644242e+01  4.905676e+01
   endloop
 endfacet
 facet normal  3.370878e-01  2.049877e-01  9.188862e-01
   outer loop
     vertex  7.446146e+01  4.367444e+01  5.060861e+01
     vertex  7.700850e+01  4.644242e+01  4.905676e+01
     vertex  7.337906e+01  4.545438e+01  5.060861e+01
   endloop
 endfacet
 facet normal  5.853237e-01  1.640000e-01  7.940404e-01
   outer loop
     vertex  6.999729e+01  4.558858e+01  5.307375e+01
     vertex  7.337906e+01  4.545438e+01  5.060861e+01
     vertex  7.281701e+01  4.746035e+01  5.060861e+01
   endloop
 endfacet
 facet normal  6.229474e-01  8.562214e-02  7.775638e-01
   outer loop
     vertex  6.999729e+01  4.558858e+01  5.307375e+01
     vertex  7.281701e+01  4.746035e+01  5.060861e+01
     vertex  6.959686e+01  4.850196e+01  5.307375e+01
   endloop
 endfacet
 facet normal  4.476421e-02  1.259544e-01  9.910256e-01
   outer loop
     vertex  7.958881e+01  4.462103e+01  4.905676e+01
     vertex  8.039528e+01  4.850196e+01  4.852708e+01
     vertex  7.857166e+01  4.498253e+01  4.905676e+01
   endloop
 endfacet
 facet normal  9.323446e-01 -1.132071e-01  3.433914e-01
   outer loop
     vertex  6.732854e+01  5.029794e+01  5.627919e+01
     vertex  6.616591e+01  5.200918e+01  6.000000e+01
     vertex  6.574006e+01  4.850196e+01  6.000000e+01
   endloop
 endfacet
 facet normal  7.821629e-01 -1.075058e-01  6.137293e-01
   outer loop
     vertex  6.732854e+01  5.029794e+01  5.627919e+01
     vertex  6.959686e+01  4.850196e+01  5.307375e+01
     vertex  6.999729e+01  5.141534e+01  5.307375e+01
   endloop
 endfacet
 facet normal  8.862148e-01 -2.483057e-01  3.911107e-01
   outer loop
     vertex  6.732854e+01  5.029794e+01  5.627919e+01
     vertex  6.829764e+01  5.375671e+01  5.627919e+01
     vertex  6.616591e+01  5.200918e+01  6.000000e+01
   endloop
 endfacet
 facet normal  7.860188e-01 -2.202321e-01  5.776438e-01
   outer loop
     vertex  6.732854e+01  5.029794e+01  5.627919e+01
     vertex  6.999729e+01  5.141534e+01  5.307375e+01
     vertex  6.829764e+01  5.375671e+01  5.627919e+01
   endloop
 endfacet
 facet normal  2.692827e-01  2.883314e-01  9.188862e-01
   outer loop
     vertex  7.598395e+01  4.225253e+01  5.060861e+01
     vertex  7.768975e+01  4.560505e+01  4.905676e+01
     vertex  7.446146e+01  4.367444e+01  5.060861e+01
   endloop
 endfacet
 facet normal  2.218938e-01  3.143519e-01  9.230092e-01
   outer loop
     vertex  7.598395e+01  4.225253e+01  5.060861e+01
     vertex  7.857166e+01  4.498253e+01  4.905676e+01
     vertex  7.768975e+01  4.560505e+01  4.905676e+01
   endloop
 endfacet
 facet normal  5.767462e-01  2.505162e-01  7.775638e-01
   outer loop
     vertex  7.116890e+01  4.289127e+01  5.307375e+01
     vertex  7.337906e+01  4.545438e+01  5.060861e+01
     vertex  6.999729e+01  4.558858e+01  5.307375e+01
   endloop
 endfacet
 facet normal  5.193716e-01  3.158369e-01  7.940404e-01
   outer loop
     vertex  7.116890e+01  4.289127e+01  5.307375e+01
     vertex  7.446146e+01  4.367444e+01  5.060861e+01
     vertex  7.337906e+01  4.545438e+01  5.060861e+01
   endloop
 endfacet
 facet normal  9.122137e-03  1.333609e-01  9.910256e-01
   outer loop
     vertex  8.066578e+01  4.454737e+01  4.905676e+01
     vertex  8.039528e+01  4.850196e+01  4.852708e+01
     vertex  7.958881e+01  4.462103e+01  4.905676e+01
   endloop
 endfacet
 facet normal  9.323446e-01  1.132071e-01  3.433914e-01
   outer loop
     vertex  6.732854e+01  4.670598e+01  5.627919e+01
     vertex  6.574006e+01  4.850196e+01  6.000000e+01
     vertex  6.616591e+01  4.499473e+01  6.000000e+01
   endloop
 endfacet
 facet normal  9.196947e-01 -0.000000e+00  3.926344e-01
   outer loop
     vertex  6.732854e+01  4.670598e+01  5.627919e+01
     vertex  6.732854e+01  5.029794e+01  5.627919e+01
     vertex  6.574006e+01  4.850196e+01  6.000000e+01
   endloop
 endfacet
 facet normal  7.821629e-01  1.075058e-01  6.137293e-01
   outer loop
     vertex  6.732854e+01  4.670598e+01  5.627919e+01
     vertex  6.999729e+01  4.558858e+01  5.307375e+01
     vertex  6.959686e+01  4.850196e+01  5.307375e+01
   endloop
 endfacet
 facet normal  8.162890e-01 -0.000000e+00  5.776438e-01
   outer loop
     vertex  6.732854e+01  4.670598e+01  5.627919e+01
     vertex  6.959686e+01  4.850196e+01  5.307375e+01
     vertex  6.732854e+01  5.029794e+01  5.627919e+01
   endloop
 endfacet
 facet normal  1.288543e-01  3.625611e-01  9.230092e-01
   outer loop
     vertex  7.783361e+01  4.129412e+01  5.060861e+01
     vertex  7.958881e+01  4.462103e+01  4.905676e+01
     vertex  7.857166e+01  4.498253e+01  4.905676e+01
   endloop
 endfacet
 facet normal  1.815061e-01  3.502909e-01  9.188862e-01
   outer loop
     vertex  7.783361e+01  4.129412e+01  5.060861e+01
     vertex  7.857166e+01  4.498253e+01  4.905676e+01
     vertex  7.598395e+01  4.225253e+01  5.060861e+01
   endloop
 endfacet
 facet normal  4.877704e-01  3.968307e-01  7.775638e-01
   outer loop
     vertex  7.302478e+01  4.061008e+01  5.307375e+01
     vertex  7.446146e+01  4.367444e+01  5.060861e+01
     vertex  7.116890e+01  4.289127e+01  5.307375e+01
   endloop
 endfacet
 facet normal  4.149001e-01  4.442496e-01  7.940404e-01
   outer loop
     vertex  7.302478e+01  4.061008e+01  5.307375e+01
     vertex  7.598395e+01  4.225253e+01  5.060861e+01
     vertex  7.446146e+01  4.367444e+01  5.060861e+01
   endloop
 endfacet
 facet normal -2.719648e-02  1.308767e-01  9.910256e-01
   outer loop
     vertex  8.172269e+01  4.476699e+01  4.905676e+01
     vertex  8.039528e+01  4.850196e+01  4.852708e+01
     vertex  8.066578e+01  4.454737e+01  4.905676e+01
   endloop
 endfacet
 facet normal  8.771598e-01  3.326628e-01  3.463036e-01
   outer loop
     vertex  6.829764e+01  4.324721e+01  5.627919e+01
     vertex  6.616591e+01  4.499473e+01  6.000000e+01
     vertex  6.741872e+01  4.169134e+01  6.000000e+01
   endloop
 endfacet
 facet normal  7.241535e-01  3.145443e-01  6.137293e-01
   outer loop
     vertex  6.829764e+01  4.324721e+01  5.627919e+01
     vertex  7.116890e+01  4.289127e+01  5.307375e+01
     vertex  6.999729e+01  4.558858e+01  5.307375e+01
   endloop
 endfacet
 facet normal  8.862148e-01  2.483057e-01  3.911107e-01
   outer loop
     vertex  6.829764e+01  4.324721e+01  5.627919e+01
     vertex  6.732854e+01  4.670598e+01  5.627919e+01
     vertex  6.616591e+01  4.499473e+01  6.000000e+01
   endloop
 endfacet
 facet normal  7.860188e-01  2.202321e-01  5.776438e-01
   outer loop
     vertex  6.829764e+01  4.324721e+01  5.627919e+01
     vertex  6.999729e+01  4.558858e+01  5.307375e+01
     vertex  6.732854e+01  4.670598e+01  5.627919e+01
   endloop
 endfacet
 facet normal  2.625817e-02  3.838809e-01  9.230092e-01
   outer loop
     vertex  7.987326e+01  4.087028e+01  5.060861e+01
     vertex  8.066578e+01  4.454737e+01  4.905676e+01
     vertex  7.958881e+01  4.462103e+01  4.905676e+01
   endloop
 endfacet
 facet normal  8.026801e-02  3.862709e-01  9.188862e-01
   outer loop
     vertex  7.987326e+01  4.087028e+01  5.060861e+01
     vertex  7.958881e+01  4.462103e+01  4.905676e+01
     vertex  7.783361e+01  4.129412e+01  5.060861e+01
   endloop
 endfacet
 facet normal  2.796574e-01  5.397143e-01  7.940404e-01
   outer loop
     vertex  7.542730e+01  3.891420e+01  5.307375e+01
     vertex  7.783361e+01  4.129412e+01  5.060861e+01
     vertex  7.598395e+01  4.225253e+01  5.060861e+01
   endloop
 endfacet
 facet normal  3.626189e-01  5.137140e-01  7.775638e-01
   outer loop
     vertex  7.542730e+01  3.891420e+01  5.307375e+01
     vertex  7.598395e+01  4.225253e+01  5.060861e+01
     vertex  7.302478e+01  4.061008e+01  5.307375e+01
   endloop
 endfacet
 facet normal -6.149807e-02  1.186859e-01  9.910256e-01
   outer loop
     vertex  8.268114e+01  4.526363e+01  4.905676e+01
     vertex  8.039528e+01  4.850196e+01  4.852708e+01
     vertex  8.172269e+01  4.476699e+01  4.905676e+01
   endloop
 endfacet
 facet normal  7.880141e-01  4.792020e-01  3.865220e-01
   outer loop
     vertex  7.016397e+01  4.017817e+01  5.627919e+01
     vertex  6.829764e+01  4.324721e+01  5.627919e+01
     vertex  6.741872e+01  4.169134e+01  6.000000e+01
   endloop
 endfacet
 facet normal  7.702834e-01  5.316882e-01  3.520953e-01
   outer loop
     vertex  7.016397e+01  4.017817e+01  5.627919e+01
     vertex  6.741872e+01  4.169134e+01  6.000000e+01
     vertex  6.942569e+01  3.878375e+01  6.000000e+01
   endloop
 endfacet
 facet normal  6.974531e-01  4.241306e-01  5.776438e-01
   outer loop
     vertex  7.016397e+01  4.017817e+01  5.627919e+01
     vertex  7.116890e+01  4.289127e+01  5.307375e+01
     vertex  6.829764e+01  4.324721e+01  5.627919e+01
   endloop
 endfacet
 facet normal  6.124369e-01  4.982544e-01  6.137293e-01
   outer loop
     vertex  7.016397e+01  4.017817e+01  5.627919e+01
     vertex  7.302478e+01  4.061008e+01  5.307375e+01
     vertex  7.116890e+01  4.289127e+01  5.307375e+01
   endloop
 endfacet
 facet normal -7.828537e-02  3.767299e-01  9.230092e-01
   outer loop
     vertex  8.195162e+01  4.101244e+01  5.060861e+01
     vertex  8.172269e+01  4.476699e+01  4.905676e+01
     vertex  8.066578e+01  4.454737e+01  4.905676e+01
   endloop
 endfacet
 facet normal -2.692318e-02  3.936030e-01  9.188862e-01
   outer loop
     vertex  8.195162e+01  4.101244e+01  5.060861e+01
     vertex  8.066578e+01  4.454737e+01  4.905676e+01
     vertex  7.987326e+01  4.087028e+01  5.060861e+01
   endloop
 endfacet
 facet normal  1.236738e-01  5.951509e-01  7.940404e-01
   outer loop
     vertex  7.819828e+01  3.792939e+01  5.307375e+01
     vertex  7.987326e+01  4.087028e+01  5.060861e+01
     vertex  7.783361e+01  4.129412e+01  5.060861e+01
   endloop
 endfacet
 facet normal  2.105737e-01  5.924975e-01  7.775638e-01
   outer loop
     vertex  7.819828e+01  3.792939e+01  5.307375e+01
     vertex  7.783361e+01  4.129412e+01  5.060861e+01
     vertex  7.542730e+01  3.891420e+01  5.307375e+01
   endloop
 endfacet
 facet normal -9.123862e-02  9.769271e-02  9.910256e-01
   outer loop
     vertex  8.347007e+01  4.600043e+01  4.905676e+01
     vertex  8.039528e+01  4.850196e+01  4.852708e+01
     vertex  8.268114e+01  4.526363e+01  4.905676e+01
   endloop
 endfacet
 facet normal  6.184824e-01  6.981224e-01  3.607002e-01
   outer loop
     vertex  7.278910e+01  3.772646e+01  5.627919e+01
     vertex  6.942569e+01  3.878375e+01  6.000000e+01
     vertex  7.207016e+01  3.644095e+01  6.000000e+01
   endloop
 endfacet
 facet normal  4.321204e-01  8.233367e-01  3.679519e-01
   outer loop
     vertex  7.278910e+01  3.772646e+01  5.627919e+01
     vertex  7.207016e+01  3.644095e+01  6.000000e+01
     vertex  7.519847e+01  3.479909e+01  6.000000e+01
   endloop
 endfacet
 facet normal  6.316840e-01  6.763685e-01  3.788152e-01
   outer loop
     vertex  7.278910e+01  3.772646e+01  5.627919e+01
     vertex  7.016397e+01  4.017817e+01  5.627919e+01
     vertex  6.942569e+01  3.878375e+01  6.000000e+01
   endloop
 endfacet
 facet normal  4.552987e-01  6.450112e-01  6.137293e-01
   outer loop
     vertex  7.278910e+01  3.772646e+01  5.627919e+01
     vertex  7.542730e+01  3.891420e+01  5.307375e+01
     vertex  7.302478e+01  4.061008e+01  5.307375e+01
   endloop
 endfacet
 facet normal  5.571606e-01  5.965733e-01  5.776438e-01
   outer loop
     vertex  7.278910e+01  3.772646e+01  5.627919e+01
     vertex  7.302478e+01  4.061008e+01  5.307375e+01
     vertex  7.016397e+01  4.017817e+01  5.627919e+01
   endloop
 endfacet
 facet normal -1.321176e-01  3.717433e-01  9.188862e-01
   outer loop
     vertex  8.391455e+01  4.171007e+01  5.060861e+01
     vertex  8.172269e+01  4.476699e+01  4.905676e+01
     vertex  8.195162e+01  4.101244e+01  5.060861e+01
   endloop
 endfacet
 facet normal -1.770228e-01  3.416386e-01  9.230092e-01
   outer loop
     vertex  8.391455e+01  4.171007e+01  5.060861e+01
     vertex  8.268114e+01  4.526363e+01  4.905676e+01
     vertex  8.172269e+01  4.476699e+01  4.905676e+01
   endloop
 endfacet
 facet normal -4.148217e-02  6.064479e-01  7.940404e-01
   outer loop
     vertex  8.113219e+01  3.772871e+01  5.307375e+01
     vertex  8.195162e+01  4.101244e+01  5.060861e+01
     vertex  7.987326e+01  4.087028e+01  5.060861e+01
   endloop
 endfacet
 facet normal  4.291111e-02  6.273382e-01  7.775638e-01
   outer loop
     vertex  8.113219e+01  3.772871e+01  5.307375e+01
     vertex  7.987326e+01  4.087028e+01  5.060861e+01
     vertex  7.819828e+01  3.792939e+01  5.307375e+01
   endloop
 endfacet
 facet normal -1.142124e-01  6.945411e-02  9.910256e-01
   outer loop
     vertex  8.403095e+01  4.692276e+01  4.905676e+01
     vertex  8.039528e+01  4.850196e+01  4.852708e+01
     vertex  8.347007e+01  4.600043e+01  4.905676e+01
   endloop
 endfacet
 facet normal  2.234978e-01  9.067661e-01  3.575248e-01
   outer loop
     vertex  7.597835e+01  3.607392e+01  5.627919e+01
     vertex  7.519847e+01  3.479909e+01  6.000000e+01
     vertex  7.862879e+01  3.395359e+01  6.000000e+01
   endloop
 endfacet
 facet normal  4.270652e-01  8.241985e-01  3.719033e-01
   outer loop
     vertex  7.597835e+01  3.607392e+01  5.627919e+01
     vertex  7.278910e+01  3.772646e+01  5.627919e+01
     vertex  7.519847e+01  3.479909e+01  6.000000e+01
   endloop
 endfacet
 facet normal  2.643930e-01  7.439306e-01  6.137293e-01
   outer loop
     vertex  7.597835e+01  3.607392e+01  5.627919e+01
     vertex  7.819828e+01  3.792939e+01  5.307375e+01
     vertex  7.542730e+01  3.891420e+01  5.307375e+01
   endloop
 endfacet
 facet normal  3.755460e-01  7.247709e-01  5.776438e-01
   outer loop
     vertex  7.597835e+01  3.607392e+01  5.627919e+01
     vertex  7.542730e+01  3.891420e+01  5.307375e+01
     vertex  7.278910e+01  3.772646e+01  5.627919e+01
   endloop
 endfacet
 facet normal -2.626313e-01  2.812095e-01  9.230092e-01
   outer loop
     vertex  8.561648e+01  4.291142e+01  5.060861e+01
     vertex  8.347007e+01  4.600043e+01  4.905676e+01
     vertex  8.268114e+01  4.526363e+01  4.905676e+01
   endloop
 endfacet
 facet normal -2.275135e-01  3.223132e-01  9.188862e-01
   outer loop
     vertex  8.561648e+01  4.291142e+01  5.060861e+01
     vertex  8.268114e+01  4.526363e+01  4.905676e+01
     vertex  8.391455e+01  4.171007e+01  5.060861e+01
   endloop
 endfacet
 facet normal -1.279340e-01  6.156521e-01  7.775638e-01
   outer loop
     vertex  8.401145e+01  3.832703e+01  5.307375e+01
     vertex  8.195162e+01  4.101244e+01  5.060861e+01
     vertex  8.113219e+01  3.772871e+01  5.307375e+01
   endloop
 endfacet
 facet normal -2.035616e-01  5.727674e-01  7.940404e-01
   outer loop
     vertex  8.401145e+01  3.832703e+01  5.307375e+01
     vertex  8.391455e+01  4.171007e+01  5.060861e+01
     vertex  8.195162e+01  4.101244e+01  5.060861e+01
   endloop
 endfacet
 facet normal -1.088827e-01  1.691118e-01  9.795641e-01
   outer loop
     vertex  8.432219e+01  4.796222e+01  4.905676e+01
     vertex  8.371042e+01  4.850196e+01  4.889557e+01
     vertex  8.039528e+01  4.850196e+01  4.852708e+01
   endloop
 endfacet
 facet normal -3.247952e-01 -8.689901e-02  9.417837e-01
   outer loop
     vertex  8.432219e+01  4.796222e+01  4.905676e+01
     vertex  8.686371e+01  4.850196e+01  4.998306e+01
     vertex  8.371042e+01  4.850196e+01  4.889557e+01
   endloop
 endfacet
 facet normal -1.287156e-01  3.606442e-02  9.910256e-01
   outer loop
     vertex  8.432219e+01  4.796222e+01  4.905676e+01
     vertex  8.039528e+01  4.850196e+01  4.852708e+01
     vertex  8.403095e+01  4.692276e+01  4.905676e+01
   endloop
 endfacet
 facet normal  3.797711e-15  9.368064e-01  3.498482e-01
   outer loop
     vertex  7.949519e+01  3.534312e+01  5.627919e+01
     vertex  7.862879e+01  3.395359e+01  6.000000e+01
     vertex  8.216177e+01  3.395359e+01  6.000000e+01
   endloop
 endfacet
 facet normal  1.880486e-01  9.049397e-01  3.817353e-01
   outer loop
     vertex  7.949519e+01  3.534312e+01  5.627919e+01
     vertex  7.597835e+01  3.607392e+01  5.627919e+01
     vertex  7.862879e+01  3.395359e+01  6.000000e+01
   endloop
 endfacet
 facet normal  5.387851e-02  7.876760e-01  6.137293e-01
   outer loop
     vertex  7.949519e+01  3.534312e+01  5.627919e+01
     vertex  8.113219e+01  3.772871e+01  5.307375e+01
     vertex  7.819828e+01  3.792939e+01  5.307375e+01
   endloop
 endfacet
 facet normal  1.660789e-01  7.992155e-01  5.776438e-01
   outer loop
     vertex  7.949519e+01  3.534312e+01  5.627919e+01
     vertex  7.819828e+01  3.792939e+01  5.307375e+01
     vertex  7.597835e+01  3.607392e+01  5.627919e+01
   endloop
 endfacet
 facet normal -3.287617e-01  1.999244e-01  9.230092e-01
   outer loop
     vertex  8.693117e+01  4.452739e+01  5.060861e+01
     vertex  8.403095e+01  4.692276e+01  4.905676e+01
     vertex  8.347007e+01  4.600043e+01  4.905676e+01
   endloop
 endfacet
 facet normal -3.060357e-01  2.489785e-01  9.188862e-01
   outer loop
     vertex  8.693117e+01  4.452739e+01  5.060861e+01
     vertex  8.347007e+01  4.600043e+01  4.905676e+01
     vertex  8.561648e+01  4.291142e+01  5.060861e+01
   endloop
 endfacet
 facet normal -2.892908e-01  5.583058e-01  7.775638e-01
   outer loop
     vertex  8.662252e+01  3.967997e+01  5.307375e+01
     vertex  8.391455e+01  4.171007e+01  5.060861e+01
     vertex  8.401145e+01  3.832703e+01  5.307375e+01
   endloop
 endfacet
 facet normal -3.505438e-01  4.966074e-01  7.940404e-01
   outer loop
     vertex  8.662252e+01  3.967997e+01  5.307375e+01
     vertex  8.561648e+01  4.291142e+01  5.060861e+01
     vertex  8.391455e+01  4.171007e+01  5.060861e+01
   endloop
 endfacet
 facet normal -2.246214e-01  9.113248e-01  3.450107e-01
   outer loop
     vertex  8.307878e+01  3.558824e+01  5.627919e+01
     vertex  8.216177e+01  3.395359e+01  6.000000e+01
     vertex  8.559209e+01  3.479909e+01  6.000000e+01
   endloop
 endfacet
 facet normal -6.288491e-02  9.193449e-01  3.883947e-01
   outer loop
     vertex  8.307878e+01  3.558824e+01  5.627919e+01
     vertex  7.949519e+01  3.534312e+01  5.627919e+01
     vertex  8.216177e+01  3.395359e+01  6.000000e+01
   endloop
 endfacet
 facet normal -1.606319e-01  7.730031e-01  6.137293e-01
   outer loop
     vertex  8.307878e+01  3.558824e+01  5.627919e+01
     vertex  8.401145e+01  3.832703e+01  5.307375e+01
     vertex  8.113219e+01  3.772871e+01  5.307375e+01
   endloop
 endfacet
 facet normal -5.570553e-02  8.143860e-01  5.776438e-01
   outer loop
     vertex  8.307878e+01  3.558824e+01  5.627919e+01
     vertex  8.113219e+01  3.772871e+01  5.307375e+01
     vertex  7.949519e+01  3.534312e+01  5.627919e+01
   endloop
 endfacet
 facet normal -3.626887e-01  1.223130e-01  9.238487e-01
   outer loop
     vertex  8.776113e+01  4.643814e+01  5.060861e+01
     vertex  8.686371e+01  4.850196e+01  4.998306e+01
     vertex  8.432219e+01  4.796222e+01  4.905676e+01
   endloop
 endfacet
 facet normal -3.705093e-01  1.038118e-01  9.230092e-01
   outer loop
     vertex  8.776113e+01  4.643814e+01  5.060861e+01
     vertex  8.432219e+01  4.796222e+01  4.905676e+01
     vertex  8.403095e+01  4.692276e+01  4.905676e+01
   endloop
 endfacet
 facet normal -3.618607e-01  1.571783e-01  9.188862e-01
   outer loop
     vertex  8.776113e+01  4.643814e+01  5.060861e+01
     vertex  8.403095e+01  4.692276e+01  4.905676e+01
     vertex  8.693117e+01  4.452739e+01  5.060861e+01
   endloop
 endfacet
 facet normal -5.254421e-01  2.925727e-02  8.503262e-01
   outer loop
     vertex  8.776113e+01  4.643814e+01  5.060861e+01
     vertex  8.970124e+01  4.850196e+01  5.173645e+01
     vertex  8.686371e+01  4.850196e+01  4.998306e+01
   endloop
 endfacet
 facet normal -4.715277e-01  3.836162e-01  7.940404e-01
   outer loop
     vertex  8.877174e+01  4.168720e+01  5.307375e+01
     vertex  8.693117e+01  4.452739e+01  5.060861e+01
     vertex  8.561648e+01  4.291142e+01  5.060861e+01
   endloop
 endfacet
 facet normal -4.291922e-01  4.595526e-01  7.775638e-01
   outer loop
     vertex  8.877174e+01  4.168720e+01  5.307375e+01
     vertex  8.561648e+01  4.291142e+01  5.060861e+01
     vertex  8.662252e+01  3.967997e+01  5.307375e+01
   endloop
 endfacet
 facet normal -3.080837e-01  8.668643e-01  3.919576e-01
   outer loop
     vertex  8.646335e+01  3.679112e+01  5.627919e+01
     vertex  8.307878e+01  3.558824e+01  5.627919e+01
     vertex  8.559209e+01  3.479909e+01  6.000000e+01
   endloop
 endfacet
 facet normal -2.733585e-01  7.691572e-01  5.776438e-01
   outer loop
     vertex  8.646335e+01  3.679112e+01  5.627919e+01
     vertex  8.401145e+01  3.832703e+01  5.307375e+01
     vertex  8.307878e+01  3.558824e+01  5.627919e+01
   endloop
 endfacet
 facet normal -4.365195e-01  8.317185e-01  3.430672e-01
   outer loop
     vertex  8.646335e+01  3.679112e+01  5.627919e+01
     vertex  8.559209e+01  3.479909e+01  6.000000e+01
     vertex  8.872040e+01  3.644095e+01  6.000000e+01
   endloop
 endfacet
 facet normal -3.632290e-01  7.010001e-01  6.137293e-01
   outer loop
     vertex  8.646335e+01  3.679112e+01  5.627919e+01
     vertex  8.662252e+01  3.967997e+01  5.307375e+01
     vertex  8.401145e+01  3.832703e+01  5.307375e+01
   endloop
 endfacet
 facet normal -5.372624e-01  3.267165e-01  7.775638e-01
   outer loop
     vertex  9.029972e+01  4.419986e+01  5.307375e+01
     vertex  8.693117e+01  4.452739e+01  5.060861e+01
     vertex  8.877174e+01  4.168720e+01  5.307375e+01
   endloop
 endfacet
 facet normal -5.575406e-01  2.421741e-01  7.940404e-01
   outer loop
     vertex  9.029972e+01  4.419986e+01  5.307375e+01
     vertex  8.776113e+01  4.643814e+01  5.060861e+01
     vertex  8.693117e+01  4.452739e+01  5.060861e+01
   endloop
 endfacet
 facet normal -5.388870e-01  5.770071e-01  6.137293e-01
   outer loop
     vertex  8.939788e+01  3.886253e+01  5.627919e+01
     vertex  8.877174e+01  4.168720e+01  5.307375e+01
     vertex  8.662252e+01  3.967997e+01  5.307375e+01
   endloop
 endfacet
 facet normal -6.226424e-01  7.028180e-01  3.440395e-01
   outer loop
     vertex  8.939788e+01  3.886253e+01  5.627919e+01
     vertex  8.872040e+01  3.644095e+01  6.000000e+01
     vertex  9.136487e+01  3.878375e+01  6.000000e+01
   endloop
 endfacet
 facet normal -5.304114e-01  7.514218e-01  3.924652e-01
   outer loop
     vertex  8.939788e+01  3.886253e+01  5.627919e+01
     vertex  8.646335e+01  3.679112e+01  5.627919e+01
     vertex  8.872040e+01  3.644095e+01  6.000000e+01
   endloop
 endfacet
 facet normal -4.707378e-01  6.668835e-01  5.776438e-01
   outer loop
     vertex  8.939788e+01  3.886253e+01  5.627919e+01
     vertex  8.662252e+01  3.967997e+01  5.307375e+01
     vertex  8.646335e+01  3.679112e+01  5.627919e+01
   endloop
 endfacet
 facet normal -6.049033e-01  1.402866e-01  7.838442e-01
   outer loop
     vertex  9.109313e+01  4.703157e+01  5.307375e+01
     vertex  8.970124e+01  4.850196e+01  5.173645e+01
     vertex  8.776113e+01  4.643814e+01  5.060861e+01
   endloop
 endfacet
 facet normal -6.054863e-01  1.696493e-01  7.775638e-01
   outer loop
     vertex  9.109313e+01  4.703157e+01  5.307375e+01
     vertex  8.776113e+01  4.643814e+01  5.060861e+01
     vertex  9.029972e+01  4.419986e+01  5.307375e+01
   endloop
 endfacet
 facet normal -6.995894e-01 -1.247038e-02  7.144362e-01
   outer loop
     vertex  9.109313e+01  4.703157e+01  5.307375e+01
     vertex  9.208446e+01  4.850196e+01  5.407015e+01
     vertex  8.970124e+01  4.850196e+01  5.173645e+01
   endloop
 endfacet
 facet normal -6.332046e-01  5.151501e-01  5.776438e-01
   outer loop
     vertex  9.166472e+01  4.164886e+01  5.627919e+01
     vertex  8.877174e+01  4.168720e+01  5.307375e+01
     vertex  8.939788e+01  3.886253e+01  5.627919e+01
   endloop
 endfacet
 facet normal -7.715683e-01  5.325751e-01  3.479168e-01
   outer loop
     vertex  9.166472e+01  4.164886e+01  5.627919e+01
     vertex  9.136487e+01  3.878375e+01  6.000000e+01
     vertex  9.337184e+01  4.169134e+01  6.000000e+01
   endloop
 endfacet
 facet normal -6.745783e-01  4.102201e-01  6.137293e-01
   outer loop
     vertex  9.166472e+01  4.164886e+01  5.627919e+01
     vertex  9.029972e+01  4.419986e+01  5.307375e+01
     vertex  8.877174e+01  4.168720e+01  5.307375e+01
   endloop
 endfacet
 facet normal -7.143116e-01  5.811356e-01  3.899236e-01
   outer loop
     vertex  9.166472e+01  4.164886e+01  5.627919e+01
     vertex  8.939788e+01  3.886253e+01  5.627919e+01
     vertex  9.136487e+01  3.878375e+01  6.000000e+01
   endloop
 endfacet
 facet normal -9.160053e-01  1.440751e-01  3.744017e-01
   outer loop
     vertex  9.309576e+01  4.494345e+01  5.627919e+01
     vertex  9.462465e+01  4.499473e+01  6.000000e+01
     vertex  9.389705e+01  4.850196e+01  5.687023e+01
   endloop
 endfacet
 facet normal -8.467758e-01  3.678067e-01  3.843032e-01
   outer loop
     vertex  9.309576e+01  4.494345e+01  5.627919e+01
     vertex  9.166472e+01  4.164886e+01  5.627919e+01
     vertex  9.337184e+01  4.169134e+01  6.000000e+01
   endloop
 endfacet
 facet normal -8.742375e-01  3.315546e-01  3.546552e-01
   outer loop
     vertex  9.309576e+01  4.494345e+01  5.627919e+01
     vertex  9.337184e+01  4.169134e+01  6.000000e+01
     vertex  9.462465e+01  4.499473e+01  6.000000e+01
   endloop
 endfacet
 facet normal -7.602391e-01  2.130090e-01  6.137293e-01
   outer loop
     vertex  9.309576e+01  4.494345e+01  5.627919e+01
     vertex  9.109313e+01  4.703157e+01  5.307375e+01
     vertex  9.029972e+01  4.419986e+01  5.307375e+01
   endloop
 endfacet
 facet normal -7.967923e-01  1.386551e-01  5.881299e-01
   outer loop
     vertex  9.309576e+01  4.494345e+01  5.627919e+01
     vertex  9.208446e+01  4.850196e+01  5.407015e+01
     vertex  9.109313e+01  4.703157e+01  5.307375e+01
   endloop
 endfacet
 facet normal -7.487095e-01  3.252104e-01  5.776438e-01
   outer loop
     vertex  9.309576e+01  4.494345e+01  5.627919e+01
     vertex  9.029972e+01  4.419986e+01  5.307375e+01
     vertex  9.166472e+01  4.164886e+01  5.627919e+01
   endloop
 endfacet
 facet normal -8.354004e-01  9.829048e-02  5.407819e-01
   outer loop
     vertex  9.309576e+01  4.494345e+01  5.627919e+01
     vertex  9.389705e+01  4.850196e+01  5.687023e+01
     vertex  9.208446e+01  4.850196e+01  5.407015e+01
   endloop
 endfacet
endsolid
