solid 
 facet normal -1.000000e+00  0.000000e+00  0.000000e+00
   outer loop
     vertex  0.000000e+00  0.000000e+00  6.000000e+01
     vertex  0.000000e+00  8.337275e+01  0.000000e+00
     vertex  0.000000e+00  0.000000e+00  0.000000e+00
   endloop
 endfacet
 facet normal -1.000000e+00  0.000000e+00  0.000000e+00
   outer loop
     vertex  0.000000e+00  0.000000e+00  6.000000e+01
     vertex  0.000000e+00  8.337275e+01  6.000000e+01
     vertex  0.000000e+00  8.337275e+01  0.000000e+00
   endloop
 endfacet
 facet normal  0.000000e+00 -1.000000e+00 -0.000000e+00
   outer loop
     vertex  1.409698e+02  0.000000e+00  6.000000e+01
     vertex  0.000000e+00  0.000000e+00  0.000000e+00
     vertex  1.409698e+02  0.000000e+00  0.000000e+00
   endloop
 endfacet
 facet normal -0.000000e+00 -1.000000e+00  0.000000e+00
   outer loop
     vertex  1.409698e+02  0.000000e+00  6.000000e+01
     vertex  0.000000e+00  0.000000e+00  6.000000e+01
     vertex  0.000000e+00  0.000000e+00  0.000000e+00
   endloop
 endfacet
 facet normal  0.000000e+00  0.000000e+00  1.000000e+00
   outer loop
     vertex  8.937362e+01  3.397867e+01  6.000000e+01
     vertex  8.617386e+01  3.681341e+01  6.000000e+01
     vertex  0.000000e+00  0.000000e+00  6.000000e+01
   endloop
 endfacet
 facet normal  0.000000e+00  0.000000e+00  1.000000e+00
   outer loop
     vertex  8.374547e+01  4.033154e+01  6.000000e+01
     vertex  0.000000e+00  0.000000e+00  6.000000e+01
     vertex  8.617386e+01  3.681341e+01  6.000000e+01
   endloop
 endfacet
 facet normal  0.000000e+00  0.000000e+00  1.000000e+00
   outer loop
     vertex  9.315881e+01  3.199205e+01  6.000000e+01
     vertex  8.937362e+01  3.397867e+01  6.000000e+01
     vertex  0.000000e+00  0.000000e+00  6.000000e+01
   endloop
 endfacet
 facet normal  0.000000e+00  0.000000e+00  1.000000e+00
   outer loop
     vertex  8.222959e+01  4.432859e+01  6.000000e+01
     vertex  0.000000e+00  0.000000e+00  6.000000e+01
     vertex  8.374547e+01  4.033154e+01  6.000000e+01
   endloop
 endfacet
 facet normal  0.000000e+00  0.000000e+00  1.000000e+00
   outer loop
     vertex  8.171431e+01  4.857226e+01  6.000000e+01
     vertex  0.000000e+00  8.337275e+01  6.000000e+01
     vertex  0.000000e+00  0.000000e+00  6.000000e+01
   endloop
 endfacet
 facet normal  0.000000e+00  0.000000e+00  1.000000e+00
   outer loop
     vertex  8.171431e+01  4.857226e+01  6.000000e+01
     vertex  0.000000e+00  0.000000e+00  6.000000e+01
     vertex  8.222959e+01  4.432859e+01  6.000000e+01
   endloop
 endfacet
 facet normal  0.000000e+00  0.000000e+00  1.000000e+00
   outer loop
     vertex  8.222959e+01  5.281594e+01  6.000000e+01
     vertex  0.000000e+00  8.337275e+01  6.000000e+01
     vertex  8.171431e+01  4.857226e+01  6.000000e+01
   endloop
 endfacet
 facet normal  0.000000e+00  0.000000e+00  1.000000e+00
   outer loop
     vertex  8.374547e+01  5.681298e+01  6.000000e+01
     vertex  0.000000e+00  8.337275e+01  6.000000e+01
     vertex  8.222959e+01  5.281594e+01  6.000000e+01
   endloop
 endfacet
 facet normal  0.000000e+00  0.000000e+00  1.000000e+00
   outer loop
     vertex  1.409698e+02  0.000000e+00  6.000000e+01
     vertex  9.730943e+01  3.096901e+01  6.000000e+01
     vertex  9.315881e+01  3.199205e+01  6.000000e+01
   endloop
 endfacet
 facet normal  0.000000e+00  0.000000e+00  1.000000e+00
   outer loop
     vertex  1.409698e+02  0.000000e+00  6.000000e+01
     vertex  1.015843e+02  3.096901e+01  6.000000e+01
     vertex  9.730943e+01  3.096901e+01  6.000000e+01
   endloop
 endfacet
 facet normal  0.000000e+00  0.000000e+00  1.000000e+00
   outer loop
     vertex  1.409698e+02  0.000000e+00  6.000000e+01
     vertex  1.057349e+02  3.199205e+01  6.000000e+01
     vertex  1.015843e+02  3.096901e+01  6.000000e+01
   endloop
 endfacet
 facet normal  0.000000e+00  0.000000e+00  1.000000e+00
   outer loop
     vertex  1.409698e+02  0.000000e+00  6.000000e+01
     vertex  9.315881e+01  3.199205e+01  6.000000e+01
     vertex  0.000000e+00  0.000000e+00  6.000000e+01
   endloop
 endfacet
 facet normal  0.000000e+00  0.000000e+00  1.000000e+00
   outer loop
     vertex  1.095201e+02  3.397867e+01  6.000000e+01
     vertex  1.057349e+02  3.199205e+01  6.000000e+01
     vertex  1.409698e+02  0.000000e+00  6.000000e+01
   endloop
 endfacet
 facet normal  0.000000e+00  0.000000e+00  1.000000e+00
   outer loop
     vertex  8.617386e+01  6.033111e+01  6.000000e+01
     vertex  0.000000e+00  8.337275e+01  6.000000e+01
     vertex  8.374547e+01  5.681298e+01  6.000000e+01
   endloop
 endfacet
 facet normal  0.000000e+00  0.000000e+00  1.000000e+00
   outer loop
     vertex  1.127198e+02  3.681341e+01  6.000000e+01
     vertex  1.095201e+02  3.397867e+01  6.000000e+01
     vertex  1.409698e+02  0.000000e+00  6.000000e+01
   endloop
 endfacet
 facet normal  0.000000e+00  0.000000e+00  1.000000e+00
   outer loop
     vertex  8.937362e+01  6.316586e+01  6.000000e+01
     vertex  0.000000e+00  8.337275e+01  6.000000e+01
     vertex  8.617386e+01  6.033111e+01  6.000000e+01
   endloop
 endfacet
 facet normal  0.000000e+00  0.000000e+00  1.000000e+00
   outer loop
     vertex  1.151482e+02  4.033154e+01  6.000000e+01
     vertex  1.127198e+02  3.681341e+01  6.000000e+01
     vertex  1.409698e+02  0.000000e+00  6.000000e+01
   endloop
 endfacet
 facet normal  0.000000e+00  0.000000e+00  1.000000e+00
   outer loop
     vertex  9.315881e+01  6.515247e+01  6.000000e+01
     vertex  0.000000e+00  8.337275e+01  6.000000e+01
     vertex  8.937362e+01  6.316586e+01  6.000000e+01
   endloop
 endfacet
 facet normal  0.000000e+00  0.000000e+00  1.000000e+00
   outer loop
     vertex  1.166641e+02  4.432859e+01  6.000000e+01
     vertex  1.151482e+02  4.033154e+01  6.000000e+01
     vertex  1.409698e+02  0.000000e+00  6.000000e+01
   endloop
 endfacet
 facet normal  1.000020e-14  5.483185e-15  1.000000e+00
   outer loop
     vertex  1.171794e+02  4.857226e+01  6.000000e+01
     vertex  1.166641e+02  4.432859e+01  6.000000e+01
     vertex  1.409698e+02  0.000000e+00  6.000000e+01
   endloop
 endfacet
 facet normal  7.304839e-15 -5.810461e-15  1.000000e+00
   outer loop
     vertex  1.409698e+02  8.337275e+01  6.000000e+01
     vertex  1.166641e+02  5.281594e+01  6.000000e+01
     vertex  1.171794e+02  4.857226e+01  6.000000e+01
   endloop
 endfacet
 facet normal  0.000000e+00  0.000000e+00  1.000000e+00
   outer loop
     vertex  1.409698e+02  8.337275e+01  6.000000e+01
     vertex  1.151482e+02  5.681298e+01  6.000000e+01
     vertex  1.166641e+02  5.281594e+01  6.000000e+01
   endloop
 endfacet
 facet normal  0.000000e+00  0.000000e+00  1.000000e+00
   outer loop
     vertex  1.409698e+02  8.337275e+01  6.000000e+01
     vertex  1.127198e+02  6.033111e+01  6.000000e+01
     vertex  1.151482e+02  5.681298e+01  6.000000e+01
   endloop
 endfacet
 facet normal  0.000000e+00  0.000000e+00  1.000000e+00
   outer loop
     vertex  1.409698e+02  8.337275e+01  6.000000e+01
     vertex  1.095201e+02  6.316586e+01  6.000000e+01
     vertex  1.127198e+02  6.033111e+01  6.000000e+01
   endloop
 endfacet
 facet normal  0.000000e+00  0.000000e+00  1.000000e+00
   outer loop
     vertex  1.409698e+02  8.337275e+01  6.000000e+01
     vertex  1.057349e+02  6.515247e+01  6.000000e+01
     vertex  1.095201e+02  6.316586e+01  6.000000e+01
   endloop
 endfacet
 facet normal  0.000000e+00  0.000000e+00  1.000000e+00
   outer loop
     vertex  1.409698e+02  8.337275e+01  6.000000e+01
     vertex  1.015843e+02  6.617551e+01  6.000000e+01
     vertex  1.057349e+02  6.515247e+01  6.000000e+01
   endloop
 endfacet
 facet normal  0.000000e+00  0.000000e+00  1.000000e+00
   outer loop
     vertex  1.409698e+02  8.337275e+01  6.000000e+01
     vertex  9.730943e+01  6.617551e+01  6.000000e+01
     vertex  1.015843e+02  6.617551e+01  6.000000e+01
   endloop
 endfacet
 facet normal -1.194670e-15  0.000000e+00  1.000000e+00
   outer loop
     vertex  1.409698e+02  8.337275e+01  6.000000e+01
     vertex  1.171794e+02  4.857226e+01  6.000000e+01
     vertex  1.409698e+02  0.000000e+00  6.000000e+01
   endloop
 endfacet
 facet normal  0.000000e+00  0.000000e+00  1.000000e+00
   outer loop
     vertex  1.409698e+02  8.337275e+01  6.000000e+01
     vertex  0.000000e+00  8.337275e+01  6.000000e+01
     vertex  9.730943e+01  6.617551e+01  6.000000e+01
   endloop
 endfacet
 facet normal  0.000000e+00  0.000000e+00  1.000000e+00
   outer loop
     vertex  9.730943e+01  6.617551e+01  6.000000e+01
     vertex  0.000000e+00  8.337275e+01  6.000000e+01
     vertex  9.315881e+01  6.515247e+01  6.000000e+01
   endloop
 endfacet
 facet normal  0.000000e+00  1.000000e+00  0.000000e+00
   outer loop
     vertex  1.409698e+02  8.337275e+01  6.000000e+01
     vertex  1.409698e+02  8.337275e+01  0.000000e+00
     vertex  0.000000e+00  8.337275e+01  0.000000e+00
   endloop
 endfacet
 facet normal  0.000000e+00  1.000000e+00  0.000000e+00
   outer loop
     vertex  1.409698e+02  8.337275e+01  6.000000e+01
     vertex  0.000000e+00  8.337275e+01  0.000000e+00
     vertex  0.000000e+00  8.337275e+01  6.000000e+01
   endloop
 endfacet
 facet normal -0.000000e+00  0.000000e+00 -1.000000e+00
   outer loop
     vertex  1.409698e+02  8.337275e+01  0.000000e+00
     vertex  0.000000e+00  0.000000e+00  0.000000e+00
     vertex  0.000000e+00  8.337275e+01  0.000000e+00
   endloop
 endfacet
 facet normal  0.000000e+00 -0.000000e+00 -1.000000e+00
   outer loop
     vertex  1.409698e+02  8.337275e+01  0.000000e+00
     vertex  1.409698e+02  0.000000e+00  0.000000e+00
     vertex  0.000000e+00  0.000000e+00  0.000000e+00
   endloop
 endfacet
 facet normal  1.000000e+00  0.000000e+00  0.000000e+00
   outer loop
     vertex  1.409698e+02  0.000000e+00  6.000000e+01
     vertex  1.409698e+02  0.000000e+00  0.000000e+00
     vertex  1.409698e+02  8.337275e+01  0.000000e+00
   endloop
 endfacet
 facet normal  1.000000e+00 -0.000000e+00  0.000000e+00
   outer loop
     vertex  1.409698e+02  0.000000e+00  6.000000e+01
     vertex  1.409698e+02  8.337275e+01  0.000000e+00
     vertex  1.409698e+02  8.337275e+01  6.000000e+01
   endloop
 endfacet
 facet normal -9.875912e-01 -1.199153e-01  1.014099e-01
   outer loop
     vertex  1.166641e+02  5.281594e+01  6.000000e+01
     vertex  1.167710e+02  4.857226e+01  5.602309e+01
     vertex  1.171794e+02  4.857226e+01  6.000000e+01
   endloop
 endfacet
 facet normal -9.875912e-01  1.199153e-01  1.014099e-01
   outer loop
     vertex  1.171794e+02  4.857226e+01  6.000000e+01
     vertex  1.167710e+02  4.857226e+01  5.602309e+01
     vertex  1.166641e+02  4.432859e+01  6.000000e+01
   endloop
 endfacet
 facet normal -1.127164e-01 -7.091514e-03  9.936019e-01
   outer loop
     vertex  1.033879e+02  4.907013e+01  4.252852e+01
     vertex  9.944685e+01  4.857226e+01  4.207789e+01
     vertex  1.034192e+02  4.857226e+01  4.252852e+01
   endloop
 endfacet
 facet normal -3.323563e-01 -2.091009e-02  9.429221e-01
   outer loop
     vertex  1.033879e+02  4.907013e+01  4.252852e+01
     vertex  1.034192e+02  4.857226e+01  4.252852e+01
     vertex  1.071897e+02  4.857226e+01  4.385751e+01
   endloop
 endfacet
 facet normal -1.100345e-01 -2.825207e-02  9.935262e-01
   outer loop
     vertex  1.031402e+02  5.003458e+01  4.252852e+01
     vertex  9.944685e+01  4.857226e+01  4.207789e+01
     vertex  1.033879e+02  4.907013e+01  4.252852e+01
   endloop
 endfacet
 facet normal -9.955159e-02 -5.472895e-02  9.935262e-01
   outer loop
     vertex  1.026605e+02  5.090715e+01  4.252852e+01
     vertex  9.944685e+01  4.857226e+01  4.207789e+01
     vertex  1.031402e+02  5.003458e+01  4.252852e+01
   endloop
 endfacet
 facet normal -3.196222e-01 -8.206504e-02  9.439846e-01
   outer loop
     vertex  1.069464e+02  5.049782e+01  4.385751e+01
     vertex  1.031402e+02  5.003458e+01  4.252852e+01
     vertex  1.033879e+02  4.907013e+01  4.252852e+01
   endloop
 endfacet
 facet normal -3.346230e-01 -4.227272e-02  9.414034e-01
   outer loop
     vertex  1.069464e+02  5.049782e+01  4.385751e+01
     vertex  1.033879e+02  4.907013e+01  4.252852e+01
     vertex  1.071897e+02  4.857226e+01  4.385751e+01
   endloop
 endfacet
 facet normal -8.281346e-02 -7.776702e-02  9.935262e-01
   outer loop
     vertex  1.019789e+02  5.163301e+01  4.252852e+01
     vertex  9.944685e+01  4.857226e+01  4.207789e+01
     vertex  1.026605e+02  5.090715e+01  4.252852e+01
   endloop
 endfacet
 facet normal -2.891720e-01 -1.589736e-01  9.439846e-01
   outer loop
     vertex  1.062319e+02  5.230239e+01  4.385751e+01
     vertex  1.026605e+02  5.090715e+01  4.252852e+01
     vertex  1.031402e+02  5.003458e+01  4.252852e+01
   endloop
 endfacet
 facet normal -3.135974e-01 -1.241620e-01  9.414034e-01
   outer loop
     vertex  1.062319e+02  5.230239e+01  4.385751e+01
     vertex  1.031402e+02  5.003458e+01  4.252852e+01
     vertex  1.069464e+02  5.049782e+01  4.385751e+01
   endloop
 endfacet
 facet normal -5.349407e-01 -3.365562e-02  8.442190e-01
   outer loop
     vertex  1.104789e+02  4.996594e+01  4.599732e+01
     vertex  1.071897e+02  4.857226e+01  4.385751e+01
     vertex  1.105666e+02  4.857226e+01  4.599732e+01
   endloop
 endfacet
 facet normal -7.101465e-01 -4.467863e-02  7.026348e-01
   outer loop
     vertex  1.104789e+02  4.996594e+01  4.599732e+01
     vertex  1.105666e+02  4.857226e+01  4.599732e+01
     vertex  1.133784e+02  4.857226e+01  4.883920e+01
   endloop
 endfacet
 facet normal -5.242433e-01 -6.622733e-02  8.489894e-01
   outer loop
     vertex  1.104789e+02  4.996594e+01  4.599732e+01
     vertex  1.069464e+02  5.049782e+01  4.385751e+01
     vertex  1.071897e+02  4.857226e+01  4.385751e+01
   endloop
 endfacet
 facet normal -6.087185e-02 -9.591869e-02  9.935262e-01
   outer loop
     vertex  1.011382e+02  5.216655e+01  4.252852e+01
     vertex  9.944685e+01  4.857226e+01  4.207789e+01
     vertex  1.019789e+02  5.163301e+01  4.252852e+01
   endloop
 endfacet
 facet normal -2.728674e-01 -1.982497e-01  9.414034e-01
   outer loop
     vertex  1.050911e+02  5.387258e+01  4.385751e+01
     vertex  1.026605e+02  5.090715e+01  4.252852e+01
     vertex  1.062319e+02  5.230239e+01  4.385751e+01
   endloop
 endfacet
 facet normal -2.405520e-01 -2.258933e-01  9.439846e-01
   outer loop
     vertex  1.050911e+02  5.387258e+01  4.385751e+01
     vertex  1.019789e+02  5.163301e+01  4.252852e+01
     vertex  1.026605e+02  5.090715e+01  4.252852e+01
   endloop
 endfacet
 facet normal -5.281764e-01 -1.356126e-01  8.382356e-01
   outer loop
     vertex  1.097857e+02  5.266572e+01  4.599732e+01
     vertex  1.069464e+02  5.049782e+01  4.385751e+01
     vertex  1.104789e+02  4.996594e+01  4.599732e+01
   endloop
 endfacet
 facet normal -4.913031e-01 -1.945207e-01  8.489894e-01
   outer loop
     vertex  1.097857e+02  5.266572e+01  4.599732e+01
     vertex  1.062319e+02  5.230239e+01  4.385751e+01
     vertex  1.069464e+02  5.049782e+01  4.385751e+01
   endloop
 endfacet
 facet normal -3.510544e-02 -1.080434e-01  9.935262e-01
   outer loop
     vertex  1.001912e+02  5.247424e+01  4.252852e+01
     vertex  9.944685e+01  4.857226e+01  4.207789e+01
     vertex  1.011382e+02  5.216655e+01  4.252852e+01
   endloop
 endfacet
 facet normal -1.768172e-01 -2.786193e-01  9.439846e-01
   outer loop
     vertex  1.035957e+02  5.510973e+01  4.385751e+01
     vertex  1.011382e+02  5.216655e+01  4.252852e+01
     vertex  1.019789e+02  5.163301e+01  4.252852e+01
   endloop
 endfacet
 facet normal -2.149920e-01 -2.598807e-01  9.414034e-01
   outer loop
     vertex  1.035957e+02  5.510973e+01  4.385751e+01
     vertex  1.019789e+02  5.163301e+01  4.252852e+01
     vertex  1.050911e+02  5.387258e+01  4.385751e+01
   endloop
 endfacet
 facet normal -4.274926e-01 -3.105916e-01  8.489894e-01
   outer loop
     vertex  1.084429e+02  5.510829e+01  4.599732e+01
     vertex  1.050911e+02  5.387258e+01  4.385751e+01
     vertex  1.062319e+02  5.230239e+01  4.385751e+01
   endloop
 endfacet
 facet normal -4.778572e-01 -2.627042e-01  8.382356e-01
   outer loop
     vertex  1.084429e+02  5.510829e+01  4.599732e+01
     vertex  1.062319e+02  5.230239e+01  4.385751e+01
     vertex  1.097857e+02  5.266572e+01  4.599732e+01
   endloop
 endfacet
 facet normal -7.190073e-01 -9.083174e-02  6.890415e-01
   outer loop
     vertex  1.129407e+02  5.203690e+01  4.883920e+01
     vertex  1.104789e+02  4.996594e+01  4.599732e+01
     vertex  1.133784e+02  4.857226e+01  4.883920e+01
   endloop
 endfacet
 facet normal -6.779838e-01 -1.740767e-01  7.141675e-01
   outer loop
     vertex  1.129407e+02  5.203690e+01  4.883920e+01
     vertex  1.097857e+02  5.266572e+01  4.599732e+01
     vertex  1.104789e+02  4.996594e+01  4.599732e+01
   endloop
 endfacet
 facet normal -7.133229e-03 -1.133794e-01  9.935262e-01
   outer loop
     vertex  9.919743e+01  5.253677e+01  4.252852e+01
     vertex  9.944685e+01  4.857226e+01  4.207789e+01
     vertex  1.001912e+02  5.247424e+01  4.252852e+01
   endloop
 endfacet
 facet normal -1.019724e-01 -3.138386e-01  9.439846e-01
   outer loop
     vertex  1.018395e+02  5.593611e+01  4.385751e+01
     vertex  1.001912e+02  5.247424e+01  4.252852e+01
     vertex  1.011382e+02  5.216655e+01  4.252852e+01
   endloop
 endfacet
 facet normal -1.436079e-01 -3.051824e-01  9.414034e-01
   outer loop
     vertex  1.018395e+02  5.593611e+01  4.385751e+01
     vertex  1.011382e+02  5.216655e+01  4.252852e+01
     vertex  1.035957e+02  5.510973e+01  4.385751e+01
   endloop
 endfacet
 facet normal -3.368212e-01 -4.071469e-01  8.489894e-01
   outer loop
     vertex  1.065349e+02  5.714018e+01  4.599732e+01
     vertex  1.035957e+02  5.510973e+01  4.385751e+01
     vertex  1.050911e+02  5.387258e+01  4.385751e+01
   endloop
 endfacet
 facet normal -3.975126e-01 -3.732892e-01  8.382356e-01
   outer loop
     vertex  1.065349e+02  5.714018e+01  4.599732e+01
     vertex  1.050911e+02  5.387258e+01  4.385751e+01
     vertex  1.084429e+02  5.510829e+01  4.599732e+01
   endloop
 endfacet
 facet normal -6.738294e-01 -2.667879e-01  6.890415e-01
   outer loop
     vertex  1.116552e+02  5.528385e+01  4.883920e+01
     vertex  1.097857e+02  5.266572e+01  4.599732e+01
     vertex  1.129407e+02  5.203690e+01  4.883920e+01
   endloop
 endfacet
 facet normal -6.133926e-01 -3.372154e-01  7.141675e-01
   outer loop
     vertex  1.116552e+02  5.528385e+01  4.883920e+01
     vertex  1.084429e+02  5.510829e+01  4.599732e+01
     vertex  1.097857e+02  5.266572e+01  4.599732e+01
   endloop
 endfacet
 facet normal -8.491271e-01 -5.342255e-02  5.254800e-01
   outer loop
     vertex  1.153558e+02  5.058202e+01  5.223871e+01
     vertex  1.133784e+02  4.857226e+01  4.883920e+01
     vertex  1.154822e+02  4.857226e+01  5.223871e+01
   endloop
 endfacet
 facet normal -9.449356e-01 -5.945031e-02  3.218111e-01
   outer loop
     vertex  1.153558e+02  5.058202e+01  5.223871e+01
     vertex  1.154822e+02  4.857226e+01  5.223871e+01
     vertex  1.167710e+02  4.857226e+01  5.602309e+01
   endloop
 endfacet
 facet normal -8.313905e-01 -1.050290e-01  5.456728e-01
   outer loop
     vertex  1.153558e+02  5.058202e+01  5.223871e+01
     vertex  1.129407e+02  5.203690e+01  4.883920e+01
     vertex  1.133784e+02  4.857226e+01  4.883920e+01
   endloop
 endfacet
 facet normal  2.128719e-02 -1.115914e-01  9.935262e-01
   outer loop
     vertex  9.821933e+01  5.235019e+01  4.252852e+01
     vertex  9.944685e+01  4.857226e+01  4.207789e+01
     vertex  9.919743e+01  5.253677e+01  4.252852e+01
   endloop
 endfacet
 facet normal -6.320046e-02 -3.313084e-01  9.414034e-01
   outer loop
     vertex  9.993303e+01  5.629979e+01  4.385751e+01
     vertex  1.001912e+02  5.247424e+01  4.252852e+01
     vertex  1.018395e+02  5.593611e+01  4.385751e+01
   endloop
 endfacet
 facet normal -2.072021e-02 -3.293383e-01  9.439846e-01
   outer loop
     vertex  9.993303e+01  5.629979e+01  4.385751e+01
     vertex  9.919743e+01  5.253677e+01  4.252852e+01
     vertex  1.001912e+02  5.247424e+01  4.252852e+01
   endloop
 endfacet
 facet normal -2.249860e-01 -4.781196e-01  8.489894e-01
   outer loop
     vertex  1.041814e+02  5.863372e+01  4.599732e+01
     vertex  1.018395e+02  5.593611e+01  4.385751e+01
     vertex  1.035957e+02  5.510973e+01  4.385751e+01
   endloop
 endfacet
 facet normal -2.921908e-01 -4.604190e-01  8.382356e-01
   outer loop
     vertex  1.041814e+02  5.863372e+01  4.599732e+01
     vertex  1.035957e+02  5.510973e+01  4.385751e+01
     vertex  1.065349e+02  5.714018e+01  4.599732e+01
   endloop
 endfacet
 facet normal -5.102597e-01 -4.791657e-01  7.141675e-01
   outer loop
     vertex  1.096025e+02  5.810908e+01  4.883920e+01
     vertex  1.065349e+02  5.714018e+01  4.599732e+01
     vertex  1.084429e+02  5.510829e+01  4.599732e+01
   endloop
 endfacet
 facet normal -5.863124e-01 -4.259809e-01  6.890415e-01
   outer loop
     vertex  1.096025e+02  5.810908e+01  4.883920e+01
     vertex  1.084429e+02  5.510829e+01  4.599732e+01
     vertex  1.116552e+02  5.528385e+01  4.883920e+01
   endloop
 endfacet
 facet normal -7.791512e-01 -3.084878e-01  5.456728e-01
   outer loop
     vertex  1.143561e+02  5.447527e+01  5.223871e+01
     vertex  1.116552e+02  5.528385e+01  4.883920e+01
     vertex  1.129407e+02  5.203690e+01  4.883920e+01
   endloop
 endfacet
 facet normal -8.372535e-01 -2.149702e-01  5.027867e-01
   outer loop
     vertex  1.143561e+02  5.447527e+01  5.223871e+01
     vertex  1.129407e+02  5.203690e+01  4.883920e+01
     vertex  1.153558e+02  5.058202e+01  5.223871e+01
   endloop
 endfacet
 facet normal  4.837006e-02 -1.027916e-01  9.935262e-01
   outer loop
     vertex  9.731836e+01  5.192622e+01  4.252852e+01
     vertex  9.944685e+01  4.857226e+01  4.207789e+01
     vertex  9.821933e+01  5.235019e+01  4.252852e+01
   endloop
 endfacet
 facet normal  2.117815e-02 -3.366171e-01  9.414034e-01
   outer loop
     vertex  9.799600e+01  5.617792e+01  4.385751e+01
     vertex  9.919743e+01  5.253677e+01  4.252852e+01
     vertex  9.993303e+01  5.629979e+01  4.385751e+01
   endloop
 endfacet
 facet normal  6.183386e-02 -3.241444e-01  9.439846e-01
   outer loop
     vertex  9.799600e+01  5.617792e+01  4.385751e+01
     vertex  9.821933e+01  5.235019e+01  4.252852e+01
     vertex  9.919743e+01  5.253677e+01  4.252852e+01
   endloop
 endfacet
 facet normal -9.901415e-02 -5.190503e-01  8.489894e-01
   outer loop
     vertex  1.015305e+02  5.949505e+01  4.599732e+01
     vertex  9.993303e+01  5.629979e+01  4.385751e+01
     vertex  1.018395e+02  5.593611e+01  4.385751e+01
   endloop
 endfacet
 facet normal -1.685095e-01 -5.186190e-01  8.382356e-01
   outer loop
     vertex  1.015305e+02  5.949505e+01  4.599732e+01
     vertex  1.018395e+02  5.593611e+01  4.385751e+01
     vertex  1.041814e+02  5.863372e+01  4.599732e+01
   endloop
 endfacet
 facet normal -3.750653e-01 -5.910083e-01  7.141675e-01
   outer loop
     vertex  1.069118e+02  6.033508e+01  4.883920e+01
     vertex  1.041814e+02  5.863372e+01  4.599732e+01
     vertex  1.065349e+02  5.714018e+01  4.599732e+01
   endloop
 endfacet
 facet normal -4.619551e-01 -5.584078e-01  6.890415e-01
   outer loop
     vertex  1.069118e+02  6.033508e+01  4.883920e+01
     vertex  1.065349e+02  5.714018e+01  4.599732e+01
     vertex  1.096025e+02  5.810908e+01  4.883920e+01
   endloop
 endfacet
 facet normal -6.779549e-01 -4.925631e-01  5.456728e-01
   outer loop
     vertex  1.124197e+02  5.799760e+01  5.223871e+01
     vertex  1.096025e+02  5.810908e+01  4.883920e+01
     vertex  1.116552e+02  5.528385e+01  4.883920e+01
   endloop
 endfacet
 facet normal -7.574887e-01 -4.164329e-01  5.027867e-01
   outer loop
     vertex  1.124197e+02  5.799760e+01  5.223871e+01
     vertex  1.116552e+02  5.528385e+01  4.883920e+01
     vertex  1.143561e+02  5.447527e+01  5.223871e+01
   endloop
 endfacet
 facet normal -9.306427e-01 -3.529462e-01  9.660787e-02
   outer loop
     vertex  1.162268e+02  5.288061e+01  5.602309e+01
     vertex  1.166641e+02  5.281594e+01  6.000000e+01
     vertex  1.151482e+02  5.681298e+01  6.000000e+01
   endloop
 endfacet
 facet normal -9.490988e-01 -1.198991e-01  2.912657e-01
   outer loop
     vertex  1.162268e+02  5.288061e+01  5.602309e+01
     vertex  1.153558e+02  5.058202e+01  5.223871e+01
     vertex  1.167710e+02  4.857226e+01  5.602309e+01
   endloop
 endfacet
 facet normal -9.072177e-01 -2.329339e-01  3.502825e-01
   outer loop
     vertex  1.162268e+02  5.288061e+01  5.602309e+01
     vertex  1.143561e+02  5.447527e+01  5.223871e+01
     vertex  1.153558e+02  5.058202e+01  5.223871e+01
   endloop
 endfacet
 facet normal -9.864764e-01 -1.246209e-01  1.064612e-01
   outer loop
     vertex  1.162268e+02  5.288061e+01  5.602309e+01
     vertex  1.167710e+02  4.857226e+01  5.602309e+01
     vertex  1.166641e+02  5.281594e+01  6.000000e+01
   endloop
 endfacet
 facet normal  7.241366e-02 -8.753308e-02  9.935262e-01
   outer loop
     vertex  9.655114e+01  5.129152e+01  4.252852e+01
     vertex  9.944685e+01  4.857226e+01  4.207789e+01
     vertex  9.731836e+01  5.192622e+01  4.252852e+01
   endloop
 endfacet
 facet normal  1.042261e-01 -3.207748e-01  9.414034e-01
   outer loop
     vertex  9.615013e+01  5.557816e+01  4.385751e+01
     vertex  9.821933e+01  5.235019e+01  4.252852e+01
     vertex  9.799600e+01  5.617792e+01  4.385751e+01
   endloop
 endfacet
 facet normal  1.405027e-01 -2.985834e-01  9.439846e-01
   outer loop
     vertex  9.615013e+01  5.557816e+01  4.385751e+01
     vertex  9.731836e+01  5.192622e+01  4.252852e+01
     vertex  9.821933e+01  5.235019e+01  4.252852e+01
   endloop
 endfacet
 facet normal  3.317913e-02 -5.273672e-01  8.489894e-01
   outer loop
     vertex  9.874864e+01  5.967007e+01  4.599732e+01
     vertex  9.799600e+01  5.617792e+01  4.385751e+01
     vertex  9.993303e+01  5.629979e+01  4.385751e+01
   endloop
 endfacet
 facet normal -3.424019e-02 -5.442322e-01  8.382356e-01
   outer loop
     vertex  9.874864e+01  5.967007e+01  4.599732e+01
     vertex  9.993303e+01  5.629979e+01  4.385751e+01
     vertex  1.015305e+02  5.949505e+01  4.599732e+01
   endloop
 endfacet
 facet normal -2.163041e-01 -6.657156e-01  7.141675e-01
   outer loop
     vertex  1.037519e+02  6.182197e+01  4.883920e+01
     vertex  1.015305e+02  5.949505e+01  4.599732e+01
     vertex  1.041814e+02  5.863372e+01  4.599732e+01
   endloop
 endfacet
 facet normal -3.085716e-01 -6.557480e-01  6.890415e-01
   outer loop
     vertex  1.037519e+02  6.182197e+01  4.883920e+01
     vertex  1.041814e+02  5.863372e+01  4.599732e+01
     vertex  1.069118e+02  6.033508e+01  4.883920e+01
   endloop
 endfacet
 facet normal -5.341603e-01 -6.456888e-01  5.456728e-01
   outer loop
     vertex  1.096682e+02  6.092771e+01  5.223871e+01
     vertex  1.069118e+02  6.033508e+01  4.883920e+01
     vertex  1.096025e+02  5.810908e+01  4.883920e+01
   endloop
 endfacet
 facet normal -6.301281e-01 -5.917297e-01  5.027867e-01
   outer loop
     vertex  1.096682e+02  6.092771e+01  5.223871e+01
     vertex  1.096025e+02  5.810908e+01  4.883920e+01
     vertex  1.124197e+02  5.799760e+01  5.223871e+01
   endloop
 endfacet
 facet normal -8.194785e-01 -5.656452e-01  9.219847e-02
   outer loop
     vertex  1.146281e+02  5.691825e+01  5.602309e+01
     vertex  1.151482e+02  5.681298e+01  6.000000e+01
     vertex  1.127198e+02  6.033111e+01  6.000000e+01
   endloop
 endfacet
 facet normal -9.240144e-01 -3.658432e-01  1.111580e-01
   outer loop
     vertex  1.146281e+02  5.691825e+01  5.602309e+01
     vertex  1.162268e+02  5.288061e+01  5.602309e+01
     vertex  1.151482e+02  5.681298e+01  6.000000e+01
   endloop
 endfacet
 facet normal -8.207875e-01 -4.512317e-01  3.502825e-01
   outer loop
     vertex  1.146281e+02  5.691825e+01  5.602309e+01
     vertex  1.124197e+02  5.799760e+01  5.223871e+01
     vertex  1.143561e+02  5.447527e+01  5.223871e+01
   endloop
 endfacet
 facet normal -8.894634e-01 -3.521635e-01  2.912657e-01
   outer loop
     vertex  1.146281e+02  5.691825e+01  5.602309e+01
     vertex  1.143561e+02  5.447527e+01  5.223871e+01
     vertex  1.162268e+02  5.288061e+01  5.602309e+01
   endloop
 endfacet
 facet normal  9.190724e-02 -6.677452e-02  9.935262e-01
   outer loop
     vertex  9.596586e+01  5.048595e+01  4.252852e+01
     vertex  9.944685e+01  4.857226e+01  4.207789e+01
     vertex  9.655114e+01  5.129152e+01  4.252852e+01
   endloop
 endfacet
 facet normal  2.103432e-01 -2.542612e-01  9.439846e-01
   outer loop
     vertex  9.451140e+01  5.453819e+01  4.385751e+01
     vertex  9.655114e+01  5.129152e+01  4.252852e+01
     vertex  9.731836e+01  5.192622e+01  4.252852e+01
   endloop
 endfacet
 facet normal  1.807251e-01 -2.847771e-01  9.414034e-01
   outer loop
     vertex  9.451140e+01  5.453819e+01  4.385751e+01
     vertex  9.731836e+01  5.192622e+01  4.252852e+01
     vertex  9.615013e+01  5.557816e+01  4.385751e+01
   endloop
 endfacet
 facet normal  1.021806e-01 -5.356493e-01  8.382356e-01
   outer loop
     vertex  9.601066e+01  5.914778e+01  4.599732e+01
     vertex  9.799600e+01  5.617792e+01  4.385751e+01
     vertex  9.874864e+01  5.967007e+01  4.599732e+01
   endloop
 endfacet
 facet normal  1.632876e-01 -5.025477e-01  8.489894e-01
   outer loop
     vertex  9.601066e+01  5.914778e+01  4.599732e+01
     vertex  9.615013e+01  5.557816e+01  4.385751e+01
     vertex  9.799600e+01  5.617792e+01  4.385751e+01
   endloop
 endfacet
 facet normal -4.395178e-02 -6.985936e-01  7.141675e-01
   outer loop
     vertex  1.003216e+02  6.247634e+01  4.883920e+01
     vertex  9.874864e+01  5.967007e+01  4.599732e+01
     vertex  1.015305e+02  5.949505e+01  4.599732e+01
   endloop
 endfacet
 facet normal -1.357993e-01 -7.118851e-01  6.890415e-01
   outer loop
     vertex  1.003216e+02  6.247634e+01  4.883920e+01
     vertex  1.015305e+02  5.949505e+01  4.599732e+01
     vertex  1.037519e+02  6.182197e+01  4.883920e+01
   endloop
 endfacet
 facet normal -3.568023e-01 -7.582436e-01  5.456728e-01
   outer loop
     vertex  1.062744e+02  6.308148e+01  5.223871e+01
     vertex  1.037519e+02  6.182197e+01  4.883920e+01
     vertex  1.069118e+02  6.033508e+01  4.883920e+01
   endloop
 endfacet
 facet normal -4.631743e-01 -7.298459e-01  5.027867e-01
   outer loop
     vertex  1.062744e+02  6.308148e+01  5.223871e+01
     vertex  1.069118e+02  6.033508e+01  4.883920e+01
     vertex  1.096682e+02  6.092771e+01  5.223871e+01
   endloop
 endfacet
 facet normal -6.605393e-01 -7.455947e-01  8.818389e-02
   outer loop
     vertex  1.120756e+02  6.043147e+01  5.602309e+01
     vertex  1.127198e+02  6.033111e+01  6.000000e+01
     vertex  1.095201e+02  6.316586e+01  6.000000e+01
   endloop
 endfacet
 facet normal -8.036082e-01 -5.838555e-01  1.154413e-01
   outer loop
     vertex  1.120756e+02  6.043147e+01  5.602309e+01
     vertex  1.146281e+02  5.691825e+01  5.602309e+01
     vertex  1.127198e+02  6.033111e+01  6.000000e+01
   endloop
 endfacet
 facet normal -6.827842e-01 -6.411770e-01  3.502825e-01
   outer loop
     vertex  1.120756e+02  6.043147e+01  5.602309e+01
     vertex  1.096682e+02  6.092771e+01  5.223871e+01
     vertex  1.124197e+02  5.799760e+01  5.223871e+01
   endloop
 endfacet
 facet normal -7.739398e-01 -5.623002e-01  2.912657e-01
   outer loop
     vertex  1.120756e+02  6.043147e+01  5.602309e+01
     vertex  1.124197e+02  5.799760e+01  5.223871e+01
     vertex  1.146281e+02  5.691825e+01  5.602309e+01
   endloop
 endfacet
 facet normal  1.056260e-01 -4.182027e-02  9.935262e-01
   outer loop
     vertex  9.559931e+01  4.956014e+01  4.252852e+01
     vertex  9.944685e+01  4.857226e+01  4.207789e+01
     vertex  9.596586e+01  5.048595e+01  4.252852e+01
   endloop
 endfacet
 facet normal  2.669671e-01 -1.939629e-01  9.439846e-01
   outer loop
     vertex  9.318279e+01  5.312337e+01  4.385751e+01
     vertex  9.596586e+01  5.048595e+01  4.252852e+01
     vertex  9.655114e+01  5.129152e+01  4.252852e+01
   endloop
 endfacet
 facet normal  2.458684e-01 -2.308858e-01  9.414034e-01
   outer loop
     vertex  9.318279e+01  5.312337e+01  4.385751e+01
     vertex  9.655114e+01  5.129152e+01  4.252852e+01
     vertex  9.451140e+01  5.453819e+01  4.385751e+01
   endloop
 endfacet
 facet normal  2.831362e-01 -4.461513e-01  8.489894e-01
   outer loop
     vertex  9.348859e+01  5.796098e+01  4.599732e+01
     vertex  9.451140e+01  5.453819e+01  4.385751e+01
     vertex  9.615013e+01  5.557816e+01  4.385751e+01
   endloop
 endfacet
 facet normal  2.321810e-01 -4.934096e-01  8.382356e-01
   outer loop
     vertex  9.348859e+01  5.796098e+01  4.599732e+01
     vertex  9.615013e+01  5.557816e+01  4.385751e+01
     vertex  9.601066e+01  5.914778e+01  4.599732e+01
   endloop
 endfacet
 facet normal  1.311622e-01 -6.875763e-01  7.141675e-01
   outer loop
     vertex  9.683634e+01  6.225707e+01  4.883920e+01
     vertex  9.601066e+01  5.914778e+01  4.599732e+01
     vertex  9.874864e+01  5.967007e+01  4.599732e+01
   endloop
 endfacet
 facet normal  4.550567e-02 -7.232919e-01  6.890415e-01
   outer loop
     vertex  9.683634e+01  6.225707e+01  4.883920e+01
     vertex  9.874864e+01  5.967007e+01  4.599732e+01
     vertex  1.003216e+02  6.247634e+01  4.883920e+01
   endloop
 endfacet
 facet normal -1.570252e-01 -8.231551e-01  5.456728e-01
   outer loop
     vertex  1.024516e+02  6.432358e+01  5.223871e+01
     vertex  1.003216e+02  6.247634e+01  4.883920e+01
     vertex  1.037519e+02  6.182197e+01  4.883920e+01
   endloop
 endfacet
 facet normal -2.671175e-01 -8.221032e-01  5.027867e-01
   outer loop
     vertex  1.024516e+02  6.432358e+01  5.223871e+01
     vertex  1.037519e+02  6.182197e+01  4.883920e+01
     vertex  1.062744e+02  6.308148e+01  5.223871e+01
   endloop
 endfacet
 facet normal -6.097867e-01 -7.371055e-01  2.912657e-01
   outer loop
     vertex  1.087296e+02  6.319955e+01  5.602309e+01
     vertex  1.096682e+02  6.092771e+01  5.223871e+01
     vertex  1.120756e+02  6.043147e+01  5.602309e+01
   endloop
 endfacet
 facet normal -4.630585e-01 -8.822842e-01  8.456602e-02
   outer loop
     vertex  1.087296e+02  6.319955e+01  5.602309e+01
     vertex  1.095201e+02  6.316586e+01  6.000000e+01
     vertex  1.057349e+02  6.515247e+01  6.000000e+01
   endloop
 endfacet
 facet normal -6.328707e-01 -7.650093e-01  1.193124e-01
   outer loop
     vertex  1.087296e+02  6.319955e+01  5.602309e+01
     vertex  1.120756e+02  6.043147e+01  5.602309e+01
     vertex  1.095201e+02  6.316586e+01  6.000000e+01
   endloop
 endfacet
 facet normal -5.018790e-01 -7.908348e-01  3.502825e-01
   outer loop
     vertex  1.087296e+02  6.319955e+01  5.602309e+01
     vertex  1.062744e+02  6.308148e+01  5.223871e+01
     vertex  1.096682e+02  6.092771e+01  5.223871e+01
   endloop
 endfacet
 facet normal  0.000000e+00  0.000000e+00  0.000000e+00
   outer loop
     vertex  9.547451e+01  4.857226e+01  4.252852e+01
     vertex  9.944685e+01  4.857226e+01  4.207789e+01
     vertex  9.944685e+01  4.857226e+01  4.207789e+01
   endloop
 endfacet
 facet normal  1.127078e-01 -1.423831e-02  9.935262e-01
   outer loop
     vertex  9.547451e+01  4.857226e+01  4.252852e+01
     vertex  9.944685e+01  4.857226e+01  4.207789e+01
     vertex  9.559931e+01  4.956014e+01  4.252852e+01
   endloop
 endfacet
 facet normal  2.955630e-01 -1.624871e-01  9.414034e-01
   outer loop
     vertex  9.224778e+01  5.142258e+01  4.385751e+01
     vertex  9.596586e+01  5.048595e+01  4.252852e+01
     vertex  9.318279e+01  5.312337e+01  4.385751e+01
   endloop
 endfacet
 facet normal  3.068164e-01 -1.214772e-01  9.439846e-01
   outer loop
     vertex  9.224778e+01  5.142258e+01  4.385751e+01
     vertex  9.559931e+01  4.956014e+01  4.252852e+01
     vertex  9.596586e+01  5.048595e+01  4.252852e+01
   endloop
 endfacet
 facet normal  3.851943e-01 -3.617215e-01  8.489894e-01
   outer loop
     vertex  9.134090e+01  5.618426e+01  4.599732e+01
     vertex  9.318279e+01  5.312337e+01  4.385751e+01
     vertex  9.451140e+01  5.453819e+01  4.385751e+01
   endloop
 endfacet
 facet normal  3.475926e-01 -4.201672e-01  8.382356e-01
   outer loop
     vertex  9.134090e+01  5.618426e+01  4.599732e+01
     vertex  9.451140e+01  5.453819e+01  4.385751e+01
     vertex  9.348859e+01  5.796098e+01  4.599732e+01
   endloop
 endfacet
 facet normal  2.980348e-01 -6.333561e-01  7.141675e-01
   outer loop
     vertex  9.351508e+01  6.117792e+01  4.883920e+01
     vertex  9.348859e+01  5.796098e+01  4.599732e+01
     vertex  9.601066e+01  5.914778e+01  4.599732e+01
   endloop
 endfacet
 facet normal  2.239514e-01 -6.892515e-01  6.890415e-01
   outer loop
     vertex  9.351508e+01  6.117792e+01  4.883920e+01
     vertex  9.601066e+01  5.914778e+01  4.599732e+01
     vertex  9.683634e+01  6.225707e+01  4.883920e+01
   endloop
 endfacet
 facet normal  5.261835e-02 -8.363448e-01  5.456728e-01
   outer loop
     vertex  9.843999e+01  6.457597e+01  5.223871e+01
     vertex  9.683634e+01  6.225707e+01  4.883920e+01
     vertex  1.003216e+02  6.247634e+01  4.883920e+01
   endloop
 endfacet
 facet normal -5.427679e-02 -8.627048e-01  5.027867e-01
   outer loop
     vertex  9.843999e+01  6.457597e+01  5.223871e+01
     vertex  1.003216e+02  6.247634e+01  4.883920e+01
     vertex  1.024516e+02  6.432358e+01  5.223871e+01
   endloop
 endfacet
 facet normal -2.385225e-01 -9.677240e-01  8.134646e-02
   outer loop
     vertex  1.048003e+02  6.504853e+01  5.602309e+01
     vertex  1.057349e+02  6.515247e+01  6.000000e+01
     vertex  1.015843e+02  6.617551e+01  6.000000e+01
   endloop
 endfacet
 facet normal -2.894389e-01 -8.908015e-01  3.502825e-01
   outer loop
     vertex  1.048003e+02  6.504853e+01  5.602309e+01
     vertex  1.024516e+02  6.432358e+01  5.223871e+01
     vertex  1.062744e+02  6.308148e+01  5.223871e+01
   endloop
 endfacet
 facet normal -4.073184e-01 -8.655957e-01  2.912657e-01
   outer loop
     vertex  1.048003e+02  6.504853e+01  5.602309e+01
     vertex  1.062744e+02  6.308148e+01  5.223871e+01
     vertex  1.087296e+02  6.319955e+01  5.602309e+01
   endloop
 endfacet
 facet normal -4.225582e-01 -8.979819e-01  1.227723e-01
   outer loop
     vertex  1.048003e+02  6.504853e+01  5.602309e+01
     vertex  1.087296e+02  6.319955e+01  5.602309e+01
     vertex  1.057349e+02  6.515247e+01  6.000000e+01
   endloop
 endfacet
 facet normal  1.127078e-01  1.423831e-02  9.935262e-01
   outer loop
     vertex  9.559931e+01  4.758438e+01  4.252852e+01
     vertex  9.944685e+01  4.857226e+01  4.207789e+01
     vertex  9.547451e+01  4.857226e+01  4.252852e+01
   endloop
 endfacet
 facet normal  3.273874e-01 -4.135865e-02  9.439846e-01
   outer loop
     vertex  9.176510e+01  4.954269e+01  4.385751e+01
     vertex  9.547451e+01  4.857226e+01  4.252852e+01
     vertex  9.559931e+01  4.956014e+01  4.252852e+01
   endloop
 endfacet
 facet normal  3.266862e-01 -8.387877e-02  9.414034e-01
   outer loop
     vertex  9.176510e+01  4.954269e+01  4.385751e+01
     vertex  9.559931e+01  4.956014e+01  4.252852e+01
     vertex  9.224778e+01  5.142258e+01  4.385751e+01
   endloop
 endfacet
 facet normal  4.630492e-01 -2.545634e-01  8.489894e-01
   outer loop
     vertex  8.970254e+01  5.392924e+01  4.599732e+01
     vertex  9.224778e+01  5.142258e+01  4.385751e+01
     vertex  9.318279e+01  5.312337e+01  4.385751e+01
   endloop
 endfacet
 facet normal  4.411636e-01 -3.205241e-01  8.382356e-01
   outer loop
     vertex  8.970254e+01  5.392924e+01  4.599732e+01
     vertex  9.318279e+01  5.312337e+01  4.385751e+01
     vertex  9.134090e+01  5.618426e+01  4.599732e+01
   endloop
 endfacet
 facet normal  4.461807e-01 -5.393399e-01  7.141675e-01
   outer loop
     vertex  9.056654e+01  5.930672e+01  4.883920e+01
     vertex  9.134090e+01  5.618426e+01  4.599732e+01
     vertex  9.348859e+01  5.796098e+01  4.599732e+01
   endloop
 endfacet
 facet normal  3.883254e-01 -6.119030e-01  6.890415e-01
   outer loop
     vertex  9.056654e+01  5.930672e+01  4.883920e+01
     vertex  9.348859e+01  5.796098e+01  4.599732e+01
     vertex  9.351508e+01  6.117792e+01  4.883920e+01
   endloop
 endfacet
 facet normal  2.589557e-01 -7.969838e-01  5.456728e-01
   outer loop
     vertex  9.449166e+01  6.382279e+01  5.223871e+01
     vertex  9.351508e+01  6.117792e+01  4.883920e+01
     vertex  9.683634e+01  6.225707e+01  4.883920e+01
   endloop
 endfacet
 facet normal  1.619744e-01 -8.490994e-01  5.027867e-01
   outer loop
     vertex  9.449166e+01  6.382279e+01  5.223871e+01
     vertex  9.683634e+01  6.225707e+01  4.883920e+01
     vertex  9.843999e+01  6.457597e+01  5.223871e+01
   endloop
 endfacet
 facet normal  0.000000e+00 -9.969120e-01  7.852660e-02
   outer loop
     vertex  1.005346e+02  6.586225e+01  5.602309e+01
     vertex  1.015843e+02  6.617551e+01  6.000000e+01
     vertex  9.730943e+01  6.617551e+01  6.000000e+01
   endloop
 endfacet
 facet normal -1.858922e-01 -9.744808e-01  1.258223e-01
   outer loop
     vertex  1.005346e+02  6.586225e+01  5.602309e+01
     vertex  1.048003e+02  6.504853e+01  5.602309e+01
     vertex  1.015843e+02  6.617551e+01  6.000000e+01
   endloop
 endfacet
 facet normal -1.792569e-01 -9.396974e-01  2.912657e-01
   outer loop
     vertex  1.005346e+02  6.586225e+01  5.602309e+01
     vertex  1.024516e+02  6.432358e+01  5.223871e+01
     vertex  1.048003e+02  6.504853e+01  5.602309e+01
   endloop
 endfacet
 facet normal -5.881237e-02 -9.347959e-01  3.502825e-01
   outer loop
     vertex  1.005346e+02  6.586225e+01  5.602309e+01
     vertex  9.843999e+01  6.457597e+01  5.223871e+01
     vertex  1.024516e+02  6.432358e+01  5.223871e+01
   endloop
 endfacet
 facet normal  1.056260e-01  4.182027e-02  9.935262e-01
   outer loop
     vertex  9.596586e+01  4.665857e+01  4.252852e+01
     vertex  9.944685e+01  4.857226e+01  4.207789e+01
     vertex  9.559931e+01  4.758438e+01  4.252852e+01
   endloop
 endfacet
 facet normal  3.372826e-01 -0.000000e+00  9.414034e-01
   outer loop
     vertex  9.176510e+01  4.760183e+01  4.385751e+01
     vertex  9.547451e+01  4.857226e+01  4.252852e+01
     vertex  9.176510e+01  4.954269e+01  4.385751e+01
   endloop
 endfacet
 facet normal  3.273874e-01  4.135865e-02  9.439846e-01
   outer loop
     vertex  9.176510e+01  4.760183e+01  4.385751e+01
     vertex  9.559931e+01  4.758438e+01  4.252852e+01
     vertex  9.547451e+01  4.857226e+01  4.252852e+01
   endloop
 endfacet
 facet normal  5.070148e-01 -2.007414e-01  8.382356e-01
   outer loop
     vertex  8.867645e+01  5.133763e+01  4.599732e+01
     vertex  9.224778e+01  5.142258e+01  4.385751e+01
     vertex  8.970254e+01  5.392924e+01  4.599732e+01
   endloop
 endfacet
 facet normal  5.118090e-01 -1.314102e-01  8.489894e-01
   outer loop
     vertex  8.867645e+01  5.133763e+01  4.599732e+01
     vertex  9.176510e+01  4.954269e+01  4.385751e+01
     vertex  9.224778e+01  5.142258e+01  4.385751e+01
   endloop
 endfacet
 facet normal  5.662915e-01 -4.114349e-01  7.141675e-01
   outer loop
     vertex  8.817598e+01  5.676103e+01  4.883920e+01
     vertex  8.970254e+01  5.392924e+01  4.599732e+01
     vertex  9.134090e+01  5.618426e+01  4.599732e+01
   endloop
 endfacet
 facet normal  5.282996e-01 -4.961063e-01  6.890415e-01
   outer loop
     vertex  8.817598e+01  5.676103e+01  4.883920e+01
     vertex  9.134090e+01  5.618426e+01  4.599732e+01
     vertex  9.056654e+01  5.930672e+01  4.883920e+01
   endloop
 endfacet
 facet normal  4.490220e-01 -7.075454e-01  5.456728e-01
   outer loop
     vertex  9.085468e+01  6.211136e+01  5.223871e+01
     vertex  9.056654e+01  5.930672e+01  4.883920e+01
     vertex  9.351508e+01  6.117792e+01  4.883920e+01
   endloop
 endfacet
 facet normal  3.680481e-01 -7.821420e-01  5.027867e-01
   outer loop
     vertex  9.085468e+01  6.211136e+01  5.223871e+01
     vertex  9.351508e+01  6.117792e+01  4.883920e+01
     vertex  9.449166e+01  6.382279e+01  5.223871e+01
   endloop
 endfacet
 facet normal  2.386216e-01 -9.681257e-01  7.610758e-02
   outer loop
     vertex  9.620063e+01  6.558958e+01  5.602309e+01
     vertex  9.730943e+01  6.617551e+01  6.000000e+01
     vertex  9.315881e+01  6.515247e+01  6.000000e+01
   endloop
 endfacet
 facet normal  1.755096e-01 -9.200536e-01  3.502825e-01
   outer loop
     vertex  9.620063e+01  6.558958e+01  5.602309e+01
     vertex  9.449166e+01  6.382279e+01  5.223871e+01
     vertex  9.843999e+01  6.457597e+01  5.223871e+01
   endloop
 endfacet
 facet normal  6.227025e-02 -9.897573e-01  1.284633e-01
   outer loop
     vertex  9.620063e+01  6.558958e+01  5.602309e+01
     vertex  1.005346e+02  6.586225e+01  5.602309e+01
     vertex  9.730943e+01  6.617551e+01  6.000000e+01
   endloop
 endfacet
 facet normal  6.006806e-02 -9.547545e-01  2.912657e-01
   outer loop
     vertex  9.620063e+01  6.558958e+01  5.602309e+01
     vertex  9.843999e+01  6.457597e+01  5.223871e+01
     vertex  1.005346e+02  6.586225e+01  5.602309e+01
   endloop
 endfacet
 facet normal  9.190724e-02  6.677452e-02  9.935262e-01
   outer loop
     vertex  9.655114e+01  4.585301e+01  4.252852e+01
     vertex  9.944685e+01  4.857226e+01  4.207789e+01
     vertex  9.596586e+01  4.665857e+01  4.252852e+01
   endloop
 endfacet
 facet normal  3.068164e-01  1.214772e-01  9.439846e-01
   outer loop
     vertex  9.224778e+01  4.572195e+01  4.385751e+01
     vertex  9.596586e+01  4.665857e+01  4.252852e+01
     vertex  9.559931e+01  4.758438e+01  4.252852e+01
   endloop
 endfacet
 facet normal  3.266862e-01  8.387877e-02  9.414034e-01
   outer loop
     vertex  9.224778e+01  4.572195e+01  4.385751e+01
     vertex  9.559931e+01  4.758438e+01  4.252852e+01
     vertex  9.176510e+01  4.760183e+01  4.385751e+01
   endloop
 endfacet
 facet normal  5.410083e-01 -6.834524e-02  8.382356e-01
   outer loop
     vertex  8.832710e+01  4.857226e+01  4.599732e+01
     vertex  9.176510e+01  4.954269e+01  4.385751e+01
     vertex  8.867645e+01  5.133763e+01  4.599732e+01
   endloop
 endfacet
 facet normal  5.284099e-01  0.000000e+00  8.489894e-01
   outer loop
     vertex  8.832710e+01  4.857226e+01  4.599732e+01
     vertex  9.176510e+01  4.760183e+01  4.385751e+01
     vertex  9.176510e+01  4.954269e+01  4.385751e+01
   endloop
 endfacet
 facet normal  6.350787e-01 -3.491375e-01  6.890415e-01
   outer loop
     vertex  8.649361e+01  5.370082e+01  4.883920e+01
     vertex  8.970254e+01  5.392924e+01  4.599732e+01
     vertex  8.817598e+01  5.676103e+01  4.883920e+01
   endloop
 endfacet
 facet normal  6.508201e-01 -2.576779e-01  7.141675e-01
   outer loop
     vertex  8.649361e+01  5.370082e+01  4.883920e+01
     vertex  8.867645e+01  5.133763e+01  4.599732e+01
     vertex  8.970254e+01  5.392924e+01  4.599732e+01
   endloop
 endfacet
 facet normal  6.108745e-01 -5.736493e-01  5.456728e-01
   outer loop
     vertex  8.775759e+01  5.954921e+01  5.223871e+01
     vertex  8.817598e+01  5.676103e+01  4.883920e+01
     vertex  9.056654e+01  5.930672e+01  4.883920e+01
   endloop
 endfacet
 facet normal  5.509960e-01 -6.660397e-01  5.027867e-01
   outer loop
     vertex  8.775759e+01  5.954921e+01  5.223871e+01
     vertex  9.056654e+01  5.930672e+01  4.883920e+01
     vertex  9.085468e+01  6.211136e+01  5.223871e+01
   endloop
 endfacet
 facet normal  4.634459e-01 -8.830224e-01  7.409035e-02
   outer loop
     vertex  9.207058e+01  6.424764e+01  5.602309e+01
     vertex  9.315881e+01  6.515247e+01  6.000000e+01
     vertex  8.937362e+01  6.316586e+01  6.000000e+01
   endloop
 endfacet
 facet normal  3.988037e-01 -8.475009e-01  3.502825e-01
   outer loop
     vertex  9.207058e+01  6.424764e+01  5.602309e+01
     vertex  9.085468e+01  6.211136e+01  5.223871e+01
     vertex  9.449166e+01  6.382279e+01  5.223871e+01
   endloop
 endfacet
 facet normal  3.063664e-01 -9.428988e-01  1.306962e-01
   outer loop
     vertex  9.207058e+01  6.424764e+01  5.602309e+01
     vertex  9.620063e+01  6.558958e+01  5.602309e+01
     vertex  9.315881e+01  6.515247e+01  6.000000e+01
   endloop
 endfacet
 facet normal  2.956187e-01 -9.098208e-01  2.912657e-01
   outer loop
     vertex  9.207058e+01  6.424764e+01  5.602309e+01
     vertex  9.449166e+01  6.382279e+01  5.223871e+01
     vertex  9.620063e+01  6.558958e+01  5.602309e+01
   endloop
 endfacet
 facet normal  7.241366e-02  8.753308e-02  9.935262e-01
   outer loop
     vertex  9.731836e+01  4.521830e+01  4.252852e+01
     vertex  9.944685e+01  4.857226e+01  4.207789e+01
     vertex  9.655114e+01  4.585301e+01  4.252852e+01
   endloop
 endfacet
 facet normal  2.955630e-01  1.624871e-01  9.414034e-01
   outer loop
     vertex  9.318279e+01  4.402116e+01  4.385751e+01
     vertex  9.596586e+01  4.665857e+01  4.252852e+01
     vertex  9.224778e+01  4.572195e+01  4.385751e+01
   endloop
 endfacet
 facet normal  2.669671e-01  1.939629e-01  9.439846e-01
   outer loop
     vertex  9.318279e+01  4.402116e+01  4.385751e+01
     vertex  9.655114e+01  4.585301e+01  4.252852e+01
     vertex  9.596586e+01  4.665857e+01  4.252852e+01
   endloop
 endfacet
 facet normal  5.118090e-01  1.314102e-01  8.489894e-01
   outer loop
     vertex  8.867645e+01  4.580689e+01  4.599732e+01
     vertex  9.224778e+01  4.572195e+01  4.385751e+01
     vertex  9.176510e+01  4.760183e+01  4.385751e+01
   endloop
 endfacet
 facet normal  5.410083e-01  6.834524e-02  8.382356e-01
   outer loop
     vertex  8.867645e+01  4.580689e+01  4.599732e+01
     vertex  9.176510e+01  4.760183e+01  4.385751e+01
     vertex  8.832710e+01  4.857226e+01  4.599732e+01
   endloop
 endfacet
 facet normal  6.944553e-01 -8.773011e-02  7.141675e-01
   outer loop
     vertex  8.562514e+01  5.031835e+01  4.883920e+01
     vertex  8.832710e+01  4.857226e+01  4.599732e+01
     vertex  8.867645e+01  5.133763e+01  4.599732e+01
   endloop
 endfacet
 facet normal  7.019535e-01 -1.802310e-01  6.890415e-01
   outer loop
     vertex  8.562514e+01  5.031835e+01  4.883920e+01
     vertex  8.867645e+01  5.133763e+01  4.599732e+01
     vertex  8.649361e+01  5.370082e+01  4.883920e+01
   endloop
 endfacet
 facet normal  6.993228e-01 -5.080878e-01  5.027867e-01
   outer loop
     vertex  8.539497e+01  5.629735e+01  5.223871e+01
     vertex  8.817598e+01  5.676103e+01  4.883920e+01
     vertex  8.775759e+01  5.954921e+01  5.223871e+01
   endloop
 endfacet
 facet normal  7.343436e-01 -4.037088e-01  5.456728e-01
   outer loop
     vertex  8.539497e+01  5.629735e+01  5.223871e+01
     vertex  8.649361e+01  5.370082e+01  4.883920e+01
     vertex  8.817598e+01  5.676103e+01  4.883920e+01
   endloop
 endfacet
 facet normal  6.613788e-01 -7.465423e-01  7.247569e-02
   outer loop
     vertex  8.840401e+01  6.192077e+01  5.602309e+01
     vertex  8.937362e+01  6.316586e+01  6.000000e+01
     vertex  8.617386e+01  6.033111e+01  6.000000e+01
   endloop
 endfacet
 facet normal  5.311008e-01 -8.368810e-01  1.325220e-01
   outer loop
     vertex  8.840401e+01  6.192077e+01  5.602309e+01
     vertex  9.207058e+01  6.424764e+01  5.602309e+01
     vertex  8.937362e+01  6.316586e+01  6.000000e+01
   endloop
 endfacet
 facet normal  5.970394e-01 -7.216967e-01  3.502825e-01
   outer loop
     vertex  8.840401e+01  6.192077e+01  5.602309e+01
     vertex  8.775759e+01  5.954921e+01  5.223871e+01
     vertex  9.085468e+01  6.211136e+01  5.223871e+01
   endloop
 endfacet
 facet normal  5.125945e-01 -8.077197e-01  2.912657e-01
   outer loop
     vertex  8.840401e+01  6.192077e+01  5.602309e+01
     vertex  9.085468e+01  6.211136e+01  5.223871e+01
     vertex  9.207058e+01  6.424764e+01  5.602309e+01
   endloop
 endfacet
 facet normal  4.837006e-02  1.027916e-01  9.935262e-01
   outer loop
     vertex  9.821933e+01  4.479434e+01  4.252852e+01
     vertex  9.944685e+01  4.857226e+01  4.207789e+01
     vertex  9.731836e+01  4.521830e+01  4.252852e+01
   endloop
 endfacet
 facet normal  2.103432e-01  2.542612e-01  9.439846e-01
   outer loop
     vertex  9.451140e+01  4.260633e+01  4.385751e+01
     vertex  9.731836e+01  4.521830e+01  4.252852e+01
     vertex  9.655114e+01  4.585301e+01  4.252852e+01
   endloop
 endfacet
 facet normal  2.458684e-01  2.308858e-01  9.414034e-01
   outer loop
     vertex  9.451140e+01  4.260633e+01  4.385751e+01
     vertex  9.655114e+01  4.585301e+01  4.252852e+01
     vertex  9.318279e+01  4.402116e+01  4.385751e+01
   endloop
 endfacet
 facet normal  4.630492e-01  2.545634e-01  8.489894e-01
   outer loop
     vertex  8.970254e+01  4.321528e+01  4.599732e+01
     vertex  9.318279e+01  4.402116e+01  4.385751e+01
     vertex  9.224778e+01  4.572195e+01  4.385751e+01
   endloop
 endfacet
 facet normal  5.070148e-01  2.007414e-01  8.382356e-01
   outer loop
     vertex  8.970254e+01  4.321528e+01  4.599732e+01
     vertex  9.224778e+01  4.572195e+01  4.385751e+01
     vertex  8.867645e+01  4.580689e+01  4.599732e+01
   endloop
 endfacet
 facet normal  6.944553e-01  8.773011e-02  7.141675e-01
   outer loop
     vertex  8.562514e+01  4.682617e+01  4.883920e+01
     vertex  8.867645e+01  4.580689e+01  4.599732e+01
     vertex  8.832710e+01  4.857226e+01  4.599732e+01
   endloop
 endfacet
 facet normal  7.247219e-01 -0.000000e+00  6.890415e-01
   outer loop
     vertex  8.562514e+01  4.682617e+01  4.883920e+01
     vertex  8.832710e+01  4.857226e+01  4.599732e+01
     vertex  8.562514e+01  5.031835e+01  4.883920e+01
   endloop
 endfacet
 facet normal  8.116711e-01 -2.084017e-01  5.456728e-01
   outer loop
     vertex  8.391528e+01  5.256009e+01  5.223871e+01
     vertex  8.562514e+01  5.031835e+01  4.883920e+01
     vertex  8.649361e+01  5.370082e+01  4.883920e+01
   endloop
 endfacet
 facet normal  8.037086e-01 -3.182107e-01  5.027867e-01
   outer loop
     vertex  8.391528e+01  5.256009e+01  5.223871e+01
     vertex  8.649361e+01  5.370082e+01  4.883920e+01
     vertex  8.539497e+01  5.629735e+01  5.223871e+01
   endloop
 endfacet
 facet normal  7.577610e-01 -5.505456e-01  3.502825e-01
   outer loop
     vertex  8.543130e+01  5.875516e+01  5.602309e+01
     vertex  8.539497e+01  5.629735e+01  5.223871e+01
     vertex  8.775759e+01  5.954921e+01  5.223871e+01
   endloop
 endfacet
 facet normal  8.208914e-01 -5.666204e-01  7.126419e-02
   outer loop
     vertex  8.543130e+01  5.875516e+01  5.602309e+01
     vertex  8.617386e+01  6.033111e+01  6.000000e+01
     vertex  8.374547e+01  5.681298e+01  6.000000e+01
   endloop
 endfacet
 facet normal  6.973622e-01 -6.548667e-01  2.912657e-01
   outer loop
     vertex  8.543130e+01  5.875516e+01  5.602309e+01
     vertex  8.775759e+01  5.954921e+01  5.223871e+01
     vertex  8.840401e+01  6.192077e+01  5.602309e+01
   endloop
 endfacet
 facet normal  7.224001e-01 -6.783788e-01  1.339413e-01
   outer loop
     vertex  8.543130e+01  5.875516e+01  5.602309e+01
     vertex  8.840401e+01  6.192077e+01  5.602309e+01
     vertex  8.617386e+01  6.033111e+01  6.000000e+01
   endloop
 endfacet
 facet normal  2.128719e-02  1.115914e-01  9.935262e-01
   outer loop
     vertex  9.919743e+01  4.460776e+01  4.252852e+01
     vertex  9.944685e+01  4.857226e+01  4.207789e+01
     vertex  9.821933e+01  4.479434e+01  4.252852e+01
   endloop
 endfacet
 facet normal  1.807251e-01  2.847771e-01  9.414034e-01
   outer loop
     vertex  9.615013e+01  4.156636e+01  4.385751e+01
     vertex  9.731836e+01  4.521830e+01  4.252852e+01
     vertex  9.451140e+01  4.260633e+01  4.385751e+01
   endloop
 endfacet
 facet normal  1.405027e-01  2.985834e-01  9.439846e-01
   outer loop
     vertex  9.615013e+01  4.156636e+01  4.385751e+01
     vertex  9.821933e+01  4.479434e+01  4.252852e+01
     vertex  9.731836e+01  4.521830e+01  4.252852e+01
   endloop
 endfacet
 facet normal  4.411636e-01  3.205241e-01  8.382356e-01
   outer loop
     vertex  9.134090e+01  4.096027e+01  4.599732e+01
     vertex  9.318279e+01  4.402116e+01  4.385751e+01
     vertex  8.970254e+01  4.321528e+01  4.599732e+01
   endloop
 endfacet
 facet normal  3.851943e-01  3.617215e-01  8.489894e-01
   outer loop
     vertex  9.134090e+01  4.096027e+01  4.599732e+01
     vertex  9.451140e+01  4.260633e+01  4.385751e+01
     vertex  9.318279e+01  4.402116e+01  4.385751e+01
   endloop
 endfacet
 facet normal  6.508201e-01  2.576779e-01  7.141675e-01
   outer loop
     vertex  8.649361e+01  4.344371e+01  4.883920e+01
     vertex  8.970254e+01  4.321528e+01  4.599732e+01
     vertex  8.867645e+01  4.580689e+01  4.599732e+01
   endloop
 endfacet
 facet normal  7.019535e-01  1.802310e-01  6.890415e-01
   outer loop
     vertex  8.649361e+01  4.344371e+01  4.883920e+01
     vertex  8.867645e+01  4.580689e+01  4.599732e+01
     vertex  8.562514e+01  4.682617e+01  4.883920e+01
   endloop
 endfacet
 facet normal  8.379984e-01  0.000000e+00  5.456728e-01
   outer loop
     vertex  8.341150e+01  4.857226e+01  5.223871e+01
     vertex  8.562514e+01  4.682617e+01  4.883920e+01
     vertex  8.562514e+01  5.031835e+01  4.883920e+01
   endloop
 endfacet
 facet normal  8.575944e-01 -1.083394e-01  5.027867e-01
   outer loop
     vertex  8.341150e+01  4.857226e+01  5.223871e+01
     vertex  8.562514e+01  5.031835e+01  4.883920e+01
     vertex  8.391528e+01  5.256009e+01  5.223871e+01
   endloop
 endfacet
 facet normal  8.383120e-01 -4.608659e-01  2.912657e-01
   outer loop
     vertex  8.333924e+01  5.494972e+01  5.602309e+01
     vertex  8.539497e+01  5.629735e+01  5.223871e+01
     vertex  8.543130e+01  5.875516e+01  5.602309e+01
   endloop
 endfacet
 facet normal  8.682900e-01 -4.773465e-01  1.349547e-01
   outer loop
     vertex  8.333924e+01  5.494972e+01  5.602309e+01
     vertex  8.543130e+01  5.875516e+01  5.602309e+01
     vertex  8.374547e+01  5.681298e+01  6.000000e+01
   endloop
 endfacet
 facet normal  9.326926e-01 -3.537236e-01  7.045628e-02
   outer loop
     vertex  8.333924e+01  5.494972e+01  5.602309e+01
     vertex  8.374547e+01  5.681298e+01  6.000000e+01
     vertex  8.222959e+01  5.281594e+01  6.000000e+01
   endloop
 endfacet
 facet normal  8.708697e-01 -3.448017e-01  3.502825e-01
   outer loop
     vertex  8.333924e+01  5.494972e+01  5.602309e+01
     vertex  8.391528e+01  5.256009e+01  5.223871e+01
     vertex  8.539497e+01  5.629735e+01  5.223871e+01
   endloop
 endfacet
 facet normal -7.133229e-03  1.133794e-01  9.935262e-01
   outer loop
     vertex  1.001912e+02  4.467028e+01  4.252852e+01
     vertex  9.944685e+01  4.857226e+01  4.207789e+01
     vertex  9.919743e+01  4.460776e+01  4.252852e+01
   endloop
 endfacet
 facet normal  6.183386e-02  3.241444e-01  9.439846e-01
   outer loop
     vertex  9.799600e+01  4.096661e+01  4.385751e+01
     vertex  9.919743e+01  4.460776e+01  4.252852e+01
     vertex  9.821933e+01  4.479434e+01  4.252852e+01
   endloop
 endfacet
 facet normal  1.042261e-01  3.207748e-01  9.414034e-01
   outer loop
     vertex  9.799600e+01  4.096661e+01  4.385751e+01
     vertex  9.821933e+01  4.479434e+01  4.252852e+01
     vertex  9.615013e+01  4.156636e+01  4.385751e+01
   endloop
 endfacet
 facet normal  3.475926e-01  4.201672e-01  8.382356e-01
   outer loop
     vertex  9.348859e+01  3.918354e+01  4.599732e+01
     vertex  9.451140e+01  4.260633e+01  4.385751e+01
     vertex  9.134090e+01  4.096027e+01  4.599732e+01
   endloop
 endfacet
 facet normal  2.831362e-01  4.461513e-01  8.489894e-01
   outer loop
     vertex  9.348859e+01  3.918354e+01  4.599732e+01
     vertex  9.615013e+01  4.156636e+01  4.385751e+01
     vertex  9.451140e+01  4.260633e+01  4.385751e+01
   endloop
 endfacet
 facet normal  5.662915e-01  4.114349e-01  7.141675e-01
   outer loop
     vertex  8.817598e+01  4.038349e+01  4.883920e+01
     vertex  9.134090e+01  4.096027e+01  4.599732e+01
     vertex  8.970254e+01  4.321528e+01  4.599732e+01
   endloop
 endfacet
 facet normal  6.350787e-01  3.491375e-01  6.890415e-01
   outer loop
     vertex  8.817598e+01  4.038349e+01  4.883920e+01
     vertex  8.970254e+01  4.321528e+01  4.599732e+01
     vertex  8.649361e+01  4.344371e+01  4.883920e+01
   endloop
 endfacet
 facet normal  8.575944e-01  1.083394e-01  5.027867e-01
   outer loop
     vertex  8.391528e+01  4.458443e+01  5.223871e+01
     vertex  8.562514e+01  4.682617e+01  4.883920e+01
     vertex  8.341150e+01  4.857226e+01  5.223871e+01
   endloop
 endfacet
 facet normal  8.116711e-01  2.084017e-01  5.456728e-01
   outer loop
     vertex  8.391528e+01  4.458443e+01  5.223871e+01
     vertex  8.649361e+01  4.344371e+01  4.883920e+01
     vertex  8.562514e+01  4.682617e+01  4.883920e+01
   endloop
 endfacet
 facet normal  9.902701e-01 -1.202406e-01  7.005226e-02
   outer loop
     vertex  8.225929e+01  5.074356e+01  5.602309e+01
     vertex  8.222959e+01  5.281594e+01  6.000000e+01
     vertex  8.171431e+01  4.857226e+01  6.000000e+01
   endloop
 endfacet
 facet normal  9.596420e-01 -2.463942e-01  1.355626e-01
   outer loop
     vertex  8.225929e+01  5.074356e+01  5.602309e+01
     vertex  8.333924e+01  5.494972e+01  5.602309e+01
     vertex  8.222959e+01  5.281594e+01  6.000000e+01
   endloop
 endfacet
 facet normal  9.292584e-01 -1.173926e-01  3.502825e-01
   outer loop
     vertex  8.225929e+01  5.074356e+01  5.602309e+01
     vertex  8.341150e+01  4.857226e+01  5.223871e+01
     vertex  8.391528e+01  5.256009e+01  5.223871e+01
   endloop
 endfacet
 facet normal  9.265875e-01 -2.379072e-01  2.912657e-01
   outer loop
     vertex  8.225929e+01  5.074356e+01  5.602309e+01
     vertex  8.391528e+01  5.256009e+01  5.223871e+01
     vertex  8.333924e+01  5.494972e+01  5.602309e+01
   endloop
 endfacet
 facet normal -3.510544e-02  1.080434e-01  9.935262e-01
   outer loop
     vertex  1.011382e+02  4.497798e+01  4.252852e+01
     vertex  9.944685e+01  4.857226e+01  4.207789e+01
     vertex  1.001912e+02  4.467028e+01  4.252852e+01
   endloop
 endfacet
 facet normal -2.072021e-02  3.293383e-01  9.439846e-01
   outer loop
     vertex  9.993303e+01  4.084474e+01  4.385751e+01
     vertex  1.001912e+02  4.467028e+01  4.252852e+01
     vertex  9.919743e+01  4.460776e+01  4.252852e+01
   endloop
 endfacet
 facet normal  2.117815e-02  3.366171e-01  9.414034e-01
   outer loop
     vertex  9.993303e+01  4.084474e+01  4.385751e+01
     vertex  9.919743e+01  4.460776e+01  4.252852e+01
     vertex  9.799600e+01  4.096661e+01  4.385751e+01
   endloop
 endfacet
 facet normal  1.632876e-01  5.025477e-01  8.489894e-01
   outer loop
     vertex  9.601066e+01  3.799675e+01  4.599732e+01
     vertex  9.799600e+01  4.096661e+01  4.385751e+01
     vertex  9.615013e+01  4.156636e+01  4.385751e+01
   endloop
 endfacet
 facet normal  2.321810e-01  4.934096e-01  8.382356e-01
   outer loop
     vertex  9.601066e+01  3.799675e+01  4.599732e+01
     vertex  9.615013e+01  4.156636e+01  4.385751e+01
     vertex  9.348859e+01  3.918354e+01  4.599732e+01
   endloop
 endfacet
 facet normal  4.461807e-01  5.393399e-01  7.141675e-01
   outer loop
     vertex  9.056654e+01  3.783780e+01  4.883920e+01
     vertex  9.348859e+01  3.918354e+01  4.599732e+01
     vertex  9.134090e+01  4.096027e+01  4.599732e+01
   endloop
 endfacet
 facet normal  5.282996e-01  4.961063e-01  6.890415e-01
   outer loop
     vertex  9.056654e+01  3.783780e+01  4.883920e+01
     vertex  9.134090e+01  4.096027e+01  4.599732e+01
     vertex  8.817598e+01  4.038349e+01  4.883920e+01
   endloop
 endfacet
 facet normal  7.343436e-01  4.037088e-01  5.456728e-01
   outer loop
     vertex  8.539497e+01  4.084717e+01  5.223871e+01
     vertex  8.817598e+01  4.038349e+01  4.883920e+01
     vertex  8.649361e+01  4.344371e+01  4.883920e+01
   endloop
 endfacet
 facet normal  8.037086e-01  3.182107e-01  5.027867e-01
   outer loop
     vertex  8.539497e+01  4.084717e+01  5.223871e+01
     vertex  8.649361e+01  4.344371e+01  4.883920e+01
     vertex  8.391528e+01  4.458443e+01  5.223871e+01
   endloop
 endfacet
 facet normal  9.902701e-01  1.202406e-01  7.005226e-02
   outer loop
     vertex  8.225929e+01  4.640097e+01  5.602309e+01
     vertex  8.171431e+01  4.857226e+01  6.000000e+01
     vertex  8.222959e+01  4.432859e+01  6.000000e+01
   endloop
 endfacet
 facet normal  9.907410e-01 -0.000000e+00  1.357652e-01
   outer loop
     vertex  8.225929e+01  4.640097e+01  5.602309e+01
     vertex  8.225929e+01  5.074356e+01  5.602309e+01
     vertex  8.171431e+01  4.857226e+01  6.000000e+01
   endloop
 endfacet
 facet normal  9.292584e-01  1.173926e-01  3.502825e-01
   outer loop
     vertex  8.225929e+01  4.640097e+01  5.602309e+01
     vertex  8.391528e+01  4.458443e+01  5.223871e+01
     vertex  8.341150e+01  4.857226e+01  5.223871e+01
   endloop
 endfacet
 facet normal  9.566422e-01 -0.000000e+00  2.912657e-01
   outer loop
     vertex  8.225929e+01  4.640097e+01  5.602309e+01
     vertex  8.341150e+01  4.857226e+01  5.223871e+01
     vertex  8.225929e+01  5.074356e+01  5.602309e+01
   endloop
 endfacet
 facet normal -6.087185e-02  9.591869e-02  9.935262e-01
   outer loop
     vertex  1.019789e+02  4.551152e+01  4.252852e+01
     vertex  9.944685e+01  4.857226e+01  4.207789e+01
     vertex  1.011382e+02  4.497798e+01  4.252852e+01
   endloop
 endfacet
 facet normal -1.019724e-01  3.138386e-01  9.439846e-01
   outer loop
     vertex  1.018395e+02  4.120842e+01  4.385751e+01
     vertex  1.011382e+02  4.497798e+01  4.252852e+01
     vertex  1.001912e+02  4.467028e+01  4.252852e+01
   endloop
 endfacet
 facet normal -6.320046e-02  3.313084e-01  9.414034e-01
   outer loop
     vertex  1.018395e+02  4.120842e+01  4.385751e+01
     vertex  1.001912e+02  4.467028e+01  4.252852e+01
     vertex  9.993303e+01  4.084474e+01  4.385751e+01
   endloop
 endfacet
 facet normal  3.317913e-02  5.273672e-01  8.489894e-01
   outer loop
     vertex  9.874864e+01  3.747445e+01  4.599732e+01
     vertex  9.993303e+01  4.084474e+01  4.385751e+01
     vertex  9.799600e+01  4.096661e+01  4.385751e+01
   endloop
 endfacet
 facet normal  1.021806e-01  5.356493e-01  8.382356e-01
   outer loop
     vertex  9.874864e+01  3.747445e+01  4.599732e+01
     vertex  9.799600e+01  4.096661e+01  4.385751e+01
     vertex  9.601066e+01  3.799675e+01  4.599732e+01
   endloop
 endfacet
 facet normal  2.980348e-01  6.333561e-01  7.141675e-01
   outer loop
     vertex  9.351508e+01  3.596660e+01  4.883920e+01
     vertex  9.601066e+01  3.799675e+01  4.599732e+01
     vertex  9.348859e+01  3.918354e+01  4.599732e+01
   endloop
 endfacet
 facet normal  3.883254e-01  6.119030e-01  6.890415e-01
   outer loop
     vertex  9.351508e+01  3.596660e+01  4.883920e+01
     vertex  9.348859e+01  3.918354e+01  4.599732e+01
     vertex  9.056654e+01  3.783780e+01  4.883920e+01
   endloop
 endfacet
 facet normal  6.108745e-01  5.736493e-01  5.456728e-01
   outer loop
     vertex  8.775759e+01  3.759531e+01  5.223871e+01
     vertex  9.056654e+01  3.783780e+01  4.883920e+01
     vertex  8.817598e+01  4.038349e+01  4.883920e+01
   endloop
 endfacet
 facet normal  6.993228e-01  5.080878e-01  5.027867e-01
   outer loop
     vertex  8.775759e+01  3.759531e+01  5.223871e+01
     vertex  8.817598e+01  4.038349e+01  4.883920e+01
     vertex  8.539497e+01  4.084717e+01  5.223871e+01
   endloop
 endfacet
 facet normal  9.326926e-01  3.537236e-01  7.045628e-02
   outer loop
     vertex  8.333924e+01  4.219481e+01  5.602309e+01
     vertex  8.222959e+01  4.432859e+01  6.000000e+01
     vertex  8.374547e+01  4.033154e+01  6.000000e+01
   endloop
 endfacet
 facet normal  9.596420e-01  2.463942e-01  1.355626e-01
   outer loop
     vertex  8.333924e+01  4.219481e+01  5.602309e+01
     vertex  8.225929e+01  4.640097e+01  5.602309e+01
     vertex  8.222959e+01  4.432859e+01  6.000000e+01
   endloop
 endfacet
 facet normal  8.708697e-01  3.448017e-01  3.502825e-01
   outer loop
     vertex  8.333924e+01  4.219481e+01  5.602309e+01
     vertex  8.539497e+01  4.084717e+01  5.223871e+01
     vertex  8.391528e+01  4.458443e+01  5.223871e+01
   endloop
 endfacet
 facet normal  9.265875e-01  2.379072e-01  2.912657e-01
   outer loop
     vertex  8.333924e+01  4.219481e+01  5.602309e+01
     vertex  8.391528e+01  4.458443e+01  5.223871e+01
     vertex  8.225929e+01  4.640097e+01  5.602309e+01
   endloop
 endfacet
 facet normal -8.281346e-02  7.776702e-02  9.935262e-01
   outer loop
     vertex  1.026605e+02  4.623738e+01  4.252852e+01
     vertex  9.944685e+01  4.857226e+01  4.207789e+01
     vertex  1.019789e+02  4.551152e+01  4.252852e+01
   endloop
 endfacet
 facet normal -1.436079e-01  3.051824e-01  9.414034e-01
   outer loop
     vertex  1.035957e+02  4.203480e+01  4.385751e+01
     vertex  1.011382e+02  4.497798e+01  4.252852e+01
     vertex  1.018395e+02  4.120842e+01  4.385751e+01
   endloop
 endfacet
 facet normal -1.768172e-01  2.786193e-01  9.439846e-01
   outer loop
     vertex  1.035957e+02  4.203480e+01  4.385751e+01
     vertex  1.019789e+02  4.551152e+01  4.252852e+01
     vertex  1.011382e+02  4.497798e+01  4.252852e+01
   endloop
 endfacet
 facet normal -9.901415e-02  5.190503e-01  8.489894e-01
   outer loop
     vertex  1.015305e+02  3.764947e+01  4.599732e+01
     vertex  1.018395e+02  4.120842e+01  4.385751e+01
     vertex  9.993303e+01  4.084474e+01  4.385751e+01
   endloop
 endfacet
 facet normal -3.424019e-02  5.442322e-01  8.382356e-01
   outer loop
     vertex  1.015305e+02  3.764947e+01  4.599732e+01
     vertex  9.993303e+01  4.084474e+01  4.385751e+01
     vertex  9.874864e+01  3.747445e+01  4.599732e+01
   endloop
 endfacet
 facet normal  1.311622e-01  6.875763e-01  7.141675e-01
   outer loop
     vertex  9.683634e+01  3.488746e+01  4.883920e+01
     vertex  9.874864e+01  3.747445e+01  4.599732e+01
     vertex  9.601066e+01  3.799675e+01  4.599732e+01
   endloop
 endfacet
 facet normal  2.239514e-01  6.892515e-01  6.890415e-01
   outer loop
     vertex  9.683634e+01  3.488746e+01  4.883920e+01
     vertex  9.601066e+01  3.799675e+01  4.599732e+01
     vertex  9.351508e+01  3.596660e+01  4.883920e+01
   endloop
 endfacet
 facet normal  4.490220e-01  7.075454e-01  5.456728e-01
   outer loop
     vertex  9.085468e+01  3.503317e+01  5.223871e+01
     vertex  9.351508e+01  3.596660e+01  4.883920e+01
     vertex  9.056654e+01  3.783780e+01  4.883920e+01
   endloop
 endfacet
 facet normal  5.509960e-01  6.660397e-01  5.027867e-01
   outer loop
     vertex  9.085468e+01  3.503317e+01  5.223871e+01
     vertex  9.056654e+01  3.783780e+01  4.883920e+01
     vertex  8.775759e+01  3.759531e+01  5.223871e+01
   endloop
 endfacet
 facet normal  8.208914e-01  5.666204e-01  7.126419e-02
   outer loop
     vertex  8.543130e+01  3.838937e+01  5.602309e+01
     vertex  8.374547e+01  4.033154e+01  6.000000e+01
     vertex  8.617386e+01  3.681341e+01  6.000000e+01
   endloop
 endfacet
 facet normal  8.682900e-01  4.773465e-01  1.349547e-01
   outer loop
     vertex  8.543130e+01  3.838937e+01  5.602309e+01
     vertex  8.333924e+01  4.219481e+01  5.602309e+01
     vertex  8.374547e+01  4.033154e+01  6.000000e+01
   endloop
 endfacet
 facet normal  7.577610e-01  5.505456e-01  3.502825e-01
   outer loop
     vertex  8.543130e+01  3.838937e+01  5.602309e+01
     vertex  8.775759e+01  3.759531e+01  5.223871e+01
     vertex  8.539497e+01  4.084717e+01  5.223871e+01
   endloop
 endfacet
 facet normal  8.383120e-01  4.608659e-01  2.912657e-01
   outer loop
     vertex  8.543130e+01  3.838937e+01  5.602309e+01
     vertex  8.539497e+01  4.084717e+01  5.223871e+01
     vertex  8.333924e+01  4.219481e+01  5.602309e+01
   endloop
 endfacet
 facet normal -9.955159e-02  5.472895e-02  9.935262e-01
   outer loop
     vertex  1.031402e+02  4.710994e+01  4.252852e+01
     vertex  9.944685e+01  4.857226e+01  4.207789e+01
     vertex  1.026605e+02  4.623738e+01  4.252852e+01
   endloop
 endfacet
 facet normal -2.405520e-01  2.258933e-01  9.439846e-01
   outer loop
     vertex  1.050911e+02  4.327195e+01  4.385751e+01
     vertex  1.026605e+02  4.623738e+01  4.252852e+01
     vertex  1.019789e+02  4.551152e+01  4.252852e+01
   endloop
 endfacet
 facet normal -2.149920e-01  2.598807e-01  9.414034e-01
   outer loop
     vertex  1.050911e+02  4.327195e+01  4.385751e+01
     vertex  1.019789e+02  4.551152e+01  4.252852e+01
     vertex  1.035957e+02  4.203480e+01  4.385751e+01
   endloop
 endfacet
 facet normal -2.249860e-01  4.781196e-01  8.489894e-01
   outer loop
     vertex  1.041814e+02  3.851081e+01  4.599732e+01
     vertex  1.035957e+02  4.203480e+01  4.385751e+01
     vertex  1.018395e+02  4.120842e+01  4.385751e+01
   endloop
 endfacet
 facet normal -1.685095e-01  5.186190e-01  8.382356e-01
   outer loop
     vertex  1.041814e+02  3.851081e+01  4.599732e+01
     vertex  1.018395e+02  4.120842e+01  4.385751e+01
     vertex  1.015305e+02  3.764947e+01  4.599732e+01
   endloop
 endfacet
 facet normal  4.550567e-02  7.232919e-01  6.890415e-01
   outer loop
     vertex  1.003216e+02  3.466818e+01  4.883920e+01
     vertex  9.874864e+01  3.747445e+01  4.599732e+01
     vertex  9.683634e+01  3.488746e+01  4.883920e+01
   endloop
 endfacet
 facet normal -4.395178e-02  6.985936e-01  7.141675e-01
   outer loop
     vertex  1.003216e+02  3.466818e+01  4.883920e+01
     vertex  1.015305e+02  3.764947e+01  4.599732e+01
     vertex  9.874864e+01  3.747445e+01  4.599732e+01
   endloop
 endfacet
 facet normal  3.680481e-01  7.821420e-01  5.027867e-01
   outer loop
     vertex  9.449166e+01  3.332174e+01  5.223871e+01
     vertex  9.351508e+01  3.596660e+01  4.883920e+01
     vertex  9.085468e+01  3.503317e+01  5.223871e+01
   endloop
 endfacet
 facet normal  2.589557e-01  7.969838e-01  5.456728e-01
   outer loop
     vertex  9.449166e+01  3.332174e+01  5.223871e+01
     vertex  9.683634e+01  3.488746e+01  4.883920e+01
     vertex  9.351508e+01  3.596660e+01  4.883920e+01
   endloop
 endfacet
 facet normal  7.224001e-01  6.783788e-01  1.339413e-01
   outer loop
     vertex  8.840401e+01  3.522376e+01  5.602309e+01
     vertex  8.543130e+01  3.838937e+01  5.602309e+01
     vertex  8.617386e+01  3.681341e+01  6.000000e+01
   endloop
 endfacet
 facet normal  6.973622e-01  6.548667e-01  2.912657e-01
   outer loop
     vertex  8.840401e+01  3.522376e+01  5.602309e+01
     vertex  8.775759e+01  3.759531e+01  5.223871e+01
     vertex  8.543130e+01  3.838937e+01  5.602309e+01
   endloop
 endfacet
 facet normal  6.613788e-01  7.465423e-01  7.247569e-02
   outer loop
     vertex  8.840401e+01  3.522376e+01  5.602309e+01
     vertex  8.617386e+01  3.681341e+01  6.000000e+01
     vertex  8.937362e+01  3.397867e+01  6.000000e+01
   endloop
 endfacet
 facet normal  5.970394e-01  7.216967e-01  3.502825e-01
   outer loop
     vertex  8.840401e+01  3.522376e+01  5.602309e+01
     vertex  9.085468e+01  3.503317e+01  5.223871e+01
     vertex  8.775759e+01  3.759531e+01  5.223871e+01
   endloop
 endfacet
 facet normal -1.100345e-01  2.825207e-02  9.935262e-01
   outer loop
     vertex  1.033879e+02  4.807440e+01  4.252852e+01
     vertex  9.944685e+01  4.857226e+01  4.207789e+01
     vertex  1.031402e+02  4.710994e+01  4.252852e+01
   endloop
 endfacet
 facet normal -1.127164e-01  7.091514e-03  9.936019e-01
   outer loop
     vertex  1.033879e+02  4.807440e+01  4.252852e+01
     vertex  1.034192e+02  4.857226e+01  4.252852e+01
     vertex  9.944685e+01  4.857226e+01  4.207789e+01
   endloop
 endfacet
 facet normal -3.323563e-01  2.091009e-02  9.429221e-01
   outer loop
     vertex  1.033879e+02  4.807440e+01  4.252852e+01
     vertex  1.071897e+02  4.857226e+01  4.385751e+01
     vertex  1.034192e+02  4.857226e+01  4.252852e+01
   endloop
 endfacet
 facet normal -2.891720e-01  1.589736e-01  9.439846e-01
   outer loop
     vertex  1.062319e+02  4.484214e+01  4.385751e+01
     vertex  1.031402e+02  4.710994e+01  4.252852e+01
     vertex  1.026605e+02  4.623738e+01  4.252852e+01
   endloop
 endfacet
 facet normal -2.728674e-01  1.982497e-01  9.414034e-01
   outer loop
     vertex  1.062319e+02  4.484214e+01  4.385751e+01
     vertex  1.026605e+02  4.623738e+01  4.252852e+01
     vertex  1.050911e+02  4.327195e+01  4.385751e+01
   endloop
 endfacet
 facet normal -3.368212e-01  4.071469e-01  8.489894e-01
   outer loop
     vertex  1.065349e+02  4.000434e+01  4.599732e+01
     vertex  1.050911e+02  4.327195e+01  4.385751e+01
     vertex  1.035957e+02  4.203480e+01  4.385751e+01
   endloop
 endfacet
 facet normal -2.921908e-01  4.604190e-01  8.382356e-01
   outer loop
     vertex  1.065349e+02  4.000434e+01  4.599732e+01
     vertex  1.035957e+02  4.203480e+01  4.385751e+01
     vertex  1.041814e+02  3.851081e+01  4.599732e+01
   endloop
 endfacet
 facet normal -1.357993e-01  7.118851e-01  6.890415e-01
   outer loop
     vertex  1.037519e+02  3.532255e+01  4.883920e+01
     vertex  1.015305e+02  3.764947e+01  4.599732e+01
     vertex  1.003216e+02  3.466818e+01  4.883920e+01
   endloop
 endfacet
 facet normal -2.163041e-01  6.657156e-01  7.141675e-01
   outer loop
     vertex  1.037519e+02  3.532255e+01  4.883920e+01
     vertex  1.041814e+02  3.851081e+01  4.599732e+01
     vertex  1.015305e+02  3.764947e+01  4.599732e+01
   endloop
 endfacet
 facet normal  5.261835e-02  8.363448e-01  5.456728e-01
   outer loop
     vertex  9.843999e+01  3.256855e+01  5.223871e+01
     vertex  1.003216e+02  3.466818e+01  4.883920e+01
     vertex  9.683634e+01  3.488746e+01  4.883920e+01
   endloop
 endfacet
 facet normal  1.619744e-01  8.490994e-01  5.027867e-01
   outer loop
     vertex  9.843999e+01  3.256855e+01  5.223871e+01
     vertex  9.683634e+01  3.488746e+01  4.883920e+01
     vertex  9.449166e+01  3.332174e+01  5.223871e+01
   endloop
 endfacet
 facet normal  3.988037e-01  8.475009e-01  3.502825e-01
   outer loop
     vertex  9.207058e+01  3.289688e+01  5.602309e+01
     vertex  9.449166e+01  3.332174e+01  5.223871e+01
     vertex  9.085468e+01  3.503317e+01  5.223871e+01
   endloop
 endfacet
 facet normal  4.634459e-01  8.830224e-01  7.409035e-02
   outer loop
     vertex  9.207058e+01  3.289688e+01  5.602309e+01
     vertex  8.937362e+01  3.397867e+01  6.000000e+01
     vertex  9.315881e+01  3.199205e+01  6.000000e+01
   endloop
 endfacet
 facet normal  5.311008e-01  8.368810e-01  1.325220e-01
   outer loop
     vertex  9.207058e+01  3.289688e+01  5.602309e+01
     vertex  8.840401e+01  3.522376e+01  5.602309e+01
     vertex  8.937362e+01  3.397867e+01  6.000000e+01
   endloop
 endfacet
 facet normal  5.125945e-01  8.077197e-01  2.912657e-01
   outer loop
     vertex  9.207058e+01  3.289688e+01  5.602309e+01
     vertex  9.085468e+01  3.503317e+01  5.223871e+01
     vertex  8.840401e+01  3.522376e+01  5.602309e+01
   endloop
 endfacet
 facet normal -3.196222e-01  8.206504e-02  9.439846e-01
   outer loop
     vertex  1.069464e+02  4.664670e+01  4.385751e+01
     vertex  1.033879e+02  4.807440e+01  4.252852e+01
     vertex  1.031402e+02  4.710994e+01  4.252852e+01
   endloop
 endfacet
 facet normal -3.135974e-01  1.241620e-01  9.414034e-01
   outer loop
     vertex  1.069464e+02  4.664670e+01  4.385751e+01
     vertex  1.031402e+02  4.710994e+01  4.252852e+01
     vertex  1.062319e+02  4.484214e+01  4.385751e+01
   endloop
 endfacet
 facet normal -3.346230e-01  4.227272e-02  9.414034e-01
   outer loop
     vertex  1.069464e+02  4.664670e+01  4.385751e+01
     vertex  1.071897e+02  4.857226e+01  4.385751e+01
     vertex  1.033879e+02  4.807440e+01  4.252852e+01
   endloop
 endfacet
 facet normal -4.274926e-01  3.105916e-01  8.489894e-01
   outer loop
     vertex  1.084429e+02  4.203623e+01  4.599732e+01
     vertex  1.062319e+02  4.484214e+01  4.385751e+01
     vertex  1.050911e+02  4.327195e+01  4.385751e+01
   endloop
 endfacet
 facet normal -3.975126e-01  3.732892e-01  8.382356e-01
   outer loop
     vertex  1.084429e+02  4.203623e+01  4.599732e+01
     vertex  1.050911e+02  4.327195e+01  4.385751e+01
     vertex  1.065349e+02  4.000434e+01  4.599732e+01
   endloop
 endfacet
 facet normal -3.085716e-01  6.557480e-01  6.890415e-01
   outer loop
     vertex  1.069118e+02  3.680945e+01  4.883920e+01
     vertex  1.041814e+02  3.851081e+01  4.599732e+01
     vertex  1.037519e+02  3.532255e+01  4.883920e+01
   endloop
 endfacet
 facet normal -3.750653e-01  5.910083e-01  7.141675e-01
   outer loop
     vertex  1.069118e+02  3.680945e+01  4.883920e+01
     vertex  1.065349e+02  4.000434e+01  4.599732e+01
     vertex  1.041814e+02  3.851081e+01  4.599732e+01
   endloop
 endfacet
 facet normal -1.570252e-01  8.231551e-01  5.456728e-01
   outer loop
     vertex  1.024516e+02  3.282094e+01  5.223871e+01
     vertex  1.037519e+02  3.532255e+01  4.883920e+01
     vertex  1.003216e+02  3.466818e+01  4.883920e+01
   endloop
 endfacet
 facet normal -5.427679e-02  8.627048e-01  5.027867e-01
   outer loop
     vertex  1.024516e+02  3.282094e+01  5.223871e+01
     vertex  1.003216e+02  3.466818e+01  4.883920e+01
     vertex  9.843999e+01  3.256855e+01  5.223871e+01
   endloop
 endfacet
 facet normal  3.063664e-01  9.428988e-01  1.306962e-01
   outer loop
     vertex  9.620063e+01  3.155495e+01  5.602309e+01
     vertex  9.207058e+01  3.289688e+01  5.602309e+01
     vertex  9.315881e+01  3.199205e+01  6.000000e+01
   endloop
 endfacet
 facet normal  2.386216e-01  9.681257e-01  7.610758e-02
   outer loop
     vertex  9.620063e+01  3.155495e+01  5.602309e+01
     vertex  9.315881e+01  3.199205e+01  6.000000e+01
     vertex  9.730943e+01  3.096901e+01  6.000000e+01
   endloop
 endfacet
 facet normal  2.956187e-01  9.098208e-01  2.912657e-01
   outer loop
     vertex  9.620063e+01  3.155495e+01  5.602309e+01
     vertex  9.449166e+01  3.332174e+01  5.223871e+01
     vertex  9.207058e+01  3.289688e+01  5.602309e+01
   endloop
 endfacet
 facet normal  1.755096e-01  9.200536e-01  3.502825e-01
   outer loop
     vertex  9.620063e+01  3.155495e+01  5.602309e+01
     vertex  9.843999e+01  3.256855e+01  5.223871e+01
     vertex  9.449166e+01  3.332174e+01  5.223871e+01
   endloop
 endfacet
 facet normal -4.778572e-01  2.627042e-01  8.382356e-01
   outer loop
     vertex  1.097857e+02  4.447881e+01  4.599732e+01
     vertex  1.062319e+02  4.484214e+01  4.385751e+01
     vertex  1.084429e+02  4.203623e+01  4.599732e+01
   endloop
 endfacet
 facet normal -4.913031e-01  1.945207e-01  8.489894e-01
   outer loop
     vertex  1.097857e+02  4.447881e+01  4.599732e+01
     vertex  1.069464e+02  4.664670e+01  4.385751e+01
     vertex  1.062319e+02  4.484214e+01  4.385751e+01
   endloop
 endfacet
 facet normal -5.102597e-01  4.791657e-01  7.141675e-01
   outer loop
     vertex  1.096025e+02  3.903545e+01  4.883920e+01
     vertex  1.084429e+02  4.203623e+01  4.599732e+01
     vertex  1.065349e+02  4.000434e+01  4.599732e+01
   endloop
 endfacet
 facet normal -4.619551e-01  5.584078e-01  6.890415e-01
   outer loop
     vertex  1.096025e+02  3.903545e+01  4.883920e+01
     vertex  1.065349e+02  4.000434e+01  4.599732e+01
     vertex  1.069118e+02  3.680945e+01  4.883920e+01
   endloop
 endfacet
 facet normal -3.568023e-01  7.582436e-01  5.456728e-01
   outer loop
     vertex  1.062744e+02  3.406304e+01  5.223871e+01
     vertex  1.069118e+02  3.680945e+01  4.883920e+01
     vertex  1.037519e+02  3.532255e+01  4.883920e+01
   endloop
 endfacet
 facet normal -2.671175e-01  8.221032e-01  5.027867e-01
   outer loop
     vertex  1.062744e+02  3.406304e+01  5.223871e+01
     vertex  1.037519e+02  3.532255e+01  4.883920e+01
     vertex  1.024516e+02  3.282094e+01  5.223871e+01
   endloop
 endfacet
 facet normal  1.653616e-15  9.969120e-01  7.852660e-02
   outer loop
     vertex  1.005346e+02  3.128227e+01  5.602309e+01
     vertex  9.730943e+01  3.096901e+01  6.000000e+01
     vertex  1.015843e+02  3.096901e+01  6.000000e+01
   endloop
 endfacet
 facet normal  6.227025e-02  9.897573e-01  1.284633e-01
   outer loop
     vertex  1.005346e+02  3.128227e+01  5.602309e+01
     vertex  9.620063e+01  3.155495e+01  5.602309e+01
     vertex  9.730943e+01  3.096901e+01  6.000000e+01
   endloop
 endfacet
 facet normal -5.881237e-02  9.347959e-01  3.502825e-01
   outer loop
     vertex  1.005346e+02  3.128227e+01  5.602309e+01
     vertex  1.024516e+02  3.282094e+01  5.223871e+01
     vertex  9.843999e+01  3.256855e+01  5.223871e+01
   endloop
 endfacet
 facet normal  6.006806e-02  9.547545e-01  2.912657e-01
   outer loop
     vertex  1.005346e+02  3.128227e+01  5.602309e+01
     vertex  9.843999e+01  3.256855e+01  5.223871e+01
     vertex  9.620063e+01  3.155495e+01  5.602309e+01
   endloop
 endfacet
 facet normal -5.349407e-01  3.365562e-02  8.442190e-01
   outer loop
     vertex  1.104789e+02  4.717859e+01  4.599732e+01
     vertex  1.105666e+02  4.857226e+01  4.599732e+01
     vertex  1.071897e+02  4.857226e+01  4.385751e+01
   endloop
 endfacet
 facet normal -7.101465e-01  4.467863e-02  7.026348e-01
   outer loop
     vertex  1.104789e+02  4.717859e+01  4.599732e+01
     vertex  1.133784e+02  4.857226e+01  4.883920e+01
     vertex  1.105666e+02  4.857226e+01  4.599732e+01
   endloop
 endfacet
 facet normal -5.242433e-01  6.622733e-02  8.489894e-01
   outer loop
     vertex  1.104789e+02  4.717859e+01  4.599732e+01
     vertex  1.071897e+02  4.857226e+01  4.385751e+01
     vertex  1.069464e+02  4.664670e+01  4.385751e+01
   endloop
 endfacet
 facet normal -5.281764e-01  1.356126e-01  8.382356e-01
   outer loop
     vertex  1.104789e+02  4.717859e+01  4.599732e+01
     vertex  1.069464e+02  4.664670e+01  4.385751e+01
     vertex  1.097857e+02  4.447881e+01  4.599732e+01
   endloop
 endfacet
 facet normal -6.133926e-01  3.372154e-01  7.141675e-01
   outer loop
     vertex  1.116552e+02  4.186068e+01  4.883920e+01
     vertex  1.097857e+02  4.447881e+01  4.599732e+01
     vertex  1.084429e+02  4.203623e+01  4.599732e+01
   endloop
 endfacet
 facet normal -5.863124e-01  4.259809e-01  6.890415e-01
   outer loop
     vertex  1.116552e+02  4.186068e+01  4.883920e+01
     vertex  1.084429e+02  4.203623e+01  4.599732e+01
     vertex  1.096025e+02  3.903545e+01  4.883920e+01
   endloop
 endfacet
 facet normal -5.341603e-01  6.456888e-01  5.456728e-01
   outer loop
     vertex  1.096682e+02  3.621681e+01  5.223871e+01
     vertex  1.096025e+02  3.903545e+01  4.883920e+01
     vertex  1.069118e+02  3.680945e+01  4.883920e+01
   endloop
 endfacet
 facet normal -4.631743e-01  7.298459e-01  5.027867e-01
   outer loop
     vertex  1.096682e+02  3.621681e+01  5.223871e+01
     vertex  1.069118e+02  3.680945e+01  4.883920e+01
     vertex  1.062744e+02  3.406304e+01  5.223871e+01
   endloop
 endfacet
 facet normal -2.385225e-01  9.677240e-01  8.134646e-02
   outer loop
     vertex  1.048003e+02  3.209599e+01  5.602309e+01
     vertex  1.015843e+02  3.096901e+01  6.000000e+01
     vertex  1.057349e+02  3.199205e+01  6.000000e+01
   endloop
 endfacet
 facet normal -1.858922e-01  9.744808e-01  1.258223e-01
   outer loop
     vertex  1.048003e+02  3.209599e+01  5.602309e+01
     vertex  1.005346e+02  3.128227e+01  5.602309e+01
     vertex  1.015843e+02  3.096901e+01  6.000000e+01
   endloop
 endfacet
 facet normal -2.894389e-01  8.908015e-01  3.502825e-01
   outer loop
     vertex  1.048003e+02  3.209599e+01  5.602309e+01
     vertex  1.062744e+02  3.406304e+01  5.223871e+01
     vertex  1.024516e+02  3.282094e+01  5.223871e+01
   endloop
 endfacet
 facet normal -1.792569e-01  9.396974e-01  2.912657e-01
   outer loop
     vertex  1.048003e+02  3.209599e+01  5.602309e+01
     vertex  1.024516e+02  3.282094e+01  5.223871e+01
     vertex  1.005346e+02  3.128227e+01  5.602309e+01
   endloop
 endfacet
 facet normal -7.190073e-01  9.083174e-02  6.890415e-01
   outer loop
     vertex  1.129407e+02  4.510762e+01  4.883920e+01
     vertex  1.133784e+02  4.857226e+01  4.883920e+01
     vertex  1.104789e+02  4.717859e+01  4.599732e+01
   endloop
 endfacet
 facet normal -6.779838e-01  1.740767e-01  7.141675e-01
   outer loop
     vertex  1.129407e+02  4.510762e+01  4.883920e+01
     vertex  1.104789e+02  4.717859e+01  4.599732e+01
     vertex  1.097857e+02  4.447881e+01  4.599732e+01
   endloop
 endfacet
 facet normal -6.738294e-01  2.667879e-01  6.890415e-01
   outer loop
     vertex  1.129407e+02  4.510762e+01  4.883920e+01
     vertex  1.097857e+02  4.447881e+01  4.599732e+01
     vertex  1.116552e+02  4.186068e+01  4.883920e+01
   endloop
 endfacet
 facet normal -6.301281e-01  5.917297e-01  5.027867e-01
   outer loop
     vertex  1.124197e+02  3.914692e+01  5.223871e+01
     vertex  1.096025e+02  3.903545e+01  4.883920e+01
     vertex  1.096682e+02  3.621681e+01  5.223871e+01
   endloop
 endfacet
 facet normal -6.779549e-01  4.925631e-01  5.456728e-01
   outer loop
     vertex  1.124197e+02  3.914692e+01  5.223871e+01
     vertex  1.116552e+02  4.186068e+01  4.883920e+01
     vertex  1.096025e+02  3.903545e+01  4.883920e+01
   endloop
 endfacet
 facet normal -4.630585e-01  8.822842e-01  8.456602e-02
   outer loop
     vertex  1.087296e+02  3.394498e+01  5.602309e+01
     vertex  1.057349e+02  3.199205e+01  6.000000e+01
     vertex  1.095201e+02  3.397867e+01  6.000000e+01
   endloop
 endfacet
 facet normal -4.225582e-01  8.979819e-01  1.227723e-01
   outer loop
     vertex  1.087296e+02  3.394498e+01  5.602309e+01
     vertex  1.048003e+02  3.209599e+01  5.602309e+01
     vertex  1.057349e+02  3.199205e+01  6.000000e+01
   endloop
 endfacet
 facet normal -5.018790e-01  7.908348e-01  3.502825e-01
   outer loop
     vertex  1.087296e+02  3.394498e+01  5.602309e+01
     vertex  1.096682e+02  3.621681e+01  5.223871e+01
     vertex  1.062744e+02  3.406304e+01  5.223871e+01
   endloop
 endfacet
 facet normal -4.073184e-01  8.655957e-01  2.912657e-01
   outer loop
     vertex  1.087296e+02  3.394498e+01  5.602309e+01
     vertex  1.062744e+02  3.406304e+01  5.223871e+01
     vertex  1.048003e+02  3.209599e+01  5.602309e+01
   endloop
 endfacet
 facet normal -7.791512e-01  3.084878e-01  5.456728e-01
   outer loop
     vertex  1.143561e+02  4.266926e+01  5.223871e+01
     vertex  1.129407e+02  4.510762e+01  4.883920e+01
     vertex  1.116552e+02  4.186068e+01  4.883920e+01
   endloop
 endfacet
 facet normal -7.574887e-01  4.164329e-01  5.027867e-01
   outer loop
     vertex  1.143561e+02  4.266926e+01  5.223871e+01
     vertex  1.116552e+02  4.186068e+01  4.883920e+01
     vertex  1.124197e+02  3.914692e+01  5.223871e+01
   endloop
 endfacet
 facet normal -6.605393e-01  7.455947e-01  8.818389e-02
   outer loop
     vertex  1.120756e+02  3.671305e+01  5.602309e+01
     vertex  1.095201e+02  3.397867e+01  6.000000e+01
     vertex  1.127198e+02  3.681341e+01  6.000000e+01
   endloop
 endfacet
 facet normal -6.328707e-01  7.650093e-01  1.193124e-01
   outer loop
     vertex  1.120756e+02  3.671305e+01  5.602309e+01
     vertex  1.087296e+02  3.394498e+01  5.602309e+01
     vertex  1.095201e+02  3.397867e+01  6.000000e+01
   endloop
 endfacet
 facet normal -6.827842e-01  6.411770e-01  3.502825e-01
   outer loop
     vertex  1.120756e+02  3.671305e+01  5.602309e+01
     vertex  1.124197e+02  3.914692e+01  5.223871e+01
     vertex  1.096682e+02  3.621681e+01  5.223871e+01
   endloop
 endfacet
 facet normal -6.097867e-01  7.371055e-01  2.912657e-01
   outer loop
     vertex  1.120756e+02  3.671305e+01  5.602309e+01
     vertex  1.096682e+02  3.621681e+01  5.223871e+01
     vertex  1.087296e+02  3.394498e+01  5.602309e+01
   endloop
 endfacet
 facet normal -8.491271e-01  5.342255e-02  5.254800e-01
   outer loop
     vertex  1.153558e+02  4.656250e+01  5.223871e+01
     vertex  1.154822e+02  4.857226e+01  5.223871e+01
     vertex  1.133784e+02  4.857226e+01  4.883920e+01
   endloop
 endfacet
 facet normal -9.449356e-01  5.945031e-02  3.218111e-01
   outer loop
     vertex  1.153558e+02  4.656250e+01  5.223871e+01
     vertex  1.167710e+02  4.857226e+01  5.602309e+01
     vertex  1.154822e+02  4.857226e+01  5.223871e+01
   endloop
 endfacet
 facet normal -8.313905e-01  1.050290e-01  5.456728e-01
   outer loop
     vertex  1.153558e+02  4.656250e+01  5.223871e+01
     vertex  1.133784e+02  4.857226e+01  4.883920e+01
     vertex  1.129407e+02  4.510762e+01  4.883920e+01
   endloop
 endfacet
 facet normal -8.372535e-01  2.149702e-01  5.027867e-01
   outer loop
     vertex  1.153558e+02  4.656250e+01  5.223871e+01
     vertex  1.129407e+02  4.510762e+01  4.883920e+01
     vertex  1.143561e+02  4.266926e+01  5.223871e+01
   endloop
 endfacet
 facet normal -8.207875e-01  4.512317e-01  3.502825e-01
   outer loop
     vertex  1.146281e+02  4.022628e+01  5.602309e+01
     vertex  1.143561e+02  4.266926e+01  5.223871e+01
     vertex  1.124197e+02  3.914692e+01  5.223871e+01
   endloop
 endfacet
 facet normal -8.036082e-01  5.838555e-01  1.154413e-01
   outer loop
     vertex  1.146281e+02  4.022628e+01  5.602309e+01
     vertex  1.120756e+02  3.671305e+01  5.602309e+01
     vertex  1.127198e+02  3.681341e+01  6.000000e+01
   endloop
 endfacet
 facet normal -8.194785e-01  5.656452e-01  9.219847e-02
   outer loop
     vertex  1.146281e+02  4.022628e+01  5.602309e+01
     vertex  1.127198e+02  3.681341e+01  6.000000e+01
     vertex  1.151482e+02  4.033154e+01  6.000000e+01
   endloop
 endfacet
 facet normal -7.739398e-01  5.623002e-01  2.912657e-01
   outer loop
     vertex  1.146281e+02  4.022628e+01  5.602309e+01
     vertex  1.124197e+02  3.914692e+01  5.223871e+01
     vertex  1.120756e+02  3.671305e+01  5.602309e+01
   endloop
 endfacet
 facet normal -8.894634e-01  3.521635e-01  2.912657e-01
   outer loop
     vertex  1.162268e+02  4.426391e+01  5.602309e+01
     vertex  1.143561e+02  4.266926e+01  5.223871e+01
     vertex  1.146281e+02  4.022628e+01  5.602309e+01
   endloop
 endfacet
 facet normal -9.490988e-01  1.198991e-01  2.912657e-01
   outer loop
     vertex  1.162268e+02  4.426391e+01  5.602309e+01
     vertex  1.167710e+02  4.857226e+01  5.602309e+01
     vertex  1.153558e+02  4.656250e+01  5.223871e+01
   endloop
 endfacet
 facet normal -9.072177e-01  2.329339e-01  3.502825e-01
   outer loop
     vertex  1.162268e+02  4.426391e+01  5.602309e+01
     vertex  1.153558e+02  4.656250e+01  5.223871e+01
     vertex  1.143561e+02  4.266926e+01  5.223871e+01
   endloop
 endfacet
 facet normal -9.240144e-01  3.658432e-01  1.111580e-01
   outer loop
     vertex  1.162268e+02  4.426391e+01  5.602309e+01
     vertex  1.146281e+02  4.022628e+01  5.602309e+01
     vertex  1.151482e+02  4.033154e+01  6.000000e+01
   endloop
 endfacet
 facet normal -9.864764e-01  1.246209e-01  1.064612e-01
   outer loop
     vertex  1.162268e+02  4.426391e+01  5.602309e+01
     vertex  1.166641e+02  4.432859e+01  6.000000e+01
     vertex  1.167710e+02  4.857226e+01  5.602309e+01
   endloop
 endfacet
 facet normal -9.306427e-01  3.529462e-01  9.660787e-02
   outer loop
     vertex  1.162268e+02  4.426391e+01  5.602309e+01
     vertex  1.151482e+02  4.033154e+01  6.000000e+01
     vertex  1.166641e+02  4.432859e+01  6.000000e+01
   endloop
 endfacet
endsolid
