solid 
 facet normal -1.000000e+00  0.000000e+00  0.000000e+00
   outer loop
     vertex  0.000000e+00  0.000000e+00  6.000000e+01
     vertex  0.000000e+00  1.049235e+02  0.000000e+00
     vertex  0.000000e+00  0.000000e+00  0.000000e+00
   endloop
 endfacet
 facet normal -1.000000e+00  0.000000e+00  0.000000e+00
   outer loop
     vertex  0.000000e+00  0.000000e+00  6.000000e+01
     vertex  0.000000e+00  1.049235e+02  6.000000e+01
     vertex  0.000000e+00  1.049235e+02  0.000000e+00
   endloop
 endfacet
 facet normal  0.000000e+00 -1.000000e+00  0.000000e+00
   outer loop
     vertex  1.482219e+02  0.000000e+00  0.000000e+00
     vertex  0.000000e+00  0.000000e+00  6.000000e+01
     vertex  0.000000e+00  0.000000e+00  0.000000e+00
   endloop
 endfacet
 facet normal -0.000000e+00 -1.000000e+00 -0.000000e+00
   outer loop
     vertex  1.482219e+02  0.000000e+00  6.000000e+01
     vertex  0.000000e+00  0.000000e+00  6.000000e+01
     vertex  1.482219e+02  0.000000e+00  0.000000e+00
   endloop
 endfacet
 facet normal  0.000000e+00  0.000000e+00  1.000000e+00
   outer loop
     vertex  4.465325e+01  2.630578e+01  6.000000e+01
     vertex  4.181323e+01  2.882182e+01  6.000000e+01
     vertex  0.000000e+00  0.000000e+00  6.000000e+01
   endloop
 endfacet
 facet normal  0.000000e+00  0.000000e+00  1.000000e+00
   outer loop
     vertex  3.965787e+01  3.194440e+01  6.000000e+01
     vertex  0.000000e+00  0.000000e+00  6.000000e+01
     vertex  4.181323e+01  2.882182e+01  6.000000e+01
   endloop
 endfacet
 facet normal  0.000000e+00  0.000000e+00  1.000000e+00
   outer loop
     vertex  4.801286e+01  2.454252e+01  6.000000e+01
     vertex  4.465325e+01  2.630578e+01  6.000000e+01
     vertex  0.000000e+00  0.000000e+00  6.000000e+01
   endloop
 endfacet
 facet normal  0.000000e+00  0.000000e+00  1.000000e+00
   outer loop
     vertex  3.831242e+01  3.549206e+01  6.000000e+01
     vertex  0.000000e+00  0.000000e+00  6.000000e+01
     vertex  3.965787e+01  3.194440e+01  6.000000e+01
   endloop
 endfacet
 facet normal  0.000000e+00  0.000000e+00  1.000000e+00
   outer loop
     vertex  5.169683e+01  2.363451e+01  6.000000e+01
     vertex  4.801286e+01  2.454252e+01  6.000000e+01
     vertex  0.000000e+00  0.000000e+00  6.000000e+01
   endloop
 endfacet
 facet normal  0.000000e+00  0.000000e+00  1.000000e+00
   outer loop
     vertex  3.785508e+01  3.925862e+01  6.000000e+01
     vertex  0.000000e+00  0.000000e+00  6.000000e+01
     vertex  3.831242e+01  3.549206e+01  6.000000e+01
   endloop
 endfacet
 facet normal  0.000000e+00  0.000000e+00  1.000000e+00
   outer loop
     vertex  5.549105e+01  2.363451e+01  6.000000e+01
     vertex  5.169683e+01  2.363451e+01  6.000000e+01
     vertex  0.000000e+00  0.000000e+00  6.000000e+01
   endloop
 endfacet
 facet normal  0.000000e+00  0.000000e+00  1.000000e+00
   outer loop
     vertex  3.831242e+01  4.302517e+01  6.000000e+01
     vertex  0.000000e+00  0.000000e+00  6.000000e+01
     vertex  3.785508e+01  3.925862e+01  6.000000e+01
   endloop
 endfacet
 facet normal  0.000000e+00  0.000000e+00  1.000000e+00
   outer loop
     vertex  0.000000e+00  1.049235e+02  6.000000e+01
     vertex  4.465325e+01  5.221145e+01  6.000000e+01
     vertex  4.801286e+01  5.397471e+01  6.000000e+01
   endloop
 endfacet
 facet normal  0.000000e+00  0.000000e+00  1.000000e+00
   outer loop
     vertex  0.000000e+00  1.049235e+02  6.000000e+01
     vertex  4.181323e+01  4.969541e+01  6.000000e+01
     vertex  4.465325e+01  5.221145e+01  6.000000e+01
   endloop
 endfacet
 facet normal  0.000000e+00  0.000000e+00  1.000000e+00
   outer loop
     vertex  0.000000e+00  1.049235e+02  6.000000e+01
     vertex  3.965787e+01  4.657283e+01  6.000000e+01
     vertex  4.181323e+01  4.969541e+01  6.000000e+01
   endloop
 endfacet
 facet normal  0.000000e+00  0.000000e+00  1.000000e+00
   outer loop
     vertex  0.000000e+00  1.049235e+02  6.000000e+01
     vertex  3.831242e+01  4.302517e+01  6.000000e+01
     vertex  3.965787e+01  4.657283e+01  6.000000e+01
   endloop
 endfacet
 facet normal  0.000000e+00  0.000000e+00  1.000000e+00
   outer loop
     vertex  0.000000e+00  1.049235e+02  6.000000e+01
     vertex  0.000000e+00  0.000000e+00  6.000000e+01
     vertex  3.831242e+01  4.302517e+01  6.000000e+01
   endloop
 endfacet
 facet normal  0.000000e+00  0.000000e+00  1.000000e+00
   outer loop
     vertex  5.169683e+01  5.488273e+01  6.000000e+01
     vertex  0.000000e+00  1.049235e+02  6.000000e+01
     vertex  4.801286e+01  5.397471e+01  6.000000e+01
   endloop
 endfacet
 facet normal  0.000000e+00  0.000000e+00  1.000000e+00
   outer loop
     vertex  5.549105e+01  5.488273e+01  6.000000e+01
     vertex  0.000000e+00  1.049235e+02  6.000000e+01
     vertex  5.169683e+01  5.488273e+01  6.000000e+01
   endloop
 endfacet
 facet normal  1.095015e-15  2.019410e-15  1.000000e+00
   outer loop
     vertex  1.482219e+02  0.000000e+00  6.000000e+01
     vertex  6.887546e+01  4.302517e+01  6.000000e+01
     vertex  6.933281e+01  3.925862e+01  6.000000e+01
   endloop
 endfacet
 facet normal  0.000000e+00  0.000000e+00  1.000000e+00
   outer loop
     vertex  1.482219e+02  0.000000e+00  6.000000e+01
     vertex  5.917502e+01  2.454252e+01  6.000000e+01
     vertex  5.549105e+01  2.363451e+01  6.000000e+01
   endloop
 endfacet
 facet normal  0.000000e+00  0.000000e+00  1.000000e+00
   outer loop
     vertex  1.482219e+02  0.000000e+00  6.000000e+01
     vertex  6.253464e+01  2.630578e+01  6.000000e+01
     vertex  5.917502e+01  2.454252e+01  6.000000e+01
   endloop
 endfacet
 facet normal  0.000000e+00  0.000000e+00  1.000000e+00
   outer loop
     vertex  1.482219e+02  0.000000e+00  6.000000e+01
     vertex  6.537465e+01  2.882182e+01  6.000000e+01
     vertex  6.253464e+01  2.630578e+01  6.000000e+01
   endloop
 endfacet
 facet normal  0.000000e+00  0.000000e+00  1.000000e+00
   outer loop
     vertex  1.482219e+02  0.000000e+00  6.000000e+01
     vertex  6.753002e+01  3.194440e+01  6.000000e+01
     vertex  6.537465e+01  2.882182e+01  6.000000e+01
   endloop
 endfacet
 facet normal  0.000000e+00  0.000000e+00  1.000000e+00
   outer loop
     vertex  1.482219e+02  0.000000e+00  6.000000e+01
     vertex  6.887546e+01  3.549206e+01  6.000000e+01
     vertex  6.753002e+01  3.194440e+01  6.000000e+01
   endloop
 endfacet
 facet normal -8.003504e-16 -1.789271e-15  1.000000e+00
   outer loop
     vertex  1.482219e+02  0.000000e+00  6.000000e+01
     vertex  6.933281e+01  3.925862e+01  6.000000e+01
     vertex  6.887546e+01  3.549206e+01  6.000000e+01
   endloop
 endfacet
 facet normal  0.000000e+00  0.000000e+00  1.000000e+00
   outer loop
     vertex  1.482219e+02  0.000000e+00  6.000000e+01
     vertex  5.549105e+01  2.363451e+01  6.000000e+01
     vertex  0.000000e+00  0.000000e+00  6.000000e+01
   endloop
 endfacet
 facet normal  0.000000e+00  0.000000e+00  1.000000e+00
   outer loop
     vertex  1.482219e+02  1.049235e+02  6.000000e+01
     vertex  6.753002e+01  4.657283e+01  6.000000e+01
     vertex  6.887546e+01  4.302517e+01  6.000000e+01
   endloop
 endfacet
 facet normal  0.000000e+00  0.000000e+00  1.000000e+00
   outer loop
     vertex  1.482219e+02  1.049235e+02  6.000000e+01
     vertex  6.537465e+01  4.969541e+01  6.000000e+01
     vertex  6.753002e+01  4.657283e+01  6.000000e+01
   endloop
 endfacet
 facet normal  0.000000e+00  0.000000e+00  1.000000e+00
   outer loop
     vertex  1.482219e+02  1.049235e+02  6.000000e+01
     vertex  6.253464e+01  5.221145e+01  6.000000e+01
     vertex  6.537465e+01  4.969541e+01  6.000000e+01
   endloop
 endfacet
 facet normal  0.000000e+00  0.000000e+00  1.000000e+00
   outer loop
     vertex  1.482219e+02  1.049235e+02  6.000000e+01
     vertex  5.917502e+01  5.397471e+01  6.000000e+01
     vertex  6.253464e+01  5.221145e+01  6.000000e+01
   endloop
 endfacet
 facet normal  0.000000e+00  0.000000e+00  1.000000e+00
   outer loop
     vertex  1.482219e+02  1.049235e+02  6.000000e+01
     vertex  5.549105e+01  5.488273e+01  6.000000e+01
     vertex  5.917502e+01  5.397471e+01  6.000000e+01
   endloop
 endfacet
 facet normal  0.000000e+00  0.000000e+00  1.000000e+00
   outer loop
     vertex  1.482219e+02  1.049235e+02  6.000000e+01
     vertex  6.887546e+01  4.302517e+01  6.000000e+01
     vertex  1.482219e+02  0.000000e+00  6.000000e+01
   endloop
 endfacet
 facet normal  0.000000e+00  0.000000e+00  1.000000e+00
   outer loop
     vertex  1.482219e+02  1.049235e+02  6.000000e+01
     vertex  0.000000e+00  1.049235e+02  6.000000e+01
     vertex  5.549105e+01  5.488273e+01  6.000000e+01
   endloop
 endfacet
 facet normal  0.000000e+00  1.000000e+00  0.000000e+00
   outer loop
     vertex  1.482219e+02  1.049235e+02  0.000000e+00
     vertex  0.000000e+00  1.049235e+02  0.000000e+00
     vertex  0.000000e+00  1.049235e+02  6.000000e+01
   endloop
 endfacet
 facet normal  0.000000e+00  1.000000e+00  0.000000e+00
   outer loop
     vertex  1.482219e+02  1.049235e+02  6.000000e+01
     vertex  1.482219e+02  1.049235e+02  0.000000e+00
     vertex  0.000000e+00  1.049235e+02  6.000000e+01
   endloop
 endfacet
 facet normal -0.000000e+00  0.000000e+00 -1.000000e+00
   outer loop
     vertex  1.482219e+02  1.049235e+02  0.000000e+00
     vertex  0.000000e+00  0.000000e+00  0.000000e+00
     vertex  0.000000e+00  1.049235e+02  0.000000e+00
   endloop
 endfacet
 facet normal  0.000000e+00 -0.000000e+00 -1.000000e+00
   outer loop
     vertex  1.482219e+02  1.049235e+02  0.000000e+00
     vertex  1.482219e+02  0.000000e+00  0.000000e+00
     vertex  0.000000e+00  0.000000e+00  0.000000e+00
   endloop
 endfacet
 facet normal  1.000000e+00  0.000000e+00  0.000000e+00
   outer loop
     vertex  1.482219e+02  0.000000e+00  6.000000e+01
     vertex  1.482219e+02  0.000000e+00  0.000000e+00
     vertex  1.482219e+02  1.049235e+02  0.000000e+00
   endloop
 endfacet
 facet normal  1.000000e+00 -0.000000e+00  0.000000e+00
   outer loop
     vertex  1.482219e+02  0.000000e+00  6.000000e+01
     vertex  1.482219e+02  1.049235e+02  0.000000e+00
     vertex  1.482219e+02  1.049235e+02  6.000000e+01
   endloop
 endfacet
 facet normal -9.910522e-01 -1.203355e-01  5.774807e-02
   outer loop
     vertex  6.887546e+01  4.302517e+01  6.000000e+01
     vertex  6.911988e+01  3.925862e+01  5.634573e+01
     vertex  6.933281e+01  3.925862e+01  6.000000e+01
   endloop
 endfacet
 facet normal -9.910522e-01  1.203355e-01  5.774807e-02
   outer loop
     vertex  6.933281e+01  3.925862e+01  6.000000e+01
     vertex  6.911988e+01  3.925862e+01  5.634573e+01
     vertex  6.887546e+01  3.549206e+01  6.000000e+01
   endloop
 endfacet
 facet normal -1.147783e-01 -1.499545e-01  9.820079e-01
   outer loop
     vertex  5.778237e+01  3.983430e+01  4.389570e+01
     vertex  5.359394e+01  3.925862e+01  4.331825e+01
     vertex  5.722966e+01  3.925862e+01  4.374319e+01
   endloop
 endfacet
 facet normal -3.409409e-01  7.917420e-02  9.367448e-01
   outer loop
     vertex  5.778237e+01  3.983430e+01  4.389570e+01
     vertex  5.722966e+01  3.925862e+01  4.374319e+01
     vertex  6.066938e+01  3.925862e+01  4.499513e+01
   endloop
 endfacet
 facet normal -1.315130e-01 -3.684822e-02  9.906294e-01
   outer loop
     vertex  5.747174e+01  4.094298e+01  4.389570e+01
     vertex  5.359394e+01  3.925862e+01  4.331825e+01
     vertex  5.778237e+01  3.983430e+01  4.389570e+01
   endloop
 endfacet
 facet normal -1.166946e-01 -7.096357e-02  9.906294e-01
   outer loop
     vertex  5.687350e+01  4.192673e+01  4.389570e+01
     vertex  5.359394e+01  3.925862e+01  4.331825e+01
     vertex  5.747174e+01  4.094298e+01  4.389570e+01
   endloop
 endfacet
 facet normal -5.492121e-01 -3.240166e-02  8.350546e-01
   outer loop
     vertex  6.143777e+01  4.145635e+01  4.558577e+01
     vertex  6.066938e+01  3.925862e+01  4.499513e+01
     vertex  6.372767e+01  3.925862e+01  4.700655e+01
   endloop
 endfacet
 facet normal -3.781788e-01 -1.059607e-01  9.196484e-01
   outer loop
     vertex  6.143777e+01  4.145635e+01  4.558577e+01
     vertex  5.747174e+01  4.094298e+01  4.389570e+01
     vertex  5.778237e+01  3.983430e+01  4.389570e+01
   endloop
 endfacet
 facet normal -3.736857e-01 -1.166516e-01  9.201910e-01
   outer loop
     vertex  6.143777e+01  4.145635e+01  4.558577e+01
     vertex  5.778237e+01  3.983430e+01  4.389570e+01
     vertex  6.066938e+01  3.925862e+01  4.499513e+01
   endloop
 endfacet
 facet normal -9.322152e-02 -9.981588e-02  9.906294e-01
   outer loop
     vertex  5.603204e+01  4.271261e+01  4.389570e+01
     vertex  5.359394e+01  3.925862e+01  4.331825e+01
     vertex  5.687350e+01  4.192673e+01  4.389570e+01
   endloop
 endfacet
 facet normal -3.355670e-01 -2.040628e-01  9.196484e-01
   outer loop
     vertex  6.055396e+01  4.349110e+01  4.558577e+01
     vertex  5.687350e+01  4.192673e+01  4.389570e+01
     vertex  5.747174e+01  4.094298e+01  4.389570e+01
   endloop
 endfacet
 facet normal -3.693031e-01 -1.604110e-01  9.153598e-01
   outer loop
     vertex  6.055396e+01  4.349110e+01  4.558577e+01
     vertex  5.747174e+01  4.094298e+01  4.389570e+01
     vertex  6.143777e+01  4.145635e+01  4.558577e+01
   endloop
 endfacet
 facet normal -7.272394e-01  1.851138e-02  6.861342e-01
   outer loop
     vertex  6.495440e+01  4.082008e+01  4.826465e+01
     vertex  6.372767e+01  3.925862e+01  4.700655e+01
     vertex  6.623967e+01  3.925862e+01  4.966904e+01
   endloop
 endfacet
 facet normal -6.159316e-01 -1.406507e-01  7.751424e-01
   outer loop
     vertex  6.495440e+01  4.082008e+01  4.826465e+01
     vertex  6.143777e+01  4.145635e+01  4.558577e+01
     vertex  6.372767e+01  3.925862e+01  4.700655e+01
   endloop
 endfacet
 facet normal -6.283461e-02 -1.212653e-01  9.906294e-01
   outer loop
     vertex  5.500975e+01  4.324231e+01  4.389570e+01
     vertex  5.359394e+01  3.925862e+01  4.331825e+01
     vertex  5.603204e+01  4.271261e+01  4.389570e+01
   endloop
 endfacet
 facet normal -3.123300e-01 -2.540993e-01  9.153598e-01
   outer loop
     vertex  5.915396e+01  4.521194e+01  4.558577e+01
     vertex  5.687350e+01  4.192673e+01  4.389570e+01
     vertex  6.055396e+01  4.349110e+01  4.558577e+01
   endloop
 endfacet
 facet normal -2.680678e-01 -2.870305e-01  9.196484e-01
   outer loop
     vertex  5.915396e+01  4.521194e+01  4.558577e+01
     vertex  5.603204e+01  4.271261e+01  4.389570e+01
     vertex  5.687350e+01  4.192673e+01  4.389570e+01
   endloop
 endfacet
 facet normal -6.164552e-01 -1.727227e-01  7.682121e-01
   outer loop
     vertex  6.411185e+01  4.382719e+01  4.826465e+01
     vertex  6.143777e+01  4.145635e+01  4.558577e+01
     vertex  6.495440e+01  4.082008e+01  4.826465e+01
   endloop
 endfacet
 facet normal -5.679329e-01 -2.466881e-01  7.852370e-01
   outer loop
     vertex  6.411185e+01  4.382719e+01  4.826465e+01
     vertex  6.055396e+01  4.349110e+01  4.558577e+01
     vertex  6.143777e+01  4.145635e+01  4.558577e+01
   endloop
 endfacet
 facet normal -2.778755e-02 -1.337210e-01  9.906294e-01
   outer loop
     vertex  5.388246e+01  4.347657e+01  4.389570e+01
     vertex  5.359394e+01  3.925862e+01  4.331825e+01
     vertex  5.500975e+01  4.324231e+01  4.389570e+01
   endloop
 endfacet
 facet normal -1.806872e-01 -3.487105e-01  9.196484e-01
   outer loop
     vertex  5.734159e+01  4.649124e+01  4.558577e+01
     vertex  5.500975e+01  4.324231e+01  4.389570e+01
     vertex  5.603204e+01  4.271261e+01  4.389570e+01
   endloop
 endfacet
 facet normal -2.321928e-01 -3.289422e-01  9.153598e-01
   outer loop
     vertex  5.734159e+01  4.649124e+01  4.558577e+01
     vertex  5.603204e+01  4.271261e+01  4.389570e+01
     vertex  5.915396e+01  4.521194e+01  4.558577e+01
   endloop
 endfacet
 facet normal -4.803168e-01 -3.907667e-01  7.852370e-01
   outer loop
     vertex  6.248923e+01  4.649547e+01  4.826465e+01
     vertex  5.915396e+01  4.521194e+01  4.558577e+01
     vertex  6.055396e+01  4.349110e+01  4.558577e+01
   endloop
 endfacet
 facet normal -5.469954e-01 -3.326353e-01  7.682121e-01
   outer loop
     vertex  6.248923e+01  4.649547e+01  4.826465e+01
     vertex  6.055396e+01  4.349110e+01  4.558577e+01
     vertex  6.411185e+01  4.382719e+01  4.826465e+01
   endloop
 endfacet
 facet normal -8.622271e-01 -9.344543e-02  4.978277e-01
   outer loop
     vertex  6.702528e+01  4.302190e+01  5.173608e+01
     vertex  6.623967e+01  3.925862e+01  4.966904e+01
     vertex  6.806996e+01  3.925862e+01  5.283907e+01
   endloop
 endfacet
 facet normal -7.719800e-01 -2.162987e-01  5.977138e-01
   outer loop
     vertex  6.702528e+01  4.302190e+01  5.173608e+01
     vertex  6.411185e+01  4.382719e+01  4.826465e+01
     vertex  6.495440e+01  4.082008e+01  4.826465e+01
   endloop
 endfacet
 facet normal -8.056519e-01 -1.470157e-01  5.738566e-01
   outer loop
     vertex  6.702528e+01  4.302190e+01  5.173608e+01
     vertex  6.495440e+01  4.082008e+01  4.826465e+01
     vertex  6.623967e+01  3.925862e+01  4.966904e+01
   endloop
 endfacet
 facet normal  9.320390e-03 -1.362593e-01  9.906294e-01
   outer loop
     vertex  5.273377e+01  4.339800e+01  4.389570e+01
     vertex  5.359394e+01  3.925862e+01  4.331825e+01
     vertex  5.388246e+01  4.347657e+01  4.389570e+01
   endloop
 endfacet
 facet normal -1.348349e-01 -3.793890e-01  9.153598e-01
   outer loop
     vertex  5.525128e+01  4.723414e+01  4.558577e+01
     vertex  5.500975e+01  4.324231e+01  4.389570e+01
     vertex  5.734159e+01  4.649124e+01  4.558577e+01
   endloop
 endfacet
 facet normal -7.990588e-02 -3.845282e-01  9.196484e-01
   outer loop
     vertex  5.525128e+01  4.723414e+01  4.558577e+01
     vertex  5.388246e+01  4.347657e+01  4.389570e+01
     vertex  5.500975e+01  4.324231e+01  4.389570e+01
   endloop
 endfacet
 facet normal -4.369674e-01 -4.678778e-01  7.682121e-01
   outer loop
     vertex  6.020689e+01  4.862703e+01  4.826465e+01
     vertex  5.915396e+01  4.521194e+01  4.558577e+01
     vertex  6.248923e+01  4.649547e+01  4.826465e+01
   endloop
 endfacet
 facet normal -3.570778e-01 -5.058639e-01  7.852370e-01
   outer loop
     vertex  6.020689e+01  4.862703e+01  4.826465e+01
     vertex  5.734159e+01  4.649124e+01  4.558577e+01
     vertex  5.915396e+01  4.521194e+01  4.558577e+01
   endloop
 endfacet
 facet normal -6.849962e-01 -4.165554e-01  5.977138e-01
   outer loop
     vertex  6.551188e+01  4.650608e+01  5.173608e+01
     vertex  6.248923e+01  4.649547e+01  4.826465e+01
     vertex  6.411185e+01  4.382719e+01  4.826465e+01
   endloop
 endfacet
 facet normal -7.593984e-01 -3.298533e-01  5.608127e-01
   outer loop
     vertex  6.551188e+01  4.650608e+01  5.173608e+01
     vertex  6.411185e+01  4.382719e+01  4.826465e+01
     vertex  6.702528e+01  4.302190e+01  5.173608e+01
   endloop
 endfacet
 facet normal -9.573169e-01 -3.728980e-02  2.866248e-01
   outer loop
     vertex  6.885852e+01  4.135668e+01  5.574578e+01
     vertex  6.806996e+01  3.925862e+01  5.283907e+01
     vertex  6.911988e+01  3.925862e+01  5.634573e+01
   endloop
 endfacet
 facet normal -9.927915e-01 -1.101830e-01  4.716729e-02
   outer loop
     vertex  6.885852e+01  4.135668e+01  5.574578e+01
     vertex  6.911988e+01  3.925862e+01  5.634573e+01
     vertex  6.887546e+01  4.302517e+01  6.000000e+01
   endloop
 endfacet
 facet normal -9.212431e-01 -1.506224e-01  3.586420e-01
   outer loop
     vertex  6.885852e+01  4.135668e+01  5.574578e+01
     vertex  6.702528e+01  4.302190e+01  5.173608e+01
     vertex  6.806996e+01  3.925862e+01  5.283907e+01
   endloop
 endfacet
 facet normal  4.573708e-02 -1.286918e-01  9.906294e-01
   outer loop
     vertex  5.164888e+01  4.301242e+01  4.389570e+01
     vertex  5.359394e+01  3.925862e+01  4.331825e+01
     vertex  5.273377e+01  4.339800e+01  4.389570e+01
   endloop
 endfacet
 facet normal -2.747691e-02 -4.016982e-01  9.153598e-01
   outer loop
     vertex  5.303805e+01  4.738553e+01  4.558577e+01
     vertex  5.388246e+01  4.347657e+01  4.389570e+01
     vertex  5.525128e+01  4.723414e+01  4.558577e+01
   endloop
 endfacet
 facet normal  2.680171e-02 -3.918272e-01  9.196484e-01
   outer loop
     vertex  5.303805e+01  4.738553e+01  4.558577e+01
     vertex  5.273377e+01  4.339800e+01  4.389570e+01
     vertex  5.388246e+01  4.347657e+01  4.389570e+01
   endloop
 endfacet
 facet normal -2.073559e-01 -5.834436e-01  7.852370e-01
   outer loop
     vertex  5.743410e+01  5.006377e+01  4.826465e+01
     vertex  5.525128e+01  4.723414e+01  4.558577e+01
     vertex  5.734159e+01  4.649124e+01  4.558577e+01
   endloop
 endfacet
 facet normal -2.945315e-01 -5.684200e-01  7.682121e-01
   outer loop
     vertex  5.743410e+01  5.006377e+01  4.826465e+01
     vertex  5.734159e+01  4.649124e+01  4.558577e+01
     vertex  6.020689e+01  4.862703e+01  4.826465e+01
   endloop
 endfacet
 facet normal -5.472094e-01 -5.859182e-01  5.977138e-01
   outer loop
     vertex  6.311459e+01  4.945274e+01  5.173608e+01
     vertex  6.020689e+01  4.862703e+01  4.826465e+01
     vertex  6.248923e+01  4.649547e+01  4.826465e+01
   endloop
 endfacet
 facet normal -6.422445e-01 -5.225047e-01  5.608127e-01
   outer loop
     vertex  6.311459e+01  4.945274e+01  5.173608e+01
     vertex  6.248923e+01  4.649547e+01  4.826465e+01
     vertex  6.551188e+01  4.650608e+01  5.173608e+01
   endloop
 endfacet
 facet normal -9.336142e-01 -3.540731e-01  5.474322e-02
   outer loop
     vertex  6.772642e+01  4.539722e+01  5.574578e+01
     vertex  6.887546e+01  4.302517e+01  6.000000e+01
     vertex  6.753002e+01  4.657283e+01  6.000000e+01
   endloop
 endfacet
 facet normal -8.526652e-01 -3.703647e-01  3.684998e-01
   outer loop
     vertex  6.772642e+01  4.539722e+01  5.574578e+01
     vertex  6.551188e+01  4.650608e+01  5.173608e+01
     vertex  6.702528e+01  4.302190e+01  5.173608e+01
   endloop
 endfacet
 facet normal -9.149020e-01 -2.563435e-01  3.118372e-01
   outer loop
     vertex  6.772642e+01  4.539722e+01  5.574578e+01
     vertex  6.702528e+01  4.302190e+01  5.173608e+01
     vertex  6.885852e+01  4.135668e+01  5.574578e+01
   endloop
 endfacet
 facet normal -9.571805e-01 -2.681894e-01  1.089949e-01
   outer loop
     vertex  6.772642e+01  4.539722e+01  5.574578e+01
     vertex  6.885852e+01  4.135668e+01  5.574578e+01
     vertex  6.887546e+01  4.302517e+01  6.000000e+01
   endloop
 endfacet
 facet normal  7.876166e-02 -1.115798e-01  9.906294e-01
   outer loop
     vertex  5.070824e+01  4.234845e+01  4.389570e+01
     vertex  5.359394e+01  3.925862e+01  4.331825e+01
     vertex  5.164888e+01  4.301242e+01  4.389570e+01
   endloop
 endfacet
 facet normal  1.315215e-01 -3.700662e-01  9.196484e-01
   outer loop
     vertex  5.086605e+01  4.693418e+01  4.558577e+01
     vertex  5.164888e+01  4.301242e+01  4.389570e+01
     vertex  5.273377e+01  4.339800e+01  4.389570e+01
   endloop
 endfacet
 facet normal  8.191889e-02 -3.942154e-01  9.153598e-01
   outer loop
     vertex  5.086605e+01  4.693418e+01  4.558577e+01
     vertex  5.273377e+01  4.339800e+01  4.389570e+01
     vertex  5.303805e+01  4.738553e+01  4.558577e+01
   endloop
 endfacet
 facet normal -1.302516e-01 -6.268051e-01  7.682121e-01
   outer loop
     vertex  5.437650e+01  5.069915e+01  4.826465e+01
     vertex  5.525128e+01  4.723414e+01  4.558577e+01
     vertex  5.743410e+01  5.006377e+01  4.826465e+01
   endloop
 endfacet
 facet normal -4.225538e-02 -6.177518e-01  7.852370e-01
   outer loop
     vertex  5.437650e+01  5.069915e+01  4.826465e+01
     vertex  5.303805e+01  4.738553e+01  4.558577e+01
     vertex  5.525128e+01  4.723414e+01  4.558577e+01
   endloop
 endfacet
 facet normal -3.688385e-01 -7.118261e-01  5.977138e-01
   outer loop
     vertex  6.001120e+01  5.164336e+01  5.173608e+01
     vertex  5.743410e+01  5.006377e+01  4.826465e+01
     vertex  6.020689e+01  4.862703e+01  4.826465e+01
   endloop
 endfacet
 facet normal -4.774583e-01 -6.764043e-01  5.608127e-01
   outer loop
     vertex  6.001120e+01  5.164336e+01  5.173608e+01
     vertex  6.020689e+01  4.862703e+01  4.826465e+01
     vertex  6.311459e+01  4.945274e+01  5.173608e+01
   endloop
 endfacet
 facet normal -8.214057e-01 -5.669755e-01  6.189856e-02
   outer loop
     vertex  6.554617e+01  4.898248e+01  5.574578e+01
     vertex  6.753002e+01  4.657283e+01  6.000000e+01
     vertex  6.537465e+01  4.969541e+01  6.000000e+01
   endloop
 endfacet
 facet normal -7.211228e-01 -5.866769e-01  3.684998e-01
   outer loop
     vertex  6.554617e+01  4.898248e+01  5.574578e+01
     vertex  6.311459e+01  4.945274e+01  5.173608e+01
     vertex  6.551188e+01  4.650608e+01  5.173608e+01
   endloop
 endfacet
 facet normal -8.498239e-01 -5.167894e-01  1.035766e-01
   outer loop
     vertex  6.554617e+01  4.898248e+01  5.574578e+01
     vertex  6.772642e+01  4.539722e+01  5.574578e+01
     vertex  6.753002e+01  4.657283e+01  6.000000e+01
   endloop
 endfacet
 facet normal -8.118143e-01 -4.936752e-01  3.118372e-01
   outer loop
     vertex  6.554617e+01  4.898248e+01  5.574578e+01
     vertex  6.551188e+01  4.650608e+01  5.173608e+01
     vertex  6.772642e+01  4.539722e+01  5.574578e+01
   endloop
 endfacet
 facet normal  1.059448e-01 -8.619252e-02  9.906294e-01
   outer loop
     vertex  4.998162e+01  4.145532e+01  4.389570e+01
     vertex  5.359394e+01  3.925862e+01  4.331825e+01
     vertex  5.070824e+01  4.234845e+01  4.389570e+01
   endloop
 endfacet
 facet normal  1.852391e-01 -3.574953e-01  9.153598e-01
   outer loop
     vertex  4.889636e+01  4.591357e+01  4.558577e+01
     vertex  5.164888e+01  4.301242e+01  4.389570e+01
     vertex  5.086605e+01  4.693418e+01  4.558577e+01
   endloop
 endfacet
 facet normal  2.264870e-01 -3.208590e-01  9.196484e-01
   outer loop
     vertex  4.889636e+01  4.591357e+01  4.558577e+01
     vertex  5.070824e+01  4.234845e+01  4.389570e+01
     vertex  5.164888e+01  4.301242e+01  4.389570e+01
   endloop
 endfacet
 facet normal  1.259790e-01 -6.062443e-01  7.852370e-01
   outer loop
     vertex  5.126086e+01  5.048603e+01  4.826465e+01
     vertex  5.086605e+01  4.693418e+01  4.558577e+01
     vertex  5.303805e+01  4.738553e+01  4.558577e+01
   endloop
 endfacet
 facet normal  4.368848e-02 -6.387030e-01  7.682121e-01
   outer loop
     vertex  5.126086e+01  5.048603e+01  4.826465e+01
     vertex  5.303805e+01  4.738553e+01  4.558577e+01
     vertex  5.437650e+01  5.069915e+01  4.826465e+01
   endloop
 endfacet
 facet normal -2.772611e-01 -7.801381e-01  5.608127e-01
   outer loop
     vertex  5.643187e+01  5.291545e+01  5.173608e+01
     vertex  5.743410e+01  5.006377e+01  4.826465e+01
     vertex  6.001120e+01  5.164336e+01  5.173608e+01
   endloop
 endfacet
 facet normal -1.631126e-01 -7.849411e-01  5.977138e-01
   outer loop
     vertex  5.643187e+01  5.291545e+01  5.173608e+01
     vertex  5.437650e+01  5.069915e+01  4.826465e+01
     vertex  5.743410e+01  5.006377e+01  4.826465e+01
   endloop
 endfacet
 facet normal -6.613726e-01 -7.465353e-01  7.260451e-02
   outer loop
     vertex  6.247949e+01  5.184656e+01  5.574578e+01
     vertex  6.537465e+01  4.969541e+01  6.000000e+01
     vertex  6.253464e+01  5.221145e+01  6.000000e+01
   endloop
 endfacet
 facet normal -4.631697e-01 -8.824962e-01  8.169641e-02
   outer loop
     vertex  6.247949e+01  5.184656e+01  5.574578e+01
     vertex  6.253464e+01  5.221145e+01  6.000000e+01
     vertex  5.917502e+01  5.397471e+01  6.000000e+01
   endloop
 endfacet
 facet normal -6.794966e-01 -7.275632e-01  9.453187e-02
   outer loop
     vertex  6.247949e+01  5.184656e+01  5.574578e+01
     vertex  6.554617e+01  4.898248e+01  5.574578e+01
     vertex  6.537465e+01  4.969541e+01  6.000000e+01
   endloop
 endfacet
 facet normal -5.360981e-01 -7.594780e-01  3.684998e-01
   outer loop
     vertex  6.247949e+01  5.184656e+01  5.574578e+01
     vertex  6.001120e+01  5.164336e+01  5.173608e+01
     vertex  6.311459e+01  4.945274e+01  5.173608e+01
   endloop
 endfacet
 facet normal -6.485180e-01 -6.943932e-01  3.118372e-01
   outer loop
     vertex  6.247949e+01  5.184656e+01  5.574578e+01
     vertex  6.311459e+01  4.945274e+01  5.173608e+01
     vertex  6.554617e+01  4.898248e+01  5.574578e+01
   endloop
 endfacet
 facet normal  1.252706e-01 -5.441269e-02  9.906294e-01
   outer loop
     vertex  4.952291e+01  4.039926e+01  4.389570e+01
     vertex  5.359394e+01  3.925862e+01  4.331825e+01
     vertex  4.998162e+01  4.145532e+01  4.389570e+01
   endloop
 endfacet
 facet normal  3.046550e-01 -2.478552e-01  9.196484e-01
   outer loop
     vertex  4.727507e+01  4.439940e+01  4.558577e+01
     vertex  4.998162e+01  4.145532e+01  4.389570e+01
     vertex  5.070824e+01  4.234845e+01  4.389570e+01
   endloop
 endfacet
 facet normal  2.748211e-01 -2.942615e-01  9.153598e-01
   outer loop
     vertex  4.727507e+01  4.439940e+01  4.558577e+01
     vertex  5.070824e+01  4.234845e+01  4.389570e+01
     vertex  4.889636e+01  4.591357e+01  4.558577e+01
   endloop
 endfacet
 facet normal  2.848701e-01 -5.497744e-01  7.852370e-01
   outer loop
     vertex  4.831825e+01  4.944023e+01  4.826465e+01
     vertex  4.889636e+01  4.591357e+01  4.558577e+01
     vertex  5.086605e+01  4.693418e+01  4.558577e+01
   endloop
 endfacet
 facet normal  2.143884e-01 -6.032311e-01  7.682121e-01
   outer loop
     vertex  4.831825e+01  4.944023e+01  4.826465e+01
     vertex  5.086605e+01  4.693418e+01  4.558577e+01
     vertex  5.126086e+01  5.048603e+01  4.826465e+01
   endloop
 endfacet
 facet normal  5.471060e-02 -7.998406e-01  5.977138e-01
   outer loop
     vertex  5.264206e+01  5.317468e+01  5.173608e+01
     vertex  5.126086e+01  5.048603e+01  4.826465e+01
     vertex  5.437650e+01  5.069915e+01  4.826465e+01
   endloop
 endfacet
 facet normal -5.650081e-02 -8.260126e-01  5.608127e-01
   outer loop
     vertex  5.264206e+01  5.317468e+01  5.173608e+01
     vertex  5.437650e+01  5.069915e+01  4.826465e+01
     vertex  5.643187e+01  5.291545e+01  5.173608e+01
   endloop
 endfacet
 facet normal -2.387512e-01 -9.686516e-01  6.864331e-02
   outer loop
     vertex  5.875380e+01  5.377706e+01  5.574578e+01
     vertex  5.917502e+01  5.397471e+01  6.000000e+01
     vertex  5.549105e+01  5.488273e+01  6.000000e+01
   endloop
 endfacet
 facet normal -3.113134e-01 -8.759520e-01  3.684998e-01
   outer loop
     vertex  5.875380e+01  5.377706e+01  5.574578e+01
     vertex  5.643187e+01  5.291545e+01  5.173608e+01
     vertex  6.001120e+01  5.164336e+01  5.173608e+01
   endloop
 endfacet
 facet normal -4.583415e-01 -8.845589e-01  8.647862e-02
   outer loop
     vertex  5.875380e+01  5.377706e+01  5.574578e+01
     vertex  6.247949e+01  5.184656e+01  5.574578e+01
     vertex  5.917502e+01  5.397471e+01  6.000000e+01
   endloop
 endfacet
 facet normal -4.371242e-01 -8.436113e-01  3.118372e-01
   outer loop
     vertex  5.875380e+01  5.377706e+01  5.574578e+01
     vertex  6.001120e+01  5.164336e+01  5.173608e+01
     vertex  6.247949e+01  5.184656e+01  5.574578e+01
   endloop
 endfacet
 facet normal  0.000000e+00  0.000000e+00  0.000000e+00
   outer loop
     vertex  4.936613e+01  3.925862e+01  4.389570e+01
     vertex  5.359394e+01  3.925862e+01  4.331825e+01
     vertex  5.359394e+01  3.925862e+01  4.331825e+01
   endloop
 endfacet
 facet normal  1.353056e-01 -1.859732e-02  9.906294e-01
   outer loop
     vertex  4.936613e+01  3.925862e+01  4.389570e+01
     vertex  5.359394e+01  3.925862e+01  4.331825e+01
     vertex  4.952291e+01  4.039926e+01  4.389570e+01
   endloop
 endfacet
 facet normal  3.602281e-01 -1.564691e-01  9.196484e-01
   outer loop
     vertex  4.612243e+01  4.250395e+01  4.558577e+01
     vertex  4.952291e+01  4.039926e+01  4.389570e+01
     vertex  4.998162e+01  4.145532e+01  4.389570e+01
   endloop
 endfacet
 facet normal  3.440208e-01 -2.092037e-01  9.153598e-01
   outer loop
     vertex  4.612243e+01  4.250395e+01  4.558577e+01
     vertex  4.998162e+01  4.145532e+01  4.389570e+01
     vertex  4.727507e+01  4.439940e+01  4.558577e+01
   endloop
 endfacet
 facet normal  4.226337e-01 -4.525302e-01  7.852370e-01
   outer loop
     vertex  4.576692e+01  4.763931e+01  4.826465e+01
     vertex  4.727507e+01  4.439940e+01  4.558577e+01
     vertex  4.889636e+01  4.591357e+01  4.558577e+01
   endloop
 endfacet
 facet normal  3.691881e-01 -5.230204e-01  7.682121e-01
   outer loop
     vertex  4.576692e+01  4.763931e+01  4.826465e+01
     vertex  4.889636e+01  4.591357e+01  4.558577e+01
     vertex  4.831825e+01  4.944023e+01  4.826465e+01
   endloop
 endfacet
 facet normal  2.684762e-01 -7.554196e-01  5.977138e-01
   outer loop
     vertex  4.892285e+01  5.240182e+01  5.173608e+01
     vertex  4.831825e+01  4.944023e+01  4.826465e+01
     vertex  5.126086e+01  5.048603e+01  4.826465e+01
   endloop
 endfacet
 facet normal  1.684499e-01 -8.106255e-01  5.608127e-01
   outer loop
     vertex  4.892285e+01  5.240182e+01  5.173608e+01
     vertex  5.126086e+01  5.048603e+01  4.826465e+01
     vertex  5.264206e+01  5.317468e+01  5.173608e+01
   endloop
 endfacet
 facet normal  0.000000e+00 -9.982510e-01  5.911757e-02
   outer loop
     vertex  5.464543e+01  5.463079e+01  5.574578e+01
     vertex  5.549105e+01  5.488273e+01  6.000000e+01
     vertex  5.169683e+01  5.488273e+01  6.000000e+01
   endloop
 endfacet
 facet normal -2.024776e-01 -9.743759e-01  9.795078e-02
   outer loop
     vertex  5.464543e+01  5.463079e+01  5.574578e+01
     vertex  5.875380e+01  5.377706e+01  5.574578e+01
     vertex  5.549105e+01  5.488273e+01  6.000000e+01
   endloop
 endfacet
 facet normal -6.344005e-02 -9.274607e-01  3.684998e-01
   outer loop
     vertex  5.464543e+01  5.463079e+01  5.574578e+01
     vertex  5.264206e+01  5.317468e+01  5.173608e+01
     vertex  5.643187e+01  5.291545e+01  5.173608e+01
   endloop
 endfacet
 facet normal -1.933108e-01 -9.302626e-01  3.118372e-01
   outer loop
     vertex  5.464543e+01  5.463079e+01  5.574578e+01
     vertex  5.643187e+01  5.291545e+01  5.173608e+01
     vertex  5.875380e+01  5.377706e+01  5.574578e+01
   endloop
 endfacet
 facet normal  1.353056e-01  1.859732e-02  9.906294e-01
   outer loop
     vertex  4.952291e+01  3.811797e+01  4.389570e+01
     vertex  5.359394e+01  3.925862e+01  4.331825e+01
     vertex  4.936613e+01  3.925862e+01  4.389570e+01
   endloop
 endfacet
 facet normal  3.877060e-01 -1.086301e-01  9.153598e-01
   outer loop
     vertex  4.552391e+01  4.036782e+01  4.558577e+01
     vertex  4.952291e+01  4.039926e+01  4.389570e+01
     vertex  4.612243e+01  4.250395e+01  4.558577e+01
   endloop
 endfacet
 facet normal  3.890847e-01 -5.347847e-02  9.196484e-01
   outer loop
     vertex  4.552391e+01  4.036782e+01  4.558577e+01
     vertex  4.936613e+01  3.925862e+01  4.389570e+01
     vertex  4.952291e+01  4.039926e+01  4.389570e+01
   endloop
 endfacet
 facet normal  4.966068e-01 -4.040196e-01  7.682121e-01
   outer loop
     vertex  4.379609e+01  4.521682e+01  4.826465e+01
     vertex  4.727507e+01  4.439940e+01  4.558577e+01
     vertex  4.576692e+01  4.763931e+01  4.826465e+01
   endloop
 endfacet
 facet normal  5.290525e-01 -3.217240e-01  7.852370e-01
   outer loop
     vertex  4.379609e+01  4.521682e+01  4.826465e+01
     vertex  4.612243e+01  4.250395e+01  4.558577e+01
     vertex  4.727507e+01  4.439940e+01  4.558577e+01
   endloop
 endfacet
 facet normal  4.623301e-01 -6.549726e-01  5.977138e-01
   outer loop
     vertex  4.555007e+01  5.065419e+01  5.173608e+01
     vertex  4.576692e+01  4.763931e+01  4.826465e+01
     vertex  4.831825e+01  4.944023e+01  4.826465e+01
   endloop
 endfacet
 facet normal  3.809075e-01 -7.351181e-01  5.608127e-01
   outer loop
     vertex  4.555007e+01  5.065419e+01  5.173608e+01
     vertex  4.831825e+01  4.944023e+01  4.826465e+01
     vertex  4.892285e+01  5.240182e+01  5.173608e+01
   endloop
 endfacet
 facet normal  1.891384e-01 -9.101838e-01  3.684998e-01
   outer loop
     vertex  5.045907e+01  5.434443e+01  5.574578e+01
     vertex  4.892285e+01  5.240182e+01  5.173608e+01
     vertex  5.264206e+01  5.317468e+01  5.173608e+01
   endloop
 endfacet
 facet normal  2.389774e-01 -9.695694e-01  5.315131e-02
   outer loop
     vertex  5.045907e+01  5.434443e+01  5.574578e+01
     vertex  5.169683e+01  5.488273e+01  6.000000e+01
     vertex  4.801286e+01  5.397471e+01  6.000000e+01
   endloop
 endfacet
 facet normal  6.483954e-02 -9.479206e-01  3.118372e-01
   outer loop
     vertex  5.045907e+01  5.434443e+01  5.574578e+01
     vertex  5.264206e+01  5.317468e+01  5.173608e+01
     vertex  5.464543e+01  5.463079e+01  5.574578e+01
   endloop
 endfacet
 facet normal  6.785951e-02 -9.920709e-01  1.057849e-01
   outer loop
     vertex  5.045907e+01  5.434443e+01  5.574578e+01
     vertex  5.464543e+01  5.463079e+01  5.574578e+01
     vertex  5.169683e+01  5.488273e+01  6.000000e+01
   endloop
 endfacet
 facet normal  1.252706e-01  5.441269e-02  9.906294e-01
   outer loop
     vertex  4.998162e+01  3.706192e+01  4.389570e+01
     vertex  5.359394e+01  3.925862e+01  4.331825e+01
     vertex  4.952291e+01  3.811797e+01  4.389570e+01
   endloop
 endfacet
 facet normal  3.890847e-01  5.347847e-02  9.196484e-01
   outer loop
     vertex  4.552391e+01  3.814942e+01  4.558577e+01
     vertex  4.952291e+01  3.811797e+01  4.389570e+01
     vertex  4.936613e+01  3.925862e+01  4.389570e+01
   endloop
 endfacet
 facet normal  4.026369e-01 -0.000000e+00  9.153598e-01
   outer loop
     vertex  4.552391e+01  3.814942e+01  4.558577e+01
     vertex  4.936613e+01  3.925862e+01  4.389570e+01
     vertex  4.552391e+01  4.036782e+01  4.558577e+01
   endloop
 endfacet
 facet normal  5.962339e-01 -1.670569e-01  7.852370e-01
   outer loop
     vertex  4.255191e+01  4.235245e+01  4.826465e+01
     vertex  4.552391e+01  4.036782e+01  4.558577e+01
     vertex  4.612243e+01  4.250395e+01  4.558577e+01
   endloop
 endfacet
 facet normal  5.871945e-01 -2.550545e-01  7.682121e-01
   outer loop
     vertex  4.255191e+01  4.235245e+01  4.826465e+01
     vertex  4.612243e+01  4.250395e+01  4.558577e+01
     vertex  4.379609e+01  4.521682e+01  4.826465e+01
   endloop
 endfacet
 facet normal  6.218952e-01 -5.059492e-01  5.977138e-01
   outer loop
     vertex  4.277387e+01  4.806140e+01  5.173608e+01
     vertex  4.379609e+01  4.521682e+01  4.826465e+01
     vertex  4.576692e+01  4.763931e+01  4.826465e+01
   endloop
 endfacet
 facet normal  5.651149e-01 -6.050903e-01  5.608127e-01
   outer loop
     vertex  4.277387e+01  4.806140e+01  5.173608e+01
     vertex  4.576692e+01  4.763931e+01  4.826465e+01
     vertex  4.555007e+01  5.065419e+01  5.173608e+01
   endloop
 endfacet
 facet normal  4.276893e-01 -8.254028e-01  3.684998e-01
   outer loop
     vertex  4.650522e+01  5.293923e+01  5.574578e+01
     vertex  4.555007e+01  5.065419e+01  5.173608e+01
     vertex  4.892285e+01  5.240182e+01  5.173608e+01
   endloop
 endfacet
 facet normal  4.641240e-01 -8.843145e-01  5.076226e-02
   outer loop
     vertex  4.650522e+01  5.293923e+01  5.574578e+01
     vertex  4.801286e+01  5.397471e+01  6.000000e+01
     vertex  4.465325e+01  5.221145e+01  6.000000e+01
   endloop
 endfacet
 facet normal  3.328475e-01 -9.365431e-01  1.099976e-01
   outer loop
     vertex  4.650522e+01  5.293923e+01  5.574578e+01
     vertex  5.045907e+01  5.434443e+01  5.574578e+01
     vertex  4.801286e+01  5.397471e+01  6.000000e+01
   endloop
 endfacet
 facet normal  3.181810e-01 -8.952756e-01  3.118372e-01
   outer loop
     vertex  4.650522e+01  5.293923e+01  5.574578e+01
     vertex  4.892285e+01  5.240182e+01  5.173608e+01
     vertex  5.045907e+01  5.434443e+01  5.574578e+01
   endloop
 endfacet
 facet normal  1.059448e-01  8.619252e-02  9.906294e-01
   outer loop
     vertex  5.070824e+01  3.616878e+01  4.389570e+01
     vertex  5.359394e+01  3.925862e+01  4.331825e+01
     vertex  4.998162e+01  3.706192e+01  4.389570e+01
   endloop
 endfacet
 facet normal  3.602281e-01  1.564691e-01  9.196484e-01
   outer loop
     vertex  4.612243e+01  3.601328e+01  4.558577e+01
     vertex  4.998162e+01  3.706192e+01  4.389570e+01
     vertex  4.952291e+01  3.811797e+01  4.389570e+01
   endloop
 endfacet
 facet normal  3.877060e-01  1.086301e-01  9.153598e-01
   outer loop
     vertex  4.612243e+01  3.601328e+01  4.558577e+01
     vertex  4.952291e+01  3.811797e+01  4.389570e+01
     vertex  4.552391e+01  3.814942e+01  4.558577e+01
   endloop
 endfacet
 facet normal  6.342326e-01 -8.717326e-02  7.682121e-01
   outer loop
     vertex  4.212668e+01  3.925862e+01  4.826465e+01
     vertex  4.552391e+01  4.036782e+01  4.558577e+01
     vertex  4.255191e+01  4.235245e+01  4.826465e+01
   endloop
 endfacet
 facet normal  6.191953e-01  0.000000e+00  7.852370e-01
   outer loop
     vertex  4.212668e+01  3.925862e+01  4.826465e+01
     vertex  4.552391e+01  3.814942e+01  4.558577e+01
     vertex  4.552391e+01  4.036782e+01  4.558577e+01
   endloop
 endfacet
 facet normal  7.353371e-01 -3.194020e-01  5.977138e-01
   outer loop
     vertex  4.080014e+01  4.481575e+01  5.173608e+01
     vertex  4.255191e+01  4.235245e+01  4.826465e+01
     vertex  4.379609e+01  4.521682e+01  4.826465e+01
   endloop
 endfacet
 facet normal  7.074103e-01 -4.301857e-01  5.608127e-01
   outer loop
     vertex  4.080014e+01  4.481575e+01  5.173608e+01
     vertex  4.379609e+01  4.521682e+01  4.826465e+01
     vertex  4.277387e+01  4.806140e+01  5.173608e+01
   endloop
 endfacet
 facet normal  6.622270e-01 -7.474998e-01  5.195696e-02
   outer loop
     vertex  4.307710e+01  5.051940e+01  5.574578e+01
     vertex  4.465325e+01  5.221145e+01  6.000000e+01
     vertex  4.181323e+01  4.969541e+01  6.000000e+01
   endloop
 endfacet
 facet normal  6.345204e-01 -6.794055e-01  3.684998e-01
   outer loop
     vertex  4.307710e+01  5.051940e+01  5.574578e+01
     vertex  4.277387e+01  4.806140e+01  5.173608e+01
     vertex  4.555007e+01  5.065419e+01  5.173608e+01
   endloop
 endfacet
 facet normal  5.731425e-01 -8.119579e-01  1.105990e-01
   outer loop
     vertex  4.307710e+01  5.051940e+01  5.574578e+01
     vertex  4.650522e+01  5.293923e+01  5.574578e+01
     vertex  4.465325e+01  5.221145e+01  6.000000e+01
   endloop
 endfacet
 facet normal  5.479245e-01 -7.762321e-01  3.118372e-01
   outer loop
     vertex  4.307710e+01  5.051940e+01  5.574578e+01
     vertex  4.555007e+01  5.065419e+01  5.173608e+01
     vertex  4.650522e+01  5.293923e+01  5.574578e+01
   endloop
 endfacet
 facet normal  7.876166e-02  1.115798e-01  9.906294e-01
   outer loop
     vertex  5.164888e+01  3.550481e+01  4.389570e+01
     vertex  5.359394e+01  3.925862e+01  4.331825e+01
     vertex  5.070824e+01  3.616878e+01  4.389570e+01
   endloop
 endfacet
 facet normal  3.440208e-01  2.092037e-01  9.153598e-01
   outer loop
     vertex  4.727507e+01  3.411783e+01  4.558577e+01
     vertex  4.998162e+01  3.706192e+01  4.389570e+01
     vertex  4.612243e+01  3.601328e+01  4.558577e+01
   endloop
 endfacet
 facet normal  3.046550e-01  2.478552e-01  9.196484e-01
   outer loop
     vertex  4.727507e+01  3.411783e+01  4.558577e+01
     vertex  5.070824e+01  3.616878e+01  4.389570e+01
     vertex  4.998162e+01  3.706192e+01  4.389570e+01
   endloop
 endfacet
 facet normal  5.962339e-01  1.670569e-01  7.852370e-01
   outer loop
     vertex  4.255191e+01  3.616478e+01  4.826465e+01
     vertex  4.612243e+01  3.601328e+01  4.558577e+01
     vertex  4.552391e+01  3.814942e+01  4.558577e+01
   endloop
 endfacet
 facet normal  6.342326e-01  8.717326e-02  7.682121e-01
   outer loop
     vertex  4.255191e+01  3.616478e+01  4.826465e+01
     vertex  4.552391e+01  3.814942e+01  4.558577e+01
     vertex  4.212668e+01  3.925862e+01  4.826465e+01
   endloop
 endfacet
 facet normal  7.942424e-01 -1.091661e-01  5.977138e-01
   outer loop
     vertex  3.977527e+01  4.115795e+01  5.173608e+01
     vertex  4.212668e+01  3.925862e+01  4.826465e+01
     vertex  4.255191e+01  4.235245e+01  4.826465e+01
   endloop
 endfacet
 facet normal  7.972403e-01 -2.233763e-01  5.608127e-01
   outer loop
     vertex  3.977527e+01  4.115795e+01  5.173608e+01
     vertex  4.255191e+01  4.235245e+01  4.826465e+01
     vertex  4.080014e+01  4.481575e+01  5.173608e+01
   endloop
 endfacet
 facet normal  8.216584e-01 -5.671498e-01  5.673218e-02
   outer loop
     vertex  4.042897e+01  4.726441e+01  5.574578e+01
     vertex  4.181323e+01  4.969541e+01  6.000000e+01
     vertex  3.965787e+01  4.657283e+01  6.000000e+01
   endloop
 endfacet
 facet normal  7.370309e-01 -5.996191e-01  3.118372e-01
   outer loop
     vertex  4.042897e+01  4.726441e+01  5.574578e+01
     vertex  4.277387e+01  4.806140e+01  5.173608e+01
     vertex  4.307710e+01  5.051940e+01  5.574578e+01
   endloop
 endfacet
 facet normal  7.942921e-01 -4.830197e-01  3.684998e-01
   outer loop
     vertex  4.042897e+01  4.726441e+01  5.574578e+01
     vertex  4.080014e+01  4.481575e+01  5.173608e+01
     vertex  4.277387e+01  4.806140e+01  5.173608e+01
   endloop
 endfacet
 facet normal  7.712085e-01 -6.274246e-01  1.075908e-01
   outer loop
     vertex  4.042897e+01  4.726441e+01  5.574578e+01
     vertex  4.307710e+01  5.051940e+01  5.574578e+01
     vertex  4.181323e+01  4.969541e+01  6.000000e+01
   endloop
 endfacet
 facet normal  4.573708e-02  1.286918e-01  9.906294e-01
   outer loop
     vertex  5.273377e+01  3.511924e+01  4.389570e+01
     vertex  5.359394e+01  3.925862e+01  4.331825e+01
     vertex  5.164888e+01  3.550481e+01  4.389570e+01
   endloop
 endfacet
 facet normal  2.748211e-01  2.942615e-01  9.153598e-01
   outer loop
     vertex  4.889636e+01  3.260366e+01  4.558577e+01
     vertex  5.070824e+01  3.616878e+01  4.389570e+01
     vertex  4.727507e+01  3.411783e+01  4.558577e+01
   endloop
 endfacet
 facet normal  2.264870e-01  3.208590e-01  9.196484e-01
   outer loop
     vertex  4.889636e+01  3.260366e+01  4.558577e+01
     vertex  5.164888e+01  3.550481e+01  4.389570e+01
     vertex  5.070824e+01  3.616878e+01  4.389570e+01
   endloop
 endfacet
 facet normal  5.290525e-01  3.217240e-01  7.852370e-01
   outer loop
     vertex  4.379609e+01  3.330041e+01  4.826465e+01
     vertex  4.727507e+01  3.411783e+01  4.558577e+01
     vertex  4.612243e+01  3.601328e+01  4.558577e+01
   endloop
 endfacet
 facet normal  5.871945e-01  2.550545e-01  7.682121e-01
   outer loop
     vertex  4.379609e+01  3.330041e+01  4.826465e+01
     vertex  4.612243e+01  3.601328e+01  4.558577e+01
     vertex  4.255191e+01  3.616478e+01  4.826465e+01
   endloop
 endfacet
 facet normal  7.942424e-01  1.091661e-01  5.977138e-01
   outer loop
     vertex  3.977527e+01  3.735928e+01  5.173608e+01
     vertex  4.255191e+01  3.616478e+01  4.826465e+01
     vertex  4.212668e+01  3.925862e+01  4.826465e+01
   endloop
 endfacet
 facet normal  8.279427e-01 -0.000000e+00  5.608127e-01
   outer loop
     vertex  3.977527e+01  3.735928e+01  5.173608e+01
     vertex  4.212668e+01  3.925862e+01  4.826465e+01
     vertex  3.977527e+01  4.115795e+01  5.173608e+01
   endloop
 endfacet
 facet normal  9.330344e-01 -3.538533e-01  6.507420e-02
   outer loop
     vertex  3.875723e+01  4.341567e+01  5.574578e+01
     vertex  3.965787e+01  4.657283e+01  6.000000e+01
     vertex  3.831242e+01  4.302517e+01  6.000000e+01
   endloop
 endfacet
 facet normal  9.125243e-01 -3.963652e-01  1.009655e-01
   outer loop
     vertex  3.875723e+01  4.341567e+01  5.574578e+01
     vertex  4.042897e+01  4.726441e+01  5.574578e+01
     vertex  3.965787e+01  4.657283e+01  6.000000e+01
   endloop
 endfacet
 facet normal  8.951547e-01 -2.508106e-01  3.684998e-01
   outer loop
     vertex  3.875723e+01  4.341567e+01  5.574578e+01
     vertex  3.977527e+01  4.115795e+01  5.173608e+01
     vertex  4.080014e+01  4.481575e+01  5.173608e+01
   endloop
 endfacet
 facet normal  8.714751e-01 -3.785350e-01  3.118372e-01
   outer loop
     vertex  3.875723e+01  4.341567e+01  5.574578e+01
     vertex  4.080014e+01  4.481575e+01  5.173608e+01
     vertex  4.042897e+01  4.726441e+01  5.574578e+01
   endloop
 endfacet
 facet normal  9.320390e-03  1.362593e-01  9.906294e-01
   outer loop
     vertex  5.388246e+01  3.504066e+01  4.389570e+01
     vertex  5.359394e+01  3.925862e+01  4.331825e+01
     vertex  5.273377e+01  3.511924e+01  4.389570e+01
   endloop
 endfacet
 facet normal  1.315215e-01  3.700662e-01  9.196484e-01
   outer loop
     vertex  5.086605e+01  3.158305e+01  4.558577e+01
     vertex  5.273377e+01  3.511924e+01  4.389570e+01
     vertex  5.164888e+01  3.550481e+01  4.389570e+01
   endloop
 endfacet
 facet normal  1.852391e-01  3.574953e-01  9.153598e-01
   outer loop
     vertex  5.086605e+01  3.158305e+01  4.558577e+01
     vertex  5.164888e+01  3.550481e+01  4.389570e+01
     vertex  4.889636e+01  3.260366e+01  4.558577e+01
   endloop
 endfacet
 facet normal  4.226337e-01  4.525302e-01  7.852370e-01
   outer loop
     vertex  4.576692e+01  3.087793e+01  4.826465e+01
     vertex  4.889636e+01  3.260366e+01  4.558577e+01
     vertex  4.727507e+01  3.411783e+01  4.558577e+01
   endloop
 endfacet
 facet normal  4.966068e-01  4.040196e-01  7.682121e-01
   outer loop
     vertex  4.576692e+01  3.087793e+01  4.826465e+01
     vertex  4.727507e+01  3.411783e+01  4.558577e+01
     vertex  4.379609e+01  3.330041e+01  4.826465e+01
   endloop
 endfacet
 facet normal  7.353371e-01  3.194020e-01  5.977138e-01
   outer loop
     vertex  4.080014e+01  3.370148e+01  5.173608e+01
     vertex  4.379609e+01  3.330041e+01  4.826465e+01
     vertex  4.255191e+01  3.616478e+01  4.826465e+01
   endloop
 endfacet
 facet normal  7.972403e-01  2.233763e-01  5.608127e-01
   outer loop
     vertex  4.080014e+01  3.370148e+01  5.173608e+01
     vertex  4.255191e+01  3.616478e+01  4.826465e+01
     vertex  3.977527e+01  3.735928e+01  5.173608e+01
   endloop
 endfacet
 facet normal  9.897650e-01 -1.201792e-01  7.695617e-02
   outer loop
     vertex  3.818585e+01  3.925862e+01  5.574578e+01
     vertex  3.831242e+01  4.302517e+01  6.000000e+01
     vertex  3.785508e+01  3.925862e+01  6.000000e+01
   endloop
 endfacet
 facet normal  9.866019e-01 -1.356053e-01  9.070805e-02
   outer loop
     vertex  3.818585e+01  3.925862e+01  5.574578e+01
     vertex  3.875723e+01  4.341567e+01  5.574578e+01
     vertex  3.831242e+01  4.302517e+01  6.000000e+01
   endloop
 endfacet
 facet normal  9.897650e-01  1.201792e-01  7.695617e-02
   outer loop
     vertex  3.818585e+01  3.925862e+01  5.574578e+01
     vertex  3.785508e+01  3.925862e+01  6.000000e+01
     vertex  3.831242e+01  3.549206e+01  6.000000e+01
   endloop
 endfacet
 facet normal  9.296278e-01  0.000000e+00  3.684998e-01
   outer loop
     vertex  3.818585e+01  3.925862e+01  5.574578e+01
     vertex  3.977527e+01  3.735928e+01  5.173608e+01
     vertex  3.977527e+01  4.115795e+01  5.173608e+01
   endloop
 endfacet
 facet normal  9.412859e-01 -1.293768e-01  3.118372e-01
   outer loop
     vertex  3.818585e+01  3.925862e+01  5.574578e+01
     vertex  3.977527e+01  4.115795e+01  5.173608e+01
     vertex  3.875723e+01  4.341567e+01  5.574578e+01
   endloop
 endfacet
 facet normal -2.778755e-02  1.337210e-01  9.906294e-01
   outer loop
     vertex  5.500975e+01  3.527492e+01  4.389570e+01
     vertex  5.359394e+01  3.925862e+01  4.331825e+01
     vertex  5.388246e+01  3.504066e+01  4.389570e+01
   endloop
 endfacet
 facet normal  2.680171e-02  3.918272e-01  9.196484e-01
   outer loop
     vertex  5.303805e+01  3.113170e+01  4.558577e+01
     vertex  5.388246e+01  3.504066e+01  4.389570e+01
     vertex  5.273377e+01  3.511924e+01  4.389570e+01
   endloop
 endfacet
 facet normal  8.191889e-02  3.942154e-01  9.153598e-01
   outer loop
     vertex  5.303805e+01  3.113170e+01  4.558577e+01
     vertex  5.273377e+01  3.511924e+01  4.389570e+01
     vertex  5.086605e+01  3.158305e+01  4.558577e+01
   endloop
 endfacet
 facet normal  2.848701e-01  5.497744e-01  7.852370e-01
   outer loop
     vertex  4.831825e+01  2.907700e+01  4.826465e+01
     vertex  5.086605e+01  3.158305e+01  4.558577e+01
     vertex  4.889636e+01  3.260366e+01  4.558577e+01
   endloop
 endfacet
 facet normal  3.691881e-01  5.230204e-01  7.682121e-01
   outer loop
     vertex  4.831825e+01  2.907700e+01  4.826465e+01
     vertex  4.889636e+01  3.260366e+01  4.558577e+01
     vertex  4.576692e+01  3.087793e+01  4.826465e+01
   endloop
 endfacet
 facet normal  6.218952e-01  5.059492e-01  5.977138e-01
   outer loop
     vertex  4.277387e+01  3.045583e+01  5.173608e+01
     vertex  4.576692e+01  3.087793e+01  4.826465e+01
     vertex  4.379609e+01  3.330041e+01  4.826465e+01
   endloop
 endfacet
 facet normal  7.074103e-01  4.301857e-01  5.608127e-01
   outer loop
     vertex  4.277387e+01  3.045583e+01  5.173608e+01
     vertex  4.379609e+01  3.330041e+01  4.826465e+01
     vertex  4.080014e+01  3.370148e+01  5.173608e+01
   endloop
 endfacet
 facet normal  9.330344e-01  3.538533e-01  6.507420e-02
   outer loop
     vertex  3.875723e+01  3.510156e+01  5.574578e+01
     vertex  3.831242e+01  3.549206e+01  6.000000e+01
     vertex  3.965787e+01  3.194440e+01  6.000000e+01
   endloop
 endfacet
 facet normal  9.866019e-01  1.356053e-01  9.070805e-02
   outer loop
     vertex  3.875723e+01  3.510156e+01  5.574578e+01
     vertex  3.818585e+01  3.925862e+01  5.574578e+01
     vertex  3.831242e+01  3.549206e+01  6.000000e+01
   endloop
 endfacet
 facet normal  8.951547e-01  2.508106e-01  3.684998e-01
   outer loop
     vertex  3.875723e+01  3.510156e+01  5.574578e+01
     vertex  4.080014e+01  3.370148e+01  5.173608e+01
     vertex  3.977527e+01  3.735928e+01  5.173608e+01
   endloop
 endfacet
 facet normal  9.412859e-01  1.293768e-01  3.118372e-01
   outer loop
     vertex  3.875723e+01  3.510156e+01  5.574578e+01
     vertex  3.977527e+01  3.735928e+01  5.173608e+01
     vertex  3.818585e+01  3.925862e+01  5.574578e+01
   endloop
 endfacet
 facet normal -6.283461e-02  1.212653e-01  9.906294e-01
   outer loop
     vertex  5.603204e+01  3.580462e+01  4.389570e+01
     vertex  5.359394e+01  3.925862e+01  4.331825e+01
     vertex  5.500975e+01  3.527492e+01  4.389570e+01
   endloop
 endfacet
 facet normal -7.990588e-02  3.845282e-01  9.196484e-01
   outer loop
     vertex  5.525128e+01  3.128309e+01  4.558577e+01
     vertex  5.500975e+01  3.527492e+01  4.389570e+01
     vertex  5.388246e+01  3.504066e+01  4.389570e+01
   endloop
 endfacet
 facet normal -2.747691e-02  4.016982e-01  9.153598e-01
   outer loop
     vertex  5.525128e+01  3.128309e+01  4.558577e+01
     vertex  5.388246e+01  3.504066e+01  4.389570e+01
     vertex  5.303805e+01  3.113170e+01  4.558577e+01
   endloop
 endfacet
 facet normal  2.143884e-01  6.032311e-01  7.682121e-01
   outer loop
     vertex  5.126086e+01  2.803120e+01  4.826465e+01
     vertex  5.086605e+01  3.158305e+01  4.558577e+01
     vertex  4.831825e+01  2.907700e+01  4.826465e+01
   endloop
 endfacet
 facet normal  1.259790e-01  6.062443e-01  7.852370e-01
   outer loop
     vertex  5.126086e+01  2.803120e+01  4.826465e+01
     vertex  5.303805e+01  3.113170e+01  4.558577e+01
     vertex  5.086605e+01  3.158305e+01  4.558577e+01
   endloop
 endfacet
 facet normal  5.651149e-01  6.050903e-01  5.608127e-01
   outer loop
     vertex  4.555007e+01  2.786304e+01  5.173608e+01
     vertex  4.576692e+01  3.087793e+01  4.826465e+01
     vertex  4.277387e+01  3.045583e+01  5.173608e+01
   endloop
 endfacet
 facet normal  4.623301e-01  6.549726e-01  5.977138e-01
   outer loop
     vertex  4.555007e+01  2.786304e+01  5.173608e+01
     vertex  4.831825e+01  2.907700e+01  4.826465e+01
     vertex  4.576692e+01  3.087793e+01  4.826465e+01
   endloop
 endfacet
 facet normal  7.942921e-01  4.830197e-01  3.684998e-01
   outer loop
     vertex  4.042897e+01  3.125282e+01  5.574578e+01
     vertex  4.277387e+01  3.045583e+01  5.173608e+01
     vertex  4.080014e+01  3.370148e+01  5.173608e+01
   endloop
 endfacet
 facet normal  8.216584e-01  5.671498e-01  5.673218e-02
   outer loop
     vertex  4.042897e+01  3.125282e+01  5.574578e+01
     vertex  3.965787e+01  3.194440e+01  6.000000e+01
     vertex  4.181323e+01  2.882182e+01  6.000000e+01
   endloop
 endfacet
 facet normal  8.714751e-01  3.785350e-01  3.118372e-01
   outer loop
     vertex  4.042897e+01  3.125282e+01  5.574578e+01
     vertex  4.080014e+01  3.370148e+01  5.173608e+01
     vertex  3.875723e+01  3.510156e+01  5.574578e+01
   endloop
 endfacet
 facet normal  9.125243e-01  3.963652e-01  1.009655e-01
   outer loop
     vertex  4.042897e+01  3.125282e+01  5.574578e+01
     vertex  3.875723e+01  3.510156e+01  5.574578e+01
     vertex  3.965787e+01  3.194440e+01  6.000000e+01
   endloop
 endfacet
 facet normal -9.322152e-02  9.981588e-02  9.906294e-01
   outer loop
     vertex  5.687350e+01  3.659050e+01  4.389570e+01
     vertex  5.359394e+01  3.925862e+01  4.331825e+01
     vertex  5.603204e+01  3.580462e+01  4.389570e+01
   endloop
 endfacet
 facet normal -1.348349e-01  3.793890e-01  9.153598e-01
   outer loop
     vertex  5.734159e+01  3.202599e+01  4.558577e+01
     vertex  5.500975e+01  3.527492e+01  4.389570e+01
     vertex  5.525128e+01  3.128309e+01  4.558577e+01
   endloop
 endfacet
 facet normal -1.806872e-01  3.487105e-01  9.196484e-01
   outer loop
     vertex  5.734159e+01  3.202599e+01  4.558577e+01
     vertex  5.603204e+01  3.580462e+01  4.389570e+01
     vertex  5.500975e+01  3.527492e+01  4.389570e+01
   endloop
 endfacet
 facet normal  4.368848e-02  6.387030e-01  7.682121e-01
   outer loop
     vertex  5.437650e+01  2.781808e+01  4.826465e+01
     vertex  5.303805e+01  3.113170e+01  4.558577e+01
     vertex  5.126086e+01  2.803120e+01  4.826465e+01
   endloop
 endfacet
 facet normal -4.225538e-02  6.177518e-01  7.852370e-01
   outer loop
     vertex  5.437650e+01  2.781808e+01  4.826465e+01
     vertex  5.525128e+01  3.128309e+01  4.558577e+01
     vertex  5.303805e+01  3.113170e+01  4.558577e+01
   endloop
 endfacet
 facet normal  3.809075e-01  7.351181e-01  5.608127e-01
   outer loop
     vertex  4.892285e+01  2.611541e+01  5.173608e+01
     vertex  4.831825e+01  2.907700e+01  4.826465e+01
     vertex  4.555007e+01  2.786304e+01  5.173608e+01
   endloop
 endfacet
 facet normal  2.684762e-01  7.554196e-01  5.977138e-01
   outer loop
     vertex  4.892285e+01  2.611541e+01  5.173608e+01
     vertex  5.126086e+01  2.803120e+01  4.826465e+01
     vertex  4.831825e+01  2.907700e+01  4.826465e+01
   endloop
 endfacet
 facet normal  7.712085e-01  6.274246e-01  1.075908e-01
   outer loop
     vertex  4.307710e+01  2.799783e+01  5.574578e+01
     vertex  4.042897e+01  3.125282e+01  5.574578e+01
     vertex  4.181323e+01  2.882182e+01  6.000000e+01
   endloop
 endfacet
 facet normal  6.622270e-01  7.474998e-01  5.195696e-02
   outer loop
     vertex  4.307710e+01  2.799783e+01  5.574578e+01
     vertex  4.181323e+01  2.882182e+01  6.000000e+01
     vertex  4.465325e+01  2.630578e+01  6.000000e+01
   endloop
 endfacet
 facet normal  6.345204e-01  6.794055e-01  3.684998e-01
   outer loop
     vertex  4.307710e+01  2.799783e+01  5.574578e+01
     vertex  4.555007e+01  2.786304e+01  5.173608e+01
     vertex  4.277387e+01  3.045583e+01  5.173608e+01
   endloop
 endfacet
 facet normal  7.370309e-01  5.996191e-01  3.118372e-01
   outer loop
     vertex  4.307710e+01  2.799783e+01  5.574578e+01
     vertex  4.277387e+01  3.045583e+01  5.173608e+01
     vertex  4.042897e+01  3.125282e+01  5.574578e+01
   endloop
 endfacet
 facet normal -1.166946e-01  7.096357e-02  9.906294e-01
   outer loop
     vertex  5.747174e+01  3.757425e+01  4.389570e+01
     vertex  5.359394e+01  3.925862e+01  4.331825e+01
     vertex  5.687350e+01  3.659050e+01  4.389570e+01
   endloop
 endfacet
 facet normal -2.680678e-01  2.870305e-01  9.196484e-01
   outer loop
     vertex  5.915396e+01  3.330530e+01  4.558577e+01
     vertex  5.687350e+01  3.659050e+01  4.389570e+01
     vertex  5.603204e+01  3.580462e+01  4.389570e+01
   endloop
 endfacet
 facet normal -2.321928e-01  3.289422e-01  9.153598e-01
   outer loop
     vertex  5.915396e+01  3.330530e+01  4.558577e+01
     vertex  5.603204e+01  3.580462e+01  4.389570e+01
     vertex  5.734159e+01  3.202599e+01  4.558577e+01
   endloop
 endfacet
 facet normal -2.073559e-01  5.834436e-01  7.852370e-01
   outer loop
     vertex  5.743410e+01  2.845346e+01  4.826465e+01
     vertex  5.734159e+01  3.202599e+01  4.558577e+01
     vertex  5.525128e+01  3.128309e+01  4.558577e+01
   endloop
 endfacet
 facet normal -1.302516e-01  6.268051e-01  7.682121e-01
   outer loop
     vertex  5.743410e+01  2.845346e+01  4.826465e+01
     vertex  5.525128e+01  3.128309e+01  4.558577e+01
     vertex  5.437650e+01  2.781808e+01  4.826465e+01
   endloop
 endfacet
 facet normal  1.684499e-01  8.106255e-01  5.608127e-01
   outer loop
     vertex  5.264206e+01  2.534255e+01  5.173608e+01
     vertex  5.126086e+01  2.803120e+01  4.826465e+01
     vertex  4.892285e+01  2.611541e+01  5.173608e+01
   endloop
 endfacet
 facet normal  5.471060e-02  7.998406e-01  5.977138e-01
   outer loop
     vertex  5.264206e+01  2.534255e+01  5.173608e+01
     vertex  5.437650e+01  2.781808e+01  4.826465e+01
     vertex  5.126086e+01  2.803120e+01  4.826465e+01
   endloop
 endfacet
 facet normal  4.641240e-01  8.843145e-01  5.076226e-02
   outer loop
     vertex  4.650522e+01  2.557800e+01  5.574578e+01
     vertex  4.465325e+01  2.630578e+01  6.000000e+01
     vertex  4.801286e+01  2.454252e+01  6.000000e+01
   endloop
 endfacet
 facet normal  4.276893e-01  8.254028e-01  3.684998e-01
   outer loop
     vertex  4.650522e+01  2.557800e+01  5.574578e+01
     vertex  4.892285e+01  2.611541e+01  5.173608e+01
     vertex  4.555007e+01  2.786304e+01  5.173608e+01
   endloop
 endfacet
 facet normal  5.479245e-01  7.762321e-01  3.118372e-01
   outer loop
     vertex  4.650522e+01  2.557800e+01  5.574578e+01
     vertex  4.555007e+01  2.786304e+01  5.173608e+01
     vertex  4.307710e+01  2.799783e+01  5.574578e+01
   endloop
 endfacet
 facet normal  5.731425e-01  8.119579e-01  1.105990e-01
   outer loop
     vertex  4.650522e+01  2.557800e+01  5.574578e+01
     vertex  4.307710e+01  2.799783e+01  5.574578e+01
     vertex  4.465325e+01  2.630578e+01  6.000000e+01
   endloop
 endfacet
 facet normal -1.315130e-01  3.684822e-02  9.906294e-01
   outer loop
     vertex  5.778237e+01  3.868293e+01  4.389570e+01
     vertex  5.359394e+01  3.925862e+01  4.331825e+01
     vertex  5.747174e+01  3.757425e+01  4.389570e+01
   endloop
 endfacet
 facet normal -1.147783e-01  1.499545e-01  9.820079e-01
   outer loop
     vertex  5.778237e+01  3.868293e+01  4.389570e+01
     vertex  5.722966e+01  3.925862e+01  4.374319e+01
     vertex  5.359394e+01  3.925862e+01  4.331825e+01
   endloop
 endfacet
 facet normal -3.409409e-01 -7.917420e-02  9.367448e-01
   outer loop
     vertex  5.778237e+01  3.868293e+01  4.389570e+01
     vertex  6.066938e+01  3.925862e+01  4.499513e+01
     vertex  5.722966e+01  3.925862e+01  4.374319e+01
   endloop
 endfacet
 facet normal -3.355670e-01  2.040628e-01  9.196484e-01
   outer loop
     vertex  6.055396e+01  3.502614e+01  4.558577e+01
     vertex  5.747174e+01  3.757425e+01  4.389570e+01
     vertex  5.687350e+01  3.659050e+01  4.389570e+01
   endloop
 endfacet
 facet normal -3.123300e-01  2.540993e-01  9.153598e-01
   outer loop
     vertex  6.055396e+01  3.502614e+01  4.558577e+01
     vertex  5.687350e+01  3.659050e+01  4.389570e+01
     vertex  5.915396e+01  3.330530e+01  4.558577e+01
   endloop
 endfacet
 facet normal -2.945315e-01  5.684200e-01  7.682121e-01
   outer loop
     vertex  6.020689e+01  2.989020e+01  4.826465e+01
     vertex  5.734159e+01  3.202599e+01  4.558577e+01
     vertex  5.743410e+01  2.845346e+01  4.826465e+01
   endloop
 endfacet
 facet normal -3.570778e-01  5.058639e-01  7.852370e-01
   outer loop
     vertex  6.020689e+01  2.989020e+01  4.826465e+01
     vertex  5.915396e+01  3.330530e+01  4.558577e+01
     vertex  5.734159e+01  3.202599e+01  4.558577e+01
   endloop
 endfacet
 facet normal -1.631126e-01  7.849411e-01  5.977138e-01
   outer loop
     vertex  5.643187e+01  2.560178e+01  5.173608e+01
     vertex  5.743410e+01  2.845346e+01  4.826465e+01
     vertex  5.437650e+01  2.781808e+01  4.826465e+01
   endloop
 endfacet
 facet normal -5.650081e-02  8.260126e-01  5.608127e-01
   outer loop
     vertex  5.643187e+01  2.560178e+01  5.173608e+01
     vertex  5.437650e+01  2.781808e+01  4.826465e+01
     vertex  5.264206e+01  2.534255e+01  5.173608e+01
   endloop
 endfacet
 facet normal  2.389774e-01  9.695694e-01  5.315131e-02
   outer loop
     vertex  5.045907e+01  2.417280e+01  5.574578e+01
     vertex  4.801286e+01  2.454252e+01  6.000000e+01
     vertex  5.169683e+01  2.363451e+01  6.000000e+01
   endloop
 endfacet
 facet normal  3.328475e-01  9.365431e-01  1.099976e-01
   outer loop
     vertex  5.045907e+01  2.417280e+01  5.574578e+01
     vertex  4.650522e+01  2.557800e+01  5.574578e+01
     vertex  4.801286e+01  2.454252e+01  6.000000e+01
   endloop
 endfacet
 facet normal  1.891384e-01  9.101838e-01  3.684998e-01
   outer loop
     vertex  5.045907e+01  2.417280e+01  5.574578e+01
     vertex  5.264206e+01  2.534255e+01  5.173608e+01
     vertex  4.892285e+01  2.611541e+01  5.173608e+01
   endloop
 endfacet
 facet normal  3.181810e-01  8.952756e-01  3.118372e-01
   outer loop
     vertex  5.045907e+01  2.417280e+01  5.574578e+01
     vertex  4.892285e+01  2.611541e+01  5.173608e+01
     vertex  4.650522e+01  2.557800e+01  5.574578e+01
   endloop
 endfacet
 facet normal -5.492121e-01  3.240166e-02  8.350546e-01
   outer loop
     vertex  6.143777e+01  3.706088e+01  4.558577e+01
     vertex  6.372767e+01  3.925862e+01  4.700655e+01
     vertex  6.066938e+01  3.925862e+01  4.499513e+01
   endloop
 endfacet
 facet normal -3.781788e-01  1.059607e-01  9.196484e-01
   outer loop
     vertex  6.143777e+01  3.706088e+01  4.558577e+01
     vertex  5.778237e+01  3.868293e+01  4.389570e+01
     vertex  5.747174e+01  3.757425e+01  4.389570e+01
   endloop
 endfacet
 facet normal -3.693031e-01  1.604110e-01  9.153598e-01
   outer loop
     vertex  6.143777e+01  3.706088e+01  4.558577e+01
     vertex  5.747174e+01  3.757425e+01  4.389570e+01
     vertex  6.055396e+01  3.502614e+01  4.558577e+01
   endloop
 endfacet
 facet normal -3.736857e-01  1.166516e-01  9.201910e-01
   outer loop
     vertex  6.143777e+01  3.706088e+01  4.558577e+01
     vertex  6.066938e+01  3.925862e+01  4.499513e+01
     vertex  5.778237e+01  3.868293e+01  4.389570e+01
   endloop
 endfacet
 facet normal -4.803168e-01  3.907667e-01  7.852370e-01
   outer loop
     vertex  6.248923e+01  3.202176e+01  4.826465e+01
     vertex  6.055396e+01  3.502614e+01  4.558577e+01
     vertex  5.915396e+01  3.330530e+01  4.558577e+01
   endloop
 endfacet
 facet normal -4.369674e-01  4.678778e-01  7.682121e-01
   outer loop
     vertex  6.248923e+01  3.202176e+01  4.826465e+01
     vertex  5.915396e+01  3.330530e+01  4.558577e+01
     vertex  6.020689e+01  2.989020e+01  4.826465e+01
   endloop
 endfacet
 facet normal -3.688385e-01  7.118261e-01  5.977138e-01
   outer loop
     vertex  6.001120e+01  2.687387e+01  5.173608e+01
     vertex  6.020689e+01  2.989020e+01  4.826465e+01
     vertex  5.743410e+01  2.845346e+01  4.826465e+01
   endloop
 endfacet
 facet normal -2.772611e-01  7.801381e-01  5.608127e-01
   outer loop
     vertex  6.001120e+01  2.687387e+01  5.173608e+01
     vertex  5.743410e+01  2.845346e+01  4.826465e+01
     vertex  5.643187e+01  2.560178e+01  5.173608e+01
   endloop
 endfacet
 facet normal  1.867567e-15  9.982510e-01  5.911757e-02
   outer loop
     vertex  5.464543e+01  2.388645e+01  5.574578e+01
     vertex  5.169683e+01  2.363451e+01  6.000000e+01
     vertex  5.549105e+01  2.363451e+01  6.000000e+01
   endloop
 endfacet
 facet normal  6.785951e-02  9.920709e-01  1.057849e-01
   outer loop
     vertex  5.464543e+01  2.388645e+01  5.574578e+01
     vertex  5.045907e+01  2.417280e+01  5.574578e+01
     vertex  5.169683e+01  2.363451e+01  6.000000e+01
   endloop
 endfacet
 facet normal -6.344005e-02  9.274607e-01  3.684998e-01
   outer loop
     vertex  5.464543e+01  2.388645e+01  5.574578e+01
     vertex  5.643187e+01  2.560178e+01  5.173608e+01
     vertex  5.264206e+01  2.534255e+01  5.173608e+01
   endloop
 endfacet
 facet normal  6.483954e-02  9.479206e-01  3.118372e-01
   outer loop
     vertex  5.464543e+01  2.388645e+01  5.574578e+01
     vertex  5.264206e+01  2.534255e+01  5.173608e+01
     vertex  5.045907e+01  2.417280e+01  5.574578e+01
   endloop
 endfacet
 facet normal -5.679329e-01  2.466881e-01  7.852370e-01
   outer loop
     vertex  6.411185e+01  3.469004e+01  4.826465e+01
     vertex  6.143777e+01  3.706088e+01  4.558577e+01
     vertex  6.055396e+01  3.502614e+01  4.558577e+01
   endloop
 endfacet
 facet normal -5.469954e-01  3.326353e-01  7.682121e-01
   outer loop
     vertex  6.411185e+01  3.469004e+01  4.826465e+01
     vertex  6.055396e+01  3.502614e+01  4.558577e+01
     vertex  6.248923e+01  3.202176e+01  4.826465e+01
   endloop
 endfacet
 facet normal -4.774583e-01  6.764043e-01  5.608127e-01
   outer loop
     vertex  6.311459e+01  2.906449e+01  5.173608e+01
     vertex  6.020689e+01  2.989020e+01  4.826465e+01
     vertex  6.001120e+01  2.687387e+01  5.173608e+01
   endloop
 endfacet
 facet normal -5.472094e-01  5.859182e-01  5.977138e-01
   outer loop
     vertex  6.311459e+01  2.906449e+01  5.173608e+01
     vertex  6.248923e+01  3.202176e+01  4.826465e+01
     vertex  6.020689e+01  2.989020e+01  4.826465e+01
   endloop
 endfacet
 facet normal -2.387512e-01  9.686516e-01  6.864331e-02
   outer loop
     vertex  5.875380e+01  2.474017e+01  5.574578e+01
     vertex  5.549105e+01  2.363451e+01  6.000000e+01
     vertex  5.917502e+01  2.454252e+01  6.000000e+01
   endloop
 endfacet
 facet normal -2.024776e-01  9.743759e-01  9.795078e-02
   outer loop
     vertex  5.875380e+01  2.474017e+01  5.574578e+01
     vertex  5.464543e+01  2.388645e+01  5.574578e+01
     vertex  5.549105e+01  2.363451e+01  6.000000e+01
   endloop
 endfacet
 facet normal -3.113134e-01  8.759520e-01  3.684998e-01
   outer loop
     vertex  5.875380e+01  2.474017e+01  5.574578e+01
     vertex  6.001120e+01  2.687387e+01  5.173608e+01
     vertex  5.643187e+01  2.560178e+01  5.173608e+01
   endloop
 endfacet
 facet normal -1.933108e-01  9.302626e-01  3.118372e-01
   outer loop
     vertex  5.875380e+01  2.474017e+01  5.574578e+01
     vertex  5.643187e+01  2.560178e+01  5.173608e+01
     vertex  5.464543e+01  2.388645e+01  5.574578e+01
   endloop
 endfacet
 facet normal -7.272394e-01 -1.851138e-02  6.861342e-01
   outer loop
     vertex  6.495440e+01  3.769716e+01  4.826465e+01
     vertex  6.623967e+01  3.925862e+01  4.966904e+01
     vertex  6.372767e+01  3.925862e+01  4.700655e+01
   endloop
 endfacet
 facet normal -6.159316e-01  1.406507e-01  7.751424e-01
   outer loop
     vertex  6.495440e+01  3.769716e+01  4.826465e+01
     vertex  6.372767e+01  3.925862e+01  4.700655e+01
     vertex  6.143777e+01  3.706088e+01  4.558577e+01
   endloop
 endfacet
 facet normal -6.164552e-01  1.727227e-01  7.682121e-01
   outer loop
     vertex  6.495440e+01  3.769716e+01  4.826465e+01
     vertex  6.143777e+01  3.706088e+01  4.558577e+01
     vertex  6.411185e+01  3.469004e+01  4.826465e+01
   endloop
 endfacet
 facet normal -6.849962e-01  4.165554e-01  5.977138e-01
   outer loop
     vertex  6.551188e+01  3.201115e+01  5.173608e+01
     vertex  6.411185e+01  3.469004e+01  4.826465e+01
     vertex  6.248923e+01  3.202176e+01  4.826465e+01
   endloop
 endfacet
 facet normal -6.422445e-01  5.225047e-01  5.608127e-01
   outer loop
     vertex  6.551188e+01  3.201115e+01  5.173608e+01
     vertex  6.248923e+01  3.202176e+01  4.826465e+01
     vertex  6.311459e+01  2.906449e+01  5.173608e+01
   endloop
 endfacet
 facet normal -4.631697e-01  8.824962e-01  8.169641e-02
   outer loop
     vertex  6.247949e+01  2.667067e+01  5.574578e+01
     vertex  5.917502e+01  2.454252e+01  6.000000e+01
     vertex  6.253464e+01  2.630578e+01  6.000000e+01
   endloop
 endfacet
 facet normal -6.613726e-01  7.465353e-01  7.260451e-02
   outer loop
     vertex  6.247949e+01  2.667067e+01  5.574578e+01
     vertex  6.253464e+01  2.630578e+01  6.000000e+01
     vertex  6.537465e+01  2.882182e+01  6.000000e+01
   endloop
 endfacet
 facet normal -4.583415e-01  8.845589e-01  8.647862e-02
   outer loop
     vertex  6.247949e+01  2.667067e+01  5.574578e+01
     vertex  5.875380e+01  2.474017e+01  5.574578e+01
     vertex  5.917502e+01  2.454252e+01  6.000000e+01
   endloop
 endfacet
 facet normal -5.360981e-01  7.594780e-01  3.684998e-01
   outer loop
     vertex  6.247949e+01  2.667067e+01  5.574578e+01
     vertex  6.311459e+01  2.906449e+01  5.173608e+01
     vertex  6.001120e+01  2.687387e+01  5.173608e+01
   endloop
 endfacet
 facet normal -4.371242e-01  8.436113e-01  3.118372e-01
   outer loop
     vertex  6.247949e+01  2.667067e+01  5.574578e+01
     vertex  6.001120e+01  2.687387e+01  5.173608e+01
     vertex  5.875380e+01  2.474017e+01  5.574578e+01
   endloop
 endfacet
 facet normal -8.622271e-01  9.344543e-02  4.978277e-01
   outer loop
     vertex  6.702528e+01  3.549533e+01  5.173608e+01
     vertex  6.806996e+01  3.925862e+01  5.283907e+01
     vertex  6.623967e+01  3.925862e+01  4.966904e+01
   endloop
 endfacet
 facet normal -8.056519e-01  1.470157e-01  5.738566e-01
   outer loop
     vertex  6.702528e+01  3.549533e+01  5.173608e+01
     vertex  6.623967e+01  3.925862e+01  4.966904e+01
     vertex  6.495440e+01  3.769716e+01  4.826465e+01
   endloop
 endfacet
 facet normal -7.593984e-01  3.298533e-01  5.608127e-01
   outer loop
     vertex  6.702528e+01  3.549533e+01  5.173608e+01
     vertex  6.411185e+01  3.469004e+01  4.826465e+01
     vertex  6.551188e+01  3.201115e+01  5.173608e+01
   endloop
 endfacet
 facet normal -7.719800e-01  2.162987e-01  5.977138e-01
   outer loop
     vertex  6.702528e+01  3.549533e+01  5.173608e+01
     vertex  6.495440e+01  3.769716e+01  4.826465e+01
     vertex  6.411185e+01  3.469004e+01  4.826465e+01
   endloop
 endfacet
 facet normal -6.485180e-01  6.943932e-01  3.118372e-01
   outer loop
     vertex  6.554617e+01  2.953476e+01  5.574578e+01
     vertex  6.311459e+01  2.906449e+01  5.173608e+01
     vertex  6.247949e+01  2.667067e+01  5.574578e+01
   endloop
 endfacet
 facet normal -8.214057e-01  5.669755e-01  6.189856e-02
   outer loop
     vertex  6.554617e+01  2.953476e+01  5.574578e+01
     vertex  6.537465e+01  2.882182e+01  6.000000e+01
     vertex  6.753002e+01  3.194440e+01  6.000000e+01
   endloop
 endfacet
 facet normal -6.794966e-01  7.275632e-01  9.453187e-02
   outer loop
     vertex  6.554617e+01  2.953476e+01  5.574578e+01
     vertex  6.247949e+01  2.667067e+01  5.574578e+01
     vertex  6.537465e+01  2.882182e+01  6.000000e+01
   endloop
 endfacet
 facet normal -7.211228e-01  5.866769e-01  3.684998e-01
   outer loop
     vertex  6.554617e+01  2.953476e+01  5.574578e+01
     vertex  6.551188e+01  3.201115e+01  5.173608e+01
     vertex  6.311459e+01  2.906449e+01  5.173608e+01
   endloop
 endfacet
 facet normal -8.526652e-01  3.703647e-01  3.684998e-01
   outer loop
     vertex  6.772642e+01  3.312002e+01  5.574578e+01
     vertex  6.702528e+01  3.549533e+01  5.173608e+01
     vertex  6.551188e+01  3.201115e+01  5.173608e+01
   endloop
 endfacet
 facet normal -8.498239e-01  5.167894e-01  1.035766e-01
   outer loop
     vertex  6.772642e+01  3.312002e+01  5.574578e+01
     vertex  6.554617e+01  2.953476e+01  5.574578e+01
     vertex  6.753002e+01  3.194440e+01  6.000000e+01
   endloop
 endfacet
 facet normal -9.336142e-01  3.540731e-01  5.474322e-02
   outer loop
     vertex  6.772642e+01  3.312002e+01  5.574578e+01
     vertex  6.753002e+01  3.194440e+01  6.000000e+01
     vertex  6.887546e+01  3.549206e+01  6.000000e+01
   endloop
 endfacet
 facet normal -8.118143e-01  4.936752e-01  3.118372e-01
   outer loop
     vertex  6.772642e+01  3.312002e+01  5.574578e+01
     vertex  6.551188e+01  3.201115e+01  5.173608e+01
     vertex  6.554617e+01  2.953476e+01  5.574578e+01
   endloop
 endfacet
 facet normal -9.149020e-01  2.563435e-01  3.118372e-01
   outer loop
     vertex  6.885852e+01  3.716055e+01  5.574578e+01
     vertex  6.702528e+01  3.549533e+01  5.173608e+01
     vertex  6.772642e+01  3.312002e+01  5.574578e+01
   endloop
 endfacet
 facet normal -9.571805e-01  2.681894e-01  1.089949e-01
   outer loop
     vertex  6.885852e+01  3.716055e+01  5.574578e+01
     vertex  6.772642e+01  3.312002e+01  5.574578e+01
     vertex  6.887546e+01  3.549206e+01  6.000000e+01
   endloop
 endfacet
 facet normal -9.927915e-01  1.101830e-01  4.716729e-02
   outer loop
     vertex  6.885852e+01  3.716055e+01  5.574578e+01
     vertex  6.887546e+01  3.549206e+01  6.000000e+01
     vertex  6.911988e+01  3.925862e+01  5.634573e+01
   endloop
 endfacet
 facet normal -9.573169e-01  3.728980e-02  2.866248e-01
   outer loop
     vertex  6.885852e+01  3.716055e+01  5.574578e+01
     vertex  6.911988e+01  3.925862e+01  5.634573e+01
     vertex  6.806996e+01  3.925862e+01  5.283907e+01
   endloop
 endfacet
 facet normal -9.212431e-01  1.506224e-01  3.586420e-01
   outer loop
     vertex  6.885852e+01  3.716055e+01  5.574578e+01
     vertex  6.806996e+01  3.925862e+01  5.283907e+01
     vertex  6.702528e+01  3.549533e+01  5.173608e+01
   endloop
 endfacet
endsolid
