solid 
 facet normal -1.000000e+00  0.000000e+00  0.000000e+00
   outer loop
     vertex  0.000000e+00  0.000000e+00  6.000000e+01
     vertex  0.000000e+00  9.951596e+01  0.000000e+00
     vertex  0.000000e+00  0.000000e+00  0.000000e+00
   endloop
 endfacet
 facet normal -1.000000e+00  0.000000e+00  0.000000e+00
   outer loop
     vertex  0.000000e+00  0.000000e+00  6.000000e+01
     vertex  0.000000e+00  9.951596e+01  6.000000e+01
     vertex  0.000000e+00  9.951596e+01  0.000000e+00
   endloop
 endfacet
 facet normal  0.000000e+00 -1.000000e+00 -0.000000e+00
   outer loop
     vertex  1.282483e+02  0.000000e+00  6.000000e+01
     vertex  0.000000e+00  0.000000e+00  0.000000e+00
     vertex  1.282483e+02  0.000000e+00  0.000000e+00
   endloop
 endfacet
 facet normal -0.000000e+00 -1.000000e+00  0.000000e+00
   outer loop
     vertex  1.282483e+02  0.000000e+00  6.000000e+01
     vertex  0.000000e+00  0.000000e+00  6.000000e+01
     vertex  0.000000e+00  0.000000e+00  0.000000e+00
   endloop
 endfacet
 facet normal  0.000000e+00  0.000000e+00  1.000000e+00
   outer loop
     vertex  7.816340e+01  6.848043e+01  6.000000e+01
     vertex  7.626540e+01  7.016191e+01  6.000000e+01
     vertex  0.000000e+00  0.000000e+00  6.000000e+01
   endloop
 endfacet
 facet normal  0.000000e+00  0.000000e+00  1.000000e+00
   outer loop
     vertex  7.482496e+01  7.224874e+01  6.000000e+01
     vertex  0.000000e+00  9.951596e+01  6.000000e+01
     vertex  0.000000e+00  0.000000e+00  6.000000e+01
   endloop
 endfacet
 facet normal  0.000000e+00  0.000000e+00  1.000000e+00
   outer loop
     vertex  7.482496e+01  7.224874e+01  6.000000e+01
     vertex  0.000000e+00  0.000000e+00  6.000000e+01
     vertex  7.626540e+01  7.016191e+01  6.000000e+01
   endloop
 endfacet
 facet normal  0.000000e+00  0.000000e+00  1.000000e+00
   outer loop
     vertex  8.040864e+01  6.730203e+01  6.000000e+01
     vertex  0.000000e+00  0.000000e+00  6.000000e+01
     vertex  1.282483e+02  0.000000e+00  6.000000e+01
   endloop
 endfacet
 facet normal  0.000000e+00  0.000000e+00  1.000000e+00
   outer loop
     vertex  8.040864e+01  6.730203e+01  6.000000e+01
     vertex  7.816340e+01  6.848043e+01  6.000000e+01
     vertex  0.000000e+00  0.000000e+00  6.000000e+01
   endloop
 endfacet
 facet normal  0.000000e+00  0.000000e+00  1.000000e+00
   outer loop
     vertex  7.392579e+01  7.461966e+01  6.000000e+01
     vertex  0.000000e+00  9.951596e+01  6.000000e+01
     vertex  7.482496e+01  7.224874e+01  6.000000e+01
   endloop
 endfacet
 facet normal  0.000000e+00  0.000000e+00  1.000000e+00
   outer loop
     vertex  8.287066e+01  6.669520e+01  6.000000e+01
     vertex  8.040864e+01  6.730203e+01  6.000000e+01
     vertex  1.282483e+02  0.000000e+00  6.000000e+01
   endloop
 endfacet
 facet normal  0.000000e+00  0.000000e+00  1.000000e+00
   outer loop
     vertex  7.362015e+01  7.713687e+01  6.000000e+01
     vertex  0.000000e+00  9.951596e+01  6.000000e+01
     vertex  7.392579e+01  7.461966e+01  6.000000e+01
   endloop
 endfacet
 facet normal  0.000000e+00  0.000000e+00  1.000000e+00
   outer loop
     vertex  8.540635e+01  6.669520e+01  6.000000e+01
     vertex  8.287066e+01  6.669520e+01  6.000000e+01
     vertex  1.282483e+02  0.000000e+00  6.000000e+01
   endloop
 endfacet
 facet normal  0.000000e+00  0.000000e+00  1.000000e+00
   outer loop
     vertex  7.392579e+01  7.965408e+01  6.000000e+01
     vertex  0.000000e+00  9.951596e+01  6.000000e+01
     vertex  7.362015e+01  7.713687e+01  6.000000e+01
   endloop
 endfacet
 facet normal  0.000000e+00  0.000000e+00  1.000000e+00
   outer loop
     vertex  8.786837e+01  6.730203e+01  6.000000e+01
     vertex  8.540635e+01  6.669520e+01  6.000000e+01
     vertex  1.282483e+02  0.000000e+00  6.000000e+01
   endloop
 endfacet
 facet normal  0.000000e+00  0.000000e+00  1.000000e+00
   outer loop
     vertex  7.482496e+01  8.202499e+01  6.000000e+01
     vertex  0.000000e+00  9.951596e+01  6.000000e+01
     vertex  7.392579e+01  7.965408e+01  6.000000e+01
   endloop
 endfacet
 facet normal  0.000000e+00  0.000000e+00  1.000000e+00
   outer loop
     vertex  9.011361e+01  6.848043e+01  6.000000e+01
     vertex  8.786837e+01  6.730203e+01  6.000000e+01
     vertex  1.282483e+02  0.000000e+00  6.000000e+01
   endloop
 endfacet
 facet normal  0.000000e+00  0.000000e+00  1.000000e+00
   outer loop
     vertex  7.626540e+01  8.411183e+01  6.000000e+01
     vertex  0.000000e+00  9.951596e+01  6.000000e+01
     vertex  7.482496e+01  8.202499e+01  6.000000e+01
   endloop
 endfacet
 facet normal  0.000000e+00  0.000000e+00  1.000000e+00
   outer loop
     vertex  9.201161e+01  7.016191e+01  6.000000e+01
     vertex  9.011361e+01  6.848043e+01  6.000000e+01
     vertex  1.282483e+02  0.000000e+00  6.000000e+01
   endloop
 endfacet
 facet normal  0.000000e+00  0.000000e+00  1.000000e+00
   outer loop
     vertex  7.816340e+01  8.579331e+01  6.000000e+01
     vertex  0.000000e+00  9.951596e+01  6.000000e+01
     vertex  7.626540e+01  8.411183e+01  6.000000e+01
   endloop
 endfacet
 facet normal  0.000000e+00  0.000000e+00  1.000000e+00
   outer loop
     vertex  9.345205e+01  7.224874e+01  6.000000e+01
     vertex  9.201161e+01  7.016191e+01  6.000000e+01
     vertex  1.282483e+02  0.000000e+00  6.000000e+01
   endloop
 endfacet
 facet normal  0.000000e+00  0.000000e+00  1.000000e+00
   outer loop
     vertex  8.040864e+01  8.697170e+01  6.000000e+01
     vertex  0.000000e+00  9.951596e+01  6.000000e+01
     vertex  7.816340e+01  8.579331e+01  6.000000e+01
   endloop
 endfacet
 facet normal  3.088232e-15 -5.270504e-15  1.000000e+00
   outer loop
     vertex  1.282483e+02  9.951596e+01  6.000000e+01
     vertex  9.435122e+01  7.965408e+01  6.000000e+01
     vertex  9.465686e+01  7.713687e+01  6.000000e+01
   endloop
 endfacet
 facet normal  0.000000e+00  0.000000e+00  1.000000e+00
   outer loop
     vertex  1.282483e+02  9.951596e+01  6.000000e+01
     vertex  9.345205e+01  8.202499e+01  6.000000e+01
     vertex  9.435122e+01  7.965408e+01  6.000000e+01
   endloop
 endfacet
 facet normal  0.000000e+00  0.000000e+00  1.000000e+00
   outer loop
     vertex  1.282483e+02  9.951596e+01  6.000000e+01
     vertex  9.201161e+01  8.411183e+01  6.000000e+01
     vertex  9.345205e+01  8.202499e+01  6.000000e+01
   endloop
 endfacet
 facet normal  0.000000e+00  0.000000e+00  1.000000e+00
   outer loop
     vertex  1.282483e+02  9.951596e+01  6.000000e+01
     vertex  9.011361e+01  8.579331e+01  6.000000e+01
     vertex  9.201161e+01  8.411183e+01  6.000000e+01
   endloop
 endfacet
 facet normal  0.000000e+00  0.000000e+00  1.000000e+00
   outer loop
     vertex  1.282483e+02  9.951596e+01  6.000000e+01
     vertex  8.786837e+01  8.697170e+01  6.000000e+01
     vertex  9.011361e+01  8.579331e+01  6.000000e+01
   endloop
 endfacet
 facet normal  0.000000e+00  0.000000e+00  1.000000e+00
   outer loop
     vertex  1.282483e+02  9.951596e+01  6.000000e+01
     vertex  8.540635e+01  8.757854e+01  6.000000e+01
     vertex  8.786837e+01  8.697170e+01  6.000000e+01
   endloop
 endfacet
 facet normal  0.000000e+00  0.000000e+00  1.000000e+00
   outer loop
     vertex  1.282483e+02  9.951596e+01  6.000000e+01
     vertex  9.435122e+01  7.461966e+01  6.000000e+01
     vertex  9.345205e+01  7.224874e+01  6.000000e+01
   endloop
 endfacet
 facet normal -4.552406e-15  6.198245e-15  1.000000e+00
   outer loop
     vertex  1.282483e+02  9.951596e+01  6.000000e+01
     vertex  9.465686e+01  7.713687e+01  6.000000e+01
     vertex  9.435122e+01  7.461966e+01  6.000000e+01
   endloop
 endfacet
 facet normal  0.000000e+00  0.000000e+00  1.000000e+00
   outer loop
     vertex  1.282483e+02  9.951596e+01  6.000000e+01
     vertex  9.345205e+01  7.224874e+01  6.000000e+01
     vertex  1.282483e+02  0.000000e+00  6.000000e+01
   endloop
 endfacet
 facet normal  0.000000e+00  0.000000e+00  1.000000e+00
   outer loop
     vertex  1.282483e+02  9.951596e+01  6.000000e+01
     vertex  0.000000e+00  9.951596e+01  6.000000e+01
     vertex  8.287066e+01  8.757854e+01  6.000000e+01
   endloop
 endfacet
 facet normal  0.000000e+00  0.000000e+00  1.000000e+00
   outer loop
     vertex  8.287066e+01  8.757854e+01  6.000000e+01
     vertex  0.000000e+00  9.951596e+01  6.000000e+01
     vertex  8.040864e+01  8.697170e+01  6.000000e+01
   endloop
 endfacet
 facet normal  0.000000e+00  0.000000e+00  1.000000e+00
   outer loop
     vertex  1.282483e+02  9.951596e+01  6.000000e+01
     vertex  8.287066e+01  8.757854e+01  6.000000e+01
     vertex  8.540635e+01  8.757854e+01  6.000000e+01
   endloop
 endfacet
 facet normal  0.000000e+00  1.000000e+00  0.000000e+00
   outer loop
     vertex  1.282483e+02  9.951596e+01  6.000000e+01
     vertex  1.282483e+02  9.951596e+01  0.000000e+00
     vertex  0.000000e+00  9.951596e+01  0.000000e+00
   endloop
 endfacet
 facet normal  0.000000e+00  1.000000e+00  0.000000e+00
   outer loop
     vertex  1.282483e+02  9.951596e+01  6.000000e+01
     vertex  0.000000e+00  9.951596e+01  0.000000e+00
     vertex  0.000000e+00  9.951596e+01  6.000000e+01
   endloop
 endfacet
 facet normal  0.000000e+00  0.000000e+00 -1.000000e+00
   outer loop
     vertex  1.282483e+02  0.000000e+00  0.000000e+00
     vertex  0.000000e+00  0.000000e+00  0.000000e+00
     vertex  0.000000e+00  9.951596e+01  0.000000e+00
   endloop
 endfacet
 facet normal -0.000000e+00 -0.000000e+00 -1.000000e+00
   outer loop
     vertex  1.282483e+02  9.951596e+01  0.000000e+00
     vertex  1.282483e+02  0.000000e+00  0.000000e+00
     vertex  0.000000e+00  9.951596e+01  0.000000e+00
   endloop
 endfacet
 facet normal  1.000000e+00  0.000000e+00  0.000000e+00
   outer loop
     vertex  1.282483e+02  0.000000e+00  6.000000e+01
     vertex  1.282483e+02  0.000000e+00  0.000000e+00
     vertex  1.282483e+02  9.951596e+01  0.000000e+00
   endloop
 endfacet
 facet normal  1.000000e+00 -0.000000e+00  0.000000e+00
   outer loop
     vertex  1.282483e+02  0.000000e+00  6.000000e+01
     vertex  1.282483e+02  9.951596e+01  0.000000e+00
     vertex  1.282483e+02  9.951596e+01  6.000000e+01
   endloop
 endfacet
 facet normal -9.888146e-01 -1.200638e-01  8.848967e-02
   outer loop
     vertex  9.435122e+01  7.965408e+01  6.000000e+01
     vertex  9.444357e+01  7.713687e+01  5.761653e+01
     vertex  9.465686e+01  7.713687e+01  6.000000e+01
   endloop
 endfacet
 facet normal -9.888146e-01  1.200638e-01  8.848967e-02
   outer loop
     vertex  9.465686e+01  7.713687e+01  6.000000e+01
     vertex  9.444357e+01  7.713687e+01  5.761653e+01
     vertex  9.435122e+01  7.461966e+01  6.000000e+01
   endloop
 endfacet
 facet normal -3.338377e-01  9.242071e-02  9.380889e-01
   outer loop
     vertex  8.739425e+01  7.768016e+01  4.974960e+01
     vertex  8.651597e+01  7.713687e+01  4.949057e+01
     vertex  8.877046e+01  7.713687e+01  5.029288e+01
   endloop
 endfacet
 facet normal -1.128294e-01 -1.247922e-01  9.857466e-01
   outer loop
     vertex  8.704144e+01  7.870786e+01  4.974960e+01
     vertex  8.413851e+01  7.713687e+01  4.921845e+01
     vertex  8.651597e+01  7.713687e+01  4.949057e+01
   endloop
 endfacet
 facet normal -2.355987e-01 -8.088113e-02  9.684790e-01
   outer loop
     vertex  8.704144e+01  7.870786e+01  4.974960e+01
     vertex  8.651597e+01  7.713687e+01  4.949057e+01
     vertex  8.739425e+01  7.768016e+01  4.974960e+01
   endloop
 endfacet
 facet normal -1.270634e-01 -9.889745e-02  9.869520e-01
   outer loop
     vertex  8.637405e+01  7.956532e+01  4.974960e+01
     vertex  8.413851e+01  7.713687e+01  4.921845e+01
     vertex  8.704144e+01  7.870786e+01  4.974960e+01
   endloop
 endfacet
 facet normal -5.382204e-01 -6.840954e-02  8.400232e-01
   outer loop
     vertex  9.006714e+01  7.917217e+01  5.128943e+01
     vertex  8.877046e+01  7.713687e+01  5.029288e+01
     vertex  9.078535e+01  7.713687e+01  5.158386e+01
   endloop
 endfacet
 facet normal -4.304746e-01 -1.477821e-01  8.904224e-01
   outer loop
     vertex  9.006714e+01  7.917217e+01  5.128943e+01
     vertex  8.704144e+01  7.870786e+01  4.974960e+01
     vertex  8.739425e+01  7.768016e+01  4.974960e+01
   endloop
 endfacet
 facet normal -4.191023e-01 -1.697170e-01  8.919358e-01
   outer loop
     vertex  9.006714e+01  7.917217e+01  5.128943e+01
     vertex  8.739425e+01  7.768016e+01  4.974960e+01
     vertex  8.877046e+01  7.713687e+01  5.029288e+01
   endloop
 endfacet
 facet normal -8.806685e-02 -1.347964e-01  9.869520e-01
   outer loop
     vertex  8.546441e+01  8.015962e+01  4.974960e+01
     vertex  8.413851e+01  7.713687e+01  4.921845e+01
     vertex  8.637405e+01  7.956532e+01  4.974960e+01
   endloop
 endfacet
 facet normal -3.591655e-01 -2.795497e-01  8.904224e-01
   outer loop
     vertex  8.908504e+01  8.098691e+01  5.128943e+01
     vertex  8.637405e+01  7.956532e+01  4.974960e+01
     vertex  8.704144e+01  7.870786e+01  4.974960e+01
   endloop
 endfacet
 facet normal -4.144487e-01 -2.242884e-01  8.820017e-01
   outer loop
     vertex  8.908504e+01  8.098691e+01  5.128943e+01
     vertex  8.704144e+01  7.870786e+01  4.974960e+01
     vertex  9.006714e+01  7.917217e+01  5.128943e+01
   endloop
 endfacet
 facet normal -7.118400e-01 -1.049055e-01  6.944629e-01
   outer loop
     vertex  9.262406e+01  7.855286e+01  5.368248e+01
     vertex  9.078535e+01  7.713687e+01  5.158386e+01
     vertex  9.245641e+01  7.713687e+01  5.329674e+01
   endloop
 endfacet
 facet normal -8.543852e-01 -3.998395e-02  5.180996e-01
   outer loop
     vertex  9.262406e+01  7.855286e+01  5.368248e+01
     vertex  9.245641e+01  7.713687e+01  5.329674e+01
     vertex  9.369721e+01  7.713687e+01  5.534291e+01
   endloop
 endfacet
 facet normal -6.945443e-01 -1.430942e-01  7.050761e-01
   outer loop
     vertex  9.262406e+01  7.855286e+01  5.368248e+01
     vertex  9.006714e+01  7.917217e+01  5.128943e+01
     vertex  9.078535e+01  7.713687e+01  5.158386e+01
   endloop
 endfacet
 facet normal -3.952684e-02 -1.560880e-01  9.869520e-01
   outer loop
     vertex  8.441108e+01  8.042636e+01  4.974960e+01
     vertex  8.413851e+01  7.713687e+01  4.921845e+01
     vertex  8.546441e+01  8.015962e+01  4.974960e+01
   endloop
 endfacet
 facet normal -2.489353e-01 -3.810238e-01  8.904224e-01
   outer loop
     vertex  8.756692e+01  8.238445e+01  5.128943e+01
     vertex  8.546441e+01  8.015962e+01  4.974960e+01
     vertex  8.637405e+01  7.956532e+01  4.974960e+01
   endloop
 endfacet
 facet normal -3.191664e-01 -3.467071e-01  8.820017e-01
   outer loop
     vertex  8.756692e+01  8.238445e+01  5.128943e+01
     vertex  8.637405e+01  7.956532e+01  4.974960e+01
     vertex  8.908504e+01  8.098691e+01  5.128943e+01
   endloop
 endfacet
 facet normal -6.937849e-01 -2.381766e-01  6.796576e-01
   outer loop
     vertex  9.170452e+01  8.123139e+01  5.368248e+01
     vertex  9.006714e+01  7.917217e+01  5.128943e+01
     vertex  9.262406e+01  7.855286e+01  5.368248e+01
   endloop
 endfacet
 facet normal -6.183741e-01 -3.346473e-01  7.110728e-01
   outer loop
     vertex  9.170452e+01  8.123139e+01  5.368248e+01
     vertex  8.908504e+01  8.098691e+01  5.128943e+01
     vertex  9.006714e+01  7.917217e+01  5.128943e+01
   endloop
 endfacet
 facet normal  1.329651e-02 -1.604650e-01  9.869520e-01
   outer loop
     vertex  8.332822e+01  8.033663e+01  4.974960e+01
     vertex  8.413851e+01  7.713687e+01  4.921845e+01
     vertex  8.441108e+01  8.042636e+01  4.974960e+01
   endloop
 endfacet
 facet normal -1.892975e-01 -4.315547e-01  8.820017e-01
   outer loop
     vertex  8.567727e+01  8.321332e+01  5.128943e+01
     vertex  8.546441e+01  8.015962e+01  4.974960e+01
     vertex  8.756692e+01  8.238445e+01  5.128943e+01
   endloop
 endfacet
 facet normal -1.117290e-01 -4.412080e-01  8.904224e-01
   outer loop
     vertex  8.567727e+01  8.321332e+01  5.128943e+01
     vertex  8.441108e+01  8.042636e+01  4.974960e+01
     vertex  8.546441e+01  8.015962e+01  4.974960e+01
   endloop
 endfacet
 facet normal -4.762091e-01 -5.173010e-01  7.110728e-01
   outer loop
     vertex  8.996508e+01  8.346622e+01  5.368248e+01
     vertex  8.756692e+01  8.238445e+01  5.128943e+01
     vertex  8.908504e+01  8.098691e+01  5.128943e+01
   endloop
 endfacet
 facet normal -5.788579e-01 -4.505432e-01  6.796576e-01
   outer loop
     vertex  8.996508e+01  8.346622e+01  5.368248e+01
     vertex  8.908504e+01  8.098691e+01  5.128943e+01
     vertex  9.170452e+01  8.123139e+01  5.368248e+01
   endloop
 endfacet
 facet normal -9.289940e-01 -3.523209e-01  1.133146e-01
   outer loop
     vertex  9.366187e+01  8.040624e+01  5.668712e+01
     vertex  9.435122e+01  7.965408e+01  6.000000e+01
     vertex  9.345205e+01  8.202499e+01  6.000000e+01
   endloop
 endfacet
 facet normal -9.411335e-01 -1.371963e-01  3.089417e-01
   outer loop
     vertex  9.366187e+01  8.040624e+01  5.668712e+01
     vertex  9.369721e+01  7.713687e+01  5.534291e+01
     vertex  9.444357e+01  7.713687e+01  5.761653e+01
   endloop
 endfacet
 facet normal -8.893107e-01 -1.820877e-01  4.194884e-01
   outer loop
     vertex  9.366187e+01  8.040624e+01  5.668712e+01
     vertex  9.262406e+01  7.855286e+01  5.368248e+01
     vertex  9.369721e+01  7.713687e+01  5.534291e+01
   endloop
 endfacet
 facet normal -9.694439e-01 -1.864811e-01  1.593843e-01
   outer loop
     vertex  9.366187e+01  8.040624e+01  5.668712e+01
     vertex  9.444357e+01  7.713687e+01  5.761653e+01
     vertex  9.435122e+01  7.965408e+01  6.000000e+01
   endloop
 endfacet
 facet normal -8.367436e-01 -2.872544e-01  4.662028e-01
   outer loop
     vertex  9.366187e+01  8.040624e+01  5.668712e+01
     vertex  9.170452e+01  8.123139e+01  5.368248e+01
     vertex  9.262406e+01  7.855286e+01  5.368248e+01
   endloop
 endfacet
 facet normal  6.467898e-02 -1.474532e-01  9.869520e-01
   outer loop
     vertex  8.233316e+01  7.990015e+01  4.974960e+01
     vertex  8.413851e+01  7.713687e+01  4.921845e+01
     vertex  8.332822e+01  8.033663e+01  4.974960e+01
   endloop
 endfacet
 facet normal -3.891521e-02 -4.696367e-01  8.820017e-01
   outer loop
     vertex  8.362088e+01  8.338372e+01  5.128943e+01
     vertex  8.441108e+01  8.042636e+01  4.974960e+01
     vertex  8.567727e+01  8.321332e+01  5.128943e+01
   endloop
 endfacet
 facet normal  3.758475e-02 -4.535805e-01  8.904224e-01
   outer loop
     vertex  8.362088e+01  8.338372e+01  5.128943e+01
     vertex  8.332822e+01  8.033663e+01  4.974960e+01
     vertex  8.441108e+01  8.042636e+01  4.974960e+01
   endloop
 endfacet
 facet normal -2.824394e-01 -6.438970e-01  7.110728e-01
   outer loop
     vertex  8.759425e+01  8.501516e+01  5.368248e+01
     vertex  8.567727e+01  8.321332e+01  5.128943e+01
     vertex  8.756692e+01  8.238445e+01  5.128943e+01
   endloop
 endfacet
 facet normal -4.012026e-01 -6.140863e-01  6.796576e-01
   outer loop
     vertex  8.759425e+01  8.501516e+01  5.368248e+01
     vertex  8.756692e+01  8.238445e+01  5.128943e+01
     vertex  8.996508e+01  8.346622e+01  5.368248e+01
   endloop
 endfacet
 facet normal -8.173618e-01 -5.641841e-01  1.166871e-01
   outer loop
     vertex  9.208430e+01  8.332133e+01  5.668712e+01
     vertex  9.345205e+01  8.202499e+01  6.000000e+01
     vertex  9.201161e+01  8.411183e+01  6.000000e+01
   endloop
 endfacet
 facet normal -8.660339e-01 -4.686741e-01  1.741550e-01
   outer loop
     vertex  9.208430e+01  8.332133e+01  5.668712e+01
     vertex  9.366187e+01  8.040624e+01  5.668712e+01
     vertex  9.345205e+01  8.202499e+01  6.000000e+01
   endloop
 endfacet
 facet normal -6.981351e-01 -5.433804e-01  4.662028e-01
   outer loop
     vertex  9.208430e+01  8.332133e+01  5.668712e+01
     vertex  8.996508e+01  8.346622e+01  5.368248e+01
     vertex  9.170452e+01  8.123139e+01  5.368248e+01
   endloop
 endfacet
 facet normal -8.043361e-01 -4.352849e-01  4.044385e-01
   outer loop
     vertex  9.208430e+01  8.332133e+01  5.668712e+01
     vertex  9.170452e+01  8.123139e+01  5.368248e+01
     vertex  9.366187e+01  8.040624e+01  5.668712e+01
   endloop
 endfacet
 facet normal  1.090525e-01 -1.184626e-01  9.869520e-01
   outer loop
     vertex  8.153374e+01  7.916424e+01  4.974960e+01
     vertex  8.413851e+01  7.713687e+01  4.921845e+01
     vertex  8.233316e+01  7.990015e+01  4.974960e+01
   endloop
 endfacet
 facet normal  1.828257e-01 -4.168005e-01  8.904224e-01
   outer loop
     vertex  8.162057e+01  8.287718e+01  5.128943e+01
     vertex  8.233316e+01  7.990015e+01  4.974960e+01
     vertex  8.332822e+01  8.033663e+01  4.974960e+01
   endloop
 endfacet
 facet normal  1.156841e-01 -4.568262e-01  8.820017e-01
   outer loop
     vertex  8.162057e+01  8.287718e+01  5.128943e+01
     vertex  8.332822e+01  8.033663e+01  4.974960e+01
     vertex  8.362088e+01  8.338372e+01  5.128943e+01
   endloop
 endfacet
 facet normal -1.800709e-01 -7.110837e-01  6.796576e-01
   outer loop
     vertex  8.484893e+01  8.571037e+01  5.368248e+01
     vertex  8.567727e+01  8.321332e+01  5.128943e+01
     vertex  8.759425e+01  8.501516e+01  5.368248e+01
   endloop
 endfacet
 facet normal -5.806305e-02 -7.007168e-01  7.110728e-01
   outer loop
     vertex  8.484893e+01  8.571037e+01  5.368248e+01
     vertex  8.362088e+01  8.338372e+01  5.128943e+01
     vertex  8.567727e+01  8.321332e+01  5.128943e+01
   endloop
 endfacet
 facet normal -6.562627e-01 -7.407674e-01  1.434676e-01
   outer loop
     vertex  8.964569e+01  8.556624e+01  5.668712e+01
     vertex  9.201161e+01  8.411183e+01  6.000000e+01
     vertex  9.011361e+01  8.579331e+01  6.000000e+01
   endloop
 endfacet
 facet normal -4.610586e-01 -8.784738e-01  1.253346e-01
   outer loop
     vertex  8.964569e+01  8.556624e+01  5.668712e+01
     vertex  9.011361e+01  8.579331e+01  6.000000e+01
     vertex  8.786837e+01  8.697170e+01  6.000000e+01
   endloop
 endfacet
 facet normal -4.838729e-01 -7.406227e-01  4.662028e-01
   outer loop
     vertex  8.964569e+01  8.556624e+01  5.668712e+01
     vertex  8.759425e+01  8.501516e+01  5.368248e+01
     vertex  8.996508e+01  8.346622e+01  5.368248e+01
   endloop
 endfacet
 facet normal -6.194182e-01 -6.728675e-01  4.044385e-01
   outer loop
     vertex  8.964569e+01  8.556624e+01  5.668712e+01
     vertex  8.996508e+01  8.346622e+01  5.368248e+01
     vertex  9.208430e+01  8.332133e+01  5.668712e+01
   endloop
 endfacet
 facet normal -6.687029e-01 -7.264050e-01  1.586572e-01
   outer loop
     vertex  8.964569e+01  8.556624e+01  5.668712e+01
     vertex  9.208430e+01  8.332133e+01  5.668712e+01
     vertex  9.201161e+01  8.411183e+01  6.000000e+01
   endloop
 endfacet
 facet normal  1.416085e-01 -7.663466e-02  9.869520e-01
   outer loop
     vertex  8.101659e+01  7.820862e+01  4.974960e+01
     vertex  8.413851e+01  7.713687e+01  4.921845e+01
     vertex  8.153374e+01  7.916424e+01  4.974960e+01
   endloop
 endfacet
 facet normal  2.577473e-01 -3.945116e-01  8.820017e-01
   outer loop
     vertex  7.989313e+01  8.174858e+01  5.128943e+01
     vertex  8.233316e+01  7.990015e+01  4.974960e+01
     vertex  8.162057e+01  8.287718e+01  5.128943e+01
   endloop
 endfacet
 facet normal  3.082546e-01 -3.348537e-01  8.904224e-01
   outer loop
     vertex  7.989313e+01  8.174858e+01  5.128943e+01
     vertex  8.153374e+01  7.916424e+01  4.974960e+01
     vertex  8.233316e+01  7.990015e+01  4.974960e+01
   endloop
 endfacet
 facet normal  1.726054e-01 -6.816031e-01  7.110728e-01
   outer loop
     vertex  8.202662e+01  8.547651e+01  5.368248e+01
     vertex  8.162057e+01  8.287718e+01  5.128943e+01
     vertex  8.362088e+01  8.338372e+01  5.128943e+01
   endloop
 endfacet
 facet normal  6.057439e-02 -7.310241e-01  6.796576e-01
   outer loop
     vertex  8.202662e+01  8.547651e+01  5.368248e+01
     vertex  8.362088e+01  8.338372e+01  5.128943e+01
     vertex  8.484893e+01  8.571037e+01  5.368248e+01
   endloop
 endfacet
 facet normal -2.378135e-01 -9.648473e-01  1.118676e-01
   outer loop
     vertex  8.661028e+01  8.689769e+01  5.668712e+01
     vertex  8.786837e+01  8.697170e+01  6.000000e+01
     vertex  8.540635e+01  8.757854e+01  6.000000e+01
   endloop
 endfacet
 facet normal -3.958155e-01 -9.023684e-01  1.704740e-01
   outer loop
     vertex  8.661028e+01  8.689769e+01  5.668712e+01
     vertex  8.964569e+01  8.556624e+01  5.668712e+01
     vertex  8.786837e+01  8.697170e+01  6.000000e+01
   endloop
 endfacet
 facet normal -3.673767e-01 -8.375344e-01  4.044385e-01
   outer loop
     vertex  8.661028e+01  8.689769e+01  5.668712e+01
     vertex  8.759425e+01  8.501516e+01  5.368248e+01
     vertex  8.964569e+01  8.556624e+01  5.668712e+01
   endloop
 endfacet
 facet normal -2.171756e-01 -8.576070e-01  4.662028e-01
   outer loop
     vertex  8.661028e+01  8.689769e+01  5.668712e+01
     vertex  8.484893e+01  8.571037e+01  5.368248e+01
     vertex  8.759425e+01  8.501516e+01  5.368248e+01
   endloop
 endfacet
 facet normal  0.000000e+00  0.000000e+00  0.000000e+00
   outer loop
     vertex  8.083774e+01  7.713687e+01  4.974960e+01
     vertex  8.413851e+01  7.713687e+01  4.921845e+01
     vertex  8.413851e+01  7.713687e+01  4.921845e+01
   endloop
 endfacet
 facet normal  1.588190e-01 -2.650220e-02  9.869520e-01
   outer loop
     vertex  8.083774e+01  7.713687e+01  4.974960e+01
     vertex  8.413851e+01  7.713687e+01  4.921845e+01
     vertex  8.101659e+01  7.820862e+01  4.974960e+01
   endloop
 endfacet
 facet normal  4.002793e-01 -2.166203e-01  8.904224e-01
   outer loop
     vertex  7.862573e+01  8.012023e+01  5.128943e+01
     vertex  8.101659e+01  7.820862e+01  4.974960e+01
     vertex  8.153374e+01  7.916424e+01  4.974960e+01
   endloop
 endfacet
 facet normal  3.718795e-01 -2.894454e-01  8.820017e-01
   outer loop
     vertex  7.862573e+01  8.012023e+01  5.128943e+01
     vertex  8.153374e+01  7.916424e+01  4.974960e+01
     vertex  7.989313e+01  8.174858e+01  5.128943e+01
   endloop
 endfacet
 facet normal  3.845693e-01 -5.886271e-01  7.110728e-01
   outer loop
     vertex  7.943317e+01  8.433892e+01  5.368248e+01
     vertex  7.989313e+01  8.174858e+01  5.128943e+01
     vertex  8.162057e+01  8.287718e+01  5.128943e+01
   endloop
 endfacet
 facet normal  2.946555e-01 -6.717468e-01  6.796576e-01
   outer loop
     vertex  7.943317e+01  8.433892e+01  5.368248e+01
     vertex  8.162057e+01  8.287718e+01  5.128943e+01
     vertex  8.202662e+01  8.547651e+01  5.368248e+01
   endloop
 endfacet
 facet normal  0.000000e+00 -9.925331e-01  1.219760e-01
   outer loop
     vertex  8.330702e+01  8.717140e+01  5.668712e+01
     vertex  8.540635e+01  8.757854e+01  6.000000e+01
     vertex  8.287066e+01  8.757854e+01  6.000000e+01
   endloop
 endfacet
 facet normal  2.366386e-01 -9.600804e-01  1.491571e-01
   outer loop
     vertex  8.330702e+01  8.717140e+01  5.668712e+01
     vertex  8.287066e+01  8.757854e+01  6.000000e+01
     vertex  8.040864e+01  8.697170e+01  6.000000e+01
   endloop
 endfacet
 facet normal  7.305612e-02 -8.816562e-01  4.662028e-01
   outer loop
     vertex  8.330702e+01  8.717140e+01  5.668712e+01
     vertex  8.202662e+01  8.547651e+01  5.368248e+01
     vertex  8.484893e+01  8.571037e+01  5.368248e+01
   endloop
 endfacet
 facet normal -8.134588e-02 -9.816988e-01  1.721925e-01
   outer loop
     vertex  8.330702e+01  8.717140e+01  5.668712e+01
     vertex  8.661028e+01  8.689769e+01  5.668712e+01
     vertex  8.540635e+01  8.757854e+01  6.000000e+01
   endloop
 endfacet
 facet normal -7.552420e-02 -9.114415e-01  4.044385e-01
   outer loop
     vertex  8.330702e+01  8.717140e+01  5.668712e+01
     vertex  8.484893e+01  8.571037e+01  5.368248e+01
     vertex  8.661028e+01  8.689769e+01  5.668712e+01
   endloop
 endfacet
 facet normal  1.588190e-01  2.650220e-02  9.869520e-01
   outer loop
     vertex  8.101659e+01  7.606511e+01  4.974960e+01
     vertex  8.413851e+01  7.713687e+01  4.921845e+01
     vertex  8.083774e+01  7.713687e+01  4.974960e+01
   endloop
 endfacet
 facet normal  4.489276e-01 -7.491276e-02  8.904224e-01
   outer loop
     vertex  7.795573e+01  7.816859e+01  5.128943e+01
     vertex  8.083774e+01  7.713687e+01  4.974960e+01
     vertex  8.101659e+01  7.820862e+01  4.974960e+01
   endloop
 endfacet
 facet normal  4.457128e-01 -1.530134e-01  8.820017e-01
   outer loop
     vertex  7.795573e+01  7.816859e+01  5.128943e+01
     vertex  8.101659e+01  7.820862e+01  4.974960e+01
     vertex  7.862573e+01  8.012023e+01  5.128943e+01
   endloop
 endfacet
 facet normal  5.548592e-01 -4.318642e-01  7.110728e-01
   outer loop
     vertex  7.734962e+01  8.242087e+01  5.368248e+01
     vertex  7.862573e+01  8.012023e+01  5.128943e+01
     vertex  7.989313e+01  8.174858e+01  5.128943e+01
   endloop
 endfacet
 facet normal  4.968060e-01 -5.396752e-01  6.796576e-01
   outer loop
     vertex  7.734962e+01  8.242087e+01  5.368248e+01
     vertex  7.989313e+01  8.174858e+01  5.128943e+01
     vertex  7.943317e+01  8.433892e+01  5.368248e+01
   endloop
 endfacet
 facet normal  4.614158e-01 -8.791544e-01  1.190928e-01
   outer loop
     vertex  8.009386e+01  8.635772e+01  5.668712e+01
     vertex  8.040864e+01  8.697170e+01  6.000000e+01
     vertex  7.816340e+01  8.579331e+01  6.000000e+01
   endloop
 endfacet
 facet normal  3.553711e-01 -8.101644e-01  4.662028e-01
   outer loop
     vertex  8.009386e+01  8.635772e+01  5.668712e+01
     vertex  7.943317e+01  8.433892e+01  5.368248e+01
     vertex  8.202662e+01  8.547651e+01  5.368248e+01
   endloop
 endfacet
 facet normal  2.425395e-01 -9.577667e-01  1.544592e-01
   outer loop
     vertex  8.009386e+01  8.635772e+01  5.668712e+01
     vertex  8.330702e+01  8.717140e+01  5.668712e+01
     vertex  8.040864e+01  8.697170e+01  6.000000e+01
   endloop
 endfacet
 facet normal  2.245125e-01 -8.865797e-01  4.044385e-01
   outer loop
     vertex  8.009386e+01  8.635772e+01  5.668712e+01
     vertex  8.202662e+01  8.547651e+01  5.368248e+01
     vertex  8.330702e+01  8.717140e+01  5.668712e+01
   endloop
 endfacet
 facet normal  1.416085e-01  7.663466e-02  9.869520e-01
   outer loop
     vertex  8.153374e+01  7.510950e+01  4.974960e+01
     vertex  8.413851e+01  7.713687e+01  4.921845e+01
     vertex  8.101659e+01  7.606511e+01  4.974960e+01
   endloop
 endfacet
 facet normal  4.489276e-01  7.491276e-02  8.904224e-01
   outer loop
     vertex  7.795573e+01  7.610515e+01  5.128943e+01
     vertex  8.101659e+01  7.606511e+01  4.974960e+01
     vertex  8.083774e+01  7.713687e+01  4.974960e+01
   endloop
 endfacet
 facet normal  4.712462e-01 -0.000000e+00  8.820017e-01
   outer loop
     vertex  7.795573e+01  7.610515e+01  5.128943e+01
     vertex  8.083774e+01  7.713687e+01  4.974960e+01
     vertex  7.795573e+01  7.816859e+01  5.128943e+01
   endloop
 endfacet
 facet normal  6.650215e-01 -2.283022e-01  7.110728e-01
   outer loop
     vertex  7.600175e+01  7.993022e+01  5.368248e+01
     vertex  7.795573e+01  7.816859e+01  5.128943e+01
     vertex  7.862573e+01  8.012023e+01  5.128943e+01
   endloop
 endfacet
 facet normal  6.451200e-01 -3.491215e-01  6.796576e-01
   outer loop
     vertex  7.600175e+01  7.993022e+01  5.368248e+01
     vertex  7.862573e+01  8.012023e+01  5.128943e+01
     vertex  7.734962e+01  8.242087e+01  5.368248e+01
   endloop
 endfacet
 facet normal  6.589242e-01 -7.437717e-01  1.123500e-01
   outer loop
     vertex  7.731901e+01  8.454482e+01  5.668712e+01
     vertex  7.816340e+01  8.579331e+01  6.000000e+01
     vertex  7.626540e+01  8.411183e+01  6.000000e+01
   endloop
 endfacet
 facet normal  5.991760e-01 -6.508787e-01  4.662028e-01
   outer loop
     vertex  7.731901e+01  8.454482e+01  5.668712e+01
     vertex  7.734962e+01  8.242087e+01  5.368248e+01
     vertex  7.943317e+01  8.433892e+01  5.368248e+01
   endloop
 endfacet
 facet normal  5.002198e-01 -7.656433e-01  4.044385e-01
   outer loop
     vertex  7.731901e+01  8.454482e+01  5.668712e+01
     vertex  7.943317e+01  8.433892e+01  5.368248e+01
     vertex  8.009386e+01  8.635772e+01  5.668712e+01
   endloop
 endfacet
 facet normal  5.386608e-01 -8.244818e-01  1.734193e-01
   outer loop
     vertex  7.731901e+01  8.454482e+01  5.668712e+01
     vertex  8.009386e+01  8.635772e+01  5.668712e+01
     vertex  7.816340e+01  8.579331e+01  6.000000e+01
   endloop
 endfacet
 facet normal  1.090525e-01  1.184626e-01  9.869520e-01
   outer loop
     vertex  8.233316e+01  7.437358e+01  4.974960e+01
     vertex  8.413851e+01  7.713687e+01  4.921845e+01
     vertex  8.153374e+01  7.510950e+01  4.974960e+01
   endloop
 endfacet
 facet normal  4.002793e-01  2.166203e-01  8.904224e-01
   outer loop
     vertex  7.862573e+01  7.415351e+01  5.128943e+01
     vertex  8.153374e+01  7.510950e+01  4.974960e+01
     vertex  8.101659e+01  7.606511e+01  4.974960e+01
   endloop
 endfacet
 facet normal  4.457128e-01  1.530134e-01  8.820017e-01
   outer loop
     vertex  7.862573e+01  7.415351e+01  5.128943e+01
     vertex  8.101659e+01  7.606511e+01  4.974960e+01
     vertex  7.795573e+01  7.610515e+01  5.128943e+01
   endloop
 endfacet
 facet normal  7.031184e-01  0.000000e+00  7.110728e-01
   outer loop
     vertex  7.553562e+01  7.713687e+01  5.368248e+01
     vertex  7.795573e+01  7.610515e+01  5.128943e+01
     vertex  7.795573e+01  7.816859e+01  5.128943e+01
   endloop
 endfacet
 facet normal  7.235251e-01 -1.207350e-01  6.796576e-01
   outer loop
     vertex  7.553562e+01  7.713687e+01  5.368248e+01
     vertex  7.795573e+01  7.816859e+01  5.128943e+01
     vertex  7.600175e+01  7.993022e+01  5.368248e+01
   endloop
 endfacet
 facet normal  8.160897e-01 -5.633060e-01  1.291663e-01
   outer loop
     vertex  7.528315e+01  8.192915e+01  5.668712e+01
     vertex  7.626540e+01  8.411183e+01  6.000000e+01
     vertex  7.482496e+01  8.202499e+01  6.000000e+01
   endloop
 endfacet
 facet normal  9.260394e-01 -3.512004e-01  1.382364e-01
   outer loop
     vertex  7.528315e+01  8.192915e+01  5.668712e+01
     vertex  7.482496e+01  8.202499e+01  6.000000e+01
     vertex  7.392579e+01  7.965408e+01  6.000000e+01
   endloop
 endfacet
 facet normal  7.778891e-01 -6.054554e-01  1.682626e-01
   outer loop
     vertex  7.528315e+01  8.192915e+01  5.668712e+01
     vertex  7.731901e+01  8.454482e+01  5.668712e+01
     vertex  7.626540e+01  8.411183e+01  6.000000e+01
   endloop
 endfacet
 facet normal  7.780510e-01 -4.210601e-01  4.662028e-01
   outer loop
     vertex  7.528315e+01  8.192915e+01  5.668712e+01
     vertex  7.600175e+01  7.993022e+01  5.368248e+01
     vertex  7.734962e+01  8.242087e+01  5.368248e+01
   endloop
 endfacet
 facet normal  7.217204e-01 -5.617376e-01  4.044385e-01
   outer loop
     vertex  7.528315e+01  8.192915e+01  5.668712e+01
     vertex  7.734962e+01  8.242087e+01  5.368248e+01
     vertex  7.731901e+01  8.454482e+01  5.668712e+01
   endloop
 endfacet
 facet normal  6.467898e-02  1.474532e-01  9.869520e-01
   outer loop
     vertex  8.332822e+01  7.393711e+01  4.974960e+01
     vertex  8.413851e+01  7.713687e+01  4.921845e+01
     vertex  8.233316e+01  7.437358e+01  4.974960e+01
   endloop
 endfacet
 facet normal  3.082546e-01  3.348537e-01  8.904224e-01
   outer loop
     vertex  7.989313e+01  7.252516e+01  5.128943e+01
     vertex  8.233316e+01  7.437358e+01  4.974960e+01
     vertex  8.153374e+01  7.510950e+01  4.974960e+01
   endloop
 endfacet
 facet normal  3.718795e-01  2.894454e-01  8.820017e-01
   outer loop
     vertex  7.989313e+01  7.252516e+01  5.128943e+01
     vertex  8.153374e+01  7.510950e+01  4.974960e+01
     vertex  7.862573e+01  7.415351e+01  5.128943e+01
   endloop
 endfacet
 facet normal  6.650215e-01  2.283022e-01  7.110728e-01
   outer loop
     vertex  7.600175e+01  7.434352e+01  5.368248e+01
     vertex  7.862573e+01  7.415351e+01  5.128943e+01
     vertex  7.795573e+01  7.610515e+01  5.128943e+01
   endloop
 endfacet
 facet normal  7.235251e-01  1.207350e-01  6.796576e-01
   outer loop
     vertex  7.600175e+01  7.434352e+01  5.368248e+01
     vertex  7.795573e+01  7.610515e+01  5.128943e+01
     vertex  7.553562e+01  7.713687e+01  5.368248e+01
   endloop
 endfacet
 facet normal  8.650115e-01 -2.969588e-01  4.044385e-01
   outer loop
     vertex  7.420691e+01  7.879416e+01  5.668712e+01
     vertex  7.600175e+01  7.993022e+01  5.368248e+01
     vertex  7.528315e+01  8.192915e+01  5.668712e+01
   endloop
 endfacet
 facet normal  9.861502e-01 -1.197403e-01  1.147606e-01
   outer loop
     vertex  7.420691e+01  7.879416e+01  5.668712e+01
     vertex  7.392579e+01  7.965408e+01  6.000000e+01
     vertex  7.362015e+01  7.713687e+01  6.000000e+01
   endloop
 endfacet
 facet normal  9.332684e-01 -3.203914e-01  1.623559e-01
   outer loop
     vertex  7.420691e+01  7.879416e+01  5.668712e+01
     vertex  7.528315e+01  8.192915e+01  5.668712e+01
     vertex  7.392579e+01  7.965408e+01  6.000000e+01
   endloop
 endfacet
 facet normal  8.726120e-01 -1.456132e-01  4.662028e-01
   outer loop
     vertex  7.420691e+01  7.879416e+01  5.668712e+01
     vertex  7.553562e+01  7.713687e+01  5.368248e+01
     vertex  7.600175e+01  7.993022e+01  5.368248e+01
   endloop
 endfacet
 facet normal  1.329651e-02  1.604650e-01  9.869520e-01
   outer loop
     vertex  8.441108e+01  7.384738e+01  4.974960e+01
     vertex  8.413851e+01  7.713687e+01  4.921845e+01
     vertex  8.332822e+01  7.393711e+01  4.974960e+01
   endloop
 endfacet
 facet normal  1.828257e-01  4.168005e-01  8.904224e-01
   outer loop
     vertex  8.162057e+01  7.139656e+01  5.128943e+01
     vertex  8.332822e+01  7.393711e+01  4.974960e+01
     vertex  8.233316e+01  7.437358e+01  4.974960e+01
   endloop
 endfacet
 facet normal  2.577473e-01  3.945116e-01  8.820017e-01
   outer loop
     vertex  8.162057e+01  7.139656e+01  5.128943e+01
     vertex  8.233316e+01  7.437358e+01  4.974960e+01
     vertex  7.989313e+01  7.252516e+01  5.128943e+01
   endloop
 endfacet
 facet normal  6.451200e-01  3.491215e-01  6.796576e-01
   outer loop
     vertex  7.734962e+01  7.185287e+01  5.368248e+01
     vertex  7.862573e+01  7.415351e+01  5.128943e+01
     vertex  7.600175e+01  7.434352e+01  5.368248e+01
   endloop
 endfacet
 facet normal  5.548592e-01  4.318642e-01  7.110728e-01
   outer loop
     vertex  7.734962e+01  7.185287e+01  5.368248e+01
     vertex  7.989313e+01  7.252516e+01  5.128943e+01
     vertex  7.862573e+01  7.415351e+01  5.128943e+01
   endloop
 endfacet
 facet normal  8.726120e-01  1.456132e-01  4.662028e-01
   outer loop
     vertex  7.420691e+01  7.547958e+01  5.668712e+01
     vertex  7.600175e+01  7.434352e+01  5.368248e+01
     vertex  7.553562e+01  7.713687e+01  5.368248e+01
   endloop
 endfacet
 facet normal  9.861502e-01  1.197403e-01  1.147606e-01
   outer loop
     vertex  7.420691e+01  7.547958e+01  5.668712e+01
     vertex  7.362015e+01  7.713687e+01  6.000000e+01
     vertex  7.392579e+01  7.461966e+01  6.000000e+01
   endloop
 endfacet
 facet normal  9.145652e-01 -0.000000e+00  4.044385e-01
   outer loop
     vertex  7.420691e+01  7.547958e+01  5.668712e+01
     vertex  7.553562e+01  7.713687e+01  5.368248e+01
     vertex  7.420691e+01  7.879416e+01  5.668712e+01
   endloop
 endfacet
 facet normal  9.846749e-01 -0.000000e+00  1.744002e-01
   outer loop
     vertex  7.420691e+01  7.547958e+01  5.668712e+01
     vertex  7.420691e+01  7.879416e+01  5.668712e+01
     vertex  7.362015e+01  7.713687e+01  6.000000e+01
   endloop
 endfacet
 facet normal -3.952684e-02  1.560880e-01  9.869520e-01
   outer loop
     vertex  8.546441e+01  7.411412e+01  4.974960e+01
     vertex  8.413851e+01  7.713687e+01  4.921845e+01
     vertex  8.441108e+01  7.384738e+01  4.974960e+01
   endloop
 endfacet
 facet normal  1.156841e-01  4.568262e-01  8.820017e-01
   outer loop
     vertex  8.362088e+01  7.089002e+01  5.128943e+01
     vertex  8.332822e+01  7.393711e+01  4.974960e+01
     vertex  8.162057e+01  7.139656e+01  5.128943e+01
   endloop
 endfacet
 facet normal  3.758475e-02  4.535805e-01  8.904224e-01
   outer loop
     vertex  8.362088e+01  7.089002e+01  5.128943e+01
     vertex  8.441108e+01  7.384738e+01  4.974960e+01
     vertex  8.332822e+01  7.393711e+01  4.974960e+01
   endloop
 endfacet
 facet normal  3.845693e-01  5.886271e-01  7.110728e-01
   outer loop
     vertex  7.943317e+01  6.993482e+01  5.368248e+01
     vertex  8.162057e+01  7.139656e+01  5.128943e+01
     vertex  7.989313e+01  7.252516e+01  5.128943e+01
   endloop
 endfacet
 facet normal  4.968060e-01  5.396752e-01  6.796576e-01
   outer loop
     vertex  7.943317e+01  6.993482e+01  5.368248e+01
     vertex  7.989313e+01  7.252516e+01  5.128943e+01
     vertex  7.734962e+01  7.185287e+01  5.368248e+01
   endloop
 endfacet
 facet normal  8.650115e-01  2.969588e-01  4.044385e-01
   outer loop
     vertex  7.528315e+01  7.234459e+01  5.668712e+01
     vertex  7.600175e+01  7.434352e+01  5.368248e+01
     vertex  7.420691e+01  7.547958e+01  5.668712e+01
   endloop
 endfacet
 facet normal  9.332684e-01  3.203914e-01  1.623559e-01
   outer loop
     vertex  7.528315e+01  7.234459e+01  5.668712e+01
     vertex  7.420691e+01  7.547958e+01  5.668712e+01
     vertex  7.392579e+01  7.461966e+01  6.000000e+01
   endloop
 endfacet
 facet normal  9.260394e-01  3.512004e-01  1.382364e-01
   outer loop
     vertex  7.528315e+01  7.234459e+01  5.668712e+01
     vertex  7.392579e+01  7.461966e+01  6.000000e+01
     vertex  7.482496e+01  7.224874e+01  6.000000e+01
   endloop
 endfacet
 facet normal  8.160897e-01  5.633060e-01  1.291663e-01
   outer loop
     vertex  7.528315e+01  7.234459e+01  5.668712e+01
     vertex  7.482496e+01  7.224874e+01  6.000000e+01
     vertex  7.626540e+01  7.016191e+01  6.000000e+01
   endloop
 endfacet
 facet normal  7.780510e-01  4.210601e-01  4.662028e-01
   outer loop
     vertex  7.528315e+01  7.234459e+01  5.668712e+01
     vertex  7.734962e+01  7.185287e+01  5.368248e+01
     vertex  7.600175e+01  7.434352e+01  5.368248e+01
   endloop
 endfacet
 facet normal -8.806685e-02  1.347964e-01  9.869520e-01
   outer loop
     vertex  8.637405e+01  7.470842e+01  4.974960e+01
     vertex  8.413851e+01  7.713687e+01  4.921845e+01
     vertex  8.546441e+01  7.411412e+01  4.974960e+01
   endloop
 endfacet
 facet normal -3.891521e-02  4.696367e-01  8.820017e-01
   outer loop
     vertex  8.567727e+01  7.106041e+01  5.128943e+01
     vertex  8.441108e+01  7.384738e+01  4.974960e+01
     vertex  8.362088e+01  7.089002e+01  5.128943e+01
   endloop
 endfacet
 facet normal -1.117290e-01  4.412080e-01  8.904224e-01
   outer loop
     vertex  8.567727e+01  7.106041e+01  5.128943e+01
     vertex  8.546441e+01  7.411412e+01  4.974960e+01
     vertex  8.441108e+01  7.384738e+01  4.974960e+01
   endloop
 endfacet
 facet normal  2.946555e-01  6.717468e-01  6.796576e-01
   outer loop
     vertex  8.202662e+01  6.879723e+01  5.368248e+01
     vertex  8.162057e+01  7.139656e+01  5.128943e+01
     vertex  7.943317e+01  6.993482e+01  5.368248e+01
   endloop
 endfacet
 facet normal  1.726054e-01  6.816031e-01  7.110728e-01
   outer loop
     vertex  8.202662e+01  6.879723e+01  5.368248e+01
     vertex  8.362088e+01  7.089002e+01  5.128943e+01
     vertex  8.162057e+01  7.139656e+01  5.128943e+01
   endloop
 endfacet
 facet normal  6.589242e-01  7.437717e-01  1.123500e-01
   outer loop
     vertex  7.731901e+01  6.972892e+01  5.668712e+01
     vertex  7.626540e+01  7.016191e+01  6.000000e+01
     vertex  7.816340e+01  6.848043e+01  6.000000e+01
   endloop
 endfacet
 facet normal  5.991760e-01  6.508787e-01  4.662028e-01
   outer loop
     vertex  7.731901e+01  6.972892e+01  5.668712e+01
     vertex  7.943317e+01  6.993482e+01  5.368248e+01
     vertex  7.734962e+01  7.185287e+01  5.368248e+01
   endloop
 endfacet
 facet normal  7.217204e-01  5.617376e-01  4.044385e-01
   outer loop
     vertex  7.731901e+01  6.972892e+01  5.668712e+01
     vertex  7.734962e+01  7.185287e+01  5.368248e+01
     vertex  7.528315e+01  7.234459e+01  5.668712e+01
   endloop
 endfacet
 facet normal  7.778891e-01  6.054554e-01  1.682626e-01
   outer loop
     vertex  7.731901e+01  6.972892e+01  5.668712e+01
     vertex  7.528315e+01  7.234459e+01  5.668712e+01
     vertex  7.626540e+01  7.016191e+01  6.000000e+01
   endloop
 endfacet
 facet normal -1.270634e-01  9.889745e-02  9.869520e-01
   outer loop
     vertex  8.704144e+01  7.556588e+01  4.974960e+01
     vertex  8.413851e+01  7.713687e+01  4.921845e+01
     vertex  8.637405e+01  7.470842e+01  4.974960e+01
   endloop
 endfacet
 facet normal -1.128294e-01  1.247922e-01  9.857466e-01
   outer loop
     vertex  8.704144e+01  7.556588e+01  4.974960e+01
     vertex  8.651597e+01  7.713687e+01  4.949057e+01
     vertex  8.413851e+01  7.713687e+01  4.921845e+01
   endloop
 endfacet
 facet normal -1.892975e-01  4.315547e-01  8.820017e-01
   outer loop
     vertex  8.756692e+01  7.188929e+01  5.128943e+01
     vertex  8.546441e+01  7.411412e+01  4.974960e+01
     vertex  8.567727e+01  7.106041e+01  5.128943e+01
   endloop
 endfacet
 facet normal -2.489353e-01  3.810238e-01  8.904224e-01
   outer loop
     vertex  8.756692e+01  7.188929e+01  5.128943e+01
     vertex  8.637405e+01  7.470842e+01  4.974960e+01
     vertex  8.546441e+01  7.411412e+01  4.974960e+01
   endloop
 endfacet
 facet normal -5.806305e-02  7.007168e-01  7.110728e-01
   outer loop
     vertex  8.484893e+01  6.856336e+01  5.368248e+01
     vertex  8.567727e+01  7.106041e+01  5.128943e+01
     vertex  8.362088e+01  7.089002e+01  5.128943e+01
   endloop
 endfacet
 facet normal  6.057439e-02  7.310241e-01  6.796576e-01
   outer loop
     vertex  8.484893e+01  6.856336e+01  5.368248e+01
     vertex  8.362088e+01  7.089002e+01  5.128943e+01
     vertex  8.202662e+01  6.879723e+01  5.368248e+01
   endloop
 endfacet
 facet normal  5.002198e-01  7.656433e-01  4.044385e-01
   outer loop
     vertex  8.009386e+01  6.791601e+01  5.668712e+01
     vertex  7.943317e+01  6.993482e+01  5.368248e+01
     vertex  7.731901e+01  6.972892e+01  5.668712e+01
   endloop
 endfacet
 facet normal  4.614158e-01  8.791544e-01  1.190928e-01
   outer loop
     vertex  8.009386e+01  6.791601e+01  5.668712e+01
     vertex  7.816340e+01  6.848043e+01  6.000000e+01
     vertex  8.040864e+01  6.730203e+01  6.000000e+01
   endloop
 endfacet
 facet normal  3.553711e-01  8.101644e-01  4.662028e-01
   outer loop
     vertex  8.009386e+01  6.791601e+01  5.668712e+01
     vertex  8.202662e+01  6.879723e+01  5.368248e+01
     vertex  7.943317e+01  6.993482e+01  5.368248e+01
   endloop
 endfacet
 facet normal  5.386608e-01  8.244818e-01  1.734193e-01
   outer loop
     vertex  8.009386e+01  6.791601e+01  5.668712e+01
     vertex  7.731901e+01  6.972892e+01  5.668712e+01
     vertex  7.816340e+01  6.848043e+01  6.000000e+01
   endloop
 endfacet
 facet normal -3.338377e-01 -9.242071e-02  9.380889e-01
   outer loop
     vertex  8.739425e+01  7.659358e+01  4.974960e+01
     vertex  8.877046e+01  7.713687e+01  5.029288e+01
     vertex  8.651597e+01  7.713687e+01  4.949057e+01
   endloop
 endfacet
 facet normal -2.355987e-01  8.088113e-02  9.684790e-01
   outer loop
     vertex  8.739425e+01  7.659358e+01  4.974960e+01
     vertex  8.651597e+01  7.713687e+01  4.949057e+01
     vertex  8.704144e+01  7.556588e+01  4.974960e+01
   endloop
 endfacet
 facet normal -3.191664e-01  3.467071e-01  8.820017e-01
   outer loop
     vertex  8.908504e+01  7.328682e+01  5.128943e+01
     vertex  8.637405e+01  7.470842e+01  4.974960e+01
     vertex  8.756692e+01  7.188929e+01  5.128943e+01
   endloop
 endfacet
 facet normal -3.591655e-01  2.795497e-01  8.904224e-01
   outer loop
     vertex  8.908504e+01  7.328682e+01  5.128943e+01
     vertex  8.704144e+01  7.556588e+01  4.974960e+01
     vertex  8.637405e+01  7.470842e+01  4.974960e+01
   endloop
 endfacet
 facet normal -2.824394e-01  6.438970e-01  7.110728e-01
   outer loop
     vertex  8.759425e+01  6.925857e+01  5.368248e+01
     vertex  8.756692e+01  7.188929e+01  5.128943e+01
     vertex  8.567727e+01  7.106041e+01  5.128943e+01
   endloop
 endfacet
 facet normal -1.800709e-01  7.110837e-01  6.796576e-01
   outer loop
     vertex  8.759425e+01  6.925857e+01  5.368248e+01
     vertex  8.567727e+01  7.106041e+01  5.128943e+01
     vertex  8.484893e+01  6.856336e+01  5.368248e+01
   endloop
 endfacet
 facet normal  2.366386e-01  9.600804e-01  1.491571e-01
   outer loop
     vertex  8.330702e+01  6.710233e+01  5.668712e+01
     vertex  8.040864e+01  6.730203e+01  6.000000e+01
     vertex  8.287066e+01  6.669520e+01  6.000000e+01
   endloop
 endfacet
 facet normal  5.561840e-15  9.925331e-01  1.219760e-01
   outer loop
     vertex  8.330702e+01  6.710233e+01  5.668712e+01
     vertex  8.287066e+01  6.669520e+01  6.000000e+01
     vertex  8.540635e+01  6.669520e+01  6.000000e+01
   endloop
 endfacet
 facet normal  2.425395e-01  9.577667e-01  1.544592e-01
   outer loop
     vertex  8.330702e+01  6.710233e+01  5.668712e+01
     vertex  8.009386e+01  6.791601e+01  5.668712e+01
     vertex  8.040864e+01  6.730203e+01  6.000000e+01
   endloop
 endfacet
 facet normal  7.305612e-02  8.816562e-01  4.662028e-01
   outer loop
     vertex  8.330702e+01  6.710233e+01  5.668712e+01
     vertex  8.484893e+01  6.856336e+01  5.368248e+01
     vertex  8.202662e+01  6.879723e+01  5.368248e+01
   endloop
 endfacet
 facet normal  2.245125e-01  8.865797e-01  4.044385e-01
   outer loop
     vertex  8.330702e+01  6.710233e+01  5.668712e+01
     vertex  8.202662e+01  6.879723e+01  5.368248e+01
     vertex  8.009386e+01  6.791601e+01  5.668712e+01
   endloop
 endfacet
 facet normal -5.382204e-01  6.840954e-02  8.400232e-01
   outer loop
     vertex  9.006714e+01  7.510157e+01  5.128943e+01
     vertex  9.078535e+01  7.713687e+01  5.158386e+01
     vertex  8.877046e+01  7.713687e+01  5.029288e+01
   endloop
 endfacet
 facet normal -4.191023e-01  1.697170e-01  8.919358e-01
   outer loop
     vertex  9.006714e+01  7.510157e+01  5.128943e+01
     vertex  8.877046e+01  7.713687e+01  5.029288e+01
     vertex  8.739425e+01  7.659358e+01  4.974960e+01
   endloop
 endfacet
 facet normal -4.304746e-01  1.477821e-01  8.904224e-01
   outer loop
     vertex  9.006714e+01  7.510157e+01  5.128943e+01
     vertex  8.739425e+01  7.659358e+01  4.974960e+01
     vertex  8.704144e+01  7.556588e+01  4.974960e+01
   endloop
 endfacet
 facet normal -4.144487e-01  2.242884e-01  8.820017e-01
   outer loop
     vertex  9.006714e+01  7.510157e+01  5.128943e+01
     vertex  8.704144e+01  7.556588e+01  4.974960e+01
     vertex  8.908504e+01  7.328682e+01  5.128943e+01
   endloop
 endfacet
 facet normal -4.762091e-01  5.173010e-01  7.110728e-01
   outer loop
     vertex  8.996508e+01  7.080752e+01  5.368248e+01
     vertex  8.908504e+01  7.328682e+01  5.128943e+01
     vertex  8.756692e+01  7.188929e+01  5.128943e+01
   endloop
 endfacet
 facet normal -4.012026e-01  6.140863e-01  6.796576e-01
   outer loop
     vertex  8.996508e+01  7.080752e+01  5.368248e+01
     vertex  8.756692e+01  7.188929e+01  5.128943e+01
     vertex  8.759425e+01  6.925857e+01  5.368248e+01
   endloop
 endfacet
 facet normal -2.378135e-01  9.648473e-01  1.118676e-01
   outer loop
     vertex  8.661028e+01  6.737605e+01  5.668712e+01
     vertex  8.540635e+01  6.669520e+01  6.000000e+01
     vertex  8.786837e+01  6.730203e+01  6.000000e+01
   endloop
 endfacet
 facet normal -8.134588e-02  9.816988e-01  1.721925e-01
   outer loop
     vertex  8.661028e+01  6.737605e+01  5.668712e+01
     vertex  8.330702e+01  6.710233e+01  5.668712e+01
     vertex  8.540635e+01  6.669520e+01  6.000000e+01
   endloop
 endfacet
 facet normal -2.171756e-01  8.576070e-01  4.662028e-01
   outer loop
     vertex  8.661028e+01  6.737605e+01  5.668712e+01
     vertex  8.759425e+01  6.925857e+01  5.368248e+01
     vertex  8.484893e+01  6.856336e+01  5.368248e+01
   endloop
 endfacet
 facet normal -7.552420e-02  9.114415e-01  4.044385e-01
   outer loop
     vertex  8.661028e+01  6.737605e+01  5.668712e+01
     vertex  8.484893e+01  6.856336e+01  5.368248e+01
     vertex  8.330702e+01  6.710233e+01  5.668712e+01
   endloop
 endfacet
 facet normal -6.183741e-01  3.346473e-01  7.110728e-01
   outer loop
     vertex  9.170452e+01  7.304235e+01  5.368248e+01
     vertex  9.006714e+01  7.510157e+01  5.128943e+01
     vertex  8.908504e+01  7.328682e+01  5.128943e+01
   endloop
 endfacet
 facet normal -5.788579e-01  4.505432e-01  6.796576e-01
   outer loop
     vertex  9.170452e+01  7.304235e+01  5.368248e+01
     vertex  8.908504e+01  7.328682e+01  5.128943e+01
     vertex  8.996508e+01  7.080752e+01  5.368248e+01
   endloop
 endfacet
 facet normal -4.610586e-01  8.784738e-01  1.253346e-01
   outer loop
     vertex  8.964569e+01  6.870750e+01  5.668712e+01
     vertex  8.786837e+01  6.730203e+01  6.000000e+01
     vertex  9.011361e+01  6.848043e+01  6.000000e+01
   endloop
 endfacet
 facet normal -6.562627e-01  7.407674e-01  1.434676e-01
   outer loop
     vertex  8.964569e+01  6.870750e+01  5.668712e+01
     vertex  9.011361e+01  6.848043e+01  6.000000e+01
     vertex  9.201161e+01  7.016191e+01  6.000000e+01
   endloop
 endfacet
 facet normal -3.958155e-01  9.023684e-01  1.704740e-01
   outer loop
     vertex  8.964569e+01  6.870750e+01  5.668712e+01
     vertex  8.661028e+01  6.737605e+01  5.668712e+01
     vertex  8.786837e+01  6.730203e+01  6.000000e+01
   endloop
 endfacet
 facet normal -4.838729e-01  7.406227e-01  4.662028e-01
   outer loop
     vertex  8.964569e+01  6.870750e+01  5.668712e+01
     vertex  8.996508e+01  7.080752e+01  5.368248e+01
     vertex  8.759425e+01  6.925857e+01  5.368248e+01
   endloop
 endfacet
 facet normal -3.673767e-01  8.375344e-01  4.044385e-01
   outer loop
     vertex  8.964569e+01  6.870750e+01  5.668712e+01
     vertex  8.759425e+01  6.925857e+01  5.368248e+01
     vertex  8.661028e+01  6.737605e+01  5.668712e+01
   endloop
 endfacet
 facet normal -7.118400e-01  1.049055e-01  6.944629e-01
   outer loop
     vertex  9.262406e+01  7.572088e+01  5.368248e+01
     vertex  9.245641e+01  7.713687e+01  5.329674e+01
     vertex  9.078535e+01  7.713687e+01  5.158386e+01
   endloop
 endfacet
 facet normal -8.543852e-01  3.998395e-02  5.180996e-01
   outer loop
     vertex  9.262406e+01  7.572088e+01  5.368248e+01
     vertex  9.369721e+01  7.713687e+01  5.534291e+01
     vertex  9.245641e+01  7.713687e+01  5.329674e+01
   endloop
 endfacet
 facet normal -6.945443e-01  1.430942e-01  7.050761e-01
   outer loop
     vertex  9.262406e+01  7.572088e+01  5.368248e+01
     vertex  9.078535e+01  7.713687e+01  5.158386e+01
     vertex  9.006714e+01  7.510157e+01  5.128943e+01
   endloop
 endfacet
 facet normal -6.937849e-01  2.381766e-01  6.796576e-01
   outer loop
     vertex  9.262406e+01  7.572088e+01  5.368248e+01
     vertex  9.006714e+01  7.510157e+01  5.128943e+01
     vertex  9.170452e+01  7.304235e+01  5.368248e+01
   endloop
 endfacet
 facet normal -8.173618e-01  5.641841e-01  1.166871e-01
   outer loop
     vertex  9.208430e+01  7.095241e+01  5.668712e+01
     vertex  9.201161e+01  7.016191e+01  6.000000e+01
     vertex  9.345205e+01  7.224874e+01  6.000000e+01
   endloop
 endfacet
 facet normal -6.687029e-01  7.264050e-01  1.586572e-01
   outer loop
     vertex  9.208430e+01  7.095241e+01  5.668712e+01
     vertex  8.964569e+01  6.870750e+01  5.668712e+01
     vertex  9.201161e+01  7.016191e+01  6.000000e+01
   endloop
 endfacet
 facet normal -6.981351e-01  5.433804e-01  4.662028e-01
   outer loop
     vertex  9.208430e+01  7.095241e+01  5.668712e+01
     vertex  9.170452e+01  7.304235e+01  5.368248e+01
     vertex  8.996508e+01  7.080752e+01  5.368248e+01
   endloop
 endfacet
 facet normal -6.194182e-01  6.728675e-01  4.044385e-01
   outer loop
     vertex  9.208430e+01  7.095241e+01  5.668712e+01
     vertex  8.996508e+01  7.080752e+01  5.368248e+01
     vertex  8.964569e+01  6.870750e+01  5.668712e+01
   endloop
 endfacet
 facet normal -9.694439e-01  1.864811e-01  1.593843e-01
   outer loop
     vertex  9.366187e+01  7.386749e+01  5.668712e+01
     vertex  9.435122e+01  7.461966e+01  6.000000e+01
     vertex  9.444357e+01  7.713687e+01  5.761653e+01
   endloop
 endfacet
 facet normal -9.289940e-01  3.523209e-01  1.133146e-01
   outer loop
     vertex  9.366187e+01  7.386749e+01  5.668712e+01
     vertex  9.345205e+01  7.224874e+01  6.000000e+01
     vertex  9.435122e+01  7.461966e+01  6.000000e+01
   endloop
 endfacet
 facet normal -9.411335e-01  1.371963e-01  3.089417e-01
   outer loop
     vertex  9.366187e+01  7.386749e+01  5.668712e+01
     vertex  9.444357e+01  7.713687e+01  5.761653e+01
     vertex  9.369721e+01  7.713687e+01  5.534291e+01
   endloop
 endfacet
 facet normal -8.660339e-01  4.686741e-01  1.741550e-01
   outer loop
     vertex  9.366187e+01  7.386749e+01  5.668712e+01
     vertex  9.208430e+01  7.095241e+01  5.668712e+01
     vertex  9.345205e+01  7.224874e+01  6.000000e+01
   endloop
 endfacet
 facet normal -8.893107e-01  1.820877e-01  4.194884e-01
   outer loop
     vertex  9.366187e+01  7.386749e+01  5.668712e+01
     vertex  9.369721e+01  7.713687e+01  5.534291e+01
     vertex  9.262406e+01  7.572088e+01  5.368248e+01
   endloop
 endfacet
 facet normal -8.367436e-01  2.872544e-01  4.662028e-01
   outer loop
     vertex  9.366187e+01  7.386749e+01  5.668712e+01
     vertex  9.262406e+01  7.572088e+01  5.368248e+01
     vertex  9.170452e+01  7.304235e+01  5.368248e+01
   endloop
 endfacet
 facet normal -8.043361e-01  4.352849e-01  4.044385e-01
   outer loop
     vertex  9.366187e+01  7.386749e+01  5.668712e+01
     vertex  9.170452e+01  7.304235e+01  5.368248e+01
     vertex  9.208430e+01  7.095241e+01  5.668712e+01
   endloop
 endfacet
endsolid
