solid 
 facet normal -1.000000e+00  0.000000e+00  0.000000e+00
   outer loop
     vertex  0.000000e+00  0.000000e+00  0.000000e+00
     vertex  0.000000e+00  9.026792e+01  6.000000e+01
     vertex  0.000000e+00  9.026792e+01  0.000000e+00
   endloop
 endfacet
 facet normal -1.000000e+00  0.000000e+00  0.000000e+00
   outer loop
     vertex  0.000000e+00  0.000000e+00  6.000000e+01
     vertex  0.000000e+00  9.026792e+01  6.000000e+01
     vertex  0.000000e+00  0.000000e+00  0.000000e+00
   endloop
 endfacet
 facet normal  0.000000e+00 -1.000000e+00 -0.000000e+00
   outer loop
     vertex  1.490877e+02  0.000000e+00  6.000000e+01
     vertex  0.000000e+00  0.000000e+00  0.000000e+00
     vertex  1.490877e+02  0.000000e+00  0.000000e+00
   endloop
 endfacet
 facet normal -0.000000e+00 -1.000000e+00  0.000000e+00
   outer loop
     vertex  1.490877e+02  0.000000e+00  6.000000e+01
     vertex  0.000000e+00  0.000000e+00  6.000000e+01
     vertex  0.000000e+00  0.000000e+00  0.000000e+00
   endloop
 endfacet
 facet normal  0.000000e+00  0.000000e+00  1.000000e+00
   outer loop
     vertex  4.145713e+01  1.610043e+01  6.000000e+01
     vertex  3.880359e+01  1.845125e+01  6.000000e+01
     vertex  0.000000e+00  0.000000e+00  6.000000e+01
   endloop
 endfacet
 facet normal  0.000000e+00  0.000000e+00  1.000000e+00
   outer loop
     vertex  3.678976e+01  2.136880e+01  6.000000e+01
     vertex  0.000000e+00  0.000000e+00  6.000000e+01
     vertex  3.880359e+01  1.845125e+01  6.000000e+01
   endloop
 endfacet
 facet normal  0.000000e+00  0.000000e+00  1.000000e+00
   outer loop
     vertex  4.459615e+01  1.445294e+01  6.000000e+01
     vertex  4.145713e+01  1.610043e+01  6.000000e+01
     vertex  0.000000e+00  0.000000e+00  6.000000e+01
   endloop
 endfacet
 facet normal  0.000000e+00  0.000000e+00  1.000000e+00
   outer loop
     vertex  3.553265e+01  2.468352e+01  6.000000e+01
     vertex  0.000000e+00  0.000000e+00  6.000000e+01
     vertex  3.678976e+01  2.136880e+01  6.000000e+01
   endloop
 endfacet
 facet normal  0.000000e+00  0.000000e+00  1.000000e+00
   outer loop
     vertex  4.803822e+01  1.360455e+01  6.000000e+01
     vertex  4.459615e+01  1.445294e+01  6.000000e+01
     vertex  0.000000e+00  0.000000e+00  6.000000e+01
   endloop
 endfacet
 facet normal  0.000000e+00  0.000000e+00  1.000000e+00
   outer loop
     vertex  3.510534e+01  2.820275e+01  6.000000e+01
     vertex  0.000000e+00  0.000000e+00  6.000000e+01
     vertex  3.553265e+01  2.468352e+01  6.000000e+01
   endloop
 endfacet
 facet normal  0.000000e+00  0.000000e+00  1.000000e+00
   outer loop
     vertex  5.158331e+01  1.360455e+01  6.000000e+01
     vertex  4.803822e+01  1.360455e+01  6.000000e+01
     vertex  0.000000e+00  0.000000e+00  6.000000e+01
   endloop
 endfacet
 facet normal  0.000000e+00  0.000000e+00  1.000000e+00
   outer loop
     vertex  3.553265e+01  3.172199e+01  6.000000e+01
     vertex  0.000000e+00  0.000000e+00  6.000000e+01
     vertex  3.510534e+01  2.820275e+01  6.000000e+01
   endloop
 endfacet
 facet normal  0.000000e+00  0.000000e+00  1.000000e+00
   outer loop
     vertex  0.000000e+00  9.026792e+01  6.000000e+01
     vertex  4.145713e+01  4.030508e+01  6.000000e+01
     vertex  4.459615e+01  4.195257e+01  6.000000e+01
   endloop
 endfacet
 facet normal  0.000000e+00  0.000000e+00  1.000000e+00
   outer loop
     vertex  0.000000e+00  9.026792e+01  6.000000e+01
     vertex  3.880359e+01  3.795426e+01  6.000000e+01
     vertex  4.145713e+01  4.030508e+01  6.000000e+01
   endloop
 endfacet
 facet normal  0.000000e+00  0.000000e+00  1.000000e+00
   outer loop
     vertex  0.000000e+00  9.026792e+01  6.000000e+01
     vertex  3.678976e+01  3.503671e+01  6.000000e+01
     vertex  3.880359e+01  3.795426e+01  6.000000e+01
   endloop
 endfacet
 facet normal  0.000000e+00  0.000000e+00  1.000000e+00
   outer loop
     vertex  0.000000e+00  9.026792e+01  6.000000e+01
     vertex  3.553265e+01  3.172199e+01  6.000000e+01
     vertex  3.678976e+01  3.503671e+01  6.000000e+01
   endloop
 endfacet
 facet normal  0.000000e+00  0.000000e+00  1.000000e+00
   outer loop
     vertex  0.000000e+00  9.026792e+01  6.000000e+01
     vertex  0.000000e+00  0.000000e+00  6.000000e+01
     vertex  3.553265e+01  3.172199e+01  6.000000e+01
   endloop
 endfacet
 facet normal  0.000000e+00  0.000000e+00  1.000000e+00
   outer loop
     vertex  4.803822e+01  4.280096e+01  6.000000e+01
     vertex  0.000000e+00  9.026792e+01  6.000000e+01
     vertex  4.459615e+01  4.195257e+01  6.000000e+01
   endloop
 endfacet
 facet normal  0.000000e+00  0.000000e+00  1.000000e+00
   outer loop
     vertex  5.158331e+01  4.280096e+01  6.000000e+01
     vertex  0.000000e+00  9.026792e+01  6.000000e+01
     vertex  4.803822e+01  4.280096e+01  6.000000e+01
   endloop
 endfacet
 facet normal  0.000000e+00  0.000000e+00  1.000000e+00
   outer loop
     vertex  5.502538e+01  4.195257e+01  6.000000e+01
     vertex  0.000000e+00  9.026792e+01  6.000000e+01
     vertex  5.158331e+01  4.280096e+01  6.000000e+01
   endloop
 endfacet
 facet normal  0.000000e+00  0.000000e+00  1.000000e+00
   outer loop
     vertex  1.490877e+02  0.000000e+00  6.000000e+01
     vertex  6.408888e+01  3.172199e+01  6.000000e+01
     vertex  6.451619e+01  2.820275e+01  6.000000e+01
   endloop
 endfacet
 facet normal  0.000000e+00  0.000000e+00  1.000000e+00
   outer loop
     vertex  1.490877e+02  0.000000e+00  6.000000e+01
     vertex  5.502538e+01  1.445294e+01  6.000000e+01
     vertex  5.158331e+01  1.360455e+01  6.000000e+01
   endloop
 endfacet
 facet normal  0.000000e+00  0.000000e+00  1.000000e+00
   outer loop
     vertex  1.490877e+02  0.000000e+00  6.000000e+01
     vertex  5.816440e+01  1.610043e+01  6.000000e+01
     vertex  5.502538e+01  1.445294e+01  6.000000e+01
   endloop
 endfacet
 facet normal  0.000000e+00  0.000000e+00  1.000000e+00
   outer loop
     vertex  1.490877e+02  0.000000e+00  6.000000e+01
     vertex  6.081794e+01  1.845125e+01  6.000000e+01
     vertex  5.816440e+01  1.610043e+01  6.000000e+01
   endloop
 endfacet
 facet normal  0.000000e+00  0.000000e+00  1.000000e+00
   outer loop
     vertex  1.490877e+02  0.000000e+00  6.000000e+01
     vertex  6.283177e+01  2.136880e+01  6.000000e+01
     vertex  6.081794e+01  1.845125e+01  6.000000e+01
   endloop
 endfacet
 facet normal  0.000000e+00  0.000000e+00  1.000000e+00
   outer loop
     vertex  1.490877e+02  0.000000e+00  6.000000e+01
     vertex  6.408888e+01  2.468352e+01  6.000000e+01
     vertex  6.283177e+01  2.136880e+01  6.000000e+01
   endloop
 endfacet
 facet normal  0.000000e+00  0.000000e+00  1.000000e+00
   outer loop
     vertex  1.490877e+02  0.000000e+00  6.000000e+01
     vertex  6.451619e+01  2.820275e+01  6.000000e+01
     vertex  6.408888e+01  2.468352e+01  6.000000e+01
   endloop
 endfacet
 facet normal  0.000000e+00  0.000000e+00  1.000000e+00
   outer loop
     vertex  1.490877e+02  0.000000e+00  6.000000e+01
     vertex  5.158331e+01  1.360455e+01  6.000000e+01
     vertex  0.000000e+00  0.000000e+00  6.000000e+01
   endloop
 endfacet
 facet normal  0.000000e+00  0.000000e+00  1.000000e+00
   outer loop
     vertex  1.490877e+02  9.026792e+01  6.000000e+01
     vertex  6.283177e+01  3.503671e+01  6.000000e+01
     vertex  6.408888e+01  3.172199e+01  6.000000e+01
   endloop
 endfacet
 facet normal  0.000000e+00  0.000000e+00  1.000000e+00
   outer loop
     vertex  1.490877e+02  9.026792e+01  6.000000e+01
     vertex  6.081794e+01  3.795426e+01  6.000000e+01
     vertex  6.283177e+01  3.503671e+01  6.000000e+01
   endloop
 endfacet
 facet normal  0.000000e+00  0.000000e+00  1.000000e+00
   outer loop
     vertex  1.490877e+02  9.026792e+01  6.000000e+01
     vertex  5.816440e+01  4.030508e+01  6.000000e+01
     vertex  6.081794e+01  3.795426e+01  6.000000e+01
   endloop
 endfacet
 facet normal  0.000000e+00  0.000000e+00  1.000000e+00
   outer loop
     vertex  1.490877e+02  9.026792e+01  6.000000e+01
     vertex  5.502538e+01  4.195257e+01  6.000000e+01
     vertex  5.816440e+01  4.030508e+01  6.000000e+01
   endloop
 endfacet
 facet normal  0.000000e+00  0.000000e+00  1.000000e+00
   outer loop
     vertex  1.490877e+02  9.026792e+01  6.000000e+01
     vertex  6.408888e+01  3.172199e+01  6.000000e+01
     vertex  1.490877e+02  0.000000e+00  6.000000e+01
   endloop
 endfacet
 facet normal  0.000000e+00  0.000000e+00  1.000000e+00
   outer loop
     vertex  1.490877e+02  9.026792e+01  6.000000e+01
     vertex  0.000000e+00  9.026792e+01  6.000000e+01
     vertex  5.502538e+01  4.195257e+01  6.000000e+01
   endloop
 endfacet
 facet normal  0.000000e+00  1.000000e+00  0.000000e+00
   outer loop
     vertex  1.490877e+02  9.026792e+01  6.000000e+01
     vertex  1.490877e+02  9.026792e+01  0.000000e+00
     vertex  0.000000e+00  9.026792e+01  0.000000e+00
   endloop
 endfacet
 facet normal  0.000000e+00  1.000000e+00  0.000000e+00
   outer loop
     vertex  1.490877e+02  9.026792e+01  6.000000e+01
     vertex  0.000000e+00  9.026792e+01  0.000000e+00
     vertex  0.000000e+00  9.026792e+01  6.000000e+01
   endloop
 endfacet
 facet normal -0.000000e+00  0.000000e+00 -1.000000e+00
   outer loop
     vertex  1.490877e+02  9.026792e+01  0.000000e+00
     vertex  0.000000e+00  0.000000e+00  0.000000e+00
     vertex  0.000000e+00  9.026792e+01  0.000000e+00
   endloop
 endfacet
 facet normal  0.000000e+00 -0.000000e+00 -1.000000e+00
   outer loop
     vertex  1.490877e+02  9.026792e+01  0.000000e+00
     vertex  1.490877e+02  0.000000e+00  0.000000e+00
     vertex  0.000000e+00  0.000000e+00  0.000000e+00
   endloop
 endfacet
 facet normal  1.000000e+00  0.000000e+00  0.000000e+00
   outer loop
     vertex  1.490877e+02  0.000000e+00  0.000000e+00
     vertex  1.490877e+02  9.026792e+01  0.000000e+00
     vertex  1.490877e+02  9.026792e+01  6.000000e+01
   endloop
 endfacet
 facet normal  1.000000e+00 -0.000000e+00  0.000000e+00
   outer loop
     vertex  1.490877e+02  0.000000e+00  6.000000e+01
     vertex  1.490877e+02  0.000000e+00  0.000000e+00
     vertex  1.490877e+02  9.026792e+01  6.000000e+01
   endloop
 endfacet
 facet normal -9.853524e-01 -1.196434e-01 -1.215158e-01
   outer loop
     vertex  6.408888e+01  3.172199e+01  6.000000e+01
     vertex  6.493326e+01  2.820275e+01  5.661805e+01
     vertex  6.451619e+01  2.820275e+01  6.000000e+01
   endloop
 endfacet
 facet normal -9.853524e-01  1.196434e-01 -1.215158e-01
   outer loop
     vertex  6.451619e+01  2.820275e+01  6.000000e+01
     vertex  6.493326e+01  2.820275e+01  5.661805e+01
     vertex  6.408888e+01  2.468352e+01  6.000000e+01
   endloop
 endfacet
 facet normal -1.117606e-01 -1.261258e-01  9.856987e-01
   outer loop
     vertex  5.363430e+01  2.872829e+01  4.184734e+01
     vertex  4.981076e+01  2.820275e+01  4.134658e+01
     vertex  5.319664e+01  2.820275e+01  4.173048e+01
   endloop
 endfacet
 facet normal -3.315187e-01  6.680821e-02  9.410802e-01
   outer loop
     vertex  5.363430e+01  2.872829e+01  4.184734e+01
     vertex  5.319664e+01  2.820275e+01  4.173048e+01
     vertex  5.641062e+01  2.820275e+01  4.286268e+01
   endloop
 endfacet
 facet normal -1.250446e-01 -3.503586e-02  9.915323e-01
   outer loop
     vertex  5.335073e+01  2.974038e+01  4.184734e+01
     vertex  4.981076e+01  2.820275e+01  4.134658e+01
     vertex  5.363430e+01  2.872829e+01  4.184734e+01
   endloop
 endfacet
 facet normal -1.109551e-01 -6.747326e-02  9.915323e-01
   outer loop
     vertex  5.280461e+01  3.063843e+01  4.184734e+01
     vertex  4.981076e+01  2.820275e+01  4.134658e+01
     vertex  5.335073e+01  2.974038e+01  4.184734e+01
   endloop
 endfacet
 facet normal -5.346749e-01 -3.448716e-02  8.443538e-01
   outer loop
     vertex  5.699737e+01  3.021635e+01  4.331648e+01
     vertex  5.641062e+01  2.820275e+01  4.286268e+01
     vertex  5.928953e+01  2.820275e+01  4.468571e+01
   endloop
 endfacet
 facet normal -3.604079e-01 -1.009816e-01  9.273127e-01
   outer loop
     vertex  5.699737e+01  3.021635e+01  4.331648e+01
     vertex  5.335073e+01  2.974038e+01  4.184734e+01
     vertex  5.363430e+01  2.872829e+01  4.184734e+01
   endloop
 endfacet
 facet normal -3.589623e-01 -1.044256e-01  9.274920e-01
   outer loop
     vertex  5.699737e+01  3.021635e+01  4.331648e+01
     vertex  5.363430e+01  2.872829e+01  4.184734e+01
     vertex  5.641062e+01  2.820275e+01  4.286268e+01
   endloop
 endfacet
 facet normal -8.863647e-02 -9.490649e-02  9.915323e-01
   outer loop
     vertex  5.203645e+01  3.135584e+01  4.184734e+01
     vertex  4.981076e+01  2.820275e+01  4.134658e+01
     vertex  5.280461e+01  3.063843e+01  4.184734e+01
   endloop
 endfacet
 facet normal -3.197985e-01 -1.944738e-01  9.273127e-01
   outer loop
     vertex  5.618761e+01  3.208060e+01  4.331648e+01
     vertex  5.280461e+01  3.063843e+01  4.184734e+01
     vertex  5.335073e+01  2.974038e+01  4.184734e+01
   endloop
 endfacet
 facet normal -3.520540e-01 -1.529186e-01  9.234034e-01
   outer loop
     vertex  5.618761e+01  3.208060e+01  4.331648e+01
     vertex  5.335073e+01  2.974038e+01  4.184734e+01
     vertex  5.699737e+01  3.021635e+01  4.331648e+01
   endloop
 endfacet
 facet normal -7.104625e-01  1.690359e-02  7.035320e-01
   outer loop
     vertex  6.028529e+01  2.964245e+01  4.565668e+01
     vertex  5.928953e+01  2.820275e+01  4.468571e+01
     vertex  6.168721e+01  2.820275e+01  4.710701e+01
   endloop
 endfacet
 facet normal -5.898978e-01 -1.295363e-01  7.970201e-01
   outer loop
     vertex  6.028529e+01  2.964245e+01  4.565668e+01
     vertex  5.699737e+01  3.021635e+01  4.331648e+01
     vertex  5.928953e+01  2.820275e+01  4.468571e+01
   endloop
 endfacet
 facet normal -5.974413e-02 -1.153009e-01  9.915323e-01
   outer loop
     vertex  5.110323e+01  3.183939e+01  4.184734e+01
     vertex  4.981076e+01  2.820275e+01  4.134658e+01
     vertex  5.203645e+01  3.135584e+01  4.184734e+01
   endloop
 endfacet
 facet normal -2.554711e-01 -2.735428e-01  9.273127e-01
   outer loop
     vertex  5.490491e+01  3.365726e+01  4.331648e+01
     vertex  5.203645e+01  3.135584e+01  4.184734e+01
     vertex  5.280461e+01  3.063843e+01  4.184734e+01
   endloop
 endfacet
 facet normal -2.977419e-01 -2.422310e-01  9.234034e-01
   outer loop
     vertex  5.490491e+01  3.365726e+01  4.331648e+01
     vertex  5.280461e+01  3.063843e+01  4.184734e+01
     vertex  5.618761e+01  3.208060e+01  4.331648e+01
   endloop
 endfacet
 facet normal -5.437394e-01 -2.361794e-01  8.053364e-01
   outer loop
     vertex  5.950844e+01  3.241505e+01  4.565668e+01
     vertex  5.618761e+01  3.208060e+01  4.331648e+01
     vertex  5.699737e+01  3.021635e+01  4.331648e+01
   endloop
 endfacet
 facet normal -5.908908e-01 -1.655598e-01  7.895809e-01
   outer loop
     vertex  5.950844e+01  3.241505e+01  4.565668e+01
     vertex  5.699737e+01  3.021635e+01  4.331648e+01
     vertex  6.028529e+01  2.964245e+01  4.565668e+01
   endloop
 endfacet
 facet normal -2.642083e-02 -1.271440e-01  9.915323e-01
   outer loop
     vertex  5.007415e+01  3.205324e+01  4.184734e+01
     vertex  4.981076e+01  2.820275e+01  4.134658e+01
     vertex  5.110323e+01  3.183939e+01  4.184734e+01
   endloop
 endfacet
 facet normal -1.721966e-01 -3.323243e-01  9.273127e-01
   outer loop
     vertex  5.324440e+01  3.482937e+01  4.331648e+01
     vertex  5.110323e+01  3.183939e+01  4.184734e+01
     vertex  5.203645e+01  3.135584e+01  4.184734e+01
   endloop
 endfacet
 facet normal -2.213477e-01 -3.135782e-01  9.234034e-01
   outer loop
     vertex  5.324440e+01  3.482937e+01  4.331648e+01
     vertex  5.203645e+01  3.135584e+01  4.184734e+01
     vertex  5.490491e+01  3.365726e+01  4.331648e+01
   endloop
 endfacet
 facet normal -4.598557e-01 -3.741203e-01  8.053364e-01
   outer loop
     vertex  5.801236e+01  3.487525e+01  4.565668e+01
     vertex  5.490491e+01  3.365726e+01  4.331648e+01
     vertex  5.618761e+01  3.208060e+01  4.331648e+01
   endloop
 endfacet
 facet normal -5.243114e-01 -3.188409e-01  7.895809e-01
   outer loop
     vertex  5.801236e+01  3.487525e+01  4.565668e+01
     vertex  5.618761e+01  3.208060e+01  4.331648e+01
     vertex  5.950844e+01  3.241505e+01  4.565668e+01
   endloop
 endfacet
 facet normal -7.783070e-01 -1.416812e-01  6.116900e-01
   outer loop
     vertex  6.231178e+01  3.170537e+01  4.871299e+01
     vertex  6.028529e+01  2.964245e+01  4.565668e+01
     vertex  6.168721e+01  2.820275e+01  4.710701e+01
   endloop
 endfacet
 facet normal -8.466448e-01 -8.955014e-02  5.245697e-01
   outer loop
     vertex  6.231178e+01  3.170537e+01  4.871299e+01
     vertex  6.168721e+01  2.820275e+01  4.710701e+01
     vertex  6.348193e+01  2.820275e+01  5.000365e+01
   endloop
 endfacet
 facet normal -7.443844e-01 -2.085667e-01  6.343436e-01
   outer loop
     vertex  6.231178e+01  3.170537e+01  4.871299e+01
     vertex  5.950844e+01  3.241505e+01  4.565668e+01
     vertex  6.028529e+01  2.964245e+01  4.565668e+01
   endloop
 endfacet
 facet normal  8.861972e-03 -1.295574e-01  9.915323e-01
   outer loop
     vertex  4.902553e+01  3.198151e+01  4.184734e+01
     vertex  4.981076e+01  2.820275e+01  4.134658e+01
     vertex  5.007415e+01  3.205324e+01  4.184734e+01
   endloop
 endfacet
 facet normal -7.615104e-02 -3.664589e-01  9.273127e-01
   outer loop
     vertex  5.132923e+01  3.551002e+01  4.331648e+01
     vertex  5.007415e+01  3.205324e+01  4.184734e+01
     vertex  5.110323e+01  3.183939e+01  4.184734e+01
   endloop
 endfacet
 facet normal -1.285371e-01 -3.616688e-01  9.234034e-01
   outer loop
     vertex  5.132923e+01  3.551002e+01  4.331648e+01
     vertex  5.110323e+01  3.183939e+01  4.184734e+01
     vertex  5.324440e+01  3.482937e+01  4.331648e+01
   endloop
 endfacet
 facet normal -3.418665e-01 -4.843145e-01  8.053364e-01
   outer loop
     vertex  5.590801e+01  3.684058e+01  4.565668e+01
     vertex  5.324440e+01  3.482937e+01  4.331648e+01
     vertex  5.490491e+01  3.365726e+01  4.331648e+01
   endloop
 endfacet
 facet normal -4.188463e-01 -4.484749e-01  7.895809e-01
   outer loop
     vertex  5.590801e+01  3.684058e+01  4.565668e+01
     vertex  5.490491e+01  3.365726e+01  4.331648e+01
     vertex  5.801236e+01  3.487525e+01  4.565668e+01
   endloop
 endfacet
 facet normal -7.341966e-01 -3.189066e-01  5.993780e-01
   outer loop
     vertex  6.090321e+01  3.494822e+01  4.871299e+01
     vertex  5.950844e+01  3.241505e+01  4.565668e+01
     vertex  6.231178e+01  3.170537e+01  4.871299e+01
   endloop
 endfacet
 facet normal -6.605100e-01 -4.016650e-01  6.343436e-01
   outer loop
     vertex  6.090321e+01  3.494822e+01  4.871299e+01
     vertex  5.801236e+01  3.487525e+01  4.565668e+01
     vertex  5.950844e+01  3.241505e+01  4.565668e+01
   endloop
 endfacet
 facet normal -9.461030e-01 -2.501582e-02  3.228983e-01
   outer loop
     vertex  6.420753e+01  3.018154e+01  5.228298e+01
     vertex  6.348193e+01  2.820275e+01  5.000365e+01
     vertex  6.458257e+01  2.820275e+01  5.322857e+01
   endloop
 endfacet
 facet normal -8.982364e-01 -1.475235e-01  4.140148e-01
   outer loop
     vertex  6.420753e+01  3.018154e+01  5.228298e+01
     vertex  6.231178e+01  3.170537e+01  4.871299e+01
     vertex  6.348193e+01  2.820275e+01  5.000365e+01
   endloop
 endfacet
 facet normal  4.348753e-02 -1.223622e-01  9.915323e-01
   outer loop
     vertex  4.803515e+01  3.162953e+01  4.184734e+01
     vertex  4.981076e+01  2.820275e+01  4.134658e+01
     vertex  4.902553e+01  3.198151e+01  4.184734e+01
   endloop
 endfacet
 facet normal -2.619354e-02 -3.829360e-01  9.234034e-01
   outer loop
     vertex  4.930145e+01  3.564873e+01  4.331648e+01
     vertex  5.007415e+01  3.205324e+01  4.184734e+01
     vertex  5.132923e+01  3.551002e+01  4.331648e+01
   endloop
 endfacet
 facet normal  2.554228e-02 -3.734150e-01  9.273127e-01
   outer loop
     vertex  4.930145e+01  3.564873e+01  4.331648e+01
     vertex  4.902553e+01  3.198151e+01  4.184734e+01
     vertex  5.007415e+01  3.205324e+01  4.184734e+01
   endloop
 endfacet
 facet normal -2.823173e-01 -5.448476e-01  7.895809e-01
   outer loop
     vertex  5.335145e+01  3.816528e+01  4.565668e+01
     vertex  5.324440e+01  3.482937e+01  4.331648e+01
     vertex  5.590801e+01  3.684058e+01  4.565668e+01
   endloop
 endfacet
 facet normal -1.985227e-01 -5.585893e-01  8.053364e-01
   outer loop
     vertex  5.335145e+01  3.816528e+01  4.565668e+01
     vertex  5.132923e+01  3.551002e+01  4.331648e+01
     vertex  5.324440e+01  3.482937e+01  4.331648e+01
   endloop
 endfacet
 facet normal -5.276485e-01 -5.649736e-01  6.343436e-01
   outer loop
     vertex  5.867197e+01  3.769079e+01  4.871299e+01
     vertex  5.590801e+01  3.684058e+01  4.565668e+01
     vertex  5.801236e+01  3.487525e+01  4.565668e+01
   endloop
 endfacet
 facet normal -6.209306e-01 -5.051645e-01  5.993780e-01
   outer loop
     vertex  5.867197e+01  3.769079e+01  4.871299e+01
     vertex  5.801236e+01  3.487525e+01  4.565668e+01
     vertex  6.090321e+01  3.494822e+01  4.871299e+01
   endloop
 endfacet
 facet normal -8.307507e-01 -3.608460e-01  4.238436e-01
   outer loop
     vertex  6.313979e+01  3.399237e+01  5.228298e+01
     vertex  6.090321e+01  3.494822e+01  4.871299e+01
     vertex  6.231178e+01  3.170537e+01  4.871299e+01
   endloop
 endfacet
 facet normal -8.952236e-01 -2.508299e-01  3.683192e-01
   outer loop
     vertex  6.313979e+01  3.399237e+01  5.228298e+01
     vertex  6.231178e+01  3.170537e+01  4.871299e+01
     vertex  6.420753e+01  3.018154e+01  5.228298e+01
   endloop
 endfacet
 facet normal  7.488781e-02 -1.060919e-01  9.915323e-01
   outer loop
     vertex  4.717646e+01  3.102340e+01  4.184734e+01
     vertex  4.981076e+01  2.820275e+01  4.134658e+01
     vertex  4.803515e+01  3.162953e+01  4.184734e+01
   endloop
 endfacet
 facet normal  7.809269e-02 -3.758027e-01  9.234034e-01
   outer loop
     vertex  4.731143e+01  3.523520e+01  4.331648e+01
     vertex  4.902553e+01  3.198151e+01  4.184734e+01
     vertex  4.930145e+01  3.564873e+01  4.331648e+01
   endloop
 endfacet
 facet normal  1.253413e-01 -3.526765e-01  9.273127e-01
   outer loop
     vertex  4.731143e+01  3.523520e+01  4.331648e+01
     vertex  4.803515e+01  3.162953e+01  4.184734e+01
     vertex  4.902553e+01  3.198151e+01  4.184734e+01
   endloop
 endfacet
 facet normal -4.045534e-02 -5.914361e-01  8.053364e-01
   outer loop
     vertex  5.053229e+01  3.875111e+01  4.565668e+01
     vertex  4.930145e+01  3.564873e+01  4.331648e+01
     vertex  5.132923e+01  3.551002e+01  4.331648e+01
   endloop
 endfacet
 facet normal -1.248501e-01 -6.008115e-01  7.895809e-01
   outer loop
     vertex  5.053229e+01  3.875111e+01  4.565668e+01
     vertex  5.132923e+01  3.551002e+01  4.331648e+01
     vertex  5.335145e+01  3.816528e+01  4.565668e+01
   endloop
 endfacet
 facet normal -3.556538e-01 -6.863808e-01  6.343436e-01
   outer loop
     vertex  5.578353e+01  3.972967e+01  4.871299e+01
     vertex  5.335145e+01  3.816528e+01  4.565668e+01
     vertex  5.590801e+01  3.684058e+01  4.565668e+01
   endloop
 endfacet
 facet normal -4.616131e-01 -6.539567e-01  5.993780e-01
   outer loop
     vertex  5.578353e+01  3.972967e+01  4.871299e+01
     vertex  5.590801e+01  3.684058e+01  4.565668e+01
     vertex  5.867197e+01  3.769079e+01  4.871299e+01
   endloop
 endfacet
 facet normal -7.943532e-01 -4.830569e-01  3.683192e-01
   outer loop
     vertex  6.108349e+01  3.737380e+01  5.228298e+01
     vertex  6.090321e+01  3.494822e+01  4.871299e+01
     vertex  6.313979e+01  3.399237e+01  5.228298e+01
   endloop
 endfacet
 facet normal -7.025892e-01 -5.715987e-01  4.238436e-01
   outer loop
     vertex  6.108349e+01  3.737380e+01  5.228298e+01
     vertex  5.867197e+01  3.769079e+01  4.871299e+01
     vertex  6.090321e+01  3.494822e+01  4.871299e+01
   endloop
 endfacet
 facet normal -9.284528e-01 -3.521157e-01 -1.182788e-01
   outer loop
     vertex  6.436951e+01  3.228192e+01  5.613025e+01
     vertex  6.408888e+01  3.172199e+01  6.000000e+01
     vertex  6.283177e+01  3.503671e+01  6.000000e+01
   endloop
 endfacet
 facet normal -9.869893e-01 -1.241936e-01  1.021179e-01
   outer loop
     vertex  6.436951e+01  3.228192e+01  5.613025e+01
     vertex  6.458257e+01  2.820275e+01  5.322857e+01
     vertex  6.493326e+01  2.820275e+01  5.661805e+01
   endloop
 endfacet
 facet normal -9.846687e-01 -1.323004e-01  1.136849e-01
   outer loop
     vertex  6.436951e+01  3.228192e+01  5.613025e+01
     vertex  6.420753e+01  3.018154e+01  5.228298e+01
     vertex  6.458257e+01  2.820275e+01  5.322857e+01
   endloop
 endfacet
 facet normal -9.463673e-01 -2.651597e-01  1.846056e-01
   outer loop
     vertex  6.436951e+01  3.228192e+01  5.613025e+01
     vertex  6.313979e+01  3.399237e+01  5.228298e+01
     vertex  6.420753e+01  3.018154e+01  5.228298e+01
   endloop
 endfacet
 facet normal -9.847549e-01 -1.471829e-01 -9.270925e-02
   outer loop
     vertex  6.436951e+01  3.228192e+01  5.613025e+01
     vertex  6.493326e+01  2.820275e+01  5.661805e+01
     vertex  6.408888e+01  3.172199e+01  6.000000e+01
   endloop
 endfacet
 facet normal  1.007340e-01 -8.195319e-02  9.915323e-01
   outer loop
     vertex  4.651315e+01  3.020808e+01  4.184734e+01
     vertex  4.981076e+01  2.820275e+01  4.134658e+01
     vertex  4.717646e+01  3.102340e+01  4.184734e+01
   endloop
 endfacet
 facet normal  2.158442e-01 -3.057816e-01  9.273127e-01
   outer loop
     vertex  4.550678e+01  3.430011e+01  4.331648e+01
     vertex  4.717646e+01  3.102340e+01  4.184734e+01
     vertex  4.803515e+01  3.162953e+01  4.184734e+01
   endloop
 endfacet
 facet normal  1.765872e-01 -3.407977e-01  9.234034e-01
   outer loop
     vertex  4.550678e+01  3.430011e+01  4.331648e+01
     vertex  4.803515e+01  3.162953e+01  4.184734e+01
     vertex  4.731143e+01  3.523520e+01  4.331648e+01
   endloop
 endfacet
 facet normal  1.206124e-01 -5.804187e-01  8.053364e-01
   outer loop
     vertex  4.765962e+01  3.855461e+01  4.565668e+01
     vertex  4.731143e+01  3.523520e+01  4.331648e+01
     vertex  4.930145e+01  3.564873e+01  4.331648e+01
   endloop
 endfacet
 facet normal  4.187672e-02 -6.122159e-01  7.895809e-01
   outer loop
     vertex  4.765962e+01  3.855461e+01  4.565668e+01
     vertex  4.930145e+01  3.564873e+01  4.331648e+01
     vertex  5.053229e+01  3.875111e+01  4.565668e+01
   endloop
 endfacet
 facet normal -2.680598e-01 -7.542479e-01  5.993780e-01
   outer loop
     vertex  5.245212e+01  4.091365e+01  4.871299e+01
     vertex  5.335145e+01  3.816528e+01  4.565668e+01
     vertex  5.578353e+01  3.972967e+01  4.871299e+01
   endloop
 endfacet
 facet normal -1.572819e-01 -7.568822e-01  6.343436e-01
   outer loop
     vertex  5.245212e+01  4.091365e+01  4.871299e+01
     vertex  5.053229e+01  3.875111e+01  4.565668e+01
     vertex  5.335145e+01  3.816528e+01  4.565668e+01
   endloop
 endfacet
 facet normal -5.223198e-01 -7.399585e-01  4.238436e-01
   outer loop
     vertex  5.819115e+01  4.007506e+01  5.228298e+01
     vertex  5.578353e+01  3.972967e+01  4.871299e+01
     vertex  5.867197e+01  3.769079e+01  4.871299e+01
   endloop
 endfacet
 facet normal -6.345692e-01 -6.794577e-01  3.683192e-01
   outer loop
     vertex  5.819115e+01  4.007506e+01  5.228298e+01
     vertex  5.867197e+01  3.769079e+01  4.871299e+01
     vertex  6.108349e+01  3.737380e+01  5.228298e+01
   endloop
 endfacet
 facet normal -8.163068e-01 -5.634559e-01 -1.271245e-01
   outer loop
     vertex  6.272908e+01  3.605856e+01  5.613025e+01
     vertex  6.283177e+01  3.503671e+01  6.000000e+01
     vertex  6.081794e+01  3.795426e+01  6.000000e+01
   endloop
 endfacet
 facet normal -9.142272e-01 -3.971049e-01 -8.059922e-02
   outer loop
     vertex  6.272908e+01  3.605856e+01  5.613025e+01
     vertex  6.436951e+01  3.228192e+01  5.613025e+01
     vertex  6.283177e+01  3.503671e+01  6.000000e+01
   endloop
 endfacet
 facet normal -8.397342e-01 -5.106537e-01  1.846056e-01
   outer loop
     vertex  6.272908e+01  3.605856e+01  5.613025e+01
     vertex  6.108349e+01  3.737380e+01  5.228298e+01
     vertex  6.313979e+01  3.399237e+01  5.228298e+01
   endloop
 endfacet
 facet normal -9.110968e-01 -3.957452e-01  1.152753e-01
   outer loop
     vertex  6.272908e+01  3.605856e+01  5.613025e+01
     vertex  6.313979e+01  3.399237e+01  5.228298e+01
     vertex  6.436951e+01  3.228192e+01  5.613025e+01
   endloop
 endfacet
 facet normal  1.191092e-01 -5.173644e-02  9.915323e-01
   outer loop
     vertex  4.609440e+01  2.924403e+01  4.184734e+01
     vertex  4.981076e+01  2.820275e+01  4.134658e+01
     vertex  4.651315e+01  3.020808e+01  4.184734e+01
   endloop
 endfacet
 facet normal  2.903390e-01 -2.362083e-01  9.273127e-01
   outer loop
     vertex  4.402134e+01  3.291280e+01  4.331648e+01
     vertex  4.651315e+01  3.020808e+01  4.184734e+01
     vertex  4.717646e+01  3.102340e+01  4.184734e+01
   endloop
 endfacet
 facet normal  2.619849e-01 -2.805174e-01  9.234034e-01
   outer loop
     vertex  4.402134e+01  3.291280e+01  4.331648e+01
     vertex  4.717646e+01  3.102340e+01  4.184734e+01
     vertex  4.550678e+01  3.430011e+01  4.331648e+01
   endloop
 endfacet
 facet normal  2.054977e-01 -5.782151e-01  7.895809e-01
   outer loop
     vertex  4.494650e+01  3.759037e+01  4.565668e+01
     vertex  4.731143e+01  3.523520e+01  4.331648e+01
     vertex  4.765962e+01  3.855461e+01  4.565668e+01
   endloop
 endfacet
 facet normal  2.727349e-01 -5.263544e-01  8.053364e-01
   outer loop
     vertex  4.494650e+01  3.759037e+01  4.565668e+01
     vertex  4.550678e+01  3.430011e+01  4.331648e+01
     vertex  4.731143e+01  3.523520e+01  4.331648e+01
   endloop
 endfacet
 facet normal  5.275488e-02 -7.712491e-01  6.343436e-01
   outer loop
     vertex  4.892481e+01  4.115493e+01  4.871299e+01
     vertex  4.765962e+01  3.855461e+01  4.565668e+01
     vertex  5.053229e+01  3.875111e+01  4.565668e+01
   endloop
 endfacet
 facet normal -5.462574e-02 -7.986000e-01  5.993780e-01
   outer loop
     vertex  4.892481e+01  4.115493e+01  4.871299e+01
     vertex  5.053229e+01  3.875111e+01  4.565668e+01
     vertex  5.245212e+01  4.091365e+01  4.871299e+01
   endloop
 endfacet
 facet normal -3.033123e-01 -8.534391e-01  4.238436e-01
   outer loop
     vertex  5.467727e+01  4.189580e+01  5.228298e+01
     vertex  5.245212e+01  4.091365e+01  4.871299e+01
     vertex  5.578353e+01  3.972967e+01  4.871299e+01
   endloop
 endfacet
 facet normal -4.277222e-01 -8.254663e-01  3.683192e-01
   outer loop
     vertex  5.467727e+01  4.189580e+01  5.228298e+01
     vertex  5.578353e+01  3.972967e+01  4.871299e+01
     vertex  5.819115e+01  4.007506e+01  5.228298e+01
   endloop
 endfacet
 facet normal -6.573052e-01 -7.419442e-01 -1.321688e-01
   outer loop
     vertex  6.013057e+01  3.925256e+01  5.613025e+01
     vertex  6.081794e+01  3.795426e+01  6.000000e+01
     vertex  5.816440e+01  4.030508e+01  6.000000e+01
   endloop
 endfacet
 facet normal -7.735992e-01 -6.293697e-01 -7.374304e-02
   outer loop
     vertex  6.013057e+01  3.925256e+01  5.613025e+01
     vertex  6.272908e+01  3.605856e+01  5.613025e+01
     vertex  6.081794e+01  3.795426e+01  6.000000e+01
   endloop
 endfacet
 facet normal -6.708219e-01 -7.182749e-01  1.846056e-01
   outer loop
     vertex  6.013057e+01  3.925256e+01  5.613025e+01
     vertex  5.819115e+01  4.007506e+01  5.228298e+01
     vertex  6.108349e+01  3.737380e+01  5.228298e+01
   endloop
 endfacet
 facet normal -7.705401e-01 -6.268808e-01  1.152753e-01
   outer loop
     vertex  6.013057e+01  3.925256e+01  5.613025e+01
     vertex  6.108349e+01  3.737380e+01  5.228298e+01
     vertex  6.272908e+01  3.605856e+01  5.613025e+01
   endloop
 endfacet
 facet normal  0.000000e+00  0.000000e+00  0.000000e+00
   outer loop
     vertex  4.595128e+01  2.820275e+01  4.184734e+01
     vertex  4.981076e+01  2.820275e+01  4.134658e+01
     vertex  4.981076e+01  2.820275e+01  4.134658e+01
   endloop
 endfacet
 facet normal  1.286507e-01 -1.768263e-02  9.915323e-01
   outer loop
     vertex  4.595128e+01  2.820275e+01  4.184734e+01
     vertex  4.981076e+01  2.820275e+01  4.134658e+01
     vertex  4.609440e+01  2.924403e+01  4.184734e+01
   endloop
 endfacet
 facet normal  3.433007e-01 -1.491166e-01  9.273127e-01
   outer loop
     vertex  4.296528e+01  3.117617e+01  4.331648e+01
     vertex  4.609440e+01  2.924403e+01  4.184734e+01
     vertex  4.651315e+01  3.020808e+01  4.184734e+01
   endloop
 endfacet
 facet normal  3.279525e-01 -1.994323e-01  9.234034e-01
   outer loop
     vertex  4.296528e+01  3.117617e+01  4.331648e+01
     vertex  4.651315e+01  3.020808e+01  4.184734e+01
     vertex  4.402134e+01  3.291280e+01  4.331648e+01
   endloop
 endfacet
 facet normal  4.046298e-01 -4.332528e-01  8.053364e-01
   outer loop
     vertex  4.259413e+01  3.592989e+01  4.565668e+01
     vertex  4.402134e+01  3.291280e+01  4.331648e+01
     vertex  4.550678e+01  3.430011e+01  4.331648e+01
   endloop
 endfacet
 facet normal  3.538778e-01 -5.013307e-01  7.895809e-01
   outer loop
     vertex  4.259413e+01  3.592989e+01  4.565668e+01
     vertex  4.550678e+01  3.430011e+01  4.331648e+01
     vertex  4.494650e+01  3.759037e+01  4.565668e+01
   endloop
 endfacet
 facet normal  2.588791e-01 -7.284160e-01  6.343436e-01
   outer loop
     vertex  4.546321e+01  4.043560e+01  4.871299e+01
     vertex  4.494650e+01  3.759037e+01  4.565668e+01
     vertex  4.765962e+01  3.855461e+01  4.565668e+01
   endloop
 endfacet
 facet normal  1.628596e-01 -7.837236e-01  5.993780e-01
   outer loop
     vertex  4.546321e+01  4.043560e+01  4.871299e+01
     vertex  4.765962e+01  3.855461e+01  4.565668e+01
     vertex  4.892481e+01  4.115493e+01  4.871299e+01
   endloop
 endfacet
 facet normal -6.180957e-02 -9.036239e-01  4.238436e-01
   outer loop
     vertex  5.080247e+01  4.270099e+01  5.228298e+01
     vertex  4.892481e+01  4.115493e+01  4.871299e+01
     vertex  5.245212e+01  4.091365e+01  4.871299e+01
   endloop
 endfacet
 facet normal -1.891529e-01 -9.102539e-01  3.683192e-01
   outer loop
     vertex  5.080247e+01  4.270099e+01  5.228298e+01
     vertex  5.245212e+01  4.091365e+01  4.871299e+01
     vertex  5.467727e+01  4.189580e+01  5.228298e+01
   endloop
 endfacet
 facet normal -4.521578e-01 -8.726249e-01  1.846056e-01
   outer loop
     vertex  5.676668e+01  4.162706e+01  5.613025e+01
     vertex  5.467727e+01  4.189580e+01  5.228298e+01
     vertex  5.819115e+01  4.007506e+01  5.228298e+01
   endloop
 endfacet
 facet normal -4.605678e-01 -8.775387e-01 -1.334286e-01
   outer loop
     vertex  5.676668e+01  4.162706e+01  5.613025e+01
     vertex  5.816440e+01  4.030508e+01  6.000000e+01
     vertex  5.502538e+01  4.195257e+01  6.000000e+01
   endloop
 endfacet
 facet normal -5.752404e-01 -8.149301e-01 -7.062170e-02
   outer loop
     vertex  5.676668e+01  4.162706e+01  5.613025e+01
     vertex  6.013057e+01  3.925256e+01  5.613025e+01
     vertex  5.816440e+01  4.030508e+01  6.000000e+01
   endloop
 endfacet
 facet normal -5.728359e-01 -8.115236e-01  1.152753e-01
   outer loop
     vertex  5.676668e+01  4.162706e+01  5.613025e+01
     vertex  5.819115e+01  4.007506e+01  5.228298e+01
     vertex  6.013057e+01  3.925256e+01  5.613025e+01
   endloop
 endfacet
 facet normal  1.286507e-01  1.768263e-02  9.915323e-01
   outer loop
     vertex  4.609440e+01  2.716148e+01  4.184734e+01
     vertex  4.981076e+01  2.820275e+01  4.134658e+01
     vertex  4.595128e+01  2.820275e+01  4.184734e+01
   endloop
 endfacet
 facet normal  3.708014e-01 -5.096548e-02  9.273127e-01
   outer loop
     vertex  4.241691e+01  2.921902e+01  4.331648e+01
     vertex  4.595128e+01  2.820275e+01  4.184734e+01
     vertex  4.609440e+01  2.924403e+01  4.184734e+01
   endloop
 endfacet
 facet normal  3.695974e-01 -1.035563e-01  9.234034e-01
   outer loop
     vertex  4.241691e+01  2.921902e+01  4.331648e+01
     vertex  4.609440e+01  2.924403e+01  4.184734e+01
     vertex  4.296528e+01  3.117617e+01  4.331648e+01
   endloop
 endfacet
 facet normal  5.065153e-01 -3.080188e-01  8.053364e-01
   outer loop
     vertex  4.077699e+01  3.369632e+01  4.565668e+01
     vertex  4.296528e+01  3.117617e+01  4.331648e+01
     vertex  4.402134e+01  3.291280e+01  4.331648e+01
   endloop
 endfacet
 facet normal  4.760125e-01 -3.872649e-01  7.895809e-01
   outer loop
     vertex  4.077699e+01  3.369632e+01  4.565668e+01
     vertex  4.402134e+01  3.291280e+01  4.331648e+01
     vertex  4.259413e+01  3.592989e+01  4.565668e+01
   endloop
 endfacet
 facet normal  4.458034e-01 -6.315596e-01  6.343436e-01
   outer loop
     vertex  4.232405e+01  3.880902e+01  4.871299e+01
     vertex  4.259413e+01  3.592989e+01  4.565668e+01
     vertex  4.494650e+01  3.759037e+01  4.565668e+01
   endloop
 endfacet
 facet normal  3.682665e-01 -7.107220e-01  5.993780e-01
   outer loop
     vertex  4.232405e+01  3.880902e+01  4.871299e+01
     vertex  4.494650e+01  3.759037e+01  4.565668e+01
     vertex  4.546321e+01  4.043560e+01  4.871299e+01
   endloop
 endfacet
 facet normal  6.344493e-02 -9.275320e-01  3.683192e-01
   outer loop
     vertex  4.685412e+01  4.243092e+01  5.228298e+01
     vertex  4.892481e+01  4.115493e+01  4.871299e+01
     vertex  5.080247e+01  4.270099e+01  5.228298e+01
   endloop
 endfacet
 facet normal  1.842773e-01 -8.867911e-01  4.238436e-01
   outer loop
     vertex  4.685412e+01  4.243092e+01  5.228298e+01
     vertex  4.546321e+01  4.043560e+01  4.871299e+01
     vertex  4.892481e+01  4.115493e+01  4.871299e+01
   endloop
 endfacet
 facet normal -2.372562e-01 -9.625863e-01 -1.309085e-01
   outer loop
     vertex  5.288690e+01  4.300593e+01  5.613025e+01
     vertex  5.502538e+01  4.195257e+01  6.000000e+01
     vertex  5.158331e+01  4.280096e+01  6.000000e+01
   endloop
 endfacet
 facet normal -1.999592e-01 -9.622563e-01  1.846056e-01
   outer loop
     vertex  5.288690e+01  4.300593e+01  5.613025e+01
     vertex  5.080247e+01  4.270099e+01  5.228298e+01
     vertex  5.467727e+01  4.189580e+01  5.228298e+01
   endloop
 endfacet
 facet normal -3.340286e-01 -9.398664e-01 -7.124620e-02
   outer loop
     vertex  5.288690e+01  4.300593e+01  5.613025e+01
     vertex  5.676668e+01  4.162706e+01  5.613025e+01
     vertex  5.502538e+01  4.195257e+01  6.000000e+01
   endloop
 endfacet
 facet normal -3.326472e-01 -9.359794e-01  1.152753e-01
   outer loop
     vertex  5.288690e+01  4.300593e+01  5.613025e+01
     vertex  5.467727e+01  4.189580e+01  5.228298e+01
     vertex  5.676668e+01  4.162706e+01  5.613025e+01
   endloop
 endfacet
 facet normal  1.191092e-01  5.173644e-02  9.915323e-01
   outer loop
     vertex  4.651315e+01  2.619743e+01  4.184734e+01
     vertex  4.981076e+01  2.820275e+01  4.134658e+01
     vertex  4.609440e+01  2.716148e+01  4.184734e+01
   endloop
 endfacet
 facet normal  3.838308e-01 -0.000000e+00  9.234034e-01
   outer loop
     vertex  4.241691e+01  2.718649e+01  4.331648e+01
     vertex  4.595128e+01  2.820275e+01  4.184734e+01
     vertex  4.241691e+01  2.921902e+01  4.331648e+01
   endloop
 endfacet
 facet normal  3.708014e-01  5.096548e-02  9.273127e-01
   outer loop
     vertex  4.241691e+01  2.718649e+01  4.331648e+01
     vertex  4.609440e+01  2.716148e+01  4.184734e+01
     vertex  4.595128e+01  2.820275e+01  4.184734e+01
   endloop
 endfacet
 facet normal  5.708348e-01 -1.599404e-01  8.053364e-01
   outer loop
     vertex  3.962984e+01  3.105532e+01  4.565668e+01
     vertex  4.241691e+01  2.921902e+01  4.331648e+01
     vertex  4.296528e+01  3.117617e+01  4.331648e+01
   endloop
 endfacet
 facet normal  5.628435e-01 -2.444774e-01  7.895809e-01
   outer loop
     vertex  3.962984e+01  3.105532e+01  4.565668e+01
     vertex  4.296528e+01  3.117617e+01  4.331648e+01
     vertex  4.077699e+01  3.369632e+01  4.565668e+01
   endloop
 endfacet
 facet normal  5.996646e-01 -4.878633e-01  6.343436e-01
   outer loop
     vertex  3.974014e+01  3.639582e+01  4.871299e+01
     vertex  4.077699e+01  3.369632e+01  4.565668e+01
     vertex  4.259413e+01  3.592989e+01  4.565668e+01
   endloop
 endfacet
 facet normal  5.463607e-01 -5.850094e-01  5.993780e-01
   outer loop
     vertex  3.974014e+01  3.639582e+01  4.871299e+01
     vertex  4.259413e+01  3.592989e+01  4.565668e+01
     vertex  4.232405e+01  3.880902e+01  4.871299e+01
   endloop
 endfacet
 facet normal  4.166972e-01 -8.041891e-01  4.238436e-01
   outer loop
     vertex  4.312505e+01  4.110561e+01  5.228298e+01
     vertex  4.232405e+01  3.880902e+01  4.871299e+01
     vertex  4.546321e+01  4.043560e+01  4.871299e+01
   endloop
 endfacet
 facet normal  3.113374e-01 -8.760194e-01  3.683192e-01
   outer loop
     vertex  4.312505e+01  4.110561e+01  5.228298e+01
     vertex  4.546321e+01  4.043560e+01  4.871299e+01
     vertex  4.685412e+01  4.243092e+01  5.228298e+01
   endloop
 endfacet
 facet normal  0.000000e+00 -9.922071e-01 -1.245995e-01
   outer loop
     vertex  4.877898e+01  4.328692e+01  5.613025e+01
     vertex  5.158331e+01  4.280096e+01  6.000000e+01
     vertex  4.803822e+01  4.280096e+01  6.000000e+01
   endloop
 endfacet
 facet normal -6.804704e-02 -9.948126e-01 -7.561440e-02
   outer loop
     vertex  4.877898e+01  4.328692e+01  5.613025e+01
     vertex  5.288690e+01  4.300593e+01  5.613025e+01
     vertex  5.158331e+01  4.280096e+01  6.000000e+01
   endloop
 endfacet
 facet normal -6.778748e-02 -9.910179e-01  1.152753e-01
   outer loop
     vertex  4.877898e+01  4.328692e+01  5.613025e+01
     vertex  5.080247e+01  4.270099e+01  5.228298e+01
     vertex  5.288690e+01  4.300593e+01  5.613025e+01
   endloop
 endfacet
 facet normal  6.706951e-02 -9.805215e-01  1.846056e-01
   outer loop
     vertex  4.877898e+01  4.328692e+01  5.613025e+01
     vertex  4.685412e+01  4.243092e+01  5.228298e+01
     vertex  5.080247e+01  4.270099e+01  5.228298e+01
   endloop
 endfacet
 facet normal  1.007340e-01  8.195319e-02  9.915323e-01
   outer loop
     vertex  4.717646e+01  2.538211e+01  4.184734e+01
     vertex  4.981076e+01  2.820275e+01  4.134658e+01
     vertex  4.651315e+01  2.619743e+01  4.184734e+01
   endloop
 endfacet
 facet normal  3.695974e-01  1.035563e-01  9.234034e-01
   outer loop
     vertex  4.296528e+01  2.522934e+01  4.331648e+01
     vertex  4.609440e+01  2.716148e+01  4.184734e+01
     vertex  4.241691e+01  2.718649e+01  4.331648e+01
   endloop
 endfacet
 facet normal  3.433007e-01  1.491166e-01  9.273127e-01
   outer loop
     vertex  4.296528e+01  2.522934e+01  4.331648e+01
     vertex  4.651315e+01  2.619743e+01  4.184734e+01
     vertex  4.609440e+01  2.716148e+01  4.184734e+01
   endloop
 endfacet
 facet normal  5.928181e-01  0.000000e+00  8.053364e-01
   outer loop
     vertex  3.923776e+01  2.820275e+01  4.565668e+01
     vertex  4.241691e+01  2.718649e+01  4.331648e+01
     vertex  4.241691e+01  2.921902e+01  4.331648e+01
   endloop
 endfacet
 facet normal  6.079309e-01 -8.355818e-02  7.895809e-01
   outer loop
     vertex  3.923776e+01  2.820275e+01  4.565668e+01
     vertex  4.241691e+01  2.921902e+01  4.331648e+01
     vertex  3.962984e+01  3.105532e+01  4.565668e+01
   endloop
 endfacet
 facet normal  7.090513e-01 -3.079844e-01  6.343436e-01
   outer loop
     vertex  3.790313e+01  3.337497e+01  4.871299e+01
     vertex  3.962984e+01  3.105532e+01  4.565668e+01
     vertex  4.077699e+01  3.369632e+01  4.565668e+01
   endloop
 endfacet
 facet normal  6.839338e-01 -4.159093e-01  5.993780e-01
   outer loop
     vertex  3.790313e+01  3.337497e+01  4.871299e+01
     vertex  4.077699e+01  3.369632e+01  4.565668e+01
     vertex  3.974014e+01  3.639582e+01  4.871299e+01
   endloop
 endfacet
 facet normal  6.182125e-01 -6.619440e-01  4.238436e-01
   outer loop
     vertex  3.989182e+01  3.882335e+01  5.228298e+01
     vertex  3.974014e+01  3.639582e+01  4.871299e+01
     vertex  4.232405e+01  3.880902e+01  4.871299e+01
   endloop
 endfacet
 facet normal  5.361393e-01 -7.595364e-01  3.683192e-01
   outer loop
     vertex  3.989182e+01  3.882335e+01  5.228298e+01
     vertex  4.232405e+01  3.880902e+01  4.871299e+01
     vertex  4.312505e+01  4.110561e+01  5.228298e+01
   endloop
 endfacet
 facet normal  2.377423e-01 -9.645583e-01 -1.144812e-01
   outer loop
     vertex  4.474758e+01  4.244919e+01  5.613025e+01
     vertex  4.803822e+01  4.280096e+01  6.000000e+01
     vertex  4.459615e+01  4.195257e+01  6.000000e+01
   endloop
 endfacet
 facet normal  3.291239e-01 -9.260660e-01  1.846056e-01
   outer loop
     vertex  4.474758e+01  4.244919e+01  5.613025e+01
     vertex  4.312505e+01  4.110561e+01  5.228298e+01
     vertex  4.685412e+01  4.243092e+01  5.228298e+01
   endloop
 endfacet
 facet normal  2.027419e-01 -9.756476e-01 -8.371057e-02
   outer loop
     vertex  4.474758e+01  4.244919e+01  5.613025e+01
     vertex  4.877898e+01  4.328692e+01  5.613025e+01
     vertex  4.803822e+01  4.280096e+01  6.000000e+01
   endloop
 endfacet
 facet normal  2.020997e-01 -9.725571e-01  1.152753e-01
   outer loop
     vertex  4.474758e+01  4.244919e+01  5.613025e+01
     vertex  4.685412e+01  4.243092e+01  5.228298e+01
     vertex  4.877898e+01  4.328692e+01  5.613025e+01
   endloop
 endfacet
 facet normal  7.488781e-02  1.060919e-01  9.915323e-01
   outer loop
     vertex  4.803515e+01  2.477598e+01  4.184734e+01
     vertex  4.981076e+01  2.820275e+01  4.134658e+01
     vertex  4.717646e+01  2.538211e+01  4.184734e+01
   endloop
 endfacet
 facet normal  2.903390e-01  2.362083e-01  9.273127e-01
   outer loop
     vertex  4.402134e+01  2.349271e+01  4.331648e+01
     vertex  4.717646e+01  2.538211e+01  4.184734e+01
     vertex  4.651315e+01  2.619743e+01  4.184734e+01
   endloop
 endfacet
 facet normal  3.279525e-01  1.994323e-01  9.234034e-01
   outer loop
     vertex  4.402134e+01  2.349271e+01  4.331648e+01
     vertex  4.651315e+01  2.619743e+01  4.184734e+01
     vertex  4.296528e+01  2.522934e+01  4.331648e+01
   endloop
 endfacet
 facet normal  5.708348e-01  1.599404e-01  8.053364e-01
   outer loop
     vertex  3.962984e+01  2.535019e+01  4.565668e+01
     vertex  4.296528e+01  2.522934e+01  4.331648e+01
     vertex  4.241691e+01  2.718649e+01  4.331648e+01
   endloop
 endfacet
 facet normal  6.079309e-01  8.355818e-02  7.895809e-01
   outer loop
     vertex  3.962984e+01  2.535019e+01  4.565668e+01
     vertex  4.241691e+01  2.718649e+01  4.331648e+01
     vertex  3.923776e+01  2.820275e+01  4.565668e+01
   endloop
 endfacet
 facet normal  7.658510e-01 -1.052638e-01  6.343436e-01
   outer loop
     vertex  3.694925e+01  2.997053e+01  4.871299e+01
     vertex  3.923776e+01  2.820275e+01  4.565668e+01
     vertex  3.962984e+01  3.105532e+01  4.565668e+01
   endloop
 endfacet
 facet normal  7.707827e-01 -2.159632e-01  5.993780e-01
   outer loop
     vertex  3.694925e+01  2.997053e+01  4.871299e+01
     vertex  3.962984e+01  3.105532e+01  4.565668e+01
     vertex  3.790313e+01  3.337497e+01  4.871299e+01
   endloop
 endfacet
 facet normal  7.738779e-01 -4.706056e-01  4.238436e-01
   outer loop
     vertex  3.739424e+01  3.575341e+01  5.228298e+01
     vertex  3.790313e+01  3.337497e+01  4.871299e+01
     vertex  3.974014e+01  3.639582e+01  4.871299e+01
   endloop
 endfacet
 facet normal  7.211783e-01 -5.867221e-01  3.683192e-01
   outer loop
     vertex  3.739424e+01  3.575341e+01  5.228298e+01
     vertex  3.974014e+01  3.639582e+01  4.871299e+01
     vertex  3.989182e+01  3.882335e+01  5.228298e+01
   endloop
 endfacet
 facet normal  4.623691e-01 -8.809707e-01 -1.005254e-01
   outer loop
     vertex  4.109170e+01  4.055486e+01  5.613025e+01
     vertex  4.459615e+01  4.195257e+01  6.000000e+01
     vertex  4.145713e+01  4.030508e+01  6.000000e+01
   endloop
 endfacet
 facet normal  6.590797e-01 -7.439472e-01 -1.102571e-01
   outer loop
     vertex  4.109170e+01  4.055486e+01  5.613025e+01
     vertex  4.145713e+01  4.030508e+01  6.000000e+01
     vertex  3.880359e+01  3.795426e+01  6.000000e+01
   endloop
 endfacet
 facet normal  4.579622e-01 -8.838268e-01 -9.550285e-02
   outer loop
     vertex  4.109170e+01  4.055486e+01  5.613025e+01
     vertex  4.474758e+01  4.244919e+01  5.613025e+01
     vertex  4.459615e+01  4.195257e+01  6.000000e+01
   endloop
 endfacet
 facet normal  5.667687e-01 -8.029284e-01  1.846056e-01
   outer loop
     vertex  4.109170e+01  4.055486e+01  5.613025e+01
     vertex  3.989182e+01  3.882335e+01  5.228298e+01
     vertex  4.312505e+01  4.110561e+01  5.228298e+01
   endloop
 endfacet
 facet normal  4.569981e-01 -8.819662e-01  1.152753e-01
   outer loop
     vertex  4.109170e+01  4.055486e+01  5.613025e+01
     vertex  4.312505e+01  4.110561e+01  5.228298e+01
     vertex  4.474758e+01  4.244919e+01  5.613025e+01
   endloop
 endfacet
 facet normal  4.348753e-02  1.223622e-01  9.915323e-01
   outer loop
     vertex  4.902553e+01  2.442400e+01  4.184734e+01
     vertex  4.981076e+01  2.820275e+01  4.134658e+01
     vertex  4.803515e+01  2.477598e+01  4.184734e+01
   endloop
 endfacet
 facet normal  2.158442e-01  3.057816e-01  9.273127e-01
   outer loop
     vertex  4.550678e+01  2.210540e+01  4.331648e+01
     vertex  4.803515e+01  2.477598e+01  4.184734e+01
     vertex  4.717646e+01  2.538211e+01  4.184734e+01
   endloop
 endfacet
 facet normal  2.619849e-01  2.805174e-01  9.234034e-01
   outer loop
     vertex  4.550678e+01  2.210540e+01  4.331648e+01
     vertex  4.717646e+01  2.538211e+01  4.184734e+01
     vertex  4.402134e+01  2.349271e+01  4.331648e+01
   endloop
 endfacet
 facet normal  5.628435e-01  2.444774e-01  7.895809e-01
   outer loop
     vertex  4.077699e+01  2.270919e+01  4.565668e+01
     vertex  4.296528e+01  2.522934e+01  4.331648e+01
     vertex  3.962984e+01  2.535019e+01  4.565668e+01
   endloop
 endfacet
 facet normal  5.065153e-01  3.080188e-01  8.053364e-01
   outer loop
     vertex  4.077699e+01  2.270919e+01  4.565668e+01
     vertex  4.402134e+01  2.349271e+01  4.331648e+01
     vertex  4.296528e+01  2.522934e+01  4.331648e+01
   endloop
 endfacet
 facet normal  7.658510e-01  1.052638e-01  6.343436e-01
   outer loop
     vertex  3.694925e+01  2.643498e+01  4.871299e+01
     vertex  3.962984e+01  2.535019e+01  4.565668e+01
     vertex  3.923776e+01  2.820275e+01  4.565668e+01
   endloop
 endfacet
 facet normal  8.004661e-01 -0.000000e+00  5.993780e-01
   outer loop
     vertex  3.694925e+01  2.643498e+01  4.871299e+01
     vertex  3.923776e+01  2.820275e+01  4.565668e+01
     vertex  3.694925e+01  2.997053e+01  4.871299e+01
   endloop
 endfacet
 facet normal  8.721483e-01 -2.443645e-01  4.238436e-01
   outer loop
     vertex  3.581754e+01  3.212347e+01  5.228298e+01
     vertex  3.694925e+01  2.997053e+01  4.871299e+01
     vertex  3.790313e+01  3.337497e+01  4.871299e+01
   endloop
 endfacet
 facet normal  8.527308e-01 -3.703932e-01  3.683192e-01
   outer loop
     vertex  3.581754e+01  3.212347e+01  5.228298e+01
     vertex  3.790313e+01  3.337497e+01  4.871299e+01
     vertex  3.739424e+01  3.575341e+01  5.228298e+01
   endloop
 endfacet
 facet normal  8.168715e-01 -5.638457e-01 -1.216512e-01
   outer loop
     vertex  3.808247e+01  3.774443e+01  5.613025e+01
     vertex  3.880359e+01  3.795426e+01  6.000000e+01
     vertex  3.678976e+01  3.503671e+01  6.000000e+01
   endloop
 endfacet
 facet normal  6.799512e-01 -7.280500e-01 -8.723277e-02
   outer loop
     vertex  3.808247e+01  3.774443e+01  5.613025e+01
     vertex  4.109170e+01  4.055486e+01  5.613025e+01
     vertex  3.880359e+01  3.795426e+01  6.000000e+01
   endloop
 endfacet
 facet normal  7.623789e-01 -6.202412e-01  1.846056e-01
   outer loop
     vertex  3.808247e+01  3.774443e+01  5.613025e+01
     vertex  3.739424e+01  3.575341e+01  5.228298e+01
     vertex  3.989182e+01  3.882335e+01  5.228298e+01
   endloop
 endfacet
 facet normal  6.780030e-01 -7.259639e-01  1.152753e-01
   outer loop
     vertex  3.808247e+01  3.774443e+01  5.613025e+01
     vertex  3.989182e+01  3.882335e+01  5.228298e+01
     vertex  4.109170e+01  4.055486e+01  5.613025e+01
   endloop
 endfacet
 facet normal  8.861972e-03  1.295574e-01  9.915323e-01
   outer loop
     vertex  5.007415e+01  2.435227e+01  4.184734e+01
     vertex  4.981076e+01  2.820275e+01  4.134658e+01
     vertex  4.902553e+01  2.442400e+01  4.184734e+01
   endloop
 endfacet
 facet normal  1.765872e-01  3.407977e-01  9.234034e-01
   outer loop
     vertex  4.731143e+01  2.117031e+01  4.331648e+01
     vertex  4.803515e+01  2.477598e+01  4.184734e+01
     vertex  4.550678e+01  2.210540e+01  4.331648e+01
   endloop
 endfacet
 facet normal  1.253413e-01  3.526765e-01  9.273127e-01
   outer loop
     vertex  4.731143e+01  2.117031e+01  4.331648e+01
     vertex  4.902553e+01  2.442400e+01  4.184734e+01
     vertex  4.803515e+01  2.477598e+01  4.184734e+01
   endloop
 endfacet
 facet normal  4.046298e-01  4.332528e-01  8.053364e-01
   outer loop
     vertex  4.259413e+01  2.047562e+01  4.565668e+01
     vertex  4.550678e+01  2.210540e+01  4.331648e+01
     vertex  4.402134e+01  2.349271e+01  4.331648e+01
   endloop
 endfacet
 facet normal  4.760125e-01  3.872649e-01  7.895809e-01
   outer loop
     vertex  4.259413e+01  2.047562e+01  4.565668e+01
     vertex  4.402134e+01  2.349271e+01  4.331648e+01
     vertex  4.077699e+01  2.270919e+01  4.565668e+01
   endloop
 endfacet
 facet normal  7.707827e-01  2.159632e-01  5.993780e-01
   outer loop
     vertex  3.790313e+01  2.303054e+01  4.871299e+01
     vertex  3.962984e+01  2.535019e+01  4.565668e+01
     vertex  3.694925e+01  2.643498e+01  4.871299e+01
   endloop
 endfacet
 facet normal  7.090513e-01  3.079844e-01  6.343436e-01
   outer loop
     vertex  3.790313e+01  2.303054e+01  4.871299e+01
     vertex  4.077699e+01  2.270919e+01  4.565668e+01
     vertex  3.962984e+01  2.535019e+01  4.565668e+01
   endloop
 endfacet
 facet normal  9.210401e-01 -1.265940e-01  3.683192e-01
   outer loop
     vertex  3.527865e+01  2.820275e+01  5.228298e+01
     vertex  3.694925e+01  2.997053e+01  4.871299e+01
     vertex  3.581754e+01  3.212347e+01  5.228298e+01
   endloop
 endfacet
 facet normal  9.057354e-01  0.000000e+00  4.238436e-01
   outer loop
     vertex  3.527865e+01  2.820275e+01  5.228298e+01
     vertex  3.694925e+01  2.643498e+01  4.871299e+01
     vertex  3.694925e+01  2.997053e+01  4.871299e+01
   endloop
 endfacet
 facet normal  9.014469e-01 -3.915536e-01  1.846056e-01
   outer loop
     vertex  3.594307e+01  3.422634e+01  5.613025e+01
     vertex  3.581754e+01  3.212347e+01  5.228298e+01
     vertex  3.739424e+01  3.575341e+01  5.228298e+01
   endloop
 endfacet
 facet normal  9.271761e-01 -3.516315e-01 -1.292273e-01
   outer loop
     vertex  3.594307e+01  3.422634e+01  5.613025e+01
     vertex  3.678976e+01  3.503671e+01  6.000000e+01
     vertex  3.553265e+01  3.172199e+01  6.000000e+01
   endloop
 endfacet
 facet normal  8.518230e-01 -5.180050e-01 -7.790011e-02
   outer loop
     vertex  3.594307e+01  3.422634e+01  5.613025e+01
     vertex  3.808247e+01  3.774443e+01  5.613025e+01
     vertex  3.678976e+01  3.503671e+01  6.000000e+01
   endloop
 endfacet
 facet normal  8.487235e-01 -5.161202e-01  1.152753e-01
   outer loop
     vertex  3.594307e+01  3.422634e+01  5.613025e+01
     vertex  3.739424e+01  3.575341e+01  5.228298e+01
     vertex  3.808247e+01  3.774443e+01  5.613025e+01
   endloop
 endfacet
 facet normal -2.642083e-02  1.271440e-01  9.915323e-01
   outer loop
     vertex  5.110323e+01  2.456612e+01  4.184734e+01
     vertex  4.981076e+01  2.820275e+01  4.134658e+01
     vertex  5.007415e+01  2.435227e+01  4.184734e+01
   endloop
 endfacet
 facet normal  7.809269e-02  3.758027e-01  9.234034e-01
   outer loop
     vertex  4.930145e+01  2.075678e+01  4.331648e+01
     vertex  4.902553e+01  2.442400e+01  4.184734e+01
     vertex  4.731143e+01  2.117031e+01  4.331648e+01
   endloop
 endfacet
 facet normal  2.554228e-02  3.734150e-01  9.273127e-01
   outer loop
     vertex  4.930145e+01  2.075678e+01  4.331648e+01
     vertex  5.007415e+01  2.435227e+01  4.184734e+01
     vertex  4.902553e+01  2.442400e+01  4.184734e+01
   endloop
 endfacet
 facet normal  3.538778e-01  5.013307e-01  7.895809e-01
   outer loop
     vertex  4.494650e+01  1.881514e+01  4.565668e+01
     vertex  4.550678e+01  2.210540e+01  4.331648e+01
     vertex  4.259413e+01  2.047562e+01  4.565668e+01
   endloop
 endfacet
 facet normal  2.727349e-01  5.263544e-01  8.053364e-01
   outer loop
     vertex  4.494650e+01  1.881514e+01  4.565668e+01
     vertex  4.731143e+01  2.117031e+01  4.331648e+01
     vertex  4.550678e+01  2.210540e+01  4.331648e+01
   endloop
 endfacet
 facet normal  5.996646e-01  4.878633e-01  6.343436e-01
   outer loop
     vertex  3.974014e+01  2.000969e+01  4.871299e+01
     vertex  4.259413e+01  2.047562e+01  4.565668e+01
     vertex  4.077699e+01  2.270919e+01  4.565668e+01
   endloop
 endfacet
 facet normal  6.839338e-01  4.159093e-01  5.993780e-01
   outer loop
     vertex  3.974014e+01  2.000969e+01  4.871299e+01
     vertex  4.077699e+01  2.270919e+01  4.565668e+01
     vertex  3.790313e+01  2.303054e+01  4.871299e+01
   endloop
 endfacet
 facet normal  8.721483e-01  2.443645e-01  4.238436e-01
   outer loop
     vertex  3.581754e+01  2.428204e+01  5.228298e+01
     vertex  3.790313e+01  2.303054e+01  4.871299e+01
     vertex  3.694925e+01  2.643498e+01  4.871299e+01
   endloop
 endfacet
 facet normal  9.210401e-01  1.265940e-01  3.683192e-01
   outer loop
     vertex  3.581754e+01  2.428204e+01  5.228298e+01
     vertex  3.694925e+01  2.643498e+01  4.871299e+01
     vertex  3.527865e+01  2.820275e+01  5.228298e+01
   endloop
 endfacet
 facet normal  9.603982e-01 -2.690910e-01 -7.228678e-02
   outer loop
     vertex  3.483218e+01  3.026151e+01  5.613025e+01
     vertex  3.594307e+01  3.422634e+01  5.613025e+01
     vertex  3.553265e+01  3.172199e+01  6.000000e+01
   endloop
 endfacet
 facet normal  9.838885e-01 -1.194657e-01 -1.330087e-01
   outer loop
     vertex  3.483218e+01  3.026151e+01  5.613025e+01
     vertex  3.553265e+01  3.172199e+01  6.000000e+01
     vertex  3.510534e+01  2.820275e+01  6.000000e+01
   endloop
 endfacet
 facet normal  9.736587e-01 -1.338263e-01  1.846056e-01
   outer loop
     vertex  3.483218e+01  3.026151e+01  5.613025e+01
     vertex  3.527865e+01  2.820275e+01  5.228298e+01
     vertex  3.581754e+01  3.212347e+01  5.228298e+01
   endloop
 endfacet
 facet normal  9.564981e-01 -2.679982e-01  1.152753e-01
   outer loop
     vertex  3.483218e+01  3.026151e+01  5.613025e+01
     vertex  3.581754e+01  3.212347e+01  5.228298e+01
     vertex  3.594307e+01  3.422634e+01  5.613025e+01
   endloop
 endfacet
 facet normal -5.974413e-02  1.153009e-01  9.915323e-01
   outer loop
     vertex  5.203645e+01  2.504967e+01  4.184734e+01
     vertex  4.981076e+01  2.820275e+01  4.134658e+01
     vertex  5.110323e+01  2.456612e+01  4.184734e+01
   endloop
 endfacet
 facet normal -2.619354e-02  3.829360e-01  9.234034e-01
   outer loop
     vertex  5.132923e+01  2.089549e+01  4.331648e+01
     vertex  5.007415e+01  2.435227e+01  4.184734e+01
     vertex  4.930145e+01  2.075678e+01  4.331648e+01
   endloop
 endfacet
 facet normal -7.615104e-02  3.664589e-01  9.273127e-01
   outer loop
     vertex  5.132923e+01  2.089549e+01  4.331648e+01
     vertex  5.110323e+01  2.456612e+01  4.184734e+01
     vertex  5.007415e+01  2.435227e+01  4.184734e+01
   endloop
 endfacet
 facet normal  2.054977e-01  5.782151e-01  7.895809e-01
   outer loop
     vertex  4.765962e+01  1.785090e+01  4.565668e+01
     vertex  4.731143e+01  2.117031e+01  4.331648e+01
     vertex  4.494650e+01  1.881514e+01  4.565668e+01
   endloop
 endfacet
 facet normal  1.206124e-01  5.804187e-01  8.053364e-01
   outer loop
     vertex  4.765962e+01  1.785090e+01  4.565668e+01
     vertex  4.930145e+01  2.075678e+01  4.331648e+01
     vertex  4.731143e+01  2.117031e+01  4.331648e+01
   endloop
 endfacet
 facet normal  4.458034e-01  6.315596e-01  6.343436e-01
   outer loop
     vertex  4.232405e+01  1.759649e+01  4.871299e+01
     vertex  4.494650e+01  1.881514e+01  4.565668e+01
     vertex  4.259413e+01  2.047562e+01  4.565668e+01
   endloop
 endfacet
 facet normal  5.463607e-01  5.850094e-01  5.993780e-01
   outer loop
     vertex  4.232405e+01  1.759649e+01  4.871299e+01
     vertex  4.259413e+01  2.047562e+01  4.565668e+01
     vertex  3.974014e+01  2.000969e+01  4.871299e+01
   endloop
 endfacet
 facet normal  7.738779e-01  4.706056e-01  4.238436e-01
   outer loop
     vertex  3.739424e+01  2.065210e+01  5.228298e+01
     vertex  3.974014e+01  2.000969e+01  4.871299e+01
     vertex  3.790313e+01  2.303054e+01  4.871299e+01
   endloop
 endfacet
 facet normal  8.527308e-01  3.703932e-01  3.683192e-01
   outer loop
     vertex  3.739424e+01  2.065210e+01  5.228298e+01
     vertex  3.790313e+01  2.303054e+01  4.871299e+01
     vertex  3.581754e+01  2.428204e+01  5.228298e+01
   endloop
 endfacet
 facet normal  9.838885e-01  1.194657e-01 -1.330087e-01
   outer loop
     vertex  3.483218e+01  2.614400e+01  5.613025e+01
     vertex  3.510534e+01  2.820275e+01  6.000000e+01
     vertex  3.553265e+01  2.468352e+01  6.000000e+01
   endloop
 endfacet
 facet normal  9.975179e-01 -1.721374e-15 -7.041350e-02
   outer loop
     vertex  3.483218e+01  2.614400e+01  5.613025e+01
     vertex  3.483218e+01  3.026151e+01  5.613025e+01
     vertex  3.510534e+01  2.820275e+01  6.000000e+01
   endloop
 endfacet
 facet normal  9.736587e-01  1.338263e-01  1.846056e-01
   outer loop
     vertex  3.483218e+01  2.614400e+01  5.613025e+01
     vertex  3.581754e+01  2.428204e+01  5.228298e+01
     vertex  3.527865e+01  2.820275e+01  5.228298e+01
   endloop
 endfacet
 facet normal  9.933336e-01 -1.714153e-15  1.152753e-01
   outer loop
     vertex  3.483218e+01  2.614400e+01  5.613025e+01
     vertex  3.527865e+01  2.820275e+01  5.228298e+01
     vertex  3.483218e+01  3.026151e+01  5.613025e+01
   endloop
 endfacet
 facet normal -8.863647e-02  9.490649e-02  9.915323e-01
   outer loop
     vertex  5.280461e+01  2.576708e+01  4.184734e+01
     vertex  4.981076e+01  2.820275e+01  4.134658e+01
     vertex  5.203645e+01  2.504967e+01  4.184734e+01
   endloop
 endfacet
 facet normal -1.721966e-01  3.323243e-01  9.273127e-01
   outer loop
     vertex  5.324440e+01  2.157614e+01  4.331648e+01
     vertex  5.203645e+01  2.504967e+01  4.184734e+01
     vertex  5.110323e+01  2.456612e+01  4.184734e+01
   endloop
 endfacet
 facet normal -1.285371e-01  3.616688e-01  9.234034e-01
   outer loop
     vertex  5.324440e+01  2.157614e+01  4.331648e+01
     vertex  5.110323e+01  2.456612e+01  4.184734e+01
     vertex  5.132923e+01  2.089549e+01  4.331648e+01
   endloop
 endfacet
 facet normal  4.187672e-02  6.122159e-01  7.895809e-01
   outer loop
     vertex  5.053229e+01  1.765440e+01  4.565668e+01
     vertex  4.930145e+01  2.075678e+01  4.331648e+01
     vertex  4.765962e+01  1.785090e+01  4.565668e+01
   endloop
 endfacet
 facet normal -4.045534e-02  5.914361e-01  8.053364e-01
   outer loop
     vertex  5.053229e+01  1.765440e+01  4.565668e+01
     vertex  5.132923e+01  2.089549e+01  4.331648e+01
     vertex  4.930145e+01  2.075678e+01  4.331648e+01
   endloop
 endfacet
 facet normal  2.588791e-01  7.284160e-01  6.343436e-01
   outer loop
     vertex  4.546321e+01  1.596991e+01  4.871299e+01
     vertex  4.765962e+01  1.785090e+01  4.565668e+01
     vertex  4.494650e+01  1.881514e+01  4.565668e+01
   endloop
 endfacet
 facet normal  3.682665e-01  7.107220e-01  5.993780e-01
   outer loop
     vertex  4.546321e+01  1.596991e+01  4.871299e+01
     vertex  4.494650e+01  1.881514e+01  4.565668e+01
     vertex  4.232405e+01  1.759649e+01  4.871299e+01
   endloop
 endfacet
 facet normal  6.182125e-01  6.619440e-01  4.238436e-01
   outer loop
     vertex  3.989182e+01  1.758216e+01  5.228298e+01
     vertex  4.232405e+01  1.759649e+01  4.871299e+01
     vertex  3.974014e+01  2.000969e+01  4.871299e+01
   endloop
 endfacet
 facet normal  7.211783e-01  5.867221e-01  3.683192e-01
   outer loop
     vertex  3.989182e+01  1.758216e+01  5.228298e+01
     vertex  3.974014e+01  2.000969e+01  4.871299e+01
     vertex  3.739424e+01  2.065210e+01  5.228298e+01
   endloop
 endfacet
 facet normal  9.271761e-01  3.516315e-01 -1.292273e-01
   outer loop
     vertex  3.594307e+01  2.217916e+01  5.613025e+01
     vertex  3.553265e+01  2.468352e+01  6.000000e+01
     vertex  3.678976e+01  2.136880e+01  6.000000e+01
   endloop
 endfacet
 facet normal  9.603982e-01  2.690910e-01 -7.228678e-02
   outer loop
     vertex  3.594307e+01  2.217916e+01  5.613025e+01
     vertex  3.483218e+01  2.614400e+01  5.613025e+01
     vertex  3.553265e+01  2.468352e+01  6.000000e+01
   endloop
 endfacet
 facet normal  9.014469e-01  3.915536e-01  1.846056e-01
   outer loop
     vertex  3.594307e+01  2.217916e+01  5.613025e+01
     vertex  3.739424e+01  2.065210e+01  5.228298e+01
     vertex  3.581754e+01  2.428204e+01  5.228298e+01
   endloop
 endfacet
 facet normal  9.564981e-01  2.679982e-01  1.152753e-01
   outer loop
     vertex  3.594307e+01  2.217916e+01  5.613025e+01
     vertex  3.581754e+01  2.428204e+01  5.228298e+01
     vertex  3.483218e+01  2.614400e+01  5.613025e+01
   endloop
 endfacet
 facet normal -1.109551e-01  6.747326e-02  9.915323e-01
   outer loop
     vertex  5.335073e+01  2.666513e+01  4.184734e+01
     vertex  4.981076e+01  2.820275e+01  4.134658e+01
     vertex  5.280461e+01  2.576708e+01  4.184734e+01
   endloop
 endfacet
 facet normal -2.554711e-01  2.735428e-01  9.273127e-01
   outer loop
     vertex  5.490491e+01  2.274825e+01  4.331648e+01
     vertex  5.280461e+01  2.576708e+01  4.184734e+01
     vertex  5.203645e+01  2.504967e+01  4.184734e+01
   endloop
 endfacet
 facet normal -2.213477e-01  3.135782e-01  9.234034e-01
   outer loop
     vertex  5.490491e+01  2.274825e+01  4.331648e+01
     vertex  5.203645e+01  2.504967e+01  4.184734e+01
     vertex  5.324440e+01  2.157614e+01  4.331648e+01
   endloop
 endfacet
 facet normal -1.985227e-01  5.585893e-01  8.053364e-01
   outer loop
     vertex  5.335145e+01  1.824023e+01  4.565668e+01
     vertex  5.324440e+01  2.157614e+01  4.331648e+01
     vertex  5.132923e+01  2.089549e+01  4.331648e+01
   endloop
 endfacet
 facet normal -1.248501e-01  6.008115e-01  7.895809e-01
   outer loop
     vertex  5.335145e+01  1.824023e+01  4.565668e+01
     vertex  5.132923e+01  2.089549e+01  4.331648e+01
     vertex  5.053229e+01  1.765440e+01  4.565668e+01
   endloop
 endfacet
 facet normal  1.628596e-01  7.837236e-01  5.993780e-01
   outer loop
     vertex  4.892481e+01  1.525058e+01  4.871299e+01
     vertex  4.765962e+01  1.785090e+01  4.565668e+01
     vertex  4.546321e+01  1.596991e+01  4.871299e+01
   endloop
 endfacet
 facet normal  5.275488e-02  7.712491e-01  6.343436e-01
   outer loop
     vertex  4.892481e+01  1.525058e+01  4.871299e+01
     vertex  5.053229e+01  1.765440e+01  4.565668e+01
     vertex  4.765962e+01  1.785090e+01  4.565668e+01
   endloop
 endfacet
 facet normal  4.166972e-01  8.041891e-01  4.238436e-01
   outer loop
     vertex  4.312505e+01  1.529990e+01  5.228298e+01
     vertex  4.546321e+01  1.596991e+01  4.871299e+01
     vertex  4.232405e+01  1.759649e+01  4.871299e+01
   endloop
 endfacet
 facet normal  5.361393e-01  7.595364e-01  3.683192e-01
   outer loop
     vertex  4.312505e+01  1.529990e+01  5.228298e+01
     vertex  4.232405e+01  1.759649e+01  4.871299e+01
     vertex  3.989182e+01  1.758216e+01  5.228298e+01
   endloop
 endfacet
 facet normal  8.168715e-01  5.638457e-01 -1.216512e-01
   outer loop
     vertex  3.808247e+01  1.866108e+01  5.613025e+01
     vertex  3.678976e+01  2.136880e+01  6.000000e+01
     vertex  3.880359e+01  1.845125e+01  6.000000e+01
   endloop
 endfacet
 facet normal  7.623789e-01  6.202412e-01  1.846056e-01
   outer loop
     vertex  3.808247e+01  1.866108e+01  5.613025e+01
     vertex  3.989182e+01  1.758216e+01  5.228298e+01
     vertex  3.739424e+01  2.065210e+01  5.228298e+01
   endloop
 endfacet
 facet normal  8.518230e-01  5.180050e-01 -7.790011e-02
   outer loop
     vertex  3.808247e+01  1.866108e+01  5.613025e+01
     vertex  3.594307e+01  2.217916e+01  5.613025e+01
     vertex  3.678976e+01  2.136880e+01  6.000000e+01
   endloop
 endfacet
 facet normal  8.487235e-01  5.161202e-01  1.152753e-01
   outer loop
     vertex  3.808247e+01  1.866108e+01  5.613025e+01
     vertex  3.739424e+01  2.065210e+01  5.228298e+01
     vertex  3.594307e+01  2.217916e+01  5.613025e+01
   endloop
 endfacet
 facet normal -1.117606e-01  1.261258e-01  9.856987e-01
   outer loop
     vertex  5.363430e+01  2.767722e+01  4.184734e+01
     vertex  5.319664e+01  2.820275e+01  4.173048e+01
     vertex  4.981076e+01  2.820275e+01  4.134658e+01
   endloop
 endfacet
 facet normal -3.315187e-01 -6.680821e-02  9.410802e-01
   outer loop
     vertex  5.363430e+01  2.767722e+01  4.184734e+01
     vertex  5.641062e+01  2.820275e+01  4.286268e+01
     vertex  5.319664e+01  2.820275e+01  4.173048e+01
   endloop
 endfacet
 facet normal -1.250446e-01  3.503586e-02  9.915323e-01
   outer loop
     vertex  5.363430e+01  2.767722e+01  4.184734e+01
     vertex  4.981076e+01  2.820275e+01  4.134658e+01
     vertex  5.335073e+01  2.666513e+01  4.184734e+01
   endloop
 endfacet
 facet normal -2.977419e-01  2.422310e-01  9.234034e-01
   outer loop
     vertex  5.618761e+01  2.432491e+01  4.331648e+01
     vertex  5.280461e+01  2.576708e+01  4.184734e+01
     vertex  5.490491e+01  2.274825e+01  4.331648e+01
   endloop
 endfacet
 facet normal -3.197985e-01  1.944738e-01  9.273127e-01
   outer loop
     vertex  5.618761e+01  2.432491e+01  4.331648e+01
     vertex  5.335073e+01  2.666513e+01  4.184734e+01
     vertex  5.280461e+01  2.576708e+01  4.184734e+01
   endloop
 endfacet
 facet normal -2.823173e-01  5.448476e-01  7.895809e-01
   outer loop
     vertex  5.590801e+01  1.956493e+01  4.565668e+01
     vertex  5.324440e+01  2.157614e+01  4.331648e+01
     vertex  5.335145e+01  1.824023e+01  4.565668e+01
   endloop
 endfacet
 facet normal -3.418665e-01  4.843145e-01  8.053364e-01
   outer loop
     vertex  5.590801e+01  1.956493e+01  4.565668e+01
     vertex  5.490491e+01  2.274825e+01  4.331648e+01
     vertex  5.324440e+01  2.157614e+01  4.331648e+01
   endloop
 endfacet
 facet normal -1.572819e-01  7.568822e-01  6.343436e-01
   outer loop
     vertex  5.245212e+01  1.549186e+01  4.871299e+01
     vertex  5.335145e+01  1.824023e+01  4.565668e+01
     vertex  5.053229e+01  1.765440e+01  4.565668e+01
   endloop
 endfacet
 facet normal -5.462574e-02  7.986000e-01  5.993780e-01
   outer loop
     vertex  5.245212e+01  1.549186e+01  4.871299e+01
     vertex  5.053229e+01  1.765440e+01  4.565668e+01
     vertex  4.892481e+01  1.525058e+01  4.871299e+01
   endloop
 endfacet
 facet normal  1.842773e-01  8.867911e-01  4.238436e-01
   outer loop
     vertex  4.685412e+01  1.397459e+01  5.228298e+01
     vertex  4.892481e+01  1.525058e+01  4.871299e+01
     vertex  4.546321e+01  1.596991e+01  4.871299e+01
   endloop
 endfacet
 facet normal  3.113374e-01  8.760194e-01  3.683192e-01
   outer loop
     vertex  4.685412e+01  1.397459e+01  5.228298e+01
     vertex  4.546321e+01  1.596991e+01  4.871299e+01
     vertex  4.312505e+01  1.529990e+01  5.228298e+01
   endloop
 endfacet
 facet normal  5.667687e-01  8.029284e-01  1.846056e-01
   outer loop
     vertex  4.109170e+01  1.585065e+01  5.613025e+01
     vertex  4.312505e+01  1.529990e+01  5.228298e+01
     vertex  3.989182e+01  1.758216e+01  5.228298e+01
   endloop
 endfacet
 facet normal  6.590797e-01  7.439472e-01 -1.102571e-01
   outer loop
     vertex  4.109170e+01  1.585065e+01  5.613025e+01
     vertex  3.880359e+01  1.845125e+01  6.000000e+01
     vertex  4.145713e+01  1.610043e+01  6.000000e+01
   endloop
 endfacet
 facet normal  4.623691e-01  8.809707e-01 -1.005254e-01
   outer loop
     vertex  4.109170e+01  1.585065e+01  5.613025e+01
     vertex  4.145713e+01  1.610043e+01  6.000000e+01
     vertex  4.459615e+01  1.445294e+01  6.000000e+01
   endloop
 endfacet
 facet normal  6.780030e-01  7.259639e-01  1.152753e-01
   outer loop
     vertex  4.109170e+01  1.585065e+01  5.613025e+01
     vertex  3.989182e+01  1.758216e+01  5.228298e+01
     vertex  3.808247e+01  1.866108e+01  5.613025e+01
   endloop
 endfacet
 facet normal  6.799512e-01  7.280500e-01 -8.723277e-02
   outer loop
     vertex  4.109170e+01  1.585065e+01  5.613025e+01
     vertex  3.808247e+01  1.866108e+01  5.613025e+01
     vertex  3.880359e+01  1.845125e+01  6.000000e+01
   endloop
 endfacet
 facet normal -3.589623e-01  1.044256e-01  9.274920e-01
   outer loop
     vertex  5.699737e+01  2.618916e+01  4.331648e+01
     vertex  5.641062e+01  2.820275e+01  4.286268e+01
     vertex  5.363430e+01  2.767722e+01  4.184734e+01
   endloop
 endfacet
 facet normal -3.604079e-01  1.009816e-01  9.273127e-01
   outer loop
     vertex  5.699737e+01  2.618916e+01  4.331648e+01
     vertex  5.363430e+01  2.767722e+01  4.184734e+01
     vertex  5.335073e+01  2.666513e+01  4.184734e+01
   endloop
 endfacet
 facet normal -3.520540e-01  1.529186e-01  9.234034e-01
   outer loop
     vertex  5.699737e+01  2.618916e+01  4.331648e+01
     vertex  5.335073e+01  2.666513e+01  4.184734e+01
     vertex  5.618761e+01  2.432491e+01  4.331648e+01
   endloop
 endfacet
 facet normal -5.346749e-01  3.448716e-02  8.443538e-01
   outer loop
     vertex  5.699737e+01  2.618916e+01  4.331648e+01
     vertex  5.928953e+01  2.820275e+01  4.468571e+01
     vertex  5.641062e+01  2.820275e+01  4.286268e+01
   endloop
 endfacet
 facet normal -4.598557e-01  3.741203e-01  8.053364e-01
   outer loop
     vertex  5.801236e+01  2.153026e+01  4.565668e+01
     vertex  5.618761e+01  2.432491e+01  4.331648e+01
     vertex  5.490491e+01  2.274825e+01  4.331648e+01
   endloop
 endfacet
 facet normal -4.188463e-01  4.484749e-01  7.895809e-01
   outer loop
     vertex  5.801236e+01  2.153026e+01  4.565668e+01
     vertex  5.490491e+01  2.274825e+01  4.331648e+01
     vertex  5.590801e+01  1.956493e+01  4.565668e+01
   endloop
 endfacet
 facet normal -2.680598e-01  7.542479e-01  5.993780e-01
   outer loop
     vertex  5.578353e+01  1.667584e+01  4.871299e+01
     vertex  5.335145e+01  1.824023e+01  4.565668e+01
     vertex  5.245212e+01  1.549186e+01  4.871299e+01
   endloop
 endfacet
 facet normal -3.556538e-01  6.863808e-01  6.343436e-01
   outer loop
     vertex  5.578353e+01  1.667584e+01  4.871299e+01
     vertex  5.590801e+01  1.956493e+01  4.565668e+01
     vertex  5.335145e+01  1.824023e+01  4.565668e+01
   endloop
 endfacet
 facet normal  6.344493e-02  9.275320e-01  3.683192e-01
   outer loop
     vertex  5.080247e+01  1.370452e+01  5.228298e+01
     vertex  4.892481e+01  1.525058e+01  4.871299e+01
     vertex  4.685412e+01  1.397459e+01  5.228298e+01
   endloop
 endfacet
 facet normal -6.180957e-02  9.036239e-01  4.238436e-01
   outer loop
     vertex  5.080247e+01  1.370452e+01  5.228298e+01
     vertex  5.245212e+01  1.549186e+01  4.871299e+01
     vertex  4.892481e+01  1.525058e+01  4.871299e+01
   endloop
 endfacet
 facet normal  3.291239e-01  9.260660e-01  1.846056e-01
   outer loop
     vertex  4.474758e+01  1.395632e+01  5.613025e+01
     vertex  4.685412e+01  1.397459e+01  5.228298e+01
     vertex  4.312505e+01  1.529990e+01  5.228298e+01
   endloop
 endfacet
 facet normal  2.377423e-01  9.645583e-01 -1.144812e-01
   outer loop
     vertex  4.474758e+01  1.395632e+01  5.613025e+01
     vertex  4.459615e+01  1.445294e+01  6.000000e+01
     vertex  4.803822e+01  1.360455e+01  6.000000e+01
   endloop
 endfacet
 facet normal  4.579622e-01  8.838268e-01 -9.550285e-02
   outer loop
     vertex  4.474758e+01  1.395632e+01  5.613025e+01
     vertex  4.109170e+01  1.585065e+01  5.613025e+01
     vertex  4.459615e+01  1.445294e+01  6.000000e+01
   endloop
 endfacet
 facet normal  4.569981e-01  8.819662e-01  1.152753e-01
   outer loop
     vertex  4.474758e+01  1.395632e+01  5.613025e+01
     vertex  4.312505e+01  1.529990e+01  5.228298e+01
     vertex  4.109170e+01  1.585065e+01  5.613025e+01
   endloop
 endfacet
 facet normal -5.243114e-01  3.188409e-01  7.895809e-01
   outer loop
     vertex  5.950844e+01  2.399046e+01  4.565668e+01
     vertex  5.618761e+01  2.432491e+01  4.331648e+01
     vertex  5.801236e+01  2.153026e+01  4.565668e+01
   endloop
 endfacet
 facet normal -5.437394e-01  2.361794e-01  8.053364e-01
   outer loop
     vertex  5.950844e+01  2.399046e+01  4.565668e+01
     vertex  5.699737e+01  2.618916e+01  4.331648e+01
     vertex  5.618761e+01  2.432491e+01  4.331648e+01
   endloop
 endfacet
 facet normal -4.616131e-01  6.539567e-01  5.993780e-01
   outer loop
     vertex  5.867197e+01  1.871472e+01  4.871299e+01
     vertex  5.590801e+01  1.956493e+01  4.565668e+01
     vertex  5.578353e+01  1.667584e+01  4.871299e+01
   endloop
 endfacet
 facet normal -5.276485e-01  5.649736e-01  6.343436e-01
   outer loop
     vertex  5.867197e+01  1.871472e+01  4.871299e+01
     vertex  5.801236e+01  2.153026e+01  4.565668e+01
     vertex  5.590801e+01  1.956493e+01  4.565668e+01
   endloop
 endfacet
 facet normal -1.891529e-01  9.102539e-01  3.683192e-01
   outer loop
     vertex  5.467727e+01  1.450971e+01  5.228298e+01
     vertex  5.245212e+01  1.549186e+01  4.871299e+01
     vertex  5.080247e+01  1.370452e+01  5.228298e+01
   endloop
 endfacet
 facet normal -3.033123e-01  8.534391e-01  4.238436e-01
   outer loop
     vertex  5.467727e+01  1.450971e+01  5.228298e+01
     vertex  5.578353e+01  1.667584e+01  4.871299e+01
     vertex  5.245212e+01  1.549186e+01  4.871299e+01
   endloop
 endfacet
 facet normal  2.020997e-01  9.725571e-01  1.152753e-01
   outer loop
     vertex  4.877898e+01  1.311859e+01  5.613025e+01
     vertex  4.685412e+01  1.397459e+01  5.228298e+01
     vertex  4.474758e+01  1.395632e+01  5.613025e+01
   endloop
 endfacet
 facet normal  1.991380e-15  9.922071e-01 -1.245995e-01
   outer loop
     vertex  4.877898e+01  1.311859e+01  5.613025e+01
     vertex  4.803822e+01  1.360455e+01  6.000000e+01
     vertex  5.158331e+01  1.360455e+01  6.000000e+01
   endloop
 endfacet
 facet normal  2.027419e-01  9.756476e-01 -8.371057e-02
   outer loop
     vertex  4.877898e+01  1.311859e+01  5.613025e+01
     vertex  4.474758e+01  1.395632e+01  5.613025e+01
     vertex  4.803822e+01  1.360455e+01  6.000000e+01
   endloop
 endfacet
 facet normal  6.706951e-02  9.805215e-01  1.846056e-01
   outer loop
     vertex  4.877898e+01  1.311859e+01  5.613025e+01
     vertex  5.080247e+01  1.370452e+01  5.228298e+01
     vertex  4.685412e+01  1.397459e+01  5.228298e+01
   endloop
 endfacet
 facet normal -5.898978e-01  1.295363e-01  7.970201e-01
   outer loop
     vertex  6.028529e+01  2.676306e+01  4.565668e+01
     vertex  5.928953e+01  2.820275e+01  4.468571e+01
     vertex  5.699737e+01  2.618916e+01  4.331648e+01
   endloop
 endfacet
 facet normal -7.104625e-01 -1.690359e-02  7.035320e-01
   outer loop
     vertex  6.028529e+01  2.676306e+01  4.565668e+01
     vertex  6.168721e+01  2.820275e+01  4.710701e+01
     vertex  5.928953e+01  2.820275e+01  4.468571e+01
   endloop
 endfacet
 facet normal -5.908908e-01  1.655598e-01  7.895809e-01
   outer loop
     vertex  6.028529e+01  2.676306e+01  4.565668e+01
     vertex  5.699737e+01  2.618916e+01  4.331648e+01
     vertex  5.950844e+01  2.399046e+01  4.565668e+01
   endloop
 endfacet
 facet normal -6.605100e-01  4.016650e-01  6.343436e-01
   outer loop
     vertex  6.090321e+01  2.145729e+01  4.871299e+01
     vertex  5.950844e+01  2.399046e+01  4.565668e+01
     vertex  5.801236e+01  2.153026e+01  4.565668e+01
   endloop
 endfacet
 facet normal -6.209306e-01  5.051645e-01  5.993780e-01
   outer loop
     vertex  6.090321e+01  2.145729e+01  4.871299e+01
     vertex  5.801236e+01  2.153026e+01  4.565668e+01
     vertex  5.867197e+01  1.871472e+01  4.871299e+01
   endloop
 endfacet
 facet normal -5.223198e-01  7.399585e-01  4.238436e-01
   outer loop
     vertex  5.819115e+01  1.633045e+01  5.228298e+01
     vertex  5.867197e+01  1.871472e+01  4.871299e+01
     vertex  5.578353e+01  1.667584e+01  4.871299e+01
   endloop
 endfacet
 facet normal -4.277222e-01  8.254663e-01  3.683192e-01
   outer loop
     vertex  5.819115e+01  1.633045e+01  5.228298e+01
     vertex  5.578353e+01  1.667584e+01  4.871299e+01
     vertex  5.467727e+01  1.450971e+01  5.228298e+01
   endloop
 endfacet
 facet normal -2.372562e-01  9.625863e-01 -1.309085e-01
   outer loop
     vertex  5.288690e+01  1.339958e+01  5.613025e+01
     vertex  5.158331e+01  1.360455e+01  6.000000e+01
     vertex  5.502538e+01  1.445294e+01  6.000000e+01
   endloop
 endfacet
 facet normal -1.999592e-01  9.622563e-01  1.846056e-01
   outer loop
     vertex  5.288690e+01  1.339958e+01  5.613025e+01
     vertex  5.467727e+01  1.450971e+01  5.228298e+01
     vertex  5.080247e+01  1.370452e+01  5.228298e+01
   endloop
 endfacet
 facet normal -6.778748e-02  9.910179e-01  1.152753e-01
   outer loop
     vertex  5.288690e+01  1.339958e+01  5.613025e+01
     vertex  5.080247e+01  1.370452e+01  5.228298e+01
     vertex  4.877898e+01  1.311859e+01  5.613025e+01
   endloop
 endfacet
 facet normal -6.804704e-02  9.948126e-01 -7.561440e-02
   outer loop
     vertex  5.288690e+01  1.339958e+01  5.613025e+01
     vertex  4.877898e+01  1.311859e+01  5.613025e+01
     vertex  5.158331e+01  1.360455e+01  6.000000e+01
   endloop
 endfacet
 facet normal -7.341966e-01  3.189066e-01  5.993780e-01
   outer loop
     vertex  6.231178e+01  2.470013e+01  4.871299e+01
     vertex  5.950844e+01  2.399046e+01  4.565668e+01
     vertex  6.090321e+01  2.145729e+01  4.871299e+01
   endloop
 endfacet
 facet normal -8.466448e-01  8.955014e-02  5.245697e-01
   outer loop
     vertex  6.231178e+01  2.470013e+01  4.871299e+01
     vertex  6.348193e+01  2.820275e+01  5.000365e+01
     vertex  6.168721e+01  2.820275e+01  4.710701e+01
   endloop
 endfacet
 facet normal -7.783070e-01  1.416812e-01  6.116900e-01
   outer loop
     vertex  6.231178e+01  2.470013e+01  4.871299e+01
     vertex  6.168721e+01  2.820275e+01  4.710701e+01
     vertex  6.028529e+01  2.676306e+01  4.565668e+01
   endloop
 endfacet
 facet normal -7.443844e-01  2.085667e-01  6.343436e-01
   outer loop
     vertex  6.231178e+01  2.470013e+01  4.871299e+01
     vertex  6.028529e+01  2.676306e+01  4.565668e+01
     vertex  5.950844e+01  2.399046e+01  4.565668e+01
   endloop
 endfacet
 facet normal -6.345692e-01  6.794577e-01  3.683192e-01
   outer loop
     vertex  6.108349e+01  1.903171e+01  5.228298e+01
     vertex  5.867197e+01  1.871472e+01  4.871299e+01
     vertex  5.819115e+01  1.633045e+01  5.228298e+01
   endloop
 endfacet
 facet normal -7.025892e-01  5.715987e-01  4.238436e-01
   outer loop
     vertex  6.108349e+01  1.903171e+01  5.228298e+01
     vertex  6.090321e+01  2.145729e+01  4.871299e+01
     vertex  5.867197e+01  1.871472e+01  4.871299e+01
   endloop
 endfacet
 facet normal -4.605678e-01  8.775387e-01 -1.334286e-01
   outer loop
     vertex  5.676668e+01  1.477845e+01  5.613025e+01
     vertex  5.502538e+01  1.445294e+01  6.000000e+01
     vertex  5.816440e+01  1.610043e+01  6.000000e+01
   endloop
 endfacet
 facet normal -3.340286e-01  9.398664e-01 -7.124620e-02
   outer loop
     vertex  5.676668e+01  1.477845e+01  5.613025e+01
     vertex  5.288690e+01  1.339958e+01  5.613025e+01
     vertex  5.502538e+01  1.445294e+01  6.000000e+01
   endloop
 endfacet
 facet normal -4.521578e-01  8.726249e-01  1.846056e-01
   outer loop
     vertex  5.676668e+01  1.477845e+01  5.613025e+01
     vertex  5.819115e+01  1.633045e+01  5.228298e+01
     vertex  5.467727e+01  1.450971e+01  5.228298e+01
   endloop
 endfacet
 facet normal -3.326472e-01  9.359794e-01  1.152753e-01
   outer loop
     vertex  5.676668e+01  1.477845e+01  5.613025e+01
     vertex  5.467727e+01  1.450971e+01  5.228298e+01
     vertex  5.288690e+01  1.339958e+01  5.613025e+01
   endloop
 endfacet
 facet normal -8.307507e-01  3.608460e-01  4.238436e-01
   outer loop
     vertex  6.313979e+01  2.241314e+01  5.228298e+01
     vertex  6.231178e+01  2.470013e+01  4.871299e+01
     vertex  6.090321e+01  2.145729e+01  4.871299e+01
   endloop
 endfacet
 facet normal -7.943532e-01  4.830569e-01  3.683192e-01
   outer loop
     vertex  6.313979e+01  2.241314e+01  5.228298e+01
     vertex  6.090321e+01  2.145729e+01  4.871299e+01
     vertex  6.108349e+01  1.903171e+01  5.228298e+01
   endloop
 endfacet
 facet normal -6.573052e-01  7.419442e-01 -1.321688e-01
   outer loop
     vertex  6.013057e+01  1.715295e+01  5.613025e+01
     vertex  5.816440e+01  1.610043e+01  6.000000e+01
     vertex  6.081794e+01  1.845125e+01  6.000000e+01
   endloop
 endfacet
 facet normal -6.708219e-01  7.182749e-01  1.846056e-01
   outer loop
     vertex  6.013057e+01  1.715295e+01  5.613025e+01
     vertex  6.108349e+01  1.903171e+01  5.228298e+01
     vertex  5.819115e+01  1.633045e+01  5.228298e+01
   endloop
 endfacet
 facet normal -5.752404e-01  8.149301e-01 -7.062170e-02
   outer loop
     vertex  6.013057e+01  1.715295e+01  5.613025e+01
     vertex  5.676668e+01  1.477845e+01  5.613025e+01
     vertex  5.816440e+01  1.610043e+01  6.000000e+01
   endloop
 endfacet
 facet normal -5.728359e-01  8.115236e-01  1.152753e-01
   outer loop
     vertex  6.013057e+01  1.715295e+01  5.613025e+01
     vertex  5.819115e+01  1.633045e+01  5.228298e+01
     vertex  5.676668e+01  1.477845e+01  5.613025e+01
   endloop
 endfacet
 facet normal -9.461030e-01  2.501582e-02  3.228983e-01
   outer loop
     vertex  6.420753e+01  2.622397e+01  5.228298e+01
     vertex  6.458257e+01  2.820275e+01  5.322857e+01
     vertex  6.348193e+01  2.820275e+01  5.000365e+01
   endloop
 endfacet
 facet normal -8.982364e-01  1.475235e-01  4.140148e-01
   outer loop
     vertex  6.420753e+01  2.622397e+01  5.228298e+01
     vertex  6.348193e+01  2.820275e+01  5.000365e+01
     vertex  6.231178e+01  2.470013e+01  4.871299e+01
   endloop
 endfacet
 facet normal -8.952236e-01  2.508299e-01  3.683192e-01
   outer loop
     vertex  6.420753e+01  2.622397e+01  5.228298e+01
     vertex  6.231178e+01  2.470013e+01  4.871299e+01
     vertex  6.313979e+01  2.241314e+01  5.228298e+01
   endloop
 endfacet
 facet normal -8.163068e-01  5.634559e-01 -1.271245e-01
   outer loop
     vertex  6.272908e+01  2.034695e+01  5.613025e+01
     vertex  6.081794e+01  1.845125e+01  6.000000e+01
     vertex  6.283177e+01  2.136880e+01  6.000000e+01
   endloop
 endfacet
 facet normal -7.735992e-01  6.293697e-01 -7.374304e-02
   outer loop
     vertex  6.272908e+01  2.034695e+01  5.613025e+01
     vertex  6.013057e+01  1.715295e+01  5.613025e+01
     vertex  6.081794e+01  1.845125e+01  6.000000e+01
   endloop
 endfacet
 facet normal -8.397342e-01  5.106537e-01  1.846056e-01
   outer loop
     vertex  6.272908e+01  2.034695e+01  5.613025e+01
     vertex  6.313979e+01  2.241314e+01  5.228298e+01
     vertex  6.108349e+01  1.903171e+01  5.228298e+01
   endloop
 endfacet
 facet normal -7.705401e-01  6.268808e-01  1.152753e-01
   outer loop
     vertex  6.272908e+01  2.034695e+01  5.613025e+01
     vertex  6.108349e+01  1.903171e+01  5.228298e+01
     vertex  6.013057e+01  1.715295e+01  5.613025e+01
   endloop
 endfacet
 facet normal -9.284528e-01  3.521157e-01 -1.182788e-01
   outer loop
     vertex  6.436951e+01  2.412359e+01  5.613025e+01
     vertex  6.283177e+01  2.136880e+01  6.000000e+01
     vertex  6.408888e+01  2.468352e+01  6.000000e+01
   endloop
 endfacet
 facet normal -9.847549e-01  1.471829e-01 -9.270925e-02
   outer loop
     vertex  6.436951e+01  2.412359e+01  5.613025e+01
     vertex  6.408888e+01  2.468352e+01  6.000000e+01
     vertex  6.493326e+01  2.820275e+01  5.661805e+01
   endloop
 endfacet
 facet normal -9.869893e-01  1.241936e-01  1.021179e-01
   outer loop
     vertex  6.436951e+01  2.412359e+01  5.613025e+01
     vertex  6.493326e+01  2.820275e+01  5.661805e+01
     vertex  6.458257e+01  2.820275e+01  5.322857e+01
   endloop
 endfacet
 facet normal -9.846687e-01  1.323004e-01  1.136849e-01
   outer loop
     vertex  6.436951e+01  2.412359e+01  5.613025e+01
     vertex  6.458257e+01  2.820275e+01  5.322857e+01
     vertex  6.420753e+01  2.622397e+01  5.228298e+01
   endloop
 endfacet
 facet normal -9.142272e-01  3.971049e-01 -8.059922e-02
   outer loop
     vertex  6.436951e+01  2.412359e+01  5.613025e+01
     vertex  6.272908e+01  2.034695e+01  5.613025e+01
     vertex  6.283177e+01  2.136880e+01  6.000000e+01
   endloop
 endfacet
 facet normal -9.463673e-01  2.651597e-01  1.846056e-01
   outer loop
     vertex  6.436951e+01  2.412359e+01  5.613025e+01
     vertex  6.420753e+01  2.622397e+01  5.228298e+01
     vertex  6.313979e+01  2.241314e+01  5.228298e+01
   endloop
 endfacet
 facet normal -9.110968e-01  3.957452e-01  1.152753e-01
   outer loop
     vertex  6.436951e+01  2.412359e+01  5.613025e+01
     vertex  6.313979e+01  2.241314e+01  5.228298e+01
     vertex  6.272908e+01  2.034695e+01  5.613025e+01
   endloop
 endfacet
endsolid
