solid 
 facet normal -1.000000e+00  0.000000e+00  0.000000e+00
   outer loop
     vertex  0.000000e+00  0.000000e+00  6.000000e+01
     vertex  0.000000e+00  8.478737e+01  0.000000e+00
     vertex  0.000000e+00  0.000000e+00  0.000000e+00
   endloop
 endfacet
 facet normal -1.000000e+00  0.000000e+00  0.000000e+00
   outer loop
     vertex  0.000000e+00  0.000000e+00  6.000000e+01
     vertex  0.000000e+00  8.478737e+01  6.000000e+01
     vertex  0.000000e+00  8.478737e+01  0.000000e+00
   endloop
 endfacet
 facet normal  0.000000e+00 -1.000000e+00 -0.000000e+00
   outer loop
     vertex  1.421661e+02  0.000000e+00  6.000000e+01
     vertex  0.000000e+00  0.000000e+00  0.000000e+00
     vertex  1.421661e+02  0.000000e+00  0.000000e+00
   endloop
 endfacet
 facet normal -0.000000e+00 -1.000000e+00  0.000000e+00
   outer loop
     vertex  1.421661e+02  0.000000e+00  6.000000e+01
     vertex  0.000000e+00  0.000000e+00  6.000000e+01
     vertex  0.000000e+00  0.000000e+00  0.000000e+00
   endloop
 endfacet
 facet normal  0.000000e+00  0.000000e+00  1.000000e+00
   outer loop
     vertex  4.069535e+01  4.245571e+01  6.000000e+01
     vertex  3.870079e+01  4.422273e+01  6.000000e+01
     vertex  0.000000e+00  0.000000e+00  6.000000e+01
   endloop
 endfacet
 facet normal  0.000000e+00  0.000000e+00  1.000000e+00
   outer loop
     vertex  3.718708e+01  4.641573e+01  6.000000e+01
     vertex  0.000000e+00  0.000000e+00  6.000000e+01
     vertex  3.870079e+01  4.422273e+01  6.000000e+01
   endloop
 endfacet
 facet normal  0.000000e+00  0.000000e+00  1.000000e+00
   outer loop
     vertex  4.305482e+01  4.121737e+01  6.000000e+01
     vertex  4.069535e+01  4.245571e+01  6.000000e+01
     vertex  0.000000e+00  0.000000e+00  6.000000e+01
   endloop
 endfacet
 facet normal  0.000000e+00  0.000000e+00  1.000000e+00
   outer loop
     vertex  3.624216e+01  4.890727e+01  6.000000e+01
     vertex  0.000000e+00  8.478737e+01  6.000000e+01
     vertex  0.000000e+00  0.000000e+00  6.000000e+01
   endloop
 endfacet
 facet normal  0.000000e+00  0.000000e+00  1.000000e+00
   outer loop
     vertex  3.624216e+01  4.890727e+01  6.000000e+01
     vertex  0.000000e+00  0.000000e+00  6.000000e+01
     vertex  3.718708e+01  4.641573e+01  6.000000e+01
   endloop
 endfacet
 facet normal  0.000000e+00  0.000000e+00  1.000000e+00
   outer loop
     vertex  4.564208e+01  4.057966e+01  6.000000e+01
     vertex  4.305482e+01  4.121737e+01  6.000000e+01
     vertex  0.000000e+00  0.000000e+00  6.000000e+01
   endloop
 endfacet
 facet normal  0.000000e+00  0.000000e+00  1.000000e+00
   outer loop
     vertex  3.592097e+01  5.155253e+01  6.000000e+01
     vertex  0.000000e+00  8.478737e+01  6.000000e+01
     vertex  3.624216e+01  4.890727e+01  6.000000e+01
   endloop
 endfacet
 facet normal  0.000000e+00  0.000000e+00  1.000000e+00
   outer loop
     vertex  4.830678e+01  4.057966e+01  6.000000e+01
     vertex  4.564208e+01  4.057966e+01  6.000000e+01
     vertex  0.000000e+00  0.000000e+00  6.000000e+01
   endloop
 endfacet
 facet normal  0.000000e+00  0.000000e+00  1.000000e+00
   outer loop
     vertex  3.624216e+01  5.419780e+01  6.000000e+01
     vertex  0.000000e+00  8.478737e+01  6.000000e+01
     vertex  3.592097e+01  5.155253e+01  6.000000e+01
   endloop
 endfacet
 facet normal  0.000000e+00  0.000000e+00  1.000000e+00
   outer loop
     vertex  5.089404e+01  4.121737e+01  6.000000e+01
     vertex  4.830678e+01  4.057966e+01  6.000000e+01
     vertex  0.000000e+00  0.000000e+00  6.000000e+01
   endloop
 endfacet
 facet normal  0.000000e+00  0.000000e+00  1.000000e+00
   outer loop
     vertex  3.718708e+01  5.668933e+01  6.000000e+01
     vertex  0.000000e+00  8.478737e+01  6.000000e+01
     vertex  3.624216e+01  5.419780e+01  6.000000e+01
   endloop
 endfacet
 facet normal  0.000000e+00  0.000000e+00  1.000000e+00
   outer loop
     vertex  3.870079e+01  5.888233e+01  6.000000e+01
     vertex  0.000000e+00  8.478737e+01  6.000000e+01
     vertex  3.718708e+01  5.668933e+01  6.000000e+01
   endloop
 endfacet
 facet normal  0.000000e+00  0.000000e+00  1.000000e+00
   outer loop
     vertex  4.069535e+01  6.064935e+01  6.000000e+01
     vertex  0.000000e+00  8.478737e+01  6.000000e+01
     vertex  3.870079e+01  5.888233e+01  6.000000e+01
   endloop
 endfacet
 facet normal  0.000000e+00  0.000000e+00  1.000000e+00
   outer loop
     vertex  4.305482e+01  6.188770e+01  6.000000e+01
     vertex  0.000000e+00  8.478737e+01  6.000000e+01
     vertex  4.069535e+01  6.064935e+01  6.000000e+01
   endloop
 endfacet
 facet normal  0.000000e+00  0.000000e+00  1.000000e+00
   outer loop
     vertex  4.564208e+01  6.252540e+01  6.000000e+01
     vertex  0.000000e+00  8.478737e+01  6.000000e+01
     vertex  4.305482e+01  6.188770e+01  6.000000e+01
   endloop
 endfacet
 facet normal  0.000000e+00  0.000000e+00  1.000000e+00
   outer loop
     vertex  4.830678e+01  6.252540e+01  6.000000e+01
     vertex  0.000000e+00  8.478737e+01  6.000000e+01
     vertex  4.564208e+01  6.252540e+01  6.000000e+01
   endloop
 endfacet
 facet normal  0.000000e+00  0.000000e+00  1.000000e+00
   outer loop
     vertex  1.421661e+02  0.000000e+00  6.000000e+01
     vertex  5.325351e+01  4.245571e+01  6.000000e+01
     vertex  5.089404e+01  4.121737e+01  6.000000e+01
   endloop
 endfacet
 facet normal  0.000000e+00  0.000000e+00  1.000000e+00
   outer loop
     vertex  1.421661e+02  0.000000e+00  6.000000e+01
     vertex  5.524806e+01  4.422273e+01  6.000000e+01
     vertex  5.325351e+01  4.245571e+01  6.000000e+01
   endloop
 endfacet
 facet normal  0.000000e+00  0.000000e+00  1.000000e+00
   outer loop
     vertex  1.421661e+02  0.000000e+00  6.000000e+01
     vertex  5.676178e+01  4.641573e+01  6.000000e+01
     vertex  5.524806e+01  4.422273e+01  6.000000e+01
   endloop
 endfacet
 facet normal  0.000000e+00  0.000000e+00  1.000000e+00
   outer loop
     vertex  1.421661e+02  0.000000e+00  6.000000e+01
     vertex  5.770670e+01  4.890727e+01  6.000000e+01
     vertex  5.676178e+01  4.641573e+01  6.000000e+01
   endloop
 endfacet
 facet normal  0.000000e+00  0.000000e+00  1.000000e+00
   outer loop
     vertex  1.421661e+02  0.000000e+00  6.000000e+01
     vertex  5.089404e+01  4.121737e+01  6.000000e+01
     vertex  0.000000e+00  0.000000e+00  6.000000e+01
   endloop
 endfacet
 facet normal  0.000000e+00  0.000000e+00  1.000000e+00
   outer loop
     vertex  1.421661e+02  8.478737e+01  6.000000e+01
     vertex  5.770670e+01  5.419780e+01  6.000000e+01
     vertex  5.802789e+01  5.155253e+01  6.000000e+01
   endloop
 endfacet
 facet normal  0.000000e+00  0.000000e+00  1.000000e+00
   outer loop
     vertex  1.421661e+02  8.478737e+01  6.000000e+01
     vertex  5.676178e+01  5.668933e+01  6.000000e+01
     vertex  5.770670e+01  5.419780e+01  6.000000e+01
   endloop
 endfacet
 facet normal  0.000000e+00  0.000000e+00  1.000000e+00
   outer loop
     vertex  1.421661e+02  8.478737e+01  6.000000e+01
     vertex  5.524806e+01  5.888233e+01  6.000000e+01
     vertex  5.676178e+01  5.668933e+01  6.000000e+01
   endloop
 endfacet
 facet normal  0.000000e+00  0.000000e+00  1.000000e+00
   outer loop
     vertex  1.421661e+02  8.478737e+01  6.000000e+01
     vertex  5.325351e+01  6.064935e+01  6.000000e+01
     vertex  5.524806e+01  5.888233e+01  6.000000e+01
   endloop
 endfacet
 facet normal  0.000000e+00  0.000000e+00  1.000000e+00
   outer loop
     vertex  1.421661e+02  8.478737e+01  6.000000e+01
     vertex  5.089404e+01  6.188770e+01  6.000000e+01
     vertex  5.325351e+01  6.064935e+01  6.000000e+01
   endloop
 endfacet
 facet normal  0.000000e+00  0.000000e+00  1.000000e+00
   outer loop
     vertex  1.421661e+02  8.478737e+01  6.000000e+01
     vertex  5.802789e+01  5.155253e+01  6.000000e+01
     vertex  5.770670e+01  4.890727e+01  6.000000e+01
   endloop
 endfacet
 facet normal  0.000000e+00  0.000000e+00  1.000000e+00
   outer loop
     vertex  1.421661e+02  8.478737e+01  6.000000e+01
     vertex  5.770670e+01  4.890727e+01  6.000000e+01
     vertex  1.421661e+02  0.000000e+00  6.000000e+01
   endloop
 endfacet
 facet normal  0.000000e+00  0.000000e+00  1.000000e+00
   outer loop
     vertex  1.421661e+02  8.478737e+01  6.000000e+01
     vertex  0.000000e+00  8.478737e+01  6.000000e+01
     vertex  4.830678e+01  6.252540e+01  6.000000e+01
   endloop
 endfacet
 facet normal  0.000000e+00  0.000000e+00  1.000000e+00
   outer loop
     vertex  1.421661e+02  8.478737e+01  6.000000e+01
     vertex  4.830678e+01  6.252540e+01  6.000000e+01
     vertex  5.089404e+01  6.188770e+01  6.000000e+01
   endloop
 endfacet
 facet normal  0.000000e+00  1.000000e+00  0.000000e+00
   outer loop
     vertex  1.421661e+02  8.478737e+01  6.000000e+01
     vertex  1.421661e+02  8.478737e+01  0.000000e+00
     vertex  0.000000e+00  8.478737e+01  0.000000e+00
   endloop
 endfacet
 facet normal  0.000000e+00  1.000000e+00  0.000000e+00
   outer loop
     vertex  1.421661e+02  8.478737e+01  6.000000e+01
     vertex  0.000000e+00  8.478737e+01  0.000000e+00
     vertex  0.000000e+00  8.478737e+01  6.000000e+01
   endloop
 endfacet
 facet normal -0.000000e+00  0.000000e+00 -1.000000e+00
   outer loop
     vertex  1.421661e+02  8.478737e+01  0.000000e+00
     vertex  0.000000e+00  0.000000e+00  0.000000e+00
     vertex  0.000000e+00  8.478737e+01  0.000000e+00
   endloop
 endfacet
 facet normal  0.000000e+00 -0.000000e+00 -1.000000e+00
   outer loop
     vertex  1.421661e+02  8.478737e+01  0.000000e+00
     vertex  1.421661e+02  0.000000e+00  0.000000e+00
     vertex  0.000000e+00  0.000000e+00  0.000000e+00
   endloop
 endfacet
 facet normal  1.000000e+00  0.000000e+00  0.000000e+00
   outer loop
     vertex  1.421661e+02  0.000000e+00  6.000000e+01
     vertex  1.421661e+02  0.000000e+00  0.000000e+00
     vertex  1.421661e+02  8.478737e+01  0.000000e+00
   endloop
 endfacet
 facet normal  1.000000e+00 -0.000000e+00  0.000000e+00
   outer loop
     vertex  1.421661e+02  0.000000e+00  6.000000e+01
     vertex  1.421661e+02  8.478737e+01  0.000000e+00
     vertex  1.421661e+02  8.478737e+01  6.000000e+01
   endloop
 endfacet
 facet normal -9.781990e-01 -1.187749e-01  1.703505e-01
   outer loop
     vertex  5.770670e+01  5.419780e+01  6.000000e+01
     vertex  5.761984e+01  5.155253e+01  5.765686e+01
     vertex  5.802789e+01  5.155253e+01  6.000000e+01
   endloop
 endfacet
 facet normal -9.781990e-01  1.187749e-01  1.703505e-01
   outer loop
     vertex  5.802789e+01  5.155253e+01  6.000000e+01
     vertex  5.761984e+01  5.155253e+01  5.765686e+01
     vertex  5.770670e+01  4.890727e+01  6.000000e+01
   endloop
 endfacet
 facet normal -3.157213e-01  9.417989e-02  9.441664e-01
   outer loop
     vertex  5.021996e+01  5.206657e+01  5.013971e+01
     vertex  4.933909e+01  5.155253e+01  4.989643e+01
     vertex  5.159472e+01  5.155253e+01  5.065070e+01
   endloop
 endfacet
 facet normal -1.065751e-01 -1.207162e-01  9.869495e-01
   outer loop
     vertex  4.990226e+01  5.304434e+01  5.013971e+01
     vertex  4.697443e+01  5.155253e+01  4.964108e+01
     vertex  4.933909e+01  5.155253e+01  4.989643e+01
   endloop
 endfacet
 facet normal -2.255390e-01 -7.328207e-02  9.714741e-01
   outer loop
     vertex  4.990226e+01  5.304434e+01  5.013971e+01
     vertex  4.933909e+01  5.155253e+01  4.989643e+01
     vertex  5.021996e+01  5.206657e+01  5.013971e+01
   endloop
 endfacet
 facet normal -1.228519e-01 -8.925710e-02  9.884031e-01
   outer loop
     vertex  4.929797e+01  5.387607e+01  5.013971e+01
     vertex  4.697443e+01  5.155253e+01  4.964108e+01
     vertex  4.990226e+01  5.304434e+01  5.013971e+01
   endloop
 endfacet
 facet normal -5.113601e-01 -5.991004e-02  8.572757e-01
   outer loop
     vertex  5.294338e+01  5.349196e+01  5.159070e+01
     vertex  5.159472e+01  5.155253e+01  5.065070e+01
     vertex  5.363734e+01  5.155253e+01  5.186910e+01
   endloop
 endfacet
 facet normal -4.107004e-01 -1.334446e-01  9.019522e-01
   outer loop
     vertex  5.294338e+01  5.349196e+01  5.159070e+01
     vertex  4.990226e+01  5.304434e+01  5.013971e+01
     vertex  5.021996e+01  5.206657e+01  5.013971e+01
   endloop
 endfacet
 facet normal -3.965089e-01 -1.622212e-01  9.035845e-01
   outer loop
     vertex  5.294338e+01  5.349196e+01  5.159070e+01
     vertex  5.021996e+01  5.206657e+01  5.013971e+01
     vertex  5.159472e+01  5.155253e+01  5.065070e+01
   endloop
 endfacet
 facet normal -8.925710e-02 -1.228519e-01  9.884031e-01
   outer loop
     vertex  4.846623e+01  5.448036e+01  5.013971e+01
     vertex  4.697443e+01  5.155253e+01  4.964108e+01
     vertex  4.929797e+01  5.387607e+01  5.013971e+01
   endloop
 endfacet
 facet normal -3.493626e-01 -2.538268e-01  9.019522e-01
   outer loop
     vertex  5.205192e+01  5.524155e+01  5.159070e+01
     vertex  4.929797e+01  5.387607e+01  5.013971e+01
     vertex  4.990226e+01  5.304434e+01  5.013971e+01
   endloop
 endfacet
 facet normal -3.972762e-01 -2.024224e-01  8.950960e-01
   outer loop
     vertex  5.205192e+01  5.524155e+01  5.159070e+01
     vertex  4.990226e+01  5.304434e+01  5.013971e+01
     vertex  5.294338e+01  5.349196e+01  5.159070e+01
   endloop
 endfacet
 facet normal -6.804921e-01 -9.840463e-02  7.261177e-01
   outer loop
     vertex  5.556852e+01  5.291370e+01  5.386341e+01
     vertex  5.363734e+01  5.155253e+01  5.186910e+01
     vertex  5.537276e+01  5.155253e+01  5.349548e+01
   endloop
 endfacet
 facet normal -8.233179e-01 -3.472327e-02  5.665173e-01
   outer loop
     vertex  5.556852e+01  5.291370e+01  5.386341e+01
     vertex  5.537276e+01  5.155253e+01  5.349548e+01
     vertex  5.672098e+01  5.155253e+01  5.545485e+01
   endloop
 endfacet
 facet normal -6.652878e-01 -1.325807e-01  7.347207e-01
   outer loop
     vertex  5.556852e+01  5.291370e+01  5.386341e+01
     vertex  5.294338e+01  5.349196e+01  5.159070e+01
     vertex  5.363734e+01  5.155253e+01  5.186910e+01
   endloop
 endfacet
 facet normal -4.692523e-02 -1.444210e-01  9.884031e-01
   outer loop
     vertex  4.748847e+01  5.479806e+01  5.013971e+01
     vertex  4.697443e+01  5.155253e+01  4.964108e+01
     vertex  4.846623e+01  5.448036e+01  5.013971e+01
   endloop
 endfacet
 facet normal -2.538268e-01 -3.493626e-01  9.019522e-01
   outer loop
     vertex  5.066344e+01  5.663002e+01  5.159070e+01
     vertex  4.846623e+01  5.448036e+01  5.013971e+01
     vertex  4.929797e+01  5.387607e+01  5.013971e+01
   endloop
 endfacet
 facet normal -3.152802e-01 -3.152802e-01  8.950960e-01
   outer loop
     vertex  5.066344e+01  5.663002e+01  5.159070e+01
     vertex  4.929797e+01  5.387607e+01  5.013971e+01
     vertex  5.205192e+01  5.524155e+01  5.159070e+01
   endloop
 endfacet
 facet normal -6.658368e-01 -2.163435e-01  7.140427e-01
   outer loop
     vertex  5.472727e+01  5.550280e+01  5.386341e+01
     vertex  5.294338e+01  5.349196e+01  5.159070e+01
     vertex  5.556852e+01  5.291370e+01  5.386341e+01
   endloop
 endfacet
 facet normal -5.990437e-01 -3.052280e-01  7.402584e-01
   outer loop
     vertex  5.472727e+01  5.550280e+01  5.386341e+01
     vertex  5.205192e+01  5.524155e+01  5.159070e+01
     vertex  5.294338e+01  5.349196e+01  5.159070e+01
   endloop
 endfacet
 facet normal  0.000000e+00 -1.518532e-01  9.884031e-01
   outer loop
     vertex  4.646039e+01  5.479806e+01  5.013971e+01
     vertex  4.697443e+01  5.155253e+01  4.964108e+01
     vertex  4.748847e+01  5.479806e+01  5.013971e+01
   endloop
 endfacet
 facet normal -2.024224e-01 -3.972762e-01  8.950960e-01
   outer loop
     vertex  4.891386e+01  5.752148e+01  5.159070e+01
     vertex  4.846623e+01  5.448036e+01  5.013971e+01
     vertex  5.066344e+01  5.663002e+01  5.159070e+01
   endloop
 endfacet
 facet normal -1.334446e-01 -4.107004e-01  9.019522e-01
   outer loop
     vertex  4.891386e+01  5.752148e+01  5.159070e+01
     vertex  4.748847e+01  5.479806e+01  5.013971e+01
     vertex  4.846623e+01  5.448036e+01  5.013971e+01
   endloop
 endfacet
 facet normal -4.754038e-01 -4.754038e-01  7.402584e-01
   outer loop
     vertex  5.312712e+01  5.770522e+01  5.386341e+01
     vertex  5.066344e+01  5.663002e+01  5.159070e+01
     vertex  5.205192e+01  5.524155e+01  5.159070e+01
   endloop
 endfacet
 facet normal -5.663946e-01 -4.115097e-01  7.140427e-01
   outer loop
     vertex  5.312712e+01  5.770522e+01  5.386341e+01
     vertex  5.205192e+01  5.524155e+01  5.159070e+01
     vertex  5.472727e+01  5.550280e+01  5.386341e+01
   endloop
 endfacet
 facet normal -9.172555e-01 -3.478691e-01  1.939832e-01
   outer loop
     vertex  5.681114e+01  5.474867e+01  5.675324e+01
     vertex  5.770670e+01  5.419780e+01  6.000000e+01
     vertex  5.676178e+01  5.668933e+01  6.000000e+01
   endloop
 endfacet
 facet normal -9.184122e-01 -1.263875e-01  3.748935e-01
   outer loop
     vertex  5.681114e+01  5.474867e+01  5.675324e+01
     vertex  5.672098e+01  5.155253e+01  5.545485e+01
     vertex  5.761984e+01  5.155253e+01  5.765686e+01
   endloop
 endfacet
 facet normal -9.562267e-01 -1.758103e-01  2.339257e-01
   outer loop
     vertex  5.681114e+01  5.474867e+01  5.675324e+01
     vertex  5.761984e+01  5.155253e+01  5.765686e+01
     vertex  5.770670e+01  5.419780e+01  6.000000e+01
   endloop
 endfacet
 facet normal -8.136620e-01 -2.643748e-01  5.177452e-01
   outer loop
     vertex  5.681114e+01  5.474867e+01  5.675324e+01
     vertex  5.472727e+01  5.550280e+01  5.386341e+01
     vertex  5.556852e+01  5.291370e+01  5.386341e+01
   endloop
 endfacet
 facet normal -8.615060e-01 -1.700509e-01  4.784246e-01
   outer loop
     vertex  5.681114e+01  5.474867e+01  5.675324e+01
     vertex  5.556852e+01  5.291370e+01  5.386341e+01
     vertex  5.672098e+01  5.155253e+01  5.545485e+01
   endloop
 endfacet
 facet normal  4.692523e-02 -1.444210e-01  9.884031e-01
   outer loop
     vertex  4.548262e+01  5.448036e+01  5.013971e+01
     vertex  4.697443e+01  5.155253e+01  4.964108e+01
     vertex  4.646039e+01  5.479806e+01  5.013971e+01
   endloop
 endfacet
 facet normal -6.974999e-02 -4.403841e-01  8.950960e-01
   outer loop
     vertex  4.697443e+01  5.782866e+01  5.159070e+01
     vertex  4.748847e+01  5.479806e+01  5.013971e+01
     vertex  4.891386e+01  5.752148e+01  5.159070e+01
   endloop
 endfacet
 facet normal  0.000000e+00 -4.318359e-01  9.019522e-01
   outer loop
     vertex  4.697443e+01  5.782866e+01  5.159070e+01
     vertex  4.646039e+01  5.479806e+01  5.013971e+01
     vertex  4.748847e+01  5.479806e+01  5.013971e+01
   endloop
 endfacet
 facet normal -4.115097e-01 -5.663946e-01  7.140427e-01
   outer loop
     vertex  5.092470e+01  5.930538e+01  5.386341e+01
     vertex  5.066344e+01  5.663002e+01  5.159070e+01
     vertex  5.312712e+01  5.770522e+01  5.386341e+01
   endloop
 endfacet
 facet normal -3.052280e-01 -5.990437e-01  7.402584e-01
   outer loop
     vertex  5.092470e+01  5.930538e+01  5.386341e+01
     vertex  4.891386e+01  5.752148e+01  5.159070e+01
     vertex  5.066344e+01  5.663002e+01  5.159070e+01
   endloop
 endfacet
 facet normal -8.077771e-01 -5.575683e-01  1.913471e-01
   outer loop
     vertex  5.534204e+01  5.763196e+01  5.675324e+01
     vertex  5.676178e+01  5.668933e+01  6.000000e+01
     vertex  5.524806e+01  5.888233e+01  6.000000e+01
   endloop
 endfacet
 facet normal -6.921422e-01 -5.028708e-01  5.177452e-01
   outer loop
     vertex  5.534204e+01  5.763196e+01  5.675324e+01
     vertex  5.312712e+01  5.770522e+01  5.386341e+01
     vertex  5.472727e+01  5.550280e+01  5.386341e+01
   endloop
 endfacet
 facet normal -7.892080e-01 -4.021215e-01  4.641649e-01
   outer loop
     vertex  5.534204e+01  5.763196e+01  5.675324e+01
     vertex  5.472727e+01  5.550280e+01  5.386341e+01
     vertex  5.681114e+01  5.474867e+01  5.675324e+01
   endloop
 endfacet
 facet normal -8.627939e-01 -4.396154e-01  2.496498e-01
   outer loop
     vertex  5.534204e+01  5.763196e+01  5.675324e+01
     vertex  5.681114e+01  5.474867e+01  5.675324e+01
     vertex  5.676178e+01  5.668933e+01  6.000000e+01
   endloop
 endfacet
 facet normal  8.925710e-02 -1.228519e-01  9.884031e-01
   outer loop
     vertex  4.465089e+01  5.387607e+01  5.013971e+01
     vertex  4.697443e+01  5.155253e+01  4.964108e+01
     vertex  4.548262e+01  5.448036e+01  5.013971e+01
   endloop
 endfacet
 facet normal  6.974999e-02 -4.403841e-01  8.950960e-01
   outer loop
     vertex  4.503500e+01  5.752148e+01  5.159070e+01
     vertex  4.646039e+01  5.479806e+01  5.013971e+01
     vertex  4.697443e+01  5.782866e+01  5.159070e+01
   endloop
 endfacet
 facet normal  1.334446e-01 -4.107004e-01  9.019522e-01
   outer loop
     vertex  4.503500e+01  5.752148e+01  5.159070e+01
     vertex  4.548262e+01  5.448036e+01  5.013971e+01
     vertex  4.646039e+01  5.479806e+01  5.013971e+01
   endloop
 endfacet
 facet normal -2.163435e-01 -6.658368e-01  7.140427e-01
   outer loop
     vertex  4.833560e+01  6.014663e+01  5.386341e+01
     vertex  4.891386e+01  5.752148e+01  5.159070e+01
     vertex  5.092470e+01  5.930538e+01  5.386341e+01
   endloop
 endfacet
 facet normal -1.051744e-01 -6.640450e-01  7.402584e-01
   outer loop
     vertex  4.833560e+01  6.014663e+01  5.386341e+01
     vertex  4.697443e+01  5.782866e+01  5.159070e+01
     vertex  4.891386e+01  5.752148e+01  5.159070e+01
   endloop
 endfacet
 facet normal -6.491118e-01 -7.326957e-01  2.044772e-01
   outer loop
     vertex  5.305385e+01  5.992014e+01  5.675324e+01
     vertex  5.524806e+01  5.888233e+01  6.000000e+01
     vertex  5.325351e+01  6.064935e+01  6.000000e+01
   endloop
 endfacet
 facet normal -4.531497e-01 -8.634046e-01  2.217834e-01
   outer loop
     vertex  5.305385e+01  5.992014e+01  5.675324e+01
     vertex  5.325351e+01  6.064935e+01  6.000000e+01
     vertex  5.089404e+01  6.188770e+01  6.000000e+01
   endloop
 endfacet
 facet normal -6.263190e-01 -6.263190e-01  4.641649e-01
   outer loop
     vertex  5.305385e+01  5.992014e+01  5.675324e+01
     vertex  5.312712e+01  5.770522e+01  5.386341e+01
     vertex  5.534204e+01  5.763196e+01  5.675324e+01
   endloop
 endfacet
 facet normal -6.856947e-01 -6.856947e-01  2.442241e-01
   outer loop
     vertex  5.305385e+01  5.992014e+01  5.675324e+01
     vertex  5.534204e+01  5.763196e+01  5.675324e+01
     vertex  5.524806e+01  5.888233e+01  6.000000e+01
   endloop
 endfacet
 facet normal -5.028708e-01 -6.921422e-01  5.177452e-01
   outer loop
     vertex  5.305385e+01  5.992014e+01  5.675324e+01
     vertex  5.092470e+01  5.930538e+01  5.386341e+01
     vertex  5.312712e+01  5.770522e+01  5.386341e+01
   endloop
 endfacet
 facet normal  1.228519e-01 -8.925710e-02  9.884031e-01
   outer loop
     vertex  4.404660e+01  5.304434e+01  5.013971e+01
     vertex  4.697443e+01  5.155253e+01  4.964108e+01
     vertex  4.465089e+01  5.387607e+01  5.013971e+01
   endloop
 endfacet
 facet normal  2.024224e-01 -3.972762e-01  8.950960e-01
   outer loop
     vertex  4.328541e+01  5.663002e+01  5.159070e+01
     vertex  4.548262e+01  5.448036e+01  5.013971e+01
     vertex  4.503500e+01  5.752148e+01  5.159070e+01
   endloop
 endfacet
 facet normal  2.538268e-01 -3.493626e-01  9.019522e-01
   outer loop
     vertex  4.328541e+01  5.663002e+01  5.159070e+01
     vertex  4.465089e+01  5.387607e+01  5.013971e+01
     vertex  4.548262e+01  5.448036e+01  5.013971e+01
   endloop
 endfacet
 facet normal  0.000000e+00 -7.001022e-01  7.140427e-01
   outer loop
     vertex  4.561326e+01  6.014663e+01  5.386341e+01
     vertex  4.697443e+01  5.782866e+01  5.159070e+01
     vertex  4.833560e+01  6.014663e+01  5.386341e+01
   endloop
 endfacet
 facet normal  1.051744e-01 -6.640450e-01  7.402584e-01
   outer loop
     vertex  4.561326e+01  6.014663e+01  5.386341e+01
     vertex  4.503500e+01  5.752148e+01  5.159070e+01
     vertex  4.697443e+01  5.782866e+01  5.159070e+01
   endloop
 endfacet
 facet normal -2.345600e-01 -9.516474e-01  1.983655e-01
   outer loop
     vertex  5.017057e+01  6.138925e+01  5.675324e+01
     vertex  5.089404e+01  6.188770e+01  6.000000e+01
     vertex  4.830678e+01  6.252540e+01  6.000000e+01
   endloop
 endfacet
 facet normal -4.416591e-01 -8.668049e-01  2.314877e-01
   outer loop
     vertex  5.017057e+01  6.138925e+01  5.675324e+01
     vertex  5.305385e+01  5.992014e+01  5.675324e+01
     vertex  5.089404e+01  6.188770e+01  6.000000e+01
   endloop
 endfacet
 facet normal -2.643748e-01 -8.136620e-01  5.177452e-01
   outer loop
     vertex  5.017057e+01  6.138925e+01  5.675324e+01
     vertex  4.833560e+01  6.014663e+01  5.386341e+01
     vertex  5.092470e+01  5.930538e+01  5.386341e+01
   endloop
 endfacet
 facet normal -4.021215e-01 -7.892080e-01  4.641649e-01
   outer loop
     vertex  5.017057e+01  6.138925e+01  5.675324e+01
     vertex  5.092470e+01  5.930538e+01  5.386341e+01
     vertex  5.305385e+01  5.992014e+01  5.675324e+01
   endloop
 endfacet
 facet normal  1.444210e-01 -4.692523e-02  9.884031e-01
   outer loop
     vertex  4.372890e+01  5.206657e+01  5.013971e+01
     vertex  4.697443e+01  5.155253e+01  4.964108e+01
     vertex  4.404660e+01  5.304434e+01  5.013971e+01
   endloop
 endfacet
 facet normal  3.493626e-01 -2.538268e-01  9.019522e-01
   outer loop
     vertex  4.189694e+01  5.524155e+01  5.159070e+01
     vertex  4.404660e+01  5.304434e+01  5.013971e+01
     vertex  4.465089e+01  5.387607e+01  5.013971e+01
   endloop
 endfacet
 facet normal  3.152802e-01 -3.152802e-01  8.950960e-01
   outer loop
     vertex  4.189694e+01  5.524155e+01  5.159070e+01
     vertex  4.465089e+01  5.387607e+01  5.013971e+01
     vertex  4.328541e+01  5.663002e+01  5.159070e+01
   endloop
 endfacet
 facet normal  3.052280e-01 -5.990437e-01  7.402584e-01
   outer loop
     vertex  4.302416e+01  5.930538e+01  5.386341e+01
     vertex  4.328541e+01  5.663002e+01  5.159070e+01
     vertex  4.503500e+01  5.752148e+01  5.159070e+01
   endloop
 endfacet
 facet normal  2.163435e-01 -6.658368e-01  7.140427e-01
   outer loop
     vertex  4.302416e+01  5.930538e+01  5.386341e+01
     vertex  4.503500e+01  5.752148e+01  5.159070e+01
     vertex  4.561326e+01  6.014663e+01  5.386341e+01
   endloop
 endfacet
 facet normal  0.000000e+00 -9.816935e-01  1.904674e-01
   outer loop
     vertex  4.697443e+01  6.189547e+01  5.675324e+01
     vertex  4.830678e+01  6.252540e+01  6.000000e+01
     vertex  4.564208e+01  6.252540e+01  6.000000e+01
   endloop
 endfacet
 facet normal  0.000000e+00 -8.555348e-01  5.177452e-01
   outer loop
     vertex  4.697443e+01  6.189547e+01  5.675324e+01
     vertex  4.561326e+01  6.014663e+01  5.386341e+01
     vertex  4.833560e+01  6.014663e+01  5.386341e+01
   endloop
 endfacet
 facet normal -1.515537e-01 -9.568725e-01  2.478435e-01
   outer loop
     vertex  4.697443e+01  6.189547e+01  5.675324e+01
     vertex  5.017057e+01  6.138925e+01  5.675324e+01
     vertex  4.830678e+01  6.252540e+01  6.000000e+01
   endloop
 endfacet
 facet normal -1.385616e-01 -8.748438e-01  4.641649e-01
   outer loop
     vertex  4.697443e+01  6.189547e+01  5.675324e+01
     vertex  4.833560e+01  6.014663e+01  5.386341e+01
     vertex  5.017057e+01  6.138925e+01  5.675324e+01
   endloop
 endfacet
 facet normal  1.518532e-01 -0.000000e+00  9.884031e-01
   outer loop
     vertex  4.372890e+01  5.103849e+01  5.013971e+01
     vertex  4.697443e+01  5.155253e+01  4.964108e+01
     vertex  4.372890e+01  5.206657e+01  5.013971e+01
   endloop
 endfacet
 facet normal  0.000000e+00  0.000000e+00  0.000000e+00
   outer loop
     vertex  4.372890e+01  5.103849e+01  5.013971e+01
     vertex  4.697443e+01  5.155253e+01  4.964108e+01
     vertex  4.697443e+01  5.155253e+01  4.964108e+01
   endloop
 endfacet
 facet normal  4.107004e-01 -1.334446e-01  9.019522e-01
   outer loop
     vertex  4.100548e+01  5.349196e+01  5.159070e+01
     vertex  4.372890e+01  5.206657e+01  5.013971e+01
     vertex  4.404660e+01  5.304434e+01  5.013971e+01
   endloop
 endfacet
 facet normal  3.972762e-01 -2.024224e-01  8.950960e-01
   outer loop
     vertex  4.100548e+01  5.349196e+01  5.159070e+01
     vertex  4.404660e+01  5.304434e+01  5.013971e+01
     vertex  4.189694e+01  5.524155e+01  5.159070e+01
   endloop
 endfacet
 facet normal  4.754038e-01 -4.754038e-01  7.402584e-01
   outer loop
     vertex  4.082174e+01  5.770522e+01  5.386341e+01
     vertex  4.189694e+01  5.524155e+01  5.159070e+01
     vertex  4.328541e+01  5.663002e+01  5.159070e+01
   endloop
 endfacet
 facet normal  4.115097e-01 -5.663946e-01  7.140427e-01
   outer loop
     vertex  4.082174e+01  5.770522e+01  5.386341e+01
     vertex  4.328541e+01  5.663002e+01  5.159070e+01
     vertex  4.302416e+01  5.930538e+01  5.386341e+01
   endloop
 endfacet
 facet normal  2.345600e-01 -9.516474e-01  1.983655e-01
   outer loop
     vertex  4.377829e+01  6.138925e+01  5.675324e+01
     vertex  4.564208e+01  6.252540e+01  6.000000e+01
     vertex  4.305482e+01  6.188770e+01  6.000000e+01
   endloop
 endfacet
 facet normal  1.515537e-01 -9.568725e-01  2.478435e-01
   outer loop
     vertex  4.377829e+01  6.138925e+01  5.675324e+01
     vertex  4.697443e+01  6.189547e+01  5.675324e+01
     vertex  4.564208e+01  6.252540e+01  6.000000e+01
   endloop
 endfacet
 facet normal  2.643748e-01 -8.136620e-01  5.177452e-01
   outer loop
     vertex  4.377829e+01  6.138925e+01  5.675324e+01
     vertex  4.302416e+01  5.930538e+01  5.386341e+01
     vertex  4.561326e+01  6.014663e+01  5.386341e+01
   endloop
 endfacet
 facet normal  1.385616e-01 -8.748438e-01  4.641649e-01
   outer loop
     vertex  4.377829e+01  6.138925e+01  5.675324e+01
     vertex  4.561326e+01  6.014663e+01  5.386341e+01
     vertex  4.697443e+01  6.189547e+01  5.675324e+01
   endloop
 endfacet
 facet normal  1.444210e-01  4.692523e-02  9.884031e-01
   outer loop
     vertex  4.404660e+01  5.006073e+01  5.013971e+01
     vertex  4.697443e+01  5.155253e+01  4.964108e+01
     vertex  4.372890e+01  5.103849e+01  5.013971e+01
   endloop
 endfacet
 facet normal  4.318359e-01  0.000000e+00  9.019522e-01
   outer loop
     vertex  4.069830e+01  5.155253e+01  5.159070e+01
     vertex  4.372890e+01  5.103849e+01  5.013971e+01
     vertex  4.372890e+01  5.206657e+01  5.013971e+01
   endloop
 endfacet
 facet normal  4.403841e-01 -6.974999e-02  8.950960e-01
   outer loop
     vertex  4.069830e+01  5.155253e+01  5.159070e+01
     vertex  4.372890e+01  5.206657e+01  5.013971e+01
     vertex  4.100548e+01  5.349196e+01  5.159070e+01
   endloop
 endfacet
 facet normal  5.990437e-01 -3.052280e-01  7.402584e-01
   outer loop
     vertex  3.922158e+01  5.550280e+01  5.386341e+01
     vertex  4.100548e+01  5.349196e+01  5.159070e+01
     vertex  4.189694e+01  5.524155e+01  5.159070e+01
   endloop
 endfacet
 facet normal  5.663946e-01 -4.115097e-01  7.140427e-01
   outer loop
     vertex  3.922158e+01  5.550280e+01  5.386341e+01
     vertex  4.189694e+01  5.524155e+01  5.159070e+01
     vertex  4.082174e+01  5.770522e+01  5.386341e+01
   endloop
 endfacet
 facet normal  4.531497e-01 -8.634046e-01  2.217834e-01
   outer loop
     vertex  4.089500e+01  5.992014e+01  5.675324e+01
     vertex  4.305482e+01  6.188770e+01  6.000000e+01
     vertex  4.069535e+01  6.064935e+01  6.000000e+01
   endloop
 endfacet
 facet normal  6.491118e-01 -7.326957e-01  2.044772e-01
   outer loop
     vertex  4.089500e+01  5.992014e+01  5.675324e+01
     vertex  4.069535e+01  6.064935e+01  6.000000e+01
     vertex  3.870079e+01  5.888233e+01  6.000000e+01
   endloop
 endfacet
 facet normal  4.416591e-01 -8.668049e-01  2.314877e-01
   outer loop
     vertex  4.089500e+01  5.992014e+01  5.675324e+01
     vertex  4.377829e+01  6.138925e+01  5.675324e+01
     vertex  4.305482e+01  6.188770e+01  6.000000e+01
   endloop
 endfacet
 facet normal  5.028708e-01 -6.921422e-01  5.177452e-01
   outer loop
     vertex  4.089500e+01  5.992014e+01  5.675324e+01
     vertex  4.082174e+01  5.770522e+01  5.386341e+01
     vertex  4.302416e+01  5.930538e+01  5.386341e+01
   endloop
 endfacet
 facet normal  4.021215e-01 -7.892080e-01  4.641649e-01
   outer loop
     vertex  4.089500e+01  5.992014e+01  5.675324e+01
     vertex  4.302416e+01  5.930538e+01  5.386341e+01
     vertex  4.377829e+01  6.138925e+01  5.675324e+01
   endloop
 endfacet
 facet normal  1.228519e-01  8.925710e-02  9.884031e-01
   outer loop
     vertex  4.465089e+01  4.922899e+01  5.013971e+01
     vertex  4.697443e+01  5.155253e+01  4.964108e+01
     vertex  4.404660e+01  5.006073e+01  5.013971e+01
   endloop
 endfacet
 facet normal  4.107004e-01  1.334446e-01  9.019522e-01
   outer loop
     vertex  4.100548e+01  4.961310e+01  5.159070e+01
     vertex  4.404660e+01  5.006073e+01  5.013971e+01
     vertex  4.372890e+01  5.103849e+01  5.013971e+01
   endloop
 endfacet
 facet normal  4.403841e-01  6.974999e-02  8.950960e-01
   outer loop
     vertex  4.100548e+01  4.961310e+01  5.159070e+01
     vertex  4.372890e+01  5.103849e+01  5.013971e+01
     vertex  4.069830e+01  5.155253e+01  5.159070e+01
   endloop
 endfacet
 facet normal  6.640450e-01 -1.051744e-01  7.402584e-01
   outer loop
     vertex  3.838033e+01  5.291370e+01  5.386341e+01
     vertex  4.069830e+01  5.155253e+01  5.159070e+01
     vertex  4.100548e+01  5.349196e+01  5.159070e+01
   endloop
 endfacet
 facet normal  6.658368e-01 -2.163435e-01  7.140427e-01
   outer loop
     vertex  3.838033e+01  5.291370e+01  5.386341e+01
     vertex  4.100548e+01  5.349196e+01  5.159070e+01
     vertex  3.922158e+01  5.550280e+01  5.386341e+01
   endloop
 endfacet
 facet normal  8.077771e-01 -5.575683e-01  1.913471e-01
   outer loop
     vertex  3.860682e+01  5.763196e+01  5.675324e+01
     vertex  3.870079e+01  5.888233e+01  6.000000e+01
     vertex  3.718708e+01  5.668933e+01  6.000000e+01
   endloop
 endfacet
 facet normal  6.856947e-01 -6.856947e-01  2.442241e-01
   outer loop
     vertex  3.860682e+01  5.763196e+01  5.675324e+01
     vertex  4.089500e+01  5.992014e+01  5.675324e+01
     vertex  3.870079e+01  5.888233e+01  6.000000e+01
   endloop
 endfacet
 facet normal  6.921422e-01 -5.028708e-01  5.177452e-01
   outer loop
     vertex  3.860682e+01  5.763196e+01  5.675324e+01
     vertex  3.922158e+01  5.550280e+01  5.386341e+01
     vertex  4.082174e+01  5.770522e+01  5.386341e+01
   endloop
 endfacet
 facet normal  6.263190e-01 -6.263190e-01  4.641649e-01
   outer loop
     vertex  3.860682e+01  5.763196e+01  5.675324e+01
     vertex  4.082174e+01  5.770522e+01  5.386341e+01
     vertex  4.089500e+01  5.992014e+01  5.675324e+01
   endloop
 endfacet
 facet normal  8.925710e-02  1.228519e-01  9.884031e-01
   outer loop
     vertex  4.548262e+01  4.862470e+01  5.013971e+01
     vertex  4.697443e+01  5.155253e+01  4.964108e+01
     vertex  4.465089e+01  4.922899e+01  5.013971e+01
   endloop
 endfacet
 facet normal  3.493626e-01  2.538268e-01  9.019522e-01
   outer loop
     vertex  4.189694e+01  4.786352e+01  5.159070e+01
     vertex  4.465089e+01  4.922899e+01  5.013971e+01
     vertex  4.404660e+01  5.006073e+01  5.013971e+01
   endloop
 endfacet
 facet normal  3.972762e-01  2.024224e-01  8.950960e-01
   outer loop
     vertex  4.189694e+01  4.786352e+01  5.159070e+01
     vertex  4.404660e+01  5.006073e+01  5.013971e+01
     vertex  4.100548e+01  4.961310e+01  5.159070e+01
   endloop
 endfacet
 facet normal  7.001022e-01 -0.000000e+00  7.140427e-01
   outer loop
     vertex  3.838033e+01  5.019136e+01  5.386341e+01
     vertex  4.069830e+01  5.155253e+01  5.159070e+01
     vertex  3.838033e+01  5.291370e+01  5.386341e+01
   endloop
 endfacet
 facet normal  6.640450e-01  1.051744e-01  7.402584e-01
   outer loop
     vertex  3.838033e+01  5.019136e+01  5.386341e+01
     vertex  4.100548e+01  4.961310e+01  5.159070e+01
     vertex  4.069830e+01  5.155253e+01  5.159070e+01
   endloop
 endfacet
 facet normal  7.892080e-01 -4.021215e-01  4.641649e-01
   outer loop
     vertex  3.713771e+01  5.474867e+01  5.675324e+01
     vertex  3.922158e+01  5.550280e+01  5.386341e+01
     vertex  3.860682e+01  5.763196e+01  5.675324e+01
   endloop
 endfacet
 facet normal  9.172555e-01 -3.478691e-01  1.939832e-01
   outer loop
     vertex  3.713771e+01  5.474867e+01  5.675324e+01
     vertex  3.718708e+01  5.668933e+01  6.000000e+01
     vertex  3.624216e+01  5.419780e+01  6.000000e+01
   endloop
 endfacet
 facet normal  8.627939e-01 -4.396154e-01  2.496498e-01
   outer loop
     vertex  3.713771e+01  5.474867e+01  5.675324e+01
     vertex  3.860682e+01  5.763196e+01  5.675324e+01
     vertex  3.718708e+01  5.668933e+01  6.000000e+01
   endloop
 endfacet
 facet normal  8.136620e-01 -2.643748e-01  5.177452e-01
   outer loop
     vertex  3.713771e+01  5.474867e+01  5.675324e+01
     vertex  3.838033e+01  5.291370e+01  5.386341e+01
     vertex  3.922158e+01  5.550280e+01  5.386341e+01
   endloop
 endfacet
 facet normal  4.692523e-02  1.444210e-01  9.884031e-01
   outer loop
     vertex  4.646039e+01  4.830700e+01  5.013971e+01
     vertex  4.697443e+01  5.155253e+01  4.964108e+01
     vertex  4.548262e+01  4.862470e+01  5.013971e+01
   endloop
 endfacet
 facet normal  2.538268e-01  3.493626e-01  9.019522e-01
   outer loop
     vertex  4.328541e+01  4.647504e+01  5.159070e+01
     vertex  4.548262e+01  4.862470e+01  5.013971e+01
     vertex  4.465089e+01  4.922899e+01  5.013971e+01
   endloop
 endfacet
 facet normal  3.152802e-01  3.152802e-01  8.950960e-01
   outer loop
     vertex  4.328541e+01  4.647504e+01  5.159070e+01
     vertex  4.465089e+01  4.922899e+01  5.013971e+01
     vertex  4.189694e+01  4.786352e+01  5.159070e+01
   endloop
 endfacet
 facet normal  5.990437e-01  3.052280e-01  7.402584e-01
   outer loop
     vertex  3.922158e+01  4.760226e+01  5.386341e+01
     vertex  4.189694e+01  4.786352e+01  5.159070e+01
     vertex  4.100548e+01  4.961310e+01  5.159070e+01
   endloop
 endfacet
 facet normal  6.658368e-01  2.163435e-01  7.140427e-01
   outer loop
     vertex  3.922158e+01  4.760226e+01  5.386341e+01
     vertex  4.100548e+01  4.961310e+01  5.159070e+01
     vertex  3.838033e+01  5.019136e+01  5.386341e+01
   endloop
 endfacet
 facet normal  8.748438e-01 -1.385616e-01  4.641649e-01
   outer loop
     vertex  3.663149e+01  5.155253e+01  5.675324e+01
     vertex  3.838033e+01  5.291370e+01  5.386341e+01
     vertex  3.713771e+01  5.474867e+01  5.675324e+01
   endloop
 endfacet
 facet normal  8.555348e-01  0.000000e+00  5.177452e-01
   outer loop
     vertex  3.663149e+01  5.155253e+01  5.675324e+01
     vertex  3.838033e+01  5.019136e+01  5.386341e+01
     vertex  3.838033e+01  5.291370e+01  5.386341e+01
   endloop
 endfacet
 facet normal  9.700809e-01 -1.177891e-01  2.122940e-01
   outer loop
     vertex  3.663149e+01  5.155253e+01  5.675324e+01
     vertex  3.624216e+01  5.419780e+01  6.000000e+01
     vertex  3.592097e+01  5.155253e+01  6.000000e+01
   endloop
 endfacet
 facet normal  9.700809e-01  1.177891e-01  2.122940e-01
   outer loop
     vertex  3.663149e+01  5.155253e+01  5.675324e+01
     vertex  3.592097e+01  5.155253e+01  6.000000e+01
     vertex  3.624216e+01  4.890727e+01  6.000000e+01
   endloop
 endfacet
 facet normal  9.591185e-01 -1.519094e-01  2.387786e-01
   outer loop
     vertex  3.663149e+01  5.155253e+01  5.675324e+01
     vertex  3.713771e+01  5.474867e+01  5.675324e+01
     vertex  3.624216e+01  5.419780e+01  6.000000e+01
   endloop
 endfacet
 facet normal  0.000000e+00  1.518532e-01  9.884031e-01
   outer loop
     vertex  4.748847e+01  4.830700e+01  5.013971e+01
     vertex  4.697443e+01  5.155253e+01  4.964108e+01
     vertex  4.646039e+01  4.830700e+01  5.013971e+01
   endloop
 endfacet
 facet normal  1.334446e-01  4.107004e-01  9.019522e-01
   outer loop
     vertex  4.503500e+01  4.558358e+01  5.159070e+01
     vertex  4.646039e+01  4.830700e+01  5.013971e+01
     vertex  4.548262e+01  4.862470e+01  5.013971e+01
   endloop
 endfacet
 facet normal  2.024224e-01  3.972762e-01  8.950960e-01
   outer loop
     vertex  4.503500e+01  4.558358e+01  5.159070e+01
     vertex  4.548262e+01  4.862470e+01  5.013971e+01
     vertex  4.328541e+01  4.647504e+01  5.159070e+01
   endloop
 endfacet
 facet normal  4.754038e-01  4.754038e-01  7.402584e-01
   outer loop
     vertex  4.082174e+01  4.539984e+01  5.386341e+01
     vertex  4.328541e+01  4.647504e+01  5.159070e+01
     vertex  4.189694e+01  4.786352e+01  5.159070e+01
   endloop
 endfacet
 facet normal  5.663946e-01  4.115097e-01  7.140427e-01
   outer loop
     vertex  4.082174e+01  4.539984e+01  5.386341e+01
     vertex  4.189694e+01  4.786352e+01  5.159070e+01
     vertex  3.922158e+01  4.760226e+01  5.386341e+01
   endloop
 endfacet
 facet normal  9.172555e-01  3.478691e-01  1.939832e-01
   outer loop
     vertex  3.713771e+01  4.835639e+01  5.675324e+01
     vertex  3.624216e+01  4.890727e+01  6.000000e+01
     vertex  3.718708e+01  4.641573e+01  6.000000e+01
   endloop
 endfacet
 facet normal  8.748438e-01  1.385616e-01  4.641649e-01
   outer loop
     vertex  3.713771e+01  4.835639e+01  5.675324e+01
     vertex  3.838033e+01  5.019136e+01  5.386341e+01
     vertex  3.663149e+01  5.155253e+01  5.675324e+01
   endloop
 endfacet
 facet normal  8.136620e-01  2.643748e-01  5.177452e-01
   outer loop
     vertex  3.713771e+01  4.835639e+01  5.675324e+01
     vertex  3.922158e+01  4.760226e+01  5.386341e+01
     vertex  3.838033e+01  5.019136e+01  5.386341e+01
   endloop
 endfacet
 facet normal  9.591185e-01  1.519094e-01  2.387786e-01
   outer loop
     vertex  3.713771e+01  4.835639e+01  5.675324e+01
     vertex  3.663149e+01  5.155253e+01  5.675324e+01
     vertex  3.624216e+01  4.890727e+01  6.000000e+01
   endloop
 endfacet
 facet normal -4.692523e-02  1.444210e-01  9.884031e-01
   outer loop
     vertex  4.846623e+01  4.862470e+01  5.013971e+01
     vertex  4.697443e+01  5.155253e+01  4.964108e+01
     vertex  4.748847e+01  4.830700e+01  5.013971e+01
   endloop
 endfacet
 facet normal  6.974999e-02  4.403841e-01  8.950960e-01
   outer loop
     vertex  4.697443e+01  4.527641e+01  5.159070e+01
     vertex  4.646039e+01  4.830700e+01  5.013971e+01
     vertex  4.503500e+01  4.558358e+01  5.159070e+01
   endloop
 endfacet
 facet normal  0.000000e+00  4.318359e-01  9.019522e-01
   outer loop
     vertex  4.697443e+01  4.527641e+01  5.159070e+01
     vertex  4.748847e+01  4.830700e+01  5.013971e+01
     vertex  4.646039e+01  4.830700e+01  5.013971e+01
   endloop
 endfacet
 facet normal  4.115097e-01  5.663946e-01  7.140427e-01
   outer loop
     vertex  4.302416e+01  4.379969e+01  5.386341e+01
     vertex  4.328541e+01  4.647504e+01  5.159070e+01
     vertex  4.082174e+01  4.539984e+01  5.386341e+01
   endloop
 endfacet
 facet normal  3.052280e-01  5.990437e-01  7.402584e-01
   outer loop
     vertex  4.302416e+01  4.379969e+01  5.386341e+01
     vertex  4.503500e+01  4.558358e+01  5.159070e+01
     vertex  4.328541e+01  4.647504e+01  5.159070e+01
   endloop
 endfacet
 facet normal  8.627939e-01  4.396154e-01  2.496498e-01
   outer loop
     vertex  3.860682e+01  4.547311e+01  5.675324e+01
     vertex  3.713771e+01  4.835639e+01  5.675324e+01
     vertex  3.718708e+01  4.641573e+01  6.000000e+01
   endloop
 endfacet
 facet normal  6.921422e-01  5.028708e-01  5.177452e-01
   outer loop
     vertex  3.860682e+01  4.547311e+01  5.675324e+01
     vertex  4.082174e+01  4.539984e+01  5.386341e+01
     vertex  3.922158e+01  4.760226e+01  5.386341e+01
   endloop
 endfacet
 facet normal  7.892080e-01  4.021215e-01  4.641649e-01
   outer loop
     vertex  3.860682e+01  4.547311e+01  5.675324e+01
     vertex  3.922158e+01  4.760226e+01  5.386341e+01
     vertex  3.713771e+01  4.835639e+01  5.675324e+01
   endloop
 endfacet
 facet normal  8.077771e-01  5.575683e-01  1.913471e-01
   outer loop
     vertex  3.860682e+01  4.547311e+01  5.675324e+01
     vertex  3.718708e+01  4.641573e+01  6.000000e+01
     vertex  3.870079e+01  4.422273e+01  6.000000e+01
   endloop
 endfacet
 facet normal -8.925710e-02  1.228519e-01  9.884031e-01
   outer loop
     vertex  4.929797e+01  4.922899e+01  5.013971e+01
     vertex  4.697443e+01  5.155253e+01  4.964108e+01
     vertex  4.846623e+01  4.862470e+01  5.013971e+01
   endloop
 endfacet
 facet normal -6.974999e-02  4.403841e-01  8.950960e-01
   outer loop
     vertex  4.891386e+01  4.558358e+01  5.159070e+01
     vertex  4.748847e+01  4.830700e+01  5.013971e+01
     vertex  4.697443e+01  4.527641e+01  5.159070e+01
   endloop
 endfacet
 facet normal -1.334446e-01  4.107004e-01  9.019522e-01
   outer loop
     vertex  4.891386e+01  4.558358e+01  5.159070e+01
     vertex  4.846623e+01  4.862470e+01  5.013971e+01
     vertex  4.748847e+01  4.830700e+01  5.013971e+01
   endloop
 endfacet
 facet normal  1.051744e-01  6.640450e-01  7.402584e-01
   outer loop
     vertex  4.561326e+01  4.295844e+01  5.386341e+01
     vertex  4.697443e+01  4.527641e+01  5.159070e+01
     vertex  4.503500e+01  4.558358e+01  5.159070e+01
   endloop
 endfacet
 facet normal  2.163435e-01  6.658368e-01  7.140427e-01
   outer loop
     vertex  4.561326e+01  4.295844e+01  5.386341e+01
     vertex  4.503500e+01  4.558358e+01  5.159070e+01
     vertex  4.302416e+01  4.379969e+01  5.386341e+01
   endloop
 endfacet
 facet normal  6.856947e-01  6.856947e-01  2.442241e-01
   outer loop
     vertex  4.089500e+01  4.318492e+01  5.675324e+01
     vertex  3.860682e+01  4.547311e+01  5.675324e+01
     vertex  3.870079e+01  4.422273e+01  6.000000e+01
   endloop
 endfacet
 facet normal  6.491118e-01  7.326957e-01  2.044772e-01
   outer loop
     vertex  4.089500e+01  4.318492e+01  5.675324e+01
     vertex  3.870079e+01  4.422273e+01  6.000000e+01
     vertex  4.069535e+01  4.245571e+01  6.000000e+01
   endloop
 endfacet
 facet normal  4.531497e-01  8.634046e-01  2.217834e-01
   outer loop
     vertex  4.089500e+01  4.318492e+01  5.675324e+01
     vertex  4.069535e+01  4.245571e+01  6.000000e+01
     vertex  4.305482e+01  4.121737e+01  6.000000e+01
   endloop
 endfacet
 facet normal  5.028708e-01  6.921422e-01  5.177452e-01
   outer loop
     vertex  4.089500e+01  4.318492e+01  5.675324e+01
     vertex  4.302416e+01  4.379969e+01  5.386341e+01
     vertex  4.082174e+01  4.539984e+01  5.386341e+01
   endloop
 endfacet
 facet normal  6.263190e-01  6.263190e-01  4.641649e-01
   outer loop
     vertex  4.089500e+01  4.318492e+01  5.675324e+01
     vertex  4.082174e+01  4.539984e+01  5.386341e+01
     vertex  3.860682e+01  4.547311e+01  5.675324e+01
   endloop
 endfacet
 facet normal -1.065751e-01  1.207162e-01  9.869495e-01
   outer loop
     vertex  4.990226e+01  5.006073e+01  5.013971e+01
     vertex  4.933909e+01  5.155253e+01  4.989643e+01
     vertex  4.697443e+01  5.155253e+01  4.964108e+01
   endloop
 endfacet
 facet normal -1.228519e-01  8.925710e-02  9.884031e-01
   outer loop
     vertex  4.990226e+01  5.006073e+01  5.013971e+01
     vertex  4.697443e+01  5.155253e+01  4.964108e+01
     vertex  4.929797e+01  4.922899e+01  5.013971e+01
   endloop
 endfacet
 facet normal -2.024224e-01  3.972762e-01  8.950960e-01
   outer loop
     vertex  5.066344e+01  4.647504e+01  5.159070e+01
     vertex  4.846623e+01  4.862470e+01  5.013971e+01
     vertex  4.891386e+01  4.558358e+01  5.159070e+01
   endloop
 endfacet
 facet normal -2.538268e-01  3.493626e-01  9.019522e-01
   outer loop
     vertex  5.066344e+01  4.647504e+01  5.159070e+01
     vertex  4.929797e+01  4.922899e+01  5.013971e+01
     vertex  4.846623e+01  4.862470e+01  5.013971e+01
   endloop
 endfacet
 facet normal -1.051744e-01  6.640450e-01  7.402584e-01
   outer loop
     vertex  4.833560e+01  4.295844e+01  5.386341e+01
     vertex  4.891386e+01  4.558358e+01  5.159070e+01
     vertex  4.697443e+01  4.527641e+01  5.159070e+01
   endloop
 endfacet
 facet normal  0.000000e+00  7.001022e-01  7.140427e-01
   outer loop
     vertex  4.833560e+01  4.295844e+01  5.386341e+01
     vertex  4.697443e+01  4.527641e+01  5.159070e+01
     vertex  4.561326e+01  4.295844e+01  5.386341e+01
   endloop
 endfacet
 facet normal  2.345600e-01  9.516474e-01  1.983655e-01
   outer loop
     vertex  4.377829e+01  4.171582e+01  5.675324e+01
     vertex  4.305482e+01  4.121737e+01  6.000000e+01
     vertex  4.564208e+01  4.057966e+01  6.000000e+01
   endloop
 endfacet
 facet normal  4.416591e-01  8.668049e-01  2.314877e-01
   outer loop
     vertex  4.377829e+01  4.171582e+01  5.675324e+01
     vertex  4.089500e+01  4.318492e+01  5.675324e+01
     vertex  4.305482e+01  4.121737e+01  6.000000e+01
   endloop
 endfacet
 facet normal  2.643748e-01  8.136620e-01  5.177452e-01
   outer loop
     vertex  4.377829e+01  4.171582e+01  5.675324e+01
     vertex  4.561326e+01  4.295844e+01  5.386341e+01
     vertex  4.302416e+01  4.379969e+01  5.386341e+01
   endloop
 endfacet
 facet normal  4.021215e-01  7.892080e-01  4.641649e-01
   outer loop
     vertex  4.377829e+01  4.171582e+01  5.675324e+01
     vertex  4.302416e+01  4.379969e+01  5.386341e+01
     vertex  4.089500e+01  4.318492e+01  5.675324e+01
   endloop
 endfacet
 facet normal -3.157213e-01 -9.417989e-02  9.441664e-01
   outer loop
     vertex  5.021996e+01  5.103849e+01  5.013971e+01
     vertex  5.159472e+01  5.155253e+01  5.065070e+01
     vertex  4.933909e+01  5.155253e+01  4.989643e+01
   endloop
 endfacet
 facet normal -2.255390e-01  7.328207e-02  9.714741e-01
   outer loop
     vertex  5.021996e+01  5.103849e+01  5.013971e+01
     vertex  4.933909e+01  5.155253e+01  4.989643e+01
     vertex  4.990226e+01  5.006073e+01  5.013971e+01
   endloop
 endfacet
 facet normal -3.493626e-01  2.538268e-01  9.019522e-01
   outer loop
     vertex  5.205192e+01  4.786352e+01  5.159070e+01
     vertex  4.990226e+01  5.006073e+01  5.013971e+01
     vertex  4.929797e+01  4.922899e+01  5.013971e+01
   endloop
 endfacet
 facet normal -3.152802e-01  3.152802e-01  8.950960e-01
   outer loop
     vertex  5.205192e+01  4.786352e+01  5.159070e+01
     vertex  4.929797e+01  4.922899e+01  5.013971e+01
     vertex  5.066344e+01  4.647504e+01  5.159070e+01
   endloop
 endfacet
 facet normal -3.052280e-01  5.990437e-01  7.402584e-01
   outer loop
     vertex  5.092470e+01  4.379969e+01  5.386341e+01
     vertex  5.066344e+01  4.647504e+01  5.159070e+01
     vertex  4.891386e+01  4.558358e+01  5.159070e+01
   endloop
 endfacet
 facet normal -2.163435e-01  6.658368e-01  7.140427e-01
   outer loop
     vertex  5.092470e+01  4.379969e+01  5.386341e+01
     vertex  4.891386e+01  4.558358e+01  5.159070e+01
     vertex  4.833560e+01  4.295844e+01  5.386341e+01
   endloop
 endfacet
 facet normal  2.620303e-15  9.816935e-01  1.904674e-01
   outer loop
     vertex  4.697443e+01  4.120960e+01  5.675324e+01
     vertex  4.564208e+01  4.057966e+01  6.000000e+01
     vertex  4.830678e+01  4.057966e+01  6.000000e+01
   endloop
 endfacet
 facet normal  0.000000e+00  8.555348e-01  5.177452e-01
   outer loop
     vertex  4.697443e+01  4.120960e+01  5.675324e+01
     vertex  4.833560e+01  4.295844e+01  5.386341e+01
     vertex  4.561326e+01  4.295844e+01  5.386341e+01
   endloop
 endfacet
 facet normal  1.385616e-01  8.748438e-01  4.641649e-01
   outer loop
     vertex  4.697443e+01  4.120960e+01  5.675324e+01
     vertex  4.561326e+01  4.295844e+01  5.386341e+01
     vertex  4.377829e+01  4.171582e+01  5.675324e+01
   endloop
 endfacet
 facet normal  1.515537e-01  9.568725e-01  2.478435e-01
   outer loop
     vertex  4.697443e+01  4.120960e+01  5.675324e+01
     vertex  4.377829e+01  4.171582e+01  5.675324e+01
     vertex  4.564208e+01  4.057966e+01  6.000000e+01
   endloop
 endfacet
 facet normal -5.113601e-01  5.991004e-02  8.572757e-01
   outer loop
     vertex  5.294338e+01  4.961310e+01  5.159070e+01
     vertex  5.363734e+01  5.155253e+01  5.186910e+01
     vertex  5.159472e+01  5.155253e+01  5.065070e+01
   endloop
 endfacet
 facet normal -3.972762e-01  2.024224e-01  8.950960e-01
   outer loop
     vertex  5.294338e+01  4.961310e+01  5.159070e+01
     vertex  4.990226e+01  5.006073e+01  5.013971e+01
     vertex  5.205192e+01  4.786352e+01  5.159070e+01
   endloop
 endfacet
 facet normal -3.965089e-01  1.622212e-01  9.035845e-01
   outer loop
     vertex  5.294338e+01  4.961310e+01  5.159070e+01
     vertex  5.159472e+01  5.155253e+01  5.065070e+01
     vertex  5.021996e+01  5.103849e+01  5.013971e+01
   endloop
 endfacet
 facet normal -4.107004e-01  1.334446e-01  9.019522e-01
   outer loop
     vertex  5.294338e+01  4.961310e+01  5.159070e+01
     vertex  5.021996e+01  5.103849e+01  5.013971e+01
     vertex  4.990226e+01  5.006073e+01  5.013971e+01
   endloop
 endfacet
 facet normal -4.754038e-01  4.754038e-01  7.402584e-01
   outer loop
     vertex  5.312712e+01  4.539984e+01  5.386341e+01
     vertex  5.205192e+01  4.786352e+01  5.159070e+01
     vertex  5.066344e+01  4.647504e+01  5.159070e+01
   endloop
 endfacet
 facet normal -4.115097e-01  5.663946e-01  7.140427e-01
   outer loop
     vertex  5.312712e+01  4.539984e+01  5.386341e+01
     vertex  5.066344e+01  4.647504e+01  5.159070e+01
     vertex  5.092470e+01  4.379969e+01  5.386341e+01
   endloop
 endfacet
 facet normal -2.345600e-01  9.516474e-01  1.983655e-01
   outer loop
     vertex  5.017057e+01  4.171582e+01  5.675324e+01
     vertex  4.830678e+01  4.057966e+01  6.000000e+01
     vertex  5.089404e+01  4.121737e+01  6.000000e+01
   endloop
 endfacet
 facet normal -1.515537e-01  9.568725e-01  2.478435e-01
   outer loop
     vertex  5.017057e+01  4.171582e+01  5.675324e+01
     vertex  4.697443e+01  4.120960e+01  5.675324e+01
     vertex  4.830678e+01  4.057966e+01  6.000000e+01
   endloop
 endfacet
 facet normal -2.643748e-01  8.136620e-01  5.177452e-01
   outer loop
     vertex  5.017057e+01  4.171582e+01  5.675324e+01
     vertex  5.092470e+01  4.379969e+01  5.386341e+01
     vertex  4.833560e+01  4.295844e+01  5.386341e+01
   endloop
 endfacet
 facet normal -1.385616e-01  8.748438e-01  4.641649e-01
   outer loop
     vertex  5.017057e+01  4.171582e+01  5.675324e+01
     vertex  4.833560e+01  4.295844e+01  5.386341e+01
     vertex  4.697443e+01  4.120960e+01  5.675324e+01
   endloop
 endfacet
 facet normal -5.990437e-01  3.052280e-01  7.402584e-01
   outer loop
     vertex  5.472727e+01  4.760226e+01  5.386341e+01
     vertex  5.294338e+01  4.961310e+01  5.159070e+01
     vertex  5.205192e+01  4.786352e+01  5.159070e+01
   endloop
 endfacet
 facet normal -5.663946e-01  4.115097e-01  7.140427e-01
   outer loop
     vertex  5.472727e+01  4.760226e+01  5.386341e+01
     vertex  5.205192e+01  4.786352e+01  5.159070e+01
     vertex  5.312712e+01  4.539984e+01  5.386341e+01
   endloop
 endfacet
 facet normal -4.531497e-01  8.634046e-01  2.217834e-01
   outer loop
     vertex  5.305385e+01  4.318492e+01  5.675324e+01
     vertex  5.089404e+01  4.121737e+01  6.000000e+01
     vertex  5.325351e+01  4.245571e+01  6.000000e+01
   endloop
 endfacet
 facet normal -6.491118e-01  7.326957e-01  2.044772e-01
   outer loop
     vertex  5.305385e+01  4.318492e+01  5.675324e+01
     vertex  5.325351e+01  4.245571e+01  6.000000e+01
     vertex  5.524806e+01  4.422273e+01  6.000000e+01
   endloop
 endfacet
 facet normal -4.416591e-01  8.668049e-01  2.314877e-01
   outer loop
     vertex  5.305385e+01  4.318492e+01  5.675324e+01
     vertex  5.017057e+01  4.171582e+01  5.675324e+01
     vertex  5.089404e+01  4.121737e+01  6.000000e+01
   endloop
 endfacet
 facet normal -5.028708e-01  6.921422e-01  5.177452e-01
   outer loop
     vertex  5.305385e+01  4.318492e+01  5.675324e+01
     vertex  5.312712e+01  4.539984e+01  5.386341e+01
     vertex  5.092470e+01  4.379969e+01  5.386341e+01
   endloop
 endfacet
 facet normal -4.021215e-01  7.892080e-01  4.641649e-01
   outer loop
     vertex  5.305385e+01  4.318492e+01  5.675324e+01
     vertex  5.092470e+01  4.379969e+01  5.386341e+01
     vertex  5.017057e+01  4.171582e+01  5.675324e+01
   endloop
 endfacet
 facet normal -6.804921e-01  9.840463e-02  7.261177e-01
   outer loop
     vertex  5.556852e+01  5.019136e+01  5.386341e+01
     vertex  5.537276e+01  5.155253e+01  5.349548e+01
     vertex  5.363734e+01  5.155253e+01  5.186910e+01
   endloop
 endfacet
 facet normal -8.233179e-01  3.472327e-02  5.665173e-01
   outer loop
     vertex  5.556852e+01  5.019136e+01  5.386341e+01
     vertex  5.672098e+01  5.155253e+01  5.545485e+01
     vertex  5.537276e+01  5.155253e+01  5.349548e+01
   endloop
 endfacet
 facet normal -6.652878e-01  1.325807e-01  7.347207e-01
   outer loop
     vertex  5.556852e+01  5.019136e+01  5.386341e+01
     vertex  5.363734e+01  5.155253e+01  5.186910e+01
     vertex  5.294338e+01  4.961310e+01  5.159070e+01
   endloop
 endfacet
 facet normal -6.658368e-01  2.163435e-01  7.140427e-01
   outer loop
     vertex  5.556852e+01  5.019136e+01  5.386341e+01
     vertex  5.294338e+01  4.961310e+01  5.159070e+01
     vertex  5.472727e+01  4.760226e+01  5.386341e+01
   endloop
 endfacet
 facet normal -6.263190e-01  6.263190e-01  4.641649e-01
   outer loop
     vertex  5.534204e+01  4.547311e+01  5.675324e+01
     vertex  5.312712e+01  4.539984e+01  5.386341e+01
     vertex  5.305385e+01  4.318492e+01  5.675324e+01
   endloop
 endfacet
 facet normal -8.077771e-01  5.575683e-01  1.913471e-01
   outer loop
     vertex  5.534204e+01  4.547311e+01  5.675324e+01
     vertex  5.524806e+01  4.422273e+01  6.000000e+01
     vertex  5.676178e+01  4.641573e+01  6.000000e+01
   endloop
 endfacet
 facet normal -6.856947e-01  6.856947e-01  2.442241e-01
   outer loop
     vertex  5.534204e+01  4.547311e+01  5.675324e+01
     vertex  5.305385e+01  4.318492e+01  5.675324e+01
     vertex  5.524806e+01  4.422273e+01  6.000000e+01
   endloop
 endfacet
 facet normal -6.921422e-01  5.028708e-01  5.177452e-01
   outer loop
     vertex  5.534204e+01  4.547311e+01  5.675324e+01
     vertex  5.472727e+01  4.760226e+01  5.386341e+01
     vertex  5.312712e+01  4.539984e+01  5.386341e+01
   endloop
 endfacet
 facet normal -8.615060e-01  1.700509e-01  4.784246e-01
   outer loop
     vertex  5.681114e+01  4.835639e+01  5.675324e+01
     vertex  5.672098e+01  5.155253e+01  5.545485e+01
     vertex  5.556852e+01  5.019136e+01  5.386341e+01
   endloop
 endfacet
 facet normal -8.136620e-01  2.643748e-01  5.177452e-01
   outer loop
     vertex  5.681114e+01  4.835639e+01  5.675324e+01
     vertex  5.556852e+01  5.019136e+01  5.386341e+01
     vertex  5.472727e+01  4.760226e+01  5.386341e+01
   endloop
 endfacet
 facet normal -7.892080e-01  4.021215e-01  4.641649e-01
   outer loop
     vertex  5.681114e+01  4.835639e+01  5.675324e+01
     vertex  5.472727e+01  4.760226e+01  5.386341e+01
     vertex  5.534204e+01  4.547311e+01  5.675324e+01
   endloop
 endfacet
 facet normal -8.627939e-01  4.396154e-01  2.496498e-01
   outer loop
     vertex  5.681114e+01  4.835639e+01  5.675324e+01
     vertex  5.534204e+01  4.547311e+01  5.675324e+01
     vertex  5.676178e+01  4.641573e+01  6.000000e+01
   endloop
 endfacet
 facet normal -9.562267e-01  1.758103e-01  2.339257e-01
   outer loop
     vertex  5.681114e+01  4.835639e+01  5.675324e+01
     vertex  5.770670e+01  4.890727e+01  6.000000e+01
     vertex  5.761984e+01  5.155253e+01  5.765686e+01
   endloop
 endfacet
 facet normal -9.172555e-01  3.478691e-01  1.939832e-01
   outer loop
     vertex  5.681114e+01  4.835639e+01  5.675324e+01
     vertex  5.676178e+01  4.641573e+01  6.000000e+01
     vertex  5.770670e+01  4.890727e+01  6.000000e+01
   endloop
 endfacet
 facet normal -9.184122e-01  1.263875e-01  3.748935e-01
   outer loop
     vertex  5.681114e+01  4.835639e+01  5.675324e+01
     vertex  5.761984e+01  5.155253e+01  5.765686e+01
     vertex  5.672098e+01  5.155253e+01  5.545485e+01
   endloop
 endfacet
endsolid
