solid 
 facet normal -1.000000e+00  0.000000e+00  0.000000e+00
   outer loop
     vertex  0.000000e+00  0.000000e+00  0.000000e+00
     vertex  0.000000e+00  9.504549e+01  6.000000e+01
     vertex  0.000000e+00  9.504549e+01  0.000000e+00
   endloop
 endfacet
 facet normal -1.000000e+00  0.000000e+00  0.000000e+00
   outer loop
     vertex  0.000000e+00  0.000000e+00  6.000000e+01
     vertex  0.000000e+00  9.504549e+01  6.000000e+01
     vertex  0.000000e+00  0.000000e+00  0.000000e+00
   endloop
 endfacet
 facet normal  0.000000e+00 -1.000000e+00 -0.000000e+00
   outer loop
     vertex  1.378216e+02  0.000000e+00  6.000000e+01
     vertex  0.000000e+00  0.000000e+00  0.000000e+00
     vertex  1.378216e+02  0.000000e+00  0.000000e+00
   endloop
 endfacet
 facet normal -0.000000e+00 -1.000000e+00  0.000000e+00
   outer loop
     vertex  1.378216e+02  0.000000e+00  6.000000e+01
     vertex  0.000000e+00  0.000000e+00  6.000000e+01
     vertex  0.000000e+00  0.000000e+00  0.000000e+00
   endloop
 endfacet
 facet normal  0.000000e+00  0.000000e+00  1.000000e+00
   outer loop
     vertex  8.125044e+01  4.824882e+01  6.000000e+01
     vertex  7.828186e+01  5.087875e+01  6.000000e+01
     vertex  0.000000e+00  0.000000e+00  6.000000e+01
   endloop
 endfacet
 facet normal  0.000000e+00  0.000000e+00  1.000000e+00
   outer loop
     vertex  7.602893e+01  5.414268e+01  6.000000e+01
     vertex  0.000000e+00  0.000000e+00  6.000000e+01
     vertex  7.828186e+01  5.087875e+01  6.000000e+01
   endloop
 endfacet
 facet normal  0.000000e+00  0.000000e+00  1.000000e+00
   outer loop
     vertex  8.476213e+01  4.640573e+01  6.000000e+01
     vertex  8.125044e+01  4.824882e+01  6.000000e+01
     vertex  0.000000e+00  0.000000e+00  6.000000e+01
   endloop
 endfacet
 facet normal  0.000000e+00  0.000000e+00  1.000000e+00
   outer loop
     vertex  7.462257e+01  5.785094e+01  6.000000e+01
     vertex  0.000000e+00  9.504549e+01  6.000000e+01
     vertex  0.000000e+00  0.000000e+00  6.000000e+01
   endloop
 endfacet
 facet normal  0.000000e+00  0.000000e+00  1.000000e+00
   outer loop
     vertex  7.462257e+01  5.785094e+01  6.000000e+01
     vertex  0.000000e+00  0.000000e+00  6.000000e+01
     vertex  7.602893e+01  5.414268e+01  6.000000e+01
   endloop
 endfacet
 facet normal  0.000000e+00  0.000000e+00  1.000000e+00
   outer loop
     vertex  7.414452e+01  6.178800e+01  6.000000e+01
     vertex  0.000000e+00  9.504549e+01  6.000000e+01
     vertex  7.462257e+01  5.785094e+01  6.000000e+01
   endloop
 endfacet
 facet normal  0.000000e+00  0.000000e+00  1.000000e+00
   outer loop
     vertex  1.378216e+02  0.000000e+00  6.000000e+01
     vertex  8.861287e+01  4.545661e+01  6.000000e+01
     vertex  8.476213e+01  4.640573e+01  6.000000e+01
   endloop
 endfacet
 facet normal  0.000000e+00  0.000000e+00  1.000000e+00
   outer loop
     vertex  1.378216e+02  0.000000e+00  6.000000e+01
     vertex  8.476213e+01  4.640573e+01  6.000000e+01
     vertex  0.000000e+00  0.000000e+00  6.000000e+01
   endloop
 endfacet
 facet normal  0.000000e+00  0.000000e+00  1.000000e+00
   outer loop
     vertex  9.257885e+01  4.545661e+01  6.000000e+01
     vertex  8.861287e+01  4.545661e+01  6.000000e+01
     vertex  1.378216e+02  0.000000e+00  6.000000e+01
   endloop
 endfacet
 facet normal  0.000000e+00  0.000000e+00  1.000000e+00
   outer loop
     vertex  7.462257e+01  6.572506e+01  6.000000e+01
     vertex  0.000000e+00  9.504549e+01  6.000000e+01
     vertex  7.414452e+01  6.178800e+01  6.000000e+01
   endloop
 endfacet
 facet normal  0.000000e+00  0.000000e+00  1.000000e+00
   outer loop
     vertex  9.642958e+01  4.640573e+01  6.000000e+01
     vertex  9.257885e+01  4.545661e+01  6.000000e+01
     vertex  1.378216e+02  0.000000e+00  6.000000e+01
   endloop
 endfacet
 facet normal  0.000000e+00  0.000000e+00  1.000000e+00
   outer loop
     vertex  7.602893e+01  6.943331e+01  6.000000e+01
     vertex  0.000000e+00  9.504549e+01  6.000000e+01
     vertex  7.462257e+01  6.572506e+01  6.000000e+01
   endloop
 endfacet
 facet normal  0.000000e+00  0.000000e+00  1.000000e+00
   outer loop
     vertex  9.994128e+01  4.824882e+01  6.000000e+01
     vertex  9.642958e+01  4.640573e+01  6.000000e+01
     vertex  1.378216e+02  0.000000e+00  6.000000e+01
   endloop
 endfacet
 facet normal  0.000000e+00  0.000000e+00  1.000000e+00
   outer loop
     vertex  7.828186e+01  7.269725e+01  6.000000e+01
     vertex  0.000000e+00  9.504549e+01  6.000000e+01
     vertex  7.602893e+01  6.943331e+01  6.000000e+01
   endloop
 endfacet
 facet normal  0.000000e+00  0.000000e+00  1.000000e+00
   outer loop
     vertex  1.029099e+02  5.087875e+01  6.000000e+01
     vertex  9.994128e+01  4.824882e+01  6.000000e+01
     vertex  1.378216e+02  0.000000e+00  6.000000e+01
   endloop
 endfacet
 facet normal  0.000000e+00  0.000000e+00  1.000000e+00
   outer loop
     vertex  8.125044e+01  7.532718e+01  6.000000e+01
     vertex  0.000000e+00  9.504549e+01  6.000000e+01
     vertex  7.828186e+01  7.269725e+01  6.000000e+01
   endloop
 endfacet
 facet normal  0.000000e+00  0.000000e+00  1.000000e+00
   outer loop
     vertex  1.051628e+02  5.414268e+01  6.000000e+01
     vertex  1.029099e+02  5.087875e+01  6.000000e+01
     vertex  1.378216e+02  0.000000e+00  6.000000e+01
   endloop
 endfacet
 facet normal  0.000000e+00  0.000000e+00  1.000000e+00
   outer loop
     vertex  8.476213e+01  7.717026e+01  6.000000e+01
     vertex  0.000000e+00  9.504549e+01  6.000000e+01
     vertex  8.125044e+01  7.532718e+01  6.000000e+01
   endloop
 endfacet
 facet normal  0.000000e+00  0.000000e+00  1.000000e+00
   outer loop
     vertex  1.065691e+02  5.785094e+01  6.000000e+01
     vertex  1.051628e+02  5.414268e+01  6.000000e+01
     vertex  1.378216e+02  0.000000e+00  6.000000e+01
   endloop
 endfacet
 facet normal  1.520031e-15 -1.620189e-15  1.000000e+00
   outer loop
     vertex  1.378216e+02  9.504549e+01  6.000000e+01
     vertex  1.065691e+02  6.572506e+01  6.000000e+01
     vertex  1.070472e+02  6.178800e+01  6.000000e+01
   endloop
 endfacet
 facet normal  0.000000e+00  0.000000e+00  1.000000e+00
   outer loop
     vertex  1.378216e+02  9.504549e+01  6.000000e+01
     vertex  1.051628e+02  6.943331e+01  6.000000e+01
     vertex  1.065691e+02  6.572506e+01  6.000000e+01
   endloop
 endfacet
 facet normal  0.000000e+00  0.000000e+00  1.000000e+00
   outer loop
     vertex  1.378216e+02  9.504549e+01  6.000000e+01
     vertex  1.029099e+02  7.269725e+01  6.000000e+01
     vertex  1.051628e+02  6.943331e+01  6.000000e+01
   endloop
 endfacet
 facet normal  0.000000e+00  0.000000e+00  1.000000e+00
   outer loop
     vertex  1.378216e+02  9.504549e+01  6.000000e+01
     vertex  9.994128e+01  7.532718e+01  6.000000e+01
     vertex  1.029099e+02  7.269725e+01  6.000000e+01
   endloop
 endfacet
 facet normal  0.000000e+00  0.000000e+00  1.000000e+00
   outer loop
     vertex  1.378216e+02  9.504549e+01  6.000000e+01
     vertex  9.642958e+01  7.717026e+01  6.000000e+01
     vertex  9.994128e+01  7.532718e+01  6.000000e+01
   endloop
 endfacet
 facet normal  0.000000e+00  0.000000e+00  1.000000e+00
   outer loop
     vertex  1.378216e+02  9.504549e+01  6.000000e+01
     vertex  9.257885e+01  7.811938e+01  6.000000e+01
     vertex  9.642958e+01  7.717026e+01  6.000000e+01
   endloop
 endfacet
 facet normal  0.000000e+00  0.000000e+00  1.000000e+00
   outer loop
     vertex  1.378216e+02  9.504549e+01  6.000000e+01
     vertex  8.861287e+01  7.811938e+01  6.000000e+01
     vertex  9.257885e+01  7.811938e+01  6.000000e+01
   endloop
 endfacet
 facet normal -2.510718e-15  2.109610e-15  1.000000e+00
   outer loop
     vertex  1.378216e+02  9.504549e+01  6.000000e+01
     vertex  1.070472e+02  6.178800e+01  6.000000e+01
     vertex  1.065691e+02  5.785094e+01  6.000000e+01
   endloop
 endfacet
 facet normal  0.000000e+00  0.000000e+00  1.000000e+00
   outer loop
     vertex  1.378216e+02  9.504549e+01  6.000000e+01
     vertex  1.065691e+02  5.785094e+01  6.000000e+01
     vertex  1.378216e+02  0.000000e+00  6.000000e+01
   endloop
 endfacet
 facet normal  0.000000e+00  0.000000e+00  1.000000e+00
   outer loop
     vertex  1.378216e+02  9.504549e+01  6.000000e+01
     vertex  0.000000e+00  9.504549e+01  6.000000e+01
     vertex  8.861287e+01  7.811938e+01  6.000000e+01
   endloop
 endfacet
 facet normal  0.000000e+00  0.000000e+00  1.000000e+00
   outer loop
     vertex  8.861287e+01  7.811938e+01  6.000000e+01
     vertex  0.000000e+00  9.504549e+01  6.000000e+01
     vertex  8.476213e+01  7.717026e+01  6.000000e+01
   endloop
 endfacet
 facet normal  0.000000e+00  1.000000e+00  0.000000e+00
   outer loop
     vertex  1.378216e+02  9.504549e+01  6.000000e+01
     vertex  1.378216e+02  9.504549e+01  0.000000e+00
     vertex  0.000000e+00  9.504549e+01  0.000000e+00
   endloop
 endfacet
 facet normal  0.000000e+00  1.000000e+00  0.000000e+00
   outer loop
     vertex  1.378216e+02  9.504549e+01  6.000000e+01
     vertex  0.000000e+00  9.504549e+01  0.000000e+00
     vertex  0.000000e+00  9.504549e+01  6.000000e+01
   endloop
 endfacet
 facet normal -0.000000e+00  0.000000e+00 -1.000000e+00
   outer loop
     vertex  1.378216e+02  9.504549e+01  0.000000e+00
     vertex  0.000000e+00  0.000000e+00  0.000000e+00
     vertex  0.000000e+00  9.504549e+01  0.000000e+00
   endloop
 endfacet
 facet normal  0.000000e+00 -0.000000e+00 -1.000000e+00
   outer loop
     vertex  1.378216e+02  9.504549e+01  0.000000e+00
     vertex  1.378216e+02  0.000000e+00  0.000000e+00
     vertex  0.000000e+00  0.000000e+00  0.000000e+00
   endloop
 endfacet
 facet normal  1.000000e+00  0.000000e+00  0.000000e+00
   outer loop
     vertex  1.378216e+02  0.000000e+00  0.000000e+00
     vertex  1.378216e+02  9.504549e+01  0.000000e+00
     vertex  1.378216e+02  9.504549e+01  6.000000e+01
   endloop
 endfacet
 facet normal  1.000000e+00 -0.000000e+00  0.000000e+00
   outer loop
     vertex  1.378216e+02  0.000000e+00  6.000000e+01
     vertex  1.378216e+02  0.000000e+00  0.000000e+00
     vertex  1.378216e+02  9.504549e+01  6.000000e+01
   endloop
 endfacet
 facet normal -9.897416e-01 -1.201764e-01 -7.726023e-02
   outer loop
     vertex  1.065691e+02  6.572506e+01  6.000000e+01
     vertex  1.073331e+02  6.178800e+01  5.633737e+01
     vertex  1.070472e+02  6.178800e+01  6.000000e+01
   endloop
 endfacet
 facet normal -9.897416e-01  1.201764e-01 -7.726023e-02
   outer loop
     vertex  1.070472e+02  6.178800e+01  6.000000e+01
     vertex  1.073331e+02  6.178800e+01  5.633737e+01
     vertex  1.065691e+02  5.785094e+01  6.000000e+01
   endloop
 endfacet
 facet normal -1.087984e-01 -1.273905e-01  9.858674e-01
   outer loop
     vertex  9.472319e+01  6.233137e+01  4.065320e+01
     vertex  9.059586e+01  6.178800e+01  4.012750e+01
     vertex  9.424746e+01  6.178800e+01  4.053048e+01
   endloop
 endfacet
 facet normal -3.230106e-01  6.964794e-02  9.438291e-01
   outer loop
     vertex  9.472319e+01  6.233137e+01  4.065320e+01
     vertex  9.424746e+01  6.178800e+01  4.053048e+01
     vertex  9.772331e+01  6.178800e+01  4.172004e+01
   endloop
 endfacet
 facet normal -1.220438e-01 -3.270153e-02  9.919859e-01
   outer loop
     vertex  9.444192e+01  6.338109e+01  4.065320e+01
     vertex  9.059586e+01  6.178800e+01  4.012750e+01
     vertex  9.472319e+01  6.233137e+01  4.065320e+01
   endloop
 endfacet
 facet normal -1.094214e-01 -6.317450e-02  9.919859e-01
   outer loop
     vertex  9.389854e+01  6.432224e+01  4.065320e+01
     vertex  9.059586e+01  6.178800e+01  4.012750e+01
     vertex  9.444192e+01  6.338109e+01  4.065320e+01
   endloop
 endfacet
 facet normal -5.220943e-01 -2.923811e-02  8.523865e-01
   outer loop
     vertex  9.838558e+01  6.387525e+01  4.219728e+01
     vertex  9.772331e+01  6.178800e+01  4.172004e+01
     vertex  1.008561e+02  6.178800e+01  4.363891e+01
   endloop
 endfacet
 facet normal -3.526653e-01 -9.449638e-02  9.309660e-01
   outer loop
     vertex  9.838558e+01  6.387525e+01  4.219728e+01
     vertex  9.444192e+01  6.338109e+01  4.065320e+01
     vertex  9.472319e+01  6.233137e+01  4.065320e+01
   endloop
 endfacet
 facet normal -3.496480e-01 -1.020002e-01  9.313121e-01
   outer loop
     vertex  9.838558e+01  6.387525e+01  4.219728e+01
     vertex  9.472319e+01  6.233137e+01  4.065320e+01
     vertex  9.772331e+01  6.178800e+01  4.172004e+01
   endloop
 endfacet
 facet normal -8.934223e-02 -8.934223e-02  9.919859e-01
   outer loop
     vertex  9.313010e+01  6.509068e+01  4.065320e+01
     vertex  9.059586e+01  6.178800e+01  4.012750e+01
     vertex  9.389854e+01  6.432224e+01  4.065320e+01
   endloop
 endfacet
 facet normal -3.161911e-01 -1.825530e-01  9.309660e-01
   outer loop
     vertex  9.757993e+01  6.582025e+01  4.219728e+01
     vertex  9.389854e+01  6.432224e+01  4.065320e+01
     vertex  9.444192e+01  6.338109e+01  4.065320e+01
   endloop
 endfacet
 facet normal -3.452497e-01 -1.430071e-01  9.275514e-01
   outer loop
     vertex  9.757993e+01  6.582025e+01  4.219728e+01
     vertex  9.444192e+01  6.338109e+01  4.065320e+01
     vertex  9.838558e+01  6.387525e+01  4.219728e+01
   endloop
 endfacet
 facet normal -6.955521e-01  2.057349e-02  7.181810e-01
   outer loop
     vertex  1.019576e+02  6.328380e+01  4.466281e+01
     vertex  1.008561e+02  6.178800e+01  4.363891e+01
     vertex  1.034951e+02  6.178800e+01  4.619475e+01
   endloop
 endfacet
 facet normal -5.776039e-01 -1.266847e-01  8.064271e-01
   outer loop
     vertex  1.019576e+02  6.328380e+01  4.466281e+01
     vertex  9.838558e+01  6.387525e+01  4.219728e+01
     vertex  1.008561e+02  6.178800e+01  4.363891e+01
   endloop
 endfacet
 facet normal -6.317450e-02 -1.094214e-01  9.919859e-01
   outer loop
     vertex  9.218895e+01  6.563406e+01  4.065320e+01
     vertex  9.059586e+01  6.178800e+01  4.012750e+01
     vertex  9.313010e+01  6.509068e+01  4.065320e+01
   endloop
 endfacet
 facet normal -2.964727e-01 -2.274915e-01  9.275514e-01
   outer loop
     vertex  9.629833e+01  6.749047e+01  4.219728e+01
     vertex  9.389854e+01  6.432224e+01  4.065320e+01
     vertex  9.757993e+01  6.582025e+01  4.219728e+01
   endloop
 endfacet
 facet normal -2.581689e-01 -2.581689e-01  9.309660e-01
   outer loop
     vertex  9.629833e+01  6.749047e+01  4.219728e+01
     vertex  9.313010e+01  6.509068e+01  4.065320e+01
     vertex  9.389854e+01  6.432224e+01  4.065320e+01
   endloop
 endfacet
 facet normal -5.357093e-01 -2.218981e-01  8.147250e-01
   outer loop
     vertex  1.011833e+02  6.617345e+01  4.466281e+01
     vertex  9.757993e+01  6.582025e+01  4.219728e+01
     vertex  9.838558e+01  6.387525e+01  4.219728e+01
   endloop
 endfacet
 facet normal -5.784480e-01 -1.549947e-01  8.008587e-01
   outer loop
     vertex  1.011833e+02  6.617345e+01  4.466281e+01
     vertex  9.838558e+01  6.387525e+01  4.219728e+01
     vertex  1.019576e+02  6.328380e+01  4.466281e+01
   endloop
 endfacet
 facet normal -3.270153e-02 -1.220438e-01  9.919859e-01
   outer loop
     vertex  9.113923e+01  6.591533e+01  4.065320e+01
     vertex  9.059586e+01  6.178800e+01  4.012750e+01
     vertex  9.218895e+01  6.563406e+01  4.065320e+01
   endloop
 endfacet
 facet normal -1.825530e-01 -3.161911e-01  9.309660e-01
   outer loop
     vertex  9.462811e+01  6.877207e+01  4.219728e+01
     vertex  9.218895e+01  6.563406e+01  4.065320e+01
     vertex  9.313010e+01  6.509068e+01  4.065320e+01
   endloop
 endfacet
 facet normal -2.274915e-01 -2.964727e-01  9.275514e-01
   outer loop
     vertex  9.462811e+01  6.877207e+01  4.219728e+01
     vertex  9.313010e+01  6.509068e+01  4.065320e+01
     vertex  9.629833e+01  6.749047e+01  4.219728e+01
   endloop
 endfacet
 facet normal -5.186223e-01 -2.994267e-01  8.008587e-01
   outer loop
     vertex  9.968749e+01  6.876425e+01  4.466281e+01
     vertex  9.757993e+01  6.582025e+01  4.219728e+01
     vertex  1.011833e+02  6.617345e+01  4.466281e+01
   endloop
 endfacet
 facet normal -4.600240e-01 -3.529889e-01  8.147250e-01
   outer loop
     vertex  9.968749e+01  6.876425e+01  4.466281e+01
     vertex  9.629833e+01  6.749047e+01  4.219728e+01
     vertex  9.757993e+01  6.582025e+01  4.219728e+01
   endloop
 endfacet
 facet normal -8.327374e-01 -8.266823e-02  5.474618e-01
   outer loop
     vertex  1.042497e+02  6.544653e+01  4.789497e+01
     vertex  1.034951e+02  6.178800e+01  4.619475e+01
     vertex  1.055133e+02  6.178800e+01  4.926454e+01
   endloop
 endfacet
 facet normal -7.330110e-01 -1.964097e-01  6.512435e-01
   outer loop
     vertex  1.042497e+02  6.544653e+01  4.789497e+01
     vertex  1.011833e+02  6.617345e+01  4.466281e+01
     vertex  1.019576e+02  6.328380e+01  4.466281e+01
   endloop
 endfacet
 facet normal -7.626881e-01 -1.364958e-01  6.321992e-01
   outer loop
     vertex  1.042497e+02  6.544653e+01  4.789497e+01
     vertex  1.019576e+02  6.328380e+01  4.466281e+01
     vertex  1.034951e+02  6.178800e+01  4.619475e+01
   endloop
 endfacet
 facet normal  0.000000e+00 -1.263490e-01  9.919859e-01
   outer loop
     vertex  9.005248e+01  6.591533e+01  4.065320e+01
     vertex  9.059586e+01  6.178800e+01  4.012750e+01
     vertex  9.113923e+01  6.591533e+01  4.065320e+01
   endloop
 endfacet
 facet normal -1.430071e-01 -3.452497e-01  9.275514e-01
   outer loop
     vertex  9.268311e+01  6.957772e+01  4.219728e+01
     vertex  9.218895e+01  6.563406e+01  4.065320e+01
     vertex  9.462811e+01  6.877207e+01  4.219728e+01
   endloop
 endfacet
 facet normal -9.449638e-02 -3.526653e-01  9.309660e-01
   outer loop
     vertex  9.268311e+01  6.957772e+01  4.219728e+01
     vertex  9.113923e+01  6.591533e+01  4.065320e+01
     vertex  9.218895e+01  6.563406e+01  4.065320e+01
   endloop
 endfacet
 facet normal -3.529889e-01 -4.600240e-01  8.147250e-01
   outer loop
     vertex  9.757211e+01  7.087963e+01  4.466281e+01
     vertex  9.462811e+01  6.877207e+01  4.219728e+01
     vertex  9.629833e+01  6.749047e+01  4.219728e+01
   endloop
 endfacet
 facet normal -4.234533e-01 -4.234533e-01  8.008587e-01
   outer loop
     vertex  9.757211e+01  7.087963e+01  4.466281e+01
     vertex  9.629833e+01  6.749047e+01  4.219728e+01
     vertex  9.968749e+01  6.876425e+01  4.466281e+01
   endloop
 endfacet
 facet normal -7.248001e-01 -3.002220e-01  6.201060e-01
   outer loop
     vertex  1.028375e+02  6.885574e+01  4.789497e+01
     vertex  1.011833e+02  6.617345e+01  4.466281e+01
     vertex  1.042497e+02  6.544653e+01  4.789497e+01
   endloop
 endfacet
 facet normal -6.571997e-01 -3.794344e-01  6.512435e-01
   outer loop
     vertex  1.028375e+02  6.885574e+01  4.789497e+01
     vertex  9.968749e+01  6.876425e+01  4.466281e+01
     vertex  1.011833e+02  6.617345e+01  4.466281e+01
   endloop
 endfacet
 facet normal -9.350603e-01 -2.161549e-02  3.538289e-01
   outer loop
     vertex  1.063833e+02  6.386646e+01  5.169085e+01
     vertex  1.055133e+02  6.178800e+01  4.926454e+01
     vertex  1.068135e+02  6.178800e+01  5.270054e+01
   endloop
 endfacet
 facet normal -8.869625e-01 -1.417990e-01  4.395345e-01
   outer loop
     vertex  1.063833e+02  6.386646e+01  5.169085e+01
     vertex  1.042497e+02  6.544653e+01  4.789497e+01
     vertex  1.055133e+02  6.178800e+01  4.926454e+01
   endloop
 endfacet
 facet normal  3.270153e-02 -1.220438e-01  9.919859e-01
   outer loop
     vertex  8.900277e+01  6.563406e+01  4.065320e+01
     vertex  9.059586e+01  6.178800e+01  4.012750e+01
     vertex  9.005248e+01  6.591533e+01  4.065320e+01
   endloop
 endfacet
 facet normal -4.877707e-02 -3.704986e-01  9.275514e-01
   outer loop
     vertex  9.059586e+01  6.985251e+01  4.219728e+01
     vertex  9.113923e+01  6.591533e+01  4.065320e+01
     vertex  9.268311e+01  6.957772e+01  4.219728e+01
   endloop
 endfacet
 facet normal  0.000000e+00 -3.651060e-01  9.309660e-01
   outer loop
     vertex  9.059586e+01  6.985251e+01  4.219728e+01
     vertex  9.005248e+01  6.591533e+01  4.065320e+01
     vertex  9.113923e+01  6.591533e+01  4.065320e+01
   endloop
 endfacet
 facet normal -2.994267e-01 -5.186223e-01  8.008587e-01
   outer loop
     vertex  9.498131e+01  7.237543e+01  4.466281e+01
     vertex  9.462811e+01  6.877207e+01  4.219728e+01
     vertex  9.757211e+01  7.087963e+01  4.466281e+01
   endloop
 endfacet
 facet normal -2.218981e-01 -5.357093e-01  8.147250e-01
   outer loop
     vertex  9.498131e+01  7.237543e+01  4.466281e+01
     vertex  9.268311e+01  6.957772e+01  4.219728e+01
     vertex  9.462811e+01  6.877207e+01  4.219728e+01
   endloop
 endfacet
 facet normal -5.366013e-01 -5.366013e-01  6.512435e-01
   outer loop
     vertex  1.005912e+02  7.178329e+01  4.789497e+01
     vertex  9.757211e+01  7.087963e+01  4.466281e+01
     vertex  9.968749e+01  6.876425e+01  4.466281e+01
   endloop
 endfacet
 facet normal -6.224000e-01 -4.775843e-01  6.201060e-01
   outer loop
     vertex  1.005912e+02  7.178329e+01  4.789497e+01
     vertex  9.968749e+01  6.876425e+01  4.466281e+01
     vertex  1.028375e+02  6.885574e+01  4.789497e+01
   endloop
 endfacet
 facet normal -8.856835e-01 -2.373182e-01  3.990548e-01
   outer loop
     vertex  1.053074e+02  6.788174e+01  5.169085e+01
     vertex  1.042497e+02  6.544653e+01  4.789497e+01
     vertex  1.063833e+02  6.386646e+01  5.169085e+01
   endloop
 endfacet
 facet normal -8.253647e-01 -3.418772e-01  4.493252e-01
   outer loop
     vertex  1.053074e+02  6.788174e+01  5.169085e+01
     vertex  1.028375e+02  6.885574e+01  4.789497e+01
     vertex  1.042497e+02  6.544653e+01  4.789497e+01
   endloop
 endfacet
 facet normal  6.317450e-02 -1.094214e-01  9.919859e-01
   outer loop
     vertex  8.806162e+01  6.509068e+01  4.065320e+01
     vertex  9.059586e+01  6.178800e+01  4.012750e+01
     vertex  8.900277e+01  6.563406e+01  4.065320e+01
   endloop
 endfacet
 facet normal  9.449638e-02 -3.526653e-01  9.309660e-01
   outer loop
     vertex  8.850861e+01  6.957772e+01  4.219728e+01
     vertex  8.900277e+01  6.563406e+01  4.065320e+01
     vertex  9.005248e+01  6.591533e+01  4.065320e+01
   endloop
 endfacet
 facet normal  4.877707e-02 -3.704986e-01  9.275514e-01
   outer loop
     vertex  8.850861e+01  6.957772e+01  4.219728e+01
     vertex  9.005248e+01  6.591533e+01  4.065320e+01
     vertex  9.059586e+01  6.985251e+01  4.219728e+01
   endloop
 endfacet
 facet normal -1.549947e-01 -5.784480e-01  8.008587e-01
   outer loop
     vertex  9.209166e+01  7.314971e+01  4.466281e+01
     vertex  9.268311e+01  6.957772e+01  4.219728e+01
     vertex  9.498131e+01  7.237543e+01  4.466281e+01
   endloop
 endfacet
 facet normal -7.568530e-02 -5.748869e-01  8.147250e-01
   outer loop
     vertex  9.209166e+01  7.314971e+01  4.466281e+01
     vertex  9.059586e+01  6.985251e+01  4.219728e+01
     vertex  9.268311e+01  6.957772e+01  4.219728e+01
   endloop
 endfacet
 facet normal -3.794344e-01 -6.571997e-01  6.512435e-01
   outer loop
     vertex  9.766360e+01  7.402968e+01  4.789497e+01
     vertex  9.498131e+01  7.237543e+01  4.466281e+01
     vertex  9.757211e+01  7.087963e+01  4.466281e+01
   endloop
 endfacet
 facet normal -4.775843e-01 -6.224000e-01  6.201060e-01
   outer loop
     vertex  9.766360e+01  7.402968e+01  4.789497e+01
     vertex  9.757211e+01  7.087963e+01  4.466281e+01
     vertex  1.005912e+02  7.178329e+01  4.789497e+01
   endloop
 endfacet
 facet normal -7.087567e-01 -5.438482e-01  4.493252e-01
   outer loop
     vertex  1.032290e+02  7.148174e+01  5.169085e+01
     vertex  1.005912e+02  7.178329e+01  4.789497e+01
     vertex  1.028375e+02  6.885574e+01  4.789497e+01
   endloop
 endfacet
 facet normal -7.940821e-01 -4.584635e-01  3.990548e-01
   outer loop
     vertex  1.032290e+02  7.148174e+01  5.169085e+01
     vertex  1.028375e+02  6.885574e+01  4.789497e+01
     vertex  1.053074e+02  6.788174e+01  5.169085e+01
   endloop
 endfacet
 facet normal -9.326875e-01 -3.537217e-01 -7.053417e-02
   outer loop
     vertex  1.067386e+02  6.611342e+01  5.581211e+01
     vertex  1.065691e+02  6.572506e+01  6.000000e+01
     vertex  1.051628e+02  6.943331e+01  6.000000e+01
   endloop
 endfacet
 facet normal -9.830225e-01 -1.180606e-01  1.404584e-01
   outer loop
     vertex  1.067386e+02  6.611342e+01  5.581211e+01
     vertex  1.068135e+02  6.178800e+01  5.270054e+01
     vertex  1.073331e+02  6.178800e+01  5.633737e+01
   endloop
 endfacet
 facet normal -9.424939e-01 -2.525405e-01  2.189258e-01
   outer loop
     vertex  1.067386e+02  6.611342e+01  5.581211e+01
     vertex  1.053074e+02  6.788174e+01  5.169085e+01
     vertex  1.063833e+02  6.386646e+01  5.169085e+01
   endloop
 endfacet
 facet normal -9.797384e-01 -1.278588e-01  1.541580e-01
   outer loop
     vertex  1.067386e+02  6.611342e+01  5.581211e+01
     vertex  1.063833e+02  6.386646e+01  5.169085e+01
     vertex  1.068135e+02  6.178800e+01  5.270054e+01
   endloop
 endfacet
 facet normal -9.883918e-01 -1.423136e-01 -5.318275e-02
   outer loop
     vertex  1.067386e+02  6.611342e+01  5.581211e+01
     vertex  1.073331e+02  6.178800e+01  5.633737e+01
     vertex  1.065691e+02  6.572506e+01  6.000000e+01
   endloop
 endfacet
 facet normal  8.934223e-02 -8.934223e-02  9.919859e-01
   outer loop
     vertex  8.729317e+01  6.432224e+01  4.065320e+01
     vertex  9.059586e+01  6.178800e+01  4.012750e+01
     vertex  8.806162e+01  6.509068e+01  4.065320e+01
   endloop
 endfacet
 facet normal  1.430071e-01 -3.452497e-01  9.275514e-01
   outer loop
     vertex  8.656360e+01  6.877207e+01  4.219728e+01
     vertex  8.900277e+01  6.563406e+01  4.065320e+01
     vertex  8.850861e+01  6.957772e+01  4.219728e+01
   endloop
 endfacet
 facet normal  1.825530e-01 -3.161911e-01  9.309660e-01
   outer loop
     vertex  8.656360e+01  6.877207e+01  4.219728e+01
     vertex  8.806162e+01  6.509068e+01  4.065320e+01
     vertex  8.900277e+01  6.563406e+01  4.065320e+01
   endloop
 endfacet
 facet normal  7.568530e-02 -5.748869e-01  8.147250e-01
   outer loop
     vertex  8.910006e+01  7.314971e+01  4.466281e+01
     vertex  8.850861e+01  6.957772e+01  4.219728e+01
     vertex  9.059586e+01  6.985251e+01  4.219728e+01
   endloop
 endfacet
 facet normal  0.000000e+00 -5.988534e-01  8.008587e-01
   outer loop
     vertex  8.910006e+01  7.314971e+01  4.466281e+01
     vertex  9.059586e+01  6.985251e+01  4.219728e+01
     vertex  9.209166e+01  7.314971e+01  4.466281e+01
   endloop
 endfacet
 facet normal -1.964097e-01 -7.330110e-01  6.512435e-01
   outer loop
     vertex  9.425439e+01  7.544182e+01  4.789497e+01
     vertex  9.209166e+01  7.314971e+01  4.466281e+01
     vertex  9.498131e+01  7.237543e+01  4.466281e+01
   endloop
 endfacet
 facet normal -3.002220e-01 -7.248001e-01  6.201060e-01
   outer loop
     vertex  9.425439e+01  7.544182e+01  4.789497e+01
     vertex  9.498131e+01  7.237543e+01  4.466281e+01
     vertex  9.766360e+01  7.402968e+01  4.789497e+01
   endloop
 endfacet
 facet normal -5.438482e-01 -7.087567e-01  4.493252e-01
   outer loop
     vertex  1.002896e+02  7.442113e+01  5.169085e+01
     vertex  9.766360e+01  7.402968e+01  4.789497e+01
     vertex  1.005912e+02  7.178329e+01  4.789497e+01
   endloop
 endfacet
 facet normal -6.483653e-01 -6.483653e-01  3.990548e-01
   outer loop
     vertex  1.002896e+02  7.442113e+01  5.169085e+01
     vertex  1.005912e+02  7.178329e+01  4.789497e+01
     vertex  1.032290e+02  7.148174e+01  5.169085e+01
   endloop
 endfacet
 facet normal -8.204928e-01 -5.663453e-01 -7.774698e-02
   outer loop
     vertex  1.050690e+02  7.014408e+01  5.581211e+01
     vertex  1.051628e+02  6.943331e+01  6.000000e+01
     vertex  1.029099e+02  7.269725e+01  6.000000e+01
   endloop
 endfacet
 facet normal -9.229759e-01 -3.823091e-01 -4.421771e-02
   outer loop
     vertex  1.050690e+02  7.014408e+01  5.581211e+01
     vertex  1.067386e+02  6.611342e+01  5.581211e+01
     vertex  1.051628e+02  6.943331e+01  6.000000e+01
   endloop
 endfacet
 facet normal -8.450169e-01 -4.878708e-01  2.189258e-01
   outer loop
     vertex  1.050690e+02  7.014408e+01  5.581211e+01
     vertex  1.032290e+02  7.148174e+01  5.169085e+01
     vertex  1.053074e+02  6.788174e+01  5.169085e+01
   endloop
 endfacet
 facet normal -9.127523e-01 -3.780744e-01  1.547350e-01
   outer loop
     vertex  1.050690e+02  7.014408e+01  5.581211e+01
     vertex  1.053074e+02  6.788174e+01  5.169085e+01
     vertex  1.067386e+02  6.611342e+01  5.581211e+01
   endloop
 endfacet
 facet normal  1.094214e-01 -6.317450e-02  9.919859e-01
   outer loop
     vertex  8.674980e+01  6.338109e+01  4.065320e+01
     vertex  9.059586e+01  6.178800e+01  4.012750e+01
     vertex  8.729317e+01  6.432224e+01  4.065320e+01
   endloop
 endfacet
 facet normal  2.581689e-01 -2.581689e-01  9.309660e-01
   outer loop
     vertex  8.489339e+01  6.749047e+01  4.219728e+01
     vertex  8.729317e+01  6.432224e+01  4.065320e+01
     vertex  8.806162e+01  6.509068e+01  4.065320e+01
   endloop
 endfacet
 facet normal  2.274915e-01 -2.964727e-01  9.275514e-01
   outer loop
     vertex  8.489339e+01  6.749047e+01  4.219728e+01
     vertex  8.806162e+01  6.509068e+01  4.065320e+01
     vertex  8.656360e+01  6.877207e+01  4.219728e+01
   endloop
 endfacet
 facet normal  2.218981e-01 -5.357093e-01  8.147250e-01
   outer loop
     vertex  8.621040e+01  7.237543e+01  4.466281e+01
     vertex  8.656360e+01  6.877207e+01  4.219728e+01
     vertex  8.850861e+01  6.957772e+01  4.219728e+01
   endloop
 endfacet
 facet normal  1.549947e-01 -5.784480e-01  8.008587e-01
   outer loop
     vertex  8.621040e+01  7.237543e+01  4.466281e+01
     vertex  8.850861e+01  6.957772e+01  4.219728e+01
     vertex  8.910006e+01  7.314971e+01  4.466281e+01
   endloop
 endfacet
 facet normal -1.024001e-01 -7.778063e-01  6.201060e-01
   outer loop
     vertex  9.059586e+01  7.592348e+01  4.789497e+01
     vertex  9.209166e+01  7.314971e+01  4.466281e+01
     vertex  9.425439e+01  7.544182e+01  4.789497e+01
   endloop
 endfacet
 facet normal  0.000000e+00 -7.588688e-01  6.512435e-01
   outer loop
     vertex  9.059586e+01  7.592348e+01  4.789497e+01
     vertex  8.910006e+01  7.314971e+01  4.466281e+01
     vertex  9.209166e+01  7.314971e+01  4.466281e+01
   endloop
 endfacet
 facet normal -3.418772e-01 -8.253647e-01  4.493252e-01
   outer loop
     vertex  9.668960e+01  7.649959e+01  5.169085e+01
     vertex  9.425439e+01  7.544182e+01  4.789497e+01
     vertex  9.766360e+01  7.402968e+01  4.789497e+01
   endloop
 endfacet
 facet normal -4.584635e-01 -7.940821e-01  3.990548e-01
   outer loop
     vertex  9.668960e+01  7.649959e+01  5.169085e+01
     vertex  9.766360e+01  7.402968e+01  4.789497e+01
     vertex  1.002896e+02  7.442113e+01  5.169085e+01
   endloop
 endfacet
 facet normal -6.608151e-01 -7.459061e-01 -8.335161e-02
   outer loop
     vertex  1.024131e+02  7.360528e+01  5.581211e+01
     vertex  1.029099e+02  7.269725e+01  6.000000e+01
     vertex  9.994128e+01  7.532718e+01  6.000000e+01
   endloop
 endfacet
 facet normal -6.899534e-01 -6.899534e-01  2.189258e-01
   outer loop
     vertex  1.024131e+02  7.360528e+01  5.581211e+01
     vertex  1.002896e+02  7.442113e+01  5.169085e+01
     vertex  1.032290e+02  7.148174e+01  5.169085e+01
   endloop
 endfacet
 facet normal -7.927843e-01 -6.083248e-01 -3.786822e-02
   outer loop
     vertex  1.024131e+02  7.360528e+01  5.581211e+01
     vertex  1.050690e+02  7.014408e+01  5.581211e+01
     vertex  1.029099e+02  7.269725e+01  6.000000e+01
   endloop
 endfacet
 facet normal -7.837982e-01 -6.014295e-01  1.547350e-01
   outer loop
     vertex  1.024131e+02  7.360528e+01  5.581211e+01
     vertex  1.032290e+02  7.148174e+01  5.169085e+01
     vertex  1.050690e+02  7.014408e+01  5.581211e+01
   endloop
 endfacet
 facet normal  1.220438e-01 -3.270153e-02  9.919859e-01
   outer loop
     vertex  8.646853e+01  6.233137e+01  4.065320e+01
     vertex  9.059586e+01  6.178800e+01  4.012750e+01
     vertex  8.674980e+01  6.338109e+01  4.065320e+01
   endloop
 endfacet
 facet normal  3.161911e-01 -1.825530e-01  9.309660e-01
   outer loop
     vertex  8.361179e+01  6.582025e+01  4.219728e+01
     vertex  8.674980e+01  6.338109e+01  4.065320e+01
     vertex  8.729317e+01  6.432224e+01  4.065320e+01
   endloop
 endfacet
 facet normal  2.964727e-01 -2.274915e-01  9.275514e-01
   outer loop
     vertex  8.361179e+01  6.582025e+01  4.219728e+01
     vertex  8.729317e+01  6.432224e+01  4.065320e+01
     vertex  8.489339e+01  6.749047e+01  4.219728e+01
   endloop
 endfacet
 facet normal  3.529889e-01 -4.600240e-01  8.147250e-01
   outer loop
     vertex  8.361960e+01  7.087963e+01  4.466281e+01
     vertex  8.489339e+01  6.749047e+01  4.219728e+01
     vertex  8.656360e+01  6.877207e+01  4.219728e+01
   endloop
 endfacet
 facet normal  2.994267e-01 -5.186223e-01  8.008587e-01
   outer loop
     vertex  8.361960e+01  7.087963e+01  4.466281e+01
     vertex  8.656360e+01  6.877207e+01  4.219728e+01
     vertex  8.621040e+01  7.237543e+01  4.466281e+01
   endloop
 endfacet
 facet normal  1.024001e-01 -7.778063e-01  6.201060e-01
   outer loop
     vertex  8.693733e+01  7.544182e+01  4.789497e+01
     vertex  8.910006e+01  7.314971e+01  4.466281e+01
     vertex  9.059586e+01  7.592348e+01  4.789497e+01
   endloop
 endfacet
 facet normal  1.964097e-01 -7.330110e-01  6.512435e-01
   outer loop
     vertex  8.693733e+01  7.544182e+01  4.789497e+01
     vertex  8.621040e+01  7.237543e+01  4.466281e+01
     vertex  8.910006e+01  7.314971e+01  4.466281e+01
   endloop
 endfacet
 facet normal -2.373182e-01 -8.856835e-01  3.990548e-01
   outer loop
     vertex  9.267432e+01  7.757548e+01  5.169085e+01
     vertex  9.425439e+01  7.544182e+01  4.789497e+01
     vertex  9.668960e+01  7.649959e+01  5.169085e+01
   endloop
 endfacet
 facet normal -1.166080e-01 -8.857254e-01  4.493252e-01
   outer loop
     vertex  9.267432e+01  7.757548e+01  5.169085e+01
     vertex  9.059586e+01  7.592348e+01  4.789497e+01
     vertex  9.425439e+01  7.544182e+01  4.789497e+01
   endloop
 endfacet
 facet normal -4.878708e-01 -8.450169e-01  2.189258e-01
   outer loop
     vertex  9.895194e+01  7.626115e+01  5.581211e+01
     vertex  9.668960e+01  7.649959e+01  5.169085e+01
     vertex  1.002896e+02  7.442113e+01  5.169085e+01
   endloop
 endfacet
 facet normal -4.629468e-01 -8.820714e-01 -8.735173e-02
   outer loop
     vertex  9.895194e+01  7.626115e+01  5.581211e+01
     vertex  9.994128e+01  7.532718e+01  6.000000e+01
     vertex  9.642958e+01  7.717026e+01  6.000000e+01
   endloop
 endfacet
 facet normal -6.014295e-01 -7.837982e-01  1.547350e-01
   outer loop
     vertex  9.895194e+01  7.626115e+01  5.581211e+01
     vertex  1.002896e+02  7.442113e+01  5.169085e+01
     vertex  1.024131e+02  7.360528e+01  5.581211e+01
   endloop
 endfacet
 facet normal -6.084278e-01 -7.929186e-01 -3.310079e-02
   outer loop
     vertex  9.895194e+01  7.626115e+01  5.581211e+01
     vertex  1.024131e+02  7.360528e+01  5.581211e+01
     vertex  9.994128e+01  7.532718e+01  6.000000e+01
   endloop
 endfacet
 facet normal  0.000000e+00  0.000000e+00  0.000000e+00
   outer loop
     vertex  8.646853e+01  6.124463e+01  4.065320e+01
     vertex  9.059586e+01  6.178800e+01  4.012750e+01
     vertex  9.059586e+01  6.178800e+01  4.012750e+01
   endloop
 endfacet
 facet normal  1.263490e-01 -0.000000e+00  9.919859e-01
   outer loop
     vertex  8.646853e+01  6.124463e+01  4.065320e+01
     vertex  9.059586e+01  6.178800e+01  4.012750e+01
     vertex  8.646853e+01  6.233137e+01  4.065320e+01
   endloop
 endfacet
 facet normal  3.526653e-01 -9.449638e-02  9.309660e-01
   outer loop
     vertex  8.280614e+01  6.387525e+01  4.219728e+01
     vertex  8.646853e+01  6.233137e+01  4.065320e+01
     vertex  8.674980e+01  6.338109e+01  4.065320e+01
   endloop
 endfacet
 facet normal  3.452497e-01 -1.430071e-01  9.275514e-01
   outer loop
     vertex  8.280614e+01  6.387525e+01  4.219728e+01
     vertex  8.674980e+01  6.338109e+01  4.065320e+01
     vertex  8.361179e+01  6.582025e+01  4.219728e+01
   endloop
 endfacet
 facet normal  4.600240e-01 -3.529889e-01  8.147250e-01
   outer loop
     vertex  8.150423e+01  6.876425e+01  4.466281e+01
     vertex  8.361179e+01  6.582025e+01  4.219728e+01
     vertex  8.489339e+01  6.749047e+01  4.219728e+01
   endloop
 endfacet
 facet normal  4.234533e-01 -4.234533e-01  8.008587e-01
   outer loop
     vertex  8.150423e+01  6.876425e+01  4.466281e+01
     vertex  8.489339e+01  6.749047e+01  4.219728e+01
     vertex  8.361960e+01  7.087963e+01  4.466281e+01
   endloop
 endfacet
 facet normal  3.002220e-01 -7.248001e-01  6.201060e-01
   outer loop
     vertex  8.352812e+01  7.402968e+01  4.789497e+01
     vertex  8.621040e+01  7.237543e+01  4.466281e+01
     vertex  8.693733e+01  7.544182e+01  4.789497e+01
   endloop
 endfacet
 facet normal  3.794344e-01 -6.571997e-01  6.512435e-01
   outer loop
     vertex  8.352812e+01  7.402968e+01  4.789497e+01
     vertex  8.361960e+01  7.087963e+01  4.466281e+01
     vertex  8.621040e+01  7.237543e+01  4.466281e+01
   endloop
 endfacet
 facet normal  1.166080e-01 -8.857254e-01  4.493252e-01
   outer loop
     vertex  8.851740e+01  7.757548e+01  5.169085e+01
     vertex  8.693733e+01  7.544182e+01  4.789497e+01
     vertex  9.059586e+01  7.592348e+01  4.789497e+01
   endloop
 endfacet
 facet normal  0.000000e+00 -9.169271e-01  3.990548e-01
   outer loop
     vertex  8.851740e+01  7.757548e+01  5.169085e+01
     vertex  9.059586e+01  7.592348e+01  4.789497e+01
     vertex  9.267432e+01  7.757548e+01  5.169085e+01
   endloop
 endfacet
 facet normal -3.825121e-01 -9.234659e-01 -2.992015e-02
   outer loop
     vertex  9.492128e+01  7.793071e+01  5.581211e+01
     vertex  9.895194e+01  7.626115e+01  5.581211e+01
     vertex  9.642958e+01  7.717026e+01  6.000000e+01
   endloop
 endfacet
 facet normal -2.383499e-01 -9.670234e-01 -8.975044e-02
   outer loop
     vertex  9.492128e+01  7.793071e+01  5.581211e+01
     vertex  9.642958e+01  7.717026e+01  6.000000e+01
     vertex  9.257885e+01  7.811938e+01  6.000000e+01
   endloop
 endfacet
 facet normal -2.525405e-01 -9.424939e-01  2.189258e-01
   outer loop
     vertex  9.492128e+01  7.793071e+01  5.581211e+01
     vertex  9.267432e+01  7.757548e+01  5.169085e+01
     vertex  9.668960e+01  7.649959e+01  5.169085e+01
   endloop
 endfacet
 facet normal -3.780744e-01 -9.127523e-01  1.547350e-01
   outer loop
     vertex  9.492128e+01  7.793071e+01  5.581211e+01
     vertex  9.668960e+01  7.649959e+01  5.169085e+01
     vertex  9.895194e+01  7.626115e+01  5.581211e+01
   endloop
 endfacet
 facet normal  1.220438e-01  3.270153e-02  9.919859e-01
   outer loop
     vertex  8.674980e+01  6.019491e+01  4.065320e+01
     vertex  9.059586e+01  6.178800e+01  4.012750e+01
     vertex  8.646853e+01  6.124463e+01  4.065320e+01
   endloop
 endfacet
 facet normal  3.651060e-01  0.000000e+00  9.309660e-01
   outer loop
     vertex  8.253135e+01  6.178800e+01  4.219728e+01
     vertex  8.646853e+01  6.124463e+01  4.065320e+01
     vertex  8.646853e+01  6.233137e+01  4.065320e+01
   endloop
 endfacet
 facet normal  3.704986e-01 -4.877707e-02  9.275514e-01
   outer loop
     vertex  8.253135e+01  6.178800e+01  4.219728e+01
     vertex  8.646853e+01  6.233137e+01  4.065320e+01
     vertex  8.280614e+01  6.387525e+01  4.219728e+01
   endloop
 endfacet
 facet normal  5.357093e-01 -2.218981e-01  8.147250e-01
   outer loop
     vertex  8.000843e+01  6.617345e+01  4.466281e+01
     vertex  8.280614e+01  6.387525e+01  4.219728e+01
     vertex  8.361179e+01  6.582025e+01  4.219728e+01
   endloop
 endfacet
 facet normal  5.186223e-01 -2.994267e-01  8.008587e-01
   outer loop
     vertex  8.000843e+01  6.617345e+01  4.466281e+01
     vertex  8.361179e+01  6.582025e+01  4.219728e+01
     vertex  8.150423e+01  6.876425e+01  4.466281e+01
   endloop
 endfacet
 facet normal  5.366013e-01 -5.366013e-01  6.512435e-01
   outer loop
     vertex  8.060056e+01  7.178329e+01  4.789497e+01
     vertex  8.150423e+01  6.876425e+01  4.466281e+01
     vertex  8.361960e+01  7.087963e+01  4.466281e+01
   endloop
 endfacet
 facet normal  4.775843e-01 -6.224000e-01  6.201060e-01
   outer loop
     vertex  8.060056e+01  7.178329e+01  4.789497e+01
     vertex  8.361960e+01  7.087963e+01  4.466281e+01
     vertex  8.352812e+01  7.402968e+01  4.789497e+01
   endloop
 endfacet
 facet normal  2.373182e-01 -8.856835e-01  3.990548e-01
   outer loop
     vertex  8.450212e+01  7.649959e+01  5.169085e+01
     vertex  8.693733e+01  7.544182e+01  4.789497e+01
     vertex  8.851740e+01  7.757548e+01  5.169085e+01
   endloop
 endfacet
 facet normal  3.418772e-01 -8.253647e-01  4.493252e-01
   outer loop
     vertex  8.450212e+01  7.649959e+01  5.169085e+01
     vertex  8.352812e+01  7.402968e+01  4.789497e+01
     vertex  8.693733e+01  7.544182e+01  4.789497e+01
   endloop
 endfacet
 facet normal  0.000000e+00 -9.958919e-01 -9.054977e-02
   outer loop
     vertex  9.059586e+01  7.850016e+01  5.581211e+01
     vertex  9.257885e+01  7.811938e+01  6.000000e+01
     vertex  8.861287e+01  7.811938e+01  6.000000e+01
   endloop
 endfacet
 facet normal -1.304738e-01 -9.910469e-01 -2.832917e-02
   outer loop
     vertex  9.059586e+01  7.850016e+01  5.581211e+01
     vertex  9.492128e+01  7.793071e+01  5.581211e+01
     vertex  9.257885e+01  7.811938e+01  6.000000e+01
   endloop
 endfacet
 facet normal  0.000000e+00 -9.757415e-01  2.189258e-01
   outer loop
     vertex  9.059586e+01  7.850016e+01  5.581211e+01
     vertex  8.851740e+01  7.757548e+01  5.169085e+01
     vertex  9.267432e+01  7.757548e+01  5.169085e+01
   endloop
 endfacet
 facet normal -1.289541e-01 -9.795039e-01  1.547350e-01
   outer loop
     vertex  9.059586e+01  7.850016e+01  5.581211e+01
     vertex  9.267432e+01  7.757548e+01  5.169085e+01
     vertex  9.492128e+01  7.793071e+01  5.581211e+01
   endloop
 endfacet
 facet normal  1.094214e-01  6.317450e-02  9.919859e-01
   outer loop
     vertex  8.729317e+01  5.925376e+01  4.065320e+01
     vertex  9.059586e+01  6.178800e+01  4.012750e+01
     vertex  8.674980e+01  6.019491e+01  4.065320e+01
   endloop
 endfacet
 facet normal  3.526653e-01  9.449638e-02  9.309660e-01
   outer loop
     vertex  8.280614e+01  5.970075e+01  4.219728e+01
     vertex  8.674980e+01  6.019491e+01  4.065320e+01
     vertex  8.646853e+01  6.124463e+01  4.065320e+01
   endloop
 endfacet
 facet normal  3.704986e-01  4.877707e-02  9.275514e-01
   outer loop
     vertex  8.280614e+01  5.970075e+01  4.219728e+01
     vertex  8.646853e+01  6.124463e+01  4.065320e+01
     vertex  8.253135e+01  6.178800e+01  4.219728e+01
   endloop
 endfacet
 facet normal  5.748869e-01 -7.568530e-02  8.147250e-01
   outer loop
     vertex  7.923415e+01  6.328380e+01  4.466281e+01
     vertex  8.253135e+01  6.178800e+01  4.219728e+01
     vertex  8.280614e+01  6.387525e+01  4.219728e+01
   endloop
 endfacet
 facet normal  5.784480e-01 -1.549947e-01  8.008587e-01
   outer loop
     vertex  7.923415e+01  6.328380e+01  4.466281e+01
     vertex  8.280614e+01  6.387525e+01  4.219728e+01
     vertex  8.000843e+01  6.617345e+01  4.466281e+01
   endloop
 endfacet
 facet normal  6.571997e-01 -3.794344e-01  6.512435e-01
   outer loop
     vertex  7.835417e+01  6.885574e+01  4.789497e+01
     vertex  8.000843e+01  6.617345e+01  4.466281e+01
     vertex  8.150423e+01  6.876425e+01  4.466281e+01
   endloop
 endfacet
 facet normal  6.224000e-01 -4.775843e-01  6.201060e-01
   outer loop
     vertex  7.835417e+01  6.885574e+01  4.789497e+01
     vertex  8.150423e+01  6.876425e+01  4.466281e+01
     vertex  8.060056e+01  7.178329e+01  4.789497e+01
   endloop
 endfacet
 facet normal  5.438482e-01 -7.087567e-01  4.493252e-01
   outer loop
     vertex  8.090212e+01  7.442113e+01  5.169085e+01
     vertex  8.060056e+01  7.178329e+01  4.789497e+01
     vertex  8.352812e+01  7.402968e+01  4.789497e+01
   endloop
 endfacet
 facet normal  4.584635e-01 -7.940821e-01  3.990548e-01
   outer loop
     vertex  8.090212e+01  7.442113e+01  5.169085e+01
     vertex  8.352812e+01  7.402968e+01  4.789497e+01
     vertex  8.450212e+01  7.649959e+01  5.169085e+01
   endloop
 endfacet
 facet normal  2.383499e-01 -9.670234e-01 -8.975044e-02
   outer loop
     vertex  8.627043e+01  7.793071e+01  5.581211e+01
     vertex  8.861287e+01  7.811938e+01  6.000000e+01
     vertex  8.476213e+01  7.717026e+01  6.000000e+01
   endloop
 endfacet
 facet normal  1.304738e-01 -9.910469e-01 -2.832917e-02
   outer loop
     vertex  8.627043e+01  7.793071e+01  5.581211e+01
     vertex  9.059586e+01  7.850016e+01  5.581211e+01
     vertex  8.861287e+01  7.811938e+01  6.000000e+01
   endloop
 endfacet
 facet normal  2.525405e-01 -9.424939e-01  2.189258e-01
   outer loop
     vertex  8.627043e+01  7.793071e+01  5.581211e+01
     vertex  8.450212e+01  7.649959e+01  5.169085e+01
     vertex  8.851740e+01  7.757548e+01  5.169085e+01
   endloop
 endfacet
 facet normal  1.289541e-01 -9.795039e-01  1.547350e-01
   outer loop
     vertex  8.627043e+01  7.793071e+01  5.581211e+01
     vertex  8.851740e+01  7.757548e+01  5.169085e+01
     vertex  9.059586e+01  7.850016e+01  5.581211e+01
   endloop
 endfacet
 facet normal  8.934223e-02  8.934223e-02  9.919859e-01
   outer loop
     vertex  8.806162e+01  5.848531e+01  4.065320e+01
     vertex  9.059586e+01  6.178800e+01  4.012750e+01
     vertex  8.729317e+01  5.925376e+01  4.065320e+01
   endloop
 endfacet
 facet normal  3.161911e-01  1.825530e-01  9.309660e-01
   outer loop
     vertex  8.361179e+01  5.775574e+01  4.219728e+01
     vertex  8.729317e+01  5.925376e+01  4.065320e+01
     vertex  8.674980e+01  6.019491e+01  4.065320e+01
   endloop
 endfacet
 facet normal  3.452497e-01  1.430071e-01  9.275514e-01
   outer loop
     vertex  8.361179e+01  5.775574e+01  4.219728e+01
     vertex  8.674980e+01  6.019491e+01  4.065320e+01
     vertex  8.280614e+01  5.970075e+01  4.219728e+01
   endloop
 endfacet
 facet normal  5.748869e-01  7.568530e-02  8.147250e-01
   outer loop
     vertex  7.923415e+01  6.029220e+01  4.466281e+01
     vertex  8.280614e+01  5.970075e+01  4.219728e+01
     vertex  8.253135e+01  6.178800e+01  4.219728e+01
   endloop
 endfacet
 facet normal  5.988534e-01 -0.000000e+00  8.008587e-01
   outer loop
     vertex  7.923415e+01  6.029220e+01  4.466281e+01
     vertex  8.253135e+01  6.178800e+01  4.219728e+01
     vertex  7.923415e+01  6.328380e+01  4.466281e+01
   endloop
 endfacet
 facet normal  7.330110e-01 -1.964097e-01  6.512435e-01
   outer loop
     vertex  7.694203e+01  6.544653e+01  4.789497e+01
     vertex  7.923415e+01  6.328380e+01  4.466281e+01
     vertex  8.000843e+01  6.617345e+01  4.466281e+01
   endloop
 endfacet
 facet normal  7.248001e-01 -3.002220e-01  6.201060e-01
   outer loop
     vertex  7.694203e+01  6.544653e+01  4.789497e+01
     vertex  8.000843e+01  6.617345e+01  4.466281e+01
     vertex  7.835417e+01  6.885574e+01  4.789497e+01
   endloop
 endfacet
 facet normal  6.483653e-01 -6.483653e-01  3.990548e-01
   outer loop
     vertex  7.796273e+01  7.148174e+01  5.169085e+01
     vertex  8.060056e+01  7.178329e+01  4.789497e+01
     vertex  8.090212e+01  7.442113e+01  5.169085e+01
   endloop
 endfacet
 facet normal  7.087567e-01 -5.438482e-01  4.493252e-01
   outer loop
     vertex  7.796273e+01  7.148174e+01  5.169085e+01
     vertex  7.835417e+01  6.885574e+01  4.789497e+01
     vertex  8.060056e+01  7.178329e+01  4.789497e+01
   endloop
 endfacet
 facet normal  4.629468e-01 -8.820714e-01 -8.735173e-02
   outer loop
     vertex  8.223978e+01  7.626115e+01  5.581211e+01
     vertex  8.476213e+01  7.717026e+01  6.000000e+01
     vertex  8.125044e+01  7.532718e+01  6.000000e+01
   endloop
 endfacet
 facet normal  3.825121e-01 -9.234659e-01 -2.992015e-02
   outer loop
     vertex  8.223978e+01  7.626115e+01  5.581211e+01
     vertex  8.627043e+01  7.793071e+01  5.581211e+01
     vertex  8.476213e+01  7.717026e+01  6.000000e+01
   endloop
 endfacet
 facet normal  4.878708e-01 -8.450169e-01  2.189258e-01
   outer loop
     vertex  8.223978e+01  7.626115e+01  5.581211e+01
     vertex  8.090212e+01  7.442113e+01  5.169085e+01
     vertex  8.450212e+01  7.649959e+01  5.169085e+01
   endloop
 endfacet
 facet normal  3.780744e-01 -9.127523e-01  1.547350e-01
   outer loop
     vertex  8.223978e+01  7.626115e+01  5.581211e+01
     vertex  8.450212e+01  7.649959e+01  5.169085e+01
     vertex  8.627043e+01  7.793071e+01  5.581211e+01
   endloop
 endfacet
 facet normal  6.317450e-02  1.094214e-01  9.919859e-01
   outer loop
     vertex  8.900277e+01  5.794194e+01  4.065320e+01
     vertex  9.059586e+01  6.178800e+01  4.012750e+01
     vertex  8.806162e+01  5.848531e+01  4.065320e+01
   endloop
 endfacet
 facet normal  2.964727e-01  2.274915e-01  9.275514e-01
   outer loop
     vertex  8.489339e+01  5.608553e+01  4.219728e+01
     vertex  8.729317e+01  5.925376e+01  4.065320e+01
     vertex  8.361179e+01  5.775574e+01  4.219728e+01
   endloop
 endfacet
 facet normal  2.581689e-01  2.581689e-01  9.309660e-01
   outer loop
     vertex  8.489339e+01  5.608553e+01  4.219728e+01
     vertex  8.806162e+01  5.848531e+01  4.065320e+01
     vertex  8.729317e+01  5.925376e+01  4.065320e+01
   endloop
 endfacet
 facet normal  5.357093e-01  2.218981e-01  8.147250e-01
   outer loop
     vertex  8.000843e+01  5.740254e+01  4.466281e+01
     vertex  8.361179e+01  5.775574e+01  4.219728e+01
     vertex  8.280614e+01  5.970075e+01  4.219728e+01
   endloop
 endfacet
 facet normal  5.784480e-01  1.549947e-01  8.008587e-01
   outer loop
     vertex  8.000843e+01  5.740254e+01  4.466281e+01
     vertex  8.280614e+01  5.970075e+01  4.219728e+01
     vertex  7.923415e+01  6.029220e+01  4.466281e+01
   endloop
 endfacet
 facet normal  7.588688e-01  0.000000e+00  6.512435e-01
   outer loop
     vertex  7.646038e+01  6.178800e+01  4.789497e+01
     vertex  7.923415e+01  6.029220e+01  4.466281e+01
     vertex  7.923415e+01  6.328380e+01  4.466281e+01
   endloop
 endfacet
 facet normal  7.778063e-01 -1.024001e-01  6.201060e-01
   outer loop
     vertex  7.646038e+01  6.178800e+01  4.789497e+01
     vertex  7.923415e+01  6.328380e+01  4.466281e+01
     vertex  7.694203e+01  6.544653e+01  4.789497e+01
   endloop
 endfacet
 facet normal  8.253647e-01 -3.418772e-01  4.493252e-01
   outer loop
     vertex  7.588427e+01  6.788174e+01  5.169085e+01
     vertex  7.694203e+01  6.544653e+01  4.789497e+01
     vertex  7.835417e+01  6.885574e+01  4.789497e+01
   endloop
 endfacet
 facet normal  7.940821e-01 -4.584635e-01  3.990548e-01
   outer loop
     vertex  7.588427e+01  6.788174e+01  5.169085e+01
     vertex  7.835417e+01  6.885574e+01  4.789497e+01
     vertex  7.796273e+01  7.148174e+01  5.169085e+01
   endloop
 endfacet
 facet normal  6.608151e-01 -7.459061e-01 -8.335161e-02
   outer loop
     vertex  7.877858e+01  7.360528e+01  5.581211e+01
     vertex  8.125044e+01  7.532718e+01  6.000000e+01
     vertex  7.828186e+01  7.269725e+01  6.000000e+01
   endloop
 endfacet
 facet normal  6.899534e-01 -6.899534e-01  2.189258e-01
   outer loop
     vertex  7.877858e+01  7.360528e+01  5.581211e+01
     vertex  7.796273e+01  7.148174e+01  5.169085e+01
     vertex  8.090212e+01  7.442113e+01  5.169085e+01
   endloop
 endfacet
 facet normal  6.084278e-01 -7.929186e-01 -3.310079e-02
   outer loop
     vertex  7.877858e+01  7.360528e+01  5.581211e+01
     vertex  8.223978e+01  7.626115e+01  5.581211e+01
     vertex  8.125044e+01  7.532718e+01  6.000000e+01
   endloop
 endfacet
 facet normal  6.014295e-01 -7.837982e-01  1.547350e-01
   outer loop
     vertex  7.877858e+01  7.360528e+01  5.581211e+01
     vertex  8.090212e+01  7.442113e+01  5.169085e+01
     vertex  8.223978e+01  7.626115e+01  5.581211e+01
   endloop
 endfacet
 facet normal  3.270153e-02  1.220438e-01  9.919859e-01
   outer loop
     vertex  9.005248e+01  5.766067e+01  4.065320e+01
     vertex  9.059586e+01  6.178800e+01  4.012750e+01
     vertex  8.900277e+01  5.794194e+01  4.065320e+01
   endloop
 endfacet
 facet normal  2.274915e-01  2.964727e-01  9.275514e-01
   outer loop
     vertex  8.656360e+01  5.480393e+01  4.219728e+01
     vertex  8.806162e+01  5.848531e+01  4.065320e+01
     vertex  8.489339e+01  5.608553e+01  4.219728e+01
   endloop
 endfacet
 facet normal  1.825530e-01  3.161911e-01  9.309660e-01
   outer loop
     vertex  8.656360e+01  5.480393e+01  4.219728e+01
     vertex  8.900277e+01  5.794194e+01  4.065320e+01
     vertex  8.806162e+01  5.848531e+01  4.065320e+01
   endloop
 endfacet
 facet normal  5.186223e-01  2.994267e-01  8.008587e-01
   outer loop
     vertex  8.150423e+01  5.481175e+01  4.466281e+01
     vertex  8.361179e+01  5.775574e+01  4.219728e+01
     vertex  8.000843e+01  5.740254e+01  4.466281e+01
   endloop
 endfacet
 facet normal  4.600240e-01  3.529889e-01  8.147250e-01
   outer loop
     vertex  8.150423e+01  5.481175e+01  4.466281e+01
     vertex  8.489339e+01  5.608553e+01  4.219728e+01
     vertex  8.361179e+01  5.775574e+01  4.219728e+01
   endloop
 endfacet
 facet normal  7.330110e-01  1.964097e-01  6.512435e-01
   outer loop
     vertex  7.694203e+01  5.812947e+01  4.789497e+01
     vertex  8.000843e+01  5.740254e+01  4.466281e+01
     vertex  7.923415e+01  6.029220e+01  4.466281e+01
   endloop
 endfacet
 facet normal  7.778063e-01  1.024001e-01  6.201060e-01
   outer loop
     vertex  7.694203e+01  5.812947e+01  4.789497e+01
     vertex  7.923415e+01  6.029220e+01  4.466281e+01
     vertex  7.646038e+01  6.178800e+01  4.789497e+01
   endloop
 endfacet
 facet normal  8.857254e-01 -1.166080e-01  4.493252e-01
   outer loop
     vertex  7.480838e+01  6.386646e+01  5.169085e+01
     vertex  7.646038e+01  6.178800e+01  4.789497e+01
     vertex  7.694203e+01  6.544653e+01  4.789497e+01
   endloop
 endfacet
 facet normal  8.856835e-01 -2.373182e-01  3.990548e-01
   outer loop
     vertex  7.480838e+01  6.386646e+01  5.169085e+01
     vertex  7.694203e+01  6.544653e+01  4.789497e+01
     vertex  7.588427e+01  6.788174e+01  5.169085e+01
   endloop
 endfacet
 facet normal  8.450169e-01 -4.878708e-01  2.189258e-01
   outer loop
     vertex  7.612270e+01  7.014408e+01  5.581211e+01
     vertex  7.588427e+01  6.788174e+01  5.169085e+01
     vertex  7.796273e+01  7.148174e+01  5.169085e+01
   endloop
 endfacet
 facet normal  8.204928e-01 -5.663453e-01 -7.774698e-02
   outer loop
     vertex  7.612270e+01  7.014408e+01  5.581211e+01
     vertex  7.828186e+01  7.269725e+01  6.000000e+01
     vertex  7.602893e+01  6.943331e+01  6.000000e+01
   endloop
 endfacet
 facet normal  7.927843e-01 -6.083248e-01 -3.786822e-02
   outer loop
     vertex  7.612270e+01  7.014408e+01  5.581211e+01
     vertex  7.877858e+01  7.360528e+01  5.581211e+01
     vertex  7.828186e+01  7.269725e+01  6.000000e+01
   endloop
 endfacet
 facet normal  7.837982e-01 -6.014295e-01  1.547350e-01
   outer loop
     vertex  7.612270e+01  7.014408e+01  5.581211e+01
     vertex  7.796273e+01  7.148174e+01  5.169085e+01
     vertex  7.877858e+01  7.360528e+01  5.581211e+01
   endloop
 endfacet
 facet normal  0.000000e+00  1.263490e-01  9.919859e-01
   outer loop
     vertex  9.113923e+01  5.766067e+01  4.065320e+01
     vertex  9.059586e+01  6.178800e+01  4.012750e+01
     vertex  9.005248e+01  5.766067e+01  4.065320e+01
   endloop
 endfacet
 facet normal  1.430071e-01  3.452497e-01  9.275514e-01
   outer loop
     vertex  8.850861e+01  5.399828e+01  4.219728e+01
     vertex  8.900277e+01  5.794194e+01  4.065320e+01
     vertex  8.656360e+01  5.480393e+01  4.219728e+01
   endloop
 endfacet
 facet normal  9.449638e-02  3.526653e-01  9.309660e-01
   outer loop
     vertex  8.850861e+01  5.399828e+01  4.219728e+01
     vertex  9.005248e+01  5.766067e+01  4.065320e+01
     vertex  8.900277e+01  5.794194e+01  4.065320e+01
   endloop
 endfacet
 facet normal  4.234533e-01  4.234533e-01  8.008587e-01
   outer loop
     vertex  8.361960e+01  5.269637e+01  4.466281e+01
     vertex  8.489339e+01  5.608553e+01  4.219728e+01
     vertex  8.150423e+01  5.481175e+01  4.466281e+01
   endloop
 endfacet
 facet normal  3.529889e-01  4.600240e-01  8.147250e-01
   outer loop
     vertex  8.361960e+01  5.269637e+01  4.466281e+01
     vertex  8.656360e+01  5.480393e+01  4.219728e+01
     vertex  8.489339e+01  5.608553e+01  4.219728e+01
   endloop
 endfacet
 facet normal  7.248001e-01  3.002220e-01  6.201060e-01
   outer loop
     vertex  7.835417e+01  5.472026e+01  4.789497e+01
     vertex  8.000843e+01  5.740254e+01  4.466281e+01
     vertex  7.694203e+01  5.812947e+01  4.789497e+01
   endloop
 endfacet
 facet normal  6.571997e-01  3.794344e-01  6.512435e-01
   outer loop
     vertex  7.835417e+01  5.472026e+01  4.789497e+01
     vertex  8.150423e+01  5.481175e+01  4.466281e+01
     vertex  8.000843e+01  5.740254e+01  4.466281e+01
   endloop
 endfacet
 facet normal  9.169271e-01 -0.000000e+00  3.990548e-01
   outer loop
     vertex  7.480838e+01  5.970954e+01  5.169085e+01
     vertex  7.646038e+01  6.178800e+01  4.789497e+01
     vertex  7.480838e+01  6.386646e+01  5.169085e+01
   endloop
 endfacet
 facet normal  8.857254e-01  1.166080e-01  4.493252e-01
   outer loop
     vertex  7.480838e+01  5.970954e+01  5.169085e+01
     vertex  7.694203e+01  5.812947e+01  4.789497e+01
     vertex  7.646038e+01  6.178800e+01  4.789497e+01
   endloop
 endfacet
 facet normal  9.424939e-01 -2.525405e-01  2.189258e-01
   outer loop
     vertex  7.445315e+01  6.611342e+01  5.581211e+01
     vertex  7.480838e+01  6.386646e+01  5.169085e+01
     vertex  7.588427e+01  6.788174e+01  5.169085e+01
   endloop
 endfacet
 facet normal  9.229759e-01 -3.823091e-01 -4.421771e-02
   outer loop
     vertex  7.445315e+01  6.611342e+01  5.581211e+01
     vertex  7.612270e+01  7.014408e+01  5.581211e+01
     vertex  7.602893e+01  6.943331e+01  6.000000e+01
   endloop
 endfacet
 facet normal  9.127523e-01 -3.780744e-01  1.547350e-01
   outer loop
     vertex  7.445315e+01  6.611342e+01  5.581211e+01
     vertex  7.588427e+01  6.788174e+01  5.169085e+01
     vertex  7.612270e+01  7.014408e+01  5.581211e+01
   endloop
 endfacet
 facet normal  9.326875e-01 -3.537217e-01 -7.053417e-02
   outer loop
     vertex  7.445315e+01  6.611342e+01  5.581211e+01
     vertex  7.602893e+01  6.943331e+01  6.000000e+01
     vertex  7.462257e+01  6.572506e+01  6.000000e+01
   endloop
 endfacet
 facet normal -3.270153e-02  1.220438e-01  9.919859e-01
   outer loop
     vertex  9.218895e+01  5.794194e+01  4.065320e+01
     vertex  9.059586e+01  6.178800e+01  4.012750e+01
     vertex  9.113923e+01  5.766067e+01  4.065320e+01
   endloop
 endfacet
 facet normal  4.877707e-02  3.704986e-01  9.275514e-01
   outer loop
     vertex  9.059586e+01  5.372349e+01  4.219728e+01
     vertex  9.005248e+01  5.766067e+01  4.065320e+01
     vertex  8.850861e+01  5.399828e+01  4.219728e+01
   endloop
 endfacet
 facet normal  0.000000e+00  3.651060e-01  9.309660e-01
   outer loop
     vertex  9.059586e+01  5.372349e+01  4.219728e+01
     vertex  9.113923e+01  5.766067e+01  4.065320e+01
     vertex  9.005248e+01  5.766067e+01  4.065320e+01
   endloop
 endfacet
 facet normal  2.994267e-01  5.186223e-01  8.008587e-01
   outer loop
     vertex  8.621040e+01  5.120057e+01  4.466281e+01
     vertex  8.656360e+01  5.480393e+01  4.219728e+01
     vertex  8.361960e+01  5.269637e+01  4.466281e+01
   endloop
 endfacet
 facet normal  2.218981e-01  5.357093e-01  8.147250e-01
   outer loop
     vertex  8.621040e+01  5.120057e+01  4.466281e+01
     vertex  8.850861e+01  5.399828e+01  4.219728e+01
     vertex  8.656360e+01  5.480393e+01  4.219728e+01
   endloop
 endfacet
 facet normal  5.366013e-01  5.366013e-01  6.512435e-01
   outer loop
     vertex  8.060056e+01  5.179270e+01  4.789497e+01
     vertex  8.361960e+01  5.269637e+01  4.466281e+01
     vertex  8.150423e+01  5.481175e+01  4.466281e+01
   endloop
 endfacet
 facet normal  6.224000e-01  4.775843e-01  6.201060e-01
   outer loop
     vertex  8.060056e+01  5.179270e+01  4.789497e+01
     vertex  8.150423e+01  5.481175e+01  4.466281e+01
     vertex  7.835417e+01  5.472026e+01  4.789497e+01
   endloop
 endfacet
 facet normal  8.856835e-01  2.373182e-01  3.990548e-01
   outer loop
     vertex  7.588427e+01  5.569426e+01  5.169085e+01
     vertex  7.694203e+01  5.812947e+01  4.789497e+01
     vertex  7.480838e+01  5.970954e+01  5.169085e+01
   endloop
 endfacet
 facet normal  8.253647e-01  3.418772e-01  4.493252e-01
   outer loop
     vertex  7.588427e+01  5.569426e+01  5.169085e+01
     vertex  7.835417e+01  5.472026e+01  4.789497e+01
     vertex  7.694203e+01  5.812947e+01  4.789497e+01
   endloop
 endfacet
 facet normal  9.908169e-01 -1.203070e-01 -6.170954e-02
   outer loop
     vertex  7.388370e+01  6.178800e+01  5.581211e+01
     vertex  7.462257e+01  6.572506e+01  6.000000e+01
     vertex  7.414452e+01  6.178800e+01  6.000000e+01
   endloop
 endfacet
 facet normal  9.908169e-01  1.203070e-01 -6.170954e-02
   outer loop
     vertex  7.388370e+01  6.178800e+01  5.581211e+01
     vertex  7.414452e+01  6.178800e+01  6.000000e+01
     vertex  7.462257e+01  5.785094e+01  6.000000e+01
   endloop
 endfacet
 facet normal  9.795039e-01 -1.289541e-01  1.547350e-01
   outer loop
     vertex  7.388370e+01  6.178800e+01  5.581211e+01
     vertex  7.480838e+01  6.386646e+01  5.169085e+01
     vertex  7.445315e+01  6.611342e+01  5.581211e+01
   endloop
 endfacet
 facet normal  9.757415e-01  0.000000e+00  2.189258e-01
   outer loop
     vertex  7.388370e+01  6.178800e+01  5.581211e+01
     vertex  7.480838e+01  5.970954e+01  5.169085e+01
     vertex  7.480838e+01  6.386646e+01  5.169085e+01
   endloop
 endfacet
 facet normal  9.900962e-01 -1.303486e-01 -5.214213e-02
   outer loop
     vertex  7.388370e+01  6.178800e+01  5.581211e+01
     vertex  7.445315e+01  6.611342e+01  5.581211e+01
     vertex  7.462257e+01  6.572506e+01  6.000000e+01
   endloop
 endfacet
 facet normal -6.317450e-02  1.094214e-01  9.919859e-01
   outer loop
     vertex  9.313010e+01  5.848531e+01  4.065320e+01
     vertex  9.059586e+01  6.178800e+01  4.012750e+01
     vertex  9.218895e+01  5.794194e+01  4.065320e+01
   endloop
 endfacet
 facet normal -4.877707e-02  3.704986e-01  9.275514e-01
   outer loop
     vertex  9.268311e+01  5.399828e+01  4.219728e+01
     vertex  9.113923e+01  5.766067e+01  4.065320e+01
     vertex  9.059586e+01  5.372349e+01  4.219728e+01
   endloop
 endfacet
 facet normal -9.449638e-02  3.526653e-01  9.309660e-01
   outer loop
     vertex  9.268311e+01  5.399828e+01  4.219728e+01
     vertex  9.218895e+01  5.794194e+01  4.065320e+01
     vertex  9.113923e+01  5.766067e+01  4.065320e+01
   endloop
 endfacet
 facet normal  1.549947e-01  5.784480e-01  8.008587e-01
   outer loop
     vertex  8.910006e+01  5.042629e+01  4.466281e+01
     vertex  8.850861e+01  5.399828e+01  4.219728e+01
     vertex  8.621040e+01  5.120057e+01  4.466281e+01
   endloop
 endfacet
 facet normal  7.568530e-02  5.748869e-01  8.147250e-01
   outer loop
     vertex  8.910006e+01  5.042629e+01  4.466281e+01
     vertex  9.059586e+01  5.372349e+01  4.219728e+01
     vertex  8.850861e+01  5.399828e+01  4.219728e+01
   endloop
 endfacet
 facet normal  3.794344e-01  6.571997e-01  6.512435e-01
   outer loop
     vertex  8.352812e+01  4.954631e+01  4.789497e+01
     vertex  8.621040e+01  5.120057e+01  4.466281e+01
     vertex  8.361960e+01  5.269637e+01  4.466281e+01
   endloop
 endfacet
 facet normal  4.775843e-01  6.224000e-01  6.201060e-01
   outer loop
     vertex  8.352812e+01  4.954631e+01  4.789497e+01
     vertex  8.361960e+01  5.269637e+01  4.466281e+01
     vertex  8.060056e+01  5.179270e+01  4.789497e+01
   endloop
 endfacet
 facet normal  7.087567e-01  5.438482e-01  4.493252e-01
   outer loop
     vertex  7.796273e+01  5.209426e+01  5.169085e+01
     vertex  8.060056e+01  5.179270e+01  4.789497e+01
     vertex  7.835417e+01  5.472026e+01  4.789497e+01
   endloop
 endfacet
 facet normal  7.940821e-01  4.584635e-01  3.990548e-01
   outer loop
     vertex  7.796273e+01  5.209426e+01  5.169085e+01
     vertex  7.835417e+01  5.472026e+01  4.789497e+01
     vertex  7.588427e+01  5.569426e+01  5.169085e+01
   endloop
 endfacet
 facet normal  9.326875e-01  3.537217e-01 -7.053417e-02
   outer loop
     vertex  7.445315e+01  5.746257e+01  5.581211e+01
     vertex  7.462257e+01  5.785094e+01  6.000000e+01
     vertex  7.602893e+01  5.414268e+01  6.000000e+01
   endloop
 endfacet
 facet normal  9.424939e-01  2.525405e-01  2.189258e-01
   outer loop
     vertex  7.445315e+01  5.746257e+01  5.581211e+01
     vertex  7.588427e+01  5.569426e+01  5.169085e+01
     vertex  7.480838e+01  5.970954e+01  5.169085e+01
   endloop
 endfacet
 facet normal  9.900962e-01  1.303486e-01 -5.214213e-02
   outer loop
     vertex  7.445315e+01  5.746257e+01  5.581211e+01
     vertex  7.388370e+01  6.178800e+01  5.581211e+01
     vertex  7.462257e+01  5.785094e+01  6.000000e+01
   endloop
 endfacet
 facet normal  9.795039e-01  1.289541e-01  1.547350e-01
   outer loop
     vertex  7.445315e+01  5.746257e+01  5.581211e+01
     vertex  7.480838e+01  5.970954e+01  5.169085e+01
     vertex  7.388370e+01  6.178800e+01  5.581211e+01
   endloop
 endfacet
 facet normal -8.934223e-02  8.934223e-02  9.919859e-01
   outer loop
     vertex  9.389854e+01  5.925376e+01  4.065320e+01
     vertex  9.059586e+01  6.178800e+01  4.012750e+01
     vertex  9.313010e+01  5.848531e+01  4.065320e+01
   endloop
 endfacet
 facet normal -1.430071e-01  3.452497e-01  9.275514e-01
   outer loop
     vertex  9.462811e+01  5.480393e+01  4.219728e+01
     vertex  9.218895e+01  5.794194e+01  4.065320e+01
     vertex  9.268311e+01  5.399828e+01  4.219728e+01
   endloop
 endfacet
 facet normal -1.825530e-01  3.161911e-01  9.309660e-01
   outer loop
     vertex  9.462811e+01  5.480393e+01  4.219728e+01
     vertex  9.313010e+01  5.848531e+01  4.065320e+01
     vertex  9.218895e+01  5.794194e+01  4.065320e+01
   endloop
 endfacet
 facet normal  0.000000e+00  5.988534e-01  8.008587e-01
   outer loop
     vertex  9.209166e+01  5.042629e+01  4.466281e+01
     vertex  9.059586e+01  5.372349e+01  4.219728e+01
     vertex  8.910006e+01  5.042629e+01  4.466281e+01
   endloop
 endfacet
 facet normal -7.568530e-02  5.748869e-01  8.147250e-01
   outer loop
     vertex  9.209166e+01  5.042629e+01  4.466281e+01
     vertex  9.268311e+01  5.399828e+01  4.219728e+01
     vertex  9.059586e+01  5.372349e+01  4.219728e+01
   endloop
 endfacet
 facet normal  3.002220e-01  7.248001e-01  6.201060e-01
   outer loop
     vertex  8.693733e+01  4.813417e+01  4.789497e+01
     vertex  8.621040e+01  5.120057e+01  4.466281e+01
     vertex  8.352812e+01  4.954631e+01  4.789497e+01
   endloop
 endfacet
 facet normal  1.964097e-01  7.330110e-01  6.512435e-01
   outer loop
     vertex  8.693733e+01  4.813417e+01  4.789497e+01
     vertex  8.910006e+01  5.042629e+01  4.466281e+01
     vertex  8.621040e+01  5.120057e+01  4.466281e+01
   endloop
 endfacet
 facet normal  5.438482e-01  7.087567e-01  4.493252e-01
   outer loop
     vertex  8.090212e+01  4.915487e+01  5.169085e+01
     vertex  8.352812e+01  4.954631e+01  4.789497e+01
     vertex  8.060056e+01  5.179270e+01  4.789497e+01
   endloop
 endfacet
 facet normal  6.483653e-01  6.483653e-01  3.990548e-01
   outer loop
     vertex  8.090212e+01  4.915487e+01  5.169085e+01
     vertex  8.060056e+01  5.179270e+01  4.789497e+01
     vertex  7.796273e+01  5.209426e+01  5.169085e+01
   endloop
 endfacet
 facet normal  8.204928e-01  5.663453e-01 -7.774698e-02
   outer loop
     vertex  7.612270e+01  5.343192e+01  5.581211e+01
     vertex  7.602893e+01  5.414268e+01  6.000000e+01
     vertex  7.828186e+01  5.087875e+01  6.000000e+01
   endloop
 endfacet
 facet normal  9.229759e-01  3.823091e-01 -4.421771e-02
   outer loop
     vertex  7.612270e+01  5.343192e+01  5.581211e+01
     vertex  7.445315e+01  5.746257e+01  5.581211e+01
     vertex  7.602893e+01  5.414268e+01  6.000000e+01
   endloop
 endfacet
 facet normal  8.450169e-01  4.878708e-01  2.189258e-01
   outer loop
     vertex  7.612270e+01  5.343192e+01  5.581211e+01
     vertex  7.796273e+01  5.209426e+01  5.169085e+01
     vertex  7.588427e+01  5.569426e+01  5.169085e+01
   endloop
 endfacet
 facet normal  9.127523e-01  3.780744e-01  1.547350e-01
   outer loop
     vertex  7.612270e+01  5.343192e+01  5.581211e+01
     vertex  7.588427e+01  5.569426e+01  5.169085e+01
     vertex  7.445315e+01  5.746257e+01  5.581211e+01
   endloop
 endfacet
 facet normal -1.094214e-01  6.317450e-02  9.919859e-01
   outer loop
     vertex  9.444192e+01  6.019491e+01  4.065320e+01
     vertex  9.059586e+01  6.178800e+01  4.012750e+01
     vertex  9.389854e+01  5.925376e+01  4.065320e+01
   endloop
 endfacet
 facet normal -2.581689e-01  2.581689e-01  9.309660e-01
   outer loop
     vertex  9.629833e+01  5.608553e+01  4.219728e+01
     vertex  9.389854e+01  5.925376e+01  4.065320e+01
     vertex  9.313010e+01  5.848531e+01  4.065320e+01
   endloop
 endfacet
 facet normal -2.274915e-01  2.964727e-01  9.275514e-01
   outer loop
     vertex  9.629833e+01  5.608553e+01  4.219728e+01
     vertex  9.313010e+01  5.848531e+01  4.065320e+01
     vertex  9.462811e+01  5.480393e+01  4.219728e+01
   endloop
 endfacet
 facet normal -2.218981e-01  5.357093e-01  8.147250e-01
   outer loop
     vertex  9.498131e+01  5.120057e+01  4.466281e+01
     vertex  9.462811e+01  5.480393e+01  4.219728e+01
     vertex  9.268311e+01  5.399828e+01  4.219728e+01
   endloop
 endfacet
 facet normal -1.549947e-01  5.784480e-01  8.008587e-01
   outer loop
     vertex  9.498131e+01  5.120057e+01  4.466281e+01
     vertex  9.268311e+01  5.399828e+01  4.219728e+01
     vertex  9.209166e+01  5.042629e+01  4.466281e+01
   endloop
 endfacet
 facet normal  0.000000e+00  7.588688e-01  6.512435e-01
   outer loop
     vertex  9.059586e+01  4.765252e+01  4.789497e+01
     vertex  9.209166e+01  5.042629e+01  4.466281e+01
     vertex  8.910006e+01  5.042629e+01  4.466281e+01
   endloop
 endfacet
 facet normal  1.024001e-01  7.778063e-01  6.201060e-01
   outer loop
     vertex  9.059586e+01  4.765252e+01  4.789497e+01
     vertex  8.910006e+01  5.042629e+01  4.466281e+01
     vertex  8.693733e+01  4.813417e+01  4.789497e+01
   endloop
 endfacet
 facet normal  4.584635e-01  7.940821e-01  3.990548e-01
   outer loop
     vertex  8.450212e+01  4.707641e+01  5.169085e+01
     vertex  8.352812e+01  4.954631e+01  4.789497e+01
     vertex  8.090212e+01  4.915487e+01  5.169085e+01
   endloop
 endfacet
 facet normal  3.418772e-01  8.253647e-01  4.493252e-01
   outer loop
     vertex  8.450212e+01  4.707641e+01  5.169085e+01
     vertex  8.693733e+01  4.813417e+01  4.789497e+01
     vertex  8.352812e+01  4.954631e+01  4.789497e+01
   endloop
 endfacet
 facet normal  7.837982e-01  6.014295e-01  1.547350e-01
   outer loop
     vertex  7.877858e+01  4.997072e+01  5.581211e+01
     vertex  7.796273e+01  5.209426e+01  5.169085e+01
     vertex  7.612270e+01  5.343192e+01  5.581211e+01
   endloop
 endfacet
 facet normal  6.608151e-01  7.459061e-01 -8.335161e-02
   outer loop
     vertex  7.877858e+01  4.997072e+01  5.581211e+01
     vertex  7.828186e+01  5.087875e+01  6.000000e+01
     vertex  8.125044e+01  4.824882e+01  6.000000e+01
   endloop
 endfacet
 facet normal  7.927843e-01  6.083248e-01 -3.786822e-02
   outer loop
     vertex  7.877858e+01  4.997072e+01  5.581211e+01
     vertex  7.612270e+01  5.343192e+01  5.581211e+01
     vertex  7.828186e+01  5.087875e+01  6.000000e+01
   endloop
 endfacet
 facet normal  6.899534e-01  6.899534e-01  2.189258e-01
   outer loop
     vertex  7.877858e+01  4.997072e+01  5.581211e+01
     vertex  8.090212e+01  4.915487e+01  5.169085e+01
     vertex  7.796273e+01  5.209426e+01  5.169085e+01
   endloop
 endfacet
 facet normal -1.087984e-01  1.273905e-01  9.858674e-01
   outer loop
     vertex  9.472319e+01  6.124463e+01  4.065320e+01
     vertex  9.424746e+01  6.178800e+01  4.053048e+01
     vertex  9.059586e+01  6.178800e+01  4.012750e+01
   endloop
 endfacet
 facet normal -3.230106e-01 -6.964794e-02  9.438291e-01
   outer loop
     vertex  9.472319e+01  6.124463e+01  4.065320e+01
     vertex  9.772331e+01  6.178800e+01  4.172004e+01
     vertex  9.424746e+01  6.178800e+01  4.053048e+01
   endloop
 endfacet
 facet normal -1.220438e-01  3.270153e-02  9.919859e-01
   outer loop
     vertex  9.472319e+01  6.124463e+01  4.065320e+01
     vertex  9.059586e+01  6.178800e+01  4.012750e+01
     vertex  9.444192e+01  6.019491e+01  4.065320e+01
   endloop
 endfacet
 facet normal -3.161911e-01  1.825530e-01  9.309660e-01
   outer loop
     vertex  9.757993e+01  5.775574e+01  4.219728e+01
     vertex  9.444192e+01  6.019491e+01  4.065320e+01
     vertex  9.389854e+01  5.925376e+01  4.065320e+01
   endloop
 endfacet
 facet normal -2.964727e-01  2.274915e-01  9.275514e-01
   outer loop
     vertex  9.757993e+01  5.775574e+01  4.219728e+01
     vertex  9.389854e+01  5.925376e+01  4.065320e+01
     vertex  9.629833e+01  5.608553e+01  4.219728e+01
   endloop
 endfacet
 facet normal -2.994267e-01  5.186223e-01  8.008587e-01
   outer loop
     vertex  9.757211e+01  5.269637e+01  4.466281e+01
     vertex  9.462811e+01  5.480393e+01  4.219728e+01
     vertex  9.498131e+01  5.120057e+01  4.466281e+01
   endloop
 endfacet
 facet normal -3.529889e-01  4.600240e-01  8.147250e-01
   outer loop
     vertex  9.757211e+01  5.269637e+01  4.466281e+01
     vertex  9.629833e+01  5.608553e+01  4.219728e+01
     vertex  9.462811e+01  5.480393e+01  4.219728e+01
   endloop
 endfacet
 facet normal -1.024001e-01  7.778063e-01  6.201060e-01
   outer loop
     vertex  9.425439e+01  4.813417e+01  4.789497e+01
     vertex  9.209166e+01  5.042629e+01  4.466281e+01
     vertex  9.059586e+01  4.765252e+01  4.789497e+01
   endloop
 endfacet
 facet normal -1.964097e-01  7.330110e-01  6.512435e-01
   outer loop
     vertex  9.425439e+01  4.813417e+01  4.789497e+01
     vertex  9.498131e+01  5.120057e+01  4.466281e+01
     vertex  9.209166e+01  5.042629e+01  4.466281e+01
   endloop
 endfacet
 facet normal  1.166080e-01  8.857254e-01  4.493252e-01
   outer loop
     vertex  8.851740e+01  4.600052e+01  5.169085e+01
     vertex  9.059586e+01  4.765252e+01  4.789497e+01
     vertex  8.693733e+01  4.813417e+01  4.789497e+01
   endloop
 endfacet
 facet normal  2.373182e-01  8.856835e-01  3.990548e-01
   outer loop
     vertex  8.851740e+01  4.600052e+01  5.169085e+01
     vertex  8.693733e+01  4.813417e+01  4.789497e+01
     vertex  8.450212e+01  4.707641e+01  5.169085e+01
   endloop
 endfacet
 facet normal  6.014295e-01  7.837982e-01  1.547350e-01
   outer loop
     vertex  8.223978e+01  4.731484e+01  5.581211e+01
     vertex  8.090212e+01  4.915487e+01  5.169085e+01
     vertex  7.877858e+01  4.997072e+01  5.581211e+01
   endloop
 endfacet
 facet normal  4.878708e-01  8.450169e-01  2.189258e-01
   outer loop
     vertex  8.223978e+01  4.731484e+01  5.581211e+01
     vertex  8.450212e+01  4.707641e+01  5.169085e+01
     vertex  8.090212e+01  4.915487e+01  5.169085e+01
   endloop
 endfacet
 facet normal  4.629468e-01  8.820714e-01 -8.735173e-02
   outer loop
     vertex  8.223978e+01  4.731484e+01  5.581211e+01
     vertex  8.125044e+01  4.824882e+01  6.000000e+01
     vertex  8.476213e+01  4.640573e+01  6.000000e+01
   endloop
 endfacet
 facet normal  6.084278e-01  7.929186e-01 -3.310079e-02
   outer loop
     vertex  8.223978e+01  4.731484e+01  5.581211e+01
     vertex  7.877858e+01  4.997072e+01  5.581211e+01
     vertex  8.125044e+01  4.824882e+01  6.000000e+01
   endloop
 endfacet
 facet normal -3.496480e-01  1.020002e-01  9.313121e-01
   outer loop
     vertex  9.838558e+01  5.970075e+01  4.219728e+01
     vertex  9.772331e+01  6.178800e+01  4.172004e+01
     vertex  9.472319e+01  6.124463e+01  4.065320e+01
   endloop
 endfacet
 facet normal -3.526653e-01  9.449638e-02  9.309660e-01
   outer loop
     vertex  9.838558e+01  5.970075e+01  4.219728e+01
     vertex  9.472319e+01  6.124463e+01  4.065320e+01
     vertex  9.444192e+01  6.019491e+01  4.065320e+01
   endloop
 endfacet
 facet normal -5.220943e-01  2.923811e-02  8.523865e-01
   outer loop
     vertex  9.838558e+01  5.970075e+01  4.219728e+01
     vertex  1.008561e+02  6.178800e+01  4.363891e+01
     vertex  9.772331e+01  6.178800e+01  4.172004e+01
   endloop
 endfacet
 facet normal -3.452497e-01  1.430071e-01  9.275514e-01
   outer loop
     vertex  9.838558e+01  5.970075e+01  4.219728e+01
     vertex  9.444192e+01  6.019491e+01  4.065320e+01
     vertex  9.757993e+01  5.775574e+01  4.219728e+01
   endloop
 endfacet
 facet normal -4.234533e-01  4.234533e-01  8.008587e-01
   outer loop
     vertex  9.968749e+01  5.481175e+01  4.466281e+01
     vertex  9.629833e+01  5.608553e+01  4.219728e+01
     vertex  9.757211e+01  5.269637e+01  4.466281e+01
   endloop
 endfacet
 facet normal -4.600240e-01  3.529889e-01  8.147250e-01
   outer loop
     vertex  9.968749e+01  5.481175e+01  4.466281e+01
     vertex  9.757993e+01  5.775574e+01  4.219728e+01
     vertex  9.629833e+01  5.608553e+01  4.219728e+01
   endloop
 endfacet
 facet normal -3.794344e-01  6.571997e-01  6.512435e-01
   outer loop
     vertex  9.766360e+01  4.954631e+01  4.789497e+01
     vertex  9.757211e+01  5.269637e+01  4.466281e+01
     vertex  9.498131e+01  5.120057e+01  4.466281e+01
   endloop
 endfacet
 facet normal -3.002220e-01  7.248001e-01  6.201060e-01
   outer loop
     vertex  9.766360e+01  4.954631e+01  4.789497e+01
     vertex  9.498131e+01  5.120057e+01  4.466281e+01
     vertex  9.425439e+01  4.813417e+01  4.789497e+01
   endloop
 endfacet
 facet normal -1.166080e-01  8.857254e-01  4.493252e-01
   outer loop
     vertex  9.267432e+01  4.600052e+01  5.169085e+01
     vertex  9.425439e+01  4.813417e+01  4.789497e+01
     vertex  9.059586e+01  4.765252e+01  4.789497e+01
   endloop
 endfacet
 facet normal  0.000000e+00  9.169271e-01  3.990548e-01
   outer loop
     vertex  9.267432e+01  4.600052e+01  5.169085e+01
     vertex  9.059586e+01  4.765252e+01  4.789497e+01
     vertex  8.851740e+01  4.600052e+01  5.169085e+01
   endloop
 endfacet
 facet normal  2.383499e-01  9.670234e-01 -8.975044e-02
   outer loop
     vertex  8.627043e+01  4.564529e+01  5.581211e+01
     vertex  8.476213e+01  4.640573e+01  6.000000e+01
     vertex  8.861287e+01  4.545661e+01  6.000000e+01
   endloop
 endfacet
 facet normal  3.780744e-01  9.127523e-01  1.547350e-01
   outer loop
     vertex  8.627043e+01  4.564529e+01  5.581211e+01
     vertex  8.450212e+01  4.707641e+01  5.169085e+01
     vertex  8.223978e+01  4.731484e+01  5.581211e+01
   endloop
 endfacet
 facet normal  2.525405e-01  9.424939e-01  2.189258e-01
   outer loop
     vertex  8.627043e+01  4.564529e+01  5.581211e+01
     vertex  8.851740e+01  4.600052e+01  5.169085e+01
     vertex  8.450212e+01  4.707641e+01  5.169085e+01
   endloop
 endfacet
 facet normal  3.825121e-01  9.234659e-01 -2.992015e-02
   outer loop
     vertex  8.627043e+01  4.564529e+01  5.581211e+01
     vertex  8.223978e+01  4.731484e+01  5.581211e+01
     vertex  8.476213e+01  4.640573e+01  6.000000e+01
   endloop
 endfacet
 facet normal -5.357093e-01  2.218981e-01  8.147250e-01
   outer loop
     vertex  1.011833e+02  5.740254e+01  4.466281e+01
     vertex  9.838558e+01  5.970075e+01  4.219728e+01
     vertex  9.757993e+01  5.775574e+01  4.219728e+01
   endloop
 endfacet
 facet normal -5.186223e-01  2.994267e-01  8.008587e-01
   outer loop
     vertex  1.011833e+02  5.740254e+01  4.466281e+01
     vertex  9.757993e+01  5.775574e+01  4.219728e+01
     vertex  9.968749e+01  5.481175e+01  4.466281e+01
   endloop
 endfacet
 facet normal -4.775843e-01  6.224000e-01  6.201060e-01
   outer loop
     vertex  1.005912e+02  5.179270e+01  4.789497e+01
     vertex  9.757211e+01  5.269637e+01  4.466281e+01
     vertex  9.766360e+01  4.954631e+01  4.789497e+01
   endloop
 endfacet
 facet normal -5.366013e-01  5.366013e-01  6.512435e-01
   outer loop
     vertex  1.005912e+02  5.179270e+01  4.789497e+01
     vertex  9.968749e+01  5.481175e+01  4.466281e+01
     vertex  9.757211e+01  5.269637e+01  4.466281e+01
   endloop
 endfacet
 facet normal -3.418772e-01  8.253647e-01  4.493252e-01
   outer loop
     vertex  9.668960e+01  4.707641e+01  5.169085e+01
     vertex  9.766360e+01  4.954631e+01  4.789497e+01
     vertex  9.425439e+01  4.813417e+01  4.789497e+01
   endloop
 endfacet
 facet normal -2.373182e-01  8.856835e-01  3.990548e-01
   outer loop
     vertex  9.668960e+01  4.707641e+01  5.169085e+01
     vertex  9.425439e+01  4.813417e+01  4.789497e+01
     vertex  9.267432e+01  4.600052e+01  5.169085e+01
   endloop
 endfacet
 facet normal  1.304738e-01  9.910469e-01 -2.832917e-02
   outer loop
     vertex  9.059586e+01  4.507584e+01  5.581211e+01
     vertex  8.627043e+01  4.564529e+01  5.581211e+01
     vertex  8.861287e+01  4.545661e+01  6.000000e+01
   endloop
 endfacet
 facet normal  1.784069e-15  9.958919e-01 -9.054977e-02
   outer loop
     vertex  9.059586e+01  4.507584e+01  5.581211e+01
     vertex  8.861287e+01  4.545661e+01  6.000000e+01
     vertex  9.257885e+01  4.545661e+01  6.000000e+01
   endloop
 endfacet
 facet normal  0.000000e+00  9.757415e-01  2.189258e-01
   outer loop
     vertex  9.059586e+01  4.507584e+01  5.581211e+01
     vertex  9.267432e+01  4.600052e+01  5.169085e+01
     vertex  8.851740e+01  4.600052e+01  5.169085e+01
   endloop
 endfacet
 facet normal  1.289541e-01  9.795039e-01  1.547350e-01
   outer loop
     vertex  9.059586e+01  4.507584e+01  5.581211e+01
     vertex  8.851740e+01  4.600052e+01  5.169085e+01
     vertex  8.627043e+01  4.564529e+01  5.581211e+01
   endloop
 endfacet
 facet normal -6.955521e-01 -2.057349e-02  7.181810e-01
   outer loop
     vertex  1.019576e+02  6.029220e+01  4.466281e+01
     vertex  1.034951e+02  6.178800e+01  4.619475e+01
     vertex  1.008561e+02  6.178800e+01  4.363891e+01
   endloop
 endfacet
 facet normal -5.776039e-01  1.266847e-01  8.064271e-01
   outer loop
     vertex  1.019576e+02  6.029220e+01  4.466281e+01
     vertex  1.008561e+02  6.178800e+01  4.363891e+01
     vertex  9.838558e+01  5.970075e+01  4.219728e+01
   endloop
 endfacet
 facet normal -5.784480e-01  1.549947e-01  8.008587e-01
   outer loop
     vertex  1.019576e+02  6.029220e+01  4.466281e+01
     vertex  9.838558e+01  5.970075e+01  4.219728e+01
     vertex  1.011833e+02  5.740254e+01  4.466281e+01
   endloop
 endfacet
 facet normal -6.571997e-01  3.794344e-01  6.512435e-01
   outer loop
     vertex  1.028375e+02  5.472026e+01  4.789497e+01
     vertex  1.011833e+02  5.740254e+01  4.466281e+01
     vertex  9.968749e+01  5.481175e+01  4.466281e+01
   endloop
 endfacet
 facet normal -6.224000e-01  4.775843e-01  6.201060e-01
   outer loop
     vertex  1.028375e+02  5.472026e+01  4.789497e+01
     vertex  9.968749e+01  5.481175e+01  4.466281e+01
     vertex  1.005912e+02  5.179270e+01  4.789497e+01
   endloop
 endfacet
 facet normal -5.438482e-01  7.087567e-01  4.493252e-01
   outer loop
     vertex  1.002896e+02  4.915487e+01  5.169085e+01
     vertex  1.005912e+02  5.179270e+01  4.789497e+01
     vertex  9.766360e+01  4.954631e+01  4.789497e+01
   endloop
 endfacet
 facet normal -4.584635e-01  7.940821e-01  3.990548e-01
   outer loop
     vertex  1.002896e+02  4.915487e+01  5.169085e+01
     vertex  9.766360e+01  4.954631e+01  4.789497e+01
     vertex  9.668960e+01  4.707641e+01  5.169085e+01
   endloop
 endfacet
 facet normal -2.383499e-01  9.670234e-01 -8.975044e-02
   outer loop
     vertex  9.492128e+01  4.564529e+01  5.581211e+01
     vertex  9.257885e+01  4.545661e+01  6.000000e+01
     vertex  9.642958e+01  4.640573e+01  6.000000e+01
   endloop
 endfacet
 facet normal -1.304738e-01  9.910469e-01 -2.832917e-02
   outer loop
     vertex  9.492128e+01  4.564529e+01  5.581211e+01
     vertex  9.059586e+01  4.507584e+01  5.581211e+01
     vertex  9.257885e+01  4.545661e+01  6.000000e+01
   endloop
 endfacet
 facet normal -2.525405e-01  9.424939e-01  2.189258e-01
   outer loop
     vertex  9.492128e+01  4.564529e+01  5.581211e+01
     vertex  9.668960e+01  4.707641e+01  5.169085e+01
     vertex  9.267432e+01  4.600052e+01  5.169085e+01
   endloop
 endfacet
 facet normal -1.289541e-01  9.795039e-01  1.547350e-01
   outer loop
     vertex  9.492128e+01  4.564529e+01  5.581211e+01
     vertex  9.267432e+01  4.600052e+01  5.169085e+01
     vertex  9.059586e+01  4.507584e+01  5.581211e+01
   endloop
 endfacet
 facet normal -8.327374e-01  8.266823e-02  5.474618e-01
   outer loop
     vertex  1.042497e+02  5.812947e+01  4.789497e+01
     vertex  1.055133e+02  6.178800e+01  4.926454e+01
     vertex  1.034951e+02  6.178800e+01  4.619475e+01
   endloop
 endfacet
 facet normal -7.626881e-01  1.364958e-01  6.321992e-01
   outer loop
     vertex  1.042497e+02  5.812947e+01  4.789497e+01
     vertex  1.034951e+02  6.178800e+01  4.619475e+01
     vertex  1.019576e+02  6.029220e+01  4.466281e+01
   endloop
 endfacet
 facet normal -7.330110e-01  1.964097e-01  6.512435e-01
   outer loop
     vertex  1.042497e+02  5.812947e+01  4.789497e+01
     vertex  1.019576e+02  6.029220e+01  4.466281e+01
     vertex  1.011833e+02  5.740254e+01  4.466281e+01
   endloop
 endfacet
 facet normal -7.248001e-01  3.002220e-01  6.201060e-01
   outer loop
     vertex  1.042497e+02  5.812947e+01  4.789497e+01
     vertex  1.011833e+02  5.740254e+01  4.466281e+01
     vertex  1.028375e+02  5.472026e+01  4.789497e+01
   endloop
 endfacet
 facet normal -7.087567e-01  5.438482e-01  4.493252e-01
   outer loop
     vertex  1.032290e+02  5.209426e+01  5.169085e+01
     vertex  1.028375e+02  5.472026e+01  4.789497e+01
     vertex  1.005912e+02  5.179270e+01  4.789497e+01
   endloop
 endfacet
 facet normal -6.483653e-01  6.483653e-01  3.990548e-01
   outer loop
     vertex  1.032290e+02  5.209426e+01  5.169085e+01
     vertex  1.005912e+02  5.179270e+01  4.789497e+01
     vertex  1.002896e+02  4.915487e+01  5.169085e+01
   endloop
 endfacet
 facet normal -4.629468e-01  8.820714e-01 -8.735173e-02
   outer loop
     vertex  9.895194e+01  4.731484e+01  5.581211e+01
     vertex  9.642958e+01  4.640573e+01  6.000000e+01
     vertex  9.994128e+01  4.824882e+01  6.000000e+01
   endloop
 endfacet
 facet normal -4.878708e-01  8.450169e-01  2.189258e-01
   outer loop
     vertex  9.895194e+01  4.731484e+01  5.581211e+01
     vertex  1.002896e+02  4.915487e+01  5.169085e+01
     vertex  9.668960e+01  4.707641e+01  5.169085e+01
   endloop
 endfacet
 facet normal -3.780744e-01  9.127523e-01  1.547350e-01
   outer loop
     vertex  9.895194e+01  4.731484e+01  5.581211e+01
     vertex  9.668960e+01  4.707641e+01  5.169085e+01
     vertex  9.492128e+01  4.564529e+01  5.581211e+01
   endloop
 endfacet
 facet normal -3.825121e-01  9.234659e-01 -2.992015e-02
   outer loop
     vertex  9.895194e+01  4.731484e+01  5.581211e+01
     vertex  9.492128e+01  4.564529e+01  5.581211e+01
     vertex  9.642958e+01  4.640573e+01  6.000000e+01
   endloop
 endfacet
 facet normal -7.940821e-01  4.584635e-01  3.990548e-01
   outer loop
     vertex  1.053074e+02  5.569426e+01  5.169085e+01
     vertex  1.028375e+02  5.472026e+01  4.789497e+01
     vertex  1.032290e+02  5.209426e+01  5.169085e+01
   endloop
 endfacet
 facet normal -8.253647e-01  3.418772e-01  4.493252e-01
   outer loop
     vertex  1.053074e+02  5.569426e+01  5.169085e+01
     vertex  1.042497e+02  5.812947e+01  4.789497e+01
     vertex  1.028375e+02  5.472026e+01  4.789497e+01
   endloop
 endfacet
 facet normal -6.608151e-01  7.459061e-01 -8.335161e-02
   outer loop
     vertex  1.024131e+02  4.997072e+01  5.581211e+01
     vertex  9.994128e+01  4.824882e+01  6.000000e+01
     vertex  1.029099e+02  5.087875e+01  6.000000e+01
   endloop
 endfacet
 facet normal -6.084278e-01  7.929186e-01 -3.310079e-02
   outer loop
     vertex  1.024131e+02  4.997072e+01  5.581211e+01
     vertex  9.895194e+01  4.731484e+01  5.581211e+01
     vertex  9.994128e+01  4.824882e+01  6.000000e+01
   endloop
 endfacet
 facet normal -6.899534e-01  6.899534e-01  2.189258e-01
   outer loop
     vertex  1.024131e+02  4.997072e+01  5.581211e+01
     vertex  1.032290e+02  5.209426e+01  5.169085e+01
     vertex  1.002896e+02  4.915487e+01  5.169085e+01
   endloop
 endfacet
 facet normal -6.014295e-01  7.837982e-01  1.547350e-01
   outer loop
     vertex  1.024131e+02  4.997072e+01  5.581211e+01
     vertex  1.002896e+02  4.915487e+01  5.169085e+01
     vertex  9.895194e+01  4.731484e+01  5.581211e+01
   endloop
 endfacet
 facet normal -8.856835e-01  2.373182e-01  3.990548e-01
   outer loop
     vertex  1.063833e+02  5.970954e+01  5.169085e+01
     vertex  1.042497e+02  5.812947e+01  4.789497e+01
     vertex  1.053074e+02  5.569426e+01  5.169085e+01
   endloop
 endfacet
 facet normal -9.350603e-01  2.161549e-02  3.538289e-01
   outer loop
     vertex  1.063833e+02  5.970954e+01  5.169085e+01
     vertex  1.068135e+02  6.178800e+01  5.270054e+01
     vertex  1.055133e+02  6.178800e+01  4.926454e+01
   endloop
 endfacet
 facet normal -8.869625e-01  1.417990e-01  4.395345e-01
   outer loop
     vertex  1.063833e+02  5.970954e+01  5.169085e+01
     vertex  1.055133e+02  6.178800e+01  4.926454e+01
     vertex  1.042497e+02  5.812947e+01  4.789497e+01
   endloop
 endfacet
 facet normal -8.450169e-01  4.878708e-01  2.189258e-01
   outer loop
     vertex  1.050690e+02  5.343192e+01  5.581211e+01
     vertex  1.053074e+02  5.569426e+01  5.169085e+01
     vertex  1.032290e+02  5.209426e+01  5.169085e+01
   endloop
 endfacet
 facet normal -8.204928e-01  5.663453e-01 -7.774698e-02
   outer loop
     vertex  1.050690e+02  5.343192e+01  5.581211e+01
     vertex  1.029099e+02  5.087875e+01  6.000000e+01
     vertex  1.051628e+02  5.414268e+01  6.000000e+01
   endloop
 endfacet
 facet normal -7.927843e-01  6.083248e-01 -3.786822e-02
   outer loop
     vertex  1.050690e+02  5.343192e+01  5.581211e+01
     vertex  1.024131e+02  4.997072e+01  5.581211e+01
     vertex  1.029099e+02  5.087875e+01  6.000000e+01
   endloop
 endfacet
 facet normal -7.837982e-01  6.014295e-01  1.547350e-01
   outer loop
     vertex  1.050690e+02  5.343192e+01  5.581211e+01
     vertex  1.032290e+02  5.209426e+01  5.169085e+01
     vertex  1.024131e+02  4.997072e+01  5.581211e+01
   endloop
 endfacet
 facet normal -9.326875e-01  3.537217e-01 -7.053417e-02
   outer loop
     vertex  1.067386e+02  5.746257e+01  5.581211e+01
     vertex  1.051628e+02  5.414268e+01  6.000000e+01
     vertex  1.065691e+02  5.785094e+01  6.000000e+01
   endloop
 endfacet
 facet normal -9.883918e-01  1.423136e-01 -5.318275e-02
   outer loop
     vertex  1.067386e+02  5.746257e+01  5.581211e+01
     vertex  1.065691e+02  5.785094e+01  6.000000e+01
     vertex  1.073331e+02  6.178800e+01  5.633737e+01
   endloop
 endfacet
 facet normal -9.830225e-01  1.180606e-01  1.404584e-01
   outer loop
     vertex  1.067386e+02  5.746257e+01  5.581211e+01
     vertex  1.073331e+02  6.178800e+01  5.633737e+01
     vertex  1.068135e+02  6.178800e+01  5.270054e+01
   endloop
 endfacet
 facet normal -9.229759e-01  3.823091e-01 -4.421771e-02
   outer loop
     vertex  1.067386e+02  5.746257e+01  5.581211e+01
     vertex  1.050690e+02  5.343192e+01  5.581211e+01
     vertex  1.051628e+02  5.414268e+01  6.000000e+01
   endloop
 endfacet
 facet normal -9.424939e-01  2.525405e-01  2.189258e-01
   outer loop
     vertex  1.067386e+02  5.746257e+01  5.581211e+01
     vertex  1.063833e+02  5.970954e+01  5.169085e+01
     vertex  1.053074e+02  5.569426e+01  5.169085e+01
   endloop
 endfacet
 facet normal -9.127523e-01  3.780744e-01  1.547350e-01
   outer loop
     vertex  1.067386e+02  5.746257e+01  5.581211e+01
     vertex  1.053074e+02  5.569426e+01  5.169085e+01
     vertex  1.050690e+02  5.343192e+01  5.581211e+01
   endloop
 endfacet
 facet normal -9.797384e-01  1.278588e-01  1.541580e-01
   outer loop
     vertex  1.067386e+02  5.746257e+01  5.581211e+01
     vertex  1.068135e+02  6.178800e+01  5.270054e+01
     vertex  1.063833e+02  5.970954e+01  5.169085e+01
   endloop
 endfacet
endsolid
