solid 
 facet normal -1.000000e+00  0.000000e+00  0.000000e+00
   outer loop
     vertex  0.000000e+00  0.000000e+00  6.000000e+01
     vertex  0.000000e+00  9.518947e+01  0.000000e+00
     vertex  0.000000e+00  0.000000e+00  0.000000e+00
   endloop
 endfacet
 facet normal -1.000000e+00  0.000000e+00  0.000000e+00
   outer loop
     vertex  0.000000e+00  0.000000e+00  6.000000e+01
     vertex  0.000000e+00  9.518947e+01  6.000000e+01
     vertex  0.000000e+00  9.518947e+01  0.000000e+00
   endloop
 endfacet
 facet normal  0.000000e+00 -1.000000e+00  0.000000e+00
   outer loop
     vertex  1.411041e+02  0.000000e+00  0.000000e+00
     vertex  0.000000e+00  0.000000e+00  6.000000e+01
     vertex  0.000000e+00  0.000000e+00  0.000000e+00
   endloop
 endfacet
 facet normal -0.000000e+00 -1.000000e+00 -0.000000e+00
   outer loop
     vertex  1.411041e+02  0.000000e+00  6.000000e+01
     vertex  0.000000e+00  0.000000e+00  6.000000e+01
     vertex  1.411041e+02  0.000000e+00  0.000000e+00
   endloop
 endfacet
 facet normal  0.000000e+00  0.000000e+00  1.000000e+00
   outer loop
     vertex  5.814358e+01  2.645661e+01  6.000000e+01
     vertex  5.485068e+01  2.937386e+01  6.000000e+01
     vertex  0.000000e+00  0.000000e+00  6.000000e+01
   endloop
 endfacet
 facet normal  0.000000e+00  0.000000e+00  1.000000e+00
   outer loop
     vertex  5.235160e+01  3.299439e+01  6.000000e+01
     vertex  0.000000e+00  0.000000e+00  6.000000e+01
     vertex  5.485068e+01  2.937386e+01  6.000000e+01
   endloop
 endfacet
 facet normal  0.000000e+00  0.000000e+00  1.000000e+00
   outer loop
     vertex  6.203894e+01  2.441216e+01  6.000000e+01
     vertex  5.814358e+01  2.645661e+01  6.000000e+01
     vertex  0.000000e+00  0.000000e+00  6.000000e+01
   endloop
 endfacet
 facet normal  0.000000e+00  0.000000e+00  1.000000e+00
   outer loop
     vertex  5.079160e+01  3.710778e+01  6.000000e+01
     vertex  0.000000e+00  0.000000e+00  6.000000e+01
     vertex  5.235160e+01  3.299439e+01  6.000000e+01
   endloop
 endfacet
 facet normal  0.000000e+00  0.000000e+00  1.000000e+00
   outer loop
     vertex  6.631038e+01  2.335935e+01  6.000000e+01
     vertex  6.203894e+01  2.441216e+01  6.000000e+01
     vertex  0.000000e+00  0.000000e+00  6.000000e+01
   endloop
 endfacet
 facet normal  0.000000e+00  0.000000e+00  1.000000e+00
   outer loop
     vertex  5.026133e+01  4.147498e+01  6.000000e+01
     vertex  0.000000e+00  0.000000e+00  6.000000e+01
     vertex  5.079160e+01  3.710778e+01  6.000000e+01
   endloop
 endfacet
 facet normal  0.000000e+00  0.000000e+00  1.000000e+00
   outer loop
     vertex  7.070965e+01  2.335935e+01  6.000000e+01
     vertex  6.631038e+01  2.335935e+01  6.000000e+01
     vertex  0.000000e+00  0.000000e+00  6.000000e+01
   endloop
 endfacet
 facet normal  0.000000e+00  0.000000e+00  1.000000e+00
   outer loop
     vertex  0.000000e+00  9.518947e+01  6.000000e+01
     vertex  0.000000e+00  0.000000e+00  6.000000e+01
     vertex  5.026133e+01  4.147498e+01  6.000000e+01
   endloop
 endfacet
 facet normal  0.000000e+00  0.000000e+00  1.000000e+00
   outer loop
     vertex  5.079160e+01  4.584217e+01  6.000000e+01
     vertex  0.000000e+00  9.518947e+01  6.000000e+01
     vertex  5.026133e+01  4.147498e+01  6.000000e+01
   endloop
 endfacet
 facet normal  0.000000e+00  0.000000e+00  1.000000e+00
   outer loop
     vertex  5.235160e+01  4.995556e+01  6.000000e+01
     vertex  0.000000e+00  9.518947e+01  6.000000e+01
     vertex  5.079160e+01  4.584217e+01  6.000000e+01
   endloop
 endfacet
 facet normal  0.000000e+00  0.000000e+00  1.000000e+00
   outer loop
     vertex  5.485068e+01  5.357609e+01  6.000000e+01
     vertex  0.000000e+00  9.518947e+01  6.000000e+01
     vertex  5.235160e+01  4.995556e+01  6.000000e+01
   endloop
 endfacet
 facet normal  0.000000e+00  0.000000e+00  1.000000e+00
   outer loop
     vertex  5.814358e+01  5.649335e+01  6.000000e+01
     vertex  0.000000e+00  9.518947e+01  6.000000e+01
     vertex  5.485068e+01  5.357609e+01  6.000000e+01
   endloop
 endfacet
 facet normal  0.000000e+00  0.000000e+00  1.000000e+00
   outer loop
     vertex  6.203894e+01  5.853779e+01  6.000000e+01
     vertex  0.000000e+00  9.518947e+01  6.000000e+01
     vertex  5.814358e+01  5.649335e+01  6.000000e+01
   endloop
 endfacet
 facet normal  0.000000e+00  0.000000e+00  1.000000e+00
   outer loop
     vertex  6.631038e+01  5.959061e+01  6.000000e+01
     vertex  0.000000e+00  9.518947e+01  6.000000e+01
     vertex  6.203894e+01  5.853779e+01  6.000000e+01
   endloop
 endfacet
 facet normal  0.000000e+00  0.000000e+00  1.000000e+00
   outer loop
     vertex  7.070965e+01  5.959061e+01  6.000000e+01
     vertex  0.000000e+00  9.518947e+01  6.000000e+01
     vertex  6.631038e+01  5.959061e+01  6.000000e+01
   endloop
 endfacet
 facet normal  0.000000e+00  0.000000e+00  1.000000e+00
   outer loop
     vertex  1.411041e+02  0.000000e+00  6.000000e+01
     vertex  7.498108e+01  2.441216e+01  6.000000e+01
     vertex  7.070965e+01  2.335935e+01  6.000000e+01
   endloop
 endfacet
 facet normal  0.000000e+00  0.000000e+00  1.000000e+00
   outer loop
     vertex  1.411041e+02  0.000000e+00  6.000000e+01
     vertex  7.887645e+01  2.645661e+01  6.000000e+01
     vertex  7.498108e+01  2.441216e+01  6.000000e+01
   endloop
 endfacet
 facet normal  0.000000e+00  0.000000e+00  1.000000e+00
   outer loop
     vertex  1.411041e+02  0.000000e+00  6.000000e+01
     vertex  8.216935e+01  2.937386e+01  6.000000e+01
     vertex  7.887645e+01  2.645661e+01  6.000000e+01
   endloop
 endfacet
 facet normal  0.000000e+00  0.000000e+00  1.000000e+00
   outer loop
     vertex  1.411041e+02  0.000000e+00  6.000000e+01
     vertex  8.466842e+01  3.299439e+01  6.000000e+01
     vertex  8.216935e+01  2.937386e+01  6.000000e+01
   endloop
 endfacet
 facet normal  0.000000e+00  0.000000e+00  1.000000e+00
   outer loop
     vertex  1.411041e+02  0.000000e+00  6.000000e+01
     vertex  8.622842e+01  3.710778e+01  6.000000e+01
     vertex  8.466842e+01  3.299439e+01  6.000000e+01
   endloop
 endfacet
 facet normal  4.066887e-15  6.014190e-15  1.000000e+00
   outer loop
     vertex  1.411041e+02  0.000000e+00  6.000000e+01
     vertex  8.675870e+01  4.147498e+01  6.000000e+01
     vertex  8.622842e+01  3.710778e+01  6.000000e+01
   endloop
 endfacet
 facet normal  0.000000e+00  0.000000e+00  1.000000e+00
   outer loop
     vertex  1.411041e+02  0.000000e+00  6.000000e+01
     vertex  7.070965e+01  2.335935e+01  6.000000e+01
     vertex  0.000000e+00  0.000000e+00  6.000000e+01
   endloop
 endfacet
 facet normal  5.276248e-15 -5.867347e-15  1.000000e+00
   outer loop
     vertex  1.411041e+02  9.518947e+01  6.000000e+01
     vertex  8.622842e+01  4.584217e+01  6.000000e+01
     vertex  8.675870e+01  4.147498e+01  6.000000e+01
   endloop
 endfacet
 facet normal  0.000000e+00  0.000000e+00  1.000000e+00
   outer loop
     vertex  1.411041e+02  9.518947e+01  6.000000e+01
     vertex  8.466842e+01  4.995556e+01  6.000000e+01
     vertex  8.622842e+01  4.584217e+01  6.000000e+01
   endloop
 endfacet
 facet normal  0.000000e+00  0.000000e+00  1.000000e+00
   outer loop
     vertex  1.411041e+02  9.518947e+01  6.000000e+01
     vertex  8.216935e+01  5.357609e+01  6.000000e+01
     vertex  8.466842e+01  4.995556e+01  6.000000e+01
   endloop
 endfacet
 facet normal  0.000000e+00  0.000000e+00  1.000000e+00
   outer loop
     vertex  1.411041e+02  9.518947e+01  6.000000e+01
     vertex  7.887645e+01  5.649335e+01  6.000000e+01
     vertex  8.216935e+01  5.357609e+01  6.000000e+01
   endloop
 endfacet
 facet normal  0.000000e+00  0.000000e+00  1.000000e+00
   outer loop
     vertex  1.411041e+02  9.518947e+01  6.000000e+01
     vertex  7.498108e+01  5.853779e+01  6.000000e+01
     vertex  7.887645e+01  5.649335e+01  6.000000e+01
   endloop
 endfacet
 facet normal  0.000000e+00  0.000000e+00  1.000000e+00
   outer loop
     vertex  1.411041e+02  9.518947e+01  6.000000e+01
     vertex  7.070965e+01  5.959061e+01  6.000000e+01
     vertex  7.498108e+01  5.853779e+01  6.000000e+01
   endloop
 endfacet
 facet normal -5.229826e-16  0.000000e+00  1.000000e+00
   outer loop
     vertex  1.411041e+02  9.518947e+01  6.000000e+01
     vertex  8.675870e+01  4.147498e+01  6.000000e+01
     vertex  1.411041e+02  0.000000e+00  6.000000e+01
   endloop
 endfacet
 facet normal  0.000000e+00  0.000000e+00  1.000000e+00
   outer loop
     vertex  1.411041e+02  9.518947e+01  6.000000e+01
     vertex  0.000000e+00  9.518947e+01  6.000000e+01
     vertex  7.070965e+01  5.959061e+01  6.000000e+01
   endloop
 endfacet
 facet normal  0.000000e+00  1.000000e+00  0.000000e+00
   outer loop
     vertex  1.411041e+02  9.518947e+01  0.000000e+00
     vertex  0.000000e+00  9.518947e+01  0.000000e+00
     vertex  0.000000e+00  9.518947e+01  6.000000e+01
   endloop
 endfacet
 facet normal  0.000000e+00  1.000000e+00  0.000000e+00
   outer loop
     vertex  1.411041e+02  9.518947e+01  6.000000e+01
     vertex  1.411041e+02  9.518947e+01  0.000000e+00
     vertex  0.000000e+00  9.518947e+01  6.000000e+01
   endloop
 endfacet
 facet normal -0.000000e+00  0.000000e+00 -1.000000e+00
   outer loop
     vertex  1.411041e+02  9.518947e+01  0.000000e+00
     vertex  0.000000e+00  0.000000e+00  0.000000e+00
     vertex  0.000000e+00  9.518947e+01  0.000000e+00
   endloop
 endfacet
 facet normal  0.000000e+00 -0.000000e+00 -1.000000e+00
   outer loop
     vertex  1.411041e+02  9.518947e+01  0.000000e+00
     vertex  1.411041e+02  0.000000e+00  0.000000e+00
     vertex  0.000000e+00  0.000000e+00  0.000000e+00
   endloop
 endfacet
 facet normal  1.000000e+00  0.000000e+00  0.000000e+00
   outer loop
     vertex  1.411041e+02  0.000000e+00  6.000000e+01
     vertex  1.411041e+02  0.000000e+00  0.000000e+00
     vertex  1.411041e+02  9.518947e+01  0.000000e+00
   endloop
 endfacet
 facet normal  1.000000e+00 -0.000000e+00  0.000000e+00
   outer loop
     vertex  1.411041e+02  0.000000e+00  6.000000e+01
     vertex  1.411041e+02  9.518947e+01  0.000000e+00
     vertex  1.411041e+02  9.518947e+01  6.000000e+01
   endloop
 endfacet
 facet normal -9.899514e-01 -1.202019e-01  7.448266e-02
   outer loop
     vertex  8.622842e+01  4.584217e+01  6.000000e+01
     vertex  8.644409e+01  4.147498e+01  5.581857e+01
     vertex  8.675870e+01  4.147498e+01  6.000000e+01
   endloop
 endfacet
 facet normal -9.899514e-01  1.202019e-01  7.448266e-02
   outer loop
     vertex  8.675870e+01  4.147498e+01  6.000000e+01
     vertex  8.644409e+01  4.147498e+01  5.581857e+01
     vertex  8.622842e+01  3.710778e+01  6.000000e+01
   endloop
 endfacet
 facet normal -1.147971e-01 -7.222422e-03  9.933627e-01
   outer loop
     vertex  7.264269e+01  4.199706e+01  4.148858e+01
     vertex  6.851001e+01  4.147498e+01  4.100720e+01
     vertex  7.267554e+01  4.147498e+01  4.148858e+01
   endloop
 endfacet
 facet normal -3.382719e-01 -2.128226e-02  9.408077e-01
   outer loop
     vertex  7.264269e+01  4.199706e+01  4.148858e+01
     vertex  7.267554e+01  4.147498e+01  4.148858e+01
     vertex  7.662147e+01  4.147498e+01  4.290736e+01
   endloop
 endfacet
 facet normal -1.120654e-01 -2.877351e-02  9.932842e-01
   outer loop
     vertex  7.238302e+01  4.300841e+01  4.148858e+01
     vertex  6.851001e+01  4.147498e+01  4.100720e+01
     vertex  7.264269e+01  4.199706e+01  4.148858e+01
   endloop
 endfacet
 facet normal -1.013890e-01 -5.573908e-02  9.932842e-01
   outer loop
     vertex  7.187999e+01  4.392341e+01  4.148858e+01
     vertex  6.851001e+01  4.147498e+01  4.100720e+01
     vertex  7.238302e+01  4.300841e+01  4.148858e+01
   endloop
 endfacet
 facet normal -3.253195e-01 -8.352786e-02  9.419078e-01
   outer loop
     vertex  7.636664e+01  4.349222e+01  4.290736e+01
     vertex  7.238302e+01  4.300841e+01  4.148858e+01
     vertex  7.264269e+01  4.199706e+01  4.148858e+01
   endloop
 endfacet
 facet normal -3.405643e-01 -4.302328e-02  9.392364e-01
   outer loop
     vertex  7.636664e+01  4.349222e+01  4.290736e+01
     vertex  7.264269e+01  4.199706e+01  4.148858e+01
     vertex  7.662147e+01  4.147498e+01  4.290736e+01
   endloop
 endfacet
 facet normal -8.434194e-02 -7.920236e-02  9.932842e-01
   outer loop
     vertex  7.116522e+01  4.468457e+01  4.148858e+01
     vertex  6.851001e+01  4.147498e+01  4.100720e+01
     vertex  7.187999e+01  4.392341e+01  4.148858e+01
   endloop
 endfacet
 facet normal -2.943265e-01 -1.618074e-01  9.419078e-01
   outer loop
     vertex  7.561814e+01  4.538270e+01  4.290736e+01
     vertex  7.187999e+01  4.392341e+01  4.148858e+01
     vertex  7.238302e+01  4.300841e+01  4.148858e+01
   endloop
 endfacet
 facet normal -3.191654e-01 -1.263665e-01  9.392364e-01
   outer loop
     vertex  7.561814e+01  4.538270e+01  4.290736e+01
     vertex  7.238302e+01  4.300841e+01  4.148858e+01
     vertex  7.636664e+01  4.349222e+01  4.290736e+01
   endloop
 endfacet
 facet normal -5.437420e-01 -3.420935e-02  8.385549e-01
   outer loop
     vertex  8.004810e+01  4.293258e+01  4.518874e+01
     vertex  7.662147e+01  4.147498e+01  4.290736e+01
     vertex  8.013980e+01  4.147498e+01  4.518874e+01
   endloop
 endfacet
 facet normal -7.203506e-01 -4.532062e-02  6.921279e-01
   outer loop
     vertex  8.004810e+01  4.293258e+01  4.518874e+01
     vertex  8.013980e+01  4.147498e+01  4.518874e+01
     vertex  8.304505e+01  4.147498e+01  4.821246e+01
   endloop
 endfacet
 facet normal -5.329316e-01 -6.732492e-02  8.434757e-01
   outer loop
     vertex  8.004810e+01  4.293258e+01  4.518874e+01
     vertex  7.636664e+01  4.349222e+01  4.290736e+01
     vertex  7.662147e+01  4.147498e+01  4.290736e+01
   endloop
 endfacet
 facet normal -6.199536e-02 -9.768906e-02  9.932842e-01
   outer loop
     vertex  7.028361e+01  4.524406e+01  4.148858e+01
     vertex  6.851001e+01  4.147498e+01  4.100720e+01
     vertex  7.116522e+01  4.468457e+01  4.148858e+01
   endloop
 endfacet
 facet normal -2.777121e-01 -2.017697e-01  9.392364e-01
   outer loop
     vertex  7.442301e+01  4.702765e+01  4.290736e+01
     vertex  7.187999e+01  4.392341e+01  4.148858e+01
     vertex  7.561814e+01  4.538270e+01  4.290736e+01
   endloop
 endfacet
 facet normal -2.448398e-01 -2.299199e-01  9.419078e-01
   outer loop
     vertex  7.442301e+01  4.702765e+01  4.290736e+01
     vertex  7.116522e+01  4.468457e+01  4.148858e+01
     vertex  7.187999e+01  4.392341e+01  4.148858e+01
   endloop
 endfacet
 facet normal -5.367787e-01 -1.378213e-01  8.323905e-01
   outer loop
     vertex  7.932312e+01  4.575619e+01  4.518874e+01
     vertex  7.636664e+01  4.349222e+01  4.290736e+01
     vertex  8.004810e+01  4.293258e+01  4.518874e+01
   endloop
 endfacet
 facet normal -4.994456e-01 -1.977445e-01  8.434757e-01
   outer loop
     vertex  7.932312e+01  4.575619e+01  4.518874e+01
     vertex  7.561814e+01  4.538270e+01  4.290736e+01
     vertex  7.636664e+01  4.349222e+01  4.290736e+01
   endloop
 endfacet
 facet normal -3.575338e-02 -1.100376e-01  9.932842e-01
   outer loop
     vertex  6.929055e+01  4.556672e+01  4.148858e+01
     vertex  6.851001e+01  4.147498e+01  4.100720e+01
     vertex  7.028361e+01  4.524406e+01  4.148858e+01
   endloop
 endfacet
 facet normal -1.799690e-01 -2.835857e-01  9.419078e-01
   outer loop
     vertex  7.285635e+01  4.832371e+01  4.290736e+01
     vertex  7.028361e+01  4.524406e+01  4.148858e+01
     vertex  7.116522e+01  4.468457e+01  4.148858e+01
   endloop
 endfacet
 facet normal -2.188092e-01 -2.644949e-01  9.392364e-01
   outer loop
     vertex  7.285635e+01  4.832371e+01  4.290736e+01
     vertex  7.116522e+01  4.468457e+01  4.148858e+01
     vertex  7.442301e+01  4.702765e+01  4.290736e+01
   endloop
 endfacet
 facet normal -4.345775e-01 -3.157390e-01  8.434757e-01
   outer loop
     vertex  7.791871e+01  4.831080e+01  4.518874e+01
     vertex  7.442301e+01  4.702765e+01  4.290736e+01
     vertex  7.561814e+01  4.538270e+01  4.290736e+01
   endloop
 endfacet
 facet normal -4.856400e-01 -2.669829e-01  8.323905e-01
   outer loop
     vertex  7.791871e+01  4.831080e+01  4.518874e+01
     vertex  7.561814e+01  4.538270e+01  4.290736e+01
     vertex  7.932312e+01  4.575619e+01  4.518874e+01
   endloop
 endfacet
 facet normal -6.879293e-01 -1.766302e-01  7.039567e-01
   outer loop
     vertex  8.258841e+01  4.508970e+01  4.821246e+01
     vertex  7.932312e+01  4.575619e+01  4.518874e+01
     vertex  8.004810e+01  4.293258e+01  4.518874e+01
   endloop
 endfacet
 facet normal -7.290677e-01 -9.210267e-02  6.782163e-01
   outer loop
     vertex  8.258841e+01  4.508970e+01  4.821246e+01
     vertex  8.004810e+01  4.293258e+01  4.518874e+01
     vertex  8.304505e+01  4.147498e+01  4.821246e+01
   endloop
 endfacet
 facet normal -7.264886e-03 -1.154721e-01  9.932842e-01
   outer loop
     vertex  6.824846e+01  4.563228e+01  4.148858e+01
     vertex  6.851001e+01  4.147498e+01  4.100720e+01
     vertex  6.929055e+01  4.556672e+01  4.148858e+01
   endloop
 endfacet
 facet normal -1.461577e-01 -3.106010e-01  9.392364e-01
   outer loop
     vertex  7.101659e+01  4.918944e+01  4.290736e+01
     vertex  7.028361e+01  4.524406e+01  4.148858e+01
     vertex  7.285635e+01  4.832371e+01  4.290736e+01
   endloop
 endfacet
 facet normal -1.037900e-01 -3.194328e-01  9.419078e-01
   outer loop
     vertex  7.101659e+01  4.918944e+01  4.290736e+01
     vertex  6.929055e+01  4.556672e+01  4.148858e+01
     vertex  7.028361e+01  4.524406e+01  4.148858e+01
   endloop
 endfacet
 facet normal -3.424033e-01 -4.138945e-01  8.434757e-01
   outer loop
     vertex  7.592312e+01  5.043588e+01  4.518874e+01
     vertex  7.285635e+01  4.832371e+01  4.290736e+01
     vertex  7.442301e+01  4.702765e+01  4.290736e+01
   endloop
 endfacet
 facet normal -4.039868e-01 -3.793689e-01  8.323905e-01
   outer loop
     vertex  7.592312e+01  5.043588e+01  4.518874e+01
     vertex  7.442301e+01  4.702765e+01  4.290736e+01
     vertex  7.791871e+01  4.831080e+01  4.518874e+01
   endloop
 endfacet
 facet normal -6.832577e-01 -2.705209e-01  6.782163e-01
   outer loop
     vertex  8.124716e+01  4.847729e+01  4.821246e+01
     vertex  7.932312e+01  4.575619e+01  4.518874e+01
     vertex  8.258841e+01  4.508970e+01  4.821246e+01
   endloop
 endfacet
 facet normal -6.223906e-01 -3.421621e-01  7.039567e-01
   outer loop
     vertex  8.124716e+01  4.847729e+01  4.821246e+01
     vertex  7.791871e+01  4.831080e+01  4.518874e+01
     vertex  7.932312e+01  4.575619e+01  4.518874e+01
   endloop
 endfacet
 facet normal -8.588528e-01 -5.403444e-02  5.093645e-01
   outer loop
     vertex  8.505259e+01  4.356479e+01  5.181911e+01
     vertex  8.304505e+01  4.147498e+01  4.821246e+01
     vertex  8.518407e+01  4.147498e+01  5.181911e+01
   endloop
 endfacet
 facet normal -9.520728e-01 -5.989935e-02  2.999489e-01
   outer loop
     vertex  8.505259e+01  4.356479e+01  5.181911e+01
     vertex  8.518407e+01  4.147498e+01  5.181911e+01
     vertex  8.644409e+01  4.147498e+01  5.581857e+01
   endloop
 endfacet
 facet normal -8.413669e-01 -1.062894e-01  5.299097e-01
   outer loop
     vertex  8.505259e+01  4.356479e+01  5.181911e+01
     vertex  8.258841e+01  4.508970e+01  4.821246e+01
     vertex  8.304505e+01  4.147498e+01  4.821246e+01
   endloop
 endfacet
 facet normal  2.168009e-02 -1.136510e-01  9.932842e-01
   outer loop
     vertex  6.722279e+01  4.543663e+01  4.148858e+01
     vertex  6.851001e+01  4.147498e+01  4.100720e+01
     vertex  6.824846e+01  4.563228e+01  4.148858e+01
   endloop
 endfacet
 facet normal -6.432259e-02 -3.371908e-01  9.392364e-01
   outer loop
     vertex  6.901933e+01  4.957043e+01  4.290736e+01
     vertex  6.929055e+01  4.556672e+01  4.148858e+01
     vertex  7.101659e+01  4.918944e+01  4.290736e+01
   endloop
 endfacet
 facet normal -2.108955e-02 -3.352088e-01  9.419078e-01
   outer loop
     vertex  6.901933e+01  4.957043e+01  4.290736e+01
     vertex  6.824846e+01  4.563228e+01  4.148858e+01
     vertex  6.929055e+01  4.556672e+01  4.148858e+01
   endloop
 endfacet
 facet normal -2.969496e-01 -4.679177e-01  8.323905e-01
   outer loop
     vertex  7.346174e+01  5.199793e+01  4.518874e+01
     vertex  7.285635e+01  4.832371e+01  4.290736e+01
     vertex  7.592312e+01  5.043588e+01  4.518874e+01
   endloop
 endfacet
 facet normal -2.287147e-01 -4.860435e-01  8.434757e-01
   outer loop
     vertex  7.346174e+01  5.199793e+01  4.518874e+01
     vertex  7.101659e+01  4.918944e+01  4.290736e+01
     vertex  7.285635e+01  4.832371e+01  4.290736e+01
   endloop
 endfacet
 facet normal -5.177448e-01 -4.861947e-01  7.039567e-01
   outer loop
     vertex  7.910560e+01  5.142490e+01  4.821246e+01
     vertex  7.592312e+01  5.043588e+01  4.518874e+01
     vertex  7.791871e+01  4.831080e+01  4.518874e+01
   endloop
 endfacet
 facet normal -5.945161e-01 -4.319412e-01  6.782163e-01
   outer loop
     vertex  7.910560e+01  5.142490e+01  4.821246e+01
     vertex  7.791871e+01  4.831080e+01  4.518874e+01
     vertex  8.124716e+01  4.847729e+01  4.821246e+01
   endloop
 endfacet
 facet normal -7.885007e-01 -3.121895e-01  5.299097e-01
   outer loop
     vertex  8.401316e+01  4.761311e+01  5.181911e+01
     vertex  8.124716e+01  4.847729e+01  4.821246e+01
     vertex  8.258841e+01  4.508970e+01  4.821246e+01
   endloop
 endfacet
 facet normal -8.463111e-01 -2.172958e-01  4.863539e-01
   outer loop
     vertex  8.401316e+01  4.761311e+01  5.181911e+01
     vertex  8.258841e+01  4.508970e+01  4.821246e+01
     vertex  8.505259e+01  4.356479e+01  5.181911e+01
   endloop
 endfacet
 facet normal  4.926282e-02 -1.046888e-01  9.932842e-01
   outer loop
     vertex  6.627801e+01  4.499205e+01  4.148858e+01
     vertex  6.851001e+01  4.147498e+01  4.100720e+01
     vertex  6.722279e+01  4.543663e+01  4.148858e+01
   endloop
 endfacet
 facet normal  2.155417e-02 -3.425937e-01  9.392364e-01
   outer loop
     vertex  6.699008e+01  4.944276e+01  4.290736e+01
     vertex  6.824846e+01  4.563228e+01  4.148858e+01
     vertex  6.901933e+01  4.957043e+01  4.290736e+01
   endloop
 endfacet
 facet normal  6.293605e-02 -3.299224e-01  9.419078e-01
   outer loop
     vertex  6.699008e+01  4.944276e+01  4.290736e+01
     vertex  6.722279e+01  4.543663e+01  4.148858e+01
     vertex  6.824846e+01  4.563228e+01  4.148858e+01
   endloop
 endfacet
 facet normal -1.712540e-01 -5.270656e-01  8.323905e-01
   outer loop
     vertex  7.068922e+01  5.289877e+01  4.518874e+01
     vertex  7.101659e+01  4.918944e+01  4.290736e+01
     vertex  7.346174e+01  5.199793e+01  4.518874e+01
   endloop
 endfacet
 facet normal -1.006551e-01 -5.276526e-01  8.434757e-01
   outer loop
     vertex  7.068922e+01  5.289877e+01  4.518874e+01
     vertex  6.901933e+01  4.957043e+01  4.290736e+01
     vertex  7.101659e+01  4.918944e+01  4.290736e+01
   endloop
 endfacet
 facet normal -3.805672e-01 -5.996779e-01  7.039567e-01
   outer loop
     vertex  7.629828e+01  5.374732e+01  4.821246e+01
     vertex  7.346174e+01  5.199793e+01  4.518874e+01
     vertex  7.592312e+01  5.043588e+01  4.518874e+01
   endloop
 endfacet
 facet normal -4.684189e-01 -5.662211e-01  6.782163e-01
   outer loop
     vertex  7.629828e+01  5.374732e+01  4.821246e+01
     vertex  7.592312e+01  5.043588e+01  4.518874e+01
     vertex  7.910560e+01  5.142490e+01  4.821246e+01
   endloop
 endfacet
 facet normal -6.860902e-01 -4.984737e-01  5.299097e-01
   outer loop
     vertex  8.199961e+01  5.127574e+01  5.181911e+01
     vertex  7.910560e+01  5.142490e+01  4.821246e+01
     vertex  8.124716e+01  4.847729e+01  4.821246e+01
   endloop
 endfacet
 facet normal -7.656834e-01 -4.209380e-01  4.863539e-01
   outer loop
     vertex  8.199961e+01  5.127574e+01  5.181911e+01
     vertex  8.124716e+01  4.847729e+01  4.821246e+01
     vertex  8.401316e+01  4.761311e+01  5.181911e+01
   endloop
 endfacet
 facet normal -9.327409e-01 -3.537419e-01  6.972169e-02
   outer loop
     vertex  8.588066e+01  4.593500e+01  5.581857e+01
     vertex  8.622842e+01  4.584217e+01  6.000000e+01
     vertex  8.466842e+01  4.995556e+01  6.000000e+01
   endloop
 endfacet
 facet normal -9.554477e-01 -1.207011e-01  2.693527e-01
   outer loop
     vertex  8.588066e+01  4.593500e+01  5.581857e+01
     vertex  8.505259e+01  4.356479e+01  5.181911e+01
     vertex  8.644409e+01  4.147498e+01  5.581857e+01
   endloop
 endfacet
 facet normal -9.147963e-01 -2.348798e-01  3.286020e-01
   outer loop
     vertex  8.588066e+01  4.593500e+01  5.581857e+01
     vertex  8.401316e+01  4.761311e+01  5.181911e+01
     vertex  8.505259e+01  4.356479e+01  5.181911e+01
   endloop
 endfacet
 facet normal -9.889762e-01 -1.249368e-01  7.947820e-02
   outer loop
     vertex  8.588066e+01  4.593500e+01  5.581857e+01
     vertex  8.644409e+01  4.147498e+01  5.581857e+01
     vertex  8.622842e+01  4.584217e+01  6.000000e+01
   endloop
 endfacet
 facet normal  7.375019e-02 -8.914867e-02  9.932842e-01
   outer loop
     vertex  6.547347e+01  4.432648e+01  4.148858e+01
     vertex  6.851001e+01  4.147498e+01  4.100720e+01
     vertex  6.627801e+01  4.499205e+01  4.148858e+01
   endloop
 endfacet
 facet normal  1.430072e-01 -3.039057e-01  9.419078e-01
   outer loop
     vertex  6.505632e+01  4.881445e+01  4.290736e+01
     vertex  6.627801e+01  4.499205e+01  4.148858e+01
     vertex  6.722279e+01  4.543663e+01  4.148858e+01
   endloop
 endfacet
 facet normal  1.060766e-01 -3.264702e-01  9.392364e-01
   outer loop
     vertex  6.505632e+01  4.881445e+01  4.290736e+01
     vertex  6.722279e+01  4.543663e+01  4.148858e+01
     vertex  6.699008e+01  4.944276e+01  4.290736e+01
   endloop
 endfacet
 facet normal  3.372902e-02 -5.361074e-01  8.434757e-01
   outer loop
     vertex  6.777977e+01  5.308182e+01  4.518874e+01
     vertex  6.699008e+01  4.944276e+01  4.290736e+01
     vertex  6.901933e+01  4.957043e+01  4.290736e+01
   endloop
 endfacet
 facet normal -3.479785e-02 -5.530960e-01  8.323905e-01
   outer loop
     vertex  6.777977e+01  5.308182e+01  4.518874e+01
     vertex  6.901933e+01  4.957043e+01  4.290736e+01
     vertex  7.068922e+01  5.289877e+01  4.518874e+01
   endloop
 endfacet
 facet normal -2.194771e-01 -6.754811e-01  7.039567e-01
   outer loop
     vertex  7.300159e+01  5.529862e+01  4.821246e+01
     vertex  7.068922e+01  5.289877e+01  4.518874e+01
     vertex  7.346174e+01  5.199793e+01  4.518874e+01
   endloop
 endfacet
 facet normal -3.128891e-01 -6.649233e-01  6.782163e-01
   outer loop
     vertex  7.300159e+01  5.529862e+01  4.821246e+01
     vertex  7.346174e+01  5.199793e+01  4.518874e+01
     vertex  7.629828e+01  5.374732e+01  4.821246e+01
   endloop
 endfacet
 facet normal -5.405700e-01 -6.534369e-01  5.299097e-01
   outer loop
     vertex  7.913846e+01  5.432256e+01  5.181911e+01
     vertex  7.629828e+01  5.374732e+01  4.821246e+01
     vertex  7.910560e+01  5.142490e+01  4.821246e+01
   endloop
 endfacet
 facet normal -6.369450e-01 -5.981312e-01  4.863539e-01
   outer loop
     vertex  7.913846e+01  5.432256e+01  5.181911e+01
     vertex  7.910560e+01  5.142490e+01  4.821246e+01
     vertex  8.199961e+01  5.127574e+01  5.181911e+01
   endloop
 endfacet
 facet normal -8.212246e-01 -5.668504e-01  6.535170e-02
   outer loop
     vertex  8.422577e+01  5.011479e+01  5.581857e+01
     vertex  8.466842e+01  4.995556e+01  6.000000e+01
     vertex  8.216935e+01  5.357609e+01  6.000000e+01
   endloop
 endfacet
 facet normal -9.264817e-01 -3.668201e-01  8.411125e-02
   outer loop
     vertex  8.422577e+01  5.011479e+01  5.581857e+01
     vertex  8.588066e+01  4.593500e+01  5.581857e+01
     vertex  8.466842e+01  4.995556e+01  6.000000e+01
   endloop
 endfacet
 facet normal -8.276440e-01 -4.550012e-01  3.286020e-01
   outer loop
     vertex  8.422577e+01  5.011479e+01  5.581857e+01
     vertex  8.199961e+01  5.127574e+01  5.181911e+01
     vertex  8.401316e+01  4.761311e+01  5.181911e+01
   endloop
 endfacet
 facet normal -8.954134e-01 -3.545193e-01  2.693527e-01
   outer loop
     vertex  8.422577e+01  5.011479e+01  5.581857e+01
     vertex  8.401316e+01  4.761311e+01  5.181911e+01
     vertex  8.588066e+01  4.593500e+01  5.581857e+01
   endloop
 endfacet
 facet normal  9.360357e-02 -6.800697e-02  9.932842e-01
   outer loop
     vertex  6.485973e+01  4.348174e+01  4.148858e+01
     vertex  6.851001e+01  4.147498e+01  4.100720e+01
     vertex  6.547347e+01  4.432648e+01  4.148858e+01
   endloop
 endfacet
 facet normal  1.839339e-01 -2.898334e-01  9.392364e-01
   outer loop
     vertex  6.333957e+01  4.772497e+01  4.290736e+01
     vertex  6.627801e+01  4.499205e+01  4.148858e+01
     vertex  6.505632e+01  4.881445e+01  4.290736e+01
   endloop
 endfacet
 facet normal  2.140926e-01 -2.587935e-01  9.419078e-01
   outer loop
     vertex  6.333957e+01  4.772497e+01  4.290736e+01
     vertex  6.547347e+01  4.432648e+01  4.148858e+01
     vertex  6.627801e+01  4.499205e+01  4.148858e+01
   endloop
 endfacet
 facet normal  1.659938e-01 -5.108765e-01  8.434757e-01
   outer loop
     vertex  6.491621e+01  5.253556e+01  4.518874e+01
     vertex  6.505632e+01  4.881445e+01  4.290736e+01
     vertex  6.699008e+01  4.944276e+01  4.290736e+01
   endloop
 endfacet
 facet normal  1.038448e-01 -5.443734e-01  8.323905e-01
   outer loop
     vertex  6.491621e+01  5.253556e+01  4.518874e+01
     vertex  6.699008e+01  4.944276e+01  4.290736e+01
     vertex  6.777977e+01  5.308182e+01  4.518874e+01
   endloop
 endfacet
 facet normal -4.459652e-02 -7.088414e-01  7.039567e-01
   outer loop
     vertex  6.942267e+01  5.598134e+01  4.821246e+01
     vertex  6.777977e+01  5.308182e+01  4.518874e+01
     vertex  7.068922e+01  5.289877e+01  4.518874e+01
   endloop
 endfacet
 facet normal -1.376995e-01 -7.218459e-01  6.782163e-01
   outer loop
     vertex  6.942267e+01  5.598134e+01  4.821246e+01
     vertex  7.068922e+01  5.289877e+01  4.518874e+01
     vertex  7.300159e+01  5.529862e+01  4.821246e+01
   endloop
 endfacet
 facet normal -3.610839e-01 -7.673423e-01  5.299097e-01
   outer loop
     vertex  7.560948e+01  5.656211e+01  5.181911e+01
     vertex  7.300159e+01  5.529862e+01  4.821246e+01
     vertex  7.629828e+01  5.374732e+01  4.821246e+01
   endloop
 endfacet
 facet normal -4.681851e-01 -7.377416e-01  4.863539e-01
   outer loop
     vertex  7.560948e+01  5.656211e+01  5.181911e+01
     vertex  7.629828e+01  5.374732e+01  4.821246e+01
     vertex  7.913846e+01  5.432256e+01  5.181911e+01
   endloop
 endfacet
 facet normal -6.618725e-01 -7.470997e-01  6.137441e-02
   outer loop
     vertex  8.158339e+01  5.375170e+01  5.581857e+01
     vertex  8.216935e+01  5.357609e+01  6.000000e+01
     vertex  7.887645e+01  5.649335e+01  6.000000e+01
   endloop
 endfacet
 facet normal -8.058542e-01 -5.854873e-01  8.833812e-02
   outer loop
     vertex  8.158339e+01  5.375170e+01  5.581857e+01
     vertex  8.422577e+01  5.011479e+01  5.581857e+01
     vertex  8.216935e+01  5.357609e+01  6.000000e+01
   endloop
 endfacet
 facet normal -6.884879e-01 -6.465332e-01  3.286020e-01
   outer loop
     vertex  8.158339e+01  5.375170e+01  5.581857e+01
     vertex  7.913846e+01  5.432256e+01  5.181911e+01
     vertex  8.199961e+01  5.127574e+01  5.181911e+01
   endloop
 endfacet
 facet normal -7.791170e-01 -5.660616e-01  2.693527e-01
   outer loop
     vertex  8.158339e+01  5.375170e+01  5.581857e+01
     vertex  8.199961e+01  5.127574e+01  5.181911e+01
     vertex  8.422577e+01  5.011479e+01  5.581857e+01
   endloop
 endfacet
 facet normal  1.075755e-01 -4.259215e-02  9.932842e-01
   outer loop
     vertex  6.447535e+01  4.251090e+01  4.148858e+01
     vertex  6.851001e+01  4.147498e+01  4.100720e+01
     vertex  6.485973e+01  4.348174e+01  4.148858e+01
   endloop
 endfacet
 facet normal  2.717258e-01 -1.974204e-01  9.419078e-01
   outer loop
     vertex  6.194770e+01  4.624277e+01  4.290736e+01
     vertex  6.485973e+01  4.348174e+01  4.148858e+01
     vertex  6.547347e+01  4.432648e+01  4.148858e+01
   endloop
 endfacet
 facet normal  2.502339e-01 -2.349852e-01  9.392364e-01
   outer loop
     vertex  6.194770e+01  4.624277e+01  4.290736e+01
     vertex  6.547347e+01  4.432648e+01  4.148858e+01
     vertex  6.333957e+01  4.772497e+01  4.290736e+01
   endloop
 endfacet
 facet normal  2.878286e-01 -4.535454e-01  8.434757e-01
   outer loop
     vertex  6.227846e+01  5.129433e+01  4.518874e+01
     vertex  6.333957e+01  4.772497e+01  4.290736e+01
     vertex  6.505632e+01  4.881445e+01  4.290736e+01
   endloop
 endfacet
 facet normal  2.359624e-01 -5.014457e-01  8.323905e-01
   outer loop
     vertex  6.227846e+01  5.129433e+01  4.518874e+01
     vertex  6.505632e+01  4.881445e+01  4.290736e+01
     vertex  6.491621e+01  5.253556e+01  4.518874e+01
   endloop
 endfacet
 facet normal  1.330862e-01 -6.976625e-01  7.039567e-01
   outer loop
     vertex  6.578642e+01  5.575256e+01  4.821246e+01
     vertex  6.491621e+01  5.253556e+01  4.518874e+01
     vertex  6.777977e+01  5.308182e+01  4.518874e+01
   endloop
 endfacet
 facet normal  4.614239e-02 -7.334122e-01  6.782163e-01
   outer loop
     vertex  6.578642e+01  5.575256e+01  4.821246e+01
     vertex  6.777977e+01  5.308182e+01  4.518874e+01
     vertex  6.942267e+01  5.598134e+01  4.821246e+01
   endloop
 endfacet
 facet normal -1.589095e-01 -8.330327e-01  5.299097e-01
   outer loop
     vertex  7.163442e+01  5.785369e+01  5.181911e+01
     vertex  6.942267e+01  5.598134e+01  4.821246e+01
     vertex  7.300159e+01  5.529862e+01  4.821246e+01
   endloop
 endfacet
 facet normal -2.700073e-01 -8.309970e-01  4.863539e-01
   outer loop
     vertex  7.163442e+01  5.785369e+01  5.181911e+01
     vertex  7.300159e+01  5.529862e+01  4.821246e+01
     vertex  7.560948e+01  5.656211e+01  5.181911e+01
   endloop
 endfacet
 facet normal -6.138658e-01 -7.420363e-01  2.693527e-01
   outer loop
     vertex  7.811957e+01  5.661722e+01  5.581857e+01
     vertex  7.913846e+01  5.432256e+01  5.181911e+01
     vertex  8.158339e+01  5.375170e+01  5.581857e+01
   endloop
 endfacet
 facet normal -4.639465e-01 -8.839762e-01  5.779128e-02
   outer loop
     vertex  7.811957e+01  5.661722e+01  5.581857e+01
     vertex  7.887645e+01  5.649335e+01  6.000000e+01
     vertex  7.498108e+01  5.853779e+01  6.000000e+01
   endloop
 endfacet
 facet normal -6.347113e-01 -7.672341e-01  9.215952e-02
   outer loop
     vertex  7.811957e+01  5.661722e+01  5.581857e+01
     vertex  8.158339e+01  5.375170e+01  5.581857e+01
     vertex  7.887645e+01  5.649335e+01  6.000000e+01
   endloop
 endfacet
 facet normal -5.060715e-01 -7.974411e-01  3.286020e-01
   outer loop
     vertex  7.811957e+01  5.661722e+01  5.581857e+01
     vertex  7.560948e+01  5.656211e+01  5.181911e+01
     vertex  7.913846e+01  5.432256e+01  5.181911e+01
   endloop
 endfacet
 facet normal  0.000000e+00  0.000000e+00  0.000000e+00
   outer loop
     vertex  6.434449e+01  4.147498e+01  4.148858e+01
     vertex  6.851001e+01  4.147498e+01  4.100720e+01
     vertex  6.851001e+01  4.147498e+01  4.100720e+01
   endloop
 endfacet
 facet normal  1.147880e-01 -1.450110e-02  9.932842e-01
   outer loop
     vertex  6.434449e+01  4.147498e+01  4.148858e+01
     vertex  6.851001e+01  4.147498e+01  4.100720e+01
     vertex  6.447535e+01  4.251090e+01  4.148858e+01
   endloop
 endfacet
 facet normal  3.122855e-01 -1.236426e-01  9.419078e-01
   outer loop
     vertex  6.096817e+01  4.446101e+01  4.290736e+01
     vertex  6.447535e+01  4.251090e+01  4.148858e+01
     vertex  6.485973e+01  4.348174e+01  4.148858e+01
   endloop
 endfacet
 facet normal  3.008108e-01 -1.653721e-01  9.392364e-01
   outer loop
     vertex  6.096817e+01  4.446101e+01  4.290736e+01
     vertex  6.485973e+01  4.348174e+01  4.148858e+01
     vertex  6.194770e+01  4.624277e+01  4.290736e+01
   endloop
 endfacet
 facet normal  3.915781e-01 -3.677163e-01  8.434757e-01
   outer loop
     vertex  6.003226e+01  4.943612e+01  4.518874e+01
     vertex  6.194770e+01  4.624277e+01  4.290736e+01
     vertex  6.333957e+01  4.772497e+01  4.290736e+01
   endloop
 endfacet
 facet normal  3.532537e-01 -4.270104e-01  8.323905e-01
   outer loop
     vertex  6.003226e+01  4.943612e+01  4.518874e+01
     vertex  6.333957e+01  4.772497e+01  4.290736e+01
     vertex  6.227846e+01  5.129433e+01  4.518874e+01
   endloop
 endfacet
 facet normal  3.024067e-01 -6.426470e-01  7.039567e-01
   outer loop
     vertex  6.232129e+01  5.462667e+01  4.821246e+01
     vertex  6.227846e+01  5.129433e+01  4.518874e+01
     vertex  6.491621e+01  5.253556e+01  4.518874e+01
   endloop
 endfacet
 facet normal  2.270849e-01 -6.988956e-01  6.782163e-01
   outer loop
     vertex  6.232129e+01  5.462667e+01  4.821246e+01
     vertex  6.491621e+01  5.253556e+01  4.518874e+01
     vertex  6.578642e+01  5.575256e+01  4.821246e+01
   endloop
 endfacet
 facet normal  5.324976e-02 -8.463806e-01  5.299097e-01
   outer loop
     vertex  6.746304e+01  5.811613e+01  5.181911e+01
     vertex  6.578642e+01  5.575256e+01  4.821246e+01
     vertex  6.942267e+01  5.598134e+01  4.821246e+01
   endloop
 endfacet
 facet normal -5.486397e-02 -8.720378e-01  4.863539e-01
   outer loop
     vertex  6.746304e+01  5.811613e+01  5.181911e+01
     vertex  6.942267e+01  5.598134e+01  4.821246e+01
     vertex  7.163442e+01  5.785369e+01  5.181911e+01
   endloop
 endfacet
 facet normal -4.238301e-01 -9.006849e-01  9.557618e-02
   outer loop
     vertex  7.405195e+01  5.853130e+01  5.581857e+01
     vertex  7.811957e+01  5.661722e+01  5.581857e+01
     vertex  7.498108e+01  5.853779e+01  6.000000e+01
   endloop
 endfacet
 facet normal -2.389586e-01 -9.694933e-01  5.460355e-02
   outer loop
     vertex  7.405195e+01  5.853130e+01  5.581857e+01
     vertex  7.498108e+01  5.853779e+01  6.000000e+01
     vertex  7.070965e+01  5.959061e+01  6.000000e+01
   endloop
 endfacet
 facet normal -2.918568e-01 -8.982429e-01  3.286020e-01
   outer loop
     vertex  7.405195e+01  5.853130e+01  5.581857e+01
     vertex  7.163442e+01  5.785369e+01  5.181911e+01
     vertex  7.560948e+01  5.656211e+01  5.181911e+01
   endloop
 endfacet
 facet normal -4.100432e-01 -8.713861e-01  2.693527e-01
   outer loop
     vertex  7.405195e+01  5.853130e+01  5.581857e+01
     vertex  7.560948e+01  5.656211e+01  5.181911e+01
     vertex  7.811957e+01  5.661722e+01  5.581857e+01
   endloop
 endfacet
 facet normal  1.147880e-01  1.450110e-02  9.932842e-01
   outer loop
     vertex  6.447535e+01  4.043905e+01  4.148858e+01
     vertex  6.851001e+01  4.147498e+01  4.100720e+01
     vertex  6.434449e+01  4.147498e+01  4.148858e+01
   endloop
 endfacet
 facet normal  3.332231e-01 -4.209587e-02  9.419078e-01
   outer loop
     vertex  6.046251e+01  4.249161e+01  4.290736e+01
     vertex  6.434449e+01  4.147498e+01  4.148858e+01
     vertex  6.447535e+01  4.251090e+01  4.148858e+01
   endloop
 endfacet
 facet normal  3.324866e-01 -8.536805e-02  9.392364e-01
   outer loop
     vertex  6.046251e+01  4.249161e+01  4.290736e+01
     vertex  6.447535e+01  4.251090e+01  4.148858e+01
     vertex  6.096817e+01  4.446101e+01  4.290736e+01
   endloop
 endfacet
 facet normal  4.483488e-01 -3.257445e-01  8.323905e-01
   outer loop
     vertex  5.831875e+01  4.707767e+01  4.518874e+01
     vertex  6.194770e+01  4.624277e+01  4.290736e+01
     vertex  6.003226e+01  4.943612e+01  4.518874e+01
   endloop
 endfacet
 facet normal  4.707233e-01 -2.587823e-01  8.434757e-01
   outer loop
     vertex  5.831875e+01  4.707767e+01  4.518874e+01
     vertex  6.096817e+01  4.446101e+01  4.290736e+01
     vertex  6.194770e+01  4.624277e+01  4.290736e+01
   endloop
 endfacet
 facet normal  4.527258e-01 -5.472515e-01  7.039567e-01
   outer loop
     vertex  5.924503e+01  5.267442e+01  4.821246e+01
     vertex  6.003226e+01  4.943612e+01  4.518874e+01
     vertex  6.227846e+01  5.129433e+01  4.518874e+01
   endloop
 endfacet
 facet normal  3.937589e-01 -6.204648e-01  6.782163e-01
   outer loop
     vertex  5.924503e+01  5.267442e+01  4.821246e+01
     vertex  6.227846e+01  5.129433e+01  4.518874e+01
     vertex  6.232129e+01  5.462667e+01  4.821246e+01
   endloop
 endfacet
 facet normal  2.620631e-01 -8.065474e-01  5.299097e-01
   outer loop
     vertex  6.335745e+01  5.733295e+01  5.181911e+01
     vertex  6.232129e+01  5.462667e+01  4.821246e+01
     vertex  6.578642e+01  5.575256e+01  4.821246e+01
   endloop
 endfacet
 facet normal  1.637267e-01 -8.582852e-01  4.863539e-01
   outer loop
     vertex  6.335745e+01  5.733295e+01  5.181911e+01
     vertex  6.578642e+01  5.575256e+01  4.821246e+01
     vertex  6.746304e+01  5.811613e+01  5.181911e+01
   endloop
 endfacet
 facet normal  0.000000e+00 -9.986568e-01  5.181226e-02
   outer loop
     vertex  6.963610e+01  5.937367e+01  5.581857e+01
     vertex  7.070965e+01  5.959061e+01  6.000000e+01
     vertex  6.631038e+01  5.959061e+01  6.000000e+01
   endloop
 endfacet
 facet normal -1.864684e-01 -9.775018e-01  9.858884e-02
   outer loop
     vertex  6.963610e+01  5.937367e+01  5.581857e+01
     vertex  7.405195e+01  5.853130e+01  5.581857e+01
     vertex  7.070965e+01  5.959061e+01  6.000000e+01
   endloop
 endfacet
 facet normal -1.804560e-01 -9.459835e-01  2.693527e-01
   outer loop
     vertex  6.963610e+01  5.937367e+01  5.581857e+01
     vertex  7.163442e+01  5.785369e+01  5.181911e+01
     vertex  7.405195e+01  5.853130e+01  5.581857e+01
   endloop
 endfacet
 facet normal -5.930367e-02 -9.426048e-01  3.286020e-01
   outer loop
     vertex  6.963610e+01  5.937367e+01  5.581857e+01
     vertex  6.746304e+01  5.811613e+01  5.181911e+01
     vertex  7.163442e+01  5.785369e+01  5.181911e+01
   endloop
 endfacet
 facet normal  1.075755e-01  4.259215e-02  9.932842e-01
   outer loop
     vertex  6.485973e+01  3.946822e+01  4.148858e+01
     vertex  6.851001e+01  4.147498e+01  4.100720e+01
     vertex  6.447535e+01  4.043905e+01  4.148858e+01
   endloop
 endfacet
 facet normal  3.432711e-01 -1.199588e-15  9.392364e-01
   outer loop
     vertex  6.046251e+01  4.045834e+01  4.290736e+01
     vertex  6.434449e+01  4.147498e+01  4.148858e+01
     vertex  6.046251e+01  4.249161e+01  4.290736e+01
   endloop
 endfacet
 facet normal  3.332231e-01  4.209587e-02  9.419078e-01
   outer loop
     vertex  6.046251e+01  4.045834e+01  4.290736e+01
     vertex  6.447535e+01  4.043905e+01  4.148858e+01
     vertex  6.434449e+01  4.147498e+01  4.148858e+01
   endloop
 endfacet
 facet normal  5.202912e-01 -1.335881e-01  8.434757e-01
   outer loop
     vertex  5.724559e+01  4.436719e+01  4.518874e+01
     vertex  6.046251e+01  4.249161e+01  4.290736e+01
     vertex  6.096817e+01  4.446101e+01  4.290736e+01
   endloop
 endfacet
 facet normal  5.152724e-01 -2.040108e-01  8.323905e-01
   outer loop
     vertex  5.724559e+01  4.436719e+01  4.518874e+01
     vertex  6.096817e+01  4.446101e+01  4.290736e+01
     vertex  5.831875e+01  4.707767e+01  4.518874e+01
   endloop
 endfacet
 facet normal  5.745985e-01 -4.174703e-01  7.039567e-01
   outer loop
     vertex  5.675092e+01  5.001846e+01  4.821246e+01
     vertex  5.831875e+01  4.707767e+01  4.518874e+01
     vertex  6.003226e+01  4.943612e+01  4.518874e+01
   endloop
 endfacet
 facet normal  5.356916e-01 -5.030479e-01  6.782163e-01
   outer loop
     vertex  5.675092e+01  5.001846e+01  4.821246e+01
     vertex  6.003226e+01  4.943612e+01  4.518874e+01
     vertex  5.924503e+01  5.267442e+01  4.821246e+01
   endloop
 endfacet
 facet normal  4.544101e-01 -7.160357e-01  5.299097e-01
   outer loop
     vertex  5.957561e+01  5.555335e+01  5.181911e+01
     vertex  5.924503e+01  5.267442e+01  4.821246e+01
     vertex  6.232129e+01  5.462667e+01  4.821246e+01
   endloop
 endfacet
 facet normal  3.720297e-01 -7.906034e-01  4.863539e-01
   outer loop
     vertex  5.957561e+01  5.555335e+01  5.181911e+01
     vertex  6.232129e+01  5.462667e+01  4.821246e+01
     vertex  6.335745e+01  5.733295e+01  5.181911e+01
   endloop
 endfacet
 facet normal  2.390233e-01 -9.697555e-01  4.941827e-02
   outer loop
     vertex  6.514950e+01  5.909140e+01  5.581857e+01
     vertex  6.631038e+01  5.959061e+01  6.000000e+01
     vertex  6.203894e+01  5.853779e+01  6.000000e+01
   endloop
 endfacet
 facet normal  1.769757e-01 -9.277393e-01  3.286020e-01
   outer loop
     vertex  6.514950e+01  5.909140e+01  5.581857e+01
     vertex  6.335745e+01  5.733295e+01  5.181911e+01
     vertex  6.746304e+01  5.811613e+01  5.181911e+01
   endloop
 endfacet
 facet normal  6.046988e-02 -9.611412e-01  2.693527e-01
   outer loop
     vertex  6.514950e+01  5.909140e+01  5.581857e+01
     vertex  6.746304e+01  5.811613e+01  5.181911e+01
     vertex  6.963610e+01  5.937367e+01  5.581857e+01
   endloop
 endfacet
 facet normal  6.246817e-02 -9.929031e-01  1.011982e-01
   outer loop
     vertex  6.514950e+01  5.909140e+01  5.581857e+01
     vertex  6.963610e+01  5.937367e+01  5.581857e+01
     vertex  6.631038e+01  5.959061e+01  6.000000e+01
   endloop
 endfacet
 facet normal  9.360357e-02  6.800697e-02  9.932842e-01
   outer loop
     vertex  6.547347e+01  3.862348e+01  4.148858e+01
     vertex  6.851001e+01  4.147498e+01  4.100720e+01
     vertex  6.485973e+01  3.946822e+01  4.148858e+01
   endloop
 endfacet
 facet normal  3.122855e-01  1.236426e-01  9.419078e-01
   outer loop
     vertex  6.096817e+01  3.848895e+01  4.290736e+01
     vertex  6.485973e+01  3.946822e+01  4.148858e+01
     vertex  6.447535e+01  4.043905e+01  4.148858e+01
   endloop
 endfacet
 facet normal  3.324866e-01  8.536805e-02  9.392364e-01
   outer loop
     vertex  6.096817e+01  3.848895e+01  4.290736e+01
     vertex  6.447535e+01  4.043905e+01  4.148858e+01
     vertex  6.046251e+01  4.045834e+01  4.290736e+01
   endloop
 endfacet
 facet normal  5.371673e-01 -1.851353e-15  8.434757e-01
   outer loop
     vertex  5.688022e+01  4.147498e+01  4.518874e+01
     vertex  6.046251e+01  4.045834e+01  4.290736e+01
     vertex  6.046251e+01  4.249161e+01  4.290736e+01
   endloop
 endfacet
 facet normal  5.498196e-01 -6.945837e-02  8.323905e-01
   outer loop
     vertex  5.688022e+01  4.147498e+01  4.518874e+01
     vertex  6.046251e+01  4.249161e+01  4.290736e+01
     vertex  5.724559e+01  4.436719e+01  4.518874e+01
   endloop
 endfacet
 facet normal  6.603671e-01 -2.614578e-01  7.039567e-01
   outer loop
     vertex  5.499567e+01  4.682568e+01  4.821246e+01
     vertex  5.724559e+01  4.436719e+01  4.518874e+01
     vertex  5.831875e+01  4.707767e+01  4.518874e+01
   endloop
 endfacet
 facet normal  6.439647e-01 -3.540226e-01  6.782163e-01
   outer loop
     vertex  5.499567e+01  4.682568e+01  4.821246e+01
     vertex  5.831875e+01  4.707767e+01  4.518874e+01
     vertex  5.675092e+01  5.001846e+01  4.821246e+01
   endloop
 endfacet
 facet normal  6.182048e-01 -5.805330e-01  5.299097e-01
   outer loop
     vertex  5.635515e+01  5.288915e+01  5.181911e+01
     vertex  5.675092e+01  5.001846e+01  4.821246e+01
     vertex  5.924503e+01  5.267442e+01  4.821246e+01
   endloop
 endfacet
 facet normal  5.569568e-01 -6.732451e-01  4.863539e-01
   outer loop
     vertex  5.635515e+01  5.288915e+01  5.181911e+01
     vertex  5.924503e+01  5.267442e+01  4.821246e+01
     vertex  5.957561e+01  5.555335e+01  5.181911e+01
   endloop
 endfacet
 facet normal  4.642003e-01 -8.844598e-01  4.742229e-02
   outer loop
     vertex  6.087405e+01  5.770222e+01  5.581857e+01
     vertex  6.203894e+01  5.853779e+01  6.000000e+01
     vertex  5.814358e+01  5.649335e+01  6.000000e+01
   endloop
 endfacet
 facet normal  4.021351e-01 -8.545806e-01  3.286020e-01
   outer loop
     vertex  6.087405e+01  5.770222e+01  5.581857e+01
     vertex  5.957561e+01  5.555335e+01  5.181911e+01
     vertex  6.335745e+01  5.733295e+01  5.181911e+01
   endloop
 endfacet
 facet normal  3.073605e-01 -9.459582e-01  1.034049e-01
   outer loop
     vertex  6.087405e+01  5.770222e+01  5.581857e+01
     vertex  6.514950e+01  5.909140e+01  5.581857e+01
     vertex  6.203894e+01  5.853779e+01  6.000000e+01
   endloop
 endfacet
 facet normal  2.975962e-01 -9.159070e-01  2.693527e-01
   outer loop
     vertex  6.087405e+01  5.770222e+01  5.581857e+01
     vertex  6.335745e+01  5.733295e+01  5.181911e+01
     vertex  6.514950e+01  5.909140e+01  5.581857e+01
   endloop
 endfacet
 facet normal  7.375019e-02  8.914867e-02  9.932842e-01
   outer loop
     vertex  6.627801e+01  3.795791e+01  4.148858e+01
     vertex  6.851001e+01  4.147498e+01  4.100720e+01
     vertex  6.547347e+01  3.862348e+01  4.148858e+01
   endloop
 endfacet
 facet normal  3.008108e-01  1.653721e-01  9.392364e-01
   outer loop
     vertex  6.194770e+01  3.670718e+01  4.290736e+01
     vertex  6.485973e+01  3.946822e+01  4.148858e+01
     vertex  6.096817e+01  3.848895e+01  4.290736e+01
   endloop
 endfacet
 facet normal  2.717258e-01  1.974204e-01  9.419078e-01
   outer loop
     vertex  6.194770e+01  3.670718e+01  4.290736e+01
     vertex  6.547347e+01  3.862348e+01  4.148858e+01
     vertex  6.485973e+01  3.946822e+01  4.148858e+01
   endloop
 endfacet
 facet normal  5.202912e-01  1.335881e-01  8.434757e-01
   outer loop
     vertex  5.724559e+01  3.858277e+01  4.518874e+01
     vertex  6.096817e+01  3.848895e+01  4.290736e+01
     vertex  6.046251e+01  4.045834e+01  4.290736e+01
   endloop
 endfacet
 facet normal  5.498196e-01  6.945837e-02  8.323905e-01
   outer loop
     vertex  5.724559e+01  3.858277e+01  4.518874e+01
     vertex  6.046251e+01  4.045834e+01  4.290736e+01
     vertex  5.688022e+01  4.147498e+01  4.518874e+01
   endloop
 endfacet
 facet normal  7.046424e-01 -8.901703e-02  7.039567e-01
   outer loop
     vertex  5.408959e+01  4.329670e+01  4.821246e+01
     vertex  5.688022e+01  4.147498e+01  4.518874e+01
     vertex  5.724559e+01  4.436719e+01  4.518874e+01
   endloop
 endfacet
 facet normal  7.117752e-01 -1.827528e-01  6.782163e-01
   outer loop
     vertex  5.408959e+01  4.329670e+01  4.821246e+01
     vertex  5.724559e+01  4.436719e+01  4.518874e+01
     vertex  5.499567e+01  4.682568e+01  4.821246e+01
   endloop
 endfacet
 facet normal  7.431555e-01 -4.085532e-01  5.299097e-01
   outer loop
     vertex  5.389843e+01  4.950777e+01  5.181911e+01
     vertex  5.499567e+01  4.682568e+01  4.821246e+01
     vertex  5.675092e+01  5.001846e+01  4.821246e+01
   endloop
 endfacet
 facet normal  7.068883e-01 -5.135844e-01  4.863539e-01
   outer loop
     vertex  5.389843e+01  4.950777e+01  5.181911e+01
     vertex  5.675092e+01  5.001846e+01  4.821246e+01
     vertex  5.635515e+01  5.288915e+01  5.181911e+01
   endloop
 endfacet
 facet normal  6.624260e-01 -7.477244e-01  4.582487e-02
   outer loop
     vertex  5.707840e+01  5.529342e+01  5.581857e+01
     vertex  5.814358e+01  5.649335e+01  6.000000e+01
     vertex  5.485068e+01  5.357609e+01  6.000000e+01
   endloop
 endfacet
 facet normal  5.328530e-01 -8.396420e-01  1.052095e-01
   outer loop
     vertex  5.707840e+01  5.529342e+01  5.581857e+01
     vertex  6.087405e+01  5.770222e+01  5.581857e+01
     vertex  5.814358e+01  5.649335e+01  6.000000e+01
   endloop
 endfacet
 facet normal  6.020269e-01 -7.277255e-01  3.286020e-01
   outer loop
     vertex  5.707840e+01  5.529342e+01  5.581857e+01
     vertex  5.635515e+01  5.288915e+01  5.181911e+01
     vertex  5.957561e+01  5.555335e+01  5.181911e+01
   endloop
 endfacet
 facet normal  5.160235e-01 -8.131229e-01  2.693527e-01
   outer loop
     vertex  5.707840e+01  5.529342e+01  5.581857e+01
     vertex  5.957561e+01  5.555335e+01  5.181911e+01
     vertex  6.087405e+01  5.770222e+01  5.581857e+01
   endloop
 endfacet
 facet normal  4.926282e-02  1.046888e-01  9.932842e-01
   outer loop
     vertex  6.722279e+01  3.751333e+01  4.148858e+01
     vertex  6.851001e+01  4.147498e+01  4.100720e+01
     vertex  6.627801e+01  3.795791e+01  4.148858e+01
   endloop
 endfacet
 facet normal  2.140926e-01  2.587935e-01  9.419078e-01
   outer loop
     vertex  6.333957e+01  3.522499e+01  4.290736e+01
     vertex  6.627801e+01  3.795791e+01  4.148858e+01
     vertex  6.547347e+01  3.862348e+01  4.148858e+01
   endloop
 endfacet
 facet normal  2.502339e-01  2.349852e-01  9.392364e-01
   outer loop
     vertex  6.333957e+01  3.522499e+01  4.290736e+01
     vertex  6.547347e+01  3.862348e+01  4.148858e+01
     vertex  6.194770e+01  3.670718e+01  4.290736e+01
   endloop
 endfacet
 facet normal  5.152724e-01  2.040108e-01  8.323905e-01
   outer loop
     vertex  5.831875e+01  3.587228e+01  4.518874e+01
     vertex  6.096817e+01  3.848895e+01  4.290736e+01
     vertex  5.724559e+01  3.858277e+01  4.518874e+01
   endloop
 endfacet
 facet normal  4.707233e-01  2.587823e-01  8.434757e-01
   outer loop
     vertex  5.831875e+01  3.587228e+01  4.518874e+01
     vertex  6.194770e+01  3.670718e+01  4.290736e+01
     vertex  6.096817e+01  3.848895e+01  4.290736e+01
   endloop
 endfacet
 facet normal  7.046424e-01  8.901703e-02  7.039567e-01
   outer loop
     vertex  5.408959e+01  3.965325e+01  4.821246e+01
     vertex  5.724559e+01  3.858277e+01  4.518874e+01
     vertex  5.688022e+01  4.147498e+01  4.518874e+01
   endloop
 endfacet
 facet normal  7.348623e-01 -0.000000e+00  6.782163e-01
   outer loop
     vertex  5.408959e+01  3.965325e+01  4.821246e+01
     vertex  5.688022e+01  4.147498e+01  4.518874e+01
     vertex  5.408959e+01  4.329670e+01  4.821246e+01
   endloop
 endfacet
 facet normal  8.124033e-01 -3.216532e-01  4.863539e-01
   outer loop
     vertex  5.235980e+01  4.562165e+01  5.181911e+01
     vertex  5.499567e+01  4.682568e+01  4.821246e+01
     vertex  5.389843e+01  4.950777e+01  5.181911e+01
   endloop
 endfacet
 facet normal  8.214109e-01 -2.109025e-01  5.299097e-01
   outer loop
     vertex  5.235980e+01  4.562165e+01  5.181911e+01
     vertex  5.408959e+01  4.329670e+01  4.821246e+01
     vertex  5.499567e+01  4.682568e+01  4.821246e+01
   endloop
 endfacet
 facet normal  7.640910e-01 -5.551446e-01  3.286020e-01
   outer loop
     vertex  5.400104e+01  5.201637e+01  5.581857e+01
     vertex  5.389843e+01  4.950777e+01  5.181911e+01
     vertex  5.635515e+01  5.288915e+01  5.181911e+01
   endloop
 endfacet
 facet normal  8.221640e-01 -5.674988e-01  4.462644e-02
   outer loop
     vertex  5.400104e+01  5.201637e+01  5.581857e+01
     vertex  5.485068e+01  5.357609e+01  6.000000e+01
     vertex  5.235160e+01  4.995556e+01  6.000000e+01
   endloop
 endfacet
 facet normal  7.020271e-01 -6.592473e-01  2.693527e-01
   outer loop
     vertex  5.400104e+01  5.201637e+01  5.581857e+01
     vertex  5.635515e+01  5.288915e+01  5.181911e+01
     vertex  5.707840e+01  5.529342e+01  5.581857e+01
   endloop
 endfacet
 facet normal  7.248140e-01 -6.806456e-01  1.066126e-01
   outer loop
     vertex  5.400104e+01  5.201637e+01  5.581857e+01
     vertex  5.707840e+01  5.529342e+01  5.581857e+01
     vertex  5.485068e+01  5.357609e+01  6.000000e+01
   endloop
 endfacet
 facet normal  2.168009e-02  1.136510e-01  9.932842e-01
   outer loop
     vertex  6.824846e+01  3.731767e+01  4.148858e+01
     vertex  6.851001e+01  4.147498e+01  4.100720e+01
     vertex  6.722279e+01  3.751333e+01  4.148858e+01
   endloop
 endfacet
 facet normal  1.430072e-01  3.039057e-01  9.419078e-01
   outer loop
     vertex  6.505632e+01  3.413551e+01  4.290736e+01
     vertex  6.722279e+01  3.751333e+01  4.148858e+01
     vertex  6.627801e+01  3.795791e+01  4.148858e+01
   endloop
 endfacet
 facet normal  1.839339e-01  2.898334e-01  9.392364e-01
   outer loop
     vertex  6.505632e+01  3.413551e+01  4.290736e+01
     vertex  6.627801e+01  3.795791e+01  4.148858e+01
     vertex  6.333957e+01  3.522499e+01  4.290736e+01
   endloop
 endfacet
 facet normal  3.915781e-01  3.677163e-01  8.434757e-01
   outer loop
     vertex  6.003226e+01  3.351384e+01  4.518874e+01
     vertex  6.333957e+01  3.522499e+01  4.290736e+01
     vertex  6.194770e+01  3.670718e+01  4.290736e+01
   endloop
 endfacet
 facet normal  4.483488e-01  3.257445e-01  8.323905e-01
   outer loop
     vertex  6.003226e+01  3.351384e+01  4.518874e+01
     vertex  6.194770e+01  3.670718e+01  4.290736e+01
     vertex  5.831875e+01  3.587228e+01  4.518874e+01
   endloop
 endfacet
 facet normal  6.603671e-01  2.614578e-01  7.039567e-01
   outer loop
     vertex  5.499567e+01  3.612427e+01  4.821246e+01
     vertex  5.831875e+01  3.587228e+01  4.518874e+01
     vertex  5.724559e+01  3.858277e+01  4.518874e+01
   endloop
 endfacet
 facet normal  7.117752e-01  1.827528e-01  6.782163e-01
   outer loop
     vertex  5.499567e+01  3.612427e+01  4.821246e+01
     vertex  5.724559e+01  3.858277e+01  4.518874e+01
     vertex  5.408959e+01  3.965325e+01  4.821246e+01
   endloop
 endfacet
 facet normal  8.668721e-01 -1.095114e-01  4.863539e-01
   outer loop
     vertex  5.183596e+01  4.147498e+01  5.181911e+01
     vertex  5.408959e+01  4.329670e+01  4.821246e+01
     vertex  5.235980e+01  4.562165e+01  5.181911e+01
   endloop
 endfacet
 facet normal  8.480541e-01  0.000000e+00  5.299097e-01
   outer loop
     vertex  5.183596e+01  4.147498e+01  5.181911e+01
     vertex  5.408959e+01  3.965325e+01  4.821246e+01
     vertex  5.408959e+01  4.329670e+01  4.821246e+01
   endloop
 endfacet
 facet normal  8.712177e-01 -4.789560e-01  1.076144e-01
   outer loop
     vertex  5.183533e+01  4.807695e+01  5.581857e+01
     vertex  5.400104e+01  5.201637e+01  5.581857e+01
     vertex  5.235160e+01  4.995556e+01  6.000000e+01
   endloop
 endfacet
 facet normal  9.341178e-01 -3.542642e-01  4.382732e-02
   outer loop
     vertex  5.183533e+01  4.807695e+01  5.581857e+01
     vertex  5.235160e+01  4.995556e+01  6.000000e+01
     vertex  5.079160e+01  4.584217e+01  6.000000e+01
   endloop
 endfacet
 facet normal  8.439198e-01 -4.639488e-01  2.693527e-01
   outer loop
     vertex  5.183533e+01  4.807695e+01  5.581857e+01
     vertex  5.389843e+01  4.950777e+01  5.181911e+01
     vertex  5.400104e+01  5.201637e+01  5.581857e+01
   endloop
 endfacet
 facet normal  8.781446e-01 -3.476820e-01  3.286020e-01
   outer loop
     vertex  5.183533e+01  4.807695e+01  5.581857e+01
     vertex  5.235980e+01  4.562165e+01  5.181911e+01
     vertex  5.389843e+01  4.950777e+01  5.181911e+01
   endloop
 endfacet
 facet normal -7.264886e-03  1.154721e-01  9.932842e-01
   outer loop
     vertex  6.929055e+01  3.738324e+01  4.148858e+01
     vertex  6.851001e+01  4.147498e+01  4.100720e+01
     vertex  6.824846e+01  3.731767e+01  4.148858e+01
   endloop
 endfacet
 facet normal  1.060766e-01  3.264702e-01  9.392364e-01
   outer loop
     vertex  6.699008e+01  3.350719e+01  4.290736e+01
     vertex  6.722279e+01  3.751333e+01  4.148858e+01
     vertex  6.505632e+01  3.413551e+01  4.290736e+01
   endloop
 endfacet
 facet normal  6.293605e-02  3.299224e-01  9.419078e-01
   outer loop
     vertex  6.699008e+01  3.350719e+01  4.290736e+01
     vertex  6.824846e+01  3.731767e+01  4.148858e+01
     vertex  6.722279e+01  3.751333e+01  4.148858e+01
   endloop
 endfacet
 facet normal  2.878286e-01  4.535454e-01  8.434757e-01
   outer loop
     vertex  6.227846e+01  3.165562e+01  4.518874e+01
     vertex  6.505632e+01  3.413551e+01  4.290736e+01
     vertex  6.333957e+01  3.522499e+01  4.290736e+01
   endloop
 endfacet
 facet normal  3.532537e-01  4.270104e-01  8.323905e-01
   outer loop
     vertex  6.227846e+01  3.165562e+01  4.518874e+01
     vertex  6.333957e+01  3.522499e+01  4.290736e+01
     vertex  6.003226e+01  3.351384e+01  4.518874e+01
   endloop
 endfacet
 facet normal  5.745985e-01  4.174703e-01  7.039567e-01
   outer loop
     vertex  5.675092e+01  3.293150e+01  4.821246e+01
     vertex  6.003226e+01  3.351384e+01  4.518874e+01
     vertex  5.831875e+01  3.587228e+01  4.518874e+01
   endloop
 endfacet
 facet normal  6.439647e-01  3.540226e-01  6.782163e-01
   outer loop
     vertex  5.675092e+01  3.293150e+01  4.821246e+01
     vertex  5.831875e+01  3.587228e+01  4.518874e+01
     vertex  5.499567e+01  3.612427e+01  4.821246e+01
   endloop
 endfacet
 facet normal  8.214109e-01  2.109025e-01  5.299097e-01
   outer loop
     vertex  5.235980e+01  3.732831e+01  5.181911e+01
     vertex  5.499567e+01  3.612427e+01  4.821246e+01
     vertex  5.408959e+01  3.965325e+01  4.821246e+01
   endloop
 endfacet
 facet normal  8.668721e-01  1.095114e-01  4.863539e-01
   outer loop
     vertex  5.235980e+01  3.732831e+01  5.181911e+01
     vertex  5.408959e+01  3.965325e+01  4.821246e+01
     vertex  5.183596e+01  4.147498e+01  5.181911e+01
   endloop
 endfacet
 facet normal  9.917723e-01 -1.204230e-01  4.342771e-02
   outer loop
     vertex  5.071735e+01  4.372271e+01  5.581857e+01
     vertex  5.079160e+01  4.584217e+01  6.000000e+01
     vertex  5.026133e+01  4.147498e+01  6.000000e+01
   endloop
 endfacet
 facet normal  9.628951e-01 -2.472294e-01  1.082155e-01
   outer loop
     vertex  5.071735e+01  4.372271e+01  5.581857e+01
     vertex  5.183533e+01  4.807695e+01  5.581857e+01
     vertex  5.079160e+01  4.584217e+01  6.000000e+01
   endloop
 endfacet
 facet normal  9.370211e-01 -1.183733e-01  3.286020e-01
   outer loop
     vertex  5.071735e+01  4.372271e+01  5.581857e+01
     vertex  5.183596e+01  4.147498e+01  5.181911e+01
     vertex  5.235980e+01  4.562165e+01  5.181911e+01
   endloop
 endfacet
 facet normal  9.327859e-01 -2.394987e-01  2.693527e-01
   outer loop
     vertex  5.071735e+01  4.372271e+01  5.581857e+01
     vertex  5.235980e+01  4.562165e+01  5.181911e+01
     vertex  5.183533e+01  4.807695e+01  5.581857e+01
   endloop
 endfacet
 facet normal -3.575338e-02  1.100376e-01  9.932842e-01
   outer loop
     vertex  7.028361e+01  3.770590e+01  4.148858e+01
     vertex  6.851001e+01  4.147498e+01  4.100720e+01
     vertex  6.929055e+01  3.738324e+01  4.148858e+01
   endloop
 endfacet
 facet normal -2.108955e-02  3.352088e-01  9.419078e-01
   outer loop
     vertex  6.901933e+01  3.337952e+01  4.290736e+01
     vertex  6.929055e+01  3.738324e+01  4.148858e+01
     vertex  6.824846e+01  3.731767e+01  4.148858e+01
   endloop
 endfacet
 facet normal  2.155417e-02  3.425937e-01  9.392364e-01
   outer loop
     vertex  6.901933e+01  3.337952e+01  4.290736e+01
     vertex  6.824846e+01  3.731767e+01  4.148858e+01
     vertex  6.699008e+01  3.350719e+01  4.290736e+01
   endloop
 endfacet
 facet normal  1.659938e-01  5.108765e-01  8.434757e-01
   outer loop
     vertex  6.491621e+01  3.041439e+01  4.518874e+01
     vertex  6.699008e+01  3.350719e+01  4.290736e+01
     vertex  6.505632e+01  3.413551e+01  4.290736e+01
   endloop
 endfacet
 facet normal  2.359624e-01  5.014457e-01  8.323905e-01
   outer loop
     vertex  6.491621e+01  3.041439e+01  4.518874e+01
     vertex  6.505632e+01  3.413551e+01  4.290736e+01
     vertex  6.227846e+01  3.165562e+01  4.518874e+01
   endloop
 endfacet
 facet normal  4.527258e-01  5.472515e-01  7.039567e-01
   outer loop
     vertex  5.924503e+01  3.027554e+01  4.821246e+01
     vertex  6.227846e+01  3.165562e+01  4.518874e+01
     vertex  6.003226e+01  3.351384e+01  4.518874e+01
   endloop
 endfacet
 facet normal  5.356916e-01  5.030479e-01  6.782163e-01
   outer loop
     vertex  5.924503e+01  3.027554e+01  4.821246e+01
     vertex  6.003226e+01  3.351384e+01  4.518874e+01
     vertex  5.675092e+01  3.293150e+01  4.821246e+01
   endloop
 endfacet
 facet normal  7.431555e-01  4.085532e-01  5.299097e-01
   outer loop
     vertex  5.389843e+01  3.344219e+01  5.181911e+01
     vertex  5.675092e+01  3.293150e+01  4.821246e+01
     vertex  5.499567e+01  3.612427e+01  4.821246e+01
   endloop
 endfacet
 facet normal  8.124033e-01  3.216532e-01  4.863539e-01
   outer loop
     vertex  5.389843e+01  3.344219e+01  5.181911e+01
     vertex  5.499567e+01  3.612427e+01  4.821246e+01
     vertex  5.235980e+01  3.732831e+01  5.181911e+01
   endloop
 endfacet
 facet normal  9.917723e-01  1.204230e-01  4.342771e-02
   outer loop
     vertex  5.071735e+01  3.922724e+01  5.581857e+01
     vertex  5.026133e+01  4.147498e+01  6.000000e+01
     vertex  5.079160e+01  3.710778e+01  6.000000e+01
   endloop
 endfacet
 facet normal  9.370211e-01  1.183733e-01  3.286020e-01
   outer loop
     vertex  5.071735e+01  3.922724e+01  5.581857e+01
     vertex  5.235980e+01  3.732831e+01  5.181911e+01
     vertex  5.183596e+01  4.147498e+01  5.181911e+01
   endloop
 endfacet
 facet normal  9.941056e-01 -0.000000e+00  1.084158e-01
   outer loop
     vertex  5.071735e+01  3.922724e+01  5.581857e+01
     vertex  5.071735e+01  4.372271e+01  5.581857e+01
     vertex  5.026133e+01  4.147498e+01  6.000000e+01
   endloop
 endfacet
 facet normal  9.630416e-01 -0.000000e+00  2.693527e-01
   outer loop
     vertex  5.071735e+01  3.922724e+01  5.581857e+01
     vertex  5.183596e+01  4.147498e+01  5.181911e+01
     vertex  5.071735e+01  4.372271e+01  5.581857e+01
   endloop
 endfacet
 facet normal -6.199536e-02  9.768906e-02  9.932842e-01
   outer loop
     vertex  7.116522e+01  3.826539e+01  4.148858e+01
     vertex  6.851001e+01  4.147498e+01  4.100720e+01
     vertex  7.028361e+01  3.770590e+01  4.148858e+01
   endloop
 endfacet
 facet normal -1.037900e-01  3.194328e-01  9.419078e-01
   outer loop
     vertex  7.101659e+01  3.376052e+01  4.290736e+01
     vertex  7.028361e+01  3.770590e+01  4.148858e+01
     vertex  6.929055e+01  3.738324e+01  4.148858e+01
   endloop
 endfacet
 facet normal -6.432259e-02  3.371908e-01  9.392364e-01
   outer loop
     vertex  7.101659e+01  3.376052e+01  4.290736e+01
     vertex  6.929055e+01  3.738324e+01  4.148858e+01
     vertex  6.901933e+01  3.337952e+01  4.290736e+01
   endloop
 endfacet
 facet normal  3.372902e-02  5.361074e-01  8.434757e-01
   outer loop
     vertex  6.777977e+01  2.986814e+01  4.518874e+01
     vertex  6.901933e+01  3.337952e+01  4.290736e+01
     vertex  6.699008e+01  3.350719e+01  4.290736e+01
   endloop
 endfacet
 facet normal  1.038448e-01  5.443734e-01  8.323905e-01
   outer loop
     vertex  6.777977e+01  2.986814e+01  4.518874e+01
     vertex  6.699008e+01  3.350719e+01  4.290736e+01
     vertex  6.491621e+01  3.041439e+01  4.518874e+01
   endloop
 endfacet
 facet normal  3.024067e-01  6.426470e-01  7.039567e-01
   outer loop
     vertex  6.232129e+01  2.832328e+01  4.821246e+01
     vertex  6.491621e+01  3.041439e+01  4.518874e+01
     vertex  6.227846e+01  3.165562e+01  4.518874e+01
   endloop
 endfacet
 facet normal  3.937589e-01  6.204648e-01  6.782163e-01
   outer loop
     vertex  6.232129e+01  2.832328e+01  4.821246e+01
     vertex  6.227846e+01  3.165562e+01  4.518874e+01
     vertex  5.924503e+01  3.027554e+01  4.821246e+01
   endloop
 endfacet
 facet normal  6.182048e-01  5.805330e-01  5.299097e-01
   outer loop
     vertex  5.635515e+01  3.006080e+01  5.181911e+01
     vertex  5.924503e+01  3.027554e+01  4.821246e+01
     vertex  5.675092e+01  3.293150e+01  4.821246e+01
   endloop
 endfacet
 facet normal  7.068883e-01  5.135844e-01  4.863539e-01
   outer loop
     vertex  5.635515e+01  3.006080e+01  5.181911e+01
     vertex  5.675092e+01  3.293150e+01  4.821246e+01
     vertex  5.389843e+01  3.344219e+01  5.181911e+01
   endloop
 endfacet
 facet normal  9.341178e-01  3.542642e-01  4.382732e-02
   outer loop
     vertex  5.183533e+01  3.487300e+01  5.581857e+01
     vertex  5.079160e+01  3.710778e+01  6.000000e+01
     vertex  5.235160e+01  3.299439e+01  6.000000e+01
   endloop
 endfacet
 facet normal  9.628951e-01  2.472294e-01  1.082155e-01
   outer loop
     vertex  5.183533e+01  3.487300e+01  5.581857e+01
     vertex  5.071735e+01  3.922724e+01  5.581857e+01
     vertex  5.079160e+01  3.710778e+01  6.000000e+01
   endloop
 endfacet
 facet normal  8.781446e-01  3.476820e-01  3.286020e-01
   outer loop
     vertex  5.183533e+01  3.487300e+01  5.581857e+01
     vertex  5.389843e+01  3.344219e+01  5.181911e+01
     vertex  5.235980e+01  3.732831e+01  5.181911e+01
   endloop
 endfacet
 facet normal  9.327859e-01  2.394987e-01  2.693527e-01
   outer loop
     vertex  5.183533e+01  3.487300e+01  5.581857e+01
     vertex  5.235980e+01  3.732831e+01  5.181911e+01
     vertex  5.071735e+01  3.922724e+01  5.581857e+01
   endloop
 endfacet
 facet normal -8.434194e-02  7.920236e-02  9.932842e-01
   outer loop
     vertex  7.187999e+01  3.902654e+01  4.148858e+01
     vertex  6.851001e+01  4.147498e+01  4.100720e+01
     vertex  7.116522e+01  3.826539e+01  4.148858e+01
   endloop
 endfacet
 facet normal -1.799690e-01  2.835857e-01  9.419078e-01
   outer loop
     vertex  7.285635e+01  3.462625e+01  4.290736e+01
     vertex  7.116522e+01  3.826539e+01  4.148858e+01
     vertex  7.028361e+01  3.770590e+01  4.148858e+01
   endloop
 endfacet
 facet normal -1.461577e-01  3.106010e-01  9.392364e-01
   outer loop
     vertex  7.285635e+01  3.462625e+01  4.290736e+01
     vertex  7.028361e+01  3.770590e+01  4.148858e+01
     vertex  7.101659e+01  3.376052e+01  4.290736e+01
   endloop
 endfacet
 facet normal -1.006551e-01  5.276526e-01  8.434757e-01
   outer loop
     vertex  7.068922e+01  3.005118e+01  4.518874e+01
     vertex  7.101659e+01  3.376052e+01  4.290736e+01
     vertex  6.901933e+01  3.337952e+01  4.290736e+01
   endloop
 endfacet
 facet normal -3.479785e-02  5.530960e-01  8.323905e-01
   outer loop
     vertex  7.068922e+01  3.005118e+01  4.518874e+01
     vertex  6.901933e+01  3.337952e+01  4.290736e+01
     vertex  6.777977e+01  2.986814e+01  4.518874e+01
   endloop
 endfacet
 facet normal  1.330862e-01  6.976625e-01  7.039567e-01
   outer loop
     vertex  6.578642e+01  2.719739e+01  4.821246e+01
     vertex  6.777977e+01  2.986814e+01  4.518874e+01
     vertex  6.491621e+01  3.041439e+01  4.518874e+01
   endloop
 endfacet
 facet normal  2.270849e-01  6.988956e-01  6.782163e-01
   outer loop
     vertex  6.578642e+01  2.719739e+01  4.821246e+01
     vertex  6.491621e+01  3.041439e+01  4.518874e+01
     vertex  6.232129e+01  2.832328e+01  4.821246e+01
   endloop
 endfacet
 facet normal  4.544101e-01  7.160357e-01  5.299097e-01
   outer loop
     vertex  5.957561e+01  2.739661e+01  5.181911e+01
     vertex  6.232129e+01  2.832328e+01  4.821246e+01
     vertex  5.924503e+01  3.027554e+01  4.821246e+01
   endloop
 endfacet
 facet normal  5.569568e-01  6.732451e-01  4.863539e-01
   outer loop
     vertex  5.957561e+01  2.739661e+01  5.181911e+01
     vertex  5.924503e+01  3.027554e+01  4.821246e+01
     vertex  5.635515e+01  3.006080e+01  5.181911e+01
   endloop
 endfacet
 facet normal  8.221640e-01  5.674988e-01  4.462644e-02
   outer loop
     vertex  5.400104e+01  3.093359e+01  5.581857e+01
     vertex  5.235160e+01  3.299439e+01  6.000000e+01
     vertex  5.485068e+01  2.937386e+01  6.000000e+01
   endloop
 endfacet
 facet normal  8.712177e-01  4.789560e-01  1.076144e-01
   outer loop
     vertex  5.400104e+01  3.093359e+01  5.581857e+01
     vertex  5.183533e+01  3.487300e+01  5.581857e+01
     vertex  5.235160e+01  3.299439e+01  6.000000e+01
   endloop
 endfacet
 facet normal  7.640910e-01  5.551446e-01  3.286020e-01
   outer loop
     vertex  5.400104e+01  3.093359e+01  5.581857e+01
     vertex  5.635515e+01  3.006080e+01  5.181911e+01
     vertex  5.389843e+01  3.344219e+01  5.181911e+01
   endloop
 endfacet
 facet normal  8.439198e-01  4.639488e-01  2.693527e-01
   outer loop
     vertex  5.400104e+01  3.093359e+01  5.581857e+01
     vertex  5.389843e+01  3.344219e+01  5.181911e+01
     vertex  5.183533e+01  3.487300e+01  5.581857e+01
   endloop
 endfacet
 facet normal -1.013890e-01  5.573908e-02  9.932842e-01
   outer loop
     vertex  7.238302e+01  3.994155e+01  4.148858e+01
     vertex  6.851001e+01  4.147498e+01  4.100720e+01
     vertex  7.187999e+01  3.902654e+01  4.148858e+01
   endloop
 endfacet
 facet normal -2.448398e-01  2.299199e-01  9.419078e-01
   outer loop
     vertex  7.442301e+01  3.592230e+01  4.290736e+01
     vertex  7.187999e+01  3.902654e+01  4.148858e+01
     vertex  7.116522e+01  3.826539e+01  4.148858e+01
   endloop
 endfacet
 facet normal -2.188092e-01  2.644949e-01  9.392364e-01
   outer loop
     vertex  7.442301e+01  3.592230e+01  4.290736e+01
     vertex  7.116522e+01  3.826539e+01  4.148858e+01
     vertex  7.285635e+01  3.462625e+01  4.290736e+01
   endloop
 endfacet
 facet normal -1.712540e-01  5.270656e-01  8.323905e-01
   outer loop
     vertex  7.346174e+01  3.095203e+01  4.518874e+01
     vertex  7.101659e+01  3.376052e+01  4.290736e+01
     vertex  7.068922e+01  3.005118e+01  4.518874e+01
   endloop
 endfacet
 facet normal -2.287147e-01  4.860435e-01  8.434757e-01
   outer loop
     vertex  7.346174e+01  3.095203e+01  4.518874e+01
     vertex  7.285635e+01  3.462625e+01  4.290736e+01
     vertex  7.101659e+01  3.376052e+01  4.290736e+01
   endloop
 endfacet
 facet normal -4.459652e-02  7.088414e-01  7.039567e-01
   outer loop
     vertex  6.942267e+01  2.696862e+01  4.821246e+01
     vertex  7.068922e+01  3.005118e+01  4.518874e+01
     vertex  6.777977e+01  2.986814e+01  4.518874e+01
   endloop
 endfacet
 facet normal  4.614239e-02  7.334122e-01  6.782163e-01
   outer loop
     vertex  6.942267e+01  2.696862e+01  4.821246e+01
     vertex  6.777977e+01  2.986814e+01  4.518874e+01
     vertex  6.578642e+01  2.719739e+01  4.821246e+01
   endloop
 endfacet
 facet normal  3.720297e-01  7.906034e-01  4.863539e-01
   outer loop
     vertex  6.335745e+01  2.561701e+01  5.181911e+01
     vertex  6.232129e+01  2.832328e+01  4.821246e+01
     vertex  5.957561e+01  2.739661e+01  5.181911e+01
   endloop
 endfacet
 facet normal  2.620631e-01  8.065474e-01  5.299097e-01
   outer loop
     vertex  6.335745e+01  2.561701e+01  5.181911e+01
     vertex  6.578642e+01  2.719739e+01  4.821246e+01
     vertex  6.232129e+01  2.832328e+01  4.821246e+01
   endloop
 endfacet
 facet normal  6.020269e-01  7.277255e-01  3.286020e-01
   outer loop
     vertex  5.707840e+01  2.765653e+01  5.581857e+01
     vertex  5.957561e+01  2.739661e+01  5.181911e+01
     vertex  5.635515e+01  3.006080e+01  5.181911e+01
   endloop
 endfacet
 facet normal  6.624260e-01  7.477244e-01  4.582487e-02
   outer loop
     vertex  5.707840e+01  2.765653e+01  5.581857e+01
     vertex  5.485068e+01  2.937386e+01  6.000000e+01
     vertex  5.814358e+01  2.645661e+01  6.000000e+01
   endloop
 endfacet
 facet normal  7.248140e-01  6.806456e-01  1.066126e-01
   outer loop
     vertex  5.707840e+01  2.765653e+01  5.581857e+01
     vertex  5.400104e+01  3.093359e+01  5.581857e+01
     vertex  5.485068e+01  2.937386e+01  6.000000e+01
   endloop
 endfacet
 facet normal  7.020271e-01  6.592473e-01  2.693527e-01
   outer loop
     vertex  5.707840e+01  2.765653e+01  5.581857e+01
     vertex  5.635515e+01  3.006080e+01  5.181911e+01
     vertex  5.400104e+01  3.093359e+01  5.581857e+01
   endloop
 endfacet
 facet normal -1.120654e-01  2.877351e-02  9.932842e-01
   outer loop
     vertex  7.264269e+01  4.095290e+01  4.148858e+01
     vertex  6.851001e+01  4.147498e+01  4.100720e+01
     vertex  7.238302e+01  3.994155e+01  4.148858e+01
   endloop
 endfacet
 facet normal -1.147971e-01  7.222422e-03  9.933627e-01
   outer loop
     vertex  7.264269e+01  4.095290e+01  4.148858e+01
     vertex  7.267554e+01  4.147498e+01  4.148858e+01
     vertex  6.851001e+01  4.147498e+01  4.100720e+01
   endloop
 endfacet
 facet normal -3.382719e-01  2.128226e-02  9.408077e-01
   outer loop
     vertex  7.264269e+01  4.095290e+01  4.148858e+01
     vertex  7.662147e+01  4.147498e+01  4.290736e+01
     vertex  7.267554e+01  4.147498e+01  4.148858e+01
   endloop
 endfacet
 facet normal -2.943265e-01  1.618074e-01  9.419078e-01
   outer loop
     vertex  7.561814e+01  3.756725e+01  4.290736e+01
     vertex  7.238302e+01  3.994155e+01  4.148858e+01
     vertex  7.187999e+01  3.902654e+01  4.148858e+01
   endloop
 endfacet
 facet normal -2.777121e-01  2.017697e-01  9.392364e-01
   outer loop
     vertex  7.561814e+01  3.756725e+01  4.290736e+01
     vertex  7.187999e+01  3.902654e+01  4.148858e+01
     vertex  7.442301e+01  3.592230e+01  4.290736e+01
   endloop
 endfacet
 facet normal -3.424033e-01  4.138945e-01  8.434757e-01
   outer loop
     vertex  7.592312e+01  3.251407e+01  4.518874e+01
     vertex  7.442301e+01  3.592230e+01  4.290736e+01
     vertex  7.285635e+01  3.462625e+01  4.290736e+01
   endloop
 endfacet
 facet normal -2.969496e-01  4.679177e-01  8.323905e-01
   outer loop
     vertex  7.592312e+01  3.251407e+01  4.518874e+01
     vertex  7.285635e+01  3.462625e+01  4.290736e+01
     vertex  7.346174e+01  3.095203e+01  4.518874e+01
   endloop
 endfacet
 facet normal -2.194771e-01  6.754811e-01  7.039567e-01
   outer loop
     vertex  7.300159e+01  2.765133e+01  4.821246e+01
     vertex  7.346174e+01  3.095203e+01  4.518874e+01
     vertex  7.068922e+01  3.005118e+01  4.518874e+01
   endloop
 endfacet
 facet normal -1.376995e-01  7.218459e-01  6.782163e-01
   outer loop
     vertex  7.300159e+01  2.765133e+01  4.821246e+01
     vertex  7.068922e+01  3.005118e+01  4.518874e+01
     vertex  6.942267e+01  2.696862e+01  4.821246e+01
   endloop
 endfacet
 facet normal  1.637267e-01  8.582852e-01  4.863539e-01
   outer loop
     vertex  6.746304e+01  2.483382e+01  5.181911e+01
     vertex  6.578642e+01  2.719739e+01  4.821246e+01
     vertex  6.335745e+01  2.561701e+01  5.181911e+01
   endloop
 endfacet
 facet normal  5.324976e-02  8.463806e-01  5.299097e-01
   outer loop
     vertex  6.746304e+01  2.483382e+01  5.181911e+01
     vertex  6.942267e+01  2.696862e+01  4.821246e+01
     vertex  6.578642e+01  2.719739e+01  4.821246e+01
   endloop
 endfacet
 facet normal  4.642003e-01  8.844598e-01  4.742229e-02
   outer loop
     vertex  6.087405e+01  2.524774e+01  5.581857e+01
     vertex  5.814358e+01  2.645661e+01  6.000000e+01
     vertex  6.203894e+01  2.441216e+01  6.000000e+01
   endloop
 endfacet
 facet normal  5.328530e-01  8.396420e-01  1.052095e-01
   outer loop
     vertex  6.087405e+01  2.524774e+01  5.581857e+01
     vertex  5.707840e+01  2.765653e+01  5.581857e+01
     vertex  5.814358e+01  2.645661e+01  6.000000e+01
   endloop
 endfacet
 facet normal  5.160235e-01  8.131229e-01  2.693527e-01
   outer loop
     vertex  6.087405e+01  2.524774e+01  5.581857e+01
     vertex  5.957561e+01  2.739661e+01  5.181911e+01
     vertex  5.707840e+01  2.765653e+01  5.581857e+01
   endloop
 endfacet
 facet normal  4.021351e-01  8.545806e-01  3.286020e-01
   outer loop
     vertex  6.087405e+01  2.524774e+01  5.581857e+01
     vertex  6.335745e+01  2.561701e+01  5.181911e+01
     vertex  5.957561e+01  2.739661e+01  5.181911e+01
   endloop
 endfacet
 facet normal -3.253195e-01  8.352786e-02  9.419078e-01
   outer loop
     vertex  7.636664e+01  3.945774e+01  4.290736e+01
     vertex  7.264269e+01  4.095290e+01  4.148858e+01
     vertex  7.238302e+01  3.994155e+01  4.148858e+01
   endloop
 endfacet
 facet normal -3.191654e-01  1.263665e-01  9.392364e-01
   outer loop
     vertex  7.636664e+01  3.945774e+01  4.290736e+01
     vertex  7.238302e+01  3.994155e+01  4.148858e+01
     vertex  7.561814e+01  3.756725e+01  4.290736e+01
   endloop
 endfacet
 facet normal -3.405643e-01  4.302328e-02  9.392364e-01
   outer loop
     vertex  7.636664e+01  3.945774e+01  4.290736e+01
     vertex  7.662147e+01  4.147498e+01  4.290736e+01
     vertex  7.264269e+01  4.095290e+01  4.148858e+01
   endloop
 endfacet
 facet normal -4.039868e-01  3.793689e-01  8.323905e-01
   outer loop
     vertex  7.791871e+01  3.463916e+01  4.518874e+01
     vertex  7.442301e+01  3.592230e+01  4.290736e+01
     vertex  7.592312e+01  3.251407e+01  4.518874e+01
   endloop
 endfacet
 facet normal -4.345775e-01  3.157390e-01  8.434757e-01
   outer loop
     vertex  7.791871e+01  3.463916e+01  4.518874e+01
     vertex  7.561814e+01  3.756725e+01  4.290736e+01
     vertex  7.442301e+01  3.592230e+01  4.290736e+01
   endloop
 endfacet
 facet normal -3.128891e-01  6.649233e-01  6.782163e-01
   outer loop
     vertex  7.629828e+01  2.920264e+01  4.821246e+01
     vertex  7.346174e+01  3.095203e+01  4.518874e+01
     vertex  7.300159e+01  2.765133e+01  4.821246e+01
   endloop
 endfacet
 facet normal -3.805672e-01  5.996779e-01  7.039567e-01
   outer loop
     vertex  7.629828e+01  2.920264e+01  4.821246e+01
     vertex  7.592312e+01  3.251407e+01  4.518874e+01
     vertex  7.346174e+01  3.095203e+01  4.518874e+01
   endloop
 endfacet
 facet normal -1.589095e-01  8.330327e-01  5.299097e-01
   outer loop
     vertex  7.163442e+01  2.509627e+01  5.181911e+01
     vertex  7.300159e+01  2.765133e+01  4.821246e+01
     vertex  6.942267e+01  2.696862e+01  4.821246e+01
   endloop
 endfacet
 facet normal -5.486397e-02  8.720378e-01  4.863539e-01
   outer loop
     vertex  7.163442e+01  2.509627e+01  5.181911e+01
     vertex  6.942267e+01  2.696862e+01  4.821246e+01
     vertex  6.746304e+01  2.483382e+01  5.181911e+01
   endloop
 endfacet
 facet normal  2.390233e-01  9.697555e-01  4.941827e-02
   outer loop
     vertex  6.514950e+01  2.385856e+01  5.581857e+01
     vertex  6.203894e+01  2.441216e+01  6.000000e+01
     vertex  6.631038e+01  2.335935e+01  6.000000e+01
   endloop
 endfacet
 facet normal  3.073605e-01  9.459582e-01  1.034049e-01
   outer loop
     vertex  6.514950e+01  2.385856e+01  5.581857e+01
     vertex  6.087405e+01  2.524774e+01  5.581857e+01
     vertex  6.203894e+01  2.441216e+01  6.000000e+01
   endloop
 endfacet
 facet normal  1.769757e-01  9.277393e-01  3.286020e-01
   outer loop
     vertex  6.514950e+01  2.385856e+01  5.581857e+01
     vertex  6.746304e+01  2.483382e+01  5.181911e+01
     vertex  6.335745e+01  2.561701e+01  5.181911e+01
   endloop
 endfacet
 facet normal  2.975962e-01  9.159070e-01  2.693527e-01
   outer loop
     vertex  6.514950e+01  2.385856e+01  5.581857e+01
     vertex  6.335745e+01  2.561701e+01  5.181911e+01
     vertex  6.087405e+01  2.524774e+01  5.581857e+01
   endloop
 endfacet
 facet normal -4.994456e-01  1.977445e-01  8.434757e-01
   outer loop
     vertex  7.932312e+01  3.719377e+01  4.518874e+01
     vertex  7.636664e+01  3.945774e+01  4.290736e+01
     vertex  7.561814e+01  3.756725e+01  4.290736e+01
   endloop
 endfacet
 facet normal -4.856400e-01  2.669829e-01  8.323905e-01
   outer loop
     vertex  7.932312e+01  3.719377e+01  4.518874e+01
     vertex  7.561814e+01  3.756725e+01  4.290736e+01
     vertex  7.791871e+01  3.463916e+01  4.518874e+01
   endloop
 endfacet
 facet normal -4.684189e-01  5.662211e-01  6.782163e-01
   outer loop
     vertex  7.910560e+01  3.152506e+01  4.821246e+01
     vertex  7.592312e+01  3.251407e+01  4.518874e+01
     vertex  7.629828e+01  2.920264e+01  4.821246e+01
   endloop
 endfacet
 facet normal -5.177448e-01  4.861947e-01  7.039567e-01
   outer loop
     vertex  7.910560e+01  3.152506e+01  4.821246e+01
     vertex  7.791871e+01  3.463916e+01  4.518874e+01
     vertex  7.592312e+01  3.251407e+01  4.518874e+01
   endloop
 endfacet
 facet normal -3.610839e-01  7.673423e-01  5.299097e-01
   outer loop
     vertex  7.560948e+01  2.638784e+01  5.181911e+01
     vertex  7.629828e+01  2.920264e+01  4.821246e+01
     vertex  7.300159e+01  2.765133e+01  4.821246e+01
   endloop
 endfacet
 facet normal -2.700073e-01  8.309970e-01  4.863539e-01
   outer loop
     vertex  7.560948e+01  2.638784e+01  5.181911e+01
     vertex  7.300159e+01  2.765133e+01  4.821246e+01
     vertex  7.163442e+01  2.509627e+01  5.181911e+01
   endloop
 endfacet
 facet normal  2.416937e-15  9.986568e-01  5.181226e-02
   outer loop
     vertex  6.963610e+01  2.357629e+01  5.581857e+01
     vertex  6.631038e+01  2.335935e+01  6.000000e+01
     vertex  7.070965e+01  2.335935e+01  6.000000e+01
   endloop
 endfacet
 facet normal  6.246817e-02  9.929031e-01  1.011982e-01
   outer loop
     vertex  6.963610e+01  2.357629e+01  5.581857e+01
     vertex  6.514950e+01  2.385856e+01  5.581857e+01
     vertex  6.631038e+01  2.335935e+01  6.000000e+01
   endloop
 endfacet
 facet normal -5.930367e-02  9.426048e-01  3.286020e-01
   outer loop
     vertex  6.963610e+01  2.357629e+01  5.581857e+01
     vertex  7.163442e+01  2.509627e+01  5.181911e+01
     vertex  6.746304e+01  2.483382e+01  5.181911e+01
   endloop
 endfacet
 facet normal  6.046988e-02  9.611412e-01  2.693527e-01
   outer loop
     vertex  6.963610e+01  2.357629e+01  5.581857e+01
     vertex  6.746304e+01  2.483382e+01  5.181911e+01
     vertex  6.514950e+01  2.385856e+01  5.581857e+01
   endloop
 endfacet
 facet normal -5.437420e-01  3.420935e-02  8.385549e-01
   outer loop
     vertex  8.004810e+01  4.001738e+01  4.518874e+01
     vertex  8.013980e+01  4.147498e+01  4.518874e+01
     vertex  7.662147e+01  4.147498e+01  4.290736e+01
   endloop
 endfacet
 facet normal -7.203506e-01  4.532062e-02  6.921279e-01
   outer loop
     vertex  8.004810e+01  4.001738e+01  4.518874e+01
     vertex  8.304505e+01  4.147498e+01  4.821246e+01
     vertex  8.013980e+01  4.147498e+01  4.518874e+01
   endloop
 endfacet
 facet normal -5.329316e-01  6.732492e-02  8.434757e-01
   outer loop
     vertex  8.004810e+01  4.001738e+01  4.518874e+01
     vertex  7.662147e+01  4.147498e+01  4.290736e+01
     vertex  7.636664e+01  3.945774e+01  4.290736e+01
   endloop
 endfacet
 facet normal -5.367787e-01  1.378213e-01  8.323905e-01
   outer loop
     vertex  8.004810e+01  4.001738e+01  4.518874e+01
     vertex  7.636664e+01  3.945774e+01  4.290736e+01
     vertex  7.932312e+01  3.719377e+01  4.518874e+01
   endloop
 endfacet
 facet normal -6.223906e-01  3.421621e-01  7.039567e-01
   outer loop
     vertex  8.124716e+01  3.447267e+01  4.821246e+01
     vertex  7.932312e+01  3.719377e+01  4.518874e+01
     vertex  7.791871e+01  3.463916e+01  4.518874e+01
   endloop
 endfacet
 facet normal -5.945161e-01  4.319412e-01  6.782163e-01
   outer loop
     vertex  8.124716e+01  3.447267e+01  4.821246e+01
     vertex  7.791871e+01  3.463916e+01  4.518874e+01
     vertex  7.910560e+01  3.152506e+01  4.821246e+01
   endloop
 endfacet
 facet normal -4.681851e-01  7.377416e-01  4.863539e-01
   outer loop
     vertex  7.913846e+01  2.862740e+01  5.181911e+01
     vertex  7.629828e+01  2.920264e+01  4.821246e+01
     vertex  7.560948e+01  2.638784e+01  5.181911e+01
   endloop
 endfacet
 facet normal -5.405700e-01  6.534369e-01  5.299097e-01
   outer loop
     vertex  7.913846e+01  2.862740e+01  5.181911e+01
     vertex  7.910560e+01  3.152506e+01  4.821246e+01
     vertex  7.629828e+01  2.920264e+01  4.821246e+01
   endloop
 endfacet
 facet normal -2.389586e-01  9.694933e-01  5.460355e-02
   outer loop
     vertex  7.405195e+01  2.441866e+01  5.581857e+01
     vertex  7.070965e+01  2.335935e+01  6.000000e+01
     vertex  7.498108e+01  2.441216e+01  6.000000e+01
   endloop
 endfacet
 facet normal -1.864684e-01  9.775018e-01  9.858884e-02
   outer loop
     vertex  7.405195e+01  2.441866e+01  5.581857e+01
     vertex  6.963610e+01  2.357629e+01  5.581857e+01
     vertex  7.070965e+01  2.335935e+01  6.000000e+01
   endloop
 endfacet
 facet normal -2.918568e-01  8.982429e-01  3.286020e-01
   outer loop
     vertex  7.405195e+01  2.441866e+01  5.581857e+01
     vertex  7.560948e+01  2.638784e+01  5.181911e+01
     vertex  7.163442e+01  2.509627e+01  5.181911e+01
   endloop
 endfacet
 facet normal -1.804560e-01  9.459835e-01  2.693527e-01
   outer loop
     vertex  7.405195e+01  2.441866e+01  5.581857e+01
     vertex  7.163442e+01  2.509627e+01  5.181911e+01
     vertex  6.963610e+01  2.357629e+01  5.581857e+01
   endloop
 endfacet
 facet normal -6.832577e-01  2.705209e-01  6.782163e-01
   outer loop
     vertex  8.258841e+01  3.786026e+01  4.821246e+01
     vertex  7.932312e+01  3.719377e+01  4.518874e+01
     vertex  8.124716e+01  3.447267e+01  4.821246e+01
   endloop
 endfacet
 facet normal -6.879293e-01  1.766302e-01  7.039567e-01
   outer loop
     vertex  8.258841e+01  3.786026e+01  4.821246e+01
     vertex  8.004810e+01  4.001738e+01  4.518874e+01
     vertex  7.932312e+01  3.719377e+01  4.518874e+01
   endloop
 endfacet
 facet normal -7.290677e-01  9.210267e-02  6.782163e-01
   outer loop
     vertex  8.258841e+01  3.786026e+01  4.821246e+01
     vertex  8.304505e+01  4.147498e+01  4.821246e+01
     vertex  8.004810e+01  4.001738e+01  4.518874e+01
   endloop
 endfacet
 facet normal -6.860902e-01  4.984737e-01  5.299097e-01
   outer loop
     vertex  8.199961e+01  3.167421e+01  5.181911e+01
     vertex  8.124716e+01  3.447267e+01  4.821246e+01
     vertex  7.910560e+01  3.152506e+01  4.821246e+01
   endloop
 endfacet
 facet normal -6.369450e-01  5.981312e-01  4.863539e-01
   outer loop
     vertex  8.199961e+01  3.167421e+01  5.181911e+01
     vertex  7.910560e+01  3.152506e+01  4.821246e+01
     vertex  7.913846e+01  2.862740e+01  5.181911e+01
   endloop
 endfacet
 facet normal -4.639465e-01  8.839762e-01  5.779128e-02
   outer loop
     vertex  7.811957e+01  2.633273e+01  5.581857e+01
     vertex  7.498108e+01  2.441216e+01  6.000000e+01
     vertex  7.887645e+01  2.645661e+01  6.000000e+01
   endloop
 endfacet
 facet normal -4.238301e-01  9.006849e-01  9.557618e-02
   outer loop
     vertex  7.811957e+01  2.633273e+01  5.581857e+01
     vertex  7.405195e+01  2.441866e+01  5.581857e+01
     vertex  7.498108e+01  2.441216e+01  6.000000e+01
   endloop
 endfacet
 facet normal -5.060715e-01  7.974411e-01  3.286020e-01
   outer loop
     vertex  7.811957e+01  2.633273e+01  5.581857e+01
     vertex  7.913846e+01  2.862740e+01  5.181911e+01
     vertex  7.560948e+01  2.638784e+01  5.181911e+01
   endloop
 endfacet
 facet normal -4.100432e-01  8.713861e-01  2.693527e-01
   outer loop
     vertex  7.811957e+01  2.633273e+01  5.581857e+01
     vertex  7.560948e+01  2.638784e+01  5.181911e+01
     vertex  7.405195e+01  2.441866e+01  5.581857e+01
   endloop
 endfacet
 facet normal -7.885007e-01  3.121895e-01  5.299097e-01
   outer loop
     vertex  8.401316e+01  3.533685e+01  5.181911e+01
     vertex  8.258841e+01  3.786026e+01  4.821246e+01
     vertex  8.124716e+01  3.447267e+01  4.821246e+01
   endloop
 endfacet
 facet normal -7.656834e-01  4.209380e-01  4.863539e-01
   outer loop
     vertex  8.401316e+01  3.533685e+01  5.181911e+01
     vertex  8.124716e+01  3.447267e+01  4.821246e+01
     vertex  8.199961e+01  3.167421e+01  5.181911e+01
   endloop
 endfacet
 facet normal -6.618725e-01  7.470997e-01  6.137441e-02
   outer loop
     vertex  8.158339e+01  2.919826e+01  5.581857e+01
     vertex  7.887645e+01  2.645661e+01  6.000000e+01
     vertex  8.216935e+01  2.937386e+01  6.000000e+01
   endloop
 endfacet
 facet normal -6.347113e-01  7.672341e-01  9.215952e-02
   outer loop
     vertex  8.158339e+01  2.919826e+01  5.581857e+01
     vertex  7.811957e+01  2.633273e+01  5.581857e+01
     vertex  7.887645e+01  2.645661e+01  6.000000e+01
   endloop
 endfacet
 facet normal -6.138658e-01  7.420363e-01  2.693527e-01
   outer loop
     vertex  8.158339e+01  2.919826e+01  5.581857e+01
     vertex  7.913846e+01  2.862740e+01  5.181911e+01
     vertex  7.811957e+01  2.633273e+01  5.581857e+01
   endloop
 endfacet
 facet normal -6.884879e-01  6.465332e-01  3.286020e-01
   outer loop
     vertex  8.158339e+01  2.919826e+01  5.581857e+01
     vertex  8.199961e+01  3.167421e+01  5.181911e+01
     vertex  7.913846e+01  2.862740e+01  5.181911e+01
   endloop
 endfacet
 facet normal -8.463111e-01  2.172958e-01  4.863539e-01
   outer loop
     vertex  8.505259e+01  3.938516e+01  5.181911e+01
     vertex  8.258841e+01  3.786026e+01  4.821246e+01
     vertex  8.401316e+01  3.533685e+01  5.181911e+01
   endloop
 endfacet
 facet normal -8.588528e-01  5.403444e-02  5.093645e-01
   outer loop
     vertex  8.505259e+01  3.938516e+01  5.181911e+01
     vertex  8.518407e+01  4.147498e+01  5.181911e+01
     vertex  8.304505e+01  4.147498e+01  4.821246e+01
   endloop
 endfacet
 facet normal -9.520728e-01  5.989935e-02  2.999489e-01
   outer loop
     vertex  8.505259e+01  3.938516e+01  5.181911e+01
     vertex  8.644409e+01  4.147498e+01  5.581857e+01
     vertex  8.518407e+01  4.147498e+01  5.181911e+01
   endloop
 endfacet
 facet normal -8.413669e-01  1.062894e-01  5.299097e-01
   outer loop
     vertex  8.505259e+01  3.938516e+01  5.181911e+01
     vertex  8.304505e+01  4.147498e+01  4.821246e+01
     vertex  8.258841e+01  3.786026e+01  4.821246e+01
   endloop
 endfacet
 facet normal -8.276440e-01  4.550012e-01  3.286020e-01
   outer loop
     vertex  8.422577e+01  3.283517e+01  5.581857e+01
     vertex  8.401316e+01  3.533685e+01  5.181911e+01
     vertex  8.199961e+01  3.167421e+01  5.181911e+01
   endloop
 endfacet
 facet normal -8.212246e-01  5.668504e-01  6.535170e-02
   outer loop
     vertex  8.422577e+01  3.283517e+01  5.581857e+01
     vertex  8.216935e+01  2.937386e+01  6.000000e+01
     vertex  8.466842e+01  3.299439e+01  6.000000e+01
   endloop
 endfacet
 facet normal -8.058542e-01  5.854873e-01  8.833812e-02
   outer loop
     vertex  8.422577e+01  3.283517e+01  5.581857e+01
     vertex  8.158339e+01  2.919826e+01  5.581857e+01
     vertex  8.216935e+01  2.937386e+01  6.000000e+01
   endloop
 endfacet
 facet normal -7.791170e-01  5.660616e-01  2.693527e-01
   outer loop
     vertex  8.422577e+01  3.283517e+01  5.581857e+01
     vertex  8.199961e+01  3.167421e+01  5.181911e+01
     vertex  8.158339e+01  2.919826e+01  5.581857e+01
   endloop
 endfacet
 facet normal -9.554477e-01  1.207011e-01  2.693527e-01
   outer loop
     vertex  8.588066e+01  3.701495e+01  5.581857e+01
     vertex  8.644409e+01  4.147498e+01  5.581857e+01
     vertex  8.505259e+01  3.938516e+01  5.181911e+01
   endloop
 endfacet
 facet normal -9.264817e-01  3.668201e-01  8.411125e-02
   outer loop
     vertex  8.588066e+01  3.701495e+01  5.581857e+01
     vertex  8.422577e+01  3.283517e+01  5.581857e+01
     vertex  8.466842e+01  3.299439e+01  6.000000e+01
   endloop
 endfacet
 facet normal -8.954134e-01  3.545193e-01  2.693527e-01
   outer loop
     vertex  8.588066e+01  3.701495e+01  5.581857e+01
     vertex  8.401316e+01  3.533685e+01  5.181911e+01
     vertex  8.422577e+01  3.283517e+01  5.581857e+01
   endloop
 endfacet
 facet normal -9.889762e-01  1.249368e-01  7.947820e-02
   outer loop
     vertex  8.588066e+01  3.701495e+01  5.581857e+01
     vertex  8.622842e+01  3.710778e+01  6.000000e+01
     vertex  8.644409e+01  4.147498e+01  5.581857e+01
   endloop
 endfacet
 facet normal -9.327409e-01  3.537419e-01  6.972169e-02
   outer loop
     vertex  8.588066e+01  3.701495e+01  5.581857e+01
     vertex  8.466842e+01  3.299439e+01  6.000000e+01
     vertex  8.622842e+01  3.710778e+01  6.000000e+01
   endloop
 endfacet
 facet normal -9.147963e-01  2.348798e-01  3.286020e-01
   outer loop
     vertex  8.588066e+01  3.701495e+01  5.581857e+01
     vertex  8.505259e+01  3.938516e+01  5.181911e+01
     vertex  8.401316e+01  3.533685e+01  5.181911e+01
   endloop
 endfacet
endsolid
