solid 
 facet normal -1.000000e+00  0.000000e+00  0.000000e+00
   outer loop
     vertex  0.000000e+00  0.000000e+00  6.000000e+01
     vertex  0.000000e+00  8.255233e+01  0.000000e+00
     vertex  0.000000e+00  0.000000e+00  0.000000e+00
   endloop
 endfacet
 facet normal -1.000000e+00  0.000000e+00  0.000000e+00
   outer loop
     vertex  0.000000e+00  0.000000e+00  6.000000e+01
     vertex  0.000000e+00  8.255233e+01  6.000000e+01
     vertex  0.000000e+00  8.255233e+01  0.000000e+00
   endloop
 endfacet
 facet normal  0.000000e+00 -1.000000e+00 -0.000000e+00
   outer loop
     vertex  1.427919e+02  0.000000e+00  6.000000e+01
     vertex  0.000000e+00  0.000000e+00  0.000000e+00
     vertex  1.427919e+02  0.000000e+00  0.000000e+00
   endloop
 endfacet
 facet normal -0.000000e+00 -1.000000e+00  0.000000e+00
   outer loop
     vertex  1.427919e+02  0.000000e+00  6.000000e+01
     vertex  0.000000e+00  0.000000e+00  6.000000e+01
     vertex  0.000000e+00  0.000000e+00  0.000000e+00
   endloop
 endfacet
 facet normal  0.000000e+00  0.000000e+00  1.000000e+00
   outer loop
     vertex  7.130437e+01  4.712625e+01  6.000000e+01
     vertex  6.888633e+01  4.926845e+01  6.000000e+01
     vertex  0.000000e+00  0.000000e+00  6.000000e+01
   endloop
 endfacet
 facet normal  0.000000e+00  0.000000e+00  1.000000e+00
   outer loop
     vertex  6.705121e+01  5.192708e+01  6.000000e+01
     vertex  0.000000e+00  0.000000e+00  6.000000e+01
     vertex  6.888633e+01  4.926845e+01  6.000000e+01
   endloop
 endfacet
 facet normal  0.000000e+00  0.000000e+00  1.000000e+00
   outer loop
     vertex  7.416481e+01  4.562497e+01  6.000000e+01
     vertex  7.130437e+01  4.712625e+01  6.000000e+01
     vertex  0.000000e+00  0.000000e+00  6.000000e+01
   endloop
 endfacet
 facet normal  0.000000e+00  0.000000e+00  1.000000e+00
   outer loop
     vertex  6.590567e+01  5.494762e+01  6.000000e+01
     vertex  0.000000e+00  8.255233e+01  6.000000e+01
     vertex  0.000000e+00  0.000000e+00  6.000000e+01
   endloop
 endfacet
 facet normal  0.000000e+00  0.000000e+00  1.000000e+00
   outer loop
     vertex  6.590567e+01  5.494762e+01  6.000000e+01
     vertex  0.000000e+00  0.000000e+00  6.000000e+01
     vertex  6.705121e+01  5.192708e+01  6.000000e+01
   endloop
 endfacet
 facet normal  0.000000e+00  0.000000e+00  1.000000e+00
   outer loop
     vertex  7.730141e+01  4.485187e+01  6.000000e+01
     vertex  7.416481e+01  4.562497e+01  6.000000e+01
     vertex  0.000000e+00  0.000000e+00  6.000000e+01
   endloop
 endfacet
 facet normal  0.000000e+00  0.000000e+00  1.000000e+00
   outer loop
     vertex  6.551628e+01  5.815454e+01  6.000000e+01
     vertex  0.000000e+00  8.255233e+01  6.000000e+01
     vertex  6.590567e+01  5.494762e+01  6.000000e+01
   endloop
 endfacet
 facet normal  0.000000e+00  0.000000e+00  1.000000e+00
   outer loop
     vertex  6.590567e+01  6.136146e+01  6.000000e+01
     vertex  0.000000e+00  8.255233e+01  6.000000e+01
     vertex  6.551628e+01  5.815454e+01  6.000000e+01
   endloop
 endfacet
 facet normal  0.000000e+00  0.000000e+00  1.000000e+00
   outer loop
     vertex  6.705121e+01  6.438200e+01  6.000000e+01
     vertex  0.000000e+00  8.255233e+01  6.000000e+01
     vertex  6.590567e+01  6.136146e+01  6.000000e+01
   endloop
 endfacet
 facet normal  0.000000e+00  0.000000e+00  1.000000e+00
   outer loop
     vertex  6.888633e+01  6.704063e+01  6.000000e+01
     vertex  0.000000e+00  8.255233e+01  6.000000e+01
     vertex  6.705121e+01  6.438200e+01  6.000000e+01
   endloop
 endfacet
 facet normal  0.000000e+00  0.000000e+00  1.000000e+00
   outer loop
     vertex  7.130437e+01  6.918283e+01  6.000000e+01
     vertex  0.000000e+00  8.255233e+01  6.000000e+01
     vertex  6.888633e+01  6.704063e+01  6.000000e+01
   endloop
 endfacet
 facet normal  0.000000e+00  0.000000e+00  1.000000e+00
   outer loop
     vertex  1.427919e+02  0.000000e+00  6.000000e+01
     vertex  8.053188e+01  4.485187e+01  6.000000e+01
     vertex  7.730141e+01  4.485187e+01  6.000000e+01
   endloop
 endfacet
 facet normal  0.000000e+00  0.000000e+00  1.000000e+00
   outer loop
     vertex  1.427919e+02  0.000000e+00  6.000000e+01
     vertex  8.366849e+01  4.562497e+01  6.000000e+01
     vertex  8.053188e+01  4.485187e+01  6.000000e+01
   endloop
 endfacet
 facet normal  0.000000e+00  0.000000e+00  1.000000e+00
   outer loop
     vertex  1.427919e+02  0.000000e+00  6.000000e+01
     vertex  8.652893e+01  4.712625e+01  6.000000e+01
     vertex  8.366849e+01  4.562497e+01  6.000000e+01
   endloop
 endfacet
 facet normal  0.000000e+00  0.000000e+00  1.000000e+00
   outer loop
     vertex  1.427919e+02  0.000000e+00  6.000000e+01
     vertex  8.894697e+01  4.926845e+01  6.000000e+01
     vertex  8.652893e+01  4.712625e+01  6.000000e+01
   endloop
 endfacet
 facet normal  0.000000e+00  0.000000e+00  1.000000e+00
   outer loop
     vertex  1.427919e+02  0.000000e+00  6.000000e+01
     vertex  9.078209e+01  5.192708e+01  6.000000e+01
     vertex  8.894697e+01  4.926845e+01  6.000000e+01
   endloop
 endfacet
 facet normal  0.000000e+00  0.000000e+00  1.000000e+00
   outer loop
     vertex  1.427919e+02  0.000000e+00  6.000000e+01
     vertex  7.730141e+01  4.485187e+01  6.000000e+01
     vertex  0.000000e+00  0.000000e+00  6.000000e+01
   endloop
 endfacet
 facet normal  0.000000e+00  0.000000e+00  1.000000e+00
   outer loop
     vertex  7.416481e+01  7.068410e+01  6.000000e+01
     vertex  0.000000e+00  8.255233e+01  6.000000e+01
     vertex  7.130437e+01  6.918283e+01  6.000000e+01
   endloop
 endfacet
 facet normal  0.000000e+00  0.000000e+00  1.000000e+00
   outer loop
     vertex  9.192763e+01  5.494762e+01  6.000000e+01
     vertex  9.078209e+01  5.192708e+01  6.000000e+01
     vertex  1.427919e+02  0.000000e+00  6.000000e+01
   endloop
 endfacet
 facet normal  1.757261e-15 -4.217941e-15  1.000000e+00
   outer loop
     vertex  1.427919e+02  8.255233e+01  6.000000e+01
     vertex  9.192763e+01  6.136146e+01  6.000000e+01
     vertex  9.231702e+01  5.815454e+01  6.000000e+01
   endloop
 endfacet
 facet normal  0.000000e+00  0.000000e+00  1.000000e+00
   outer loop
     vertex  1.427919e+02  8.255233e+01  6.000000e+01
     vertex  9.078209e+01  6.438200e+01  6.000000e+01
     vertex  9.192763e+01  6.136146e+01  6.000000e+01
   endloop
 endfacet
 facet normal  0.000000e+00  0.000000e+00  1.000000e+00
   outer loop
     vertex  1.427919e+02  8.255233e+01  6.000000e+01
     vertex  8.894697e+01  6.704063e+01  6.000000e+01
     vertex  9.078209e+01  6.438200e+01  6.000000e+01
   endloop
 endfacet
 facet normal  0.000000e+00  0.000000e+00  1.000000e+00
   outer loop
     vertex  1.427919e+02  8.255233e+01  6.000000e+01
     vertex  8.652893e+01  6.918283e+01  6.000000e+01
     vertex  8.894697e+01  6.704063e+01  6.000000e+01
   endloop
 endfacet
 facet normal  0.000000e+00  0.000000e+00  1.000000e+00
   outer loop
     vertex  1.427919e+02  8.255233e+01  6.000000e+01
     vertex  8.366849e+01  7.068410e+01  6.000000e+01
     vertex  8.652893e+01  6.918283e+01  6.000000e+01
   endloop
 endfacet
 facet normal  0.000000e+00  0.000000e+00  1.000000e+00
   outer loop
     vertex  1.427919e+02  8.255233e+01  6.000000e+01
     vertex  8.053188e+01  7.145721e+01  6.000000e+01
     vertex  8.366849e+01  7.068410e+01  6.000000e+01
   endloop
 endfacet
 facet normal -2.574588e-15  4.743923e-15  1.000000e+00
   outer loop
     vertex  1.427919e+02  8.255233e+01  6.000000e+01
     vertex  9.231702e+01  5.815454e+01  6.000000e+01
     vertex  9.192763e+01  5.494762e+01  6.000000e+01
   endloop
 endfacet
 facet normal  0.000000e+00  0.000000e+00  1.000000e+00
   outer loop
     vertex  1.427919e+02  8.255233e+01  6.000000e+01
     vertex  9.192763e+01  5.494762e+01  6.000000e+01
     vertex  1.427919e+02  0.000000e+00  6.000000e+01
   endloop
 endfacet
 facet normal  0.000000e+00  0.000000e+00  1.000000e+00
   outer loop
     vertex  1.427919e+02  8.255233e+01  6.000000e+01
     vertex  0.000000e+00  8.255233e+01  6.000000e+01
     vertex  7.730141e+01  7.145721e+01  6.000000e+01
   endloop
 endfacet
 facet normal  0.000000e+00  0.000000e+00  1.000000e+00
   outer loop
     vertex  7.730141e+01  7.145721e+01  6.000000e+01
     vertex  0.000000e+00  8.255233e+01  6.000000e+01
     vertex  7.416481e+01  7.068410e+01  6.000000e+01
   endloop
 endfacet
 facet normal  0.000000e+00  0.000000e+00  1.000000e+00
   outer loop
     vertex  1.427919e+02  8.255233e+01  6.000000e+01
     vertex  7.730141e+01  7.145721e+01  6.000000e+01
     vertex  8.053188e+01  7.145721e+01  6.000000e+01
   endloop
 endfacet
 facet normal  0.000000e+00  1.000000e+00  0.000000e+00
   outer loop
     vertex  1.427919e+02  8.255233e+01  6.000000e+01
     vertex  1.427919e+02  8.255233e+01  0.000000e+00
     vertex  0.000000e+00  8.255233e+01  0.000000e+00
   endloop
 endfacet
 facet normal  0.000000e+00  1.000000e+00  0.000000e+00
   outer loop
     vertex  1.427919e+02  8.255233e+01  6.000000e+01
     vertex  0.000000e+00  8.255233e+01  0.000000e+00
     vertex  0.000000e+00  8.255233e+01  6.000000e+01
   endloop
 endfacet
 facet normal -0.000000e+00  0.000000e+00 -1.000000e+00
   outer loop
     vertex  1.427919e+02  8.255233e+01  0.000000e+00
     vertex  0.000000e+00  0.000000e+00  0.000000e+00
     vertex  0.000000e+00  8.255233e+01  0.000000e+00
   endloop
 endfacet
 facet normal  0.000000e+00 -0.000000e+00 -1.000000e+00
   outer loop
     vertex  1.427919e+02  8.255233e+01  0.000000e+00
     vertex  1.427919e+02  0.000000e+00  0.000000e+00
     vertex  0.000000e+00  0.000000e+00  0.000000e+00
   endloop
 endfacet
 facet normal  1.000000e+00  0.000000e+00  0.000000e+00
   outer loop
     vertex  1.427919e+02  0.000000e+00  6.000000e+01
     vertex  1.427919e+02  0.000000e+00  0.000000e+00
     vertex  1.427919e+02  8.255233e+01  0.000000e+00
   endloop
 endfacet
 facet normal  1.000000e+00 -0.000000e+00  0.000000e+00
   outer loop
     vertex  1.427919e+02  0.000000e+00  6.000000e+01
     vertex  1.427919e+02  8.255233e+01  0.000000e+00
     vertex  1.427919e+02  8.255233e+01  6.000000e+01
   endloop
 endfacet
 facet normal -9.803831e-01 -1.190401e-01 -1.570940e-01
   outer loop
     vertex  9.192763e+01  6.136146e+01  6.000000e+01
     vertex  9.282384e+01  5.815454e+01  5.683707e+01
     vertex  9.231702e+01  5.815454e+01  6.000000e+01
   endloop
 endfacet
 facet normal -9.803831e-01  1.190401e-01 -1.570940e-01
   outer loop
     vertex  9.231702e+01  5.815454e+01  6.000000e+01
     vertex  9.282384e+01  5.815454e+01  5.683707e+01
     vertex  9.192763e+01  5.494762e+01  6.000000e+01
   endloop
 endfacet
 facet normal -1.141685e-01 -1.240228e-01  9.856895e-01
   outer loop
     vertex  8.250641e+01  5.867067e+01  4.279102e+01
     vertex  7.891665e+01  5.815454e+01  4.231029e+01
     vertex  8.209865e+01  5.815454e+01  4.267885e+01
   endloop
 endfacet
 facet normal -3.383979e-01  6.330163e-02  9.388715e-01
   outer loop
     vertex  8.250641e+01  5.867067e+01  4.279102e+01
     vertex  8.209865e+01  5.815454e+01  4.267885e+01
     vertex  8.511216e+01  5.815454e+01  4.376501e+01
   endloop
 endfacet
 facet normal -1.273552e-01 -3.739487e-02  9.911520e-01
   outer loop
     vertex  8.221559e+01  5.966112e+01  4.279102e+01
     vertex  7.891665e+01  5.815454e+01  4.231029e+01
     vertex  8.250641e+01  5.867067e+01  4.279102e+01
   endloop
 endfacet
 facet normal -1.116611e-01 -7.176024e-02  9.911520e-01
   outer loop
     vertex  8.165751e+01  6.052951e+01  4.279102e+01
     vertex  7.891665e+01  5.815454e+01  4.231029e+01
     vertex  8.221559e+01  5.966112e+01  4.279102e+01
   endloop
 endfacet
 facet normal -5.447055e-01 -4.010445e-02  8.376679e-01
   outer loop
     vertex  8.563585e+01  6.012747e+01  4.420000e+01
     vertex  8.511216e+01  5.815454e+01  4.376501e+01
     vertex  8.779760e+01  5.815454e+01  4.551125e+01
   endloop
 endfacet
 facet normal -3.661240e-01 -1.075037e-01  9.243355e-01
   outer loop
     vertex  8.563585e+01  6.012747e+01  4.420000e+01
     vertex  8.221559e+01  5.966112e+01  4.279102e+01
     vertex  8.250641e+01  5.867067e+01  4.279102e+01
   endloop
 endfacet
 facet normal -3.665723e-01 -1.064833e-01  9.242760e-01
   outer loop
     vertex  8.563585e+01  6.012747e+01  4.420000e+01
     vertex  8.250641e+01  5.867067e+01  4.279102e+01
     vertex  8.511216e+01  5.815454e+01  4.376501e+01
   endloop
 endfacet
 facet normal -8.692085e-02 -1.003120e-01  9.911520e-01
   outer loop
     vertex  8.087738e+01  6.120549e+01  4.279102e+01
     vertex  7.891665e+01  5.815454e+01  4.231029e+01
     vertex  8.165751e+01  6.052951e+01  4.279102e+01
   endloop
 endfacet
 facet normal -3.567370e-01 -1.629163e-01  9.198897e-01
   outer loop
     vertex  8.480783e+01  6.194057e+01  4.420000e+01
     vertex  8.221559e+01  5.966112e+01  4.279102e+01
     vertex  8.563585e+01  6.012747e+01  4.420000e+01
   endloop
 endfacet
 facet normal -3.210062e-01 -2.062981e-01  9.243355e-01
   outer loop
     vertex  8.480783e+01  6.194057e+01  4.420000e+01
     vertex  8.165751e+01  6.052951e+01  4.279102e+01
     vertex  8.221559e+01  5.966112e+01  4.279102e+01
   endloop
 endfacet
 facet normal -7.222859e-01  1.264080e-02  6.914790e-01
   outer loop
     vertex  8.871131e+01  5.956280e+01  4.643993e+01
     vertex  8.779760e+01  5.815454e+01  4.551125e+01
     vertex  9.001277e+01  5.815454e+01  4.782512e+01
   endloop
 endfacet
 facet normal -5.992914e-01 -1.318638e-01  7.895960e-01
   outer loop
     vertex  8.871131e+01  5.956280e+01  4.643993e+01
     vertex  8.563585e+01  6.012747e+01  4.420000e+01
     vertex  8.779760e+01  5.815454e+01  4.551125e+01
   endloop
 endfacet
 facet normal -5.513879e-02 -1.207371e-01  9.911520e-01
   outer loop
     vertex  7.993840e+01  6.163431e+01  4.279102e+01
     vertex  7.891665e+01  5.815454e+01  4.231029e+01
     vertex  8.087738e+01  6.120549e+01  4.279102e+01
   endloop
 endfacet
 facet normal -2.963878e-01 -2.568215e-01  9.198897e-01
   outer loop
     vertex  8.350255e+01  6.344695e+01  4.420000e+01
     vertex  8.165751e+01  6.052951e+01  4.279102e+01
     vertex  8.480783e+01  6.194057e+01  4.420000e+01
   endloop
 endfacet
 facet normal -2.498822e-01 -2.883795e-01  9.243355e-01
   outer loop
     vertex  8.350255e+01  6.344695e+01  4.420000e+01
     vertex  8.087738e+01  6.120549e+01  4.279102e+01
     vertex  8.165751e+01  6.052951e+01  4.279102e+01
   endloop
 endfacet
 facet normal -5.484520e-01 -2.504696e-01  7.977878e-01
   outer loop
     vertex  8.791780e+01  6.226523e+01  4.643993e+01
     vertex  8.480783e+01  6.194057e+01  4.420000e+01
     vertex  8.563585e+01  6.012747e+01  4.420000e+01
   endloop
 endfacet
 facet normal -6.004507e-01 -1.763082e-01  7.799835e-01
   outer loop
     vertex  8.791780e+01  6.226523e+01  4.643993e+01
     vertex  8.563585e+01  6.012747e+01  4.420000e+01
     vertex  8.871131e+01  5.956280e+01  4.643993e+01
   endloop
 endfacet
 facet normal -1.888971e-02 -1.313808e-01  9.911520e-01
   outer loop
     vertex  7.891665e+01  6.178122e+01  4.279102e+01
     vertex  7.891665e+01  5.815454e+01  4.231029e+01
     vertex  7.993840e+01  6.163431e+01  4.279102e+01
   endloop
 endfacet
 facet normal -1.585144e-01 -3.470981e-01  9.243355e-01
   outer loop
     vertex  8.182574e+01  6.452457e+01  4.420000e+01
     vertex  7.993840e+01  6.163431e+01  4.279102e+01
     vertex  8.087738e+01  6.120549e+01  4.279102e+01
   endloop
 endfacet
 facet normal -2.120270e-01 -3.299205e-01  9.198897e-01
   outer loop
     vertex  8.182574e+01  6.452457e+01  4.420000e+01
     vertex  8.087738e+01  6.120549e+01  4.279102e+01
     vertex  8.350255e+01  6.344695e+01  4.420000e+01
   endloop
 endfacet
 facet normal -5.264565e-01 -3.383330e-01  7.799835e-01
   outer loop
     vertex  8.639508e+01  6.463464e+01  4.643993e+01
     vertex  8.480783e+01  6.194057e+01  4.420000e+01
     vertex  8.791780e+01  6.226523e+01  4.643993e+01
   endloop
 endfacet
 facet normal -4.556704e-01 -3.948407e-01  7.977878e-01
   outer loop
     vertex  8.639508e+01  6.463464e+01  4.643993e+01
     vertex  8.350255e+01  6.344695e+01  4.420000e+01
     vertex  8.480783e+01  6.194057e+01  4.420000e+01
   endloop
 endfacet
 facet normal -7.909235e-01 -1.465746e-01  5.941010e-01
   outer loop
     vertex  9.053077e+01  6.156475e+01  4.935608e+01
     vertex  8.871131e+01  5.956280e+01  4.643993e+01
     vertex  9.001277e+01  5.815454e+01  4.782512e+01
   endloop
 endfacet
 facet normal -8.572467e-01 -9.682333e-02  5.057206e-01
   outer loop
     vertex  9.053077e+01  6.156475e+01  4.935608e+01
     vertex  9.001277e+01  5.815454e+01  4.782512e+01
     vertex  9.164038e+01  5.815454e+01  5.058408e+01
   endloop
 endfacet
 facet normal -7.521416e-01 -2.208487e-01  6.208936e-01
   outer loop
     vertex  9.053077e+01  6.156475e+01  4.935608e+01
     vertex  8.791780e+01  6.226523e+01  4.643993e+01
     vertex  8.871131e+01  5.956280e+01  4.643993e+01
   endloop
 endfacet
 facet normal  1.888971e-02 -1.313808e-01  9.911520e-01
   outer loop
     vertex  7.789489e+01  6.163431e+01  4.279102e+01
     vertex  7.891665e+01  5.815454e+01  4.231029e+01
     vertex  7.891665e+01  6.178122e+01  4.279102e+01
   endloop
 endfacet
 facet normal -5.430460e-02 -3.776968e-01  9.243355e-01
   outer loop
     vertex  7.991326e+01  6.508613e+01  4.420000e+01
     vertex  7.891665e+01  6.178122e+01  4.279102e+01
     vertex  7.993840e+01  6.163431e+01  4.279102e+01
   endloop
 endfacet
 facet normal -1.104891e-01 -3.762913e-01  9.198897e-01
   outer loop
     vertex  7.991326e+01  6.508613e+01  4.420000e+01
     vertex  7.993840e+01  6.163431e+01  4.279102e+01
     vertex  8.182574e+01  6.452457e+01  4.420000e+01
   endloop
 endfacet
 facet normal -3.259731e-01 -5.072240e-01  7.977878e-01
   outer loop
     vertex  8.426649e+01  6.647906e+01  4.643993e+01
     vertex  8.182574e+01  6.452457e+01  4.420000e+01
     vertex  8.350255e+01  6.344695e+01  4.420000e+01
   endloop
 endfacet
 facet normal -4.098119e-01 -4.729481e-01  7.799835e-01
   outer loop
     vertex  8.426649e+01  6.647906e+01  4.643993e+01
     vertex  8.350255e+01  6.344695e+01  4.420000e+01
     vertex  8.639508e+01  6.463464e+01  4.643993e+01
   endloop
 endfacet
 facet normal -7.398520e-01 -3.378791e-01  5.817704e-01
   outer loop
     vertex  8.909955e+01  6.469869e+01  4.935608e+01
     vertex  8.791780e+01  6.226523e+01  4.643993e+01
     vertex  9.053077e+01  6.156475e+01  4.935608e+01
   endloop
 endfacet
 facet normal -6.594543e-01 -4.238056e-01  6.208936e-01
   outer loop
     vertex  8.909955e+01  6.469869e+01  4.935608e+01
     vertex  8.639508e+01  6.463464e+01  4.643993e+01
     vertex  8.791780e+01  6.226523e+01  4.643993e+01
   endloop
 endfacet
 facet normal -9.542363e-01 -2.892715e-02  2.976514e-01
   outer loop
     vertex  9.225693e+01  6.007258e+01  5.274705e+01
     vertex  9.164038e+01  5.815454e+01  5.058408e+01
     vertex  9.259424e+01  5.815454e+01  5.364204e+01
   endloop
 endfacet
 facet normal -9.062816e-01 -1.530048e-01  3.940093e-01
   outer loop
     vertex  9.225693e+01  6.007258e+01  5.274705e+01
     vertex  9.053077e+01  6.156475e+01  4.935608e+01
     vertex  9.164038e+01  5.815454e+01  5.058408e+01
   endloop
 endfacet
 facet normal  5.513879e-02 -1.207371e-01  9.911520e-01
   outer loop
     vertex  7.695592e+01  6.120549e+01  4.279102e+01
     vertex  7.891665e+01  5.815454e+01  4.231029e+01
     vertex  7.789489e+01  6.163431e+01  4.279102e+01
   endloop
 endfacet
 facet normal  5.430460e-02 -3.776968e-01  9.243355e-01
   outer loop
     vertex  7.792004e+01  6.508613e+01  4.420000e+01
     vertex  7.789489e+01  6.163431e+01  4.279102e+01
     vertex  7.891665e+01  6.178122e+01  4.279102e+01
   endloop
 endfacet
 facet normal  0.000000e+00 -3.921772e-01  9.198897e-01
   outer loop
     vertex  7.792004e+01  6.508613e+01  4.420000e+01
     vertex  7.891665e+01  6.178122e+01  4.279102e+01
     vertex  7.991326e+01  6.508613e+01  4.420000e+01
   endloop
 endfacet
 facet normal -2.599667e-01 -5.692477e-01  7.799835e-01
   outer loop
     vertex  8.170450e+01  6.764909e+01  4.643993e+01
     vertex  8.182574e+01  6.452457e+01  4.420000e+01
     vertex  8.426649e+01  6.647906e+01  4.643993e+01
   endloop
 endfacet
 facet normal -1.698674e-01 -5.785151e-01  7.977878e-01
   outer loop
     vertex  8.170450e+01  6.764909e+01  4.643993e+01
     vertex  7.991326e+01  6.508613e+01  4.420000e+01
     vertex  8.182574e+01  6.452457e+01  4.420000e+01
   endloop
 endfacet
 facet normal -5.133420e-01 -5.924282e-01  6.208936e-01
   outer loop
     vertex  8.684337e+01  6.730246e+01  4.935608e+01
     vertex  8.426649e+01  6.647906e+01  4.643993e+01
     vertex  8.639508e+01  6.463464e+01  4.643993e+01
   endloop
 endfacet
 facet normal -6.146913e-01 -5.326330e-01  5.817704e-01
   outer loop
     vertex  8.684337e+01  6.730246e+01  4.935608e+01
     vertex  8.639508e+01  6.463464e+01  4.643993e+01
     vertex  8.909955e+01  6.469869e+01  4.935608e+01
   endloop
 endfacet
 facet normal -9.014892e-01 -2.647011e-01  3.424186e-01
   outer loop
     vertex  9.117618e+01  6.375328e+01  5.274705e+01
     vertex  9.053077e+01  6.156475e+01  4.935608e+01
     vertex  9.225693e+01  6.007258e+01  5.274705e+01
   endloop
 endfacet
 facet normal -8.322193e-01 -3.800618e-01  4.036879e-01
   outer loop
     vertex  9.117618e+01  6.375328e+01  5.274705e+01
     vertex  8.909955e+01  6.469869e+01  4.935608e+01
     vertex  9.053077e+01  6.156475e+01  4.935608e+01
   endloop
 endfacet
 facet normal  8.692085e-02 -1.003120e-01  9.911520e-01
   outer loop
     vertex  7.617579e+01  6.052951e+01  4.279102e+01
     vertex  7.891665e+01  5.815454e+01  4.231029e+01
     vertex  7.695592e+01  6.120549e+01  4.279102e+01
   endloop
 endfacet
 facet normal  1.585144e-01 -3.470981e-01  9.243355e-01
   outer loop
     vertex  7.600755e+01  6.452457e+01  4.420000e+01
     vertex  7.695592e+01  6.120549e+01  4.279102e+01
     vertex  7.789489e+01  6.163431e+01  4.279102e+01
   endloop
 endfacet
 facet normal  1.104891e-01 -3.762913e-01  9.198897e-01
   outer loop
     vertex  7.600755e+01  6.452457e+01  4.420000e+01
     vertex  7.789489e+01  6.163431e+01  4.279102e+01
     vertex  7.792004e+01  6.508613e+01  4.420000e+01
   endloop
 endfacet
 facet normal -8.906063e-02 -6.194303e-01  7.799835e-01
   outer loop
     vertex  7.891665e+01  6.804992e+01  4.643993e+01
     vertex  7.991326e+01  6.508613e+01  4.420000e+01
     vertex  8.170450e+01  6.764909e+01  4.643993e+01
   endloop
 endfacet
 facet normal  0.000000e+00 -6.029384e-01  7.977878e-01
   outer loop
     vertex  7.891665e+01  6.804992e+01  4.643993e+01
     vertex  7.792004e+01  6.508613e+01  4.420000e+01
     vertex  7.991326e+01  6.508613e+01  4.420000e+01
   endloop
 endfacet
 facet normal -3.256417e-01 -7.130559e-01  6.208936e-01
   outer loop
     vertex  8.394501e+01  6.916512e+01  4.935608e+01
     vertex  8.170450e+01  6.764909e+01  4.643993e+01
     vertex  8.426649e+01  6.647906e+01  4.643993e+01
   endloop
 endfacet
 facet normal -4.397319e-01 -6.842362e-01  5.817704e-01
   outer loop
     vertex  8.394501e+01  6.916512e+01  4.935608e+01
     vertex  8.426649e+01  6.647906e+01  4.643993e+01
     vertex  8.684337e+01  6.730246e+01  4.935608e+01
   endloop
 endfacet
 facet normal -6.914328e-01 -5.991299e-01  4.036879e-01
   outer loop
     vertex  8.910223e+01  6.698040e+01  5.274705e+01
     vertex  8.684337e+01  6.730246e+01  4.935608e+01
     vertex  8.909955e+01  6.469869e+01  4.935608e+01
   endloop
 endfacet
 facet normal -7.903976e-01 -5.079577e-01  3.424186e-01
   outer loop
     vertex  8.910223e+01  6.698040e+01  5.274705e+01
     vertex  8.909955e+01  6.469869e+01  4.935608e+01
     vertex  9.117618e+01  6.375328e+01  5.274705e+01
   endloop
 endfacet
 facet normal -9.234157e-01 -3.502054e-01 -1.570339e-01
   outer loop
     vertex  9.227242e+01  6.207615e+01  5.637864e+01
     vertex  9.192763e+01  6.136146e+01  6.000000e+01
     vertex  9.078209e+01  6.438200e+01  6.000000e+01
   endloop
 endfacet
 facet normal -9.475120e-01 -2.782146e-01  1.575361e-01
   outer loop
     vertex  9.227242e+01  6.207615e+01  5.637864e+01
     vertex  9.117618e+01  6.375328e+01  5.274705e+01
     vertex  9.225693e+01  6.007258e+01  5.274705e+01
   endloop
 endfacet
 facet normal -9.888671e-01 -1.307369e-01  7.106102e-02
   outer loop
     vertex  9.227242e+01  6.207615e+01  5.637864e+01
     vertex  9.259424e+01  5.815454e+01  5.364204e+01
     vertex  9.282384e+01  5.815454e+01  5.683707e+01
   endloop
 endfacet
 facet normal -9.874362e-01 -1.365382e-01  7.954262e-02
   outer loop
     vertex  9.227242e+01  6.207615e+01  5.637864e+01
     vertex  9.225693e+01  6.007258e+01  5.274705e+01
     vertex  9.259424e+01  5.815454e+01  5.364204e+01
   endloop
 endfacet
 facet normal -9.805961e-01 -1.523091e-01 -1.234225e-01
   outer loop
     vertex  9.227242e+01  6.207615e+01  5.637864e+01
     vertex  9.282384e+01  5.815454e+01  5.683707e+01
     vertex  9.192763e+01  6.136146e+01  6.000000e+01
   endloop
 endfacet
 facet normal  1.116611e-01 -7.176024e-02  9.911520e-01
   outer loop
     vertex  7.561771e+01  5.966112e+01  4.279102e+01
     vertex  7.891665e+01  5.815454e+01  4.231029e+01
     vertex  7.617579e+01  6.052951e+01  4.279102e+01
   endloop
 endfacet
 facet normal  2.498822e-01 -2.883795e-01  9.243355e-01
   outer loop
     vertex  7.433075e+01  6.344695e+01  4.420000e+01
     vertex  7.617579e+01  6.052951e+01  4.279102e+01
     vertex  7.695592e+01  6.120549e+01  4.279102e+01
   endloop
 endfacet
 facet normal  2.120270e-01 -3.299205e-01  9.198897e-01
   outer loop
     vertex  7.433075e+01  6.344695e+01  4.420000e+01
     vertex  7.695592e+01  6.120549e+01  4.279102e+01
     vertex  7.600755e+01  6.452457e+01  4.420000e+01
   endloop
 endfacet
 facet normal  1.698674e-01 -5.785151e-01  7.977878e-01
   outer loop
     vertex  7.612880e+01  6.764909e+01  4.643993e+01
     vertex  7.600755e+01  6.452457e+01  4.420000e+01
     vertex  7.792004e+01  6.508613e+01  4.420000e+01
   endloop
 endfacet
 facet normal  8.906063e-02 -6.194303e-01  7.799835e-01
   outer loop
     vertex  7.612880e+01  6.764909e+01  4.643993e+01
     vertex  7.792004e+01  6.508613e+01  4.420000e+01
     vertex  7.891665e+01  6.804992e+01  4.643993e+01
   endloop
 endfacet
 facet normal -2.291480e-01 -7.804066e-01  5.817704e-01
   outer loop
     vertex  8.063929e+01  7.013577e+01  4.935608e+01
     vertex  8.170450e+01  6.764909e+01  4.643993e+01
     vertex  8.394501e+01  6.916512e+01  4.935608e+01
   endloop
 endfacet
 facet normal -1.115599e-01 -7.759160e-01  6.208936e-01
   outer loop
     vertex  8.063929e+01  7.013577e+01  4.935608e+01
     vertex  7.891665e+01  6.804992e+01  4.643993e+01
     vertex  8.170450e+01  6.764909e+01  4.643993e+01
   endloop
 endfacet
 facet normal -4.946305e-01 -7.696601e-01  4.036879e-01
   outer loop
     vertex  8.620311e+01  6.949250e+01  5.274705e+01
     vertex  8.394501e+01  6.916512e+01  4.935608e+01
     vertex  8.684337e+01  6.730246e+01  4.935608e+01
   endloop
 endfacet
 facet normal -6.152728e-01 -7.100626e-01  3.424186e-01
   outer loop
     vertex  8.620311e+01  6.949250e+01  5.274705e+01
     vertex  8.684337e+01  6.730246e+01  4.935608e+01
     vertex  8.910223e+01  6.698040e+01  5.274705e+01
   endloop
 endfacet
 facet normal -8.115733e-01 -5.601886e-01 -1.659440e-01
   outer loop
     vertex  9.062658e+01  6.568005e+01  5.637864e+01
     vertex  9.078209e+01  6.438200e+01  6.000000e+01
     vertex  8.894697e+01  6.704063e+01  6.000000e+01
   endloop
 endfacet
 facet normal -9.065343e-01 -4.140003e-01  8.245805e-02
   outer loop
     vertex  9.062658e+01  6.568005e+01  5.637864e+01
     vertex  9.117618e+01  6.375328e+01  5.274705e+01
     vertex  9.227242e+01  6.207615e+01  5.637864e+01
   endloop
 endfacet
 facet normal -8.307490e-01 -5.338900e-01  1.575361e-01
   outer loop
     vertex  9.062658e+01  6.568005e+01  5.637864e+01
     vertex  8.910223e+01  6.698040e+01  5.274705e+01
     vertex  9.117618e+01  6.375328e+01  5.274705e+01
   endloop
 endfacet
 facet normal -9.041939e-01 -4.129315e-01 -1.091834e-01
   outer loop
     vertex  9.062658e+01  6.568005e+01  5.637864e+01
     vertex  9.227242e+01  6.207615e+01  5.637864e+01
     vertex  9.078209e+01  6.438200e+01  6.000000e+01
   endloop
 endfacet
 facet normal  1.273552e-01 -3.739487e-02  9.911520e-01
   outer loop
     vertex  7.532688e+01  5.867067e+01  4.279102e+01
     vertex  7.891665e+01  5.815454e+01  4.231029e+01
     vertex  7.561771e+01  5.966112e+01  4.279102e+01
   endloop
 endfacet
 facet normal  3.210062e-01 -2.062981e-01  9.243355e-01
   outer loop
     vertex  7.302546e+01  6.194057e+01  4.420000e+01
     vertex  7.561771e+01  5.966112e+01  4.279102e+01
     vertex  7.617579e+01  6.052951e+01  4.279102e+01
   endloop
 endfacet
 facet normal  2.963878e-01 -2.568215e-01  9.198897e-01
   outer loop
     vertex  7.302546e+01  6.194057e+01  4.420000e+01
     vertex  7.617579e+01  6.052951e+01  4.279102e+01
     vertex  7.433075e+01  6.344695e+01  4.420000e+01
   endloop
 endfacet
 facet normal  2.599667e-01 -5.692477e-01  7.799835e-01
   outer loop
     vertex  7.356680e+01  6.647906e+01  4.643993e+01
     vertex  7.600755e+01  6.452457e+01  4.420000e+01
     vertex  7.612880e+01  6.764909e+01  4.643993e+01
   endloop
 endfacet
 facet normal  3.259731e-01 -5.072240e-01  7.977878e-01
   outer loop
     vertex  7.356680e+01  6.647906e+01  4.643993e+01
     vertex  7.433075e+01  6.344695e+01  4.420000e+01
     vertex  7.600755e+01  6.452457e+01  4.420000e+01
   endloop
 endfacet
 facet normal  1.115599e-01 -7.759160e-01  6.208936e-01
   outer loop
     vertex  7.719401e+01  7.013577e+01  4.935608e+01
     vertex  7.612880e+01  6.764909e+01  4.643993e+01
     vertex  7.891665e+01  6.804992e+01  4.643993e+01
   endloop
 endfacet
 facet normal  0.000000e+00 -8.133531e-01  5.817704e-01
   outer loop
     vertex  7.719401e+01  7.013577e+01  4.935608e+01
     vertex  7.891665e+01  6.804992e+01  4.643993e+01
     vertex  8.063929e+01  7.013577e+01  4.935608e+01
   endloop
 endfacet
 facet normal -2.577562e-01 -8.778370e-01  4.036879e-01
   outer loop
     vertex  8.271369e+01  7.108607e+01  5.274705e+01
     vertex  8.063929e+01  7.013577e+01  4.935608e+01
     vertex  8.394501e+01  6.916512e+01  4.935608e+01
   endloop
 endfacet
 facet normal -3.903021e-01 -8.546425e-01  3.424186e-01
   outer loop
     vertex  8.271369e+01  7.108607e+01  5.274705e+01
     vertex  8.394501e+01  6.916512e+01  4.935608e+01
     vertex  8.620311e+01  6.949250e+01  5.274705e+01
   endloop
 endfacet
 facet normal -6.537291e-01 -7.379076e-01 -1.677221e-01
   outer loop
     vertex  8.803206e+01  6.867428e+01  5.637864e+01
     vertex  8.894697e+01  6.704063e+01  6.000000e+01
     vertex  8.652893e+01  6.918283e+01  6.000000e+01
   endloop
 endfacet
 facet normal -6.466836e-01 -7.463127e-01  1.575361e-01
   outer loop
     vertex  8.803206e+01  6.867428e+01  5.637864e+01
     vertex  8.620311e+01  6.949250e+01  5.274705e+01
     vertex  8.910223e+01  6.698040e+01  5.274705e+01
   endloop
 endfacet
 facet normal -7.516579e-01 -6.513152e-01 -1.039179e-01
   outer loop
     vertex  8.803206e+01  6.867428e+01  5.637864e+01
     vertex  9.062658e+01  6.568005e+01  5.637864e+01
     vertex  8.894697e+01  6.704063e+01  6.000000e+01
   endloop
 endfacet
 facet normal -7.531759e-01 -6.526306e-01  8.245805e-02
   outer loop
     vertex  8.803206e+01  6.867428e+01  5.637864e+01
     vertex  8.910223e+01  6.698040e+01  5.274705e+01
     vertex  9.062658e+01  6.568005e+01  5.637864e+01
   endloop
 endfacet
 facet normal  0.000000e+00  0.000000e+00  0.000000e+00
   outer loop
     vertex  7.532688e+01  5.763841e+01  4.279102e+01
     vertex  7.891665e+01  5.815454e+01  4.231029e+01
     vertex  7.891665e+01  5.815454e+01  4.231029e+01
   endloop
 endfacet
 facet normal  1.327318e-01 -0.000000e+00  9.911520e-01
   outer loop
     vertex  7.532688e+01  5.763841e+01  4.279102e+01
     vertex  7.891665e+01  5.815454e+01  4.231029e+01
     vertex  7.532688e+01  5.867067e+01  4.279102e+01
   endloop
 endfacet
 facet normal  3.661240e-01 -1.075037e-01  9.243355e-01
   outer loop
     vertex  7.219745e+01  6.012747e+01  4.420000e+01
     vertex  7.532688e+01  5.867067e+01  4.279102e+01
     vertex  7.561771e+01  5.966112e+01  4.279102e+01
   endloop
 endfacet
 facet normal  3.567370e-01 -1.629163e-01  9.198897e-01
   outer loop
     vertex  7.219745e+01  6.012747e+01  4.420000e+01
     vertex  7.561771e+01  5.966112e+01  4.279102e+01
     vertex  7.302546e+01  6.194057e+01  4.420000e+01
   endloop
 endfacet
 facet normal  4.556704e-01 -3.948407e-01  7.977878e-01
   outer loop
     vertex  7.143822e+01  6.463464e+01  4.643993e+01
     vertex  7.302546e+01  6.194057e+01  4.420000e+01
     vertex  7.433075e+01  6.344695e+01  4.420000e+01
   endloop
 endfacet
 facet normal  4.098119e-01 -4.729481e-01  7.799835e-01
   outer loop
     vertex  7.143822e+01  6.463464e+01  4.643993e+01
     vertex  7.433075e+01  6.344695e+01  4.420000e+01
     vertex  7.356680e+01  6.647906e+01  4.643993e+01
   endloop
 endfacet
 facet normal  2.291480e-01 -7.804066e-01  5.817704e-01
   outer loop
     vertex  7.388828e+01  6.916512e+01  4.935608e+01
     vertex  7.612880e+01  6.764909e+01  4.643993e+01
     vertex  7.719401e+01  7.013577e+01  4.935608e+01
   endloop
 endfacet
 facet normal  3.256417e-01 -7.130559e-01  6.208936e-01
   outer loop
     vertex  7.388828e+01  6.916512e+01  4.935608e+01
     vertex  7.356680e+01  6.647906e+01  4.643993e+01
     vertex  7.612880e+01  6.764909e+01  4.643993e+01
   endloop
 endfacet
 facet normal  0.000000e+00 -9.148967e-01  4.036879e-01
   outer loop
     vertex  7.891665e+01  7.163200e+01  5.274705e+01
     vertex  7.719401e+01  7.013577e+01  4.935608e+01
     vertex  8.063929e+01  7.013577e+01  4.935608e+01
   endloop
 endfacet
 facet normal -1.337115e-01 -9.299842e-01  3.424186e-01
   outer loop
     vertex  7.891665e+01  7.163200e+01  5.274705e+01
     vertex  8.063929e+01  7.013577e+01  4.935608e+01
     vertex  8.271369e+01  7.108607e+01  5.274705e+01
   endloop
 endfacet
 facet normal -4.102278e-01 -8.982736e-01  1.575361e-01
   outer loop
     vertex  8.469907e+01  7.081627e+01  5.637864e+01
     vertex  8.271369e+01  7.108607e+01  5.274705e+01
     vertex  8.620311e+01  6.949250e+01  5.274705e+01
   endloop
 endfacet
 facet normal -4.585552e-01 -8.737040e-01 -1.623839e-01
   outer loop
     vertex  8.469907e+01  7.081627e+01  5.637864e+01
     vertex  8.652893e+01  6.918283e+01  6.000000e+01
     vertex  8.366849e+01  7.068410e+01  6.000000e+01
   endloop
 endfacet
 facet normal -5.376137e-01 -8.365432e-01 -1.056743e-01
   outer loop
     vertex  8.469907e+01  7.081627e+01  5.637864e+01
     vertex  8.803206e+01  6.867428e+01  5.637864e+01
     vertex  8.652893e+01  6.918283e+01  6.000000e+01
   endloop
 endfacet
 facet normal -5.387997e-01 -8.383887e-01  8.245805e-02
   outer loop
     vertex  8.469907e+01  7.081627e+01  5.637864e+01
     vertex  8.620311e+01  6.949250e+01  5.274705e+01
     vertex  8.803206e+01  6.867428e+01  5.637864e+01
   endloop
 endfacet
 facet normal  1.273552e-01  3.739487e-02  9.911520e-01
   outer loop
     vertex  7.561771e+01  5.664796e+01  4.279102e+01
     vertex  7.891665e+01  5.815454e+01  4.231029e+01
     vertex  7.532688e+01  5.763841e+01  4.279102e+01
   endloop
 endfacet
 facet normal  3.815807e-01  0.000000e+00  9.243355e-01
   outer loop
     vertex  7.191378e+01  5.815454e+01  4.420000e+01
     vertex  7.532688e+01  5.763841e+01  4.279102e+01
     vertex  7.532688e+01  5.867067e+01  4.279102e+01
   endloop
 endfacet
 facet normal  3.881854e-01 -5.581264e-02  9.198897e-01
   outer loop
     vertex  7.191378e+01  5.815454e+01  4.420000e+01
     vertex  7.532688e+01  5.867067e+01  4.279102e+01
     vertex  7.219745e+01  6.012747e+01  4.420000e+01
   endloop
 endfacet
 facet normal  5.484520e-01 -2.504696e-01  7.977878e-01
   outer loop
     vertex  6.991549e+01  6.226523e+01  4.643993e+01
     vertex  7.219745e+01  6.012747e+01  4.420000e+01
     vertex  7.302546e+01  6.194057e+01  4.420000e+01
   endloop
 endfacet
 facet normal  5.264565e-01 -3.383330e-01  7.799835e-01
   outer loop
     vertex  6.991549e+01  6.226523e+01  4.643993e+01
     vertex  7.302546e+01  6.194057e+01  4.420000e+01
     vertex  7.143822e+01  6.463464e+01  4.643993e+01
   endloop
 endfacet
 facet normal  5.133420e-01 -5.924282e-01  6.208936e-01
   outer loop
     vertex  7.098993e+01  6.730246e+01  4.935608e+01
     vertex  7.143822e+01  6.463464e+01  4.643993e+01
     vertex  7.356680e+01  6.647906e+01  4.643993e+01
   endloop
 endfacet
 facet normal  4.397319e-01 -6.842362e-01  5.817704e-01
   outer loop
     vertex  7.098993e+01  6.730246e+01  4.935608e+01
     vertex  7.356680e+01  6.647906e+01  4.643993e+01
     vertex  7.388828e+01  6.916512e+01  4.935608e+01
   endloop
 endfacet
 facet normal  2.577562e-01 -8.778370e-01  4.036879e-01
   outer loop
     vertex  7.511961e+01  7.108607e+01  5.274705e+01
     vertex  7.388828e+01  6.916512e+01  4.935608e+01
     vertex  7.719401e+01  7.013577e+01  4.935608e+01
   endloop
 endfacet
 facet normal  1.337115e-01 -9.299842e-01  3.424186e-01
   outer loop
     vertex  7.511961e+01  7.108607e+01  5.274705e+01
     vertex  7.719401e+01  7.013577e+01  4.935608e+01
     vertex  7.891665e+01  7.163200e+01  5.274705e+01
   endloop
 endfacet
 facet normal -2.366123e-01 -9.599738e-01 -1.498833e-01
   outer loop
     vertex  8.089762e+01  7.193247e+01  5.637864e+01
     vertex  8.366849e+01  7.068410e+01  6.000000e+01
     vertex  8.053188e+01  7.145721e+01  6.000000e+01
   endloop
 endfacet
 facet normal -1.405378e-01 -9.774618e-01  1.575361e-01
   outer loop
     vertex  8.089762e+01  7.193247e+01  5.637864e+01
     vertex  7.891665e+01  7.163200e+01  5.274705e+01
     vertex  8.271369e+01  7.108607e+01  5.274705e+01
   endloop
 endfacet
 facet normal -2.798817e-01 -9.531896e-01 -1.144372e-01
   outer loop
     vertex  8.089762e+01  7.193247e+01  5.637864e+01
     vertex  8.469907e+01  7.081627e+01  5.637864e+01
     vertex  8.366849e+01  7.068410e+01  6.000000e+01
   endloop
 endfacet
 facet normal -2.807731e-01 -9.562255e-01  8.245805e-02
   outer loop
     vertex  8.089762e+01  7.193247e+01  5.637864e+01
     vertex  8.271369e+01  7.108607e+01  5.274705e+01
     vertex  8.469907e+01  7.081627e+01  5.637864e+01
   endloop
 endfacet
 facet normal  1.116611e-01  7.176024e-02  9.911520e-01
   outer loop
     vertex  7.617579e+01  5.577957e+01  4.279102e+01
     vertex  7.891665e+01  5.815454e+01  4.231029e+01
     vertex  7.561771e+01  5.664796e+01  4.279102e+01
   endloop
 endfacet
 facet normal  3.881854e-01  5.581264e-02  9.198897e-01
   outer loop
     vertex  7.219745e+01  5.618160e+01  4.420000e+01
     vertex  7.532688e+01  5.763841e+01  4.279102e+01
     vertex  7.191378e+01  5.815454e+01  4.420000e+01
   endloop
 endfacet
 facet normal  3.661240e-01  1.075037e-01  9.243355e-01
   outer loop
     vertex  7.219745e+01  5.618160e+01  4.420000e+01
     vertex  7.561771e+01  5.664796e+01  4.279102e+01
     vertex  7.532688e+01  5.763841e+01  4.279102e+01
   endloop
 endfacet
 facet normal  5.968013e-01 -8.580707e-02  7.977878e-01
   outer loop
     vertex  6.912199e+01  5.956280e+01  4.643993e+01
     vertex  7.191378e+01  5.815454e+01  4.420000e+01
     vertex  7.219745e+01  6.012747e+01  4.420000e+01
   endloop
 endfacet
 facet normal  6.004507e-01 -1.763082e-01  7.799835e-01
   outer loop
     vertex  6.912199e+01  5.956280e+01  4.643993e+01
     vertex  7.219745e+01  6.012747e+01  4.420000e+01
     vertex  6.991549e+01  6.226523e+01  4.643993e+01
   endloop
 endfacet
 facet normal  6.594543e-01 -4.238056e-01  6.208936e-01
   outer loop
     vertex  6.873375e+01  6.469869e+01  4.935608e+01
     vertex  6.991549e+01  6.226523e+01  4.643993e+01
     vertex  7.143822e+01  6.463464e+01  4.643993e+01
   endloop
 endfacet
 facet normal  6.146913e-01 -5.326330e-01  5.817704e-01
   outer loop
     vertex  6.873375e+01  6.469869e+01  4.935608e+01
     vertex  7.143822e+01  6.463464e+01  4.643993e+01
     vertex  7.098993e+01  6.730246e+01  4.935608e+01
   endloop
 endfacet
 facet normal  4.946305e-01 -7.696601e-01  4.036879e-01
   outer loop
     vertex  7.163018e+01  6.949250e+01  5.274705e+01
     vertex  7.098993e+01  6.730246e+01  4.935608e+01
     vertex  7.388828e+01  6.916512e+01  4.935608e+01
   endloop
 endfacet
 facet normal  3.903021e-01 -8.546425e-01  3.424186e-01
   outer loop
     vertex  7.163018e+01  6.949250e+01  5.274705e+01
     vertex  7.388828e+01  6.916512e+01  4.935608e+01
     vertex  7.511961e+01  7.108607e+01  5.274705e+01
   endloop
 endfacet
 facet normal  0.000000e+00 -9.914977e-01 -1.301243e-01
   outer loop
     vertex  7.693568e+01  7.193247e+01  5.637864e+01
     vertex  8.089762e+01  7.193247e+01  5.637864e+01
     vertex  8.053188e+01  7.145721e+01  6.000000e+01
   endloop
 endfacet
 facet normal  0.000000e+00 -9.914977e-01 -1.301243e-01
   outer loop
     vertex  7.693568e+01  7.193247e+01  5.637864e+01
     vertex  8.053188e+01  7.145721e+01  6.000000e+01
     vertex  7.730141e+01  7.145721e+01  6.000000e+01
   endloop
 endfacet
 facet normal  2.366123e-01 -9.599738e-01 -1.498833e-01
   outer loop
     vertex  7.693568e+01  7.193247e+01  5.637864e+01
     vertex  7.730141e+01  7.145721e+01  6.000000e+01
     vertex  7.416481e+01  7.068410e+01  6.000000e+01
   endloop
 endfacet
 facet normal  1.405378e-01 -9.774618e-01  1.575361e-01
   outer loop
     vertex  7.693568e+01  7.193247e+01  5.637864e+01
     vertex  7.511961e+01  7.108607e+01  5.274705e+01
     vertex  7.891665e+01  7.163200e+01  5.274705e+01
   endloop
 endfacet
 facet normal  0.000000e+00 -9.965945e-01  8.245805e-02
   outer loop
     vertex  7.693568e+01  7.193247e+01  5.637864e+01
     vertex  7.891665e+01  7.163200e+01  5.274705e+01
     vertex  8.089762e+01  7.193247e+01  5.637864e+01
   endloop
 endfacet
 facet normal  8.692085e-02  1.003120e-01  9.911520e-01
   outer loop
     vertex  7.695592e+01  5.510358e+01  4.279102e+01
     vertex  7.891665e+01  5.815454e+01  4.231029e+01
     vertex  7.617579e+01  5.577957e+01  4.279102e+01
   endloop
 endfacet
 facet normal  3.210062e-01  2.062981e-01  9.243355e-01
   outer loop
     vertex  7.302546e+01  5.436850e+01  4.420000e+01
     vertex  7.617579e+01  5.577957e+01  4.279102e+01
     vertex  7.561771e+01  5.664796e+01  4.279102e+01
   endloop
 endfacet
 facet normal  3.567370e-01  1.629163e-01  9.198897e-01
   outer loop
     vertex  7.302546e+01  5.436850e+01  4.420000e+01
     vertex  7.561771e+01  5.664796e+01  4.279102e+01
     vertex  7.219745e+01  5.618160e+01  4.420000e+01
   endloop
 endfacet
 facet normal  5.968013e-01  8.580707e-02  7.977878e-01
   outer loop
     vertex  6.912199e+01  5.674628e+01  4.643993e+01
     vertex  7.219745e+01  5.618160e+01  4.420000e+01
     vertex  7.191378e+01  5.815454e+01  4.420000e+01
   endloop
 endfacet
 facet normal  6.258000e-01 -0.000000e+00  7.799835e-01
   outer loop
     vertex  6.912199e+01  5.674628e+01  4.643993e+01
     vertex  7.191378e+01  5.815454e+01  4.420000e+01
     vertex  6.912199e+01  5.956280e+01  4.643993e+01
   endloop
 endfacet
 facet normal  7.398520e-01 -3.378791e-01  5.817704e-01
   outer loop
     vertex  6.730253e+01  6.156475e+01  4.935608e+01
     vertex  6.991549e+01  6.226523e+01  4.643993e+01
     vertex  6.873375e+01  6.469869e+01  4.935608e+01
   endloop
 endfacet
 facet normal  7.521416e-01 -2.208487e-01  6.208936e-01
   outer loop
     vertex  6.730253e+01  6.156475e+01  4.935608e+01
     vertex  6.912199e+01  5.956280e+01  4.643993e+01
     vertex  6.991549e+01  6.226523e+01  4.643993e+01
   endloop
 endfacet
 facet normal  6.914328e-01 -5.991299e-01  4.036879e-01
   outer loop
     vertex  6.873106e+01  6.698040e+01  5.274705e+01
     vertex  6.873375e+01  6.469869e+01  4.935608e+01
     vertex  7.098993e+01  6.730246e+01  4.935608e+01
   endloop
 endfacet
 facet normal  6.152728e-01 -7.100626e-01  3.424186e-01
   outer loop
     vertex  6.873106e+01  6.698040e+01  5.274705e+01
     vertex  7.098993e+01  6.730246e+01  4.935608e+01
     vertex  7.163018e+01  6.949250e+01  5.274705e+01
   endloop
 endfacet
 facet normal  4.585552e-01 -8.737040e-01 -1.623839e-01
   outer loop
     vertex  7.313423e+01  7.081627e+01  5.637864e+01
     vertex  7.416481e+01  7.068410e+01  6.000000e+01
     vertex  7.130437e+01  6.918283e+01  6.000000e+01
   endloop
 endfacet
 facet normal  4.102278e-01 -8.982736e-01  1.575361e-01
   outer loop
     vertex  7.313423e+01  7.081627e+01  5.637864e+01
     vertex  7.163018e+01  6.949250e+01  5.274705e+01
     vertex  7.511961e+01  7.108607e+01  5.274705e+01
   endloop
 endfacet
 facet normal  2.807731e-01 -9.562255e-01  8.245805e-02
   outer loop
     vertex  7.313423e+01  7.081627e+01  5.637864e+01
     vertex  7.511961e+01  7.108607e+01  5.274705e+01
     vertex  7.693568e+01  7.193247e+01  5.637864e+01
   endloop
 endfacet
 facet normal  2.798817e-01 -9.531896e-01 -1.144372e-01
   outer loop
     vertex  7.313423e+01  7.081627e+01  5.637864e+01
     vertex  7.693568e+01  7.193247e+01  5.637864e+01
     vertex  7.416481e+01  7.068410e+01  6.000000e+01
   endloop
 endfacet
 facet normal  5.513879e-02  1.207371e-01  9.911520e-01
   outer loop
     vertex  7.789489e+01  5.467477e+01  4.279102e+01
     vertex  7.891665e+01  5.815454e+01  4.231029e+01
     vertex  7.695592e+01  5.510358e+01  4.279102e+01
   endloop
 endfacet
 facet normal  2.498822e-01  2.883795e-01  9.243355e-01
   outer loop
     vertex  7.433075e+01  5.286213e+01  4.420000e+01
     vertex  7.695592e+01  5.510358e+01  4.279102e+01
     vertex  7.617579e+01  5.577957e+01  4.279102e+01
   endloop
 endfacet
 facet normal  2.963878e-01  2.568215e-01  9.198897e-01
   outer loop
     vertex  7.433075e+01  5.286213e+01  4.420000e+01
     vertex  7.617579e+01  5.577957e+01  4.279102e+01
     vertex  7.302546e+01  5.436850e+01  4.420000e+01
   endloop
 endfacet
 facet normal  6.004507e-01  1.763082e-01  7.799835e-01
   outer loop
     vertex  6.991549e+01  5.404385e+01  4.643993e+01
     vertex  7.219745e+01  5.618160e+01  4.420000e+01
     vertex  6.912199e+01  5.674628e+01  4.643993e+01
   endloop
 endfacet
 facet normal  5.484520e-01  2.504696e-01  7.977878e-01
   outer loop
     vertex  6.991549e+01  5.404385e+01  4.643993e+01
     vertex  7.302546e+01  5.436850e+01  4.420000e+01
     vertex  7.219745e+01  5.618160e+01  4.420000e+01
   endloop
 endfacet
 facet normal  7.838949e-01  0.000000e+00  6.208936e-01
   outer loop
     vertex  6.681221e+01  5.815454e+01  4.935608e+01
     vertex  6.912199e+01  5.674628e+01  4.643993e+01
     vertex  6.912199e+01  5.956280e+01  4.643993e+01
   endloop
 endfacet
 facet normal  8.050743e-01 -1.157522e-01  5.817704e-01
   outer loop
     vertex  6.681221e+01  5.815454e+01  4.935608e+01
     vertex  6.912199e+01  5.956280e+01  4.643993e+01
     vertex  6.730253e+01  6.156475e+01  4.935608e+01
   endloop
 endfacet
 facet normal  8.322193e-01 -3.800618e-01  4.036879e-01
   outer loop
     vertex  6.665712e+01  6.375328e+01  5.274705e+01
     vertex  6.730253e+01  6.156475e+01  4.935608e+01
     vertex  6.873375e+01  6.469869e+01  4.935608e+01
   endloop
 endfacet
 facet normal  7.903976e-01 -5.079577e-01  3.424186e-01
   outer loop
     vertex  6.665712e+01  6.375328e+01  5.274705e+01
     vertex  6.873375e+01  6.469869e+01  4.935608e+01
     vertex  6.873106e+01  6.698040e+01  5.274705e+01
   endloop
 endfacet
 facet normal  6.537291e-01 -7.379076e-01 -1.677221e-01
   outer loop
     vertex  6.980124e+01  6.867428e+01  5.637864e+01
     vertex  7.130437e+01  6.918283e+01  6.000000e+01
     vertex  6.888633e+01  6.704063e+01  6.000000e+01
   endloop
 endfacet
 facet normal  5.376137e-01 -8.365432e-01 -1.056743e-01
   outer loop
     vertex  6.980124e+01  6.867428e+01  5.637864e+01
     vertex  7.313423e+01  7.081627e+01  5.637864e+01
     vertex  7.130437e+01  6.918283e+01  6.000000e+01
   endloop
 endfacet
 facet normal  6.466836e-01 -7.463127e-01  1.575361e-01
   outer loop
     vertex  6.980124e+01  6.867428e+01  5.637864e+01
     vertex  6.873106e+01  6.698040e+01  5.274705e+01
     vertex  7.163018e+01  6.949250e+01  5.274705e+01
   endloop
 endfacet
 facet normal  5.387997e-01 -8.383887e-01  8.245805e-02
   outer loop
     vertex  6.980124e+01  6.867428e+01  5.637864e+01
     vertex  7.163018e+01  6.949250e+01  5.274705e+01
     vertex  7.313423e+01  7.081627e+01  5.637864e+01
   endloop
 endfacet
 facet normal  1.888971e-02  1.313808e-01  9.911520e-01
   outer loop
     vertex  7.891665e+01  5.452786e+01  4.279102e+01
     vertex  7.891665e+01  5.815454e+01  4.231029e+01
     vertex  7.789489e+01  5.467477e+01  4.279102e+01
   endloop
 endfacet
 facet normal  1.585144e-01  3.470981e-01  9.243355e-01
   outer loop
     vertex  7.600755e+01  5.178451e+01  4.420000e+01
     vertex  7.789489e+01  5.467477e+01  4.279102e+01
     vertex  7.695592e+01  5.510358e+01  4.279102e+01
   endloop
 endfacet
 facet normal  2.120270e-01  3.299205e-01  9.198897e-01
   outer loop
     vertex  7.600755e+01  5.178451e+01  4.420000e+01
     vertex  7.695592e+01  5.510358e+01  4.279102e+01
     vertex  7.433075e+01  5.286213e+01  4.420000e+01
   endloop
 endfacet
 facet normal  4.556704e-01  3.948407e-01  7.977878e-01
   outer loop
     vertex  7.143822e+01  5.167444e+01  4.643993e+01
     vertex  7.433075e+01  5.286213e+01  4.420000e+01
     vertex  7.302546e+01  5.436850e+01  4.420000e+01
   endloop
 endfacet
 facet normal  5.264565e-01  3.383330e-01  7.799835e-01
   outer loop
     vertex  7.143822e+01  5.167444e+01  4.643993e+01
     vertex  7.302546e+01  5.436850e+01  4.420000e+01
     vertex  6.991549e+01  5.404385e+01  4.643993e+01
   endloop
 endfacet
 facet normal  7.521416e-01  2.208487e-01  6.208936e-01
   outer loop
     vertex  6.730253e+01  5.474433e+01  4.935608e+01
     vertex  6.991549e+01  5.404385e+01  4.643993e+01
     vertex  6.912199e+01  5.674628e+01  4.643993e+01
   endloop
 endfacet
 facet normal  8.050743e-01  1.157522e-01  5.817704e-01
   outer loop
     vertex  6.730253e+01  5.474433e+01  4.935608e+01
     vertex  6.912199e+01  5.674628e+01  4.643993e+01
     vertex  6.681221e+01  5.815454e+01  4.935608e+01
   endloop
 endfacet
 facet normal  9.055844e-01 -1.302034e-01  4.036879e-01
   outer loop
     vertex  6.557637e+01  6.007258e+01  5.274705e+01
     vertex  6.681221e+01  5.815454e+01  4.935608e+01
     vertex  6.730253e+01  6.156475e+01  4.935608e+01
   endloop
 endfacet
 facet normal  9.014892e-01 -2.647011e-01  3.424186e-01
   outer loop
     vertex  6.557637e+01  6.007258e+01  5.274705e+01
     vertex  6.730253e+01  6.156475e+01  4.935608e+01
     vertex  6.665712e+01  6.375328e+01  5.274705e+01
   endloop
 endfacet
 facet normal  8.115733e-01 -5.601886e-01 -1.659440e-01
   outer loop
     vertex  6.720672e+01  6.568005e+01  5.637864e+01
     vertex  6.888633e+01  6.704063e+01  6.000000e+01
     vertex  6.705121e+01  6.438200e+01  6.000000e+01
   endloop
 endfacet
 facet normal  7.516579e-01 -6.513152e-01 -1.039179e-01
   outer loop
     vertex  6.720672e+01  6.568005e+01  5.637864e+01
     vertex  6.980124e+01  6.867428e+01  5.637864e+01
     vertex  6.888633e+01  6.704063e+01  6.000000e+01
   endloop
 endfacet
 facet normal  8.307490e-01 -5.338900e-01  1.575361e-01
   outer loop
     vertex  6.720672e+01  6.568005e+01  5.637864e+01
     vertex  6.665712e+01  6.375328e+01  5.274705e+01
     vertex  6.873106e+01  6.698040e+01  5.274705e+01
   endloop
 endfacet
 facet normal  7.531759e-01 -6.526306e-01  8.245805e-02
   outer loop
     vertex  6.720672e+01  6.568005e+01  5.637864e+01
     vertex  6.873106e+01  6.698040e+01  5.274705e+01
     vertex  6.980124e+01  6.867428e+01  5.637864e+01
   endloop
 endfacet
 facet normal -1.888971e-02  1.313808e-01  9.911520e-01
   outer loop
     vertex  7.993840e+01  5.467477e+01  4.279102e+01
     vertex  7.891665e+01  5.815454e+01  4.231029e+01
     vertex  7.891665e+01  5.452786e+01  4.279102e+01
   endloop
 endfacet
 facet normal  1.104891e-01  3.762913e-01  9.198897e-01
   outer loop
     vertex  7.792004e+01  5.122295e+01  4.420000e+01
     vertex  7.789489e+01  5.467477e+01  4.279102e+01
     vertex  7.600755e+01  5.178451e+01  4.420000e+01
   endloop
 endfacet
 facet normal  5.430460e-02  3.776968e-01  9.243355e-01
   outer loop
     vertex  7.792004e+01  5.122295e+01  4.420000e+01
     vertex  7.891665e+01  5.452786e+01  4.279102e+01
     vertex  7.789489e+01  5.467477e+01  4.279102e+01
   endloop
 endfacet
 facet normal  3.259731e-01  5.072240e-01  7.977878e-01
   outer loop
     vertex  7.356680e+01  4.983002e+01  4.643993e+01
     vertex  7.600755e+01  5.178451e+01  4.420000e+01
     vertex  7.433075e+01  5.286213e+01  4.420000e+01
   endloop
 endfacet
 facet normal  4.098119e-01  4.729481e-01  7.799835e-01
   outer loop
     vertex  7.356680e+01  4.983002e+01  4.643993e+01
     vertex  7.433075e+01  5.286213e+01  4.420000e+01
     vertex  7.143822e+01  5.167444e+01  4.643993e+01
   endloop
 endfacet
 facet normal  7.398520e-01  3.378791e-01  5.817704e-01
   outer loop
     vertex  6.873375e+01  5.161039e+01  4.935608e+01
     vertex  6.991549e+01  5.404385e+01  4.643993e+01
     vertex  6.730253e+01  5.474433e+01  4.935608e+01
   endloop
 endfacet
 facet normal  6.594543e-01  4.238056e-01  6.208936e-01
   outer loop
     vertex  6.873375e+01  5.161039e+01  4.935608e+01
     vertex  7.143822e+01  5.167444e+01  4.643993e+01
     vertex  6.991549e+01  5.404385e+01  4.643993e+01
   endloop
 endfacet
 facet normal  9.395475e-01 -0.000000e+00  3.424186e-01
   outer loop
     vertex  6.557637e+01  5.623650e+01  5.274705e+01
     vertex  6.681221e+01  5.815454e+01  4.935608e+01
     vertex  6.557637e+01  6.007258e+01  5.274705e+01
   endloop
 endfacet
 facet normal  9.055844e-01  1.302034e-01  4.036879e-01
   outer loop
     vertex  6.557637e+01  5.623650e+01  5.274705e+01
     vertex  6.730253e+01  5.474433e+01  4.935608e+01
     vertex  6.681221e+01  5.815454e+01  4.935608e+01
   endloop
 endfacet
 facet normal  9.475120e-01 -2.782146e-01  1.575361e-01
   outer loop
     vertex  6.556087e+01  6.207615e+01  5.637864e+01
     vertex  6.557637e+01  6.007258e+01  5.274705e+01
     vertex  6.665712e+01  6.375328e+01  5.274705e+01
   endloop
 endfacet
 facet normal  9.234157e-01 -3.502054e-01 -1.570339e-01
   outer loop
     vertex  6.556087e+01  6.207615e+01  5.637864e+01
     vertex  6.705121e+01  6.438200e+01  6.000000e+01
     vertex  6.590567e+01  6.136146e+01  6.000000e+01
   endloop
 endfacet
 facet normal  9.041939e-01 -4.129315e-01 -1.091834e-01
   outer loop
     vertex  6.556087e+01  6.207615e+01  5.637864e+01
     vertex  6.720672e+01  6.568005e+01  5.637864e+01
     vertex  6.705121e+01  6.438200e+01  6.000000e+01
   endloop
 endfacet
 facet normal  9.065343e-01 -4.140003e-01  8.245805e-02
   outer loop
     vertex  6.556087e+01  6.207615e+01  5.637864e+01
     vertex  6.665712e+01  6.375328e+01  5.274705e+01
     vertex  6.720672e+01  6.568005e+01  5.637864e+01
   endloop
 endfacet
 facet normal -5.513879e-02  1.207371e-01  9.911520e-01
   outer loop
     vertex  8.087738e+01  5.510358e+01  4.279102e+01
     vertex  7.891665e+01  5.815454e+01  4.231029e+01
     vertex  7.993840e+01  5.467477e+01  4.279102e+01
   endloop
 endfacet
 facet normal  1.398030e-15  3.921772e-01  9.198897e-01
   outer loop
     vertex  7.991326e+01  5.122295e+01  4.420000e+01
     vertex  7.891665e+01  5.452786e+01  4.279102e+01
     vertex  7.792004e+01  5.122295e+01  4.420000e+01
   endloop
 endfacet
 facet normal -5.430460e-02  3.776968e-01  9.243355e-01
   outer loop
     vertex  7.991326e+01  5.122295e+01  4.420000e+01
     vertex  7.993840e+01  5.467477e+01  4.279102e+01
     vertex  7.891665e+01  5.452786e+01  4.279102e+01
   endloop
 endfacet
 facet normal  2.599667e-01  5.692477e-01  7.799835e-01
   outer loop
     vertex  7.612880e+01  4.865999e+01  4.643993e+01
     vertex  7.600755e+01  5.178451e+01  4.420000e+01
     vertex  7.356680e+01  4.983002e+01  4.643993e+01
   endloop
 endfacet
 facet normal  1.698674e-01  5.785151e-01  7.977878e-01
   outer loop
     vertex  7.612880e+01  4.865999e+01  4.643993e+01
     vertex  7.792004e+01  5.122295e+01  4.420000e+01
     vertex  7.600755e+01  5.178451e+01  4.420000e+01
   endloop
 endfacet
 facet normal  5.133420e-01  5.924282e-01  6.208936e-01
   outer loop
     vertex  7.098993e+01  4.900662e+01  4.935608e+01
     vertex  7.356680e+01  4.983002e+01  4.643993e+01
     vertex  7.143822e+01  5.167444e+01  4.643993e+01
   endloop
 endfacet
 facet normal  6.146913e-01  5.326330e-01  5.817704e-01
   outer loop
     vertex  7.098993e+01  4.900662e+01  4.935608e+01
     vertex  7.143822e+01  5.167444e+01  4.643993e+01
     vertex  6.873375e+01  5.161039e+01  4.935608e+01
   endloop
 endfacet
 facet normal  8.322193e-01  3.800618e-01  4.036879e-01
   outer loop
     vertex  6.665712e+01  5.255580e+01  5.274705e+01
     vertex  6.873375e+01  5.161039e+01  4.935608e+01
     vertex  6.730253e+01  5.474433e+01  4.935608e+01
   endloop
 endfacet
 facet normal  9.014892e-01  2.647011e-01  3.424186e-01
   outer loop
     vertex  6.665712e+01  5.255580e+01  5.274705e+01
     vertex  6.730253e+01  5.474433e+01  4.935608e+01
     vertex  6.557637e+01  5.623650e+01  5.274705e+01
   endloop
 endfacet
 facet normal  9.828028e-01 -1.193339e-01 -1.409184e-01
   outer loop
     vertex  6.499703e+01  5.815454e+01  5.637864e+01
     vertex  6.590567e+01  6.136146e+01  6.000000e+01
     vertex  6.551628e+01  5.815454e+01  6.000000e+01
   endloop
 endfacet
 facet normal  9.828028e-01  1.193339e-01 -1.409184e-01
   outer loop
     vertex  6.499703e+01  5.815454e+01  5.637864e+01
     vertex  6.551628e+01  5.815454e+01  6.000000e+01
     vertex  6.590567e+01  5.494762e+01  6.000000e+01
   endloop
 endfacet
 facet normal  9.875132e-01  0.000000e+00  1.575361e-01
   outer loop
     vertex  6.499703e+01  5.815454e+01  5.637864e+01
     vertex  6.557637e+01  5.623650e+01  5.274705e+01
     vertex  6.557637e+01  6.007258e+01  5.274705e+01
   endloop
 endfacet
 facet normal  9.864506e-01 -1.418302e-01  8.245805e-02
   outer loop
     vertex  6.499703e+01  5.815454e+01  5.637864e+01
     vertex  6.557637e+01  6.007258e+01  5.274705e+01
     vertex  6.556087e+01  6.207615e+01  5.637864e+01
   endloop
 endfacet
 facet normal  9.824976e-01 -1.412618e-01 -1.214234e-01
   outer loop
     vertex  6.499703e+01  5.815454e+01  5.637864e+01
     vertex  6.556087e+01  6.207615e+01  5.637864e+01
     vertex  6.590567e+01  6.136146e+01  6.000000e+01
   endloop
 endfacet
 facet normal -8.692085e-02  1.003120e-01  9.911520e-01
   outer loop
     vertex  8.165751e+01  5.577957e+01  4.279102e+01
     vertex  7.891665e+01  5.815454e+01  4.231029e+01
     vertex  8.087738e+01  5.510358e+01  4.279102e+01
   endloop
 endfacet
 facet normal -1.104891e-01  3.762913e-01  9.198897e-01
   outer loop
     vertex  8.182574e+01  5.178451e+01  4.420000e+01
     vertex  7.993840e+01  5.467477e+01  4.279102e+01
     vertex  7.991326e+01  5.122295e+01  4.420000e+01
   endloop
 endfacet
 facet normal -1.585144e-01  3.470981e-01  9.243355e-01
   outer loop
     vertex  8.182574e+01  5.178451e+01  4.420000e+01
     vertex  8.087738e+01  5.510358e+01  4.279102e+01
     vertex  7.993840e+01  5.467477e+01  4.279102e+01
   endloop
 endfacet
 facet normal  8.906063e-02  6.194303e-01  7.799835e-01
   outer loop
     vertex  7.891665e+01  4.825916e+01  4.643993e+01
     vertex  7.792004e+01  5.122295e+01  4.420000e+01
     vertex  7.612880e+01  4.865999e+01  4.643993e+01
   endloop
 endfacet
 facet normal  2.159018e-15  6.029384e-01  7.977878e-01
   outer loop
     vertex  7.891665e+01  4.825916e+01  4.643993e+01
     vertex  7.991326e+01  5.122295e+01  4.420000e+01
     vertex  7.792004e+01  5.122295e+01  4.420000e+01
   endloop
 endfacet
 facet normal  4.397319e-01  6.842362e-01  5.817704e-01
   outer loop
     vertex  7.388828e+01  4.714396e+01  4.935608e+01
     vertex  7.356680e+01  4.983002e+01  4.643993e+01
     vertex  7.098993e+01  4.900662e+01  4.935608e+01
   endloop
 endfacet
 facet normal  3.256417e-01  7.130559e-01  6.208936e-01
   outer loop
     vertex  7.388828e+01  4.714396e+01  4.935608e+01
     vertex  7.612880e+01  4.865999e+01  4.643993e+01
     vertex  7.356680e+01  4.983002e+01  4.643993e+01
   endloop
 endfacet
 facet normal  6.914328e-01  5.991299e-01  4.036879e-01
   outer loop
     vertex  6.873106e+01  4.932868e+01  5.274705e+01
     vertex  7.098993e+01  4.900662e+01  4.935608e+01
     vertex  6.873375e+01  5.161039e+01  4.935608e+01
   endloop
 endfacet
 facet normal  7.903976e-01  5.079577e-01  3.424186e-01
   outer loop
     vertex  6.873106e+01  4.932868e+01  5.274705e+01
     vertex  6.873375e+01  5.161039e+01  4.935608e+01
     vertex  6.665712e+01  5.255580e+01  5.274705e+01
   endloop
 endfacet
 facet normal  9.234157e-01  3.502054e-01 -1.570339e-01
   outer loop
     vertex  6.556087e+01  5.423293e+01  5.637864e+01
     vertex  6.590567e+01  5.494762e+01  6.000000e+01
     vertex  6.705121e+01  5.192708e+01  6.000000e+01
   endloop
 endfacet
 facet normal  9.864506e-01  1.418302e-01  8.245805e-02
   outer loop
     vertex  6.556087e+01  5.423293e+01  5.637864e+01
     vertex  6.557637e+01  5.623650e+01  5.274705e+01
     vertex  6.499703e+01  5.815454e+01  5.637864e+01
   endloop
 endfacet
 facet normal  9.824976e-01  1.412618e-01 -1.214234e-01
   outer loop
     vertex  6.556087e+01  5.423293e+01  5.637864e+01
     vertex  6.499703e+01  5.815454e+01  5.637864e+01
     vertex  6.590567e+01  5.494762e+01  6.000000e+01
   endloop
 endfacet
 facet normal  9.475120e-01  2.782146e-01  1.575361e-01
   outer loop
     vertex  6.556087e+01  5.423293e+01  5.637864e+01
     vertex  6.665712e+01  5.255580e+01  5.274705e+01
     vertex  6.557637e+01  5.623650e+01  5.274705e+01
   endloop
 endfacet
 facet normal -1.116611e-01  7.176024e-02  9.911520e-01
   outer loop
     vertex  8.221559e+01  5.664796e+01  4.279102e+01
     vertex  7.891665e+01  5.815454e+01  4.231029e+01
     vertex  8.165751e+01  5.577957e+01  4.279102e+01
   endloop
 endfacet
 facet normal -2.498822e-01  2.883795e-01  9.243355e-01
   outer loop
     vertex  8.350255e+01  5.286213e+01  4.420000e+01
     vertex  8.165751e+01  5.577957e+01  4.279102e+01
     vertex  8.087738e+01  5.510358e+01  4.279102e+01
   endloop
 endfacet
 facet normal -2.120270e-01  3.299205e-01  9.198897e-01
   outer loop
     vertex  8.350255e+01  5.286213e+01  4.420000e+01
     vertex  8.087738e+01  5.510358e+01  4.279102e+01
     vertex  8.182574e+01  5.178451e+01  4.420000e+01
   endloop
 endfacet
 facet normal -1.698674e-01  5.785151e-01  7.977878e-01
   outer loop
     vertex  8.170450e+01  4.865999e+01  4.643993e+01
     vertex  8.182574e+01  5.178451e+01  4.420000e+01
     vertex  7.991326e+01  5.122295e+01  4.420000e+01
   endloop
 endfacet
 facet normal -8.906063e-02  6.194303e-01  7.799835e-01
   outer loop
     vertex  8.170450e+01  4.865999e+01  4.643993e+01
     vertex  7.991326e+01  5.122295e+01  4.420000e+01
     vertex  7.891665e+01  4.825916e+01  4.643993e+01
   endloop
 endfacet
 facet normal  1.115599e-01  7.759160e-01  6.208936e-01
   outer loop
     vertex  7.719401e+01  4.617331e+01  4.935608e+01
     vertex  7.891665e+01  4.825916e+01  4.643993e+01
     vertex  7.612880e+01  4.865999e+01  4.643993e+01
   endloop
 endfacet
 facet normal  2.291480e-01  7.804066e-01  5.817704e-01
   outer loop
     vertex  7.719401e+01  4.617331e+01  4.935608e+01
     vertex  7.612880e+01  4.865999e+01  4.643993e+01
     vertex  7.388828e+01  4.714396e+01  4.935608e+01
   endloop
 endfacet
 facet normal  4.946305e-01  7.696601e-01  4.036879e-01
   outer loop
     vertex  7.163018e+01  4.681658e+01  5.274705e+01
     vertex  7.388828e+01  4.714396e+01  4.935608e+01
     vertex  7.098993e+01  4.900662e+01  4.935608e+01
   endloop
 endfacet
 facet normal  6.152728e-01  7.100626e-01  3.424186e-01
   outer loop
     vertex  7.163018e+01  4.681658e+01  5.274705e+01
     vertex  7.098993e+01  4.900662e+01  4.935608e+01
     vertex  6.873106e+01  4.932868e+01  5.274705e+01
   endloop
 endfacet
 facet normal  8.115733e-01  5.601886e-01 -1.659440e-01
   outer loop
     vertex  6.720672e+01  5.062903e+01  5.637864e+01
     vertex  6.705121e+01  5.192708e+01  6.000000e+01
     vertex  6.888633e+01  4.926845e+01  6.000000e+01
   endloop
 endfacet
 facet normal  9.041939e-01  4.129315e-01 -1.091834e-01
   outer loop
     vertex  6.720672e+01  5.062903e+01  5.637864e+01
     vertex  6.556087e+01  5.423293e+01  5.637864e+01
     vertex  6.705121e+01  5.192708e+01  6.000000e+01
   endloop
 endfacet
 facet normal  8.307490e-01  5.338900e-01  1.575361e-01
   outer loop
     vertex  6.720672e+01  5.062903e+01  5.637864e+01
     vertex  6.873106e+01  4.932868e+01  5.274705e+01
     vertex  6.665712e+01  5.255580e+01  5.274705e+01
   endloop
 endfacet
 facet normal  9.065343e-01  4.140003e-01  8.245805e-02
   outer loop
     vertex  6.720672e+01  5.062903e+01  5.637864e+01
     vertex  6.665712e+01  5.255580e+01  5.274705e+01
     vertex  6.556087e+01  5.423293e+01  5.637864e+01
   endloop
 endfacet
 facet normal -1.141685e-01  1.240228e-01  9.856895e-01
   outer loop
     vertex  8.250641e+01  5.763841e+01  4.279102e+01
     vertex  8.209865e+01  5.815454e+01  4.267885e+01
     vertex  7.891665e+01  5.815454e+01  4.231029e+01
   endloop
 endfacet
 facet normal -3.383979e-01 -6.330163e-02  9.388715e-01
   outer loop
     vertex  8.250641e+01  5.763841e+01  4.279102e+01
     vertex  8.511216e+01  5.815454e+01  4.376501e+01
     vertex  8.209865e+01  5.815454e+01  4.267885e+01
   endloop
 endfacet
 facet normal -1.273552e-01  3.739487e-02  9.911520e-01
   outer loop
     vertex  8.250641e+01  5.763841e+01  4.279102e+01
     vertex  7.891665e+01  5.815454e+01  4.231029e+01
     vertex  8.221559e+01  5.664796e+01  4.279102e+01
   endloop
 endfacet
 facet normal -2.963878e-01  2.568215e-01  9.198897e-01
   outer loop
     vertex  8.480783e+01  5.436850e+01  4.420000e+01
     vertex  8.165751e+01  5.577957e+01  4.279102e+01
     vertex  8.350255e+01  5.286213e+01  4.420000e+01
   endloop
 endfacet
 facet normal -3.210062e-01  2.062981e-01  9.243355e-01
   outer loop
     vertex  8.480783e+01  5.436850e+01  4.420000e+01
     vertex  8.221559e+01  5.664796e+01  4.279102e+01
     vertex  8.165751e+01  5.577957e+01  4.279102e+01
   endloop
 endfacet
 facet normal -2.599667e-01  5.692477e-01  7.799835e-01
   outer loop
     vertex  8.426649e+01  4.983002e+01  4.643993e+01
     vertex  8.182574e+01  5.178451e+01  4.420000e+01
     vertex  8.170450e+01  4.865999e+01  4.643993e+01
   endloop
 endfacet
 facet normal -3.259731e-01  5.072240e-01  7.977878e-01
   outer loop
     vertex  8.426649e+01  4.983002e+01  4.643993e+01
     vertex  8.350255e+01  5.286213e+01  4.420000e+01
     vertex  8.182574e+01  5.178451e+01  4.420000e+01
   endloop
 endfacet
 facet normal  0.000000e+00  8.133531e-01  5.817704e-01
   outer loop
     vertex  8.063929e+01  4.617331e+01  4.935608e+01
     vertex  7.891665e+01  4.825916e+01  4.643993e+01
     vertex  7.719401e+01  4.617331e+01  4.935608e+01
   endloop
 endfacet
 facet normal -1.115599e-01  7.759160e-01  6.208936e-01
   outer loop
     vertex  8.063929e+01  4.617331e+01  4.935608e+01
     vertex  8.170450e+01  4.865999e+01  4.643993e+01
     vertex  7.891665e+01  4.825916e+01  4.643993e+01
   endloop
 endfacet
 facet normal  2.577562e-01  8.778370e-01  4.036879e-01
   outer loop
     vertex  7.511961e+01  4.522301e+01  5.274705e+01
     vertex  7.719401e+01  4.617331e+01  4.935608e+01
     vertex  7.388828e+01  4.714396e+01  4.935608e+01
   endloop
 endfacet
 facet normal  3.903021e-01  8.546425e-01  3.424186e-01
   outer loop
     vertex  7.511961e+01  4.522301e+01  5.274705e+01
     vertex  7.388828e+01  4.714396e+01  4.935608e+01
     vertex  7.163018e+01  4.681658e+01  5.274705e+01
   endloop
 endfacet
 facet normal  6.537291e-01  7.379076e-01 -1.677221e-01
   outer loop
     vertex  6.980124e+01  4.763479e+01  5.637864e+01
     vertex  6.888633e+01  4.926845e+01  6.000000e+01
     vertex  7.130437e+01  4.712625e+01  6.000000e+01
   endloop
 endfacet
 facet normal  6.466836e-01  7.463127e-01  1.575361e-01
   outer loop
     vertex  6.980124e+01  4.763479e+01  5.637864e+01
     vertex  7.163018e+01  4.681658e+01  5.274705e+01
     vertex  6.873106e+01  4.932868e+01  5.274705e+01
   endloop
 endfacet
 facet normal  7.531759e-01  6.526306e-01  8.245805e-02
   outer loop
     vertex  6.980124e+01  4.763479e+01  5.637864e+01
     vertex  6.873106e+01  4.932868e+01  5.274705e+01
     vertex  6.720672e+01  5.062903e+01  5.637864e+01
   endloop
 endfacet
 facet normal  7.516579e-01  6.513152e-01 -1.039179e-01
   outer loop
     vertex  6.980124e+01  4.763479e+01  5.637864e+01
     vertex  6.720672e+01  5.062903e+01  5.637864e+01
     vertex  6.888633e+01  4.926845e+01  6.000000e+01
   endloop
 endfacet
 facet normal -5.447055e-01  4.010445e-02  8.376679e-01
   outer loop
     vertex  8.563585e+01  5.618160e+01  4.420000e+01
     vertex  8.779760e+01  5.815454e+01  4.551125e+01
     vertex  8.511216e+01  5.815454e+01  4.376501e+01
   endloop
 endfacet
 facet normal -3.567370e-01  1.629163e-01  9.198897e-01
   outer loop
     vertex  8.563585e+01  5.618160e+01  4.420000e+01
     vertex  8.221559e+01  5.664796e+01  4.279102e+01
     vertex  8.480783e+01  5.436850e+01  4.420000e+01
   endloop
 endfacet
 facet normal -3.665723e-01  1.064833e-01  9.242760e-01
   outer loop
     vertex  8.563585e+01  5.618160e+01  4.420000e+01
     vertex  8.511216e+01  5.815454e+01  4.376501e+01
     vertex  8.250641e+01  5.763841e+01  4.279102e+01
   endloop
 endfacet
 facet normal -3.661240e-01  1.075037e-01  9.243355e-01
   outer loop
     vertex  8.563585e+01  5.618160e+01  4.420000e+01
     vertex  8.250641e+01  5.763841e+01  4.279102e+01
     vertex  8.221559e+01  5.664796e+01  4.279102e+01
   endloop
 endfacet
 facet normal -4.556704e-01  3.948407e-01  7.977878e-01
   outer loop
     vertex  8.639508e+01  5.167444e+01  4.643993e+01
     vertex  8.480783e+01  5.436850e+01  4.420000e+01
     vertex  8.350255e+01  5.286213e+01  4.420000e+01
   endloop
 endfacet
 facet normal -4.098119e-01  4.729481e-01  7.799835e-01
   outer loop
     vertex  8.639508e+01  5.167444e+01  4.643993e+01
     vertex  8.350255e+01  5.286213e+01  4.420000e+01
     vertex  8.426649e+01  4.983002e+01  4.643993e+01
   endloop
 endfacet
 facet normal -3.256417e-01  7.130559e-01  6.208936e-01
   outer loop
     vertex  8.394501e+01  4.714396e+01  4.935608e+01
     vertex  8.426649e+01  4.983002e+01  4.643993e+01
     vertex  8.170450e+01  4.865999e+01  4.643993e+01
   endloop
 endfacet
 facet normal -2.291480e-01  7.804066e-01  5.817704e-01
   outer loop
     vertex  8.394501e+01  4.714396e+01  4.935608e+01
     vertex  8.170450e+01  4.865999e+01  4.643993e+01
     vertex  8.063929e+01  4.617331e+01  4.935608e+01
   endloop
 endfacet
 facet normal  0.000000e+00  9.148967e-01  4.036879e-01
   outer loop
     vertex  7.891665e+01  4.467708e+01  5.274705e+01
     vertex  8.063929e+01  4.617331e+01  4.935608e+01
     vertex  7.719401e+01  4.617331e+01  4.935608e+01
   endloop
 endfacet
 facet normal  1.337115e-01  9.299842e-01  3.424186e-01
   outer loop
     vertex  7.891665e+01  4.467708e+01  5.274705e+01
     vertex  7.719401e+01  4.617331e+01  4.935608e+01
     vertex  7.511961e+01  4.522301e+01  5.274705e+01
   endloop
 endfacet
 facet normal  5.387997e-01  8.383887e-01  8.245805e-02
   outer loop
     vertex  7.313423e+01  4.549281e+01  5.637864e+01
     vertex  7.163018e+01  4.681658e+01  5.274705e+01
     vertex  6.980124e+01  4.763479e+01  5.637864e+01
   endloop
 endfacet
 facet normal  4.585552e-01  8.737040e-01 -1.623839e-01
   outer loop
     vertex  7.313423e+01  4.549281e+01  5.637864e+01
     vertex  7.130437e+01  4.712625e+01  6.000000e+01
     vertex  7.416481e+01  4.562497e+01  6.000000e+01
   endloop
 endfacet
 facet normal  5.376137e-01  8.365432e-01 -1.056743e-01
   outer loop
     vertex  7.313423e+01  4.549281e+01  5.637864e+01
     vertex  6.980124e+01  4.763479e+01  5.637864e+01
     vertex  7.130437e+01  4.712625e+01  6.000000e+01
   endloop
 endfacet
 facet normal  4.102278e-01  8.982736e-01  1.575361e-01
   outer loop
     vertex  7.313423e+01  4.549281e+01  5.637864e+01
     vertex  7.511961e+01  4.522301e+01  5.274705e+01
     vertex  7.163018e+01  4.681658e+01  5.274705e+01
   endloop
 endfacet
 facet normal -5.484520e-01  2.504696e-01  7.977878e-01
   outer loop
     vertex  8.791780e+01  5.404385e+01  4.643993e+01
     vertex  8.563585e+01  5.618160e+01  4.420000e+01
     vertex  8.480783e+01  5.436850e+01  4.420000e+01
   endloop
 endfacet
 facet normal -5.264565e-01  3.383330e-01  7.799835e-01
   outer loop
     vertex  8.791780e+01  5.404385e+01  4.643993e+01
     vertex  8.480783e+01  5.436850e+01  4.420000e+01
     vertex  8.639508e+01  5.167444e+01  4.643993e+01
   endloop
 endfacet
 facet normal -5.133420e-01  5.924282e-01  6.208936e-01
   outer loop
     vertex  8.684337e+01  4.900662e+01  4.935608e+01
     vertex  8.639508e+01  5.167444e+01  4.643993e+01
     vertex  8.426649e+01  4.983002e+01  4.643993e+01
   endloop
 endfacet
 facet normal -4.397319e-01  6.842362e-01  5.817704e-01
   outer loop
     vertex  8.684337e+01  4.900662e+01  4.935608e+01
     vertex  8.426649e+01  4.983002e+01  4.643993e+01
     vertex  8.394501e+01  4.714396e+01  4.935608e+01
   endloop
 endfacet
 facet normal -2.577562e-01  8.778370e-01  4.036879e-01
   outer loop
     vertex  8.271369e+01  4.522301e+01  5.274705e+01
     vertex  8.394501e+01  4.714396e+01  4.935608e+01
     vertex  8.063929e+01  4.617331e+01  4.935608e+01
   endloop
 endfacet
 facet normal -1.337115e-01  9.299842e-01  3.424186e-01
   outer loop
     vertex  8.271369e+01  4.522301e+01  5.274705e+01
     vertex  8.063929e+01  4.617331e+01  4.935608e+01
     vertex  7.891665e+01  4.467708e+01  5.274705e+01
   endloop
 endfacet
 facet normal  1.405378e-01  9.774618e-01  1.575361e-01
   outer loop
     vertex  7.693568e+01  4.437660e+01  5.637864e+01
     vertex  7.891665e+01  4.467708e+01  5.274705e+01
     vertex  7.511961e+01  4.522301e+01  5.274705e+01
   endloop
 endfacet
 facet normal  2.366123e-01  9.599738e-01 -1.498833e-01
   outer loop
     vertex  7.693568e+01  4.437660e+01  5.637864e+01
     vertex  7.416481e+01  4.562497e+01  6.000000e+01
     vertex  7.730141e+01  4.485187e+01  6.000000e+01
   endloop
 endfacet
 facet normal  2.807731e-01  9.562255e-01  8.245805e-02
   outer loop
     vertex  7.693568e+01  4.437660e+01  5.637864e+01
     vertex  7.511961e+01  4.522301e+01  5.274705e+01
     vertex  7.313423e+01  4.549281e+01  5.637864e+01
   endloop
 endfacet
 facet normal  2.798817e-01  9.531896e-01 -1.144372e-01
   outer loop
     vertex  7.693568e+01  4.437660e+01  5.637864e+01
     vertex  7.313423e+01  4.549281e+01  5.637864e+01
     vertex  7.416481e+01  4.562497e+01  6.000000e+01
   endloop
 endfacet
 facet normal -7.222859e-01 -1.264080e-02  6.914790e-01
   outer loop
     vertex  8.871131e+01  5.674628e+01  4.643993e+01
     vertex  9.001277e+01  5.815454e+01  4.782512e+01
     vertex  8.779760e+01  5.815454e+01  4.551125e+01
   endloop
 endfacet
 facet normal -5.992914e-01  1.318638e-01  7.895960e-01
   outer loop
     vertex  8.871131e+01  5.674628e+01  4.643993e+01
     vertex  8.779760e+01  5.815454e+01  4.551125e+01
     vertex  8.563585e+01  5.618160e+01  4.420000e+01
   endloop
 endfacet
 facet normal -6.004507e-01  1.763082e-01  7.799835e-01
   outer loop
     vertex  8.871131e+01  5.674628e+01  4.643993e+01
     vertex  8.563585e+01  5.618160e+01  4.420000e+01
     vertex  8.791780e+01  5.404385e+01  4.643993e+01
   endloop
 endfacet
 facet normal -6.146913e-01  5.326330e-01  5.817704e-01
   outer loop
     vertex  8.909955e+01  5.161039e+01  4.935608e+01
     vertex  8.639508e+01  5.167444e+01  4.643993e+01
     vertex  8.684337e+01  4.900662e+01  4.935608e+01
   endloop
 endfacet
 facet normal -6.594543e-01  4.238056e-01  6.208936e-01
   outer loop
     vertex  8.909955e+01  5.161039e+01  4.935608e+01
     vertex  8.791780e+01  5.404385e+01  4.643993e+01
     vertex  8.639508e+01  5.167444e+01  4.643993e+01
   endloop
 endfacet
 facet normal -3.903021e-01  8.546425e-01  3.424186e-01
   outer loop
     vertex  8.620311e+01  4.681658e+01  5.274705e+01
     vertex  8.394501e+01  4.714396e+01  4.935608e+01
     vertex  8.271369e+01  4.522301e+01  5.274705e+01
   endloop
 endfacet
 facet normal -4.946305e-01  7.696601e-01  4.036879e-01
   outer loop
     vertex  8.620311e+01  4.681658e+01  5.274705e+01
     vertex  8.684337e+01  4.900662e+01  4.935608e+01
     vertex  8.394501e+01  4.714396e+01  4.935608e+01
   endloop
 endfacet
 facet normal  1.787316e-15  9.965945e-01  8.245805e-02
   outer loop
     vertex  8.089762e+01  4.437660e+01  5.637864e+01
     vertex  7.891665e+01  4.467708e+01  5.274705e+01
     vertex  7.693568e+01  4.437660e+01  5.637864e+01
   endloop
 endfacet
 facet normal  2.182990e-15  9.914977e-01 -1.301243e-01
   outer loop
     vertex  8.089762e+01  4.437660e+01  5.637864e+01
     vertex  7.730141e+01  4.485187e+01  6.000000e+01
     vertex  8.053188e+01  4.485187e+01  6.000000e+01
   endloop
 endfacet
 facet normal -2.366123e-01  9.599738e-01 -1.498833e-01
   outer loop
     vertex  8.089762e+01  4.437660e+01  5.637864e+01
     vertex  8.053188e+01  4.485187e+01  6.000000e+01
     vertex  8.366849e+01  4.562497e+01  6.000000e+01
   endloop
 endfacet
 facet normal -1.405378e-01  9.774618e-01  1.575361e-01
   outer loop
     vertex  8.089762e+01  4.437660e+01  5.637864e+01
     vertex  8.271369e+01  4.522301e+01  5.274705e+01
     vertex  7.891665e+01  4.467708e+01  5.274705e+01
   endloop
 endfacet
 facet normal  1.778175e-15  9.914977e-01 -1.301243e-01
   outer loop
     vertex  8.089762e+01  4.437660e+01  5.637864e+01
     vertex  7.693568e+01  4.437660e+01  5.637864e+01
     vertex  7.730141e+01  4.485187e+01  6.000000e+01
   endloop
 endfacet
 facet normal -7.521416e-01  2.208487e-01  6.208936e-01
   outer loop
     vertex  9.053077e+01  5.474433e+01  4.935608e+01
     vertex  8.871131e+01  5.674628e+01  4.643993e+01
     vertex  8.791780e+01  5.404385e+01  4.643993e+01
   endloop
 endfacet
 facet normal -8.572467e-01  9.682333e-02  5.057206e-01
   outer loop
     vertex  9.053077e+01  5.474433e+01  4.935608e+01
     vertex  9.164038e+01  5.815454e+01  5.058408e+01
     vertex  9.001277e+01  5.815454e+01  4.782512e+01
   endloop
 endfacet
 facet normal -7.909235e-01  1.465746e-01  5.941010e-01
   outer loop
     vertex  9.053077e+01  5.474433e+01  4.935608e+01
     vertex  9.001277e+01  5.815454e+01  4.782512e+01
     vertex  8.871131e+01  5.674628e+01  4.643993e+01
   endloop
 endfacet
 facet normal -7.398520e-01  3.378791e-01  5.817704e-01
   outer loop
     vertex  9.053077e+01  5.474433e+01  4.935608e+01
     vertex  8.791780e+01  5.404385e+01  4.643993e+01
     vertex  8.909955e+01  5.161039e+01  4.935608e+01
   endloop
 endfacet
 facet normal -6.914328e-01  5.991299e-01  4.036879e-01
   outer loop
     vertex  8.910223e+01  4.932868e+01  5.274705e+01
     vertex  8.909955e+01  5.161039e+01  4.935608e+01
     vertex  8.684337e+01  4.900662e+01  4.935608e+01
   endloop
 endfacet
 facet normal -6.152728e-01  7.100626e-01  3.424186e-01
   outer loop
     vertex  8.910223e+01  4.932868e+01  5.274705e+01
     vertex  8.684337e+01  4.900662e+01  4.935608e+01
     vertex  8.620311e+01  4.681658e+01  5.274705e+01
   endloop
 endfacet
 facet normal -4.585552e-01  8.737040e-01 -1.623839e-01
   outer loop
     vertex  8.469907e+01  4.549281e+01  5.637864e+01
     vertex  8.366849e+01  4.562497e+01  6.000000e+01
     vertex  8.652893e+01  4.712625e+01  6.000000e+01
   endloop
 endfacet
 facet normal -4.102278e-01  8.982736e-01  1.575361e-01
   outer loop
     vertex  8.469907e+01  4.549281e+01  5.637864e+01
     vertex  8.620311e+01  4.681658e+01  5.274705e+01
     vertex  8.271369e+01  4.522301e+01  5.274705e+01
   endloop
 endfacet
 facet normal -2.798817e-01  9.531896e-01 -1.144372e-01
   outer loop
     vertex  8.469907e+01  4.549281e+01  5.637864e+01
     vertex  8.089762e+01  4.437660e+01  5.637864e+01
     vertex  8.366849e+01  4.562497e+01  6.000000e+01
   endloop
 endfacet
 facet normal -2.807731e-01  9.562255e-01  8.245805e-02
   outer loop
     vertex  8.469907e+01  4.549281e+01  5.637864e+01
     vertex  8.271369e+01  4.522301e+01  5.274705e+01
     vertex  8.089762e+01  4.437660e+01  5.637864e+01
   endloop
 endfacet
 facet normal -7.903976e-01  5.079577e-01  3.424186e-01
   outer loop
     vertex  9.117618e+01  5.255580e+01  5.274705e+01
     vertex  8.909955e+01  5.161039e+01  4.935608e+01
     vertex  8.910223e+01  4.932868e+01  5.274705e+01
   endloop
 endfacet
 facet normal -8.322193e-01  3.800618e-01  4.036879e-01
   outer loop
     vertex  9.117618e+01  5.255580e+01  5.274705e+01
     vertex  9.053077e+01  5.474433e+01  4.935608e+01
     vertex  8.909955e+01  5.161039e+01  4.935608e+01
   endloop
 endfacet
 facet normal -6.537291e-01  7.379076e-01 -1.677221e-01
   outer loop
     vertex  8.803206e+01  4.763479e+01  5.637864e+01
     vertex  8.652893e+01  4.712625e+01  6.000000e+01
     vertex  8.894697e+01  4.926845e+01  6.000000e+01
   endloop
 endfacet
 facet normal -5.376137e-01  8.365432e-01 -1.056743e-01
   outer loop
     vertex  8.803206e+01  4.763479e+01  5.637864e+01
     vertex  8.469907e+01  4.549281e+01  5.637864e+01
     vertex  8.652893e+01  4.712625e+01  6.000000e+01
   endloop
 endfacet
 facet normal -6.466836e-01  7.463127e-01  1.575361e-01
   outer loop
     vertex  8.803206e+01  4.763479e+01  5.637864e+01
     vertex  8.910223e+01  4.932868e+01  5.274705e+01
     vertex  8.620311e+01  4.681658e+01  5.274705e+01
   endloop
 endfacet
 facet normal -5.387997e-01  8.383887e-01  8.245805e-02
   outer loop
     vertex  8.803206e+01  4.763479e+01  5.637864e+01
     vertex  8.620311e+01  4.681658e+01  5.274705e+01
     vertex  8.469907e+01  4.549281e+01  5.637864e+01
   endloop
 endfacet
 facet normal -9.542363e-01  2.892715e-02  2.976514e-01
   outer loop
     vertex  9.225693e+01  5.623650e+01  5.274705e+01
     vertex  9.259424e+01  5.815454e+01  5.364204e+01
     vertex  9.164038e+01  5.815454e+01  5.058408e+01
   endloop
 endfacet
 facet normal -9.062816e-01  1.530048e-01  3.940093e-01
   outer loop
     vertex  9.225693e+01  5.623650e+01  5.274705e+01
     vertex  9.164038e+01  5.815454e+01  5.058408e+01
     vertex  9.053077e+01  5.474433e+01  4.935608e+01
   endloop
 endfacet
 facet normal -9.014892e-01  2.647011e-01  3.424186e-01
   outer loop
     vertex  9.225693e+01  5.623650e+01  5.274705e+01
     vertex  9.053077e+01  5.474433e+01  4.935608e+01
     vertex  9.117618e+01  5.255580e+01  5.274705e+01
   endloop
 endfacet
 facet normal -8.115733e-01  5.601886e-01 -1.659440e-01
   outer loop
     vertex  9.062658e+01  5.062903e+01  5.637864e+01
     vertex  8.894697e+01  4.926845e+01  6.000000e+01
     vertex  9.078209e+01  5.192708e+01  6.000000e+01
   endloop
 endfacet
 facet normal -7.516579e-01  6.513152e-01 -1.039179e-01
   outer loop
     vertex  9.062658e+01  5.062903e+01  5.637864e+01
     vertex  8.803206e+01  4.763479e+01  5.637864e+01
     vertex  8.894697e+01  4.926845e+01  6.000000e+01
   endloop
 endfacet
 facet normal -8.307490e-01  5.338900e-01  1.575361e-01
   outer loop
     vertex  9.062658e+01  5.062903e+01  5.637864e+01
     vertex  9.117618e+01  5.255580e+01  5.274705e+01
     vertex  8.910223e+01  4.932868e+01  5.274705e+01
   endloop
 endfacet
 facet normal -7.531759e-01  6.526306e-01  8.245805e-02
   outer loop
     vertex  9.062658e+01  5.062903e+01  5.637864e+01
     vertex  8.910223e+01  4.932868e+01  5.274705e+01
     vertex  8.803206e+01  4.763479e+01  5.637864e+01
   endloop
 endfacet
 facet normal -9.234157e-01  3.502054e-01 -1.570339e-01
   outer loop
     vertex  9.227242e+01  5.423293e+01  5.637864e+01
     vertex  9.078209e+01  5.192708e+01  6.000000e+01
     vertex  9.192763e+01  5.494762e+01  6.000000e+01
   endloop
 endfacet
 facet normal -9.805961e-01  1.523091e-01 -1.234225e-01
   outer loop
     vertex  9.227242e+01  5.423293e+01  5.637864e+01
     vertex  9.192763e+01  5.494762e+01  6.000000e+01
     vertex  9.282384e+01  5.815454e+01  5.683707e+01
   endloop
 endfacet
 facet normal -9.041939e-01  4.129315e-01 -1.091834e-01
   outer loop
     vertex  9.227242e+01  5.423293e+01  5.637864e+01
     vertex  9.062658e+01  5.062903e+01  5.637864e+01
     vertex  9.078209e+01  5.192708e+01  6.000000e+01
   endloop
 endfacet
 facet normal -9.888671e-01  1.307369e-01  7.106102e-02
   outer loop
     vertex  9.227242e+01  5.423293e+01  5.637864e+01
     vertex  9.282384e+01  5.815454e+01  5.683707e+01
     vertex  9.259424e+01  5.815454e+01  5.364204e+01
   endloop
 endfacet
 facet normal -9.475120e-01  2.782146e-01  1.575361e-01
   outer loop
     vertex  9.227242e+01  5.423293e+01  5.637864e+01
     vertex  9.225693e+01  5.623650e+01  5.274705e+01
     vertex  9.117618e+01  5.255580e+01  5.274705e+01
   endloop
 endfacet
 facet normal -9.874362e-01  1.365382e-01  7.954262e-02
   outer loop
     vertex  9.227242e+01  5.423293e+01  5.637864e+01
     vertex  9.259424e+01  5.815454e+01  5.364204e+01
     vertex  9.225693e+01  5.623650e+01  5.274705e+01
   endloop
 endfacet
 facet normal -9.065343e-01  4.140003e-01  8.245805e-02
   outer loop
     vertex  9.227242e+01  5.423293e+01  5.637864e+01
     vertex  9.117618e+01  5.255580e+01  5.274705e+01
     vertex  9.062658e+01  5.062903e+01  5.637864e+01
   endloop
 endfacet
endsolid
