solid 
 facet normal -1.000000e+00  0.000000e+00  0.000000e+00
   outer loop
     vertex  0.000000e+00  0.000000e+00  2.000000e+01
     vertex  0.000000e+00  8.950773e+01  0.000000e+00
     vertex  0.000000e+00  0.000000e+00  0.000000e+00
   endloop
 endfacet
 facet normal -1.000000e+00  0.000000e+00  0.000000e+00
   outer loop
     vertex  0.000000e+00  0.000000e+00  2.000000e+01
     vertex  0.000000e+00  8.950773e+01  2.000000e+01
     vertex  0.000000e+00  8.950773e+01  0.000000e+00
   endloop
 endfacet
 facet normal  0.000000e+00 -1.000000e+00  0.000000e+00
   outer loop
     vertex  1.364484e+02  0.000000e+00  0.000000e+00
     vertex  0.000000e+00  0.000000e+00  2.000000e+01
     vertex  0.000000e+00  0.000000e+00  0.000000e+00
   endloop
 endfacet
 facet normal -0.000000e+00 -1.000000e+00 -0.000000e+00
   outer loop
     vertex  1.364484e+02  0.000000e+00  2.000000e+01
     vertex  0.000000e+00  0.000000e+00  2.000000e+01
     vertex  1.364484e+02  0.000000e+00  0.000000e+00
   endloop
 endfacet
 facet normal  0.000000e+00  0.000000e+00  1.000000e+00
   outer loop
     vertex  1.004712e+02  1.470710e+01  2.000000e+01
     vertex  9.770009e+01  1.716208e+01  2.000000e+01
     vertex  0.000000e+00  0.000000e+00  2.000000e+01
   endloop
 endfacet
 facet normal  0.000000e+00  0.000000e+00  1.000000e+00
   outer loop
     vertex  9.559703e+01  2.020888e+01  2.000000e+01
     vertex  0.000000e+00  0.000000e+00  2.000000e+01
     vertex  9.770009e+01  1.716208e+01  2.000000e+01
   endloop
 endfacet
 facet normal  0.000000e+00  0.000000e+00  1.000000e+00
   outer loop
     vertex  1.037493e+02  1.298663e+01  2.000000e+01
     vertex  1.004712e+02  1.470710e+01  2.000000e+01
     vertex  0.000000e+00  0.000000e+00  2.000000e+01
   endloop
 endfacet
 facet normal  0.000000e+00  0.000000e+00  1.000000e+00
   outer loop
     vertex  9.428423e+01  2.367044e+01  2.000000e+01
     vertex  0.000000e+00  0.000000e+00  2.000000e+01
     vertex  9.559703e+01  2.020888e+01  2.000000e+01
   endloop
 endfacet
 facet normal  0.000000e+00  0.000000e+00  1.000000e+00
   outer loop
     vertex  9.383799e+01  2.734559e+01  2.000000e+01
     vertex  0.000000e+00  0.000000e+00  2.000000e+01
     vertex  9.428423e+01  2.367044e+01  2.000000e+01
   endloop
 endfacet
 facet normal  0.000000e+00  0.000000e+00  1.000000e+00
   outer loop
     vertex  9.428423e+01  3.102074e+01  2.000000e+01
     vertex  0.000000e+00  8.950773e+01  2.000000e+01
     vertex  0.000000e+00  0.000000e+00  2.000000e+01
   endloop
 endfacet
 facet normal  0.000000e+00  0.000000e+00  1.000000e+00
   outer loop
     vertex  9.428423e+01  3.102074e+01  2.000000e+01
     vertex  0.000000e+00  0.000000e+00  2.000000e+01
     vertex  9.383799e+01  2.734559e+01  2.000000e+01
   endloop
 endfacet
 facet normal  0.000000e+00  0.000000e+00  1.000000e+00
   outer loop
     vertex  9.559703e+01  3.448230e+01  2.000000e+01
     vertex  0.000000e+00  8.950773e+01  2.000000e+01
     vertex  9.428423e+01  3.102074e+01  2.000000e+01
   endloop
 endfacet
 facet normal  0.000000e+00  0.000000e+00  1.000000e+00
   outer loop
     vertex  9.770009e+01  3.752910e+01  2.000000e+01
     vertex  0.000000e+00  8.950773e+01  2.000000e+01
     vertex  9.559703e+01  3.448230e+01  2.000000e+01
   endloop
 endfacet
 facet normal  0.000000e+00  0.000000e+00  1.000000e+00
   outer loop
     vertex  1.364484e+02  0.000000e+00  2.000000e+01
     vertex  1.073438e+02  1.210065e+01  2.000000e+01
     vertex  1.037493e+02  1.298663e+01  2.000000e+01
   endloop
 endfacet
 facet normal  0.000000e+00  0.000000e+00  1.000000e+00
   outer loop
     vertex  1.364484e+02  0.000000e+00  2.000000e+01
     vertex  1.110460e+02  1.210065e+01  2.000000e+01
     vertex  1.073438e+02  1.210065e+01  2.000000e+01
   endloop
 endfacet
 facet normal  0.000000e+00  0.000000e+00  1.000000e+00
   outer loop
     vertex  1.364484e+02  0.000000e+00  2.000000e+01
     vertex  1.146405e+02  1.298663e+01  2.000000e+01
     vertex  1.110460e+02  1.210065e+01  2.000000e+01
   endloop
 endfacet
 facet normal  0.000000e+00  0.000000e+00  1.000000e+00
   outer loop
     vertex  1.364484e+02  0.000000e+00  2.000000e+01
     vertex  1.179186e+02  1.470710e+01  2.000000e+01
     vertex  1.146405e+02  1.298663e+01  2.000000e+01
   endloop
 endfacet
 facet normal  0.000000e+00  0.000000e+00  1.000000e+00
   outer loop
     vertex  1.364484e+02  0.000000e+00  2.000000e+01
     vertex  1.037493e+02  1.298663e+01  2.000000e+01
     vertex  0.000000e+00  0.000000e+00  2.000000e+01
   endloop
 endfacet
 facet normal  0.000000e+00  0.000000e+00  1.000000e+00
   outer loop
     vertex  1.206897e+02  1.716208e+01  2.000000e+01
     vertex  1.179186e+02  1.470710e+01  2.000000e+01
     vertex  1.364484e+02  0.000000e+00  2.000000e+01
   endloop
 endfacet
 facet normal  0.000000e+00  0.000000e+00  1.000000e+00
   outer loop
     vertex  1.004712e+02  3.998408e+01  2.000000e+01
     vertex  0.000000e+00  8.950773e+01  2.000000e+01
     vertex  9.770009e+01  3.752910e+01  2.000000e+01
   endloop
 endfacet
 facet normal  0.000000e+00  0.000000e+00  1.000000e+00
   outer loop
     vertex  1.227928e+02  2.020888e+01  2.000000e+01
     vertex  1.206897e+02  1.716208e+01  2.000000e+01
     vertex  1.364484e+02  0.000000e+00  2.000000e+01
   endloop
 endfacet
 facet normal  0.000000e+00  0.000000e+00  1.000000e+00
   outer loop
     vertex  1.241056e+02  2.367044e+01  2.000000e+01
     vertex  1.227928e+02  2.020888e+01  2.000000e+01
     vertex  1.364484e+02  0.000000e+00  2.000000e+01
   endloop
 endfacet
 facet normal  1.503713e-15  7.841019e-16  1.000000e+00
   outer loop
     vertex  1.245518e+02  2.734559e+01  2.000000e+01
     vertex  1.241056e+02  2.367044e+01  2.000000e+01
     vertex  1.364484e+02  0.000000e+00  2.000000e+01
   endloop
 endfacet
 facet normal -3.496569e-15 -1.391246e-15  1.000000e+00
   outer loop
     vertex  1.241056e+02  3.102074e+01  2.000000e+01
     vertex  1.245518e+02  2.734559e+01  2.000000e+01
     vertex  1.364484e+02  0.000000e+00  2.000000e+01
   endloop
 endfacet
 facet normal  0.000000e+00  0.000000e+00  1.000000e+00
   outer loop
     vertex  1.364484e+02  8.950773e+01  2.000000e+01
     vertex  1.227928e+02  3.448230e+01  2.000000e+01
     vertex  1.241056e+02  3.102074e+01  2.000000e+01
   endloop
 endfacet
 facet normal  0.000000e+00  0.000000e+00  1.000000e+00
   outer loop
     vertex  1.364484e+02  8.950773e+01  2.000000e+01
     vertex  1.206897e+02  3.752910e+01  2.000000e+01
     vertex  1.227928e+02  3.448230e+01  2.000000e+01
   endloop
 endfacet
 facet normal  0.000000e+00  0.000000e+00  1.000000e+00
   outer loop
     vertex  1.364484e+02  8.950773e+01  2.000000e+01
     vertex  1.179186e+02  3.998408e+01  2.000000e+01
     vertex  1.206897e+02  3.752910e+01  2.000000e+01
   endloop
 endfacet
 facet normal  0.000000e+00  0.000000e+00  1.000000e+00
   outer loop
     vertex  1.364484e+02  8.950773e+01  2.000000e+01
     vertex  1.146405e+02  4.170455e+01  2.000000e+01
     vertex  1.179186e+02  3.998408e+01  2.000000e+01
   endloop
 endfacet
 facet normal  0.000000e+00  0.000000e+00  1.000000e+00
   outer loop
     vertex  1.364484e+02  8.950773e+01  2.000000e+01
     vertex  1.110460e+02  4.259053e+01  2.000000e+01
     vertex  1.146405e+02  4.170455e+01  2.000000e+01
   endloop
 endfacet
 facet normal  0.000000e+00  0.000000e+00  1.000000e+00
   outer loop
     vertex  1.364484e+02  8.950773e+01  2.000000e+01
     vertex  1.073438e+02  4.259053e+01  2.000000e+01
     vertex  1.110460e+02  4.259053e+01  2.000000e+01
   endloop
 endfacet
 facet normal  0.000000e+00  0.000000e+00  1.000000e+00
   outer loop
     vertex  1.364484e+02  8.950773e+01  2.000000e+01
     vertex  1.037493e+02  4.170455e+01  2.000000e+01
     vertex  1.073438e+02  4.259053e+01  2.000000e+01
   endloop
 endfacet
 facet normal  0.000000e+00  0.000000e+00  1.000000e+00
   outer loop
     vertex  1.364484e+02  8.950773e+01  2.000000e+01
     vertex  1.004712e+02  3.998408e+01  2.000000e+01
     vertex  1.037493e+02  4.170455e+01  2.000000e+01
   endloop
 endfacet
 facet normal  0.000000e+00  0.000000e+00  1.000000e+00
   outer loop
     vertex  1.364484e+02  8.950773e+01  2.000000e+01
     vertex  0.000000e+00  8.950773e+01  2.000000e+01
     vertex  1.004712e+02  3.998408e+01  2.000000e+01
   endloop
 endfacet
 facet normal  0.000000e+00  0.000000e+00  1.000000e+00
   outer loop
     vertex  1.364484e+02  8.950773e+01  2.000000e+01
     vertex  1.241056e+02  3.102074e+01  2.000000e+01
     vertex  1.364484e+02  0.000000e+00  2.000000e+01
   endloop
 endfacet
 facet normal  0.000000e+00  1.000000e+00  0.000000e+00
   outer loop
     vertex  1.364484e+02  8.950773e+01  0.000000e+00
     vertex  0.000000e+00  8.950773e+01  0.000000e+00
     vertex  0.000000e+00  8.950773e+01  2.000000e+01
   endloop
 endfacet
 facet normal  0.000000e+00  1.000000e+00  0.000000e+00
   outer loop
     vertex  1.364484e+02  8.950773e+01  2.000000e+01
     vertex  1.364484e+02  8.950773e+01  0.000000e+00
     vertex  0.000000e+00  8.950773e+01  2.000000e+01
   endloop
 endfacet
 facet normal  0.000000e+00  0.000000e+00 -1.000000e+00
   outer loop
     vertex  1.364484e+02  0.000000e+00  0.000000e+00
     vertex  0.000000e+00  0.000000e+00  0.000000e+00
     vertex  0.000000e+00  8.950773e+01  0.000000e+00
   endloop
 endfacet
 facet normal -0.000000e+00 -0.000000e+00 -1.000000e+00
   outer loop
     vertex  1.364484e+02  8.950773e+01  0.000000e+00
     vertex  1.364484e+02  0.000000e+00  0.000000e+00
     vertex  0.000000e+00  8.950773e+01  0.000000e+00
   endloop
 endfacet
 facet normal  1.000000e+00  0.000000e+00  0.000000e+00
   outer loop
     vertex  1.364484e+02  0.000000e+00  2.000000e+01
     vertex  1.364484e+02  0.000000e+00  0.000000e+00
     vertex  1.364484e+02  8.950773e+01  0.000000e+00
   endloop
 endfacet
 facet normal  1.000000e+00 -0.000000e+00  0.000000e+00
   outer loop
     vertex  1.364484e+02  0.000000e+00  2.000000e+01
     vertex  1.364484e+02  8.950773e+01  0.000000e+00
     vertex  1.364484e+02  8.950773e+01  2.000000e+01
   endloop
 endfacet
 facet normal  9.976598e-01  6.824180e-02 -4.238451e-03
   outer loop
     vertex  1.244245e+02  2.943885e+01  2.374145e+01
     vertex  1.245677e+02  2.734559e+01  2.374145e+01
     vertex  1.245518e+02  2.734559e+01  2.000000e+01
   endloop
 endfacet
 facet normal  9.696559e-01  6.632628e-02  2.353045e-01
   outer loop
     vertex  1.244245e+02  2.943885e+01  2.374145e+01
     vertex  1.236854e+02  2.734559e+01  2.737741e+01
     vertex  1.245677e+02  2.734559e+01  2.374145e+01
   endloop
 endfacet
 facet normal  9.921468e-01  1.204684e-01 -3.364569e-02
   outer loop
     vertex  1.244245e+02  2.943885e+01  2.374145e+01
     vertex  1.245518e+02  2.734559e+01  2.000000e+01
     vertex  1.241056e+02  3.102074e+01  2.000000e+01
   endloop
 endfacet
 facet normal  9.346074e-01  3.544498e-01 -2.957029e-02
   outer loop
     vertex  1.232950e+02  3.347013e+01  2.374145e+01
     vertex  1.241056e+02  3.102074e+01  2.000000e+01
     vertex  1.227928e+02  3.448230e+01  2.000000e+01
   endloop
 endfacet
 facet normal  9.624252e-01  2.696589e-01  3.196574e-02
   outer loop
     vertex  1.232950e+02  3.347013e+01  2.374145e+01
     vertex  1.244245e+02  2.943885e+01  2.374145e+01
     vertex  1.241056e+02  3.102074e+01  2.000000e+01
   endloop
 endfacet
 facet normal  8.227951e-01  5.679344e-01 -2.141931e-02
   outer loop
     vertex  1.211198e+02  3.704718e+01  2.374145e+01
     vertex  1.227928e+02  3.448230e+01  2.000000e+01
     vertex  1.206897e+02  3.752910e+01  2.000000e+01
   endloop
 endfacet
 facet normal  8.541337e-01  5.194102e-01  2.585874e-02
   outer loop
     vertex  1.211198e+02  3.704718e+01  2.374145e+01
     vertex  1.232950e+02  3.347013e+01  2.374145e+01
     vertex  1.227928e+02  3.448230e+01  2.000000e+01
   endloop
 endfacet
 facet normal  9.540475e-01  1.311308e-01  2.694402e-01
   outer loop
     vertex  1.231480e+02  3.125507e+01  2.737741e+01
     vertex  1.236854e+02  2.734559e+01  2.737741e+01
     vertex  1.244245e+02  2.943885e+01  2.374145e+01
   endloop
 endfacet
 facet normal  9.436167e-01  2.643890e-01  1.992137e-01
   outer loop
     vertex  1.231480e+02  3.125507e+01  2.737741e+01
     vertex  1.244245e+02  2.943885e+01  2.374145e+01
     vertex  1.232950e+02  3.347013e+01  2.374145e+01
   endloop
 endfacet
 facet normal  6.630946e-01  7.484791e-01 -9.195471e-03
   outer loop
     vertex  1.180601e+02  3.990471e+01  2.374145e+01
     vertex  1.206897e+02  3.752910e+01  2.000000e+01
     vertex  1.179186e+02  3.998408e+01  2.000000e+01
   endloop
 endfacet
 facet normal  4.647228e-01  8.854554e-01  1.211309e-03
   outer loop
     vertex  1.180601e+02  3.990471e+01  2.374145e+01
     vertex  1.179186e+02  3.998408e+01  2.000000e+01
     vertex  1.146405e+02  4.170455e+01  2.000000e+01
   endloop
 endfacet
 facet normal  6.824692e-01  7.307461e-01  1.568105e-02
   outer loop
     vertex  1.180601e+02  3.990471e+01  2.374145e+01
     vertex  1.211198e+02  3.704718e+01  2.374145e+01
     vertex  1.206897e+02  3.752910e+01  2.000000e+01
   endloop
 endfacet
 facet normal  8.832902e-01  3.836671e-01  2.694402e-01
   outer loop
     vertex  1.215758e+02  3.487461e+01  2.737741e+01
     vertex  1.231480e+02  3.125507e+01  2.737741e+01
     vertex  1.232950e+02  3.347013e+01  2.374145e+01
   endloop
 endfacet
 facet normal  8.372935e-01  5.091695e-01  1.992137e-01
   outer loop
     vertex  1.215758e+02  3.487461e+01  2.737741e+01
     vertex  1.232950e+02  3.347013e+01  2.374145e+01
     vertex  1.211198e+02  3.704718e+01  2.374145e+01
   endloop
 endfacet
 facet normal  8.851919e-01  6.054879e-02  4.612690e-01
   outer loop
     vertex  1.218375e+02  2.908328e+01  3.069544e+01
     vertex  1.219564e+02  2.734559e+01  3.069544e+01
     vertex  1.236854e+02  2.734559e+01  2.737741e+01
   endloop
 endfacet
 facet normal  7.490406e-01  5.123578e-02  6.605399e-01
   outer loop
     vertex  1.218375e+02  2.908328e+01  3.069544e+01
     vertex  1.194817e+02  2.734559e+01  3.350165e+01
     vertex  1.219564e+02  2.734559e+01  3.069544e+01
   endloop
 endfacet
 facet normal  8.929804e-01  1.227373e-01  4.330377e-01
   outer loop
     vertex  1.218375e+02  2.908328e+01  3.069544e+01
     vertex  1.236854e+02  2.734559e+01  2.737741e+01
     vertex  1.231480e+02  3.125507e+01  2.737741e+01
   endloop
 endfacet
 facet normal  4.600549e-01  8.878657e-01  6.637110e-03
   outer loop
     vertex  1.143429e+02  4.183078e+01  2.374145e+01
     vertex  1.180601e+02  3.990471e+01  2.374145e+01
     vertex  1.146405e+02  4.170455e+01  2.000000e+01
   endloop
 endfacet
 facet normal  2.392931e-01  9.708504e-01 -1.372217e-02
   outer loop
     vertex  1.143429e+02  4.183078e+01  2.374145e+01
     vertex  1.146405e+02  4.170455e+01  2.000000e+01
     vertex  1.110460e+02  4.259053e+01  2.000000e+01
   endloop
 endfacet
 facet normal  7.470233e-01  6.077485e-01  2.694402e-01
   outer loop
     vertex  1.190854e+02  3.793575e+01  2.737741e+01
     vertex  1.215758e+02  3.487461e+01  2.737741e+01
     vertex  1.211198e+02  3.704718e+01  2.374145e+01
   endloop
 endfacet
 facet normal  6.688721e-01  7.161871e-01  1.992137e-01
   outer loop
     vertex  1.190854e+02  3.793575e+01  2.737741e+01
     vertex  1.211198e+02  3.704718e+01  2.374145e+01
     vertex  1.180601e+02  3.990471e+01  2.374145e+01
   endloop
 endfacet
 facet normal  8.412542e-01  2.357084e-01  4.865521e-01
   outer loop
     vertex  1.208999e+02  3.242977e+01  3.069544e+01
     vertex  1.218375e+02  2.908328e+01  3.069544e+01
     vertex  1.231480e+02  3.125507e+01  2.737741e+01
   endloop
 endfacet
 facet normal  8.267521e-01  3.591091e-01  4.330377e-01
   outer loop
     vertex  1.208999e+02  3.242977e+01  3.069544e+01
     vertex  1.231480e+02  3.125507e+01  2.737741e+01
     vertex  1.215758e+02  3.487461e+01  2.737741e+01
   endloop
 endfacet
 facet normal  0.000000e+00  9.996976e-01 -2.458909e-02
   outer loop
     vertex  1.102440e+02  4.268256e+01  2.374145e+01
     vertex  1.110460e+02  4.259053e+01  2.000000e+01
     vertex  1.073438e+02  4.259053e+01  2.000000e+01
   endloop
 endfacet
 facet normal  2.034172e-01  9.788974e-01  1.952571e-02
   outer loop
     vertex  1.102440e+02  4.268256e+01  2.374145e+01
     vertex  1.143429e+02  4.183078e+01  2.374145e+01
     vertex  1.110460e+02  4.259053e+01  2.000000e+01
   endloop
 endfacet
 facet normal  4.508435e-01  8.700885e-01  1.992137e-01
   outer loop
     vertex  1.158615e+02  4.021147e+01  2.737741e+01
     vertex  1.180601e+02  3.990471e+01  2.374145e+01
     vertex  1.143429e+02  4.183078e+01  2.374145e+01
   endloop
 endfacet
 facet normal  5.553530e-01  7.867560e-01  2.694402e-01
   outer loop
     vertex  1.158615e+02  4.021147e+01  2.737741e+01
     vertex  1.190854e+02  3.793575e+01  2.737741e+01
     vertex  1.180601e+02  3.990471e+01  2.374145e+01
   endloop
 endfacet
 facet normal  7.464649e-01  4.539353e-01  4.865521e-01
   outer loop
     vertex  1.190941e+02  3.539920e+01  3.069544e+01
     vertex  1.208999e+02  3.242977e+01  3.069544e+01
     vertex  1.215758e+02  3.487461e+01  2.737741e+01
   endloop
 endfacet
 facet normal  6.992074e-01  5.688474e-01  4.330377e-01
   outer loop
     vertex  1.190941e+02  3.539920e+01  3.069544e+01
     vertex  1.215758e+02  3.487461e+01  2.737741e+01
     vertex  1.190854e+02  3.793575e+01  2.737741e+01
   endloop
 endfacet
 facet normal  7.374951e-01  2.066364e-01  6.429637e-01
   outer loop
     vertex  1.191002e+02  3.012094e+01  3.350165e+01
     vertex  1.218375e+02  2.908328e+01  3.069544e+01
     vertex  1.208999e+02  3.242977e+01  3.069544e+01
   endloop
 endfacet
 facet normal  7.305342e-01  1.004096e-01  6.754537e-01
   outer loop
     vertex  1.191002e+02  3.012094e+01  3.350165e+01
     vertex  1.194817e+02  2.734559e+01  3.350165e+01
     vertex  1.218375e+02  2.908328e+01  3.069544e+01
   endloop
 endfacet
 facet normal -2.391978e-01  9.704636e-01 -3.138161e-02
   outer loop
     vertex  1.060672e+02  4.239686e+01  2.374145e+01
     vertex  1.073438e+02  4.259053e+01  2.000000e+01
     vertex  1.037493e+02  4.170455e+01  2.000000e+01
   endloop
 endfacet
 facet normal -6.821499e-02  9.972679e-01  2.834680e-02
   outer loop
     vertex  1.060672e+02  4.239686e+01  2.374145e+01
     vertex  1.102440e+02  4.268256e+01  2.374145e+01
     vertex  1.073438e+02  4.259053e+01  2.000000e+01
   endloop
 endfacet
 facet normal  3.224948e-01  9.074134e-01  2.694402e-01
   outer loop
     vertex  1.121431e+02  4.153298e+01  2.737741e+01
     vertex  1.158615e+02  4.021147e+01  2.737741e+01
     vertex  1.143429e+02  4.183078e+01  2.374145e+01
   endloop
 endfacet
 facet normal  1.993780e-01  9.594594e-01  1.992137e-01
   outer loop
     vertex  1.121431e+02  4.153298e+01  2.737741e+01
     vertex  1.143429e+02  4.183078e+01  2.374145e+01
     vertex  1.102440e+02  4.268256e+01  2.374145e+01
   endloop
 endfacet
 facet normal  5.198057e-01  7.363969e-01  4.330377e-01
   outer loop
     vertex  1.165542e+02  3.777132e+01  3.069544e+01
     vertex  1.190854e+02  3.793575e+01  2.737741e+01
     vertex  1.158615e+02  4.021147e+01  2.737741e+01
   endloop
 endfacet
 facet normal  5.963136e-01  6.384960e-01  4.865521e-01
   outer loop
     vertex  1.165542e+02  3.777132e+01  3.069544e+01
     vertex  1.190941e+02  3.539920e+01  3.069544e+01
     vertex  1.190854e+02  3.793575e+01  2.737741e+01
   endloop
 endfacet
 facet normal  6.763538e-01  2.937819e-01  6.754537e-01
   outer loop
     vertex  1.179842e+02  3.269045e+01  3.350165e+01
     vertex  1.191002e+02  3.012094e+01  3.350165e+01
     vertex  1.208999e+02  3.242977e+01  3.069544e+01
   endloop
 endfacet
 facet normal  6.543969e-01  3.979476e-01  6.429637e-01
   outer loop
     vertex  1.179842e+02  3.269045e+01  3.350165e+01
     vertex  1.208999e+02  3.242977e+01  3.069544e+01
     vertex  1.190941e+02  3.539920e+01  3.069544e+01
   endloop
 endfacet
 facet normal  5.689773e-01  3.891912e-02  8.214317e-01
   outer loop
     vertex  1.163388e+02  2.832750e+01  3.563208e+01
     vertex  1.164060e+02  2.734559e+01  3.563208e+01
     vertex  1.194817e+02  2.734559e+01  3.350165e+01
   endloop
 endfacet
 facet normal  3.554163e-01  2.431114e-02  9.343919e-01
   outer loop
     vertex  1.163388e+02  2.832750e+01  3.563208e+01
     vertex  1.129090e+02  2.734559e+01  3.696226e+01
     vertex  1.164060e+02  2.734559e+01  3.563208e+01
   endloop
 endfacet
 facet normal  5.761717e-01  7.919298e-02  8.134830e-01
   outer loop
     vertex  1.163388e+02  2.832750e+01  3.563208e+01
     vertex  1.194817e+02  2.734559e+01  3.350165e+01
     vertex  1.191002e+02  3.012094e+01  3.350165e+01
   endloop
 endfacet
 facet normal -4.644529e-01  8.849411e-01 -3.409850e-02
   outer loop
     vertex  1.021224e+02  4.099487e+01  2.374145e+01
     vertex  1.037493e+02  4.170455e+01  2.000000e+01
     vertex  1.004712e+02  3.998408e+01  2.000000e+01
   endloop
 endfacet
 facet normal -3.346962e-01  9.417447e-01  3.309663e-02
   outer loop
     vertex  1.021224e+02  4.099487e+01  2.374145e+01
     vertex  1.060672e+02  4.239686e+01  2.374145e+01
     vertex  1.037493e+02  4.170455e+01  2.000000e+01
   endloop
 endfacet
 facet normal  6.571861e-02  9.607721e-01  2.694402e-01
   outer loop
     vertex  1.082060e+02  4.180228e+01  2.737741e+01
     vertex  1.121431e+02  4.153298e+01  2.737741e+01
     vertex  1.102440e+02  4.268256e+01  2.374145e+01
   endloop
 endfacet
 facet normal -6.687457e-02  9.776716e-01  1.992137e-01
   outer loop
     vertex  1.082060e+02  4.180228e+01  2.737741e+01
     vertex  1.102440e+02  4.268256e+01  2.374145e+01
     vertex  1.060672e+02  4.239686e+01  2.374145e+01
   endloop
 endfacet
 facet normal  4.019365e-01  7.757023e-01  4.865521e-01
   outer loop
     vertex  1.134685e+02  3.937022e+01  3.069544e+01
     vertex  1.165542e+02  3.777132e+01  3.069544e+01
     vertex  1.158615e+02  4.021147e+01  2.737741e+01
   endloop
 endfacet
 facet normal  3.018524e-01  8.493312e-01  4.330377e-01
   outer loop
     vertex  1.134685e+02  3.937022e+01  3.069544e+01
     vertex  1.158615e+02  4.021147e+01  2.737741e+01
     vertex  1.121431e+02  4.153298e+01  2.737741e+01
   endloop
 endfacet
 facet normal  5.227651e-01  5.597448e-01  6.429637e-01
   outer loop
     vertex  1.162162e+02  3.486356e+01  3.350165e+01
     vertex  1.190941e+02  3.539920e+01  3.069544e+01
     vertex  1.165542e+02  3.777132e+01  3.069544e+01
   endloop
 endfacet
 facet normal  5.720113e-01  4.653657e-01  6.754537e-01
   outer loop
     vertex  1.162162e+02  3.486356e+01  3.350165e+01
     vertex  1.179842e+02  3.269045e+01  3.350165e+01
     vertex  1.190941e+02  3.539920e+01  3.069544e+01
   endloop
 endfacet
 facet normal  5.334397e-01  2.317056e-01  8.134830e-01
   outer loop
     vertex  1.158090e+02  3.021850e+01  3.563208e+01
     vertex  1.191002e+02  3.012094e+01  3.350165e+01
     vertex  1.179842e+02  3.269045e+01  3.350165e+01
   endloop
 endfacet
 facet normal  5.402926e-01  1.513829e-01  8.277482e-01
   outer loop
     vertex  1.158090e+02  3.021850e+01  3.563208e+01
     vertex  1.163388e+02  2.832750e+01  3.563208e+01
     vertex  1.191002e+02  3.012094e+01  3.350165e+01
   endloop
 endfacet
 facet normal -6.627672e-01  7.481095e-01 -3.274007e-02
   outer loop
     vertex  9.870214e+01  3.858059e+01  2.374145e+01
     vertex  1.004712e+02  3.998408e+01  2.000000e+01
     vertex  9.770009e+01  3.752910e+01  2.000000e+01
   endloop
 endfacet
 facet normal -5.763513e-01  8.165038e-01  3.377515e-02
   outer loop
     vertex  9.870214e+01  3.858059e+01  2.374145e+01
     vertex  1.021224e+02  4.099487e+01  2.374145e+01
     vertex  1.004712e+02  3.998408e+01  2.000000e+01
   endloop
 endfacet
 facet normal -1.959316e-01  9.428747e-01  2.694402e-01
   outer loop
     vertex  1.043423e+02  4.099939e+01  2.737741e+01
     vertex  1.082060e+02  4.180228e+01  2.737741e+01
     vertex  1.060672e+02  4.239686e+01  2.374145e+01
   endloop
 endfacet
 facet normal -3.281673e-01  9.233743e-01  1.992137e-01
   outer loop
     vertex  1.043423e+02  4.099939e+01  2.737741e+01
     vertex  1.060672e+02  4.239686e+01  2.374145e+01
     vertex  1.021224e+02  4.099487e+01  2.374145e+01
   endloop
 endfacet
 facet normal  6.151206e-02  8.992745e-01  4.330377e-01
   outer loop
     vertex  1.100658e+02  4.007731e+01  3.069544e+01
     vertex  1.121431e+02  4.153298e+01  2.737741e+01
     vertex  1.082060e+02  4.180228e+01  2.737741e+01
   endloop
 endfacet
 facet normal  1.777497e-01  8.553784e-01  4.865521e-01
   outer loop
     vertex  1.100658e+02  4.007731e+01  3.069544e+01
     vertex  1.134685e+02  3.937022e+01  3.069544e+01
     vertex  1.121431e+02  4.153298e+01  2.737741e+01
   endloop
 endfacet
 facet normal  4.252454e-01  6.024355e-01  6.754537e-01
   outer loop
     vertex  1.139275e+02  3.647910e+01  3.350165e+01
     vertex  1.162162e+02  3.486356e+01  3.350165e+01
     vertex  1.165542e+02  3.777132e+01  3.069544e+01
   endloop
 endfacet
 facet normal  3.523623e-01  6.800283e-01  6.429637e-01
   outer loop
     vertex  1.139275e+02  3.647910e+01  3.350165e+01
     vertex  1.165542e+02  3.777132e+01  3.069544e+01
     vertex  1.134685e+02  3.937022e+01  3.069544e+01
   endloop
 endfacet
 facet normal  4.511449e-01  3.670336e-01  8.134830e-01
   outer loop
     vertex  1.147886e+02  3.189643e+01  3.563208e+01
     vertex  1.179842e+02  3.269045e+01  3.350165e+01
     vertex  1.162162e+02  3.486356e+01  3.350165e+01
   endloop
 endfacet
 facet normal  4.794145e-01  2.915384e-01  8.277482e-01
   outer loop
     vertex  1.147886e+02  3.189643e+01  3.563208e+01
     vertex  1.158090e+02  3.021850e+01  3.563208e+01
     vertex  1.179842e+02  3.269045e+01  3.350165e+01
   endloop
 endfacet
 facet normal  1.208444e-01  1.660968e-02  9.925325e-01
   outer loop
     vertex  1.127712e+02  2.834763e+01  3.696226e+01
     vertex  1.091949e+02  2.734559e+01  3.741446e+01
     vertex  1.129090e+02  2.734559e+01  3.696226e+01
   endloop
 endfacet
 facet normal  3.491906e-01  4.799514e-02  9.358218e-01
   outer loop
     vertex  1.127712e+02  2.834763e+01  3.696226e+01
     vertex  1.129090e+02  2.734559e+01  3.696226e+01
     vertex  1.163388e+02  2.832750e+01  3.563208e+01
   endloop
 endfacet
 facet normal  3.481723e-01  9.755331e-02  9.323408e-01
   outer loop
     vertex  1.127712e+02  2.834763e+01  3.696226e+01
     vertex  1.163388e+02  2.832750e+01  3.563208e+01
     vertex  1.158090e+02  3.021850e+01  3.563208e+01
   endloop
 endfacet
 facet normal -8.226770e-01  5.678529e-01 -2.730611e-02
   outer loop
     vertex  9.606008e+01  3.533305e+01  2.374145e+01
     vertex  9.770009e+01  3.752910e+01  2.000000e+01
     vertex  9.559703e+01  3.448230e+01  2.000000e+01
   endloop
 endfacet
 facet normal -7.753532e-01  6.307966e-01  3.038247e-02
   outer loop
     vertex  9.606008e+01  3.533305e+01  2.374145e+01
     vertex  9.870214e+01  3.858059e+01  2.374145e+01
     vertex  9.770009e+01  3.752910e+01  2.000000e+01
   endloop
 endfacet
 facet normal -5.651214e-01  8.005946e-01  1.992137e-01
   outer loop
     vertex  1.008385e+02  3.918387e+01  2.737741e+01
     vertex  1.021224e+02  4.099487e+01  2.374145e+01
     vertex  9.870214e+01  3.858059e+01  2.374145e+01
   endloop
 endfacet
 facet normal -4.430505e-01  8.550487e-01  2.694402e-01
   outer loop
     vertex  1.008385e+02  3.918387e+01  2.737741e+01
     vertex  1.043423e+02  4.099939e+01  2.737741e+01
     vertex  1.021224e+02  4.099487e+01  2.374145e+01
   endloop
 endfacet
 facet normal -1.833903e-01  8.825227e-01  4.330377e-01
   outer loop
     vertex  1.065985e+02  3.984014e+01  3.069544e+01
     vertex  1.082060e+02  4.180228e+01  2.737741e+01
     vertex  1.043423e+02  4.099939e+01  2.737741e+01
   endloop
 endfacet
 facet normal -5.962009e-02  8.716149e-01  4.865521e-01
   outer loop
     vertex  1.065985e+02  3.984014e+01  3.069544e+01
     vertex  1.100658e+02  4.007731e+01  3.069544e+01
     vertex  1.082060e+02  4.180228e+01  2.737741e+01
   endloop
 endfacet
 facet normal  1.558263e-01  7.498772e-01  6.429637e-01
   outer loop
     vertex  1.112878e+02  3.741725e+01  3.350165e+01
     vertex  1.134685e+02  3.937022e+01  3.069544e+01
     vertex  1.100658e+02  4.007731e+01  3.069544e+01
   endloop
 endfacet
 facet normal  2.469410e-01  6.948254e-01  6.754537e-01
   outer loop
     vertex  1.112878e+02  3.741725e+01  3.350165e+01
     vertex  1.139275e+02  3.647910e+01  3.350165e+01
     vertex  1.134685e+02  3.937022e+01  3.069544e+01
   endloop
 endfacet
 facet normal  3.829804e-01  4.100719e-01  8.277482e-01
   outer loop
     vertex  1.133534e+02  3.323685e+01  3.563208e+01
     vertex  1.147886e+02  3.189643e+01  3.563208e+01
     vertex  1.162162e+02  3.486356e+01  3.350165e+01
   endloop
 endfacet
 facet normal  3.353908e-01  4.751405e-01  8.134830e-01
   outer loop
     vertex  1.133534e+02  3.323685e+01  3.563208e+01
     vertex  1.162162e+02  3.486356e+01  3.350165e+01
     vertex  1.139275e+02  3.647910e+01  3.350165e+01
   endloop
 endfacet
 facet normal  3.089416e-01  1.878715e-01  9.323408e-01
   outer loop
     vertex  1.123683e+02  2.927536e+01  3.696226e+01
     vertex  1.158090e+02  3.021850e+01  3.563208e+01
     vertex  1.147886e+02  3.189643e+01  3.563208e+01
   endloop
 endfacet
 facet normal  1.118819e-01  4.859718e-02  9.925325e-01
   outer loop
     vertex  1.123683e+02  2.927536e+01  3.696226e+01
     vertex  1.091949e+02  2.734559e+01  3.741446e+01
     vertex  1.127712e+02  2.834763e+01  3.696226e+01
   endloop
 endfacet
 facet normal  3.232927e-01  1.404258e-01  9.358218e-01
   outer loop
     vertex  1.123683e+02  2.927536e+01  3.696226e+01
     vertex  1.127712e+02  2.834763e+01  3.696226e+01
     vertex  1.158090e+02  3.021850e+01  3.563208e+01
   endloop
 endfacet
 facet normal -9.348682e-01  3.545487e-01 -1.779692e-02
   outer loop
     vertex  9.439216e+01  3.149312e+01  2.374145e+01
     vertex  9.559703e+01  3.448230e+01  2.000000e+01
     vertex  9.428423e+01  3.102074e+01  2.000000e+01
   endloop
 endfacet
 facet normal -9.169704e-01  3.982964e-01  2.291834e-02
   outer loop
     vertex  9.439216e+01  3.149312e+01  2.374145e+01
     vertex  9.606008e+01  3.533305e+01  2.374145e+01
     vertex  9.559703e+01  3.448230e+01  2.000000e+01
   endloop
 endfacet
 facet normal -7.601630e-01  6.184385e-01  1.992137e-01
   outer loop
     vertex  9.795448e+01  3.649035e+01  2.737741e+01
     vertex  9.870214e+01  3.858059e+01  2.374145e+01
     vertex  9.606008e+01  3.533305e+01  2.374145e+01
   endloop
 endfacet
 facet normal -6.573104e-01  7.038075e-01  2.694402e-01
   outer loop
     vertex  9.795448e+01  3.649035e+01  2.737741e+01
     vertex  1.008385e+02  3.918387e+01  2.737741e+01
     vertex  9.870214e+01  3.858059e+01  2.374145e+01
   endloop
 endfacet
 facet normal -4.146915e-01  8.003183e-01  4.330377e-01
   outer loop
     vertex  1.033238e+02  3.867631e+01  3.069544e+01
     vertex  1.043423e+02  4.099939e+01  2.737741e+01
     vertex  1.008385e+02  3.918387e+01  2.737741e+01
   endloop
 endfacet
 facet normal -2.925681e-01  8.232077e-01  4.865521e-01
   outer loop
     vertex  1.033238e+02  3.867631e+01  3.069544e+01
     vertex  1.065985e+02  3.984014e+01  3.069544e+01
     vertex  1.043423e+02  4.099939e+01  2.737741e+01
   endloop
 endfacet
 facet normal -5.226663e-02  7.641111e-01  6.429637e-01
   outer loop
     vertex  1.084929e+02  3.760842e+01  3.350165e+01
     vertex  1.100658e+02  4.007731e+01  3.069544e+01
     vertex  1.065985e+02  3.984014e+01  3.069544e+01
   endloop
 endfacet
 facet normal  5.032212e-02  7.356833e-01  6.754537e-01
   outer loop
     vertex  1.084929e+02  3.760842e+01  3.350165e+01
     vertex  1.112878e+02  3.741725e+01  3.350165e+01
     vertex  1.100658e+02  4.007731e+01  3.069544e+01
   endloop
 endfacet
 facet normal  1.947622e-01  5.480083e-01  8.134830e-01
   outer loop
     vertex  1.116098e+02  3.414034e+01  3.563208e+01
     vertex  1.139275e+02  3.647910e+01  3.350165e+01
     vertex  1.112878e+02  3.741725e+01  3.350165e+01
   endloop
 endfacet
 facet normal  2.581424e-01  4.981921e-01  8.277482e-01
   outer loop
     vertex  1.116098e+02  3.414034e+01  3.563208e+01
     vertex  1.133534e+02  3.323685e+01  3.563208e+01
     vertex  1.139275e+02  3.647910e+01  3.350165e+01
   endloop
 endfacet
 facet normal  9.462169e-02  7.698045e-02  9.925325e-01
   outer loop
     vertex  1.117299e+02  3.005996e+01  3.696226e+01
     vertex  1.091949e+02  2.734559e+01  3.741446e+01
     vertex  1.123683e+02  2.927536e+01  3.696226e+01
   endloop
 endfacet
 facet normal  2.467980e-01  2.642562e-01  9.323408e-01
   outer loop
     vertex  1.117299e+02  3.005996e+01  3.696226e+01
     vertex  1.147886e+02  3.189643e+01  3.563208e+01
     vertex  1.133534e+02  3.323685e+01  3.563208e+01
   endloop
 endfacet
 facet normal  2.734177e-01  2.224418e-01  9.358218e-01
   outer loop
     vertex  1.117299e+02  3.005996e+01  3.696226e+01
     vertex  1.123683e+02  2.927536e+01  3.696226e+01
     vertex  1.147886e+02  3.189643e+01  3.563208e+01
   endloop
 endfacet
 facet normal -9.927000e-01  1.205356e-01 -4.217380e-03
   outer loop
     vertex  9.382209e+01  2.734559e+01  2.374145e+01
     vertex  9.428423e+01  3.102074e+01  2.000000e+01
     vertex  9.383799e+01  2.734559e+01  2.000000e+01
   endloop
 endfacet
 facet normal -9.927000e-01 -1.205356e-01 -4.217380e-03
   outer loop
     vertex  9.382209e+01  2.734559e+01  2.374145e+01
     vertex  9.383799e+01  2.734559e+01  2.000000e+01
     vertex  9.428423e+01  2.367044e+01  2.000000e+01
   endloop
 endfacet
 facet normal -9.906217e-01  1.361578e-01  1.138469e-02
   outer loop
     vertex  9.382209e+01  2.734559e+01  2.374145e+01
     vertex  9.439216e+01  3.149312e+01  2.374145e+01
     vertex  9.428423e+01  3.102074e+01  2.000000e+01
   endloop
 endfacet
 facet normal -8.228205e-01  5.003682e-01  2.694402e-01
   outer loop
     vertex  9.590407e+01  3.311861e+01  2.737741e+01
     vertex  9.795448e+01  3.649035e+01  2.737741e+01
     vertex  9.606008e+01  3.533305e+01  2.374145e+01
   endloop
 endfacet
 facet normal -8.988268e-01  3.904156e-01  1.992137e-01
   outer loop
     vertex  9.590407e+01  3.311861e+01  2.737741e+01
     vertex  9.606008e+01  3.533305e+01  2.374145e+01
     vertex  9.439216e+01  3.149312e+01  2.374145e+01
   endloop
 endfacet
 facet normal -6.152369e-01  6.587579e-01  4.330377e-01
   outer loop
     vertex  1.004845e+02  3.667213e+01  3.069544e+01
     vertex  1.008385e+02  3.918387e+01  2.737741e+01
     vertex  9.795448e+01  3.649035e+01  2.737741e+01
   endloop
 endfacet
 facet normal -5.038177e-01  7.137470e-01  4.865521e-01
   outer loop
     vertex  1.004845e+02  3.667213e+01  3.069544e+01
     vertex  1.033238e+02  3.867631e+01  3.069544e+01
     vertex  1.008385e+02  3.918387e+01  2.737741e+01
   endloop
 endfacet
 facet normal -1.500289e-01  7.219789e-01  6.754537e-01
   outer loop
     vertex  1.057501e+02  3.703845e+01  3.350165e+01
     vertex  1.084929e+02  3.760842e+01  3.350165e+01
     vertex  1.065985e+02  3.984014e+01  3.069544e+01
   endloop
 endfacet
 facet normal -2.564832e-01  7.216745e-01  6.429637e-01
   outer loop
     vertex  1.057501e+02  3.703845e+01  3.350165e+01
     vertex  1.065985e+02  3.984014e+01  3.069544e+01
     vertex  1.033238e+02  3.867631e+01  3.069544e+01
   endloop
 endfacet
 facet normal  3.968902e-02  5.802329e-01  8.134830e-01
   outer loop
     vertex  1.096870e+02  3.453989e+01  3.563208e+01
     vertex  1.112878e+02  3.741725e+01  3.350165e+01
     vertex  1.084929e+02  3.760842e+01  3.350165e+01
   endloop
 endfacet
 facet normal  1.141591e-01  5.493638e-01  8.277482e-01
   outer loop
     vertex  1.096870e+02  3.453989e+01  3.563208e+01
     vertex  1.116098e+02  3.414034e+01  3.563208e+01
     vertex  1.112878e+02  3.741725e+01  3.350165e+01
   endloop
 endfacet
 facet normal  1.663506e-01  3.210422e-01  9.323408e-01
   outer loop
     vertex  1.109036e+02  3.064325e+01  3.696226e+01
     vertex  1.133534e+02  3.323685e+01  3.563208e+01
     vertex  1.116098e+02  3.414034e+01  3.563208e+01
   endloop
 endfacet
 facet normal  7.034378e-02  9.965444e-02  9.925325e-01
   outer loop
     vertex  1.109036e+02  3.064325e+01  3.696226e+01
     vertex  1.091949e+02  2.734559e+01  3.741446e+01
     vertex  1.117299e+02  3.005996e+01  3.696226e+01
   endloop
 endfacet
 facet normal  2.032645e-01  2.879603e-01  9.358218e-01
   outer loop
     vertex  1.109036e+02  3.064325e+01  3.696226e+01
     vertex  1.117299e+02  3.005996e+01  3.696226e+01
     vertex  1.133534e+02  3.323685e+01  3.563208e+01
   endloop
 endfacet
 facet normal -9.906217e-01 -1.361578e-01  1.138469e-02
   outer loop
     vertex  9.439216e+01  2.319806e+01  2.374145e+01
     vertex  9.382209e+01  2.734559e+01  2.374145e+01
     vertex  9.428423e+01  2.367044e+01  2.000000e+01
   endloop
 endfacet
 facet normal -9.348682e-01 -3.545487e-01 -1.779692e-02
   outer loop
     vertex  9.439216e+01  2.319806e+01  2.374145e+01
     vertex  9.428423e+01  2.367044e+01  2.000000e+01
     vertex  9.559703e+01  2.020888e+01  2.000000e+01
   endloop
 endfacet
 facet normal -9.708287e-01  1.334373e-01  1.992137e-01
   outer loop
     vertex  9.483939e+01  2.931871e+01  2.737741e+01
     vertex  9.439216e+01  3.149312e+01  2.374145e+01
     vertex  9.382209e+01  2.734559e+01  2.374145e+01
   endloop
 endfacet
 facet normal -9.273058e-01  2.598189e-01  2.694402e-01
   outer loop
     vertex  9.483939e+01  2.931871e+01  2.737741e+01
     vertex  9.590407e+01  3.311861e+01  2.737741e+01
     vertex  9.439216e+01  3.149312e+01  2.374145e+01
   endloop
 endfacet
 facet normal -7.701530e-01  4.683404e-01  4.330377e-01
   outer loop
     vertex  9.829125e+01  3.397624e+01  3.069544e+01
     vertex  9.795448e+01  3.649035e+01  2.737741e+01
     vertex  9.590407e+01  3.311861e+01  2.737741e+01
   endloop
 endfacet
 facet normal -6.777014e-01  5.513510e-01  4.865521e-01
   outer loop
     vertex  9.829125e+01  3.397624e+01  3.069544e+01
     vertex  1.004845e+02  3.667213e+01  3.069544e+01
     vertex  9.795448e+01  3.649035e+01  2.737741e+01
   endloop
 endfacet
 facet normal -4.416775e-01  6.257145e-01  6.429637e-01
   outer loop
     vertex  1.032627e+02  3.574961e+01  3.350165e+01
     vertex  1.033238e+02  3.867631e+01  3.069544e+01
     vertex  1.004845e+02  3.667213e+01  3.069544e+01
   endloop
 endfacet
 facet normal -3.392530e-01  6.547287e-01  6.754537e-01
   outer loop
     vertex  1.032627e+02  3.574961e+01  3.350165e+01
     vertex  1.057501e+02  3.703845e+01  3.350165e+01
     vertex  1.033238e+02  3.867631e+01  3.069544e+01
   endloop
 endfacet
 facet normal -1.183277e-01  5.694242e-01  8.134830e-01
   outer loop
     vertex  1.077278e+02  3.440587e+01  3.563208e+01
     vertex  1.084929e+02  3.760842e+01  3.350165e+01
     vertex  1.057501e+02  3.703845e+01  3.350165e+01
   endloop
 endfacet
 facet normal -3.829080e-02  5.597917e-01  8.277482e-01
   outer loop
     vertex  1.077278e+02  3.440587e+01  3.563208e+01
     vertex  1.096870e+02  3.453989e+01  3.563208e+01
     vertex  1.084929e+02  3.760842e+01  3.350165e+01
   endloop
 endfacet
 facet normal  7.356577e-02  3.540179e-01  9.323408e-01
   outer loop
     vertex  1.099505e+02  3.098197e+01  3.696226e+01
     vertex  1.116098e+02  3.414034e+01  3.563208e+01
     vertex  1.096870e+02  3.453989e+01  3.563208e+01
   endloop
 endfacet
 facet normal  1.180362e-01  3.321220e-01  9.358218e-01
   outer loop
     vertex  1.099505e+02  3.098197e+01  3.696226e+01
     vertex  1.109036e+02  3.064325e+01  3.696226e+01
     vertex  1.116098e+02  3.414034e+01  3.563208e+01
   endloop
 endfacet
 facet normal  4.084880e-02  1.149375e-01  9.925325e-01
   outer loop
     vertex  1.099505e+02  3.098197e+01  3.696226e+01
     vertex  1.091949e+02  2.734559e+01  3.741446e+01
     vertex  1.109036e+02  3.064325e+01  3.696226e+01
   endloop
 endfacet
 facet normal -9.169704e-01 -3.982964e-01  2.291834e-02
   outer loop
     vertex  9.606008e+01  1.935813e+01  2.374145e+01
     vertex  9.439216e+01  2.319806e+01  2.374145e+01
     vertex  9.559703e+01  2.020888e+01  2.000000e+01
   endloop
 endfacet
 facet normal -8.226770e-01 -5.678529e-01 -2.730611e-02
   outer loop
     vertex  9.606008e+01  1.935813e+01  2.374145e+01
     vertex  9.559703e+01  2.020888e+01  2.000000e+01
     vertex  9.770009e+01  1.716208e+01  2.000000e+01
   endloop
 endfacet
 facet normal -9.630171e-01  0.000000e+00  2.694402e-01
   outer loop
     vertex  9.483939e+01  2.537247e+01  2.737741e+01
     vertex  9.483939e+01  2.931871e+01  2.737741e+01
     vertex  9.382209e+01  2.734559e+01  2.374145e+01
   endloop
 endfacet
 facet normal -9.708287e-01 -1.334373e-01  1.992137e-01
   outer loop
     vertex  9.483939e+01  2.537247e+01  2.737741e+01
     vertex  9.382209e+01  2.734559e+01  2.374145e+01
     vertex  9.439216e+01  2.319806e+01  2.374145e+01
   endloop
 endfacet
 facet normal -8.679504e-01  2.431883e-01  4.330377e-01
   outer loop
     vertex  9.690666e+01  3.078859e+01  3.069544e+01
     vertex  9.590407e+01  3.311861e+01  2.737741e+01
     vertex  9.483939e+01  2.931871e+01  2.737741e+01
   endloop
 endfacet
 facet normal -8.013231e-01  3.480637e-01  4.865521e-01
   outer loop
     vertex  9.690666e+01  3.078859e+01  3.069544e+01
     vertex  9.829125e+01  3.397624e+01  3.069544e+01
     vertex  9.590407e+01  3.311861e+01  2.737741e+01
   endloop
 endfacet
 facet normal -5.941147e-01  4.833481e-01  6.429637e-01
   outer loop
     vertex  1.012153e+02  3.383747e+01  3.350165e+01
     vertex  1.004845e+02  3.667213e+01  3.069544e+01
     vertex  9.829125e+01  3.397624e+01  3.069544e+01
   endloop
 endfacet
 facet normal -5.033163e-01  5.389202e-01  6.754537e-01
   outer loop
     vertex  1.012153e+02  3.383747e+01  3.350165e+01
     vertex  1.032627e+02  3.574961e+01  3.350165e+01
     vertex  1.004845e+02  3.667213e+01  3.069544e+01
   endloop
 endfacet
 facet normal -1.879009e-01  5.287023e-01  8.277482e-01
   outer loop
     vertex  1.058773e+02  3.374823e+01  3.563208e+01
     vertex  1.077278e+02  3.440587e+01  3.563208e+01
     vertex  1.057501e+02  3.703845e+01  3.350165e+01
   endloop
 endfacet
 facet normal -2.675686e-01  5.163840e-01  8.134830e-01
   outer loop
     vertex  1.058773e+02  3.374823e+01  3.563208e+01
     vertex  1.057501e+02  3.703845e+01  3.350165e+01
     vertex  1.032627e+02  3.574961e+01  3.350165e+01
   endloop
 endfacet
 facet normal  8.324247e-03  1.216962e-01  9.925325e-01
   outer loop
     vertex  1.089414e+02  3.105099e+01  3.696226e+01
     vertex  1.091949e+02  2.734559e+01  3.741446e+01
     vertex  1.099505e+02  3.098197e+01  3.696226e+01
   endloop
 endfacet
 facet normal -2.467514e-02  3.607378e-01  9.323408e-01
   outer loop
     vertex  1.089414e+02  3.105099e+01  3.696226e+01
     vertex  1.096870e+02  3.453989e+01  3.563208e+01
     vertex  1.077278e+02  3.440587e+01  3.563208e+01
   endloop
 endfacet
 facet normal  2.405364e-02  3.516518e-01  9.358218e-01
   outer loop
     vertex  1.089414e+02  3.105099e+01  3.696226e+01
     vertex  1.099505e+02  3.098197e+01  3.696226e+01
     vertex  1.096870e+02  3.453989e+01  3.563208e+01
   endloop
 endfacet
 facet normal -7.753532e-01 -6.307966e-01  3.038247e-02
   outer loop
     vertex  9.870214e+01  1.611059e+01  2.374145e+01
     vertex  9.606008e+01  1.935813e+01  2.374145e+01
     vertex  9.770009e+01  1.716208e+01  2.000000e+01
   endloop
 endfacet
 facet normal -6.627672e-01 -7.481095e-01 -3.274007e-02
   outer loop
     vertex  9.870214e+01  1.611059e+01  2.374145e+01
     vertex  9.770009e+01  1.716208e+01  2.000000e+01
     vertex  1.004712e+02  1.470710e+01  2.000000e+01
   endloop
 endfacet
 facet normal -9.273058e-01 -2.598189e-01  2.694402e-01
   outer loop
     vertex  9.590407e+01  2.157257e+01  2.737741e+01
     vertex  9.483939e+01  2.537247e+01  2.737741e+01
     vertex  9.439216e+01  2.319806e+01  2.374145e+01
   endloop
 endfacet
 facet normal -8.988268e-01 -3.904156e-01  1.992137e-01
   outer loop
     vertex  9.590407e+01  2.157257e+01  2.737741e+01
     vertex  9.439216e+01  2.319806e+01  2.374145e+01
     vertex  9.606008e+01  1.935813e+01  2.374145e+01
   endloop
 endfacet
 facet normal -9.013758e-01  0.000000e+00  4.330377e-01
   outer loop
     vertex  9.643343e+01  2.734559e+01  3.069544e+01
     vertex  9.483939e+01  2.931871e+01  2.737741e+01
     vertex  9.483939e+01  2.537247e+01  2.737741e+01
   endloop
 endfacet
 facet normal -8.655143e-01  1.189622e-01  4.865521e-01
   outer loop
     vertex  9.643343e+01  2.734559e+01  3.069544e+01
     vertex  9.690666e+01  3.078859e+01  3.069544e+01
     vertex  9.483939e+01  2.931871e+01  2.737741e+01
   endloop
 endfacet
 facet normal -6.300509e-01  3.831424e-01  6.754537e-01
   outer loop
     vertex  9.975971e+01  3.144387e+01  3.350165e+01
     vertex  1.012153e+02  3.383747e+01  3.350165e+01
     vertex  9.829125e+01  3.397624e+01  3.069544e+01
   endloop
 endfacet
 facet normal -7.024890e-01  3.051340e-01  6.429637e-01
   outer loop
     vertex  9.975971e+01  3.144387e+01  3.350165e+01
     vertex  9.829125e+01  3.397624e+01  3.069544e+01
     vertex  9.690666e+01  3.078859e+01  3.069544e+01
   endloop
 endfacet
 facet normal -3.969652e-01  4.250459e-01  8.134830e-01
   outer loop
     vertex  1.042729e+02  3.261573e+01  3.563208e+01
     vertex  1.032627e+02  3.574961e+01  3.350165e+01
     vertex  1.012153e+02  3.383747e+01  3.350165e+01
   endloop
 endfacet
 facet normal -3.235752e-01  4.584016e-01  8.277482e-01
   outer loop
     vertex  1.042729e+02  3.261573e+01  3.563208e+01
     vertex  1.058773e+02  3.374823e+01  3.563208e+01
     vertex  1.032627e+02  3.574961e+01  3.350165e+01
   endloop
 endfacet
 facet normal -2.481768e-02  1.194292e-01  9.925325e-01
   outer loop
     vertex  1.079511e+02  3.084520e+01  3.696226e+01
     vertex  1.091949e+02  2.734559e+01  3.741446e+01
     vertex  1.089414e+02  3.105099e+01  3.696226e+01
   endloop
 endfacet
 facet normal -1.210860e-01  3.407034e-01  9.323408e-01
   outer loop
     vertex  1.079511e+02  3.084520e+01  3.696226e+01
     vertex  1.077278e+02  3.440587e+01  3.563208e+01
     vertex  1.058773e+02  3.374823e+01  3.563208e+01
   endloop
 endfacet
 facet normal -7.171286e-02  3.451012e-01  9.358218e-01
   outer loop
     vertex  1.079511e+02  3.084520e+01  3.696226e+01
     vertex  1.089414e+02  3.105099e+01  3.696226e+01
     vertex  1.077278e+02  3.440587e+01  3.563208e+01
   endloop
 endfacet
 facet normal -5.763513e-01 -8.165038e-01  3.377515e-02
   outer loop
     vertex  1.021224e+02  1.369631e+01  2.374145e+01
     vertex  9.870214e+01  1.611059e+01  2.374145e+01
     vertex  1.004712e+02  1.470710e+01  2.000000e+01
   endloop
 endfacet
 facet normal -4.644529e-01 -8.849411e-01 -3.409850e-02
   outer loop
     vertex  1.021224e+02  1.369631e+01  2.374145e+01
     vertex  1.004712e+02  1.470710e+01  2.000000e+01
     vertex  1.037493e+02  1.298663e+01  2.000000e+01
   endloop
 endfacet
 facet normal -8.228205e-01 -5.003682e-01  2.694402e-01
   outer loop
     vertex  9.795448e+01  1.820083e+01  2.737741e+01
     vertex  9.590407e+01  2.157257e+01  2.737741e+01
     vertex  9.606008e+01  1.935813e+01  2.374145e+01
   endloop
 endfacet
 facet normal -7.601630e-01 -6.184385e-01  1.992137e-01
   outer loop
     vertex  9.795448e+01  1.820083e+01  2.737741e+01
     vertex  9.606008e+01  1.935813e+01  2.374145e+01
     vertex  9.870214e+01  1.611059e+01  2.374145e+01
   endloop
 endfacet
 facet normal -8.679504e-01 -2.431883e-01  4.330377e-01
   outer loop
     vertex  9.690666e+01  2.390259e+01  3.069544e+01
     vertex  9.483939e+01  2.537247e+01  2.737741e+01
     vertex  9.590407e+01  2.157257e+01  2.737741e+01
   endloop
 endfacet
 facet normal -8.655143e-01 -1.189622e-01  4.865521e-01
   outer loop
     vertex  9.690666e+01  2.390259e+01  3.069544e+01
     vertex  9.643343e+01  2.734559e+01  3.069544e+01
     vertex  9.483939e+01  2.537247e+01  2.737741e+01
   endloop
 endfacet
 facet normal -7.587630e-01  1.042896e-01  6.429637e-01
   outer loop
     vertex  9.900389e+01  2.874631e+01  3.350165e+01
     vertex  9.690666e+01  3.078859e+01  3.069544e+01
     vertex  9.643343e+01  2.734559e+01  3.069544e+01
   endloop
 endfacet
 facet normal -7.100575e-01  1.989488e-01  6.754537e-01
   outer loop
     vertex  9.900389e+01  2.874631e+01  3.350165e+01
     vertex  9.975971e+01  3.144387e+01  3.350165e+01
     vertex  9.690666e+01  3.078859e+01  3.069544e+01
   endloop
 endfacet
 facet normal -4.969207e-01  3.021842e-01  8.134830e-01
   outer loop
     vertex  1.030336e+02  3.109237e+01  3.563208e+01
     vertex  1.012153e+02  3.383747e+01  3.350165e+01
     vertex  9.975971e+01  3.144387e+01  3.350165e+01
   endloop
 endfacet
 facet normal -4.352514e-01  3.541033e-01  8.277482e-01
   outer loop
     vertex  1.030336e+02  3.109237e+01  3.563208e+01
     vertex  1.042729e+02  3.261573e+01  3.563208e+01
     vertex  1.012153e+02  3.383747e+01  3.350165e+01
   endloop
 endfacet
 facet normal -5.611899e-02  1.083047e-01  9.925325e-01
   outer loop
     vertex  1.070531e+02  3.037987e+01  3.696226e+01
     vertex  1.091949e+02  2.734559e+01  3.741446e+01
     vertex  1.079511e+02  3.084520e+01  3.696226e+01
   endloop
 endfacet
 facet normal -2.085165e-01  2.954005e-01  9.323408e-01
   outer loop
     vertex  1.070531e+02  3.037987e+01  3.696226e+01
     vertex  1.058773e+02  3.374823e+01  3.563208e+01
     vertex  1.042729e+02  3.261573e+01  3.563208e+01
   endloop
 endfacet
 facet normal -1.621607e-01  3.129560e-01  9.358218e-01
   outer loop
     vertex  1.070531e+02  3.037987e+01  3.696226e+01
     vertex  1.079511e+02  3.084520e+01  3.696226e+01
     vertex  1.058773e+02  3.374823e+01  3.563208e+01
   endloop
 endfacet
 facet normal -2.391978e-01 -9.704636e-01 -3.138161e-02
   outer loop
     vertex  1.060672e+02  1.229432e+01  2.374145e+01
     vertex  1.037493e+02  1.298663e+01  2.000000e+01
     vertex  1.073438e+02  1.210065e+01  2.000000e+01
   endloop
 endfacet
 facet normal -3.346962e-01 -9.417447e-01  3.309663e-02
   outer loop
     vertex  1.060672e+02  1.229432e+01  2.374145e+01
     vertex  1.021224e+02  1.369631e+01  2.374145e+01
     vertex  1.037493e+02  1.298663e+01  2.000000e+01
   endloop
 endfacet
 facet normal -5.651214e-01 -8.005946e-01  1.992137e-01
   outer loop
     vertex  1.008385e+02  1.550731e+01  2.737741e+01
     vertex  9.870214e+01  1.611059e+01  2.374145e+01
     vertex  1.021224e+02  1.369631e+01  2.374145e+01
   endloop
 endfacet
 facet normal -6.573104e-01 -7.038075e-01  2.694402e-01
   outer loop
     vertex  1.008385e+02  1.550731e+01  2.737741e+01
     vertex  9.795448e+01  1.820083e+01  2.737741e+01
     vertex  9.870214e+01  1.611059e+01  2.374145e+01
   endloop
 endfacet
 facet normal -7.701530e-01 -4.683404e-01  4.330377e-01
   outer loop
     vertex  9.829125e+01  2.071494e+01  3.069544e+01
     vertex  9.590407e+01  2.157257e+01  2.737741e+01
     vertex  9.795448e+01  1.820083e+01  2.737741e+01
   endloop
 endfacet
 facet normal -8.013231e-01 -3.480637e-01  4.865521e-01
   outer loop
     vertex  9.829125e+01  2.071494e+01  3.069544e+01
     vertex  9.690666e+01  2.390259e+01  3.069544e+01
     vertex  9.590407e+01  2.157257e+01  2.737741e+01
   endloop
 endfacet
 facet normal -7.587630e-01 -1.042896e-01  6.429637e-01
   outer loop
     vertex  9.900389e+01  2.594487e+01  3.350165e+01
     vertex  9.643343e+01  2.734559e+01  3.069544e+01
     vertex  9.690666e+01  2.390259e+01  3.069544e+01
   endloop
 endfacet
 facet normal -7.374024e-01  0.000000e+00  6.754537e-01
   outer loop
     vertex  9.900389e+01  2.594487e+01  3.350165e+01
     vertex  9.900389e+01  2.874631e+01  3.350165e+01
     vertex  9.643343e+01  2.734559e+01  3.069544e+01
   endloop
 endfacet
 facet normal -5.600218e-01  1.569108e-01  8.134830e-01
   outer loop
     vertex  1.022512e+02  2.929112e+01  3.563208e+01
     vertex  9.975971e+01  3.144387e+01  3.350165e+01
     vertex  9.900389e+01  2.874631e+01  3.350165e+01
   endloop
 endfacet
 facet normal -5.146470e-01  2.235427e-01  8.277482e-01
   outer loop
     vertex  1.022512e+02  2.929112e+01  3.563208e+01
     vertex  1.030336e+02  3.109237e+01  3.563208e+01
     vertex  9.975971e+01  3.144387e+01  3.350165e+01
   endloop
 endfacet
 facet normal -8.325821e-02  8.914777e-02  9.925325e-01
   outer loop
     vertex  1.063139e+02  2.968949e+01  3.696226e+01
     vertex  1.091949e+02  2.734559e+01  3.741446e+01
     vertex  1.070531e+02  3.037987e+01  3.696226e+01
   endloop
 endfacet
 facet normal -2.804822e-01  2.281892e-01  9.323408e-01
   outer loop
     vertex  1.063139e+02  2.968949e+01  3.696226e+01
     vertex  1.042729e+02  3.261573e+01  3.563208e+01
     vertex  1.030336e+02  3.109237e+01  3.563208e+01
   endloop
 endfacet
 facet normal -2.405819e-01  2.576003e-01  9.358218e-01
   outer loop
     vertex  1.063139e+02  2.968949e+01  3.696226e+01
     vertex  1.070531e+02  3.037987e+01  3.696226e+01
     vertex  1.042729e+02  3.261573e+01  3.563208e+01
   endloop
 endfacet
 facet normal -2.395834e-15 -9.996976e-01 -2.458909e-02
   outer loop
     vertex  1.102440e+02  1.200862e+01  2.374145e+01
     vertex  1.073438e+02  1.210065e+01  2.000000e+01
     vertex  1.110460e+02  1.210065e+01  2.000000e+01
   endloop
 endfacet
 facet normal -6.821499e-02 -9.972679e-01  2.834680e-02
   outer loop
     vertex  1.102440e+02  1.200862e+01  2.374145e+01
     vertex  1.060672e+02  1.229432e+01  2.374145e+01
     vertex  1.073438e+02  1.210065e+01  2.000000e+01
   endloop
 endfacet
 facet normal -3.281673e-01 -9.233743e-01  1.992137e-01
   outer loop
     vertex  1.043423e+02  1.369179e+01  2.737741e+01
     vertex  1.021224e+02  1.369631e+01  2.374145e+01
     vertex  1.060672e+02  1.229432e+01  2.374145e+01
   endloop
 endfacet
 facet normal -4.430505e-01 -8.550487e-01  2.694402e-01
   outer loop
     vertex  1.043423e+02  1.369179e+01  2.737741e+01
     vertex  1.008385e+02  1.550731e+01  2.737741e+01
     vertex  1.021224e+02  1.369631e+01  2.374145e+01
   endloop
 endfacet
 facet normal -6.777014e-01 -5.513510e-01  4.865521e-01
   outer loop
     vertex  1.004845e+02  1.801905e+01  3.069544e+01
     vertex  9.829125e+01  2.071494e+01  3.069544e+01
     vertex  9.795448e+01  1.820083e+01  2.737741e+01
   endloop
 endfacet
 facet normal -6.152369e-01 -6.587579e-01  4.330377e-01
   outer loop
     vertex  1.004845e+02  1.801905e+01  3.069544e+01
     vertex  9.795448e+01  1.820083e+01  2.737741e+01
     vertex  1.008385e+02  1.550731e+01  2.737741e+01
   endloop
 endfacet
 facet normal -7.100575e-01 -1.989488e-01  6.754537e-01
   outer loop
     vertex  9.975971e+01  2.324731e+01  3.350165e+01
     vertex  9.900389e+01  2.594487e+01  3.350165e+01
     vertex  9.690666e+01  2.390259e+01  3.069544e+01
   endloop
 endfacet
 facet normal -7.024890e-01 -3.051340e-01  6.429637e-01
   outer loop
     vertex  9.975971e+01  2.324731e+01  3.350165e+01
     vertex  9.690666e+01  2.390259e+01  3.069544e+01
     vertex  9.829125e+01  2.071494e+01  3.069544e+01
   endloop
 endfacet
 facet normal -5.815887e-01  0.000000e+00  8.134830e-01
   outer loop
     vertex  1.019838e+02  2.734559e+01  3.563208e+01
     vertex  9.900389e+01  2.874631e+01  3.350165e+01
     vertex  9.900389e+01  2.594487e+01  3.350165e+01
   endloop
 endfacet
 facet normal -5.558736e-01  7.640307e-02  8.277482e-01
   outer loop
     vertex  1.019838e+02  2.734559e+01  3.563208e+01
     vertex  1.022512e+02  2.929112e+01  3.563208e+01
     vertex  9.900389e+01  2.874631e+01  3.350165e+01
   endloop
 endfacet
 facet normal -3.011602e-01  1.831396e-01  9.358218e-01
   outer loop
     vertex  1.057883e+02  2.882528e+01  3.696226e+01
     vertex  1.063139e+02  2.968949e+01  3.696226e+01
     vertex  1.030336e+02  3.109237e+01  3.563208e+01
   endloop
 endfacet
 facet normal -3.316459e-01  1.440541e-01  9.323408e-01
   outer loop
     vertex  1.057883e+02  2.882528e+01  3.696226e+01
     vertex  1.030336e+02  3.109237e+01  3.563208e+01
     vertex  1.022512e+02  2.929112e+01  3.563208e+01
   endloop
 endfacet
 facet normal -1.042225e-01  6.337914e-02  9.925325e-01
   outer loop
     vertex  1.057883e+02  2.882528e+01  3.696226e+01
     vertex  1.091949e+02  2.734559e+01  3.741446e+01
     vertex  1.063139e+02  2.968949e+01  3.696226e+01
   endloop
 endfacet
 facet normal  2.392931e-01 -9.708504e-01 -1.372217e-02
   outer loop
     vertex  1.143429e+02  1.286040e+01  2.374145e+01
     vertex  1.110460e+02  1.210065e+01  2.000000e+01
     vertex  1.146405e+02  1.298663e+01  2.000000e+01
   endloop
 endfacet
 facet normal  2.034172e-01 -9.788974e-01  1.952571e-02
   outer loop
     vertex  1.143429e+02  1.286040e+01  2.374145e+01
     vertex  1.102440e+02  1.200862e+01  2.374145e+01
     vertex  1.110460e+02  1.210065e+01  2.000000e+01
   endloop
 endfacet
 facet normal -6.687457e-02 -9.776716e-01  1.992137e-01
   outer loop
     vertex  1.082060e+02  1.288890e+01  2.737741e+01
     vertex  1.060672e+02  1.229432e+01  2.374145e+01
     vertex  1.102440e+02  1.200862e+01  2.374145e+01
   endloop
 endfacet
 facet normal -1.959316e-01 -9.428747e-01  2.694402e-01
   outer loop
     vertex  1.082060e+02  1.288890e+01  2.737741e+01
     vertex  1.043423e+02  1.369179e+01  2.737741e+01
     vertex  1.060672e+02  1.229432e+01  2.374145e+01
   endloop
 endfacet
 facet normal -4.146915e-01 -8.003183e-01  4.330377e-01
   outer loop
     vertex  1.033238e+02  1.601487e+01  3.069544e+01
     vertex  1.008385e+02  1.550731e+01  2.737741e+01
     vertex  1.043423e+02  1.369179e+01  2.737741e+01
   endloop
 endfacet
 facet normal -5.038177e-01 -7.137470e-01  4.865521e-01
   outer loop
     vertex  1.033238e+02  1.601487e+01  3.069544e+01
     vertex  1.004845e+02  1.801905e+01  3.069544e+01
     vertex  1.008385e+02  1.550731e+01  2.737741e+01
   endloop
 endfacet
 facet normal -5.941147e-01 -4.833481e-01  6.429637e-01
   outer loop
     vertex  1.012153e+02  2.085371e+01  3.350165e+01
     vertex  9.829125e+01  2.071494e+01  3.069544e+01
     vertex  1.004845e+02  1.801905e+01  3.069544e+01
   endloop
 endfacet
 facet normal -6.300509e-01 -3.831424e-01  6.754537e-01
   outer loop
     vertex  1.012153e+02  2.085371e+01  3.350165e+01
     vertex  9.975971e+01  2.324731e+01  3.350165e+01
     vertex  9.829125e+01  2.071494e+01  3.069544e+01
   endloop
 endfacet
 facet normal -5.600218e-01 -1.569108e-01  8.134830e-01
   outer loop
     vertex  1.022512e+02  2.540006e+01  3.563208e+01
     vertex  9.900389e+01  2.594487e+01  3.350165e+01
     vertex  9.975971e+01  2.324731e+01  3.350165e+01
   endloop
 endfacet
 facet normal -5.558736e-01 -7.640307e-02  8.277482e-01
   outer loop
     vertex  1.022512e+02  2.540006e+01  3.563208e+01
     vertex  1.019838e+02  2.734559e+01  3.563208e+01
     vertex  9.900389e+01  2.594487e+01  3.350165e+01
   endloop
 endfacet
 facet normal -3.582129e-01  4.923523e-02  9.323408e-01
   outer loop
     vertex  1.055154e+02  2.785132e+01  3.696226e+01
     vertex  1.022512e+02  2.929112e+01  3.563208e+01
     vertex  1.019838e+02  2.734559e+01  3.563208e+01
   endloop
 endfacet
 facet normal -1.174572e-01  3.290996e-02  9.925325e-01
   outer loop
     vertex  1.055154e+02  2.785132e+01  3.696226e+01
     vertex  1.091949e+02  2.734559e+01  3.741446e+01
     vertex  1.057883e+02  2.882528e+01  3.696226e+01
   endloop
 endfacet
 facet normal -3.394029e-01  9.509622e-02  9.358218e-01
   outer loop
     vertex  1.055154e+02  2.785132e+01  3.696226e+01
     vertex  1.057883e+02  2.882528e+01  3.696226e+01
     vertex  1.022512e+02  2.929112e+01  3.563208e+01
   endloop
 endfacet
 facet normal  4.600549e-01 -8.878657e-01  6.637110e-03
   outer loop
     vertex  1.180601e+02  1.478647e+01  2.374145e+01
     vertex  1.143429e+02  1.286040e+01  2.374145e+01
     vertex  1.146405e+02  1.298663e+01  2.000000e+01
   endloop
 endfacet
 facet normal  4.647228e-01 -8.854554e-01  1.211309e-03
   outer loop
     vertex  1.180601e+02  1.478647e+01  2.374145e+01
     vertex  1.146405e+02  1.298663e+01  2.000000e+01
     vertex  1.179186e+02  1.470710e+01  2.000000e+01
   endloop
 endfacet
 facet normal  6.630946e-01 -7.484791e-01 -9.195471e-03
   outer loop
     vertex  1.180601e+02  1.478647e+01  2.374145e+01
     vertex  1.179186e+02  1.470710e+01  2.000000e+01
     vertex  1.206897e+02  1.716208e+01  2.000000e+01
   endloop
 endfacet
 facet normal  1.993780e-01 -9.594594e-01  1.992137e-01
   outer loop
     vertex  1.121431e+02  1.315820e+01  2.737741e+01
     vertex  1.102440e+02  1.200862e+01  2.374145e+01
     vertex  1.143429e+02  1.286040e+01  2.374145e+01
   endloop
 endfacet
 facet normal  6.571861e-02 -9.607721e-01  2.694402e-01
   outer loop
     vertex  1.121431e+02  1.315820e+01  2.737741e+01
     vertex  1.082060e+02  1.288890e+01  2.737741e+01
     vertex  1.102440e+02  1.200862e+01  2.374145e+01
   endloop
 endfacet
 facet normal -1.833903e-01 -8.825227e-01  4.330377e-01
   outer loop
     vertex  1.065985e+02  1.485104e+01  3.069544e+01
     vertex  1.043423e+02  1.369179e+01  2.737741e+01
     vertex  1.082060e+02  1.288890e+01  2.737741e+01
   endloop
 endfacet
 facet normal -2.925681e-01 -8.232077e-01  4.865521e-01
   outer loop
     vertex  1.065985e+02  1.485104e+01  3.069544e+01
     vertex  1.033238e+02  1.601487e+01  3.069544e+01
     vertex  1.043423e+02  1.369179e+01  2.737741e+01
   endloop
 endfacet
 facet normal -5.033163e-01 -5.389202e-01  6.754537e-01
   outer loop
     vertex  1.032627e+02  1.894157e+01  3.350165e+01
     vertex  1.012153e+02  2.085371e+01  3.350165e+01
     vertex  1.004845e+02  1.801905e+01  3.069544e+01
   endloop
 endfacet
 facet normal -4.416775e-01 -6.257145e-01  6.429637e-01
   outer loop
     vertex  1.032627e+02  1.894157e+01  3.350165e+01
     vertex  1.004845e+02  1.801905e+01  3.069544e+01
     vertex  1.033238e+02  1.601487e+01  3.069544e+01
   endloop
 endfacet
 facet normal -4.969207e-01 -3.021842e-01  8.134830e-01
   outer loop
     vertex  1.030336e+02  2.359881e+01  3.563208e+01
     vertex  9.975971e+01  2.324731e+01  3.350165e+01
     vertex  1.012153e+02  2.085371e+01  3.350165e+01
   endloop
 endfacet
 facet normal -5.146470e-01 -2.235427e-01  8.277482e-01
   outer loop
     vertex  1.030336e+02  2.359881e+01  3.563208e+01
     vertex  1.022512e+02  2.540006e+01  3.563208e+01
     vertex  9.975971e+01  2.324731e+01  3.350165e+01
   endloop
 endfacet
 facet normal  0.000000e+00  0.000000e+00  0.000000e+00
   outer loop
     vertex  1.055154e+02  2.683986e+01  3.696226e+01
     vertex  1.091949e+02  2.734559e+01  3.741446e+01
     vertex  1.091949e+02  2.734559e+01  3.741446e+01
   endloop
 endfacet
 facet normal -1.219805e-01  0.000000e+00  9.925325e-01
   outer loop
     vertex  1.055154e+02  2.683986e+01  3.696226e+01
     vertex  1.091949e+02  2.734559e+01  3.741446e+01
     vertex  1.055154e+02  2.785132e+01  3.696226e+01
   endloop
 endfacet
 facet normal -3.582129e-01 -4.923523e-02  9.323408e-01
   outer loop
     vertex  1.055154e+02  2.683986e+01  3.696226e+01
     vertex  1.019838e+02  2.734559e+01  3.563208e+01
     vertex  1.022512e+02  2.540006e+01  3.563208e+01
   endloop
 endfacet
 facet normal -3.524735e-01  0.000000e+00  9.358218e-01
   outer loop
     vertex  1.055154e+02  2.683986e+01  3.696226e+01
     vertex  1.055154e+02  2.785132e+01  3.696226e+01
     vertex  1.019838e+02  2.734559e+01  3.563208e+01
   endloop
 endfacet
 facet normal  8.227951e-01 -5.679344e-01 -2.141931e-02
   outer loop
     vertex  1.211198e+02  1.764400e+01  2.374145e+01
     vertex  1.206897e+02  1.716208e+01  2.000000e+01
     vertex  1.227928e+02  2.020888e+01  2.000000e+01
   endloop
 endfacet
 facet normal  6.824692e-01 -7.307461e-01  1.568105e-02
   outer loop
     vertex  1.211198e+02  1.764400e+01  2.374145e+01
     vertex  1.180601e+02  1.478647e+01  2.374145e+01
     vertex  1.206897e+02  1.716208e+01  2.000000e+01
   endloop
 endfacet
 facet normal  4.508435e-01 -8.700885e-01  1.992137e-01
   outer loop
     vertex  1.158615e+02  1.447971e+01  2.737741e+01
     vertex  1.143429e+02  1.286040e+01  2.374145e+01
     vertex  1.180601e+02  1.478647e+01  2.374145e+01
   endloop
 endfacet
 facet normal  3.224948e-01 -9.074134e-01  2.694402e-01
   outer loop
     vertex  1.158615e+02  1.447971e+01  2.737741e+01
     vertex  1.121431e+02  1.315820e+01  2.737741e+01
     vertex  1.143429e+02  1.286040e+01  2.374145e+01
   endloop
 endfacet
 facet normal  6.151206e-02 -8.992745e-01  4.330377e-01
   outer loop
     vertex  1.100658e+02  1.461387e+01  3.069544e+01
     vertex  1.082060e+02  1.288890e+01  2.737741e+01
     vertex  1.121431e+02  1.315820e+01  2.737741e+01
   endloop
 endfacet
 facet normal -5.962009e-02 -8.716149e-01  4.865521e-01
   outer loop
     vertex  1.100658e+02  1.461387e+01  3.069544e+01
     vertex  1.065985e+02  1.485104e+01  3.069544e+01
     vertex  1.082060e+02  1.288890e+01  2.737741e+01
   endloop
 endfacet
 facet normal -2.564832e-01 -7.216745e-01  6.429637e-01
   outer loop
     vertex  1.057501e+02  1.765273e+01  3.350165e+01
     vertex  1.033238e+02  1.601487e+01  3.069544e+01
     vertex  1.065985e+02  1.485104e+01  3.069544e+01
   endloop
 endfacet
 facet normal -3.392530e-01 -6.547287e-01  6.754537e-01
   outer loop
     vertex  1.057501e+02  1.765273e+01  3.350165e+01
     vertex  1.032627e+02  1.894157e+01  3.350165e+01
     vertex  1.033238e+02  1.601487e+01  3.069544e+01
   endloop
 endfacet
 facet normal -4.352514e-01 -3.541033e-01  8.277482e-01
   outer loop
     vertex  1.042729e+02  2.207545e+01  3.563208e+01
     vertex  1.030336e+02  2.359881e+01  3.563208e+01
     vertex  1.012153e+02  2.085371e+01  3.350165e+01
   endloop
 endfacet
 facet normal -3.969652e-01 -4.250459e-01  8.134830e-01
   outer loop
     vertex  1.042729e+02  2.207545e+01  3.563208e+01
     vertex  1.012153e+02  2.085371e+01  3.350165e+01
     vertex  1.032627e+02  1.894157e+01  3.350165e+01
   endloop
 endfacet
 facet normal -3.316459e-01 -1.440541e-01  9.323408e-01
   outer loop
     vertex  1.057883e+02  2.586590e+01  3.696226e+01
     vertex  1.022512e+02  2.540006e+01  3.563208e+01
     vertex  1.030336e+02  2.359881e+01  3.563208e+01
   endloop
 endfacet
 facet normal -3.394029e-01 -9.509622e-02  9.358218e-01
   outer loop
     vertex  1.057883e+02  2.586590e+01  3.696226e+01
     vertex  1.055154e+02  2.683986e+01  3.696226e+01
     vertex  1.022512e+02  2.540006e+01  3.563208e+01
   endloop
 endfacet
 facet normal -1.174572e-01 -3.290996e-02  9.925325e-01
   outer loop
     vertex  1.057883e+02  2.586590e+01  3.696226e+01
     vertex  1.091949e+02  2.734559e+01  3.741446e+01
     vertex  1.055154e+02  2.683986e+01  3.696226e+01
   endloop
 endfacet
 facet normal  9.346074e-01 -3.544498e-01 -2.957029e-02
   outer loop
     vertex  1.232950e+02  2.122105e+01  2.374145e+01
     vertex  1.227928e+02  2.020888e+01  2.000000e+01
     vertex  1.241056e+02  2.367044e+01  2.000000e+01
   endloop
 endfacet
 facet normal  8.541337e-01 -5.194102e-01  2.585874e-02
   outer loop
     vertex  1.232950e+02  2.122105e+01  2.374145e+01
     vertex  1.211198e+02  1.764400e+01  2.374145e+01
     vertex  1.227928e+02  2.020888e+01  2.000000e+01
   endloop
 endfacet
 facet normal  6.688721e-01 -7.161871e-01  1.992137e-01
   outer loop
     vertex  1.190854e+02  1.675543e+01  2.737741e+01
     vertex  1.180601e+02  1.478647e+01  2.374145e+01
     vertex  1.211198e+02  1.764400e+01  2.374145e+01
   endloop
 endfacet
 facet normal  5.553530e-01 -7.867560e-01  2.694402e-01
   outer loop
     vertex  1.190854e+02  1.675543e+01  2.737741e+01
     vertex  1.158615e+02  1.447971e+01  2.737741e+01
     vertex  1.180601e+02  1.478647e+01  2.374145e+01
   endloop
 endfacet
 facet normal  3.018524e-01 -8.493312e-01  4.330377e-01
   outer loop
     vertex  1.134685e+02  1.532096e+01  3.069544e+01
     vertex  1.121431e+02  1.315820e+01  2.737741e+01
     vertex  1.158615e+02  1.447971e+01  2.737741e+01
   endloop
 endfacet
 facet normal  1.777497e-01 -8.553784e-01  4.865521e-01
   outer loop
     vertex  1.134685e+02  1.532096e+01  3.069544e+01
     vertex  1.100658e+02  1.461387e+01  3.069544e+01
     vertex  1.121431e+02  1.315820e+01  2.737741e+01
   endloop
 endfacet
 facet normal -1.500289e-01 -7.219789e-01  6.754537e-01
   outer loop
     vertex  1.084929e+02  1.708276e+01  3.350165e+01
     vertex  1.057501e+02  1.765273e+01  3.350165e+01
     vertex  1.065985e+02  1.485104e+01  3.069544e+01
   endloop
 endfacet
 facet normal -5.226663e-02 -7.641111e-01  6.429637e-01
   outer loop
     vertex  1.084929e+02  1.708276e+01  3.350165e+01
     vertex  1.065985e+02  1.485104e+01  3.069544e+01
     vertex  1.100658e+02  1.461387e+01  3.069544e+01
   endloop
 endfacet
 facet normal -2.675686e-01 -5.163840e-01  8.134830e-01
   outer loop
     vertex  1.058773e+02  2.094295e+01  3.563208e+01
     vertex  1.032627e+02  1.894157e+01  3.350165e+01
     vertex  1.057501e+02  1.765273e+01  3.350165e+01
   endloop
 endfacet
 facet normal -3.235752e-01 -4.584016e-01  8.277482e-01
   outer loop
     vertex  1.058773e+02  2.094295e+01  3.563208e+01
     vertex  1.042729e+02  2.207545e+01  3.563208e+01
     vertex  1.032627e+02  1.894157e+01  3.350165e+01
   endloop
 endfacet
 facet normal -3.011602e-01 -1.831396e-01  9.358218e-01
   outer loop
     vertex  1.063139e+02  2.500169e+01  3.696226e+01
     vertex  1.057883e+02  2.586590e+01  3.696226e+01
     vertex  1.030336e+02  2.359881e+01  3.563208e+01
   endloop
 endfacet
 facet normal -2.804822e-01 -2.281892e-01  9.323408e-01
   outer loop
     vertex  1.063139e+02  2.500169e+01  3.696226e+01
     vertex  1.030336e+02  2.359881e+01  3.563208e+01
     vertex  1.042729e+02  2.207545e+01  3.563208e+01
   endloop
 endfacet
 facet normal -1.042225e-01 -6.337914e-02  9.925325e-01
   outer loop
     vertex  1.063139e+02  2.500169e+01  3.696226e+01
     vertex  1.091949e+02  2.734559e+01  3.741446e+01
     vertex  1.057883e+02  2.586590e+01  3.696226e+01
   endloop
 endfacet
 facet normal  9.976598e-01 -6.824180e-02 -4.238451e-03
   outer loop
     vertex  1.244245e+02  2.525233e+01  2.374145e+01
     vertex  1.245518e+02  2.734559e+01  2.000000e+01
     vertex  1.245677e+02  2.734559e+01  2.374145e+01
   endloop
 endfacet
 facet normal  9.696559e-01 -6.632628e-02  2.353045e-01
   outer loop
     vertex  1.244245e+02  2.525233e+01  2.374145e+01
     vertex  1.245677e+02  2.734559e+01  2.374145e+01
     vertex  1.236854e+02  2.734559e+01  2.737741e+01
   endloop
 endfacet
 facet normal  9.921468e-01 -1.204684e-01 -3.364569e-02
   outer loop
     vertex  1.244245e+02  2.525233e+01  2.374145e+01
     vertex  1.241056e+02  2.367044e+01  2.000000e+01
     vertex  1.245518e+02  2.734559e+01  2.000000e+01
   endloop
 endfacet
 facet normal  9.624252e-01 -2.696589e-01  3.196574e-02
   outer loop
     vertex  1.244245e+02  2.525233e+01  2.374145e+01
     vertex  1.232950e+02  2.122105e+01  2.374145e+01
     vertex  1.241056e+02  2.367044e+01  2.000000e+01
   endloop
 endfacet
 facet normal  8.372935e-01 -5.091695e-01  1.992137e-01
   outer loop
     vertex  1.215758e+02  1.981657e+01  2.737741e+01
     vertex  1.211198e+02  1.764400e+01  2.374145e+01
     vertex  1.232950e+02  2.122105e+01  2.374145e+01
   endloop
 endfacet
 facet normal  7.470233e-01 -6.077485e-01  2.694402e-01
   outer loop
     vertex  1.215758e+02  1.981657e+01  2.737741e+01
     vertex  1.190854e+02  1.675543e+01  2.737741e+01
     vertex  1.211198e+02  1.764400e+01  2.374145e+01
   endloop
 endfacet
 facet normal  5.198057e-01 -7.363969e-01  4.330377e-01
   outer loop
     vertex  1.165542e+02  1.691986e+01  3.069544e+01
     vertex  1.158615e+02  1.447971e+01  2.737741e+01
     vertex  1.190854e+02  1.675543e+01  2.737741e+01
   endloop
 endfacet
 facet normal  4.019365e-01 -7.757023e-01  4.865521e-01
   outer loop
     vertex  1.165542e+02  1.691986e+01  3.069544e+01
     vertex  1.134685e+02  1.532096e+01  3.069544e+01
     vertex  1.158615e+02  1.447971e+01  2.737741e+01
   endloop
 endfacet
 facet normal  1.558263e-01 -7.498772e-01  6.429637e-01
   outer loop
     vertex  1.112878e+02  1.727393e+01  3.350165e+01
     vertex  1.100658e+02  1.461387e+01  3.069544e+01
     vertex  1.134685e+02  1.532096e+01  3.069544e+01
   endloop
 endfacet
 facet normal  5.032212e-02 -7.356833e-01  6.754537e-01
   outer loop
     vertex  1.112878e+02  1.727393e+01  3.350165e+01
     vertex  1.084929e+02  1.708276e+01  3.350165e+01
     vertex  1.100658e+02  1.461387e+01  3.069544e+01
   endloop
 endfacet
 facet normal -1.183277e-01 -5.694242e-01  8.134830e-01
   outer loop
     vertex  1.077278e+02  2.028531e+01  3.563208e+01
     vertex  1.057501e+02  1.765273e+01  3.350165e+01
     vertex  1.084929e+02  1.708276e+01  3.350165e+01
   endloop
 endfacet
 facet normal -1.879009e-01 -5.287023e-01  8.277482e-01
   outer loop
     vertex  1.077278e+02  2.028531e+01  3.563208e+01
     vertex  1.058773e+02  2.094295e+01  3.563208e+01
     vertex  1.057501e+02  1.765273e+01  3.350165e+01
   endloop
 endfacet
 facet normal -2.085165e-01 -2.954005e-01  9.323408e-01
   outer loop
     vertex  1.070531e+02  2.431131e+01  3.696226e+01
     vertex  1.042729e+02  2.207545e+01  3.563208e+01
     vertex  1.058773e+02  2.094295e+01  3.563208e+01
   endloop
 endfacet
 facet normal -8.325821e-02 -8.914777e-02  9.925325e-01
   outer loop
     vertex  1.070531e+02  2.431131e+01  3.696226e+01
     vertex  1.091949e+02  2.734559e+01  3.741446e+01
     vertex  1.063139e+02  2.500169e+01  3.696226e+01
   endloop
 endfacet
 facet normal -2.405819e-01 -2.576003e-01  9.358218e-01
   outer loop
     vertex  1.070531e+02  2.431131e+01  3.696226e+01
     vertex  1.063139e+02  2.500169e+01  3.696226e+01
     vertex  1.042729e+02  2.207545e+01  3.563208e+01
   endloop
 endfacet
 facet normal  9.540475e-01 -1.311308e-01  2.694402e-01
   outer loop
     vertex  1.231480e+02  2.343611e+01  2.737741e+01
     vertex  1.244245e+02  2.525233e+01  2.374145e+01
     vertex  1.236854e+02  2.734559e+01  2.737741e+01
   endloop
 endfacet
 facet normal  9.436167e-01 -2.643890e-01  1.992137e-01
   outer loop
     vertex  1.231480e+02  2.343611e+01  2.737741e+01
     vertex  1.232950e+02  2.122105e+01  2.374145e+01
     vertex  1.244245e+02  2.525233e+01  2.374145e+01
   endloop
 endfacet
 facet normal  8.832902e-01 -3.836671e-01  2.694402e-01
   outer loop
     vertex  1.231480e+02  2.343611e+01  2.737741e+01
     vertex  1.215758e+02  1.981657e+01  2.737741e+01
     vertex  1.232950e+02  2.122105e+01  2.374145e+01
   endloop
 endfacet
 facet normal  6.992074e-01 -5.688474e-01  4.330377e-01
   outer loop
     vertex  1.190941e+02  1.929198e+01  3.069544e+01
     vertex  1.190854e+02  1.675543e+01  2.737741e+01
     vertex  1.215758e+02  1.981657e+01  2.737741e+01
   endloop
 endfacet
 facet normal  5.963136e-01 -6.384960e-01  4.865521e-01
   outer loop
     vertex  1.190941e+02  1.929198e+01  3.069544e+01
     vertex  1.165542e+02  1.691986e+01  3.069544e+01
     vertex  1.190854e+02  1.675543e+01  2.737741e+01
   endloop
 endfacet
 facet normal  3.523623e-01 -6.800283e-01  6.429637e-01
   outer loop
     vertex  1.139275e+02  1.821208e+01  3.350165e+01
     vertex  1.134685e+02  1.532096e+01  3.069544e+01
     vertex  1.165542e+02  1.691986e+01  3.069544e+01
   endloop
 endfacet
 facet normal  2.469410e-01 -6.948254e-01  6.754537e-01
   outer loop
     vertex  1.139275e+02  1.821208e+01  3.350165e+01
     vertex  1.112878e+02  1.727393e+01  3.350165e+01
     vertex  1.134685e+02  1.532096e+01  3.069544e+01
   endloop
 endfacet
 facet normal  3.968902e-02 -5.802329e-01  8.134830e-01
   outer loop
     vertex  1.096870e+02  2.015129e+01  3.563208e+01
     vertex  1.084929e+02  1.708276e+01  3.350165e+01
     vertex  1.112878e+02  1.727393e+01  3.350165e+01
   endloop
 endfacet
 facet normal -3.829080e-02 -5.597917e-01  8.277482e-01
   outer loop
     vertex  1.096870e+02  2.015129e+01  3.563208e+01
     vertex  1.077278e+02  2.028531e+01  3.563208e+01
     vertex  1.084929e+02  1.708276e+01  3.350165e+01
   endloop
 endfacet
 facet normal -1.210860e-01 -3.407034e-01  9.323408e-01
   outer loop
     vertex  1.079511e+02  2.384598e+01  3.696226e+01
     vertex  1.058773e+02  2.094295e+01  3.563208e+01
     vertex  1.077278e+02  2.028531e+01  3.563208e+01
   endloop
 endfacet
 facet normal -1.621607e-01 -3.129560e-01  9.358218e-01
   outer loop
     vertex  1.079511e+02  2.384598e+01  3.696226e+01
     vertex  1.070531e+02  2.431131e+01  3.696226e+01
     vertex  1.058773e+02  2.094295e+01  3.563208e+01
   endloop
 endfacet
 facet normal -5.611899e-02 -1.083047e-01  9.925325e-01
   outer loop
     vertex  1.079511e+02  2.384598e+01  3.696226e+01
     vertex  1.091949e+02  2.734559e+01  3.741446e+01
     vertex  1.070531e+02  2.431131e+01  3.696226e+01
   endloop
 endfacet
 facet normal  7.464649e-01 -4.539353e-01  4.865521e-01
   outer loop
     vertex  1.208999e+02  2.226141e+01  3.069544e+01
     vertex  1.190941e+02  1.929198e+01  3.069544e+01
     vertex  1.215758e+02  1.981657e+01  2.737741e+01
   endloop
 endfacet
 facet normal  8.267521e-01 -3.591091e-01  4.330377e-01
   outer loop
     vertex  1.208999e+02  2.226141e+01  3.069544e+01
     vertex  1.215758e+02  1.981657e+01  2.737741e+01
     vertex  1.231480e+02  2.343611e+01  2.737741e+01
   endloop
 endfacet
 facet normal  5.227651e-01 -5.597448e-01  6.429637e-01
   outer loop
     vertex  1.162162e+02  1.982762e+01  3.350165e+01
     vertex  1.165542e+02  1.691986e+01  3.069544e+01
     vertex  1.190941e+02  1.929198e+01  3.069544e+01
   endloop
 endfacet
 facet normal  4.252454e-01 -6.024355e-01  6.754537e-01
   outer loop
     vertex  1.162162e+02  1.982762e+01  3.350165e+01
     vertex  1.139275e+02  1.821208e+01  3.350165e+01
     vertex  1.165542e+02  1.691986e+01  3.069544e+01
   endloop
 endfacet
 facet normal  1.947622e-01 -5.480083e-01  8.134830e-01
   outer loop
     vertex  1.116098e+02  2.055084e+01  3.563208e+01
     vertex  1.112878e+02  1.727393e+01  3.350165e+01
     vertex  1.139275e+02  1.821208e+01  3.350165e+01
   endloop
 endfacet
 facet normal  1.141591e-01 -5.493638e-01  8.277482e-01
   outer loop
     vertex  1.116098e+02  2.055084e+01  3.563208e+01
     vertex  1.096870e+02  2.015129e+01  3.563208e+01
     vertex  1.112878e+02  1.727393e+01  3.350165e+01
   endloop
 endfacet
 facet normal -2.467514e-02 -3.607378e-01  9.323408e-01
   outer loop
     vertex  1.089414e+02  2.364019e+01  3.696226e+01
     vertex  1.077278e+02  2.028531e+01  3.563208e+01
     vertex  1.096870e+02  2.015129e+01  3.563208e+01
   endloop
 endfacet
 facet normal -2.481768e-02 -1.194292e-01  9.925325e-01
   outer loop
     vertex  1.089414e+02  2.364019e+01  3.696226e+01
     vertex  1.091949e+02  2.734559e+01  3.741446e+01
     vertex  1.079511e+02  2.384598e+01  3.696226e+01
   endloop
 endfacet
 facet normal -7.171286e-02 -3.451012e-01  9.358218e-01
   outer loop
     vertex  1.089414e+02  2.364019e+01  3.696226e+01
     vertex  1.079511e+02  2.384598e+01  3.696226e+01
     vertex  1.077278e+02  2.028531e+01  3.563208e+01
   endloop
 endfacet
 facet normal  8.851919e-01 -6.054879e-02  4.612690e-01
   outer loop
     vertex  1.218375e+02  2.560790e+01  3.069544e+01
     vertex  1.236854e+02  2.734559e+01  2.737741e+01
     vertex  1.219564e+02  2.734559e+01  3.069544e+01
   endloop
 endfacet
 facet normal  7.490406e-01 -5.123578e-02  6.605399e-01
   outer loop
     vertex  1.218375e+02  2.560790e+01  3.069544e+01
     vertex  1.219564e+02  2.734559e+01  3.069544e+01
     vertex  1.194817e+02  2.734559e+01  3.350165e+01
   endloop
 endfacet
 facet normal  8.929804e-01 -1.227373e-01  4.330377e-01
   outer loop
     vertex  1.218375e+02  2.560790e+01  3.069544e+01
     vertex  1.231480e+02  2.343611e+01  2.737741e+01
     vertex  1.236854e+02  2.734559e+01  2.737741e+01
   endloop
 endfacet
 facet normal  8.412542e-01 -2.357084e-01  4.865521e-01
   outer loop
     vertex  1.218375e+02  2.560790e+01  3.069544e+01
     vertex  1.208999e+02  2.226141e+01  3.069544e+01
     vertex  1.231480e+02  2.343611e+01  2.737741e+01
   endloop
 endfacet
 facet normal  5.720113e-01 -4.653657e-01  6.754537e-01
   outer loop
     vertex  1.179842e+02  2.200073e+01  3.350165e+01
     vertex  1.162162e+02  1.982762e+01  3.350165e+01
     vertex  1.190941e+02  1.929198e+01  3.069544e+01
   endloop
 endfacet
 facet normal  6.543969e-01 -3.979476e-01  6.429637e-01
   outer loop
     vertex  1.179842e+02  2.200073e+01  3.350165e+01
     vertex  1.190941e+02  1.929198e+01  3.069544e+01
     vertex  1.208999e+02  2.226141e+01  3.069544e+01
   endloop
 endfacet
 facet normal  3.353908e-01 -4.751405e-01  8.134830e-01
   outer loop
     vertex  1.133534e+02  2.145433e+01  3.563208e+01
     vertex  1.139275e+02  1.821208e+01  3.350165e+01
     vertex  1.162162e+02  1.982762e+01  3.350165e+01
   endloop
 endfacet
 facet normal  2.581424e-01 -4.981921e-01  8.277482e-01
   outer loop
     vertex  1.133534e+02  2.145433e+01  3.563208e+01
     vertex  1.116098e+02  2.055084e+01  3.563208e+01
     vertex  1.139275e+02  1.821208e+01  3.350165e+01
   endloop
 endfacet
 facet normal  8.324247e-03 -1.216962e-01  9.925325e-01
   outer loop
     vertex  1.099505e+02  2.370921e+01  3.696226e+01
     vertex  1.091949e+02  2.734559e+01  3.741446e+01
     vertex  1.089414e+02  2.364019e+01  3.696226e+01
   endloop
 endfacet
 facet normal  7.356577e-02 -3.540179e-01  9.323408e-01
   outer loop
     vertex  1.099505e+02  2.370921e+01  3.696226e+01
     vertex  1.096870e+02  2.015129e+01  3.563208e+01
     vertex  1.116098e+02  2.055084e+01  3.563208e+01
   endloop
 endfacet
 facet normal  2.405364e-02 -3.516518e-01  9.358218e-01
   outer loop
     vertex  1.099505e+02  2.370921e+01  3.696226e+01
     vertex  1.089414e+02  2.364019e+01  3.696226e+01
     vertex  1.096870e+02  2.015129e+01  3.563208e+01
   endloop
 endfacet
 facet normal  7.305342e-01 -1.004096e-01  6.754537e-01
   outer loop
     vertex  1.191002e+02  2.457024e+01  3.350165e+01
     vertex  1.218375e+02  2.560790e+01  3.069544e+01
     vertex  1.194817e+02  2.734559e+01  3.350165e+01
   endloop
 endfacet
 facet normal  7.374951e-01 -2.066364e-01  6.429637e-01
   outer loop
     vertex  1.191002e+02  2.457024e+01  3.350165e+01
     vertex  1.208999e+02  2.226141e+01  3.069544e+01
     vertex  1.218375e+02  2.560790e+01  3.069544e+01
   endloop
 endfacet
 facet normal  6.763538e-01 -2.937819e-01  6.754537e-01
   outer loop
     vertex  1.191002e+02  2.457024e+01  3.350165e+01
     vertex  1.179842e+02  2.200073e+01  3.350165e+01
     vertex  1.208999e+02  2.226141e+01  3.069544e+01
   endloop
 endfacet
 facet normal  3.829804e-01 -4.100719e-01  8.277482e-01
   outer loop
     vertex  1.147886e+02  2.279475e+01  3.563208e+01
     vertex  1.133534e+02  2.145433e+01  3.563208e+01
     vertex  1.162162e+02  1.982762e+01  3.350165e+01
   endloop
 endfacet
 facet normal  4.511449e-01 -3.670336e-01  8.134830e-01
   outer loop
     vertex  1.147886e+02  2.279475e+01  3.563208e+01
     vertex  1.162162e+02  1.982762e+01  3.350165e+01
     vertex  1.179842e+02  2.200073e+01  3.350165e+01
   endloop
 endfacet
 facet normal  4.084880e-02 -1.149375e-01  9.925325e-01
   outer loop
     vertex  1.109036e+02  2.404793e+01  3.696226e+01
     vertex  1.091949e+02  2.734559e+01  3.741446e+01
     vertex  1.099505e+02  2.370921e+01  3.696226e+01
   endloop
 endfacet
 facet normal  1.663506e-01 -3.210422e-01  9.323408e-01
   outer loop
     vertex  1.109036e+02  2.404793e+01  3.696226e+01
     vertex  1.116098e+02  2.055084e+01  3.563208e+01
     vertex  1.133534e+02  2.145433e+01  3.563208e+01
   endloop
 endfacet
 facet normal  1.180362e-01 -3.321220e-01  9.358218e-01
   outer loop
     vertex  1.109036e+02  2.404793e+01  3.696226e+01
     vertex  1.099505e+02  2.370921e+01  3.696226e+01
     vertex  1.116098e+02  2.055084e+01  3.563208e+01
   endloop
 endfacet
 facet normal  5.334397e-01 -2.317056e-01  8.134830e-01
   outer loop
     vertex  1.158090e+02  2.447268e+01  3.563208e+01
     vertex  1.179842e+02  2.200073e+01  3.350165e+01
     vertex  1.191002e+02  2.457024e+01  3.350165e+01
   endloop
 endfacet
 facet normal  4.794145e-01 -2.915384e-01  8.277482e-01
   outer loop
     vertex  1.158090e+02  2.447268e+01  3.563208e+01
     vertex  1.147886e+02  2.279475e+01  3.563208e+01
     vertex  1.179842e+02  2.200073e+01  3.350165e+01
   endloop
 endfacet
 facet normal  2.032645e-01 -2.879603e-01  9.358218e-01
   outer loop
     vertex  1.117299e+02  2.463122e+01  3.696226e+01
     vertex  1.109036e+02  2.404793e+01  3.696226e+01
     vertex  1.133534e+02  2.145433e+01  3.563208e+01
   endloop
 endfacet
 facet normal  2.467980e-01 -2.642562e-01  9.323408e-01
   outer loop
     vertex  1.117299e+02  2.463122e+01  3.696226e+01
     vertex  1.133534e+02  2.145433e+01  3.563208e+01
     vertex  1.147886e+02  2.279475e+01  3.563208e+01
   endloop
 endfacet
 facet normal  7.034378e-02 -9.965444e-02  9.925325e-01
   outer loop
     vertex  1.117299e+02  2.463122e+01  3.696226e+01
     vertex  1.091949e+02  2.734559e+01  3.741446e+01
     vertex  1.109036e+02  2.404793e+01  3.696226e+01
   endloop
 endfacet
 facet normal  5.689773e-01 -3.891912e-02  8.214317e-01
   outer loop
     vertex  1.163388e+02  2.636368e+01  3.563208e+01
     vertex  1.194817e+02  2.734559e+01  3.350165e+01
     vertex  1.164060e+02  2.734559e+01  3.563208e+01
   endloop
 endfacet
 facet normal  3.554163e-01 -2.431114e-02  9.343919e-01
   outer loop
     vertex  1.163388e+02  2.636368e+01  3.563208e+01
     vertex  1.164060e+02  2.734559e+01  3.563208e+01
     vertex  1.129090e+02  2.734559e+01  3.696226e+01
   endloop
 endfacet
 facet normal  5.761717e-01 -7.919298e-02  8.134830e-01
   outer loop
     vertex  1.163388e+02  2.636368e+01  3.563208e+01
     vertex  1.191002e+02  2.457024e+01  3.350165e+01
     vertex  1.194817e+02  2.734559e+01  3.350165e+01
   endloop
 endfacet
 facet normal  5.402926e-01 -1.513829e-01  8.277482e-01
   outer loop
     vertex  1.163388e+02  2.636368e+01  3.563208e+01
     vertex  1.158090e+02  2.447268e+01  3.563208e+01
     vertex  1.191002e+02  2.457024e+01  3.350165e+01
   endloop
 endfacet
 facet normal  9.462169e-02 -7.698045e-02  9.925325e-01
   outer loop
     vertex  1.123683e+02  2.541582e+01  3.696226e+01
     vertex  1.091949e+02  2.734559e+01  3.741446e+01
     vertex  1.117299e+02  2.463122e+01  3.696226e+01
   endloop
 endfacet
 facet normal  3.089416e-01 -1.878715e-01  9.323408e-01
   outer loop
     vertex  1.123683e+02  2.541582e+01  3.696226e+01
     vertex  1.147886e+02  2.279475e+01  3.563208e+01
     vertex  1.158090e+02  2.447268e+01  3.563208e+01
   endloop
 endfacet
 facet normal  2.734177e-01 -2.224418e-01  9.358218e-01
   outer loop
     vertex  1.123683e+02  2.541582e+01  3.696226e+01
     vertex  1.117299e+02  2.463122e+01  3.696226e+01
     vertex  1.147886e+02  2.279475e+01  3.563208e+01
   endloop
 endfacet
 facet normal  1.208444e-01 -1.660968e-02  9.925325e-01
   outer loop
     vertex  1.127712e+02  2.634355e+01  3.696226e+01
     vertex  1.129090e+02  2.734559e+01  3.696226e+01
     vertex  1.091949e+02  2.734559e+01  3.741446e+01
   endloop
 endfacet
 facet normal  1.118819e-01 -4.859718e-02  9.925325e-01
   outer loop
     vertex  1.127712e+02  2.634355e+01  3.696226e+01
     vertex  1.091949e+02  2.734559e+01  3.741446e+01
     vertex  1.123683e+02  2.541582e+01  3.696226e+01
   endloop
 endfacet
 facet normal  3.491906e-01 -4.799514e-02  9.358218e-01
   outer loop
     vertex  1.127712e+02  2.634355e+01  3.696226e+01
     vertex  1.163388e+02  2.636368e+01  3.563208e+01
     vertex  1.129090e+02  2.734559e+01  3.696226e+01
   endloop
 endfacet
 facet normal  3.481723e-01 -9.755331e-02  9.323408e-01
   outer loop
     vertex  1.127712e+02  2.634355e+01  3.696226e+01
     vertex  1.158090e+02  2.447268e+01  3.563208e+01
     vertex  1.163388e+02  2.636368e+01  3.563208e+01
   endloop
 endfacet
 facet normal  3.232927e-01 -1.404258e-01  9.358218e-01
   outer loop
     vertex  1.127712e+02  2.634355e+01  3.696226e+01
     vertex  1.123683e+02  2.541582e+01  3.696226e+01
     vertex  1.158090e+02  2.447268e+01  3.563208e+01
   endloop
 endfacet
endsolid
