solid 
 facet normal -1.000000e+00  0.000000e+00  0.000000e+00
   outer loop
     vertex  0.000000e+00  0.000000e+00  2.000000e+01
     vertex  0.000000e+00  1.030209e+02  0.000000e+00
     vertex  0.000000e+00  0.000000e+00  0.000000e+00
   endloop
 endfacet
 facet normal -1.000000e+00  0.000000e+00  0.000000e+00
   outer loop
     vertex  0.000000e+00  0.000000e+00  2.000000e+01
     vertex  0.000000e+00  1.030209e+02  2.000000e+01
     vertex  0.000000e+00  1.030209e+02  0.000000e+00
   endloop
 endfacet
 facet normal  0.000000e+00 -1.000000e+00 -0.000000e+00
   outer loop
     vertex  1.398009e+02  0.000000e+00  2.000000e+01
     vertex  0.000000e+00  0.000000e+00  0.000000e+00
     vertex  1.398009e+02  0.000000e+00  0.000000e+00
   endloop
 endfacet
 facet normal -0.000000e+00 -1.000000e+00  0.000000e+00
   outer loop
     vertex  1.398009e+02  0.000000e+00  2.000000e+01
     vertex  0.000000e+00  0.000000e+00  2.000000e+01
     vertex  0.000000e+00  0.000000e+00  0.000000e+00
   endloop
 endfacet
 facet normal  0.000000e+00  0.000000e+00  1.000000e+00
   outer loop
     vertex  1.074970e+02  1.406328e+01  2.000000e+01
     vertex  1.053149e+02  1.599644e+01  2.000000e+01
     vertex  0.000000e+00  0.000000e+00  2.000000e+01
   endloop
 endfacet
 facet normal  0.000000e+00  0.000000e+00  1.000000e+00
   outer loop
     vertex  1.036589e+02  1.839563e+01  2.000000e+01
     vertex  0.000000e+00  0.000000e+00  2.000000e+01
     vertex  1.053149e+02  1.599644e+01  2.000000e+01
   endloop
 endfacet
 facet normal  0.000000e+00  0.000000e+00  1.000000e+00
   outer loop
     vertex  1.100783e+02  1.270851e+01  2.000000e+01
     vertex  1.074970e+02  1.406328e+01  2.000000e+01
     vertex  0.000000e+00  0.000000e+00  2.000000e+01
   endloop
 endfacet
 facet normal  0.000000e+00  0.000000e+00  1.000000e+00
   outer loop
     vertex  1.026251e+02  2.112143e+01  2.000000e+01
     vertex  0.000000e+00  0.000000e+00  2.000000e+01
     vertex  1.036589e+02  1.839563e+01  2.000000e+01
   endloop
 endfacet
 facet normal  0.000000e+00  0.000000e+00  1.000000e+00
   outer loop
     vertex  1.022738e+02  2.401541e+01  2.000000e+01
     vertex  0.000000e+00  0.000000e+00  2.000000e+01
     vertex  1.026251e+02  2.112143e+01  2.000000e+01
   endloop
 endfacet
 facet normal  0.000000e+00  0.000000e+00  1.000000e+00
   outer loop
     vertex  1.026251e+02  2.690939e+01  2.000000e+01
     vertex  0.000000e+00  1.030209e+02  2.000000e+01
     vertex  0.000000e+00  0.000000e+00  2.000000e+01
   endloop
 endfacet
 facet normal  0.000000e+00  0.000000e+00  1.000000e+00
   outer loop
     vertex  1.026251e+02  2.690939e+01  2.000000e+01
     vertex  0.000000e+00  0.000000e+00  2.000000e+01
     vertex  1.022738e+02  2.401541e+01  2.000000e+01
   endloop
 endfacet
 facet normal  0.000000e+00  0.000000e+00  1.000000e+00
   outer loop
     vertex  1.036589e+02  2.963518e+01  2.000000e+01
     vertex  0.000000e+00  1.030209e+02  2.000000e+01
     vertex  1.026251e+02  2.690939e+01  2.000000e+01
   endloop
 endfacet
 facet normal  0.000000e+00  0.000000e+00  1.000000e+00
   outer loop
     vertex  1.053149e+02  3.203437e+01  2.000000e+01
     vertex  0.000000e+00  1.030209e+02  2.000000e+01
     vertex  1.036589e+02  2.963518e+01  2.000000e+01
   endloop
 endfacet
 facet normal  0.000000e+00  0.000000e+00  1.000000e+00
   outer loop
     vertex  1.398009e+02  0.000000e+00  2.000000e+01
     vertex  1.129089e+02  1.201084e+01  2.000000e+01
     vertex  1.100783e+02  1.270851e+01  2.000000e+01
   endloop
 endfacet
 facet normal  0.000000e+00  0.000000e+00  1.000000e+00
   outer loop
     vertex  1.398009e+02  0.000000e+00  2.000000e+01
     vertex  1.158241e+02  1.201084e+01  2.000000e+01
     vertex  1.129089e+02  1.201084e+01  2.000000e+01
   endloop
 endfacet
 facet normal  0.000000e+00  0.000000e+00  1.000000e+00
   outer loop
     vertex  1.398009e+02  0.000000e+00  2.000000e+01
     vertex  1.186546e+02  1.270851e+01  2.000000e+01
     vertex  1.158241e+02  1.201084e+01  2.000000e+01
   endloop
 endfacet
 facet normal  0.000000e+00  0.000000e+00  1.000000e+00
   outer loop
     vertex  1.398009e+02  0.000000e+00  2.000000e+01
     vertex  1.212359e+02  1.406328e+01  2.000000e+01
     vertex  1.186546e+02  1.270851e+01  2.000000e+01
   endloop
 endfacet
 facet normal  0.000000e+00  0.000000e+00  1.000000e+00
   outer loop
     vertex  1.398009e+02  0.000000e+00  2.000000e+01
     vertex  1.234180e+02  1.599644e+01  2.000000e+01
     vertex  1.212359e+02  1.406328e+01  2.000000e+01
   endloop
 endfacet
 facet normal  0.000000e+00  0.000000e+00  1.000000e+00
   outer loop
     vertex  1.398009e+02  0.000000e+00  2.000000e+01
     vertex  1.100783e+02  1.270851e+01  2.000000e+01
     vertex  0.000000e+00  0.000000e+00  2.000000e+01
   endloop
 endfacet
 facet normal  0.000000e+00  0.000000e+00  1.000000e+00
   outer loop
     vertex  1.074970e+02  3.396753e+01  2.000000e+01
     vertex  0.000000e+00  1.030209e+02  2.000000e+01
     vertex  1.053149e+02  3.203437e+01  2.000000e+01
   endloop
 endfacet
 facet normal  0.000000e+00  0.000000e+00  1.000000e+00
   outer loop
     vertex  1.250741e+02  1.839563e+01  2.000000e+01
     vertex  1.234180e+02  1.599644e+01  2.000000e+01
     vertex  1.398009e+02  0.000000e+00  2.000000e+01
   endloop
 endfacet
 facet normal  0.000000e+00  0.000000e+00  1.000000e+00
   outer loop
     vertex  1.261078e+02  2.112143e+01  2.000000e+01
     vertex  1.250741e+02  1.839563e+01  2.000000e+01
     vertex  1.398009e+02  0.000000e+00  2.000000e+01
   endloop
 endfacet
 facet normal -1.594885e-15 -1.033968e-15  1.000000e+00
   outer loop
     vertex  1.264592e+02  2.401541e+01  2.000000e+01
     vertex  1.261078e+02  2.112143e+01  2.000000e+01
     vertex  1.398009e+02  0.000000e+00  2.000000e+01
   endloop
 endfacet
 facet normal  3.168574e-15  1.612357e-15  1.000000e+00
   outer loop
     vertex  1.261078e+02  2.690939e+01  2.000000e+01
     vertex  1.264592e+02  2.401541e+01  2.000000e+01
     vertex  1.398009e+02  0.000000e+00  2.000000e+01
   endloop
 endfacet
 facet normal  0.000000e+00  0.000000e+00  1.000000e+00
   outer loop
     vertex  1.398009e+02  1.030209e+02  2.000000e+01
     vertex  1.250741e+02  2.963518e+01  2.000000e+01
     vertex  1.261078e+02  2.690939e+01  2.000000e+01
   endloop
 endfacet
 facet normal  0.000000e+00  0.000000e+00  1.000000e+00
   outer loop
     vertex  1.398009e+02  1.030209e+02  2.000000e+01
     vertex  1.234180e+02  3.203437e+01  2.000000e+01
     vertex  1.250741e+02  2.963518e+01  2.000000e+01
   endloop
 endfacet
 facet normal  0.000000e+00  0.000000e+00  1.000000e+00
   outer loop
     vertex  1.398009e+02  1.030209e+02  2.000000e+01
     vertex  1.212359e+02  3.396753e+01  2.000000e+01
     vertex  1.234180e+02  3.203437e+01  2.000000e+01
   endloop
 endfacet
 facet normal  0.000000e+00  0.000000e+00  1.000000e+00
   outer loop
     vertex  1.398009e+02  1.030209e+02  2.000000e+01
     vertex  1.186546e+02  3.532231e+01  2.000000e+01
     vertex  1.212359e+02  3.396753e+01  2.000000e+01
   endloop
 endfacet
 facet normal  0.000000e+00  0.000000e+00  1.000000e+00
   outer loop
     vertex  1.398009e+02  1.030209e+02  2.000000e+01
     vertex  1.158241e+02  3.601997e+01  2.000000e+01
     vertex  1.186546e+02  3.532231e+01  2.000000e+01
   endloop
 endfacet
 facet normal  0.000000e+00  0.000000e+00  1.000000e+00
   outer loop
     vertex  1.398009e+02  1.030209e+02  2.000000e+01
     vertex  1.129089e+02  3.601997e+01  2.000000e+01
     vertex  1.158241e+02  3.601997e+01  2.000000e+01
   endloop
 endfacet
 facet normal  0.000000e+00  0.000000e+00  1.000000e+00
   outer loop
     vertex  1.398009e+02  1.030209e+02  2.000000e+01
     vertex  1.100783e+02  3.532231e+01  2.000000e+01
     vertex  1.129089e+02  3.601997e+01  2.000000e+01
   endloop
 endfacet
 facet normal  0.000000e+00  0.000000e+00  1.000000e+00
   outer loop
     vertex  1.398009e+02  1.030209e+02  2.000000e+01
     vertex  1.074970e+02  3.396753e+01  2.000000e+01
     vertex  1.100783e+02  3.532231e+01  2.000000e+01
   endloop
 endfacet
 facet normal  0.000000e+00  0.000000e+00  1.000000e+00
   outer loop
     vertex  1.398009e+02  1.030209e+02  2.000000e+01
     vertex  0.000000e+00  1.030209e+02  2.000000e+01
     vertex  1.074970e+02  3.396753e+01  2.000000e+01
   endloop
 endfacet
 facet normal  0.000000e+00  0.000000e+00  1.000000e+00
   outer loop
     vertex  1.398009e+02  1.030209e+02  2.000000e+01
     vertex  1.261078e+02  2.690939e+01  2.000000e+01
     vertex  1.398009e+02  0.000000e+00  2.000000e+01
   endloop
 endfacet
 facet normal  0.000000e+00  1.000000e+00  0.000000e+00
   outer loop
     vertex  1.398009e+02  1.030209e+02  2.000000e+01
     vertex  1.398009e+02  1.030209e+02  0.000000e+00
     vertex  0.000000e+00  1.030209e+02  0.000000e+00
   endloop
 endfacet
 facet normal  0.000000e+00  1.000000e+00  0.000000e+00
   outer loop
     vertex  1.398009e+02  1.030209e+02  2.000000e+01
     vertex  0.000000e+00  1.030209e+02  0.000000e+00
     vertex  0.000000e+00  1.030209e+02  2.000000e+01
   endloop
 endfacet
 facet normal -0.000000e+00  0.000000e+00 -1.000000e+00
   outer loop
     vertex  1.398009e+02  1.030209e+02  0.000000e+00
     vertex  0.000000e+00  0.000000e+00  0.000000e+00
     vertex  0.000000e+00  1.030209e+02  0.000000e+00
   endloop
 endfacet
 facet normal  0.000000e+00 -0.000000e+00 -1.000000e+00
   outer loop
     vertex  1.398009e+02  1.030209e+02  0.000000e+00
     vertex  1.398009e+02  0.000000e+00  0.000000e+00
     vertex  0.000000e+00  0.000000e+00  0.000000e+00
   endloop
 endfacet
 facet normal  1.000000e+00  0.000000e+00  0.000000e+00
   outer loop
     vertex  1.398009e+02  0.000000e+00  2.000000e+01
     vertex  1.398009e+02  0.000000e+00  0.000000e+00
     vertex  1.398009e+02  1.030209e+02  0.000000e+00
   endloop
 endfacet
 facet normal  1.000000e+00 -0.000000e+00  0.000000e+00
   outer loop
     vertex  1.398009e+02  0.000000e+00  2.000000e+01
     vertex  1.398009e+02  1.030209e+02  0.000000e+00
     vertex  1.398009e+02  1.030209e+02  2.000000e+01
   endloop
 endfacet
 facet normal  9.870071e-01  1.198444e-01 -1.070247e-01
   outer loop
     vertex  1.267576e+02  2.401541e+01  2.275174e+01
     vertex  1.264592e+02  2.401541e+01  2.000000e+01
     vertex  1.261078e+02  2.690939e+01  2.000000e+01
   endloop
 endfacet
 facet normal  9.870071e-01 -1.198444e-01 -1.070247e-01
   outer loop
     vertex  1.267576e+02  2.401541e+01  2.275174e+01
     vertex  1.261078e+02  2.112143e+01  2.000000e+01
     vertex  1.264592e+02  2.401541e+01  2.000000e+01
   endloop
 endfacet
 facet normal  9.926196e-01  3.698698e-02  1.154916e-01
   outer loop
     vertex  1.265815e+02  2.585653e+01  2.367530e+01
     vertex  1.264377e+02  2.401541e+01  2.550107e+01
     vertex  1.267576e+02  2.401541e+01  2.275174e+01
   endloop
 endfacet
 facet normal  9.865197e-01  1.382538e-01 -8.754856e-02
   outer loop
     vertex  1.265815e+02  2.585653e+01  2.367530e+01
     vertex  1.267576e+02  2.401541e+01  2.275174e+01
     vertex  1.261078e+02  2.690939e+01  2.000000e+01
   endloop
 endfacet
 facet normal  9.318655e-01  3.534100e-01 -8.202458e-02
   outer loop
     vertex  1.254962e+02  2.937518e+01  2.367530e+01
     vertex  1.261078e+02  2.690939e+01  2.000000e+01
     vertex  1.250741e+02  2.963518e+01  2.000000e+01
   endloop
 endfacet
 facet normal  9.548570e-01  2.945344e-01 -3.869804e-02
   outer loop
     vertex  1.254962e+02  2.937518e+01  2.367530e+01
     vertex  1.265815e+02  2.585653e+01  2.367530e+01
     vertex  1.261078e+02  2.690939e+01  2.000000e+01
   endloop
 endfacet
 facet normal  8.215016e-01  5.670416e-01 -5.999094e-02
   outer loop
     vertex  1.234219e+02  3.241760e+01  2.367530e+01
     vertex  1.250741e+02  2.963518e+01  2.000000e+01
     vertex  1.234180e+02  3.203437e+01  2.000000e+01
   endloop
 endfacet
 facet normal  6.610762e-01  7.462007e-01 -7.850316e-02
   outer loop
     vertex  1.234219e+02  3.241760e+01  2.367530e+01
     vertex  1.234180e+02  3.203437e+01  2.000000e+01
     vertex  1.212359e+02  3.396753e+01  2.000000e+01
   endloop
 endfacet
 facet normal  8.249899e-01  5.624686e-01 -5.496078e-02
   outer loop
     vertex  1.234219e+02  3.241760e+01  2.367530e+01
     vertex  1.254962e+02  2.937518e+01  2.367530e+01
     vertex  1.250741e+02  2.963518e+01  2.000000e+01
   endloop
 endfacet
 facet normal  9.540141e-01  1.701845e-01  2.467679e-01
   outer loop
     vertex  1.253757e+02  2.741131e+01  2.726466e+01
     vertex  1.264377e+02  2.401541e+01  2.550107e+01
     vertex  1.265815e+02  2.585653e+01  2.367530e+01
   endloop
 endfacet
 facet normal  9.359449e-01  1.209295e-01  3.307314e-01
   outer loop
     vertex  1.253757e+02  2.741131e+01  2.726466e+01
     vertex  1.255155e+02  2.401541e+01  2.811080e+01
     vertex  1.264377e+02  2.401541e+01  2.550107e+01
   endloop
 endfacet
 facet normal  9.382000e-01  2.893964e-01  1.898170e-01
   outer loop
     vertex  1.253757e+02  2.741131e+01  2.726466e+01
     vertex  1.265815e+02  2.585653e+01  2.367530e+01
     vertex  1.254962e+02  2.937518e+01  2.367530e+01
   endloop
 endfacet
 facet normal  4.627652e-01  8.817254e-01 -9.169868e-02
   outer loop
     vertex  1.205430e+02  3.471344e+01  2.367530e+01
     vertex  1.212359e+02  3.396753e+01  2.000000e+01
     vertex  1.186546e+02  3.532231e+01  2.000000e+01
   endloop
 endfacet
 facet normal  6.229633e-01  7.811713e-01 -4.108717e-02
   outer loop
     vertex  1.205430e+02  3.471344e+01  2.367530e+01
     vertex  1.234219e+02  3.241760e+01  2.367530e+01
     vertex  1.212359e+02  3.396753e+01  2.000000e+01
   endloop
 endfacet
 facet normal  8.703402e-01  4.191338e-01  2.585242e-01
   outer loop
     vertex  1.238857e+02  3.050548e+01  2.726466e+01
     vertex  1.253757e+02  2.741131e+01  2.726466e+01
     vertex  1.254962e+02  2.937518e+01  2.367530e+01
   endloop
 endfacet
 facet normal  8.112173e-01  5.530786e-01  1.898170e-01
   outer loop
     vertex  1.238857e+02  3.050548e+01  2.726466e+01
     vertex  1.254962e+02  2.937518e+01  2.367530e+01
     vertex  1.234219e+02  3.241760e+01  2.367530e+01
   endloop
 endfacet
 facet normal  8.596045e-01  1.565698e-01  4.863805e-01
   outer loop
     vertex  1.239290e+02  2.545673e+01  3.045072e+01
     vertex  1.255155e+02  2.401541e+01  2.811080e+01
     vertex  1.253757e+02  2.741131e+01  2.726466e+01
   endloop
 endfacet
 facet normal  8.436931e-01  6.322606e-02  5.330894e-01
   outer loop
     vertex  1.239290e+02  2.545673e+01  3.045072e+01
     vertex  1.240370e+02  2.401541e+01  3.045072e+01
     vertex  1.255155e+02  2.401541e+01  2.811080e+01
   endloop
 endfacet
 facet normal  7.047385e-01  5.281285e-02  7.074987e-01
   outer loop
     vertex  1.239290e+02  2.545673e+01  3.045072e+01
     vertex  1.220760e+02  2.401541e+01  3.240407e+01
     vertex  1.240370e+02  2.401541e+01  3.045072e+01
   endloop
 endfacet
 facet normal  2.382584e-01  9.666523e-01 -9.389513e-02
   outer loop
     vertex  1.171153e+02  3.605871e+01  2.367530e+01
     vertex  1.186546e+02  3.532231e+01  2.000000e+01
     vertex  1.158241e+02  3.601997e+01  2.000000e+01
   endloop
 endfacet
 facet normal  3.651362e-01  9.303519e-01 -3.348114e-02
   outer loop
     vertex  1.171153e+02  3.605871e+01  2.367530e+01
     vertex  1.205430e+02  3.471344e+01  2.367530e+01
     vertex  1.186546e+02  3.532231e+01  2.000000e+01
   endloop
 endfacet
 facet normal  6.121544e-01  7.676174e-01  1.898170e-01
   outer loop
     vertex  1.215498e+02  3.302298e+01  2.726466e+01
     vertex  1.234219e+02  3.241760e+01  2.367530e+01
     vertex  1.205430e+02  3.471344e+01  2.367530e+01
   endloop
 endfacet
 facet normal  7.081316e-01  6.570501e-01  2.585242e-01
   outer loop
     vertex  1.215498e+02  3.302298e+01  2.726466e+01
     vertex  1.238857e+02  3.050548e+01  2.726466e+01
     vertex  1.234219e+02  3.241760e+01  2.367530e+01
   endloop
 endfacet
 facet normal  8.140587e-01  2.511039e-01  5.236939e-01
   outer loop
     vertex  1.230794e+02  2.821130e+01  3.045072e+01
     vertex  1.239290e+02  2.545673e+01  3.045072e+01
     vertex  1.253757e+02  2.741131e+01  2.726466e+01
   endloop
 endfacet
 facet normal  7.926211e-01  3.817062e-01  4.754495e-01
   outer loop
     vertex  1.230794e+02  2.821130e+01  3.045072e+01
     vertex  1.253757e+02  2.741131e+01  2.726466e+01
     vertex  1.238857e+02  3.050548e+01  2.726466e+01
   endloop
 endfacet
 facet normal  0.000000e+00  9.963720e-01 -8.510433e-02
   outer loop
     vertex  1.134433e+02  3.633389e+01  2.367530e+01
     vertex  1.158241e+02  3.601997e+01  2.000000e+01
     vertex  1.129089e+02  3.601997e+01  2.000000e+01
   endloop
 endfacet
 facet normal  7.467963e-02  9.965305e-01 -3.674238e-02
   outer loop
     vertex  1.134433e+02  3.633389e+01  2.367530e+01
     vertex  1.171153e+02  3.605871e+01  2.367530e+01
     vertex  1.158241e+02  3.601997e+01  2.000000e+01
   endloop
 endfacet
 facet normal  4.830024e-01  8.365847e-01  2.585242e-01
   outer loop
     vertex  1.185756e+02  3.474011e+01  2.726466e+01
     vertex  1.215498e+02  3.302298e+01  2.726466e+01
     vertex  1.205430e+02  3.471344e+01  2.367530e+01
   endloop
 endfacet
 facet normal  3.586989e-01  9.139500e-01  1.898170e-01
   outer loop
     vertex  1.185756e+02  3.474011e+01  2.726466e+01
     vertex  1.205430e+02  3.471344e+01  2.367530e+01
     vertex  1.171153e+02  3.605871e+01  2.367530e+01
   endloop
 endfacet
 facet normal  7.038782e-01  4.798960e-01  5.236939e-01
   outer loop
     vertex  1.214555e+02  3.059305e+01  3.045072e+01
     vertex  1.230794e+02  2.821130e+01  3.045072e+01
     vertex  1.238857e+02  3.050548e+01  2.726466e+01
   endloop
 endfacet
 facet normal  6.448973e-01  5.983772e-01  4.754495e-01
   outer loop
     vertex  1.214555e+02  3.059305e+01  3.045072e+01
     vertex  1.238857e+02  3.050548e+01  2.726466e+01
     vertex  1.215498e+02  3.302298e+01  2.726466e+01
   endloop
 endfacet
 facet normal  5.302777e-01  4.639921e-02  8.465534e-01
   outer loop
     vertex  1.210220e+02  2.606836e+01  3.295179e+01
     vertex  1.197304e+02  2.401541e+01  3.387340e+01
     vertex  1.220760e+02  2.401541e+01  3.240407e+01
   endloop
 endfacet
 facet normal  6.626366e-01  1.441316e-01  7.349414e-01
   outer loop
     vertex  1.210220e+02  2.606836e+01  3.295179e+01
     vertex  1.220760e+02  2.401541e+01  3.240407e+01
     vertex  1.239290e+02  2.545673e+01  3.045072e+01
   endloop
 endfacet
 facet normal  6.627829e-01  2.044415e-01  7.203627e-01
   outer loop
     vertex  1.210220e+02  2.606836e+01  3.295179e+01
     vertex  1.239290e+02  2.545673e+01  3.045072e+01
     vertex  1.230794e+02  2.821130e+01  3.045072e+01
   endloop
 endfacet
 facet normal -2.388051e-01  9.688705e-01 -6.528380e-02
   outer loop
     vertex  1.098534e+02  3.551451e+01  2.367530e+01
     vertex  1.129089e+02  3.601997e+01  2.000000e+01
     vertex  1.100783e+02  3.532231e+01  2.000000e+01
   endloop
 endfacet
 facet normal -4.634303e-01  8.829927e-01 -7.453954e-02
   outer loop
     vertex  1.098534e+02  3.551451e+01  2.367530e+01
     vertex  1.100783e+02  3.532231e+01  2.000000e+01
     vertex  1.074970e+02  3.396753e+01  2.000000e+01
   endloop
 endfacet
 facet normal -2.222331e-01  9.736668e-01 -5.084705e-02
   outer loop
     vertex  1.098534e+02  3.551451e+01  2.367530e+01
     vertex  1.134433e+02  3.633389e+01  2.367530e+01
     vertex  1.129089e+02  3.601997e+01  2.000000e+01
   endloop
 endfacet
 facet normal  2.149563e-01  9.417850e-01  2.585242e-01
   outer loop
     vertex  1.152275e+02  3.550431e+01  2.726466e+01
     vertex  1.185756e+02  3.474011e+01  2.726466e+01
     vertex  1.171153e+02  3.605871e+01  2.367530e+01
   endloop
 endfacet
 facet normal  7.337146e-02  9.790741e-01  1.898170e-01
   outer loop
     vertex  1.152275e+02  3.550431e+01  2.726466e+01
     vertex  1.171153e+02  3.605871e+01  2.367530e+01
     vertex  1.134433e+02  3.633389e+01  2.367530e+01
   endloop
 endfacet
 facet normal  4.398715e-01  7.618798e-01  4.754495e-01
   outer loop
     vertex  1.192018e+02  3.239035e+01  3.045072e+01
     vertex  1.215498e+02  3.302298e+01  2.726466e+01
     vertex  1.185756e+02  3.474011e+01  2.726466e+01
   endloop
 endfacet
 facet normal  5.311550e-01  6.660473e-01  5.236939e-01
   outer loop
     vertex  1.192018e+02  3.239035e+01  3.045072e+01
     vertex  1.214555e+02  3.059305e+01  3.045072e+01
     vertex  1.215498e+02  3.302298e+01  2.726466e+01
   endloop
 endfacet
 facet normal  6.021868e-01  2.899979e-01  7.438228e-01
   outer loop
     vertex  1.201212e+02  2.793891e+01  3.295179e+01
     vertex  1.210220e+02  2.606836e+01  3.295179e+01
     vertex  1.230794e+02  2.821130e+01  3.045072e+01
   endloop
 endfacet
 facet normal  5.730772e-01  3.907174e-01  7.203627e-01
   outer loop
     vertex  1.201212e+02  2.793891e+01  3.295179e+01
     vertex  1.230794e+02  2.821130e+01  3.045072e+01
     vertex  1.214555e+02  3.059305e+01  3.045072e+01
   endloop
 endfacet
 facet normal  3.277811e-01 -1.016643e-01  9.392677e-01
   outer loop
     vertex  1.179693e+02  2.455845e+01  3.454672e+01
     vertex  1.171170e+02  2.401541e+01  3.478538e+01
     vertex  1.197304e+02  2.401541e+01  3.387340e+01
   endloop
 endfacet
 facet normal  1.080554e-01  2.529338e-01  9.614305e-01
   outer loop
     vertex  1.179693e+02  2.455845e+01  3.454672e+01
     vertex  1.143665e+02  2.401541e+01  3.509451e+01
     vertex  1.171170e+02  2.401541e+01  3.478538e+01
   endloop
 endfacet
 facet normal  3.947719e-01  1.579390e-01  9.051024e-01
   outer loop
     vertex  1.179693e+02  2.455845e+01  3.454672e+01
     vertex  1.197304e+02  2.401541e+01  3.387340e+01
     vertex  1.210220e+02  2.606836e+01  3.295179e+01
   endloop
 endfacet
 facet normal -4.995178e-01  8.651902e-01 -4.390902e-02
   outer loop
     vertex  1.066645e+02  3.367339e+01  2.367530e+01
     vertex  1.098534e+02  3.551451e+01  2.367530e+01
     vertex  1.074970e+02  3.396753e+01  2.000000e+01
   endloop
 endfacet
 facet normal -6.604351e-01  7.454771e-01 -8.994090e-02
   outer loop
     vertex  1.066645e+02  3.367339e+01  2.367530e+01
     vertex  1.074970e+02  3.396753e+01  2.000000e+01
     vertex  1.053149e+02  3.203437e+01  2.000000e+01
   endloop
 endfacet
 facet normal -2.184754e-01  9.572032e-01  1.898170e-01
   outer loop
     vertex  1.118028e+02  3.524766e+01  2.726466e+01
     vertex  1.134433e+02  3.633389e+01  2.367530e+01
     vertex  1.098534e+02  3.551451e+01  2.367530e+01
   endloop
 endfacet
 facet normal -7.218963e-02  9.633036e-01  2.585242e-01
   outer loop
     vertex  1.118028e+02  3.524766e+01  2.726466e+01
     vertex  1.152275e+02  3.550431e+01  2.726466e+01
     vertex  1.134433e+02  3.633389e+01  2.367530e+01
   endloop
 endfacet
 facet normal  1.957612e-01  8.576860e-01  4.754495e-01
   outer loop
     vertex  1.165184e+02  3.344350e+01  3.045072e+01
     vertex  1.185756e+02  3.474011e+01  2.726466e+01
     vertex  1.152275e+02  3.550431e+01  2.726466e+01
   endloop
 endfacet
 facet normal  3.112364e-01  7.930174e-01  5.236939e-01
   outer loop
     vertex  1.165184e+02  3.344350e+01  3.045072e+01
     vertex  1.192018e+02  3.239035e+01  3.045072e+01
     vertex  1.185756e+02  3.474011e+01  2.726466e+01
   endloop
 endfacet
 facet normal  4.324510e-01  5.422764e-01  7.203627e-01
   outer loop
     vertex  1.187091e+02  2.946083e+01  3.295179e+01
     vertex  1.214555e+02  3.059305e+01  3.045072e+01
     vertex  1.192018e+02  3.239035e+01  3.045072e+01
   endloop
 endfacet
 facet normal  4.899549e-01  4.546118e-01  7.438228e-01
   outer loop
     vertex  1.187091e+02  2.946083e+01  3.295179e+01
     vertex  1.201212e+02  2.793891e+01  3.295179e+01
     vertex  1.214555e+02  3.059305e+01  3.045072e+01
   endloop
 endfacet
 facet normal  3.975586e-01  1.914541e-01  8.973809e-01
   outer loop
     vertex  1.176492e+02  2.559628e+01  3.454672e+01
     vertex  1.210220e+02  2.606836e+01  3.295179e+01
     vertex  1.201212e+02  2.793891e+01  3.295179e+01
   endloop
 endfacet
 facet normal  1.436376e-01  4.430633e-02  9.886380e-01
   outer loop
     vertex  1.176492e+02  2.559628e+01  3.454672e+01
     vertex  1.143665e+02  2.401541e+01  3.509451e+01
     vertex  1.179693e+02  2.455845e+01  3.454672e+01
   endloop
 endfacet
 facet normal  4.095632e-01  1.263335e-01  9.034920e-01
   outer loop
     vertex  1.176492e+02  2.559628e+01  3.454672e+01
     vertex  1.179693e+02  2.455845e+01  3.454672e+01
     vertex  1.210220e+02  2.606836e+01  3.295179e+01
   endloop
 endfacet
 facet normal -8.193138e-01  5.655315e-01 -9.433432e-02
   outer loop
     vertex  1.041599e+02  3.097411e+01  2.367530e+01
     vertex  1.053149e+02  3.203437e+01  2.000000e+01
     vertex  1.036589e+02  2.963518e+01  2.000000e+01
   endloop
 endfacet
 facet normal -7.326247e-01  6.797764e-01 -3.413357e-02
   outer loop
     vertex  1.041599e+02  3.097411e+01  2.367530e+01
     vertex  1.066645e+02  3.367339e+01  2.367530e+01
     vertex  1.053149e+02  3.203437e+01  2.000000e+01
   endloop
 endfacet
 facet normal -4.909097e-01  8.502806e-01  1.898170e-01
   outer loop
     vertex  1.086059e+02  3.399298e+01  2.726466e+01
     vertex  1.098534e+02  3.551451e+01  2.367530e+01
     vertex  1.066645e+02  3.367339e+01  2.367530e+01
   endloop
 endfacet
 facet normal -3.529212e-01  8.992285e-01  2.585242e-01
   outer loop
     vertex  1.086059e+02  3.399298e+01  2.726466e+01
     vertex  1.118028e+02  3.524766e+01  2.726466e+01
     vertex  1.098534e+02  3.551451e+01  2.367530e+01
   endloop
 endfacet
 facet normal -6.574328e-02  8.772831e-01  4.754495e-01
   outer loop
     vertex  1.136438e+02  3.365892e+01  3.045072e+01
     vertex  1.152275e+02  3.550431e+01  2.726466e+01
     vertex  1.118028e+02  3.524766e+01  2.726466e+01
   endloop
 endfacet
 facet normal  6.366305e-02  8.495244e-01  5.236939e-01
   outer loop
     vertex  1.136438e+02  3.365892e+01  3.045072e+01
     vertex  1.165184e+02  3.344350e+01  3.045072e+01
     vertex  1.152275e+02  3.550431e+01  2.726466e+01
   endloop
 endfacet
 facet normal  3.341885e-01  5.788314e-01  7.438228e-01
   outer loop
     vertex  1.169111e+02  3.049891e+01  3.295179e+01
     vertex  1.187091e+02  2.946083e+01  3.295179e+01
     vertex  1.192018e+02  3.239035e+01  3.045072e+01
   endloop
 endfacet
 facet normal  2.533996e-01  6.456517e-01  7.203627e-01
   outer loop
     vertex  1.169111e+02  3.049891e+01  3.295179e+01
     vertex  1.192018e+02  3.239035e+01  3.045072e+01
     vertex  1.165184e+02  3.344350e+01  3.045072e+01
   endloop
 endfacet
 facet normal  1.241967e-01  8.467586e-02  9.886380e-01
   outer loop
     vertex  1.170374e+02  2.649365e+01  3.454672e+01
     vertex  1.143665e+02  2.401541e+01  3.509451e+01
     vertex  1.176492e+02  2.559628e+01  3.454672e+01
   endloop
 endfacet
 facet normal  3.234641e-01  3.001308e-01  8.973809e-01
   outer loop
     vertex  1.170374e+02  2.649365e+01  3.454672e+01
     vertex  1.201212e+02  2.793891e+01  3.295179e+01
     vertex  1.187091e+02  2.946083e+01  3.295179e+01
   endloop
 endfacet
 facet normal  3.541300e-01  2.414417e-01  9.034920e-01
   outer loop
     vertex  1.170374e+02  2.649365e+01  3.454672e+01
     vertex  1.176492e+02  2.559628e+01  3.454672e+01
     vertex  1.201212e+02  2.793891e+01  3.295179e+01
   endloop
 endfacet
 facet normal -9.314100e-01  3.532372e-01 -8.774294e-02
   outer loop
     vertex  1.025623e+02  2.765652e+01  2.367530e+01
     vertex  1.036589e+02  2.963518e+01  2.000000e+01
     vertex  1.026251e+02  2.690939e+01  2.000000e+01
   endloop
 endfacet
 facet normal -9.004099e-01  4.336145e-01 -3.522074e-02
   outer loop
     vertex  1.025623e+02  2.765652e+01  2.367530e+01
     vertex  1.041599e+02  3.097411e+01  2.367530e+01
     vertex  1.036589e+02  2.963518e+01  2.000000e+01
   endloop
 endfacet
 facet normal -7.197246e-01  6.678069e-01  1.898170e-01
   outer loop
     vertex  1.059209e+02  3.185175e+01  2.726466e+01
     vertex  1.066645e+02  3.367339e+01  2.367530e+01
     vertex  1.041599e+02  3.097411e+01  2.367530e+01
   endloop
 endfacet
 facet normal -6.022941e-01  7.552529e-01  2.585242e-01
   outer loop
     vertex  1.059209e+02  3.185175e+01  2.726466e+01
     vertex  1.086059e+02  3.399298e+01  2.726466e+01
     vertex  1.066645e+02  3.367339e+01  2.367530e+01
   endloop
 endfacet
 facet normal -1.895670e-01  8.305474e-01  5.236939e-01
   outer loop
     vertex  1.108334e+02  3.301747e+01  3.045072e+01
     vertex  1.136438e+02  3.365892e+01  3.045072e+01
     vertex  1.118028e+02  3.524766e+01  2.726466e+01
   endloop
 endfacet
 facet normal -3.214062e-01  8.189297e-01  4.754495e-01
   outer loop
     vertex  1.108334e+02  3.301747e+01  3.045072e+01
     vertex  1.118028e+02  3.524766e+01  2.726466e+01
     vertex  1.086059e+02  3.399298e+01  2.726466e+01
   endloop
 endfacet
 facet normal  5.183261e-02  6.916581e-01  7.203627e-01
   outer loop
     vertex  1.148870e+02  3.096089e+01  3.295179e+01
     vertex  1.165184e+02  3.344350e+01  3.045072e+01
     vertex  1.136438e+02  3.365892e+01  3.045072e+01
   endloop
 endfacet
 facet normal  1.487279e-01  6.516193e-01  7.438228e-01
   outer loop
     vertex  1.148870e+02  3.096089e+01  3.295179e+01
     vertex  1.169111e+02  3.049891e+01  3.295179e+01
     vertex  1.165184e+02  3.344350e+01  3.045072e+01
   endloop
 endfacet
 facet normal  2.206284e-01  3.821396e-01  8.973809e-01
   outer loop
     vertex  1.161883e+02  2.717082e+01  3.454672e+01
     vertex  1.187091e+02  2.946083e+01  3.295179e+01
     vertex  1.169111e+02  3.049891e+01  3.295179e+01
   endloop
 endfacet
 facet normal  2.672308e-01  3.350968e-01  9.034920e-01
   outer loop
     vertex  1.161883e+02  2.717082e+01  3.454672e+01
     vertex  1.170374e+02  2.649365e+01  3.454672e+01
     vertex  1.187091e+02  2.946083e+01  3.295179e+01
   endloop
 endfacet
 facet normal  9.372031e-02  1.175216e-01  9.886380e-01
   outer loop
     vertex  1.161883e+02  2.717082e+01  3.454672e+01
     vertex  1.143665e+02  2.401541e+01  3.509451e+01
     vertex  1.170374e+02  2.649365e+01  3.454672e+01
   endloop
 endfacet
 facet normal -9.902645e-01  1.202399e-01 -7.013323e-02
   outer loop
     vertex  1.020135e+02  2.401541e+01  2.367530e+01
     vertex  1.026251e+02  2.690939e+01  2.000000e+01
     vertex  1.022738e+02  2.401541e+01  2.000000e+01
   endloop
 endfacet
 facet normal -9.902645e-01 -1.202399e-01 -7.013323e-02
   outer loop
     vertex  1.020135e+02  2.401541e+01  2.367530e+01
     vertex  1.022738e+02  2.401541e+01  2.000000e+01
     vertex  1.026251e+02  2.112143e+01  2.000000e+01
   endloop
 endfacet
 facet normal -9.877305e-01  1.488764e-01 -4.716269e-02
   outer loop
     vertex  1.020135e+02  2.401541e+01  2.367530e+01
     vertex  1.025623e+02  2.765652e+01  2.367530e+01
     vertex  1.026251e+02  2.690939e+01  2.000000e+01
   endloop
 endfacet
 facet normal -7.981506e-01  5.441699e-01  2.585242e-01
   outer loop
     vertex  1.039863e+02  2.901423e+01  2.726466e+01
     vertex  1.059209e+02  3.185175e+01  2.726466e+01
     vertex  1.041599e+02  3.097411e+01  2.367530e+01
   endloop
 endfacet
 facet normal -8.845888e-01  4.259955e-01  1.898170e-01
   outer loop
     vertex  1.039863e+02  2.901423e+01  2.726466e+01
     vertex  1.041599e+02  3.097411e+01  2.367530e+01
     vertex  1.025623e+02  2.765652e+01  2.367530e+01
   endloop
 endfacet
 facet normal -5.485108e-01  6.878108e-01  4.754495e-01
   outer loop
     vertex  1.083370e+02  3.157615e+01  3.045072e+01
     vertex  1.086059e+02  3.399298e+01  2.726466e+01
     vertex  1.059209e+02  3.185175e+01  2.726466e+01
   endloop
 endfacet
 facet normal -4.259533e-01  7.377727e-01  5.236939e-01
   outer loop
     vertex  1.083370e+02  3.157615e+01  3.045072e+01
     vertex  1.108334e+02  3.301747e+01  3.045072e+01
     vertex  1.086059e+02  3.399298e+01  2.726466e+01
   endloop
 endfacet
 facet normal -1.543400e-01  6.762076e-01  7.203627e-01
   outer loop
     vertex  1.128166e+02  3.080574e+01  3.295179e+01
     vertex  1.136438e+02  3.365892e+01  3.045072e+01
     vertex  1.108334e+02  3.301747e+01  3.045072e+01
   endloop
 endfacet
 facet normal -4.994787e-02  6.665080e-01  7.438228e-01
   outer loop
     vertex  1.128166e+02  3.080574e+01  3.295179e+01
     vertex  1.148870e+02  3.096089e+01  3.295179e+01
     vertex  1.136438e+02  3.365892e+01  3.045072e+01
   endloop
 endfacet
 facet normal  5.491650e-02  1.399250e-01  9.886380e-01
   outer loop
     vertex  1.151773e+02  2.756761e+01  3.454672e+01
     vertex  1.143665e+02  2.401541e+01  3.509451e+01
     vertex  1.161883e+02  2.717082e+01  3.454672e+01
   endloop
 endfacet
 facet normal  9.818888e-02  4.301936e-01  8.973809e-01
   outer loop
     vertex  1.151773e+02  2.756761e+01  3.454672e+01
     vertex  1.169111e+02  3.049891e+01  3.295179e+01
     vertex  1.148870e+02  3.096089e+01  3.295179e+01
   endloop
 endfacet
 facet normal  1.565870e-01  3.989771e-01  9.034920e-01
   outer loop
     vertex  1.151773e+02  2.756761e+01  3.454672e+01
     vertex  1.161883e+02  2.717082e+01  3.454672e+01
     vertex  1.169111e+02  3.049891e+01  3.295179e+01
   endloop
 endfacet
 facet normal -9.314100e-01 -3.532372e-01 -8.774294e-02
   outer loop
     vertex  1.025623e+02  2.037429e+01  2.367530e+01
     vertex  1.026251e+02  2.112143e+01  2.000000e+01
     vertex  1.036589e+02  1.839563e+01  2.000000e+01
   endloop
 endfacet
 facet normal -9.877305e-01 -1.488764e-01 -4.716269e-02
   outer loop
     vertex  1.025623e+02  2.037429e+01  2.367530e+01
     vertex  1.020135e+02  2.401541e+01  2.367530e+01
     vertex  1.026251e+02  2.112143e+01  2.000000e+01
   endloop
 endfacet
 facet normal -9.708534e-01  1.463326e-01  1.898170e-01
   outer loop
     vertex  1.029740e+02  2.573254e+01  2.726466e+01
     vertex  1.025623e+02  2.765652e+01  2.367530e+01
     vertex  1.020135e+02  2.401541e+01  2.367530e+01
   endloop
 endfacet
 facet normal -9.230879e-01  2.847349e-01  2.585242e-01
   outer loop
     vertex  1.029740e+02  2.573254e+01  2.726466e+01
     vertex  1.039863e+02  2.901423e+01  2.726466e+01
     vertex  1.025623e+02  2.765652e+01  2.367530e+01
   endloop
 endfacet
 facet normal -7.268778e-01  4.955769e-01  4.754495e-01
   outer loop
     vertex  1.063763e+02  2.946302e+01  3.045072e+01
     vertex  1.059209e+02  3.185175e+01  2.726466e+01
     vertex  1.039863e+02  2.901423e+01  2.726466e+01
   endloop
 endfacet
 facet normal -6.244917e-01  5.794436e-01  5.236939e-01
   outer loop
     vertex  1.063763e+02  2.946302e+01  3.045072e+01
     vertex  1.083370e+02  3.157615e+01  3.045072e+01
     vertex  1.059209e+02  3.185175e+01  2.726466e+01
   endloop
 endfacet
 facet normal -2.441855e-01  6.221745e-01  7.438228e-01
   outer loop
     vertex  1.108840e+02  3.004724e+01  3.295179e+01
     vertex  1.128166e+02  3.080574e+01  3.295179e+01
     vertex  1.108334e+02  3.301747e+01  3.045072e+01
   endloop
 endfacet
 facet normal -3.467988e-01  6.006731e-01  7.203627e-01
   outer loop
     vertex  1.108840e+02  3.004724e+01  3.295179e+01
     vertex  1.108334e+02  3.301747e+01  3.045072e+01
     vertex  1.083370e+02  3.157615e+01  3.045072e+01
   endloop
 endfacet
 facet normal  1.123311e-02  1.498954e-01  9.886380e-01
   outer loop
     vertex  1.140942e+02  2.764877e+01  3.454672e+01
     vertex  1.143665e+02  2.401541e+01  3.509451e+01
     vertex  1.151773e+02  2.756761e+01  3.454672e+01
   endloop
 endfacet
 facet normal -3.297516e-02  4.400230e-01  8.973809e-01
   outer loop
     vertex  1.140942e+02  2.764877e+01  3.454672e+01
     vertex  1.148870e+02  3.096089e+01  3.295179e+01
     vertex  1.128166e+02  3.080574e+01  3.295179e+01
   endloop
 endfacet
 facet normal  3.202969e-02  4.274065e-01  9.034920e-01
   outer loop
     vertex  1.140942e+02  2.764877e+01  3.454672e+01
     vertex  1.151773e+02  2.756761e+01  3.454672e+01
     vertex  1.148870e+02  3.096089e+01  3.295179e+01
   endloop
 endfacet
 facet normal -8.193138e-01 -5.655315e-01 -9.433432e-02
   outer loop
     vertex  1.041599e+02  1.705670e+01  2.367530e+01
     vertex  1.036589e+02  1.839563e+01  2.000000e+01
     vertex  1.053149e+02  1.599644e+01  2.000000e+01
   endloop
 endfacet
 facet normal -9.004099e-01 -4.336145e-01 -3.522074e-02
   outer loop
     vertex  1.041599e+02  1.705670e+01  2.367530e+01
     vertex  1.025623e+02  2.037429e+01  2.367530e+01
     vertex  1.036589e+02  1.839563e+01  2.000000e+01
   endloop
 endfacet
 facet normal -9.708534e-01 -1.463326e-01  1.898170e-01
   outer loop
     vertex  1.029740e+02  2.229827e+01  2.726466e+01
     vertex  1.020135e+02  2.401541e+01  2.367530e+01
     vertex  1.025623e+02  2.037429e+01  2.367530e+01
   endloop
 endfacet
 facet normal -9.660048e-01  0.000000e+00  2.585242e-01
   outer loop
     vertex  1.029740e+02  2.229827e+01  2.726466e+01
     vertex  1.029740e+02  2.573254e+01  2.726466e+01
     vertex  1.020135e+02  2.401541e+01  2.367530e+01
   endloop
 endfacet
 facet normal -7.675413e-01  3.696284e-01  5.236939e-01
   outer loop
     vertex  1.051256e+02  2.686585e+01  3.045072e+01
     vertex  1.063763e+02  2.946302e+01  3.045072e+01
     vertex  1.039863e+02  2.901423e+01  2.726466e+01
   endloop
 endfacet
 facet normal -8.406585e-01  2.593088e-01  4.754495e-01
   outer loop
     vertex  1.051256e+02  2.686585e+01  3.045072e+01
     vertex  1.039863e+02  2.901423e+01  2.726466e+01
     vertex  1.029740e+02  2.573254e+01  2.726466e+01
   endloop
 endfacet
 facet normal -4.167262e-01  5.225581e-01  7.438228e-01
   outer loop
     vertex  1.092608e+02  2.875278e+01  3.295179e+01
     vertex  1.108840e+02  3.004724e+01  3.295179e+01
     vertex  1.083370e+02  3.157615e+01  3.045072e+01
   endloop
 endfacet
 facet normal -5.084430e-01  4.717661e-01  7.203627e-01
   outer loop
     vertex  1.092608e+02  2.875278e+01  3.295179e+01
     vertex  1.083370e+02  3.157615e+01  3.045072e+01
     vertex  1.063763e+02  2.946302e+01  3.045072e+01
   endloop
 endfacet
 facet normal -9.537357e-02  4.178589e-01  9.034920e-01
   outer loop
     vertex  1.130353e+02  2.740710e+01  3.454672e+01
     vertex  1.140942e+02  2.764877e+01  3.454672e+01
     vertex  1.128166e+02  3.080574e+01  3.295179e+01
   endloop
 endfacet
 facet normal -1.612092e-01  4.107544e-01  8.973809e-01
   outer loop
     vertex  1.130353e+02  2.740710e+01  3.454672e+01
     vertex  1.128166e+02  3.080574e+01  3.295179e+01
     vertex  1.108840e+02  3.004724e+01  3.295179e+01
   endloop
 endfacet
 facet normal -3.344839e-02  1.465470e-01  9.886380e-01
   outer loop
     vertex  1.130353e+02  2.740710e+01  3.454672e+01
     vertex  1.143665e+02  2.401541e+01  3.509451e+01
     vertex  1.140942e+02  2.764877e+01  3.454672e+01
   endloop
 endfacet
 facet normal -6.604351e-01 -7.454771e-01 -8.994090e-02
   outer loop
     vertex  1.066645e+02  1.435742e+01  2.367530e+01
     vertex  1.053149e+02  1.599644e+01  2.000000e+01
     vertex  1.074970e+02  1.406328e+01  2.000000e+01
   endloop
 endfacet
 facet normal -7.326247e-01 -6.797764e-01 -3.413357e-02
   outer loop
     vertex  1.066645e+02  1.435742e+01  2.367530e+01
     vertex  1.041599e+02  1.705670e+01  2.367530e+01
     vertex  1.053149e+02  1.599644e+01  2.000000e+01
   endloop
 endfacet
 facet normal -9.230879e-01 -2.847349e-01  2.585242e-01
   outer loop
     vertex  1.039863e+02  1.901658e+01  2.726466e+01
     vertex  1.029740e+02  2.229827e+01  2.726466e+01
     vertex  1.025623e+02  2.037429e+01  2.367530e+01
   endloop
 endfacet
 facet normal -8.845888e-01 -4.259955e-01  1.898170e-01
   outer loop
     vertex  1.039863e+02  1.901658e+01  2.726466e+01
     vertex  1.025623e+02  2.037429e+01  2.367530e+01
     vertex  1.041599e+02  1.705670e+01  2.367530e+01
   endloop
 endfacet
 facet normal -8.797430e-01  0.000000e+00  4.754495e-01
   outer loop
     vertex  1.046959e+02  2.401541e+01  3.045072e+01
     vertex  1.029740e+02  2.573254e+01  2.726466e+01
     vertex  1.029740e+02  2.229827e+01  2.726466e+01
   endloop
 endfacet
 facet normal -8.423914e-01  1.269701e-01  5.236939e-01
   outer loop
     vertex  1.046959e+02  2.401541e+01  3.045072e+01
     vertex  1.051256e+02  2.686585e+01  3.045072e+01
     vertex  1.029740e+02  2.573254e+01  2.726466e+01
   endloop
 endfacet
 facet normal -6.249098e-01  3.009407e-01  7.203627e-01
   outer loop
     vertex  1.080913e+02  2.703739e+01  3.295179e+01
     vertex  1.063763e+02  2.946302e+01  3.045072e+01
     vertex  1.051256e+02  2.686585e+01  3.045072e+01
   endloop
 endfacet
 facet normal -5.522389e-01  3.765101e-01  7.438228e-01
   outer loop
     vertex  1.080913e+02  2.703739e+01  3.295179e+01
     vertex  1.092608e+02  2.875278e+01  3.295179e+01
     vertex  1.063763e+02  2.946302e+01  3.045072e+01
   endloop
 endfacet
 facet normal -2.751191e-01  3.449885e-01  8.973809e-01
   outer loop
     vertex  1.120948e+02  2.686405e+01  3.454672e+01
     vertex  1.108840e+02  3.004724e+01  3.295179e+01
     vertex  1.092608e+02  2.875278e+01  3.295179e+01
   endloop
 endfacet
 facet normal -2.143025e-01  3.711827e-01  9.034920e-01
   outer loop
     vertex  1.120948e+02  2.686405e+01  3.454672e+01
     vertex  1.130353e+02  2.740710e+01  3.454672e+01
     vertex  1.108840e+02  3.004724e+01  3.295179e+01
   endloop
 endfacet
 facet normal -7.515786e-02  1.301772e-01  9.886380e-01
   outer loop
     vertex  1.120948e+02  2.686405e+01  3.454672e+01
     vertex  1.143665e+02  2.401541e+01  3.509451e+01
     vertex  1.130353e+02  2.740710e+01  3.454672e+01
   endloop
 endfacet
 facet normal -4.995178e-01 -8.651902e-01 -4.390902e-02
   outer loop
     vertex  1.098534e+02  1.251630e+01  2.367530e+01
     vertex  1.066645e+02  1.435742e+01  2.367530e+01
     vertex  1.074970e+02  1.406328e+01  2.000000e+01
   endloop
 endfacet
 facet normal -4.634303e-01 -8.829927e-01 -7.453954e-02
   outer loop
     vertex  1.098534e+02  1.251630e+01  2.367530e+01
     vertex  1.074970e+02  1.406328e+01  2.000000e+01
     vertex  1.100783e+02  1.270851e+01  2.000000e+01
   endloop
 endfacet
 facet normal -2.388051e-01 -9.688705e-01 -6.528380e-02
   outer loop
     vertex  1.098534e+02  1.251630e+01  2.367530e+01
     vertex  1.100783e+02  1.270851e+01  2.000000e+01
     vertex  1.129089e+02  1.201084e+01  2.000000e+01
   endloop
 endfacet
 facet normal -7.981506e-01 -5.441699e-01  2.585242e-01
   outer loop
     vertex  1.059209e+02  1.617906e+01  2.726466e+01
     vertex  1.039863e+02  1.901658e+01  2.726466e+01
     vertex  1.041599e+02  1.705670e+01  2.367530e+01
   endloop
 endfacet
 facet normal -7.197246e-01 -6.678069e-01  1.898170e-01
   outer loop
     vertex  1.059209e+02  1.617906e+01  2.726466e+01
     vertex  1.041599e+02  1.705670e+01  2.367530e+01
     vertex  1.066645e+02  1.435742e+01  2.367530e+01
   endloop
 endfacet
 facet normal -8.406585e-01 -2.593088e-01  4.754495e-01
   outer loop
     vertex  1.051256e+02  2.116496e+01  3.045072e+01
     vertex  1.029740e+02  2.229827e+01  2.726466e+01
     vertex  1.039863e+02  1.901658e+01  2.726466e+01
   endloop
 endfacet
 facet normal -8.423914e-01 -1.269701e-01  5.236939e-01
   outer loop
     vertex  1.051256e+02  2.116496e+01  3.045072e+01
     vertex  1.046959e+02  2.401541e+01  3.045072e+01
     vertex  1.029740e+02  2.229827e+01  2.726466e+01
   endloop
 endfacet
 facet normal -6.386828e-01  1.970076e-01  7.438228e-01
   outer loop
     vertex  1.074793e+02  2.505348e+01  3.295179e+01
     vertex  1.080913e+02  2.703739e+01  3.295179e+01
     vertex  1.051256e+02  2.686585e+01  3.045072e+01
   endloop
 endfacet
 facet normal -6.858506e-01  1.033753e-01  7.203627e-01
   outer loop
     vertex  1.074793e+02  2.505348e+01  3.295179e+01
     vertex  1.051256e+02  2.686585e+01  3.045072e+01
     vertex  1.046959e+02  2.401541e+01  3.045072e+01
   endloop
 endfacet
 facet normal -1.101892e-01  1.022407e-01  9.886380e-01
   outer loop
     vertex  1.113560e+02  2.606789e+01  3.454672e+01
     vertex  1.143665e+02  2.401541e+01  3.509451e+01
     vertex  1.120948e+02  2.686405e+01  3.454672e+01
   endloop
 endfacet
 facet normal -3.645835e-01  2.485688e-01  8.973809e-01
   outer loop
     vertex  1.113560e+02  2.606789e+01  3.454672e+01
     vertex  1.092608e+02  2.875278e+01  3.295179e+01
     vertex  1.080913e+02  2.703739e+01  3.295179e+01
   endloop
 endfacet
 facet normal -3.141896e-01  2.915254e-01  9.034920e-01
   outer loop
     vertex  1.113560e+02  2.606789e+01  3.454672e+01
     vertex  1.120948e+02  2.686405e+01  3.454672e+01
     vertex  1.092608e+02  2.875278e+01  3.295179e+01
   endloop
 endfacet
 facet normal -1.817098e-15 -9.963720e-01 -8.510433e-02
   outer loop
     vertex  1.134433e+02  1.169692e+01  2.367530e+01
     vertex  1.129089e+02  1.201084e+01  2.000000e+01
     vertex  1.158241e+02  1.201084e+01  2.000000e+01
   endloop
 endfacet
 facet normal -2.222331e-01 -9.736668e-01 -5.084705e-02
   outer loop
     vertex  1.134433e+02  1.169692e+01  2.367530e+01
     vertex  1.098534e+02  1.251630e+01  2.367530e+01
     vertex  1.129089e+02  1.201084e+01  2.000000e+01
   endloop
 endfacet
 facet normal -4.909097e-01 -8.502806e-01  1.898170e-01
   outer loop
     vertex  1.086059e+02  1.403783e+01  2.726466e+01
     vertex  1.066645e+02  1.435742e+01  2.367530e+01
     vertex  1.098534e+02  1.251630e+01  2.367530e+01
   endloop
 endfacet
 facet normal -6.022941e-01 -7.552529e-01  2.585242e-01
   outer loop
     vertex  1.086059e+02  1.403783e+01  2.726466e+01
     vertex  1.059209e+02  1.617906e+01  2.726466e+01
     vertex  1.066645e+02  1.435742e+01  2.367530e+01
   endloop
 endfacet
 facet normal -7.675413e-01 -3.696284e-01  5.236939e-01
   outer loop
     vertex  1.063763e+02  1.856779e+01  3.045072e+01
     vertex  1.051256e+02  2.116496e+01  3.045072e+01
     vertex  1.039863e+02  1.901658e+01  2.726466e+01
   endloop
 endfacet
 facet normal -7.268778e-01 -4.955769e-01  4.754495e-01
   outer loop
     vertex  1.063763e+02  1.856779e+01  3.045072e+01
     vertex  1.039863e+02  1.901658e+01  2.726466e+01
     vertex  1.059209e+02  1.617906e+01  2.726466e+01
   endloop
 endfacet
 facet normal -6.858506e-01 -1.033753e-01  7.203627e-01
   outer loop
     vertex  1.074793e+02  2.297733e+01  3.295179e+01
     vertex  1.046959e+02  2.401541e+01  3.045072e+01
     vertex  1.051256e+02  2.116496e+01  3.045072e+01
   endloop
 endfacet
 facet normal -6.683769e-01  0.000000e+00  7.438228e-01
   outer loop
     vertex  1.074793e+02  2.297733e+01  3.295179e+01
     vertex  1.074793e+02  2.505348e+01  3.295179e+01
     vertex  1.046959e+02  2.401541e+01  3.045072e+01
   endloop
 endfacet
 facet normal -4.216530e-01  1.300627e-01  8.973809e-01
   outer loop
     vertex  1.108848e+02  2.508936e+01  3.454672e+01
     vertex  1.080913e+02  2.703739e+01  3.295179e+01
     vertex  1.074793e+02  2.505348e+01  3.295179e+01
   endloop
 endfacet
 facet normal -3.861597e-01  1.859647e-01  9.034920e-01
   outer loop
     vertex  1.108848e+02  2.508936e+01  3.454672e+01
     vertex  1.113560e+02  2.606789e+01  3.454672e+01
     vertex  1.080913e+02  2.703739e+01  3.295179e+01
   endloop
 endfacet
 facet normal -1.354298e-01  6.521954e-02  9.886380e-01
   outer loop
     vertex  1.108848e+02  2.508936e+01  3.454672e+01
     vertex  1.143665e+02  2.401541e+01  3.509451e+01
     vertex  1.113560e+02  2.606789e+01  3.454672e+01
   endloop
 endfacet
 facet normal  2.382584e-01 -9.666523e-01 -9.389513e-02
   outer loop
     vertex  1.171153e+02  1.197210e+01  2.367530e+01
     vertex  1.158241e+02  1.201084e+01  2.000000e+01
     vertex  1.186546e+02  1.270851e+01  2.000000e+01
   endloop
 endfacet
 facet normal  7.467963e-02 -9.965305e-01 -3.674238e-02
   outer loop
     vertex  1.171153e+02  1.197210e+01  2.367530e+01
     vertex  1.134433e+02  1.169692e+01  2.367530e+01
     vertex  1.158241e+02  1.201084e+01  2.000000e+01
   endloop
 endfacet
 facet normal -2.184754e-01 -9.572032e-01  1.898170e-01
   outer loop
     vertex  1.118028e+02  1.278315e+01  2.726466e+01
     vertex  1.098534e+02  1.251630e+01  2.367530e+01
     vertex  1.134433e+02  1.169692e+01  2.367530e+01
   endloop
 endfacet
 facet normal -3.529212e-01 -8.992285e-01  2.585242e-01
   outer loop
     vertex  1.118028e+02  1.278315e+01  2.726466e+01
     vertex  1.086059e+02  1.403783e+01  2.726466e+01
     vertex  1.098534e+02  1.251630e+01  2.367530e+01
   endloop
 endfacet
 facet normal -5.485108e-01 -6.878108e-01  4.754495e-01
   outer loop
     vertex  1.083370e+02  1.645466e+01  3.045072e+01
     vertex  1.059209e+02  1.617906e+01  2.726466e+01
     vertex  1.086059e+02  1.403783e+01  2.726466e+01
   endloop
 endfacet
 facet normal -6.244917e-01 -5.794436e-01  5.236939e-01
   outer loop
     vertex  1.083370e+02  1.645466e+01  3.045072e+01
     vertex  1.063763e+02  1.856779e+01  3.045072e+01
     vertex  1.059209e+02  1.617906e+01  2.726466e+01
   endloop
 endfacet
 facet normal -6.386828e-01 -1.970076e-01  7.438228e-01
   outer loop
     vertex  1.080913e+02  2.099342e+01  3.295179e+01
     vertex  1.074793e+02  2.297733e+01  3.295179e+01
     vertex  1.051256e+02  2.116496e+01  3.045072e+01
   endloop
 endfacet
 facet normal -6.249098e-01 -3.009407e-01  7.203627e-01
   outer loop
     vertex  1.080913e+02  2.099342e+01  3.295179e+01
     vertex  1.051256e+02  2.116496e+01  3.045072e+01
     vertex  1.063763e+02  1.856779e+01  3.045072e+01
   endloop
 endfacet
 facet normal  0.000000e+00  0.000000e+00  0.000000e+00
   outer loop
     vertex  1.107229e+02  2.401541e+01  3.454672e+01
     vertex  1.143665e+02  2.401541e+01  3.509451e+01
     vertex  1.143665e+02  2.401541e+01  3.509451e+01
   endloop
 endfacet
 facet normal -1.486368e-01  2.240339e-02  9.886380e-01
   outer loop
     vertex  1.107229e+02  2.401541e+01  3.454672e+01
     vertex  1.143665e+02  2.401541e+01  3.509451e+01
     vertex  1.108848e+02  2.508936e+01  3.454672e+01
   endloop
 endfacet
 facet normal -4.412568e-01  0.000000e+00  8.973809e-01
   outer loop
     vertex  1.107229e+02  2.401541e+01  3.454672e+01
     vertex  1.074793e+02  2.505348e+01  3.295179e+01
     vertex  1.074793e+02  2.297733e+01  3.295179e+01
   endloop
 endfacet
 facet normal -4.238178e-01  6.388025e-02  9.034920e-01
   outer loop
     vertex  1.107229e+02  2.401541e+01  3.454672e+01
     vertex  1.108848e+02  2.508936e+01  3.454672e+01
     vertex  1.074793e+02  2.505348e+01  3.295179e+01
   endloop
 endfacet
 facet normal  4.627652e-01 -8.817254e-01 -9.169868e-02
   outer loop
     vertex  1.205430e+02  1.331737e+01  2.367530e+01
     vertex  1.186546e+02  1.270851e+01  2.000000e+01
     vertex  1.212359e+02  1.406328e+01  2.000000e+01
   endloop
 endfacet
 facet normal  3.651362e-01 -9.303519e-01 -3.348114e-02
   outer loop
     vertex  1.205430e+02  1.331737e+01  2.367530e+01
     vertex  1.171153e+02  1.197210e+01  2.367530e+01
     vertex  1.186546e+02  1.270851e+01  2.000000e+01
   endloop
 endfacet
 facet normal -7.218963e-02 -9.633036e-01  2.585242e-01
   outer loop
     vertex  1.152275e+02  1.252651e+01  2.726466e+01
     vertex  1.118028e+02  1.278315e+01  2.726466e+01
     vertex  1.134433e+02  1.169692e+01  2.367530e+01
   endloop
 endfacet
 facet normal  7.337146e-02 -9.790741e-01  1.898170e-01
   outer loop
     vertex  1.152275e+02  1.252651e+01  2.726466e+01
     vertex  1.134433e+02  1.169692e+01  2.367530e+01
     vertex  1.171153e+02  1.197210e+01  2.367530e+01
   endloop
 endfacet
 facet normal -3.214062e-01 -8.189297e-01  4.754495e-01
   outer loop
     vertex  1.108334e+02  1.501334e+01  3.045072e+01
     vertex  1.086059e+02  1.403783e+01  2.726466e+01
     vertex  1.118028e+02  1.278315e+01  2.726466e+01
   endloop
 endfacet
 facet normal -4.259533e-01 -7.377727e-01  5.236939e-01
   outer loop
     vertex  1.108334e+02  1.501334e+01  3.045072e+01
     vertex  1.083370e+02  1.645466e+01  3.045072e+01
     vertex  1.086059e+02  1.403783e+01  2.726466e+01
   endloop
 endfacet
 facet normal -5.522389e-01 -3.765101e-01  7.438228e-01
   outer loop
     vertex  1.092608e+02  1.927803e+01  3.295179e+01
     vertex  1.080913e+02  2.099342e+01  3.295179e+01
     vertex  1.063763e+02  1.856779e+01  3.045072e+01
   endloop
 endfacet
 facet normal -5.084430e-01 -4.717661e-01  7.203627e-01
   outer loop
     vertex  1.092608e+02  1.927803e+01  3.295179e+01
     vertex  1.063763e+02  1.856779e+01  3.045072e+01
     vertex  1.083370e+02  1.645466e+01  3.045072e+01
   endloop
 endfacet
 facet normal -4.216530e-01 -1.300627e-01  8.973809e-01
   outer loop
     vertex  1.108848e+02  2.294145e+01  3.454672e+01
     vertex  1.074793e+02  2.297733e+01  3.295179e+01
     vertex  1.080913e+02  2.099342e+01  3.295179e+01
   endloop
 endfacet
 facet normal -1.486368e-01 -2.240339e-02  9.886380e-01
   outer loop
     vertex  1.108848e+02  2.294145e+01  3.454672e+01
     vertex  1.143665e+02  2.401541e+01  3.509451e+01
     vertex  1.107229e+02  2.401541e+01  3.454672e+01
   endloop
 endfacet
 facet normal -4.238178e-01 -6.388025e-02  9.034920e-01
   outer loop
     vertex  1.108848e+02  2.294145e+01  3.454672e+01
     vertex  1.107229e+02  2.401541e+01  3.454672e+01
     vertex  1.074793e+02  2.297733e+01  3.295179e+01
   endloop
 endfacet
 facet normal  6.229633e-01 -7.811713e-01 -4.108717e-02
   outer loop
     vertex  1.234219e+02  1.561321e+01  2.367530e+01
     vertex  1.205430e+02  1.331737e+01  2.367530e+01
     vertex  1.212359e+02  1.406328e+01  2.000000e+01
   endloop
 endfacet
 facet normal  6.610762e-01 -7.462007e-01 -7.850316e-02
   outer loop
     vertex  1.234219e+02  1.561321e+01  2.367530e+01
     vertex  1.212359e+02  1.406328e+01  2.000000e+01
     vertex  1.234180e+02  1.599644e+01  2.000000e+01
   endloop
 endfacet
 facet normal  8.215016e-01 -5.670416e-01 -5.999094e-02
   outer loop
     vertex  1.234219e+02  1.561321e+01  2.367530e+01
     vertex  1.234180e+02  1.599644e+01  2.000000e+01
     vertex  1.250741e+02  1.839563e+01  2.000000e+01
   endloop
 endfacet
 facet normal  3.586989e-01 -9.139500e-01  1.898170e-01
   outer loop
     vertex  1.185756e+02  1.329070e+01  2.726466e+01
     vertex  1.171153e+02  1.197210e+01  2.367530e+01
     vertex  1.205430e+02  1.331737e+01  2.367530e+01
   endloop
 endfacet
 facet normal  2.149563e-01 -9.417850e-01  2.585242e-01
   outer loop
     vertex  1.185756e+02  1.329070e+01  2.726466e+01
     vertex  1.152275e+02  1.252651e+01  2.726466e+01
     vertex  1.171153e+02  1.197210e+01  2.367530e+01
   endloop
 endfacet
 facet normal -6.574328e-02 -8.772831e-01  4.754495e-01
   outer loop
     vertex  1.136438e+02  1.437189e+01  3.045072e+01
     vertex  1.118028e+02  1.278315e+01  2.726466e+01
     vertex  1.152275e+02  1.252651e+01  2.726466e+01
   endloop
 endfacet
 facet normal -1.895670e-01 -8.305474e-01  5.236939e-01
   outer loop
     vertex  1.136438e+02  1.437189e+01  3.045072e+01
     vertex  1.108334e+02  1.501334e+01  3.045072e+01
     vertex  1.118028e+02  1.278315e+01  2.726466e+01
   endloop
 endfacet
 facet normal -3.467988e-01 -6.006731e-01  7.203627e-01
   outer loop
     vertex  1.108840e+02  1.798357e+01  3.295179e+01
     vertex  1.083370e+02  1.645466e+01  3.045072e+01
     vertex  1.108334e+02  1.501334e+01  3.045072e+01
   endloop
 endfacet
 facet normal -4.167262e-01 -5.225581e-01  7.438228e-01
   outer loop
     vertex  1.108840e+02  1.798357e+01  3.295179e+01
     vertex  1.092608e+02  1.927803e+01  3.295179e+01
     vertex  1.083370e+02  1.645466e+01  3.045072e+01
   endloop
 endfacet
 facet normal -3.861597e-01 -1.859647e-01  9.034920e-01
   outer loop
     vertex  1.113560e+02  2.196292e+01  3.454672e+01
     vertex  1.108848e+02  2.294145e+01  3.454672e+01
     vertex  1.080913e+02  2.099342e+01  3.295179e+01
   endloop
 endfacet
 facet normal -1.354298e-01 -6.521954e-02  9.886380e-01
   outer loop
     vertex  1.113560e+02  2.196292e+01  3.454672e+01
     vertex  1.143665e+02  2.401541e+01  3.509451e+01
     vertex  1.108848e+02  2.294145e+01  3.454672e+01
   endloop
 endfacet
 facet normal -3.645835e-01 -2.485688e-01  8.973809e-01
   outer loop
     vertex  1.113560e+02  2.196292e+01  3.454672e+01
     vertex  1.080913e+02  2.099342e+01  3.295179e+01
     vertex  1.092608e+02  1.927803e+01  3.295179e+01
   endloop
 endfacet
 facet normal  8.249899e-01 -5.624686e-01 -5.496078e-02
   outer loop
     vertex  1.254962e+02  1.865563e+01  2.367530e+01
     vertex  1.234219e+02  1.561321e+01  2.367530e+01
     vertex  1.250741e+02  1.839563e+01  2.000000e+01
   endloop
 endfacet
 facet normal  9.318655e-01 -3.534100e-01 -8.202458e-02
   outer loop
     vertex  1.254962e+02  1.865563e+01  2.367530e+01
     vertex  1.250741e+02  1.839563e+01  2.000000e+01
     vertex  1.261078e+02  2.112143e+01  2.000000e+01
   endloop
 endfacet
 facet normal  6.121544e-01 -7.676174e-01  1.898170e-01
   outer loop
     vertex  1.215498e+02  1.500783e+01  2.726466e+01
     vertex  1.205430e+02  1.331737e+01  2.367530e+01
     vertex  1.234219e+02  1.561321e+01  2.367530e+01
   endloop
 endfacet
 facet normal  4.830024e-01 -8.365847e-01  2.585242e-01
   outer loop
     vertex  1.215498e+02  1.500783e+01  2.726466e+01
     vertex  1.185756e+02  1.329070e+01  2.726466e+01
     vertex  1.205430e+02  1.331737e+01  2.367530e+01
   endloop
 endfacet
 facet normal  1.957612e-01 -8.576860e-01  4.754495e-01
   outer loop
     vertex  1.165184e+02  1.458731e+01  3.045072e+01
     vertex  1.152275e+02  1.252651e+01  2.726466e+01
     vertex  1.185756e+02  1.329070e+01  2.726466e+01
   endloop
 endfacet
 facet normal  6.366305e-02 -8.495244e-01  5.236939e-01
   outer loop
     vertex  1.165184e+02  1.458731e+01  3.045072e+01
     vertex  1.136438e+02  1.437189e+01  3.045072e+01
     vertex  1.152275e+02  1.252651e+01  2.726466e+01
   endloop
 endfacet
 facet normal -1.543400e-01 -6.762076e-01  7.203627e-01
   outer loop
     vertex  1.128166e+02  1.722507e+01  3.295179e+01
     vertex  1.108334e+02  1.501334e+01  3.045072e+01
     vertex  1.136438e+02  1.437189e+01  3.045072e+01
   endloop
 endfacet
 facet normal -2.441855e-01 -6.221745e-01  7.438228e-01
   outer loop
     vertex  1.128166e+02  1.722507e+01  3.295179e+01
     vertex  1.108840e+02  1.798357e+01  3.295179e+01
     vertex  1.108334e+02  1.501334e+01  3.045072e+01
   endloop
 endfacet
 facet normal -2.751191e-01 -3.449885e-01  8.973809e-01
   outer loop
     vertex  1.120948e+02  2.116676e+01  3.454672e+01
     vertex  1.092608e+02  1.927803e+01  3.295179e+01
     vertex  1.108840e+02  1.798357e+01  3.295179e+01
   endloop
 endfacet
 facet normal -3.141896e-01 -2.915254e-01  9.034920e-01
   outer loop
     vertex  1.120948e+02  2.116676e+01  3.454672e+01
     vertex  1.113560e+02  2.196292e+01  3.454672e+01
     vertex  1.092608e+02  1.927803e+01  3.295179e+01
   endloop
 endfacet
 facet normal -1.101892e-01 -1.022407e-01  9.886380e-01
   outer loop
     vertex  1.120948e+02  2.116676e+01  3.454672e+01
     vertex  1.143665e+02  2.401541e+01  3.509451e+01
     vertex  1.113560e+02  2.196292e+01  3.454672e+01
   endloop
 endfacet
 facet normal  9.926196e-01 -3.698698e-02  1.154916e-01
   outer loop
     vertex  1.265815e+02  2.217428e+01  2.367530e+01
     vertex  1.267576e+02  2.401541e+01  2.275174e+01
     vertex  1.264377e+02  2.401541e+01  2.550107e+01
   endloop
 endfacet
 facet normal  9.865197e-01 -1.382538e-01 -8.754856e-02
   outer loop
     vertex  1.265815e+02  2.217428e+01  2.367530e+01
     vertex  1.261078e+02  2.112143e+01  2.000000e+01
     vertex  1.267576e+02  2.401541e+01  2.275174e+01
   endloop
 endfacet
 facet normal  9.548570e-01 -2.945344e-01 -3.869804e-02
   outer loop
     vertex  1.265815e+02  2.217428e+01  2.367530e+01
     vertex  1.254962e+02  1.865563e+01  2.367530e+01
     vertex  1.261078e+02  2.112143e+01  2.000000e+01
   endloop
 endfacet
 facet normal  8.112173e-01 -5.530786e-01  1.898170e-01
   outer loop
     vertex  1.238857e+02  1.752533e+01  2.726466e+01
     vertex  1.234219e+02  1.561321e+01  2.367530e+01
     vertex  1.254962e+02  1.865563e+01  2.367530e+01
   endloop
 endfacet
 facet normal  7.081316e-01 -6.570501e-01  2.585242e-01
   outer loop
     vertex  1.238857e+02  1.752533e+01  2.726466e+01
     vertex  1.215498e+02  1.500783e+01  2.726466e+01
     vertex  1.234219e+02  1.561321e+01  2.367530e+01
   endloop
 endfacet
 facet normal  4.398715e-01 -7.618798e-01  4.754495e-01
   outer loop
     vertex  1.192018e+02  1.564046e+01  3.045072e+01
     vertex  1.185756e+02  1.329070e+01  2.726466e+01
     vertex  1.215498e+02  1.500783e+01  2.726466e+01
   endloop
 endfacet
 facet normal  3.112364e-01 -7.930174e-01  5.236939e-01
   outer loop
     vertex  1.192018e+02  1.564046e+01  3.045072e+01
     vertex  1.165184e+02  1.458731e+01  3.045072e+01
     vertex  1.185756e+02  1.329070e+01  2.726466e+01
   endloop
 endfacet
 facet normal -4.994787e-02 -6.665080e-01  7.438228e-01
   outer loop
     vertex  1.148870e+02  1.706992e+01  3.295179e+01
     vertex  1.128166e+02  1.722507e+01  3.295179e+01
     vertex  1.136438e+02  1.437189e+01  3.045072e+01
   endloop
 endfacet
 facet normal  5.183261e-02 -6.916581e-01  7.203627e-01
   outer loop
     vertex  1.148870e+02  1.706992e+01  3.295179e+01
     vertex  1.136438e+02  1.437189e+01  3.045072e+01
     vertex  1.165184e+02  1.458731e+01  3.045072e+01
   endloop
 endfacet
 facet normal -7.515786e-02 -1.301772e-01  9.886380e-01
   outer loop
     vertex  1.130353e+02  2.062372e+01  3.454672e+01
     vertex  1.143665e+02  2.401541e+01  3.509451e+01
     vertex  1.120948e+02  2.116676e+01  3.454672e+01
   endloop
 endfacet
 facet normal -1.612092e-01 -4.107544e-01  8.973809e-01
   outer loop
     vertex  1.130353e+02  2.062372e+01  3.454672e+01
     vertex  1.108840e+02  1.798357e+01  3.295179e+01
     vertex  1.128166e+02  1.722507e+01  3.295179e+01
   endloop
 endfacet
 facet normal -2.143025e-01 -3.711827e-01  9.034920e-01
   outer loop
     vertex  1.130353e+02  2.062372e+01  3.454672e+01
     vertex  1.120948e+02  2.116676e+01  3.454672e+01
     vertex  1.108840e+02  1.798357e+01  3.295179e+01
   endloop
 endfacet
 facet normal  9.359449e-01 -1.209295e-01  3.307314e-01
   outer loop
     vertex  1.253757e+02  2.061950e+01  2.726466e+01
     vertex  1.264377e+02  2.401541e+01  2.550107e+01
     vertex  1.255155e+02  2.401541e+01  2.811080e+01
   endloop
 endfacet
 facet normal  9.540141e-01 -1.701845e-01  2.467679e-01
   outer loop
     vertex  1.253757e+02  2.061950e+01  2.726466e+01
     vertex  1.265815e+02  2.217428e+01  2.367530e+01
     vertex  1.264377e+02  2.401541e+01  2.550107e+01
   endloop
 endfacet
 facet normal  9.382000e-01 -2.893964e-01  1.898170e-01
   outer loop
     vertex  1.253757e+02  2.061950e+01  2.726466e+01
     vertex  1.254962e+02  1.865563e+01  2.367530e+01
     vertex  1.265815e+02  2.217428e+01  2.367530e+01
   endloop
 endfacet
 facet normal  8.703402e-01 -4.191338e-01  2.585242e-01
   outer loop
     vertex  1.253757e+02  2.061950e+01  2.726466e+01
     vertex  1.238857e+02  1.752533e+01  2.726466e+01
     vertex  1.254962e+02  1.865563e+01  2.367530e+01
   endloop
 endfacet
 facet normal  6.448973e-01 -5.983772e-01  4.754495e-01
   outer loop
     vertex  1.214555e+02  1.743776e+01  3.045072e+01
     vertex  1.215498e+02  1.500783e+01  2.726466e+01
     vertex  1.238857e+02  1.752533e+01  2.726466e+01
   endloop
 endfacet
 facet normal  5.311550e-01 -6.660473e-01  5.236939e-01
   outer loop
     vertex  1.214555e+02  1.743776e+01  3.045072e+01
     vertex  1.192018e+02  1.564046e+01  3.045072e+01
     vertex  1.215498e+02  1.500783e+01  2.726466e+01
   endloop
 endfacet
 facet normal  2.533996e-01 -6.456517e-01  7.203627e-01
   outer loop
     vertex  1.169111e+02  1.753191e+01  3.295179e+01
     vertex  1.165184e+02  1.458731e+01  3.045072e+01
     vertex  1.192018e+02  1.564046e+01  3.045072e+01
   endloop
 endfacet
 facet normal  1.487279e-01 -6.516193e-01  7.438228e-01
   outer loop
     vertex  1.169111e+02  1.753191e+01  3.295179e+01
     vertex  1.148870e+02  1.706992e+01  3.295179e+01
     vertex  1.165184e+02  1.458731e+01  3.045072e+01
   endloop
 endfacet
 facet normal -3.297516e-02 -4.400230e-01  8.973809e-01
   outer loop
     vertex  1.140942e+02  2.038204e+01  3.454672e+01
     vertex  1.128166e+02  1.722507e+01  3.295179e+01
     vertex  1.148870e+02  1.706992e+01  3.295179e+01
   endloop
 endfacet
 facet normal -9.537357e-02 -4.178589e-01  9.034920e-01
   outer loop
     vertex  1.140942e+02  2.038204e+01  3.454672e+01
     vertex  1.130353e+02  2.062372e+01  3.454672e+01
     vertex  1.128166e+02  1.722507e+01  3.295179e+01
   endloop
 endfacet
 facet normal -3.344839e-02 -1.465470e-01  9.886380e-01
   outer loop
     vertex  1.140942e+02  2.038204e+01  3.454672e+01
     vertex  1.143665e+02  2.401541e+01  3.509451e+01
     vertex  1.130353e+02  2.062372e+01  3.454672e+01
   endloop
 endfacet
 facet normal  7.926211e-01 -3.817062e-01  4.754495e-01
   outer loop
     vertex  1.230794e+02  1.981951e+01  3.045072e+01
     vertex  1.238857e+02  1.752533e+01  2.726466e+01
     vertex  1.253757e+02  2.061950e+01  2.726466e+01
   endloop
 endfacet
 facet normal  7.038782e-01 -4.798960e-01  5.236939e-01
   outer loop
     vertex  1.230794e+02  1.981951e+01  3.045072e+01
     vertex  1.214555e+02  1.743776e+01  3.045072e+01
     vertex  1.238857e+02  1.752533e+01  2.726466e+01
   endloop
 endfacet
 facet normal  4.324510e-01 -5.422764e-01  7.203627e-01
   outer loop
     vertex  1.187091e+02  1.856998e+01  3.295179e+01
     vertex  1.192018e+02  1.564046e+01  3.045072e+01
     vertex  1.214555e+02  1.743776e+01  3.045072e+01
   endloop
 endfacet
 facet normal  3.341885e-01 -5.788314e-01  7.438228e-01
   outer loop
     vertex  1.187091e+02  1.856998e+01  3.295179e+01
     vertex  1.169111e+02  1.753191e+01  3.295179e+01
     vertex  1.192018e+02  1.564046e+01  3.045072e+01
   endloop
 endfacet
 facet normal  3.202969e-02 -4.274065e-01  9.034920e-01
   outer loop
     vertex  1.151773e+02  2.046320e+01  3.454672e+01
     vertex  1.140942e+02  2.038204e+01  3.454672e+01
     vertex  1.148870e+02  1.706992e+01  3.295179e+01
   endloop
 endfacet
 facet normal  9.818888e-02 -4.301936e-01  8.973809e-01
   outer loop
     vertex  1.151773e+02  2.046320e+01  3.454672e+01
     vertex  1.148870e+02  1.706992e+01  3.295179e+01
     vertex  1.169111e+02  1.753191e+01  3.295179e+01
   endloop
 endfacet
 facet normal  1.123311e-02 -1.498954e-01  9.886380e-01
   outer loop
     vertex  1.151773e+02  2.046320e+01  3.454672e+01
     vertex  1.143665e+02  2.401541e+01  3.509451e+01
     vertex  1.140942e+02  2.038204e+01  3.454672e+01
   endloop
 endfacet
 facet normal  8.436931e-01 -6.322606e-02  5.330894e-01
   outer loop
     vertex  1.239290e+02  2.257408e+01  3.045072e+01
     vertex  1.255155e+02  2.401541e+01  2.811080e+01
     vertex  1.240370e+02  2.401541e+01  3.045072e+01
   endloop
 endfacet
 facet normal  7.047385e-01 -5.281285e-02  7.074987e-01
   outer loop
     vertex  1.239290e+02  2.257408e+01  3.045072e+01
     vertex  1.240370e+02  2.401541e+01  3.045072e+01
     vertex  1.220760e+02  2.401541e+01  3.240407e+01
   endloop
 endfacet
 facet normal  8.596045e-01 -1.565698e-01  4.863805e-01
   outer loop
     vertex  1.239290e+02  2.257408e+01  3.045072e+01
     vertex  1.253757e+02  2.061950e+01  2.726466e+01
     vertex  1.255155e+02  2.401541e+01  2.811080e+01
   endloop
 endfacet
 facet normal  8.140587e-01 -2.511039e-01  5.236939e-01
   outer loop
     vertex  1.239290e+02  2.257408e+01  3.045072e+01
     vertex  1.230794e+02  1.981951e+01  3.045072e+01
     vertex  1.253757e+02  2.061950e+01  2.726466e+01
   endloop
 endfacet
 facet normal  5.730772e-01 -3.907174e-01  7.203627e-01
   outer loop
     vertex  1.201212e+02  2.009190e+01  3.295179e+01
     vertex  1.214555e+02  1.743776e+01  3.045072e+01
     vertex  1.230794e+02  1.981951e+01  3.045072e+01
   endloop
 endfacet
 facet normal  4.899549e-01 -4.546118e-01  7.438228e-01
   outer loop
     vertex  1.201212e+02  2.009190e+01  3.295179e+01
     vertex  1.187091e+02  1.856998e+01  3.295179e+01
     vertex  1.214555e+02  1.743776e+01  3.045072e+01
   endloop
 endfacet
 facet normal  2.206284e-01 -3.821396e-01  8.973809e-01
   outer loop
     vertex  1.161883e+02  2.085999e+01  3.454672e+01
     vertex  1.169111e+02  1.753191e+01  3.295179e+01
     vertex  1.187091e+02  1.856998e+01  3.295179e+01
   endloop
 endfacet
 facet normal  5.491650e-02 -1.399250e-01  9.886380e-01
   outer loop
     vertex  1.161883e+02  2.085999e+01  3.454672e+01
     vertex  1.143665e+02  2.401541e+01  3.509451e+01
     vertex  1.151773e+02  2.046320e+01  3.454672e+01
   endloop
 endfacet
 facet normal  1.565870e-01 -3.989771e-01  9.034920e-01
   outer loop
     vertex  1.161883e+02  2.085999e+01  3.454672e+01
     vertex  1.151773e+02  2.046320e+01  3.454672e+01
     vertex  1.169111e+02  1.753191e+01  3.295179e+01
   endloop
 endfacet
 facet normal  5.302777e-01 -4.639921e-02  8.465534e-01
   outer loop
     vertex  1.210220e+02  2.196245e+01  3.295179e+01
     vertex  1.220760e+02  2.401541e+01  3.240407e+01
     vertex  1.197304e+02  2.401541e+01  3.387340e+01
   endloop
 endfacet
 facet normal  6.021868e-01 -2.899979e-01  7.438228e-01
   outer loop
     vertex  1.210220e+02  2.196245e+01  3.295179e+01
     vertex  1.201212e+02  2.009190e+01  3.295179e+01
     vertex  1.230794e+02  1.981951e+01  3.045072e+01
   endloop
 endfacet
 facet normal  6.626366e-01 -1.441316e-01  7.349414e-01
   outer loop
     vertex  1.210220e+02  2.196245e+01  3.295179e+01
     vertex  1.239290e+02  2.257408e+01  3.045072e+01
     vertex  1.220760e+02  2.401541e+01  3.240407e+01
   endloop
 endfacet
 facet normal  6.627829e-01 -2.044415e-01  7.203627e-01
   outer loop
     vertex  1.210220e+02  2.196245e+01  3.295179e+01
     vertex  1.230794e+02  1.981951e+01  3.045072e+01
     vertex  1.239290e+02  2.257408e+01  3.045072e+01
   endloop
 endfacet
 facet normal  9.372031e-02 -1.175216e-01  9.886380e-01
   outer loop
     vertex  1.170374e+02  2.153716e+01  3.454672e+01
     vertex  1.143665e+02  2.401541e+01  3.509451e+01
     vertex  1.161883e+02  2.085999e+01  3.454672e+01
   endloop
 endfacet
 facet normal  3.234641e-01 -3.001308e-01  8.973809e-01
   outer loop
     vertex  1.170374e+02  2.153716e+01  3.454672e+01
     vertex  1.187091e+02  1.856998e+01  3.295179e+01
     vertex  1.201212e+02  2.009190e+01  3.295179e+01
   endloop
 endfacet
 facet normal  2.672308e-01 -3.350968e-01  9.034920e-01
   outer loop
     vertex  1.170374e+02  2.153716e+01  3.454672e+01
     vertex  1.161883e+02  2.085999e+01  3.454672e+01
     vertex  1.187091e+02  1.856998e+01  3.295179e+01
   endloop
 endfacet
 facet normal  1.241967e-01 -8.467586e-02  9.886380e-01
   outer loop
     vertex  1.176492e+02  2.243453e+01  3.454672e+01
     vertex  1.143665e+02  2.401541e+01  3.509451e+01
     vertex  1.170374e+02  2.153716e+01  3.454672e+01
   endloop
 endfacet
 facet normal  3.975586e-01 -1.914541e-01  8.973809e-01
   outer loop
     vertex  1.176492e+02  2.243453e+01  3.454672e+01
     vertex  1.201212e+02  2.009190e+01  3.295179e+01
     vertex  1.210220e+02  2.196245e+01  3.295179e+01
   endloop
 endfacet
 facet normal  3.541300e-01 -2.414417e-01  9.034920e-01
   outer loop
     vertex  1.176492e+02  2.243453e+01  3.454672e+01
     vertex  1.170374e+02  2.153716e+01  3.454672e+01
     vertex  1.201212e+02  2.009190e+01  3.295179e+01
   endloop
 endfacet
 facet normal  3.277811e-01  1.016643e-01  9.392677e-01
   outer loop
     vertex  1.179693e+02  2.347236e+01  3.454672e+01
     vertex  1.197304e+02  2.401541e+01  3.387340e+01
     vertex  1.171170e+02  2.401541e+01  3.478538e+01
   endloop
 endfacet
 facet normal  1.080554e-01 -2.529338e-01  9.614305e-01
   outer loop
     vertex  1.179693e+02  2.347236e+01  3.454672e+01
     vertex  1.171170e+02  2.401541e+01  3.478538e+01
     vertex  1.143665e+02  2.401541e+01  3.509451e+01
   endloop
 endfacet
 facet normal  1.436376e-01 -4.430633e-02  9.886380e-01
   outer loop
     vertex  1.179693e+02  2.347236e+01  3.454672e+01
     vertex  1.143665e+02  2.401541e+01  3.509451e+01
     vertex  1.176492e+02  2.243453e+01  3.454672e+01
   endloop
 endfacet
 facet normal  3.947719e-01 -1.579390e-01  9.051024e-01
   outer loop
     vertex  1.179693e+02  2.347236e+01  3.454672e+01
     vertex  1.210220e+02  2.196245e+01  3.295179e+01
     vertex  1.197304e+02  2.401541e+01  3.387340e+01
   endloop
 endfacet
 facet normal  4.095632e-01 -1.263335e-01  9.034920e-01
   outer loop
     vertex  1.179693e+02  2.347236e+01  3.454672e+01
     vertex  1.176492e+02  2.243453e+01  3.454672e+01
     vertex  1.210220e+02  2.196245e+01  3.295179e+01
   endloop
 endfacet
endsolid
