solid 
 facet normal -1.000000e+00  0.000000e+00  0.000000e+00
   outer loop
     vertex  0.000000e+00  0.000000e+00  2.000000e+01
     vertex  0.000000e+00  9.123413e+01  0.000000e+00
     vertex  0.000000e+00  0.000000e+00  0.000000e+00
   endloop
 endfacet
 facet normal -1.000000e+00  0.000000e+00  0.000000e+00
   outer loop
     vertex  0.000000e+00  0.000000e+00  2.000000e+01
     vertex  0.000000e+00  9.123413e+01  2.000000e+01
     vertex  0.000000e+00  9.123413e+01  0.000000e+00
   endloop
 endfacet
 facet normal  0.000000e+00 -1.000000e+00 -0.000000e+00
   outer loop
     vertex  1.149154e+02  0.000000e+00  2.000000e+01
     vertex  0.000000e+00  0.000000e+00  0.000000e+00
     vertex  1.149154e+02  0.000000e+00  0.000000e+00
   endloop
 endfacet
 facet normal -0.000000e+00 -1.000000e+00  0.000000e+00
   outer loop
     vertex  1.149154e+02  0.000000e+00  2.000000e+01
     vertex  0.000000e+00  0.000000e+00  2.000000e+01
     vertex  0.000000e+00  0.000000e+00  0.000000e+00
   endloop
 endfacet
 facet normal  0.000000e+00  0.000000e+00  1.000000e+00
   outer loop
     vertex  3.149010e+01  4.570212e+01  2.000000e+01
     vertex  2.875271e+01  4.812724e+01  2.000000e+01
     vertex  0.000000e+00  0.000000e+00  2.000000e+01
   endloop
 endfacet
 facet normal  0.000000e+00  0.000000e+00  1.000000e+00
   outer loop
     vertex  2.667523e+01  5.113699e+01  2.000000e+01
     vertex  0.000000e+00  0.000000e+00  2.000000e+01
     vertex  2.875271e+01  4.812724e+01  2.000000e+01
   endloop
 endfacet
 facet normal  0.000000e+00  0.000000e+00  1.000000e+00
   outer loop
     vertex  3.472832e+01  4.400257e+01  2.000000e+01
     vertex  3.149010e+01  4.570212e+01  2.000000e+01
     vertex  0.000000e+00  0.000000e+00  2.000000e+01
   endloop
 endfacet
 facet normal  0.000000e+00  0.000000e+00  1.000000e+00
   outer loop
     vertex  2.537840e+01  5.455645e+01  2.000000e+01
     vertex  0.000000e+00  0.000000e+00  2.000000e+01
     vertex  2.667523e+01  5.113699e+01  2.000000e+01
   endloop
 endfacet
 facet normal  0.000000e+00  0.000000e+00  1.000000e+00
   outer loop
     vertex  3.827916e+01  4.312737e+01  2.000000e+01
     vertex  3.472832e+01  4.400257e+01  2.000000e+01
     vertex  0.000000e+00  0.000000e+00  2.000000e+01
   endloop
 endfacet
 facet normal  0.000000e+00  0.000000e+00  1.000000e+00
   outer loop
     vertex  4.193628e+01  4.312737e+01  2.000000e+01
     vertex  3.827916e+01  4.312737e+01  2.000000e+01
     vertex  0.000000e+00  0.000000e+00  2.000000e+01
   endloop
 endfacet
 facet normal  0.000000e+00  0.000000e+00  1.000000e+00
   outer loop
     vertex  0.000000e+00  9.123413e+01  2.000000e+01
     vertex  2.493758e+01  5.818690e+01  2.000000e+01
     vertex  2.537840e+01  6.181736e+01  2.000000e+01
   endloop
 endfacet
 facet normal  0.000000e+00  0.000000e+00  1.000000e+00
   outer loop
     vertex  0.000000e+00  9.123413e+01  2.000000e+01
     vertex  2.537840e+01  5.455645e+01  2.000000e+01
     vertex  2.493758e+01  5.818690e+01  2.000000e+01
   endloop
 endfacet
 facet normal  0.000000e+00  0.000000e+00  1.000000e+00
   outer loop
     vertex  0.000000e+00  9.123413e+01  2.000000e+01
     vertex  0.000000e+00  0.000000e+00  2.000000e+01
     vertex  2.537840e+01  5.455645e+01  2.000000e+01
   endloop
 endfacet
 facet normal  0.000000e+00  0.000000e+00  1.000000e+00
   outer loop
     vertex  2.667523e+01  6.523682e+01  2.000000e+01
     vertex  0.000000e+00  9.123413e+01  2.000000e+01
     vertex  2.537840e+01  6.181736e+01  2.000000e+01
   endloop
 endfacet
 facet normal  0.000000e+00  0.000000e+00  1.000000e+00
   outer loop
     vertex  2.875271e+01  6.824657e+01  2.000000e+01
     vertex  0.000000e+00  9.123413e+01  2.000000e+01
     vertex  2.667523e+01  6.523682e+01  2.000000e+01
   endloop
 endfacet
 facet normal  0.000000e+00  0.000000e+00  1.000000e+00
   outer loop
     vertex  3.149010e+01  7.067168e+01  2.000000e+01
     vertex  0.000000e+00  9.123413e+01  2.000000e+01
     vertex  2.875271e+01  6.824657e+01  2.000000e+01
   endloop
 endfacet
 facet normal  0.000000e+00  0.000000e+00  1.000000e+00
   outer loop
     vertex  3.472832e+01  7.237123e+01  2.000000e+01
     vertex  0.000000e+00  9.123413e+01  2.000000e+01
     vertex  3.149010e+01  7.067168e+01  2.000000e+01
   endloop
 endfacet
 facet normal  0.000000e+00  0.000000e+00  1.000000e+00
   outer loop
     vertex  3.827916e+01  7.324644e+01  2.000000e+01
     vertex  0.000000e+00  9.123413e+01  2.000000e+01
     vertex  3.472832e+01  7.237123e+01  2.000000e+01
   endloop
 endfacet
 facet normal  0.000000e+00  0.000000e+00  1.000000e+00
   outer loop
     vertex  1.149154e+02  0.000000e+00  2.000000e+01
     vertex  4.548713e+01  4.400257e+01  2.000000e+01
     vertex  4.193628e+01  4.312737e+01  2.000000e+01
   endloop
 endfacet
 facet normal  0.000000e+00  0.000000e+00  1.000000e+00
   outer loop
     vertex  1.149154e+02  0.000000e+00  2.000000e+01
     vertex  4.872534e+01  4.570212e+01  2.000000e+01
     vertex  4.548713e+01  4.400257e+01  2.000000e+01
   endloop
 endfacet
 facet normal  0.000000e+00  0.000000e+00  1.000000e+00
   outer loop
     vertex  1.149154e+02  0.000000e+00  2.000000e+01
     vertex  5.146274e+01  4.812724e+01  2.000000e+01
     vertex  4.872534e+01  4.570212e+01  2.000000e+01
   endloop
 endfacet
 facet normal  0.000000e+00  0.000000e+00  1.000000e+00
   outer loop
     vertex  1.149154e+02  0.000000e+00  2.000000e+01
     vertex  5.354022e+01  5.113699e+01  2.000000e+01
     vertex  5.146274e+01  4.812724e+01  2.000000e+01
   endloop
 endfacet
 facet normal  0.000000e+00  0.000000e+00  1.000000e+00
   outer loop
     vertex  1.149154e+02  0.000000e+00  2.000000e+01
     vertex  5.483705e+01  5.455645e+01  2.000000e+01
     vertex  5.354022e+01  5.113699e+01  2.000000e+01
   endloop
 endfacet
 facet normal  0.000000e+00  0.000000e+00  1.000000e+00
   outer loop
     vertex  1.149154e+02  0.000000e+00  2.000000e+01
     vertex  4.193628e+01  4.312737e+01  2.000000e+01
     vertex  0.000000e+00  0.000000e+00  2.000000e+01
   endloop
 endfacet
 facet normal  0.000000e+00  0.000000e+00  1.000000e+00
   outer loop
     vertex  4.193628e+01  7.324644e+01  2.000000e+01
     vertex  0.000000e+00  9.123413e+01  2.000000e+01
     vertex  3.827916e+01  7.324644e+01  2.000000e+01
   endloop
 endfacet
 facet normal  1.809068e-15 -3.694687e-15  1.000000e+00
   outer loop
     vertex  1.149154e+02  9.123413e+01  2.000000e+01
     vertex  5.483705e+01  6.181736e+01  2.000000e+01
     vertex  5.527786e+01  5.818690e+01  2.000000e+01
   endloop
 endfacet
 facet normal  0.000000e+00  0.000000e+00  1.000000e+00
   outer loop
     vertex  1.149154e+02  9.123413e+01  2.000000e+01
     vertex  5.354022e+01  6.523682e+01  2.000000e+01
     vertex  5.483705e+01  6.181736e+01  2.000000e+01
   endloop
 endfacet
 facet normal  0.000000e+00  0.000000e+00  1.000000e+00
   outer loop
     vertex  1.149154e+02  9.123413e+01  2.000000e+01
     vertex  5.146274e+01  6.824657e+01  2.000000e+01
     vertex  5.354022e+01  6.523682e+01  2.000000e+01
   endloop
 endfacet
 facet normal  0.000000e+00  0.000000e+00  1.000000e+00
   outer loop
     vertex  1.149154e+02  9.123413e+01  2.000000e+01
     vertex  4.872534e+01  7.067168e+01  2.000000e+01
     vertex  5.146274e+01  6.824657e+01  2.000000e+01
   endloop
 endfacet
 facet normal  0.000000e+00  0.000000e+00  1.000000e+00
   outer loop
     vertex  1.149154e+02  9.123413e+01  2.000000e+01
     vertex  4.548713e+01  7.237123e+01  2.000000e+01
     vertex  4.872534e+01  7.067168e+01  2.000000e+01
   endloop
 endfacet
 facet normal -2.581027e-15  4.227741e-15  1.000000e+00
   outer loop
     vertex  1.149154e+02  9.123413e+01  2.000000e+01
     vertex  5.527786e+01  5.818690e+01  2.000000e+01
     vertex  5.483705e+01  5.455645e+01  2.000000e+01
   endloop
 endfacet
 facet normal  0.000000e+00  0.000000e+00  1.000000e+00
   outer loop
     vertex  1.149154e+02  9.123413e+01  2.000000e+01
     vertex  5.483705e+01  5.455645e+01  2.000000e+01
     vertex  1.149154e+02  0.000000e+00  2.000000e+01
   endloop
 endfacet
 facet normal  0.000000e+00  0.000000e+00  1.000000e+00
   outer loop
     vertex  1.149154e+02  9.123413e+01  2.000000e+01
     vertex  0.000000e+00  9.123413e+01  2.000000e+01
     vertex  4.193628e+01  7.324644e+01  2.000000e+01
   endloop
 endfacet
 facet normal  0.000000e+00  0.000000e+00  1.000000e+00
   outer loop
     vertex  1.149154e+02  9.123413e+01  2.000000e+01
     vertex  4.193628e+01  7.324644e+01  2.000000e+01
     vertex  4.548713e+01  7.237123e+01  2.000000e+01
   endloop
 endfacet
 facet normal  0.000000e+00  1.000000e+00  0.000000e+00
   outer loop
     vertex  1.149154e+02  9.123413e+01  2.000000e+01
     vertex  1.149154e+02  9.123413e+01  0.000000e+00
     vertex  0.000000e+00  9.123413e+01  0.000000e+00
   endloop
 endfacet
 facet normal  0.000000e+00  1.000000e+00  0.000000e+00
   outer loop
     vertex  1.149154e+02  9.123413e+01  2.000000e+01
     vertex  0.000000e+00  9.123413e+01  0.000000e+00
     vertex  0.000000e+00  9.123413e+01  2.000000e+01
   endloop
 endfacet
 facet normal -0.000000e+00  0.000000e+00 -1.000000e+00
   outer loop
     vertex  1.149154e+02  9.123413e+01  0.000000e+00
     vertex  0.000000e+00  0.000000e+00  0.000000e+00
     vertex  0.000000e+00  9.123413e+01  0.000000e+00
   endloop
 endfacet
 facet normal  0.000000e+00 -0.000000e+00 -1.000000e+00
   outer loop
     vertex  1.149154e+02  9.123413e+01  0.000000e+00
     vertex  1.149154e+02  0.000000e+00  0.000000e+00
     vertex  0.000000e+00  0.000000e+00  0.000000e+00
   endloop
 endfacet
 facet normal  1.000000e+00  0.000000e+00  0.000000e+00
   outer loop
     vertex  1.149154e+02  0.000000e+00  2.000000e+01
     vertex  1.149154e+02  0.000000e+00  0.000000e+00
     vertex  1.149154e+02  9.123413e+01  0.000000e+00
   endloop
 endfacet
 facet normal  1.000000e+00 -0.000000e+00  0.000000e+00
   outer loop
     vertex  1.149154e+02  0.000000e+00  2.000000e+01
     vertex  1.149154e+02  9.123413e+01  0.000000e+00
     vertex  1.149154e+02  9.123413e+01  2.000000e+01
   endloop
 endfacet
 facet normal  9.774111e-01  1.186792e-01  1.748795e-01
   outer loop
     vertex  5.470466e+01  5.818690e+01  2.320366e+01
     vertex  5.527786e+01  5.818690e+01  2.000000e+01
     vertex  5.483705e+01  6.181736e+01  2.000000e+01
   endloop
 endfacet
 facet normal  9.774111e-01 -1.186792e-01  1.748795e-01
   outer loop
     vertex  5.470466e+01  5.818690e+01  2.320366e+01
     vertex  5.483705e+01  5.455645e+01  2.000000e+01
     vertex  5.527786e+01  5.818690e+01  2.000000e+01
   endloop
 endfacet
 facet normal  9.236625e-01  3.853060e-02  3.812649e-01
   outer loop
     vertex  5.440851e+01  6.015250e+01  2.372247e+01
     vertex  5.346290e+01  5.818690e+01  2.621198e+01
     vertex  5.470466e+01  5.818690e+01  2.320366e+01
   endloop
 endfacet
 facet normal  9.814211e-01  1.055820e-01  1.602032e-01
   outer loop
     vertex  5.440851e+01  6.015250e+01  2.372247e+01
     vertex  5.470466e+01  5.818690e+01  2.320366e+01
     vertex  5.483705e+01  6.181736e+01  2.000000e+01
   endloop
 endfacet
 facet normal  9.214783e-01  3.494706e-01  1.695522e-01
   outer loop
     vertex  5.334789e+01  6.393792e+01  2.372247e+01
     vertex  5.483705e+01  6.181736e+01  2.000000e+01
     vertex  5.354022e+01  6.523682e+01  2.000000e+01
   endloop
 endfacet
 facet normal  9.381042e-01  2.628445e-01  2.255512e-01
   outer loop
     vertex  5.334789e+01  6.393792e+01  2.372247e+01
     vertex  5.440851e+01  6.015250e+01  2.372247e+01
     vertex  5.483705e+01  6.181736e+01  2.000000e+01
   endloop
 endfacet
 facet normal  8.100032e-01  5.591048e-01  1.769086e-01
   outer loop
     vertex  5.130530e+01  6.729681e+01  2.372247e+01
     vertex  5.354022e+01  6.523682e+01  2.000000e+01
     vertex  5.146274e+01  6.824657e+01  2.000000e+01
   endloop
 endfacet
 facet normal  8.335002e-01  5.068627e-01  2.199263e-01
   outer loop
     vertex  5.130530e+01  6.729681e+01  2.372247e+01
     vertex  5.334789e+01  6.393792e+01  2.372247e+01
     vertex  5.354022e+01  6.523682e+01  2.000000e+01
   endloop
 endfacet
 facet normal  8.830537e-01  1.417625e-01  4.473473e-01
   outer loop
     vertex  5.243468e+01  6.164076e+01  2.714715e+01
     vertex  5.346290e+01  5.818690e+01  2.621198e+01
     vertex  5.440851e+01  6.015250e+01  2.372247e+01
   endloop
 endfacet
 facet normal  8.186471e-01  9.014296e-02  5.671782e-01
   outer loop
     vertex  5.243468e+01  6.164076e+01  2.714715e+01
     vertex  5.160946e+01  5.818690e+01  2.888718e+01
     vertex  5.346290e+01  5.818690e+01  2.621198e+01
   endloop
 endfacet
 facet normal  8.821068e-01  2.471547e-01  4.010014e-01
   outer loop
     vertex  5.243468e+01  6.164076e+01  2.714715e+01
     vertex  5.440851e+01  6.015250e+01  2.372247e+01
     vertex  5.334789e+01  6.393792e+01  2.372247e+01
   endloop
 endfacet
 facet normal  6.513140e-01  7.351815e-01  1.878784e-01
   outer loop
     vertex  4.843224e+01  6.998006e+01  2.372247e+01
     vertex  5.146274e+01  6.824657e+01  2.000000e+01
     vertex  4.872534e+01  7.067168e+01  2.000000e+01
   endloop
 endfacet
 facet normal  4.556013e-01  8.680758e-01  1.971596e-01
   outer loop
     vertex  4.843224e+01  6.998006e+01  2.372247e+01
     vertex  4.872534e+01  7.067168e+01  2.000000e+01
     vertex  4.548713e+01  7.237123e+01  2.000000e+01
   endloop
 endfacet
 facet normal  6.672584e-01  7.144593e-01  2.105089e-01
   outer loop
     vertex  4.843224e+01  6.998006e+01  2.372247e+01
     vertex  5.130530e+01  6.729681e+01  2.372247e+01
     vertex  5.146274e+01  6.824657e+01  2.000000e+01
   endloop
 endfacet
 facet normal  8.164842e-01  3.546491e-01  4.556067e-01
   outer loop
     vertex  5.104573e+01  6.483845e+01  2.714715e+01
     vertex  5.243468e+01  6.164076e+01  2.714715e+01
     vertex  5.334789e+01  6.393792e+01  2.372247e+01
   endloop
 endfacet
 facet normal  7.827143e-01  4.759791e-01  4.010014e-01
   outer loop
     vertex  5.104573e+01  6.483845e+01  2.714715e+01
     vertex  5.334789e+01  6.393792e+01  2.372247e+01
     vertex  5.130530e+01  6.729681e+01  2.372247e+01
   endloop
 endfacet
 facet normal  6.819113e-01 -1.517719e-02  7.312774e-01
   outer loop
     vertex  5.038229e+01  5.959911e+01  3.006082e+01
     vertex  4.922922e+01  5.818690e+01  3.110674e+01
     vertex  5.160946e+01  5.818690e+01  2.888718e+01
   endloop
 endfacet
 facet normal  7.622768e-01  1.366065e-01  6.326711e-01
   outer loop
     vertex  5.038229e+01  5.959911e+01  3.006082e+01
     vertex  5.160946e+01  5.818690e+01  2.888718e+01
     vertex  5.243468e+01  6.164076e+01  2.714715e+01
   endloop
 endfacet
 facet normal  2.352375e-01  9.543960e-01  1.838248e-01
   outer loop
     vertex  4.494179e+01  7.178867e+01  2.372247e+01
     vertex  4.548713e+01  7.237123e+01  2.000000e+01
     vertex  4.193628e+01  7.324644e+01  2.000000e+01
   endloop
 endfacet
 facet normal  4.505720e-01  8.695645e-01  2.020950e-01
   outer loop
     vertex  4.494179e+01  7.178867e+01  2.372247e+01
     vertex  4.843224e+01  6.998006e+01  2.372247e+01
     vertex  4.548713e+01  7.237123e+01  2.000000e+01
   endloop
 endfacet
 facet normal  6.252715e-01  6.695023e-01  4.010014e-01
   outer loop
     vertex  4.884555e+01  6.754283e+01  2.714715e+01
     vertex  5.130530e+01  6.729681e+01  2.372247e+01
     vertex  4.843224e+01  6.998006e+01  2.372247e+01
   endloop
 endfacet
 facet normal  6.905236e-01  5.617826e-01  4.556067e-01
   outer loop
     vertex  4.884555e+01  6.754283e+01  2.714715e+01
     vertex  5.104573e+01  6.483845e+01  2.714715e+01
     vertex  5.130530e+01  6.729681e+01  2.372247e+01
   endloop
 endfacet
 facet normal  7.185800e-01  3.121233e-01  6.214675e-01
   outer loop
     vertex  4.962027e+01  6.231879e+01  3.006082e+01
     vertex  5.243468e+01  6.164076e+01  2.714715e+01
     vertex  5.104573e+01  6.483845e+01  2.714715e+01
   endloop
 endfacet
 facet normal  7.274269e-01  2.038155e-01  6.552170e-01
   outer loop
     vertex  4.962027e+01  6.231879e+01  3.006082e+01
     vertex  5.038229e+01  5.959911e+01  3.006082e+01
     vertex  5.243468e+01  6.164076e+01  2.714715e+01
   endloop
 endfacet
 facet normal  0.000000e+00  9.847365e-01  1.740518e-01
   outer loop
     vertex  4.109282e+01  7.258849e+01  2.372247e+01
     vertex  4.193628e+01  7.324644e+01  2.000000e+01
     vertex  3.827916e+01  7.324644e+01  2.000000e+01
   endloop
 endfacet
 facet normal  1.987394e-01  9.563867e-01  2.140727e-01
   outer loop
     vertex  4.109282e+01  7.258849e+01  2.372247e+01
     vertex  4.494179e+01  7.178867e+01  2.372247e+01
     vertex  4.193628e+01  7.324644e+01  2.000000e+01
   endloop
 endfacet
 facet normal  5.133500e-01  7.272512e-01  4.556067e-01
   outer loop
     vertex  4.599733e+01  6.955333e+01  2.714715e+01
     vertex  4.884555e+01  6.754283e+01  2.714715e+01
     vertex  4.843224e+01  6.998006e+01  2.372247e+01
   endloop
 endfacet
 facet normal  4.214552e-01  8.133716e-01  4.010014e-01
   outer loop
     vertex  4.599733e+01  6.955333e+01  2.714715e+01
     vertex  4.843224e+01  6.998006e+01  2.372247e+01
     vertex  4.494179e+01  7.178867e+01  2.372247e+01
   endloop
 endfacet
 facet normal  6.077232e-01  4.944195e-01  6.214675e-01
   outer loop
     vertex  4.815275e+01  6.473202e+01  3.006082e+01
     vertex  5.104573e+01  6.483845e+01  2.714715e+01
     vertex  4.884555e+01  6.754283e+01  2.714715e+01
   endloop
 endfacet
 facet normal  6.454632e-01  3.925149e-01  6.552170e-01
   outer loop
     vertex  4.815275e+01  6.473202e+01  3.006082e+01
     vertex  4.962027e+01  6.231879e+01  3.006082e+01
     vertex  5.104573e+01  6.483845e+01  2.714715e+01
   endloop
 endfacet
 facet normal  5.105085e-01  3.075659e-02  8.593224e-01
   outer loop
     vertex  4.713220e+01  6.015507e+01  3.228210e+01
     vertex  4.643120e+01  5.818690e+01  3.276899e+01
     vertex  4.922922e+01  5.818690e+01  3.110674e+01
   endloop
 endfacet
 facet normal  5.745091e-01  1.294818e-01  8.081916e-01
   outer loop
     vertex  4.713220e+01  6.015507e+01  3.228210e+01
     vertex  4.922922e+01  5.818690e+01  3.110674e+01
     vertex  5.038229e+01  5.959911e+01  3.006082e+01
   endloop
 endfacet
 facet normal  5.755261e-01  1.612549e-01  8.017272e-01
   outer loop
     vertex  4.713220e+01  6.015507e+01  3.228210e+01
     vertex  5.038229e+01  5.959911e+01  3.006082e+01
     vertex  4.962027e+01  6.231879e+01  3.006082e+01
   endloop
 endfacet
 facet normal -2.359178e-01  9.571562e-01  1.679129e-01
   outer loop
     vertex  3.717079e+01  7.232022e+01  2.372247e+01
     vertex  3.827916e+01  7.324644e+01  2.000000e+01
     vertex  3.472832e+01  7.237123e+01  2.000000e+01
   endloop
 endfacet
 facet normal -6.653611e-02  9.727235e-01  2.222203e-01
   outer loop
     vertex  3.717079e+01  7.232022e+01  2.372247e+01
     vertex  4.109282e+01  7.258849e+01  2.372247e+01
     vertex  3.827916e+01  7.324644e+01  2.000000e+01
   endloop
 endfacet
 facet normal  1.863815e-01  8.969168e-01  4.010014e-01
   outer loop
     vertex  4.271230e+01  7.072083e+01  2.714715e+01
     vertex  4.494179e+01  7.178867e+01  2.372247e+01
     vertex  4.109282e+01  7.258849e+01  2.372247e+01
   endloop
 endfacet
 facet normal  2.981035e-01  8.387829e-01  4.556067e-01
   outer loop
     vertex  4.271230e+01  7.072083e+01  2.714715e+01
     vertex  4.599733e+01  6.955333e+01  2.714715e+01
     vertex  4.494179e+01  7.178867e+01  2.372247e+01
   endloop
 endfacet
 facet normal  4.517944e-01  6.400468e-01  6.214675e-01
   outer loop
     vertex  4.608857e+01  6.665983e+01  3.006082e+01
     vertex  4.884555e+01  6.754283e+01  2.714715e+01
     vertex  4.599733e+01  6.955333e+01  2.714715e+01
   endloop
 endfacet
 facet normal  5.156284e-01  5.521032e-01  6.552170e-01
   outer loop
     vertex  4.608857e+01  6.665983e+01  3.006082e+01
     vertex  4.815275e+01  6.473202e+01  3.006082e+01
     vertex  4.884555e+01  6.754283e+01  2.714715e+01
   endloop
 endfacet
 facet normal  5.292431e-01  2.298827e-01  8.167347e-01
   outer loop
     vertex  4.634071e+01  6.197727e+01  3.228210e+01
     vertex  4.713220e+01  6.015507e+01  3.228210e+01
     vertex  4.962027e+01  6.231879e+01  3.006082e+01
   endloop
 endfacet
 facet normal  5.106780e-01  3.105502e-01  8.017272e-01
   outer loop
     vertex  4.634071e+01  6.197727e+01  3.228210e+01
     vertex  4.962027e+01  6.231879e+01  3.006082e+01
     vertex  4.815275e+01  6.473202e+01  3.006082e+01
   endloop
 endfacet
 facet normal  3.152794e-01 -7.277004e-02  9.462048e-01
   outer loop
     vertex  4.383734e+01  5.869953e+01  3.367270e+01
     vertex  4.334357e+01  5.818690e+01  3.379780e+01
     vertex  4.643120e+01  5.818690e+01  3.276899e+01
   endloop
 endfacet
 facet normal  1.059789e-01  1.382315e-01  9.847134e-01
   outer loop
     vertex  4.383734e+01  5.869953e+01  3.367270e+01
     vertex  4.010772e+01  5.818690e+01  3.414606e+01
     vertex  4.334357e+01  5.818690e+01  3.379780e+01
   endloop
 endfacet
 facet normal  3.459601e-01  1.073638e-01  9.320862e-01
   outer loop
     vertex  4.383734e+01  5.869953e+01  3.367270e+01
     vertex  4.643120e+01  5.818690e+01  3.276899e+01
     vertex  4.713220e+01  6.015507e+01  3.228210e+01
   endloop
 endfacet
 facet normal -4.583184e-01  8.732527e-01  1.654509e-01
   outer loop
     vertex  3.346657e+01  7.100374e+01  2.372247e+01
     vertex  3.472832e+01  7.237123e+01  2.000000e+01
     vertex  3.149010e+01  7.067168e+01  2.000000e+01
   endloop
 endfacet
 facet normal -3.261694e-01  9.177528e-01  2.265907e-01
   outer loop
     vertex  3.346657e+01  7.100374e+01  2.372247e+01
     vertex  3.717079e+01  7.232022e+01  2.372247e+01
     vertex  3.472832e+01  7.237123e+01  2.000000e+01
   endloop
 endfacet
 facet normal -6.251534e-02  9.139419e-01  4.010014e-01
   outer loop
     vertex  3.923410e+01  7.095874e+01  2.714715e+01
     vertex  4.109282e+01  7.258849e+01  2.372247e+01
     vertex  3.717079e+01  7.232022e+01  2.372247e+01
   endloop
 endfacet
 facet normal  6.074811e-02  8.881060e-01  4.556067e-01
   outer loop
     vertex  3.923410e+01  7.095874e+01  2.714715e+01
     vertex  4.271230e+01  7.072083e+01  2.714715e+01
     vertex  4.109282e+01  7.258849e+01  2.372247e+01
   endloop
 endfacet
 facet normal  3.475519e-01  6.707446e-01  6.552170e-01
   outer loop
     vertex  4.358081e+01  6.795924e+01  3.006082e+01
     vertex  4.608857e+01  6.665983e+01  3.006082e+01
     vertex  4.599733e+01  6.955333e+01  2.714715e+01
   endloop
 endfacet
 facet normal  2.623581e-01  7.382048e-01  6.214675e-01
   outer loop
     vertex  4.358081e+01  6.795924e+01  3.006082e+01
     vertex  4.599733e+01  6.955333e+01  2.714715e+01
     vertex  4.271230e+01  7.072083e+01  2.714715e+01
   endloop
 endfacet
 facet normal  4.079553e-01  4.368134e-01  8.017272e-01
   outer loop
     vertex  4.508694e+01  6.351835e+01  3.228210e+01
     vertex  4.815275e+01  6.473202e+01  3.006082e+01
     vertex  4.608857e+01  6.665983e+01  3.006082e+01
   endloop
 endfacet
 facet normal  4.475957e-01  3.641461e-01  8.167347e-01
   outer loop
     vertex  4.508694e+01  6.351835e+01  3.228210e+01
     vertex  4.634071e+01  6.197727e+01  3.228210e+01
     vertex  4.815275e+01  6.473202e+01  3.006082e+01
   endloop
 endfacet
 facet normal  3.418422e-01  1.484830e-01  9.279530e-01
   outer loop
     vertex  4.356073e+01  5.968676e+01  3.367270e+01
     vertex  4.713220e+01  6.015507e+01  3.228210e+01
     vertex  4.634071e+01  6.197727e+01  3.228210e+01
   endloop
 endfacet
 facet normal  1.212395e-01  3.396970e-02  9.920419e-01
   outer loop
     vertex  4.356073e+01  5.968676e+01  3.367270e+01
     vertex  4.010772e+01  5.818690e+01  3.414606e+01
     vertex  4.383734e+01  5.869953e+01  3.367270e+01
   endloop
 endfacet
 facet normal  3.498947e-01  9.803590e-02  9.316451e-01
   outer loop
     vertex  4.356073e+01  5.968676e+01  3.367270e+01
     vertex  4.383734e+01  5.869953e+01  3.367270e+01
     vertex  4.713220e+01  6.015507e+01  3.228210e+01
   endloop
 endfacet
 facet normal -6.538460e-01  7.380396e-01  1.666823e-01
   outer loop
     vertex  3.025490e+01  6.873670e+01  2.372247e+01
     vertex  3.149010e+01  7.067168e+01  2.000000e+01
     vertex  2.875271e+01  6.824657e+01  2.000000e+01
   endloop
 endfacet
 facet normal -5.615971e-01  7.956019e-01  2.272141e-01
   outer loop
     vertex  3.025490e+01  6.873670e+01  2.372247e+01
     vertex  3.346657e+01  7.100374e+01  2.372247e+01
     vertex  3.149010e+01  7.067168e+01  2.000000e+01
   endloop
 endfacet
 facet normal -1.811127e-01  8.715622e-01  4.556067e-01
   outer loop
     vertex  3.582070e+01  7.024943e+01  2.714715e+01
     vertex  3.923410e+01  7.095874e+01  2.714715e+01
     vertex  3.717079e+01  7.232022e+01  2.372247e+01
   endloop
 endfacet
 facet normal -3.067757e-01  8.631840e-01  4.010014e-01
   outer loop
     vertex  3.582070e+01  7.024943e+01  2.714715e+01
     vertex  3.717079e+01  7.232022e+01  2.372247e+01
     vertex  3.346657e+01  7.100374e+01  2.372247e+01
   endloop
 endfacet
 facet normal  5.346383e-02  7.816136e-01  6.214675e-01
   outer loop
     vertex  4.081547e+01  6.853389e+01  3.006082e+01
     vertex  4.271230e+01  7.072083e+01  2.714715e+01
     vertex  3.923410e+01  7.095874e+01  2.714715e+01
   endloop
 endfacet
 facet normal  1.536990e-01  7.396400e-01  6.552170e-01
   outer loop
     vertex  4.081547e+01  6.853389e+01  3.006082e+01
     vertex  4.358081e+01  6.795924e+01  3.006082e+01
     vertex  4.271230e+01  7.072083e+01  2.714715e+01
   endloop
 endfacet
 facet normal  2.749763e-01  5.306802e-01  8.017272e-01
   outer loop
     vertex  4.346389e+01  6.466402e+01  3.228210e+01
     vertex  4.608857e+01  6.665983e+01  3.006082e+01
     vertex  4.358081e+01  6.795924e+01  3.006082e+01
   endloop
 endfacet
 facet normal  3.327522e-01  4.714025e-01  8.167347e-01
   outer loop
     vertex  4.346389e+01  6.466402e+01  3.228210e+01
     vertex  4.508694e+01  6.351835e+01  3.228210e+01
     vertex  4.608857e+01  6.665983e+01  3.006082e+01
   endloop
 endfacet
 facet normal  1.075787e-01  6.542003e-02  9.920419e-01
   outer loop
     vertex  4.302803e+01  6.056275e+01  3.367270e+01
     vertex  4.010772e+01  5.818690e+01  3.414606e+01
     vertex  4.356073e+01  5.968676e+01  3.367270e+01
   endloop
 endfacet
 facet normal  2.891055e-01  2.352048e-01  9.279530e-01
   outer loop
     vertex  4.302803e+01  6.056275e+01  3.367270e+01
     vertex  4.634071e+01  6.197727e+01  3.228210e+01
     vertex  4.508694e+01  6.351835e+01  3.228210e+01
   endloop
 endfacet
 facet normal  3.104699e-01  1.888009e-01  9.316451e-01
   outer loop
     vertex  4.302803e+01  6.056275e+01  3.367270e+01
     vertex  4.356073e+01  5.968676e+01  3.367270e+01
     vertex  4.634071e+01  6.197727e+01  3.228210e+01
   endloop
 endfacet
 facet normal -8.107764e-01  5.596386e-01  1.715991e-01
   outer loop
     vertex  2.777397e+01  6.568722e+01  2.372247e+01
     vertex  2.875271e+01  6.824657e+01  2.000000e+01
     vertex  2.667523e+01  6.523682e+01  2.000000e+01
   endloop
 endfacet
 facet normal -7.559829e-01  6.150377e-01  2.240948e-01
   outer loop
     vertex  2.777397e+01  6.568722e+01  2.372247e+01
     vertex  3.025490e+01  6.873670e+01  2.372247e+01
     vertex  2.875271e+01  6.824657e+01  2.000000e+01
   endloop
 endfacet
 facet normal -5.282838e-01  7.484077e-01  4.010014e-01
   outer loop
     vertex  3.272524e+01  6.864549e+01  2.714715e+01
     vertex  3.346657e+01  7.100374e+01  2.372247e+01
     vertex  3.025490e+01  6.873670e+01  2.372247e+01
   endloop
 endfacet
 facet normal -4.095412e-01  7.903787e-01  4.556067e-01
   outer loop
     vertex  3.272524e+01  6.864549e+01  2.714715e+01
     vertex  3.582070e+01  7.024943e+01  2.714715e+01
     vertex  3.346657e+01  7.100374e+01  2.372247e+01
   endloop
 endfacet
 facet normal -1.593956e-01  7.670536e-01  6.214675e-01
   outer loop
     vertex  3.799765e+01  6.834114e+01  3.006082e+01
     vertex  3.923410e+01  7.095874e+01  2.714715e+01
     vertex  3.582070e+01  7.024943e+01  2.714715e+01
   endloop
 endfacet
 facet normal -5.155310e-02  7.536796e-01  6.552170e-01
   outer loop
     vertex  3.799765e+01  6.834114e+01  3.006082e+01
     vertex  4.081547e+01  6.853389e+01  3.006082e+01
     vertex  3.923410e+01  7.095874e+01  2.714715e+01
   endloop
 endfacet
 facet normal  1.216036e-01  5.851889e-01  8.017272e-01
   outer loop
     vertex  4.159193e+01  6.532932e+01  3.228210e+01
     vertex  4.358081e+01  6.795924e+01  3.006082e+01
     vertex  4.081547e+01  6.853389e+01  3.006082e+01
   endloop
 endfacet
 facet normal  1.932300e-01  5.436971e-01  8.167347e-01
   outer loop
     vertex  4.159193e+01  6.532932e+01  3.228210e+01
     vertex  4.346389e+01  6.466402e+01  3.228210e+01
     vertex  4.358081e+01  6.795924e+01  3.006082e+01
   endloop
 endfacet
 facet normal  8.593924e-02  9.201845e-02  9.920419e-01
   outer loop
     vertex  4.227874e+01  6.126253e+01  3.367270e+01
     vertex  4.010772e+01  5.818690e+01  3.414606e+01
     vertex  4.302803e+01  6.056275e+01  3.367270e+01
   endloop
 endfacet
 facet normal  2.149272e-01  3.044825e-01  9.279530e-01
   outer loop
     vertex  4.227874e+01  6.126253e+01  3.367270e+01
     vertex  4.508694e+01  6.351835e+01  3.228210e+01
     vertex  4.346389e+01  6.466402e+01  3.228210e+01
   endloop
 endfacet
 facet normal  2.480189e-01  2.655634e-01  9.316451e-01
   outer loop
     vertex  4.227874e+01  6.126253e+01  3.367270e+01
     vertex  4.302803e+01  6.056275e+01  3.367270e+01
     vertex  4.508694e+01  6.351835e+01  3.228210e+01
   endloop
 endfacet
 facet normal -8.953126e-01  3.888891e-01  2.172111e-01
   outer loop
     vertex  2.620778e+01  6.208148e+01  2.372247e+01
     vertex  2.777397e+01  6.568722e+01  2.372247e+01
     vertex  2.667523e+01  6.523682e+01  2.000000e+01
   endloop
 endfacet
 facet normal -9.197156e-01  3.488021e-01  1.801672e-01
   outer loop
     vertex  2.620778e+01  6.208148e+01  2.372247e+01
     vertex  2.667523e+01  6.523682e+01  2.000000e+01
     vertex  2.537840e+01  6.181736e+01  2.000000e+01
   endloop
 endfacet
 facet normal -7.106116e-01  5.781254e-01  4.010014e-01
   outer loop
     vertex  3.017731e+01  6.626589e+01  2.714715e+01
     vertex  3.025490e+01  6.873670e+01  2.372247e+01
     vertex  2.777397e+01  6.568722e+01  2.372247e+01
   endloop
 endfacet
 facet normal -6.075960e-01  6.505764e-01  4.556067e-01
   outer loop
     vertex  3.017731e+01  6.626589e+01  2.714715e+01
     vertex  3.272524e+01  6.864549e+01  2.714715e+01
     vertex  3.025490e+01  6.873670e+01  2.372247e+01
   endloop
 endfacet
 facet normal -3.604333e-01  6.956047e-01  6.214675e-01
   outer loop
     vertex  3.533631e+01  6.739531e+01  3.006082e+01
     vertex  3.582070e+01  7.024943e+01  2.714715e+01
     vertex  3.272524e+01  6.864549e+01  2.714715e+01
   endloop
 endfacet
 facet normal -2.529817e-01  7.118223e-01  6.552170e-01
   outer loop
     vertex  3.533631e+01  6.739531e+01  3.006082e+01
     vertex  3.799765e+01  6.834114e+01  3.006082e+01
     vertex  3.582070e+01  7.024943e+01  2.714715e+01
   endloop
 endfacet
 facet normal -4.078781e-02  5.962967e-01  8.017272e-01
   outer loop
     vertex  3.960989e+01  6.546489e+01  3.228210e+01
     vertex  4.081547e+01  6.853389e+01  3.006082e+01
     vertex  3.799765e+01  6.834114e+01  3.006082e+01
   endloop
 endfacet
 facet normal  3.937678e-02  5.756682e-01  8.167347e-01
   outer loop
     vertex  3.960989e+01  6.546489e+01  3.228210e+01
     vertex  4.159193e+01  6.532932e+01  3.228210e+01
     vertex  4.081547e+01  6.853389e+01  3.006082e+01
   endloop
 endfacet
 facet normal  5.792609e-02  1.117923e-01  9.920419e-01
   outer loop
     vertex  4.136844e+01  6.173421e+01  3.367270e+01
     vertex  4.010772e+01  5.818690e+01  3.414606e+01
     vertex  4.227874e+01  6.126253e+01  3.367270e+01
   endloop
 endfacet
 facet normal  1.248087e-01  3.511781e-01  9.279530e-01
   outer loop
     vertex  4.136844e+01  6.173421e+01  3.367270e+01
     vertex  4.346389e+01  6.466402e+01  3.228210e+01
     vertex  4.159193e+01  6.532932e+01  3.228210e+01
   endloop
 endfacet
 facet normal  1.671736e-01  3.226303e-01  9.316451e-01
   outer loop
     vertex  4.136844e+01  6.173421e+01  3.367270e+01
     vertex  4.227874e+01  6.126253e+01  3.367270e+01
     vertex  4.346389e+01  6.466402e+01  3.228210e+01
   endloop
 endfacet
 facet normal -9.741763e-01  1.182864e-01  1.923247e-01
   outer loop
     vertex  2.567248e+01  5.818690e+01  2.372247e+01
     vertex  2.537840e+01  6.181736e+01  2.000000e+01
     vertex  2.493758e+01  5.818690e+01  2.000000e+01
   endloop
 endfacet
 facet normal -9.741763e-01 -1.182864e-01  1.923247e-01
   outer loop
     vertex  2.567248e+01  5.818690e+01  2.372247e+01
     vertex  2.493758e+01  5.818690e+01  2.000000e+01
     vertex  2.537840e+01  5.455645e+01  2.000000e+01
   endloop
 endfacet
 facet normal -9.693297e-01  1.332313e-01  2.065172e-01
   outer loop
     vertex  2.567248e+01  5.818690e+01  2.372247e+01
     vertex  2.620778e+01  6.208148e+01  2.372247e+01
     vertex  2.537840e+01  6.181736e+01  2.000000e+01
   endloop
 endfacet
 facet normal -8.402366e-01  3.649663e-01  4.010014e-01
   outer loop
     vertex  2.836587e+01  6.328711e+01  2.714715e+01
     vertex  2.777397e+01  6.568722e+01  2.372247e+01
     vertex  2.620778e+01  6.208148e+01  2.372247e+01
   endloop
 endfacet
 facet normal -7.605881e-01  4.625238e-01  4.556067e-01
   outer loop
     vertex  2.836587e+01  6.328711e+01  2.714715e+01
     vertex  3.017731e+01  6.626589e+01  2.714715e+01
     vertex  2.777397e+01  6.568722e+01  2.372247e+01
   endloop
 endfacet
 facet normal -4.356478e-01  6.171723e-01  6.552170e-01
   outer loop
     vertex  3.302885e+01  6.576652e+01  3.006082e+01
     vertex  3.533631e+01  6.739531e+01  3.006082e+01
     vertex  3.272524e+01  6.864549e+01  2.714715e+01
   endloop
 endfacet
 facet normal -5.347394e-01  5.725661e-01  6.214675e-01
   outer loop
     vertex  3.302885e+01  6.576652e+01  3.006082e+01
     vertex  3.272524e+01  6.864549e+01  2.714715e+01
     vertex  3.017731e+01  6.626589e+01  2.714715e+01
   endloop
 endfacet
 facet normal -1.173968e-01  5.649446e-01  8.167347e-01
   outer loop
     vertex  3.766478e+01  6.506069e+01  3.228210e+01
     vertex  3.960989e+01  6.546489e+01  3.228210e+01
     vertex  3.799765e+01  6.834114e+01  3.006082e+01
   endloop
 endfacet
 facet normal -2.001542e-01  5.631800e-01  8.017272e-01
   outer loop
     vertex  3.766478e+01  6.506069e+01  3.228210e+01
     vertex  3.799765e+01  6.834114e+01  3.006082e+01
     vertex  3.533631e+01  6.739531e+01  3.006082e+01
   endloop
 endfacet
 facet normal  2.561684e-02  1.232750e-01  9.920419e-01
   outer loop
     vertex  4.036463e+01  6.194281e+01  3.367270e+01
     vertex  4.010772e+01  5.818690e+01  3.414606e+01
     vertex  4.136844e+01  6.173421e+01  3.367270e+01
   endloop
 endfacet
 facet normal  2.543376e-02  3.718284e-01  9.279530e-01
   outer loop
     vertex  4.036463e+01  6.194281e+01  3.367270e+01
     vertex  4.159193e+01  6.532932e+01  3.228210e+01
     vertex  3.960989e+01  6.546489e+01  3.228210e+01
   endloop
 endfacet
 facet normal  7.392969e-02  3.557692e-01  9.316451e-01
   outer loop
     vertex  4.036463e+01  6.194281e+01  3.367270e+01
     vertex  4.136844e+01  6.173421e+01  3.367270e+01
     vertex  4.159193e+01  6.532932e+01  3.228210e+01
   endloop
 endfacet
 facet normal -9.693297e-01 -1.332313e-01  2.065172e-01
   outer loop
     vertex  2.620778e+01  5.429232e+01  2.372247e+01
     vertex  2.567248e+01  5.818690e+01  2.372247e+01
     vertex  2.537840e+01  5.455645e+01  2.000000e+01
   endloop
 endfacet
 facet normal -9.197156e-01 -3.488021e-01  1.801672e-01
   outer loop
     vertex  2.620778e+01  5.429232e+01  2.372247e+01
     vertex  2.537840e+01  5.455645e+01  2.000000e+01
     vertex  2.667523e+01  5.113699e+01  2.000000e+01
   endloop
 endfacet
 facet normal -8.571708e-01  2.401680e-01  4.556067e-01
   outer loop
     vertex  2.742527e+01  5.993006e+01  2.714715e+01
     vertex  2.836587e+01  6.328711e+01  2.714715e+01
     vertex  2.620778e+01  6.208148e+01  2.372247e+01
   endloop
 endfacet
 facet normal -9.075450e-01  1.247392e-01  4.010014e-01
   outer loop
     vertex  2.742527e+01  5.993006e+01  2.714715e+01
     vertex  2.620778e+01  6.208148e+01  2.372247e+01
     vertex  2.567248e+01  5.818690e+01  2.372247e+01
   endloop
 endfacet
 facet normal -5.860039e-01  4.767495e-01  6.552170e-01
   outer loop
     vertex  3.124640e+01  6.357559e+01  3.006082e+01
     vertex  3.302885e+01  6.576652e+01  3.006082e+01
     vertex  3.017731e+01  6.626589e+01  2.714715e+01
   endloop
 endfacet
 facet normal -6.693863e-01  4.070628e-01  6.214675e-01
   outer loop
     vertex  3.124640e+01  6.357559e+01  3.006082e+01
     vertex  3.017731e+01  6.626589e+01  2.714715e+01
     vertex  2.836587e+01  6.328711e+01  2.714715e+01
   endloop
 endfacet
 facet normal -2.654637e-01  5.123216e-01  8.167347e-01
   outer loop
     vertex  3.590084e+01  6.414669e+01  3.228210e+01
     vertex  3.766478e+01  6.506069e+01  3.228210e+01
     vertex  3.533631e+01  6.739531e+01  3.006082e+01
   endloop
 endfacet
 facet normal -3.446761e-01  4.882948e-01  8.017272e-01
   outer loop
     vertex  3.590084e+01  6.414669e+01  3.228210e+01
     vertex  3.533631e+01  6.739531e+01  3.006082e+01
     vertex  3.302885e+01  6.576652e+01  3.006082e+01
   endloop
 endfacet
 facet normal -2.479721e-02  3.625223e-01  9.316451e-01
   outer loop
     vertex  3.934177e+01  6.187284e+01  3.367270e+01
     vertex  4.036463e+01  6.194281e+01  3.367270e+01
     vertex  3.960989e+01  6.546489e+01  3.228210e+01
   endloop
 endfacet
 facet normal -7.582750e-02  3.649020e-01  9.279530e-01
   outer loop
     vertex  3.934177e+01  6.187284e+01  3.367270e+01
     vertex  3.960989e+01  6.546489e+01  3.228210e+01
     vertex  3.766478e+01  6.506069e+01  3.228210e+01
   endloop
 endfacet
 facet normal -8.592299e-03  1.256150e-01  9.920419e-01
   outer loop
     vertex  3.934177e+01  6.187284e+01  3.367270e+01
     vertex  4.010772e+01  5.818690e+01  3.414606e+01
     vertex  4.036463e+01  6.194281e+01  3.367270e+01
   endloop
 endfacet
 facet normal -8.953126e-01 -3.888891e-01  2.172111e-01
   outer loop
     vertex  2.777397e+01  5.068658e+01  2.372247e+01
     vertex  2.620778e+01  5.429232e+01  2.372247e+01
     vertex  2.667523e+01  5.113699e+01  2.000000e+01
   endloop
 endfacet
 facet normal -8.107764e-01 -5.596386e-01  1.715991e-01
   outer loop
     vertex  2.777397e+01  5.068658e+01  2.372247e+01
     vertex  2.667523e+01  5.113699e+01  2.000000e+01
     vertex  2.875271e+01  4.812724e+01  2.000000e+01
   endloop
 endfacet
 facet normal -8.901812e-01  9.071327e-16  4.556067e-01
   outer loop
     vertex  2.742527e+01  5.644374e+01  2.714715e+01
     vertex  2.742527e+01  5.993006e+01  2.714715e+01
     vertex  2.567248e+01  5.818690e+01  2.372247e+01
   endloop
 endfacet
 facet normal -9.075450e-01 -1.247392e-01  4.010014e-01
   outer loop
     vertex  2.742527e+01  5.644374e+01  2.714715e+01
     vertex  2.567248e+01  5.818690e+01  2.372247e+01
     vertex  2.620778e+01  5.429232e+01  2.372247e+01
   endloop
 endfacet
 facet normal -6.928988e-01  3.009684e-01  6.552170e-01
   outer loop
     vertex  3.012115e+01  6.098501e+01  3.006082e+01
     vertex  3.124640e+01  6.357559e+01  3.006082e+01
     vertex  2.836587e+01  6.328711e+01  2.714715e+01
   endloop
 endfacet
 facet normal -7.543879e-01  2.113696e-01  6.214675e-01
   outer loop
     vertex  3.012115e+01  6.098501e+01  3.006082e+01
     vertex  2.836587e+01  6.328711e+01  2.714715e+01
     vertex  2.742527e+01  5.993006e+01  2.714715e+01
   endloop
 endfacet
 facet normal -3.938423e-01  4.217021e-01  8.167347e-01
   outer loop
     vertex  3.444891e+01  6.279069e+01  3.228210e+01
     vertex  3.590084e+01  6.414669e+01  3.228210e+01
     vertex  3.302885e+01  6.576652e+01  3.006082e+01
   endloop
 endfacet
 facet normal -4.636350e-01  3.771950e-01  8.017272e-01
   outer loop
     vertex  3.444891e+01  6.279069e+01  3.228210e+01
     vertex  3.302885e+01  6.576652e+01  3.006082e+01
     vertex  3.124640e+01  6.357559e+01  3.006082e+01
   endloop
 endfacet
 facet normal -1.714650e-01  3.309124e-01  9.279530e-01
   outer loop
     vertex  3.837572e+01  6.152951e+01  3.367270e+01
     vertex  3.766478e+01  6.506069e+01  3.228210e+01
     vertex  3.590084e+01  6.414669e+01  3.228210e+01
   endloop
 endfacet
 facet normal -1.216850e-01  3.423888e-01  9.316451e-01
   outer loop
     vertex  3.837572e+01  6.152951e+01  3.367270e+01
     vertex  3.934177e+01  6.187284e+01  3.367270e+01
     vertex  3.766478e+01  6.506069e+01  3.228210e+01
   endloop
 endfacet
 facet normal -4.216419e-02  1.186387e-01  9.920419e-01
   outer loop
     vertex  3.837572e+01  6.152951e+01  3.367270e+01
     vertex  4.010772e+01  5.818690e+01  3.414606e+01
     vertex  3.934177e+01  6.187284e+01  3.367270e+01
   endloop
 endfacet
 facet normal -6.538460e-01 -7.380396e-01  1.666823e-01
   outer loop
     vertex  3.025490e+01  4.763711e+01  2.372247e+01
     vertex  2.875271e+01  4.812724e+01  2.000000e+01
     vertex  3.149010e+01  4.570212e+01  2.000000e+01
   endloop
 endfacet
 facet normal -7.559829e-01 -6.150377e-01  2.240948e-01
   outer loop
     vertex  3.025490e+01  4.763711e+01  2.372247e+01
     vertex  2.777397e+01  5.068658e+01  2.372247e+01
     vertex  2.875271e+01  4.812724e+01  2.000000e+01
   endloop
 endfacet
 facet normal -8.402366e-01 -3.649663e-01  4.010014e-01
   outer loop
     vertex  2.836587e+01  5.308670e+01  2.714715e+01
     vertex  2.620778e+01  5.429232e+01  2.372247e+01
     vertex  2.777397e+01  5.068658e+01  2.372247e+01
   endloop
 endfacet
 facet normal -8.571708e-01 -2.401680e-01  4.556067e-01
   outer loop
     vertex  2.836587e+01  5.308670e+01  2.714715e+01
     vertex  2.742527e+01  5.644374e+01  2.714715e+01
     vertex  2.620778e+01  5.429232e+01  2.372247e+01
   endloop
 endfacet
 facet normal -7.834399e-01  7.535124e-16  6.214675e-01
   outer loop
     vertex  2.973656e+01  5.818690e+01  3.006082e+01
     vertex  2.742527e+01  5.993006e+01  2.714715e+01
     vertex  2.742527e+01  5.644374e+01  2.714715e+01
   endloop
 endfacet
 facet normal -7.484045e-01  1.028658e-01  6.552170e-01
   outer loop
     vertex  2.973656e+01  5.818690e+01  3.006082e+01
     vertex  3.012115e+01  6.098501e+01  3.006082e+01
     vertex  2.742527e+01  5.993006e+01  2.714715e+01
   endloop
 endfacet
 facet normal -5.482081e-01  2.381204e-01  8.017272e-01
   outer loop
     vertex  3.341667e+01  6.109324e+01  3.228210e+01
     vertex  3.124640e+01  6.357559e+01  3.006082e+01
     vertex  3.012115e+01  6.098501e+01  3.006082e+01
   endloop
 endfacet
 facet normal -4.930114e-01  2.998069e-01  8.167347e-01
   outer loop
     vertex  3.341667e+01  6.109324e+01  3.228210e+01
     vertex  3.444891e+01  6.279069e+01  3.228210e+01
     vertex  3.124640e+01  6.357559e+01  3.006082e+01
   endloop
 endfacet
 facet normal -2.543857e-01  2.723806e-01  9.279530e-01
   outer loop
     vertex  3.753813e+01  6.093827e+01  3.367270e+01
     vertex  3.590084e+01  6.414669e+01  3.228210e+01
     vertex  3.444891e+01  6.279069e+01  3.228210e+01
   endloop
 endfacet
 facet normal -2.095480e-01  2.968619e-01  9.316451e-01
   outer loop
     vertex  3.753813e+01  6.093827e+01  3.367270e+01
     vertex  3.837572e+01  6.152951e+01  3.367270e+01
     vertex  3.590084e+01  6.414669e+01  3.228210e+01
   endloop
 endfacet
 facet normal -7.260895e-02  1.028634e-01  9.920419e-01
   outer loop
     vertex  3.753813e+01  6.093827e+01  3.367270e+01
     vertex  4.010772e+01  5.818690e+01  3.414606e+01
     vertex  3.837572e+01  6.152951e+01  3.367270e+01
   endloop
 endfacet
 facet normal -5.615971e-01 -7.956019e-01  2.272141e-01
   outer loop
     vertex  3.346657e+01  4.537007e+01  2.372247e+01
     vertex  3.025490e+01  4.763711e+01  2.372247e+01
     vertex  3.149010e+01  4.570212e+01  2.000000e+01
   endloop
 endfacet
 facet normal -4.583184e-01 -8.732527e-01  1.654509e-01
   outer loop
     vertex  3.346657e+01  4.537007e+01  2.372247e+01
     vertex  3.149010e+01  4.570212e+01  2.000000e+01
     vertex  3.472832e+01  4.400257e+01  2.000000e+01
   endloop
 endfacet
 facet normal -7.106116e-01 -5.781254e-01  4.010014e-01
   outer loop
     vertex  3.017731e+01  5.010792e+01  2.714715e+01
     vertex  2.777397e+01  5.068658e+01  2.372247e+01
     vertex  3.025490e+01  4.763711e+01  2.372247e+01
   endloop
 endfacet
 facet normal -7.605881e-01 -4.625238e-01  4.556067e-01
   outer loop
     vertex  3.017731e+01  5.010792e+01  2.714715e+01
     vertex  2.836587e+01  5.308670e+01  2.714715e+01
     vertex  2.777397e+01  5.068658e+01  2.372247e+01
   endloop
 endfacet
 facet normal -7.543879e-01 -2.113696e-01  6.214675e-01
   outer loop
     vertex  3.012115e+01  5.538880e+01  3.006082e+01
     vertex  2.742527e+01  5.644374e+01  2.714715e+01
     vertex  2.836587e+01  5.308670e+01  2.714715e+01
   endloop
 endfacet
 facet normal -7.484045e-01 -1.028658e-01  6.552170e-01
   outer loop
     vertex  3.012115e+01  5.538880e+01  3.006082e+01
     vertex  2.973656e+01  5.818690e+01  3.006082e+01
     vertex  2.742527e+01  5.644374e+01  2.714715e+01
   endloop
 endfacet
 facet normal -5.556161e-01  1.556763e-01  8.167347e-01
   outer loop
     vertex  3.288067e+01  5.918024e+01  3.228210e+01
     vertex  3.341667e+01  6.109324e+01  3.228210e+01
     vertex  3.012115e+01  6.098501e+01  3.006082e+01
   endloop
 endfacet
 facet normal -5.921232e-01  8.138546e-02  8.017272e-01
   outer loop
     vertex  3.288067e+01  5.918024e+01  3.228210e+01
     vertex  3.012115e+01  6.098501e+01  3.006082e+01
     vertex  2.973656e+01  5.818690e+01  3.006082e+01
   endloop
 endfacet
 facet normal -3.184398e-01  1.936475e-01  9.279530e-01
   outer loop
     vertex  3.689110e+01  6.014297e+01  3.367270e+01
     vertex  3.444891e+01  6.279069e+01  3.228210e+01
     vertex  3.341667e+01  6.109324e+01  3.228210e+01
   endloop
 endfacet
 facet normal -9.766864e-02  7.945933e-02  9.920419e-01
   outer loop
     vertex  3.689110e+01  6.014297e+01  3.367270e+01
     vertex  4.010772e+01  5.818690e+01  3.414606e+01
     vertex  3.753813e+01  6.093827e+01  3.367270e+01
   endloop
 endfacet
 facet normal -2.818698e-01  2.293181e-01  9.316451e-01
   outer loop
     vertex  3.689110e+01  6.014297e+01  3.367270e+01
     vertex  3.753813e+01  6.093827e+01  3.367270e+01
     vertex  3.444891e+01  6.279069e+01  3.228210e+01
   endloop
 endfacet
 facet normal -2.359178e-01 -9.571562e-01  1.679129e-01
   outer loop
     vertex  3.717079e+01  4.405359e+01  2.372247e+01
     vertex  3.472832e+01  4.400257e+01  2.000000e+01
     vertex  3.827916e+01  4.312737e+01  2.000000e+01
   endloop
 endfacet
 facet normal -3.261694e-01 -9.177528e-01  2.265907e-01
   outer loop
     vertex  3.717079e+01  4.405359e+01  2.372247e+01
     vertex  3.346657e+01  4.537007e+01  2.372247e+01
     vertex  3.472832e+01  4.400257e+01  2.000000e+01
   endloop
 endfacet
 facet normal -5.282838e-01 -7.484077e-01  4.010014e-01
   outer loop
     vertex  3.272524e+01  4.772831e+01  2.714715e+01
     vertex  3.025490e+01  4.763711e+01  2.372247e+01
     vertex  3.346657e+01  4.537007e+01  2.372247e+01
   endloop
 endfacet
 facet normal -6.075960e-01 -6.505764e-01  4.556067e-01
   outer loop
     vertex  3.272524e+01  4.772831e+01  2.714715e+01
     vertex  3.017731e+01  5.010792e+01  2.714715e+01
     vertex  3.025490e+01  4.763711e+01  2.372247e+01
   endloop
 endfacet
 facet normal -6.693863e-01 -4.070628e-01  6.214675e-01
   outer loop
     vertex  3.124640e+01  5.279821e+01  3.006082e+01
     vertex  2.836587e+01  5.308670e+01  2.714715e+01
     vertex  3.017731e+01  5.010792e+01  2.714715e+01
   endloop
 endfacet
 facet normal -6.928988e-01 -3.009684e-01  6.552170e-01
   outer loop
     vertex  3.124640e+01  5.279821e+01  3.006082e+01
     vertex  3.012115e+01  5.538880e+01  3.006082e+01
     vertex  2.836587e+01  5.308670e+01  2.714715e+01
   endloop
 endfacet
 facet normal -5.921232e-01 -8.138546e-02  8.017272e-01
   outer loop
     vertex  3.288067e+01  5.719357e+01  3.228210e+01
     vertex  2.973656e+01  5.818690e+01  3.006082e+01
     vertex  3.012115e+01  5.538880e+01  3.006082e+01
   endloop
 endfacet
 facet normal -5.770133e-01  2.063718e-15  8.167347e-01
   outer loop
     vertex  3.288067e+01  5.719357e+01  3.228210e+01
     vertex  3.288067e+01  5.918024e+01  3.228210e+01
     vertex  2.973656e+01  5.818690e+01  3.006082e+01
   endloop
 endfacet
 facet normal -3.588767e-01  1.005525e-01  9.279530e-01
   outer loop
     vertex  3.648264e+01  5.920260e+01  3.367270e+01
     vertex  3.341667e+01  6.109324e+01  3.228210e+01
     vertex  3.288067e+01  5.918024e+01  3.228210e+01
   endloop
 endfacet
 facet normal -1.154847e-01  5.016208e-02  9.920419e-01
   outer loop
     vertex  3.648264e+01  5.920260e+01  3.367270e+01
     vertex  4.010772e+01  5.818690e+01  3.414606e+01
     vertex  3.689110e+01  6.014297e+01  3.367270e+01
   endloop
 endfacet
 facet normal -3.332865e-01  1.447668e-01  9.316451e-01
   outer loop
     vertex  3.648264e+01  5.920260e+01  3.367270e+01
     vertex  3.689110e+01  6.014297e+01  3.367270e+01
     vertex  3.341667e+01  6.109324e+01  3.228210e+01
   endloop
 endfacet
 facet normal -6.653611e-02 -9.727235e-01  2.222203e-01
   outer loop
     vertex  4.109282e+01  4.378531e+01  2.372247e+01
     vertex  3.717079e+01  4.405359e+01  2.372247e+01
     vertex  3.827916e+01  4.312737e+01  2.000000e+01
   endloop
 endfacet
 facet normal -1.927396e-15 -9.847365e-01  1.740518e-01
   outer loop
     vertex  4.109282e+01  4.378531e+01  2.372247e+01
     vertex  3.827916e+01  4.312737e+01  2.000000e+01
     vertex  4.193628e+01  4.312737e+01  2.000000e+01
   endloop
 endfacet
 facet normal -4.095412e-01 -7.903787e-01  4.556067e-01
   outer loop
     vertex  3.582070e+01  4.612438e+01  2.714715e+01
     vertex  3.272524e+01  4.772831e+01  2.714715e+01
     vertex  3.346657e+01  4.537007e+01  2.372247e+01
   endloop
 endfacet
 facet normal -3.067757e-01 -8.631840e-01  4.010014e-01
   outer loop
     vertex  3.582070e+01  4.612438e+01  2.714715e+01
     vertex  3.346657e+01  4.537007e+01  2.372247e+01
     vertex  3.717079e+01  4.405359e+01  2.372247e+01
   endloop
 endfacet
 facet normal -5.347394e-01 -5.725661e-01  6.214675e-01
   outer loop
     vertex  3.302885e+01  5.060728e+01  3.006082e+01
     vertex  3.017731e+01  5.010792e+01  2.714715e+01
     vertex  3.272524e+01  4.772831e+01  2.714715e+01
   endloop
 endfacet
 facet normal -5.860039e-01 -4.767495e-01  6.552170e-01
   outer loop
     vertex  3.302885e+01  5.060728e+01  3.006082e+01
     vertex  3.124640e+01  5.279821e+01  3.006082e+01
     vertex  3.017731e+01  5.010792e+01  2.714715e+01
   endloop
 endfacet
 facet normal -5.556161e-01 -1.556763e-01  8.167347e-01
   outer loop
     vertex  3.341667e+01  5.528057e+01  3.228210e+01
     vertex  3.288067e+01  5.719357e+01  3.228210e+01
     vertex  3.012115e+01  5.538880e+01  3.006082e+01
   endloop
 endfacet
 facet normal -5.482081e-01 -2.381204e-01  8.017272e-01
   outer loop
     vertex  3.341667e+01  5.528057e+01  3.228210e+01
     vertex  3.012115e+01  5.538880e+01  3.006082e+01
     vertex  3.124640e+01  5.279821e+01  3.006082e+01
   endloop
 endfacet
 facet normal  0.000000e+00  0.000000e+00  0.000000e+00
   outer loop
     vertex  3.634304e+01  5.818690e+01  3.367270e+01
     vertex  4.010772e+01  5.818690e+01  3.414606e+01
     vertex  4.010772e+01  5.818690e+01  3.414606e+01
   endloop
 endfacet
 facet normal -3.726973e-01  1.437833e-15  9.279530e-01
   outer loop
     vertex  3.634304e+01  5.818690e+01  3.367270e+01
     vertex  3.288067e+01  5.918024e+01  3.228210e+01
     vertex  3.288067e+01  5.719357e+01  3.228210e+01
   endloop
 endfacet
 facet normal -1.247358e-01  1.714454e-02  9.920419e-01
   outer loop
     vertex  3.634304e+01  5.818690e+01  3.367270e+01
     vertex  4.010772e+01  5.818690e+01  3.414606e+01
     vertex  3.648264e+01  5.920260e+01  3.367270e+01
   endloop
 endfacet
 facet normal -3.599850e-01  4.947880e-02  9.316451e-01
   outer loop
     vertex  3.634304e+01  5.818690e+01  3.367270e+01
     vertex  3.648264e+01  5.920260e+01  3.367270e+01
     vertex  3.288067e+01  5.918024e+01  3.228210e+01
   endloop
 endfacet
 facet normal  2.352375e-01 -9.543960e-01  1.838248e-01
   outer loop
     vertex  4.494179e+01  4.458514e+01  2.372247e+01
     vertex  4.193628e+01  4.312737e+01  2.000000e+01
     vertex  4.548713e+01  4.400257e+01  2.000000e+01
   endloop
 endfacet
 facet normal  1.987394e-01 -9.563867e-01  2.140727e-01
   outer loop
     vertex  4.494179e+01  4.458514e+01  2.372247e+01
     vertex  4.109282e+01  4.378531e+01  2.372247e+01
     vertex  4.193628e+01  4.312737e+01  2.000000e+01
   endloop
 endfacet
 facet normal -1.811127e-01 -8.715622e-01  4.556067e-01
   outer loop
     vertex  3.923410e+01  4.541506e+01  2.714715e+01
     vertex  3.582070e+01  4.612438e+01  2.714715e+01
     vertex  3.717079e+01  4.405359e+01  2.372247e+01
   endloop
 endfacet
 facet normal -6.251534e-02 -9.139419e-01  4.010014e-01
   outer loop
     vertex  3.923410e+01  4.541506e+01  2.714715e+01
     vertex  3.717079e+01  4.405359e+01  2.372247e+01
     vertex  4.109282e+01  4.378531e+01  2.372247e+01
   endloop
 endfacet
 facet normal -3.604333e-01 -6.956047e-01  6.214675e-01
   outer loop
     vertex  3.533631e+01  4.897850e+01  3.006082e+01
     vertex  3.272524e+01  4.772831e+01  2.714715e+01
     vertex  3.582070e+01  4.612438e+01  2.714715e+01
   endloop
 endfacet
 facet normal -4.356478e-01 -6.171723e-01  6.552170e-01
   outer loop
     vertex  3.533631e+01  4.897850e+01  3.006082e+01
     vertex  3.302885e+01  5.060728e+01  3.006082e+01
     vertex  3.272524e+01  4.772831e+01  2.714715e+01
   endloop
 endfacet
 facet normal -4.636350e-01 -3.771950e-01  8.017272e-01
   outer loop
     vertex  3.444891e+01  5.358312e+01  3.228210e+01
     vertex  3.124640e+01  5.279821e+01  3.006082e+01
     vertex  3.302885e+01  5.060728e+01  3.006082e+01
   endloop
 endfacet
 facet normal -4.930114e-01 -2.998069e-01  8.167347e-01
   outer loop
     vertex  3.444891e+01  5.358312e+01  3.228210e+01
     vertex  3.341667e+01  5.528057e+01  3.228210e+01
     vertex  3.124640e+01  5.279821e+01  3.006082e+01
   endloop
 endfacet
 facet normal -3.588767e-01 -1.005525e-01  9.279530e-01
   outer loop
     vertex  3.648264e+01  5.717120e+01  3.367270e+01
     vertex  3.288067e+01  5.719357e+01  3.228210e+01
     vertex  3.341667e+01  5.528057e+01  3.228210e+01
   endloop
 endfacet
 facet normal -1.247358e-01 -1.714454e-02  9.920419e-01
   outer loop
     vertex  3.648264e+01  5.717120e+01  3.367270e+01
     vertex  4.010772e+01  5.818690e+01  3.414606e+01
     vertex  3.634304e+01  5.818690e+01  3.367270e+01
   endloop
 endfacet
 facet normal -3.599850e-01 -4.947880e-02  9.316451e-01
   outer loop
     vertex  3.648264e+01  5.717120e+01  3.367270e+01
     vertex  3.634304e+01  5.818690e+01  3.367270e+01
     vertex  3.288067e+01  5.719357e+01  3.228210e+01
   endloop
 endfacet
 facet normal  4.556013e-01 -8.680758e-01  1.971596e-01
   outer loop
     vertex  4.843224e+01  4.639375e+01  2.372247e+01
     vertex  4.548713e+01  4.400257e+01  2.000000e+01
     vertex  4.872534e+01  4.570212e+01  2.000000e+01
   endloop
 endfacet
 facet normal  6.513140e-01 -7.351815e-01  1.878784e-01
   outer loop
     vertex  4.843224e+01  4.639375e+01  2.372247e+01
     vertex  4.872534e+01  4.570212e+01  2.000000e+01
     vertex  5.146274e+01  4.812724e+01  2.000000e+01
   endloop
 endfacet
 facet normal  4.505720e-01 -8.695645e-01  2.020950e-01
   outer loop
     vertex  4.843224e+01  4.639375e+01  2.372247e+01
     vertex  4.494179e+01  4.458514e+01  2.372247e+01
     vertex  4.548713e+01  4.400257e+01  2.000000e+01
   endloop
 endfacet
 facet normal  1.863815e-01 -8.969168e-01  4.010014e-01
   outer loop
     vertex  4.271230e+01  4.565298e+01  2.714715e+01
     vertex  4.109282e+01  4.378531e+01  2.372247e+01
     vertex  4.494179e+01  4.458514e+01  2.372247e+01
   endloop
 endfacet
 facet normal  6.074811e-02 -8.881060e-01  4.556067e-01
   outer loop
     vertex  4.271230e+01  4.565298e+01  2.714715e+01
     vertex  3.923410e+01  4.541506e+01  2.714715e+01
     vertex  4.109282e+01  4.378531e+01  2.372247e+01
   endloop
 endfacet
 facet normal -2.529817e-01 -7.118223e-01  6.552170e-01
   outer loop
     vertex  3.799765e+01  4.803266e+01  3.006082e+01
     vertex  3.533631e+01  4.897850e+01  3.006082e+01
     vertex  3.582070e+01  4.612438e+01  2.714715e+01
   endloop
 endfacet
 facet normal -1.593956e-01 -7.670536e-01  6.214675e-01
   outer loop
     vertex  3.799765e+01  4.803266e+01  3.006082e+01
     vertex  3.582070e+01  4.612438e+01  2.714715e+01
     vertex  3.923410e+01  4.541506e+01  2.714715e+01
   endloop
 endfacet
 facet normal -3.446761e-01 -4.882948e-01  8.017272e-01
   outer loop
     vertex  3.590084e+01  5.222711e+01  3.228210e+01
     vertex  3.302885e+01  5.060728e+01  3.006082e+01
     vertex  3.533631e+01  4.897850e+01  3.006082e+01
   endloop
 endfacet
 facet normal -3.938423e-01 -4.217021e-01  8.167347e-01
   outer loop
     vertex  3.590084e+01  5.222711e+01  3.228210e+01
     vertex  3.444891e+01  5.358312e+01  3.228210e+01
     vertex  3.302885e+01  5.060728e+01  3.006082e+01
   endloop
 endfacet
 facet normal -3.184398e-01 -1.936475e-01  9.279530e-01
   outer loop
     vertex  3.689110e+01  5.623083e+01  3.367270e+01
     vertex  3.341667e+01  5.528057e+01  3.228210e+01
     vertex  3.444891e+01  5.358312e+01  3.228210e+01
   endloop
 endfacet
 facet normal -3.332865e-01 -1.447668e-01  9.316451e-01
   outer loop
     vertex  3.689110e+01  5.623083e+01  3.367270e+01
     vertex  3.648264e+01  5.717120e+01  3.367270e+01
     vertex  3.341667e+01  5.528057e+01  3.228210e+01
   endloop
 endfacet
 facet normal -1.154847e-01 -5.016208e-02  9.920419e-01
   outer loop
     vertex  3.689110e+01  5.623083e+01  3.367270e+01
     vertex  4.010772e+01  5.818690e+01  3.414606e+01
     vertex  3.648264e+01  5.717120e+01  3.367270e+01
   endloop
 endfacet
 facet normal  8.100032e-01 -5.591048e-01  1.769086e-01
   outer loop
     vertex  5.130530e+01  4.907700e+01  2.372247e+01
     vertex  5.146274e+01  4.812724e+01  2.000000e+01
     vertex  5.354022e+01  5.113699e+01  2.000000e+01
   endloop
 endfacet
 facet normal  6.672584e-01 -7.144593e-01  2.105089e-01
   outer loop
     vertex  5.130530e+01  4.907700e+01  2.372247e+01
     vertex  4.843224e+01  4.639375e+01  2.372247e+01
     vertex  5.146274e+01  4.812724e+01  2.000000e+01
   endloop
 endfacet
 facet normal  4.214552e-01 -8.133716e-01  4.010014e-01
   outer loop
     vertex  4.599733e+01  4.682048e+01  2.714715e+01
     vertex  4.494179e+01  4.458514e+01  2.372247e+01
     vertex  4.843224e+01  4.639375e+01  2.372247e+01
   endloop
 endfacet
 facet normal  2.981035e-01 -8.387829e-01  4.556067e-01
   outer loop
     vertex  4.599733e+01  4.682048e+01  2.714715e+01
     vertex  4.271230e+01  4.565298e+01  2.714715e+01
     vertex  4.494179e+01  4.458514e+01  2.372247e+01
   endloop
 endfacet
 facet normal  5.346383e-02 -7.816136e-01  6.214675e-01
   outer loop
     vertex  4.081547e+01  4.783992e+01  3.006082e+01
     vertex  3.923410e+01  4.541506e+01  2.714715e+01
     vertex  4.271230e+01  4.565298e+01  2.714715e+01
   endloop
 endfacet
 facet normal -5.155310e-02 -7.536796e-01  6.552170e-01
   outer loop
     vertex  4.081547e+01  4.783992e+01  3.006082e+01
     vertex  3.799765e+01  4.803266e+01  3.006082e+01
     vertex  3.923410e+01  4.541506e+01  2.714715e+01
   endloop
 endfacet
 facet normal -2.001542e-01 -5.631800e-01  8.017272e-01
   outer loop
     vertex  3.766478e+01  5.131311e+01  3.228210e+01
     vertex  3.533631e+01  4.897850e+01  3.006082e+01
     vertex  3.799765e+01  4.803266e+01  3.006082e+01
   endloop
 endfacet
 facet normal -2.654637e-01 -5.123216e-01  8.167347e-01
   outer loop
     vertex  3.766478e+01  5.131311e+01  3.228210e+01
     vertex  3.590084e+01  5.222711e+01  3.228210e+01
     vertex  3.533631e+01  4.897850e+01  3.006082e+01
   endloop
 endfacet
 facet normal -2.543857e-01 -2.723806e-01  9.279530e-01
   outer loop
     vertex  3.753813e+01  5.543554e+01  3.367270e+01
     vertex  3.444891e+01  5.358312e+01  3.228210e+01
     vertex  3.590084e+01  5.222711e+01  3.228210e+01
   endloop
 endfacet
 facet normal -9.766864e-02 -7.945933e-02  9.920419e-01
   outer loop
     vertex  3.753813e+01  5.543554e+01  3.367270e+01
     vertex  4.010772e+01  5.818690e+01  3.414606e+01
     vertex  3.689110e+01  5.623083e+01  3.367270e+01
   endloop
 endfacet
 facet normal -2.818698e-01 -2.293181e-01  9.316451e-01
   outer loop
     vertex  3.753813e+01  5.543554e+01  3.367270e+01
     vertex  3.689110e+01  5.623083e+01  3.367270e+01
     vertex  3.444891e+01  5.358312e+01  3.228210e+01
   endloop
 endfacet
 facet normal  8.335002e-01 -5.068627e-01  2.199263e-01
   outer loop
     vertex  5.334789e+01  5.243589e+01  2.372247e+01
     vertex  5.130530e+01  4.907700e+01  2.372247e+01
     vertex  5.354022e+01  5.113699e+01  2.000000e+01
   endloop
 endfacet
 facet normal  9.214783e-01 -3.494706e-01  1.695522e-01
   outer loop
     vertex  5.334789e+01  5.243589e+01  2.372247e+01
     vertex  5.354022e+01  5.113699e+01  2.000000e+01
     vertex  5.483705e+01  5.455645e+01  2.000000e+01
   endloop
 endfacet
 facet normal  6.252715e-01 -6.695023e-01  4.010014e-01
   outer loop
     vertex  4.884555e+01  4.883097e+01  2.714715e+01
     vertex  4.843224e+01  4.639375e+01  2.372247e+01
     vertex  5.130530e+01  4.907700e+01  2.372247e+01
   endloop
 endfacet
 facet normal  5.133500e-01 -7.272512e-01  4.556067e-01
   outer loop
     vertex  4.884555e+01  4.883097e+01  2.714715e+01
     vertex  4.599733e+01  4.682048e+01  2.714715e+01
     vertex  4.843224e+01  4.639375e+01  2.372247e+01
   endloop
 endfacet
 facet normal  2.623581e-01 -7.382048e-01  6.214675e-01
   outer loop
     vertex  4.358081e+01  4.841456e+01  3.006082e+01
     vertex  4.271230e+01  4.565298e+01  2.714715e+01
     vertex  4.599733e+01  4.682048e+01  2.714715e+01
   endloop
 endfacet
 facet normal  1.536990e-01 -7.396400e-01  6.552170e-01
   outer loop
     vertex  4.358081e+01  4.841456e+01  3.006082e+01
     vertex  4.081547e+01  4.783992e+01  3.006082e+01
     vertex  4.271230e+01  4.565298e+01  2.714715e+01
   endloop
 endfacet
 facet normal -4.078781e-02 -5.962967e-01  8.017272e-01
   outer loop
     vertex  3.960989e+01  5.090891e+01  3.228210e+01
     vertex  3.799765e+01  4.803266e+01  3.006082e+01
     vertex  4.081547e+01  4.783992e+01  3.006082e+01
   endloop
 endfacet
 facet normal -1.173968e-01 -5.649446e-01  8.167347e-01
   outer loop
     vertex  3.960989e+01  5.090891e+01  3.228210e+01
     vertex  3.766478e+01  5.131311e+01  3.228210e+01
     vertex  3.799765e+01  4.803266e+01  3.006082e+01
   endloop
 endfacet
 facet normal -2.095480e-01 -2.968619e-01  9.316451e-01
   outer loop
     vertex  3.837572e+01  5.484430e+01  3.367270e+01
     vertex  3.753813e+01  5.543554e+01  3.367270e+01
     vertex  3.590084e+01  5.222711e+01  3.228210e+01
   endloop
 endfacet
 facet normal -1.714650e-01 -3.309124e-01  9.279530e-01
   outer loop
     vertex  3.837572e+01  5.484430e+01  3.367270e+01
     vertex  3.590084e+01  5.222711e+01  3.228210e+01
     vertex  3.766478e+01  5.131311e+01  3.228210e+01
   endloop
 endfacet
 facet normal -7.260895e-02 -1.028634e-01  9.920419e-01
   outer loop
     vertex  3.837572e+01  5.484430e+01  3.367270e+01
     vertex  4.010772e+01  5.818690e+01  3.414606e+01
     vertex  3.753813e+01  5.543554e+01  3.367270e+01
   endloop
 endfacet
 facet normal  9.381042e-01 -2.628445e-01  2.255512e-01
   outer loop
     vertex  5.440851e+01  5.622130e+01  2.372247e+01
     vertex  5.334789e+01  5.243589e+01  2.372247e+01
     vertex  5.483705e+01  5.455645e+01  2.000000e+01
   endloop
 endfacet
 facet normal  9.236625e-01 -3.853060e-02  3.812649e-01
   outer loop
     vertex  5.440851e+01  5.622130e+01  2.372247e+01
     vertex  5.470466e+01  5.818690e+01  2.320366e+01
     vertex  5.346290e+01  5.818690e+01  2.621198e+01
   endloop
 endfacet
 facet normal  9.814211e-01 -1.055820e-01  1.602032e-01
   outer loop
     vertex  5.440851e+01  5.622130e+01  2.372247e+01
     vertex  5.483705e+01  5.455645e+01  2.000000e+01
     vertex  5.470466e+01  5.818690e+01  2.320366e+01
   endloop
 endfacet
 facet normal  6.905236e-01 -5.617826e-01  4.556067e-01
   outer loop
     vertex  5.104573e+01  5.153535e+01  2.714715e+01
     vertex  4.884555e+01  4.883097e+01  2.714715e+01
     vertex  5.130530e+01  4.907700e+01  2.372247e+01
   endloop
 endfacet
 facet normal  7.827143e-01 -4.759791e-01  4.010014e-01
   outer loop
     vertex  5.104573e+01  5.153535e+01  2.714715e+01
     vertex  5.130530e+01  4.907700e+01  2.372247e+01
     vertex  5.334789e+01  5.243589e+01  2.372247e+01
   endloop
 endfacet
 facet normal  4.517944e-01 -6.400468e-01  6.214675e-01
   outer loop
     vertex  4.608857e+01  4.971397e+01  3.006082e+01
     vertex  4.599733e+01  4.682048e+01  2.714715e+01
     vertex  4.884555e+01  4.883097e+01  2.714715e+01
   endloop
 endfacet
 facet normal  3.475519e-01 -6.707446e-01  6.552170e-01
   outer loop
     vertex  4.608857e+01  4.971397e+01  3.006082e+01
     vertex  4.358081e+01  4.841456e+01  3.006082e+01
     vertex  4.599733e+01  4.682048e+01  2.714715e+01
   endloop
 endfacet
 facet normal  1.216036e-01 -5.851889e-01  8.017272e-01
   outer loop
     vertex  4.159193e+01  5.104449e+01  3.228210e+01
     vertex  4.081547e+01  4.783992e+01  3.006082e+01
     vertex  4.358081e+01  4.841456e+01  3.006082e+01
   endloop
 endfacet
 facet normal  3.937678e-02 -5.756682e-01  8.167347e-01
   outer loop
     vertex  4.159193e+01  5.104449e+01  3.228210e+01
     vertex  3.960989e+01  5.090891e+01  3.228210e+01
     vertex  4.081547e+01  4.783992e+01  3.006082e+01
   endloop
 endfacet
 facet normal -7.582750e-02 -3.649020e-01  9.279530e-01
   outer loop
     vertex  3.934177e+01  5.450096e+01  3.367270e+01
     vertex  3.766478e+01  5.131311e+01  3.228210e+01
     vertex  3.960989e+01  5.090891e+01  3.228210e+01
   endloop
 endfacet
 facet normal -4.216419e-02 -1.186387e-01  9.920419e-01
   outer loop
     vertex  3.934177e+01  5.450096e+01  3.367270e+01
     vertex  4.010772e+01  5.818690e+01  3.414606e+01
     vertex  3.837572e+01  5.484430e+01  3.367270e+01
   endloop
 endfacet
 facet normal -1.216850e-01 -3.423888e-01  9.316451e-01
   outer loop
     vertex  3.934177e+01  5.450096e+01  3.367270e+01
     vertex  3.837572e+01  5.484430e+01  3.367270e+01
     vertex  3.766478e+01  5.131311e+01  3.228210e+01
   endloop
 endfacet
 facet normal  8.186471e-01 -9.014296e-02  5.671782e-01
   outer loop
     vertex  5.243468e+01  5.473305e+01  2.714715e+01
     vertex  5.346290e+01  5.818690e+01  2.621198e+01
     vertex  5.160946e+01  5.818690e+01  2.888718e+01
   endloop
 endfacet
 facet normal  8.830537e-01 -1.417625e-01  4.473473e-01
   outer loop
     vertex  5.243468e+01  5.473305e+01  2.714715e+01
     vertex  5.440851e+01  5.622130e+01  2.372247e+01
     vertex  5.346290e+01  5.818690e+01  2.621198e+01
   endloop
 endfacet
 facet normal  8.164842e-01 -3.546491e-01  4.556067e-01
   outer loop
     vertex  5.243468e+01  5.473305e+01  2.714715e+01
     vertex  5.104573e+01  5.153535e+01  2.714715e+01
     vertex  5.334789e+01  5.243589e+01  2.372247e+01
   endloop
 endfacet
 facet normal  8.821068e-01 -2.471547e-01  4.010014e-01
   outer loop
     vertex  5.243468e+01  5.473305e+01  2.714715e+01
     vertex  5.334789e+01  5.243589e+01  2.372247e+01
     vertex  5.440851e+01  5.622130e+01  2.372247e+01
   endloop
 endfacet
 facet normal  5.156284e-01 -5.521032e-01  6.552170e-01
   outer loop
     vertex  4.815275e+01  5.164179e+01  3.006082e+01
     vertex  4.608857e+01  4.971397e+01  3.006082e+01
     vertex  4.884555e+01  4.883097e+01  2.714715e+01
   endloop
 endfacet
 facet normal  6.077232e-01 -4.944195e-01  6.214675e-01
   outer loop
     vertex  4.815275e+01  5.164179e+01  3.006082e+01
     vertex  4.884555e+01  4.883097e+01  2.714715e+01
     vertex  5.104573e+01  5.153535e+01  2.714715e+01
   endloop
 endfacet
 facet normal  2.749763e-01 -5.306802e-01  8.017272e-01
   outer loop
     vertex  4.346389e+01  5.170978e+01  3.228210e+01
     vertex  4.358081e+01  4.841456e+01  3.006082e+01
     vertex  4.608857e+01  4.971397e+01  3.006082e+01
   endloop
 endfacet
 facet normal  1.932300e-01 -5.436971e-01  8.167347e-01
   outer loop
     vertex  4.346389e+01  5.170978e+01  3.228210e+01
     vertex  4.159193e+01  5.104449e+01  3.228210e+01
     vertex  4.358081e+01  4.841456e+01  3.006082e+01
   endloop
 endfacet
 facet normal -2.479721e-02 -3.625223e-01  9.316451e-01
   outer loop
     vertex  4.036463e+01  5.443100e+01  3.367270e+01
     vertex  3.934177e+01  5.450096e+01  3.367270e+01
     vertex  3.960989e+01  5.090891e+01  3.228210e+01
   endloop
 endfacet
 facet normal  2.543376e-02 -3.718284e-01  9.279530e-01
   outer loop
     vertex  4.036463e+01  5.443100e+01  3.367270e+01
     vertex  3.960989e+01  5.090891e+01  3.228210e+01
     vertex  4.159193e+01  5.104449e+01  3.228210e+01
   endloop
 endfacet
 facet normal -8.592299e-03 -1.256150e-01  9.920419e-01
   outer loop
     vertex  4.036463e+01  5.443100e+01  3.367270e+01
     vertex  4.010772e+01  5.818690e+01  3.414606e+01
     vertex  3.934177e+01  5.450096e+01  3.367270e+01
   endloop
 endfacet
 facet normal  7.185800e-01 -3.121233e-01  6.214675e-01
   outer loop
     vertex  4.962027e+01  5.405502e+01  3.006082e+01
     vertex  5.104573e+01  5.153535e+01  2.714715e+01
     vertex  5.243468e+01  5.473305e+01  2.714715e+01
   endloop
 endfacet
 facet normal  6.454632e-01 -3.925149e-01  6.552170e-01
   outer loop
     vertex  4.962027e+01  5.405502e+01  3.006082e+01
     vertex  4.815275e+01  5.164179e+01  3.006082e+01
     vertex  5.104573e+01  5.153535e+01  2.714715e+01
   endloop
 endfacet
 facet normal  3.327522e-01 -4.714025e-01  8.167347e-01
   outer loop
     vertex  4.508694e+01  5.285546e+01  3.228210e+01
     vertex  4.346389e+01  5.170978e+01  3.228210e+01
     vertex  4.608857e+01  4.971397e+01  3.006082e+01
   endloop
 endfacet
 facet normal  4.079553e-01 -4.368134e-01  8.017272e-01
   outer loop
     vertex  4.508694e+01  5.285546e+01  3.228210e+01
     vertex  4.608857e+01  4.971397e+01  3.006082e+01
     vertex  4.815275e+01  5.164179e+01  3.006082e+01
   endloop
 endfacet
 facet normal  1.248087e-01 -3.511781e-01  9.279530e-01
   outer loop
     vertex  4.136844e+01  5.463959e+01  3.367270e+01
     vertex  4.159193e+01  5.104449e+01  3.228210e+01
     vertex  4.346389e+01  5.170978e+01  3.228210e+01
   endloop
 endfacet
 facet normal  2.561684e-02 -1.232750e-01  9.920419e-01
   outer loop
     vertex  4.136844e+01  5.463959e+01  3.367270e+01
     vertex  4.010772e+01  5.818690e+01  3.414606e+01
     vertex  4.036463e+01  5.443100e+01  3.367270e+01
   endloop
 endfacet
 facet normal  7.392969e-02 -3.557692e-01  9.316451e-01
   outer loop
     vertex  4.136844e+01  5.463959e+01  3.367270e+01
     vertex  4.036463e+01  5.443100e+01  3.367270e+01
     vertex  4.159193e+01  5.104449e+01  3.228210e+01
   endloop
 endfacet
 facet normal  6.819113e-01  1.517719e-02  7.312774e-01
   outer loop
     vertex  5.038229e+01  5.677470e+01  3.006082e+01
     vertex  5.160946e+01  5.818690e+01  2.888718e+01
     vertex  4.922922e+01  5.818690e+01  3.110674e+01
   endloop
 endfacet
 facet normal  7.274269e-01 -2.038155e-01  6.552170e-01
   outer loop
     vertex  5.038229e+01  5.677470e+01  3.006082e+01
     vertex  4.962027e+01  5.405502e+01  3.006082e+01
     vertex  5.243468e+01  5.473305e+01  2.714715e+01
   endloop
 endfacet
 facet normal  7.622768e-01 -1.366065e-01  6.326711e-01
   outer loop
     vertex  5.038229e+01  5.677470e+01  3.006082e+01
     vertex  5.243468e+01  5.473305e+01  2.714715e+01
     vertex  5.160946e+01  5.818690e+01  2.888718e+01
   endloop
 endfacet
 facet normal  5.106780e-01 -3.105502e-01  8.017272e-01
   outer loop
     vertex  4.634071e+01  5.439654e+01  3.228210e+01
     vertex  4.815275e+01  5.164179e+01  3.006082e+01
     vertex  4.962027e+01  5.405502e+01  3.006082e+01
   endloop
 endfacet
 facet normal  4.475957e-01 -3.641461e-01  8.167347e-01
   outer loop
     vertex  4.634071e+01  5.439654e+01  3.228210e+01
     vertex  4.508694e+01  5.285546e+01  3.228210e+01
     vertex  4.815275e+01  5.164179e+01  3.006082e+01
   endloop
 endfacet
 facet normal  2.149272e-01 -3.044825e-01  9.279530e-01
   outer loop
     vertex  4.227874e+01  5.511127e+01  3.367270e+01
     vertex  4.346389e+01  5.170978e+01  3.228210e+01
     vertex  4.508694e+01  5.285546e+01  3.228210e+01
   endloop
 endfacet
 facet normal  5.792609e-02 -1.117923e-01  9.920419e-01
   outer loop
     vertex  4.227874e+01  5.511127e+01  3.367270e+01
     vertex  4.010772e+01  5.818690e+01  3.414606e+01
     vertex  4.136844e+01  5.463959e+01  3.367270e+01
   endloop
 endfacet
 facet normal  1.671736e-01 -3.226303e-01  9.316451e-01
   outer loop
     vertex  4.227874e+01  5.511127e+01  3.367270e+01
     vertex  4.136844e+01  5.463959e+01  3.367270e+01
     vertex  4.346389e+01  5.170978e+01  3.228210e+01
   endloop
 endfacet
 facet normal  5.105085e-01 -3.075659e-02  8.593224e-01
   outer loop
     vertex  4.713220e+01  5.621874e+01  3.228210e+01
     vertex  4.922922e+01  5.818690e+01  3.110674e+01
     vertex  4.643120e+01  5.818690e+01  3.276899e+01
   endloop
 endfacet
 facet normal  5.292431e-01 -2.298827e-01  8.167347e-01
   outer loop
     vertex  4.713220e+01  5.621874e+01  3.228210e+01
     vertex  4.634071e+01  5.439654e+01  3.228210e+01
     vertex  4.962027e+01  5.405502e+01  3.006082e+01
   endloop
 endfacet
 facet normal  5.745091e-01 -1.294818e-01  8.081916e-01
   outer loop
     vertex  4.713220e+01  5.621874e+01  3.228210e+01
     vertex  5.038229e+01  5.677470e+01  3.006082e+01
     vertex  4.922922e+01  5.818690e+01  3.110674e+01
   endloop
 endfacet
 facet normal  5.755261e-01 -1.612549e-01  8.017272e-01
   outer loop
     vertex  4.713220e+01  5.621874e+01  3.228210e+01
     vertex  4.962027e+01  5.405502e+01  3.006082e+01
     vertex  5.038229e+01  5.677470e+01  3.006082e+01
   endloop
 endfacet
 facet normal  2.480189e-01 -2.655634e-01  9.316451e-01
   outer loop
     vertex  4.302803e+01  5.581106e+01  3.367270e+01
     vertex  4.227874e+01  5.511127e+01  3.367270e+01
     vertex  4.508694e+01  5.285546e+01  3.228210e+01
   endloop
 endfacet
 facet normal  8.593924e-02 -9.201845e-02  9.920419e-01
   outer loop
     vertex  4.302803e+01  5.581106e+01  3.367270e+01
     vertex  4.010772e+01  5.818690e+01  3.414606e+01
     vertex  4.227874e+01  5.511127e+01  3.367270e+01
   endloop
 endfacet
 facet normal  2.891055e-01 -2.352048e-01  9.279530e-01
   outer loop
     vertex  4.302803e+01  5.581106e+01  3.367270e+01
     vertex  4.508694e+01  5.285546e+01  3.228210e+01
     vertex  4.634071e+01  5.439654e+01  3.228210e+01
   endloop
 endfacet
 facet normal  3.418422e-01 -1.484830e-01  9.279530e-01
   outer loop
     vertex  4.356073e+01  5.668705e+01  3.367270e+01
     vertex  4.634071e+01  5.439654e+01  3.228210e+01
     vertex  4.713220e+01  5.621874e+01  3.228210e+01
   endloop
 endfacet
 facet normal  1.075787e-01 -6.542003e-02  9.920419e-01
   outer loop
     vertex  4.356073e+01  5.668705e+01  3.367270e+01
     vertex  4.010772e+01  5.818690e+01  3.414606e+01
     vertex  4.302803e+01  5.581106e+01  3.367270e+01
   endloop
 endfacet
 facet normal  3.104699e-01 -1.888009e-01  9.316451e-01
   outer loop
     vertex  4.356073e+01  5.668705e+01  3.367270e+01
     vertex  4.302803e+01  5.581106e+01  3.367270e+01
     vertex  4.634071e+01  5.439654e+01  3.228210e+01
   endloop
 endfacet
 facet normal  3.498947e-01 -9.803590e-02  9.316451e-01
   outer loop
     vertex  4.383734e+01  5.767428e+01  3.367270e+01
     vertex  4.356073e+01  5.668705e+01  3.367270e+01
     vertex  4.713220e+01  5.621874e+01  3.228210e+01
   endloop
 endfacet
 facet normal  3.152794e-01  7.277004e-02  9.462048e-01
   outer loop
     vertex  4.383734e+01  5.767428e+01  3.367270e+01
     vertex  4.643120e+01  5.818690e+01  3.276899e+01
     vertex  4.334357e+01  5.818690e+01  3.379780e+01
   endloop
 endfacet
 facet normal  1.059789e-01 -1.382315e-01  9.847134e-01
   outer loop
     vertex  4.383734e+01  5.767428e+01  3.367270e+01
     vertex  4.334357e+01  5.818690e+01  3.379780e+01
     vertex  4.010772e+01  5.818690e+01  3.414606e+01
   endloop
 endfacet
 facet normal  1.212395e-01 -3.396970e-02  9.920419e-01
   outer loop
     vertex  4.383734e+01  5.767428e+01  3.367270e+01
     vertex  4.010772e+01  5.818690e+01  3.414606e+01
     vertex  4.356073e+01  5.668705e+01  3.367270e+01
   endloop
 endfacet
 facet normal  3.459601e-01 -1.073638e-01  9.320862e-01
   outer loop
     vertex  4.383734e+01  5.767428e+01  3.367270e+01
     vertex  4.713220e+01  5.621874e+01  3.228210e+01
     vertex  4.643120e+01  5.818690e+01  3.276899e+01
   endloop
 endfacet
endsolid
