solid 
 facet normal -1.000000e+00  0.000000e+00  0.000000e+00
   outer loop
     vertex  0.000000e+00  0.000000e+00  2.000000e+01
     vertex  0.000000e+00  8.760404e+01  0.000000e+00
     vertex  0.000000e+00  0.000000e+00  0.000000e+00
   endloop
 endfacet
 facet normal -1.000000e+00  0.000000e+00  0.000000e+00
   outer loop
     vertex  0.000000e+00  0.000000e+00  2.000000e+01
     vertex  0.000000e+00  8.760404e+01  2.000000e+01
     vertex  0.000000e+00  8.760404e+01  0.000000e+00
   endloop
 endfacet
 facet normal  0.000000e+00 -1.000000e+00 -0.000000e+00
   outer loop
     vertex  1.332971e+02  0.000000e+00  2.000000e+01
     vertex  0.000000e+00  0.000000e+00  0.000000e+00
     vertex  1.332971e+02  0.000000e+00  0.000000e+00
   endloop
 endfacet
 facet normal -0.000000e+00 -1.000000e+00  0.000000e+00
   outer loop
     vertex  1.332971e+02  0.000000e+00  2.000000e+01
     vertex  0.000000e+00  0.000000e+00  2.000000e+01
     vertex  0.000000e+00  0.000000e+00  0.000000e+00
   endloop
 endfacet
 facet normal  0.000000e+00  0.000000e+00  1.000000e+00
   outer loop
     vertex  8.605343e+01  3.256917e+01  2.000000e+01
     vertex  8.368575e+01  3.466675e+01  2.000000e+01
     vertex  0.000000e+00  0.000000e+00  2.000000e+01
   endloop
 endfacet
 facet normal  0.000000e+00  0.000000e+00  1.000000e+00
   outer loop
     vertex  8.188885e+01  3.727001e+01  2.000000e+01
     vertex  0.000000e+00  0.000000e+00  2.000000e+01
     vertex  8.368575e+01  3.466675e+01  2.000000e+01
   endloop
 endfacet
 facet normal  0.000000e+00  0.000000e+00  1.000000e+00
   outer loop
     vertex  8.885430e+01  3.109916e+01  2.000000e+01
     vertex  8.605343e+01  3.256917e+01  2.000000e+01
     vertex  0.000000e+00  0.000000e+00  2.000000e+01
   endloop
 endfacet
 facet normal  0.000000e+00  0.000000e+00  1.000000e+00
   outer loop
     vertex  8.076717e+01  4.022765e+01  2.000000e+01
     vertex  0.000000e+00  0.000000e+00  2.000000e+01
     vertex  8.188885e+01  3.727001e+01  2.000000e+01
   endloop
 endfacet
 facet normal  0.000000e+00  0.000000e+00  1.000000e+00
   outer loop
     vertex  8.038588e+01  4.336778e+01  2.000000e+01
     vertex  0.000000e+00  8.760404e+01  2.000000e+01
     vertex  0.000000e+00  0.000000e+00  2.000000e+01
   endloop
 endfacet
 facet normal  0.000000e+00  0.000000e+00  1.000000e+00
   outer loop
     vertex  8.038588e+01  4.336778e+01  2.000000e+01
     vertex  0.000000e+00  0.000000e+00  2.000000e+01
     vertex  8.076717e+01  4.022765e+01  2.000000e+01
   endloop
 endfacet
 facet normal  0.000000e+00  0.000000e+00  1.000000e+00
   outer loop
     vertex  8.076717e+01  4.650791e+01  2.000000e+01
     vertex  0.000000e+00  8.760404e+01  2.000000e+01
     vertex  8.038588e+01  4.336778e+01  2.000000e+01
   endloop
 endfacet
 facet normal  0.000000e+00  0.000000e+00  1.000000e+00
   outer loop
     vertex  8.188885e+01  4.946555e+01  2.000000e+01
     vertex  0.000000e+00  8.760404e+01  2.000000e+01
     vertex  8.076717e+01  4.650791e+01  2.000000e+01
   endloop
 endfacet
 facet normal  0.000000e+00  0.000000e+00  1.000000e+00
   outer loop
     vertex  1.332971e+02  0.000000e+00  2.000000e+01
     vertex  9.192558e+01  3.034215e+01  2.000000e+01
     vertex  8.885430e+01  3.109916e+01  2.000000e+01
   endloop
 endfacet
 facet normal  0.000000e+00  0.000000e+00  1.000000e+00
   outer loop
     vertex  1.332971e+02  0.000000e+00  2.000000e+01
     vertex  9.508877e+01  3.034215e+01  2.000000e+01
     vertex  9.192558e+01  3.034215e+01  2.000000e+01
   endloop
 endfacet
 facet normal  0.000000e+00  0.000000e+00  1.000000e+00
   outer loop
     vertex  1.332971e+02  0.000000e+00  2.000000e+01
     vertex  9.816005e+01  3.109916e+01  2.000000e+01
     vertex  9.508877e+01  3.034215e+01  2.000000e+01
   endloop
 endfacet
 facet normal  0.000000e+00  0.000000e+00  1.000000e+00
   outer loop
     vertex  1.332971e+02  0.000000e+00  2.000000e+01
     vertex  8.885430e+01  3.109916e+01  2.000000e+01
     vertex  0.000000e+00  0.000000e+00  2.000000e+01
   endloop
 endfacet
 facet normal  0.000000e+00  0.000000e+00  1.000000e+00
   outer loop
     vertex  1.009609e+02  3.256917e+01  2.000000e+01
     vertex  9.816005e+01  3.109916e+01  2.000000e+01
     vertex  1.332971e+02  0.000000e+00  2.000000e+01
   endloop
 endfacet
 facet normal  0.000000e+00  0.000000e+00  1.000000e+00
   outer loop
     vertex  8.368575e+01  5.206880e+01  2.000000e+01
     vertex  0.000000e+00  8.760404e+01  2.000000e+01
     vertex  8.188885e+01  4.946555e+01  2.000000e+01
   endloop
 endfacet
 facet normal  0.000000e+00  0.000000e+00  1.000000e+00
   outer loop
     vertex  1.033286e+02  3.466675e+01  2.000000e+01
     vertex  1.009609e+02  3.256917e+01  2.000000e+01
     vertex  1.332971e+02  0.000000e+00  2.000000e+01
   endloop
 endfacet
 facet normal  0.000000e+00  0.000000e+00  1.000000e+00
   outer loop
     vertex  8.605343e+01  5.416639e+01  2.000000e+01
     vertex  0.000000e+00  8.760404e+01  2.000000e+01
     vertex  8.368575e+01  5.206880e+01  2.000000e+01
   endloop
 endfacet
 facet normal  0.000000e+00  0.000000e+00  1.000000e+00
   outer loop
     vertex  1.051255e+02  3.727001e+01  2.000000e+01
     vertex  1.033286e+02  3.466675e+01  2.000000e+01
     vertex  1.332971e+02  0.000000e+00  2.000000e+01
   endloop
 endfacet
 facet normal  0.000000e+00  0.000000e+00  1.000000e+00
   outer loop
     vertex  8.885430e+01  5.563640e+01  2.000000e+01
     vertex  0.000000e+00  8.760404e+01  2.000000e+01
     vertex  8.605343e+01  5.416639e+01  2.000000e+01
   endloop
 endfacet
 facet normal  0.000000e+00  0.000000e+00  1.000000e+00
   outer loop
     vertex  1.062472e+02  4.022765e+01  2.000000e+01
     vertex  1.051255e+02  3.727001e+01  2.000000e+01
     vertex  1.332971e+02  0.000000e+00  2.000000e+01
   endloop
 endfacet
 facet normal  2.850411e-15  1.916678e-15  1.000000e+00
   outer loop
     vertex  1.066285e+02  4.336778e+01  2.000000e+01
     vertex  1.062472e+02  4.022765e+01  2.000000e+01
     vertex  1.332971e+02  0.000000e+00  2.000000e+01
   endloop
 endfacet
 facet normal  2.902365e-15 -1.910370e-15  1.000000e+00
   outer loop
     vertex  1.332971e+02  8.760404e+01  2.000000e+01
     vertex  1.062472e+02  4.650791e+01  2.000000e+01
     vertex  1.066285e+02  4.336778e+01  2.000000e+01
   endloop
 endfacet
 facet normal  0.000000e+00  0.000000e+00  1.000000e+00
   outer loop
     vertex  1.332971e+02  8.760404e+01  2.000000e+01
     vertex  1.051255e+02  4.946555e+01  2.000000e+01
     vertex  1.062472e+02  4.650791e+01  2.000000e+01
   endloop
 endfacet
 facet normal  0.000000e+00  0.000000e+00  1.000000e+00
   outer loop
     vertex  1.332971e+02  8.760404e+01  2.000000e+01
     vertex  1.033286e+02  5.206880e+01  2.000000e+01
     vertex  1.051255e+02  4.946555e+01  2.000000e+01
   endloop
 endfacet
 facet normal  0.000000e+00  0.000000e+00  1.000000e+00
   outer loop
     vertex  1.332971e+02  8.760404e+01  2.000000e+01
     vertex  1.009609e+02  5.416639e+01  2.000000e+01
     vertex  1.033286e+02  5.206880e+01  2.000000e+01
   endloop
 endfacet
 facet normal  0.000000e+00  0.000000e+00  1.000000e+00
   outer loop
     vertex  1.332971e+02  8.760404e+01  2.000000e+01
     vertex  9.816005e+01  5.563640e+01  2.000000e+01
     vertex  1.009609e+02  5.416639e+01  2.000000e+01
   endloop
 endfacet
 facet normal  0.000000e+00  0.000000e+00  1.000000e+00
   outer loop
     vertex  1.332971e+02  8.760404e+01  2.000000e+01
     vertex  9.508877e+01  5.639340e+01  2.000000e+01
     vertex  9.816005e+01  5.563640e+01  2.000000e+01
   endloop
 endfacet
 facet normal  0.000000e+00  0.000000e+00  1.000000e+00
   outer loop
     vertex  1.332971e+02  8.760404e+01  2.000000e+01
     vertex  9.192558e+01  5.639340e+01  2.000000e+01
     vertex  9.508877e+01  5.639340e+01  2.000000e+01
   endloop
 endfacet
 facet normal  0.000000e+00  0.000000e+00  1.000000e+00
   outer loop
     vertex  1.332971e+02  8.760404e+01  2.000000e+01
     vertex  8.885430e+01  5.563640e+01  2.000000e+01
     vertex  9.192558e+01  5.639340e+01  2.000000e+01
   endloop
 endfacet
 facet normal  0.000000e+00  0.000000e+00  1.000000e+00
   outer loop
     vertex  1.332971e+02  8.760404e+01  2.000000e+01
     vertex  0.000000e+00  8.760404e+01  2.000000e+01
     vertex  8.885430e+01  5.563640e+01  2.000000e+01
   endloop
 endfacet
 facet normal -2.664336e-16  0.000000e+00  1.000000e+00
   outer loop
     vertex  1.332971e+02  8.760404e+01  2.000000e+01
     vertex  1.066285e+02  4.336778e+01  2.000000e+01
     vertex  1.332971e+02  0.000000e+00  2.000000e+01
   endloop
 endfacet
 facet normal  0.000000e+00  1.000000e+00  0.000000e+00
   outer loop
     vertex  1.332971e+02  8.760404e+01  2.000000e+01
     vertex  1.332971e+02  8.760404e+01  0.000000e+00
     vertex  0.000000e+00  8.760404e+01  0.000000e+00
   endloop
 endfacet
 facet normal  0.000000e+00  1.000000e+00  0.000000e+00
   outer loop
     vertex  1.332971e+02  8.760404e+01  2.000000e+01
     vertex  0.000000e+00  8.760404e+01  0.000000e+00
     vertex  0.000000e+00  8.760404e+01  2.000000e+01
   endloop
 endfacet
 facet normal -0.000000e+00  0.000000e+00 -1.000000e+00
   outer loop
     vertex  1.332971e+02  8.760404e+01  0.000000e+00
     vertex  0.000000e+00  0.000000e+00  0.000000e+00
     vertex  0.000000e+00  8.760404e+01  0.000000e+00
   endloop
 endfacet
 facet normal  0.000000e+00 -0.000000e+00 -1.000000e+00
   outer loop
     vertex  1.332971e+02  8.760404e+01  0.000000e+00
     vertex  1.332971e+02  0.000000e+00  0.000000e+00
     vertex  0.000000e+00  0.000000e+00  0.000000e+00
   endloop
 endfacet
 facet normal  1.000000e+00  0.000000e+00  0.000000e+00
   outer loop
     vertex  1.332971e+02  0.000000e+00  2.000000e+01
     vertex  1.332971e+02  0.000000e+00  0.000000e+00
     vertex  1.332971e+02  8.760404e+01  0.000000e+00
   endloop
 endfacet
 facet normal  1.000000e+00 -0.000000e+00  0.000000e+00
   outer loop
     vertex  1.332971e+02  0.000000e+00  2.000000e+01
     vertex  1.332971e+02  8.760404e+01  0.000000e+00
     vertex  1.332971e+02  8.760404e+01  2.000000e+01
   endloop
 endfacet
 facet normal  9.830362e-01  1.193622e-01  1.392567e-01
   outer loop
     vertex  1.062242e+02  4.336778e+01  2.285388e+01
     vertex  1.066285e+02  4.336778e+01  2.000000e+01
     vertex  1.062472e+02  4.650791e+01  2.000000e+01
   endloop
 endfacet
 facet normal  9.830362e-01 -1.193622e-01  1.392567e-01
   outer loop
     vertex  1.062242e+02  4.336778e+01  2.285388e+01
     vertex  1.062472e+02  4.022765e+01  2.000000e+01
     vertex  1.066285e+02  4.336778e+01  2.000000e+01
   endloop
 endfacet
 facet normal  9.346221e-01  4.658168e-02  3.525785e-01
   outer loop
     vertex  1.059556e+02  4.524408e+01  2.331790e+01
     vertex  1.052068e+02  4.336778e+01  2.555074e+01
     vertex  1.062242e+02  4.336778e+01  2.285388e+01
   endloop
 endfacet
 facet normal  9.856902e-01  1.093627e-01  1.282755e-01
   outer loop
     vertex  1.059556e+02  4.524408e+01  2.331790e+01
     vertex  1.062242e+02  4.336778e+01  2.285388e+01
     vertex  1.062472e+02  4.650791e+01  2.000000e+01
   endloop
 endfacet
 facet normal  9.252468e-01  3.508998e-01  1.441792e-01
   outer loop
     vertex  1.048495e+02  4.882997e+01  2.331790e+01
     vertex  1.062472e+02  4.650791e+01  2.000000e+01
     vertex  1.051255e+02  4.946555e+01  2.000000e+01
   endloop
 endfacet
 facet normal  9.376868e-01  2.892381e-01  1.925740e-01
   outer loop
     vertex  1.048495e+02  4.882997e+01  2.331790e+01
     vertex  1.059556e+02  4.524408e+01  2.331790e+01
     vertex  1.062472e+02  4.650791e+01  2.000000e+01
   endloop
 endfacet
 facet normal  8.112406e-01  5.599589e-01  1.683292e-01
   outer loop
     vertex  1.027356e+02  5.193051e+01  2.331790e+01
     vertex  1.051255e+02  4.946555e+01  2.000000e+01
     vertex  1.033286e+02  5.206880e+01  2.000000e+01
   endloop
 endfacet
 facet normal  6.558134e-01  7.402604e-01  1.480653e-01
   outer loop
     vertex  1.027356e+02  5.193051e+01  2.331790e+01
     vertex  1.033286e+02  5.206880e+01  2.000000e+01
     vertex  1.009609e+02  5.416639e+01  2.000000e+01
   endloop
 endfacet
 facet normal  8.136434e-01  5.547327e-01  1.739427e-01
   outer loop
     vertex  1.027356e+02  5.193051e+01  2.331790e+01
     vertex  1.048495e+02  4.882997e+01  2.331790e+01
     vertex  1.051255e+02  4.946555e+01  2.000000e+01
   endloop
 endfacet
 facet normal  8.915634e-01  1.519194e-01  4.266559e-01
   outer loop
     vertex  1.042401e+02  4.667845e+01  2.639198e+01
     vertex  1.052068e+02  4.336778e+01  2.555074e+01
     vertex  1.059556e+02  4.524408e+01  2.331790e+01
   endloop
 endfacet
 facet normal  8.315075e-01  1.041432e-01  5.456643e-01
   outer loop
     vertex  1.042401e+02  4.667845e+01  2.639198e+01
     vertex  1.036254e+02  4.336778e+01  2.796055e+01
     vertex  1.052068e+02  4.336778e+01  2.555074e+01
   endloop
 endfacet
 facet normal  8.885295e-01  2.740751e-01  3.679648e-01
   outer loop
     vertex  1.042401e+02  4.667845e+01  2.639198e+01
     vertex  1.059556e+02  4.524408e+01  2.331790e+01
     vertex  1.048495e+02  4.882997e+01  2.331790e+01
   endloop
 endfacet
 facet normal  4.605664e-01  8.775360e-01  1.334513e-01
   outer loop
     vertex  9.980171e+01  5.427022e+01  2.331790e+01
     vertex  1.009609e+02  5.416639e+01  2.000000e+01
     vertex  9.816005e+01  5.563640e+01  2.000000e+01
   endloop
 endfacet
 facet normal  6.121502e-01  7.676121e-01  1.898519e-01
   outer loop
     vertex  9.980171e+01  5.427022e+01  2.331790e+01
     vertex  1.027356e+02  5.193051e+01  2.331790e+01
     vertex  1.009609e+02  5.416639e+01  2.000000e+01
   endloop
 endfacet
 facet normal  8.115213e-01  3.908081e-01  4.343987e-01
   outer loop
     vertex  1.027874e+02  4.969496e+01  2.639198e+01
     vertex  1.042401e+02  4.667845e+01  2.639198e+01
     vertex  1.048495e+02  4.882997e+01  2.331790e+01
   endloop
 endfacet
 facet normal  7.682696e-01  5.237974e-01  3.679648e-01
   outer loop
     vertex  1.027874e+02  4.969496e+01  2.639198e+01
     vertex  1.048495e+02  4.882997e+01  2.331790e+01
     vertex  1.027356e+02  5.193051e+01  2.331790e+01
   endloop
 endfacet
 facet normal  6.961505e-01 -6.085698e-03  7.178700e-01
   outer loop
     vertex  1.025440e+02  4.472986e+01  2.902082e+01
     vertex  1.015562e+02  4.336778e+01  2.996716e+01
     vertex  1.036254e+02  4.336778e+01  2.796055e+01
   endloop
 endfacet
 facet normal  7.793847e-01  1.441757e-01  6.097317e-01
   outer loop
     vertex  1.025440e+02  4.472986e+01  2.902082e+01
     vertex  1.036254e+02  4.336778e+01  2.796055e+01
     vertex  1.042401e+02  4.667845e+01  2.639198e+01
   endloop
 endfacet
 facet normal  2.372532e-01  9.625740e-01  1.310049e-01
   outer loop
     vertex  9.630851e+01  5.564120e+01  2.331790e+01
     vertex  9.816005e+01  5.563640e+01  2.000000e+01
     vertex  9.508877e+01  5.639340e+01  2.000000e+01
   endloop
 endfacet
 facet normal  3.580711e-01  9.123502e-01  1.984998e-01
   outer loop
     vertex  9.630851e+01  5.564120e+01  2.331790e+01
     vertex  9.980171e+01  5.427022e+01  2.331790e+01
     vertex  9.816005e+01  5.563640e+01  2.000000e+01
   endloop
 endfacet
 facet normal  5.797456e-01  7.269780e-01  3.679648e-01
   outer loop
     vertex  1.005102e+02  5.214927e+01  2.639198e+01
     vertex  1.027356e+02  5.193051e+01  2.331790e+01
     vertex  9.980171e+01  5.427022e+01  2.331790e+01
   endloop
 endfacet
 facet normal  6.602750e-01  6.126457e-01  4.343987e-01
   outer loop
     vertex  1.005102e+02  5.214927e+01  2.639198e+01
     vertex  1.027874e+02  4.969496e+01  2.639198e+01
     vertex  1.027356e+02  5.193051e+01  2.331790e+01
   endloop
 endfacet
 facet normal  7.334809e-01  2.262489e-01  6.409502e-01
   outer loop
     vertex  1.017410e+02  4.733299e+01  2.902082e+01
     vertex  1.025440e+02  4.472986e+01  2.902082e+01
     vertex  1.042401e+02  4.667845e+01  2.639198e+01
   endloop
 endfacet
 facet normal  7.213028e-01  3.473611e-01  5.992182e-01
   outer loop
     vertex  1.017410e+02  4.733299e+01  2.902082e+01
     vertex  1.042401e+02  4.667845e+01  2.639198e+01
     vertex  1.027874e+02  4.969496e+01  2.639198e+01
   endloop
 endfacet
 facet normal  0.000000e+00  9.900420e-01  1.407722e-01
   outer loop
     vertex  9.256640e+01  5.592163e+01  2.331790e+01
     vertex  9.508877e+01  5.639340e+01  2.000000e+01
     vertex  9.192558e+01  5.639340e+01  2.000000e+01
   endloop
 endfacet
 facet normal  7.329851e-02  9.781007e-01  1.947983e-01
   outer loop
     vertex  9.256640e+01  5.592163e+01  2.331790e+01
     vertex  9.630851e+01  5.564120e+01  2.331790e+01
     vertex  9.508877e+01  5.639340e+01  2.000000e+01
   endloop
 endfacet
 facet normal  4.503603e-01  7.800470e-01  4.343987e-01
   outer loop
     vertex  9.761067e+01  5.382330e+01  2.639198e+01
     vertex  1.005102e+02  5.214927e+01  2.639198e+01
     vertex  9.980171e+01  5.427022e+01  2.331790e+01
   endloop
 endfacet
 facet normal  3.397086e-01  8.655634e-01  3.679648e-01
   outer loop
     vertex  9.761067e+01  5.382330e+01  2.639198e+01
     vertex  9.980171e+01  5.427022e+01  2.331790e+01
     vertex  9.630851e+01  5.564120e+01  2.331790e+01
   endloop
 endfacet
 facet normal  5.868709e-01  5.445366e-01  5.992182e-01
   outer loop
     vertex  1.002064e+02  4.958379e+01  2.902082e+01
     vertex  1.027874e+02  4.969496e+01  2.639198e+01
     vertex  1.005102e+02  5.214927e+01  2.639198e+01
   endloop
 endfacet
 facet normal  6.342064e-01  4.323946e-01  6.409502e-01
   outer loop
     vertex  1.002064e+02  4.958379e+01  2.902082e+01
     vertex  1.017410e+02  4.733299e+01  2.902082e+01
     vertex  1.027874e+02  4.969496e+01  2.639198e+01
   endloop
 endfacet
 facet normal  5.222578e-01  4.163712e-02  8.517706e-01
   outer loop
     vertex  9.966775e+01  4.526806e+01  3.103216e+01
     vertex  9.909896e+01  4.336778e+01  3.147380e+01
     vertex  1.015562e+02  4.336778e+01  2.996716e+01
   endloop
 endfacet
 facet normal  5.845442e-01  1.322655e-01  8.005085e-01
   outer loop
     vertex  9.966775e+01  4.526806e+01  3.103216e+01
     vertex  1.015562e+02  4.336778e+01  2.996716e+01
     vertex  1.025440e+02  4.472986e+01  2.902082e+01
   endloop
 endfacet
 facet normal  5.861288e-01  1.807968e-01  7.897883e-01
   outer loop
     vertex  9.966775e+01  4.526806e+01  3.103216e+01
     vertex  1.025440e+02  4.472986e+01  2.902082e+01
     vertex  1.017410e+02  4.733299e+01  2.902082e+01
   endloop
 endfacet
 facet normal -2.361323e-01  9.580264e-01  1.625639e-01
   outer loop
     vertex  8.890788e+01  5.508660e+01  2.331790e+01
     vertex  9.192558e+01  5.639340e+01  2.000000e+01
     vertex  8.885430e+01  5.563640e+01  2.000000e+01
   endloop
 endfacet
 facet normal -4.592927e-01  8.751092e-01  1.524274e-01
   outer loop
     vertex  8.890788e+01  5.508660e+01  2.331790e+01
     vertex  8.885430e+01  5.563640e+01  2.000000e+01
     vertex  8.605343e+01  5.416639e+01  2.000000e+01
   endloop
 endfacet
 facet normal -2.189400e-01  9.592389e-01  1.786782e-01
   outer loop
     vertex  8.890788e+01  5.508660e+01  2.331790e+01
     vertex  9.256640e+01  5.592163e+01  2.331790e+01
     vertex  9.192558e+01  5.639340e+01  2.000000e+01
   endloop
 endfacet
 facet normal  2.004292e-01  8.781377e-01  4.343987e-01
   outer loop
     vertex  9.434654e+01  5.456832e+01  2.639198e+01
     vertex  9.761067e+01  5.382330e+01  2.639198e+01
     vertex  9.630851e+01  5.564120e+01  2.331790e+01
   endloop
 endfacet
 facet normal  6.948701e-02  9.272397e-01  3.679648e-01
   outer loop
     vertex  9.434654e+01  5.456832e+01  2.639198e+01
     vertex  9.630851e+01  5.564120e+01  2.331790e+01
     vertex  9.256640e+01  5.592163e+01  2.331790e+01
   endloop
 endfacet
 facet normal  4.002929e-01  6.933276e-01  5.992182e-01
   outer loop
     vertex  9.807662e+01  5.128228e+01  2.902082e+01
     vertex  1.005102e+02  5.214927e+01  2.639198e+01
     vertex  9.761067e+01  5.382330e+01  2.639198e+01
   endloop
 endfacet
 facet normal  4.785798e-01  6.001201e-01  6.409502e-01
   outer loop
     vertex  9.807662e+01  5.128228e+01  2.902082e+01
     vertex  1.002064e+02  4.958379e+01  2.902082e+01
     vertex  1.005102e+02  5.214927e+01  2.639198e+01
   endloop
 endfacet
 facet normal  5.301385e-01  2.553012e-01  8.085632e-01
   outer loop
     vertex  9.883393e+01  4.699950e+01  3.103216e+01
     vertex  9.966775e+01  4.526806e+01  3.103216e+01
     vertex  1.017410e+02  4.733299e+01  2.902082e+01
   endloop
 endfacet
 facet normal  5.067980e-01  3.455290e-01  7.897883e-01
   outer loop
     vertex  9.883393e+01  4.699950e+01  3.103216e+01
     vertex  1.017410e+02  4.733299e+01  2.902082e+01
     vertex  1.002064e+02  4.958379e+01  2.902082e+01
   endloop
 endfacet
 facet normal  3.233885e-01 -6.429188e-02  9.440797e-01
   outer loop
     vertex  9.680264e+01  4.386449e+01  3.229422e+01
     vertex  9.637213e+01  4.336778e+01  3.240786e+01
     vertex  9.909896e+01  4.336778e+01  3.147380e+01
   endloop
 endfacet
 facet normal  1.088362e-01  1.311125e-01  9.853752e-01
   outer loop
     vertex  9.680264e+01  4.386449e+01  3.229422e+01
     vertex  9.350718e+01  4.336778e+01  3.272430e+01
     vertex  9.637213e+01  4.336778e+01  3.240786e+01
   endloop
 endfacet
 facet normal  3.553269e-01  1.093932e-01  9.283189e-01
   outer loop
     vertex  9.680264e+01  4.386449e+01  3.229422e+01
     vertex  9.909896e+01  4.336778e+01  3.147380e+01
     vertex  9.966775e+01  4.526806e+01  3.103216e+01
   endloop
 endfacet
 facet normal -4.912151e-01  8.508095e-01  1.866302e-01
   outer loop
     vertex  8.565803e+01  5.321030e+01  2.331790e+01
     vertex  8.890788e+01  5.508660e+01  2.331790e+01
     vertex  8.605343e+01  5.416639e+01  2.000000e+01
   endloop
 endfacet
 facet normal -6.570154e-01  7.416171e-01  1.354062e-01
   outer loop
     vertex  8.565803e+01  5.321030e+01  2.331790e+01
     vertex  8.605343e+01  5.416639e+01  2.000000e+01
     vertex  8.368575e+01  5.206880e+01  2.000000e+01
   endloop
 endfacet
 facet normal -2.069088e-01  9.065267e-01  3.679648e-01
   outer loop
     vertex  9.100783e+01  5.431811e+01  2.639198e+01
     vertex  9.256640e+01  5.592163e+01  2.331790e+01
     vertex  8.890788e+01  5.508660e+01  2.331790e+01
   endloop
 endfacet
 facet normal -6.731094e-02  8.982021e-01  4.343987e-01
   outer loop
     vertex  9.100783e+01  5.431811e+01  2.639198e+01
     vertex  9.434654e+01  5.456832e+01  2.639198e+01
     vertex  9.256640e+01  5.592163e+01  2.331790e+01
   endloop
 endfacet
 facet normal  1.781471e-01  7.805134e-01  5.992182e-01
   outer loop
     vertex  9.554077e+01  5.227752e+01  2.902082e+01
     vertex  9.761067e+01  5.382330e+01  2.639198e+01
     vertex  9.434654e+01  5.456832e+01  2.639198e+01
   endloop
 endfacet
 facet normal  2.804294e-01  7.145224e-01  6.409502e-01
   outer loop
     vertex  9.554077e+01  5.227752e+01  2.902082e+01
     vertex  9.807662e+01  5.128228e+01  2.902082e+01
     vertex  9.761067e+01  5.382330e+01  2.639198e+01
   endloop
 endfacet
 facet normal  3.824359e-01  4.795595e-01  7.897883e-01
   outer loop
     vertex  9.752681e+01  4.840824e+01  3.103216e+01
     vertex  1.002064e+02  4.958379e+01  2.902082e+01
     vertex  9.807662e+01  5.128228e+01  2.902082e+01
   endloop
 endfacet
 facet normal  4.313346e-01  4.002200e-01  8.085632e-01
   outer loop
     vertex  9.752681e+01  4.840824e+01  3.103216e+01
     vertex  9.883393e+01  4.699950e+01  3.103216e+01
     vertex  1.002064e+02  4.958379e+01  2.902082e+01
   endloop
 endfacet
 facet normal  3.452283e-01  1.662532e-01  9.236760e-01
   outer loop
     vertex  9.650982e+01  4.481377e+01  3.229422e+01
     vertex  9.966775e+01  4.526806e+01  3.103216e+01
     vertex  9.883393e+01  4.699950e+01  3.103216e+01
   endloop
 endfacet
 facet normal  1.236601e-01  3.814410e-02  9.915912e-01
   outer loop
     vertex  9.650982e+01  4.481377e+01  3.229422e+01
     vertex  9.350718e+01  4.336778e+01  3.272430e+01
     vertex  9.680264e+01  4.386449e+01  3.229422e+01
   endloop
 endfacet
 facet normal  3.552414e-01  1.095775e-01  9.283299e-01
   outer loop
     vertex  9.650982e+01  4.481377e+01  3.229422e+01
     vertex  9.680264e+01  4.386449e+01  3.229422e+01
     vertex  9.966775e+01  4.526806e+01  3.103216e+01
   endloop
 endfacet
 facet normal -8.159443e-01  5.632057e-01  1.305153e-01
   outer loop
     vertex  8.310561e+01  5.045945e+01  2.331790e+01
     vertex  8.368575e+01  5.206880e+01  2.000000e+01
     vertex  8.188885e+01  4.946555e+01  2.000000e+01
   endloop
 endfacet
 facet normal -7.185744e-01  6.667396e-01  1.977600e-01
   outer loop
     vertex  8.310561e+01  5.045945e+01  2.331790e+01
     vertex  8.565803e+01  5.321030e+01  2.331790e+01
     vertex  8.368575e+01  5.206880e+01  2.000000e+01
   endloop
 endfacet
 facet normal -3.290702e-01  8.384573e-01  4.343987e-01
   outer loop
     vertex  8.789120e+01  5.309493e+01  2.639198e+01
     vertex  9.100783e+01  5.431811e+01  2.639198e+01
     vertex  8.890788e+01  5.508660e+01  2.331790e+01
   endloop
 endfacet
 facet normal -4.649199e-01  8.052648e-01  3.679648e-01
   outer loop
     vertex  8.789120e+01  5.309493e+01  2.639198e+01
     vertex  8.890788e+01  5.508660e+01  2.331790e+01
     vertex  8.565803e+01  5.321030e+01  2.331790e+01
   endloop
 endfacet
 facet normal -5.982785e-02  7.983471e-01  5.992182e-01
   outer loop
     vertex  9.282423e+01  5.248110e+01  2.902082e+01
     vertex  9.434654e+01  5.456832e+01  2.639198e+01
     vertex  9.100783e+01  5.431811e+01  2.639198e+01
   endloop
 endfacet
 facet normal  5.736151e-02  7.654362e-01  6.409502e-01
   outer loop
     vertex  9.282423e+01  5.248110e+01  2.902082e+01
     vertex  9.554077e+01  5.227752e+01  2.902082e+01
     vertex  9.434654e+01  5.456832e+01  2.639198e+01
   endloop
 endfacet
 facet normal  2.942047e-01  5.095774e-01  8.085632e-01
   outer loop
     vertex  9.586253e+01  4.936911e+01  3.103216e+01
     vertex  9.752681e+01  4.840824e+01  3.103216e+01
     vertex  9.807662e+01  5.128228e+01  2.902082e+01
   endloop
 endfacet
 facet normal  2.240927e-01  5.709789e-01  7.897883e-01
   outer loop
     vertex  9.586253e+01  4.936911e+01  3.103216e+01
     vertex  9.807662e+01  5.128228e+01  2.902082e+01
     vertex  9.554077e+01  5.227752e+01  2.902082e+01
   endloop
 endfacet
 facet normal  2.808868e-01  2.606249e-01  9.236760e-01
   outer loop
     vertex  9.595021e+01  4.563458e+01  3.229422e+01
     vertex  9.883393e+01  4.699950e+01  3.103216e+01
     vertex  9.752681e+01  4.840824e+01  3.103216e+01
   endloop
 endfacet
 facet normal  1.069231e-01  7.289893e-02  9.915912e-01
   outer loop
     vertex  9.595021e+01  4.563458e+01  3.229422e+01
     vertex  9.350718e+01  4.336778e+01  3.272430e+01
     vertex  9.650982e+01  4.481377e+01  3.229422e+01
   endloop
 endfacet
 facet normal  3.071605e-01  2.094185e-01  9.283299e-01
   outer loop
     vertex  9.595021e+01  4.563458e+01  3.229422e+01
     vertex  9.650982e+01  4.481377e+01  3.229422e+01
     vertex  9.883393e+01  4.699950e+01  3.103216e+01
   endloop
 endfacet
 facet normal -9.260901e-01  3.512197e-01  1.378471e-01
   outer loop
     vertex  8.147741e+01  4.707847e+01  2.331790e+01
     vertex  8.188885e+01  4.946555e+01  2.000000e+01
     vertex  8.076717e+01  4.650791e+01  2.000000e+01
   endloop
 endfacet
 facet normal -8.833986e-01  4.254224e-01  1.965265e-01
   outer loop
     vertex  8.147741e+01  4.707847e+01  2.331790e+01
     vertex  8.310561e+01  5.045945e+01  2.331790e+01
     vertex  8.188885e+01  4.946555e+01  2.000000e+01
   endloop
 endfacet
 facet normal -6.816207e-01  6.324516e-01  3.679648e-01
   outer loop
     vertex  8.527358e+01  5.100744e+01  2.639198e+01
     vertex  8.565803e+01  5.321030e+01  2.331790e+01
     vertex  8.310561e+01  5.045945e+01  2.331790e+01
   endloop
 endfacet
 facet normal -5.615902e-01  7.042118e-01  4.343987e-01
   outer loop
     vertex  8.527358e+01  5.100744e+01  2.639198e+01
     vertex  8.789120e+01  5.309493e+01  2.639198e+01
     vertex  8.565803e+01  5.321030e+01  2.331790e+01
   endloop
 endfacet
 facet normal -2.924868e-01  7.452442e-01  5.992182e-01
   outer loop
     vertex  9.016837e+01  5.187492e+01  2.902082e+01
     vertex  9.100783e+01  5.431811e+01  2.639198e+01
     vertex  8.789120e+01  5.309493e+01  2.639198e+01
   endloop
 endfacet
 facet normal -1.708032e-01  7.483376e-01  6.409502e-01
   outer loop
     vertex  9.016837e+01  5.187492e+01  2.902082e+01
     vertex  9.282423e+01  5.248110e+01  2.902082e+01
     vertex  9.100783e+01  5.431811e+01  2.639198e+01
   endloop
 endfacet
 facet normal  4.583791e-02  6.116644e-01  7.897883e-01
   outer loop
     vertex  9.398896e+01  4.979674e+01  3.103216e+01
     vertex  9.554077e+01  5.227752e+01  2.902082e+01
     vertex  9.282423e+01  5.248110e+01  2.902082e+01
   endloop
 endfacet
 facet normal  1.309334e-01  5.736567e-01  8.085632e-01
   outer loop
     vertex  9.398896e+01  4.979674e+01  3.103216e+01
     vertex  9.586253e+01  4.936911e+01  3.103216e+01
     vertex  9.554077e+01  5.227752e+01  2.902082e+01
   endloop
 endfacet
 facet normal  1.915873e-01  3.318389e-01  9.236760e-01
   outer loop
     vertex  9.517352e+01  4.625396e+01  3.229422e+01
     vertex  9.752681e+01  4.840824e+01  3.103216e+01
     vertex  9.586253e+01  4.936911e+01  3.103216e+01
   endloop
 endfacet
 facet normal  2.317870e-01  2.906518e-01  9.283299e-01
   outer loop
     vertex  9.517352e+01  4.625396e+01  3.229422e+01
     vertex  9.595021e+01  4.563458e+01  3.229422e+01
     vertex  9.752681e+01  4.840824e+01  3.103216e+01
   endloop
 endfacet
 facet normal  8.068547e-02  1.011764e-01  9.915912e-01
   outer loop
     vertex  9.517352e+01  4.625396e+01  3.229422e+01
     vertex  9.350718e+01  4.336778e+01  3.272430e+01
     vertex  9.595021e+01  4.563458e+01  3.229422e+01
   endloop
 endfacet
 facet normal -9.803566e-01  1.190368e-01  1.572617e-01
   outer loop
     vertex  8.091812e+01  4.336778e+01  2.331790e+01
     vertex  8.076717e+01  4.650791e+01  2.000000e+01
     vertex  8.038588e+01  4.336778e+01  2.000000e+01
   endloop
 endfacet
 facet normal -9.803566e-01 -1.190368e-01  1.572617e-01
   outer loop
     vertex  8.091812e+01  4.336778e+01  2.331790e+01
     vertex  8.038588e+01  4.336778e+01  2.000000e+01
     vertex  8.076717e+01  4.022765e+01  2.000000e+01
   endloop
 endfacet
 facet normal -9.721496e-01  1.465280e-01  1.829065e-01
   outer loop
     vertex  8.091812e+01  4.336778e+01  2.331790e+01
     vertex  8.147741e+01  4.707847e+01  2.331790e+01
     vertex  8.076717e+01  4.650791e+01  2.000000e+01
   endloop
 endfacet
 facet normal -8.377566e-01  4.034423e-01  3.679648e-01
   outer loop
     vertex  8.338754e+01  4.824114e+01  2.639198e+01
     vertex  8.310561e+01  5.045945e+01  2.331790e+01
     vertex  8.147741e+01  4.707847e+01  2.331790e+01
   endloop
 endfacet
 facet normal -7.442104e-01  5.073940e-01  4.343987e-01
   outer loop
     vertex  8.338754e+01  4.824114e+01  2.639198e+01
     vertex  8.527358e+01  5.100744e+01  2.639198e+01
     vertex  8.310561e+01  5.045945e+01  2.331790e+01
   endloop
 endfacet
 facet normal -3.837912e-01  6.647459e-01  6.409502e-01
   outer loop
     vertex  8.780918e+01  5.051284e+01  2.902082e+01
     vertex  9.016837e+01  5.187492e+01  2.902082e+01
     vertex  8.789120e+01  5.309493e+01  2.639198e+01
   endloop
 endfacet
 facet normal -4.991570e-01  6.259231e-01  5.992182e-01
   outer loop
     vertex  8.780918e+01  5.051284e+01  2.902082e+01
     vertex  8.789120e+01  5.309493e+01  2.639198e+01
     vertex  8.527358e+01  5.100744e+01  2.639198e+01
   endloop
 endfacet
 facet normal -1.364898e-01  5.980009e-01  7.897883e-01
   outer loop
     vertex  9.207259e+01  4.965313e+01  3.103216e+01
     vertex  9.282423e+01  5.248110e+01  2.902082e+01
     vertex  9.016837e+01  5.187492e+01  2.902082e+01
   endloop
 endfacet
 facet normal -4.397188e-02  5.867640e-01  8.085632e-01
   outer loop
     vertex  9.207259e+01  4.965313e+01  3.103216e+01
     vertex  9.398896e+01  4.979674e+01  3.103216e+01
     vertex  9.282423e+01  5.248110e+01  2.902082e+01
   endloop
 endfacet
 facet normal  4.727858e-02  1.204638e-01  9.915912e-01
   outer loop
     vertex  9.424877e+01  4.661690e+01  3.229422e+01
     vertex  9.350718e+01  4.336778e+01  3.272430e+01
     vertex  9.517352e+01  4.625396e+01  3.229422e+01
   endloop
 endfacet
 facet normal  8.526435e-02  3.735675e-01  9.236760e-01
   outer loop
     vertex  9.424877e+01  4.661690e+01  3.229422e+01
     vertex  9.586253e+01  4.936911e+01  3.103216e+01
     vertex  9.398896e+01  4.979674e+01  3.103216e+01
   endloop
 endfacet
 facet normal  1.358183e-01  3.460593e-01  9.283299e-01
   outer loop
     vertex  9.424877e+01  4.661690e+01  3.229422e+01
     vertex  9.517352e+01  4.625396e+01  3.229422e+01
     vertex  9.586253e+01  4.936911e+01  3.103216e+01
   endloop
 endfacet
 facet normal -9.260901e-01 -3.512197e-01  1.378471e-01
   outer loop
     vertex  8.147741e+01  3.965709e+01  2.331790e+01
     vertex  8.076717e+01  4.022765e+01  2.000000e+01
     vertex  8.188885e+01  3.727001e+01  2.000000e+01
   endloop
 endfacet
 facet normal -9.721496e-01 -1.465280e-01  1.829065e-01
   outer loop
     vertex  8.147741e+01  3.965709e+01  2.331790e+01
     vertex  8.091812e+01  4.336778e+01  2.331790e+01
     vertex  8.076717e+01  4.022765e+01  2.000000e+01
   endloop
 endfacet
 facet normal -9.194542e-01  1.385854e-01  3.679648e-01
   outer loop
     vertex  8.240068e+01  4.504181e+01  2.639198e+01
     vertex  8.147741e+01  4.707847e+01  2.331790e+01
     vertex  8.091812e+01  4.336778e+01  2.331790e+01
   endloop
 endfacet
 facet normal -8.607042e-01  2.654921e-01  4.343987e-01
   outer loop
     vertex  8.240068e+01  4.504181e+01  2.639198e+01
     vertex  8.338754e+01  4.824114e+01  2.639198e+01
     vertex  8.147741e+01  4.707847e+01  2.331790e+01
   endloop
 endfacet
 facet normal -6.614750e-01  4.509860e-01  5.992182e-01
   outer loop
     vertex  8.595628e+01  4.851589e+01  2.902082e+01
     vertex  8.527358e+01  5.100744e+01  2.639198e+01
     vertex  8.338754e+01  4.824114e+01  2.639198e+01
   endloop
 endfacet
 facet normal -5.626778e-01  5.220887e-01  6.409502e-01
   outer loop
     vertex  8.595628e+01  4.851589e+01  2.902082e+01
     vertex  8.780918e+01  5.051284e+01  2.902082e+01
     vertex  8.527358e+01  5.100744e+01  2.639198e+01
   endloop
 endfacet
 facet normal -3.066898e-01  5.312023e-01  7.897883e-01
   outer loop
     vertex  9.028368e+01  4.895104e+01  3.103216e+01
     vertex  9.016837e+01  5.187492e+01  2.902082e+01
     vertex  8.780918e+01  5.051284e+01  2.902082e+01
   endloop
 endfacet
 facet normal -2.149701e-01  5.477348e-01  8.085632e-01
   outer loop
     vertex  9.028368e+01  4.895104e+01  3.103216e+01
     vertex  9.207259e+01  4.965313e+01  3.103216e+01
     vertex  9.016837e+01  5.187492e+01  2.902082e+01
   endloop
 endfacet
 facet normal  9.670780e-03  1.290476e-01  9.915912e-01
   outer loop
     vertex  9.325813e+01  4.669114e+01  3.229422e+01
     vertex  9.350718e+01  4.336778e+01  3.272430e+01
     vertex  9.424877e+01  4.661690e+01  3.229422e+01
   endloop
 endfacet
 facet normal -2.863467e-02  3.821031e-01  9.236760e-01
   outer loop
     vertex  9.325813e+01  4.669114e+01  3.229422e+01
     vertex  9.398896e+01  4.979674e+01  3.103216e+01
     vertex  9.207259e+01  4.965313e+01  3.103216e+01
   endloop
 endfacet
 facet normal  2.778148e-02  3.707180e-01  9.283299e-01
   outer loop
     vertex  9.325813e+01  4.669114e+01  3.229422e+01
     vertex  9.424877e+01  4.661690e+01  3.229422e+01
     vertex  9.398896e+01  4.979674e+01  3.103216e+01
   endloop
 endfacet
 facet normal -8.159443e-01 -5.632057e-01  1.305153e-01
   outer loop
     vertex  8.310561e+01  3.627611e+01  2.331790e+01
     vertex  8.188885e+01  3.727001e+01  2.000000e+01
     vertex  8.368575e+01  3.466675e+01  2.000000e+01
   endloop
 endfacet
 facet normal -8.833986e-01 -4.254224e-01  1.965265e-01
   outer loop
     vertex  8.310561e+01  3.627611e+01  2.331790e+01
     vertex  8.147741e+01  3.965709e+01  2.331790e+01
     vertex  8.188885e+01  3.727001e+01  2.000000e+01
   endloop
 endfacet
 facet normal -9.007207e-01  0.000000e+00  4.343987e-01
   outer loop
     vertex  8.240068e+01  4.169374e+01  2.639198e+01
     vertex  8.240068e+01  4.504181e+01  2.639198e+01
     vertex  8.091812e+01  4.336778e+01  2.331790e+01
   endloop
 endfacet
 facet normal -9.194542e-01 -1.385854e-01  3.679648e-01
   outer loop
     vertex  8.240068e+01  4.169374e+01  2.639198e+01
     vertex  8.091812e+01  4.336778e+01  2.331790e+01
     vertex  8.147741e+01  3.965709e+01  2.331790e+01
   endloop
 endfacet
 facet normal -6.915679e-01  3.330416e-01  6.409502e-01
   outer loop
     vertex  8.477432e+01  4.606151e+01  2.902082e+01
     vertex  8.595628e+01  4.851589e+01  2.902082e+01
     vertex  8.338754e+01  4.824114e+01  2.639198e+01
   endloop
 endfacet
 facet normal -7.650179e-01  2.359768e-01  5.992182e-01
   outer loop
     vertex  8.477432e+01  4.606151e+01  2.902082e+01
     vertex  8.338754e+01  4.824114e+01  2.639198e+01
     vertex  8.240068e+01  4.504181e+01  2.639198e+01
   endloop
 endfacet
 facet normal -4.496390e-01  4.172041e-01  7.897883e-01
   outer loop
     vertex  8.878120e+01  4.775285e+01  3.103216e+01
     vertex  8.780918e+01  5.051284e+01  2.902082e+01
     vertex  8.595628e+01  4.851589e+01  2.902082e+01
   endloop
 endfacet
 facet normal -3.668672e-01  4.600369e-01  8.085632e-01
   outer loop
     vertex  8.878120e+01  4.775285e+01  3.103216e+01
     vertex  9.028368e+01  4.895104e+01  3.103216e+01
     vertex  8.780918e+01  5.051284e+01  2.902082e+01
   endloop
 endfacet
 facet normal -1.399894e-01  3.566871e-01  9.236760e-01
   outer loop
     vertex  9.228961e+01  4.647008e+01  3.229422e+01
     vertex  9.207259e+01  4.965313e+01  3.103216e+01
     vertex  9.028368e+01  4.895104e+01  3.103216e+01
   endloop
 endfacet
 facet normal -8.272384e-02  3.624368e-01  9.283299e-01
   outer loop
     vertex  9.228961e+01  4.647008e+01  3.229422e+01
     vertex  9.325813e+01  4.669114e+01  3.229422e+01
     vertex  9.207259e+01  4.965313e+01  3.103216e+01
   endloop
 endfacet
 facet normal -2.879631e-02  1.261649e-01  9.915912e-01
   outer loop
     vertex  9.228961e+01  4.647008e+01  3.229422e+01
     vertex  9.350718e+01  4.336778e+01  3.272430e+01
     vertex  9.325813e+01  4.669114e+01  3.229422e+01
   endloop
 endfacet
 facet normal -6.570154e-01 -7.416171e-01  1.354062e-01
   outer loop
     vertex  8.565803e+01  3.352525e+01  2.331790e+01
     vertex  8.368575e+01  3.466675e+01  2.000000e+01
     vertex  8.605343e+01  3.256917e+01  2.000000e+01
   endloop
 endfacet
 facet normal -7.185744e-01 -6.667396e-01  1.977600e-01
   outer loop
     vertex  8.565803e+01  3.352525e+01  2.331790e+01
     vertex  8.310561e+01  3.627611e+01  2.331790e+01
     vertex  8.368575e+01  3.466675e+01  2.000000e+01
   endloop
 endfacet
 facet normal -8.377566e-01 -4.034423e-01  3.679648e-01
   outer loop
     vertex  8.338754e+01  3.849442e+01  2.639198e+01
     vertex  8.147741e+01  3.965709e+01  2.331790e+01
     vertex  8.310561e+01  3.627611e+01  2.331790e+01
   endloop
 endfacet
 facet normal -8.607042e-01 -2.654921e-01  4.343987e-01
   outer loop
     vertex  8.338754e+01  3.849442e+01  2.639198e+01
     vertex  8.240068e+01  4.169374e+01  2.639198e+01
     vertex  8.147741e+01  3.965709e+01  2.331790e+01
   endloop
 endfacet
 facet normal -8.005857e-01  0.000000e+00  5.992182e-01
   outer loop
     vertex  8.436830e+01  4.336778e+01  2.902082e+01
     vertex  8.240068e+01  4.504181e+01  2.639198e+01
     vertex  8.240068e+01  4.169374e+01  2.639198e+01
   endloop
 endfacet
 facet normal -7.590092e-01  1.144022e-01  6.409502e-01
   outer loop
     vertex  8.436830e+01  4.336778e+01  2.902082e+01
     vertex  8.477432e+01  4.606151e+01  2.902082e+01
     vertex  8.240068e+01  4.504181e+01  2.639198e+01
   endloop
 endfacet
 facet normal -5.526359e-01  2.661354e-01  7.897883e-01
   outer loop
     vertex  8.769864e+01  4.616502e+01  3.103216e+01
     vertex  8.595628e+01  4.851589e+01  2.902082e+01
     vertex  8.477432e+01  4.606151e+01  2.902082e+01
   endloop
 endfacet
 facet normal -4.861666e-01  3.314628e-01  8.085632e-01
   outer loop
     vertex  8.769864e+01  4.616502e+01  3.103216e+01
     vertex  8.878120e+01  4.775285e+01  3.103216e+01
     vertex  8.595628e+01  4.851589e+01  2.902082e+01
   endloop
 endfacet
 facet normal -6.470472e-02  1.120719e-01  9.915912e-01
   outer loop
     vertex  9.142928e+01  4.597337e+01  3.229422e+01
     vertex  9.350718e+01  4.336778e+01  3.272430e+01
     vertex  9.228961e+01  4.647008e+01  3.229422e+01
   endloop
 endfacet
 facet normal -2.389054e-01  2.995779e-01  9.236760e-01
   outer loop
     vertex  9.142928e+01  4.597337e+01  3.229422e+01
     vertex  9.028368e+01  4.895104e+01  3.103216e+01
     vertex  8.878120e+01  4.775285e+01  3.103216e+01
   endloop
 endfacet
 facet normal -1.858788e-01  3.219515e-01  9.283299e-01
   outer loop
     vertex  9.142928e+01  4.597337e+01  3.229422e+01
     vertex  9.228961e+01  4.647008e+01  3.229422e+01
     vertex  9.028368e+01  4.895104e+01  3.103216e+01
   endloop
 endfacet
 facet normal -4.912151e-01 -8.508095e-01  1.866302e-01
   outer loop
     vertex  8.890788e+01  3.164895e+01  2.331790e+01
     vertex  8.565803e+01  3.352525e+01  2.331790e+01
     vertex  8.605343e+01  3.256917e+01  2.000000e+01
   endloop
 endfacet
 facet normal -4.592927e-01 -8.751092e-01  1.524274e-01
   outer loop
     vertex  8.890788e+01  3.164895e+01  2.331790e+01
     vertex  8.605343e+01  3.256917e+01  2.000000e+01
     vertex  8.885430e+01  3.109916e+01  2.000000e+01
   endloop
 endfacet
 facet normal -2.361323e-01 -9.580264e-01  1.625639e-01
   outer loop
     vertex  8.890788e+01  3.164895e+01  2.331790e+01
     vertex  8.885430e+01  3.109916e+01  2.000000e+01
     vertex  9.192558e+01  3.034215e+01  2.000000e+01
   endloop
 endfacet
 facet normal -7.442104e-01 -5.073940e-01  4.343987e-01
   outer loop
     vertex  8.527358e+01  3.572811e+01  2.639198e+01
     vertex  8.338754e+01  3.849442e+01  2.639198e+01
     vertex  8.310561e+01  3.627611e+01  2.331790e+01
   endloop
 endfacet
 facet normal -6.816207e-01 -6.324516e-01  3.679648e-01
   outer loop
     vertex  8.527358e+01  3.572811e+01  2.639198e+01
     vertex  8.310561e+01  3.627611e+01  2.331790e+01
     vertex  8.565803e+01  3.352525e+01  2.331790e+01
   endloop
 endfacet
 facet normal -7.590092e-01 -1.144022e-01  6.409502e-01
   outer loop
     vertex  8.477432e+01  4.067405e+01  2.902082e+01
     vertex  8.436830e+01  4.336778e+01  2.902082e+01
     vertex  8.240068e+01  4.169374e+01  2.639198e+01
   endloop
 endfacet
 facet normal -7.650179e-01 -2.359768e-01  5.992182e-01
   outer loop
     vertex  8.477432e+01  4.067405e+01  2.902082e+01
     vertex  8.240068e+01  4.169374e+01  2.639198e+01
     vertex  8.338754e+01  3.849442e+01  2.639198e+01
   endloop
 endfacet
 facet normal -6.065286e-01  9.141948e-02  7.897883e-01
   outer loop
     vertex  8.713219e+01  4.432865e+01  3.103216e+01
     vertex  8.477432e+01  4.606151e+01  2.902082e+01
     vertex  8.436830e+01  4.336778e+01  2.902082e+01
   endloop
 endfacet
 facet normal -5.622680e-01  1.734367e-01  8.085632e-01
   outer loop
     vertex  8.713219e+01  4.432865e+01  3.103216e+01
     vertex  8.769864e+01  4.616502e+01  3.103216e+01
     vertex  8.477432e+01  4.606151e+01  2.902082e+01
   endloop
 endfacet
 facet normal -3.165937e-01  2.158499e-01  9.236760e-01
   outer loop
     vertex  9.075359e+01  4.524514e+01  3.229422e+01
     vertex  8.878120e+01  4.775285e+01  3.103216e+01
     vertex  8.769864e+01  4.616502e+01  3.103216e+01
   endloop
 endfacet
 facet normal -2.725176e-01  2.528594e-01  9.283299e-01
   outer loop
     vertex  9.075359e+01  4.524514e+01  3.229422e+01
     vertex  9.142928e+01  4.597337e+01  3.229422e+01
     vertex  8.878120e+01  4.775285e+01  3.103216e+01
   endloop
 endfacet
 facet normal -9.486383e-02  8.802077e-02  9.915912e-01
   outer loop
     vertex  9.075359e+01  4.524514e+01  3.229422e+01
     vertex  9.350718e+01  4.336778e+01  3.272430e+01
     vertex  9.142928e+01  4.597337e+01  3.229422e+01
   endloop
 endfacet
 facet normal -2.189400e-01 -9.592389e-01  1.786782e-01
   outer loop
     vertex  9.256640e+01  3.081392e+01  2.331790e+01
     vertex  8.890788e+01  3.164895e+01  2.331790e+01
     vertex  9.192558e+01  3.034215e+01  2.000000e+01
   endloop
 endfacet
 facet normal -2.220295e-15 -9.900420e-01  1.407722e-01
   outer loop
     vertex  9.256640e+01  3.081392e+01  2.331790e+01
     vertex  9.192558e+01  3.034215e+01  2.000000e+01
     vertex  9.508877e+01  3.034215e+01  2.000000e+01
   endloop
 endfacet
 facet normal -4.649199e-01 -8.052648e-01  3.679648e-01
   outer loop
     vertex  8.789120e+01  3.364063e+01  2.639198e+01
     vertex  8.565803e+01  3.352525e+01  2.331790e+01
     vertex  8.890788e+01  3.164895e+01  2.331790e+01
   endloop
 endfacet
 facet normal -5.615902e-01 -7.042118e-01  4.343987e-01
   outer loop
     vertex  8.789120e+01  3.364063e+01  2.639198e+01
     vertex  8.527358e+01  3.572811e+01  2.639198e+01
     vertex  8.565803e+01  3.352525e+01  2.331790e+01
   endloop
 endfacet
 facet normal -6.915679e-01 -3.330416e-01  6.409502e-01
   outer loop
     vertex  8.595628e+01  3.821967e+01  2.902082e+01
     vertex  8.477432e+01  4.067405e+01  2.902082e+01
     vertex  8.338754e+01  3.849442e+01  2.639198e+01
   endloop
 endfacet
 facet normal -6.614750e-01 -4.509860e-01  5.992182e-01
   outer loop
     vertex  8.595628e+01  3.821967e+01  2.902082e+01
     vertex  8.338754e+01  3.849442e+01  2.639198e+01
     vertex  8.527358e+01  3.572811e+01  2.639198e+01
   endloop
 endfacet
 facet normal -5.884093e-01  0.000000e+00  8.085632e-01
   outer loop
     vertex  8.713219e+01  4.240690e+01  3.103216e+01
     vertex  8.713219e+01  4.432865e+01  3.103216e+01
     vertex  8.436830e+01  4.336778e+01  2.902082e+01
   endloop
 endfacet
 facet normal -6.065286e-01 -9.141948e-02  7.897883e-01
   outer loop
     vertex  8.713219e+01  4.240690e+01  3.103216e+01
     vertex  8.436830e+01  4.336778e+01  2.902082e+01
     vertex  8.477432e+01  4.067405e+01  2.902082e+01
   endloop
 endfacet
 facet normal -1.165939e-01  5.614865e-02  9.915912e-01
   outer loop
     vertex  9.032256e+01  4.435010e+01  3.229422e+01
     vertex  9.350718e+01  4.336778e+01  3.272430e+01
     vertex  9.075359e+01  4.524514e+01  3.229422e+01
   endloop
 endfacet
 facet normal -3.661512e-01  1.129427e-01  9.236760e-01
   outer loop
     vertex  9.032256e+01  4.435010e+01  3.229422e+01
     vertex  8.769864e+01  4.616502e+01  3.103216e+01
     vertex  8.713219e+01  4.432865e+01  3.103216e+01
   endloop
 endfacet
 facet normal -3.349420e-01  1.612996e-01  9.283299e-01
   outer loop
     vertex  9.032256e+01  4.435010e+01  3.229422e+01
     vertex  9.075359e+01  4.524514e+01  3.229422e+01
     vertex  8.769864e+01  4.616502e+01  3.103216e+01
   endloop
 endfacet
 facet normal  2.372532e-01 -9.625740e-01  1.310049e-01
   outer loop
     vertex  9.630851e+01  3.109435e+01  2.331790e+01
     vertex  9.508877e+01  3.034215e+01  2.000000e+01
     vertex  9.816005e+01  3.109916e+01  2.000000e+01
   endloop
 endfacet
 facet normal  7.329851e-02 -9.781007e-01  1.947983e-01
   outer loop
     vertex  9.630851e+01  3.109435e+01  2.331790e+01
     vertex  9.256640e+01  3.081392e+01  2.331790e+01
     vertex  9.508877e+01  3.034215e+01  2.000000e+01
   endloop
 endfacet
 facet normal -3.290702e-01 -8.384573e-01  4.343987e-01
   outer loop
     vertex  9.100783e+01  3.241744e+01  2.639198e+01
     vertex  8.789120e+01  3.364063e+01  2.639198e+01
     vertex  8.890788e+01  3.164895e+01  2.331790e+01
   endloop
 endfacet
 facet normal -2.069088e-01 -9.065267e-01  3.679648e-01
   outer loop
     vertex  9.100783e+01  3.241744e+01  2.639198e+01
     vertex  8.890788e+01  3.164895e+01  2.331790e+01
     vertex  9.256640e+01  3.081392e+01  2.331790e+01
   endloop
 endfacet
 facet normal -4.991570e-01 -6.259231e-01  5.992182e-01
   outer loop
     vertex  8.780918e+01  3.622272e+01  2.902082e+01
     vertex  8.527358e+01  3.572811e+01  2.639198e+01
     vertex  8.789120e+01  3.364063e+01  2.639198e+01
   endloop
 endfacet
 facet normal -5.626778e-01 -5.220887e-01  6.409502e-01
   outer loop
     vertex  8.780918e+01  3.622272e+01  2.902082e+01
     vertex  8.595628e+01  3.821967e+01  2.902082e+01
     vertex  8.527358e+01  3.572811e+01  2.639198e+01
   endloop
 endfacet
 facet normal -5.526359e-01 -2.661354e-01  7.897883e-01
   outer loop
     vertex  8.769864e+01  4.057053e+01  3.103216e+01
     vertex  8.477432e+01  4.067405e+01  2.902082e+01
     vertex  8.595628e+01  3.821967e+01  2.902082e+01
   endloop
 endfacet
 facet normal -5.622680e-01 -1.734367e-01  8.085632e-01
   outer loop
     vertex  8.769864e+01  4.057053e+01  3.103216e+01
     vertex  8.713219e+01  4.240690e+01  3.103216e+01
     vertex  8.477432e+01  4.067405e+01  2.902082e+01
   endloop
 endfacet
 facet normal  0.000000e+00  0.000000e+00  0.000000e+00
   outer loop
     vertex  9.017450e+01  4.336778e+01  3.229422e+01
     vertex  9.350718e+01  4.336778e+01  3.272430e+01
     vertex  9.350718e+01  4.336778e+01  3.272430e+01
   endloop
 endfacet
 facet normal -1.279640e-01  1.928748e-02  9.915912e-01
   outer loop
     vertex  9.017450e+01  4.336778e+01  3.229422e+01
     vertex  9.350718e+01  4.336778e+01  3.272430e+01
     vertex  9.032256e+01  4.435010e+01  3.229422e+01
   endloop
 endfacet
 facet normal -3.831745e-01  0.000000e+00  9.236760e-01
   outer loop
     vertex  9.017450e+01  4.336778e+01  3.229422e+01
     vertex  8.713219e+01  4.432865e+01  3.103216e+01
     vertex  8.713219e+01  4.240690e+01  3.103216e+01
   endloop
 endfacet
 facet normal -3.676053e-01  5.540759e-02  9.283299e-01
   outer loop
     vertex  9.017450e+01  4.336778e+01  3.229422e+01
     vertex  9.032256e+01  4.435010e+01  3.229422e+01
     vertex  8.713219e+01  4.432865e+01  3.103216e+01
   endloop
 endfacet
 facet normal  4.605664e-01 -8.775360e-01  1.334513e-01
   outer loop
     vertex  9.980171e+01  3.246533e+01  2.331790e+01
     vertex  9.816005e+01  3.109916e+01  2.000000e+01
     vertex  1.009609e+02  3.256917e+01  2.000000e+01
   endloop
 endfacet
 facet normal  3.580711e-01 -9.123502e-01  1.984998e-01
   outer loop
     vertex  9.980171e+01  3.246533e+01  2.331790e+01
     vertex  9.630851e+01  3.109435e+01  2.331790e+01
     vertex  9.816005e+01  3.109916e+01  2.000000e+01
   endloop
 endfacet
 facet normal  6.948701e-02 -9.272397e-01  3.679648e-01
   outer loop
     vertex  9.434654e+01  3.216724e+01  2.639198e+01
     vertex  9.256640e+01  3.081392e+01  2.331790e+01
     vertex  9.630851e+01  3.109435e+01  2.331790e+01
   endloop
 endfacet
 facet normal -6.731094e-02 -8.982021e-01  4.343987e-01
   outer loop
     vertex  9.434654e+01  3.216724e+01  2.639198e+01
     vertex  9.100783e+01  3.241744e+01  2.639198e+01
     vertex  9.256640e+01  3.081392e+01  2.331790e+01
   endloop
 endfacet
 facet normal -2.924868e-01 -7.452442e-01  5.992182e-01
   outer loop
     vertex  9.016837e+01  3.486064e+01  2.902082e+01
     vertex  8.789120e+01  3.364063e+01  2.639198e+01
     vertex  9.100783e+01  3.241744e+01  2.639198e+01
   endloop
 endfacet
 facet normal -3.837912e-01 -6.647459e-01  6.409502e-01
   outer loop
     vertex  9.016837e+01  3.486064e+01  2.902082e+01
     vertex  8.780918e+01  3.622272e+01  2.902082e+01
     vertex  8.789120e+01  3.364063e+01  2.639198e+01
   endloop
 endfacet
 facet normal -4.861666e-01 -3.314628e-01  8.085632e-01
   outer loop
     vertex  8.878120e+01  3.898271e+01  3.103216e+01
     vertex  8.769864e+01  4.057053e+01  3.103216e+01
     vertex  8.595628e+01  3.821967e+01  2.902082e+01
   endloop
 endfacet
 facet normal -4.496390e-01 -4.172041e-01  7.897883e-01
   outer loop
     vertex  8.878120e+01  3.898271e+01  3.103216e+01
     vertex  8.595628e+01  3.821967e+01  2.902082e+01
     vertex  8.780918e+01  3.622272e+01  2.902082e+01
   endloop
 endfacet
 facet normal -1.279640e-01 -1.928748e-02  9.915912e-01
   outer loop
     vertex  9.032256e+01  4.238545e+01  3.229422e+01
     vertex  9.350718e+01  4.336778e+01  3.272430e+01
     vertex  9.017450e+01  4.336778e+01  3.229422e+01
   endloop
 endfacet
 facet normal -3.661512e-01 -1.129427e-01  9.236760e-01
   outer loop
     vertex  9.032256e+01  4.238545e+01  3.229422e+01
     vertex  8.713219e+01  4.240690e+01  3.103216e+01
     vertex  8.769864e+01  4.057053e+01  3.103216e+01
   endloop
 endfacet
 facet normal -3.676053e-01 -5.540759e-02  9.283299e-01
   outer loop
     vertex  9.032256e+01  4.238545e+01  3.229422e+01
     vertex  9.017450e+01  4.336778e+01  3.229422e+01
     vertex  8.713219e+01  4.240690e+01  3.103216e+01
   endloop
 endfacet
 facet normal  6.558134e-01 -7.402604e-01  1.480653e-01
   outer loop
     vertex  1.027356e+02  3.480504e+01  2.331790e+01
     vertex  1.009609e+02  3.256917e+01  2.000000e+01
     vertex  1.033286e+02  3.466675e+01  2.000000e+01
   endloop
 endfacet
 facet normal  8.112406e-01 -5.599589e-01  1.683292e-01
   outer loop
     vertex  1.027356e+02  3.480504e+01  2.331790e+01
     vertex  1.033286e+02  3.466675e+01  2.000000e+01
     vertex  1.051255e+02  3.727001e+01  2.000000e+01
   endloop
 endfacet
 facet normal  6.121502e-01 -7.676121e-01  1.898519e-01
   outer loop
     vertex  1.027356e+02  3.480504e+01  2.331790e+01
     vertex  9.980171e+01  3.246533e+01  2.331790e+01
     vertex  1.009609e+02  3.256917e+01  2.000000e+01
   endloop
 endfacet
 facet normal  3.397086e-01 -8.655634e-01  3.679648e-01
   outer loop
     vertex  9.761067e+01  3.291225e+01  2.639198e+01
     vertex  9.630851e+01  3.109435e+01  2.331790e+01
     vertex  9.980171e+01  3.246533e+01  2.331790e+01
   endloop
 endfacet
 facet normal  2.004292e-01 -8.781377e-01  4.343987e-01
   outer loop
     vertex  9.761067e+01  3.291225e+01  2.639198e+01
     vertex  9.434654e+01  3.216724e+01  2.639198e+01
     vertex  9.630851e+01  3.109435e+01  2.331790e+01
   endloop
 endfacet
 facet normal -1.708032e-01 -7.483376e-01  6.409502e-01
   outer loop
     vertex  9.282423e+01  3.425446e+01  2.902082e+01
     vertex  9.016837e+01  3.486064e+01  2.902082e+01
     vertex  9.100783e+01  3.241744e+01  2.639198e+01
   endloop
 endfacet
 facet normal -5.982785e-02 -7.983471e-01  5.992182e-01
   outer loop
     vertex  9.282423e+01  3.425446e+01  2.902082e+01
     vertex  9.100783e+01  3.241744e+01  2.639198e+01
     vertex  9.434654e+01  3.216724e+01  2.639198e+01
   endloop
 endfacet
 facet normal -3.066898e-01 -5.312023e-01  7.897883e-01
   outer loop
     vertex  9.028368e+01  3.778452e+01  3.103216e+01
     vertex  8.780918e+01  3.622272e+01  2.902082e+01
     vertex  9.016837e+01  3.486064e+01  2.902082e+01
   endloop
 endfacet
 facet normal -3.668672e-01 -4.600369e-01  8.085632e-01
   outer loop
     vertex  9.028368e+01  3.778452e+01  3.103216e+01
     vertex  8.878120e+01  3.898271e+01  3.103216e+01
     vertex  8.780918e+01  3.622272e+01  2.902082e+01
   endloop
 endfacet
 facet normal -3.165937e-01 -2.158499e-01  9.236760e-01
   outer loop
     vertex  9.075359e+01  4.149041e+01  3.229422e+01
     vertex  8.769864e+01  4.057053e+01  3.103216e+01
     vertex  8.878120e+01  3.898271e+01  3.103216e+01
   endloop
 endfacet
 facet normal -1.165939e-01 -5.614865e-02  9.915912e-01
   outer loop
     vertex  9.075359e+01  4.149041e+01  3.229422e+01
     vertex  9.350718e+01  4.336778e+01  3.272430e+01
     vertex  9.032256e+01  4.238545e+01  3.229422e+01
   endloop
 endfacet
 facet normal -3.349420e-01 -1.612996e-01  9.283299e-01
   outer loop
     vertex  9.075359e+01  4.149041e+01  3.229422e+01
     vertex  9.032256e+01  4.238545e+01  3.229422e+01
     vertex  8.769864e+01  4.057053e+01  3.103216e+01
   endloop
 endfacet
 facet normal  9.252468e-01 -3.508998e-01  1.441792e-01
   outer loop
     vertex  1.048495e+02  3.790559e+01  2.331790e+01
     vertex  1.051255e+02  3.727001e+01  2.000000e+01
     vertex  1.062472e+02  4.022765e+01  2.000000e+01
   endloop
 endfacet
 facet normal  8.136434e-01 -5.547327e-01  1.739427e-01
   outer loop
     vertex  1.048495e+02  3.790559e+01  2.331790e+01
     vertex  1.027356e+02  3.480504e+01  2.331790e+01
     vertex  1.051255e+02  3.727001e+01  2.000000e+01
   endloop
 endfacet
 facet normal  4.503603e-01 -7.800470e-01  4.343987e-01
   outer loop
     vertex  1.005102e+02  3.458629e+01  2.639198e+01
     vertex  9.761067e+01  3.291225e+01  2.639198e+01
     vertex  9.980171e+01  3.246533e+01  2.331790e+01
   endloop
 endfacet
 facet normal  5.797456e-01 -7.269780e-01  3.679648e-01
   outer loop
     vertex  1.005102e+02  3.458629e+01  2.639198e+01
     vertex  9.980171e+01  3.246533e+01  2.331790e+01
     vertex  1.027356e+02  3.480504e+01  2.331790e+01
   endloop
 endfacet
 facet normal  5.736151e-02 -7.654362e-01  6.409502e-01
   outer loop
     vertex  9.554077e+01  3.445803e+01  2.902082e+01
     vertex  9.282423e+01  3.425446e+01  2.902082e+01
     vertex  9.434654e+01  3.216724e+01  2.639198e+01
   endloop
 endfacet
 facet normal  1.781471e-01 -7.805134e-01  5.992182e-01
   outer loop
     vertex  9.554077e+01  3.445803e+01  2.902082e+01
     vertex  9.434654e+01  3.216724e+01  2.639198e+01
     vertex  9.761067e+01  3.291225e+01  2.639198e+01
   endloop
 endfacet
 facet normal -1.364898e-01 -5.980009e-01  7.897883e-01
   outer loop
     vertex  9.207259e+01  3.708242e+01  3.103216e+01
     vertex  9.016837e+01  3.486064e+01  2.902082e+01
     vertex  9.282423e+01  3.425446e+01  2.902082e+01
   endloop
 endfacet
 facet normal -2.149701e-01 -5.477348e-01  8.085632e-01
   outer loop
     vertex  9.207259e+01  3.708242e+01  3.103216e+01
     vertex  9.028368e+01  3.778452e+01  3.103216e+01
     vertex  9.016837e+01  3.486064e+01  2.902082e+01
   endloop
 endfacet
 facet normal -2.725176e-01 -2.528594e-01  9.283299e-01
   outer loop
     vertex  9.142928e+01  4.076218e+01  3.229422e+01
     vertex  9.075359e+01  4.149041e+01  3.229422e+01
     vertex  8.878120e+01  3.898271e+01  3.103216e+01
   endloop
 endfacet
 facet normal -2.389054e-01 -2.995779e-01  9.236760e-01
   outer loop
     vertex  9.142928e+01  4.076218e+01  3.229422e+01
     vertex  8.878120e+01  3.898271e+01  3.103216e+01
     vertex  9.028368e+01  3.778452e+01  3.103216e+01
   endloop
 endfacet
 facet normal -9.486383e-02 -8.802077e-02  9.915912e-01
   outer loop
     vertex  9.142928e+01  4.076218e+01  3.229422e+01
     vertex  9.350718e+01  4.336778e+01  3.272430e+01
     vertex  9.075359e+01  4.149041e+01  3.229422e+01
   endloop
 endfacet
 facet normal  9.346221e-01 -4.658168e-02  3.525785e-01
   outer loop
     vertex  1.059556e+02  4.149148e+01  2.331790e+01
     vertex  1.062242e+02  4.336778e+01  2.285388e+01
     vertex  1.052068e+02  4.336778e+01  2.555074e+01
   endloop
 endfacet
 facet normal  9.856902e-01 -1.093627e-01  1.282755e-01
   outer loop
     vertex  1.059556e+02  4.149148e+01  2.331790e+01
     vertex  1.062472e+02  4.022765e+01  2.000000e+01
     vertex  1.062242e+02  4.336778e+01  2.285388e+01
   endloop
 endfacet
 facet normal  9.376868e-01 -2.892381e-01  1.925740e-01
   outer loop
     vertex  1.059556e+02  4.149148e+01  2.331790e+01
     vertex  1.048495e+02  3.790559e+01  2.331790e+01
     vertex  1.062472e+02  4.022765e+01  2.000000e+01
   endloop
 endfacet
 facet normal  7.682696e-01 -5.237974e-01  3.679648e-01
   outer loop
     vertex  1.027874e+02  3.704060e+01  2.639198e+01
     vertex  1.027356e+02  3.480504e+01  2.331790e+01
     vertex  1.048495e+02  3.790559e+01  2.331790e+01
   endloop
 endfacet
 facet normal  6.602750e-01 -6.126457e-01  4.343987e-01
   outer loop
     vertex  1.027874e+02  3.704060e+01  2.639198e+01
     vertex  1.005102e+02  3.458629e+01  2.639198e+01
     vertex  1.027356e+02  3.480504e+01  2.331790e+01
   endloop
 endfacet
 facet normal  2.804294e-01 -7.145224e-01  6.409502e-01
   outer loop
     vertex  9.807662e+01  3.545328e+01  2.902082e+01
     vertex  9.554077e+01  3.445803e+01  2.902082e+01
     vertex  9.761067e+01  3.291225e+01  2.639198e+01
   endloop
 endfacet
 facet normal  4.002929e-01 -6.933276e-01  5.992182e-01
   outer loop
     vertex  9.807662e+01  3.545328e+01  2.902082e+01
     vertex  9.761067e+01  3.291225e+01  2.639198e+01
     vertex  1.005102e+02  3.458629e+01  2.639198e+01
   endloop
 endfacet
 facet normal  4.583791e-02 -6.116644e-01  7.897883e-01
   outer loop
     vertex  9.398896e+01  3.693881e+01  3.103216e+01
     vertex  9.282423e+01  3.425446e+01  2.902082e+01
     vertex  9.554077e+01  3.445803e+01  2.902082e+01
   endloop
 endfacet
 facet normal -4.397188e-02 -5.867640e-01  8.085632e-01
   outer loop
     vertex  9.398896e+01  3.693881e+01  3.103216e+01
     vertex  9.207259e+01  3.708242e+01  3.103216e+01
     vertex  9.282423e+01  3.425446e+01  2.902082e+01
   endloop
 endfacet
 facet normal -1.858788e-01 -3.219515e-01  9.283299e-01
   outer loop
     vertex  9.228961e+01  4.026547e+01  3.229422e+01
     vertex  9.142928e+01  4.076218e+01  3.229422e+01
     vertex  9.028368e+01  3.778452e+01  3.103216e+01
   endloop
 endfacet
 facet normal -6.470472e-02 -1.120719e-01  9.915912e-01
   outer loop
     vertex  9.228961e+01  4.026547e+01  3.229422e+01
     vertex  9.350718e+01  4.336778e+01  3.272430e+01
     vertex  9.142928e+01  4.076218e+01  3.229422e+01
   endloop
 endfacet
 facet normal -1.399894e-01 -3.566871e-01  9.236760e-01
   outer loop
     vertex  9.228961e+01  4.026547e+01  3.229422e+01
     vertex  9.028368e+01  3.778452e+01  3.103216e+01
     vertex  9.207259e+01  3.708242e+01  3.103216e+01
   endloop
 endfacet
 facet normal  8.315075e-01 -1.041432e-01  5.456643e-01
   outer loop
     vertex  1.042401e+02  4.005710e+01  2.639198e+01
     vertex  1.052068e+02  4.336778e+01  2.555074e+01
     vertex  1.036254e+02  4.336778e+01  2.796055e+01
   endloop
 endfacet
 facet normal  8.915634e-01 -1.519194e-01  4.266559e-01
   outer loop
     vertex  1.042401e+02  4.005710e+01  2.639198e+01
     vertex  1.059556e+02  4.149148e+01  2.331790e+01
     vertex  1.052068e+02  4.336778e+01  2.555074e+01
   endloop
 endfacet
 facet normal  8.885295e-01 -2.740751e-01  3.679648e-01
   outer loop
     vertex  1.042401e+02  4.005710e+01  2.639198e+01
     vertex  1.048495e+02  3.790559e+01  2.331790e+01
     vertex  1.059556e+02  4.149148e+01  2.331790e+01
   endloop
 endfacet
 facet normal  8.115213e-01 -3.908081e-01  4.343987e-01
   outer loop
     vertex  1.042401e+02  4.005710e+01  2.639198e+01
     vertex  1.027874e+02  3.704060e+01  2.639198e+01
     vertex  1.048495e+02  3.790559e+01  2.331790e+01
   endloop
 endfacet
 facet normal  5.868709e-01 -5.445366e-01  5.992182e-01
   outer loop
     vertex  1.002064e+02  3.715176e+01  2.902082e+01
     vertex  1.005102e+02  3.458629e+01  2.639198e+01
     vertex  1.027874e+02  3.704060e+01  2.639198e+01
   endloop
 endfacet
 facet normal  4.785798e-01 -6.001201e-01  6.409502e-01
   outer loop
     vertex  1.002064e+02  3.715176e+01  2.902082e+01
     vertex  9.807662e+01  3.545328e+01  2.902082e+01
     vertex  1.005102e+02  3.458629e+01  2.639198e+01
   endloop
 endfacet
 facet normal  2.240927e-01 -5.709789e-01  7.897883e-01
   outer loop
     vertex  9.586253e+01  3.736644e+01  3.103216e+01
     vertex  9.554077e+01  3.445803e+01  2.902082e+01
     vertex  9.807662e+01  3.545328e+01  2.902082e+01
   endloop
 endfacet
 facet normal  1.309334e-01 -5.736567e-01  8.085632e-01
   outer loop
     vertex  9.586253e+01  3.736644e+01  3.103216e+01
     vertex  9.398896e+01  3.693881e+01  3.103216e+01
     vertex  9.554077e+01  3.445803e+01  2.902082e+01
   endloop
 endfacet
 facet normal -2.879631e-02 -1.261649e-01  9.915912e-01
   outer loop
     vertex  9.325813e+01  4.004441e+01  3.229422e+01
     vertex  9.350718e+01  4.336778e+01  3.272430e+01
     vertex  9.228961e+01  4.026547e+01  3.229422e+01
   endloop
 endfacet
 facet normal -2.863467e-02 -3.821031e-01  9.236760e-01
   outer loop
     vertex  9.325813e+01  4.004441e+01  3.229422e+01
     vertex  9.207259e+01  3.708242e+01  3.103216e+01
     vertex  9.398896e+01  3.693881e+01  3.103216e+01
   endloop
 endfacet
 facet normal -8.272384e-02 -3.624368e-01  9.283299e-01
   outer loop
     vertex  9.325813e+01  4.004441e+01  3.229422e+01
     vertex  9.228961e+01  4.026547e+01  3.229422e+01
     vertex  9.207259e+01  3.708242e+01  3.103216e+01
   endloop
 endfacet
 facet normal  7.213028e-01 -3.473611e-01  5.992182e-01
   outer loop
     vertex  1.017410e+02  3.940257e+01  2.902082e+01
     vertex  1.027874e+02  3.704060e+01  2.639198e+01
     vertex  1.042401e+02  4.005710e+01  2.639198e+01
   endloop
 endfacet
 facet normal  6.342064e-01 -4.323946e-01  6.409502e-01
   outer loop
     vertex  1.017410e+02  3.940257e+01  2.902082e+01
     vertex  1.002064e+02  3.715176e+01  2.902082e+01
     vertex  1.027874e+02  3.704060e+01  2.639198e+01
   endloop
 endfacet
 facet normal  2.942047e-01 -5.095774e-01  8.085632e-01
   outer loop
     vertex  9.752681e+01  3.832731e+01  3.103216e+01
     vertex  9.586253e+01  3.736644e+01  3.103216e+01
     vertex  9.807662e+01  3.545328e+01  2.902082e+01
   endloop
 endfacet
 facet normal  3.824359e-01 -4.795595e-01  7.897883e-01
   outer loop
     vertex  9.752681e+01  3.832731e+01  3.103216e+01
     vertex  9.807662e+01  3.545328e+01  2.902082e+01
     vertex  1.002064e+02  3.715176e+01  2.902082e+01
   endloop
 endfacet
 facet normal  8.526435e-02 -3.735675e-01  9.236760e-01
   outer loop
     vertex  9.424877e+01  4.011865e+01  3.229422e+01
     vertex  9.398896e+01  3.693881e+01  3.103216e+01
     vertex  9.586253e+01  3.736644e+01  3.103216e+01
   endloop
 endfacet
 facet normal  9.670780e-03 -1.290476e-01  9.915912e-01
   outer loop
     vertex  9.424877e+01  4.011865e+01  3.229422e+01
     vertex  9.350718e+01  4.336778e+01  3.272430e+01
     vertex  9.325813e+01  4.004441e+01  3.229422e+01
   endloop
 endfacet
 facet normal  2.778148e-02 -3.707180e-01  9.283299e-01
   outer loop
     vertex  9.424877e+01  4.011865e+01  3.229422e+01
     vertex  9.325813e+01  4.004441e+01  3.229422e+01
     vertex  9.398896e+01  3.693881e+01  3.103216e+01
   endloop
 endfacet
 facet normal  6.961505e-01  6.085698e-03  7.178700e-01
   outer loop
     vertex  1.025440e+02  4.200570e+01  2.902082e+01
     vertex  1.036254e+02  4.336778e+01  2.796055e+01
     vertex  1.015562e+02  4.336778e+01  2.996716e+01
   endloop
 endfacet
 facet normal  7.793847e-01 -1.441757e-01  6.097317e-01
   outer loop
     vertex  1.025440e+02  4.200570e+01  2.902082e+01
     vertex  1.042401e+02  4.005710e+01  2.639198e+01
     vertex  1.036254e+02  4.336778e+01  2.796055e+01
   endloop
 endfacet
 facet normal  7.334809e-01 -2.262489e-01  6.409502e-01
   outer loop
     vertex  1.025440e+02  4.200570e+01  2.902082e+01
     vertex  1.017410e+02  3.940257e+01  2.902082e+01
     vertex  1.042401e+02  4.005710e+01  2.639198e+01
   endloop
 endfacet
 facet normal  5.067980e-01 -3.455290e-01  7.897883e-01
   outer loop
     vertex  9.883393e+01  3.973606e+01  3.103216e+01
     vertex  1.002064e+02  3.715176e+01  2.902082e+01
     vertex  1.017410e+02  3.940257e+01  2.902082e+01
   endloop
 endfacet
 facet normal  4.313346e-01 -4.002200e-01  8.085632e-01
   outer loop
     vertex  9.883393e+01  3.973606e+01  3.103216e+01
     vertex  9.752681e+01  3.832731e+01  3.103216e+01
     vertex  1.002064e+02  3.715176e+01  2.902082e+01
   endloop
 endfacet
 facet normal  1.915873e-01 -3.318389e-01  9.236760e-01
   outer loop
     vertex  9.517352e+01  4.048159e+01  3.229422e+01
     vertex  9.586253e+01  3.736644e+01  3.103216e+01
     vertex  9.752681e+01  3.832731e+01  3.103216e+01
   endloop
 endfacet
 facet normal  4.727858e-02 -1.204638e-01  9.915912e-01
   outer loop
     vertex  9.517352e+01  4.048159e+01  3.229422e+01
     vertex  9.350718e+01  4.336778e+01  3.272430e+01
     vertex  9.424877e+01  4.011865e+01  3.229422e+01
   endloop
 endfacet
 facet normal  1.358183e-01 -3.460593e-01  9.283299e-01
   outer loop
     vertex  9.517352e+01  4.048159e+01  3.229422e+01
     vertex  9.424877e+01  4.011865e+01  3.229422e+01
     vertex  9.586253e+01  3.736644e+01  3.103216e+01
   endloop
 endfacet
 facet normal  5.222578e-01 -4.163712e-02  8.517706e-01
   outer loop
     vertex  9.966775e+01  4.146749e+01  3.103216e+01
     vertex  1.015562e+02  4.336778e+01  2.996716e+01
     vertex  9.909896e+01  4.336778e+01  3.147380e+01
   endloop
 endfacet
 facet normal  5.845442e-01 -1.322655e-01  8.005085e-01
   outer loop
     vertex  9.966775e+01  4.146749e+01  3.103216e+01
     vertex  1.025440e+02  4.200570e+01  2.902082e+01
     vertex  1.015562e+02  4.336778e+01  2.996716e+01
   endloop
 endfacet
 facet normal  5.861288e-01 -1.807968e-01  7.897883e-01
   outer loop
     vertex  9.966775e+01  4.146749e+01  3.103216e+01
     vertex  1.017410e+02  3.940257e+01  2.902082e+01
     vertex  1.025440e+02  4.200570e+01  2.902082e+01
   endloop
 endfacet
 facet normal  5.301385e-01 -2.553012e-01  8.085632e-01
   outer loop
     vertex  9.966775e+01  4.146749e+01  3.103216e+01
     vertex  9.883393e+01  3.973606e+01  3.103216e+01
     vertex  1.017410e+02  3.940257e+01  2.902082e+01
   endloop
 endfacet
 facet normal  8.068547e-02 -1.011764e-01  9.915912e-01
   outer loop
     vertex  9.595021e+01  4.110098e+01  3.229422e+01
     vertex  9.350718e+01  4.336778e+01  3.272430e+01
     vertex  9.517352e+01  4.048159e+01  3.229422e+01
   endloop
 endfacet
 facet normal  2.808868e-01 -2.606249e-01  9.236760e-01
   outer loop
     vertex  9.595021e+01  4.110098e+01  3.229422e+01
     vertex  9.752681e+01  3.832731e+01  3.103216e+01
     vertex  9.883393e+01  3.973606e+01  3.103216e+01
   endloop
 endfacet
 facet normal  2.317870e-01 -2.906518e-01  9.283299e-01
   outer loop
     vertex  9.595021e+01  4.110098e+01  3.229422e+01
     vertex  9.517352e+01  4.048159e+01  3.229422e+01
     vertex  9.752681e+01  3.832731e+01  3.103216e+01
   endloop
 endfacet
 facet normal  1.069231e-01 -7.289893e-02  9.915912e-01
   outer loop
     vertex  9.650982e+01  4.192178e+01  3.229422e+01
     vertex  9.350718e+01  4.336778e+01  3.272430e+01
     vertex  9.595021e+01  4.110098e+01  3.229422e+01
   endloop
 endfacet
 facet normal  3.452283e-01 -1.662532e-01  9.236760e-01
   outer loop
     vertex  9.650982e+01  4.192178e+01  3.229422e+01
     vertex  9.883393e+01  3.973606e+01  3.103216e+01
     vertex  9.966775e+01  4.146749e+01  3.103216e+01
   endloop
 endfacet
 facet normal  3.071605e-01 -2.094185e-01  9.283299e-01
   outer loop
     vertex  9.650982e+01  4.192178e+01  3.229422e+01
     vertex  9.595021e+01  4.110098e+01  3.229422e+01
     vertex  9.883393e+01  3.973606e+01  3.103216e+01
   endloop
 endfacet
 facet normal  3.233885e-01  6.429188e-02  9.440797e-01
   outer loop
     vertex  9.680264e+01  4.287107e+01  3.229422e+01
     vertex  9.909896e+01  4.336778e+01  3.147380e+01
     vertex  9.637213e+01  4.336778e+01  3.240786e+01
   endloop
 endfacet
 facet normal  1.088362e-01 -1.311125e-01  9.853752e-01
   outer loop
     vertex  9.680264e+01  4.287107e+01  3.229422e+01
     vertex  9.637213e+01  4.336778e+01  3.240786e+01
     vertex  9.350718e+01  4.336778e+01  3.272430e+01
   endloop
 endfacet
 facet normal  1.236601e-01 -3.814410e-02  9.915912e-01
   outer loop
     vertex  9.680264e+01  4.287107e+01  3.229422e+01
     vertex  9.350718e+01  4.336778e+01  3.272430e+01
     vertex  9.650982e+01  4.192178e+01  3.229422e+01
   endloop
 endfacet
 facet normal  3.553269e-01 -1.093932e-01  9.283189e-01
   outer loop
     vertex  9.680264e+01  4.287107e+01  3.229422e+01
     vertex  9.966775e+01  4.146749e+01  3.103216e+01
     vertex  9.909896e+01  4.336778e+01  3.147380e+01
   endloop
 endfacet
 facet normal  3.552414e-01 -1.095775e-01  9.283299e-01
   outer loop
     vertex  9.680264e+01  4.287107e+01  3.229422e+01
     vertex  9.650982e+01  4.192178e+01  3.229422e+01
     vertex  9.966775e+01  4.146749e+01  3.103216e+01
   endloop
 endfacet
endsolid
