solid 
 facet normal -1.000000e+00  0.000000e+00  0.000000e+00
   outer loop
     vertex  0.000000e+00  0.000000e+00  2.000000e+01
     vertex  0.000000e+00  9.168545e+01  0.000000e+00
     vertex  0.000000e+00  0.000000e+00  0.000000e+00
   endloop
 endfacet
 facet normal -1.000000e+00  0.000000e+00  0.000000e+00
   outer loop
     vertex  0.000000e+00  0.000000e+00  2.000000e+01
     vertex  0.000000e+00  9.168545e+01  2.000000e+01
     vertex  0.000000e+00  9.168545e+01  0.000000e+00
   endloop
 endfacet
 facet normal  0.000000e+00 -1.000000e+00 -0.000000e+00
   outer loop
     vertex  1.224502e+02  0.000000e+00  2.000000e+01
     vertex  0.000000e+00  0.000000e+00  0.000000e+00
     vertex  1.224502e+02  0.000000e+00  0.000000e+00
   endloop
 endfacet
 facet normal -0.000000e+00 -1.000000e+00  0.000000e+00
   outer loop
     vertex  1.224502e+02  0.000000e+00  2.000000e+01
     vertex  0.000000e+00  0.000000e+00  2.000000e+01
     vertex  0.000000e+00  0.000000e+00  0.000000e+00
   endloop
 endfacet
 facet normal  0.000000e+00  0.000000e+00  1.000000e+00
   outer loop
     vertex  6.505309e+01  3.116538e+01  2.000000e+01
     vertex  0.000000e+00  9.168545e+01  2.000000e+01
     vertex  0.000000e+00  0.000000e+00  2.000000e+01
   endloop
 endfacet
 facet normal  0.000000e+00  0.000000e+00  1.000000e+00
   outer loop
     vertex  6.505309e+01  3.116538e+01  2.000000e+01
     vertex  0.000000e+00  0.000000e+00  2.000000e+01
     vertex  7.561112e+01  1.805170e+01  2.000000e+01
   endloop
 endfacet
 facet normal  0.000000e+00  0.000000e+00  1.000000e+00
   outer loop
     vertex  1.224502e+02  0.000000e+00  2.000000e+01
     vertex  7.561112e+01  1.805170e+01  2.000000e+01
     vertex  0.000000e+00  0.000000e+00  2.000000e+01
   endloop
 endfacet
 facet normal  0.000000e+00  0.000000e+00  1.000000e+00
   outer loop
     vertex  9.763964e+01  3.578722e+01  2.000000e+01
     vertex  7.561112e+01  1.805170e+01  2.000000e+01
     vertex  1.224502e+02  0.000000e+00  2.000000e+01
   endloop
 endfacet
 facet normal  0.000000e+00  0.000000e+00  1.000000e+00
   outer loop
     vertex  8.708161e+01  4.890090e+01  2.000000e+01
     vertex  0.000000e+00  9.168545e+01  2.000000e+01
     vertex  6.505309e+01  3.116538e+01  2.000000e+01
   endloop
 endfacet
 facet normal  0.000000e+00  0.000000e+00  1.000000e+00
   outer loop
     vertex  1.224502e+02  9.168545e+01  2.000000e+01
     vertex  8.708161e+01  4.890090e+01  2.000000e+01
     vertex  9.763964e+01  3.578722e+01  2.000000e+01
   endloop
 endfacet
 facet normal  0.000000e+00  0.000000e+00  1.000000e+00
   outer loop
     vertex  1.224502e+02  9.168545e+01  2.000000e+01
     vertex  9.763964e+01  3.578722e+01  2.000000e+01
     vertex  1.224502e+02  0.000000e+00  2.000000e+01
   endloop
 endfacet
 facet normal  0.000000e+00  0.000000e+00  1.000000e+00
   outer loop
     vertex  1.224502e+02  9.168545e+01  2.000000e+01
     vertex  0.000000e+00  9.168545e+01  2.000000e+01
     vertex  8.708161e+01  4.890090e+01  2.000000e+01
   endloop
 endfacet
 facet normal  0.000000e+00  1.000000e+00  0.000000e+00
   outer loop
     vertex  1.224502e+02  9.168545e+01  2.000000e+01
     vertex  1.224502e+02  9.168545e+01  0.000000e+00
     vertex  0.000000e+00  9.168545e+01  0.000000e+00
   endloop
 endfacet
 facet normal  0.000000e+00  1.000000e+00  0.000000e+00
   outer loop
     vertex  1.224502e+02  9.168545e+01  2.000000e+01
     vertex  0.000000e+00  9.168545e+01  0.000000e+00
     vertex  0.000000e+00  9.168545e+01  2.000000e+01
   endloop
 endfacet
 facet normal -0.000000e+00  0.000000e+00 -1.000000e+00
   outer loop
     vertex  1.224502e+02  9.168545e+01  0.000000e+00
     vertex  0.000000e+00  0.000000e+00  0.000000e+00
     vertex  0.000000e+00  9.168545e+01  0.000000e+00
   endloop
 endfacet
 facet normal  0.000000e+00 -0.000000e+00 -1.000000e+00
   outer loop
     vertex  1.224502e+02  9.168545e+01  0.000000e+00
     vertex  1.224502e+02  0.000000e+00  0.000000e+00
     vertex  0.000000e+00  0.000000e+00  0.000000e+00
   endloop
 endfacet
 facet normal  1.000000e+00  0.000000e+00  0.000000e+00
   outer loop
     vertex  1.224502e+02  0.000000e+00  2.000000e+01
     vertex  1.224502e+02  0.000000e+00  0.000000e+00
     vertex  1.224502e+02  9.168545e+01  0.000000e+00
   endloop
 endfacet
 facet normal  1.000000e+00 -0.000000e+00  0.000000e+00
   outer loop
     vertex  1.224502e+02  0.000000e+00  2.000000e+01
     vertex  1.224502e+02  9.168545e+01  0.000000e+00
     vertex  1.224502e+02  9.168545e+01  2.000000e+01
   endloop
 endfacet
 facet normal  6.271220e-01 -7.789211e-01  0.000000e+00
   outer loop
     vertex  9.763964e+01  3.578722e+01  3.853620e+01
     vertex  7.561112e+01  1.805170e+01  2.000000e+01
     vertex  9.763964e+01  3.578722e+01  2.000000e+01
   endloop
 endfacet
 facet normal  6.271220e-01 -7.789211e-01  0.000000e+00
   outer loop
     vertex  9.763964e+01  3.578722e+01  3.853620e+01
     vertex  7.561112e+01  1.805170e+01  3.853620e+01
     vertex  7.561112e+01  1.805170e+01  2.000000e+01
   endloop
 endfacet
 facet normal  7.789211e-01  6.271220e-01  0.000000e+00
   outer loop
     vertex  8.708161e+01  4.890090e+01  3.853620e+01
     vertex  9.763964e+01  3.578722e+01  2.000000e+01
     vertex  8.708161e+01  4.890090e+01  2.000000e+01
   endloop
 endfacet
 facet normal  7.789211e-01  6.271220e-01  0.000000e+00
   outer loop
     vertex  8.708161e+01  4.890090e+01  3.853620e+01
     vertex  9.763964e+01  3.578722e+01  3.853620e+01
     vertex  9.763964e+01  3.578722e+01  2.000000e+01
   endloop
 endfacet
 facet normal -6.271220e-01  7.789211e-01  0.000000e+00
   outer loop
     vertex  8.708161e+01  4.890090e+01  3.853620e+01
     vertex  8.708161e+01  4.890090e+01  2.000000e+01
     vertex  6.505309e+01  3.116538e+01  2.000000e+01
   endloop
 endfacet
 facet normal -6.271220e-01  7.789211e-01  0.000000e+00
   outer loop
     vertex  8.708161e+01  4.890090e+01  3.853620e+01
     vertex  6.505309e+01  3.116538e+01  2.000000e+01
     vertex  6.505309e+01  3.116538e+01  3.853620e+01
   endloop
 endfacet
 facet normal -7.789211e-01 -6.271220e-01 -0.000000e+00
   outer loop
     vertex  6.505309e+01  3.116538e+01  3.853620e+01
     vertex  6.505309e+01  3.116538e+01  2.000000e+01
     vertex  7.561112e+01  1.805170e+01  2.000000e+01
   endloop
 endfacet
 facet normal -7.789211e-01 -6.271220e-01  0.000000e+00
   outer loop
     vertex  6.505309e+01  3.116538e+01  3.853620e+01
     vertex  7.561112e+01  1.805170e+01  2.000000e+01
     vertex  7.561112e+01  1.805170e+01  3.853620e+01
   endloop
 endfacet
 facet normal -0.000000e+00  0.000000e+00  1.000000e+00
   outer loop
     vertex  6.505309e+01  3.116538e+01  3.853620e+01
     vertex  7.561112e+01  1.805170e+01  3.853620e+01
     vertex  9.763964e+01  3.578722e+01  3.853620e+01
   endloop
 endfacet
 facet normal  0.000000e+00  0.000000e+00  1.000000e+00
   outer loop
     vertex  6.505309e+01  3.116538e+01  3.853620e+01
     vertex  9.763964e+01  3.578722e+01  3.853620e+01
     vertex  8.708161e+01  4.890090e+01  3.853620e+01
   endloop
 endfacet
endsolid
