solid 
 facet normal -1.000000e+00  0.000000e+00  0.000000e+00
   outer loop
     vertex  0.000000e+00  0.000000e+00  2.000000e+01
     vertex  0.000000e+00  9.056960e+01  0.000000e+00
     vertex  0.000000e+00  0.000000e+00  0.000000e+00
   endloop
 endfacet
 facet normal -1.000000e+00  0.000000e+00  0.000000e+00
   outer loop
     vertex  0.000000e+00  0.000000e+00  2.000000e+01
     vertex  0.000000e+00  9.056960e+01  2.000000e+01
     vertex  0.000000e+00  9.056960e+01  0.000000e+00
   endloop
 endfacet
 facet normal  0.000000e+00 -1.000000e+00 -0.000000e+00
   outer loop
     vertex  1.271093e+02  0.000000e+00  2.000000e+01
     vertex  0.000000e+00  0.000000e+00  0.000000e+00
     vertex  1.271093e+02  0.000000e+00  0.000000e+00
   endloop
 endfacet
 facet normal -0.000000e+00 -1.000000e+00  0.000000e+00
   outer loop
     vertex  1.271093e+02  0.000000e+00  2.000000e+01
     vertex  0.000000e+00  0.000000e+00  2.000000e+01
     vertex  0.000000e+00  0.000000e+00  0.000000e+00
   endloop
 endfacet
 facet normal  0.000000e+00  0.000000e+00  1.000000e+00
   outer loop
     vertex  7.596341e+01  5.070988e+01  2.000000e+01
     vertex  0.000000e+00  9.056960e+01  2.000000e+01
     vertex  0.000000e+00  0.000000e+00  2.000000e+01
   endloop
 endfacet
 facet normal  0.000000e+00  0.000000e+00  1.000000e+00
   outer loop
     vertex  7.596341e+01  5.070988e+01  2.000000e+01
     vertex  0.000000e+00  0.000000e+00  2.000000e+01
     vertex  7.361517e+01  2.146786e+01  2.000000e+01
   endloop
 endfacet
 facet normal  0.000000e+00  0.000000e+00  1.000000e+00
   outer loop
     vertex  1.271093e+02  0.000000e+00  2.000000e+01
     vertex  9.676593e+01  1.960877e+01  2.000000e+01
     vertex  7.361517e+01  2.146786e+01  2.000000e+01
   endloop
 endfacet
 facet normal  0.000000e+00  0.000000e+00  1.000000e+00
   outer loop
     vertex  1.271093e+02  0.000000e+00  2.000000e+01
     vertex  7.361517e+01  2.146786e+01  2.000000e+01
     vertex  0.000000e+00  0.000000e+00  2.000000e+01
   endloop
 endfacet
 facet normal  0.000000e+00  0.000000e+00  1.000000e+00
   outer loop
     vertex  9.911417e+01  4.885079e+01  2.000000e+01
     vertex  9.676593e+01  1.960877e+01  2.000000e+01
     vertex  1.271093e+02  0.000000e+00  2.000000e+01
   endloop
 endfacet
 facet normal  0.000000e+00  0.000000e+00  1.000000e+00
   outer loop
     vertex  1.271093e+02  9.056960e+01  2.000000e+01
     vertex  7.596341e+01  5.070988e+01  2.000000e+01
     vertex  9.911417e+01  4.885079e+01  2.000000e+01
   endloop
 endfacet
 facet normal  0.000000e+00  0.000000e+00  1.000000e+00
   outer loop
     vertex  1.271093e+02  9.056960e+01  2.000000e+01
     vertex  0.000000e+00  9.056960e+01  2.000000e+01
     vertex  7.596341e+01  5.070988e+01  2.000000e+01
   endloop
 endfacet
 facet normal  0.000000e+00  0.000000e+00  1.000000e+00
   outer loop
     vertex  1.271093e+02  9.056960e+01  2.000000e+01
     vertex  9.911417e+01  4.885079e+01  2.000000e+01
     vertex  1.271093e+02  0.000000e+00  2.000000e+01
   endloop
 endfacet
 facet normal  0.000000e+00  1.000000e+00  0.000000e+00
   outer loop
     vertex  1.271093e+02  9.056960e+01  2.000000e+01
     vertex  1.271093e+02  9.056960e+01  0.000000e+00
     vertex  0.000000e+00  9.056960e+01  0.000000e+00
   endloop
 endfacet
 facet normal  0.000000e+00  1.000000e+00  0.000000e+00
   outer loop
     vertex  1.271093e+02  9.056960e+01  2.000000e+01
     vertex  0.000000e+00  9.056960e+01  0.000000e+00
     vertex  0.000000e+00  9.056960e+01  2.000000e+01
   endloop
 endfacet
 facet normal -0.000000e+00  0.000000e+00 -1.000000e+00
   outer loop
     vertex  1.271093e+02  9.056960e+01  0.000000e+00
     vertex  0.000000e+00  0.000000e+00  0.000000e+00
     vertex  0.000000e+00  9.056960e+01  0.000000e+00
   endloop
 endfacet
 facet normal  0.000000e+00 -0.000000e+00 -1.000000e+00
   outer loop
     vertex  1.271093e+02  9.056960e+01  0.000000e+00
     vertex  1.271093e+02  0.000000e+00  0.000000e+00
     vertex  0.000000e+00  0.000000e+00  0.000000e+00
   endloop
 endfacet
 facet normal  1.000000e+00  0.000000e+00  0.000000e+00
   outer loop
     vertex  1.271093e+02  0.000000e+00  2.000000e+01
     vertex  1.271093e+02  0.000000e+00  0.000000e+00
     vertex  1.271093e+02  9.056960e+01  0.000000e+00
   endloop
 endfacet
 facet normal  1.000000e+00 -0.000000e+00  0.000000e+00
   outer loop
     vertex  1.271093e+02  0.000000e+00  2.000000e+01
     vertex  1.271093e+02  9.056960e+01  0.000000e+00
     vertex  1.271093e+02  9.056960e+01  2.000000e+01
   endloop
 endfacet
 facet normal -9.967912e-01  8.004596e-02  0.000000e+00
   outer loop
     vertex  7.361517e+01  2.146786e+01  3.614879e+01
     vertex  7.596341e+01  5.070988e+01  2.000000e+01
     vertex  7.361517e+01  2.146786e+01  2.000000e+01
   endloop
 endfacet
 facet normal -9.967912e-01  8.004596e-02  0.000000e+00
   outer loop
     vertex  7.361517e+01  2.146786e+01  3.614879e+01
     vertex  7.596341e+01  5.070988e+01  3.614879e+01
     vertex  7.596341e+01  5.070988e+01  2.000000e+01
   endloop
 endfacet
 facet normal -8.004596e-02 -9.967912e-01 -0.000000e+00
   outer loop
     vertex  9.676593e+01  1.960877e+01  3.614879e+01
     vertex  7.361517e+01  2.146786e+01  2.000000e+01
     vertex  9.676593e+01  1.960877e+01  2.000000e+01
   endloop
 endfacet
 facet normal -8.004596e-02 -9.967912e-01  0.000000e+00
   outer loop
     vertex  9.676593e+01  1.960877e+01  3.614879e+01
     vertex  7.361517e+01  2.146786e+01  3.614879e+01
     vertex  7.361517e+01  2.146786e+01  2.000000e+01
   endloop
 endfacet
 facet normal  9.967912e-01 -8.004596e-02  0.000000e+00
   outer loop
     vertex  9.676593e+01  1.960877e+01  2.000000e+01
     vertex  9.911417e+01  4.885079e+01  2.000000e+01
     vertex  9.911417e+01  4.885079e+01  3.614879e+01
   endloop
 endfacet
 facet normal  9.967912e-01 -8.004596e-02  0.000000e+00
   outer loop
     vertex  9.676593e+01  1.960877e+01  3.614879e+01
     vertex  9.676593e+01  1.960877e+01  2.000000e+01
     vertex  9.911417e+01  4.885079e+01  3.614879e+01
   endloop
 endfacet
 facet normal  8.004596e-02  9.967912e-01  0.000000e+00
   outer loop
     vertex  9.911417e+01  4.885079e+01  3.614879e+01
     vertex  9.911417e+01  4.885079e+01  2.000000e+01
     vertex  7.596341e+01  5.070988e+01  2.000000e+01
   endloop
 endfacet
 facet normal  8.004596e-02  9.967912e-01  0.000000e+00
   outer loop
     vertex  9.911417e+01  4.885079e+01  3.614879e+01
     vertex  7.596341e+01  5.070988e+01  2.000000e+01
     vertex  7.596341e+01  5.070988e+01  3.614879e+01
   endloop
 endfacet
 facet normal  0.000000e+00  0.000000e+00  1.000000e+00
   outer loop
     vertex  9.911417e+01  4.885079e+01  3.614879e+01
     vertex  7.596341e+01  5.070988e+01  3.614879e+01
     vertex  7.361517e+01  2.146786e+01  3.614879e+01
   endloop
 endfacet
 facet normal  0.000000e+00  0.000000e+00  1.000000e+00
   outer loop
     vertex  9.911417e+01  4.885079e+01  3.614879e+01
     vertex  7.361517e+01  2.146786e+01  3.614879e+01
     vertex  9.676593e+01  1.960877e+01  3.614879e+01
   endloop
 endfacet
endsolid
