solid 
 facet normal -1.000000e+00  0.000000e+00  0.000000e+00
   outer loop
     vertex  0.000000e+00  0.000000e+00  2.000000e+01
     vertex  0.000000e+00  1.029419e+02  0.000000e+00
     vertex  0.000000e+00  0.000000e+00  0.000000e+00
   endloop
 endfacet
 facet normal -1.000000e+00  0.000000e+00  0.000000e+00
   outer loop
     vertex  0.000000e+00  0.000000e+00  2.000000e+01
     vertex  0.000000e+00  1.029419e+02  2.000000e+01
     vertex  0.000000e+00  1.029419e+02  0.000000e+00
   endloop
 endfacet
 facet normal  0.000000e+00 -1.000000e+00  0.000000e+00
   outer loop
     vertex  1.493725e+02  0.000000e+00  0.000000e+00
     vertex  0.000000e+00  0.000000e+00  2.000000e+01
     vertex  0.000000e+00  0.000000e+00  0.000000e+00
   endloop
 endfacet
 facet normal -0.000000e+00 -1.000000e+00 -0.000000e+00
   outer loop
     vertex  1.493725e+02  0.000000e+00  2.000000e+01
     vertex  0.000000e+00  0.000000e+00  2.000000e+01
     vertex  1.493725e+02  0.000000e+00  0.000000e+00
   endloop
 endfacet
 facet normal  0.000000e+00  0.000000e+00  1.000000e+00
   outer loop
     vertex  5.821566e+01  1.582089e+01  2.000000e+01
     vertex  4.139974e+01  2.737246e+01  2.000000e+01
     vertex  0.000000e+00  0.000000e+00  2.000000e+01
   endloop
 endfacet
 facet normal  0.000000e+00  0.000000e+00  1.000000e+00
   outer loop
     vertex  0.000000e+00  1.029419e+02  2.000000e+01
     vertex  0.000000e+00  0.000000e+00  2.000000e+01
     vertex  4.139974e+01  2.737246e+01  2.000000e+01
   endloop
 endfacet
 facet normal  0.000000e+00  0.000000e+00  1.000000e+00
   outer loop
     vertex  5.653710e+01  4.940832e+01  2.000000e+01
     vertex  0.000000e+00  1.029419e+02  2.000000e+01
     vertex  4.139974e+01  2.737246e+01  2.000000e+01
   endloop
 endfacet
 facet normal  0.000000e+00  0.000000e+00  1.000000e+00
   outer loop
     vertex  1.493725e+02  0.000000e+00  2.000000e+01
     vertex  7.335302e+01  3.785675e+01  2.000000e+01
     vertex  5.821566e+01  1.582089e+01  2.000000e+01
   endloop
 endfacet
 facet normal  0.000000e+00  0.000000e+00  1.000000e+00
   outer loop
     vertex  1.493725e+02  0.000000e+00  2.000000e+01
     vertex  5.821566e+01  1.582089e+01  2.000000e+01
     vertex  0.000000e+00  0.000000e+00  2.000000e+01
   endloop
 endfacet
 facet normal  0.000000e+00  0.000000e+00  1.000000e+00
   outer loop
     vertex  1.493725e+02  1.029419e+02  2.000000e+01
     vertex  5.653710e+01  4.940832e+01  2.000000e+01
     vertex  7.335302e+01  3.785675e+01  2.000000e+01
   endloop
 endfacet
 facet normal  0.000000e+00  0.000000e+00  1.000000e+00
   outer loop
     vertex  1.493725e+02  1.029419e+02  2.000000e+01
     vertex  7.335302e+01  3.785675e+01  2.000000e+01
     vertex  1.493725e+02  0.000000e+00  2.000000e+01
   endloop
 endfacet
 facet normal  0.000000e+00  0.000000e+00  1.000000e+00
   outer loop
     vertex  1.493725e+02  1.029419e+02  2.000000e+01
     vertex  0.000000e+00  1.029419e+02  2.000000e+01
     vertex  5.653710e+01  4.940832e+01  2.000000e+01
   endloop
 endfacet
 facet normal  0.000000e+00  1.000000e+00  0.000000e+00
   outer loop
     vertex  1.493725e+02  1.029419e+02  0.000000e+00
     vertex  0.000000e+00  1.029419e+02  0.000000e+00
     vertex  0.000000e+00  1.029419e+02  2.000000e+01
   endloop
 endfacet
 facet normal  0.000000e+00  1.000000e+00  0.000000e+00
   outer loop
     vertex  1.493725e+02  1.029419e+02  2.000000e+01
     vertex  1.493725e+02  1.029419e+02  0.000000e+00
     vertex  0.000000e+00  1.029419e+02  2.000000e+01
   endloop
 endfacet
 facet normal  0.000000e+00  0.000000e+00 -1.000000e+00
   outer loop
     vertex  1.493725e+02  0.000000e+00  0.000000e+00
     vertex  0.000000e+00  0.000000e+00  0.000000e+00
     vertex  0.000000e+00  1.029419e+02  0.000000e+00
   endloop
 endfacet
 facet normal -0.000000e+00 -0.000000e+00 -1.000000e+00
   outer loop
     vertex  1.493725e+02  1.029419e+02  0.000000e+00
     vertex  1.493725e+02  0.000000e+00  0.000000e+00
     vertex  0.000000e+00  1.029419e+02  0.000000e+00
   endloop
 endfacet
 facet normal  1.000000e+00  0.000000e+00  0.000000e+00
   outer loop
     vertex  1.493725e+02  0.000000e+00  2.000000e+01
     vertex  1.493725e+02  0.000000e+00  0.000000e+00
     vertex  1.493725e+02  1.029419e+02  0.000000e+00
   endloop
 endfacet
 facet normal  1.000000e+00 -0.000000e+00  0.000000e+00
   outer loop
     vertex  1.493725e+02  0.000000e+00  2.000000e+01
     vertex  1.493725e+02  1.029419e+02  0.000000e+00
     vertex  1.493725e+02  1.029419e+02  2.000000e+01
   endloop
 endfacet
 facet normal  8.242565e-01 -5.662165e-01  0.000000e+00
   outer loop
     vertex  7.335302e+01  3.785675e+01  3.714796e+01
     vertex  5.821566e+01  1.582089e+01  2.000000e+01
     vertex  7.335302e+01  3.785675e+01  2.000000e+01
   endloop
 endfacet
 facet normal  8.242565e-01 -5.662165e-01  0.000000e+00
   outer loop
     vertex  7.335302e+01  3.785675e+01  3.714796e+01
     vertex  5.821566e+01  1.582089e+01  3.714796e+01
     vertex  5.821566e+01  1.582089e+01  2.000000e+01
   endloop
 endfacet
 facet normal  5.662165e-01  8.242565e-01  0.000000e+00
   outer loop
     vertex  5.653710e+01  4.940832e+01  3.714796e+01
     vertex  7.335302e+01  3.785675e+01  2.000000e+01
     vertex  5.653710e+01  4.940832e+01  2.000000e+01
   endloop
 endfacet
 facet normal  5.662165e-01  8.242565e-01  0.000000e+00
   outer loop
     vertex  5.653710e+01  4.940832e+01  3.714796e+01
     vertex  7.335302e+01  3.785675e+01  3.714796e+01
     vertex  7.335302e+01  3.785675e+01  2.000000e+01
   endloop
 endfacet
 facet normal -8.242565e-01  5.662165e-01  0.000000e+00
   outer loop
     vertex  5.653710e+01  4.940832e+01  3.714796e+01
     vertex  5.653710e+01  4.940832e+01  2.000000e+01
     vertex  4.139974e+01  2.737246e+01  2.000000e+01
   endloop
 endfacet
 facet normal -8.242565e-01  5.662165e-01  0.000000e+00
   outer loop
     vertex  5.653710e+01  4.940832e+01  3.714796e+01
     vertex  4.139974e+01  2.737246e+01  2.000000e+01
     vertex  4.139974e+01  2.737246e+01  3.714796e+01
   endloop
 endfacet
 facet normal -5.662165e-01 -8.242565e-01 -0.000000e+00
   outer loop
     vertex  4.139974e+01  2.737246e+01  3.714796e+01
     vertex  4.139974e+01  2.737246e+01  2.000000e+01
     vertex  5.821566e+01  1.582089e+01  2.000000e+01
   endloop
 endfacet
 facet normal -5.662165e-01 -8.242565e-01  0.000000e+00
   outer loop
     vertex  4.139974e+01  2.737246e+01  3.714796e+01
     vertex  5.821566e+01  1.582089e+01  2.000000e+01
     vertex  5.821566e+01  1.582089e+01  3.714796e+01
   endloop
 endfacet
 facet normal  0.000000e+00 -0.000000e+00  1.000000e+00
   outer loop
     vertex  5.821566e+01  1.582089e+01  3.714796e+01
     vertex  7.335302e+01  3.785675e+01  3.714796e+01
     vertex  5.653710e+01  4.940832e+01  3.714796e+01
   endloop
 endfacet
 facet normal -0.000000e+00  0.000000e+00  1.000000e+00
   outer loop
     vertex  4.139974e+01  2.737246e+01  3.714796e+01
     vertex  5.821566e+01  1.582089e+01  3.714796e+01
     vertex  5.653710e+01  4.940832e+01  3.714796e+01
   endloop
 endfacet
endsolid
