solid 
 facet normal -1.000000e+00  0.000000e+00  0.000000e+00
   outer loop
     vertex  0.000000e+00  0.000000e+00  2.000000e+01
     vertex  0.000000e+00  1.029632e+02  0.000000e+00
     vertex  0.000000e+00  0.000000e+00  0.000000e+00
   endloop
 endfacet
 facet normal -1.000000e+00  0.000000e+00  0.000000e+00
   outer loop
     vertex  0.000000e+00  0.000000e+00  2.000000e+01
     vertex  0.000000e+00  1.029632e+02  2.000000e+01
     vertex  0.000000e+00  1.029632e+02  0.000000e+00
   endloop
 endfacet
 facet normal  0.000000e+00 -1.000000e+00 -0.000000e+00
   outer loop
     vertex  1.139492e+02  0.000000e+00  2.000000e+01
     vertex  0.000000e+00  0.000000e+00  0.000000e+00
     vertex  1.139492e+02  0.000000e+00  0.000000e+00
   endloop
 endfacet
 facet normal -0.000000e+00 -1.000000e+00  0.000000e+00
   outer loop
     vertex  1.139492e+02  0.000000e+00  2.000000e+01
     vertex  0.000000e+00  0.000000e+00  2.000000e+01
     vertex  0.000000e+00  0.000000e+00  0.000000e+00
   endloop
 endfacet
 facet normal  0.000000e+00  0.000000e+00  1.000000e+00
   outer loop
     vertex  4.594266e+01  1.667600e+01  2.000000e+01
     vertex  4.375203e+01  1.861673e+01  2.000000e+01
     vertex  0.000000e+00  0.000000e+00  2.000000e+01
   endloop
 endfacet
 facet normal  0.000000e+00  0.000000e+00  1.000000e+00
   outer loop
     vertex  4.208949e+01  2.102533e+01  2.000000e+01
     vertex  0.000000e+00  0.000000e+00  2.000000e+01
     vertex  4.375203e+01  1.861673e+01  2.000000e+01
   endloop
 endfacet
 facet normal  0.000000e+00  0.000000e+00  1.000000e+00
   outer loop
     vertex  4.853409e+01  1.531591e+01  2.000000e+01
     vertex  4.594266e+01  1.667600e+01  2.000000e+01
     vertex  0.000000e+00  0.000000e+00  2.000000e+01
   endloop
 endfacet
 facet normal  0.000000e+00  0.000000e+00  1.000000e+00
   outer loop
     vertex  4.105169e+01  2.376181e+01  2.000000e+01
     vertex  0.000000e+00  0.000000e+00  2.000000e+01
     vertex  4.208949e+01  2.102533e+01  2.000000e+01
   endloop
 endfacet
 facet normal  0.000000e+00  0.000000e+00  1.000000e+00
   outer loop
     vertex  5.137571e+01  1.461551e+01  2.000000e+01
     vertex  4.853409e+01  1.531591e+01  2.000000e+01
     vertex  0.000000e+00  0.000000e+00  2.000000e+01
   endloop
 endfacet
 facet normal  0.000000e+00  0.000000e+00  1.000000e+00
   outer loop
     vertex  4.069892e+01  2.666713e+01  2.000000e+01
     vertex  0.000000e+00  0.000000e+00  2.000000e+01
     vertex  4.105169e+01  2.376181e+01  2.000000e+01
   endloop
 endfacet
 facet normal  0.000000e+00  0.000000e+00  1.000000e+00
   outer loop
     vertex  5.430237e+01  1.461551e+01  2.000000e+01
     vertex  5.137571e+01  1.461551e+01  2.000000e+01
     vertex  0.000000e+00  0.000000e+00  2.000000e+01
   endloop
 endfacet
 facet normal  0.000000e+00  0.000000e+00  1.000000e+00
   outer loop
     vertex  4.105169e+01  2.957245e+01  2.000000e+01
     vertex  0.000000e+00  0.000000e+00  2.000000e+01
     vertex  4.069892e+01  2.666713e+01  2.000000e+01
   endloop
 endfacet
 facet normal  0.000000e+00  0.000000e+00  1.000000e+00
   outer loop
     vertex  4.208949e+01  3.230893e+01  2.000000e+01
     vertex  0.000000e+00  0.000000e+00  2.000000e+01
     vertex  4.105169e+01  2.957245e+01  2.000000e+01
   endloop
 endfacet
 facet normal  0.000000e+00  0.000000e+00  1.000000e+00
   outer loop
     vertex  0.000000e+00  1.029632e+02  2.000000e+01
     vertex  5.137571e+01  3.871874e+01  2.000000e+01
     vertex  5.430237e+01  3.871874e+01  2.000000e+01
   endloop
 endfacet
 facet normal  0.000000e+00  0.000000e+00  1.000000e+00
   outer loop
     vertex  0.000000e+00  1.029632e+02  2.000000e+01
     vertex  4.853409e+01  3.801835e+01  2.000000e+01
     vertex  5.137571e+01  3.871874e+01  2.000000e+01
   endloop
 endfacet
 facet normal  0.000000e+00  0.000000e+00  1.000000e+00
   outer loop
     vertex  0.000000e+00  1.029632e+02  2.000000e+01
     vertex  4.594266e+01  3.665826e+01  2.000000e+01
     vertex  4.853409e+01  3.801835e+01  2.000000e+01
   endloop
 endfacet
 facet normal  0.000000e+00  0.000000e+00  1.000000e+00
   outer loop
     vertex  0.000000e+00  1.029632e+02  2.000000e+01
     vertex  4.375203e+01  3.471752e+01  2.000000e+01
     vertex  4.594266e+01  3.665826e+01  2.000000e+01
   endloop
 endfacet
 facet normal  0.000000e+00  0.000000e+00  1.000000e+00
   outer loop
     vertex  0.000000e+00  1.029632e+02  2.000000e+01
     vertex  4.208949e+01  3.230893e+01  2.000000e+01
     vertex  4.375203e+01  3.471752e+01  2.000000e+01
   endloop
 endfacet
 facet normal  0.000000e+00  0.000000e+00  1.000000e+00
   outer loop
     vertex  0.000000e+00  1.029632e+02  2.000000e+01
     vertex  0.000000e+00  0.000000e+00  2.000000e+01
     vertex  4.208949e+01  3.230893e+01  2.000000e+01
   endloop
 endfacet
 facet normal  0.000000e+00  0.000000e+00  1.000000e+00
   outer loop
     vertex  1.139492e+02  0.000000e+00  2.000000e+01
     vertex  6.462640e+01  2.957245e+01  2.000000e+01
     vertex  6.497917e+01  2.666713e+01  2.000000e+01
   endloop
 endfacet
 facet normal  0.000000e+00  0.000000e+00  1.000000e+00
   outer loop
     vertex  1.139492e+02  0.000000e+00  2.000000e+01
     vertex  6.358859e+01  3.230893e+01  2.000000e+01
     vertex  6.462640e+01  2.957245e+01  2.000000e+01
   endloop
 endfacet
 facet normal  0.000000e+00  0.000000e+00  1.000000e+00
   outer loop
     vertex  1.139492e+02  0.000000e+00  2.000000e+01
     vertex  5.714399e+01  1.531591e+01  2.000000e+01
     vertex  5.430237e+01  1.461551e+01  2.000000e+01
   endloop
 endfacet
 facet normal  0.000000e+00  0.000000e+00  1.000000e+00
   outer loop
     vertex  1.139492e+02  0.000000e+00  2.000000e+01
     vertex  5.973542e+01  1.667600e+01  2.000000e+01
     vertex  5.714399e+01  1.531591e+01  2.000000e+01
   endloop
 endfacet
 facet normal  0.000000e+00  0.000000e+00  1.000000e+00
   outer loop
     vertex  1.139492e+02  0.000000e+00  2.000000e+01
     vertex  6.192606e+01  1.861673e+01  2.000000e+01
     vertex  5.973542e+01  1.667600e+01  2.000000e+01
   endloop
 endfacet
 facet normal  0.000000e+00  0.000000e+00  1.000000e+00
   outer loop
     vertex  1.139492e+02  0.000000e+00  2.000000e+01
     vertex  6.358859e+01  2.102533e+01  2.000000e+01
     vertex  6.192606e+01  1.861673e+01  2.000000e+01
   endloop
 endfacet
 facet normal  0.000000e+00  0.000000e+00  1.000000e+00
   outer loop
     vertex  1.139492e+02  0.000000e+00  2.000000e+01
     vertex  6.462640e+01  2.376181e+01  2.000000e+01
     vertex  6.358859e+01  2.102533e+01  2.000000e+01
   endloop
 endfacet
 facet normal  0.000000e+00  0.000000e+00  1.000000e+00
   outer loop
     vertex  1.139492e+02  0.000000e+00  2.000000e+01
     vertex  6.497917e+01  2.666713e+01  2.000000e+01
     vertex  6.462640e+01  2.376181e+01  2.000000e+01
   endloop
 endfacet
 facet normal  0.000000e+00  0.000000e+00  1.000000e+00
   outer loop
     vertex  1.139492e+02  0.000000e+00  2.000000e+01
     vertex  5.430237e+01  1.461551e+01  2.000000e+01
     vertex  0.000000e+00  0.000000e+00  2.000000e+01
   endloop
 endfacet
 facet normal  0.000000e+00  0.000000e+00  1.000000e+00
   outer loop
     vertex  1.139492e+02  1.029632e+02  2.000000e+01
     vertex  6.192606e+01  3.471752e+01  2.000000e+01
     vertex  6.358859e+01  3.230893e+01  2.000000e+01
   endloop
 endfacet
 facet normal  0.000000e+00  0.000000e+00  1.000000e+00
   outer loop
     vertex  1.139492e+02  1.029632e+02  2.000000e+01
     vertex  5.973542e+01  3.665826e+01  2.000000e+01
     vertex  6.192606e+01  3.471752e+01  2.000000e+01
   endloop
 endfacet
 facet normal  0.000000e+00  0.000000e+00  1.000000e+00
   outer loop
     vertex  1.139492e+02  1.029632e+02  2.000000e+01
     vertex  5.714399e+01  3.801835e+01  2.000000e+01
     vertex  5.973542e+01  3.665826e+01  2.000000e+01
   endloop
 endfacet
 facet normal  0.000000e+00  0.000000e+00  1.000000e+00
   outer loop
     vertex  1.139492e+02  1.029632e+02  2.000000e+01
     vertex  5.430237e+01  3.871874e+01  2.000000e+01
     vertex  5.714399e+01  3.801835e+01  2.000000e+01
   endloop
 endfacet
 facet normal  0.000000e+00  0.000000e+00  1.000000e+00
   outer loop
     vertex  1.139492e+02  1.029632e+02  2.000000e+01
     vertex  0.000000e+00  1.029632e+02  2.000000e+01
     vertex  5.430237e+01  3.871874e+01  2.000000e+01
   endloop
 endfacet
 facet normal  0.000000e+00  0.000000e+00  1.000000e+00
   outer loop
     vertex  1.139492e+02  1.029632e+02  2.000000e+01
     vertex  6.358859e+01  3.230893e+01  2.000000e+01
     vertex  1.139492e+02  0.000000e+00  2.000000e+01
   endloop
 endfacet
 facet normal  0.000000e+00  1.000000e+00  0.000000e+00
   outer loop
     vertex  1.139492e+02  1.029632e+02  2.000000e+01
     vertex  1.139492e+02  1.029632e+02  0.000000e+00
     vertex  0.000000e+00  1.029632e+02  0.000000e+00
   endloop
 endfacet
 facet normal  0.000000e+00  1.000000e+00  0.000000e+00
   outer loop
     vertex  1.139492e+02  1.029632e+02  2.000000e+01
     vertex  0.000000e+00  1.029632e+02  0.000000e+00
     vertex  0.000000e+00  1.029632e+02  2.000000e+01
   endloop
 endfacet
 facet normal -0.000000e+00  0.000000e+00 -1.000000e+00
   outer loop
     vertex  1.139492e+02  1.029632e+02  0.000000e+00
     vertex  0.000000e+00  0.000000e+00  0.000000e+00
     vertex  0.000000e+00  1.029632e+02  0.000000e+00
   endloop
 endfacet
 facet normal  0.000000e+00 -0.000000e+00 -1.000000e+00
   outer loop
     vertex  1.139492e+02  1.029632e+02  0.000000e+00
     vertex  1.139492e+02  0.000000e+00  0.000000e+00
     vertex  0.000000e+00  0.000000e+00  0.000000e+00
   endloop
 endfacet
 facet normal  1.000000e+00  0.000000e+00  0.000000e+00
   outer loop
     vertex  1.139492e+02  0.000000e+00  2.000000e+01
     vertex  1.139492e+02  0.000000e+00  0.000000e+00
     vertex  1.139492e+02  1.029632e+02  0.000000e+00
   endloop
 endfacet
 facet normal  1.000000e+00 -0.000000e+00  0.000000e+00
   outer loop
     vertex  1.139492e+02  0.000000e+00  2.000000e+01
     vertex  1.139492e+02  1.029632e+02  0.000000e+00
     vertex  1.139492e+02  1.029632e+02  2.000000e+01
   endloop
 endfacet
 facet normal  9.927089e-01  1.205367e-01  0.000000e+00
   outer loop
     vertex  6.462640e+01  2.957245e+01  4.103081e+01
     vertex  6.497917e+01  2.666713e+01  4.103081e+01
     vertex  6.497917e+01  2.666713e+01  2.000000e+01
   endloop
 endfacet
 facet normal  9.927089e-01  1.205367e-01  0.000000e+00
   outer loop
     vertex  6.462640e+01  2.957245e+01  4.103081e+01
     vertex  6.497917e+01  2.666713e+01  2.000000e+01
     vertex  6.462640e+01  2.957245e+01  2.000000e+01
   endloop
 endfacet
 facet normal  9.350162e-01  3.546049e-01  0.000000e+00
   outer loop
     vertex  6.358859e+01  3.230893e+01  4.103081e+01
     vertex  6.462640e+01  2.957245e+01  2.000000e+01
     vertex  6.358859e+01  3.230893e+01  2.000000e+01
   endloop
 endfacet
 facet normal  9.350162e-01  3.546049e-01  0.000000e+00
   outer loop
     vertex  6.358859e+01  3.230893e+01  4.103081e+01
     vertex  6.462640e+01  2.957245e+01  4.103081e+01
     vertex  6.462640e+01  2.957245e+01  2.000000e+01
   endloop
 endfacet
 facet normal  8.229839e-01  5.680647e-01  0.000000e+00
   outer loop
     vertex  6.192606e+01  3.471752e+01  4.103081e+01
     vertex  6.358859e+01  3.230893e+01  2.000000e+01
     vertex  6.192606e+01  3.471752e+01  2.000000e+01
   endloop
 endfacet
 facet normal  6.631227e-01  7.485107e-01  0.000000e+00
   outer loop
     vertex  6.192606e+01  3.471752e+01  4.103081e+01
     vertex  6.192606e+01  3.471752e+01  2.000000e+01
     vertex  5.973542e+01  3.665826e+01  2.000000e+01
   endloop
 endfacet
 facet normal  8.229839e-01  5.680647e-01  0.000000e+00
   outer loop
     vertex  6.192606e+01  3.471752e+01  4.103081e+01
     vertex  6.358859e+01  3.230893e+01  4.103081e+01
     vertex  6.358859e+01  3.230893e+01  2.000000e+01
   endloop
 endfacet
 facet normal  6.631227e-01  7.485107e-01  0.000000e+00
   outer loop
     vertex  5.973542e+01  3.665826e+01  4.103081e+01
     vertex  6.192606e+01  3.471752e+01  4.103081e+01
     vertex  5.973542e+01  3.665826e+01  2.000000e+01
   endloop
 endfacet
 facet normal  4.647232e-01  8.854560e-01  0.000000e+00
   outer loop
     vertex  5.714399e+01  3.801835e+01  4.103081e+01
     vertex  5.973542e+01  3.665826e+01  2.000000e+01
     vertex  5.714399e+01  3.801835e+01  2.000000e+01
   endloop
 endfacet
 facet normal  2.393157e-01  9.709418e-01  0.000000e+00
   outer loop
     vertex  5.714399e+01  3.801835e+01  4.103081e+01
     vertex  5.714399e+01  3.801835e+01  2.000000e+01
     vertex  5.430237e+01  3.871874e+01  2.000000e+01
   endloop
 endfacet
 facet normal  4.647232e-01  8.854560e-01  0.000000e+00
   outer loop
     vertex  5.714399e+01  3.801835e+01  4.103081e+01
     vertex  5.973542e+01  3.665826e+01  4.103081e+01
     vertex  5.973542e+01  3.665826e+01  2.000000e+01
   endloop
 endfacet
 facet normal  2.393157e-01  9.709418e-01  0.000000e+00
   outer loop
     vertex  5.430237e+01  3.871874e+01  4.103081e+01
     vertex  5.714399e+01  3.801835e+01  4.103081e+01
     vertex  5.430237e+01  3.871874e+01  2.000000e+01
   endloop
 endfacet
 facet normal  0.000000e+00  1.000000e+00  0.000000e+00
   outer loop
     vertex  5.137571e+01  3.871874e+01  4.103081e+01
     vertex  5.430237e+01  3.871874e+01  2.000000e+01
     vertex  5.137571e+01  3.871874e+01  2.000000e+01
   endloop
 endfacet
 facet normal -0.000000e+00  1.000000e+00  0.000000e+00
   outer loop
     vertex  5.137571e+01  3.871874e+01  4.103081e+01
     vertex  5.430237e+01  3.871874e+01  4.103081e+01
     vertex  5.430237e+01  3.871874e+01  2.000000e+01
   endloop
 endfacet
 facet normal -2.393157e-01  9.709418e-01  0.000000e+00
   outer loop
     vertex  4.853409e+01  3.801835e+01  4.103081e+01
     vertex  5.137571e+01  3.871874e+01  2.000000e+01
     vertex  4.853409e+01  3.801835e+01  2.000000e+01
   endloop
 endfacet
 facet normal -2.393157e-01  9.709418e-01  0.000000e+00
   outer loop
     vertex  4.853409e+01  3.801835e+01  4.103081e+01
     vertex  5.137571e+01  3.871874e+01  4.103081e+01
     vertex  5.137571e+01  3.871874e+01  2.000000e+01
   endloop
 endfacet
 facet normal -4.647232e-01  8.854560e-01  0.000000e+00
   outer loop
     vertex  4.594266e+01  3.665826e+01  4.103081e+01
     vertex  4.853409e+01  3.801835e+01  2.000000e+01
     vertex  4.594266e+01  3.665826e+01  2.000000e+01
   endloop
 endfacet
 facet normal -4.647232e-01  8.854560e-01  0.000000e+00
   outer loop
     vertex  4.594266e+01  3.665826e+01  4.103081e+01
     vertex  4.853409e+01  3.801835e+01  4.103081e+01
     vertex  4.853409e+01  3.801835e+01  2.000000e+01
   endloop
 endfacet
 facet normal -6.631227e-01  7.485107e-01  0.000000e+00
   outer loop
     vertex  4.375203e+01  3.471752e+01  4.103081e+01
     vertex  4.594266e+01  3.665826e+01  2.000000e+01
     vertex  4.375203e+01  3.471752e+01  2.000000e+01
   endloop
 endfacet
 facet normal -6.631227e-01  7.485107e-01  0.000000e+00
   outer loop
     vertex  4.375203e+01  3.471752e+01  4.103081e+01
     vertex  4.594266e+01  3.665826e+01  4.103081e+01
     vertex  4.594266e+01  3.665826e+01  2.000000e+01
   endloop
 endfacet
 facet normal -8.229839e-01  5.680647e-01  0.000000e+00
   outer loop
     vertex  4.208949e+01  3.230893e+01  4.103081e+01
     vertex  4.375203e+01  3.471752e+01  4.103081e+01
     vertex  4.375203e+01  3.471752e+01  2.000000e+01
   endloop
 endfacet
 facet normal -8.229839e-01  5.680647e-01  0.000000e+00
   outer loop
     vertex  4.208949e+01  3.230893e+01  4.103081e+01
     vertex  4.375203e+01  3.471752e+01  2.000000e+01
     vertex  4.208949e+01  3.230893e+01  2.000000e+01
   endloop
 endfacet
 facet normal -9.350162e-01  3.546049e-01  0.000000e+00
   outer loop
     vertex  4.105169e+01  2.957245e+01  4.103081e+01
     vertex  4.208949e+01  3.230893e+01  4.103081e+01
     vertex  4.208949e+01  3.230893e+01  2.000000e+01
   endloop
 endfacet
 facet normal -9.350162e-01  3.546049e-01  0.000000e+00
   outer loop
     vertex  4.105169e+01  2.957245e+01  4.103081e+01
     vertex  4.208949e+01  3.230893e+01  2.000000e+01
     vertex  4.105169e+01  2.957245e+01  2.000000e+01
   endloop
 endfacet
 facet normal -9.927089e-01  1.205367e-01  0.000000e+00
   outer loop
     vertex  4.105169e+01  2.957245e+01  4.103081e+01
     vertex  4.105169e+01  2.957245e+01  2.000000e+01
     vertex  4.069892e+01  2.666713e+01  2.000000e+01
   endloop
 endfacet
 facet normal -9.927089e-01  1.205367e-01  0.000000e+00
   outer loop
     vertex  4.069892e+01  2.666713e+01  4.103081e+01
     vertex  4.105169e+01  2.957245e+01  4.103081e+01
     vertex  4.069892e+01  2.666713e+01  2.000000e+01
   endloop
 endfacet
 facet normal -9.927089e-01 -1.205367e-01  0.000000e+00
   outer loop
     vertex  4.105169e+01  2.376181e+01  4.103081e+01
     vertex  4.069892e+01  2.666713e+01  4.103081e+01
     vertex  4.069892e+01  2.666713e+01  2.000000e+01
   endloop
 endfacet
 facet normal -9.927089e-01 -1.205367e-01 -0.000000e+00
   outer loop
     vertex  4.105169e+01  2.376181e+01  4.103081e+01
     vertex  4.069892e+01  2.666713e+01  2.000000e+01
     vertex  4.105169e+01  2.376181e+01  2.000000e+01
   endloop
 endfacet
 facet normal -9.350162e-01 -3.546049e-01 -0.000000e+00
   outer loop
     vertex  4.105169e+01  2.376181e+01  4.103081e+01
     vertex  4.105169e+01  2.376181e+01  2.000000e+01
     vertex  4.208949e+01  2.102533e+01  2.000000e+01
   endloop
 endfacet
 facet normal -9.350162e-01 -3.546049e-01 -0.000000e+00
   outer loop
     vertex  4.208949e+01  2.102533e+01  4.103081e+01
     vertex  4.105169e+01  2.376181e+01  4.103081e+01
     vertex  4.208949e+01  2.102533e+01  2.000000e+01
   endloop
 endfacet
 facet normal -8.229839e-01 -5.680647e-01  0.000000e+00
   outer loop
     vertex  4.375203e+01  1.861673e+01  4.103081e+01
     vertex  4.208949e+01  2.102533e+01  4.103081e+01
     vertex  4.208949e+01  2.102533e+01  2.000000e+01
   endloop
 endfacet
 facet normal -8.229839e-01 -5.680647e-01 -0.000000e+00
   outer loop
     vertex  4.375203e+01  1.861673e+01  4.103081e+01
     vertex  4.208949e+01  2.102533e+01  2.000000e+01
     vertex  4.375203e+01  1.861673e+01  2.000000e+01
   endloop
 endfacet
 facet normal -6.631227e-01 -7.485107e-01  0.000000e+00
   outer loop
     vertex  4.594266e+01  1.667600e+01  4.103081e+01
     vertex  4.375203e+01  1.861673e+01  4.103081e+01
     vertex  4.375203e+01  1.861673e+01  2.000000e+01
   endloop
 endfacet
 facet normal -6.631227e-01 -7.485107e-01 -0.000000e+00
   outer loop
     vertex  4.594266e+01  1.667600e+01  4.103081e+01
     vertex  4.375203e+01  1.861673e+01  2.000000e+01
     vertex  4.594266e+01  1.667600e+01  2.000000e+01
   endloop
 endfacet
 facet normal -4.647232e-01 -8.854560e-01  0.000000e+00
   outer loop
     vertex  4.853409e+01  1.531591e+01  4.103081e+01
     vertex  4.594266e+01  1.667600e+01  4.103081e+01
     vertex  4.594266e+01  1.667600e+01  2.000000e+01
   endloop
 endfacet
 facet normal -4.647232e-01 -8.854560e-01 -0.000000e+00
   outer loop
     vertex  4.853409e+01  1.531591e+01  4.103081e+01
     vertex  4.594266e+01  1.667600e+01  2.000000e+01
     vertex  4.853409e+01  1.531591e+01  2.000000e+01
   endloop
 endfacet
 facet normal -2.393157e-01 -9.709418e-01  0.000000e+00
   outer loop
     vertex  5.137571e+01  1.461551e+01  4.103081e+01
     vertex  4.853409e+01  1.531591e+01  4.103081e+01
     vertex  4.853409e+01  1.531591e+01  2.000000e+01
   endloop
 endfacet
 facet normal -2.393157e-01 -9.709418e-01 -0.000000e+00
   outer loop
     vertex  5.137571e+01  1.461551e+01  4.103081e+01
     vertex  4.853409e+01  1.531591e+01  2.000000e+01
     vertex  5.137571e+01  1.461551e+01  2.000000e+01
   endloop
 endfacet
 facet normal -2.427827e-15 -1.000000e+00  0.000000e+00
   outer loop
     vertex  5.430237e+01  1.461551e+01  4.103081e+01
     vertex  5.137571e+01  1.461551e+01  4.103081e+01
     vertex  5.137571e+01  1.461551e+01  2.000000e+01
   endloop
 endfacet
 facet normal -2.427827e-15 -1.000000e+00 -0.000000e+00
   outer loop
     vertex  5.430237e+01  1.461551e+01  4.103081e+01
     vertex  5.137571e+01  1.461551e+01  2.000000e+01
     vertex  5.430237e+01  1.461551e+01  2.000000e+01
   endloop
 endfacet
 facet normal  2.393157e-01 -9.709418e-01  0.000000e+00
   outer loop
     vertex  5.714399e+01  1.531591e+01  4.103081e+01
     vertex  5.430237e+01  1.461551e+01  4.103081e+01
     vertex  5.430237e+01  1.461551e+01  2.000000e+01
   endloop
 endfacet
 facet normal  2.393157e-01 -9.709418e-01  0.000000e+00
   outer loop
     vertex  5.714399e+01  1.531591e+01  4.103081e+01
     vertex  5.430237e+01  1.461551e+01  2.000000e+01
     vertex  5.714399e+01  1.531591e+01  2.000000e+01
   endloop
 endfacet
 facet normal  4.647232e-01 -8.854560e-01  0.000000e+00
   outer loop
     vertex  5.973542e+01  1.667600e+01  4.103081e+01
     vertex  5.714399e+01  1.531591e+01  4.103081e+01
     vertex  5.714399e+01  1.531591e+01  2.000000e+01
   endloop
 endfacet
 facet normal  4.647232e-01 -8.854560e-01  0.000000e+00
   outer loop
     vertex  5.973542e+01  1.667600e+01  4.103081e+01
     vertex  5.714399e+01  1.531591e+01  2.000000e+01
     vertex  5.973542e+01  1.667600e+01  2.000000e+01
   endloop
 endfacet
 facet normal  6.631227e-01 -7.485107e-01  0.000000e+00
   outer loop
     vertex  6.192606e+01  1.861673e+01  4.103081e+01
     vertex  5.973542e+01  1.667600e+01  4.103081e+01
     vertex  5.973542e+01  1.667600e+01  2.000000e+01
   endloop
 endfacet
 facet normal  6.631227e-01 -7.485107e-01  0.000000e+00
   outer loop
     vertex  6.192606e+01  1.861673e+01  4.103081e+01
     vertex  5.973542e+01  1.667600e+01  2.000000e+01
     vertex  6.192606e+01  1.861673e+01  2.000000e+01
   endloop
 endfacet
 facet normal  8.229839e-01 -5.680647e-01  0.000000e+00
   outer loop
     vertex  6.358859e+01  2.102533e+01  4.103081e+01
     vertex  6.192606e+01  1.861673e+01  4.103081e+01
     vertex  6.192606e+01  1.861673e+01  2.000000e+01
   endloop
 endfacet
 facet normal  8.229839e-01 -5.680647e-01  0.000000e+00
   outer loop
     vertex  6.358859e+01  2.102533e+01  4.103081e+01
     vertex  6.192606e+01  1.861673e+01  2.000000e+01
     vertex  6.358859e+01  2.102533e+01  2.000000e+01
   endloop
 endfacet
 facet normal  9.350162e-01 -3.546049e-01  0.000000e+00
   outer loop
     vertex  6.462640e+01  2.376181e+01  4.103081e+01
     vertex  6.358859e+01  2.102533e+01  2.000000e+01
     vertex  6.462640e+01  2.376181e+01  2.000000e+01
   endloop
 endfacet
 facet normal  9.350162e-01 -3.546049e-01  0.000000e+00
   outer loop
     vertex  6.462640e+01  2.376181e+01  4.103081e+01
     vertex  6.358859e+01  2.102533e+01  4.103081e+01
     vertex  6.358859e+01  2.102533e+01  2.000000e+01
   endloop
 endfacet
 facet normal  9.927089e-01 -1.205367e-01  0.000000e+00
   outer loop
     vertex  6.497917e+01  2.666713e+01  4.103081e+01
     vertex  6.462640e+01  2.376181e+01  2.000000e+01
     vertex  6.497917e+01  2.666713e+01  2.000000e+01
   endloop
 endfacet
 facet normal  9.927089e-01 -1.205367e-01  0.000000e+00
   outer loop
     vertex  6.497917e+01  2.666713e+01  4.103081e+01
     vertex  6.462640e+01  2.376181e+01  4.103081e+01
     vertex  6.462640e+01  2.376181e+01  2.000000e+01
   endloop
 endfacet
 facet normal  0.000000e+00  0.000000e+00  1.000000e+00
   outer loop
     vertex  4.853409e+01  1.531591e+01  4.103081e+01
     vertex  4.375203e+01  1.861673e+01  4.103081e+01
     vertex  4.594266e+01  1.667600e+01  4.103081e+01
   endloop
 endfacet
 facet normal  0.000000e+00  0.000000e+00  1.000000e+00
   outer loop
     vertex  5.714399e+01  1.531591e+01  4.103081e+01
     vertex  4.853409e+01  1.531591e+01  4.103081e+01
     vertex  5.137571e+01  1.461551e+01  4.103081e+01
   endloop
 endfacet
 facet normal  0.000000e+00  0.000000e+00  1.000000e+00
   outer loop
     vertex  5.714399e+01  1.531591e+01  4.103081e+01
     vertex  5.137571e+01  1.461551e+01  4.103081e+01
     vertex  5.430237e+01  1.461551e+01  4.103081e+01
   endloop
 endfacet
 facet normal  0.000000e+00  0.000000e+00  1.000000e+00
   outer loop
     vertex  4.208949e+01  3.230893e+01  4.103081e+01
     vertex  4.105169e+01  2.957245e+01  4.103081e+01
     vertex  4.069892e+01  2.666713e+01  4.103081e+01
   endloop
 endfacet
 facet normal  0.000000e+00  0.000000e+00  1.000000e+00
   outer loop
     vertex  4.208949e+01  3.230893e+01  4.103081e+01
     vertex  4.069892e+01  2.666713e+01  4.103081e+01
     vertex  4.105169e+01  2.376181e+01  4.103081e+01
   endloop
 endfacet
 facet normal  0.000000e+00  0.000000e+00  1.000000e+00
   outer loop
     vertex  4.375203e+01  3.471752e+01  4.103081e+01
     vertex  4.105169e+01  2.376181e+01  4.103081e+01
     vertex  4.208949e+01  2.102533e+01  4.103081e+01
   endloop
 endfacet
 facet normal  0.000000e+00  0.000000e+00  1.000000e+00
   outer loop
     vertex  4.375203e+01  3.471752e+01  4.103081e+01
     vertex  4.208949e+01  2.102533e+01  4.103081e+01
     vertex  4.375203e+01  1.861673e+01  4.103081e+01
   endloop
 endfacet
 facet normal  0.000000e+00  0.000000e+00  1.000000e+00
   outer loop
     vertex  4.375203e+01  3.471752e+01  4.103081e+01
     vertex  4.375203e+01  1.861673e+01  4.103081e+01
     vertex  4.853409e+01  1.531591e+01  4.103081e+01
   endloop
 endfacet
 facet normal  0.000000e+00  0.000000e+00  1.000000e+00
   outer loop
     vertex  4.375203e+01  3.471752e+01  4.103081e+01
     vertex  4.208949e+01  3.230893e+01  4.103081e+01
     vertex  4.105169e+01  2.376181e+01  4.103081e+01
   endloop
 endfacet
 facet normal  0.000000e+00  0.000000e+00  1.000000e+00
   outer loop
     vertex  6.192606e+01  1.861673e+01  4.103081e+01
     vertex  5.714399e+01  1.531591e+01  4.103081e+01
     vertex  5.973542e+01  1.667600e+01  4.103081e+01
   endloop
 endfacet
 facet normal  0.000000e+00  0.000000e+00  1.000000e+00
   outer loop
     vertex  6.192606e+01  1.861673e+01  4.103081e+01
     vertex  4.853409e+01  1.531591e+01  4.103081e+01
     vertex  5.714399e+01  1.531591e+01  4.103081e+01
   endloop
 endfacet
 facet normal  0.000000e+00  0.000000e+00  1.000000e+00
   outer loop
     vertex  4.853409e+01  3.801835e+01  4.103081e+01
     vertex  4.594266e+01  3.665826e+01  4.103081e+01
     vertex  4.375203e+01  3.471752e+01  4.103081e+01
   endloop
 endfacet
 facet normal  0.000000e+00  0.000000e+00  1.000000e+00
   outer loop
     vertex  5.137571e+01  3.871874e+01  4.103081e+01
     vertex  4.375203e+01  3.471752e+01  4.103081e+01
     vertex  4.853409e+01  1.531591e+01  4.103081e+01
   endloop
 endfacet
 facet normal  0.000000e+00  0.000000e+00  1.000000e+00
   outer loop
     vertex  5.137571e+01  3.871874e+01  4.103081e+01
     vertex  4.853409e+01  3.801835e+01  4.103081e+01
     vertex  4.375203e+01  3.471752e+01  4.103081e+01
   endloop
 endfacet
 facet normal  0.000000e+00  0.000000e+00  1.000000e+00
   outer loop
     vertex  5.137571e+01  3.871874e+01  4.103081e+01
     vertex  4.853409e+01  1.531591e+01  4.103081e+01
     vertex  6.192606e+01  1.861673e+01  4.103081e+01
   endloop
 endfacet
 facet normal  0.000000e+00  0.000000e+00  1.000000e+00
   outer loop
     vertex  6.358859e+01  3.230893e+01  4.103081e+01
     vertex  6.497917e+01  2.666713e+01  4.103081e+01
     vertex  6.462640e+01  2.957245e+01  4.103081e+01
   endloop
 endfacet
 facet normal  0.000000e+00  0.000000e+00  1.000000e+00
   outer loop
     vertex  6.358859e+01  3.230893e+01  4.103081e+01
     vertex  6.358859e+01  2.102533e+01  4.103081e+01
     vertex  6.462640e+01  2.376181e+01  4.103081e+01
   endloop
 endfacet
 facet normal  0.000000e+00  0.000000e+00  1.000000e+00
   outer loop
     vertex  6.358859e+01  3.230893e+01  4.103081e+01
     vertex  6.462640e+01  2.376181e+01  4.103081e+01
     vertex  6.497917e+01  2.666713e+01  4.103081e+01
   endloop
 endfacet
 facet normal  0.000000e+00  0.000000e+00  1.000000e+00
   outer loop
     vertex  6.192606e+01  3.471752e+01  4.103081e+01
     vertex  5.973542e+01  3.665826e+01  4.103081e+01
     vertex  5.714399e+01  3.801835e+01  4.103081e+01
   endloop
 endfacet
 facet normal  0.000000e+00  0.000000e+00  1.000000e+00
   outer loop
     vertex  6.192606e+01  3.471752e+01  4.103081e+01
     vertex  5.714399e+01  3.801835e+01  4.103081e+01
     vertex  5.430237e+01  3.871874e+01  4.103081e+01
   endloop
 endfacet
 facet normal  0.000000e+00  0.000000e+00  1.000000e+00
   outer loop
     vertex  6.192606e+01  3.471752e+01  4.103081e+01
     vertex  5.430237e+01  3.871874e+01  4.103081e+01
     vertex  5.137571e+01  3.871874e+01  4.103081e+01
   endloop
 endfacet
 facet normal  0.000000e+00  0.000000e+00  1.000000e+00
   outer loop
     vertex  6.192606e+01  3.471752e+01  4.103081e+01
     vertex  6.192606e+01  1.861673e+01  4.103081e+01
     vertex  6.358859e+01  2.102533e+01  4.103081e+01
   endloop
 endfacet
 facet normal  0.000000e+00  0.000000e+00  1.000000e+00
   outer loop
     vertex  6.192606e+01  3.471752e+01  4.103081e+01
     vertex  5.137571e+01  3.871874e+01  4.103081e+01
     vertex  6.192606e+01  1.861673e+01  4.103081e+01
   endloop
 endfacet
 facet normal  0.000000e+00  0.000000e+00  1.000000e+00
   outer loop
     vertex  6.192606e+01  3.471752e+01  4.103081e+01
     vertex  6.358859e+01  2.102533e+01  4.103081e+01
     vertex  6.358859e+01  3.230893e+01  4.103081e+01
   endloop
 endfacet
endsolid
