solid 
 facet normal -1.000000e+00  0.000000e+00  0.000000e+00
   outer loop
     vertex  0.000000e+00  0.000000e+00  2.000000e+01
     vertex  0.000000e+00  1.020681e+02  0.000000e+00
     vertex  0.000000e+00  0.000000e+00  0.000000e+00
   endloop
 endfacet
 facet normal -1.000000e+00  0.000000e+00  0.000000e+00
   outer loop
     vertex  0.000000e+00  0.000000e+00  2.000000e+01
     vertex  0.000000e+00  1.020681e+02  2.000000e+01
     vertex  0.000000e+00  1.020681e+02  0.000000e+00
   endloop
 endfacet
 facet normal  0.000000e+00 -1.000000e+00 -0.000000e+00
   outer loop
     vertex  1.369067e+02  0.000000e+00  2.000000e+01
     vertex  0.000000e+00  0.000000e+00  0.000000e+00
     vertex  1.369067e+02  0.000000e+00  0.000000e+00
   endloop
 endfacet
 facet normal -0.000000e+00 -1.000000e+00  0.000000e+00
   outer loop
     vertex  1.369067e+02  0.000000e+00  2.000000e+01
     vertex  0.000000e+00  0.000000e+00  2.000000e+01
     vertex  0.000000e+00  0.000000e+00  0.000000e+00
   endloop
 endfacet
 facet normal  0.000000e+00  0.000000e+00  1.000000e+00
   outer loop
     vertex  3.890879e+01  3.254453e+01  2.000000e+01
     vertex  3.690182e+01  3.432255e+01  2.000000e+01
     vertex  0.000000e+00  0.000000e+00  2.000000e+01
   endloop
 endfacet
 facet normal  0.000000e+00  0.000000e+00  1.000000e+00
   outer loop
     vertex  3.537867e+01  3.652922e+01  2.000000e+01
     vertex  0.000000e+00  0.000000e+00  2.000000e+01
     vertex  3.690182e+01  3.432255e+01  2.000000e+01
   endloop
 endfacet
 facet normal  0.000000e+00  0.000000e+00  1.000000e+00
   outer loop
     vertex  4.128296e+01  3.129847e+01  2.000000e+01
     vertex  3.890879e+01  3.254453e+01  2.000000e+01
     vertex  0.000000e+00  0.000000e+00  2.000000e+01
   endloop
 endfacet
 facet normal  0.000000e+00  0.000000e+00  1.000000e+00
   outer loop
     vertex  3.442787e+01  3.903627e+01  2.000000e+01
     vertex  0.000000e+00  0.000000e+00  2.000000e+01
     vertex  3.537867e+01  3.652922e+01  2.000000e+01
   endloop
 endfacet
 facet normal  0.000000e+00  0.000000e+00  1.000000e+00
   outer loop
     vertex  4.388635e+01  3.065679e+01  2.000000e+01
     vertex  4.128296e+01  3.129847e+01  2.000000e+01
     vertex  0.000000e+00  0.000000e+00  2.000000e+01
   endloop
 endfacet
 facet normal  0.000000e+00  0.000000e+00  1.000000e+00
   outer loop
     vertex  3.410467e+01  4.169802e+01  2.000000e+01
     vertex  0.000000e+00  0.000000e+00  2.000000e+01
     vertex  3.442787e+01  3.903627e+01  2.000000e+01
   endloop
 endfacet
 facet normal  0.000000e+00  0.000000e+00  1.000000e+00
   outer loop
     vertex  4.656764e+01  3.065679e+01  2.000000e+01
     vertex  4.388635e+01  3.065679e+01  2.000000e+01
     vertex  0.000000e+00  0.000000e+00  2.000000e+01
   endloop
 endfacet
 facet normal  0.000000e+00  0.000000e+00  1.000000e+00
   outer loop
     vertex  3.442787e+01  4.435976e+01  2.000000e+01
     vertex  0.000000e+00  0.000000e+00  2.000000e+01
     vertex  3.410467e+01  4.169802e+01  2.000000e+01
   endloop
 endfacet
 facet normal  0.000000e+00  0.000000e+00  1.000000e+00
   outer loop
     vertex  0.000000e+00  1.020681e+02  2.000000e+01
     vertex  4.656764e+01  5.273924e+01  2.000000e+01
     vertex  4.917102e+01  5.209757e+01  2.000000e+01
   endloop
 endfacet
 facet normal  0.000000e+00  0.000000e+00  1.000000e+00
   outer loop
     vertex  0.000000e+00  1.020681e+02  2.000000e+01
     vertex  4.388635e+01  5.273924e+01  2.000000e+01
     vertex  4.656764e+01  5.273924e+01  2.000000e+01
   endloop
 endfacet
 facet normal  0.000000e+00  0.000000e+00  1.000000e+00
   outer loop
     vertex  0.000000e+00  1.020681e+02  2.000000e+01
     vertex  4.128296e+01  5.209757e+01  2.000000e+01
     vertex  4.388635e+01  5.273924e+01  2.000000e+01
   endloop
 endfacet
 facet normal  0.000000e+00  0.000000e+00  1.000000e+00
   outer loop
     vertex  0.000000e+00  1.020681e+02  2.000000e+01
     vertex  3.890879e+01  5.085151e+01  2.000000e+01
     vertex  4.128296e+01  5.209757e+01  2.000000e+01
   endloop
 endfacet
 facet normal  0.000000e+00  0.000000e+00  1.000000e+00
   outer loop
     vertex  0.000000e+00  1.020681e+02  2.000000e+01
     vertex  3.690182e+01  4.907348e+01  2.000000e+01
     vertex  3.890879e+01  5.085151e+01  2.000000e+01
   endloop
 endfacet
 facet normal  0.000000e+00  0.000000e+00  1.000000e+00
   outer loop
     vertex  0.000000e+00  1.020681e+02  2.000000e+01
     vertex  3.537867e+01  4.686682e+01  2.000000e+01
     vertex  3.690182e+01  4.907348e+01  2.000000e+01
   endloop
 endfacet
 facet normal  0.000000e+00  0.000000e+00  1.000000e+00
   outer loop
     vertex  0.000000e+00  1.020681e+02  2.000000e+01
     vertex  3.442787e+01  4.435976e+01  2.000000e+01
     vertex  3.537867e+01  4.686682e+01  2.000000e+01
   endloop
 endfacet
 facet normal  0.000000e+00  0.000000e+00  1.000000e+00
   outer loop
     vertex  0.000000e+00  1.020681e+02  2.000000e+01
     vertex  0.000000e+00  0.000000e+00  2.000000e+01
     vertex  3.442787e+01  4.435976e+01  2.000000e+01
   endloop
 endfacet
 facet normal  0.000000e+00  0.000000e+00  1.000000e+00
   outer loop
     vertex  1.369067e+02  0.000000e+00  2.000000e+01
     vertex  5.602612e+01  4.435976e+01  2.000000e+01
     vertex  5.634931e+01  4.169802e+01  2.000000e+01
   endloop
 endfacet
 facet normal  0.000000e+00  0.000000e+00  1.000000e+00
   outer loop
     vertex  1.369067e+02  0.000000e+00  2.000000e+01
     vertex  4.917102e+01  3.129847e+01  2.000000e+01
     vertex  4.656764e+01  3.065679e+01  2.000000e+01
   endloop
 endfacet
 facet normal  0.000000e+00  0.000000e+00  1.000000e+00
   outer loop
     vertex  1.369067e+02  0.000000e+00  2.000000e+01
     vertex  5.154519e+01  3.254453e+01  2.000000e+01
     vertex  4.917102e+01  3.129847e+01  2.000000e+01
   endloop
 endfacet
 facet normal  0.000000e+00  0.000000e+00  1.000000e+00
   outer loop
     vertex  1.369067e+02  0.000000e+00  2.000000e+01
     vertex  5.355217e+01  3.432255e+01  2.000000e+01
     vertex  5.154519e+01  3.254453e+01  2.000000e+01
   endloop
 endfacet
 facet normal  0.000000e+00  0.000000e+00  1.000000e+00
   outer loop
     vertex  1.369067e+02  0.000000e+00  2.000000e+01
     vertex  5.507532e+01  3.652922e+01  2.000000e+01
     vertex  5.355217e+01  3.432255e+01  2.000000e+01
   endloop
 endfacet
 facet normal  0.000000e+00  0.000000e+00  1.000000e+00
   outer loop
     vertex  1.369067e+02  0.000000e+00  2.000000e+01
     vertex  5.602612e+01  3.903627e+01  2.000000e+01
     vertex  5.507532e+01  3.652922e+01  2.000000e+01
   endloop
 endfacet
 facet normal  0.000000e+00  0.000000e+00  1.000000e+00
   outer loop
     vertex  1.369067e+02  0.000000e+00  2.000000e+01
     vertex  5.634931e+01  4.169802e+01  2.000000e+01
     vertex  5.602612e+01  3.903627e+01  2.000000e+01
   endloop
 endfacet
 facet normal  0.000000e+00  0.000000e+00  1.000000e+00
   outer loop
     vertex  1.369067e+02  0.000000e+00  2.000000e+01
     vertex  4.656764e+01  3.065679e+01  2.000000e+01
     vertex  0.000000e+00  0.000000e+00  2.000000e+01
   endloop
 endfacet
 facet normal  0.000000e+00  0.000000e+00  1.000000e+00
   outer loop
     vertex  1.369067e+02  1.020681e+02  2.000000e+01
     vertex  5.507532e+01  4.686682e+01  2.000000e+01
     vertex  5.602612e+01  4.435976e+01  2.000000e+01
   endloop
 endfacet
 facet normal  0.000000e+00  0.000000e+00  1.000000e+00
   outer loop
     vertex  1.369067e+02  1.020681e+02  2.000000e+01
     vertex  5.355217e+01  4.907348e+01  2.000000e+01
     vertex  5.507532e+01  4.686682e+01  2.000000e+01
   endloop
 endfacet
 facet normal  0.000000e+00  0.000000e+00  1.000000e+00
   outer loop
     vertex  1.369067e+02  1.020681e+02  2.000000e+01
     vertex  5.154519e+01  5.085151e+01  2.000000e+01
     vertex  5.355217e+01  4.907348e+01  2.000000e+01
   endloop
 endfacet
 facet normal  0.000000e+00  0.000000e+00  1.000000e+00
   outer loop
     vertex  1.369067e+02  1.020681e+02  2.000000e+01
     vertex  4.917102e+01  5.209757e+01  2.000000e+01
     vertex  5.154519e+01  5.085151e+01  2.000000e+01
   endloop
 endfacet
 facet normal  0.000000e+00  0.000000e+00  1.000000e+00
   outer loop
     vertex  1.369067e+02  1.020681e+02  2.000000e+01
     vertex  0.000000e+00  1.020681e+02  2.000000e+01
     vertex  4.917102e+01  5.209757e+01  2.000000e+01
   endloop
 endfacet
 facet normal  0.000000e+00  0.000000e+00  1.000000e+00
   outer loop
     vertex  1.369067e+02  1.020681e+02  2.000000e+01
     vertex  5.602612e+01  4.435976e+01  2.000000e+01
     vertex  1.369067e+02  0.000000e+00  2.000000e+01
   endloop
 endfacet
 facet normal  0.000000e+00  1.000000e+00  0.000000e+00
   outer loop
     vertex  1.369067e+02  1.020681e+02  2.000000e+01
     vertex  1.369067e+02  1.020681e+02  0.000000e+00
     vertex  0.000000e+00  1.020681e+02  0.000000e+00
   endloop
 endfacet
 facet normal  0.000000e+00  1.000000e+00  0.000000e+00
   outer loop
     vertex  1.369067e+02  1.020681e+02  2.000000e+01
     vertex  0.000000e+00  1.020681e+02  0.000000e+00
     vertex  0.000000e+00  1.020681e+02  2.000000e+01
   endloop
 endfacet
 facet normal  0.000000e+00  0.000000e+00 -1.000000e+00
   outer loop
     vertex  1.369067e+02  0.000000e+00  0.000000e+00
     vertex  0.000000e+00  0.000000e+00  0.000000e+00
     vertex  0.000000e+00  1.020681e+02  0.000000e+00
   endloop
 endfacet
 facet normal -0.000000e+00 -0.000000e+00 -1.000000e+00
   outer loop
     vertex  1.369067e+02  1.020681e+02  0.000000e+00
     vertex  1.369067e+02  0.000000e+00  0.000000e+00
     vertex  0.000000e+00  1.020681e+02  0.000000e+00
   endloop
 endfacet
 facet normal  1.000000e+00  0.000000e+00  0.000000e+00
   outer loop
     vertex  1.369067e+02  0.000000e+00  2.000000e+01
     vertex  1.369067e+02  0.000000e+00  0.000000e+00
     vertex  1.369067e+02  1.020681e+02  0.000000e+00
   endloop
 endfacet
 facet normal  1.000000e+00 -0.000000e+00  0.000000e+00
   outer loop
     vertex  1.369067e+02  0.000000e+00  2.000000e+01
     vertex  1.369067e+02  1.020681e+02  0.000000e+00
     vertex  1.369067e+02  1.020681e+02  2.000000e+01
   endloop
 endfacet
 facet normal  9.927089e-01  1.205367e-01  0.000000e+00
   outer loop
     vertex  5.634931e+01  4.169802e+01  4.031993e+01
     vertex  5.634931e+01  4.169802e+01  2.000000e+01
     vertex  5.602612e+01  4.435976e+01  2.000000e+01
   endloop
 endfacet
 facet normal  9.927089e-01  1.205367e-01  0.000000e+00
   outer loop
     vertex  5.602612e+01  4.435976e+01  4.031993e+01
     vertex  5.634931e+01  4.169802e+01  4.031993e+01
     vertex  5.602612e+01  4.435976e+01  2.000000e+01
   endloop
 endfacet
 facet normal  9.350162e-01  3.546049e-01  0.000000e+00
   outer loop
     vertex  5.507532e+01  4.686682e+01  4.031993e+01
     vertex  5.602612e+01  4.435976e+01  2.000000e+01
     vertex  5.507532e+01  4.686682e+01  2.000000e+01
   endloop
 endfacet
 facet normal  9.350162e-01  3.546049e-01  0.000000e+00
   outer loop
     vertex  5.507532e+01  4.686682e+01  4.031993e+01
     vertex  5.602612e+01  4.435976e+01  4.031993e+01
     vertex  5.602612e+01  4.435976e+01  2.000000e+01
   endloop
 endfacet
 facet normal  8.229839e-01  5.680647e-01  0.000000e+00
   outer loop
     vertex  5.355217e+01  4.907348e+01  4.031993e+01
     vertex  5.507532e+01  4.686682e+01  2.000000e+01
     vertex  5.355217e+01  4.907348e+01  2.000000e+01
   endloop
 endfacet
 facet normal  6.631227e-01  7.485107e-01  0.000000e+00
   outer loop
     vertex  5.355217e+01  4.907348e+01  4.031993e+01
     vertex  5.355217e+01  4.907348e+01  2.000000e+01
     vertex  5.154519e+01  5.085151e+01  2.000000e+01
   endloop
 endfacet
 facet normal  8.229839e-01  5.680647e-01  0.000000e+00
   outer loop
     vertex  5.355217e+01  4.907348e+01  4.031993e+01
     vertex  5.507532e+01  4.686682e+01  4.031993e+01
     vertex  5.507532e+01  4.686682e+01  2.000000e+01
   endloop
 endfacet
 facet normal  6.631227e-01  7.485107e-01  0.000000e+00
   outer loop
     vertex  5.154519e+01  5.085151e+01  4.031993e+01
     vertex  5.355217e+01  4.907348e+01  4.031993e+01
     vertex  5.154519e+01  5.085151e+01  2.000000e+01
   endloop
 endfacet
 facet normal  4.647232e-01  8.854560e-01  0.000000e+00
   outer loop
     vertex  4.917102e+01  5.209757e+01  4.031993e+01
     vertex  5.154519e+01  5.085151e+01  2.000000e+01
     vertex  4.917102e+01  5.209757e+01  2.000000e+01
   endloop
 endfacet
 facet normal  2.393157e-01  9.709418e-01  0.000000e+00
   outer loop
     vertex  4.917102e+01  5.209757e+01  4.031993e+01
     vertex  4.917102e+01  5.209757e+01  2.000000e+01
     vertex  4.656764e+01  5.273924e+01  2.000000e+01
   endloop
 endfacet
 facet normal  4.647232e-01  8.854560e-01  0.000000e+00
   outer loop
     vertex  4.917102e+01  5.209757e+01  4.031993e+01
     vertex  5.154519e+01  5.085151e+01  4.031993e+01
     vertex  5.154519e+01  5.085151e+01  2.000000e+01
   endloop
 endfacet
 facet normal  2.393157e-01  9.709418e-01  0.000000e+00
   outer loop
     vertex  4.656764e+01  5.273924e+01  4.031993e+01
     vertex  4.917102e+01  5.209757e+01  4.031993e+01
     vertex  4.656764e+01  5.273924e+01  2.000000e+01
   endloop
 endfacet
 facet normal  0.000000e+00  1.000000e+00  0.000000e+00
   outer loop
     vertex  4.388635e+01  5.273924e+01  4.031993e+01
     vertex  4.656764e+01  5.273924e+01  2.000000e+01
     vertex  4.388635e+01  5.273924e+01  2.000000e+01
   endloop
 endfacet
 facet normal -0.000000e+00  1.000000e+00  0.000000e+00
   outer loop
     vertex  4.388635e+01  5.273924e+01  4.031993e+01
     vertex  4.656764e+01  5.273924e+01  4.031993e+01
     vertex  4.656764e+01  5.273924e+01  2.000000e+01
   endloop
 endfacet
 facet normal -2.393157e-01  9.709418e-01  0.000000e+00
   outer loop
     vertex  4.128296e+01  5.209757e+01  4.031993e+01
     vertex  4.388635e+01  5.273924e+01  2.000000e+01
     vertex  4.128296e+01  5.209757e+01  2.000000e+01
   endloop
 endfacet
 facet normal -2.393157e-01  9.709418e-01  0.000000e+00
   outer loop
     vertex  4.128296e+01  5.209757e+01  4.031993e+01
     vertex  4.388635e+01  5.273924e+01  4.031993e+01
     vertex  4.388635e+01  5.273924e+01  2.000000e+01
   endloop
 endfacet
 facet normal -4.647232e-01  8.854560e-01  0.000000e+00
   outer loop
     vertex  3.890879e+01  5.085151e+01  4.031993e+01
     vertex  4.128296e+01  5.209757e+01  2.000000e+01
     vertex  3.890879e+01  5.085151e+01  2.000000e+01
   endloop
 endfacet
 facet normal -4.647232e-01  8.854560e-01  0.000000e+00
   outer loop
     vertex  3.890879e+01  5.085151e+01  4.031993e+01
     vertex  4.128296e+01  5.209757e+01  4.031993e+01
     vertex  4.128296e+01  5.209757e+01  2.000000e+01
   endloop
 endfacet
 facet normal -6.631227e-01  7.485107e-01  0.000000e+00
   outer loop
     vertex  3.690182e+01  4.907348e+01  4.031993e+01
     vertex  3.890879e+01  5.085151e+01  2.000000e+01
     vertex  3.690182e+01  4.907348e+01  2.000000e+01
   endloop
 endfacet
 facet normal -6.631227e-01  7.485107e-01  0.000000e+00
   outer loop
     vertex  3.690182e+01  4.907348e+01  4.031993e+01
     vertex  3.890879e+01  5.085151e+01  4.031993e+01
     vertex  3.890879e+01  5.085151e+01  2.000000e+01
   endloop
 endfacet
 facet normal -8.229839e-01  5.680647e-01  0.000000e+00
   outer loop
     vertex  3.537867e+01  4.686682e+01  4.031993e+01
     vertex  3.690182e+01  4.907348e+01  4.031993e+01
     vertex  3.690182e+01  4.907348e+01  2.000000e+01
   endloop
 endfacet
 facet normal -8.229839e-01  5.680647e-01  0.000000e+00
   outer loop
     vertex  3.537867e+01  4.686682e+01  4.031993e+01
     vertex  3.690182e+01  4.907348e+01  2.000000e+01
     vertex  3.537867e+01  4.686682e+01  2.000000e+01
   endloop
 endfacet
 facet normal -9.350162e-01  3.546049e-01  0.000000e+00
   outer loop
     vertex  3.442787e+01  4.435976e+01  4.031993e+01
     vertex  3.537867e+01  4.686682e+01  4.031993e+01
     vertex  3.537867e+01  4.686682e+01  2.000000e+01
   endloop
 endfacet
 facet normal -9.350162e-01  3.546049e-01  0.000000e+00
   outer loop
     vertex  3.442787e+01  4.435976e+01  4.031993e+01
     vertex  3.537867e+01  4.686682e+01  2.000000e+01
     vertex  3.442787e+01  4.435976e+01  2.000000e+01
   endloop
 endfacet
 facet normal -9.927089e-01  1.205367e-01  0.000000e+00
   outer loop
     vertex  3.410467e+01  4.169802e+01  4.031993e+01
     vertex  3.442787e+01  4.435976e+01  4.031993e+01
     vertex  3.442787e+01  4.435976e+01  2.000000e+01
   endloop
 endfacet
 facet normal -9.927089e-01  1.205367e-01  0.000000e+00
   outer loop
     vertex  3.410467e+01  4.169802e+01  4.031993e+01
     vertex  3.442787e+01  4.435976e+01  2.000000e+01
     vertex  3.410467e+01  4.169802e+01  2.000000e+01
   endloop
 endfacet
 facet normal -9.927089e-01 -1.205367e-01  0.000000e+00
   outer loop
     vertex  3.442787e+01  3.903627e+01  4.031993e+01
     vertex  3.410467e+01  4.169802e+01  4.031993e+01
     vertex  3.410467e+01  4.169802e+01  2.000000e+01
   endloop
 endfacet
 facet normal -9.927089e-01 -1.205367e-01 -0.000000e+00
   outer loop
     vertex  3.442787e+01  3.903627e+01  4.031993e+01
     vertex  3.410467e+01  4.169802e+01  2.000000e+01
     vertex  3.442787e+01  3.903627e+01  2.000000e+01
   endloop
 endfacet
 facet normal -9.350162e-01 -3.546049e-01  0.000000e+00
   outer loop
     vertex  3.537867e+01  3.652922e+01  4.031993e+01
     vertex  3.442787e+01  3.903627e+01  4.031993e+01
     vertex  3.442787e+01  3.903627e+01  2.000000e+01
   endloop
 endfacet
 facet normal -9.350162e-01 -3.546049e-01 -0.000000e+00
   outer loop
     vertex  3.537867e+01  3.652922e+01  4.031993e+01
     vertex  3.442787e+01  3.903627e+01  2.000000e+01
     vertex  3.537867e+01  3.652922e+01  2.000000e+01
   endloop
 endfacet
 facet normal -8.229839e-01 -5.680647e-01  0.000000e+00
   outer loop
     vertex  3.690182e+01  3.432255e+01  4.031993e+01
     vertex  3.537867e+01  3.652922e+01  4.031993e+01
     vertex  3.537867e+01  3.652922e+01  2.000000e+01
   endloop
 endfacet
 facet normal -8.229839e-01 -5.680647e-01 -0.000000e+00
   outer loop
     vertex  3.690182e+01  3.432255e+01  4.031993e+01
     vertex  3.537867e+01  3.652922e+01  2.000000e+01
     vertex  3.690182e+01  3.432255e+01  2.000000e+01
   endloop
 endfacet
 facet normal -6.631227e-01 -7.485107e-01 -0.000000e+00
   outer loop
     vertex  3.690182e+01  3.432255e+01  4.031993e+01
     vertex  3.690182e+01  3.432255e+01  2.000000e+01
     vertex  3.890879e+01  3.254453e+01  2.000000e+01
   endloop
 endfacet
 facet normal -6.631227e-01 -7.485107e-01 -0.000000e+00
   outer loop
     vertex  3.890879e+01  3.254453e+01  4.031993e+01
     vertex  3.690182e+01  3.432255e+01  4.031993e+01
     vertex  3.890879e+01  3.254453e+01  2.000000e+01
   endloop
 endfacet
 facet normal -4.647232e-01 -8.854560e-01  0.000000e+00
   outer loop
     vertex  4.128296e+01  3.129847e+01  4.031993e+01
     vertex  3.890879e+01  3.254453e+01  4.031993e+01
     vertex  3.890879e+01  3.254453e+01  2.000000e+01
   endloop
 endfacet
 facet normal -4.647232e-01 -8.854560e-01 -0.000000e+00
   outer loop
     vertex  4.128296e+01  3.129847e+01  4.031993e+01
     vertex  3.890879e+01  3.254453e+01  2.000000e+01
     vertex  4.128296e+01  3.129847e+01  2.000000e+01
   endloop
 endfacet
 facet normal -2.393157e-01 -9.709418e-01  0.000000e+00
   outer loop
     vertex  4.388635e+01  3.065679e+01  4.031993e+01
     vertex  4.128296e+01  3.129847e+01  4.031993e+01
     vertex  4.128296e+01  3.129847e+01  2.000000e+01
   endloop
 endfacet
 facet normal -2.393157e-01 -9.709418e-01 -0.000000e+00
   outer loop
     vertex  4.388635e+01  3.065679e+01  4.031993e+01
     vertex  4.128296e+01  3.129847e+01  2.000000e+01
     vertex  4.388635e+01  3.065679e+01  2.000000e+01
   endloop
 endfacet
 facet normal -2.649998e-15 -1.000000e+00  0.000000e+00
   outer loop
     vertex  4.656764e+01  3.065679e+01  4.031993e+01
     vertex  4.388635e+01  3.065679e+01  4.031993e+01
     vertex  4.388635e+01  3.065679e+01  2.000000e+01
   endloop
 endfacet
 facet normal -2.649998e-15 -1.000000e+00 -0.000000e+00
   outer loop
     vertex  4.656764e+01  3.065679e+01  4.031993e+01
     vertex  4.388635e+01  3.065679e+01  2.000000e+01
     vertex  4.656764e+01  3.065679e+01  2.000000e+01
   endloop
 endfacet
 facet normal  2.393157e-01 -9.709418e-01  0.000000e+00
   outer loop
     vertex  4.917102e+01  3.129847e+01  4.031993e+01
     vertex  4.656764e+01  3.065679e+01  4.031993e+01
     vertex  4.656764e+01  3.065679e+01  2.000000e+01
   endloop
 endfacet
 facet normal  2.393157e-01 -9.709418e-01  0.000000e+00
   outer loop
     vertex  4.917102e+01  3.129847e+01  4.031993e+01
     vertex  4.656764e+01  3.065679e+01  2.000000e+01
     vertex  4.917102e+01  3.129847e+01  2.000000e+01
   endloop
 endfacet
 facet normal  4.647232e-01 -8.854560e-01  0.000000e+00
   outer loop
     vertex  5.154519e+01  3.254453e+01  4.031993e+01
     vertex  4.917102e+01  3.129847e+01  4.031993e+01
     vertex  4.917102e+01  3.129847e+01  2.000000e+01
   endloop
 endfacet
 facet normal  4.647232e-01 -8.854560e-01  0.000000e+00
   outer loop
     vertex  5.154519e+01  3.254453e+01  4.031993e+01
     vertex  4.917102e+01  3.129847e+01  2.000000e+01
     vertex  5.154519e+01  3.254453e+01  2.000000e+01
   endloop
 endfacet
 facet normal  6.631227e-01 -7.485107e-01  0.000000e+00
   outer loop
     vertex  5.355217e+01  3.432255e+01  4.031993e+01
     vertex  5.154519e+01  3.254453e+01  4.031993e+01
     vertex  5.154519e+01  3.254453e+01  2.000000e+01
   endloop
 endfacet
 facet normal  6.631227e-01 -7.485107e-01  0.000000e+00
   outer loop
     vertex  5.355217e+01  3.432255e+01  4.031993e+01
     vertex  5.154519e+01  3.254453e+01  2.000000e+01
     vertex  5.355217e+01  3.432255e+01  2.000000e+01
   endloop
 endfacet
 facet normal  8.229839e-01 -5.680647e-01  0.000000e+00
   outer loop
     vertex  5.507532e+01  3.652922e+01  4.031993e+01
     vertex  5.355217e+01  3.432255e+01  4.031993e+01
     vertex  5.355217e+01  3.432255e+01  2.000000e+01
   endloop
 endfacet
 facet normal  8.229839e-01 -5.680647e-01  0.000000e+00
   outer loop
     vertex  5.507532e+01  3.652922e+01  4.031993e+01
     vertex  5.355217e+01  3.432255e+01  2.000000e+01
     vertex  5.507532e+01  3.652922e+01  2.000000e+01
   endloop
 endfacet
 facet normal  9.350162e-01 -3.546049e-01  0.000000e+00
   outer loop
     vertex  5.602612e+01  3.903627e+01  4.031993e+01
     vertex  5.507532e+01  3.652922e+01  2.000000e+01
     vertex  5.602612e+01  3.903627e+01  2.000000e+01
   endloop
 endfacet
 facet normal  9.350162e-01 -3.546049e-01  0.000000e+00
   outer loop
     vertex  5.602612e+01  3.903627e+01  4.031993e+01
     vertex  5.507532e+01  3.652922e+01  4.031993e+01
     vertex  5.507532e+01  3.652922e+01  2.000000e+01
   endloop
 endfacet
 facet normal  9.927089e-01 -1.205367e-01  0.000000e+00
   outer loop
     vertex  5.634931e+01  4.169802e+01  4.031993e+01
     vertex  5.602612e+01  3.903627e+01  2.000000e+01
     vertex  5.634931e+01  4.169802e+01  2.000000e+01
   endloop
 endfacet
 facet normal  9.927089e-01 -1.205367e-01  0.000000e+00
   outer loop
     vertex  5.634931e+01  4.169802e+01  4.031993e+01
     vertex  5.602612e+01  3.903627e+01  4.031993e+01
     vertex  5.602612e+01  3.903627e+01  2.000000e+01
   endloop
 endfacet
 facet normal  0.000000e+00  0.000000e+00  1.000000e+00
   outer loop
     vertex  4.128296e+01  3.129847e+01  4.031993e+01
     vertex  3.690182e+01  3.432255e+01  4.031993e+01
     vertex  3.890879e+01  3.254453e+01  4.031993e+01
   endloop
 endfacet
 facet normal  0.000000e+00  0.000000e+00  1.000000e+00
   outer loop
     vertex  3.410467e+01  4.169802e+01  4.031993e+01
     vertex  3.442787e+01  3.903627e+01  4.031993e+01
     vertex  3.537867e+01  3.652922e+01  4.031993e+01
   endloop
 endfacet
 facet normal  0.000000e+00  0.000000e+00  1.000000e+00
   outer loop
     vertex  3.410467e+01  4.169802e+01  4.031993e+01
     vertex  3.537867e+01  3.652922e+01  4.031993e+01
     vertex  3.690182e+01  3.432255e+01  4.031993e+01
   endloop
 endfacet
 facet normal  0.000000e+00  0.000000e+00  1.000000e+00
   outer loop
     vertex  3.410467e+01  4.169802e+01  4.031993e+01
     vertex  4.128296e+01  3.129847e+01  4.031993e+01
     vertex  4.388635e+01  3.065679e+01  4.031993e+01
   endloop
 endfacet
 facet normal  0.000000e+00  0.000000e+00  1.000000e+00
   outer loop
     vertex  3.410467e+01  4.169802e+01  4.031993e+01
     vertex  3.690182e+01  3.432255e+01  4.031993e+01
     vertex  4.128296e+01  3.129847e+01  4.031993e+01
   endloop
 endfacet
 facet normal  0.000000e+00  0.000000e+00  1.000000e+00
   outer loop
     vertex  4.917102e+01  3.129847e+01  4.031993e+01
     vertex  4.388635e+01  3.065679e+01  4.031993e+01
     vertex  4.656764e+01  3.065679e+01  4.031993e+01
   endloop
 endfacet
 facet normal  0.000000e+00  0.000000e+00  1.000000e+00
   outer loop
     vertex  5.154519e+01  3.254453e+01  4.031993e+01
     vertex  4.388635e+01  3.065679e+01  4.031993e+01
     vertex  4.917102e+01  3.129847e+01  4.031993e+01
   endloop
 endfacet
 facet normal  0.000000e+00  0.000000e+00  1.000000e+00
   outer loop
     vertex  5.602612e+01  3.903627e+01  4.031993e+01
     vertex  5.355217e+01  3.432255e+01  4.031993e+01
     vertex  5.507532e+01  3.652922e+01  4.031993e+01
   endloop
 endfacet
 facet normal  0.000000e+00  0.000000e+00  1.000000e+00
   outer loop
     vertex  4.656764e+01  5.273924e+01  4.031993e+01
     vertex  4.388635e+01  5.273924e+01  4.031993e+01
     vertex  4.128296e+01  5.209757e+01  4.031993e+01
   endloop
 endfacet
 facet normal  0.000000e+00  0.000000e+00  1.000000e+00
   outer loop
     vertex  5.602612e+01  4.435976e+01  4.031993e+01
     vertex  3.537867e+01  4.686682e+01  4.031993e+01
     vertex  3.442787e+01  4.435976e+01  4.031993e+01
   endloop
 endfacet
 facet normal  0.000000e+00  0.000000e+00  1.000000e+00
   outer loop
     vertex  5.602612e+01  4.435976e+01  4.031993e+01
     vertex  3.442787e+01  4.435976e+01  4.031993e+01
     vertex  3.410467e+01  4.169802e+01  4.031993e+01
   endloop
 endfacet
 facet normal  0.000000e+00  0.000000e+00  1.000000e+00
   outer loop
     vertex  5.602612e+01  4.435976e+01  4.031993e+01
     vertex  5.154519e+01  3.254453e+01  4.031993e+01
     vertex  5.355217e+01  3.432255e+01  4.031993e+01
   endloop
 endfacet
 facet normal  0.000000e+00  0.000000e+00  1.000000e+00
   outer loop
     vertex  5.602612e+01  4.435976e+01  4.031993e+01
     vertex  5.602612e+01  3.903627e+01  4.031993e+01
     vertex  5.634931e+01  4.169802e+01  4.031993e+01
   endloop
 endfacet
 facet normal  0.000000e+00  0.000000e+00  1.000000e+00
   outer loop
     vertex  5.602612e+01  4.435976e+01  4.031993e+01
     vertex  3.410467e+01  4.169802e+01  4.031993e+01
     vertex  4.388635e+01  3.065679e+01  4.031993e+01
   endloop
 endfacet
 facet normal  0.000000e+00  0.000000e+00  1.000000e+00
   outer loop
     vertex  5.602612e+01  4.435976e+01  4.031993e+01
     vertex  5.355217e+01  3.432255e+01  4.031993e+01
     vertex  5.602612e+01  3.903627e+01  4.031993e+01
   endloop
 endfacet
 facet normal  0.000000e+00  0.000000e+00  1.000000e+00
   outer loop
     vertex  5.602612e+01  4.435976e+01  4.031993e+01
     vertex  4.388635e+01  3.065679e+01  4.031993e+01
     vertex  5.154519e+01  3.254453e+01  4.031993e+01
   endloop
 endfacet
 facet normal  0.000000e+00  0.000000e+00  1.000000e+00
   outer loop
     vertex  4.917102e+01  5.209757e+01  4.031993e+01
     vertex  4.128296e+01  5.209757e+01  4.031993e+01
     vertex  3.890879e+01  5.085151e+01  4.031993e+01
   endloop
 endfacet
 facet normal  0.000000e+00  0.000000e+00  1.000000e+00
   outer loop
     vertex  4.917102e+01  5.209757e+01  4.031993e+01
     vertex  3.890879e+01  5.085151e+01  4.031993e+01
     vertex  3.690182e+01  4.907348e+01  4.031993e+01
   endloop
 endfacet
 facet normal  0.000000e+00  0.000000e+00  1.000000e+00
   outer loop
     vertex  4.917102e+01  5.209757e+01  4.031993e+01
     vertex  3.690182e+01  4.907348e+01  4.031993e+01
     vertex  3.537867e+01  4.686682e+01  4.031993e+01
   endloop
 endfacet
 facet normal  0.000000e+00  0.000000e+00  1.000000e+00
   outer loop
     vertex  4.917102e+01  5.209757e+01  4.031993e+01
     vertex  4.656764e+01  5.273924e+01  4.031993e+01
     vertex  4.128296e+01  5.209757e+01  4.031993e+01
   endloop
 endfacet
 facet normal  0.000000e+00  0.000000e+00  1.000000e+00
   outer loop
     vertex  5.507532e+01  4.686682e+01  4.031993e+01
     vertex  3.537867e+01  4.686682e+01  4.031993e+01
     vertex  5.602612e+01  4.435976e+01  4.031993e+01
   endloop
 endfacet
 facet normal  0.000000e+00  0.000000e+00  1.000000e+00
   outer loop
     vertex  5.154519e+01  5.085151e+01  4.031993e+01
     vertex  4.917102e+01  5.209757e+01  4.031993e+01
     vertex  3.537867e+01  4.686682e+01  4.031993e+01
   endloop
 endfacet
 facet normal  0.000000e+00  0.000000e+00  1.000000e+00
   outer loop
     vertex  5.355217e+01  4.907348e+01  4.031993e+01
     vertex  3.537867e+01  4.686682e+01  4.031993e+01
     vertex  5.507532e+01  4.686682e+01  4.031993e+01
   endloop
 endfacet
 facet normal  0.000000e+00  0.000000e+00  1.000000e+00
   outer loop
     vertex  5.355217e+01  4.907348e+01  4.031993e+01
     vertex  5.154519e+01  5.085151e+01  4.031993e+01
     vertex  3.537867e+01  4.686682e+01  4.031993e+01
   endloop
 endfacet
endsolid
