solid 
 facet normal -1.000000e+00  0.000000e+00  0.000000e+00
   outer loop
     vertex  0.000000e+00  0.000000e+00  2.000000e+01
     vertex  0.000000e+00  1.030292e+02  0.000000e+00
     vertex  0.000000e+00  0.000000e+00  0.000000e+00
   endloop
 endfacet
 facet normal -1.000000e+00  0.000000e+00  0.000000e+00
   outer loop
     vertex  0.000000e+00  0.000000e+00  2.000000e+01
     vertex  0.000000e+00  1.030292e+02  2.000000e+01
     vertex  0.000000e+00  1.030292e+02  0.000000e+00
   endloop
 endfacet
 facet normal  0.000000e+00 -1.000000e+00 -0.000000e+00
   outer loop
     vertex  1.259511e+02  0.000000e+00  2.000000e+01
     vertex  0.000000e+00  0.000000e+00  0.000000e+00
     vertex  1.259511e+02  0.000000e+00  0.000000e+00
   endloop
 endfacet
 facet normal -0.000000e+00 -1.000000e+00  0.000000e+00
   outer loop
     vertex  1.259511e+02  0.000000e+00  2.000000e+01
     vertex  0.000000e+00  0.000000e+00  2.000000e+01
     vertex  0.000000e+00  0.000000e+00  0.000000e+00
   endloop
 endfacet
 facet normal  0.000000e+00  0.000000e+00  1.000000e+00
   outer loop
     vertex  5.219305e+01  6.690246e+01  2.000000e+01
     vertex  4.997047e+01  6.887150e+01  2.000000e+01
     vertex  0.000000e+00  0.000000e+00  2.000000e+01
   endloop
 endfacet
 facet normal  0.000000e+00  0.000000e+00  1.000000e+00
   outer loop
     vertex  4.828369e+01  7.131522e+01  2.000000e+01
     vertex  0.000000e+00  1.030292e+02  2.000000e+01
     vertex  0.000000e+00  0.000000e+00  2.000000e+01
   endloop
 endfacet
 facet normal  0.000000e+00  0.000000e+00  1.000000e+00
   outer loop
     vertex  4.828369e+01  7.131522e+01  2.000000e+01
     vertex  0.000000e+00  0.000000e+00  2.000000e+01
     vertex  4.997047e+01  6.887150e+01  2.000000e+01
   endloop
 endfacet
 facet normal  0.000000e+00  0.000000e+00  1.000000e+00
   outer loop
     vertex  5.482228e+01  6.552254e+01  2.000000e+01
     vertex  5.219305e+01  6.690246e+01  2.000000e+01
     vertex  0.000000e+00  0.000000e+00  2.000000e+01
   endloop
 endfacet
 facet normal  0.000000e+00  0.000000e+00  1.000000e+00
   outer loop
     vertex  4.723075e+01  7.409160e+01  2.000000e+01
     vertex  0.000000e+00  1.030292e+02  2.000000e+01
     vertex  4.828369e+01  7.131522e+01  2.000000e+01
   endloop
 endfacet
 facet normal  0.000000e+00  0.000000e+00  1.000000e+00
   outer loop
     vertex  5.770533e+01  6.481193e+01  2.000000e+01
     vertex  5.482228e+01  6.552254e+01  2.000000e+01
     vertex  0.000000e+00  0.000000e+00  2.000000e+01
   endloop
 endfacet
 facet normal  0.000000e+00  0.000000e+00  1.000000e+00
   outer loop
     vertex  4.687284e+01  7.703929e+01  2.000000e+01
     vertex  0.000000e+00  1.030292e+02  2.000000e+01
     vertex  4.723075e+01  7.409160e+01  2.000000e+01
   endloop
 endfacet
 facet normal  0.000000e+00  0.000000e+00  1.000000e+00
   outer loop
     vertex  6.067467e+01  6.481193e+01  2.000000e+01
     vertex  5.770533e+01  6.481193e+01  2.000000e+01
     vertex  0.000000e+00  0.000000e+00  2.000000e+01
   endloop
 endfacet
 facet normal  0.000000e+00  0.000000e+00  1.000000e+00
   outer loop
     vertex  1.259511e+02  0.000000e+00  2.000000e+01
     vertex  6.067467e+01  6.481193e+01  2.000000e+01
     vertex  0.000000e+00  0.000000e+00  2.000000e+01
   endloop
 endfacet
 facet normal  0.000000e+00  0.000000e+00  1.000000e+00
   outer loop
     vertex  4.723075e+01  7.998698e+01  2.000000e+01
     vertex  0.000000e+00  1.030292e+02  2.000000e+01
     vertex  4.687284e+01  7.703929e+01  2.000000e+01
   endloop
 endfacet
 facet normal  0.000000e+00  0.000000e+00  1.000000e+00
   outer loop
     vertex  6.355773e+01  6.552254e+01  2.000000e+01
     vertex  6.067467e+01  6.481193e+01  2.000000e+01
     vertex  1.259511e+02  0.000000e+00  2.000000e+01
   endloop
 endfacet
 facet normal  0.000000e+00  0.000000e+00  1.000000e+00
   outer loop
     vertex  4.828369e+01  8.276336e+01  2.000000e+01
     vertex  0.000000e+00  1.030292e+02  2.000000e+01
     vertex  4.723075e+01  7.998698e+01  2.000000e+01
   endloop
 endfacet
 facet normal  0.000000e+00  0.000000e+00  1.000000e+00
   outer loop
     vertex  6.618695e+01  6.690246e+01  2.000000e+01
     vertex  6.355773e+01  6.552254e+01  2.000000e+01
     vertex  1.259511e+02  0.000000e+00  2.000000e+01
   endloop
 endfacet
 facet normal  0.000000e+00  0.000000e+00  1.000000e+00
   outer loop
     vertex  4.997047e+01  8.520708e+01  2.000000e+01
     vertex  0.000000e+00  1.030292e+02  2.000000e+01
     vertex  4.828369e+01  8.276336e+01  2.000000e+01
   endloop
 endfacet
 facet normal  0.000000e+00  0.000000e+00  1.000000e+00
   outer loop
     vertex  6.840953e+01  6.887150e+01  2.000000e+01
     vertex  6.618695e+01  6.690246e+01  2.000000e+01
     vertex  1.259511e+02  0.000000e+00  2.000000e+01
   endloop
 endfacet
 facet normal  0.000000e+00  0.000000e+00  1.000000e+00
   outer loop
     vertex  5.219305e+01  8.717612e+01  2.000000e+01
     vertex  0.000000e+00  1.030292e+02  2.000000e+01
     vertex  4.997047e+01  8.520708e+01  2.000000e+01
   endloop
 endfacet
 facet normal  0.000000e+00  0.000000e+00  1.000000e+00
   outer loop
     vertex  7.009631e+01  7.131522e+01  2.000000e+01
     vertex  6.840953e+01  6.887150e+01  2.000000e+01
     vertex  1.259511e+02  0.000000e+00  2.000000e+01
   endloop
 endfacet
 facet normal  0.000000e+00  0.000000e+00  1.000000e+00
   outer loop
     vertex  5.482228e+01  8.855604e+01  2.000000e+01
     vertex  0.000000e+00  1.030292e+02  2.000000e+01
     vertex  5.219305e+01  8.717612e+01  2.000000e+01
   endloop
 endfacet
 facet normal  0.000000e+00  0.000000e+00  1.000000e+00
   outer loop
     vertex  5.770533e+01  8.926665e+01  2.000000e+01
     vertex  0.000000e+00  1.030292e+02  2.000000e+01
     vertex  5.482228e+01  8.855604e+01  2.000000e+01
   endloop
 endfacet
 facet normal  0.000000e+00  0.000000e+00  1.000000e+00
   outer loop
     vertex  1.259511e+02  1.030292e+02  2.000000e+01
     vertex  7.114925e+01  7.998698e+01  2.000000e+01
     vertex  7.150717e+01  7.703929e+01  2.000000e+01
   endloop
 endfacet
 facet normal  0.000000e+00  0.000000e+00  1.000000e+00
   outer loop
     vertex  1.259511e+02  1.030292e+02  2.000000e+01
     vertex  7.009631e+01  8.276336e+01  2.000000e+01
     vertex  7.114925e+01  7.998698e+01  2.000000e+01
   endloop
 endfacet
 facet normal  0.000000e+00  0.000000e+00  1.000000e+00
   outer loop
     vertex  1.259511e+02  1.030292e+02  2.000000e+01
     vertex  6.840953e+01  8.520708e+01  2.000000e+01
     vertex  7.009631e+01  8.276336e+01  2.000000e+01
   endloop
 endfacet
 facet normal  0.000000e+00  0.000000e+00  1.000000e+00
   outer loop
     vertex  1.259511e+02  1.030292e+02  2.000000e+01
     vertex  6.618695e+01  8.717612e+01  2.000000e+01
     vertex  6.840953e+01  8.520708e+01  2.000000e+01
   endloop
 endfacet
 facet normal  0.000000e+00  0.000000e+00  1.000000e+00
   outer loop
     vertex  1.259511e+02  1.030292e+02  2.000000e+01
     vertex  6.355773e+01  8.855604e+01  2.000000e+01
     vertex  6.618695e+01  8.717612e+01  2.000000e+01
   endloop
 endfacet
 facet normal  0.000000e+00  0.000000e+00  1.000000e+00
   outer loop
     vertex  1.259511e+02  1.030292e+02  2.000000e+01
     vertex  7.114925e+01  7.409160e+01  2.000000e+01
     vertex  7.009631e+01  7.131522e+01  2.000000e+01
   endloop
 endfacet
 facet normal  0.000000e+00  0.000000e+00  1.000000e+00
   outer loop
     vertex  1.259511e+02  1.030292e+02  2.000000e+01
     vertex  7.150717e+01  7.703929e+01  2.000000e+01
     vertex  7.114925e+01  7.409160e+01  2.000000e+01
   endloop
 endfacet
 facet normal  0.000000e+00  0.000000e+00  1.000000e+00
   outer loop
     vertex  1.259511e+02  1.030292e+02  2.000000e+01
     vertex  7.009631e+01  7.131522e+01  2.000000e+01
     vertex  1.259511e+02  0.000000e+00  2.000000e+01
   endloop
 endfacet
 facet normal  0.000000e+00  0.000000e+00  1.000000e+00
   outer loop
     vertex  1.259511e+02  1.030292e+02  2.000000e+01
     vertex  0.000000e+00  1.030292e+02  2.000000e+01
     vertex  5.770533e+01  8.926665e+01  2.000000e+01
   endloop
 endfacet
 facet normal  0.000000e+00  0.000000e+00  1.000000e+00
   outer loop
     vertex  1.259511e+02  1.030292e+02  2.000000e+01
     vertex  5.770533e+01  8.926665e+01  2.000000e+01
     vertex  6.067467e+01  8.926665e+01  2.000000e+01
   endloop
 endfacet
 facet normal  0.000000e+00  0.000000e+00  1.000000e+00
   outer loop
     vertex  1.259511e+02  1.030292e+02  2.000000e+01
     vertex  6.067467e+01  8.926665e+01  2.000000e+01
     vertex  6.355773e+01  8.855604e+01  2.000000e+01
   endloop
 endfacet
 facet normal  0.000000e+00  1.000000e+00  0.000000e+00
   outer loop
     vertex  1.259511e+02  1.030292e+02  2.000000e+01
     vertex  1.259511e+02  1.030292e+02  0.000000e+00
     vertex  0.000000e+00  1.030292e+02  0.000000e+00
   endloop
 endfacet
 facet normal  0.000000e+00  1.000000e+00  0.000000e+00
   outer loop
     vertex  1.259511e+02  1.030292e+02  2.000000e+01
     vertex  0.000000e+00  1.030292e+02  0.000000e+00
     vertex  0.000000e+00  1.030292e+02  2.000000e+01
   endloop
 endfacet
 facet normal -0.000000e+00  0.000000e+00 -1.000000e+00
   outer loop
     vertex  1.259511e+02  1.030292e+02  0.000000e+00
     vertex  0.000000e+00  0.000000e+00  0.000000e+00
     vertex  0.000000e+00  1.030292e+02  0.000000e+00
   endloop
 endfacet
 facet normal  0.000000e+00 -0.000000e+00 -1.000000e+00
   outer loop
     vertex  1.259511e+02  1.030292e+02  0.000000e+00
     vertex  1.259511e+02  0.000000e+00  0.000000e+00
     vertex  0.000000e+00  0.000000e+00  0.000000e+00
   endloop
 endfacet
 facet normal  1.000000e+00  0.000000e+00  0.000000e+00
   outer loop
     vertex  1.259511e+02  0.000000e+00  2.000000e+01
     vertex  1.259511e+02  0.000000e+00  0.000000e+00
     vertex  1.259511e+02  1.030292e+02  0.000000e+00
   endloop
 endfacet
 facet normal  1.000000e+00 -0.000000e+00  0.000000e+00
   outer loop
     vertex  1.259511e+02  0.000000e+00  2.000000e+01
     vertex  1.259511e+02  1.030292e+02  0.000000e+00
     vertex  1.259511e+02  1.030292e+02  2.000000e+01
   endloop
 endfacet
 facet normal  9.927089e-01  1.205367e-01  0.000000e+00
   outer loop
     vertex  7.114925e+01  7.998698e+01  3.297549e+01
     vertex  7.150717e+01  7.703929e+01  3.297549e+01
     vertex  7.150717e+01  7.703929e+01  2.000000e+01
   endloop
 endfacet
 facet normal  9.927089e-01  1.205367e-01  0.000000e+00
   outer loop
     vertex  7.114925e+01  7.998698e+01  3.297549e+01
     vertex  7.150717e+01  7.703929e+01  2.000000e+01
     vertex  7.114925e+01  7.998698e+01  2.000000e+01
   endloop
 endfacet
 facet normal  9.350162e-01  3.546049e-01  0.000000e+00
   outer loop
     vertex  7.009631e+01  8.276336e+01  3.297549e+01
     vertex  7.114925e+01  7.998698e+01  2.000000e+01
     vertex  7.009631e+01  8.276336e+01  2.000000e+01
   endloop
 endfacet
 facet normal  9.350162e-01  3.546049e-01  0.000000e+00
   outer loop
     vertex  7.009631e+01  8.276336e+01  3.297549e+01
     vertex  7.114925e+01  7.998698e+01  3.297549e+01
     vertex  7.114925e+01  7.998698e+01  2.000000e+01
   endloop
 endfacet
 facet normal  8.229839e-01  5.680647e-01  0.000000e+00
   outer loop
     vertex  6.840953e+01  8.520708e+01  3.297549e+01
     vertex  7.009631e+01  8.276336e+01  2.000000e+01
     vertex  6.840953e+01  8.520708e+01  2.000000e+01
   endloop
 endfacet
 facet normal  6.631227e-01  7.485107e-01  0.000000e+00
   outer loop
     vertex  6.840953e+01  8.520708e+01  3.297549e+01
     vertex  6.840953e+01  8.520708e+01  2.000000e+01
     vertex  6.618695e+01  8.717612e+01  2.000000e+01
   endloop
 endfacet
 facet normal  8.229839e-01  5.680647e-01  0.000000e+00
   outer loop
     vertex  6.840953e+01  8.520708e+01  3.297549e+01
     vertex  7.009631e+01  8.276336e+01  3.297549e+01
     vertex  7.009631e+01  8.276336e+01  2.000000e+01
   endloop
 endfacet
 facet normal  6.631227e-01  7.485107e-01  0.000000e+00
   outer loop
     vertex  6.618695e+01  8.717612e+01  3.297549e+01
     vertex  6.840953e+01  8.520708e+01  3.297549e+01
     vertex  6.618695e+01  8.717612e+01  2.000000e+01
   endloop
 endfacet
 facet normal  4.647232e-01  8.854560e-01  0.000000e+00
   outer loop
     vertex  6.355773e+01  8.855604e+01  3.297549e+01
     vertex  6.618695e+01  8.717612e+01  2.000000e+01
     vertex  6.355773e+01  8.855604e+01  2.000000e+01
   endloop
 endfacet
 facet normal  4.647232e-01  8.854560e-01  0.000000e+00
   outer loop
     vertex  6.355773e+01  8.855604e+01  3.297549e+01
     vertex  6.618695e+01  8.717612e+01  3.297549e+01
     vertex  6.618695e+01  8.717612e+01  2.000000e+01
   endloop
 endfacet
 facet normal  2.393157e-01  9.709418e-01  0.000000e+00
   outer loop
     vertex  6.067467e+01  8.926665e+01  3.297549e+01
     vertex  6.355773e+01  8.855604e+01  2.000000e+01
     vertex  6.067467e+01  8.926665e+01  2.000000e+01
   endloop
 endfacet
 facet normal  0.000000e+00  1.000000e+00  0.000000e+00
   outer loop
     vertex  6.067467e+01  8.926665e+01  3.297549e+01
     vertex  6.067467e+01  8.926665e+01  2.000000e+01
     vertex  5.770533e+01  8.926665e+01  2.000000e+01
   endloop
 endfacet
 facet normal  2.393157e-01  9.709418e-01  0.000000e+00
   outer loop
     vertex  6.067467e+01  8.926665e+01  3.297549e+01
     vertex  6.355773e+01  8.855604e+01  3.297549e+01
     vertex  6.355773e+01  8.855604e+01  2.000000e+01
   endloop
 endfacet
 facet normal -0.000000e+00  1.000000e+00  0.000000e+00
   outer loop
     vertex  5.770533e+01  8.926665e+01  3.297549e+01
     vertex  6.067467e+01  8.926665e+01  3.297549e+01
     vertex  5.770533e+01  8.926665e+01  2.000000e+01
   endloop
 endfacet
 facet normal -2.393157e-01  9.709418e-01  0.000000e+00
   outer loop
     vertex  5.482228e+01  8.855604e+01  3.297549e+01
     vertex  5.770533e+01  8.926665e+01  2.000000e+01
     vertex  5.482228e+01  8.855604e+01  2.000000e+01
   endloop
 endfacet
 facet normal -4.647232e-01  8.854560e-01  0.000000e+00
   outer loop
     vertex  5.482228e+01  8.855604e+01  3.297549e+01
     vertex  5.482228e+01  8.855604e+01  2.000000e+01
     vertex  5.219305e+01  8.717612e+01  2.000000e+01
   endloop
 endfacet
 facet normal -2.393157e-01  9.709418e-01  0.000000e+00
   outer loop
     vertex  5.482228e+01  8.855604e+01  3.297549e+01
     vertex  5.770533e+01  8.926665e+01  3.297549e+01
     vertex  5.770533e+01  8.926665e+01  2.000000e+01
   endloop
 endfacet
 facet normal -4.647232e-01  8.854560e-01  0.000000e+00
   outer loop
     vertex  5.219305e+01  8.717612e+01  3.297549e+01
     vertex  5.482228e+01  8.855604e+01  3.297549e+01
     vertex  5.219305e+01  8.717612e+01  2.000000e+01
   endloop
 endfacet
 facet normal -6.631227e-01  7.485107e-01  0.000000e+00
   outer loop
     vertex  4.997047e+01  8.520708e+01  3.297549e+01
     vertex  5.219305e+01  8.717612e+01  2.000000e+01
     vertex  4.997047e+01  8.520708e+01  2.000000e+01
   endloop
 endfacet
 facet normal -6.631227e-01  7.485107e-01  0.000000e+00
   outer loop
     vertex  4.997047e+01  8.520708e+01  3.297549e+01
     vertex  5.219305e+01  8.717612e+01  3.297549e+01
     vertex  5.219305e+01  8.717612e+01  2.000000e+01
   endloop
 endfacet
 facet normal -8.229839e-01  5.680647e-01  0.000000e+00
   outer loop
     vertex  4.828369e+01  8.276336e+01  3.297549e+01
     vertex  4.997047e+01  8.520708e+01  3.297549e+01
     vertex  4.997047e+01  8.520708e+01  2.000000e+01
   endloop
 endfacet
 facet normal -8.229839e-01  5.680647e-01  0.000000e+00
   outer loop
     vertex  4.828369e+01  8.276336e+01  3.297549e+01
     vertex  4.997047e+01  8.520708e+01  2.000000e+01
     vertex  4.828369e+01  8.276336e+01  2.000000e+01
   endloop
 endfacet
 facet normal -9.350162e-01  3.546049e-01  0.000000e+00
   outer loop
     vertex  4.828369e+01  8.276336e+01  3.297549e+01
     vertex  4.828369e+01  8.276336e+01  2.000000e+01
     vertex  4.723075e+01  7.998698e+01  2.000000e+01
   endloop
 endfacet
 facet normal -9.350162e-01  3.546049e-01  0.000000e+00
   outer loop
     vertex  4.723075e+01  7.998698e+01  3.297549e+01
     vertex  4.828369e+01  8.276336e+01  3.297549e+01
     vertex  4.723075e+01  7.998698e+01  2.000000e+01
   endloop
 endfacet
 facet normal -9.927089e-01  1.205367e-01  0.000000e+00
   outer loop
     vertex  4.687284e+01  7.703929e+01  3.297549e+01
     vertex  4.723075e+01  7.998698e+01  3.297549e+01
     vertex  4.723075e+01  7.998698e+01  2.000000e+01
   endloop
 endfacet
 facet normal -9.927089e-01  1.205367e-01  0.000000e+00
   outer loop
     vertex  4.687284e+01  7.703929e+01  3.297549e+01
     vertex  4.723075e+01  7.998698e+01  2.000000e+01
     vertex  4.687284e+01  7.703929e+01  2.000000e+01
   endloop
 endfacet
 facet normal -9.927089e-01 -1.205367e-01  0.000000e+00
   outer loop
     vertex  4.723075e+01  7.409160e+01  3.297549e+01
     vertex  4.687284e+01  7.703929e+01  3.297549e+01
     vertex  4.687284e+01  7.703929e+01  2.000000e+01
   endloop
 endfacet
 facet normal -9.927089e-01 -1.205367e-01 -0.000000e+00
   outer loop
     vertex  4.723075e+01  7.409160e+01  3.297549e+01
     vertex  4.687284e+01  7.703929e+01  2.000000e+01
     vertex  4.723075e+01  7.409160e+01  2.000000e+01
   endloop
 endfacet
 facet normal -9.350162e-01 -3.546049e-01  0.000000e+00
   outer loop
     vertex  4.828369e+01  7.131522e+01  3.297549e+01
     vertex  4.723075e+01  7.409160e+01  3.297549e+01
     vertex  4.723075e+01  7.409160e+01  2.000000e+01
   endloop
 endfacet
 facet normal -9.350162e-01 -3.546049e-01 -0.000000e+00
   outer loop
     vertex  4.828369e+01  7.131522e+01  3.297549e+01
     vertex  4.723075e+01  7.409160e+01  2.000000e+01
     vertex  4.828369e+01  7.131522e+01  2.000000e+01
   endloop
 endfacet
 facet normal -8.229839e-01 -5.680647e-01  0.000000e+00
   outer loop
     vertex  4.997047e+01  6.887150e+01  3.297549e+01
     vertex  4.828369e+01  7.131522e+01  3.297549e+01
     vertex  4.828369e+01  7.131522e+01  2.000000e+01
   endloop
 endfacet
 facet normal -8.229839e-01 -5.680647e-01 -0.000000e+00
   outer loop
     vertex  4.997047e+01  6.887150e+01  3.297549e+01
     vertex  4.828369e+01  7.131522e+01  2.000000e+01
     vertex  4.997047e+01  6.887150e+01  2.000000e+01
   endloop
 endfacet
 facet normal -6.631227e-01 -7.485107e-01  0.000000e+00
   outer loop
     vertex  5.219305e+01  6.690246e+01  3.297549e+01
     vertex  4.997047e+01  6.887150e+01  3.297549e+01
     vertex  4.997047e+01  6.887150e+01  2.000000e+01
   endloop
 endfacet
 facet normal -6.631227e-01 -7.485107e-01 -0.000000e+00
   outer loop
     vertex  5.219305e+01  6.690246e+01  3.297549e+01
     vertex  4.997047e+01  6.887150e+01  2.000000e+01
     vertex  5.219305e+01  6.690246e+01  2.000000e+01
   endloop
 endfacet
 facet normal -4.647232e-01 -8.854560e-01  0.000000e+00
   outer loop
     vertex  5.482228e+01  6.552254e+01  3.297549e+01
     vertex  5.219305e+01  6.690246e+01  3.297549e+01
     vertex  5.219305e+01  6.690246e+01  2.000000e+01
   endloop
 endfacet
 facet normal -4.647232e-01 -8.854560e-01 -0.000000e+00
   outer loop
     vertex  5.482228e+01  6.552254e+01  3.297549e+01
     vertex  5.219305e+01  6.690246e+01  2.000000e+01
     vertex  5.482228e+01  6.552254e+01  2.000000e+01
   endloop
 endfacet
 facet normal -2.393157e-01 -9.709418e-01  0.000000e+00
   outer loop
     vertex  5.770533e+01  6.481193e+01  3.297549e+01
     vertex  5.482228e+01  6.552254e+01  3.297549e+01
     vertex  5.482228e+01  6.552254e+01  2.000000e+01
   endloop
 endfacet
 facet normal -2.393157e-01 -9.709418e-01 -0.000000e+00
   outer loop
     vertex  5.770533e+01  6.481193e+01  3.297549e+01
     vertex  5.482228e+01  6.552254e+01  2.000000e+01
     vertex  5.770533e+01  6.481193e+01  2.000000e+01
   endloop
 endfacet
 facet normal -0.000000e+00 -1.000000e+00  0.000000e+00
   outer loop
     vertex  6.067467e+01  6.481193e+01  3.297549e+01
     vertex  5.770533e+01  6.481193e+01  3.297549e+01
     vertex  5.770533e+01  6.481193e+01  2.000000e+01
   endloop
 endfacet
 facet normal  0.000000e+00 -1.000000e+00 -0.000000e+00
   outer loop
     vertex  6.067467e+01  6.481193e+01  3.297549e+01
     vertex  5.770533e+01  6.481193e+01  2.000000e+01
     vertex  6.067467e+01  6.481193e+01  2.000000e+01
   endloop
 endfacet
 facet normal  2.393157e-01 -9.709418e-01  0.000000e+00
   outer loop
     vertex  6.355773e+01  6.552254e+01  3.297549e+01
     vertex  6.067467e+01  6.481193e+01  3.297549e+01
     vertex  6.067467e+01  6.481193e+01  2.000000e+01
   endloop
 endfacet
 facet normal  2.393157e-01 -9.709418e-01  0.000000e+00
   outer loop
     vertex  6.355773e+01  6.552254e+01  3.297549e+01
     vertex  6.067467e+01  6.481193e+01  2.000000e+01
     vertex  6.355773e+01  6.552254e+01  2.000000e+01
   endloop
 endfacet
 facet normal  4.647232e-01 -8.854560e-01  0.000000e+00
   outer loop
     vertex  6.355773e+01  6.552254e+01  3.297549e+01
     vertex  6.355773e+01  6.552254e+01  2.000000e+01
     vertex  6.618695e+01  6.690246e+01  2.000000e+01
   endloop
 endfacet
 facet normal  4.647232e-01 -8.854560e-01  0.000000e+00
   outer loop
     vertex  6.618695e+01  6.690246e+01  3.297549e+01
     vertex  6.355773e+01  6.552254e+01  3.297549e+01
     vertex  6.618695e+01  6.690246e+01  2.000000e+01
   endloop
 endfacet
 facet normal  6.631227e-01 -7.485107e-01  0.000000e+00
   outer loop
     vertex  6.840953e+01  6.887150e+01  3.297549e+01
     vertex  6.618695e+01  6.690246e+01  3.297549e+01
     vertex  6.618695e+01  6.690246e+01  2.000000e+01
   endloop
 endfacet
 facet normal  6.631227e-01 -7.485107e-01  0.000000e+00
   outer loop
     vertex  6.840953e+01  6.887150e+01  3.297549e+01
     vertex  6.618695e+01  6.690246e+01  2.000000e+01
     vertex  6.840953e+01  6.887150e+01  2.000000e+01
   endloop
 endfacet
 facet normal  8.229839e-01 -5.680647e-01  0.000000e+00
   outer loop
     vertex  6.840953e+01  6.887150e+01  3.297549e+01
     vertex  6.840953e+01  6.887150e+01  2.000000e+01
     vertex  7.009631e+01  7.131522e+01  2.000000e+01
   endloop
 endfacet
 facet normal  8.229839e-01 -5.680647e-01  0.000000e+00
   outer loop
     vertex  7.009631e+01  7.131522e+01  3.297549e+01
     vertex  6.840953e+01  6.887150e+01  3.297549e+01
     vertex  7.009631e+01  7.131522e+01  2.000000e+01
   endloop
 endfacet
 facet normal  9.350162e-01 -3.546049e-01  0.000000e+00
   outer loop
     vertex  7.114925e+01  7.409160e+01  3.297549e+01
     vertex  7.009631e+01  7.131522e+01  2.000000e+01
     vertex  7.114925e+01  7.409160e+01  2.000000e+01
   endloop
 endfacet
 facet normal  9.350162e-01 -3.546049e-01  0.000000e+00
   outer loop
     vertex  7.114925e+01  7.409160e+01  3.297549e+01
     vertex  7.009631e+01  7.131522e+01  3.297549e+01
     vertex  7.009631e+01  7.131522e+01  2.000000e+01
   endloop
 endfacet
 facet normal  9.927089e-01 -1.205367e-01  0.000000e+00
   outer loop
     vertex  7.150717e+01  7.703929e+01  3.297549e+01
     vertex  7.114925e+01  7.409160e+01  2.000000e+01
     vertex  7.150717e+01  7.703929e+01  2.000000e+01
   endloop
 endfacet
 facet normal  9.927089e-01 -1.205367e-01  0.000000e+00
   outer loop
     vertex  7.150717e+01  7.703929e+01  3.297549e+01
     vertex  7.114925e+01  7.409160e+01  3.297549e+01
     vertex  7.114925e+01  7.409160e+01  2.000000e+01
   endloop
 endfacet
 facet normal  0.000000e+00  0.000000e+00  1.000000e+00
   outer loop
     vertex  4.828369e+01  7.131522e+01  3.297549e+01
     vertex  4.997047e+01  6.887150e+01  3.297549e+01
     vertex  5.219305e+01  6.690246e+01  3.297549e+01
   endloop
 endfacet
 facet normal  0.000000e+00  0.000000e+00  1.000000e+00
   outer loop
     vertex  4.687284e+01  7.703929e+01  3.297549e+01
     vertex  4.723075e+01  7.409160e+01  3.297549e+01
     vertex  4.828369e+01  7.131522e+01  3.297549e+01
   endloop
 endfacet
 facet normal  0.000000e+00  0.000000e+00  1.000000e+00
   outer loop
     vertex  6.067467e+01  6.481193e+01  3.297549e+01
     vertex  5.482228e+01  6.552254e+01  3.297549e+01
     vertex  5.770533e+01  6.481193e+01  3.297549e+01
   endloop
 endfacet
 facet normal  0.000000e+00  0.000000e+00  1.000000e+00
   outer loop
     vertex  4.723075e+01  7.998698e+01  3.297549e+01
     vertex  5.219305e+01  6.690246e+01  3.297549e+01
     vertex  5.482228e+01  6.552254e+01  3.297549e+01
   endloop
 endfacet
 facet normal  0.000000e+00  0.000000e+00  1.000000e+00
   outer loop
     vertex  4.723075e+01  7.998698e+01  3.297549e+01
     vertex  4.828369e+01  7.131522e+01  3.297549e+01
     vertex  5.219305e+01  6.690246e+01  3.297549e+01
   endloop
 endfacet
 facet normal  0.000000e+00  0.000000e+00  1.000000e+00
   outer loop
     vertex  4.723075e+01  7.998698e+01  3.297549e+01
     vertex  4.687284e+01  7.703929e+01  3.297549e+01
     vertex  4.828369e+01  7.131522e+01  3.297549e+01
   endloop
 endfacet
 facet normal  0.000000e+00  0.000000e+00  1.000000e+00
   outer loop
     vertex  4.997047e+01  8.520708e+01  3.297549e+01
     vertex  4.828369e+01  8.276336e+01  3.297549e+01
     vertex  4.723075e+01  7.998698e+01  3.297549e+01
   endloop
 endfacet
 facet normal  0.000000e+00  0.000000e+00  1.000000e+00
   outer loop
     vertex  7.009631e+01  7.131522e+01  3.297549e+01
     vertex  6.355773e+01  6.552254e+01  3.297549e+01
     vertex  6.618695e+01  6.690246e+01  3.297549e+01
   endloop
 endfacet
 facet normal  0.000000e+00  0.000000e+00  1.000000e+00
   outer loop
     vertex  7.009631e+01  7.131522e+01  3.297549e+01
     vertex  6.618695e+01  6.690246e+01  3.297549e+01
     vertex  6.840953e+01  6.887150e+01  3.297549e+01
   endloop
 endfacet
 facet normal  0.000000e+00  0.000000e+00  1.000000e+00
   outer loop
     vertex  5.482228e+01  8.855604e+01  3.297549e+01
     vertex  5.219305e+01  8.717612e+01  3.297549e+01
     vertex  4.997047e+01  8.520708e+01  3.297549e+01
   endloop
 endfacet
 facet normal  0.000000e+00  0.000000e+00  1.000000e+00
   outer loop
     vertex  5.482228e+01  8.855604e+01  3.297549e+01
     vertex  4.997047e+01  8.520708e+01  3.297549e+01
     vertex  4.723075e+01  7.998698e+01  3.297549e+01
   endloop
 endfacet
 facet normal  0.000000e+00  0.000000e+00  1.000000e+00
   outer loop
     vertex  7.114925e+01  7.409160e+01  3.297549e+01
     vertex  6.067467e+01  6.481193e+01  3.297549e+01
     vertex  6.355773e+01  6.552254e+01  3.297549e+01
   endloop
 endfacet
 facet normal  0.000000e+00  0.000000e+00  1.000000e+00
   outer loop
     vertex  7.114925e+01  7.409160e+01  3.297549e+01
     vertex  5.482228e+01  6.552254e+01  3.297549e+01
     vertex  6.067467e+01  6.481193e+01  3.297549e+01
   endloop
 endfacet
 facet normal  0.000000e+00  0.000000e+00  1.000000e+00
   outer loop
     vertex  7.114925e+01  7.409160e+01  3.297549e+01
     vertex  4.723075e+01  7.998698e+01  3.297549e+01
     vertex  5.482228e+01  6.552254e+01  3.297549e+01
   endloop
 endfacet
 facet normal  0.000000e+00  0.000000e+00  1.000000e+00
   outer loop
     vertex  7.114925e+01  7.409160e+01  3.297549e+01
     vertex  6.355773e+01  6.552254e+01  3.297549e+01
     vertex  7.009631e+01  7.131522e+01  3.297549e+01
   endloop
 endfacet
 facet normal  0.000000e+00  0.000000e+00  1.000000e+00
   outer loop
     vertex  7.114925e+01  7.998698e+01  3.297549e+01
     vertex  7.114925e+01  7.409160e+01  3.297549e+01
     vertex  7.150717e+01  7.703929e+01  3.297549e+01
   endloop
 endfacet
 facet normal  0.000000e+00  0.000000e+00  1.000000e+00
   outer loop
     vertex  6.355773e+01  8.855604e+01  3.297549e+01
     vertex  6.067467e+01  8.926665e+01  3.297549e+01
     vertex  5.770533e+01  8.926665e+01  3.297549e+01
   endloop
 endfacet
 facet normal  0.000000e+00  0.000000e+00  1.000000e+00
   outer loop
     vertex  6.840953e+01  8.520708e+01  3.297549e+01
     vertex  7.114925e+01  7.998698e+01  3.297549e+01
     vertex  7.009631e+01  8.276336e+01  3.297549e+01
   endloop
 endfacet
 facet normal  0.000000e+00  0.000000e+00  1.000000e+00
   outer loop
     vertex  6.840953e+01  8.520708e+01  3.297549e+01
     vertex  6.618695e+01  8.717612e+01  3.297549e+01
     vertex  6.355773e+01  8.855604e+01  3.297549e+01
   endloop
 endfacet
 facet normal  0.000000e+00  0.000000e+00  1.000000e+00
   outer loop
     vertex  6.840953e+01  8.520708e+01  3.297549e+01
     vertex  5.770533e+01  8.926665e+01  3.297549e+01
     vertex  5.482228e+01  8.855604e+01  3.297549e+01
   endloop
 endfacet
 facet normal  0.000000e+00  0.000000e+00  1.000000e+00
   outer loop
     vertex  6.840953e+01  8.520708e+01  3.297549e+01
     vertex  5.482228e+01  8.855604e+01  3.297549e+01
     vertex  4.723075e+01  7.998698e+01  3.297549e+01
   endloop
 endfacet
 facet normal  0.000000e+00  0.000000e+00  1.000000e+00
   outer loop
     vertex  6.840953e+01  8.520708e+01  3.297549e+01
     vertex  4.723075e+01  7.998698e+01  3.297549e+01
     vertex  7.114925e+01  7.409160e+01  3.297549e+01
   endloop
 endfacet
 facet normal  0.000000e+00  0.000000e+00  1.000000e+00
   outer loop
     vertex  6.840953e+01  8.520708e+01  3.297549e+01
     vertex  7.114925e+01  7.409160e+01  3.297549e+01
     vertex  7.114925e+01  7.998698e+01  3.297549e+01
   endloop
 endfacet
 facet normal  0.000000e+00  0.000000e+00  1.000000e+00
   outer loop
     vertex  6.840953e+01  8.520708e+01  3.297549e+01
     vertex  6.355773e+01  8.855604e+01  3.297549e+01
     vertex  5.770533e+01  8.926665e+01  3.297549e+01
   endloop
 endfacet
endsolid
