solid 
 facet normal -1.000000e+00  0.000000e+00  0.000000e+00
   outer loop
     vertex  0.000000e+00  0.000000e+00  2.000000e+01
     vertex  0.000000e+00  1.076685e+02  0.000000e+00
     vertex  0.000000e+00  0.000000e+00  0.000000e+00
   endloop
 endfacet
 facet normal -1.000000e+00  0.000000e+00  0.000000e+00
   outer loop
     vertex  0.000000e+00  0.000000e+00  2.000000e+01
     vertex  0.000000e+00  1.076685e+02  2.000000e+01
     vertex  0.000000e+00  1.076685e+02  0.000000e+00
   endloop
 endfacet
 facet normal  0.000000e+00 -1.000000e+00 -0.000000e+00
   outer loop
     vertex  1.476918e+02  0.000000e+00  2.000000e+01
     vertex  0.000000e+00  0.000000e+00  0.000000e+00
     vertex  1.476918e+02  0.000000e+00  0.000000e+00
   endloop
 endfacet
 facet normal -0.000000e+00 -1.000000e+00  0.000000e+00
   outer loop
     vertex  1.476918e+02  0.000000e+00  2.000000e+01
     vertex  0.000000e+00  0.000000e+00  2.000000e+01
     vertex  0.000000e+00  0.000000e+00  0.000000e+00
   endloop
 endfacet
 facet normal  0.000000e+00  0.000000e+00  1.000000e+00
   outer loop
     vertex  6.841805e+01  4.133360e+01  2.000000e+01
     vertex  0.000000e+00  1.076685e+02  2.000000e+01
     vertex  0.000000e+00  0.000000e+00  2.000000e+01
   endloop
 endfacet
 facet normal  0.000000e+00  0.000000e+00  1.000000e+00
   outer loop
     vertex  8.899667e+01  2.803905e+01  2.000000e+01
     vertex  6.841805e+01  4.133360e+01  2.000000e+01
     vertex  0.000000e+00  0.000000e+00  2.000000e+01
   endloop
 endfacet
 facet normal  0.000000e+00  0.000000e+00  1.000000e+00
   outer loop
     vertex  7.513277e+01  5.172731e+01  2.000000e+01
     vertex  0.000000e+00  1.076685e+02  2.000000e+01
     vertex  6.841805e+01  4.133360e+01  2.000000e+01
   endloop
 endfacet
 facet normal  0.000000e+00  0.000000e+00  1.000000e+00
   outer loop
     vertex  1.476918e+02  0.000000e+00  2.000000e+01
     vertex  9.571139e+01  3.843276e+01  2.000000e+01
     vertex  8.899667e+01  2.803905e+01  2.000000e+01
   endloop
 endfacet
 facet normal  0.000000e+00  0.000000e+00  1.000000e+00
   outer loop
     vertex  1.476918e+02  0.000000e+00  2.000000e+01
     vertex  8.899667e+01  2.803905e+01  2.000000e+01
     vertex  0.000000e+00  0.000000e+00  2.000000e+01
   endloop
 endfacet
 facet normal  0.000000e+00  0.000000e+00  1.000000e+00
   outer loop
     vertex  1.476918e+02  1.076685e+02  2.000000e+01
     vertex  7.513277e+01  5.172731e+01  2.000000e+01
     vertex  9.571139e+01  3.843276e+01  2.000000e+01
   endloop
 endfacet
 facet normal  0.000000e+00  0.000000e+00  1.000000e+00
   outer loop
     vertex  1.476918e+02  1.076685e+02  2.000000e+01
     vertex  9.571139e+01  3.843276e+01  2.000000e+01
     vertex  1.476918e+02  0.000000e+00  2.000000e+01
   endloop
 endfacet
 facet normal  0.000000e+00  0.000000e+00  1.000000e+00
   outer loop
     vertex  1.476918e+02  1.076685e+02  2.000000e+01
     vertex  0.000000e+00  1.076685e+02  2.000000e+01
     vertex  7.513277e+01  5.172731e+01  2.000000e+01
   endloop
 endfacet
 facet normal  0.000000e+00  1.000000e+00  0.000000e+00
   outer loop
     vertex  1.476918e+02  1.076685e+02  2.000000e+01
     vertex  1.476918e+02  1.076685e+02  0.000000e+00
     vertex  0.000000e+00  1.076685e+02  0.000000e+00
   endloop
 endfacet
 facet normal  0.000000e+00  1.000000e+00  0.000000e+00
   outer loop
     vertex  1.476918e+02  1.076685e+02  2.000000e+01
     vertex  0.000000e+00  1.076685e+02  0.000000e+00
     vertex  0.000000e+00  1.076685e+02  2.000000e+01
   endloop
 endfacet
 facet normal -0.000000e+00  0.000000e+00 -1.000000e+00
   outer loop
     vertex  1.476918e+02  1.076685e+02  0.000000e+00
     vertex  0.000000e+00  0.000000e+00  0.000000e+00
     vertex  0.000000e+00  1.076685e+02  0.000000e+00
   endloop
 endfacet
 facet normal  0.000000e+00 -0.000000e+00 -1.000000e+00
   outer loop
     vertex  1.476918e+02  1.076685e+02  0.000000e+00
     vertex  1.476918e+02  0.000000e+00  0.000000e+00
     vertex  0.000000e+00  0.000000e+00  0.000000e+00
   endloop
 endfacet
 facet normal  1.000000e+00  0.000000e+00  0.000000e+00
   outer loop
     vertex  1.476918e+02  0.000000e+00  2.000000e+01
     vertex  1.476918e+02  0.000000e+00  0.000000e+00
     vertex  1.476918e+02  1.076685e+02  0.000000e+00
   endloop
 endfacet
 facet normal  1.000000e+00 -0.000000e+00  0.000000e+00
   outer loop
     vertex  1.476918e+02  0.000000e+00  2.000000e+01
     vertex  1.476918e+02  1.076685e+02  0.000000e+00
     vertex  1.476918e+02  1.076685e+02  2.000000e+01
   endloop
 endfacet
 facet normal -5.426461e-01 -8.399614e-01  2.925043e-16
   outer loop
     vertex  7.267451e+01  3.858377e+01  4.037314e+01
     vertex  6.841805e+01  4.133360e+01  4.037314e+01
     vertex  6.841805e+01  4.133360e+01  2.000000e+01
   endloop
 endfacet
 facet normal -5.426461e-01 -8.399614e-01  4.270675e-17
   outer loop
     vertex  7.267451e+01  3.858377e+01  4.037314e+01
     vertex  6.841805e+01  4.133360e+01  2.000000e+01
     vertex  8.899667e+01  2.803905e+01  2.000000e+01
   endloop
 endfacet
 facet normal  6.078149e-01 -3.926709e-01  6.901960e-01
   outer loop
     vertex  7.267451e+01  3.858377e+01  4.037314e+01
     vertex  8.899667e+01  2.803905e+01  2.000000e+01
     vertex  9.571139e+01  3.843276e+01  2.000000e+01
   endloop
 endfacet
 facet normal  6.078149e-01 -3.926709e-01  6.901960e-01
   outer loop
     vertex  7.267451e+01  3.858377e+01  4.037314e+01
     vertex  9.571139e+01  3.843276e+01  2.000000e+01
     vertex  7.938923e+01  4.897748e+01  4.037314e+01
   endloop
 endfacet
 facet normal  5.426461e-01  8.399614e-01  0.000000e+00
   outer loop
     vertex  7.938923e+01  4.897748e+01  4.037314e+01
     vertex  7.513277e+01  5.172731e+01  2.000000e+01
     vertex  7.513277e+01  5.172731e+01  4.037314e+01
   endloop
 endfacet
 facet normal  5.426461e-01  8.399614e-01 -7.117791e-17
   outer loop
     vertex  7.938923e+01  4.897748e+01  4.037314e+01
     vertex  9.571139e+01  3.843276e+01  2.000000e+01
     vertex  7.513277e+01  5.172731e+01  2.000000e+01
   endloop
 endfacet
 facet normal -8.399614e-01  5.426461e-01  0.000000e+00
   outer loop
     vertex  6.841805e+01  4.133360e+01  2.000000e+01
     vertex  7.513277e+01  5.172731e+01  4.037314e+01
     vertex  7.513277e+01  5.172731e+01  2.000000e+01
   endloop
 endfacet
 facet normal -8.399614e-01  5.426461e-01 -1.892557e-16
   outer loop
     vertex  6.841805e+01  4.133360e+01  2.000000e+01
     vertex  6.841805e+01  4.133360e+01  4.037314e+01
     vertex  7.513277e+01  5.172731e+01  4.037314e+01
   endloop
 endfacet
 facet normal  0.000000e+00  0.000000e+00  1.000000e+00
   outer loop
     vertex  6.841805e+01  4.133360e+01  4.037314e+01
     vertex  7.938923e+01  4.897748e+01  4.037314e+01
     vertex  7.513277e+01  5.172731e+01  4.037314e+01
   endloop
 endfacet
 facet normal  0.000000e+00 -0.000000e+00  1.000000e+00
   outer loop
     vertex  7.267451e+01  3.858377e+01  4.037314e+01
     vertex  7.938923e+01  4.897748e+01  4.037314e+01
     vertex  6.841805e+01  4.133360e+01  4.037314e+01
   endloop
 endfacet
endsolid
