solid 
 facet normal -1.000000e+00  0.000000e+00  0.000000e+00
   outer loop
     vertex  0.000000e+00  0.000000e+00  2.000000e+01
     vertex  0.000000e+00  8.467800e+01  0.000000e+00
     vertex  0.000000e+00  0.000000e+00  0.000000e+00
   endloop
 endfacet
 facet normal -1.000000e+00  0.000000e+00  0.000000e+00
   outer loop
     vertex  0.000000e+00  0.000000e+00  2.000000e+01
     vertex  0.000000e+00  8.467800e+01  2.000000e+01
     vertex  0.000000e+00  8.467800e+01  0.000000e+00
   endloop
 endfacet
 facet normal  0.000000e+00 -1.000000e+00 -0.000000e+00
   outer loop
     vertex  1.239366e+02  0.000000e+00  2.000000e+01
     vertex  0.000000e+00  0.000000e+00  0.000000e+00
     vertex  1.239366e+02  0.000000e+00  0.000000e+00
   endloop
 endfacet
 facet normal -0.000000e+00 -1.000000e+00  0.000000e+00
   outer loop
     vertex  1.239366e+02  0.000000e+00  2.000000e+01
     vertex  0.000000e+00  0.000000e+00  2.000000e+01
     vertex  0.000000e+00  0.000000e+00  0.000000e+00
   endloop
 endfacet
 facet normal  0.000000e+00  0.000000e+00  1.000000e+00
   outer loop
     vertex  5.870070e+01  4.455770e+01  2.000000e+01
     vertex  0.000000e+00  8.467800e+01  2.000000e+01
     vertex  0.000000e+00  0.000000e+00  2.000000e+01
   endloop
 endfacet
 facet normal  0.000000e+00  0.000000e+00  1.000000e+00
   outer loop
     vertex  5.870070e+01  4.455770e+01  2.000000e+01
     vertex  0.000000e+00  0.000000e+00  2.000000e+01
     vertex  5.786482e+01  2.364028e+01  2.000000e+01
   endloop
 endfacet
 facet normal  0.000000e+00  0.000000e+00  1.000000e+00
   outer loop
     vertex  1.239366e+02  0.000000e+00  2.000000e+01
     vertex  5.870070e+01  4.455770e+01  2.000000e+01
     vertex  5.786482e+01  2.364028e+01  2.000000e+01
   endloop
 endfacet
 facet normal  0.000000e+00  0.000000e+00  1.000000e+00
   outer loop
     vertex  1.239366e+02  0.000000e+00  2.000000e+01
     vertex  5.786482e+01  2.364028e+01  2.000000e+01
     vertex  0.000000e+00  0.000000e+00  2.000000e+01
   endloop
 endfacet
 facet normal  0.000000e+00  0.000000e+00  1.000000e+00
   outer loop
     vertex  1.239366e+02  8.467800e+01  2.000000e+01
     vertex  0.000000e+00  8.467800e+01  2.000000e+01
     vertex  5.870070e+01  4.455770e+01  2.000000e+01
   endloop
 endfacet
 facet normal  0.000000e+00  0.000000e+00  1.000000e+00
   outer loop
     vertex  1.239366e+02  8.467800e+01  2.000000e+01
     vertex  5.870070e+01  4.455770e+01  2.000000e+01
     vertex  1.239366e+02  0.000000e+00  2.000000e+01
   endloop
 endfacet
 facet normal  0.000000e+00  1.000000e+00  0.000000e+00
   outer loop
     vertex  1.239366e+02  8.467800e+01  2.000000e+01
     vertex  1.239366e+02  8.467800e+01  0.000000e+00
     vertex  0.000000e+00  8.467800e+01  0.000000e+00
   endloop
 endfacet
 facet normal  0.000000e+00  1.000000e+00  0.000000e+00
   outer loop
     vertex  1.239366e+02  8.467800e+01  2.000000e+01
     vertex  0.000000e+00  8.467800e+01  0.000000e+00
     vertex  0.000000e+00  8.467800e+01  2.000000e+01
   endloop
 endfacet
 facet normal -0.000000e+00  0.000000e+00 -1.000000e+00
   outer loop
     vertex  1.239366e+02  8.467800e+01  0.000000e+00
     vertex  0.000000e+00  0.000000e+00  0.000000e+00
     vertex  0.000000e+00  8.467800e+01  0.000000e+00
   endloop
 endfacet
 facet normal  0.000000e+00 -0.000000e+00 -1.000000e+00
   outer loop
     vertex  1.239366e+02  8.467800e+01  0.000000e+00
     vertex  1.239366e+02  0.000000e+00  0.000000e+00
     vertex  0.000000e+00  0.000000e+00  0.000000e+00
   endloop
 endfacet
 facet normal  1.000000e+00  0.000000e+00  0.000000e+00
   outer loop
     vertex  1.239366e+02  0.000000e+00  2.000000e+01
     vertex  1.239366e+02  0.000000e+00  0.000000e+00
     vertex  1.239366e+02  8.467800e+01  0.000000e+00
   endloop
 endfacet
 facet normal  1.000000e+00 -0.000000e+00  0.000000e+00
   outer loop
     vertex  1.239366e+02  0.000000e+00  2.000000e+01
     vertex  1.239366e+02  8.467800e+01  0.000000e+00
     vertex  1.239366e+02  8.467800e+01  2.000000e+01
   endloop
 endfacet
 facet normal -2.559243e-01 -9.666968e-01  0.000000e+00
   outer loop
     vertex  3.606409e+01  2.941182e+01  2.627520e+01
     vertex  5.786482e+01  2.364028e+01  2.000000e+01
     vertex  5.786482e+01  2.364028e+01  4.076527e+01
   endloop
 endfacet
 facet normal -2.559243e-01 -9.666968e-01 -0.000000e+00
   outer loop
     vertex  3.606409e+01  2.941182e+01  3.449007e+01
     vertex  3.606409e+01  2.941182e+01  2.627520e+01
     vertex  5.786482e+01  2.364028e+01  4.076527e+01
   endloop
 endfacet
 facet normal -1.779711e-01  9.840357e-01  0.000000e+00
   outer loop
     vertex  3.650895e+01  4.054414e+01  3.449007e+01
     vertex  5.870070e+01  4.455770e+01  4.076527e+01
     vertex  5.870070e+01  4.455770e+01  2.000000e+01
   endloop
 endfacet
 facet normal -1.779711e-01  9.840357e-01  0.000000e+00
   outer loop
     vertex  3.650895e+01  4.054414e+01  3.449007e+01
     vertex  5.870070e+01  4.455770e+01  2.000000e+01
     vertex  3.650895e+01  4.054414e+01  2.627520e+01
   endloop
 endfacet
 facet normal  9.992025e-01 -3.992909e-02  0.000000e+00
   outer loop
     vertex  5.870070e+01  4.455770e+01  4.076527e+01
     vertex  5.786482e+01  2.364028e+01  2.000000e+01
     vertex  5.870070e+01  4.455770e+01  2.000000e+01
   endloop
 endfacet
 facet normal  9.992025e-01 -3.992909e-02  0.000000e+00
   outer loop
     vertex  5.870070e+01  4.455770e+01  4.076527e+01
     vertex  5.786482e+01  2.364028e+01  4.076527e+01
     vertex  5.786482e+01  2.364028e+01  2.000000e+01
   endloop
 endfacet
 facet normal -9.992025e-01  3.992909e-02  0.000000e+00
   outer loop
     vertex  3.650895e+01  4.054414e+01  2.627520e+01
     vertex  3.606409e+01  2.941182e+01  2.627520e+01
     vertex  3.606409e+01  2.941182e+01  3.449007e+01
   endloop
 endfacet
 facet normal -9.992025e-01  3.992909e-02  0.000000e+00
   outer loop
     vertex  3.650895e+01  4.054414e+01  3.449007e+01
     vertex  3.650895e+01  4.054414e+01  2.627520e+01
     vertex  3.606409e+01  2.941182e+01  3.449007e+01
   endloop
 endfacet
 facet normal -2.739185e-01  1.094605e-02 -9.616906e-01
   outer loop
     vertex  3.606409e+01  2.941182e+01  2.627520e+01
     vertex  5.870070e+01  4.455770e+01  2.000000e+01
     vertex  5.786482e+01  2.364028e+01  2.000000e+01
   endloop
 endfacet
 facet normal -2.739185e-01  1.094605e-02 -9.616906e-01
   outer loop
     vertex  3.606409e+01  2.941182e+01  2.627520e+01
     vertex  3.650895e+01  4.054414e+01  2.627520e+01
     vertex  5.870070e+01  4.455770e+01  2.000000e+01
   endloop
 endfacet
 facet normal -2.739185e-01  1.094605e-02  9.616906e-01
   outer loop
     vertex  3.606409e+01  2.941182e+01  3.449007e+01
     vertex  5.786482e+01  2.364028e+01  4.076527e+01
     vertex  5.870070e+01  4.455770e+01  4.076527e+01
   endloop
 endfacet
 facet normal -2.739185e-01  1.094605e-02  9.616906e-01
   outer loop
     vertex  3.606409e+01  2.941182e+01  3.449007e+01
     vertex  5.870070e+01  4.455770e+01  4.076527e+01
     vertex  3.650895e+01  4.054414e+01  3.449007e+01
   endloop
 endfacet
endsolid
