solid 
 facet normal -1.000000e+00  0.000000e+00  0.000000e+00
   outer loop
     vertex  0.000000e+00  0.000000e+00  2.000000e+01
     vertex  0.000000e+00  1.083005e+02  0.000000e+00
     vertex  0.000000e+00  0.000000e+00  0.000000e+00
   endloop
 endfacet
 facet normal -1.000000e+00  0.000000e+00  0.000000e+00
   outer loop
     vertex  0.000000e+00  0.000000e+00  2.000000e+01
     vertex  0.000000e+00  1.083005e+02  2.000000e+01
     vertex  0.000000e+00  1.083005e+02  0.000000e+00
   endloop
 endfacet
 facet normal  0.000000e+00 -1.000000e+00 -0.000000e+00
   outer loop
     vertex  1.386915e+02  0.000000e+00  2.000000e+01
     vertex  0.000000e+00  0.000000e+00  0.000000e+00
     vertex  1.386915e+02  0.000000e+00  0.000000e+00
   endloop
 endfacet
 facet normal -0.000000e+00 -1.000000e+00  0.000000e+00
   outer loop
     vertex  1.386915e+02  0.000000e+00  2.000000e+01
     vertex  0.000000e+00  0.000000e+00  2.000000e+01
     vertex  0.000000e+00  0.000000e+00  0.000000e+00
   endloop
 endfacet
 facet normal  0.000000e+00  0.000000e+00  1.000000e+00
   outer loop
     vertex  0.000000e+00  1.083005e+02  2.000000e+01
     vertex  4.401562e+01  3.755771e+01  2.000000e+01
     vertex  5.152902e+01  5.149841e+01  2.000000e+01
   endloop
 endfacet
 facet normal  0.000000e+00  0.000000e+00  1.000000e+00
   outer loop
     vertex  0.000000e+00  1.083005e+02  2.000000e+01
     vertex  0.000000e+00  0.000000e+00  2.000000e+01
     vertex  4.401562e+01  3.755771e+01  2.000000e+01
   endloop
 endfacet
 facet normal  0.000000e+00  0.000000e+00  1.000000e+00
   outer loop
     vertex  1.386915e+02  0.000000e+00  2.000000e+01
     vertex  5.152902e+01  5.149841e+01  2.000000e+01
     vertex  4.401562e+01  3.755771e+01  2.000000e+01
   endloop
 endfacet
 facet normal  0.000000e+00  0.000000e+00  1.000000e+00
   outer loop
     vertex  1.386915e+02  0.000000e+00  2.000000e+01
     vertex  4.401562e+01  3.755771e+01  2.000000e+01
     vertex  0.000000e+00  0.000000e+00  2.000000e+01
   endloop
 endfacet
 facet normal  0.000000e+00  0.000000e+00  1.000000e+00
   outer loop
     vertex  1.386915e+02  1.083005e+02  2.000000e+01
     vertex  5.152902e+01  5.149841e+01  2.000000e+01
     vertex  1.386915e+02  0.000000e+00  2.000000e+01
   endloop
 endfacet
 facet normal  0.000000e+00  0.000000e+00  1.000000e+00
   outer loop
     vertex  1.386915e+02  1.083005e+02  2.000000e+01
     vertex  0.000000e+00  1.083005e+02  2.000000e+01
     vertex  5.152902e+01  5.149841e+01  2.000000e+01
   endloop
 endfacet
 facet normal  0.000000e+00  1.000000e+00  0.000000e+00
   outer loop
     vertex  1.386915e+02  1.083005e+02  2.000000e+01
     vertex  1.386915e+02  1.083005e+02  0.000000e+00
     vertex  0.000000e+00  1.083005e+02  0.000000e+00
   endloop
 endfacet
 facet normal  0.000000e+00  1.000000e+00  0.000000e+00
   outer loop
     vertex  1.386915e+02  1.083005e+02  2.000000e+01
     vertex  0.000000e+00  1.083005e+02  0.000000e+00
     vertex  0.000000e+00  1.083005e+02  2.000000e+01
   endloop
 endfacet
 facet normal -0.000000e+00  0.000000e+00 -1.000000e+00
   outer loop
     vertex  1.386915e+02  1.083005e+02  0.000000e+00
     vertex  0.000000e+00  0.000000e+00  0.000000e+00
     vertex  0.000000e+00  1.083005e+02  0.000000e+00
   endloop
 endfacet
 facet normal  0.000000e+00 -0.000000e+00 -1.000000e+00
   outer loop
     vertex  1.386915e+02  1.083005e+02  0.000000e+00
     vertex  1.386915e+02  0.000000e+00  0.000000e+00
     vertex  0.000000e+00  0.000000e+00  0.000000e+00
   endloop
 endfacet
 facet normal  1.000000e+00  0.000000e+00  0.000000e+00
   outer loop
     vertex  1.386915e+02  0.000000e+00  2.000000e+01
     vertex  1.386915e+02  0.000000e+00  0.000000e+00
     vertex  1.386915e+02  1.083005e+02  0.000000e+00
   endloop
 endfacet
 facet normal  1.000000e+00 -0.000000e+00  0.000000e+00
   outer loop
     vertex  1.386915e+02  0.000000e+00  2.000000e+01
     vertex  1.386915e+02  1.083005e+02  0.000000e+00
     vertex  1.386915e+02  1.083005e+02  2.000000e+01
   endloop
 endfacet
 facet normal  6.103261e-01  7.921503e-01  0.000000e+00
   outer loop
     vertex  6.808106e+01  3.874560e+01  2.360108e+01
     vertex  5.152902e+01  5.149841e+01  2.000000e+01
     vertex  5.152902e+01  5.149841e+01  3.796399e+01
   endloop
 endfacet
 facet normal  6.103261e-01  7.921503e-01  0.000000e+00
   outer loop
     vertex  6.808106e+01  3.874560e+01  3.436292e+01
     vertex  6.808106e+01  3.874560e+01  2.360108e+01
     vertex  5.152902e+01  5.149841e+01  3.796399e+01
   endloop
 endfacet
 facet normal -3.260994e-01 -9.453355e-01  0.000000e+00
   outer loop
     vertex  6.376847e+01  3.074384e+01  3.436292e+01
     vertex  4.401562e+01  3.755771e+01  3.796399e+01
     vertex  4.401562e+01  3.755771e+01  2.000000e+01
   endloop
 endfacet
 facet normal -3.260994e-01 -9.453355e-01 -0.000000e+00
   outer loop
     vertex  6.376847e+01  3.074384e+01  3.436292e+01
     vertex  4.401562e+01  3.755771e+01  2.000000e+01
     vertex  6.376847e+01  3.074384e+01  2.360108e+01
   endloop
 endfacet
 facet normal -8.802899e-01  4.744361e-01  0.000000e+00
   outer loop
     vertex  5.152902e+01  5.149841e+01  3.796399e+01
     vertex  5.152902e+01  5.149841e+01  2.000000e+01
     vertex  4.401562e+01  3.755771e+01  2.000000e+01
   endloop
 endfacet
 facet normal -8.802899e-01  4.744361e-01  0.000000e+00
   outer loop
     vertex  4.401562e+01  3.755771e+01  3.796399e+01
     vertex  5.152902e+01  5.149841e+01  3.796399e+01
     vertex  4.401562e+01  3.755771e+01  2.000000e+01
   endloop
 endfacet
 facet normal  8.802899e-01 -4.744361e-01  0.000000e+00
   outer loop
     vertex  6.808106e+01  3.874560e+01  3.436292e+01
     vertex  6.376847e+01  3.074384e+01  2.360108e+01
     vertex  6.808106e+01  3.874560e+01  2.360108e+01
   endloop
 endfacet
 facet normal  8.802899e-01 -4.744361e-01  0.000000e+00
   outer loop
     vertex  6.376847e+01  3.074384e+01  3.436292e+01
     vertex  6.376847e+01  3.074384e+01  2.360108e+01
     vertex  6.808106e+01  3.874560e+01  3.436292e+01
   endloop
 endfacet
 facet normal  1.514348e-01 -8.161642e-02 -9.850920e-01
   outer loop
     vertex  6.376847e+01  3.074384e+01  2.360108e+01
     vertex  4.401562e+01  3.755771e+01  2.000000e+01
     vertex  5.152902e+01  5.149841e+01  2.000000e+01
   endloop
 endfacet
 facet normal  1.514348e-01 -8.161642e-02 -9.850920e-01
   outer loop
     vertex  6.808106e+01  3.874560e+01  2.360108e+01
     vertex  6.376847e+01  3.074384e+01  2.360108e+01
     vertex  5.152902e+01  5.149841e+01  2.000000e+01
   endloop
 endfacet
 facet normal  1.514348e-01 -8.161642e-02  9.850920e-01
   outer loop
     vertex  6.376847e+01  3.074384e+01  3.436292e+01
     vertex  5.152902e+01  5.149841e+01  3.796399e+01
     vertex  4.401562e+01  3.755771e+01  3.796399e+01
   endloop
 endfacet
 facet normal  1.514348e-01 -8.161642e-02  9.850920e-01
   outer loop
     vertex  6.808106e+01  3.874560e+01  3.436292e+01
     vertex  5.152902e+01  5.149841e+01  3.796399e+01
     vertex  6.376847e+01  3.074384e+01  3.436292e+01
   endloop
 endfacet
endsolid
