solid 
 facet normal -1.000000e+00  0.000000e+00  0.000000e+00
   outer loop
     vertex  0.000000e+00  0.000000e+00  2.000000e+01
     vertex  0.000000e+00  8.834715e+01  0.000000e+00
     vertex  0.000000e+00  0.000000e+00  0.000000e+00
   endloop
 endfacet
 facet normal -1.000000e+00  0.000000e+00  0.000000e+00
   outer loop
     vertex  0.000000e+00  0.000000e+00  2.000000e+01
     vertex  0.000000e+00  8.834715e+01  2.000000e+01
     vertex  0.000000e+00  8.834715e+01  0.000000e+00
   endloop
 endfacet
 facet normal  0.000000e+00 -1.000000e+00 -0.000000e+00
   outer loop
     vertex  1.423403e+02  0.000000e+00  2.000000e+01
     vertex  0.000000e+00  0.000000e+00  0.000000e+00
     vertex  1.423403e+02  0.000000e+00  0.000000e+00
   endloop
 endfacet
 facet normal -0.000000e+00 -1.000000e+00  0.000000e+00
   outer loop
     vertex  1.423403e+02  0.000000e+00  2.000000e+01
     vertex  0.000000e+00  0.000000e+00  2.000000e+01
     vertex  0.000000e+00  0.000000e+00  0.000000e+00
   endloop
 endfacet
 facet normal  0.000000e+00  0.000000e+00  1.000000e+00
   outer loop
     vertex  1.099930e+02  3.238097e+01  2.000000e+01
     vertex  0.000000e+00  8.834715e+01  2.000000e+01
     vertex  0.000000e+00  0.000000e+00  2.000000e+01
   endloop
 endfacet
 facet normal  0.000000e+00  0.000000e+00  1.000000e+00
   outer loop
     vertex  1.099930e+02  3.238097e+01  2.000000e+01
     vertex  0.000000e+00  0.000000e+00  2.000000e+01
     vertex  1.423403e+02  0.000000e+00  2.000000e+01
   endloop
 endfacet
 facet normal  0.000000e+00  0.000000e+00  1.000000e+00
   outer loop
     vertex  1.199637e+02  3.179843e+01  2.000000e+01
     vertex  1.099930e+02  3.238097e+01  2.000000e+01
     vertex  1.423403e+02  0.000000e+00  2.000000e+01
   endloop
 endfacet
 facet normal  0.000000e+00  0.000000e+00  1.000000e+00
   outer loop
     vertex  1.423403e+02  8.834715e+01  2.000000e+01
     vertex  1.099930e+02  3.238097e+01  2.000000e+01
     vertex  1.199637e+02  3.179843e+01  2.000000e+01
   endloop
 endfacet
 facet normal  0.000000e+00  0.000000e+00  1.000000e+00
   outer loop
     vertex  1.423403e+02  8.834715e+01  2.000000e+01
     vertex  0.000000e+00  8.834715e+01  2.000000e+01
     vertex  1.099930e+02  3.238097e+01  2.000000e+01
   endloop
 endfacet
 facet normal  0.000000e+00  0.000000e+00  1.000000e+00
   outer loop
     vertex  1.423403e+02  8.834715e+01  2.000000e+01
     vertex  1.199637e+02  3.179843e+01  2.000000e+01
     vertex  1.423403e+02  0.000000e+00  2.000000e+01
   endloop
 endfacet
 facet normal  0.000000e+00  1.000000e+00  0.000000e+00
   outer loop
     vertex  1.423403e+02  8.834715e+01  2.000000e+01
     vertex  1.423403e+02  8.834715e+01  0.000000e+00
     vertex  0.000000e+00  8.834715e+01  0.000000e+00
   endloop
 endfacet
 facet normal  0.000000e+00  1.000000e+00  0.000000e+00
   outer loop
     vertex  1.423403e+02  8.834715e+01  2.000000e+01
     vertex  0.000000e+00  8.834715e+01  0.000000e+00
     vertex  0.000000e+00  8.834715e+01  2.000000e+01
   endloop
 endfacet
 facet normal -0.000000e+00  0.000000e+00 -1.000000e+00
   outer loop
     vertex  1.423403e+02  8.834715e+01  0.000000e+00
     vertex  0.000000e+00  0.000000e+00  0.000000e+00
     vertex  0.000000e+00  8.834715e+01  0.000000e+00
   endloop
 endfacet
 facet normal  0.000000e+00 -0.000000e+00 -1.000000e+00
   outer loop
     vertex  1.423403e+02  8.834715e+01  0.000000e+00
     vertex  1.423403e+02  0.000000e+00  0.000000e+00
     vertex  0.000000e+00  0.000000e+00  0.000000e+00
   endloop
 endfacet
 facet normal  1.000000e+00  0.000000e+00  0.000000e+00
   outer loop
     vertex  1.423403e+02  0.000000e+00  2.000000e+01
     vertex  1.423403e+02  0.000000e+00  0.000000e+00
     vertex  1.423403e+02  8.834715e+01  0.000000e+00
   endloop
 endfacet
 facet normal  1.000000e+00 -0.000000e+00  0.000000e+00
   outer loop
     vertex  1.423403e+02  0.000000e+00  2.000000e+01
     vertex  1.423403e+02  8.834715e+01  0.000000e+00
     vertex  1.423403e+02  8.834715e+01  2.000000e+01
   endloop
 endfacet
 facet normal -9.778047e-01  2.095182e-01  0.000000e+00
   outer loop
     vertex  1.138164e+02  5.022433e+01  3.193132e+01
     vertex  1.099930e+02  3.238097e+01  2.000000e+01
     vertex  1.099930e+02  3.238097e+01  3.619661e+01
   endloop
 endfacet
 facet normal -9.778047e-01  2.095182e-01  0.000000e+00
   outer loop
     vertex  1.138164e+02  5.022433e+01  3.193132e+01
     vertex  1.138164e+02  5.022433e+01  2.426529e+01
     vertex  1.099930e+02  3.238097e+01  2.000000e+01
   endloop
 endfacet
 facet normal  9.955509e-01  9.422491e-02  0.000000e+00
   outer loop
     vertex  1.182443e+02  4.996563e+01  3.193132e+01
     vertex  1.199637e+02  3.179843e+01  3.619661e+01
     vertex  1.199637e+02  3.179843e+01  2.000000e+01
   endloop
 endfacet
 facet normal  9.955509e-01  9.422491e-02  0.000000e+00
   outer loop
     vertex  1.182443e+02  4.996563e+01  3.193132e+01
     vertex  1.199637e+02  3.179843e+01  2.000000e+01
     vertex  1.182443e+02  4.996563e+01  2.426529e+01
   endloop
 endfacet
 facet normal -5.832553e-02 -9.982976e-01 -0.000000e+00
   outer loop
     vertex  1.099930e+02  3.238097e+01  3.619661e+01
     vertex  1.099930e+02  3.238097e+01  2.000000e+01
     vertex  1.199637e+02  3.179843e+01  2.000000e+01
   endloop
 endfacet
 facet normal -5.832553e-02 -9.982976e-01 -0.000000e+00
   outer loop
     vertex  1.199637e+02  3.179843e+01  3.619661e+01
     vertex  1.099930e+02  3.238097e+01  3.619661e+01
     vertex  1.199637e+02  3.179843e+01  2.000000e+01
   endloop
 endfacet
 facet normal  5.832553e-02  9.982976e-01  0.000000e+00
   outer loop
     vertex  1.138164e+02  5.022433e+01  3.193132e+01
     vertex  1.182443e+02  4.996563e+01  2.426529e+01
     vertex  1.138164e+02  5.022433e+01  2.426529e+01
   endloop
 endfacet
 facet normal  5.832553e-02  9.982976e-01  0.000000e+00
   outer loop
     vertex  1.182443e+02  4.996563e+01  3.193132e+01
     vertex  1.182443e+02  4.996563e+01  2.426529e+01
     vertex  1.138164e+02  5.022433e+01  3.193132e+01
   endloop
 endfacet
 facet normal  1.342302e-02  2.297480e-01 -9.731576e-01
   outer loop
     vertex  1.138164e+02  5.022433e+01  2.426529e+01
     vertex  1.199637e+02  3.179843e+01  2.000000e+01
     vertex  1.099930e+02  3.238097e+01  2.000000e+01
   endloop
 endfacet
 facet normal  1.342302e-02  2.297480e-01 -9.731576e-01
   outer loop
     vertex  1.138164e+02  5.022433e+01  2.426529e+01
     vertex  1.182443e+02  4.996563e+01  2.426529e+01
     vertex  1.199637e+02  3.179843e+01  2.000000e+01
   endloop
 endfacet
 facet normal  1.342302e-02  2.297480e-01  9.731576e-01
   outer loop
     vertex  1.138164e+02  5.022433e+01  3.193132e+01
     vertex  1.099930e+02  3.238097e+01  3.619661e+01
     vertex  1.199637e+02  3.179843e+01  3.619661e+01
   endloop
 endfacet
 facet normal  1.342302e-02  2.297480e-01  9.731576e-01
   outer loop
     vertex  1.138164e+02  5.022433e+01  3.193132e+01
     vertex  1.199637e+02  3.179843e+01  3.619661e+01
     vertex  1.182443e+02  4.996563e+01  3.193132e+01
   endloop
 endfacet
endsolid
