solid 
 facet normal -1.000000e+00  0.000000e+00  0.000000e+00
   outer loop
     vertex  0.000000e+00  0.000000e+00  2.000000e+01
     vertex  0.000000e+00  8.944697e+01  0.000000e+00
     vertex  0.000000e+00  0.000000e+00  0.000000e+00
   endloop
 endfacet
 facet normal -1.000000e+00  0.000000e+00  0.000000e+00
   outer loop
     vertex  0.000000e+00  0.000000e+00  2.000000e+01
     vertex  0.000000e+00  8.944697e+01  2.000000e+01
     vertex  0.000000e+00  8.944697e+01  0.000000e+00
   endloop
 endfacet
 facet normal  0.000000e+00 -1.000000e+00 -0.000000e+00
   outer loop
     vertex  1.303858e+02  0.000000e+00  2.000000e+01
     vertex  0.000000e+00  0.000000e+00  0.000000e+00
     vertex  1.303858e+02  0.000000e+00  0.000000e+00
   endloop
 endfacet
 facet normal -0.000000e+00 -1.000000e+00  0.000000e+00
   outer loop
     vertex  1.303858e+02  0.000000e+00  2.000000e+01
     vertex  0.000000e+00  0.000000e+00  2.000000e+01
     vertex  0.000000e+00  0.000000e+00  0.000000e+00
   endloop
 endfacet
 facet normal  0.000000e+00  0.000000e+00  1.000000e+00
   outer loop
     vertex  0.000000e+00  8.944697e+01  2.000000e+01
     vertex  0.000000e+00  0.000000e+00  2.000000e+01
     vertex  4.174059e+01  3.982821e+01  2.000000e+01
   endloop
 endfacet
 facet normal  0.000000e+00  0.000000e+00  1.000000e+00
   outer loop
     vertex  6.532882e+01  4.216288e+01  2.000000e+01
     vertex  4.174059e+01  3.982821e+01  2.000000e+01
     vertex  0.000000e+00  0.000000e+00  2.000000e+01
   endloop
 endfacet
 facet normal  0.000000e+00  0.000000e+00  1.000000e+00
   outer loop
     vertex  6.532882e+01  4.216288e+01  2.000000e+01
     vertex  0.000000e+00  8.944697e+01  2.000000e+01
     vertex  4.174059e+01  3.982821e+01  2.000000e+01
   endloop
 endfacet
 facet normal  0.000000e+00  0.000000e+00  1.000000e+00
   outer loop
     vertex  1.303858e+02  0.000000e+00  2.000000e+01
     vertex  6.532882e+01  4.216288e+01  2.000000e+01
     vertex  0.000000e+00  0.000000e+00  2.000000e+01
   endloop
 endfacet
 facet normal  0.000000e+00  0.000000e+00  1.000000e+00
   outer loop
     vertex  1.303858e+02  8.944697e+01  2.000000e+01
     vertex  0.000000e+00  8.944697e+01  2.000000e+01
     vertex  6.532882e+01  4.216288e+01  2.000000e+01
   endloop
 endfacet
 facet normal  0.000000e+00  0.000000e+00  1.000000e+00
   outer loop
     vertex  1.303858e+02  8.944697e+01  2.000000e+01
     vertex  6.532882e+01  4.216288e+01  2.000000e+01
     vertex  1.303858e+02  0.000000e+00  2.000000e+01
   endloop
 endfacet
 facet normal  0.000000e+00  1.000000e+00  0.000000e+00
   outer loop
     vertex  1.303858e+02  8.944697e+01  2.000000e+01
     vertex  1.303858e+02  8.944697e+01  0.000000e+00
     vertex  0.000000e+00  8.944697e+01  0.000000e+00
   endloop
 endfacet
 facet normal  0.000000e+00  1.000000e+00  0.000000e+00
   outer loop
     vertex  1.303858e+02  8.944697e+01  2.000000e+01
     vertex  0.000000e+00  8.944697e+01  0.000000e+00
     vertex  0.000000e+00  8.944697e+01  2.000000e+01
   endloop
 endfacet
 facet normal -0.000000e+00  0.000000e+00 -1.000000e+00
   outer loop
     vertex  1.303858e+02  8.944697e+01  0.000000e+00
     vertex  0.000000e+00  0.000000e+00  0.000000e+00
     vertex  0.000000e+00  8.944697e+01  0.000000e+00
   endloop
 endfacet
 facet normal  0.000000e+00 -0.000000e+00 -1.000000e+00
   outer loop
     vertex  1.303858e+02  8.944697e+01  0.000000e+00
     vertex  1.303858e+02  0.000000e+00  0.000000e+00
     vertex  0.000000e+00  0.000000e+00  0.000000e+00
   endloop
 endfacet
 facet normal  1.000000e+00  0.000000e+00  0.000000e+00
   outer loop
     vertex  1.303858e+02  0.000000e+00  2.000000e+01
     vertex  1.303858e+02  0.000000e+00  0.000000e+00
     vertex  1.303858e+02  8.944697e+01  0.000000e+00
   endloop
 endfacet
 facet normal  1.000000e+00 -0.000000e+00  0.000000e+00
   outer loop
     vertex  1.303858e+02  0.000000e+00  2.000000e+01
     vertex  1.303858e+02  8.944697e+01  0.000000e+00
     vertex  1.303858e+02  8.944697e+01  2.000000e+01
   endloop
 endfacet
 facet normal -9.897286e-01  1.429588e-01  0.000000e+00
   outer loop
     vertex  4.426678e+01  5.731745e+01  2.519688e+01
     vertex  4.174059e+01  3.982821e+01  2.000000e+01
     vertex  4.174059e+01  3.982821e+01  4.023973e+01
   endloop
 endfacet
 facet normal -9.897286e-01  1.429588e-01  0.000000e+00
   outer loop
     vertex  4.426678e+01  5.731745e+01  3.504285e+01
     vertex  4.426678e+01  5.731745e+01  2.519688e+01
     vertex  4.174059e+01  3.982821e+01  4.023973e+01
   endloop
 endfacet
 facet normal  9.425011e-01  3.342030e-01  0.000000e+00
   outer loop
     vertex  5.942321e+01  5.881757e+01  3.504285e+01
     vertex  6.532882e+01  4.216288e+01  4.023973e+01
     vertex  6.532882e+01  4.216288e+01  2.000000e+01
   endloop
 endfacet
 facet normal  9.425011e-01  3.342030e-01  0.000000e+00
   outer loop
     vertex  5.942321e+01  5.881757e+01  3.504285e+01
     vertex  6.532882e+01  4.216288e+01  2.000000e+01
     vertex  5.942321e+01  5.881757e+01  2.519688e+01
   endloop
 endfacet
 facet normal  9.849465e-02 -9.951376e-01  0.000000e+00
   outer loop
     vertex  6.532882e+01  4.216288e+01  2.000000e+01
     vertex  4.174059e+01  3.982821e+01  4.023973e+01
     vertex  4.174059e+01  3.982821e+01  2.000000e+01
   endloop
 endfacet
 facet normal  9.849465e-02 -9.951376e-01  0.000000e+00
   outer loop
     vertex  6.532882e+01  4.216288e+01  4.023973e+01
     vertex  4.174059e+01  3.982821e+01  4.023973e+01
     vertex  6.532882e+01  4.216288e+01  2.000000e+01
   endloop
 endfacet
 facet normal -9.849465e-02  9.951376e-01  0.000000e+00
   outer loop
     vertex  5.942321e+01  5.881757e+01  3.504285e+01
     vertex  5.942321e+01  5.881757e+01  2.519688e+01
     vertex  4.426678e+01  5.731745e+01  2.519688e+01
   endloop
 endfacet
 facet normal -9.849465e-02  9.951376e-01  0.000000e+00
   outer loop
     vertex  5.942321e+01  5.881757e+01  3.504285e+01
     vertex  4.426678e+01  5.731745e+01  2.519688e+01
     vertex  4.426678e+01  5.731745e+01  3.504285e+01
   endloop
 endfacet
 facet normal -2.855553e-02  2.885099e-01 -9.570510e-01
   outer loop
     vertex  4.426678e+01  5.731745e+01  2.519688e+01
     vertex  6.532882e+01  4.216288e+01  2.000000e+01
     vertex  4.174059e+01  3.982821e+01  2.000000e+01
   endloop
 endfacet
 facet normal -2.855553e-02  2.885099e-01 -9.570510e-01
   outer loop
     vertex  4.426678e+01  5.731745e+01  2.519688e+01
     vertex  5.942321e+01  5.881757e+01  2.519688e+01
     vertex  6.532882e+01  4.216288e+01  2.000000e+01
   endloop
 endfacet
 facet normal -2.855553e-02  2.885099e-01  9.570510e-01
   outer loop
     vertex  4.174059e+01  3.982821e+01  4.023973e+01
     vertex  6.532882e+01  4.216288e+01  4.023973e+01
     vertex  5.942321e+01  5.881757e+01  3.504285e+01
   endloop
 endfacet
 facet normal -2.855553e-02  2.885099e-01  9.570510e-01
   outer loop
     vertex  4.426678e+01  5.731745e+01  3.504285e+01
     vertex  4.174059e+01  3.982821e+01  4.023973e+01
     vertex  5.942321e+01  5.881757e+01  3.504285e+01
   endloop
 endfacet
endsolid
