solid 
 facet normal -1.000000e+00  0.000000e+00  0.000000e+00
   outer loop
     vertex  0.000000e+00  0.000000e+00  2.000000e+01
     vertex  0.000000e+00  9.136536e+01  0.000000e+00
     vertex  0.000000e+00  0.000000e+00  0.000000e+00
   endloop
 endfacet
 facet normal -1.000000e+00  0.000000e+00  0.000000e+00
   outer loop
     vertex  0.000000e+00  0.000000e+00  2.000000e+01
     vertex  0.000000e+00  9.136536e+01  2.000000e+01
     vertex  0.000000e+00  9.136536e+01  0.000000e+00
   endloop
 endfacet
 facet normal  0.000000e+00 -1.000000e+00 -0.000000e+00
   outer loop
     vertex  1.390263e+02  0.000000e+00  2.000000e+01
     vertex  0.000000e+00  0.000000e+00  0.000000e+00
     vertex  1.390263e+02  0.000000e+00  0.000000e+00
   endloop
 endfacet
 facet normal -0.000000e+00 -1.000000e+00  0.000000e+00
   outer loop
     vertex  1.390263e+02  0.000000e+00  2.000000e+01
     vertex  0.000000e+00  0.000000e+00  2.000000e+01
     vertex  0.000000e+00  0.000000e+00  0.000000e+00
   endloop
 endfacet
 facet normal  0.000000e+00  0.000000e+00  1.000000e+00
   outer loop
     vertex  1.390263e+02  0.000000e+00  2.000000e+01
     vertex  9.355647e+01  3.716784e+01  2.000000e+01
     vertex  0.000000e+00  0.000000e+00  2.000000e+01
   endloop
 endfacet
 facet normal  0.000000e+00  0.000000e+00  1.000000e+00
   outer loop
     vertex  9.130885e+01  5.043229e+01  2.000000e+01
     vertex  0.000000e+00  9.136536e+01  2.000000e+01
     vertex  0.000000e+00  0.000000e+00  2.000000e+01
   endloop
 endfacet
 facet normal  0.000000e+00  0.000000e+00  1.000000e+00
   outer loop
     vertex  9.130885e+01  5.043229e+01  2.000000e+01
     vertex  0.000000e+00  0.000000e+00  2.000000e+01
     vertex  9.355647e+01  3.716784e+01  2.000000e+01
   endloop
 endfacet
 facet normal  0.000000e+00  0.000000e+00  1.000000e+00
   outer loop
     vertex  1.098913e+02  3.993573e+01  2.000000e+01
     vertex  9.355647e+01  3.716784e+01  2.000000e+01
     vertex  1.390263e+02  0.000000e+00  2.000000e+01
   endloop
 endfacet
 facet normal  0.000000e+00  0.000000e+00  1.000000e+00
   outer loop
     vertex  1.390263e+02  9.136536e+01  2.000000e+01
     vertex  9.130885e+01  5.043229e+01  2.000000e+01
     vertex  1.076437e+02  5.320018e+01  2.000000e+01
   endloop
 endfacet
 facet normal  0.000000e+00  0.000000e+00  1.000000e+00
   outer loop
     vertex  1.390263e+02  9.136536e+01  2.000000e+01
     vertex  1.076437e+02  5.320018e+01  2.000000e+01
     vertex  1.098913e+02  3.993573e+01  2.000000e+01
   endloop
 endfacet
 facet normal  0.000000e+00  0.000000e+00  1.000000e+00
   outer loop
     vertex  1.390263e+02  9.136536e+01  2.000000e+01
     vertex  0.000000e+00  9.136536e+01  2.000000e+01
     vertex  9.130885e+01  5.043229e+01  2.000000e+01
   endloop
 endfacet
 facet normal  0.000000e+00  0.000000e+00  1.000000e+00
   outer loop
     vertex  1.390263e+02  9.136536e+01  2.000000e+01
     vertex  1.098913e+02  3.993573e+01  2.000000e+01
     vertex  1.390263e+02  0.000000e+00  2.000000e+01
   endloop
 endfacet
 facet normal  0.000000e+00  1.000000e+00  0.000000e+00
   outer loop
     vertex  1.390263e+02  9.136536e+01  2.000000e+01
     vertex  1.390263e+02  9.136536e+01  0.000000e+00
     vertex  0.000000e+00  9.136536e+01  0.000000e+00
   endloop
 endfacet
 facet normal  0.000000e+00  1.000000e+00  0.000000e+00
   outer loop
     vertex  1.390263e+02  9.136536e+01  2.000000e+01
     vertex  0.000000e+00  9.136536e+01  0.000000e+00
     vertex  0.000000e+00  9.136536e+01  2.000000e+01
   endloop
 endfacet
 facet normal -0.000000e+00  0.000000e+00 -1.000000e+00
   outer loop
     vertex  1.390263e+02  9.136536e+01  0.000000e+00
     vertex  0.000000e+00  0.000000e+00  0.000000e+00
     vertex  0.000000e+00  9.136536e+01  0.000000e+00
   endloop
 endfacet
 facet normal  0.000000e+00 -0.000000e+00 -1.000000e+00
   outer loop
     vertex  1.390263e+02  9.136536e+01  0.000000e+00
     vertex  1.390263e+02  0.000000e+00  0.000000e+00
     vertex  0.000000e+00  0.000000e+00  0.000000e+00
   endloop
 endfacet
 facet normal  1.000000e+00  0.000000e+00  0.000000e+00
   outer loop
     vertex  1.390263e+02  0.000000e+00  2.000000e+01
     vertex  1.390263e+02  0.000000e+00  0.000000e+00
     vertex  1.390263e+02  9.136536e+01  0.000000e+00
   endloop
 endfacet
 facet normal  1.000000e+00 -0.000000e+00  0.000000e+00
   outer loop
     vertex  1.390263e+02  0.000000e+00  2.000000e+01
     vertex  1.390263e+02  9.136536e+01  0.000000e+00
     vertex  1.390263e+02  9.136536e+01  2.000000e+01
   endloop
 endfacet
 facet normal -1.670655e-01  9.859458e-01  0.000000e+00
   outer loop
     vertex  1.000831e+02  5.191907e+01  3.529052e+01
     vertex  1.076437e+02  5.320018e+01  3.529052e+01
     vertex  1.076437e+02  5.320018e+01  2.000000e+01
   endloop
 endfacet
 facet normal -1.670655e-01  9.859458e-01 -2.804832e-17
   outer loop
     vertex  1.000831e+02  5.191907e+01  3.529052e+01
     vertex  1.076437e+02  5.320018e+01  2.000000e+01
     vertex  9.130885e+01  5.043229e+01  2.000000e+01
   endloop
 endfacet
 facet normal -8.521267e-01 -1.443903e-01  5.030223e-01
   outer loop
     vertex  1.023307e+02  3.865462e+01  3.529052e+01
     vertex  9.130885e+01  5.043229e+01  2.000000e+01
     vertex  9.355647e+01  3.716784e+01  2.000000e+01
   endloop
 endfacet
 facet normal -8.521267e-01 -1.443903e-01  5.030223e-01
   outer loop
     vertex  1.000831e+02  5.191907e+01  3.529052e+01
     vertex  9.130885e+01  5.043229e+01  2.000000e+01
     vertex  1.023307e+02  3.865462e+01  3.529052e+01
   endloop
 endfacet
 facet normal  1.670655e-01 -9.859458e-01  0.000000e+00
   outer loop
     vertex  1.023307e+02  3.865462e+01  3.529052e+01
     vertex  1.098913e+02  3.993573e+01  2.000000e+01
     vertex  1.098913e+02  3.993573e+01  3.529052e+01
   endloop
 endfacet
 facet normal  1.670655e-01 -9.859458e-01 -1.823141e-16
   outer loop
     vertex  1.023307e+02  3.865462e+01  3.529052e+01
     vertex  9.355647e+01  3.716784e+01  2.000000e+01
     vertex  1.098913e+02  3.993573e+01  2.000000e+01
   endloop
 endfacet
 facet normal  9.859458e-01  1.670655e-01 -0.000000e+00
   outer loop
     vertex  1.098913e+02  3.993573e+01  2.000000e+01
     vertex  1.076437e+02  5.320018e+01  3.529052e+01
     vertex  1.098913e+02  3.993573e+01  3.529052e+01
   endloop
 endfacet
 facet normal  9.859458e-01  1.670655e-01 -0.000000e+00
   outer loop
     vertex  1.076437e+02  5.320018e+01  2.000000e+01
     vertex  1.076437e+02  5.320018e+01  3.529052e+01
     vertex  1.098913e+02  3.993573e+01  2.000000e+01
   endloop
 endfacet
 facet normal  0.000000e+00  0.000000e+00  1.000000e+00
   outer loop
     vertex  1.000831e+02  5.191907e+01  3.529052e+01
     vertex  1.023307e+02  3.865462e+01  3.529052e+01
     vertex  1.098913e+02  3.993573e+01  3.529052e+01
   endloop
 endfacet
 facet normal -0.000000e+00  0.000000e+00  1.000000e+00
   outer loop
     vertex  1.000831e+02  5.191907e+01  3.529052e+01
     vertex  1.098913e+02  3.993573e+01  3.529052e+01
     vertex  1.076437e+02  5.320018e+01  3.529052e+01
   endloop
 endfacet
endsolid
