solid 
 facet normal -1.000000e+00  0.000000e+00  0.000000e+00
   outer loop
     vertex  0.000000e+00  0.000000e+00  2.000000e+01
     vertex  0.000000e+00  1.049748e+02  0.000000e+00
     vertex  0.000000e+00  0.000000e+00  0.000000e+00
   endloop
 endfacet
 facet normal -1.000000e+00  0.000000e+00  0.000000e+00
   outer loop
     vertex  0.000000e+00  0.000000e+00  2.000000e+01
     vertex  0.000000e+00  1.049748e+02  2.000000e+01
     vertex  0.000000e+00  1.049748e+02  0.000000e+00
   endloop
 endfacet
 facet normal  0.000000e+00 -1.000000e+00  0.000000e+00
   outer loop
     vertex  1.135236e+02  0.000000e+00  0.000000e+00
     vertex  0.000000e+00  0.000000e+00  2.000000e+01
     vertex  0.000000e+00  0.000000e+00  0.000000e+00
   endloop
 endfacet
 facet normal -0.000000e+00 -1.000000e+00 -0.000000e+00
   outer loop
     vertex  1.135236e+02  0.000000e+00  2.000000e+01
     vertex  0.000000e+00  0.000000e+00  2.000000e+01
     vertex  1.135236e+02  0.000000e+00  0.000000e+00
   endloop
 endfacet
 facet normal  0.000000e+00  0.000000e+00  1.000000e+00
   outer loop
     vertex  0.000000e+00  1.049748e+02  2.000000e+01
     vertex  3.586571e+01  3.812482e+01  2.000000e+01
     vertex  4.679364e+01  4.332289e+01  2.000000e+01
   endloop
 endfacet
 facet normal  0.000000e+00  0.000000e+00  1.000000e+00
   outer loop
     vertex  0.000000e+00  1.049748e+02  2.000000e+01
     vertex  0.000000e+00  0.000000e+00  2.000000e+01
     vertex  3.586571e+01  3.812482e+01  2.000000e+01
   endloop
 endfacet
 facet normal  0.000000e+00  0.000000e+00  1.000000e+00
   outer loop
     vertex  1.135236e+02  0.000000e+00  2.000000e+01
     vertex  4.679364e+01  4.332289e+01  2.000000e+01
     vertex  3.586571e+01  3.812482e+01  2.000000e+01
   endloop
 endfacet
 facet normal  0.000000e+00  0.000000e+00  1.000000e+00
   outer loop
     vertex  1.135236e+02  0.000000e+00  2.000000e+01
     vertex  3.586571e+01  3.812482e+01  2.000000e+01
     vertex  0.000000e+00  0.000000e+00  2.000000e+01
   endloop
 endfacet
 facet normal  0.000000e+00  0.000000e+00  1.000000e+00
   outer loop
     vertex  1.135236e+02  1.049748e+02  2.000000e+01
     vertex  0.000000e+00  1.049748e+02  2.000000e+01
     vertex  4.679364e+01  4.332289e+01  2.000000e+01
   endloop
 endfacet
 facet normal  0.000000e+00  0.000000e+00  1.000000e+00
   outer loop
     vertex  1.135236e+02  1.049748e+02  2.000000e+01
     vertex  4.679364e+01  4.332289e+01  2.000000e+01
     vertex  1.135236e+02  0.000000e+00  2.000000e+01
   endloop
 endfacet
 facet normal  0.000000e+00  1.000000e+00  0.000000e+00
   outer loop
     vertex  1.135236e+02  1.049748e+02  0.000000e+00
     vertex  0.000000e+00  1.049748e+02  0.000000e+00
     vertex  0.000000e+00  1.049748e+02  2.000000e+01
   endloop
 endfacet
 facet normal  0.000000e+00  1.000000e+00  0.000000e+00
   outer loop
     vertex  1.135236e+02  1.049748e+02  2.000000e+01
     vertex  1.135236e+02  1.049748e+02  0.000000e+00
     vertex  0.000000e+00  1.049748e+02  2.000000e+01
   endloop
 endfacet
 facet normal -0.000000e+00  0.000000e+00 -1.000000e+00
   outer loop
     vertex  1.135236e+02  1.049748e+02  0.000000e+00
     vertex  0.000000e+00  0.000000e+00  0.000000e+00
     vertex  0.000000e+00  1.049748e+02  0.000000e+00
   endloop
 endfacet
 facet normal  0.000000e+00 -0.000000e+00 -1.000000e+00
   outer loop
     vertex  1.135236e+02  1.049748e+02  0.000000e+00
     vertex  1.135236e+02  0.000000e+00  0.000000e+00
     vertex  0.000000e+00  0.000000e+00  0.000000e+00
   endloop
 endfacet
 facet normal  1.000000e+00  0.000000e+00  0.000000e+00
   outer loop
     vertex  1.135236e+02  0.000000e+00  2.000000e+01
     vertex  1.135236e+02  0.000000e+00  0.000000e+00
     vertex  1.135236e+02  1.049748e+02  0.000000e+00
   endloop
 endfacet
 facet normal  1.000000e+00 -0.000000e+00  0.000000e+00
   outer loop
     vertex  1.135236e+02  0.000000e+00  2.000000e+01
     vertex  1.135236e+02  1.049748e+02  0.000000e+00
     vertex  1.135236e+02  1.049748e+02  2.000000e+01
   endloop
 endfacet
 facet normal  9.560250e-01  2.932853e-01  0.000000e+00
   outer loop
     vertex  5.295783e+01  2.322942e+01  2.367675e+01
     vertex  4.679364e+01  4.332289e+01  2.000000e+01
     vertex  4.679364e+01  4.332289e+01  3.562949e+01
   endloop
 endfacet
 facet normal  9.560250e-01  2.932853e-01  0.000000e+00
   outer loop
     vertex  5.295783e+01  2.322942e+01  3.195274e+01
     vertex  5.295783e+01  2.322942e+01  2.367675e+01
     vertex  4.679364e+01  4.332289e+01  3.562949e+01
   endloop
 endfacet
 facet normal -8.307599e-01 -5.566309e-01  0.000000e+00
   outer loop
     vertex  4.756482e+01  2.066414e+01  3.195274e+01
     vertex  3.586571e+01  3.812482e+01  3.562949e+01
     vertex  3.586571e+01  3.812482e+01  2.000000e+01
   endloop
 endfacet
 facet normal -8.307599e-01 -5.566309e-01 -0.000000e+00
   outer loop
     vertex  4.756482e+01  2.066414e+01  3.195274e+01
     vertex  3.586571e+01  3.812482e+01  2.000000e+01
     vertex  4.756482e+01  2.066414e+01  2.367675e+01
   endloop
 endfacet
 facet normal -4.295488e-01  9.030436e-01  0.000000e+00
   outer loop
     vertex  4.679364e+01  4.332289e+01  3.562949e+01
     vertex  4.679364e+01  4.332289e+01  2.000000e+01
     vertex  3.586571e+01  3.812482e+01  2.000000e+01
   endloop
 endfacet
 facet normal -4.295488e-01  9.030436e-01  0.000000e+00
   outer loop
     vertex  3.586571e+01  3.812482e+01  3.562949e+01
     vertex  4.679364e+01  4.332289e+01  3.562949e+01
     vertex  3.586571e+01  3.812482e+01  2.000000e+01
   endloop
 endfacet
 facet normal  4.295488e-01 -9.030436e-01  0.000000e+00
   outer loop
     vertex  5.295783e+01  2.322942e+01  3.195274e+01
     vertex  4.756482e+01  2.066414e+01  2.367675e+01
     vertex  5.295783e+01  2.322942e+01  2.367675e+01
   endloop
 endfacet
 facet normal  4.295488e-01 -9.030436e-01  0.000000e+00
   outer loop
     vertex  4.756482e+01  2.066414e+01  3.195274e+01
     vertex  4.756482e+01  2.066414e+01  2.367675e+01
     vertex  5.295783e+01  2.322942e+01  3.195274e+01
   endloop
 endfacet
 facet normal  7.479491e-02 -1.572419e-01 -9.847237e-01
   outer loop
     vertex  4.756482e+01  2.066414e+01  2.367675e+01
     vertex  3.586571e+01  3.812482e+01  2.000000e+01
     vertex  4.679364e+01  4.332289e+01  2.000000e+01
   endloop
 endfacet
 facet normal  7.479491e-02 -1.572419e-01 -9.847237e-01
   outer loop
     vertex  5.295783e+01  2.322942e+01  2.367675e+01
     vertex  4.756482e+01  2.066414e+01  2.367675e+01
     vertex  4.679364e+01  4.332289e+01  2.000000e+01
   endloop
 endfacet
 facet normal  7.479491e-02 -1.572419e-01  9.847237e-01
   outer loop
     vertex  4.756482e+01  2.066414e+01  3.195274e+01
     vertex  4.679364e+01  4.332289e+01  3.562949e+01
     vertex  3.586571e+01  3.812482e+01  3.562949e+01
   endloop
 endfacet
 facet normal  7.479491e-02 -1.572419e-01  9.847237e-01
   outer loop
     vertex  5.295783e+01  2.322942e+01  3.195274e+01
     vertex  4.679364e+01  4.332289e+01  3.562949e+01
     vertex  4.756482e+01  2.066414e+01  3.195274e+01
   endloop
 endfacet
endsolid
