solid 
 facet normal -1.000000e+00  0.000000e+00  0.000000e+00
   outer loop
     vertex  0.000000e+00  0.000000e+00  2.000000e+01
     vertex  0.000000e+00  1.049625e+02  0.000000e+00
     vertex  0.000000e+00  0.000000e+00  0.000000e+00
   endloop
 endfacet
 facet normal -1.000000e+00  0.000000e+00  0.000000e+00
   outer loop
     vertex  0.000000e+00  0.000000e+00  2.000000e+01
     vertex  0.000000e+00  1.049625e+02  2.000000e+01
     vertex  0.000000e+00  1.049625e+02  0.000000e+00
   endloop
 endfacet
 facet normal  0.000000e+00 -1.000000e+00 -0.000000e+00
   outer loop
     vertex  1.323097e+02  0.000000e+00  2.000000e+01
     vertex  0.000000e+00  0.000000e+00  0.000000e+00
     vertex  1.323097e+02  0.000000e+00  0.000000e+00
   endloop
 endfacet
 facet normal -0.000000e+00 -1.000000e+00  0.000000e+00
   outer loop
     vertex  1.323097e+02  0.000000e+00  2.000000e+01
     vertex  0.000000e+00  0.000000e+00  2.000000e+01
     vertex  0.000000e+00  0.000000e+00  0.000000e+00
   endloop
 endfacet
 facet normal  0.000000e+00  0.000000e+00  1.000000e+00
   outer loop
     vertex  5.341920e+01  6.900323e+01  2.000000e+01
     vertex  0.000000e+00  1.049625e+02  2.000000e+01
     vertex  0.000000e+00  0.000000e+00  2.000000e+01
   endloop
 endfacet
 facet normal  0.000000e+00  0.000000e+00  1.000000e+00
   outer loop
     vertex  5.506965e+01  7.708845e+01  2.000000e+01
     vertex  0.000000e+00  1.049625e+02  2.000000e+01
     vertex  5.341920e+01  6.900323e+01  2.000000e+01
   endloop
 endfacet
 facet normal  0.000000e+00  0.000000e+00  1.000000e+00
   outer loop
     vertex  1.323097e+02  0.000000e+00  2.000000e+01
     vertex  5.341920e+01  6.900323e+01  2.000000e+01
     vertex  0.000000e+00  0.000000e+00  2.000000e+01
   endloop
 endfacet
 facet normal  0.000000e+00  0.000000e+00  1.000000e+00
   outer loop
     vertex  1.323097e+02  1.049625e+02  2.000000e+01
     vertex  5.506965e+01  7.708845e+01  2.000000e+01
     vertex  5.341920e+01  6.900323e+01  2.000000e+01
   endloop
 endfacet
 facet normal  0.000000e+00  0.000000e+00  1.000000e+00
   outer loop
     vertex  1.323097e+02  1.049625e+02  2.000000e+01
     vertex  5.341920e+01  6.900323e+01  2.000000e+01
     vertex  1.323097e+02  0.000000e+00  2.000000e+01
   endloop
 endfacet
 facet normal  0.000000e+00  0.000000e+00  1.000000e+00
   outer loop
     vertex  1.323097e+02  1.049625e+02  2.000000e+01
     vertex  0.000000e+00  1.049625e+02  2.000000e+01
     vertex  5.506965e+01  7.708845e+01  2.000000e+01
   endloop
 endfacet
 facet normal  0.000000e+00  1.000000e+00  0.000000e+00
   outer loop
     vertex  1.323097e+02  1.049625e+02  2.000000e+01
     vertex  1.323097e+02  1.049625e+02  0.000000e+00
     vertex  0.000000e+00  1.049625e+02  0.000000e+00
   endloop
 endfacet
 facet normal  0.000000e+00  1.000000e+00  0.000000e+00
   outer loop
     vertex  1.323097e+02  1.049625e+02  2.000000e+01
     vertex  0.000000e+00  1.049625e+02  0.000000e+00
     vertex  0.000000e+00  1.049625e+02  2.000000e+01
   endloop
 endfacet
 facet normal -0.000000e+00  0.000000e+00 -1.000000e+00
   outer loop
     vertex  1.323097e+02  1.049625e+02  0.000000e+00
     vertex  0.000000e+00  0.000000e+00  0.000000e+00
     vertex  0.000000e+00  1.049625e+02  0.000000e+00
   endloop
 endfacet
 facet normal  0.000000e+00 -0.000000e+00 -1.000000e+00
   outer loop
     vertex  1.323097e+02  1.049625e+02  0.000000e+00
     vertex  1.323097e+02  0.000000e+00  0.000000e+00
     vertex  0.000000e+00  0.000000e+00  0.000000e+00
   endloop
 endfacet
 facet normal  1.000000e+00  0.000000e+00  0.000000e+00
   outer loop
     vertex  1.323097e+02  0.000000e+00  2.000000e+01
     vertex  1.323097e+02  0.000000e+00  0.000000e+00
     vertex  1.323097e+02  1.049625e+02  0.000000e+00
   endloop
 endfacet
 facet normal  1.000000e+00 -0.000000e+00  0.000000e+00
   outer loop
     vertex  1.323097e+02  0.000000e+00  2.000000e+01
     vertex  1.323097e+02  1.049625e+02  0.000000e+00
     vertex  1.323097e+02  1.049625e+02  2.000000e+01
   endloop
 endfacet
 facet normal  2.980746e-01  9.545426e-01  0.000000e+00
   outer loop
     vertex  5.506965e+01  7.708845e+01  4.387611e+01
     vertex  6.984315e+01  7.247513e+01  2.317953e+01
     vertex  5.506965e+01  7.708845e+01  2.000000e+01
   endloop
 endfacet
 facet normal  2.980746e-01  9.545426e-01  0.000000e+00
   outer loop
     vertex  6.984315e+01  7.247513e+01  4.069658e+01
     vertex  6.984315e+01  7.247513e+01  2.317953e+01
     vertex  5.506965e+01  7.708845e+01  4.387611e+01
   endloop
 endfacet
 facet normal -9.988814e-02 -9.949987e-01  0.000000e+00
   outer loop
     vertex  6.881884e+01  6.745725e+01  4.069658e+01
     vertex  5.341920e+01  6.900323e+01  4.387611e+01
     vertex  5.341920e+01  6.900323e+01  2.000000e+01
   endloop
 endfacet
 facet normal -9.988814e-02 -9.949987e-01 -0.000000e+00
   outer loop
     vertex  6.881884e+01  6.745725e+01  4.069658e+01
     vertex  5.341920e+01  6.900323e+01  2.000000e+01
     vertex  6.881884e+01  6.745725e+01  2.317953e+01
   endloop
 endfacet
 facet normal -9.797945e-01  2.000069e-01  0.000000e+00
   outer loop
     vertex  5.341920e+01  6.900323e+01  4.387611e+01
     vertex  5.506965e+01  7.708845e+01  2.000000e+01
     vertex  5.341920e+01  6.900323e+01  2.000000e+01
   endloop
 endfacet
 facet normal -9.797945e-01  2.000069e-01  0.000000e+00
   outer loop
     vertex  5.341920e+01  6.900323e+01  4.387611e+01
     vertex  5.506965e+01  7.708845e+01  4.387611e+01
     vertex  5.506965e+01  7.708845e+01  2.000000e+01
   endloop
 endfacet
 facet normal  9.797945e-01 -2.000069e-01  0.000000e+00
   outer loop
     vertex  6.881884e+01  6.745725e+01  4.069658e+01
     vertex  6.881884e+01  6.745725e+01  2.317953e+01
     vertex  6.984315e+01  7.247513e+01  2.317953e+01
   endloop
 endfacet
 facet normal  9.797945e-01 -2.000069e-01  0.000000e+00
   outer loop
     vertex  6.881884e+01  6.745725e+01  4.069658e+01
     vertex  6.984315e+01  7.247513e+01  2.317953e+01
     vertex  6.984315e+01  7.247513e+01  4.069658e+01
   endloop
 endfacet
 facet normal  1.981415e-01 -4.044691e-02 -9.793386e-01
   outer loop
     vertex  6.984315e+01  7.247513e+01  2.317953e+01
     vertex  5.341920e+01  6.900323e+01  2.000000e+01
     vertex  5.506965e+01  7.708845e+01  2.000000e+01
   endloop
 endfacet
 facet normal  1.981415e-01 -4.044691e-02 -9.793386e-01
   outer loop
     vertex  6.984315e+01  7.247513e+01  2.317953e+01
     vertex  6.881884e+01  6.745725e+01  2.317953e+01
     vertex  5.341920e+01  6.900323e+01  2.000000e+01
   endloop
 endfacet
 facet normal  1.981415e-01 -4.044691e-02  9.793386e-01
   outer loop
     vertex  6.984315e+01  7.247513e+01  4.069658e+01
     vertex  5.506965e+01  7.708845e+01  4.387611e+01
     vertex  5.341920e+01  6.900323e+01  4.387611e+01
   endloop
 endfacet
 facet normal  1.981415e-01 -4.044691e-02  9.793386e-01
   outer loop
     vertex  6.984315e+01  7.247513e+01  4.069658e+01
     vertex  5.341920e+01  6.900323e+01  4.387611e+01
     vertex  6.881884e+01  6.745725e+01  4.069658e+01
   endloop
 endfacet
endsolid
