solid 
 facet normal -1.000000e+00  0.000000e+00  0.000000e+00
   outer loop
     vertex  0.000000e+00  0.000000e+00  2.000000e+01
     vertex  0.000000e+00  9.155810e+01  0.000000e+00
     vertex  0.000000e+00  0.000000e+00  0.000000e+00
   endloop
 endfacet
 facet normal -1.000000e+00  0.000000e+00  0.000000e+00
   outer loop
     vertex  0.000000e+00  0.000000e+00  2.000000e+01
     vertex  0.000000e+00  9.155810e+01  2.000000e+01
     vertex  0.000000e+00  9.155810e+01  0.000000e+00
   endloop
 endfacet
 facet normal  0.000000e+00 -1.000000e+00 -0.000000e+00
   outer loop
     vertex  1.165956e+02  0.000000e+00  2.000000e+01
     vertex  0.000000e+00  0.000000e+00  0.000000e+00
     vertex  1.165956e+02  0.000000e+00  0.000000e+00
   endloop
 endfacet
 facet normal -0.000000e+00 -1.000000e+00  0.000000e+00
   outer loop
     vertex  1.165956e+02  0.000000e+00  2.000000e+01
     vertex  0.000000e+00  0.000000e+00  2.000000e+01
     vertex  0.000000e+00  0.000000e+00  0.000000e+00
   endloop
 endfacet
 facet normal  0.000000e+00  0.000000e+00  1.000000e+00
   outer loop
     vertex  8.070793e+01  4.200339e+01  2.000000e+01
     vertex  0.000000e+00  9.155810e+01  2.000000e+01
     vertex  0.000000e+00  0.000000e+00  2.000000e+01
   endloop
 endfacet
 facet normal  0.000000e+00  0.000000e+00  1.000000e+00
   outer loop
     vertex  8.070793e+01  4.200339e+01  2.000000e+01
     vertex  0.000000e+00  0.000000e+00  2.000000e+01
     vertex  1.165956e+02  0.000000e+00  2.000000e+01
   endloop
 endfacet
 facet normal  0.000000e+00  0.000000e+00  1.000000e+00
   outer loop
     vertex  9.594398e+01  3.780337e+01  2.000000e+01
     vertex  8.070793e+01  4.200339e+01  2.000000e+01
     vertex  1.165956e+02  0.000000e+00  2.000000e+01
   endloop
 endfacet
 facet normal  0.000000e+00  0.000000e+00  1.000000e+00
   outer loop
     vertex  8.618361e+01  6.186702e+01  2.000000e+01
     vertex  0.000000e+00  9.155810e+01  2.000000e+01
     vertex  8.070793e+01  4.200339e+01  2.000000e+01
   endloop
 endfacet
 facet normal  0.000000e+00  0.000000e+00  1.000000e+00
   outer loop
     vertex  1.014197e+02  5.766700e+01  2.000000e+01
     vertex  9.594398e+01  3.780337e+01  2.000000e+01
     vertex  1.165956e+02  0.000000e+00  2.000000e+01
   endloop
 endfacet
 facet normal  0.000000e+00  0.000000e+00  1.000000e+00
   outer loop
     vertex  1.165956e+02  9.155810e+01  2.000000e+01
     vertex  8.618361e+01  6.186702e+01  2.000000e+01
     vertex  1.014197e+02  5.766700e+01  2.000000e+01
   endloop
 endfacet
 facet normal  0.000000e+00  0.000000e+00  1.000000e+00
   outer loop
     vertex  1.165956e+02  9.155810e+01  2.000000e+01
     vertex  0.000000e+00  9.155810e+01  2.000000e+01
     vertex  8.618361e+01  6.186702e+01  2.000000e+01
   endloop
 endfacet
 facet normal  0.000000e+00  0.000000e+00  1.000000e+00
   outer loop
     vertex  1.165956e+02  9.155810e+01  2.000000e+01
     vertex  1.014197e+02  5.766700e+01  2.000000e+01
     vertex  1.165956e+02  0.000000e+00  2.000000e+01
   endloop
 endfacet
 facet normal  0.000000e+00  1.000000e+00  0.000000e+00
   outer loop
     vertex  1.165956e+02  9.155810e+01  2.000000e+01
     vertex  1.165956e+02  9.155810e+01  0.000000e+00
     vertex  0.000000e+00  9.155810e+01  0.000000e+00
   endloop
 endfacet
 facet normal  0.000000e+00  1.000000e+00  0.000000e+00
   outer loop
     vertex  1.165956e+02  9.155810e+01  2.000000e+01
     vertex  0.000000e+00  9.155810e+01  0.000000e+00
     vertex  0.000000e+00  9.155810e+01  2.000000e+01
   endloop
 endfacet
 facet normal -0.000000e+00  0.000000e+00 -1.000000e+00
   outer loop
     vertex  1.165956e+02  9.155810e+01  0.000000e+00
     vertex  0.000000e+00  0.000000e+00  0.000000e+00
     vertex  0.000000e+00  9.155810e+01  0.000000e+00
   endloop
 endfacet
 facet normal  0.000000e+00 -0.000000e+00 -1.000000e+00
   outer loop
     vertex  1.165956e+02  9.155810e+01  0.000000e+00
     vertex  1.165956e+02  0.000000e+00  0.000000e+00
     vertex  0.000000e+00  0.000000e+00  0.000000e+00
   endloop
 endfacet
 facet normal  1.000000e+00  0.000000e+00  0.000000e+00
   outer loop
     vertex  1.165956e+02  0.000000e+00  2.000000e+01
     vertex  1.165956e+02  0.000000e+00  0.000000e+00
     vertex  1.165956e+02  9.155810e+01  0.000000e+00
   endloop
 endfacet
 facet normal  1.000000e+00 -0.000000e+00  0.000000e+00
   outer loop
     vertex  1.165956e+02  0.000000e+00  2.000000e+01
     vertex  1.165956e+02  9.155810e+01  0.000000e+00
     vertex  1.165956e+02  9.155810e+01  2.000000e+01
   endloop
 endfacet
 facet normal -9.640416e-01  2.657513e-01  0.000000e+00
   outer loop
     vertex  8.268161e+01  4.916314e+01  4.054437e+01
     vertex  8.618361e+01  6.186702e+01  4.054437e+01
     vertex  8.618361e+01  6.186702e+01  2.000000e+01
   endloop
 endfacet
 facet normal -9.640416e-01  2.657513e-01  2.182116e-16
   outer loop
     vertex  8.268161e+01  4.916314e+01  4.054437e+01
     vertex  8.618361e+01  6.186702e+01  2.000000e+01
     vertex  8.070793e+01  4.200339e+01  2.000000e+01
   endloop
 endfacet
 facet normal -2.499223e-01 -9.066202e-01  3.399688e-01
   outer loop
     vertex  8.268161e+01  4.916314e+01  4.054437e+01
     vertex  8.070793e+01  4.200339e+01  2.000000e+01
     vertex  9.594398e+01  3.780337e+01  2.000000e+01
   endloop
 endfacet
 facet normal -2.499223e-01 -9.066202e-01  3.399688e-01
   outer loop
     vertex  8.268161e+01  4.916314e+01  4.054437e+01
     vertex  9.594398e+01  3.780337e+01  2.000000e+01
     vertex  9.791767e+01  4.496312e+01  4.054437e+01
   endloop
 endfacet
 facet normal  9.640416e-01 -2.657513e-01  0.000000e+00
   outer loop
     vertex  9.791767e+01  4.496312e+01  4.054437e+01
     vertex  1.014197e+02  5.766700e+01  2.000000e+01
     vertex  1.014197e+02  5.766700e+01  4.054437e+01
   endloop
 endfacet
 facet normal  9.640416e-01 -2.657513e-01 -3.105319e-16
   outer loop
     vertex  9.791767e+01  4.496312e+01  4.054437e+01
     vertex  9.594398e+01  3.780337e+01  2.000000e+01
     vertex  1.014197e+02  5.766700e+01  2.000000e+01
   endloop
 endfacet
 facet normal  2.657513e-01  9.640416e-01  0.000000e+00
   outer loop
     vertex  8.618361e+01  6.186702e+01  2.000000e+01
     vertex  1.014197e+02  5.766700e+01  4.054437e+01
     vertex  1.014197e+02  5.766700e+01  2.000000e+01
   endloop
 endfacet
 facet normal  2.657513e-01  9.640416e-01 -0.000000e+00
   outer loop
     vertex  8.618361e+01  6.186702e+01  2.000000e+01
     vertex  8.618361e+01  6.186702e+01  4.054437e+01
     vertex  1.014197e+02  5.766700e+01  4.054437e+01
   endloop
 endfacet
 facet normal -0.000000e+00  0.000000e+00  1.000000e+00
   outer loop
     vertex  8.268161e+01  4.916314e+01  4.054437e+01
     vertex  9.791767e+01  4.496312e+01  4.054437e+01
     vertex  1.014197e+02  5.766700e+01  4.054437e+01
   endloop
 endfacet
 facet normal  0.000000e+00  0.000000e+00  1.000000e+00
   outer loop
     vertex  8.268161e+01  4.916314e+01  4.054437e+01
     vertex  1.014197e+02  5.766700e+01  4.054437e+01
     vertex  8.618361e+01  6.186702e+01  4.054437e+01
   endloop
 endfacet
endsolid
