solid 
 facet normal -1.000000e+00  0.000000e+00  0.000000e+00
   outer loop
     vertex  0.000000e+00  0.000000e+00  2.000000e+01
     vertex  0.000000e+00  1.096982e+02  0.000000e+00
     vertex  0.000000e+00  0.000000e+00  0.000000e+00
   endloop
 endfacet
 facet normal -1.000000e+00  0.000000e+00  0.000000e+00
   outer loop
     vertex  0.000000e+00  0.000000e+00  2.000000e+01
     vertex  0.000000e+00  1.096982e+02  2.000000e+01
     vertex  0.000000e+00  1.096982e+02  0.000000e+00
   endloop
 endfacet
 facet normal  0.000000e+00 -1.000000e+00 -0.000000e+00
   outer loop
     vertex  1.136499e+02  0.000000e+00  2.000000e+01
     vertex  0.000000e+00  0.000000e+00  0.000000e+00
     vertex  1.136499e+02  0.000000e+00  0.000000e+00
   endloop
 endfacet
 facet normal -0.000000e+00 -1.000000e+00  0.000000e+00
   outer loop
     vertex  1.136499e+02  0.000000e+00  2.000000e+01
     vertex  0.000000e+00  0.000000e+00  2.000000e+01
     vertex  0.000000e+00  0.000000e+00  0.000000e+00
   endloop
 endfacet
 facet normal  0.000000e+00  0.000000e+00  1.000000e+00
   outer loop
     vertex  2.079002e+01  5.499290e+01  2.000000e+01
     vertex  0.000000e+00  0.000000e+00  2.000000e+01
     vertex  2.876029e+01  4.351821e+01  2.000000e+01
   endloop
 endfacet
 facet normal  0.000000e+00  0.000000e+00  1.000000e+00
   outer loop
     vertex  0.000000e+00  1.096982e+02  2.000000e+01
     vertex  0.000000e+00  0.000000e+00  2.000000e+01
     vertex  2.079002e+01  5.499290e+01  2.000000e+01
   endloop
 endfacet
 facet normal  0.000000e+00  0.000000e+00  1.000000e+00
   outer loop
     vertex  1.136499e+02  0.000000e+00  2.000000e+01
     vertex  5.313043e+01  6.044559e+01  2.000000e+01
     vertex  2.876029e+01  4.351821e+01  2.000000e+01
   endloop
 endfacet
 facet normal  0.000000e+00  0.000000e+00  1.000000e+00
   outer loop
     vertex  1.136499e+02  0.000000e+00  2.000000e+01
     vertex  2.876029e+01  4.351821e+01  2.000000e+01
     vertex  0.000000e+00  0.000000e+00  2.000000e+01
   endloop
 endfacet
 facet normal  0.000000e+00  0.000000e+00  1.000000e+00
   outer loop
     vertex  4.516016e+01  7.192028e+01  2.000000e+01
     vertex  0.000000e+00  1.096982e+02  2.000000e+01
     vertex  2.079002e+01  5.499290e+01  2.000000e+01
   endloop
 endfacet
 facet normal  0.000000e+00  0.000000e+00  1.000000e+00
   outer loop
     vertex  1.136499e+02  1.096982e+02  2.000000e+01
     vertex  4.516016e+01  7.192028e+01  2.000000e+01
     vertex  5.313043e+01  6.044559e+01  2.000000e+01
   endloop
 endfacet
 facet normal  0.000000e+00  0.000000e+00  1.000000e+00
   outer loop
     vertex  1.136499e+02  1.096982e+02  2.000000e+01
     vertex  5.313043e+01  6.044559e+01  2.000000e+01
     vertex  1.136499e+02  0.000000e+00  2.000000e+01
   endloop
 endfacet
 facet normal  0.000000e+00  0.000000e+00  1.000000e+00
   outer loop
     vertex  1.136499e+02  1.096982e+02  2.000000e+01
     vertex  0.000000e+00  1.096982e+02  2.000000e+01
     vertex  4.516016e+01  7.192028e+01  2.000000e+01
   endloop
 endfacet
 facet normal  0.000000e+00  1.000000e+00  0.000000e+00
   outer loop
     vertex  1.136499e+02  1.096982e+02  2.000000e+01
     vertex  1.136499e+02  1.096982e+02  0.000000e+00
     vertex  0.000000e+00  1.096982e+02  0.000000e+00
   endloop
 endfacet
 facet normal  0.000000e+00  1.000000e+00  0.000000e+00
   outer loop
     vertex  1.136499e+02  1.096982e+02  2.000000e+01
     vertex  0.000000e+00  1.096982e+02  0.000000e+00
     vertex  0.000000e+00  1.096982e+02  2.000000e+01
   endloop
 endfacet
 facet normal  0.000000e+00  0.000000e+00 -1.000000e+00
   outer loop
     vertex  1.136499e+02  0.000000e+00  0.000000e+00
     vertex  0.000000e+00  0.000000e+00  0.000000e+00
     vertex  0.000000e+00  1.096982e+02  0.000000e+00
   endloop
 endfacet
 facet normal -0.000000e+00 -0.000000e+00 -1.000000e+00
   outer loop
     vertex  1.136499e+02  1.096982e+02  0.000000e+00
     vertex  1.136499e+02  0.000000e+00  0.000000e+00
     vertex  0.000000e+00  1.096982e+02  0.000000e+00
   endloop
 endfacet
 facet normal  1.000000e+00  0.000000e+00  0.000000e+00
   outer loop
     vertex  1.136499e+02  0.000000e+00  2.000000e+01
     vertex  1.136499e+02  0.000000e+00  0.000000e+00
     vertex  1.136499e+02  1.096982e+02  0.000000e+00
   endloop
 endfacet
 facet normal  1.000000e+00 -0.000000e+00  0.000000e+00
   outer loop
     vertex  1.136499e+02  0.000000e+00  2.000000e+01
     vertex  1.136499e+02  1.096982e+02  0.000000e+00
     vertex  1.136499e+02  1.096982e+02  2.000000e+01
   endloop
 endfacet
 facet normal -5.704795e-01  8.213118e-01  0.000000e+00
   outer loop
     vertex  3.265708e+01  6.323570e+01  3.699029e+01
     vertex  4.516016e+01  7.192028e+01  3.699029e+01
     vertex  4.516016e+01  7.192028e+01  2.000000e+01
   endloop
 endfacet
 facet normal -5.704795e-01  8.213118e-01  3.382602e-16
   outer loop
     vertex  3.265708e+01  6.323570e+01  3.699029e+01
     vertex  4.516016e+01  7.192028e+01  2.000000e+01
     vertex  2.079002e+01  5.499290e+01  2.000000e+01
   endloop
 endfacet
 facet normal -6.256598e-01 -4.345805e-01  6.478346e-01
   outer loop
     vertex  3.265708e+01  6.323570e+01  3.699029e+01
     vertex  2.079002e+01  5.499290e+01  2.000000e+01
     vertex  2.876029e+01  4.351821e+01  2.000000e+01
   endloop
 endfacet
 facet normal -6.256598e-01 -4.345805e-01  6.478346e-01
   outer loop
     vertex  3.265708e+01  6.323570e+01  3.699029e+01
     vertex  2.876029e+01  4.351821e+01  2.000000e+01
     vertex  4.062734e+01  5.176101e+01  3.699029e+01
   endloop
 endfacet
 facet normal  5.704795e-01 -8.213118e-01  0.000000e+00
   outer loop
     vertex  4.062734e+01  5.176101e+01  3.699029e+01
     vertex  5.313043e+01  6.044559e+01  2.000000e+01
     vertex  5.313043e+01  6.044559e+01  3.699029e+01
   endloop
 endfacet
 facet normal  5.704795e-01 -8.213118e-01 -2.255068e-16
   outer loop
     vertex  4.062734e+01  5.176101e+01  3.699029e+01
     vertex  2.876029e+01  4.351821e+01  2.000000e+01
     vertex  5.313043e+01  6.044559e+01  2.000000e+01
   endloop
 endfacet
 facet normal  8.213118e-01  5.704795e-01  0.000000e+00
   outer loop
     vertex  4.516016e+01  7.192028e+01  2.000000e+01
     vertex  5.313043e+01  6.044559e+01  3.699029e+01
     vertex  5.313043e+01  6.044559e+01  2.000000e+01
   endloop
 endfacet
 facet normal  8.213118e-01  5.704795e-01 -0.000000e+00
   outer loop
     vertex  4.516016e+01  7.192028e+01  2.000000e+01
     vertex  4.516016e+01  7.192028e+01  3.699029e+01
     vertex  5.313043e+01  6.044559e+01  3.699029e+01
   endloop
 endfacet
 facet normal  0.000000e+00  0.000000e+00  1.000000e+00
   outer loop
     vertex  3.265708e+01  6.323570e+01  3.699029e+01
     vertex  4.062734e+01  5.176101e+01  3.699029e+01
     vertex  5.313043e+01  6.044559e+01  3.699029e+01
   endloop
 endfacet
 facet normal -0.000000e+00  0.000000e+00  1.000000e+00
   outer loop
     vertex  3.265708e+01  6.323570e+01  3.699029e+01
     vertex  5.313043e+01  6.044559e+01  3.699029e+01
     vertex  4.516016e+01  7.192028e+01  3.699029e+01
   endloop
 endfacet
endsolid
