solid 
 facet normal -1.000000e+00  0.000000e+00  0.000000e+00
   outer loop
     vertex  0.000000e+00  0.000000e+00  2.000000e+01
     vertex  0.000000e+00  1.026738e+02  0.000000e+00
     vertex  0.000000e+00  0.000000e+00  0.000000e+00
   endloop
 endfacet
 facet normal -1.000000e+00  0.000000e+00  0.000000e+00
   outer loop
     vertex  0.000000e+00  0.000000e+00  2.000000e+01
     vertex  0.000000e+00  1.026738e+02  2.000000e+01
     vertex  0.000000e+00  1.026738e+02  0.000000e+00
   endloop
 endfacet
 facet normal  0.000000e+00 -1.000000e+00 -0.000000e+00
   outer loop
     vertex  1.153187e+02  0.000000e+00  2.000000e+01
     vertex  0.000000e+00  0.000000e+00  0.000000e+00
     vertex  1.153187e+02  0.000000e+00  0.000000e+00
   endloop
 endfacet
 facet normal -0.000000e+00 -1.000000e+00  0.000000e+00
   outer loop
     vertex  1.153187e+02  0.000000e+00  2.000000e+01
     vertex  0.000000e+00  0.000000e+00  2.000000e+01
     vertex  0.000000e+00  0.000000e+00  0.000000e+00
   endloop
 endfacet
 facet normal  0.000000e+00  0.000000e+00  1.000000e+00
   outer loop
     vertex  6.123639e+01  5.231675e+01  2.000000e+01
     vertex  0.000000e+00  1.026738e+02  2.000000e+01
     vertex  0.000000e+00  0.000000e+00  2.000000e+01
   endloop
 endfacet
 facet normal  0.000000e+00  0.000000e+00  1.000000e+00
   outer loop
     vertex  6.123639e+01  5.231675e+01  2.000000e+01
     vertex  0.000000e+00  0.000000e+00  2.000000e+01
     vertex  7.214134e+01  3.598263e+01  2.000000e+01
   endloop
 endfacet
 facet normal  0.000000e+00  0.000000e+00  1.000000e+00
   outer loop
     vertex  1.153187e+02  0.000000e+00  2.000000e+01
     vertex  7.214134e+01  3.598263e+01  2.000000e+01
     vertex  0.000000e+00  0.000000e+00  2.000000e+01
   endloop
 endfacet
 facet normal  0.000000e+00  0.000000e+00  1.000000e+00
   outer loop
     vertex  1.153187e+02  1.026738e+02  2.000000e+01
     vertex  6.123639e+01  5.231675e+01  2.000000e+01
     vertex  7.214134e+01  3.598263e+01  2.000000e+01
   endloop
 endfacet
 facet normal  0.000000e+00  0.000000e+00  1.000000e+00
   outer loop
     vertex  1.153187e+02  1.026738e+02  2.000000e+01
     vertex  0.000000e+00  1.026738e+02  2.000000e+01
     vertex  6.123639e+01  5.231675e+01  2.000000e+01
   endloop
 endfacet
 facet normal  0.000000e+00  0.000000e+00  1.000000e+00
   outer loop
     vertex  1.153187e+02  1.026738e+02  2.000000e+01
     vertex  7.214134e+01  3.598263e+01  2.000000e+01
     vertex  1.153187e+02  0.000000e+00  2.000000e+01
   endloop
 endfacet
 facet normal  0.000000e+00  1.000000e+00  0.000000e+00
   outer loop
     vertex  1.153187e+02  1.026738e+02  2.000000e+01
     vertex  1.153187e+02  1.026738e+02  0.000000e+00
     vertex  0.000000e+00  1.026738e+02  0.000000e+00
   endloop
 endfacet
 facet normal  0.000000e+00  1.000000e+00  0.000000e+00
   outer loop
     vertex  1.153187e+02  1.026738e+02  2.000000e+01
     vertex  0.000000e+00  1.026738e+02  0.000000e+00
     vertex  0.000000e+00  1.026738e+02  2.000000e+01
   endloop
 endfacet
 facet normal  0.000000e+00  0.000000e+00 -1.000000e+00
   outer loop
     vertex  1.153187e+02  0.000000e+00  0.000000e+00
     vertex  0.000000e+00  0.000000e+00  0.000000e+00
     vertex  0.000000e+00  1.026738e+02  0.000000e+00
   endloop
 endfacet
 facet normal -0.000000e+00 -0.000000e+00 -1.000000e+00
   outer loop
     vertex  1.153187e+02  1.026738e+02  0.000000e+00
     vertex  1.153187e+02  0.000000e+00  0.000000e+00
     vertex  0.000000e+00  1.026738e+02  0.000000e+00
   endloop
 endfacet
 facet normal  1.000000e+00  0.000000e+00  0.000000e+00
   outer loop
     vertex  1.153187e+02  0.000000e+00  2.000000e+01
     vertex  1.153187e+02  0.000000e+00  0.000000e+00
     vertex  1.153187e+02  1.026738e+02  0.000000e+00
   endloop
 endfacet
 facet normal  1.000000e+00 -0.000000e+00  0.000000e+00
   outer loop
     vertex  1.153187e+02  0.000000e+00  2.000000e+01
     vertex  1.153187e+02  1.026738e+02  0.000000e+00
     vertex  1.153187e+02  1.026738e+02  2.000000e+01
   endloop
 endfacet
 facet normal -3.340400e-01  9.425589e-01  0.000000e+00
   outer loop
     vertex  7.658167e+01  5.775507e+01  2.290075e+01
     vertex  6.123639e+01  5.231675e+01  2.000000e+01
     vertex  6.123639e+01  5.231675e+01  3.837638e+01
   endloop
 endfacet
 facet normal -3.340400e-01  9.425589e-01  0.000000e+00
   outer loop
     vertex  7.658167e+01  5.775507e+01  3.547564e+01
     vertex  7.658167e+01  5.775507e+01  2.290075e+01
     vertex  6.123639e+01  5.231675e+01  3.837638e+01
   endloop
 endfacet
 facet normal  7.424599e-01 -6.698905e-01  0.000000e+00
   outer loop
     vertex  8.304746e+01  4.807021e+01  2.290075e+01
     vertex  7.214134e+01  3.598263e+01  3.837638e+01
     vertex  7.214134e+01  3.598263e+01  2.000000e+01
   endloop
 endfacet
 facet normal  7.424599e-01 -6.698905e-01  0.000000e+00
   outer loop
     vertex  8.304746e+01  4.807021e+01  3.547564e+01
     vertex  7.214134e+01  3.598263e+01  3.837638e+01
     vertex  8.304746e+01  4.807021e+01  2.290075e+01
   endloop
 endfacet
 facet normal -8.316850e-01 -5.552477e-01 -0.000000e+00
   outer loop
     vertex  7.214134e+01  3.598263e+01  3.837638e+01
     vertex  6.123639e+01  5.231675e+01  2.000000e+01
     vertex  7.214134e+01  3.598263e+01  2.000000e+01
   endloop
 endfacet
 facet normal -8.316850e-01 -5.552477e-01  0.000000e+00
   outer loop
     vertex  7.214134e+01  3.598263e+01  3.837638e+01
     vertex  6.123639e+01  5.231675e+01  3.837638e+01
     vertex  6.123639e+01  5.231675e+01  2.000000e+01
   endloop
 endfacet
 facet normal  8.316850e-01  5.552477e-01  0.000000e+00
   outer loop
     vertex  8.304746e+01  4.807021e+01  3.547564e+01
     vertex  8.304746e+01  4.807021e+01  2.290075e+01
     vertex  7.658167e+01  5.775507e+01  2.290075e+01
   endloop
 endfacet
 facet normal  8.316850e-01  5.552477e-01  0.000000e+00
   outer loop
     vertex  8.304746e+01  4.807021e+01  3.547564e+01
     vertex  7.658167e+01  5.775507e+01  2.290075e+01
     vertex  7.658167e+01  5.775507e+01  3.547564e+01
   endloop
 endfacet
 facet normal  1.503455e-01  1.003733e-01 -9.835250e-01
   outer loop
     vertex  7.658167e+01  5.775507e+01  2.290075e+01
     vertex  7.214134e+01  3.598263e+01  2.000000e+01
     vertex  6.123639e+01  5.231675e+01  2.000000e+01
   endloop
 endfacet
 facet normal  1.503455e-01  1.003733e-01 -9.835250e-01
   outer loop
     vertex  7.658167e+01  5.775507e+01  2.290075e+01
     vertex  8.304746e+01  4.807021e+01  2.290075e+01
     vertex  7.214134e+01  3.598263e+01  2.000000e+01
   endloop
 endfacet
 facet normal  1.503455e-01  1.003733e-01  9.835250e-01
   outer loop
     vertex  7.658167e+01  5.775507e+01  3.547564e+01
     vertex  6.123639e+01  5.231675e+01  3.837638e+01
     vertex  7.214134e+01  3.598263e+01  3.837638e+01
   endloop
 endfacet
 facet normal  1.503455e-01  1.003733e-01  9.835250e-01
   outer loop
     vertex  7.658167e+01  5.775507e+01  3.547564e+01
     vertex  7.214134e+01  3.598263e+01  3.837638e+01
     vertex  8.304746e+01  4.807021e+01  3.547564e+01
   endloop
 endfacet
endsolid
