solid 
 facet normal -1.000000e+00  0.000000e+00  0.000000e+00
   outer loop
     vertex  0.000000e+00  0.000000e+00  2.000000e+01
     vertex  0.000000e+00  1.033503e+02  0.000000e+00
     vertex  0.000000e+00  0.000000e+00  0.000000e+00
   endloop
 endfacet
 facet normal -1.000000e+00  0.000000e+00  0.000000e+00
   outer loop
     vertex  0.000000e+00  0.000000e+00  2.000000e+01
     vertex  0.000000e+00  1.033503e+02  2.000000e+01
     vertex  0.000000e+00  1.033503e+02  0.000000e+00
   endloop
 endfacet
 facet normal  0.000000e+00 -1.000000e+00 -0.000000e+00
   outer loop
     vertex  1.206525e+02  0.000000e+00  2.000000e+01
     vertex  0.000000e+00  0.000000e+00  0.000000e+00
     vertex  1.206525e+02  0.000000e+00  0.000000e+00
   endloop
 endfacet
 facet normal -0.000000e+00 -1.000000e+00  0.000000e+00
   outer loop
     vertex  1.206525e+02  0.000000e+00  2.000000e+01
     vertex  0.000000e+00  0.000000e+00  2.000000e+01
     vertex  0.000000e+00  0.000000e+00  0.000000e+00
   endloop
 endfacet
 facet normal  0.000000e+00  0.000000e+00  1.000000e+00
   outer loop
     vertex  2.828247e+01  8.248809e+01  2.000000e+01
     vertex  0.000000e+00  1.033503e+02  2.000000e+01
     vertex  0.000000e+00  0.000000e+00  2.000000e+01
   endloop
 endfacet
 facet normal  0.000000e+00  0.000000e+00  1.000000e+00
   outer loop
     vertex  4.165532e+01  7.942142e+01  2.000000e+01
     vertex  0.000000e+00  0.000000e+00  2.000000e+01
     vertex  1.206525e+02  0.000000e+00  2.000000e+01
   endloop
 endfacet
 facet normal  0.000000e+00  0.000000e+00  1.000000e+00
   outer loop
     vertex  4.165532e+01  7.942142e+01  2.000000e+01
     vertex  0.000000e+00  1.033503e+02  2.000000e+01
     vertex  2.828247e+01  8.248809e+01  2.000000e+01
   endloop
 endfacet
 facet normal  0.000000e+00  0.000000e+00  1.000000e+00
   outer loop
     vertex  4.165532e+01  7.942142e+01  2.000000e+01
     vertex  2.828247e+01  8.248809e+01  2.000000e+01
     vertex  0.000000e+00  0.000000e+00  2.000000e+01
   endloop
 endfacet
 facet normal  0.000000e+00  0.000000e+00  1.000000e+00
   outer loop
     vertex  1.206525e+02  1.033503e+02  2.000000e+01
     vertex  4.165532e+01  7.942142e+01  2.000000e+01
     vertex  1.206525e+02  0.000000e+00  2.000000e+01
   endloop
 endfacet
 facet normal  0.000000e+00  0.000000e+00  1.000000e+00
   outer loop
     vertex  1.206525e+02  1.033503e+02  2.000000e+01
     vertex  0.000000e+00  1.033503e+02  2.000000e+01
     vertex  4.165532e+01  7.942142e+01  2.000000e+01
   endloop
 endfacet
 facet normal  0.000000e+00  1.000000e+00  0.000000e+00
   outer loop
     vertex  1.206525e+02  1.033503e+02  2.000000e+01
     vertex  1.206525e+02  1.033503e+02  0.000000e+00
     vertex  0.000000e+00  1.033503e+02  0.000000e+00
   endloop
 endfacet
 facet normal  0.000000e+00  1.000000e+00  0.000000e+00
   outer loop
     vertex  1.206525e+02  1.033503e+02  2.000000e+01
     vertex  0.000000e+00  1.033503e+02  0.000000e+00
     vertex  0.000000e+00  1.033503e+02  2.000000e+01
   endloop
 endfacet
 facet normal -0.000000e+00  0.000000e+00 -1.000000e+00
   outer loop
     vertex  1.206525e+02  1.033503e+02  0.000000e+00
     vertex  0.000000e+00  0.000000e+00  0.000000e+00
     vertex  0.000000e+00  1.033503e+02  0.000000e+00
   endloop
 endfacet
 facet normal  0.000000e+00 -0.000000e+00 -1.000000e+00
   outer loop
     vertex  1.206525e+02  1.033503e+02  0.000000e+00
     vertex  1.206525e+02  0.000000e+00  0.000000e+00
     vertex  0.000000e+00  0.000000e+00  0.000000e+00
   endloop
 endfacet
 facet normal  1.000000e+00  0.000000e+00  0.000000e+00
   outer loop
     vertex  1.206525e+02  0.000000e+00  2.000000e+01
     vertex  1.206525e+02  0.000000e+00  0.000000e+00
     vertex  1.206525e+02  1.033503e+02  0.000000e+00
   endloop
 endfacet
 facet normal  1.000000e+00 -0.000000e+00  0.000000e+00
   outer loop
     vertex  1.206525e+02  0.000000e+00  2.000000e+01
     vertex  1.206525e+02  1.033503e+02  0.000000e+00
     vertex  1.206525e+02  1.033503e+02  2.000000e+01
   endloop
 endfacet
 facet normal  8.984962e-01 -4.389813e-01  0.000000e+00
   outer loop
     vertex  4.165532e+01  7.942142e+01  4.242466e+01
     vertex  3.679312e+01  6.946959e+01  2.612675e+01
     vertex  4.165532e+01  7.942142e+01  2.000000e+01
   endloop
 endfacet
 facet normal  8.984962e-01 -4.389813e-01  0.000000e+00
   outer loop
     vertex  3.679312e+01  6.946959e+01  3.629791e+01
     vertex  3.679312e+01  6.946959e+01  2.612675e+01
     vertex  4.165532e+01  7.942142e+01  4.242466e+01
   endloop
 endfacet
 facet normal -9.999935e-01 -3.618903e-03  0.000000e+00
   outer loop
     vertex  2.832255e+01  7.141206e+01  3.629791e+01
     vertex  2.828247e+01  8.248809e+01  4.242466e+01
     vertex  2.828247e+01  8.248809e+01  2.000000e+01
   endloop
 endfacet
 facet normal -9.999935e-01 -3.618903e-03 -0.000000e+00
   outer loop
     vertex  2.832255e+01  7.141206e+01  3.629791e+01
     vertex  2.828247e+01  8.248809e+01  2.000000e+01
     vertex  2.832255e+01  7.141206e+01  2.612675e+01
   endloop
 endfacet
 facet normal  2.235185e-01  9.746997e-01  0.000000e+00
   outer loop
     vertex  2.828247e+01  8.248809e+01  4.242466e+01
     vertex  4.165532e+01  7.942142e+01  2.000000e+01
     vertex  2.828247e+01  8.248809e+01  2.000000e+01
   endloop
 endfacet
 facet normal  2.235185e-01  9.746997e-01  0.000000e+00
   outer loop
     vertex  2.828247e+01  8.248809e+01  4.242466e+01
     vertex  4.165532e+01  7.942142e+01  4.242466e+01
     vertex  4.165532e+01  7.942142e+01  2.000000e+01
   endloop
 endfacet
 facet normal -2.235185e-01 -9.746997e-01 -0.000000e+00
   outer loop
     vertex  3.679312e+01  6.946959e+01  3.629791e+01
     vertex  2.832255e+01  7.141206e+01  2.612675e+01
     vertex  3.679312e+01  6.946959e+01  2.612675e+01
   endloop
 endfacet
 facet normal -2.235185e-01 -9.746997e-01 -0.000000e+00
   outer loop
     vertex  2.832255e+01  7.141206e+01  3.629791e+01
     vertex  2.832255e+01  7.141206e+01  2.612675e+01
     vertex  3.679312e+01  6.946959e+01  3.629791e+01
   endloop
 endfacet
 facet normal -1.103912e-01 -4.813840e-01 -8.695305e-01
   outer loop
     vertex  2.832255e+01  7.141206e+01  2.612675e+01
     vertex  2.828247e+01  8.248809e+01  2.000000e+01
     vertex  4.165532e+01  7.942142e+01  2.000000e+01
   endloop
 endfacet
 facet normal -1.103912e-01 -4.813840e-01 -8.695305e-01
   outer loop
     vertex  3.679312e+01  6.946959e+01  2.612675e+01
     vertex  2.832255e+01  7.141206e+01  2.612675e+01
     vertex  4.165532e+01  7.942142e+01  2.000000e+01
   endloop
 endfacet
 facet normal -1.103912e-01 -4.813840e-01  8.695305e-01
   outer loop
     vertex  3.679312e+01  6.946959e+01  3.629791e+01
     vertex  4.165532e+01  7.942142e+01  4.242466e+01
     vertex  2.828247e+01  8.248809e+01  4.242466e+01
   endloop
 endfacet
 facet normal -1.103912e-01 -4.813840e-01  8.695305e-01
   outer loop
     vertex  3.679312e+01  6.946959e+01  3.629791e+01
     vertex  2.828247e+01  8.248809e+01  4.242466e+01
     vertex  2.832255e+01  7.141206e+01  3.629791e+01
   endloop
 endfacet
endsolid
