solid 
 facet normal -1.000000e+00  0.000000e+00  0.000000e+00
   outer loop
     vertex  0.000000e+00  0.000000e+00  0.000000e+00
     vertex  0.000000e+00  1.030074e+02  2.000000e+01
     vertex  0.000000e+00  1.030074e+02  0.000000e+00
   endloop
 endfacet
 facet normal -1.000000e+00  0.000000e+00  0.000000e+00
   outer loop
     vertex  0.000000e+00  0.000000e+00  2.000000e+01
     vertex  0.000000e+00  1.030074e+02  2.000000e+01
     vertex  0.000000e+00  0.000000e+00  0.000000e+00
   endloop
 endfacet
 facet normal  0.000000e+00 -1.000000e+00 -0.000000e+00
   outer loop
     vertex  1.290980e+02  0.000000e+00  2.000000e+01
     vertex  0.000000e+00  0.000000e+00  0.000000e+00
     vertex  1.290980e+02  0.000000e+00  0.000000e+00
   endloop
 endfacet
 facet normal -0.000000e+00 -1.000000e+00  0.000000e+00
   outer loop
     vertex  1.290980e+02  0.000000e+00  2.000000e+01
     vertex  0.000000e+00  0.000000e+00  2.000000e+01
     vertex  0.000000e+00  0.000000e+00  0.000000e+00
   endloop
 endfacet
 facet normal  0.000000e+00  0.000000e+00  1.000000e+00
   outer loop
     vertex  5.908925e+01  7.436071e+01  2.000000e+01
     vertex  0.000000e+00  1.030074e+02  2.000000e+01
     vertex  0.000000e+00  0.000000e+00  2.000000e+01
   endloop
 endfacet
 facet normal  0.000000e+00  0.000000e+00  1.000000e+00
   outer loop
     vertex  5.908925e+01  7.436071e+01  2.000000e+01
     vertex  0.000000e+00  0.000000e+00  2.000000e+01
     vertex  1.290980e+02  0.000000e+00  2.000000e+01
   endloop
 endfacet
 facet normal  0.000000e+00  0.000000e+00  1.000000e+00
   outer loop
     vertex  5.951323e+01  8.278778e+01  2.000000e+01
     vertex  0.000000e+00  1.030074e+02  2.000000e+01
     vertex  5.908925e+01  7.436071e+01  2.000000e+01
   endloop
 endfacet
 facet normal  0.000000e+00  0.000000e+00  1.000000e+00
   outer loop
     vertex  1.290980e+02  1.030074e+02  2.000000e+01
     vertex  5.951323e+01  8.278778e+01  2.000000e+01
     vertex  5.908925e+01  7.436071e+01  2.000000e+01
   endloop
 endfacet
 facet normal  0.000000e+00  0.000000e+00  1.000000e+00
   outer loop
     vertex  1.290980e+02  1.030074e+02  2.000000e+01
     vertex  5.908925e+01  7.436071e+01  2.000000e+01
     vertex  1.290980e+02  0.000000e+00  2.000000e+01
   endloop
 endfacet
 facet normal  0.000000e+00  0.000000e+00  1.000000e+00
   outer loop
     vertex  1.290980e+02  1.030074e+02  2.000000e+01
     vertex  0.000000e+00  1.030074e+02  2.000000e+01
     vertex  5.951323e+01  8.278778e+01  2.000000e+01
   endloop
 endfacet
 facet normal  0.000000e+00  1.000000e+00  0.000000e+00
   outer loop
     vertex  1.290980e+02  1.030074e+02  2.000000e+01
     vertex  1.290980e+02  1.030074e+02  0.000000e+00
     vertex  0.000000e+00  1.030074e+02  0.000000e+00
   endloop
 endfacet
 facet normal  0.000000e+00  1.000000e+00  0.000000e+00
   outer loop
     vertex  1.290980e+02  1.030074e+02  2.000000e+01
     vertex  0.000000e+00  1.030074e+02  0.000000e+00
     vertex  0.000000e+00  1.030074e+02  2.000000e+01
   endloop
 endfacet
 facet normal -0.000000e+00  0.000000e+00 -1.000000e+00
   outer loop
     vertex  1.290980e+02  1.030074e+02  0.000000e+00
     vertex  0.000000e+00  0.000000e+00  0.000000e+00
     vertex  0.000000e+00  1.030074e+02  0.000000e+00
   endloop
 endfacet
 facet normal  0.000000e+00 -0.000000e+00 -1.000000e+00
   outer loop
     vertex  1.290980e+02  1.030074e+02  0.000000e+00
     vertex  1.290980e+02  0.000000e+00  0.000000e+00
     vertex  0.000000e+00  0.000000e+00  0.000000e+00
   endloop
 endfacet
 facet normal  1.000000e+00  0.000000e+00  0.000000e+00
   outer loop
     vertex  1.290980e+02  0.000000e+00  0.000000e+00
     vertex  1.290980e+02  1.030074e+02  0.000000e+00
     vertex  1.290980e+02  1.030074e+02  2.000000e+01
   endloop
 endfacet
 facet normal  1.000000e+00 -0.000000e+00  0.000000e+00
   outer loop
     vertex  1.290980e+02  0.000000e+00  2.000000e+01
     vertex  1.290980e+02  0.000000e+00  0.000000e+00
     vertex  1.290980e+02  1.030074e+02  2.000000e+01
   endloop
 endfacet
 facet normal  1.557461e-01  9.877971e-01  0.000000e+00
   outer loop
     vertex  7.806748e+01  7.986233e+01  2.988232e+01
     vertex  5.951323e+01  8.278778e+01  2.000000e+01
     vertex  5.951323e+01  8.278778e+01  3.154093e+01
   endloop
 endfacet
 facet normal  1.557461e-01  9.877971e-01  0.000000e+00
   outer loop
     vertex  7.806748e+01  7.986233e+01  2.988232e+01
     vertex  7.806748e+01  7.986233e+01  2.165861e+01
     vertex  5.951323e+01  8.278778e+01  2.000000e+01
   endloop
 endfacet
 facet normal  5.581446e-02 -9.984412e-01  0.000000e+00
   outer loop
     vertex  7.784343e+01  7.540910e+01  2.988232e+01
     vertex  5.908925e+01  7.436071e+01  3.154093e+01
     vertex  5.908925e+01  7.436071e+01  2.000000e+01
   endloop
 endfacet
 facet normal  5.581446e-02 -9.984412e-01  0.000000e+00
   outer loop
     vertex  7.784343e+01  7.540910e+01  2.988232e+01
     vertex  5.908925e+01  7.436071e+01  2.000000e+01
     vertex  7.784343e+01  7.540910e+01  2.165861e+01
   endloop
 endfacet
 facet normal -9.987367e-01  5.024844e-02  0.000000e+00
   outer loop
     vertex  5.908925e+01  7.436071e+01  3.154093e+01
     vertex  5.951323e+01  8.278778e+01  2.000000e+01
     vertex  5.908925e+01  7.436071e+01  2.000000e+01
   endloop
 endfacet
 facet normal -9.987367e-01  5.024844e-02  0.000000e+00
   outer loop
     vertex  5.908925e+01  7.436071e+01  3.154093e+01
     vertex  5.951323e+01  8.278778e+01  3.154093e+01
     vertex  5.951323e+01  8.278778e+01  2.000000e+01
   endloop
 endfacet
 facet normal  9.987367e-01 -5.024844e-02  0.000000e+00
   outer loop
     vertex  7.784343e+01  7.540910e+01  2.988232e+01
     vertex  7.784343e+01  7.540910e+01  2.165861e+01
     vertex  7.806748e+01  7.986233e+01  2.165861e+01
   endloop
 endfacet
 facet normal  9.987367e-01 -5.024844e-02  0.000000e+00
   outer loop
     vertex  7.784343e+01  7.540910e+01  2.988232e+01
     vertex  7.806748e+01  7.986233e+01  2.165861e+01
     vertex  7.806748e+01  7.986233e+01  2.988232e+01
   endloop
 endfacet
 facet normal  8.834108e-02 -4.444616e-03 -9.960804e-01
   outer loop
     vertex  7.806748e+01  7.986233e+01  2.165861e+01
     vertex  5.908925e+01  7.436071e+01  2.000000e+01
     vertex  5.951323e+01  8.278778e+01  2.000000e+01
   endloop
 endfacet
 facet normal  8.834108e-02 -4.444616e-03 -9.960804e-01
   outer loop
     vertex  7.806748e+01  7.986233e+01  2.165861e+01
     vertex  7.784343e+01  7.540910e+01  2.165861e+01
     vertex  5.908925e+01  7.436071e+01  2.000000e+01
   endloop
 endfacet
 facet normal  8.834108e-02 -4.444616e-03  9.960804e-01
   outer loop
     vertex  7.806748e+01  7.986233e+01  2.988232e+01
     vertex  5.951323e+01  8.278778e+01  3.154093e+01
     vertex  5.908925e+01  7.436071e+01  3.154093e+01
   endloop
 endfacet
 facet normal  8.834108e-02 -4.444616e-03  9.960804e-01
   outer loop
     vertex  7.806748e+01  7.986233e+01  2.988232e+01
     vertex  5.908925e+01  7.436071e+01  3.154093e+01
     vertex  7.784343e+01  7.540910e+01  2.988232e+01
   endloop
 endfacet
endsolid
