solid 
 facet normal -1.000000e+00  0.000000e+00  0.000000e+00
   outer loop
     vertex  0.000000e+00  0.000000e+00  2.000000e+01
     vertex  0.000000e+00  8.981155e+01  0.000000e+00
     vertex  0.000000e+00  0.000000e+00  0.000000e+00
   endloop
 endfacet
 facet normal -1.000000e+00  0.000000e+00  0.000000e+00
   outer loop
     vertex  0.000000e+00  0.000000e+00  2.000000e+01
     vertex  0.000000e+00  8.981155e+01  2.000000e+01
     vertex  0.000000e+00  8.981155e+01  0.000000e+00
   endloop
 endfacet
 facet normal  0.000000e+00 -1.000000e+00 -0.000000e+00
   outer loop
     vertex  1.276198e+02  0.000000e+00  2.000000e+01
     vertex  0.000000e+00  0.000000e+00  0.000000e+00
     vertex  1.276198e+02  0.000000e+00  0.000000e+00
   endloop
 endfacet
 facet normal -0.000000e+00 -1.000000e+00  0.000000e+00
   outer loop
     vertex  1.276198e+02  0.000000e+00  2.000000e+01
     vertex  0.000000e+00  0.000000e+00  2.000000e+01
     vertex  0.000000e+00  0.000000e+00  0.000000e+00
   endloop
 endfacet
 facet normal  0.000000e+00  0.000000e+00  1.000000e+00
   outer loop
     vertex  3.936203e+01  3.629479e+01  2.000000e+01
     vertex  2.132210e+01  5.241049e+01  2.000000e+01
     vertex  0.000000e+00  0.000000e+00  2.000000e+01
   endloop
 endfacet
 facet normal  0.000000e+00  0.000000e+00  1.000000e+00
   outer loop
     vertex  0.000000e+00  8.981155e+01  2.000000e+01
     vertex  0.000000e+00  0.000000e+00  2.000000e+01
     vertex  2.132210e+01  5.241049e+01  2.000000e+01
   endloop
 endfacet
 facet normal -1.599567e-16 -9.119024e-17  1.000000e+00
   outer loop
     vertex  3.488025e+01  6.758750e+01  2.000000e+01
     vertex  0.000000e+00  8.981155e+01  2.000000e+01
     vertex  2.132210e+01  5.241049e+01  2.000000e+01
   endloop
 endfacet
 facet normal -7.040098e-17 -1.711935e-16  1.000000e+00
   outer loop
     vertex  1.276198e+02  0.000000e+00  2.000000e+01
     vertex  5.292018e+01  5.147180e+01  2.000000e+01
     vertex  3.936203e+01  3.629479e+01  2.000000e+01
   endloop
 endfacet
 facet normal  0.000000e+00  0.000000e+00  1.000000e+00
   outer loop
     vertex  1.276198e+02  0.000000e+00  2.000000e+01
     vertex  3.936203e+01  3.629479e+01  2.000000e+01
     vertex  0.000000e+00  0.000000e+00  2.000000e+01
   endloop
 endfacet
 facet normal  3.020575e-17  3.381235e-17  1.000000e+00
   outer loop
     vertex  1.276198e+02  8.981155e+01  2.000000e+01
     vertex  3.488025e+01  6.758750e+01  2.000000e+01
     vertex  5.292018e+01  5.147180e+01  2.000000e+01
   endloop
 endfacet
 facet normal  4.756003e-17  0.000000e+00  1.000000e+00
   outer loop
     vertex  1.276198e+02  8.981155e+01  2.000000e+01
     vertex  5.292018e+01  5.147180e+01  2.000000e+01
     vertex  1.276198e+02  0.000000e+00  2.000000e+01
   endloop
 endfacet
 facet normal  0.000000e+00  1.598590e-16  1.000000e+00
   outer loop
     vertex  1.276198e+02  8.981155e+01  2.000000e+01
     vertex  0.000000e+00  8.981155e+01  2.000000e+01
     vertex  3.488025e+01  6.758750e+01  2.000000e+01
   endloop
 endfacet
 facet normal  0.000000e+00  1.000000e+00  0.000000e+00
   outer loop
     vertex  1.276198e+02  8.981155e+01  2.000000e+01
     vertex  1.276198e+02  8.981155e+01  0.000000e+00
     vertex  0.000000e+00  8.981155e+01  0.000000e+00
   endloop
 endfacet
 facet normal  0.000000e+00  1.000000e+00  0.000000e+00
   outer loop
     vertex  1.276198e+02  8.981155e+01  2.000000e+01
     vertex  0.000000e+00  8.981155e+01  0.000000e+00
     vertex  0.000000e+00  8.981155e+01  2.000000e+01
   endloop
 endfacet
 facet normal  0.000000e+00  0.000000e+00 -1.000000e+00
   outer loop
     vertex  1.276198e+02  0.000000e+00  0.000000e+00
     vertex  0.000000e+00  0.000000e+00  0.000000e+00
     vertex  0.000000e+00  8.981155e+01  0.000000e+00
   endloop
 endfacet
 facet normal -0.000000e+00 -0.000000e+00 -1.000000e+00
   outer loop
     vertex  1.276198e+02  8.981155e+01  0.000000e+00
     vertex  1.276198e+02  0.000000e+00  0.000000e+00
     vertex  0.000000e+00  8.981155e+01  0.000000e+00
   endloop
 endfacet
 facet normal  1.000000e+00  0.000000e+00  0.000000e+00
   outer loop
     vertex  1.276198e+02  0.000000e+00  2.000000e+01
     vertex  1.276198e+02  0.000000e+00  0.000000e+00
     vertex  1.276198e+02  8.981155e+01  0.000000e+00
   endloop
 endfacet
 facet normal  1.000000e+00 -0.000000e+00  0.000000e+00
   outer loop
     vertex  1.276198e+02  0.000000e+00  2.000000e+01
     vertex  1.276198e+02  8.981155e+01  0.000000e+00
     vertex  1.276198e+02  8.981155e+01  2.000000e+01
   endloop
 endfacet
 facet normal  6.662140e-01  7.457606e-01  0.000000e+00
   outer loop
     vertex  4.363100e+01  5.977015e+01  3.413188e+01
     vertex  5.292018e+01  5.147180e+01  3.413188e+01
     vertex  5.292018e+01  5.147180e+01  2.000000e+01
   endloop
 endfacet
 facet normal  6.662140e-01  7.457606e-01  3.325637e-16
   outer loop
     vertex  4.363100e+01  5.977015e+01  3.413188e+01
     vertex  5.292018e+01  5.147180e+01  2.000000e+01
     vertex  3.488025e+01  6.758750e+01  2.000000e+01
   endloop
 endfacet
 facet normal -5.737584e-01  5.125585e-01  6.388154e-01
   outer loop
     vertex  4.363100e+01  5.977015e+01  3.413188e+01
     vertex  3.488025e+01  6.758750e+01  2.000000e+01
     vertex  2.132210e+01  5.241049e+01  2.000000e+01
   endloop
 endfacet
 facet normal -5.737584e-01  5.125585e-01  6.388154e-01
   outer loop
     vertex  4.363100e+01  5.977015e+01  3.413188e+01
     vertex  2.132210e+01  5.241049e+01  2.000000e+01
     vertex  3.007284e+01  4.459314e+01  3.413188e+01
   endloop
 endfacet
 facet normal -6.662140e-01 -7.457606e-01  0.000000e+00
   outer loop
     vertex  3.007284e+01  4.459314e+01  3.413188e+01
     vertex  3.936203e+01  3.629479e+01  2.000000e+01
     vertex  3.936203e+01  3.629479e+01  3.413188e+01
   endloop
 endfacet
 facet normal -6.662140e-01 -7.457606e-01 -1.247114e-16
   outer loop
     vertex  3.007284e+01  4.459314e+01  3.413188e+01
     vertex  2.132210e+01  5.241049e+01  2.000000e+01
     vertex  3.936203e+01  3.629479e+01  2.000000e+01
   endloop
 endfacet
 facet normal  7.457606e-01 -6.662140e-01  0.000000e+00
   outer loop
     vertex  5.292018e+01  5.147180e+01  2.000000e+01
     vertex  3.936203e+01  3.629479e+01  3.413188e+01
     vertex  3.936203e+01  3.629479e+01  2.000000e+01
   endloop
 endfacet
 facet normal  7.457606e-01 -6.662140e-01  0.000000e+00
   outer loop
     vertex  5.292018e+01  5.147180e+01  2.000000e+01
     vertex  5.292018e+01  5.147180e+01  3.413188e+01
     vertex  3.936203e+01  3.629479e+01  3.413188e+01
   endloop
 endfacet
 facet normal  0.000000e+00  0.000000e+00  1.000000e+00
   outer loop
     vertex  4.363100e+01  5.977015e+01  3.413188e+01
     vertex  3.007284e+01  4.459314e+01  3.413188e+01
     vertex  3.936203e+01  3.629479e+01  3.413188e+01
   endloop
 endfacet
 facet normal  0.000000e+00  0.000000e+00  1.000000e+00
   outer loop
     vertex  4.363100e+01  5.977015e+01  3.413188e+01
     vertex  3.936203e+01  3.629479e+01  3.413188e+01
     vertex  5.292018e+01  5.147180e+01  3.413188e+01
   endloop
 endfacet
endsolid
