solid 
 facet normal -1.000000e+00  0.000000e+00  0.000000e+00
   outer loop
     vertex  0.000000e+00  0.000000e+00  2.000000e+01
     vertex  0.000000e+00  9.671656e+01  0.000000e+00
     vertex  0.000000e+00  0.000000e+00  0.000000e+00
   endloop
 endfacet
 facet normal -1.000000e+00  0.000000e+00  0.000000e+00
   outer loop
     vertex  0.000000e+00  0.000000e+00  2.000000e+01
     vertex  0.000000e+00  9.671656e+01  2.000000e+01
     vertex  0.000000e+00  9.671656e+01  0.000000e+00
   endloop
 endfacet
 facet normal  0.000000e+00 -1.000000e+00 -0.000000e+00
   outer loop
     vertex  1.165422e+02  0.000000e+00  2.000000e+01
     vertex  0.000000e+00  0.000000e+00  0.000000e+00
     vertex  1.165422e+02  0.000000e+00  0.000000e+00
   endloop
 endfacet
 facet normal -0.000000e+00 -1.000000e+00  0.000000e+00
   outer loop
     vertex  1.165422e+02  0.000000e+00  2.000000e+01
     vertex  0.000000e+00  0.000000e+00  2.000000e+01
     vertex  0.000000e+00  0.000000e+00  0.000000e+00
   endloop
 endfacet
 facet normal  0.000000e+00  0.000000e+00  1.000000e+00
   outer loop
     vertex  6.527705e+01  5.828973e+01  2.000000e+01
     vertex  0.000000e+00  0.000000e+00  2.000000e+01
     vertex  1.165422e+02  0.000000e+00  2.000000e+01
   endloop
 endfacet
 facet normal  0.000000e+00  0.000000e+00  1.000000e+00
   outer loop
     vertex  5.849012e+01  7.419738e+01  2.000000e+01
     vertex  0.000000e+00  9.671656e+01  2.000000e+01
     vertex  0.000000e+00  0.000000e+00  2.000000e+01
   endloop
 endfacet
 facet normal  0.000000e+00  0.000000e+00  1.000000e+00
   outer loop
     vertex  5.849012e+01  7.419738e+01  2.000000e+01
     vertex  0.000000e+00  0.000000e+00  2.000000e+01
     vertex  6.527705e+01  5.828973e+01  2.000000e+01
   endloop
 endfacet
 facet normal -1.537846e-16 -1.352517e-16  1.000000e+00
   outer loop
     vertex  8.207562e+01  6.545675e+01  2.000000e+01
     vertex  6.527705e+01  5.828973e+01  2.000000e+01
     vertex  1.165422e+02  0.000000e+00  2.000000e+01
   endloop
 endfacet
 facet normal -1.003200e-16 -2.605658e-16  1.000000e+00
   outer loop
     vertex  7.528869e+01  8.136441e+01  2.000000e+01
     vertex  0.000000e+00  9.671656e+01  2.000000e+01
     vertex  5.849012e+01  7.419738e+01  2.000000e+01
   endloop
 endfacet
 facet normal  7.431925e-17  3.170794e-17  1.000000e+00
   outer loop
     vertex  1.165422e+02  9.671656e+01  2.000000e+01
     vertex  7.528869e+01  8.136441e+01  2.000000e+01
     vertex  8.207562e+01  6.545675e+01  2.000000e+01
   endloop
 endfacet
 facet normal  1.030771e-16  0.000000e+00  1.000000e+00
   outer loop
     vertex  1.165422e+02  9.671656e+01  2.000000e+01
     vertex  8.207562e+01  6.545675e+01  2.000000e+01
     vertex  1.165422e+02  0.000000e+00  2.000000e+01
   endloop
 endfacet
 facet normal  0.000000e+00  2.314147e-16  1.000000e+00
   outer loop
     vertex  1.165422e+02  9.671656e+01  2.000000e+01
     vertex  0.000000e+00  9.671656e+01  2.000000e+01
     vertex  7.528869e+01  8.136441e+01  2.000000e+01
   endloop
 endfacet
 facet normal  0.000000e+00  1.000000e+00  0.000000e+00
   outer loop
     vertex  1.165422e+02  9.671656e+01  2.000000e+01
     vertex  1.165422e+02  9.671656e+01  0.000000e+00
     vertex  0.000000e+00  9.671656e+01  0.000000e+00
   endloop
 endfacet
 facet normal  0.000000e+00  1.000000e+00  0.000000e+00
   outer loop
     vertex  1.165422e+02  9.671656e+01  2.000000e+01
     vertex  0.000000e+00  9.671656e+01  0.000000e+00
     vertex  0.000000e+00  9.671656e+01  2.000000e+01
   endloop
 endfacet
 facet normal -0.000000e+00  0.000000e+00 -1.000000e+00
   outer loop
     vertex  1.165422e+02  9.671656e+01  0.000000e+00
     vertex  0.000000e+00  0.000000e+00  0.000000e+00
     vertex  0.000000e+00  9.671656e+01  0.000000e+00
   endloop
 endfacet
 facet normal  0.000000e+00 -0.000000e+00 -1.000000e+00
   outer loop
     vertex  1.165422e+02  9.671656e+01  0.000000e+00
     vertex  1.165422e+02  0.000000e+00  0.000000e+00
     vertex  0.000000e+00  0.000000e+00  0.000000e+00
   endloop
 endfacet
 facet normal  1.000000e+00  0.000000e+00  0.000000e+00
   outer loop
     vertex  1.165422e+02  0.000000e+00  2.000000e+01
     vertex  1.165422e+02  0.000000e+00  0.000000e+00
     vertex  1.165422e+02  9.671656e+01  0.000000e+00
   endloop
 endfacet
 facet normal  1.000000e+00 -0.000000e+00  0.000000e+00
   outer loop
     vertex  1.165422e+02  0.000000e+00  2.000000e+01
     vertex  1.165422e+02  9.671656e+01  0.000000e+00
     vertex  1.165422e+02  9.671656e+01  2.000000e+01
   endloop
 endfacet
 facet normal  9.197854e-01  3.924218e-01  8.074112e-16
   outer loop
     vertex  8.008132e+01  7.013113e+01  3.601768e+01
     vertex  8.207562e+01  6.545675e+01  3.601768e+01
     vertex  8.207562e+01  6.545675e+01  2.000000e+01
   endloop
 endfacet
 facet normal  9.197854e-01  3.924218e-01 -5.129803e-17
   outer loop
     vertex  8.008132e+01  7.013113e+01  3.601768e+01
     vertex  8.207562e+01  6.545675e+01  2.000000e+01
     vertex  7.528869e+01  8.136441e+01  2.000000e+01
   endloop
 endfacet
 facet normal -3.120603e-01  7.314286e-01  6.063255e-01
   outer loop
     vertex  8.008132e+01  7.013113e+01  3.601768e+01
     vertex  7.528869e+01  8.136441e+01  2.000000e+01
     vertex  5.849012e+01  7.419738e+01  2.000000e+01
   endloop
 endfacet
 facet normal -3.120603e-01  7.314286e-01  6.063255e-01
   outer loop
     vertex  8.008132e+01  7.013113e+01  3.601768e+01
     vertex  5.849012e+01  7.419738e+01  2.000000e+01
     vertex  6.328275e+01  6.296410e+01  3.601768e+01
   endloop
 endfacet
 facet normal -9.197854e-01 -3.924218e-01  0.000000e+00
   outer loop
     vertex  6.328275e+01  6.296410e+01  3.601768e+01
     vertex  6.527705e+01  5.828973e+01  2.000000e+01
     vertex  6.527705e+01  5.828973e+01  3.601768e+01
   endloop
 endfacet
 facet normal -9.197854e-01 -3.924218e-01 -2.436656e-16
   outer loop
     vertex  6.328275e+01  6.296410e+01  3.601768e+01
     vertex  5.849012e+01  7.419738e+01  2.000000e+01
     vertex  6.527705e+01  5.828973e+01  2.000000e+01
   endloop
 endfacet
 facet normal  3.924218e-01 -9.197854e-01  0.000000e+00
   outer loop
     vertex  8.207562e+01  6.545675e+01  2.000000e+01
     vertex  6.527705e+01  5.828973e+01  3.601768e+01
     vertex  6.527705e+01  5.828973e+01  2.000000e+01
   endloop
 endfacet
 facet normal  3.924218e-01 -9.197854e-01  3.481558e-16
   outer loop
     vertex  8.207562e+01  6.545675e+01  2.000000e+01
     vertex  8.207562e+01  6.545675e+01  3.601768e+01
     vertex  6.527705e+01  5.828973e+01  3.601768e+01
   endloop
 endfacet
 facet normal  0.000000e+00  0.000000e+00  1.000000e+00
   outer loop
     vertex  8.207562e+01  6.545675e+01  3.601768e+01
     vertex  6.328275e+01  6.296410e+01  3.601768e+01
     vertex  6.527705e+01  5.828973e+01  3.601768e+01
   endloop
 endfacet
 facet normal  0.000000e+00  0.000000e+00  1.000000e+00
   outer loop
     vertex  8.008132e+01  7.013113e+01  3.601768e+01
     vertex  6.328275e+01  6.296410e+01  3.601768e+01
     vertex  8.207562e+01  6.545675e+01  3.601768e+01
   endloop
 endfacet
endsolid
