solid 
 facet normal -1.000000e+00  0.000000e+00  0.000000e+00
   outer loop
     vertex  0.000000e+00  0.000000e+00  0.000000e+00
     vertex  0.000000e+00  9.067428e+01  6.000000e+01
     vertex  0.000000e+00  9.067428e+01  0.000000e+00
   endloop
 endfacet
 facet normal -1.000000e+00  0.000000e+00  0.000000e+00
   outer loop
     vertex  0.000000e+00  0.000000e+00  6.000000e+01
     vertex  0.000000e+00  9.067428e+01  6.000000e+01
     vertex  0.000000e+00  0.000000e+00  0.000000e+00
   endloop
 endfacet
 facet normal  0.000000e+00 -1.000000e+00 -0.000000e+00
   outer loop
     vertex  1.194458e+02  0.000000e+00  6.000000e+01
     vertex  0.000000e+00  0.000000e+00  0.000000e+00
     vertex  1.194458e+02  0.000000e+00  0.000000e+00
   endloop
 endfacet
 facet normal -0.000000e+00 -1.000000e+00  0.000000e+00
   outer loop
     vertex  1.194458e+02  0.000000e+00  6.000000e+01
     vertex  0.000000e+00  0.000000e+00  6.000000e+01
     vertex  0.000000e+00  0.000000e+00  0.000000e+00
   endloop
 endfacet
 facet normal  0.000000e+00  0.000000e+00  1.000000e+00
   outer loop
     vertex  3.518002e+01  3.239303e+01  6.000000e+01
     vertex  3.240927e+01  3.484770e+01  6.000000e+01
     vertex  0.000000e+00  0.000000e+00  6.000000e+01
   endloop
 endfacet
 facet normal  0.000000e+00  0.000000e+00  1.000000e+00
   outer loop
     vertex  3.030648e+01  3.789412e+01  6.000000e+01
     vertex  0.000000e+00  0.000000e+00  6.000000e+01
     vertex  3.240927e+01  3.484770e+01  6.000000e+01
   endloop
 endfacet
 facet normal  0.000000e+00  0.000000e+00  1.000000e+00
   outer loop
     vertex  3.845769e+01  3.067277e+01  6.000000e+01
     vertex  3.518002e+01  3.239303e+01  6.000000e+01
     vertex  0.000000e+00  0.000000e+00  6.000000e+01
   endloop
 endfacet
 facet normal  0.000000e+00  0.000000e+00  1.000000e+00
   outer loop
     vertex  2.899384e+01  4.135525e+01  6.000000e+01
     vertex  0.000000e+00  0.000000e+00  6.000000e+01
     vertex  3.030648e+01  3.789412e+01  6.000000e+01
   endloop
 endfacet
 facet normal  0.000000e+00  0.000000e+00  1.000000e+00
   outer loop
     vertex  4.205181e+01  2.978690e+01  6.000000e+01
     vertex  3.845769e+01  3.067277e+01  6.000000e+01
     vertex  0.000000e+00  0.000000e+00  6.000000e+01
   endloop
 endfacet
 facet normal  0.000000e+00  0.000000e+00  1.000000e+00
   outer loop
     vertex  2.854765e+01  4.502994e+01  6.000000e+01
     vertex  0.000000e+00  0.000000e+00  6.000000e+01
     vertex  2.899384e+01  4.135525e+01  6.000000e+01
   endloop
 endfacet
 facet normal  0.000000e+00  0.000000e+00  1.000000e+00
   outer loop
     vertex  4.575349e+01  2.978690e+01  6.000000e+01
     vertex  4.205181e+01  2.978690e+01  6.000000e+01
     vertex  0.000000e+00  0.000000e+00  6.000000e+01
   endloop
 endfacet
 facet normal  0.000000e+00  0.000000e+00  1.000000e+00
   outer loop
     vertex  0.000000e+00  9.067428e+01  6.000000e+01
     vertex  2.854765e+01  4.502994e+01  6.000000e+01
     vertex  2.899384e+01  4.870463e+01  6.000000e+01
   endloop
 endfacet
 facet normal  0.000000e+00  0.000000e+00  1.000000e+00
   outer loop
     vertex  0.000000e+00  9.067428e+01  6.000000e+01
     vertex  2.899384e+01  4.870463e+01  6.000000e+01
     vertex  3.030648e+01  5.216577e+01  6.000000e+01
   endloop
 endfacet
 facet normal  0.000000e+00  0.000000e+00  1.000000e+00
   outer loop
     vertex  0.000000e+00  9.067428e+01  6.000000e+01
     vertex  3.030648e+01  5.216577e+01  6.000000e+01
     vertex  3.240927e+01  5.521219e+01  6.000000e+01
   endloop
 endfacet
 facet normal  0.000000e+00  0.000000e+00  1.000000e+00
   outer loop
     vertex  0.000000e+00  9.067428e+01  6.000000e+01
     vertex  0.000000e+00  0.000000e+00  6.000000e+01
     vertex  2.854765e+01  4.502994e+01  6.000000e+01
   endloop
 endfacet
 facet normal  0.000000e+00  0.000000e+00  1.000000e+00
   outer loop
     vertex  3.518002e+01  5.766686e+01  6.000000e+01
     vertex  0.000000e+00  9.067428e+01  6.000000e+01
     vertex  3.240927e+01  5.521219e+01  6.000000e+01
   endloop
 endfacet
 facet normal  0.000000e+00  0.000000e+00  1.000000e+00
   outer loop
     vertex  3.845769e+01  5.938711e+01  6.000000e+01
     vertex  0.000000e+00  9.067428e+01  6.000000e+01
     vertex  3.518002e+01  5.766686e+01  6.000000e+01
   endloop
 endfacet
 facet normal  0.000000e+00  0.000000e+00  1.000000e+00
   outer loop
     vertex  4.205181e+01  6.027298e+01  6.000000e+01
     vertex  0.000000e+00  9.067428e+01  6.000000e+01
     vertex  3.845769e+01  5.938711e+01  6.000000e+01
   endloop
 endfacet
 facet normal  0.000000e+00  0.000000e+00  1.000000e+00
   outer loop
     vertex  4.575349e+01  6.027298e+01  6.000000e+01
     vertex  0.000000e+00  9.067428e+01  6.000000e+01
     vertex  4.205181e+01  6.027298e+01  6.000000e+01
   endloop
 endfacet
 facet normal  0.000000e+00  0.000000e+00  1.000000e+00
   outer loop
     vertex  1.194458e+02  0.000000e+00  6.000000e+01
     vertex  5.925765e+01  4.502994e+01  6.000000e+01
     vertex  5.881146e+01  4.135525e+01  6.000000e+01
   endloop
 endfacet
 facet normal  0.000000e+00  0.000000e+00  1.000000e+00
   outer loop
     vertex  1.194458e+02  0.000000e+00  6.000000e+01
     vertex  5.881146e+01  4.135525e+01  6.000000e+01
     vertex  5.749883e+01  3.789412e+01  6.000000e+01
   endloop
 endfacet
 facet normal  0.000000e+00  0.000000e+00  1.000000e+00
   outer loop
     vertex  1.194458e+02  0.000000e+00  6.000000e+01
     vertex  5.749883e+01  3.789412e+01  6.000000e+01
     vertex  5.539603e+01  3.484770e+01  6.000000e+01
   endloop
 endfacet
 facet normal  0.000000e+00  0.000000e+00  1.000000e+00
   outer loop
     vertex  1.194458e+02  0.000000e+00  6.000000e+01
     vertex  5.539603e+01  3.484770e+01  6.000000e+01
     vertex  5.262528e+01  3.239303e+01  6.000000e+01
   endloop
 endfacet
 facet normal  0.000000e+00  0.000000e+00  1.000000e+00
   outer loop
     vertex  1.194458e+02  0.000000e+00  6.000000e+01
     vertex  5.262528e+01  3.239303e+01  6.000000e+01
     vertex  4.934761e+01  3.067277e+01  6.000000e+01
   endloop
 endfacet
 facet normal  0.000000e+00  0.000000e+00  1.000000e+00
   outer loop
     vertex  1.194458e+02  0.000000e+00  6.000000e+01
     vertex  4.934761e+01  3.067277e+01  6.000000e+01
     vertex  4.575349e+01  2.978690e+01  6.000000e+01
   endloop
 endfacet
 facet normal  0.000000e+00  0.000000e+00  1.000000e+00
   outer loop
     vertex  1.194458e+02  0.000000e+00  6.000000e+01
     vertex  4.575349e+01  2.978690e+01  6.000000e+01
     vertex  0.000000e+00  0.000000e+00  6.000000e+01
   endloop
 endfacet
 facet normal  0.000000e+00  0.000000e+00  1.000000e+00
   outer loop
     vertex  1.194458e+02  9.067428e+01  6.000000e+01
     vertex  4.575349e+01  6.027298e+01  6.000000e+01
     vertex  4.934761e+01  5.938711e+01  6.000000e+01
   endloop
 endfacet
 facet normal  0.000000e+00  0.000000e+00  1.000000e+00
   outer loop
     vertex  1.194458e+02  9.067428e+01  6.000000e+01
     vertex  4.934761e+01  5.938711e+01  6.000000e+01
     vertex  5.262528e+01  5.766686e+01  6.000000e+01
   endloop
 endfacet
 facet normal  0.000000e+00  0.000000e+00  1.000000e+00
   outer loop
     vertex  1.194458e+02  9.067428e+01  6.000000e+01
     vertex  5.262528e+01  5.766686e+01  6.000000e+01
     vertex  5.539603e+01  5.521219e+01  6.000000e+01
   endloop
 endfacet
 facet normal  0.000000e+00  0.000000e+00  1.000000e+00
   outer loop
     vertex  1.194458e+02  9.067428e+01  6.000000e+01
     vertex  5.539603e+01  5.521219e+01  6.000000e+01
     vertex  5.749883e+01  5.216577e+01  6.000000e+01
   endloop
 endfacet
 facet normal  0.000000e+00  0.000000e+00  1.000000e+00
   outer loop
     vertex  1.194458e+02  9.067428e+01  6.000000e+01
     vertex  5.749883e+01  5.216577e+01  6.000000e+01
     vertex  5.881146e+01  4.870463e+01  6.000000e+01
   endloop
 endfacet
 facet normal  0.000000e+00  0.000000e+00  1.000000e+00
   outer loop
     vertex  1.194458e+02  9.067428e+01  6.000000e+01
     vertex  5.881146e+01  4.870463e+01  6.000000e+01
     vertex  5.925765e+01  4.502994e+01  6.000000e+01
   endloop
 endfacet
 facet normal  0.000000e+00  0.000000e+00  1.000000e+00
   outer loop
     vertex  1.194458e+02  9.067428e+01  6.000000e+01
     vertex  5.925765e+01  4.502994e+01  6.000000e+01
     vertex  1.194458e+02  0.000000e+00  6.000000e+01
   endloop
 endfacet
 facet normal  0.000000e+00  0.000000e+00  1.000000e+00
   outer loop
     vertex  1.194458e+02  9.067428e+01  6.000000e+01
     vertex  0.000000e+00  9.067428e+01  6.000000e+01
     vertex  4.575349e+01  6.027298e+01  6.000000e+01
   endloop
 endfacet
 facet normal  0.000000e+00  1.000000e+00  0.000000e+00
   outer loop
     vertex  1.194458e+02  9.067428e+01  6.000000e+01
     vertex  1.194458e+02  9.067428e+01  0.000000e+00
     vertex  0.000000e+00  9.067428e+01  0.000000e+00
   endloop
 endfacet
 facet normal  0.000000e+00  1.000000e+00  0.000000e+00
   outer loop
     vertex  1.194458e+02  9.067428e+01  6.000000e+01
     vertex  0.000000e+00  9.067428e+01  0.000000e+00
     vertex  0.000000e+00  9.067428e+01  6.000000e+01
   endloop
 endfacet
 facet normal -0.000000e+00  0.000000e+00 -1.000000e+00
   outer loop
     vertex  1.194458e+02  9.067428e+01  0.000000e+00
     vertex  0.000000e+00  0.000000e+00  0.000000e+00
     vertex  0.000000e+00  9.067428e+01  0.000000e+00
   endloop
 endfacet
 facet normal  0.000000e+00 -0.000000e+00 -1.000000e+00
   outer loop
     vertex  1.194458e+02  9.067428e+01  0.000000e+00
     vertex  1.194458e+02  0.000000e+00  0.000000e+00
     vertex  0.000000e+00  0.000000e+00  0.000000e+00
   endloop
 endfacet
 facet normal  1.000000e+00  0.000000e+00  0.000000e+00
   outer loop
     vertex  1.194458e+02  0.000000e+00  0.000000e+00
     vertex  1.194458e+02  9.067428e+01  0.000000e+00
     vertex  1.194458e+02  9.067428e+01  6.000000e+01
   endloop
 endfacet
 facet normal  1.000000e+00 -0.000000e+00  0.000000e+00
   outer loop
     vertex  1.194458e+02  0.000000e+00  6.000000e+01
     vertex  1.194458e+02  0.000000e+00  0.000000e+00
     vertex  1.194458e+02  9.067428e+01  6.000000e+01
   endloop
 endfacet
 facet normal -9.927089e-01  1.205367e-01 -5.652645e-17
   outer loop
     vertex  5.881146e+01  4.135525e+01  4.514346e+01
     vertex  5.925765e+01  4.502994e+01  6.000000e+01
     vertex  5.925765e+01  4.502994e+01  4.514346e+01
   endloop
 endfacet
 facet normal -9.927089e-01  1.205367e-01  0.000000e+00
   outer loop
     vertex  5.881146e+01  4.135525e+01  4.514346e+01
     vertex  5.881146e+01  4.135525e+01  6.000000e+01
     vertex  5.925765e+01  4.502994e+01  6.000000e+01
   endloop
 endfacet
 facet normal -9.350162e-01  3.546049e-01  0.000000e+00
   outer loop
     vertex  5.749883e+01  3.789412e+01  4.514346e+01
     vertex  5.749883e+01  3.789412e+01  6.000000e+01
     vertex  5.881146e+01  4.135525e+01  6.000000e+01
   endloop
 endfacet
 facet normal -9.350162e-01  3.546049e-01  0.000000e+00
   outer loop
     vertex  5.749883e+01  3.789412e+01  4.514346e+01
     vertex  5.881146e+01  4.135525e+01  6.000000e+01
     vertex  5.881146e+01  4.135525e+01  4.514346e+01
   endloop
 endfacet
 facet normal -8.229839e-01  5.680647e-01  0.000000e+00
   outer loop
     vertex  5.539603e+01  3.484770e+01  4.514346e+01
     vertex  5.539603e+01  3.484770e+01  6.000000e+01
     vertex  5.749883e+01  3.789412e+01  6.000000e+01
   endloop
 endfacet
 facet normal -8.229839e-01  5.680647e-01  0.000000e+00
   outer loop
     vertex  5.539603e+01  3.484770e+01  4.514346e+01
     vertex  5.749883e+01  3.789412e+01  6.000000e+01
     vertex  5.749883e+01  3.789412e+01  4.514346e+01
   endloop
 endfacet
 facet normal -6.631227e-01  7.485107e-01  0.000000e+00
   outer loop
     vertex  5.262528e+01  3.239303e+01  4.514346e+01
     vertex  5.262528e+01  3.239303e+01  6.000000e+01
     vertex  5.539603e+01  3.484770e+01  6.000000e+01
   endloop
 endfacet
 facet normal -4.647232e-01  8.854560e-01  0.000000e+00
   outer loop
     vertex  5.262528e+01  3.239303e+01  4.514346e+01
     vertex  4.934761e+01  3.067277e+01  6.000000e+01
     vertex  5.262528e+01  3.239303e+01  6.000000e+01
   endloop
 endfacet
 facet normal -6.631227e-01  7.485107e-01  0.000000e+00
   outer loop
     vertex  5.262528e+01  3.239303e+01  4.514346e+01
     vertex  5.539603e+01  3.484770e+01  6.000000e+01
     vertex  5.539603e+01  3.484770e+01  4.514346e+01
   endloop
 endfacet
 facet normal -4.647232e-01  8.854560e-01  0.000000e+00
   outer loop
     vertex  4.934761e+01  3.067277e+01  4.514346e+01
     vertex  4.934761e+01  3.067277e+01  6.000000e+01
     vertex  5.262528e+01  3.239303e+01  4.514346e+01
   endloop
 endfacet
 facet normal -2.393157e-01  9.709418e-01  0.000000e+00
   outer loop
     vertex  4.575349e+01  2.978690e+01  4.514346e+01
     vertex  4.575349e+01  2.978690e+01  6.000000e+01
     vertex  4.934761e+01  3.067277e+01  6.000000e+01
   endloop
 endfacet
 facet normal -2.393157e-01  9.709418e-01  0.000000e+00
   outer loop
     vertex  4.575349e+01  2.978690e+01  4.514346e+01
     vertex  4.934761e+01  3.067277e+01  6.000000e+01
     vertex  4.934761e+01  3.067277e+01  4.514346e+01
   endloop
 endfacet
 facet normal  0.000000e+00  1.000000e+00  0.000000e+00
   outer loop
     vertex  4.205181e+01  2.978690e+01  4.514346e+01
     vertex  4.205181e+01  2.978690e+01  6.000000e+01
     vertex  4.575349e+01  2.978690e+01  6.000000e+01
   endloop
 endfacet
 facet normal  0.000000e+00  1.000000e+00  0.000000e+00
   outer loop
     vertex  4.205181e+01  2.978690e+01  4.514346e+01
     vertex  4.575349e+01  2.978690e+01  6.000000e+01
     vertex  4.575349e+01  2.978690e+01  4.514346e+01
   endloop
 endfacet
 facet normal  2.393157e-01  9.709418e-01 -0.000000e+00
   outer loop
     vertex  3.845769e+01  3.067277e+01  4.514346e+01
     vertex  3.845769e+01  3.067277e+01  6.000000e+01
     vertex  4.205181e+01  2.978690e+01  6.000000e+01
   endloop
 endfacet
 facet normal  4.647232e-01  8.854560e-01 -0.000000e+00
   outer loop
     vertex  3.845769e+01  3.067277e+01  4.514346e+01
     vertex  3.518002e+01  3.239303e+01  6.000000e+01
     vertex  3.845769e+01  3.067277e+01  6.000000e+01
   endloop
 endfacet
 facet normal  2.393157e-01  9.709418e-01  0.000000e+00
   outer loop
     vertex  3.845769e+01  3.067277e+01  4.514346e+01
     vertex  4.205181e+01  2.978690e+01  6.000000e+01
     vertex  4.205181e+01  2.978690e+01  4.514346e+01
   endloop
 endfacet
 facet normal  4.647232e-01  8.854560e-01 -0.000000e+00
   outer loop
     vertex  3.518002e+01  3.239303e+01  4.514346e+01
     vertex  3.518002e+01  3.239303e+01  6.000000e+01
     vertex  3.845769e+01  3.067277e+01  4.514346e+01
   endloop
 endfacet
 facet normal  6.631227e-01  7.485107e-01 -0.000000e+00
   outer loop
     vertex  3.240927e+01  3.484770e+01  4.514346e+01
     vertex  3.240927e+01  3.484770e+01  6.000000e+01
     vertex  3.518002e+01  3.239303e+01  6.000000e+01
   endloop
 endfacet
 facet normal  8.229839e-01  5.680647e-01 -0.000000e+00
   outer loop
     vertex  3.240927e+01  3.484770e+01  4.514346e+01
     vertex  3.030648e+01  3.789412e+01  6.000000e+01
     vertex  3.240927e+01  3.484770e+01  6.000000e+01
   endloop
 endfacet
 facet normal  6.631227e-01  7.485107e-01  0.000000e+00
   outer loop
     vertex  3.240927e+01  3.484770e+01  4.514346e+01
     vertex  3.518002e+01  3.239303e+01  6.000000e+01
     vertex  3.518002e+01  3.239303e+01  4.514346e+01
   endloop
 endfacet
 facet normal  8.229839e-01  5.680647e-01 -0.000000e+00
   outer loop
     vertex  3.030648e+01  3.789412e+01  4.514346e+01
     vertex  3.030648e+01  3.789412e+01  6.000000e+01
     vertex  3.240927e+01  3.484770e+01  4.514346e+01
   endloop
 endfacet
 facet normal  9.350162e-01  3.546049e-01  0.000000e+00
   outer loop
     vertex  2.899384e+01  4.135525e+01  4.514346e+01
     vertex  3.030648e+01  3.789412e+01  6.000000e+01
     vertex  3.030648e+01  3.789412e+01  4.514346e+01
   endloop
 endfacet
 facet normal  9.350162e-01  3.546049e-01 -0.000000e+00
   outer loop
     vertex  2.899384e+01  4.135525e+01  4.514346e+01
     vertex  2.899384e+01  4.135525e+01  6.000000e+01
     vertex  3.030648e+01  3.789412e+01  6.000000e+01
   endloop
 endfacet
 facet normal  9.927089e-01  1.205367e-01  0.000000e+00
   outer loop
     vertex  2.854765e+01  4.502994e+01  4.514346e+01
     vertex  2.899384e+01  4.135525e+01  6.000000e+01
     vertex  2.899384e+01  4.135525e+01  4.514346e+01
   endloop
 endfacet
 facet normal  9.927089e-01  1.205367e-01 -0.000000e+00
   outer loop
     vertex  2.854765e+01  4.502994e+01  4.514346e+01
     vertex  2.854765e+01  4.502994e+01  6.000000e+01
     vertex  2.899384e+01  4.135525e+01  6.000000e+01
   endloop
 endfacet
 facet normal  9.927089e-01 -1.205367e-01  0.000000e+00
   outer loop
     vertex  2.854765e+01  4.502994e+01  4.514346e+01
     vertex  2.899384e+01  4.870463e+01  6.000000e+01
     vertex  2.854765e+01  4.502994e+01  6.000000e+01
   endloop
 endfacet
 facet normal  9.927089e-01 -1.205367e-01  0.000000e+00
   outer loop
     vertex  2.899384e+01  4.870463e+01  4.514346e+01
     vertex  2.899384e+01  4.870463e+01  6.000000e+01
     vertex  2.854765e+01  4.502994e+01  4.514346e+01
   endloop
 endfacet
 facet normal  9.350162e-01 -3.546049e-01  0.000000e+00
   outer loop
     vertex  3.030648e+01  5.216577e+01  4.514346e+01
     vertex  2.899384e+01  4.870463e+01  6.000000e+01
     vertex  2.899384e+01  4.870463e+01  4.514346e+01
   endloop
 endfacet
 facet normal  9.350162e-01 -3.546049e-01  0.000000e+00
   outer loop
     vertex  3.030648e+01  5.216577e+01  4.514346e+01
     vertex  3.030648e+01  5.216577e+01  6.000000e+01
     vertex  2.899384e+01  4.870463e+01  6.000000e+01
   endloop
 endfacet
 facet normal  8.229839e-01 -5.680647e-01  0.000000e+00
   outer loop
     vertex  3.240927e+01  5.521219e+01  4.514346e+01
     vertex  3.030648e+01  5.216577e+01  6.000000e+01
     vertex  3.030648e+01  5.216577e+01  4.514346e+01
   endloop
 endfacet
 facet normal  8.229839e-01 -5.680647e-01  0.000000e+00
   outer loop
     vertex  3.240927e+01  5.521219e+01  4.514346e+01
     vertex  3.240927e+01  5.521219e+01  6.000000e+01
     vertex  3.030648e+01  5.216577e+01  6.000000e+01
   endloop
 endfacet
 facet normal  6.631227e-01 -7.485107e-01  0.000000e+00
   outer loop
     vertex  3.518002e+01  5.766686e+01  4.514346e+01
     vertex  3.240927e+01  5.521219e+01  6.000000e+01
     vertex  3.240927e+01  5.521219e+01  4.514346e+01
   endloop
 endfacet
 facet normal  6.631227e-01 -7.485107e-01  0.000000e+00
   outer loop
     vertex  3.518002e+01  5.766686e+01  4.514346e+01
     vertex  3.518002e+01  5.766686e+01  6.000000e+01
     vertex  3.240927e+01  5.521219e+01  6.000000e+01
   endloop
 endfacet
 facet normal  4.647232e-01 -8.854560e-01  0.000000e+00
   outer loop
     vertex  3.518002e+01  5.766686e+01  4.514346e+01
     vertex  3.845769e+01  5.938711e+01  6.000000e+01
     vertex  3.518002e+01  5.766686e+01  6.000000e+01
   endloop
 endfacet
 facet normal  4.647232e-01 -8.854560e-01  0.000000e+00
   outer loop
     vertex  3.845769e+01  5.938711e+01  4.514346e+01
     vertex  3.845769e+01  5.938711e+01  6.000000e+01
     vertex  3.518002e+01  5.766686e+01  4.514346e+01
   endloop
 endfacet
 facet normal  2.393157e-01 -9.709418e-01  0.000000e+00
   outer loop
     vertex  4.205181e+01  6.027298e+01  4.514346e+01
     vertex  3.845769e+01  5.938711e+01  6.000000e+01
     vertex  3.845769e+01  5.938711e+01  4.514346e+01
   endloop
 endfacet
 facet normal  2.393157e-01 -9.709418e-01  0.000000e+00
   outer loop
     vertex  4.205181e+01  6.027298e+01  4.514346e+01
     vertex  4.205181e+01  6.027298e+01  6.000000e+01
     vertex  3.845769e+01  5.938711e+01  6.000000e+01
   endloop
 endfacet
 facet normal  3.839028e-15 -1.000000e+00  0.000000e+00
   outer loop
     vertex  4.575349e+01  6.027298e+01  4.514346e+01
     vertex  4.205181e+01  6.027298e+01  6.000000e+01
     vertex  4.205181e+01  6.027298e+01  4.514346e+01
   endloop
 endfacet
 facet normal  3.839028e-15 -1.000000e+00  0.000000e+00
   outer loop
     vertex  4.575349e+01  6.027298e+01  4.514346e+01
     vertex  4.575349e+01  6.027298e+01  6.000000e+01
     vertex  4.205181e+01  6.027298e+01  6.000000e+01
   endloop
 endfacet
 facet normal -2.393157e-01 -9.709418e-01  0.000000e+00
   outer loop
     vertex  4.934761e+01  5.938711e+01  4.514346e+01
     vertex  4.575349e+01  6.027298e+01  6.000000e+01
     vertex  4.575349e+01  6.027298e+01  4.514346e+01
   endloop
 endfacet
 facet normal -2.393157e-01 -9.709418e-01  0.000000e+00
   outer loop
     vertex  4.934761e+01  5.938711e+01  4.514346e+01
     vertex  4.934761e+01  5.938711e+01  6.000000e+01
     vertex  4.575349e+01  6.027298e+01  6.000000e+01
   endloop
 endfacet
 facet normal -4.647232e-01 -8.854560e-01  0.000000e+00
   outer loop
     vertex  4.934761e+01  5.938711e+01  4.514346e+01
     vertex  5.262528e+01  5.766686e+01  6.000000e+01
     vertex  4.934761e+01  5.938711e+01  6.000000e+01
   endloop
 endfacet
 facet normal -4.647232e-01 -8.854560e-01  0.000000e+00
   outer loop
     vertex  5.262528e+01  5.766686e+01  4.514346e+01
     vertex  5.262528e+01  5.766686e+01  6.000000e+01
     vertex  4.934761e+01  5.938711e+01  4.514346e+01
   endloop
 endfacet
 facet normal -6.631227e-01 -7.485107e-01  0.000000e+00
   outer loop
     vertex  5.262528e+01  5.766686e+01  4.514346e+01
     vertex  5.539603e+01  5.521219e+01  6.000000e+01
     vertex  5.262528e+01  5.766686e+01  6.000000e+01
   endloop
 endfacet
 facet normal -6.631227e-01 -7.485107e-01  0.000000e+00
   outer loop
     vertex  5.539603e+01  5.521219e+01  4.514346e+01
     vertex  5.539603e+01  5.521219e+01  6.000000e+01
     vertex  5.262528e+01  5.766686e+01  4.514346e+01
   endloop
 endfacet
 facet normal -8.229839e-01 -5.680647e-01  0.000000e+00
   outer loop
     vertex  5.749883e+01  5.216577e+01  4.514346e+01
     vertex  5.749883e+01  5.216577e+01  6.000000e+01
     vertex  5.539603e+01  5.521219e+01  6.000000e+01
   endloop
 endfacet
 facet normal -9.350162e-01 -3.546049e-01  0.000000e+00
   outer loop
     vertex  5.749883e+01  5.216577e+01  4.514346e+01
     vertex  5.881146e+01  4.870463e+01  6.000000e+01
     vertex  5.749883e+01  5.216577e+01  6.000000e+01
   endloop
 endfacet
 facet normal -8.229839e-01 -5.680647e-01  0.000000e+00
   outer loop
     vertex  5.749883e+01  5.216577e+01  4.514346e+01
     vertex  5.539603e+01  5.521219e+01  6.000000e+01
     vertex  5.539603e+01  5.521219e+01  4.514346e+01
   endloop
 endfacet
 facet normal -9.350162e-01 -3.546049e-01  0.000000e+00
   outer loop
     vertex  5.881146e+01  4.870463e+01  4.514346e+01
     vertex  5.881146e+01  4.870463e+01  6.000000e+01
     vertex  5.749883e+01  5.216577e+01  4.514346e+01
   endloop
 endfacet
 facet normal -9.927089e-01 -1.205367e-01  5.764901e-17
   outer loop
     vertex  5.925765e+01  4.502994e+01  4.514346e+01
     vertex  5.925765e+01  4.502994e+01  6.000000e+01
     vertex  5.881146e+01  4.870463e+01  6.000000e+01
   endloop
 endfacet
 facet normal -9.927089e-01 -1.205367e-01  0.000000e+00
   outer loop
     vertex  5.925765e+01  4.502994e+01  4.514346e+01
     vertex  5.881146e+01  4.870463e+01  6.000000e+01
     vertex  5.881146e+01  4.870463e+01  4.514346e+01
   endloop
 endfacet
 facet normal  0.000000e+00  0.000000e+00  1.000000e+00
   outer loop
     vertex  2.899384e+01  4.870463e+01  4.514346e+01
     vertex  3.240927e+01  5.521219e+01  4.514346e+01
     vertex  3.030648e+01  5.216577e+01  4.514346e+01
   endloop
 endfacet
 facet normal  0.000000e+00  0.000000e+00  1.000000e+00
   outer loop
     vertex  2.899384e+01  4.870463e+01  4.514346e+01
     vertex  3.518002e+01  5.766686e+01  4.514346e+01
     vertex  3.240927e+01  5.521219e+01  4.514346e+01
   endloop
 endfacet
 facet normal  0.000000e+00  0.000000e+00  1.000000e+00
   outer loop
     vertex  2.899384e+01  4.870463e+01  4.514346e+01
     vertex  3.845769e+01  5.938711e+01  4.514346e+01
     vertex  3.518002e+01  5.766686e+01  4.514346e+01
   endloop
 endfacet
 facet normal  0.000000e+00  0.000000e+00  1.000000e+00
   outer loop
     vertex  4.575349e+01  6.027298e+01  4.514346e+01
     vertex  4.205181e+01  6.027298e+01  4.514346e+01
     vertex  3.845769e+01  5.938711e+01  4.514346e+01
   endloop
 endfacet
 facet normal  0.000000e+00  0.000000e+00  1.000000e+00
   outer loop
     vertex  3.030648e+01  3.789412e+01  4.514346e+01
     vertex  2.854765e+01  4.502994e+01  4.514346e+01
     vertex  2.899384e+01  4.135525e+01  4.514346e+01
   endloop
 endfacet
 facet normal  0.000000e+00  0.000000e+00  1.000000e+00
   outer loop
     vertex  5.262528e+01  5.766686e+01  4.514346e+01
     vertex  2.899384e+01  4.870463e+01  4.514346e+01
     vertex  2.854765e+01  4.502994e+01  4.514346e+01
   endloop
 endfacet
 facet normal  0.000000e+00  0.000000e+00  1.000000e+00
   outer loop
     vertex  5.262528e+01  5.766686e+01  4.514346e+01
     vertex  4.934761e+01  5.938711e+01  4.514346e+01
     vertex  4.575349e+01  6.027298e+01  4.514346e+01
   endloop
 endfacet
 facet normal  0.000000e+00  0.000000e+00  1.000000e+00
   outer loop
     vertex  5.262528e+01  5.766686e+01  4.514346e+01
     vertex  3.845769e+01  5.938711e+01  4.514346e+01
     vertex  2.899384e+01  4.870463e+01  4.514346e+01
   endloop
 endfacet
 facet normal  0.000000e+00  0.000000e+00  1.000000e+00
   outer loop
     vertex  5.262528e+01  5.766686e+01  4.514346e+01
     vertex  4.575349e+01  6.027298e+01  4.514346e+01
     vertex  3.845769e+01  5.938711e+01  4.514346e+01
   endloop
 endfacet
 facet normal  0.000000e+00  0.000000e+00  1.000000e+00
   outer loop
     vertex  5.539603e+01  5.521219e+01  4.514346e+01
     vertex  5.262528e+01  5.766686e+01  4.514346e+01
     vertex  2.854765e+01  4.502994e+01  4.514346e+01
   endloop
 endfacet
 facet normal  0.000000e+00  0.000000e+00  1.000000e+00
   outer loop
     vertex  4.205181e+01  2.978690e+01  4.514346e+01
     vertex  3.518002e+01  3.239303e+01  4.514346e+01
     vertex  3.845769e+01  3.067277e+01  4.514346e+01
   endloop
 endfacet
 facet normal  0.000000e+00  0.000000e+00  1.000000e+00
   outer loop
     vertex  4.205181e+01  2.978690e+01  4.514346e+01
     vertex  3.240927e+01  3.484770e+01  4.514346e+01
     vertex  3.518002e+01  3.239303e+01  4.514346e+01
   endloop
 endfacet
 facet normal  0.000000e+00  0.000000e+00  1.000000e+00
   outer loop
     vertex  4.205181e+01  2.978690e+01  4.514346e+01
     vertex  3.030648e+01  3.789412e+01  4.514346e+01
     vertex  3.240927e+01  3.484770e+01  4.514346e+01
   endloop
 endfacet
 facet normal  0.000000e+00  0.000000e+00  1.000000e+00
   outer loop
     vertex  4.205181e+01  2.978690e+01  4.514346e+01
     vertex  2.854765e+01  4.502994e+01  4.514346e+01
     vertex  3.030648e+01  3.789412e+01  4.514346e+01
   endloop
 endfacet
 facet normal  0.000000e+00 -0.000000e+00  1.000000e+00
   outer loop
     vertex  4.205181e+01  2.978690e+01  4.514346e+01
     vertex  5.539603e+01  5.521219e+01  4.514346e+01
     vertex  2.854765e+01  4.502994e+01  4.514346e+01
   endloop
 endfacet
 facet normal  0.000000e+00  0.000000e+00  1.000000e+00
   outer loop
     vertex  4.934761e+01  3.067277e+01  4.514346e+01
     vertex  4.205181e+01  2.978690e+01  4.514346e+01
     vertex  4.575349e+01  2.978690e+01  4.514346e+01
   endloop
 endfacet
 facet normal  0.000000e+00  0.000000e+00  1.000000e+00
   outer loop
     vertex  5.262528e+01  3.239303e+01  4.514346e+01
     vertex  4.205181e+01  2.978690e+01  4.514346e+01
     vertex  4.934761e+01  3.067277e+01  4.514346e+01
   endloop
 endfacet
 facet normal  0.000000e+00  0.000000e+00  1.000000e+00
   outer loop
     vertex  5.539603e+01  3.484770e+01  4.514346e+01
     vertex  5.881146e+01  4.135525e+01  4.514346e+01
     vertex  5.925765e+01  4.502994e+01  4.514346e+01
   endloop
 endfacet
 facet normal  0.000000e+00  0.000000e+00  1.000000e+00
   outer loop
     vertex  5.539603e+01  3.484770e+01  4.514346e+01
     vertex  5.749883e+01  3.789412e+01  4.514346e+01
     vertex  5.881146e+01  4.135525e+01  4.514346e+01
   endloop
 endfacet
 facet normal  0.000000e+00 -0.000000e+00  1.000000e+00
   outer loop
     vertex  5.539603e+01  3.484770e+01  4.514346e+01
     vertex  5.749883e+01  5.216577e+01  4.514346e+01
     vertex  5.539603e+01  5.521219e+01  4.514346e+01
   endloop
 endfacet
 facet normal  0.000000e+00  0.000000e+00  1.000000e+00
   outer loop
     vertex  5.539603e+01  3.484770e+01  4.514346e+01
     vertex  5.881146e+01  4.870463e+01  4.514346e+01
     vertex  5.749883e+01  5.216577e+01  4.514346e+01
   endloop
 endfacet
 facet normal  0.000000e+00  0.000000e+00  1.000000e+00
   outer loop
     vertex  5.539603e+01  3.484770e+01  4.514346e+01
     vertex  5.925765e+01  4.502994e+01  4.514346e+01
     vertex  5.881146e+01  4.870463e+01  4.514346e+01
   endloop
 endfacet
 facet normal  0.000000e+00  0.000000e+00  1.000000e+00
   outer loop
     vertex  5.539603e+01  3.484770e+01  4.514346e+01
     vertex  5.539603e+01  5.521219e+01  4.514346e+01
     vertex  4.205181e+01  2.978690e+01  4.514346e+01
   endloop
 endfacet
 facet normal  0.000000e+00  0.000000e+00  1.000000e+00
   outer loop
     vertex  5.539603e+01  3.484770e+01  4.514346e+01
     vertex  4.205181e+01  2.978690e+01  4.514346e+01
     vertex  5.262528e+01  3.239303e+01  4.514346e+01
   endloop
 endfacet
endsolid
