solid 
 facet normal -1.000000e+00  0.000000e+00  0.000000e+00
   outer loop
     vertex  0.000000e+00  0.000000e+00  6.000000e+01
     vertex  0.000000e+00  1.032441e+02  0.000000e+00
     vertex  0.000000e+00  0.000000e+00  0.000000e+00
   endloop
 endfacet
 facet normal -1.000000e+00  0.000000e+00  0.000000e+00
   outer loop
     vertex  0.000000e+00  0.000000e+00  6.000000e+01
     vertex  0.000000e+00  1.032441e+02  6.000000e+01
     vertex  0.000000e+00  1.032441e+02  0.000000e+00
   endloop
 endfacet
 facet normal  0.000000e+00 -1.000000e+00 -0.000000e+00
   outer loop
     vertex  1.412578e+02  0.000000e+00  6.000000e+01
     vertex  0.000000e+00  0.000000e+00  0.000000e+00
     vertex  1.412578e+02  0.000000e+00  0.000000e+00
   endloop
 endfacet
 facet normal -0.000000e+00 -1.000000e+00  0.000000e+00
   outer loop
     vertex  1.412578e+02  0.000000e+00  6.000000e+01
     vertex  0.000000e+00  0.000000e+00  6.000000e+01
     vertex  0.000000e+00  0.000000e+00  0.000000e+00
   endloop
 endfacet
 facet normal  0.000000e+00  0.000000e+00  1.000000e+00
   outer loop
     vertex  3.595217e+01  5.334075e+01  6.000000e+01
     vertex  3.348097e+01  5.553004e+01  6.000000e+01
     vertex  0.000000e+00  0.000000e+00  6.000000e+01
   endloop
 endfacet
 facet normal  0.000000e+00  0.000000e+00  1.000000e+00
   outer loop
     vertex  3.160550e+01  5.824712e+01  6.000000e+01
     vertex  0.000000e+00  0.000000e+00  6.000000e+01
     vertex  3.348097e+01  5.553004e+01  6.000000e+01
   endloop
 endfacet
 facet normal  0.000000e+00  0.000000e+00  1.000000e+00
   outer loop
     vertex  3.887550e+01  5.180647e+01  6.000000e+01
     vertex  3.595217e+01  5.334075e+01  6.000000e+01
     vertex  0.000000e+00  0.000000e+00  6.000000e+01
   endloop
 endfacet
 facet normal  0.000000e+00  0.000000e+00  1.000000e+00
   outer loop
     vertex  3.043478e+01  6.133407e+01  6.000000e+01
     vertex  0.000000e+00  0.000000e+00  6.000000e+01
     vertex  3.160550e+01  5.824712e+01  6.000000e+01
   endloop
 endfacet
 facet normal  0.000000e+00  0.000000e+00  1.000000e+00
   outer loop
     vertex  4.208106e+01  5.101637e+01  6.000000e+01
     vertex  3.887550e+01  5.180647e+01  6.000000e+01
     vertex  0.000000e+00  0.000000e+00  6.000000e+01
   endloop
 endfacet
 facet normal  0.000000e+00  0.000000e+00  1.000000e+00
   outer loop
     vertex  4.538255e+01  5.101637e+01  6.000000e+01
     vertex  4.208106e+01  5.101637e+01  6.000000e+01
     vertex  0.000000e+00  0.000000e+00  6.000000e+01
   endloop
 endfacet
 facet normal  0.000000e+00  0.000000e+00  1.000000e+00
   outer loop
     vertex  4.858811e+01  5.180647e+01  6.000000e+01
     vertex  4.538255e+01  5.101637e+01  6.000000e+01
     vertex  0.000000e+00  0.000000e+00  6.000000e+01
   endloop
 endfacet
 facet normal  0.000000e+00  0.000000e+00  1.000000e+00
   outer loop
     vertex  0.000000e+00  1.032441e+02  6.000000e+01
     vertex  3.043478e+01  6.133407e+01  6.000000e+01
     vertex  3.003683e+01  6.461150e+01  6.000000e+01
   endloop
 endfacet
 facet normal  0.000000e+00  0.000000e+00  1.000000e+00
   outer loop
     vertex  0.000000e+00  1.032441e+02  6.000000e+01
     vertex  3.003683e+01  6.461150e+01  6.000000e+01
     vertex  3.043478e+01  6.788892e+01  6.000000e+01
   endloop
 endfacet
 facet normal  0.000000e+00  0.000000e+00  1.000000e+00
   outer loop
     vertex  0.000000e+00  1.032441e+02  6.000000e+01
     vertex  3.043478e+01  6.788892e+01  6.000000e+01
     vertex  3.160550e+01  7.097587e+01  6.000000e+01
   endloop
 endfacet
 facet normal  0.000000e+00  0.000000e+00  1.000000e+00
   outer loop
     vertex  0.000000e+00  1.032441e+02  6.000000e+01
     vertex  0.000000e+00  0.000000e+00  6.000000e+01
     vertex  3.043478e+01  6.133407e+01  6.000000e+01
   endloop
 endfacet
 facet normal  0.000000e+00  0.000000e+00  1.000000e+00
   outer loop
     vertex  3.348097e+01  7.369295e+01  6.000000e+01
     vertex  0.000000e+00  1.032441e+02  6.000000e+01
     vertex  3.160550e+01  7.097587e+01  6.000000e+01
   endloop
 endfacet
 facet normal  0.000000e+00  0.000000e+00  1.000000e+00
   outer loop
     vertex  3.595217e+01  7.588224e+01  6.000000e+01
     vertex  0.000000e+00  1.032441e+02  6.000000e+01
     vertex  3.348097e+01  7.369295e+01  6.000000e+01
   endloop
 endfacet
 facet normal  0.000000e+00  0.000000e+00  1.000000e+00
   outer loop
     vertex  3.887550e+01  7.741653e+01  6.000000e+01
     vertex  0.000000e+00  1.032441e+02  6.000000e+01
     vertex  3.595217e+01  7.588224e+01  6.000000e+01
   endloop
 endfacet
 facet normal  0.000000e+00  0.000000e+00  1.000000e+00
   outer loop
     vertex  4.208106e+01  7.820662e+01  6.000000e+01
     vertex  0.000000e+00  1.032441e+02  6.000000e+01
     vertex  3.887550e+01  7.741653e+01  6.000000e+01
   endloop
 endfacet
 facet normal  0.000000e+00  0.000000e+00  1.000000e+00
   outer loop
     vertex  4.538255e+01  7.820662e+01  6.000000e+01
     vertex  0.000000e+00  1.032441e+02  6.000000e+01
     vertex  4.208106e+01  7.820662e+01  6.000000e+01
   endloop
 endfacet
 facet normal  0.000000e+00  0.000000e+00  1.000000e+00
   outer loop
     vertex  1.412578e+02  0.000000e+00  6.000000e+01
     vertex  5.702884e+01  6.133407e+01  6.000000e+01
     vertex  5.585811e+01  5.824712e+01  6.000000e+01
   endloop
 endfacet
 facet normal  0.000000e+00  0.000000e+00  1.000000e+00
   outer loop
     vertex  1.412578e+02  0.000000e+00  6.000000e+01
     vertex  5.585811e+01  5.824712e+01  6.000000e+01
     vertex  5.398265e+01  5.553004e+01  6.000000e+01
   endloop
 endfacet
 facet normal  0.000000e+00  0.000000e+00  1.000000e+00
   outer loop
     vertex  1.412578e+02  0.000000e+00  6.000000e+01
     vertex  5.398265e+01  5.553004e+01  6.000000e+01
     vertex  5.151144e+01  5.334075e+01  6.000000e+01
   endloop
 endfacet
 facet normal  0.000000e+00  0.000000e+00  1.000000e+00
   outer loop
     vertex  1.412578e+02  0.000000e+00  6.000000e+01
     vertex  5.151144e+01  5.334075e+01  6.000000e+01
     vertex  4.858811e+01  5.180647e+01  6.000000e+01
   endloop
 endfacet
 facet normal  0.000000e+00  0.000000e+00  1.000000e+00
   outer loop
     vertex  1.412578e+02  0.000000e+00  6.000000e+01
     vertex  4.858811e+01  5.180647e+01  6.000000e+01
     vertex  0.000000e+00  0.000000e+00  6.000000e+01
   endloop
 endfacet
 facet normal  0.000000e+00  0.000000e+00  1.000000e+00
   outer loop
     vertex  1.412578e+02  1.032441e+02  6.000000e+01
     vertex  5.742679e+01  6.461150e+01  6.000000e+01
     vertex  5.702884e+01  6.133407e+01  6.000000e+01
   endloop
 endfacet
 facet normal  0.000000e+00  0.000000e+00  1.000000e+00
   outer loop
     vertex  1.412578e+02  1.032441e+02  6.000000e+01
     vertex  4.858811e+01  7.741653e+01  6.000000e+01
     vertex  5.151144e+01  7.588224e+01  6.000000e+01
   endloop
 endfacet
 facet normal  0.000000e+00  0.000000e+00  1.000000e+00
   outer loop
     vertex  1.412578e+02  1.032441e+02  6.000000e+01
     vertex  5.151144e+01  7.588224e+01  6.000000e+01
     vertex  5.398265e+01  7.369295e+01  6.000000e+01
   endloop
 endfacet
 facet normal  0.000000e+00  0.000000e+00  1.000000e+00
   outer loop
     vertex  1.412578e+02  1.032441e+02  6.000000e+01
     vertex  5.398265e+01  7.369295e+01  6.000000e+01
     vertex  5.585811e+01  7.097587e+01  6.000000e+01
   endloop
 endfacet
 facet normal  0.000000e+00  0.000000e+00  1.000000e+00
   outer loop
     vertex  1.412578e+02  1.032441e+02  6.000000e+01
     vertex  5.585811e+01  7.097587e+01  6.000000e+01
     vertex  5.702884e+01  6.788892e+01  6.000000e+01
   endloop
 endfacet
 facet normal  0.000000e+00  0.000000e+00  1.000000e+00
   outer loop
     vertex  1.412578e+02  1.032441e+02  6.000000e+01
     vertex  5.702884e+01  6.788892e+01  6.000000e+01
     vertex  5.742679e+01  6.461150e+01  6.000000e+01
   endloop
 endfacet
 facet normal  0.000000e+00  0.000000e+00  1.000000e+00
   outer loop
     vertex  1.412578e+02  1.032441e+02  6.000000e+01
     vertex  5.702884e+01  6.133407e+01  6.000000e+01
     vertex  1.412578e+02  0.000000e+00  6.000000e+01
   endloop
 endfacet
 facet normal  0.000000e+00  0.000000e+00  1.000000e+00
   outer loop
     vertex  1.412578e+02  1.032441e+02  6.000000e+01
     vertex  0.000000e+00  1.032441e+02  6.000000e+01
     vertex  4.538255e+01  7.820662e+01  6.000000e+01
   endloop
 endfacet
 facet normal  0.000000e+00  0.000000e+00  1.000000e+00
   outer loop
     vertex  1.412578e+02  1.032441e+02  6.000000e+01
     vertex  4.538255e+01  7.820662e+01  6.000000e+01
     vertex  4.858811e+01  7.741653e+01  6.000000e+01
   endloop
 endfacet
 facet normal  0.000000e+00  1.000000e+00  0.000000e+00
   outer loop
     vertex  1.412578e+02  1.032441e+02  6.000000e+01
     vertex  1.412578e+02  1.032441e+02  0.000000e+00
     vertex  0.000000e+00  1.032441e+02  0.000000e+00
   endloop
 endfacet
 facet normal  0.000000e+00  1.000000e+00  0.000000e+00
   outer loop
     vertex  1.412578e+02  1.032441e+02  6.000000e+01
     vertex  0.000000e+00  1.032441e+02  0.000000e+00
     vertex  0.000000e+00  1.032441e+02  6.000000e+01
   endloop
 endfacet
 facet normal -0.000000e+00  0.000000e+00 -1.000000e+00
   outer loop
     vertex  1.412578e+02  1.032441e+02  0.000000e+00
     vertex  0.000000e+00  0.000000e+00  0.000000e+00
     vertex  0.000000e+00  1.032441e+02  0.000000e+00
   endloop
 endfacet
 facet normal  0.000000e+00 -0.000000e+00 -1.000000e+00
   outer loop
     vertex  1.412578e+02  1.032441e+02  0.000000e+00
     vertex  1.412578e+02  0.000000e+00  0.000000e+00
     vertex  0.000000e+00  0.000000e+00  0.000000e+00
   endloop
 endfacet
 facet normal  1.000000e+00  0.000000e+00  0.000000e+00
   outer loop
     vertex  1.412578e+02  0.000000e+00  6.000000e+01
     vertex  1.412578e+02  0.000000e+00  0.000000e+00
     vertex  1.412578e+02  1.032441e+02  0.000000e+00
   endloop
 endfacet
 facet normal  1.000000e+00 -0.000000e+00  0.000000e+00
   outer loop
     vertex  1.412578e+02  0.000000e+00  6.000000e+01
     vertex  1.412578e+02  1.032441e+02  0.000000e+00
     vertex  1.412578e+02  1.032441e+02  6.000000e+01
   endloop
 endfacet
 facet normal -9.927089e-01  1.205367e-01  0.000000e+00
   outer loop
     vertex  5.702884e+01  6.133407e+01  4.165162e+01
     vertex  5.742679e+01  6.461150e+01  6.000000e+01
     vertex  5.742679e+01  6.461150e+01  4.165162e+01
   endloop
 endfacet
 facet normal -9.927089e-01  1.205367e-01  0.000000e+00
   outer loop
     vertex  5.702884e+01  6.133407e+01  4.165162e+01
     vertex  5.702884e+01  6.133407e+01  6.000000e+01
     vertex  5.742679e+01  6.461150e+01  6.000000e+01
   endloop
 endfacet
 facet normal -9.350162e-01  3.546049e-01  0.000000e+00
   outer loop
     vertex  5.585811e+01  5.824712e+01  4.165162e+01
     vertex  5.585811e+01  5.824712e+01  6.000000e+01
     vertex  5.702884e+01  6.133407e+01  6.000000e+01
   endloop
 endfacet
 facet normal -9.350162e-01  3.546049e-01  0.000000e+00
   outer loop
     vertex  5.585811e+01  5.824712e+01  4.165162e+01
     vertex  5.702884e+01  6.133407e+01  6.000000e+01
     vertex  5.702884e+01  6.133407e+01  4.165162e+01
   endloop
 endfacet
 facet normal -8.229839e-01  5.680647e-01  0.000000e+00
   outer loop
     vertex  5.398265e+01  5.553004e+01  4.165162e+01
     vertex  5.398265e+01  5.553004e+01  6.000000e+01
     vertex  5.585811e+01  5.824712e+01  6.000000e+01
   endloop
 endfacet
 facet normal -6.631227e-01  7.485107e-01  0.000000e+00
   outer loop
     vertex  5.398265e+01  5.553004e+01  4.165162e+01
     vertex  5.151144e+01  5.334075e+01  6.000000e+01
     vertex  5.398265e+01  5.553004e+01  6.000000e+01
   endloop
 endfacet
 facet normal -8.229839e-01  5.680647e-01  0.000000e+00
   outer loop
     vertex  5.398265e+01  5.553004e+01  4.165162e+01
     vertex  5.585811e+01  5.824712e+01  6.000000e+01
     vertex  5.585811e+01  5.824712e+01  4.165162e+01
   endloop
 endfacet
 facet normal -6.631227e-01  7.485107e-01  0.000000e+00
   outer loop
     vertex  5.151144e+01  5.334075e+01  4.165162e+01
     vertex  5.151144e+01  5.334075e+01  6.000000e+01
     vertex  5.398265e+01  5.553004e+01  4.165162e+01
   endloop
 endfacet
 facet normal -4.647232e-01  8.854560e-01  0.000000e+00
   outer loop
     vertex  4.858811e+01  5.180647e+01  4.165162e+01
     vertex  4.858811e+01  5.180647e+01  6.000000e+01
     vertex  5.151144e+01  5.334075e+01  6.000000e+01
   endloop
 endfacet
 facet normal -2.393157e-01  9.709418e-01  0.000000e+00
   outer loop
     vertex  4.858811e+01  5.180647e+01  4.165162e+01
     vertex  4.538255e+01  5.101637e+01  6.000000e+01
     vertex  4.858811e+01  5.180647e+01  6.000000e+01
   endloop
 endfacet
 facet normal -4.647232e-01  8.854560e-01  0.000000e+00
   outer loop
     vertex  4.858811e+01  5.180647e+01  4.165162e+01
     vertex  5.151144e+01  5.334075e+01  6.000000e+01
     vertex  5.151144e+01  5.334075e+01  4.165162e+01
   endloop
 endfacet
 facet normal -2.393157e-01  9.709418e-01  0.000000e+00
   outer loop
     vertex  4.538255e+01  5.101637e+01  4.165162e+01
     vertex  4.538255e+01  5.101637e+01  6.000000e+01
     vertex  4.858811e+01  5.180647e+01  4.165162e+01
   endloop
 endfacet
 facet normal  0.000000e+00  1.000000e+00  0.000000e+00
   outer loop
     vertex  4.208106e+01  5.101637e+01  4.165162e+01
     vertex  4.208106e+01  5.101637e+01  6.000000e+01
     vertex  4.538255e+01  5.101637e+01  6.000000e+01
   endloop
 endfacet
 facet normal  2.393157e-01  9.709418e-01 -0.000000e+00
   outer loop
     vertex  4.208106e+01  5.101637e+01  4.165162e+01
     vertex  3.887550e+01  5.180647e+01  6.000000e+01
     vertex  4.208106e+01  5.101637e+01  6.000000e+01
   endloop
 endfacet
 facet normal  0.000000e+00  1.000000e+00  0.000000e+00
   outer loop
     vertex  4.208106e+01  5.101637e+01  4.165162e+01
     vertex  4.538255e+01  5.101637e+01  6.000000e+01
     vertex  4.538255e+01  5.101637e+01  4.165162e+01
   endloop
 endfacet
 facet normal  4.647232e-01  8.854560e-01 -0.000000e+00
   outer loop
     vertex  3.887550e+01  5.180647e+01  4.165162e+01
     vertex  3.595217e+01  5.334075e+01  6.000000e+01
     vertex  3.887550e+01  5.180647e+01  6.000000e+01
   endloop
 endfacet
 facet normal  2.393157e-01  9.709418e-01 -0.000000e+00
   outer loop
     vertex  3.887550e+01  5.180647e+01  4.165162e+01
     vertex  3.887550e+01  5.180647e+01  6.000000e+01
     vertex  4.208106e+01  5.101637e+01  4.165162e+01
   endloop
 endfacet
 facet normal  4.647232e-01  8.854560e-01 -0.000000e+00
   outer loop
     vertex  3.595217e+01  5.334075e+01  4.165162e+01
     vertex  3.595217e+01  5.334075e+01  6.000000e+01
     vertex  3.887550e+01  5.180647e+01  4.165162e+01
   endloop
 endfacet
 facet normal  6.631227e-01  7.485107e-01 -0.000000e+00
   outer loop
     vertex  3.348097e+01  5.553004e+01  4.165162e+01
     vertex  3.348097e+01  5.553004e+01  6.000000e+01
     vertex  3.595217e+01  5.334075e+01  6.000000e+01
   endloop
 endfacet
 facet normal  8.229839e-01  5.680647e-01 -0.000000e+00
   outer loop
     vertex  3.348097e+01  5.553004e+01  4.165162e+01
     vertex  3.160550e+01  5.824712e+01  6.000000e+01
     vertex  3.348097e+01  5.553004e+01  6.000000e+01
   endloop
 endfacet
 facet normal  6.631227e-01  7.485107e-01  0.000000e+00
   outer loop
     vertex  3.348097e+01  5.553004e+01  4.165162e+01
     vertex  3.595217e+01  5.334075e+01  6.000000e+01
     vertex  3.595217e+01  5.334075e+01  4.165162e+01
   endloop
 endfacet
 facet normal  8.229839e-01  5.680647e-01 -0.000000e+00
   outer loop
     vertex  3.160550e+01  5.824712e+01  4.165162e+01
     vertex  3.160550e+01  5.824712e+01  6.000000e+01
     vertex  3.348097e+01  5.553004e+01  4.165162e+01
   endloop
 endfacet
 facet normal  9.350162e-01  3.546049e-01  0.000000e+00
   outer loop
     vertex  3.043478e+01  6.133407e+01  4.165162e+01
     vertex  3.160550e+01  5.824712e+01  6.000000e+01
     vertex  3.160550e+01  5.824712e+01  4.165162e+01
   endloop
 endfacet
 facet normal  9.350162e-01  3.546049e-01 -0.000000e+00
   outer loop
     vertex  3.043478e+01  6.133407e+01  4.165162e+01
     vertex  3.043478e+01  6.133407e+01  6.000000e+01
     vertex  3.160550e+01  5.824712e+01  6.000000e+01
   endloop
 endfacet
 facet normal  9.927089e-01  1.205367e-01  0.000000e+00
   outer loop
     vertex  3.003683e+01  6.461150e+01  4.165162e+01
     vertex  3.043478e+01  6.133407e+01  6.000000e+01
     vertex  3.043478e+01  6.133407e+01  4.165162e+01
   endloop
 endfacet
 facet normal  9.927089e-01  1.205367e-01 -0.000000e+00
   outer loop
     vertex  3.003683e+01  6.461150e+01  4.165162e+01
     vertex  3.003683e+01  6.461150e+01  6.000000e+01
     vertex  3.043478e+01  6.133407e+01  6.000000e+01
   endloop
 endfacet
 facet normal  9.927089e-01 -1.205367e-01  0.000000e+00
   outer loop
     vertex  3.043478e+01  6.788892e+01  4.165162e+01
     vertex  3.003683e+01  6.461150e+01  6.000000e+01
     vertex  3.003683e+01  6.461150e+01  4.165162e+01
   endloop
 endfacet
 facet normal  9.927089e-01 -1.205367e-01  0.000000e+00
   outer loop
     vertex  3.043478e+01  6.788892e+01  4.165162e+01
     vertex  3.043478e+01  6.788892e+01  6.000000e+01
     vertex  3.003683e+01  6.461150e+01  6.000000e+01
   endloop
 endfacet
 facet normal  9.350162e-01 -3.546049e-01  0.000000e+00
   outer loop
     vertex  3.043478e+01  6.788892e+01  4.165162e+01
     vertex  3.160550e+01  7.097587e+01  6.000000e+01
     vertex  3.043478e+01  6.788892e+01  6.000000e+01
   endloop
 endfacet
 facet normal  9.350162e-01 -3.546049e-01  0.000000e+00
   outer loop
     vertex  3.160550e+01  7.097587e+01  4.165162e+01
     vertex  3.160550e+01  7.097587e+01  6.000000e+01
     vertex  3.043478e+01  6.788892e+01  4.165162e+01
   endloop
 endfacet
 facet normal  8.229839e-01 -5.680647e-01  0.000000e+00
   outer loop
     vertex  3.160550e+01  7.097587e+01  4.165162e+01
     vertex  3.348097e+01  7.369295e+01  6.000000e+01
     vertex  3.160550e+01  7.097587e+01  6.000000e+01
   endloop
 endfacet
 facet normal  8.229839e-01 -5.680647e-01  0.000000e+00
   outer loop
     vertex  3.348097e+01  7.369295e+01  4.165162e+01
     vertex  3.348097e+01  7.369295e+01  6.000000e+01
     vertex  3.160550e+01  7.097587e+01  4.165162e+01
   endloop
 endfacet
 facet normal  6.631227e-01 -7.485107e-01  0.000000e+00
   outer loop
     vertex  3.595217e+01  7.588224e+01  4.165162e+01
     vertex  3.348097e+01  7.369295e+01  6.000000e+01
     vertex  3.348097e+01  7.369295e+01  4.165162e+01
   endloop
 endfacet
 facet normal  6.631227e-01 -7.485107e-01  0.000000e+00
   outer loop
     vertex  3.595217e+01  7.588224e+01  4.165162e+01
     vertex  3.595217e+01  7.588224e+01  6.000000e+01
     vertex  3.348097e+01  7.369295e+01  6.000000e+01
   endloop
 endfacet
 facet normal  4.647232e-01 -8.854560e-01  0.000000e+00
   outer loop
     vertex  3.887550e+01  7.741653e+01  4.165162e+01
     vertex  3.595217e+01  7.588224e+01  6.000000e+01
     vertex  3.595217e+01  7.588224e+01  4.165162e+01
   endloop
 endfacet
 facet normal  4.647232e-01 -8.854560e-01  0.000000e+00
   outer loop
     vertex  3.887550e+01  7.741653e+01  4.165162e+01
     vertex  3.887550e+01  7.741653e+01  6.000000e+01
     vertex  3.595217e+01  7.588224e+01  6.000000e+01
   endloop
 endfacet
 facet normal  2.393157e-01 -9.709418e-01  0.000000e+00
   outer loop
     vertex  4.208106e+01  7.820662e+01  4.165162e+01
     vertex  3.887550e+01  7.741653e+01  6.000000e+01
     vertex  3.887550e+01  7.741653e+01  4.165162e+01
   endloop
 endfacet
 facet normal  2.393157e-01 -9.709418e-01  0.000000e+00
   outer loop
     vertex  4.208106e+01  7.820662e+01  4.165162e+01
     vertex  4.208106e+01  7.820662e+01  6.000000e+01
     vertex  3.887550e+01  7.741653e+01  6.000000e+01
   endloop
 endfacet
 facet normal  4.304370e-15 -1.000000e+00  0.000000e+00
   outer loop
     vertex  4.538255e+01  7.820662e+01  4.165162e+01
     vertex  4.208106e+01  7.820662e+01  6.000000e+01
     vertex  4.208106e+01  7.820662e+01  4.165162e+01
   endloop
 endfacet
 facet normal  4.304370e-15 -1.000000e+00  0.000000e+00
   outer loop
     vertex  4.538255e+01  7.820662e+01  4.165162e+01
     vertex  4.538255e+01  7.820662e+01  6.000000e+01
     vertex  4.208106e+01  7.820662e+01  6.000000e+01
   endloop
 endfacet
 facet normal -2.393157e-01 -9.709418e-01  0.000000e+00
   outer loop
     vertex  4.858811e+01  7.741653e+01  4.165162e+01
     vertex  4.538255e+01  7.820662e+01  6.000000e+01
     vertex  4.538255e+01  7.820662e+01  4.165162e+01
   endloop
 endfacet
 facet normal -2.393157e-01 -9.709418e-01  0.000000e+00
   outer loop
     vertex  4.858811e+01  7.741653e+01  4.165162e+01
     vertex  4.858811e+01  7.741653e+01  6.000000e+01
     vertex  4.538255e+01  7.820662e+01  6.000000e+01
   endloop
 endfacet
 facet normal -4.647232e-01 -8.854560e-01  0.000000e+00
   outer loop
     vertex  4.858811e+01  7.741653e+01  4.165162e+01
     vertex  5.151144e+01  7.588224e+01  6.000000e+01
     vertex  4.858811e+01  7.741653e+01  6.000000e+01
   endloop
 endfacet
 facet normal -4.647232e-01 -8.854560e-01  0.000000e+00
   outer loop
     vertex  5.151144e+01  7.588224e+01  4.165162e+01
     vertex  5.151144e+01  7.588224e+01  6.000000e+01
     vertex  4.858811e+01  7.741653e+01  4.165162e+01
   endloop
 endfacet
 facet normal -6.631227e-01 -7.485107e-01  0.000000e+00
   outer loop
     vertex  5.398265e+01  7.369295e+01  4.165162e+01
     vertex  5.151144e+01  7.588224e+01  6.000000e+01
     vertex  5.151144e+01  7.588224e+01  4.165162e+01
   endloop
 endfacet
 facet normal -6.631227e-01 -7.485107e-01  0.000000e+00
   outer loop
     vertex  5.398265e+01  7.369295e+01  4.165162e+01
     vertex  5.398265e+01  7.369295e+01  6.000000e+01
     vertex  5.151144e+01  7.588224e+01  6.000000e+01
   endloop
 endfacet
 facet normal -8.229839e-01 -5.680647e-01  0.000000e+00
   outer loop
     vertex  5.398265e+01  7.369295e+01  4.165162e+01
     vertex  5.585811e+01  7.097587e+01  6.000000e+01
     vertex  5.398265e+01  7.369295e+01  6.000000e+01
   endloop
 endfacet
 facet normal -8.229839e-01 -5.680647e-01  0.000000e+00
   outer loop
     vertex  5.585811e+01  7.097587e+01  4.165162e+01
     vertex  5.585811e+01  7.097587e+01  6.000000e+01
     vertex  5.398265e+01  7.369295e+01  4.165162e+01
   endloop
 endfacet
 facet normal -9.350162e-01 -3.546049e-01  0.000000e+00
   outer loop
     vertex  5.702884e+01  6.788892e+01  4.165162e+01
     vertex  5.702884e+01  6.788892e+01  6.000000e+01
     vertex  5.585811e+01  7.097587e+01  6.000000e+01
   endloop
 endfacet
 facet normal -9.350162e-01 -3.546049e-01  0.000000e+00
   outer loop
     vertex  5.702884e+01  6.788892e+01  4.165162e+01
     vertex  5.585811e+01  7.097587e+01  6.000000e+01
     vertex  5.585811e+01  7.097587e+01  4.165162e+01
   endloop
 endfacet
 facet normal -9.927089e-01 -1.205367e-01  0.000000e+00
   outer loop
     vertex  5.742679e+01  6.461150e+01  4.165162e+01
     vertex  5.742679e+01  6.461150e+01  6.000000e+01
     vertex  5.702884e+01  6.788892e+01  6.000000e+01
   endloop
 endfacet
 facet normal -9.927089e-01 -1.205367e-01  0.000000e+00
   outer loop
     vertex  5.742679e+01  6.461150e+01  4.165162e+01
     vertex  5.702884e+01  6.788892e+01  6.000000e+01
     vertex  5.702884e+01  6.788892e+01  4.165162e+01
   endloop
 endfacet
 facet normal  0.000000e+00  0.000000e+00  1.000000e+00
   outer loop
     vertex  3.160550e+01  7.097587e+01  4.165162e+01
     vertex  3.595217e+01  7.588224e+01  4.165162e+01
     vertex  3.348097e+01  7.369295e+01  4.165162e+01
   endloop
 endfacet
 facet normal  0.000000e+00  0.000000e+00  1.000000e+00
   outer loop
     vertex  3.887550e+01  7.741653e+01  4.165162e+01
     vertex  3.595217e+01  7.588224e+01  4.165162e+01
     vertex  3.160550e+01  7.097587e+01  4.165162e+01
   endloop
 endfacet
 facet normal  0.000000e+00  0.000000e+00  1.000000e+00
   outer loop
     vertex  3.003683e+01  6.461150e+01  4.165162e+01
     vertex  3.160550e+01  7.097587e+01  4.165162e+01
     vertex  3.043478e+01  6.788892e+01  4.165162e+01
   endloop
 endfacet
 facet normal  0.000000e+00  0.000000e+00  1.000000e+00
   outer loop
     vertex  4.538255e+01  7.820662e+01  4.165162e+01
     vertex  4.208106e+01  7.820662e+01  4.165162e+01
     vertex  3.887550e+01  7.741653e+01  4.165162e+01
   endloop
 endfacet
 facet normal  0.000000e+00  0.000000e+00  1.000000e+00
   outer loop
     vertex  3.160550e+01  5.824712e+01  4.165162e+01
     vertex  3.003683e+01  6.461150e+01  4.165162e+01
     vertex  3.043478e+01  6.133407e+01  4.165162e+01
   endloop
 endfacet
 facet normal  0.000000e+00  0.000000e+00  1.000000e+00
   outer loop
     vertex  3.160550e+01  5.824712e+01  4.165162e+01
     vertex  3.160550e+01  7.097587e+01  4.165162e+01
     vertex  3.003683e+01  6.461150e+01  4.165162e+01
   endloop
 endfacet
 facet normal  0.000000e+00  0.000000e+00  1.000000e+00
   outer loop
     vertex  5.151144e+01  7.588224e+01  4.165162e+01
     vertex  4.858811e+01  7.741653e+01  4.165162e+01
     vertex  4.538255e+01  7.820662e+01  4.165162e+01
   endloop
 endfacet
 facet normal  0.000000e+00  0.000000e+00  1.000000e+00
   outer loop
     vertex  5.398265e+01  7.369295e+01  4.165162e+01
     vertex  3.887550e+01  7.741653e+01  4.165162e+01
     vertex  3.160550e+01  7.097587e+01  4.165162e+01
   endloop
 endfacet
 facet normal  0.000000e+00  0.000000e+00  1.000000e+00
   outer loop
     vertex  5.398265e+01  7.369295e+01  4.165162e+01
     vertex  4.538255e+01  7.820662e+01  4.165162e+01
     vertex  3.887550e+01  7.741653e+01  4.165162e+01
   endloop
 endfacet
 facet normal  0.000000e+00  0.000000e+00  1.000000e+00
   outer loop
     vertex  5.398265e+01  7.369295e+01  4.165162e+01
     vertex  5.151144e+01  7.588224e+01  4.165162e+01
     vertex  4.538255e+01  7.820662e+01  4.165162e+01
   endloop
 endfacet
 facet normal  0.000000e+00  0.000000e+00  1.000000e+00
   outer loop
     vertex  5.585811e+01  7.097587e+01  4.165162e+01
     vertex  3.160550e+01  7.097587e+01  4.165162e+01
     vertex  3.160550e+01  5.824712e+01  4.165162e+01
   endloop
 endfacet
 facet normal  0.000000e+00  0.000000e+00  1.000000e+00
   outer loop
     vertex  5.585811e+01  7.097587e+01  4.165162e+01
     vertex  5.398265e+01  7.369295e+01  4.165162e+01
     vertex  3.160550e+01  7.097587e+01  4.165162e+01
   endloop
 endfacet
 facet normal  0.000000e+00  0.000000e+00  1.000000e+00
   outer loop
     vertex  4.208106e+01  5.101637e+01  4.165162e+01
     vertex  3.595217e+01  5.334075e+01  4.165162e+01
     vertex  3.887550e+01  5.180647e+01  4.165162e+01
   endloop
 endfacet
 facet normal  0.000000e+00 -0.000000e+00  1.000000e+00
   outer loop
     vertex  5.702884e+01  6.133407e+01  4.165162e+01
     vertex  5.742679e+01  6.461150e+01  4.165162e+01
     vertex  5.702884e+01  6.788892e+01  4.165162e+01
   endloop
 endfacet
 facet normal  0.000000e+00  0.000000e+00  1.000000e+00
   outer loop
     vertex  4.858811e+01  5.180647e+01  4.165162e+01
     vertex  4.208106e+01  5.101637e+01  4.165162e+01
     vertex  4.538255e+01  5.101637e+01  4.165162e+01
   endloop
 endfacet
 facet normal  0.000000e+00  0.000000e+00  1.000000e+00
   outer loop
     vertex  5.151144e+01  5.334075e+01  4.165162e+01
     vertex  3.348097e+01  5.553004e+01  4.165162e+01
     vertex  3.595217e+01  5.334075e+01  4.165162e+01
   endloop
 endfacet
 facet normal  0.000000e+00  0.000000e+00  1.000000e+00
   outer loop
     vertex  5.151144e+01  5.334075e+01  4.165162e+01
     vertex  3.160550e+01  5.824712e+01  4.165162e+01
     vertex  3.348097e+01  5.553004e+01  4.165162e+01
   endloop
 endfacet
 facet normal  0.000000e+00  0.000000e+00  1.000000e+00
   outer loop
     vertex  5.151144e+01  5.334075e+01  4.165162e+01
     vertex  3.595217e+01  5.334075e+01  4.165162e+01
     vertex  4.208106e+01  5.101637e+01  4.165162e+01
   endloop
 endfacet
 facet normal  0.000000e+00  0.000000e+00  1.000000e+00
   outer loop
     vertex  5.151144e+01  5.334075e+01  4.165162e+01
     vertex  4.208106e+01  5.101637e+01  4.165162e+01
     vertex  4.858811e+01  5.180647e+01  4.165162e+01
   endloop
 endfacet
 facet normal  0.000000e+00  0.000000e+00  1.000000e+00
   outer loop
     vertex  5.398265e+01  5.553004e+01  4.165162e+01
     vertex  5.585811e+01  5.824712e+01  4.165162e+01
     vertex  5.702884e+01  6.133407e+01  4.165162e+01
   endloop
 endfacet
 facet normal  0.000000e+00  0.000000e+00  1.000000e+00
   outer loop
     vertex  5.398265e+01  5.553004e+01  4.165162e+01
     vertex  5.702884e+01  6.788892e+01  4.165162e+01
     vertex  5.585811e+01  7.097587e+01  4.165162e+01
   endloop
 endfacet
 facet normal  0.000000e+00 -0.000000e+00  1.000000e+00
   outer loop
     vertex  5.398265e+01  5.553004e+01  4.165162e+01
     vertex  5.585811e+01  7.097587e+01  4.165162e+01
     vertex  3.160550e+01  5.824712e+01  4.165162e+01
   endloop
 endfacet
 facet normal  0.000000e+00  0.000000e+00  1.000000e+00
   outer loop
     vertex  5.398265e+01  5.553004e+01  4.165162e+01
     vertex  5.702884e+01  6.133407e+01  4.165162e+01
     vertex  5.702884e+01  6.788892e+01  4.165162e+01
   endloop
 endfacet
 facet normal  0.000000e+00  0.000000e+00  1.000000e+00
   outer loop
     vertex  5.398265e+01  5.553004e+01  4.165162e+01
     vertex  3.160550e+01  5.824712e+01  4.165162e+01
     vertex  5.151144e+01  5.334075e+01  4.165162e+01
   endloop
 endfacet
endsolid
