solid 
 facet normal -1.000000e+00  0.000000e+00  0.000000e+00
   outer loop
     vertex  0.000000e+00  0.000000e+00  6.000000e+01
     vertex  0.000000e+00  1.042925e+02  0.000000e+00
     vertex  0.000000e+00  0.000000e+00  0.000000e+00
   endloop
 endfacet
 facet normal -1.000000e+00  0.000000e+00  0.000000e+00
   outer loop
     vertex  0.000000e+00  0.000000e+00  6.000000e+01
     vertex  0.000000e+00  1.042925e+02  6.000000e+01
     vertex  0.000000e+00  1.042925e+02  0.000000e+00
   endloop
 endfacet
 facet normal  0.000000e+00 -1.000000e+00 -0.000000e+00
   outer loop
     vertex  1.168553e+02  0.000000e+00  6.000000e+01
     vertex  0.000000e+00  0.000000e+00  0.000000e+00
     vertex  1.168553e+02  0.000000e+00  0.000000e+00
   endloop
 endfacet
 facet normal -0.000000e+00 -1.000000e+00  0.000000e+00
   outer loop
     vertex  1.168553e+02  0.000000e+00  6.000000e+01
     vertex  0.000000e+00  0.000000e+00  6.000000e+01
     vertex  0.000000e+00  0.000000e+00  0.000000e+00
   endloop
 endfacet
 facet normal  0.000000e+00  0.000000e+00  1.000000e+00
   outer loop
     vertex  5.670350e+01  1.384239e+01  6.000000e+01
     vertex  5.426185e+01  1.600550e+01  6.000000e+01
     vertex  0.000000e+00  0.000000e+00  6.000000e+01
   endloop
 endfacet
 facet normal  0.000000e+00  0.000000e+00  1.000000e+00
   outer loop
     vertex  5.240881e+01  1.869009e+01  6.000000e+01
     vertex  0.000000e+00  0.000000e+00  6.000000e+01
     vertex  5.426185e+01  1.600550e+01  6.000000e+01
   endloop
 endfacet
 facet normal  0.000000e+00  0.000000e+00  1.000000e+00
   outer loop
     vertex  5.959188e+01  1.232645e+01  6.000000e+01
     vertex  5.670350e+01  1.384239e+01  6.000000e+01
     vertex  0.000000e+00  0.000000e+00  6.000000e+01
   endloop
 endfacet
 facet normal  0.000000e+00  0.000000e+00  1.000000e+00
   outer loop
     vertex  5.125208e+01  2.174013e+01  6.000000e+01
     vertex  0.000000e+00  0.000000e+00  6.000000e+01
     vertex  5.240881e+01  1.869009e+01  6.000000e+01
   endloop
 endfacet
 facet normal  0.000000e+00  0.000000e+00  1.000000e+00
   outer loop
     vertex  6.275911e+01  1.154580e+01  6.000000e+01
     vertex  5.959188e+01  1.232645e+01  6.000000e+01
     vertex  0.000000e+00  0.000000e+00  6.000000e+01
   endloop
 endfacet
 facet normal  0.000000e+00  0.000000e+00  1.000000e+00
   outer loop
     vertex  5.085889e+01  2.497837e+01  6.000000e+01
     vertex  0.000000e+00  0.000000e+00  6.000000e+01
     vertex  5.125208e+01  2.174013e+01  6.000000e+01
   endloop
 endfacet
 facet normal  0.000000e+00  0.000000e+00  1.000000e+00
   outer loop
     vertex  5.125208e+01  2.821660e+01  6.000000e+01
     vertex  0.000000e+00  0.000000e+00  6.000000e+01
     vertex  5.085889e+01  2.497837e+01  6.000000e+01
   endloop
 endfacet
 facet normal  0.000000e+00  0.000000e+00  1.000000e+00
   outer loop
     vertex  5.240881e+01  3.126664e+01  6.000000e+01
     vertex  0.000000e+00  0.000000e+00  6.000000e+01
     vertex  5.125208e+01  2.821660e+01  6.000000e+01
   endloop
 endfacet
 facet normal  0.000000e+00  0.000000e+00  1.000000e+00
   outer loop
     vertex  0.000000e+00  1.042925e+02  6.000000e+01
     vertex  5.240881e+01  3.126664e+01  6.000000e+01
     vertex  5.426185e+01  3.395123e+01  6.000000e+01
   endloop
 endfacet
 facet normal  0.000000e+00  0.000000e+00  1.000000e+00
   outer loop
     vertex  0.000000e+00  1.042925e+02  6.000000e+01
     vertex  5.426185e+01  3.395123e+01  6.000000e+01
     vertex  5.670350e+01  3.611435e+01  6.000000e+01
   endloop
 endfacet
 facet normal  0.000000e+00  0.000000e+00  1.000000e+00
   outer loop
     vertex  0.000000e+00  1.042925e+02  6.000000e+01
     vertex  5.670350e+01  3.611435e+01  6.000000e+01
     vertex  5.959188e+01  3.763029e+01  6.000000e+01
   endloop
 endfacet
 facet normal  0.000000e+00  0.000000e+00  1.000000e+00
   outer loop
     vertex  0.000000e+00  1.042925e+02  6.000000e+01
     vertex  5.959188e+01  3.763029e+01  6.000000e+01
     vertex  6.275911e+01  3.841094e+01  6.000000e+01
   endloop
 endfacet
 facet normal  0.000000e+00  0.000000e+00  1.000000e+00
   outer loop
     vertex  0.000000e+00  1.042925e+02  6.000000e+01
     vertex  0.000000e+00  0.000000e+00  6.000000e+01
     vertex  5.240881e+01  3.126664e+01  6.000000e+01
   endloop
 endfacet
 facet normal  0.000000e+00  0.000000e+00  1.000000e+00
   outer loop
     vertex  1.168553e+02  0.000000e+00  6.000000e+01
     vertex  7.792134e+01  2.497837e+01  6.000000e+01
     vertex  7.752815e+01  2.174013e+01  6.000000e+01
   endloop
 endfacet
 facet normal  0.000000e+00  0.000000e+00  1.000000e+00
   outer loop
     vertex  1.168553e+02  0.000000e+00  6.000000e+01
     vertex  7.752815e+01  2.174013e+01  6.000000e+01
     vertex  7.637142e+01  1.869009e+01  6.000000e+01
   endloop
 endfacet
 facet normal  0.000000e+00  0.000000e+00  1.000000e+00
   outer loop
     vertex  1.168553e+02  0.000000e+00  6.000000e+01
     vertex  7.637142e+01  1.869009e+01  6.000000e+01
     vertex  7.451839e+01  1.600550e+01  6.000000e+01
   endloop
 endfacet
 facet normal  0.000000e+00  0.000000e+00  1.000000e+00
   outer loop
     vertex  1.168553e+02  0.000000e+00  6.000000e+01
     vertex  7.451839e+01  1.600550e+01  6.000000e+01
     vertex  7.207673e+01  1.384239e+01  6.000000e+01
   endloop
 endfacet
 facet normal  0.000000e+00  0.000000e+00  1.000000e+00
   outer loop
     vertex  1.168553e+02  0.000000e+00  6.000000e+01
     vertex  7.207673e+01  1.384239e+01  6.000000e+01
     vertex  6.918836e+01  1.232645e+01  6.000000e+01
   endloop
 endfacet
 facet normal  0.000000e+00  0.000000e+00  1.000000e+00
   outer loop
     vertex  1.168553e+02  0.000000e+00  6.000000e+01
     vertex  6.918836e+01  1.232645e+01  6.000000e+01
     vertex  6.602113e+01  1.154580e+01  6.000000e+01
   endloop
 endfacet
 facet normal  0.000000e+00  0.000000e+00  1.000000e+00
   outer loop
     vertex  1.168553e+02  0.000000e+00  6.000000e+01
     vertex  6.602113e+01  1.154580e+01  6.000000e+01
     vertex  6.275911e+01  1.154580e+01  6.000000e+01
   endloop
 endfacet
 facet normal  0.000000e+00  0.000000e+00  1.000000e+00
   outer loop
     vertex  1.168553e+02  0.000000e+00  6.000000e+01
     vertex  7.637142e+01  3.126664e+01  6.000000e+01
     vertex  7.752815e+01  2.821660e+01  6.000000e+01
   endloop
 endfacet
 facet normal  0.000000e+00  0.000000e+00  1.000000e+00
   outer loop
     vertex  1.168553e+02  0.000000e+00  6.000000e+01
     vertex  7.752815e+01  2.821660e+01  6.000000e+01
     vertex  7.792134e+01  2.497837e+01  6.000000e+01
   endloop
 endfacet
 facet normal  0.000000e+00  0.000000e+00  1.000000e+00
   outer loop
     vertex  1.168553e+02  0.000000e+00  6.000000e+01
     vertex  6.275911e+01  1.154580e+01  6.000000e+01
     vertex  0.000000e+00  0.000000e+00  6.000000e+01
   endloop
 endfacet
 facet normal  0.000000e+00  0.000000e+00  1.000000e+00
   outer loop
     vertex  1.168553e+02  1.042925e+02  6.000000e+01
     vertex  6.275911e+01  3.841094e+01  6.000000e+01
     vertex  6.602113e+01  3.841094e+01  6.000000e+01
   endloop
 endfacet
 facet normal  0.000000e+00  0.000000e+00  1.000000e+00
   outer loop
     vertex  1.168553e+02  1.042925e+02  6.000000e+01
     vertex  6.602113e+01  3.841094e+01  6.000000e+01
     vertex  6.918836e+01  3.763029e+01  6.000000e+01
   endloop
 endfacet
 facet normal  0.000000e+00  0.000000e+00  1.000000e+00
   outer loop
     vertex  1.168553e+02  1.042925e+02  6.000000e+01
     vertex  6.918836e+01  3.763029e+01  6.000000e+01
     vertex  7.207673e+01  3.611435e+01  6.000000e+01
   endloop
 endfacet
 facet normal  0.000000e+00  0.000000e+00  1.000000e+00
   outer loop
     vertex  1.168553e+02  1.042925e+02  6.000000e+01
     vertex  7.207673e+01  3.611435e+01  6.000000e+01
     vertex  7.451839e+01  3.395123e+01  6.000000e+01
   endloop
 endfacet
 facet normal  0.000000e+00  0.000000e+00  1.000000e+00
   outer loop
     vertex  1.168553e+02  1.042925e+02  6.000000e+01
     vertex  7.451839e+01  3.395123e+01  6.000000e+01
     vertex  7.637142e+01  3.126664e+01  6.000000e+01
   endloop
 endfacet
 facet normal  0.000000e+00  0.000000e+00  1.000000e+00
   outer loop
     vertex  1.168553e+02  1.042925e+02  6.000000e+01
     vertex  7.637142e+01  3.126664e+01  6.000000e+01
     vertex  1.168553e+02  0.000000e+00  6.000000e+01
   endloop
 endfacet
 facet normal  0.000000e+00  0.000000e+00  1.000000e+00
   outer loop
     vertex  1.168553e+02  1.042925e+02  6.000000e+01
     vertex  0.000000e+00  1.042925e+02  6.000000e+01
     vertex  6.275911e+01  3.841094e+01  6.000000e+01
   endloop
 endfacet
 facet normal  0.000000e+00  1.000000e+00  0.000000e+00
   outer loop
     vertex  1.168553e+02  1.042925e+02  6.000000e+01
     vertex  1.168553e+02  1.042925e+02  0.000000e+00
     vertex  0.000000e+00  1.042925e+02  0.000000e+00
   endloop
 endfacet
 facet normal  0.000000e+00  1.000000e+00  0.000000e+00
   outer loop
     vertex  1.168553e+02  1.042925e+02  6.000000e+01
     vertex  0.000000e+00  1.042925e+02  0.000000e+00
     vertex  0.000000e+00  1.042925e+02  6.000000e+01
   endloop
 endfacet
 facet normal  0.000000e+00  0.000000e+00 -1.000000e+00
   outer loop
     vertex  1.168553e+02  0.000000e+00  0.000000e+00
     vertex  0.000000e+00  0.000000e+00  0.000000e+00
     vertex  0.000000e+00  1.042925e+02  0.000000e+00
   endloop
 endfacet
 facet normal -0.000000e+00 -0.000000e+00 -1.000000e+00
   outer loop
     vertex  1.168553e+02  1.042925e+02  0.000000e+00
     vertex  1.168553e+02  0.000000e+00  0.000000e+00
     vertex  0.000000e+00  1.042925e+02  0.000000e+00
   endloop
 endfacet
 facet normal  1.000000e+00  0.000000e+00  0.000000e+00
   outer loop
     vertex  1.168553e+02  0.000000e+00  6.000000e+01
     vertex  1.168553e+02  0.000000e+00  0.000000e+00
     vertex  1.168553e+02  1.042925e+02  0.000000e+00
   endloop
 endfacet
 facet normal  1.000000e+00 -0.000000e+00  0.000000e+00
   outer loop
     vertex  1.168553e+02  0.000000e+00  6.000000e+01
     vertex  1.168553e+02  1.042925e+02  0.000000e+00
     vertex  1.168553e+02  1.042925e+02  6.000000e+01
   endloop
 endfacet
 facet normal -9.927089e-01  1.205367e-01 -2.930961e-17
   outer loop
     vertex  7.752815e+01  2.174013e+01  4.606538e+01
     vertex  7.792134e+01  2.497837e+01  6.000000e+01
     vertex  7.792134e+01  2.497837e+01  4.606538e+01
   endloop
 endfacet
 facet normal -9.927089e-01  1.205367e-01  0.000000e+00
   outer loop
     vertex  7.752815e+01  2.174013e+01  4.606538e+01
     vertex  7.752815e+01  2.174013e+01  6.000000e+01
     vertex  7.792134e+01  2.497837e+01  6.000000e+01
   endloop
 endfacet
 facet normal -9.350162e-01  3.546049e-01  0.000000e+00
   outer loop
     vertex  7.752815e+01  2.174013e+01  4.606538e+01
     vertex  7.637142e+01  1.869009e+01  6.000000e+01
     vertex  7.752815e+01  2.174013e+01  6.000000e+01
   endloop
 endfacet
 facet normal -9.350162e-01  3.546049e-01  0.000000e+00
   outer loop
     vertex  7.637142e+01  1.869009e+01  4.606538e+01
     vertex  7.637142e+01  1.869009e+01  6.000000e+01
     vertex  7.752815e+01  2.174013e+01  4.606538e+01
   endloop
 endfacet
 facet normal -8.229839e-01  5.680647e-01  0.000000e+00
   outer loop
     vertex  7.451839e+01  1.600550e+01  4.606538e+01
     vertex  7.451839e+01  1.600550e+01  6.000000e+01
     vertex  7.637142e+01  1.869009e+01  6.000000e+01
   endloop
 endfacet
 facet normal -8.229839e-01  5.680647e-01  0.000000e+00
   outer loop
     vertex  7.451839e+01  1.600550e+01  4.606538e+01
     vertex  7.637142e+01  1.869009e+01  6.000000e+01
     vertex  7.637142e+01  1.869009e+01  4.606538e+01
   endloop
 endfacet
 facet normal -6.631227e-01  7.485107e-01  0.000000e+00
   outer loop
     vertex  7.207673e+01  1.384239e+01  4.606538e+01
     vertex  7.207673e+01  1.384239e+01  6.000000e+01
     vertex  7.451839e+01  1.600550e+01  6.000000e+01
   endloop
 endfacet
 facet normal -4.647232e-01  8.854560e-01  0.000000e+00
   outer loop
     vertex  7.207673e+01  1.384239e+01  4.606538e+01
     vertex  6.918836e+01  1.232645e+01  6.000000e+01
     vertex  7.207673e+01  1.384239e+01  6.000000e+01
   endloop
 endfacet
 facet normal -6.631227e-01  7.485107e-01  0.000000e+00
   outer loop
     vertex  7.207673e+01  1.384239e+01  4.606538e+01
     vertex  7.451839e+01  1.600550e+01  6.000000e+01
     vertex  7.451839e+01  1.600550e+01  4.606538e+01
   endloop
 endfacet
 facet normal -4.647232e-01  8.854560e-01  0.000000e+00
   outer loop
     vertex  6.918836e+01  1.232645e+01  4.606538e+01
     vertex  6.918836e+01  1.232645e+01  6.000000e+01
     vertex  7.207673e+01  1.384239e+01  4.606538e+01
   endloop
 endfacet
 facet normal -2.393157e-01  9.709418e-01  0.000000e+00
   outer loop
     vertex  6.602113e+01  1.154580e+01  4.606538e+01
     vertex  6.602113e+01  1.154580e+01  6.000000e+01
     vertex  6.918836e+01  1.232645e+01  6.000000e+01
   endloop
 endfacet
 facet normal -2.393157e-01  9.709418e-01  0.000000e+00
   outer loop
     vertex  6.602113e+01  1.154580e+01  4.606538e+01
     vertex  6.918836e+01  1.232645e+01  6.000000e+01
     vertex  6.918836e+01  1.232645e+01  4.606538e+01
   endloop
 endfacet
 facet normal  0.000000e+00  1.000000e+00  0.000000e+00
   outer loop
     vertex  6.275911e+01  1.154580e+01  4.606538e+01
     vertex  6.275911e+01  1.154580e+01  6.000000e+01
     vertex  6.602113e+01  1.154580e+01  6.000000e+01
   endloop
 endfacet
 facet normal  0.000000e+00  1.000000e+00  0.000000e+00
   outer loop
     vertex  6.275911e+01  1.154580e+01  4.606538e+01
     vertex  6.602113e+01  1.154580e+01  6.000000e+01
     vertex  6.602113e+01  1.154580e+01  4.606538e+01
   endloop
 endfacet
 facet normal  2.393157e-01  9.709418e-01 -0.000000e+00
   outer loop
     vertex  5.959188e+01  1.232645e+01  4.606538e+01
     vertex  5.959188e+01  1.232645e+01  6.000000e+01
     vertex  6.275911e+01  1.154580e+01  6.000000e+01
   endloop
 endfacet
 facet normal  4.647232e-01  8.854560e-01 -0.000000e+00
   outer loop
     vertex  5.959188e+01  1.232645e+01  4.606538e+01
     vertex  5.670350e+01  1.384239e+01  6.000000e+01
     vertex  5.959188e+01  1.232645e+01  6.000000e+01
   endloop
 endfacet
 facet normal  2.393157e-01  9.709418e-01  0.000000e+00
   outer loop
     vertex  5.959188e+01  1.232645e+01  4.606538e+01
     vertex  6.275911e+01  1.154580e+01  6.000000e+01
     vertex  6.275911e+01  1.154580e+01  4.606538e+01
   endloop
 endfacet
 facet normal  4.647232e-01  8.854560e-01 -0.000000e+00
   outer loop
     vertex  5.670350e+01  1.384239e+01  4.606538e+01
     vertex  5.670350e+01  1.384239e+01  6.000000e+01
     vertex  5.959188e+01  1.232645e+01  4.606538e+01
   endloop
 endfacet
 facet normal  6.631227e-01  7.485107e-01 -0.000000e+00
   outer loop
     vertex  5.426185e+01  1.600550e+01  4.606538e+01
     vertex  5.426185e+01  1.600550e+01  6.000000e+01
     vertex  5.670350e+01  1.384239e+01  6.000000e+01
   endloop
 endfacet
 facet normal  6.631227e-01  7.485107e-01  0.000000e+00
   outer loop
     vertex  5.426185e+01  1.600550e+01  4.606538e+01
     vertex  5.670350e+01  1.384239e+01  6.000000e+01
     vertex  5.670350e+01  1.384239e+01  4.606538e+01
   endloop
 endfacet
 facet normal  8.229839e-01  5.680647e-01  0.000000e+00
   outer loop
     vertex  5.240881e+01  1.869009e+01  4.606538e+01
     vertex  5.426185e+01  1.600550e+01  6.000000e+01
     vertex  5.426185e+01  1.600550e+01  4.606538e+01
   endloop
 endfacet
 facet normal  8.229839e-01  5.680647e-01 -0.000000e+00
   outer loop
     vertex  5.240881e+01  1.869009e+01  4.606538e+01
     vertex  5.240881e+01  1.869009e+01  6.000000e+01
     vertex  5.426185e+01  1.600550e+01  6.000000e+01
   endloop
 endfacet
 facet normal  9.350162e-01  3.546049e-01 -0.000000e+00
   outer loop
     vertex  5.240881e+01  1.869009e+01  4.606538e+01
     vertex  5.125208e+01  2.174013e+01  6.000000e+01
     vertex  5.240881e+01  1.869009e+01  6.000000e+01
   endloop
 endfacet
 facet normal  9.350162e-01  3.546049e-01 -0.000000e+00
   outer loop
     vertex  5.125208e+01  2.174013e+01  4.606538e+01
     vertex  5.125208e+01  2.174013e+01  6.000000e+01
     vertex  5.240881e+01  1.869009e+01  4.606538e+01
   endloop
 endfacet
 facet normal  9.927089e-01  1.205367e-01  0.000000e+00
   outer loop
     vertex  5.085889e+01  2.497837e+01  4.606538e+01
     vertex  5.125208e+01  2.174013e+01  6.000000e+01
     vertex  5.125208e+01  2.174013e+01  4.606538e+01
   endloop
 endfacet
 facet normal  9.927089e-01  1.205367e-01 -0.000000e+00
   outer loop
     vertex  5.085889e+01  2.497837e+01  4.606538e+01
     vertex  5.085889e+01  2.497837e+01  6.000000e+01
     vertex  5.125208e+01  2.174013e+01  6.000000e+01
   endloop
 endfacet
 facet normal  9.927089e-01 -1.205367e-01  0.000000e+00
   outer loop
     vertex  5.125208e+01  2.821660e+01  4.606538e+01
     vertex  5.085889e+01  2.497837e+01  6.000000e+01
     vertex  5.085889e+01  2.497837e+01  4.606538e+01
   endloop
 endfacet
 facet normal  9.927089e-01 -1.205367e-01  0.000000e+00
   outer loop
     vertex  5.125208e+01  2.821660e+01  4.606538e+01
     vertex  5.125208e+01  2.821660e+01  6.000000e+01
     vertex  5.085889e+01  2.497837e+01  6.000000e+01
   endloop
 endfacet
 facet normal  9.350162e-01 -3.546049e-01  0.000000e+00
   outer loop
     vertex  5.240881e+01  3.126664e+01  4.606538e+01
     vertex  5.125208e+01  2.821660e+01  6.000000e+01
     vertex  5.125208e+01  2.821660e+01  4.606538e+01
   endloop
 endfacet
 facet normal  9.350162e-01 -3.546049e-01  0.000000e+00
   outer loop
     vertex  5.240881e+01  3.126664e+01  4.606538e+01
     vertex  5.240881e+01  3.126664e+01  6.000000e+01
     vertex  5.125208e+01  2.821660e+01  6.000000e+01
   endloop
 endfacet
 facet normal  8.229839e-01 -5.680647e-01  0.000000e+00
   outer loop
     vertex  5.426185e+01  3.395123e+01  4.606538e+01
     vertex  5.240881e+01  3.126664e+01  6.000000e+01
     vertex  5.240881e+01  3.126664e+01  4.606538e+01
   endloop
 endfacet
 facet normal  8.229839e-01 -5.680647e-01  0.000000e+00
   outer loop
     vertex  5.426185e+01  3.395123e+01  4.606538e+01
     vertex  5.426185e+01  3.395123e+01  6.000000e+01
     vertex  5.240881e+01  3.126664e+01  6.000000e+01
   endloop
 endfacet
 facet normal  6.631227e-01 -7.485107e-01  0.000000e+00
   outer loop
     vertex  5.670350e+01  3.611435e+01  4.606538e+01
     vertex  5.426185e+01  3.395123e+01  6.000000e+01
     vertex  5.426185e+01  3.395123e+01  4.606538e+01
   endloop
 endfacet
 facet normal  6.631227e-01 -7.485107e-01  0.000000e+00
   outer loop
     vertex  5.670350e+01  3.611435e+01  4.606538e+01
     vertex  5.670350e+01  3.611435e+01  6.000000e+01
     vertex  5.426185e+01  3.395123e+01  6.000000e+01
   endloop
 endfacet
 facet normal  4.647232e-01 -8.854560e-01  0.000000e+00
   outer loop
     vertex  5.959188e+01  3.763029e+01  4.606538e+01
     vertex  5.670350e+01  3.611435e+01  6.000000e+01
     vertex  5.670350e+01  3.611435e+01  4.606538e+01
   endloop
 endfacet
 facet normal  4.647232e-01 -8.854560e-01  0.000000e+00
   outer loop
     vertex  5.959188e+01  3.763029e+01  4.606538e+01
     vertex  5.959188e+01  3.763029e+01  6.000000e+01
     vertex  5.670350e+01  3.611435e+01  6.000000e+01
   endloop
 endfacet
 facet normal  2.393157e-01 -9.709418e-01  0.000000e+00
   outer loop
     vertex  6.275911e+01  3.841094e+01  4.606538e+01
     vertex  5.959188e+01  3.763029e+01  6.000000e+01
     vertex  5.959188e+01  3.763029e+01  4.606538e+01
   endloop
 endfacet
 facet normal  2.393157e-01 -9.709418e-01  0.000000e+00
   outer loop
     vertex  6.275911e+01  3.841094e+01  4.606538e+01
     vertex  6.275911e+01  3.841094e+01  6.000000e+01
     vertex  5.959188e+01  3.763029e+01  6.000000e+01
   endloop
 endfacet
 facet normal  2.178230e-15 -1.000000e+00  0.000000e+00
   outer loop
     vertex  6.602113e+01  3.841094e+01  4.606538e+01
     vertex  6.275911e+01  3.841094e+01  6.000000e+01
     vertex  6.275911e+01  3.841094e+01  4.606538e+01
   endloop
 endfacet
 facet normal  2.178230e-15 -1.000000e+00  0.000000e+00
   outer loop
     vertex  6.602113e+01  3.841094e+01  4.606538e+01
     vertex  6.602113e+01  3.841094e+01  6.000000e+01
     vertex  6.275911e+01  3.841094e+01  6.000000e+01
   endloop
 endfacet
 facet normal -2.393157e-01 -9.709418e-01  0.000000e+00
   outer loop
     vertex  6.918836e+01  3.763029e+01  4.606538e+01
     vertex  6.602113e+01  3.841094e+01  6.000000e+01
     vertex  6.602113e+01  3.841094e+01  4.606538e+01
   endloop
 endfacet
 facet normal -2.393157e-01 -9.709418e-01  0.000000e+00
   outer loop
     vertex  6.918836e+01  3.763029e+01  4.606538e+01
     vertex  6.918836e+01  3.763029e+01  6.000000e+01
     vertex  6.602113e+01  3.841094e+01  6.000000e+01
   endloop
 endfacet
 facet normal -4.647232e-01 -8.854560e-01  0.000000e+00
   outer loop
     vertex  7.207673e+01  3.611435e+01  4.606538e+01
     vertex  6.918836e+01  3.763029e+01  6.000000e+01
     vertex  6.918836e+01  3.763029e+01  4.606538e+01
   endloop
 endfacet
 facet normal -4.647232e-01 -8.854560e-01  0.000000e+00
   outer loop
     vertex  7.207673e+01  3.611435e+01  4.606538e+01
     vertex  7.207673e+01  3.611435e+01  6.000000e+01
     vertex  6.918836e+01  3.763029e+01  6.000000e+01
   endloop
 endfacet
 facet normal -6.631227e-01 -7.485107e-01  0.000000e+00
   outer loop
     vertex  7.451839e+01  3.395123e+01  4.606538e+01
     vertex  7.207673e+01  3.611435e+01  6.000000e+01
     vertex  7.207673e+01  3.611435e+01  4.606538e+01
   endloop
 endfacet
 facet normal -6.631227e-01 -7.485107e-01  0.000000e+00
   outer loop
     vertex  7.451839e+01  3.395123e+01  4.606538e+01
     vertex  7.451839e+01  3.395123e+01  6.000000e+01
     vertex  7.207673e+01  3.611435e+01  6.000000e+01
   endloop
 endfacet
 facet normal -8.229839e-01 -5.680647e-01  0.000000e+00
   outer loop
     vertex  7.451839e+01  3.395123e+01  4.606538e+01
     vertex  7.637142e+01  3.126664e+01  6.000000e+01
     vertex  7.451839e+01  3.395123e+01  6.000000e+01
   endloop
 endfacet
 facet normal -8.229839e-01 -5.680647e-01  0.000000e+00
   outer loop
     vertex  7.637142e+01  3.126664e+01  4.606538e+01
     vertex  7.637142e+01  3.126664e+01  6.000000e+01
     vertex  7.451839e+01  3.395123e+01  4.606538e+01
   endloop
 endfacet
 facet normal -9.350162e-01 -3.546049e-01  0.000000e+00
   outer loop
     vertex  7.752815e+01  2.821660e+01  4.606538e+01
     vertex  7.752815e+01  2.821660e+01  6.000000e+01
     vertex  7.637142e+01  3.126664e+01  6.000000e+01
   endloop
 endfacet
 facet normal -9.350162e-01 -3.546049e-01  0.000000e+00
   outer loop
     vertex  7.752815e+01  2.821660e+01  4.606538e+01
     vertex  7.637142e+01  3.126664e+01  6.000000e+01
     vertex  7.637142e+01  3.126664e+01  4.606538e+01
   endloop
 endfacet
 facet normal -9.927089e-01 -1.205367e-01  3.073155e-17
   outer loop
     vertex  7.792134e+01  2.497837e+01  4.606538e+01
     vertex  7.792134e+01  2.497837e+01  6.000000e+01
     vertex  7.752815e+01  2.821660e+01  6.000000e+01
   endloop
 endfacet
 facet normal -9.927089e-01 -1.205367e-01  0.000000e+00
   outer loop
     vertex  7.792134e+01  2.497837e+01  4.606538e+01
     vertex  7.752815e+01  2.821660e+01  6.000000e+01
     vertex  7.752815e+01  2.821660e+01  4.606538e+01
   endloop
 endfacet
 facet normal  0.000000e+00  0.000000e+00  1.000000e+00
   outer loop
     vertex  5.959188e+01  3.763029e+01  4.606538e+01
     vertex  5.426185e+01  3.395123e+01  4.606538e+01
     vertex  5.240881e+01  3.126664e+01  4.606538e+01
   endloop
 endfacet
 facet normal  0.000000e+00  0.000000e+00  1.000000e+00
   outer loop
     vertex  5.959188e+01  3.763029e+01  4.606538e+01
     vertex  5.670350e+01  3.611435e+01  4.606538e+01
     vertex  5.426185e+01  3.395123e+01  4.606538e+01
   endloop
 endfacet
 facet normal  0.000000e+00  0.000000e+00  1.000000e+00
   outer loop
     vertex  6.602113e+01  3.841094e+01  4.606538e+01
     vertex  6.275911e+01  3.841094e+01  4.606538e+01
     vertex  5.959188e+01  3.763029e+01  4.606538e+01
   endloop
 endfacet
 facet normal  0.000000e+00  0.000000e+00  1.000000e+00
   outer loop
     vertex  5.125208e+01  2.174013e+01  4.606538e+01
     vertex  5.125208e+01  2.821660e+01  4.606538e+01
     vertex  5.085889e+01  2.497837e+01  4.606538e+01
   endloop
 endfacet
 facet normal  0.000000e+00 -0.000000e+00  1.000000e+00
   outer loop
     vertex  5.125208e+01  2.174013e+01  4.606538e+01
     vertex  5.240881e+01  3.126664e+01  4.606538e+01
     vertex  5.125208e+01  2.821660e+01  4.606538e+01
   endloop
 endfacet
 facet normal  0.000000e+00  0.000000e+00  1.000000e+00
   outer loop
     vertex  5.125208e+01  2.174013e+01  4.606538e+01
     vertex  5.959188e+01  3.763029e+01  4.606538e+01
     vertex  5.240881e+01  3.126664e+01  4.606538e+01
   endloop
 endfacet
 facet normal  0.000000e+00  0.000000e+00  1.000000e+00
   outer loop
     vertex  5.240881e+01  1.869009e+01  4.606538e+01
     vertex  6.602113e+01  3.841094e+01  4.606538e+01
     vertex  5.959188e+01  3.763029e+01  4.606538e+01
   endloop
 endfacet
 facet normal  0.000000e+00 -0.000000e+00  1.000000e+00
   outer loop
     vertex  5.240881e+01  1.869009e+01  4.606538e+01
     vertex  5.959188e+01  3.763029e+01  4.606538e+01
     vertex  5.125208e+01  2.174013e+01  4.606538e+01
   endloop
 endfacet
 facet normal  0.000000e+00  0.000000e+00  1.000000e+00
   outer loop
     vertex  7.207673e+01  3.611435e+01  4.606538e+01
     vertex  6.918836e+01  3.763029e+01  4.606538e+01
     vertex  6.602113e+01  3.841094e+01  4.606538e+01
   endloop
 endfacet
 facet normal  0.000000e+00  0.000000e+00  1.000000e+00
   outer loop
     vertex  7.207673e+01  3.611435e+01  4.606538e+01
     vertex  6.602113e+01  3.841094e+01  4.606538e+01
     vertex  5.240881e+01  1.869009e+01  4.606538e+01
   endloop
 endfacet
 facet normal  0.000000e+00  0.000000e+00  1.000000e+00
   outer loop
     vertex  6.275911e+01  1.154580e+01  4.606538e+01
     vertex  5.670350e+01  1.384239e+01  4.606538e+01
     vertex  5.959188e+01  1.232645e+01  4.606538e+01
   endloop
 endfacet
 facet normal  0.000000e+00  0.000000e+00  1.000000e+00
   outer loop
     vertex  6.275911e+01  1.154580e+01  4.606538e+01
     vertex  5.426185e+01  1.600550e+01  4.606538e+01
     vertex  5.670350e+01  1.384239e+01  4.606538e+01
   endloop
 endfacet
 facet normal  0.000000e+00 -0.000000e+00  1.000000e+00
   outer loop
     vertex  7.752815e+01  2.174013e+01  4.606538e+01
     vertex  7.792134e+01  2.497837e+01  4.606538e+01
     vertex  7.752815e+01  2.821660e+01  4.606538e+01
   endloop
 endfacet
 facet normal  0.000000e+00  0.000000e+00  1.000000e+00
   outer loop
     vertex  6.918836e+01  1.232645e+01  4.606538e+01
     vertex  6.275911e+01  1.154580e+01  4.606538e+01
     vertex  6.602113e+01  1.154580e+01  4.606538e+01
   endloop
 endfacet
 facet normal  0.000000e+00  0.000000e+00  1.000000e+00
   outer loop
     vertex  6.918836e+01  1.232645e+01  4.606538e+01
     vertex  5.426185e+01  1.600550e+01  4.606538e+01
     vertex  6.275911e+01  1.154580e+01  4.606538e+01
   endloop
 endfacet
 facet normal  0.000000e+00  0.000000e+00  1.000000e+00
   outer loop
     vertex  7.637142e+01  1.869009e+01  4.606538e+01
     vertex  7.637142e+01  3.126664e+01  4.606538e+01
     vertex  7.451839e+01  3.395123e+01  4.606538e+01
   endloop
 endfacet
 facet normal  0.000000e+00 -0.000000e+00  1.000000e+00
   outer loop
     vertex  7.637142e+01  1.869009e+01  4.606538e+01
     vertex  7.752815e+01  2.821660e+01  4.606538e+01
     vertex  7.637142e+01  3.126664e+01  4.606538e+01
   endloop
 endfacet
 facet normal  0.000000e+00  0.000000e+00  1.000000e+00
   outer loop
     vertex  7.637142e+01  1.869009e+01  4.606538e+01
     vertex  7.752815e+01  2.174013e+01  4.606538e+01
     vertex  7.752815e+01  2.821660e+01  4.606538e+01
   endloop
 endfacet
 facet normal  0.000000e+00  0.000000e+00  1.000000e+00
   outer loop
     vertex  7.207673e+01  1.384239e+01  4.606538e+01
     vertex  5.240881e+01  1.869009e+01  4.606538e+01
     vertex  5.426185e+01  1.600550e+01  4.606538e+01
   endloop
 endfacet
 facet normal  0.000000e+00 -0.000000e+00  1.000000e+00
   outer loop
     vertex  7.207673e+01  1.384239e+01  4.606538e+01
     vertex  7.451839e+01  3.395123e+01  4.606538e+01
     vertex  7.207673e+01  3.611435e+01  4.606538e+01
   endloop
 endfacet
 facet normal  0.000000e+00  0.000000e+00  1.000000e+00
   outer loop
     vertex  7.207673e+01  1.384239e+01  4.606538e+01
     vertex  7.207673e+01  3.611435e+01  4.606538e+01
     vertex  5.240881e+01  1.869009e+01  4.606538e+01
   endloop
 endfacet
 facet normal  0.000000e+00  0.000000e+00  1.000000e+00
   outer loop
     vertex  7.207673e+01  1.384239e+01  4.606538e+01
     vertex  5.426185e+01  1.600550e+01  4.606538e+01
     vertex  6.918836e+01  1.232645e+01  4.606538e+01
   endloop
 endfacet
 facet normal  0.000000e+00  0.000000e+00  1.000000e+00
   outer loop
     vertex  7.207673e+01  1.384239e+01  4.606538e+01
     vertex  7.637142e+01  1.869009e+01  4.606538e+01
     vertex  7.451839e+01  3.395123e+01  4.606538e+01
   endloop
 endfacet
 facet normal  0.000000e+00 -0.000000e+00  1.000000e+00
   outer loop
     vertex  7.451839e+01  1.600550e+01  4.606538e+01
     vertex  7.637142e+01  1.869009e+01  4.606538e+01
     vertex  7.207673e+01  1.384239e+01  4.606538e+01
   endloop
 endfacet
endsolid
