solid 
 facet normal -1.000000e+00  0.000000e+00  0.000000e+00
   outer loop
     vertex  0.000000e+00  0.000000e+00  6.000000e+01
     vertex  0.000000e+00  8.740383e+01  0.000000e+00
     vertex  0.000000e+00  0.000000e+00  0.000000e+00
   endloop
 endfacet
 facet normal -1.000000e+00  0.000000e+00  0.000000e+00
   outer loop
     vertex  0.000000e+00  0.000000e+00  6.000000e+01
     vertex  0.000000e+00  8.740383e+01  6.000000e+01
     vertex  0.000000e+00  8.740383e+01  0.000000e+00
   endloop
 endfacet
 facet normal  0.000000e+00 -1.000000e+00 -0.000000e+00
   outer loop
     vertex  1.428263e+02  0.000000e+00  6.000000e+01
     vertex  0.000000e+00  0.000000e+00  0.000000e+00
     vertex  1.428263e+02  0.000000e+00  0.000000e+00
   endloop
 endfacet
 facet normal -0.000000e+00 -1.000000e+00  0.000000e+00
   outer loop
     vertex  1.428263e+02  0.000000e+00  6.000000e+01
     vertex  0.000000e+00  0.000000e+00  6.000000e+01
     vertex  0.000000e+00  0.000000e+00  0.000000e+00
   endloop
 endfacet
 facet normal  0.000000e+00  0.000000e+00  1.000000e+00
   outer loop
     vertex  3.151318e+01  5.159868e+01  6.000000e+01
     vertex  3.002996e+01  5.291270e+01  6.000000e+01
     vertex  0.000000e+00  0.000000e+00  6.000000e+01
   endloop
 endfacet
 facet normal  0.000000e+00  0.000000e+00  1.000000e+00
   outer loop
     vertex  2.890430e+01  5.454349e+01  6.000000e+01
     vertex  0.000000e+00  0.000000e+00  6.000000e+01
     vertex  3.002996e+01  5.291270e+01  6.000000e+01
   endloop
 endfacet
 facet normal  0.000000e+00  0.000000e+00  1.000000e+00
   outer loop
     vertex  3.326777e+01  5.067780e+01  6.000000e+01
     vertex  3.151318e+01  5.159868e+01  6.000000e+01
     vertex  0.000000e+00  0.000000e+00  6.000000e+01
   endloop
 endfacet
 facet normal  0.000000e+00  0.000000e+00  1.000000e+00
   outer loop
     vertex  2.820163e+01  5.639629e+01  6.000000e+01
     vertex  0.000000e+00  0.000000e+00  6.000000e+01
     vertex  2.890430e+01  5.454349e+01  6.000000e+01
   endloop
 endfacet
 facet normal  0.000000e+00  0.000000e+00  1.000000e+00
   outer loop
     vertex  3.519175e+01  5.020358e+01  6.000000e+01
     vertex  3.326777e+01  5.067780e+01  6.000000e+01
     vertex  0.000000e+00  0.000000e+00  6.000000e+01
   endloop
 endfacet
 facet normal  0.000000e+00  0.000000e+00  1.000000e+00
   outer loop
     vertex  3.717331e+01  5.020358e+01  6.000000e+01
     vertex  3.519175e+01  5.020358e+01  6.000000e+01
     vertex  0.000000e+00  0.000000e+00  6.000000e+01
   endloop
 endfacet
 facet normal  0.000000e+00  0.000000e+00  1.000000e+00
   outer loop
     vertex  0.000000e+00  8.740383e+01  6.000000e+01
     vertex  2.820163e+01  5.639629e+01  6.000000e+01
     vertex  2.796278e+01  5.836340e+01  6.000000e+01
   endloop
 endfacet
 facet normal  0.000000e+00  0.000000e+00  1.000000e+00
   outer loop
     vertex  0.000000e+00  8.740383e+01  6.000000e+01
     vertex  0.000000e+00  0.000000e+00  6.000000e+01
     vertex  2.820163e+01  5.639629e+01  6.000000e+01
   endloop
 endfacet
 facet normal  0.000000e+00  0.000000e+00  1.000000e+00
   outer loop
     vertex  2.820163e+01  6.033052e+01  6.000000e+01
     vertex  0.000000e+00  8.740383e+01  6.000000e+01
     vertex  2.796278e+01  5.836340e+01  6.000000e+01
   endloop
 endfacet
 facet normal  0.000000e+00  0.000000e+00  1.000000e+00
   outer loop
     vertex  3.909730e+01  5.067780e+01  6.000000e+01
     vertex  3.717331e+01  5.020358e+01  6.000000e+01
     vertex  0.000000e+00  0.000000e+00  6.000000e+01
   endloop
 endfacet
 facet normal  0.000000e+00  0.000000e+00  1.000000e+00
   outer loop
     vertex  2.890430e+01  6.218331e+01  6.000000e+01
     vertex  0.000000e+00  8.740383e+01  6.000000e+01
     vertex  2.820163e+01  6.033052e+01  6.000000e+01
   endloop
 endfacet
 facet normal  0.000000e+00  0.000000e+00  1.000000e+00
   outer loop
     vertex  3.002996e+01  6.381411e+01  6.000000e+01
     vertex  0.000000e+00  8.740383e+01  6.000000e+01
     vertex  2.890430e+01  6.218331e+01  6.000000e+01
   endloop
 endfacet
 facet normal  0.000000e+00  0.000000e+00  1.000000e+00
   outer loop
     vertex  3.151318e+01  6.512813e+01  6.000000e+01
     vertex  0.000000e+00  8.740383e+01  6.000000e+01
     vertex  3.002996e+01  6.381411e+01  6.000000e+01
   endloop
 endfacet
 facet normal  0.000000e+00  0.000000e+00  1.000000e+00
   outer loop
     vertex  3.326777e+01  6.604900e+01  6.000000e+01
     vertex  0.000000e+00  8.740383e+01  6.000000e+01
     vertex  3.151318e+01  6.512813e+01  6.000000e+01
   endloop
 endfacet
 facet normal  0.000000e+00  0.000000e+00  1.000000e+00
   outer loop
     vertex  3.519175e+01  6.652322e+01  6.000000e+01
     vertex  0.000000e+00  8.740383e+01  6.000000e+01
     vertex  3.326777e+01  6.604900e+01  6.000000e+01
   endloop
 endfacet
 facet normal  0.000000e+00  0.000000e+00  1.000000e+00
   outer loop
     vertex  3.717331e+01  6.652322e+01  6.000000e+01
     vertex  0.000000e+00  8.740383e+01  6.000000e+01
     vertex  3.519175e+01  6.652322e+01  6.000000e+01
   endloop
 endfacet
 facet normal  0.000000e+00  0.000000e+00  1.000000e+00
   outer loop
     vertex  3.909730e+01  6.604900e+01  6.000000e+01
     vertex  0.000000e+00  8.740383e+01  6.000000e+01
     vertex  3.717331e+01  6.652322e+01  6.000000e+01
   endloop
 endfacet
 facet normal  0.000000e+00  0.000000e+00  1.000000e+00
   outer loop
     vertex  1.428263e+02  0.000000e+00  6.000000e+01
     vertex  4.416343e+01  5.639629e+01  6.000000e+01
     vertex  4.346076e+01  5.454349e+01  6.000000e+01
   endloop
 endfacet
 facet normal  0.000000e+00  0.000000e+00  1.000000e+00
   outer loop
     vertex  1.428263e+02  0.000000e+00  6.000000e+01
     vertex  4.346076e+01  5.454349e+01  6.000000e+01
     vertex  4.233511e+01  5.291270e+01  6.000000e+01
   endloop
 endfacet
 facet normal  0.000000e+00  0.000000e+00  1.000000e+00
   outer loop
     vertex  1.428263e+02  0.000000e+00  6.000000e+01
     vertex  4.233511e+01  5.291270e+01  6.000000e+01
     vertex  4.085188e+01  5.159868e+01  6.000000e+01
   endloop
 endfacet
 facet normal  0.000000e+00  0.000000e+00  1.000000e+00
   outer loop
     vertex  1.428263e+02  0.000000e+00  6.000000e+01
     vertex  4.085188e+01  5.159868e+01  6.000000e+01
     vertex  3.909730e+01  5.067780e+01  6.000000e+01
   endloop
 endfacet
 facet normal  0.000000e+00  0.000000e+00  1.000000e+00
   outer loop
     vertex  1.428263e+02  0.000000e+00  6.000000e+01
     vertex  3.909730e+01  5.067780e+01  6.000000e+01
     vertex  0.000000e+00  0.000000e+00  6.000000e+01
   endloop
 endfacet
 facet normal  0.000000e+00  0.000000e+00  1.000000e+00
   outer loop
     vertex  1.428263e+02  8.740383e+01  6.000000e+01
     vertex  4.440229e+01  5.836340e+01  6.000000e+01
     vertex  4.416343e+01  5.639629e+01  6.000000e+01
   endloop
 endfacet
 facet normal  0.000000e+00  0.000000e+00  1.000000e+00
   outer loop
     vertex  1.428263e+02  8.740383e+01  6.000000e+01
     vertex  3.909730e+01  6.604900e+01  6.000000e+01
     vertex  4.085188e+01  6.512813e+01  6.000000e+01
   endloop
 endfacet
 facet normal  0.000000e+00  0.000000e+00  1.000000e+00
   outer loop
     vertex  1.428263e+02  8.740383e+01  6.000000e+01
     vertex  4.085188e+01  6.512813e+01  6.000000e+01
     vertex  4.233511e+01  6.381411e+01  6.000000e+01
   endloop
 endfacet
 facet normal  0.000000e+00  0.000000e+00  1.000000e+00
   outer loop
     vertex  1.428263e+02  8.740383e+01  6.000000e+01
     vertex  4.233511e+01  6.381411e+01  6.000000e+01
     vertex  4.346076e+01  6.218331e+01  6.000000e+01
   endloop
 endfacet
 facet normal  0.000000e+00  0.000000e+00  1.000000e+00
   outer loop
     vertex  1.428263e+02  8.740383e+01  6.000000e+01
     vertex  4.346076e+01  6.218331e+01  6.000000e+01
     vertex  4.416343e+01  6.033052e+01  6.000000e+01
   endloop
 endfacet
 facet normal  0.000000e+00  0.000000e+00  1.000000e+00
   outer loop
     vertex  1.428263e+02  8.740383e+01  6.000000e+01
     vertex  4.416343e+01  6.033052e+01  6.000000e+01
     vertex  4.440229e+01  5.836340e+01  6.000000e+01
   endloop
 endfacet
 facet normal  0.000000e+00  0.000000e+00  1.000000e+00
   outer loop
     vertex  1.428263e+02  8.740383e+01  6.000000e+01
     vertex  4.416343e+01  5.639629e+01  6.000000e+01
     vertex  1.428263e+02  0.000000e+00  6.000000e+01
   endloop
 endfacet
 facet normal  0.000000e+00  0.000000e+00  1.000000e+00
   outer loop
     vertex  1.428263e+02  8.740383e+01  6.000000e+01
     vertex  0.000000e+00  8.740383e+01  6.000000e+01
     vertex  3.909730e+01  6.604900e+01  6.000000e+01
   endloop
 endfacet
 facet normal  0.000000e+00  1.000000e+00  0.000000e+00
   outer loop
     vertex  1.428263e+02  8.740383e+01  6.000000e+01
     vertex  1.428263e+02  8.740383e+01  0.000000e+00
     vertex  0.000000e+00  8.740383e+01  0.000000e+00
   endloop
 endfacet
 facet normal  0.000000e+00  1.000000e+00  0.000000e+00
   outer loop
     vertex  1.428263e+02  8.740383e+01  6.000000e+01
     vertex  0.000000e+00  8.740383e+01  0.000000e+00
     vertex  0.000000e+00  8.740383e+01  6.000000e+01
   endloop
 endfacet
 facet normal -0.000000e+00  0.000000e+00 -1.000000e+00
   outer loop
     vertex  1.428263e+02  8.740383e+01  0.000000e+00
     vertex  0.000000e+00  0.000000e+00  0.000000e+00
     vertex  0.000000e+00  8.740383e+01  0.000000e+00
   endloop
 endfacet
 facet normal  0.000000e+00 -0.000000e+00 -1.000000e+00
   outer loop
     vertex  1.428263e+02  8.740383e+01  0.000000e+00
     vertex  1.428263e+02  0.000000e+00  0.000000e+00
     vertex  0.000000e+00  0.000000e+00  0.000000e+00
   endloop
 endfacet
 facet normal  1.000000e+00  0.000000e+00  0.000000e+00
   outer loop
     vertex  1.428263e+02  0.000000e+00  6.000000e+01
     vertex  1.428263e+02  0.000000e+00  0.000000e+00
     vertex  1.428263e+02  8.740383e+01  0.000000e+00
   endloop
 endfacet
 facet normal  1.000000e+00 -0.000000e+00  0.000000e+00
   outer loop
     vertex  1.428263e+02  0.000000e+00  6.000000e+01
     vertex  1.428263e+02  8.740383e+01  0.000000e+00
     vertex  1.428263e+02  8.740383e+01  6.000000e+01
   endloop
 endfacet
 facet normal -9.927089e-01  1.205367e-01  0.000000e+00
   outer loop
     vertex  4.416343e+01  5.639629e+01  4.032240e+01
     vertex  4.440229e+01  5.836340e+01  6.000000e+01
     vertex  4.440229e+01  5.836340e+01  4.032240e+01
   endloop
 endfacet
 facet normal -9.927089e-01  1.205367e-01  0.000000e+00
   outer loop
     vertex  4.416343e+01  5.639629e+01  4.032240e+01
     vertex  4.416343e+01  5.639629e+01  6.000000e+01
     vertex  4.440229e+01  5.836340e+01  6.000000e+01
   endloop
 endfacet
 facet normal -9.350162e-01  3.546049e-01  0.000000e+00
   outer loop
     vertex  4.346076e+01  5.454349e+01  4.032240e+01
     vertex  4.346076e+01  5.454349e+01  6.000000e+01
     vertex  4.416343e+01  5.639629e+01  6.000000e+01
   endloop
 endfacet
 facet normal -8.229839e-01  5.680647e-01  0.000000e+00
   outer loop
     vertex  4.346076e+01  5.454349e+01  4.032240e+01
     vertex  4.233511e+01  5.291270e+01  6.000000e+01
     vertex  4.346076e+01  5.454349e+01  6.000000e+01
   endloop
 endfacet
 facet normal -9.350162e-01  3.546049e-01  0.000000e+00
   outer loop
     vertex  4.346076e+01  5.454349e+01  4.032240e+01
     vertex  4.416343e+01  5.639629e+01  6.000000e+01
     vertex  4.416343e+01  5.639629e+01  4.032240e+01
   endloop
 endfacet
 facet normal -8.229839e-01  5.680647e-01  0.000000e+00
   outer loop
     vertex  4.233511e+01  5.291270e+01  4.032240e+01
     vertex  4.233511e+01  5.291270e+01  6.000000e+01
     vertex  4.346076e+01  5.454349e+01  4.032240e+01
   endloop
 endfacet
 facet normal -6.631227e-01  7.485107e-01  0.000000e+00
   outer loop
     vertex  4.085188e+01  5.159868e+01  4.032240e+01
     vertex  4.085188e+01  5.159868e+01  6.000000e+01
     vertex  4.233511e+01  5.291270e+01  6.000000e+01
   endloop
 endfacet
 facet normal -4.647232e-01  8.854560e-01  0.000000e+00
   outer loop
     vertex  4.085188e+01  5.159868e+01  4.032240e+01
     vertex  3.909730e+01  5.067780e+01  6.000000e+01
     vertex  4.085188e+01  5.159868e+01  6.000000e+01
   endloop
 endfacet
 facet normal -6.631227e-01  7.485107e-01  0.000000e+00
   outer loop
     vertex  4.085188e+01  5.159868e+01  4.032240e+01
     vertex  4.233511e+01  5.291270e+01  6.000000e+01
     vertex  4.233511e+01  5.291270e+01  4.032240e+01
   endloop
 endfacet
 facet normal -2.393157e-01  9.709418e-01  0.000000e+00
   outer loop
     vertex  3.909730e+01  5.067780e+01  4.032240e+01
     vertex  3.717331e+01  5.020358e+01  6.000000e+01
     vertex  3.909730e+01  5.067780e+01  6.000000e+01
   endloop
 endfacet
 facet normal -4.647232e-01  8.854560e-01  0.000000e+00
   outer loop
     vertex  3.909730e+01  5.067780e+01  4.032240e+01
     vertex  3.909730e+01  5.067780e+01  6.000000e+01
     vertex  4.085188e+01  5.159868e+01  4.032240e+01
   endloop
 endfacet
 facet normal -2.393157e-01  9.709418e-01  0.000000e+00
   outer loop
     vertex  3.717331e+01  5.020358e+01  4.032240e+01
     vertex  3.717331e+01  5.020358e+01  6.000000e+01
     vertex  3.909730e+01  5.067780e+01  4.032240e+01
   endloop
 endfacet
 facet normal  0.000000e+00  1.000000e+00  0.000000e+00
   outer loop
     vertex  3.519175e+01  5.020358e+01  4.032240e+01
     vertex  3.519175e+01  5.020358e+01  6.000000e+01
     vertex  3.717331e+01  5.020358e+01  6.000000e+01
   endloop
 endfacet
 facet normal  2.393157e-01  9.709418e-01 -0.000000e+00
   outer loop
     vertex  3.519175e+01  5.020358e+01  4.032240e+01
     vertex  3.326777e+01  5.067780e+01  6.000000e+01
     vertex  3.519175e+01  5.020358e+01  6.000000e+01
   endloop
 endfacet
 facet normal  0.000000e+00  1.000000e+00  0.000000e+00
   outer loop
     vertex  3.519175e+01  5.020358e+01  4.032240e+01
     vertex  3.717331e+01  5.020358e+01  6.000000e+01
     vertex  3.717331e+01  5.020358e+01  4.032240e+01
   endloop
 endfacet
 facet normal  2.393157e-01  9.709418e-01 -0.000000e+00
   outer loop
     vertex  3.326777e+01  5.067780e+01  4.032240e+01
     vertex  3.326777e+01  5.067780e+01  6.000000e+01
     vertex  3.519175e+01  5.020358e+01  4.032240e+01
   endloop
 endfacet
 facet normal  4.647232e-01  8.854560e-01 -0.000000e+00
   outer loop
     vertex  3.151318e+01  5.159868e+01  4.032240e+01
     vertex  3.151318e+01  5.159868e+01  6.000000e+01
     vertex  3.326777e+01  5.067780e+01  6.000000e+01
   endloop
 endfacet
 facet normal  4.647232e-01  8.854560e-01  0.000000e+00
   outer loop
     vertex  3.151318e+01  5.159868e+01  4.032240e+01
     vertex  3.326777e+01  5.067780e+01  6.000000e+01
     vertex  3.326777e+01  5.067780e+01  4.032240e+01
   endloop
 endfacet
 facet normal  6.631227e-01  7.485107e-01 -0.000000e+00
   outer loop
     vertex  3.002996e+01  5.291270e+01  4.032240e+01
     vertex  3.002996e+01  5.291270e+01  6.000000e+01
     vertex  3.151318e+01  5.159868e+01  6.000000e+01
   endloop
 endfacet
 facet normal  6.631227e-01  7.485107e-01  0.000000e+00
   outer loop
     vertex  3.002996e+01  5.291270e+01  4.032240e+01
     vertex  3.151318e+01  5.159868e+01  6.000000e+01
     vertex  3.151318e+01  5.159868e+01  4.032240e+01
   endloop
 endfacet
 facet normal  8.229839e-01  5.680647e-01 -0.000000e+00
   outer loop
     vertex  2.890430e+01  5.454349e+01  4.032240e+01
     vertex  2.890430e+01  5.454349e+01  6.000000e+01
     vertex  3.002996e+01  5.291270e+01  6.000000e+01
   endloop
 endfacet
 facet normal  8.229839e-01  5.680647e-01  0.000000e+00
   outer loop
     vertex  2.890430e+01  5.454349e+01  4.032240e+01
     vertex  3.002996e+01  5.291270e+01  6.000000e+01
     vertex  3.002996e+01  5.291270e+01  4.032240e+01
   endloop
 endfacet
 facet normal  9.350162e-01  3.546049e-01  0.000000e+00
   outer loop
     vertex  2.820163e+01  5.639629e+01  4.032240e+01
     vertex  2.890430e+01  5.454349e+01  6.000000e+01
     vertex  2.890430e+01  5.454349e+01  4.032240e+01
   endloop
 endfacet
 facet normal  9.350162e-01  3.546049e-01 -0.000000e+00
   outer loop
     vertex  2.820163e+01  5.639629e+01  4.032240e+01
     vertex  2.820163e+01  5.639629e+01  6.000000e+01
     vertex  2.890430e+01  5.454349e+01  6.000000e+01
   endloop
 endfacet
 facet normal  9.927089e-01  1.205367e-01  0.000000e+00
   outer loop
     vertex  2.796278e+01  5.836340e+01  4.032240e+01
     vertex  2.820163e+01  5.639629e+01  6.000000e+01
     vertex  2.820163e+01  5.639629e+01  4.032240e+01
   endloop
 endfacet
 facet normal  9.927089e-01  1.205367e-01 -0.000000e+00
   outer loop
     vertex  2.796278e+01  5.836340e+01  4.032240e+01
     vertex  2.796278e+01  5.836340e+01  6.000000e+01
     vertex  2.820163e+01  5.639629e+01  6.000000e+01
   endloop
 endfacet
 facet normal  9.927089e-01 -1.205367e-01  0.000000e+00
   outer loop
     vertex  2.796278e+01  5.836340e+01  4.032240e+01
     vertex  2.820163e+01  6.033052e+01  6.000000e+01
     vertex  2.796278e+01  5.836340e+01  6.000000e+01
   endloop
 endfacet
 facet normal  9.927089e-01 -1.205367e-01  0.000000e+00
   outer loop
     vertex  2.820163e+01  6.033052e+01  4.032240e+01
     vertex  2.820163e+01  6.033052e+01  6.000000e+01
     vertex  2.796278e+01  5.836340e+01  4.032240e+01
   endloop
 endfacet
 facet normal  9.350162e-01 -3.546049e-01  0.000000e+00
   outer loop
     vertex  2.890430e+01  6.218331e+01  4.032240e+01
     vertex  2.820163e+01  6.033052e+01  6.000000e+01
     vertex  2.820163e+01  6.033052e+01  4.032240e+01
   endloop
 endfacet
 facet normal  9.350162e-01 -3.546049e-01  0.000000e+00
   outer loop
     vertex  2.890430e+01  6.218331e+01  4.032240e+01
     vertex  2.890430e+01  6.218331e+01  6.000000e+01
     vertex  2.820163e+01  6.033052e+01  6.000000e+01
   endloop
 endfacet
 facet normal  8.229839e-01 -5.680647e-01  0.000000e+00
   outer loop
     vertex  3.002996e+01  6.381411e+01  4.032240e+01
     vertex  2.890430e+01  6.218331e+01  6.000000e+01
     vertex  2.890430e+01  6.218331e+01  4.032240e+01
   endloop
 endfacet
 facet normal  8.229839e-01 -5.680647e-01  0.000000e+00
   outer loop
     vertex  3.002996e+01  6.381411e+01  4.032240e+01
     vertex  3.002996e+01  6.381411e+01  6.000000e+01
     vertex  2.890430e+01  6.218331e+01  6.000000e+01
   endloop
 endfacet
 facet normal  6.631227e-01 -7.485107e-01  0.000000e+00
   outer loop
     vertex  3.002996e+01  6.381411e+01  4.032240e+01
     vertex  3.151318e+01  6.512813e+01  6.000000e+01
     vertex  3.002996e+01  6.381411e+01  6.000000e+01
   endloop
 endfacet
 facet normal  6.631227e-01 -7.485107e-01  0.000000e+00
   outer loop
     vertex  3.151318e+01  6.512813e+01  4.032240e+01
     vertex  3.151318e+01  6.512813e+01  6.000000e+01
     vertex  3.002996e+01  6.381411e+01  4.032240e+01
   endloop
 endfacet
 facet normal  4.647232e-01 -8.854560e-01  0.000000e+00
   outer loop
     vertex  3.326777e+01  6.604900e+01  4.032240e+01
     vertex  3.151318e+01  6.512813e+01  6.000000e+01
     vertex  3.151318e+01  6.512813e+01  4.032240e+01
   endloop
 endfacet
 facet normal  4.647232e-01 -8.854560e-01  0.000000e+00
   outer loop
     vertex  3.326777e+01  6.604900e+01  4.032240e+01
     vertex  3.326777e+01  6.604900e+01  6.000000e+01
     vertex  3.151318e+01  6.512813e+01  6.000000e+01
   endloop
 endfacet
 facet normal  2.393157e-01 -9.709418e-01  0.000000e+00
   outer loop
     vertex  3.326777e+01  6.604900e+01  4.032240e+01
     vertex  3.519175e+01  6.652322e+01  6.000000e+01
     vertex  3.326777e+01  6.604900e+01  6.000000e+01
   endloop
 endfacet
 facet normal  2.393157e-01 -9.709418e-01  0.000000e+00
   outer loop
     vertex  3.519175e+01  6.652322e+01  4.032240e+01
     vertex  3.519175e+01  6.652322e+01  6.000000e+01
     vertex  3.326777e+01  6.604900e+01  4.032240e+01
   endloop
 endfacet
 facet normal  0.000000e+00 -1.000000e+00  0.000000e+00
   outer loop
     vertex  3.717331e+01  6.652322e+01  4.032240e+01
     vertex  3.519175e+01  6.652322e+01  6.000000e+01
     vertex  3.519175e+01  6.652322e+01  4.032240e+01
   endloop
 endfacet
 facet normal  0.000000e+00 -1.000000e+00  0.000000e+00
   outer loop
     vertex  3.717331e+01  6.652322e+01  4.032240e+01
     vertex  3.717331e+01  6.652322e+01  6.000000e+01
     vertex  3.519175e+01  6.652322e+01  6.000000e+01
   endloop
 endfacet
 facet normal -2.393157e-01 -9.709418e-01  0.000000e+00
   outer loop
     vertex  3.909730e+01  6.604900e+01  4.032240e+01
     vertex  3.717331e+01  6.652322e+01  6.000000e+01
     vertex  3.717331e+01  6.652322e+01  4.032240e+01
   endloop
 endfacet
 facet normal -2.393157e-01 -9.709418e-01  0.000000e+00
   outer loop
     vertex  3.909730e+01  6.604900e+01  4.032240e+01
     vertex  3.909730e+01  6.604900e+01  6.000000e+01
     vertex  3.717331e+01  6.652322e+01  6.000000e+01
   endloop
 endfacet
 facet normal -4.647232e-01 -8.854560e-01  0.000000e+00
   outer loop
     vertex  4.085188e+01  6.512813e+01  4.032240e+01
     vertex  3.909730e+01  6.604900e+01  6.000000e+01
     vertex  3.909730e+01  6.604900e+01  4.032240e+01
   endloop
 endfacet
 facet normal -4.647232e-01 -8.854560e-01  0.000000e+00
   outer loop
     vertex  4.085188e+01  6.512813e+01  4.032240e+01
     vertex  4.085188e+01  6.512813e+01  6.000000e+01
     vertex  3.909730e+01  6.604900e+01  6.000000e+01
   endloop
 endfacet
 facet normal -6.631227e-01 -7.485107e-01  0.000000e+00
   outer loop
     vertex  4.085188e+01  6.512813e+01  4.032240e+01
     vertex  4.233511e+01  6.381411e+01  6.000000e+01
     vertex  4.085188e+01  6.512813e+01  6.000000e+01
   endloop
 endfacet
 facet normal -6.631227e-01 -7.485107e-01  0.000000e+00
   outer loop
     vertex  4.233511e+01  6.381411e+01  4.032240e+01
     vertex  4.233511e+01  6.381411e+01  6.000000e+01
     vertex  4.085188e+01  6.512813e+01  4.032240e+01
   endloop
 endfacet
 facet normal -8.229839e-01 -5.680647e-01  0.000000e+00
   outer loop
     vertex  4.346076e+01  6.218331e+01  4.032240e+01
     vertex  4.346076e+01  6.218331e+01  6.000000e+01
     vertex  4.233511e+01  6.381411e+01  6.000000e+01
   endloop
 endfacet
 facet normal -8.229839e-01 -5.680647e-01  0.000000e+00
   outer loop
     vertex  4.346076e+01  6.218331e+01  4.032240e+01
     vertex  4.233511e+01  6.381411e+01  6.000000e+01
     vertex  4.233511e+01  6.381411e+01  4.032240e+01
   endloop
 endfacet
 facet normal -9.350162e-01 -3.546049e-01  0.000000e+00
   outer loop
     vertex  4.416343e+01  6.033052e+01  4.032240e+01
     vertex  4.416343e+01  6.033052e+01  6.000000e+01
     vertex  4.346076e+01  6.218331e+01  6.000000e+01
   endloop
 endfacet
 facet normal -9.350162e-01 -3.546049e-01  0.000000e+00
   outer loop
     vertex  4.416343e+01  6.033052e+01  4.032240e+01
     vertex  4.346076e+01  6.218331e+01  6.000000e+01
     vertex  4.346076e+01  6.218331e+01  4.032240e+01
   endloop
 endfacet
 facet normal -9.927089e-01 -1.205367e-01  0.000000e+00
   outer loop
     vertex  4.440229e+01  5.836340e+01  4.032240e+01
     vertex  4.416343e+01  6.033052e+01  6.000000e+01
     vertex  4.416343e+01  6.033052e+01  4.032240e+01
   endloop
 endfacet
 facet normal -9.927089e-01 -1.205367e-01  0.000000e+00
   outer loop
     vertex  4.440229e+01  5.836340e+01  4.032240e+01
     vertex  4.440229e+01  5.836340e+01  6.000000e+01
     vertex  4.416343e+01  6.033052e+01  6.000000e+01
   endloop
 endfacet
 facet normal  0.000000e+00  0.000000e+00  1.000000e+00
   outer loop
     vertex  3.519175e+01  6.652322e+01  4.032240e+01
     vertex  3.151318e+01  6.512813e+01  4.032240e+01
     vertex  3.002996e+01  6.381411e+01  4.032240e+01
   endloop
 endfacet
 facet normal  0.000000e+00  0.000000e+00  1.000000e+00
   outer loop
     vertex  3.519175e+01  6.652322e+01  4.032240e+01
     vertex  3.326777e+01  6.604900e+01  4.032240e+01
     vertex  3.151318e+01  6.512813e+01  4.032240e+01
   endloop
 endfacet
 facet normal  0.000000e+00  0.000000e+00  1.000000e+00
   outer loop
     vertex  2.796278e+01  5.836340e+01  4.032240e+01
     vertex  2.890430e+01  6.218331e+01  4.032240e+01
     vertex  2.820163e+01  6.033052e+01  4.032240e+01
   endloop
 endfacet
 facet normal  0.000000e+00  0.000000e+00  1.000000e+00
   outer loop
     vertex  2.820163e+01  5.639629e+01  4.032240e+01
     vertex  3.002996e+01  6.381411e+01  4.032240e+01
     vertex  2.890430e+01  6.218331e+01  4.032240e+01
   endloop
 endfacet
 facet normal  0.000000e+00 -0.000000e+00  1.000000e+00
   outer loop
     vertex  2.820163e+01  5.639629e+01  4.032240e+01
     vertex  2.890430e+01  6.218331e+01  4.032240e+01
     vertex  2.796278e+01  5.836340e+01  4.032240e+01
   endloop
 endfacet
 facet normal  0.000000e+00  0.000000e+00  1.000000e+00
   outer loop
     vertex  3.909730e+01  6.604900e+01  4.032240e+01
     vertex  3.717331e+01  6.652322e+01  4.032240e+01
     vertex  3.519175e+01  6.652322e+01  4.032240e+01
   endloop
 endfacet
 facet normal  0.000000e+00  0.000000e+00  1.000000e+00
   outer loop
     vertex  4.085188e+01  6.512813e+01  4.032240e+01
     vertex  3.909730e+01  6.604900e+01  4.032240e+01
     vertex  3.519175e+01  6.652322e+01  4.032240e+01
   endloop
 endfacet
 facet normal  0.000000e+00  0.000000e+00  1.000000e+00
   outer loop
     vertex  3.326777e+01  5.067780e+01  4.032240e+01
     vertex  3.002996e+01  5.291270e+01  4.032240e+01
     vertex  3.151318e+01  5.159868e+01  4.032240e+01
   endloop
 endfacet
 facet normal  0.000000e+00  0.000000e+00  1.000000e+00
   outer loop
     vertex  3.326777e+01  5.067780e+01  4.032240e+01
     vertex  2.890430e+01  5.454349e+01  4.032240e+01
     vertex  3.002996e+01  5.291270e+01  4.032240e+01
   endloop
 endfacet
 facet normal  0.000000e+00  0.000000e+00  1.000000e+00
   outer loop
     vertex  3.326777e+01  5.067780e+01  4.032240e+01
     vertex  2.820163e+01  5.639629e+01  4.032240e+01
     vertex  2.890430e+01  5.454349e+01  4.032240e+01
   endloop
 endfacet
 facet normal  0.000000e+00  0.000000e+00  1.000000e+00
   outer loop
     vertex  3.326777e+01  5.067780e+01  4.032240e+01
     vertex  4.233511e+01  6.381411e+01  4.032240e+01
     vertex  4.085188e+01  6.512813e+01  4.032240e+01
   endloop
 endfacet
 facet normal  0.000000e+00  0.000000e+00  1.000000e+00
   outer loop
     vertex  3.326777e+01  5.067780e+01  4.032240e+01
     vertex  4.346076e+01  6.218331e+01  4.032240e+01
     vertex  4.233511e+01  6.381411e+01  4.032240e+01
   endloop
 endfacet
 facet normal  0.000000e+00 -0.000000e+00  1.000000e+00
   outer loop
     vertex  3.326777e+01  5.067780e+01  4.032240e+01
     vertex  3.519175e+01  6.652322e+01  4.032240e+01
     vertex  3.002996e+01  6.381411e+01  4.032240e+01
   endloop
 endfacet
 facet normal  0.000000e+00  0.000000e+00  1.000000e+00
   outer loop
     vertex  3.326777e+01  5.067780e+01  4.032240e+01
     vertex  3.002996e+01  6.381411e+01  4.032240e+01
     vertex  2.820163e+01  5.639629e+01  4.032240e+01
   endloop
 endfacet
 facet normal  0.000000e+00  0.000000e+00  1.000000e+00
   outer loop
     vertex  3.326777e+01  5.067780e+01  4.032240e+01
     vertex  4.085188e+01  6.512813e+01  4.032240e+01
     vertex  3.519175e+01  6.652322e+01  4.032240e+01
   endloop
 endfacet
 facet normal  0.000000e+00 -0.000000e+00  1.000000e+00
   outer loop
     vertex  3.519175e+01  5.020358e+01  4.032240e+01
     vertex  4.346076e+01  6.218331e+01  4.032240e+01
     vertex  3.326777e+01  5.067780e+01  4.032240e+01
   endloop
 endfacet
 facet normal  0.000000e+00  0.000000e+00  1.000000e+00
   outer loop
     vertex  3.717331e+01  5.020358e+01  4.032240e+01
     vertex  4.416343e+01  6.033052e+01  4.032240e+01
     vertex  4.346076e+01  6.218331e+01  4.032240e+01
   endloop
 endfacet
 facet normal  0.000000e+00 -0.000000e+00  1.000000e+00
   outer loop
     vertex  3.717331e+01  5.020358e+01  4.032240e+01
     vertex  4.346076e+01  6.218331e+01  4.032240e+01
     vertex  3.519175e+01  5.020358e+01  4.032240e+01
   endloop
 endfacet
 facet normal  0.000000e+00  0.000000e+00  1.000000e+00
   outer loop
     vertex  4.346076e+01  5.454349e+01  4.032240e+01
     vertex  4.416343e+01  5.639629e+01  4.032240e+01
     vertex  4.440229e+01  5.836340e+01  4.032240e+01
   endloop
 endfacet
 facet normal  0.000000e+00  0.000000e+00  1.000000e+00
   outer loop
     vertex  4.346076e+01  5.454349e+01  4.032240e+01
     vertex  4.440229e+01  5.836340e+01  4.032240e+01
     vertex  4.416343e+01  6.033052e+01  4.032240e+01
   endloop
 endfacet
 facet normal  0.000000e+00  0.000000e+00  1.000000e+00
   outer loop
     vertex  4.085188e+01  5.159868e+01  4.032240e+01
     vertex  3.717331e+01  5.020358e+01  4.032240e+01
     vertex  3.909730e+01  5.067780e+01  4.032240e+01
   endloop
 endfacet
 facet normal  0.000000e+00 -0.000000e+00  1.000000e+00
   outer loop
     vertex  4.233511e+01  5.291270e+01  4.032240e+01
     vertex  4.416343e+01  6.033052e+01  4.032240e+01
     vertex  3.717331e+01  5.020358e+01  4.032240e+01
   endloop
 endfacet
 facet normal  0.000000e+00  0.000000e+00  1.000000e+00
   outer loop
     vertex  4.233511e+01  5.291270e+01  4.032240e+01
     vertex  4.346076e+01  5.454349e+01  4.032240e+01
     vertex  4.416343e+01  6.033052e+01  4.032240e+01
   endloop
 endfacet
 facet normal  0.000000e+00  0.000000e+00  1.000000e+00
   outer loop
     vertex  4.233511e+01  5.291270e+01  4.032240e+01
     vertex  3.717331e+01  5.020358e+01  4.032240e+01
     vertex  4.085188e+01  5.159868e+01  4.032240e+01
   endloop
 endfacet
endsolid
