solid 
 facet normal -1.000000e+00  0.000000e+00  0.000000e+00
   outer loop
     vertex  0.000000e+00  0.000000e+00  0.000000e+00
     vertex  0.000000e+00  1.062249e+02  6.000000e+01
     vertex  0.000000e+00  1.062249e+02  0.000000e+00
   endloop
 endfacet
 facet normal -1.000000e+00  0.000000e+00  0.000000e+00
   outer loop
     vertex  0.000000e+00  0.000000e+00  6.000000e+01
     vertex  0.000000e+00  1.062249e+02  6.000000e+01
     vertex  0.000000e+00  0.000000e+00  0.000000e+00
   endloop
 endfacet
 facet normal  0.000000e+00 -1.000000e+00 -0.000000e+00
   outer loop
     vertex  1.291055e+02  0.000000e+00  6.000000e+01
     vertex  0.000000e+00  0.000000e+00  0.000000e+00
     vertex  1.291055e+02  0.000000e+00  0.000000e+00
   endloop
 endfacet
 facet normal -0.000000e+00 -1.000000e+00  0.000000e+00
   outer loop
     vertex  1.291055e+02  0.000000e+00  6.000000e+01
     vertex  0.000000e+00  0.000000e+00  6.000000e+01
     vertex  0.000000e+00  0.000000e+00  0.000000e+00
   endloop
 endfacet
 facet normal  0.000000e+00  0.000000e+00  1.000000e+00
   outer loop
     vertex  9.644411e+01  4.315693e+01  6.000000e+01
     vertex  0.000000e+00  1.062249e+02  6.000000e+01
     vertex  0.000000e+00  0.000000e+00  6.000000e+01
   endloop
 endfacet
 facet normal  0.000000e+00  0.000000e+00  1.000000e+00
   outer loop
     vertex  9.644411e+01  4.315693e+01  6.000000e+01
     vertex  0.000000e+00  0.000000e+00  6.000000e+01
     vertex  1.291055e+02  0.000000e+00  6.000000e+01
   endloop
 endfacet
 facet normal  0.000000e+00  0.000000e+00  1.000000e+00
   outer loop
     vertex  1.078842e+02  4.910034e+01  6.000000e+01
     vertex  9.644411e+01  4.315693e+01  6.000000e+01
     vertex  1.291055e+02  0.000000e+00  6.000000e+01
   endloop
 endfacet
 facet normal  0.000000e+00  0.000000e+00  1.000000e+00
   outer loop
     vertex  1.291055e+02  1.062249e+02  6.000000e+01
     vertex  9.644411e+01  4.315693e+01  6.000000e+01
     vertex  1.078842e+02  4.910034e+01  6.000000e+01
   endloop
 endfacet
 facet normal  0.000000e+00  0.000000e+00  1.000000e+00
   outer loop
     vertex  1.291055e+02  1.062249e+02  6.000000e+01
     vertex  0.000000e+00  1.062249e+02  6.000000e+01
     vertex  9.644411e+01  4.315693e+01  6.000000e+01
   endloop
 endfacet
 facet normal  0.000000e+00  0.000000e+00  1.000000e+00
   outer loop
     vertex  1.291055e+02  1.062249e+02  6.000000e+01
     vertex  1.078842e+02  4.910034e+01  6.000000e+01
     vertex  1.291055e+02  0.000000e+00  6.000000e+01
   endloop
 endfacet
 facet normal  0.000000e+00  1.000000e+00  0.000000e+00
   outer loop
     vertex  1.291055e+02  1.062249e+02  6.000000e+01
     vertex  1.291055e+02  1.062249e+02  0.000000e+00
     vertex  0.000000e+00  1.062249e+02  0.000000e+00
   endloop
 endfacet
 facet normal  0.000000e+00  1.000000e+00  0.000000e+00
   outer loop
     vertex  1.291055e+02  1.062249e+02  6.000000e+01
     vertex  0.000000e+00  1.062249e+02  0.000000e+00
     vertex  0.000000e+00  1.062249e+02  6.000000e+01
   endloop
 endfacet
 facet normal -0.000000e+00  0.000000e+00 -1.000000e+00
   outer loop
     vertex  1.291055e+02  1.062249e+02  0.000000e+00
     vertex  0.000000e+00  0.000000e+00  0.000000e+00
     vertex  0.000000e+00  1.062249e+02  0.000000e+00
   endloop
 endfacet
 facet normal  0.000000e+00 -0.000000e+00 -1.000000e+00
   outer loop
     vertex  1.291055e+02  1.062249e+02  0.000000e+00
     vertex  1.291055e+02  0.000000e+00  0.000000e+00
     vertex  0.000000e+00  0.000000e+00  0.000000e+00
   endloop
 endfacet
 facet normal  1.000000e+00  0.000000e+00  0.000000e+00
   outer loop
     vertex  1.291055e+02  0.000000e+00  0.000000e+00
     vertex  1.291055e+02  1.062249e+02  0.000000e+00
     vertex  1.291055e+02  1.062249e+02  6.000000e+01
   endloop
 endfacet
 facet normal  1.000000e+00 -0.000000e+00  0.000000e+00
   outer loop
     vertex  1.291055e+02  0.000000e+00  6.000000e+01
     vertex  1.291055e+02  0.000000e+00  0.000000e+00
     vertex  1.291055e+02  1.062249e+02  6.000000e+01
   endloop
 endfacet
 facet normal -4.610219e-01  8.873888e-01  0.000000e+00
   outer loop
     vertex  1.078842e+02  4.910034e+01  4.524730e+01
     vertex  9.644411e+01  4.315693e+01  6.000000e+01
     vertex  1.078842e+02  4.910034e+01  6.000000e+01
   endloop
 endfacet
 facet normal -4.610219e-01  8.873888e-01  0.000000e+00
   outer loop
     vertex  9.644411e+01  4.315693e+01  4.524730e+01
     vertex  9.644411e+01  4.315693e+01  6.000000e+01
     vertex  1.078842e+02  4.910034e+01  4.524730e+01
   endloop
 endfacet
 facet normal  5.094289e-02 -9.805641e-02 -9.938761e-01
   outer loop
     vertex  8.808517e+01  6.493927e+01  5.742249e+01
     vertex  1.078842e+02  4.910034e+01  6.000000e+01
     vertex  9.644411e+01  4.315693e+01  6.000000e+01
   endloop
 endfacet
 facet normal  5.094289e-02 -9.805641e-02 -9.938761e-01
   outer loop
     vertex  9.486730e+01  6.846277e+01  5.742249e+01
     vertex  1.078842e+02  4.910034e+01  6.000000e+01
     vertex  8.808517e+01  6.493927e+01  5.742249e+01
   endloop
 endfacet
 facet normal  9.336166e-01  3.582736e-01  0.000000e+00
   outer loop
     vertex  8.808517e+01  6.493927e+01  5.742249e+01
     vertex  9.644411e+01  4.315693e+01  6.000000e+01
     vertex  9.644411e+01  4.315693e+01  4.524730e+01
   endloop
 endfacet
 facet normal  9.336166e-01  3.582736e-01 -0.000000e+00
   outer loop
     vertex  8.808517e+01  6.493927e+01  4.782481e+01
     vertex  8.808517e+01  6.493927e+01  5.742249e+01
     vertex  9.644411e+01  4.315693e+01  4.524730e+01
   endloop
 endfacet
 facet normal  5.094289e-02 -9.805641e-02  9.938761e-01
   outer loop
     vertex  9.486730e+01  6.846277e+01  4.782481e+01
     vertex  9.644411e+01  4.315693e+01  4.524730e+01
     vertex  1.078842e+02  4.910034e+01  4.524730e+01
   endloop
 endfacet
 facet normal  5.094289e-02 -9.805641e-02  9.938761e-01
   outer loop
     vertex  9.486730e+01  6.846277e+01  4.782481e+01
     vertex  8.808517e+01  6.493927e+01  4.782481e+01
     vertex  9.644411e+01  4.315693e+01  4.524730e+01
   endloop
 endfacet
 facet normal -8.298962e-01 -5.579178e-01  0.000000e+00
   outer loop
     vertex  9.486730e+01  6.846277e+01  5.742249e+01
     vertex  1.078842e+02  4.910034e+01  4.524730e+01
     vertex  1.078842e+02  4.910034e+01  6.000000e+01
   endloop
 endfacet
 facet normal -8.298962e-01 -5.579178e-01  0.000000e+00
   outer loop
     vertex  9.486730e+01  6.846277e+01  4.782481e+01
     vertex  1.078842e+02  4.910034e+01  4.524730e+01
     vertex  9.486730e+01  6.846277e+01  5.742249e+01
   endloop
 endfacet
 facet normal  4.610219e-01 -8.873888e-01  0.000000e+00
   outer loop
     vertex  8.808517e+01  6.493927e+01  4.782481e+01
     vertex  9.486730e+01  6.846277e+01  5.742249e+01
     vertex  8.808517e+01  6.493927e+01  5.742249e+01
   endloop
 endfacet
 facet normal  4.610219e-01 -8.873888e-01  0.000000e+00
   outer loop
     vertex  8.808517e+01  6.493927e+01  4.782481e+01
     vertex  9.486730e+01  6.846277e+01  4.782481e+01
     vertex  9.486730e+01  6.846277e+01  5.742249e+01
   endloop
 endfacet
endsolid
