solid 
 facet normal -1.000000e+00  0.000000e+00  0.000000e+00
   outer loop
     vertex  0.000000e+00  0.000000e+00  6.000000e+01
     vertex  0.000000e+00  8.548483e+01  0.000000e+00
     vertex  0.000000e+00  0.000000e+00  0.000000e+00
   endloop
 endfacet
 facet normal -1.000000e+00  0.000000e+00  0.000000e+00
   outer loop
     vertex  0.000000e+00  0.000000e+00  6.000000e+01
     vertex  0.000000e+00  8.548483e+01  6.000000e+01
     vertex  0.000000e+00  8.548483e+01  0.000000e+00
   endloop
 endfacet
 facet normal  0.000000e+00 -1.000000e+00 -0.000000e+00
   outer loop
     vertex  1.152632e+02  0.000000e+00  6.000000e+01
     vertex  0.000000e+00  0.000000e+00  0.000000e+00
     vertex  1.152632e+02  0.000000e+00  0.000000e+00
   endloop
 endfacet
 facet normal -0.000000e+00 -1.000000e+00  0.000000e+00
   outer loop
     vertex  1.152632e+02  0.000000e+00  6.000000e+01
     vertex  0.000000e+00  0.000000e+00  6.000000e+01
     vertex  0.000000e+00  0.000000e+00  0.000000e+00
   endloop
 endfacet
 facet normal  0.000000e+00  0.000000e+00  1.000000e+00
   outer loop
     vertex  6.633811e+01  3.836941e+01  6.000000e+01
     vertex  0.000000e+00  8.548483e+01  6.000000e+01
     vertex  0.000000e+00  0.000000e+00  6.000000e+01
   endloop
 endfacet
 facet normal  0.000000e+00  0.000000e+00  1.000000e+00
   outer loop
     vertex  1.152632e+02  0.000000e+00  6.000000e+01
     vertex  6.633811e+01  3.836941e+01  6.000000e+01
     vertex  0.000000e+00  0.000000e+00  6.000000e+01
   endloop
 endfacet
 facet normal  0.000000e+00  0.000000e+00  1.000000e+00
   outer loop
     vertex  7.166955e+01  4.884675e+01  6.000000e+01
     vertex  0.000000e+00  8.548483e+01  6.000000e+01
     vertex  6.633811e+01  3.836941e+01  6.000000e+01
   endloop
 endfacet
 facet normal  0.000000e+00  0.000000e+00  1.000000e+00
   outer loop
     vertex  7.166955e+01  4.884675e+01  6.000000e+01
     vertex  6.633811e+01  3.836941e+01  6.000000e+01
     vertex  1.152632e+02  0.000000e+00  6.000000e+01
   endloop
 endfacet
 facet normal  0.000000e+00  0.000000e+00  1.000000e+00
   outer loop
     vertex  1.152632e+02  8.548483e+01  6.000000e+01
     vertex  0.000000e+00  8.548483e+01  6.000000e+01
     vertex  7.166955e+01  4.884675e+01  6.000000e+01
   endloop
 endfacet
 facet normal  0.000000e+00  0.000000e+00  1.000000e+00
   outer loop
     vertex  1.152632e+02  8.548483e+01  6.000000e+01
     vertex  7.166955e+01  4.884675e+01  6.000000e+01
     vertex  1.152632e+02  0.000000e+00  6.000000e+01
   endloop
 endfacet
 facet normal  0.000000e+00  1.000000e+00  0.000000e+00
   outer loop
     vertex  1.152632e+02  8.548483e+01  6.000000e+01
     vertex  1.152632e+02  8.548483e+01  0.000000e+00
     vertex  0.000000e+00  8.548483e+01  0.000000e+00
   endloop
 endfacet
 facet normal  0.000000e+00  1.000000e+00  0.000000e+00
   outer loop
     vertex  1.152632e+02  8.548483e+01  6.000000e+01
     vertex  0.000000e+00  8.548483e+01  0.000000e+00
     vertex  0.000000e+00  8.548483e+01  6.000000e+01
   endloop
 endfacet
 facet normal -0.000000e+00  0.000000e+00 -1.000000e+00
   outer loop
     vertex  1.152632e+02  8.548483e+01  0.000000e+00
     vertex  0.000000e+00  0.000000e+00  0.000000e+00
     vertex  0.000000e+00  8.548483e+01  0.000000e+00
   endloop
 endfacet
 facet normal  0.000000e+00 -0.000000e+00 -1.000000e+00
   outer loop
     vertex  1.152632e+02  8.548483e+01  0.000000e+00
     vertex  1.152632e+02  0.000000e+00  0.000000e+00
     vertex  0.000000e+00  0.000000e+00  0.000000e+00
   endloop
 endfacet
 facet normal  1.000000e+00  0.000000e+00  0.000000e+00
   outer loop
     vertex  1.152632e+02  0.000000e+00  6.000000e+01
     vertex  1.152632e+02  0.000000e+00  0.000000e+00
     vertex  1.152632e+02  8.548483e+01  0.000000e+00
   endloop
 endfacet
 facet normal  1.000000e+00 -0.000000e+00  0.000000e+00
   outer loop
     vertex  1.152632e+02  0.000000e+00  6.000000e+01
     vertex  1.152632e+02  8.548483e+01  0.000000e+00
     vertex  1.152632e+02  8.548483e+01  6.000000e+01
   endloop
 endfacet
 facet normal -8.912480e-01  4.535162e-01  0.000000e+00
   outer loop
     vertex  6.633811e+01  3.836941e+01  4.806085e+01
     vertex  6.633811e+01  3.836941e+01  6.000000e+01
     vertex  7.166955e+01  4.884675e+01  6.000000e+01
   endloop
 endfacet
 facet normal -8.912480e-01  4.535162e-01  0.000000e+00
   outer loop
     vertex  6.633811e+01  3.836941e+01  4.806085e+01
     vertex  7.166955e+01  4.884675e+01  6.000000e+01
     vertex  7.166955e+01  4.884675e+01  4.806085e+01
   endloop
 endfacet
 facet normal  1.745048e-01 -8.879767e-02 -9.806442e-01
   outer loop
     vertex  5.512439e+01  5.538111e+01  5.646411e+01
     vertex  7.166955e+01  4.884675e+01  6.000000e+01
     vertex  6.633811e+01  3.836941e+01  6.000000e+01
   endloop
 endfacet
 facet normal  1.745048e-01 -8.879767e-02 -9.806442e-01
   outer loop
     vertex  5.512439e+01  5.538111e+01  5.646411e+01
     vertex  6.633811e+01  3.836941e+01  6.000000e+01
     vertex  5.131654e+01  4.789794e+01  5.646411e+01
   endloop
 endfacet
 facet normal  5.356489e-01  8.444408e-01  0.000000e+00
   outer loop
     vertex  5.131654e+01  4.789794e+01  5.646411e+01
     vertex  6.633811e+01  3.836941e+01  6.000000e+01
     vertex  6.633811e+01  3.836941e+01  4.806085e+01
   endloop
 endfacet
 facet normal  5.356489e-01  8.444408e-01 -0.000000e+00
   outer loop
     vertex  5.131654e+01  4.789794e+01  5.159674e+01
     vertex  5.131654e+01  4.789794e+01  5.646411e+01
     vertex  6.633811e+01  3.836941e+01  4.806085e+01
   endloop
 endfacet
 facet normal  1.745048e-01 -8.879767e-02  9.806442e-01
   outer loop
     vertex  5.512439e+01  5.538111e+01  5.159674e+01
     vertex  6.633811e+01  3.836941e+01  4.806085e+01
     vertex  7.166955e+01  4.884675e+01  4.806085e+01
   endloop
 endfacet
 facet normal  1.745048e-01 -8.879767e-02  9.806442e-01
   outer loop
     vertex  5.512439e+01  5.538111e+01  5.159674e+01
     vertex  5.131654e+01  4.789794e+01  5.159674e+01
     vertex  6.633811e+01  3.836941e+01  4.806085e+01
   endloop
 endfacet
 facet normal -3.673306e-01 -9.300905e-01  0.000000e+00
   outer loop
     vertex  5.512439e+01  5.538111e+01  5.159674e+01
     vertex  7.166955e+01  4.884675e+01  4.806085e+01
     vertex  7.166955e+01  4.884675e+01  6.000000e+01
   endloop
 endfacet
 facet normal -3.673306e-01 -9.300905e-01  0.000000e+00
   outer loop
     vertex  5.512439e+01  5.538111e+01  5.159674e+01
     vertex  7.166955e+01  4.884675e+01  6.000000e+01
     vertex  5.512439e+01  5.538111e+01  5.646411e+01
   endloop
 endfacet
 facet normal  8.912480e-01 -4.535162e-01  0.000000e+00
   outer loop
     vertex  5.131654e+01  4.789794e+01  5.646411e+01
     vertex  5.512439e+01  5.538111e+01  5.159674e+01
     vertex  5.512439e+01  5.538111e+01  5.646411e+01
   endloop
 endfacet
 facet normal  8.912480e-01 -4.535162e-01  0.000000e+00
   outer loop
     vertex  5.131654e+01  4.789794e+01  5.159674e+01
     vertex  5.512439e+01  5.538111e+01  5.159674e+01
     vertex  5.131654e+01  4.789794e+01  5.646411e+01
   endloop
 endfacet
endsolid
