solid 
 facet normal -1.000000e+00  0.000000e+00  0.000000e+00
   outer loop
     vertex  0.000000e+00  0.000000e+00  6.000000e+01
     vertex  0.000000e+00  1.011411e+02  0.000000e+00
     vertex  0.000000e+00  0.000000e+00  0.000000e+00
   endloop
 endfacet
 facet normal -1.000000e+00  0.000000e+00  0.000000e+00
   outer loop
     vertex  0.000000e+00  0.000000e+00  6.000000e+01
     vertex  0.000000e+00  1.011411e+02  6.000000e+01
     vertex  0.000000e+00  1.011411e+02  0.000000e+00
   endloop
 endfacet
 facet normal  0.000000e+00 -1.000000e+00 -0.000000e+00
   outer loop
     vertex  1.358196e+02  0.000000e+00  6.000000e+01
     vertex  0.000000e+00  0.000000e+00  0.000000e+00
     vertex  1.358196e+02  0.000000e+00  0.000000e+00
   endloop
 endfacet
 facet normal -0.000000e+00 -1.000000e+00  0.000000e+00
   outer loop
     vertex  1.358196e+02  0.000000e+00  6.000000e+01
     vertex  0.000000e+00  0.000000e+00  6.000000e+01
     vertex  0.000000e+00  0.000000e+00  0.000000e+00
   endloop
 endfacet
 facet normal  0.000000e+00  0.000000e+00  1.000000e+00
   outer loop
     vertex  9.052072e+01  6.474285e+01  6.000000e+01
     vertex  0.000000e+00  0.000000e+00  6.000000e+01
     vertex  1.358196e+02  0.000000e+00  6.000000e+01
   endloop
 endfacet
 facet normal  0.000000e+00  0.000000e+00  1.000000e+00
   outer loop
     vertex  8.399798e+01  7.846632e+01  6.000000e+01
     vertex  0.000000e+00  1.011411e+02  6.000000e+01
     vertex  0.000000e+00  0.000000e+00  6.000000e+01
   endloop
 endfacet
 facet normal  0.000000e+00  0.000000e+00  1.000000e+00
   outer loop
     vertex  8.399798e+01  7.846632e+01  6.000000e+01
     vertex  0.000000e+00  0.000000e+00  6.000000e+01
     vertex  9.052072e+01  6.474285e+01  6.000000e+01
   endloop
 endfacet
 facet normal  0.000000e+00  0.000000e+00  1.000000e+00
   outer loop
     vertex  1.358196e+02  1.011411e+02  6.000000e+01
     vertex  8.399798e+01  7.846632e+01  6.000000e+01
     vertex  9.052072e+01  6.474285e+01  6.000000e+01
   endloop
 endfacet
 facet normal  0.000000e+00  0.000000e+00  1.000000e+00
   outer loop
     vertex  1.358196e+02  1.011411e+02  6.000000e+01
     vertex  9.052072e+01  6.474285e+01  6.000000e+01
     vertex  1.358196e+02  0.000000e+00  6.000000e+01
   endloop
 endfacet
 facet normal  0.000000e+00  0.000000e+00  1.000000e+00
   outer loop
     vertex  1.358196e+02  1.011411e+02  6.000000e+01
     vertex  0.000000e+00  1.011411e+02  6.000000e+01
     vertex  8.399798e+01  7.846632e+01  6.000000e+01
   endloop
 endfacet
 facet normal  0.000000e+00  1.000000e+00  0.000000e+00
   outer loop
     vertex  1.358196e+02  1.011411e+02  6.000000e+01
     vertex  1.358196e+02  1.011411e+02  0.000000e+00
     vertex  0.000000e+00  1.011411e+02  0.000000e+00
   endloop
 endfacet
 facet normal  0.000000e+00  1.000000e+00  0.000000e+00
   outer loop
     vertex  1.358196e+02  1.011411e+02  6.000000e+01
     vertex  0.000000e+00  1.011411e+02  0.000000e+00
     vertex  0.000000e+00  1.011411e+02  6.000000e+01
   endloop
 endfacet
 facet normal -0.000000e+00  0.000000e+00 -1.000000e+00
   outer loop
     vertex  1.358196e+02  1.011411e+02  0.000000e+00
     vertex  0.000000e+00  0.000000e+00  0.000000e+00
     vertex  0.000000e+00  1.011411e+02  0.000000e+00
   endloop
 endfacet
 facet normal  0.000000e+00 -0.000000e+00 -1.000000e+00
   outer loop
     vertex  1.358196e+02  1.011411e+02  0.000000e+00
     vertex  1.358196e+02  0.000000e+00  0.000000e+00
     vertex  0.000000e+00  0.000000e+00  0.000000e+00
   endloop
 endfacet
 facet normal  1.000000e+00  0.000000e+00  0.000000e+00
   outer loop
     vertex  1.358196e+02  0.000000e+00  6.000000e+01
     vertex  1.358196e+02  0.000000e+00  0.000000e+00
     vertex  1.358196e+02  1.011411e+02  0.000000e+00
   endloop
 endfacet
 facet normal  1.000000e+00 -0.000000e+00  0.000000e+00
   outer loop
     vertex  1.358196e+02  0.000000e+00  6.000000e+01
     vertex  1.358196e+02  1.011411e+02  0.000000e+00
     vertex  1.358196e+02  1.011411e+02  6.000000e+01
   endloop
 endfacet
 facet normal -9.031730e-01 -4.292767e-01  0.000000e+00
   outer loop
     vertex  8.399798e+01  7.846632e+01  3.672463e+01
     vertex  9.052072e+01  6.474285e+01  6.000000e+01
     vertex  8.399798e+01  7.846632e+01  6.000000e+01
   endloop
 endfacet
 facet normal -9.031730e-01 -4.292767e-01  0.000000e+00
   outer loop
     vertex  9.052072e+01  6.474285e+01  3.672463e+01
     vertex  9.052072e+01  6.474285e+01  6.000000e+01
     vertex  8.399798e+01  7.846632e+01  3.672463e+01
   endloop
 endfacet
 facet normal  2.403698e-01  1.142474e-01 -9.639346e-01
   outer loop
     vertex  7.553775e+01  6.254107e+01  5.600284e+01
     vertex  8.399798e+01  7.846632e+01  6.000000e+01
     vertex  9.052072e+01  6.474285e+01  6.000000e+01
   endloop
 endfacet
 facet normal  2.403698e-01  1.142474e-01 -9.639346e-01
   outer loop
     vertex  7.282977e+01  6.823849e+01  5.600284e+01
     vertex  8.399798e+01  7.846632e+01  6.000000e+01
     vertex  7.553775e+01  6.254107e+01  5.600284e+01
   endloop
 endfacet
 facet normal -1.453906e-01  9.893743e-01  0.000000e+00
   outer loop
     vertex  7.553775e+01  6.254107e+01  4.072179e+01
     vertex  9.052072e+01  6.474285e+01  6.000000e+01
     vertex  9.052072e+01  6.474285e+01  3.672463e+01
   endloop
 endfacet
 facet normal -1.453906e-01  9.893743e-01  0.000000e+00
   outer loop
     vertex  7.553775e+01  6.254107e+01  4.072179e+01
     vertex  7.553775e+01  6.254107e+01  5.600284e+01
     vertex  9.052072e+01  6.474285e+01  6.000000e+01
   endloop
 endfacet
 facet normal  2.403698e-01  1.142474e-01  9.639346e-01
   outer loop
     vertex  7.553775e+01  6.254107e+01  4.072179e+01
     vertex  9.052072e+01  6.474285e+01  3.672463e+01
     vertex  8.399798e+01  7.846632e+01  3.672463e+01
   endloop
 endfacet
 facet normal  2.403698e-01  1.142474e-01  9.639346e-01
   outer loop
     vertex  7.282977e+01  6.823849e+01  4.072179e+01
     vertex  7.553775e+01  6.254107e+01  4.072179e+01
     vertex  8.399798e+01  7.846632e+01  3.672463e+01
   endloop
 endfacet
 facet normal  6.753770e-01 -7.374727e-01  0.000000e+00
   outer loop
     vertex  7.282977e+01  6.823849e+01  4.072179e+01
     vertex  8.399798e+01  7.846632e+01  3.672463e+01
     vertex  8.399798e+01  7.846632e+01  6.000000e+01
   endloop
 endfacet
 facet normal  6.753770e-01 -7.374727e-01  0.000000e+00
   outer loop
     vertex  7.282977e+01  6.823849e+01  4.072179e+01
     vertex  8.399798e+01  7.846632e+01  6.000000e+01
     vertex  7.282977e+01  6.823849e+01  5.600284e+01
   endloop
 endfacet
 facet normal  9.031730e-01  4.292767e-01 -0.000000e+00
   outer loop
     vertex  7.553775e+01  6.254107e+01  4.072179e+01
     vertex  7.282977e+01  6.823849e+01  5.600284e+01
     vertex  7.553775e+01  6.254107e+01  5.600284e+01
   endloop
 endfacet
 facet normal  9.031730e-01  4.292767e-01  0.000000e+00
   outer loop
     vertex  7.553775e+01  6.254107e+01  4.072179e+01
     vertex  7.282977e+01  6.823849e+01  4.072179e+01
     vertex  7.282977e+01  6.823849e+01  5.600284e+01
   endloop
 endfacet
endsolid
