solid 
 facet normal -1.000000e+00  0.000000e+00  0.000000e+00
   outer loop
     vertex  0.000000e+00  0.000000e+00  6.000000e+01
     vertex  0.000000e+00  8.666519e+01  0.000000e+00
     vertex  0.000000e+00  0.000000e+00  0.000000e+00
   endloop
 endfacet
 facet normal -1.000000e+00  0.000000e+00  0.000000e+00
   outer loop
     vertex  0.000000e+00  0.000000e+00  6.000000e+01
     vertex  0.000000e+00  8.666519e+01  6.000000e+01
     vertex  0.000000e+00  8.666519e+01  0.000000e+00
   endloop
 endfacet
 facet normal  0.000000e+00 -1.000000e+00 -0.000000e+00
   outer loop
     vertex  1.120106e+02  0.000000e+00  6.000000e+01
     vertex  0.000000e+00  0.000000e+00  0.000000e+00
     vertex  1.120106e+02  0.000000e+00  0.000000e+00
   endloop
 endfacet
 facet normal -0.000000e+00 -1.000000e+00  0.000000e+00
   outer loop
     vertex  1.120106e+02  0.000000e+00  6.000000e+01
     vertex  0.000000e+00  0.000000e+00  6.000000e+01
     vertex  0.000000e+00  0.000000e+00  0.000000e+00
   endloop
 endfacet
 facet normal  0.000000e+00  0.000000e+00  1.000000e+00
   outer loop
     vertex  5.019047e+01  4.912941e+01  6.000000e+01
     vertex  0.000000e+00  8.666519e+01  6.000000e+01
     vertex  0.000000e+00  0.000000e+00  6.000000e+01
   endloop
 endfacet
 facet normal  0.000000e+00  0.000000e+00  1.000000e+00
   outer loop
     vertex  5.019047e+01  4.912941e+01  6.000000e+01
     vertex  0.000000e+00  0.000000e+00  6.000000e+01
     vertex  5.405369e+01  3.364372e+01  6.000000e+01
   endloop
 endfacet
 facet normal  0.000000e+00  0.000000e+00  1.000000e+00
   outer loop
     vertex  1.120106e+02  0.000000e+00  6.000000e+01
     vertex  5.405369e+01  3.364372e+01  6.000000e+01
     vertex  0.000000e+00  0.000000e+00  6.000000e+01
   endloop
 endfacet
 facet normal  0.000000e+00  0.000000e+00  1.000000e+00
   outer loop
     vertex  1.120106e+02  8.666519e+01  6.000000e+01
     vertex  5.019047e+01  4.912941e+01  6.000000e+01
     vertex  5.405369e+01  3.364372e+01  6.000000e+01
   endloop
 endfacet
 facet normal  0.000000e+00  0.000000e+00  1.000000e+00
   outer loop
     vertex  1.120106e+02  8.666519e+01  6.000000e+01
     vertex  0.000000e+00  8.666519e+01  6.000000e+01
     vertex  5.019047e+01  4.912941e+01  6.000000e+01
   endloop
 endfacet
 facet normal  0.000000e+00  0.000000e+00  1.000000e+00
   outer loop
     vertex  1.120106e+02  8.666519e+01  6.000000e+01
     vertex  5.405369e+01  3.364372e+01  6.000000e+01
     vertex  1.120106e+02  0.000000e+00  6.000000e+01
   endloop
 endfacet
 facet normal  0.000000e+00  1.000000e+00  0.000000e+00
   outer loop
     vertex  1.120106e+02  8.666519e+01  6.000000e+01
     vertex  1.120106e+02  8.666519e+01  0.000000e+00
     vertex  0.000000e+00  8.666519e+01  0.000000e+00
   endloop
 endfacet
 facet normal  0.000000e+00  1.000000e+00  0.000000e+00
   outer loop
     vertex  1.120106e+02  8.666519e+01  6.000000e+01
     vertex  0.000000e+00  8.666519e+01  0.000000e+00
     vertex  0.000000e+00  8.666519e+01  6.000000e+01
   endloop
 endfacet
 facet normal  0.000000e+00  0.000000e+00 -1.000000e+00
   outer loop
     vertex  1.120106e+02  0.000000e+00  0.000000e+00
     vertex  0.000000e+00  0.000000e+00  0.000000e+00
     vertex  0.000000e+00  8.666519e+01  0.000000e+00
   endloop
 endfacet
 facet normal -0.000000e+00 -0.000000e+00 -1.000000e+00
   outer loop
     vertex  1.120106e+02  8.666519e+01  0.000000e+00
     vertex  1.120106e+02  0.000000e+00  0.000000e+00
     vertex  0.000000e+00  8.666519e+01  0.000000e+00
   endloop
 endfacet
 facet normal  1.000000e+00  0.000000e+00  0.000000e+00
   outer loop
     vertex  1.120106e+02  0.000000e+00  6.000000e+01
     vertex  1.120106e+02  0.000000e+00  0.000000e+00
     vertex  1.120106e+02  8.666519e+01  0.000000e+00
   endloop
 endfacet
 facet normal  1.000000e+00 -0.000000e+00  0.000000e+00
   outer loop
     vertex  1.120106e+02  0.000000e+00  6.000000e+01
     vertex  1.120106e+02  8.666519e+01  0.000000e+00
     vertex  1.120106e+02  8.666519e+01  6.000000e+01
   endloop
 endfacet
 facet normal  9.702633e-01  2.420517e-01 -0.000000e+00
   outer loop
     vertex  5.019047e+01  4.912941e+01  4.952014e+01
     vertex  5.019047e+01  4.912941e+01  6.000000e+01
     vertex  5.405369e+01  3.364372e+01  6.000000e+01
   endloop
 endfacet
 facet normal  9.702633e-01  2.420517e-01  0.000000e+00
   outer loop
     vertex  5.019047e+01  4.912941e+01  4.952014e+01
     vertex  5.405369e+01  3.364372e+01  6.000000e+01
     vertex  5.405369e+01  3.364372e+01  4.952014e+01
   endloop
 endfacet
 facet normal -1.449309e-01 -3.615593e-02 -9.887810e-01
   outer loop
     vertex  6.404854e+01  3.957246e+01  5.831821e+01
     vertex  5.405369e+01  3.364372e+01  6.000000e+01
     vertex  5.019047e+01  4.912941e+01  6.000000e+01
   endloop
 endfacet
 facet normal -1.449309e-01 -3.615593e-02 -9.887810e-01
   outer loop
     vertex  6.404854e+01  3.957246e+01  5.831821e+01
     vertex  5.019047e+01  4.912941e+01  6.000000e+01
     vertex  6.179892e+01  4.859004e+01  5.831821e+01
   endloop
 endfacet
 facet normal -4.641348e-02 -9.989223e-01  0.000000e+00
   outer loop
     vertex  6.179892e+01  4.859004e+01  5.120193e+01
     vertex  5.019047e+01  4.912941e+01  6.000000e+01
     vertex  5.019047e+01  4.912941e+01  4.952014e+01
   endloop
 endfacet
 facet normal -4.641348e-02 -9.989223e-01  0.000000e+00
   outer loop
     vertex  6.179892e+01  4.859004e+01  5.120193e+01
     vertex  6.179892e+01  4.859004e+01  5.831821e+01
     vertex  5.019047e+01  4.912941e+01  6.000000e+01
   endloop
 endfacet
 facet normal -1.449309e-01 -3.615593e-02  9.887810e-01
   outer loop
     vertex  6.404854e+01  3.957246e+01  5.120193e+01
     vertex  5.019047e+01  4.912941e+01  4.952014e+01
     vertex  5.405369e+01  3.364372e+01  4.952014e+01
   endloop
 endfacet
 facet normal -1.449309e-01 -3.615593e-02  9.887810e-01
   outer loop
     vertex  6.404854e+01  3.957246e+01  5.120193e+01
     vertex  6.179892e+01  4.859004e+01  5.120193e+01
     vertex  5.019047e+01  4.912941e+01  4.952014e+01
   endloop
 endfacet
 facet normal -5.101765e-01  8.600697e-01  0.000000e+00
   outer loop
     vertex  6.404854e+01  3.957246e+01  5.120193e+01
     vertex  5.405369e+01  3.364372e+01  4.952014e+01
     vertex  5.405369e+01  3.364372e+01  6.000000e+01
   endloop
 endfacet
 facet normal -5.101765e-01  8.600697e-01  0.000000e+00
   outer loop
     vertex  6.404854e+01  3.957246e+01  5.120193e+01
     vertex  5.405369e+01  3.364372e+01  6.000000e+01
     vertex  6.404854e+01  3.957246e+01  5.831821e+01
   endloop
 endfacet
 facet normal -9.702633e-01 -2.420517e-01  0.000000e+00
   outer loop
     vertex  6.179892e+01  4.859004e+01  5.120193e+01
     vertex  6.404854e+01  3.957246e+01  5.831821e+01
     vertex  6.179892e+01  4.859004e+01  5.831821e+01
   endloop
 endfacet
 facet normal -9.702633e-01 -2.420517e-01  0.000000e+00
   outer loop
     vertex  6.179892e+01  4.859004e+01  5.120193e+01
     vertex  6.404854e+01  3.957246e+01  5.120193e+01
     vertex  6.404854e+01  3.957246e+01  5.831821e+01
   endloop
 endfacet
endsolid
