solid 
 facet normal -1.000000e+00  0.000000e+00  0.000000e+00
   outer loop
     vertex  0.000000e+00  0.000000e+00  6.000000e+01
     vertex  0.000000e+00  8.566574e+01  0.000000e+00
     vertex  0.000000e+00  0.000000e+00  0.000000e+00
   endloop
 endfacet
 facet normal -1.000000e+00  0.000000e+00  0.000000e+00
   outer loop
     vertex  0.000000e+00  0.000000e+00  6.000000e+01
     vertex  0.000000e+00  8.566574e+01  6.000000e+01
     vertex  0.000000e+00  8.566574e+01  0.000000e+00
   endloop
 endfacet
 facet normal  0.000000e+00 -1.000000e+00 -0.000000e+00
   outer loop
     vertex  1.124001e+02  0.000000e+00  6.000000e+01
     vertex  0.000000e+00  0.000000e+00  0.000000e+00
     vertex  1.124001e+02  0.000000e+00  0.000000e+00
   endloop
 endfacet
 facet normal -0.000000e+00 -1.000000e+00  0.000000e+00
   outer loop
     vertex  1.124001e+02  0.000000e+00  6.000000e+01
     vertex  0.000000e+00  0.000000e+00  6.000000e+01
     vertex  0.000000e+00  0.000000e+00  0.000000e+00
   endloop
 endfacet
 facet normal  0.000000e+00  0.000000e+00  1.000000e+00
   outer loop
     vertex  0.000000e+00  8.566574e+01  6.000000e+01
     vertex  3.199130e+01  1.330977e+01  6.000000e+01
     vertex  4.411764e+01  2.458110e+01  6.000000e+01
   endloop
 endfacet
 facet normal  0.000000e+00  0.000000e+00  1.000000e+00
   outer loop
     vertex  0.000000e+00  8.566574e+01  6.000000e+01
     vertex  0.000000e+00  0.000000e+00  6.000000e+01
     vertex  3.199130e+01  1.330977e+01  6.000000e+01
   endloop
 endfacet
 facet normal  0.000000e+00  0.000000e+00  1.000000e+00
   outer loop
     vertex  1.124001e+02  0.000000e+00  6.000000e+01
     vertex  4.411764e+01  2.458110e+01  6.000000e+01
     vertex  3.199130e+01  1.330977e+01  6.000000e+01
   endloop
 endfacet
 facet normal  0.000000e+00  0.000000e+00  1.000000e+00
   outer loop
     vertex  1.124001e+02  0.000000e+00  6.000000e+01
     vertex  3.199130e+01  1.330977e+01  6.000000e+01
     vertex  0.000000e+00  0.000000e+00  6.000000e+01
   endloop
 endfacet
 facet normal  0.000000e+00  0.000000e+00  1.000000e+00
   outer loop
     vertex  1.124001e+02  8.566574e+01  6.000000e+01
     vertex  4.411764e+01  2.458110e+01  6.000000e+01
     vertex  1.124001e+02  0.000000e+00  6.000000e+01
   endloop
 endfacet
 facet normal  0.000000e+00  0.000000e+00  1.000000e+00
   outer loop
     vertex  1.124001e+02  8.566574e+01  6.000000e+01
     vertex  0.000000e+00  8.566574e+01  6.000000e+01
     vertex  4.411764e+01  2.458110e+01  6.000000e+01
   endloop
 endfacet
 facet normal  0.000000e+00  1.000000e+00  0.000000e+00
   outer loop
     vertex  1.124001e+02  8.566574e+01  6.000000e+01
     vertex  1.124001e+02  8.566574e+01  0.000000e+00
     vertex  0.000000e+00  8.566574e+01  0.000000e+00
   endloop
 endfacet
 facet normal  0.000000e+00  1.000000e+00  0.000000e+00
   outer loop
     vertex  1.124001e+02  8.566574e+01  6.000000e+01
     vertex  0.000000e+00  8.566574e+01  0.000000e+00
     vertex  0.000000e+00  8.566574e+01  6.000000e+01
   endloop
 endfacet
 facet normal -0.000000e+00  0.000000e+00 -1.000000e+00
   outer loop
     vertex  1.124001e+02  8.566574e+01  0.000000e+00
     vertex  0.000000e+00  0.000000e+00  0.000000e+00
     vertex  0.000000e+00  8.566574e+01  0.000000e+00
   endloop
 endfacet
 facet normal  0.000000e+00 -0.000000e+00 -1.000000e+00
   outer loop
     vertex  1.124001e+02  8.566574e+01  0.000000e+00
     vertex  1.124001e+02  0.000000e+00  0.000000e+00
     vertex  0.000000e+00  0.000000e+00  0.000000e+00
   endloop
 endfacet
 facet normal  1.000000e+00  0.000000e+00  0.000000e+00
   outer loop
     vertex  1.124001e+02  0.000000e+00  6.000000e+01
     vertex  1.124001e+02  0.000000e+00  0.000000e+00
     vertex  1.124001e+02  8.566574e+01  0.000000e+00
   endloop
 endfacet
 facet normal  1.000000e+00 -0.000000e+00  0.000000e+00
   outer loop
     vertex  1.124001e+02  0.000000e+00  6.000000e+01
     vertex  1.124001e+02  8.566574e+01  0.000000e+00
     vertex  1.124001e+02  8.566574e+01  6.000000e+01
   endloop
 endfacet
 facet normal -6.808128e-01  7.324575e-01 -1.138814e-16
   outer loop
     vertex  4.411764e+01  2.458110e+01  3.714981e+01
     vertex  3.199130e+01  1.330977e+01  6.000000e+01
     vertex  4.411764e+01  2.458110e+01  6.000000e+01
   endloop
 endfacet
 facet normal -6.808128e-01  7.324575e-01 -1.138814e-16
   outer loop
     vertex  3.199130e+01  1.330977e+01  3.714981e+01
     vertex  3.199130e+01  1.330977e+01  6.000000e+01
     vertex  4.411764e+01  2.458110e+01  3.714981e+01
   endloop
 endfacet
 facet normal  1.350281e-01 -1.452710e-01 -9.801346e-01
   outer loop
     vertex  3.231913e+01  3.344628e+01  5.706062e+01
     vertex  4.411764e+01  2.458110e+01  6.000000e+01
     vertex  3.199130e+01  1.330977e+01  6.000000e+01
   endloop
 endfacet
 facet normal  1.350281e-01 -1.452710e-01 -9.801346e-01
   outer loop
     vertex  3.231913e+01  3.344628e+01  5.706062e+01
     vertex  3.199130e+01  1.330977e+01  6.000000e+01
     vertex  2.401091e+01  2.572387e+01  5.706062e+01
   endloop
 endfacet
 facet normal  8.411816e-01  5.407527e-01 -8.428204e-17
   outer loop
     vertex  2.401091e+01  2.572387e+01  4.008919e+01
     vertex  3.199130e+01  1.330977e+01  6.000000e+01
     vertex  3.199130e+01  1.330977e+01  3.714981e+01
   endloop
 endfacet
 facet normal  8.411816e-01  5.407527e-01 -1.131984e-16
   outer loop
     vertex  2.401091e+01  2.572387e+01  4.008919e+01
     vertex  2.401091e+01  2.572387e+01  5.706062e+01
     vertex  3.199130e+01  1.330977e+01  6.000000e+01
   endloop
 endfacet
 facet normal  1.350281e-01 -1.452710e-01  9.801346e-01
   outer loop
     vertex  3.231913e+01  3.344628e+01  4.008919e+01
     vertex  3.199130e+01  1.330977e+01  3.714981e+01
     vertex  4.411764e+01  2.458110e+01  3.714981e+01
   endloop
 endfacet
 facet normal  1.350281e-01 -1.452710e-01  9.801346e-01
   outer loop
     vertex  3.231913e+01  3.344628e+01  4.008919e+01
     vertex  2.401091e+01  2.572387e+01  4.008919e+01
     vertex  3.199130e+01  1.330977e+01  3.714981e+01
   endloop
 endfacet
 facet normal -6.007066e-01 -7.994696e-01  1.264231e-16
   outer loop
     vertex  3.231913e+01  3.344628e+01  4.008919e+01
     vertex  4.411764e+01  2.458110e+01  3.714981e+01
     vertex  4.411764e+01  2.458110e+01  6.000000e+01
   endloop
 endfacet
 facet normal -6.007066e-01 -7.994696e-01  0.000000e+00
   outer loop
     vertex  3.231913e+01  3.344628e+01  4.008919e+01
     vertex  4.411764e+01  2.458110e+01  6.000000e+01
     vertex  3.231913e+01  3.344628e+01  5.706062e+01
   endloop
 endfacet
 facet normal  6.808128e-01 -7.324575e-01  1.533289e-16
   outer loop
     vertex  2.401091e+01  2.572387e+01  4.008919e+01
     vertex  3.231913e+01  3.344628e+01  5.706062e+01
     vertex  2.401091e+01  2.572387e+01  5.706062e+01
   endloop
 endfacet
 facet normal  6.808128e-01 -7.324575e-01  0.000000e+00
   outer loop
     vertex  2.401091e+01  2.572387e+01  4.008919e+01
     vertex  3.231913e+01  3.344628e+01  4.008919e+01
     vertex  3.231913e+01  3.344628e+01  5.706062e+01
   endloop
 endfacet
endsolid
