solid 
 facet normal -1.000000e+00  0.000000e+00  0.000000e+00
   outer loop
     vertex  0.000000e+00  0.000000e+00  6.000000e+01
     vertex  0.000000e+00  8.809546e+01  0.000000e+00
     vertex  0.000000e+00  0.000000e+00  0.000000e+00
   endloop
 endfacet
 facet normal -1.000000e+00  0.000000e+00  0.000000e+00
   outer loop
     vertex  0.000000e+00  0.000000e+00  6.000000e+01
     vertex  0.000000e+00  8.809546e+01  6.000000e+01
     vertex  0.000000e+00  8.809546e+01  0.000000e+00
   endloop
 endfacet
 facet normal  0.000000e+00 -1.000000e+00 -0.000000e+00
   outer loop
     vertex  1.401216e+02  0.000000e+00  6.000000e+01
     vertex  0.000000e+00  0.000000e+00  0.000000e+00
     vertex  1.401216e+02  0.000000e+00  0.000000e+00
   endloop
 endfacet
 facet normal -0.000000e+00 -1.000000e+00  0.000000e+00
   outer loop
     vertex  1.401216e+02  0.000000e+00  6.000000e+01
     vertex  0.000000e+00  0.000000e+00  6.000000e+01
     vertex  0.000000e+00  0.000000e+00  0.000000e+00
   endloop
 endfacet
 facet normal  0.000000e+00  0.000000e+00  1.000000e+00
   outer loop
     vertex  8.965014e+01  4.965680e+01  6.000000e+01
     vertex  0.000000e+00  8.809546e+01  6.000000e+01
     vertex  0.000000e+00  0.000000e+00  6.000000e+01
   endloop
 endfacet
 facet normal  0.000000e+00  0.000000e+00  1.000000e+00
   outer loop
     vertex  1.401216e+02  0.000000e+00  6.000000e+01
     vertex  8.965014e+01  4.965680e+01  6.000000e+01
     vertex  0.000000e+00  0.000000e+00  6.000000e+01
   endloop
 endfacet
 facet normal  0.000000e+00  0.000000e+00  1.000000e+00
   outer loop
     vertex  9.322827e+01  6.711107e+01  6.000000e+01
     vertex  0.000000e+00  8.809546e+01  6.000000e+01
     vertex  8.965014e+01  4.965680e+01  6.000000e+01
   endloop
 endfacet
 facet normal  0.000000e+00  0.000000e+00  1.000000e+00
   outer loop
     vertex  1.401216e+02  8.809546e+01  6.000000e+01
     vertex  9.322827e+01  6.711107e+01  6.000000e+01
     vertex  8.965014e+01  4.965680e+01  6.000000e+01
   endloop
 endfacet
 facet normal  0.000000e+00  0.000000e+00  1.000000e+00
   outer loop
     vertex  1.401216e+02  8.809546e+01  6.000000e+01
     vertex  8.965014e+01  4.965680e+01  6.000000e+01
     vertex  1.401216e+02  0.000000e+00  6.000000e+01
   endloop
 endfacet
 facet normal  0.000000e+00  0.000000e+00  1.000000e+00
   outer loop
     vertex  1.401216e+02  8.809546e+01  6.000000e+01
     vertex  0.000000e+00  8.809546e+01  6.000000e+01
     vertex  9.322827e+01  6.711107e+01  6.000000e+01
   endloop
 endfacet
 facet normal  0.000000e+00  1.000000e+00  0.000000e+00
   outer loop
     vertex  1.401216e+02  8.809546e+01  6.000000e+01
     vertex  1.401216e+02  8.809546e+01  0.000000e+00
     vertex  0.000000e+00  8.809546e+01  0.000000e+00
   endloop
 endfacet
 facet normal  0.000000e+00  1.000000e+00  0.000000e+00
   outer loop
     vertex  1.401216e+02  8.809546e+01  6.000000e+01
     vertex  0.000000e+00  8.809546e+01  0.000000e+00
     vertex  0.000000e+00  8.809546e+01  6.000000e+01
   endloop
 endfacet
 facet normal  0.000000e+00  0.000000e+00 -1.000000e+00
   outer loop
     vertex  1.401216e+02  0.000000e+00  0.000000e+00
     vertex  0.000000e+00  0.000000e+00  0.000000e+00
     vertex  0.000000e+00  8.809546e+01  0.000000e+00
   endloop
 endfacet
 facet normal -0.000000e+00 -0.000000e+00 -1.000000e+00
   outer loop
     vertex  1.401216e+02  8.809546e+01  0.000000e+00
     vertex  1.401216e+02  0.000000e+00  0.000000e+00
     vertex  0.000000e+00  8.809546e+01  0.000000e+00
   endloop
 endfacet
 facet normal  1.000000e+00  0.000000e+00  0.000000e+00
   outer loop
     vertex  1.401216e+02  0.000000e+00  6.000000e+01
     vertex  1.401216e+02  0.000000e+00  0.000000e+00
     vertex  1.401216e+02  8.809546e+01  0.000000e+00
   endloop
 endfacet
 facet normal  1.000000e+00 -0.000000e+00  0.000000e+00
   outer loop
     vertex  1.401216e+02  0.000000e+00  6.000000e+01
     vertex  1.401216e+02  8.809546e+01  0.000000e+00
     vertex  1.401216e+02  8.809546e+01  6.000000e+01
   endloop
 endfacet
 facet normal  9.796274e-01 -2.008238e-01  0.000000e+00
   outer loop
     vertex  9.322827e+01  6.711107e+01  4.777819e+01
     vertex  9.322827e+01  6.711107e+01  6.000000e+01
     vertex  8.965014e+01  4.965680e+01  6.000000e+01
   endloop
 endfacet
 facet normal  9.796274e-01 -2.008238e-01  0.000000e+00
   outer loop
     vertex  9.322827e+01  6.711107e+01  4.777819e+01
     vertex  8.965014e+01  4.965680e+01  6.000000e+01
     vertex  8.965014e+01  4.965680e+01  4.777819e+01
   endloop
 endfacet
 facet normal -8.605359e-02  1.764101e-02 -9.961343e-01
   outer loop
     vertex  1.129066e+02  4.859544e+01  5.797213e+01
     vertex  8.965014e+01  4.965680e+01  6.000000e+01
     vertex  9.322827e+01  6.711107e+01  6.000000e+01
   endloop
 endfacet
 facet normal -8.605359e-02  1.764101e-02 -9.961343e-01
   outer loop
     vertex  1.129066e+02  4.859544e+01  5.797213e+01
     vertex  9.322827e+01  6.711107e+01  6.000000e+01
     vertex  1.150265e+02  5.893621e+01  5.797213e+01
   endloop
 endfacet
 facet normal -3.511435e-01 -9.363217e-01  0.000000e+00
   outer loop
     vertex  1.150265e+02  5.893621e+01  4.980605e+01
     vertex  9.322827e+01  6.711107e+01  6.000000e+01
     vertex  9.322827e+01  6.711107e+01  4.777819e+01
   endloop
 endfacet
 facet normal -3.511435e-01 -9.363217e-01  0.000000e+00
   outer loop
     vertex  1.150265e+02  5.893621e+01  4.980605e+01
     vertex  1.150265e+02  5.893621e+01  5.797213e+01
     vertex  9.322827e+01  6.711107e+01  6.000000e+01
   endloop
 endfacet
 facet normal -8.605359e-02  1.764101e-02  9.961343e-01
   outer loop
     vertex  1.150265e+02  5.893621e+01  4.980605e+01
     vertex  9.322827e+01  6.711107e+01  4.777819e+01
     vertex  8.965014e+01  4.965680e+01  4.777819e+01
   endloop
 endfacet
 facet normal -8.605359e-02  1.764101e-02  9.961343e-01
   outer loop
     vertex  1.129066e+02  4.859544e+01  4.980605e+01
     vertex  1.150265e+02  5.893621e+01  4.980605e+01
     vertex  8.965014e+01  4.965680e+01  4.777819e+01
   endloop
 endfacet
 facet normal  4.558976e-02  9.989602e-01  0.000000e+00
   outer loop
     vertex  1.129066e+02  4.859544e+01  5.797213e+01
     vertex  8.965014e+01  4.965680e+01  4.777819e+01
     vertex  8.965014e+01  4.965680e+01  6.000000e+01
   endloop
 endfacet
 facet normal  4.558976e-02  9.989602e-01 -8.692101e-16
   outer loop
     vertex  1.129066e+02  4.859544e+01  4.980605e+01
     vertex  8.965014e+01  4.965680e+01  4.777819e+01
     vertex  1.129066e+02  4.859544e+01  5.797213e+01
   endloop
 endfacet
 facet normal -9.796274e-01  2.008238e-01  0.000000e+00
   outer loop
     vertex  1.150265e+02  5.893621e+01  4.980605e+01
     vertex  1.129066e+02  4.859544e+01  5.797213e+01
     vertex  1.150265e+02  5.893621e+01  5.797213e+01
   endloop
 endfacet
 facet normal -9.796274e-01  2.008238e-01 -1.648598e-16
   outer loop
     vertex  1.150265e+02  5.893621e+01  4.980605e+01
     vertex  1.129066e+02  4.859544e+01  4.980605e+01
     vertex  1.129066e+02  4.859544e+01  5.797213e+01
   endloop
 endfacet
endsolid
