solid 
 facet normal -1.000000e+00  0.000000e+00  0.000000e+00
   outer loop
     vertex  0.000000e+00  0.000000e+00  6.000000e+01
     vertex  0.000000e+00  8.849550e+01  0.000000e+00
     vertex  0.000000e+00  0.000000e+00  0.000000e+00
   endloop
 endfacet
 facet normal -1.000000e+00  0.000000e+00  0.000000e+00
   outer loop
     vertex  0.000000e+00  0.000000e+00  6.000000e+01
     vertex  0.000000e+00  8.849550e+01  6.000000e+01
     vertex  0.000000e+00  8.849550e+01  0.000000e+00
   endloop
 endfacet
 facet normal  0.000000e+00 -1.000000e+00 -0.000000e+00
   outer loop
     vertex  1.408551e+02  0.000000e+00  6.000000e+01
     vertex  0.000000e+00  0.000000e+00  0.000000e+00
     vertex  1.408551e+02  0.000000e+00  0.000000e+00
   endloop
 endfacet
 facet normal -0.000000e+00 -1.000000e+00  0.000000e+00
   outer loop
     vertex  1.408551e+02  0.000000e+00  6.000000e+01
     vertex  0.000000e+00  0.000000e+00  6.000000e+01
     vertex  0.000000e+00  0.000000e+00  0.000000e+00
   endloop
 endfacet
 facet normal -1.263392e-16  1.881023e-16  1.000000e+00
   outer loop
     vertex  2.990867e+01  5.786246e+01  6.000000e+01
     vertex  0.000000e+00  0.000000e+00  6.000000e+01
     vertex  4.452238e+01  2.990351e+01  6.000000e+01
   endloop
 endfacet
 facet normal  2.375708e-16  0.000000e+00  1.000000e+00
   outer loop
     vertex  0.000000e+00  8.849550e+01  6.000000e+01
     vertex  0.000000e+00  0.000000e+00  6.000000e+01
     vertex  2.990867e+01  5.786246e+01  6.000000e+01
   endloop
 endfacet
 facet normal -2.224645e-16 -4.491570e-16  1.000000e+00
   outer loop
     vertex  4.544877e+01  6.598503e+01  6.000000e+01
     vertex  0.000000e+00  8.849550e+01  6.000000e+01
     vertex  2.990867e+01  5.786246e+01  6.000000e+01
   endloop
 endfacet
 facet normal  0.000000e+00  0.000000e+00  1.000000e+00
   outer loop
     vertex  1.408551e+02  0.000000e+00  6.000000e+01
     vertex  6.006248e+01  3.802608e+01  6.000000e+01
     vertex  4.452238e+01  2.990351e+01  6.000000e+01
   endloop
 endfacet
 facet normal  0.000000e+00  0.000000e+00  1.000000e+00
   outer loop
     vertex  1.408551e+02  0.000000e+00  6.000000e+01
     vertex  4.452238e+01  2.990351e+01  6.000000e+01
     vertex  0.000000e+00  0.000000e+00  6.000000e+01
   endloop
 endfacet
 facet normal  0.000000e+00  0.000000e+00  1.000000e+00
   outer loop
     vertex  1.408551e+02  8.849550e+01  6.000000e+01
     vertex  4.544877e+01  6.598503e+01  6.000000e+01
     vertex  6.006248e+01  3.802608e+01  6.000000e+01
   endloop
 endfacet
 facet normal  0.000000e+00  0.000000e+00  1.000000e+00
   outer loop
     vertex  1.408551e+02  8.849550e+01  6.000000e+01
     vertex  6.006248e+01  3.802608e+01  6.000000e+01
     vertex  1.408551e+02  0.000000e+00  6.000000e+01
   endloop
 endfacet
 facet normal  0.000000e+00  0.000000e+00  1.000000e+00
   outer loop
     vertex  1.408551e+02  8.849550e+01  6.000000e+01
     vertex  0.000000e+00  8.849550e+01  6.000000e+01
     vertex  4.544877e+01  6.598503e+01  6.000000e+01
   endloop
 endfacet
 facet normal  0.000000e+00  1.000000e+00  0.000000e+00
   outer loop
     vertex  1.408551e+02  8.849550e+01  6.000000e+01
     vertex  1.408551e+02  8.849550e+01  0.000000e+00
     vertex  0.000000e+00  8.849550e+01  0.000000e+00
   endloop
 endfacet
 facet normal  0.000000e+00  1.000000e+00  0.000000e+00
   outer loop
     vertex  1.408551e+02  8.849550e+01  6.000000e+01
     vertex  0.000000e+00  8.849550e+01  0.000000e+00
     vertex  0.000000e+00  8.849550e+01  6.000000e+01
   endloop
 endfacet
 facet normal  0.000000e+00  0.000000e+00 -1.000000e+00
   outer loop
     vertex  1.408551e+02  0.000000e+00  0.000000e+00
     vertex  0.000000e+00  0.000000e+00  0.000000e+00
     vertex  0.000000e+00  8.849550e+01  0.000000e+00
   endloop
 endfacet
 facet normal -0.000000e+00 -0.000000e+00 -1.000000e+00
   outer loop
     vertex  1.408551e+02  8.849550e+01  0.000000e+00
     vertex  1.408551e+02  0.000000e+00  0.000000e+00
     vertex  0.000000e+00  8.849550e+01  0.000000e+00
   endloop
 endfacet
 facet normal  1.000000e+00  0.000000e+00  0.000000e+00
   outer loop
     vertex  1.408551e+02  0.000000e+00  6.000000e+01
     vertex  1.408551e+02  0.000000e+00  0.000000e+00
     vertex  1.408551e+02  8.849550e+01  0.000000e+00
   endloop
 endfacet
 facet normal  1.000000e+00 -0.000000e+00  0.000000e+00
   outer loop
     vertex  1.408551e+02  0.000000e+00  6.000000e+01
     vertex  1.408551e+02  8.849550e+01  0.000000e+00
     vertex  1.408551e+02  8.849550e+01  6.000000e+01
   endloop
 endfacet
 facet normal -4.632245e-01  8.862410e-01  0.000000e+00
   outer loop
     vertex  4.452238e+01  2.990351e+01  4.335446e+01
     vertex  6.006248e+01  3.802608e+01  6.000000e+01
     vertex  6.006248e+01  3.802608e+01  4.335446e+01
   endloop
 endfacet
 facet normal -4.632245e-01  8.862410e-01  0.000000e+00
   outer loop
     vertex  4.452238e+01  2.990351e+01  6.000000e+01
     vertex  6.006248e+01  3.802608e+01  6.000000e+01
     vertex  4.452238e+01  2.990351e+01  4.335446e+01
   endloop
 endfacet
 facet normal -8.862410e-01 -4.632245e-01  0.000000e+00
   outer loop
     vertex  5.356455e+01  5.045791e+01  4.335446e+01
     vertex  6.006248e+01  3.802608e+01  4.335446e+01
     vertex  6.006248e+01  3.802608e+01  6.000000e+01
   endloop
 endfacet
 facet normal -8.862410e-01 -4.632245e-01 -2.706160e-16
   outer loop
     vertex  4.544877e+01  6.598503e+01  6.000000e+01
     vertex  5.356455e+01  5.045791e+01  4.335446e+01
     vertex  6.006248e+01  3.802608e+01  6.000000e+01
   endloop
 endfacet
 facet normal  3.190592e-01 -6.104240e-01  7.249715e-01
   outer loop
     vertex  4.544877e+01  6.598503e+01  6.000000e+01
     vertex  3.802445e+01  4.233534e+01  4.335446e+01
     vertex  5.356455e+01  5.045791e+01  4.335446e+01
   endloop
 endfacet
 facet normal  3.190592e-01 -6.104240e-01  7.249715e-01
   outer loop
     vertex  4.544877e+01  6.598503e+01  6.000000e+01
     vertex  2.990867e+01  5.786246e+01  6.000000e+01
     vertex  3.802445e+01  4.233534e+01  4.335446e+01
   endloop
 endfacet
 facet normal  8.862410e-01  4.632245e-01  0.000000e+00
   outer loop
     vertex  3.802445e+01  4.233534e+01  4.335446e+01
     vertex  4.452238e+01  2.990351e+01  6.000000e+01
     vertex  4.452238e+01  2.990351e+01  4.335446e+01
   endloop
 endfacet
 facet normal  8.862410e-01  4.632245e-01  3.788624e-16
   outer loop
     vertex  2.990867e+01  5.786246e+01  6.000000e+01
     vertex  4.452238e+01  2.990351e+01  6.000000e+01
     vertex  3.802445e+01  4.233534e+01  4.335446e+01
   endloop
 endfacet
 facet normal -0.000000e+00  0.000000e+00  1.000000e+00
   outer loop
     vertex  3.802445e+01  4.233534e+01  4.335446e+01
     vertex  6.006248e+01  3.802608e+01  4.335446e+01
     vertex  5.356455e+01  5.045791e+01  4.335446e+01
   endloop
 endfacet
 facet normal  0.000000e+00  0.000000e+00  1.000000e+00
   outer loop
     vertex  3.802445e+01  4.233534e+01  4.335446e+01
     vertex  4.452238e+01  2.990351e+01  4.335446e+01
     vertex  6.006248e+01  3.802608e+01  4.335446e+01
   endloop
 endfacet
endsolid
