solid 
 facet normal -1.000000e+00  0.000000e+00  0.000000e+00
   outer loop
     vertex  0.000000e+00  0.000000e+00  6.000000e+01
     vertex  0.000000e+00  8.610169e+01  0.000000e+00
     vertex  0.000000e+00  0.000000e+00  0.000000e+00
   endloop
 endfacet
 facet normal -1.000000e+00  0.000000e+00  0.000000e+00
   outer loop
     vertex  0.000000e+00  0.000000e+00  6.000000e+01
     vertex  0.000000e+00  8.610169e+01  6.000000e+01
     vertex  0.000000e+00  8.610169e+01  0.000000e+00
   endloop
 endfacet
 facet normal  0.000000e+00 -1.000000e+00 -0.000000e+00
   outer loop
     vertex  1.108265e+02  0.000000e+00  6.000000e+01
     vertex  0.000000e+00  0.000000e+00  0.000000e+00
     vertex  1.108265e+02  0.000000e+00  0.000000e+00
   endloop
 endfacet
 facet normal -0.000000e+00 -1.000000e+00  0.000000e+00
   outer loop
     vertex  1.108265e+02  0.000000e+00  6.000000e+01
     vertex  0.000000e+00  0.000000e+00  6.000000e+01
     vertex  0.000000e+00  0.000000e+00  0.000000e+00
   endloop
 endfacet
 facet normal  0.000000e+00  0.000000e+00  1.000000e+00
   outer loop
     vertex  0.000000e+00  8.610169e+01  6.000000e+01
     vertex  0.000000e+00  0.000000e+00  6.000000e+01
     vertex  2.329228e+01  5.682578e+01  6.000000e+01
   endloop
 endfacet
 facet normal  0.000000e+00  0.000000e+00  1.000000e+00
   outer loop
     vertex  4.527138e+01  5.592617e+01  6.000000e+01
     vertex  2.329228e+01  5.682578e+01  6.000000e+01
     vertex  0.000000e+00  0.000000e+00  6.000000e+01
   endloop
 endfacet
 facet normal  0.000000e+00  0.000000e+00  1.000000e+00
   outer loop
     vertex  4.527138e+01  5.592617e+01  6.000000e+01
     vertex  0.000000e+00  8.610169e+01  6.000000e+01
     vertex  2.329228e+01  5.682578e+01  6.000000e+01
   endloop
 endfacet
 facet normal  0.000000e+00  0.000000e+00  1.000000e+00
   outer loop
     vertex  1.108265e+02  0.000000e+00  6.000000e+01
     vertex  4.527138e+01  5.592617e+01  6.000000e+01
     vertex  0.000000e+00  0.000000e+00  6.000000e+01
   endloop
 endfacet
 facet normal  0.000000e+00  0.000000e+00  1.000000e+00
   outer loop
     vertex  1.108265e+02  8.610169e+01  6.000000e+01
     vertex  0.000000e+00  8.610169e+01  6.000000e+01
     vertex  4.527138e+01  5.592617e+01  6.000000e+01
   endloop
 endfacet
 facet normal  0.000000e+00  0.000000e+00  1.000000e+00
   outer loop
     vertex  1.108265e+02  8.610169e+01  6.000000e+01
     vertex  4.527138e+01  5.592617e+01  6.000000e+01
     vertex  1.108265e+02  0.000000e+00  6.000000e+01
   endloop
 endfacet
 facet normal  0.000000e+00  1.000000e+00  0.000000e+00
   outer loop
     vertex  1.108265e+02  8.610169e+01  6.000000e+01
     vertex  1.108265e+02  8.610169e+01  0.000000e+00
     vertex  0.000000e+00  8.610169e+01  0.000000e+00
   endloop
 endfacet
 facet normal  0.000000e+00  1.000000e+00  0.000000e+00
   outer loop
     vertex  1.108265e+02  8.610169e+01  6.000000e+01
     vertex  0.000000e+00  8.610169e+01  0.000000e+00
     vertex  0.000000e+00  8.610169e+01  6.000000e+01
   endloop
 endfacet
 facet normal -0.000000e+00  0.000000e+00 -1.000000e+00
   outer loop
     vertex  1.108265e+02  8.610169e+01  0.000000e+00
     vertex  0.000000e+00  0.000000e+00  0.000000e+00
     vertex  0.000000e+00  8.610169e+01  0.000000e+00
   endloop
 endfacet
 facet normal  0.000000e+00 -0.000000e+00 -1.000000e+00
   outer loop
     vertex  1.108265e+02  8.610169e+01  0.000000e+00
     vertex  1.108265e+02  0.000000e+00  0.000000e+00
     vertex  0.000000e+00  0.000000e+00  0.000000e+00
   endloop
 endfacet
 facet normal  1.000000e+00  0.000000e+00  0.000000e+00
   outer loop
     vertex  1.108265e+02  0.000000e+00  6.000000e+01
     vertex  1.108265e+02  0.000000e+00  0.000000e+00
     vertex  1.108265e+02  8.610169e+01  0.000000e+00
   endloop
 endfacet
 facet normal  1.000000e+00 -0.000000e+00  0.000000e+00
   outer loop
     vertex  1.108265e+02  0.000000e+00  6.000000e+01
     vertex  1.108265e+02  8.610169e+01  0.000000e+00
     vertex  1.108265e+02  8.610169e+01  6.000000e+01
   endloop
 endfacet
 facet normal -4.089578e-02 -9.991634e-01  4.531620e-16
   outer loop
     vertex  4.527138e+01  5.592617e+01  4.433346e+01
     vertex  4.527138e+01  5.592617e+01  6.000000e+01
     vertex  2.329228e+01  5.682578e+01  6.000000e+01
   endloop
 endfacet
 facet normal -4.089578e-02 -9.991634e-01  0.000000e+00
   outer loop
     vertex  4.527138e+01  5.592617e+01  4.433346e+01
     vertex  2.329228e+01  5.682578e+01  6.000000e+01
     vertex  2.329228e+01  5.682578e+01  4.433346e+01
   endloop
 endfacet
 facet normal  5.806770e-03  1.418707e-01 -9.898682e-01
   outer loop
     vertex  2.668981e+01  3.621144e+01  5.706543e+01
     vertex  2.329228e+01  5.682578e+01  6.000000e+01
     vertex  4.527138e+01  5.592617e+01  6.000000e+01
   endloop
 endfacet
 facet normal  5.806770e-03  1.418707e-01 -9.898682e-01
   outer loop
     vertex  2.668981e+01  3.621144e+01  5.706543e+01
     vertex  4.527138e+01  5.592617e+01  6.000000e+01
     vertex  4.020055e+01  3.565844e+01  5.706543e+01
   endloop
 endfacet
 facet normal -9.700986e-01  2.427113e-01 -1.302504e-16
   outer loop
     vertex  4.020055e+01  3.565844e+01  4.726803e+01
     vertex  4.527138e+01  5.592617e+01  6.000000e+01
     vertex  4.527138e+01  5.592617e+01  4.433346e+01
   endloop
 endfacet
 facet normal -9.700986e-01  2.427113e-01  0.000000e+00
   outer loop
     vertex  4.020055e+01  3.565844e+01  4.726803e+01
     vertex  4.020055e+01  3.565844e+01  5.706543e+01
     vertex  4.527138e+01  5.592617e+01  6.000000e+01
   endloop
 endfacet
 facet normal  5.806770e-03  1.418707e-01  9.898682e-01
   outer loop
     vertex  2.668981e+01  3.621144e+01  4.726803e+01
     vertex  4.527138e+01  5.592617e+01  4.433346e+01
     vertex  2.329228e+01  5.682578e+01  4.433346e+01
   endloop
 endfacet
 facet normal  5.806770e-03  1.418707e-01  9.898682e-01
   outer loop
     vertex  2.668981e+01  3.621144e+01  4.726803e+01
     vertex  4.020055e+01  3.565844e+01  4.726803e+01
     vertex  4.527138e+01  5.592617e+01  4.433346e+01
   endloop
 endfacet
 facet normal  9.866888e-01  1.626199e-01  0.000000e+00
   outer loop
     vertex  2.668981e+01  3.621144e+01  4.726803e+01
     vertex  2.329228e+01  5.682578e+01  4.433346e+01
     vertex  2.329228e+01  5.682578e+01  6.000000e+01
   endloop
 endfacet
 facet normal  9.866888e-01  1.626199e-01 -0.000000e+00
   outer loop
     vertex  2.668981e+01  3.621144e+01  4.726803e+01
     vertex  2.329228e+01  5.682578e+01  6.000000e+01
     vertex  2.668981e+01  3.621144e+01  5.706543e+01
   endloop
 endfacet
 facet normal  4.089578e-02  9.991634e-01 -0.000000e+00
   outer loop
     vertex  4.020055e+01  3.565844e+01  4.726803e+01
     vertex  2.668981e+01  3.621144e+01  5.706543e+01
     vertex  4.020055e+01  3.565844e+01  5.706543e+01
   endloop
 endfacet
 facet normal  4.089578e-02  9.991634e-01  0.000000e+00
   outer loop
     vertex  4.020055e+01  3.565844e+01  4.726803e+01
     vertex  2.668981e+01  3.621144e+01  4.726803e+01
     vertex  2.668981e+01  3.621144e+01  5.706543e+01
   endloop
 endfacet
endsolid
