solid 
 facet normal -1.000000e+00  0.000000e+00  0.000000e+00
   outer loop
     vertex  0.000000e+00  0.000000e+00  0.000000e+00
     vertex  0.000000e+00  1.009602e+02  6.000000e+01
     vertex  0.000000e+00  1.009602e+02  0.000000e+00
   endloop
 endfacet
 facet normal -1.000000e+00  0.000000e+00  0.000000e+00
   outer loop
     vertex  0.000000e+00  0.000000e+00  6.000000e+01
     vertex  0.000000e+00  1.009602e+02  6.000000e+01
     vertex  0.000000e+00  0.000000e+00  0.000000e+00
   endloop
 endfacet
 facet normal  0.000000e+00 -1.000000e+00 -0.000000e+00
   outer loop
     vertex  1.401113e+02  0.000000e+00  6.000000e+01
     vertex  0.000000e+00  0.000000e+00  0.000000e+00
     vertex  1.401113e+02  0.000000e+00  0.000000e+00
   endloop
 endfacet
 facet normal -0.000000e+00 -1.000000e+00  0.000000e+00
   outer loop
     vertex  1.401113e+02  0.000000e+00  6.000000e+01
     vertex  0.000000e+00  0.000000e+00  6.000000e+01
     vertex  0.000000e+00  0.000000e+00  0.000000e+00
   endloop
 endfacet
 facet normal  0.000000e+00  0.000000e+00  1.000000e+00
   outer loop
     vertex  1.063661e+02  2.953083e+01  6.000000e+01
     vertex  0.000000e+00  1.009602e+02  6.000000e+01
     vertex  0.000000e+00  0.000000e+00  6.000000e+01
   endloop
 endfacet
 facet normal  0.000000e+00  0.000000e+00  1.000000e+00
   outer loop
     vertex  1.401113e+02  0.000000e+00  6.000000e+01
     vertex  1.063661e+02  2.953083e+01  6.000000e+01
     vertex  0.000000e+00  0.000000e+00  6.000000e+01
   endloop
 endfacet
 facet normal  0.000000e+00  0.000000e+00  1.000000e+00
   outer loop
     vertex  1.118753e+02  3.543993e+01  6.000000e+01
     vertex  0.000000e+00  1.009602e+02  6.000000e+01
     vertex  1.063661e+02  2.953083e+01  6.000000e+01
   endloop
 endfacet
 facet normal  0.000000e+00  0.000000e+00  1.000000e+00
   outer loop
     vertex  1.118753e+02  3.543993e+01  6.000000e+01
     vertex  1.063661e+02  2.953083e+01  6.000000e+01
     vertex  1.401113e+02  0.000000e+00  6.000000e+01
   endloop
 endfacet
 facet normal  0.000000e+00  0.000000e+00  1.000000e+00
   outer loop
     vertex  1.401113e+02  1.009602e+02  6.000000e+01
     vertex  0.000000e+00  1.009602e+02  6.000000e+01
     vertex  1.118753e+02  3.543993e+01  6.000000e+01
   endloop
 endfacet
 facet normal  0.000000e+00  0.000000e+00  1.000000e+00
   outer loop
     vertex  1.401113e+02  1.009602e+02  6.000000e+01
     vertex  1.118753e+02  3.543993e+01  6.000000e+01
     vertex  1.401113e+02  0.000000e+00  6.000000e+01
   endloop
 endfacet
 facet normal  0.000000e+00  1.000000e+00  0.000000e+00
   outer loop
     vertex  1.401113e+02  1.009602e+02  6.000000e+01
     vertex  1.401113e+02  1.009602e+02  0.000000e+00
     vertex  0.000000e+00  1.009602e+02  0.000000e+00
   endloop
 endfacet
 facet normal  0.000000e+00  1.000000e+00  0.000000e+00
   outer loop
     vertex  1.401113e+02  1.009602e+02  6.000000e+01
     vertex  0.000000e+00  1.009602e+02  0.000000e+00
     vertex  0.000000e+00  1.009602e+02  6.000000e+01
   endloop
 endfacet
 facet normal -0.000000e+00  0.000000e+00 -1.000000e+00
   outer loop
     vertex  1.401113e+02  1.009602e+02  0.000000e+00
     vertex  0.000000e+00  0.000000e+00  0.000000e+00
     vertex  0.000000e+00  1.009602e+02  0.000000e+00
   endloop
 endfacet
 facet normal  0.000000e+00 -0.000000e+00 -1.000000e+00
   outer loop
     vertex  1.401113e+02  1.009602e+02  0.000000e+00
     vertex  1.401113e+02  0.000000e+00  0.000000e+00
     vertex  0.000000e+00  0.000000e+00  0.000000e+00
   endloop
 endfacet
 facet normal  1.000000e+00  0.000000e+00  0.000000e+00
   outer loop
     vertex  1.401113e+02  0.000000e+00  0.000000e+00
     vertex  1.401113e+02  1.009602e+02  0.000000e+00
     vertex  1.401113e+02  1.009602e+02  6.000000e+01
   endloop
 endfacet
 facet normal  1.000000e+00 -0.000000e+00  0.000000e+00
   outer loop
     vertex  1.401113e+02  0.000000e+00  6.000000e+01
     vertex  1.401113e+02  0.000000e+00  0.000000e+00
     vertex  1.401113e+02  1.009602e+02  6.000000e+01
   endloop
 endfacet
 facet normal  7.314262e-01 -6.819207e-01  0.000000e+00
   outer loop
     vertex  1.118753e+02  3.543993e+01  3.803183e+01
     vertex  1.118753e+02  3.543993e+01  6.000000e+01
     vertex  1.063661e+02  2.953083e+01  6.000000e+01
   endloop
 endfacet
 facet normal  7.314262e-01 -6.819207e-01  1.201067e-16
   outer loop
     vertex  1.118753e+02  3.543993e+01  3.803183e+01
     vertex  1.063661e+02  2.953083e+01  6.000000e+01
     vertex  1.063661e+02  2.953083e+01  3.803183e+01
   endloop
 endfacet
 facet normal -2.624759e-01  2.447106e-01 -9.333933e-01
   outer loop
     vertex  1.204181e+02  1.883611e+01  5.324461e+01
     vertex  1.063661e+02  2.953083e+01  6.000000e+01
     vertex  1.118753e+02  3.543993e+01  6.000000e+01
   endloop
 endfacet
 facet normal -2.624759e-01  2.447106e-01 -9.333933e-01
   outer loop
     vertex  1.204181e+02  1.883611e+01  5.324461e+01
     vertex  1.118753e+02  3.543993e+01  6.000000e+01
     vertex  1.235270e+02  2.217062e+01  5.324461e+01
   endloop
 endfacet
 facet normal -7.514232e-01 -6.598206e-01  0.000000e+00
   outer loop
     vertex  1.235270e+02  2.217062e+01  4.478722e+01
     vertex  1.118753e+02  3.543993e+01  6.000000e+01
     vertex  1.118753e+02  3.543993e+01  3.803183e+01
   endloop
 endfacet
 facet normal -7.514232e-01 -6.598206e-01  0.000000e+00
   outer loop
     vertex  1.235270e+02  2.217062e+01  4.478722e+01
     vertex  1.235270e+02  2.217062e+01  5.324461e+01
     vertex  1.118753e+02  3.543993e+01  6.000000e+01
   endloop
 endfacet
 facet normal -2.624759e-01  2.447106e-01  9.333933e-01
   outer loop
     vertex  1.204181e+02  1.883611e+01  4.478722e+01
     vertex  1.118753e+02  3.543993e+01  3.803183e+01
     vertex  1.063661e+02  2.953083e+01  3.803183e+01
   endloop
 endfacet
 facet normal -2.624759e-01  2.447106e-01  9.333933e-01
   outer loop
     vertex  1.204181e+02  1.883611e+01  4.478722e+01
     vertex  1.235270e+02  2.217062e+01  4.478722e+01
     vertex  1.118753e+02  3.543993e+01  3.803183e+01
   endloop
 endfacet
 facet normal  6.056276e-01  7.957482e-01 -1.465287e-16
   outer loop
     vertex  1.204181e+02  1.883611e+01  4.478722e+01
     vertex  1.063661e+02  2.953083e+01  3.803183e+01
     vertex  1.063661e+02  2.953083e+01  6.000000e+01
   endloop
 endfacet
 facet normal  6.056276e-01  7.957482e-01 -3.342715e-16
   outer loop
     vertex  1.204181e+02  1.883611e+01  4.478722e+01
     vertex  1.063661e+02  2.953083e+01  6.000000e+01
     vertex  1.204181e+02  1.883611e+01  5.324461e+01
   endloop
 endfacet
 facet normal -7.314262e-01  6.819207e-01  0.000000e+00
   outer loop
     vertex  1.235270e+02  2.217062e+01  4.478722e+01
     vertex  1.204181e+02  1.883611e+01  5.324461e+01
     vertex  1.235270e+02  2.217062e+01  5.324461e+01
   endloop
 endfacet
 facet normal -7.314262e-01  6.819207e-01 -2.764294e-16
   outer loop
     vertex  1.235270e+02  2.217062e+01  4.478722e+01
     vertex  1.204181e+02  1.883611e+01  4.478722e+01
     vertex  1.204181e+02  1.883611e+01  5.324461e+01
   endloop
 endfacet
endsolid
