solid 
 facet normal -1.000000e+00  0.000000e+00  0.000000e+00
   outer loop
     vertex  0.000000e+00  0.000000e+00  6.000000e+01
     vertex  0.000000e+00  1.095715e+02  0.000000e+00
     vertex  0.000000e+00  0.000000e+00  0.000000e+00
   endloop
 endfacet
 facet normal -1.000000e+00  0.000000e+00  0.000000e+00
   outer loop
     vertex  0.000000e+00  0.000000e+00  6.000000e+01
     vertex  0.000000e+00  1.095715e+02  6.000000e+01
     vertex  0.000000e+00  1.095715e+02  0.000000e+00
   endloop
 endfacet
 facet normal  0.000000e+00 -1.000000e+00 -0.000000e+00
   outer loop
     vertex  1.456890e+02  0.000000e+00  6.000000e+01
     vertex  0.000000e+00  0.000000e+00  0.000000e+00
     vertex  1.456890e+02  0.000000e+00  0.000000e+00
   endloop
 endfacet
 facet normal -0.000000e+00 -1.000000e+00  0.000000e+00
   outer loop
     vertex  1.456890e+02  0.000000e+00  6.000000e+01
     vertex  0.000000e+00  0.000000e+00  6.000000e+01
     vertex  0.000000e+00  0.000000e+00  0.000000e+00
   endloop
 endfacet
 facet normal  0.000000e+00  0.000000e+00  1.000000e+00
   outer loop
     vertex  9.935850e+01  6.650900e+01  6.000000e+01
     vertex  0.000000e+00  1.095715e+02  6.000000e+01
     vertex  0.000000e+00  0.000000e+00  6.000000e+01
   endloop
 endfacet
 facet normal  0.000000e+00  0.000000e+00  1.000000e+00
   outer loop
     vertex  9.935850e+01  6.650900e+01  6.000000e+01
     vertex  0.000000e+00  0.000000e+00  6.000000e+01
     vertex  1.456890e+02  0.000000e+00  6.000000e+01
   endloop
 endfacet
 facet normal  0.000000e+00  0.000000e+00  1.000000e+00
   outer loop
     vertex  1.160844e+02  8.236023e+01  6.000000e+01
     vertex  0.000000e+00  1.095715e+02  6.000000e+01
     vertex  9.935850e+01  6.650900e+01  6.000000e+01
   endloop
 endfacet
 facet normal  0.000000e+00  0.000000e+00  1.000000e+00
   outer loop
     vertex  1.160844e+02  8.236023e+01  6.000000e+01
     vertex  9.935850e+01  6.650900e+01  6.000000e+01
     vertex  1.456890e+02  0.000000e+00  6.000000e+01
   endloop
 endfacet
 facet normal  0.000000e+00  0.000000e+00  1.000000e+00
   outer loop
     vertex  1.456890e+02  1.095715e+02  6.000000e+01
     vertex  0.000000e+00  1.095715e+02  6.000000e+01
     vertex  1.160844e+02  8.236023e+01  6.000000e+01
   endloop
 endfacet
 facet normal  0.000000e+00  0.000000e+00  1.000000e+00
   outer loop
     vertex  1.456890e+02  1.095715e+02  6.000000e+01
     vertex  1.160844e+02  8.236023e+01  6.000000e+01
     vertex  1.456890e+02  0.000000e+00  6.000000e+01
   endloop
 endfacet
 facet normal  0.000000e+00  1.000000e+00  0.000000e+00
   outer loop
     vertex  1.456890e+02  1.095715e+02  6.000000e+01
     vertex  1.456890e+02  1.095715e+02  0.000000e+00
     vertex  0.000000e+00  1.095715e+02  0.000000e+00
   endloop
 endfacet
 facet normal  0.000000e+00  1.000000e+00  0.000000e+00
   outer loop
     vertex  1.456890e+02  1.095715e+02  6.000000e+01
     vertex  0.000000e+00  1.095715e+02  0.000000e+00
     vertex  0.000000e+00  1.095715e+02  6.000000e+01
   endloop
 endfacet
 facet normal  0.000000e+00  0.000000e+00 -1.000000e+00
   outer loop
     vertex  1.456890e+02  0.000000e+00  0.000000e+00
     vertex  0.000000e+00  0.000000e+00  0.000000e+00
     vertex  0.000000e+00  1.095715e+02  0.000000e+00
   endloop
 endfacet
 facet normal -0.000000e+00 -0.000000e+00 -1.000000e+00
   outer loop
     vertex  1.456890e+02  1.095715e+02  0.000000e+00
     vertex  1.456890e+02  0.000000e+00  0.000000e+00
     vertex  0.000000e+00  1.095715e+02  0.000000e+00
   endloop
 endfacet
 facet normal  1.000000e+00  0.000000e+00  0.000000e+00
   outer loop
     vertex  1.456890e+02  0.000000e+00  6.000000e+01
     vertex  1.456890e+02  0.000000e+00  0.000000e+00
     vertex  1.456890e+02  1.095715e+02  0.000000e+00
   endloop
 endfacet
 facet normal  1.000000e+00 -0.000000e+00  0.000000e+00
   outer loop
     vertex  1.456890e+02  0.000000e+00  6.000000e+01
     vertex  1.456890e+02  1.095715e+02  0.000000e+00
     vertex  1.456890e+02  1.095715e+02  6.000000e+01
   endloop
 endfacet
 facet normal  6.878733e-01 -7.258308e-01  0.000000e+00
   outer loop
     vertex  1.160844e+02  8.236023e+01  6.000000e+01
     vertex  9.935850e+01  6.650900e+01  6.000000e+01
     vertex  9.935850e+01  6.650900e+01  3.939250e+01
   endloop
 endfacet
 facet normal  6.878733e-01 -7.258308e-01  0.000000e+00
   outer loop
     vertex  1.160844e+02  8.236023e+01  3.939250e+01
     vertex  1.160844e+02  8.236023e+01  6.000000e+01
     vertex  9.935850e+01  6.650900e+01  3.939250e+01
   endloop
 endfacet
 facet normal -1.633912e-01  1.724073e-01 -9.713800e-01
   outer loop
     vertex  1.154278e+02  5.709944e+01  5.562698e+01
     vertex  9.935850e+01  6.650900e+01  6.000000e+01
     vertex  1.160844e+02  8.236023e+01  6.000000e+01
   endloop
 endfacet
 facet normal -1.633912e-01  1.724073e-01 -9.713800e-01
   outer loop
     vertex  1.154278e+02  5.709944e+01  5.562698e+01
     vertex  1.160844e+02  8.236023e+01  6.000000e+01
     vertex  1.246181e+02  6.580914e+01  5.562698e+01
   endloop
 endfacet
 facet normal -8.888129e-01 -4.582703e-01  0.000000e+00
   outer loop
     vertex  1.246181e+02  6.580914e+01  4.376552e+01
     vertex  1.160844e+02  8.236023e+01  6.000000e+01
     vertex  1.160844e+02  8.236023e+01  3.939250e+01
   endloop
 endfacet
 facet normal -8.888129e-01 -4.582703e-01  5.490396e-16
   outer loop
     vertex  1.246181e+02  6.580914e+01  4.376552e+01
     vertex  1.246181e+02  6.580914e+01  5.562698e+01
     vertex  1.160844e+02  8.236023e+01  6.000000e+01
   endloop
 endfacet
 facet normal -1.633912e-01  1.724073e-01  9.713800e-01
   outer loop
     vertex  1.246181e+02  6.580914e+01  4.376552e+01
     vertex  1.160844e+02  8.236023e+01  3.939250e+01
     vertex  9.935850e+01  6.650900e+01  3.939250e+01
   endloop
 endfacet
 facet normal -1.633912e-01  1.724073e-01  9.713800e-01
   outer loop
     vertex  1.154278e+02  5.709944e+01  4.376552e+01
     vertex  1.246181e+02  6.580914e+01  4.376552e+01
     vertex  9.935850e+01  6.650900e+01  3.939250e+01
   endloop
 endfacet
 facet normal  5.053044e-01  8.629412e-01  0.000000e+00
   outer loop
     vertex  1.154278e+02  5.709944e+01  4.376552e+01
     vertex  9.935850e+01  6.650900e+01  3.939250e+01
     vertex  9.935850e+01  6.650900e+01  6.000000e+01
   endloop
 endfacet
 facet normal  5.053044e-01  8.629412e-01 -0.000000e+00
   outer loop
     vertex  1.154278e+02  5.709944e+01  4.376552e+01
     vertex  9.935850e+01  6.650900e+01  6.000000e+01
     vertex  1.154278e+02  5.709944e+01  5.562698e+01
   endloop
 endfacet
 facet normal -6.878733e-01  7.258308e-01 -8.695955e-16
   outer loop
     vertex  1.246181e+02  6.580914e+01  4.376552e+01
     vertex  1.154278e+02  5.709944e+01  5.562698e+01
     vertex  1.246181e+02  6.580914e+01  5.562698e+01
   endloop
 endfacet
 facet normal -6.878733e-01  7.258308e-01  0.000000e+00
   outer loop
     vertex  1.246181e+02  6.580914e+01  4.376552e+01
     vertex  1.154278e+02  5.709944e+01  4.376552e+01
     vertex  1.154278e+02  5.709944e+01  5.562698e+01
   endloop
 endfacet
endsolid
