solid 
 facet normal -1.000000e+00  0.000000e+00  0.000000e+00
   outer loop
     vertex  0.000000e+00  0.000000e+00  6.000000e+01
     vertex  0.000000e+00  1.044730e+02  0.000000e+00
     vertex  0.000000e+00  0.000000e+00  0.000000e+00
   endloop
 endfacet
 facet normal -1.000000e+00  0.000000e+00  0.000000e+00
   outer loop
     vertex  0.000000e+00  0.000000e+00  6.000000e+01
     vertex  0.000000e+00  1.044730e+02  6.000000e+01
     vertex  0.000000e+00  1.044730e+02  0.000000e+00
   endloop
 endfacet
 facet normal  0.000000e+00 -1.000000e+00  0.000000e+00
   outer loop
     vertex  1.161251e+02  0.000000e+00  0.000000e+00
     vertex  0.000000e+00  0.000000e+00  6.000000e+01
     vertex  0.000000e+00  0.000000e+00  0.000000e+00
   endloop
 endfacet
 facet normal -0.000000e+00 -1.000000e+00 -0.000000e+00
   outer loop
     vertex  1.161251e+02  0.000000e+00  6.000000e+01
     vertex  0.000000e+00  0.000000e+00  6.000000e+01
     vertex  1.161251e+02  0.000000e+00  0.000000e+00
   endloop
 endfacet
 facet normal  0.000000e+00  0.000000e+00  1.000000e+00
   outer loop
     vertex  0.000000e+00  1.044730e+02  6.000000e+01
     vertex  3.572468e+01  3.189672e+01  6.000000e+01
     vertex  4.156685e+01  4.943997e+01  6.000000e+01
   endloop
 endfacet
 facet normal  0.000000e+00  0.000000e+00  1.000000e+00
   outer loop
     vertex  0.000000e+00  1.044730e+02  6.000000e+01
     vertex  0.000000e+00  0.000000e+00  6.000000e+01
     vertex  3.572468e+01  3.189672e+01  6.000000e+01
   endloop
 endfacet
 facet normal  0.000000e+00  0.000000e+00  1.000000e+00
   outer loop
     vertex  1.161251e+02  0.000000e+00  6.000000e+01
     vertex  4.156685e+01  4.943997e+01  6.000000e+01
     vertex  3.572468e+01  3.189672e+01  6.000000e+01
   endloop
 endfacet
 facet normal  0.000000e+00  0.000000e+00  1.000000e+00
   outer loop
     vertex  1.161251e+02  0.000000e+00  6.000000e+01
     vertex  3.572468e+01  3.189672e+01  6.000000e+01
     vertex  0.000000e+00  0.000000e+00  6.000000e+01
   endloop
 endfacet
 facet normal  0.000000e+00  0.000000e+00  1.000000e+00
   outer loop
     vertex  1.161251e+02  1.044730e+02  6.000000e+01
     vertex  4.156685e+01  4.943997e+01  6.000000e+01
     vertex  1.161251e+02  0.000000e+00  6.000000e+01
   endloop
 endfacet
 facet normal  0.000000e+00  0.000000e+00  1.000000e+00
   outer loop
     vertex  1.161251e+02  1.044730e+02  6.000000e+01
     vertex  0.000000e+00  1.044730e+02  6.000000e+01
     vertex  4.156685e+01  4.943997e+01  6.000000e+01
   endloop
 endfacet
 facet normal  0.000000e+00  1.000000e+00  0.000000e+00
   outer loop
     vertex  1.161251e+02  1.044730e+02  0.000000e+00
     vertex  0.000000e+00  1.044730e+02  0.000000e+00
     vertex  0.000000e+00  1.044730e+02  6.000000e+01
   endloop
 endfacet
 facet normal  0.000000e+00  1.000000e+00  0.000000e+00
   outer loop
     vertex  1.161251e+02  1.044730e+02  6.000000e+01
     vertex  1.161251e+02  1.044730e+02  0.000000e+00
     vertex  0.000000e+00  1.044730e+02  6.000000e+01
   endloop
 endfacet
 facet normal  0.000000e+00  0.000000e+00 -1.000000e+00
   outer loop
     vertex  1.161251e+02  0.000000e+00  0.000000e+00
     vertex  0.000000e+00  0.000000e+00  0.000000e+00
     vertex  0.000000e+00  1.044730e+02  0.000000e+00
   endloop
 endfacet
 facet normal -0.000000e+00 -0.000000e+00 -1.000000e+00
   outer loop
     vertex  1.161251e+02  1.044730e+02  0.000000e+00
     vertex  1.161251e+02  0.000000e+00  0.000000e+00
     vertex  0.000000e+00  1.044730e+02  0.000000e+00
   endloop
 endfacet
 facet normal  1.000000e+00  0.000000e+00  0.000000e+00
   outer loop
     vertex  1.161251e+02  0.000000e+00  6.000000e+01
     vertex  1.161251e+02  0.000000e+00  0.000000e+00
     vertex  1.161251e+02  1.044730e+02  0.000000e+00
   endloop
 endfacet
 facet normal  1.000000e+00 -0.000000e+00  0.000000e+00
   outer loop
     vertex  1.161251e+02  0.000000e+00  6.000000e+01
     vertex  1.161251e+02  1.044730e+02  0.000000e+00
     vertex  1.161251e+02  1.044730e+02  6.000000e+01
   endloop
 endfacet
 facet normal -9.487738e-01  3.159563e-01 -4.715231e-17
   outer loop
     vertex  3.572468e+01  3.189672e+01  3.619412e+01
     vertex  3.572468e+01  3.189672e+01  6.000000e+01
     vertex  4.156685e+01  4.943997e+01  6.000000e+01
   endloop
 endfacet
 facet normal -9.487738e-01  3.159563e-01  0.000000e+00
   outer loop
     vertex  3.572468e+01  3.189672e+01  3.619412e+01
     vertex  4.156685e+01  4.943997e+01  6.000000e+01
     vertex  4.156685e+01  4.943997e+01  3.619412e+01
   endloop
 endfacet
 facet normal  1.912852e-01 -6.370092e-02 -9.794652e-01
   outer loop
     vertex  2.600070e+01  4.967867e+01  5.694448e+01
     vertex  4.156685e+01  4.943997e+01  6.000000e+01
     vertex  3.572468e+01  3.189672e+01  6.000000e+01
   endloop
 endfacet
 facet normal  1.912852e-01 -6.370092e-02 -9.794652e-01
   outer loop
     vertex  2.600070e+01  4.967867e+01  5.694448e+01
     vertex  3.572468e+01  3.189672e+01  6.000000e+01
     vertex  2.312330e+01  4.103824e+01  5.694448e+01
   endloop
 endfacet
 facet normal  5.871999e-01  8.094420e-01 -1.150337e-16
   outer loop
     vertex  2.312330e+01  4.103824e+01  3.924965e+01
     vertex  3.572468e+01  3.189672e+01  6.000000e+01
     vertex  3.572468e+01  3.189672e+01  3.619412e+01
   endloop
 endfacet
 facet normal  5.871999e-01  8.094420e-01 -0.000000e+00
   outer loop
     vertex  2.312330e+01  4.103824e+01  3.924965e+01
     vertex  2.312330e+01  4.103824e+01  5.694448e+01
     vertex  3.572468e+01  3.189672e+01  6.000000e+01
   endloop
 endfacet
 facet normal  1.912852e-01 -6.370092e-02  9.794652e-01
   outer loop
     vertex  2.312330e+01  4.103824e+01  3.924965e+01
     vertex  3.572468e+01  3.189672e+01  3.619412e+01
     vertex  4.156685e+01  4.943997e+01  3.619412e+01
   endloop
 endfacet
 facet normal  1.912852e-01 -6.370092e-02  9.794652e-01
   outer loop
     vertex  2.600070e+01  4.967867e+01  3.924965e+01
     vertex  2.312330e+01  4.103824e+01  3.924965e+01
     vertex  4.156685e+01  4.943997e+01  3.619412e+01
   endloop
 endfacet
 facet normal -1.533301e-02 -9.998824e-01  0.000000e+00
   outer loop
     vertex  2.600070e+01  4.967867e+01  3.924965e+01
     vertex  4.156685e+01  4.943997e+01  3.619412e+01
     vertex  4.156685e+01  4.943997e+01  6.000000e+01
   endloop
 endfacet
 facet normal -1.533301e-02 -9.998824e-01  0.000000e+00
   outer loop
     vertex  2.600070e+01  4.967867e+01  3.924965e+01
     vertex  4.156685e+01  4.943997e+01  6.000000e+01
     vertex  2.600070e+01  4.967867e+01  5.694448e+01
   endloop
 endfacet
 facet normal  9.487738e-01 -3.159563e-01  0.000000e+00
   outer loop
     vertex  2.312330e+01  4.103824e+01  3.924965e+01
     vertex  2.600070e+01  4.967867e+01  5.694448e+01
     vertex  2.312330e+01  4.103824e+01  5.694448e+01
   endloop
 endfacet
 facet normal  9.487738e-01 -3.159563e-01  0.000000e+00
   outer loop
     vertex  2.312330e+01  4.103824e+01  3.924965e+01
     vertex  2.600070e+01  4.967867e+01  3.924965e+01
     vertex  2.600070e+01  4.967867e+01  5.694448e+01
   endloop
 endfacet
endsolid
