solid 
 facet normal -1.000000e+00  0.000000e+00  0.000000e+00
   outer loop
     vertex  0.000000e+00  0.000000e+00  6.000000e+01
     vertex  0.000000e+00  1.084399e+02  0.000000e+00
     vertex  0.000000e+00  0.000000e+00  0.000000e+00
   endloop
 endfacet
 facet normal -1.000000e+00  0.000000e+00  0.000000e+00
   outer loop
     vertex  0.000000e+00  0.000000e+00  6.000000e+01
     vertex  0.000000e+00  1.084399e+02  6.000000e+01
     vertex  0.000000e+00  1.084399e+02  0.000000e+00
   endloop
 endfacet
 facet normal  0.000000e+00 -1.000000e+00 -0.000000e+00
   outer loop
     vertex  1.212007e+02  0.000000e+00  6.000000e+01
     vertex  0.000000e+00  0.000000e+00  0.000000e+00
     vertex  1.212007e+02  0.000000e+00  0.000000e+00
   endloop
 endfacet
 facet normal -0.000000e+00 -1.000000e+00  0.000000e+00
   outer loop
     vertex  1.212007e+02  0.000000e+00  6.000000e+01
     vertex  0.000000e+00  0.000000e+00  6.000000e+01
     vertex  0.000000e+00  0.000000e+00  0.000000e+00
   endloop
 endfacet
 facet normal  0.000000e+00  0.000000e+00  1.000000e+00
   outer loop
     vertex  9.052648e+01  4.287433e+01  6.000000e+01
     vertex  0.000000e+00  1.084399e+02  6.000000e+01
     vertex  0.000000e+00  0.000000e+00  6.000000e+01
   endloop
 endfacet
 facet normal  0.000000e+00  0.000000e+00  1.000000e+00
   outer loop
     vertex  9.052648e+01  4.287433e+01  6.000000e+01
     vertex  0.000000e+00  0.000000e+00  6.000000e+01
     vertex  1.212007e+02  0.000000e+00  6.000000e+01
   endloop
 endfacet
 facet normal  0.000000e+00  0.000000e+00  1.000000e+00
   outer loop
     vertex  1.024698e+02  6.113307e+01  6.000000e+01
     vertex  0.000000e+00  1.084399e+02  6.000000e+01
     vertex  9.052648e+01  4.287433e+01  6.000000e+01
   endloop
 endfacet
 facet normal  0.000000e+00  0.000000e+00  1.000000e+00
   outer loop
     vertex  1.024698e+02  6.113307e+01  6.000000e+01
     vertex  9.052648e+01  4.287433e+01  6.000000e+01
     vertex  1.212007e+02  0.000000e+00  6.000000e+01
   endloop
 endfacet
 facet normal  0.000000e+00  0.000000e+00  1.000000e+00
   outer loop
     vertex  1.212007e+02  1.084399e+02  6.000000e+01
     vertex  0.000000e+00  1.084399e+02  6.000000e+01
     vertex  1.024698e+02  6.113307e+01  6.000000e+01
   endloop
 endfacet
 facet normal  0.000000e+00  0.000000e+00  1.000000e+00
   outer loop
     vertex  1.212007e+02  1.084399e+02  6.000000e+01
     vertex  1.024698e+02  6.113307e+01  6.000000e+01
     vertex  1.212007e+02  0.000000e+00  6.000000e+01
   endloop
 endfacet
 facet normal  0.000000e+00  1.000000e+00  0.000000e+00
   outer loop
     vertex  1.212007e+02  1.084399e+02  6.000000e+01
     vertex  1.212007e+02  1.084399e+02  0.000000e+00
     vertex  0.000000e+00  1.084399e+02  0.000000e+00
   endloop
 endfacet
 facet normal  0.000000e+00  1.000000e+00  0.000000e+00
   outer loop
     vertex  1.212007e+02  1.084399e+02  6.000000e+01
     vertex  0.000000e+00  1.084399e+02  0.000000e+00
     vertex  0.000000e+00  1.084399e+02  6.000000e+01
   endloop
 endfacet
 facet normal -0.000000e+00  0.000000e+00 -1.000000e+00
   outer loop
     vertex  1.212007e+02  1.084399e+02  0.000000e+00
     vertex  0.000000e+00  0.000000e+00  0.000000e+00
     vertex  0.000000e+00  1.084399e+02  0.000000e+00
   endloop
 endfacet
 facet normal  0.000000e+00 -0.000000e+00 -1.000000e+00
   outer loop
     vertex  1.212007e+02  1.084399e+02  0.000000e+00
     vertex  1.212007e+02  0.000000e+00  0.000000e+00
     vertex  0.000000e+00  0.000000e+00  0.000000e+00
   endloop
 endfacet
 facet normal  1.000000e+00  0.000000e+00  0.000000e+00
   outer loop
     vertex  1.212007e+02  0.000000e+00  6.000000e+01
     vertex  1.212007e+02  0.000000e+00  0.000000e+00
     vertex  1.212007e+02  1.084399e+02  0.000000e+00
   endloop
 endfacet
 facet normal  1.000000e+00 -0.000000e+00  0.000000e+00
   outer loop
     vertex  1.212007e+02  0.000000e+00  6.000000e+01
     vertex  1.212007e+02  1.084399e+02  0.000000e+00
     vertex  1.212007e+02  1.084399e+02  6.000000e+01
   endloop
 endfacet
 facet normal -8.368673e-01  5.474059e-01  0.000000e+00
   outer loop
     vertex  9.052648e+01  4.287433e+01  3.969630e+01
     vertex  9.052648e+01  4.287433e+01  6.000000e+01
     vertex  1.024698e+02  6.113307e+01  6.000000e+01
   endloop
 endfacet
 facet normal -8.368673e-01  5.474059e-01  0.000000e+00
   outer loop
     vertex  9.052648e+01  4.287433e+01  3.969630e+01
     vertex  1.024698e+02  6.113307e+01  6.000000e+01
     vertex  1.024698e+02  6.113307e+01  3.969630e+01
   endloop
 endfacet
 facet normal  2.818033e-01 -1.843313e-01 -9.415991e-01
   outer loop
     vertex  8.922433e+01  6.629855e+01  5.502467e+01
     vertex  1.024698e+02  6.113307e+01  6.000000e+01
     vertex  9.052648e+01  4.287433e+01  6.000000e+01
   endloop
 endfacet
 facet normal  2.818033e-01 -1.843313e-01 -9.415991e-01
   outer loop
     vertex  8.922433e+01  6.629855e+01  5.502467e+01
     vertex  9.052648e+01  4.287433e+01  6.000000e+01
     vertex  8.048644e+01  5.294017e+01  5.502467e+01
   endloop
 endfacet
 facet normal  7.080137e-01  7.061987e-01  0.000000e+00
   outer loop
     vertex  8.048644e+01  5.294017e+01  4.467164e+01
     vertex  9.052648e+01  4.287433e+01  6.000000e+01
     vertex  9.052648e+01  4.287433e+01  3.969630e+01
   endloop
 endfacet
 facet normal  7.080137e-01  7.061987e-01 -0.000000e+00
   outer loop
     vertex  8.048644e+01  5.294017e+01  4.467164e+01
     vertex  8.048644e+01  5.294017e+01  5.502467e+01
     vertex  9.052648e+01  4.287433e+01  6.000000e+01
   endloop
 endfacet
 facet normal  2.818033e-01 -1.843313e-01  9.415991e-01
   outer loop
     vertex  8.922433e+01  6.629855e+01  4.467164e+01
     vertex  9.052648e+01  4.287433e+01  3.969630e+01
     vertex  1.024698e+02  6.113307e+01  3.969630e+01
   endloop
 endfacet
 facet normal  2.818033e-01 -1.843313e-01  9.415991e-01
   outer loop
     vertex  8.922433e+01  6.629855e+01  4.467164e+01
     vertex  8.048644e+01  5.294017e+01  4.467164e+01
     vertex  9.052648e+01  4.287433e+01  3.969630e+01
   endloop
 endfacet
 facet normal -3.633312e-01 -9.316600e-01  0.000000e+00
   outer loop
     vertex  8.922433e+01  6.629855e+01  4.467164e+01
     vertex  1.024698e+02  6.113307e+01  3.969630e+01
     vertex  1.024698e+02  6.113307e+01  6.000000e+01
   endloop
 endfacet
 facet normal -3.633312e-01 -9.316600e-01  0.000000e+00
   outer loop
     vertex  8.922433e+01  6.629855e+01  4.467164e+01
     vertex  1.024698e+02  6.113307e+01  6.000000e+01
     vertex  8.922433e+01  6.629855e+01  5.502467e+01
   endloop
 endfacet
 facet normal  8.368673e-01 -5.474059e-01  0.000000e+00
   outer loop
     vertex  8.048644e+01  5.294017e+01  4.467164e+01
     vertex  8.922433e+01  6.629855e+01  5.502467e+01
     vertex  8.048644e+01  5.294017e+01  5.502467e+01
   endloop
 endfacet
 facet normal  8.368673e-01 -5.474059e-01  0.000000e+00
   outer loop
     vertex  8.048644e+01  5.294017e+01  4.467164e+01
     vertex  8.922433e+01  6.629855e+01  4.467164e+01
     vertex  8.922433e+01  6.629855e+01  5.502467e+01
   endloop
 endfacet
endsolid
