solid 
 facet normal -1.000000e+00  0.000000e+00  0.000000e+00
   outer loop
     vertex  0.000000e+00  0.000000e+00  6.000000e+01
     vertex  0.000000e+00  9.276247e+01  0.000000e+00
     vertex  0.000000e+00  0.000000e+00  0.000000e+00
   endloop
 endfacet
 facet normal -1.000000e+00  0.000000e+00  0.000000e+00
   outer loop
     vertex  0.000000e+00  0.000000e+00  6.000000e+01
     vertex  0.000000e+00  9.276247e+01  6.000000e+01
     vertex  0.000000e+00  9.276247e+01  0.000000e+00
   endloop
 endfacet
 facet normal  0.000000e+00 -1.000000e+00 -0.000000e+00
   outer loop
     vertex  1.102315e+02  0.000000e+00  6.000000e+01
     vertex  0.000000e+00  0.000000e+00  0.000000e+00
     vertex  1.102315e+02  0.000000e+00  0.000000e+00
   endloop
 endfacet
 facet normal -0.000000e+00 -1.000000e+00  0.000000e+00
   outer loop
     vertex  1.102315e+02  0.000000e+00  6.000000e+01
     vertex  0.000000e+00  0.000000e+00  6.000000e+01
     vertex  0.000000e+00  0.000000e+00  0.000000e+00
   endloop
 endfacet
 facet normal  0.000000e+00  0.000000e+00  1.000000e+00
   outer loop
     vertex  0.000000e+00  9.276247e+01  6.000000e+01
     vertex  0.000000e+00  0.000000e+00  6.000000e+01
     vertex  5.282757e+01  3.748563e+01  6.000000e+01
   endloop
 endfacet
 facet normal  0.000000e+00  0.000000e+00  1.000000e+00
   outer loop
     vertex  1.102315e+02  0.000000e+00  6.000000e+01
     vertex  5.282757e+01  3.748563e+01  6.000000e+01
     vertex  0.000000e+00  0.000000e+00  6.000000e+01
   endloop
 endfacet
 facet normal  0.000000e+00  0.000000e+00  1.000000e+00
   outer loop
     vertex  6.029892e+01  4.998488e+01  6.000000e+01
     vertex  0.000000e+00  9.276247e+01  6.000000e+01
     vertex  5.282757e+01  3.748563e+01  6.000000e+01
   endloop
 endfacet
 facet normal  0.000000e+00  0.000000e+00  1.000000e+00
   outer loop
     vertex  6.029892e+01  4.998488e+01  6.000000e+01
     vertex  5.282757e+01  3.748563e+01  6.000000e+01
     vertex  1.102315e+02  0.000000e+00  6.000000e+01
   endloop
 endfacet
 facet normal  0.000000e+00  0.000000e+00  1.000000e+00
   outer loop
     vertex  1.102315e+02  9.276247e+01  6.000000e+01
     vertex  0.000000e+00  9.276247e+01  6.000000e+01
     vertex  6.029892e+01  4.998488e+01  6.000000e+01
   endloop
 endfacet
 facet normal  0.000000e+00  0.000000e+00  1.000000e+00
   outer loop
     vertex  1.102315e+02  9.276247e+01  6.000000e+01
     vertex  6.029892e+01  4.998488e+01  6.000000e+01
     vertex  1.102315e+02  0.000000e+00  6.000000e+01
   endloop
 endfacet
 facet normal  0.000000e+00  1.000000e+00  0.000000e+00
   outer loop
     vertex  1.102315e+02  9.276247e+01  6.000000e+01
     vertex  1.102315e+02  9.276247e+01  0.000000e+00
     vertex  0.000000e+00  9.276247e+01  0.000000e+00
   endloop
 endfacet
 facet normal  0.000000e+00  1.000000e+00  0.000000e+00
   outer loop
     vertex  1.102315e+02  9.276247e+01  6.000000e+01
     vertex  0.000000e+00  9.276247e+01  0.000000e+00
     vertex  0.000000e+00  9.276247e+01  6.000000e+01
   endloop
 endfacet
 facet normal -0.000000e+00  0.000000e+00 -1.000000e+00
   outer loop
     vertex  1.102315e+02  9.276247e+01  0.000000e+00
     vertex  0.000000e+00  0.000000e+00  0.000000e+00
     vertex  0.000000e+00  9.276247e+01  0.000000e+00
   endloop
 endfacet
 facet normal  0.000000e+00 -0.000000e+00 -1.000000e+00
   outer loop
     vertex  1.102315e+02  9.276247e+01  0.000000e+00
     vertex  1.102315e+02  0.000000e+00  0.000000e+00
     vertex  0.000000e+00  0.000000e+00  0.000000e+00
   endloop
 endfacet
 facet normal  1.000000e+00  0.000000e+00  0.000000e+00
   outer loop
     vertex  1.102315e+02  0.000000e+00  6.000000e+01
     vertex  1.102315e+02  0.000000e+00  0.000000e+00
     vertex  1.102315e+02  9.276247e+01  0.000000e+00
   endloop
 endfacet
 facet normal  1.000000e+00 -0.000000e+00  0.000000e+00
   outer loop
     vertex  1.102315e+02  0.000000e+00  6.000000e+01
     vertex  1.102315e+02  9.276247e+01  0.000000e+00
     vertex  1.102315e+02  9.276247e+01  6.000000e+01
   endloop
 endfacet
 facet normal -8.583461e-01  5.130711e-01  0.000000e+00
   outer loop
     vertex  5.282757e+01  3.748563e+01  4.990770e+01
     vertex  5.282757e+01  3.748563e+01  6.000000e+01
     vertex  6.029892e+01  4.998488e+01  6.000000e+01
   endloop
 endfacet
 facet normal -8.583461e-01  5.130711e-01  0.000000e+00
   outer loop
     vertex  5.282757e+01  3.748563e+01  4.990770e+01
     vertex  6.029892e+01  4.998488e+01  6.000000e+01
     vertex  6.029892e+01  4.998488e+01  4.990770e+01
   endloop
 endfacet
 facet normal  1.396046e-01 -8.344779e-02 -9.866849e-01
   outer loop
     vertex  3.882303e+01  4.828911e+01  5.710483e+01
     vertex  6.029892e+01  4.998488e+01  6.000000e+01
     vertex  5.282757e+01  3.748563e+01  6.000000e+01
   endloop
 endfacet
 facet normal  1.396046e-01 -8.344779e-02 -9.866849e-01
   outer loop
     vertex  4.415200e+01  5.720425e+01  5.710483e+01
     vertex  6.029892e+01  4.998488e+01  6.000000e+01
     vertex  3.882303e+01  4.828911e+01  5.710483e+01
   endloop
 endfacet
 facet normal  6.108029e-01  7.917827e-01  0.000000e+00
   outer loop
     vertex  3.882303e+01  4.828911e+01  5.280288e+01
     vertex  5.282757e+01  3.748563e+01  6.000000e+01
     vertex  5.282757e+01  3.748563e+01  4.990770e+01
   endloop
 endfacet
 facet normal  6.108029e-01  7.917827e-01 -0.000000e+00
   outer loop
     vertex  3.882303e+01  4.828911e+01  5.280288e+01
     vertex  3.882303e+01  4.828911e+01  5.710483e+01
     vertex  5.282757e+01  3.748563e+01  6.000000e+01
   endloop
 endfacet
 facet normal  1.396046e-01 -8.344779e-02  9.866849e-01
   outer loop
     vertex  3.882303e+01  4.828911e+01  5.280288e+01
     vertex  5.282757e+01  3.748563e+01  4.990770e+01
     vertex  6.029892e+01  4.998488e+01  4.990770e+01
   endloop
 endfacet
 facet normal  1.396046e-01 -8.344779e-02  9.866849e-01
   outer loop
     vertex  4.415200e+01  5.720425e+01  5.280288e+01
     vertex  3.882303e+01  4.828911e+01  5.280288e+01
     vertex  6.029892e+01  4.998488e+01  4.990770e+01
   endloop
 endfacet
 facet normal -4.081655e-01 -9.129080e-01  0.000000e+00
   outer loop
     vertex  4.415200e+01  5.720425e+01  5.280288e+01
     vertex  6.029892e+01  4.998488e+01  4.990770e+01
     vertex  6.029892e+01  4.998488e+01  6.000000e+01
   endloop
 endfacet
 facet normal -4.081655e-01 -9.129080e-01  0.000000e+00
   outer loop
     vertex  4.415200e+01  5.720425e+01  5.280288e+01
     vertex  6.029892e+01  4.998488e+01  6.000000e+01
     vertex  4.415200e+01  5.720425e+01  5.710483e+01
   endloop
 endfacet
 facet normal  8.583461e-01 -5.130711e-01  0.000000e+00
   outer loop
     vertex  3.882303e+01  4.828911e+01  5.280288e+01
     vertex  4.415200e+01  5.720425e+01  5.710483e+01
     vertex  3.882303e+01  4.828911e+01  5.710483e+01
   endloop
 endfacet
 facet normal  8.583461e-01 -5.130711e-01  0.000000e+00
   outer loop
     vertex  3.882303e+01  4.828911e+01  5.280288e+01
     vertex  4.415200e+01  5.720425e+01  5.280288e+01
     vertex  4.415200e+01  5.720425e+01  5.710483e+01
   endloop
 endfacet
endsolid
