solid 
 facet normal -1.000000e+00  0.000000e+00  0.000000e+00
   outer loop
     vertex  0.000000e+00  0.000000e+00  6.000000e+01
     vertex  0.000000e+00  8.651082e+01  0.000000e+00
     vertex  0.000000e+00  0.000000e+00  0.000000e+00
   endloop
 endfacet
 facet normal -1.000000e+00  0.000000e+00  0.000000e+00
   outer loop
     vertex  0.000000e+00  0.000000e+00  6.000000e+01
     vertex  0.000000e+00  8.651082e+01  6.000000e+01
     vertex  0.000000e+00  8.651082e+01  0.000000e+00
   endloop
 endfacet
 facet normal  0.000000e+00 -1.000000e+00 -0.000000e+00
   outer loop
     vertex  1.352440e+02  0.000000e+00  6.000000e+01
     vertex  0.000000e+00  0.000000e+00  0.000000e+00
     vertex  1.352440e+02  0.000000e+00  0.000000e+00
   endloop
 endfacet
 facet normal -0.000000e+00 -1.000000e+00  0.000000e+00
   outer loop
     vertex  1.352440e+02  0.000000e+00  6.000000e+01
     vertex  0.000000e+00  0.000000e+00  6.000000e+01
     vertex  0.000000e+00  0.000000e+00  0.000000e+00
   endloop
 endfacet
 facet normal  0.000000e+00  0.000000e+00  1.000000e+00
   outer loop
     vertex  8.097129e+01  2.565854e+01  6.000000e+01
     vertex  0.000000e+00  8.651082e+01  6.000000e+01
     vertex  0.000000e+00  0.000000e+00  6.000000e+01
   endloop
 endfacet
 facet normal  0.000000e+00  0.000000e+00  1.000000e+00
   outer loop
     vertex  1.352440e+02  0.000000e+00  6.000000e+01
     vertex  9.351469e+01  2.384858e+01  6.000000e+01
     vertex  8.097129e+01  2.565854e+01  6.000000e+01
   endloop
 endfacet
 facet normal  0.000000e+00  0.000000e+00  1.000000e+00
   outer loop
     vertex  1.352440e+02  0.000000e+00  6.000000e+01
     vertex  8.097129e+01  2.565854e+01  6.000000e+01
     vertex  0.000000e+00  0.000000e+00  6.000000e+01
   endloop
 endfacet
 facet normal  0.000000e+00  0.000000e+00  1.000000e+00
   outer loop
     vertex  1.352440e+02  8.651082e+01  6.000000e+01
     vertex  8.097129e+01  2.565854e+01  6.000000e+01
     vertex  9.351469e+01  2.384858e+01  6.000000e+01
   endloop
 endfacet
 facet normal  0.000000e+00  0.000000e+00  1.000000e+00
   outer loop
     vertex  1.352440e+02  8.651082e+01  6.000000e+01
     vertex  0.000000e+00  8.651082e+01  6.000000e+01
     vertex  8.097129e+01  2.565854e+01  6.000000e+01
   endloop
 endfacet
 facet normal  0.000000e+00  0.000000e+00  1.000000e+00
   outer loop
     vertex  1.352440e+02  8.651082e+01  6.000000e+01
     vertex  9.351469e+01  2.384858e+01  6.000000e+01
     vertex  1.352440e+02  0.000000e+00  6.000000e+01
   endloop
 endfacet
 facet normal  0.000000e+00  1.000000e+00  0.000000e+00
   outer loop
     vertex  1.352440e+02  8.651082e+01  6.000000e+01
     vertex  1.352440e+02  8.651082e+01  0.000000e+00
     vertex  0.000000e+00  8.651082e+01  0.000000e+00
   endloop
 endfacet
 facet normal  0.000000e+00  1.000000e+00  0.000000e+00
   outer loop
     vertex  1.352440e+02  8.651082e+01  6.000000e+01
     vertex  0.000000e+00  8.651082e+01  0.000000e+00
     vertex  0.000000e+00  8.651082e+01  6.000000e+01
   endloop
 endfacet
 facet normal  0.000000e+00  0.000000e+00 -1.000000e+00
   outer loop
     vertex  1.352440e+02  0.000000e+00  0.000000e+00
     vertex  0.000000e+00  0.000000e+00  0.000000e+00
     vertex  0.000000e+00  8.651082e+01  0.000000e+00
   endloop
 endfacet
 facet normal -0.000000e+00 -0.000000e+00 -1.000000e+00
   outer loop
     vertex  1.352440e+02  8.651082e+01  0.000000e+00
     vertex  1.352440e+02  0.000000e+00  0.000000e+00
     vertex  0.000000e+00  8.651082e+01  0.000000e+00
   endloop
 endfacet
 facet normal  1.000000e+00  0.000000e+00  0.000000e+00
   outer loop
     vertex  1.352440e+02  0.000000e+00  6.000000e+01
     vertex  1.352440e+02  0.000000e+00  0.000000e+00
     vertex  1.352440e+02  8.651082e+01  0.000000e+00
   endloop
 endfacet
 facet normal  1.000000e+00 -0.000000e+00  0.000000e+00
   outer loop
     vertex  1.352440e+02  0.000000e+00  6.000000e+01
     vertex  1.352440e+02  8.651082e+01  0.000000e+00
     vertex  1.352440e+02  8.651082e+01  6.000000e+01
   endloop
 endfacet
 facet normal  1.428168e-01  9.897491e-01 -2.105538e-16
   outer loop
     vertex  8.097129e+01  2.565854e+01  4.329977e+01
     vertex  8.097129e+01  2.565854e+01  6.000000e+01
     vertex  9.351469e+01  2.384858e+01  6.000000e+01
   endloop
 endfacet
 facet normal  1.428168e-01  9.897491e-01 -2.014322e-16
   outer loop
     vertex  8.097129e+01  2.565854e+01  4.329977e+01
     vertex  9.351469e+01  2.384858e+01  6.000000e+01
     vertex  9.351469e+01  2.384858e+01  4.329977e+01
   endloop
 endfacet
 facet normal -5.830778e-02 -4.040846e-01 -9.128613e-01
   outer loop
     vertex  9.145793e+01  3.562101e+01  5.492022e+01
     vertex  9.351469e+01  2.384858e+01  6.000000e+01
     vertex  8.097129e+01  2.565854e+01  6.000000e+01
   endloop
 endfacet
 facet normal -5.830778e-02 -4.040846e-01 -9.128613e-01
   outer loop
     vertex  9.145793e+01  3.562101e+01  5.492022e+01
     vertex  8.097129e+01  2.565854e+01  6.000000e+01
     vertex  8.627227e+01  3.636928e+01  5.492022e+01
   endloop
 endfacet
 facet normal  8.962401e-01 -4.435693e-01  1.068055e-16
   outer loop
     vertex  8.627227e+01  3.636928e+01  4.837956e+01
     vertex  8.097129e+01  2.565854e+01  6.000000e+01
     vertex  8.097129e+01  2.565854e+01  4.329977e+01
   endloop
 endfacet
 facet normal  8.962401e-01 -4.435693e-01  0.000000e+00
   outer loop
     vertex  8.627227e+01  3.636928e+01  4.837956e+01
     vertex  8.627227e+01  3.636928e+01  5.492022e+01
     vertex  8.097129e+01  2.565854e+01  6.000000e+01
   endloop
 endfacet
 facet normal -5.830778e-02 -4.040846e-01  9.128613e-01
   outer loop
     vertex  9.145793e+01  3.562101e+01  4.837956e+01
     vertex  8.097129e+01  2.565854e+01  4.329977e+01
     vertex  9.351469e+01  2.384858e+01  4.329977e+01
   endloop
 endfacet
 facet normal -5.830778e-02 -4.040846e-01  9.128613e-01
   outer loop
     vertex  9.145793e+01  3.562101e+01  4.837956e+01
     vertex  8.627227e+01  3.636928e+01  4.837956e+01
     vertex  8.097129e+01  2.565854e+01  4.329977e+01
   endloop
 endfacet
 facet normal -9.850790e-01 -1.721025e-01  3.560185e-17
   outer loop
     vertex  9.145793e+01  3.562101e+01  4.837956e+01
     vertex  9.351469e+01  2.384858e+01  4.329977e+01
     vertex  9.351469e+01  2.384858e+01  6.000000e+01
   endloop
 endfacet
 facet normal -9.850790e-01 -1.721025e-01  1.869630e-16
   outer loop
     vertex  9.145793e+01  3.562101e+01  4.837956e+01
     vertex  9.351469e+01  2.384858e+01  6.000000e+01
     vertex  9.145793e+01  3.562101e+01  5.492022e+01
   endloop
 endfacet
 facet normal -1.428168e-01 -9.897491e-01  1.075211e-15
   outer loop
     vertex  9.145793e+01  3.562101e+01  4.837956e+01
     vertex  9.145793e+01  3.562101e+01  5.492022e+01
     vertex  8.627227e+01  3.636928e+01  5.492022e+01
   endloop
 endfacet
 facet normal -1.428168e-01 -9.897491e-01  0.000000e+00
   outer loop
     vertex  8.627227e+01  3.636928e+01  4.837956e+01
     vertex  9.145793e+01  3.562101e+01  4.837956e+01
     vertex  8.627227e+01  3.636928e+01  5.492022e+01
   endloop
 endfacet
endsolid
