solid 
 facet normal -1.000000e+00  0.000000e+00  0.000000e+00
   outer loop
     vertex  0.000000e+00  0.000000e+00  6.000000e+01
     vertex  0.000000e+00  1.062412e+02  0.000000e+00
     vertex  0.000000e+00  0.000000e+00  0.000000e+00
   endloop
 endfacet
 facet normal -1.000000e+00  0.000000e+00  0.000000e+00
   outer loop
     vertex  0.000000e+00  0.000000e+00  6.000000e+01
     vertex  0.000000e+00  1.062412e+02  6.000000e+01
     vertex  0.000000e+00  1.062412e+02  0.000000e+00
   endloop
 endfacet
 facet normal  0.000000e+00 -1.000000e+00 -0.000000e+00
   outer loop
     vertex  1.323818e+02  0.000000e+00  6.000000e+01
     vertex  0.000000e+00  0.000000e+00  0.000000e+00
     vertex  1.323818e+02  0.000000e+00  0.000000e+00
   endloop
 endfacet
 facet normal -0.000000e+00 -1.000000e+00  0.000000e+00
   outer loop
     vertex  1.323818e+02  0.000000e+00  6.000000e+01
     vertex  0.000000e+00  0.000000e+00  6.000000e+01
     vertex  0.000000e+00  0.000000e+00  0.000000e+00
   endloop
 endfacet
 facet normal  0.000000e+00  0.000000e+00  1.000000e+00
   outer loop
     vertex  1.323818e+02  0.000000e+00  6.000000e+01
     vertex  8.621295e+01  3.102733e+01  6.000000e+01
     vertex  0.000000e+00  0.000000e+00  6.000000e+01
   endloop
 endfacet
 facet normal  0.000000e+00  0.000000e+00  1.000000e+00
   outer loop
     vertex  8.307163e+01  5.228521e+01  6.000000e+01
     vertex  0.000000e+00  1.062412e+02  6.000000e+01
     vertex  0.000000e+00  0.000000e+00  6.000000e+01
   endloop
 endfacet
 facet normal  0.000000e+00  0.000000e+00  1.000000e+00
   outer loop
     vertex  8.307163e+01  5.228521e+01  6.000000e+01
     vertex  0.000000e+00  0.000000e+00  6.000000e+01
     vertex  8.621295e+01  3.102733e+01  6.000000e+01
   endloop
 endfacet
 facet normal  0.000000e+00  0.000000e+00  1.000000e+00
   outer loop
     vertex  1.035848e+02  3.359442e+01  6.000000e+01
     vertex  8.621295e+01  3.102733e+01  6.000000e+01
     vertex  1.323818e+02  0.000000e+00  6.000000e+01
   endloop
 endfacet
 facet normal  0.000000e+00  0.000000e+00  1.000000e+00
   outer loop
     vertex  1.004435e+02  5.485230e+01  6.000000e+01
     vertex  1.035848e+02  3.359442e+01  6.000000e+01
     vertex  1.323818e+02  0.000000e+00  6.000000e+01
   endloop
 endfacet
 facet normal  0.000000e+00  0.000000e+00  1.000000e+00
   outer loop
     vertex  1.323818e+02  1.062412e+02  6.000000e+01
     vertex  8.307163e+01  5.228521e+01  6.000000e+01
     vertex  1.004435e+02  5.485230e+01  6.000000e+01
   endloop
 endfacet
 facet normal  0.000000e+00  0.000000e+00  1.000000e+00
   outer loop
     vertex  1.323818e+02  1.062412e+02  6.000000e+01
     vertex  0.000000e+00  1.062412e+02  6.000000e+01
     vertex  8.307163e+01  5.228521e+01  6.000000e+01
   endloop
 endfacet
 facet normal  0.000000e+00  0.000000e+00  1.000000e+00
   outer loop
     vertex  1.323818e+02  1.062412e+02  6.000000e+01
     vertex  1.004435e+02  5.485230e+01  6.000000e+01
     vertex  1.323818e+02  0.000000e+00  6.000000e+01
   endloop
 endfacet
 facet normal  0.000000e+00  1.000000e+00  0.000000e+00
   outer loop
     vertex  1.323818e+02  1.062412e+02  6.000000e+01
     vertex  1.323818e+02  1.062412e+02  0.000000e+00
     vertex  0.000000e+00  1.062412e+02  0.000000e+00
   endloop
 endfacet
 facet normal  0.000000e+00  1.000000e+00  0.000000e+00
   outer loop
     vertex  1.323818e+02  1.062412e+02  6.000000e+01
     vertex  0.000000e+00  1.062412e+02  0.000000e+00
     vertex  0.000000e+00  1.062412e+02  6.000000e+01
   endloop
 endfacet
 facet normal -0.000000e+00  0.000000e+00 -1.000000e+00
   outer loop
     vertex  1.323818e+02  1.062412e+02  0.000000e+00
     vertex  0.000000e+00  0.000000e+00  0.000000e+00
     vertex  0.000000e+00  1.062412e+02  0.000000e+00
   endloop
 endfacet
 facet normal  0.000000e+00 -0.000000e+00 -1.000000e+00
   outer loop
     vertex  1.323818e+02  1.062412e+02  0.000000e+00
     vertex  1.323818e+02  0.000000e+00  0.000000e+00
     vertex  0.000000e+00  0.000000e+00  0.000000e+00
   endloop
 endfacet
 facet normal  1.000000e+00  0.000000e+00  0.000000e+00
   outer loop
     vertex  1.323818e+02  0.000000e+00  6.000000e+01
     vertex  1.323818e+02  0.000000e+00  0.000000e+00
     vertex  1.323818e+02  1.062412e+02  0.000000e+00
   endloop
 endfacet
 facet normal  1.000000e+00 -0.000000e+00  0.000000e+00
   outer loop
     vertex  1.323818e+02  0.000000e+00  6.000000e+01
     vertex  1.323818e+02  1.062412e+02  0.000000e+00
     vertex  1.323818e+02  1.062412e+02  6.000000e+01
   endloop
 endfacet
 facet normal  9.892573e-01  1.461849e-01  0.000000e+00
   outer loop
     vertex  8.621295e+01  3.102733e+01  6.000000e+01
     vertex  8.307163e+01  5.228521e+01  4.993826e+01
     vertex  8.307163e+01  5.228521e+01  6.000000e+01
   endloop
 endfacet
 facet normal  9.892573e-01  1.461849e-01 -0.000000e+00
   outer loop
     vertex  8.621295e+01  3.102733e+01  4.993826e+01
     vertex  8.307163e+01  5.228521e+01  4.993826e+01
     vertex  8.621295e+01  3.102733e+01  6.000000e+01
   endloop
 endfacet
 facet normal -1.461849e-01  9.892573e-01  0.000000e+00
   outer loop
     vertex  1.035848e+02  3.359442e+01  4.993826e+01
     vertex  8.621295e+01  3.102733e+01  6.000000e+01
     vertex  1.035848e+02  3.359442e+01  6.000000e+01
   endloop
 endfacet
 facet normal -1.461849e-01  9.892573e-01  0.000000e+00
   outer loop
     vertex  1.035848e+02  3.359442e+01  4.993826e+01
     vertex  8.621295e+01  3.102733e+01  4.993826e+01
     vertex  8.621295e+01  3.102733e+01  6.000000e+01
   endloop
 endfacet
 facet normal -9.892573e-01 -1.461849e-01  0.000000e+00
   outer loop
     vertex  1.035848e+02  3.359442e+01  4.993826e+01
     vertex  1.035848e+02  3.359442e+01  6.000000e+01
     vertex  1.004435e+02  5.485230e+01  6.000000e+01
   endloop
 endfacet
 facet normal -9.892573e-01 -1.461849e-01  0.000000e+00
   outer loop
     vertex  1.035848e+02  3.359442e+01  4.993826e+01
     vertex  1.004435e+02  5.485230e+01  6.000000e+01
     vertex  1.004435e+02  5.485230e+01  4.993826e+01
   endloop
 endfacet
 facet normal  1.461849e-01 -9.892573e-01  0.000000e+00
   outer loop
     vertex  1.004435e+02  5.485230e+01  6.000000e+01
     vertex  8.307163e+01  5.228521e+01  6.000000e+01
     vertex  8.307163e+01  5.228521e+01  4.993826e+01
   endloop
 endfacet
 facet normal  1.461849e-01 -9.892573e-01  0.000000e+00
   outer loop
     vertex  1.004435e+02  5.485230e+01  4.993826e+01
     vertex  1.004435e+02  5.485230e+01  6.000000e+01
     vertex  8.307163e+01  5.228521e+01  4.993826e+01
   endloop
 endfacet
 facet normal  0.000000e+00  0.000000e+00  1.000000e+00
   outer loop
     vertex  1.035848e+02  3.359442e+01  4.993826e+01
     vertex  1.004435e+02  5.485230e+01  4.993826e+01
     vertex  8.307163e+01  5.228521e+01  4.993826e+01
   endloop
 endfacet
 facet normal  0.000000e+00 -0.000000e+00  1.000000e+00
   outer loop
     vertex  8.621295e+01  3.102733e+01  4.993826e+01
     vertex  1.035848e+02  3.359442e+01  4.993826e+01
     vertex  8.307163e+01  5.228521e+01  4.993826e+01
   endloop
 endfacet
endsolid
