solid 
 facet normal -1.000000e+00  0.000000e+00  0.000000e+00
   outer loop
     vertex  0.000000e+00  0.000000e+00  6.000000e+01
     vertex  0.000000e+00  8.531406e+01  0.000000e+00
     vertex  0.000000e+00  0.000000e+00  0.000000e+00
   endloop
 endfacet
 facet normal -1.000000e+00  0.000000e+00  0.000000e+00
   outer loop
     vertex  0.000000e+00  0.000000e+00  6.000000e+01
     vertex  0.000000e+00  8.531406e+01  6.000000e+01
     vertex  0.000000e+00  8.531406e+01  0.000000e+00
   endloop
 endfacet
 facet normal  0.000000e+00 -1.000000e+00 -0.000000e+00
   outer loop
     vertex  1.126711e+02  0.000000e+00  6.000000e+01
     vertex  0.000000e+00  0.000000e+00  0.000000e+00
     vertex  1.126711e+02  0.000000e+00  0.000000e+00
   endloop
 endfacet
 facet normal -0.000000e+00 -1.000000e+00  0.000000e+00
   outer loop
     vertex  1.126711e+02  0.000000e+00  6.000000e+01
     vertex  0.000000e+00  0.000000e+00  6.000000e+01
     vertex  0.000000e+00  0.000000e+00  0.000000e+00
   endloop
 endfacet
 facet normal  0.000000e+00  0.000000e+00  1.000000e+00
   outer loop
     vertex  0.000000e+00  8.531406e+01  6.000000e+01
     vertex  0.000000e+00  0.000000e+00  6.000000e+01
     vertex  3.543964e+01  3.659924e+01  6.000000e+01
   endloop
 endfacet
 facet normal  0.000000e+00  0.000000e+00  1.000000e+00
   outer loop
     vertex  6.430912e+01  2.571487e+01  6.000000e+01
     vertex  3.543964e+01  3.659924e+01  6.000000e+01
     vertex  0.000000e+00  0.000000e+00  6.000000e+01
   endloop
 endfacet
 facet normal  0.000000e+00  0.000000e+00  1.000000e+00
   outer loop
     vertex  4.240662e+01  5.507833e+01  6.000000e+01
     vertex  0.000000e+00  8.531406e+01  6.000000e+01
     vertex  3.543964e+01  3.659924e+01  6.000000e+01
   endloop
 endfacet
 facet normal  0.000000e+00  0.000000e+00  1.000000e+00
   outer loop
     vertex  1.126711e+02  0.000000e+00  6.000000e+01
     vertex  6.430912e+01  2.571487e+01  6.000000e+01
     vertex  0.000000e+00  0.000000e+00  6.000000e+01
   endloop
 endfacet
 facet normal  0.000000e+00  0.000000e+00  1.000000e+00
   outer loop
     vertex  7.127610e+01  4.419396e+01  6.000000e+01
     vertex  6.430912e+01  2.571487e+01  6.000000e+01
     vertex  1.126711e+02  0.000000e+00  6.000000e+01
   endloop
 endfacet
 facet normal  0.000000e+00  0.000000e+00  1.000000e+00
   outer loop
     vertex  1.126711e+02  8.531406e+01  6.000000e+01
     vertex  4.240662e+01  5.507833e+01  6.000000e+01
     vertex  7.127610e+01  4.419396e+01  6.000000e+01
   endloop
 endfacet
 facet normal  0.000000e+00  0.000000e+00  1.000000e+00
   outer loop
     vertex  1.126711e+02  8.531406e+01  6.000000e+01
     vertex  7.127610e+01  4.419396e+01  6.000000e+01
     vertex  1.126711e+02  0.000000e+00  6.000000e+01
   endloop
 endfacet
 facet normal  0.000000e+00  0.000000e+00  1.000000e+00
   outer loop
     vertex  1.126711e+02  8.531406e+01  6.000000e+01
     vertex  0.000000e+00  8.531406e+01  6.000000e+01
     vertex  4.240662e+01  5.507833e+01  6.000000e+01
   endloop
 endfacet
 facet normal  0.000000e+00  1.000000e+00  0.000000e+00
   outer loop
     vertex  1.126711e+02  8.531406e+01  6.000000e+01
     vertex  1.126711e+02  8.531406e+01  0.000000e+00
     vertex  0.000000e+00  8.531406e+01  0.000000e+00
   endloop
 endfacet
 facet normal  0.000000e+00  1.000000e+00  0.000000e+00
   outer loop
     vertex  1.126711e+02  8.531406e+01  6.000000e+01
     vertex  0.000000e+00  8.531406e+01  0.000000e+00
     vertex  0.000000e+00  8.531406e+01  6.000000e+01
   endloop
 endfacet
 facet normal -0.000000e+00  0.000000e+00 -1.000000e+00
   outer loop
     vertex  1.126711e+02  8.531406e+01  0.000000e+00
     vertex  0.000000e+00  0.000000e+00  0.000000e+00
     vertex  0.000000e+00  8.531406e+01  0.000000e+00
   endloop
 endfacet
 facet normal  0.000000e+00 -0.000000e+00 -1.000000e+00
   outer loop
     vertex  1.126711e+02  8.531406e+01  0.000000e+00
     vertex  1.126711e+02  0.000000e+00  0.000000e+00
     vertex  0.000000e+00  0.000000e+00  0.000000e+00
   endloop
 endfacet
 facet normal  1.000000e+00  0.000000e+00  0.000000e+00
   outer loop
     vertex  1.126711e+02  0.000000e+00  6.000000e+01
     vertex  1.126711e+02  0.000000e+00  0.000000e+00
     vertex  1.126711e+02  8.531406e+01  0.000000e+00
   endloop
 endfacet
 facet normal  1.000000e+00 -0.000000e+00  0.000000e+00
   outer loop
     vertex  1.126711e+02  0.000000e+00  6.000000e+01
     vertex  1.126711e+02  8.531406e+01  0.000000e+00
     vertex  1.126711e+02  8.531406e+01  6.000000e+01
   endloop
 endfacet
 facet normal -9.357064e-01  3.527798e-01  0.000000e+00
   outer loop
     vertex  7.127610e+01  4.419396e+01  4.541685e+01
     vertex  6.430912e+01  2.571487e+01  6.000000e+01
     vertex  7.127610e+01  4.419396e+01  6.000000e+01
   endloop
 endfacet
 facet normal -9.357064e-01  3.527798e-01  0.000000e+00
   outer loop
     vertex  7.127610e+01  4.419396e+01  4.541685e+01
     vertex  6.430912e+01  2.571487e+01  4.541685e+01
     vertex  6.430912e+01  2.571487e+01  6.000000e+01
   endloop
 endfacet
 facet normal -3.527798e-01 -9.357064e-01  0.000000e+00
   outer loop
     vertex  4.240662e+01  5.507833e+01  4.541685e+01
     vertex  7.127610e+01  4.419396e+01  6.000000e+01
     vertex  4.240662e+01  5.507833e+01  6.000000e+01
   endloop
 endfacet
 facet normal -3.527798e-01 -9.357064e-01  0.000000e+00
   outer loop
     vertex  4.240662e+01  5.507833e+01  4.541685e+01
     vertex  7.127610e+01  4.419396e+01  4.541685e+01
     vertex  7.127610e+01  4.419396e+01  6.000000e+01
   endloop
 endfacet
 facet normal  9.357064e-01 -3.527798e-01  0.000000e+00
   outer loop
     vertex  4.240662e+01  5.507833e+01  4.541685e+01
     vertex  4.240662e+01  5.507833e+01  6.000000e+01
     vertex  3.543964e+01  3.659924e+01  6.000000e+01
   endloop
 endfacet
 facet normal  9.357064e-01 -3.527798e-01  0.000000e+00
   outer loop
     vertex  4.240662e+01  5.507833e+01  4.541685e+01
     vertex  3.543964e+01  3.659924e+01  6.000000e+01
     vertex  3.543964e+01  3.659924e+01  4.541685e+01
   endloop
 endfacet
 facet normal  3.527798e-01  9.357064e-01 -0.000000e+00
   outer loop
     vertex  3.543964e+01  3.659924e+01  4.541685e+01
     vertex  3.543964e+01  3.659924e+01  6.000000e+01
     vertex  6.430912e+01  2.571487e+01  6.000000e+01
   endloop
 endfacet
 facet normal  3.527798e-01  9.357064e-01  0.000000e+00
   outer loop
     vertex  3.543964e+01  3.659924e+01  4.541685e+01
     vertex  6.430912e+01  2.571487e+01  6.000000e+01
     vertex  6.430912e+01  2.571487e+01  4.541685e+01
   endloop
 endfacet
 facet normal  0.000000e+00  0.000000e+00  1.000000e+00
   outer loop
     vertex  6.430912e+01  2.571487e+01  4.541685e+01
     vertex  4.240662e+01  5.507833e+01  4.541685e+01
     vertex  3.543964e+01  3.659924e+01  4.541685e+01
   endloop
 endfacet
 facet normal  0.000000e+00  0.000000e+00  1.000000e+00
   outer loop
     vertex  7.127610e+01  4.419396e+01  4.541685e+01
     vertex  4.240662e+01  5.507833e+01  4.541685e+01
     vertex  6.430912e+01  2.571487e+01  4.541685e+01
   endloop
 endfacet
endsolid
