solid 
 facet normal -1.000000e+00  0.000000e+00  0.000000e+00
   outer loop
     vertex  0.000000e+00  0.000000e+00  6.000000e+01
     vertex  0.000000e+00  8.031458e+01  0.000000e+00
     vertex  0.000000e+00  0.000000e+00  0.000000e+00
   endloop
 endfacet
 facet normal -1.000000e+00  0.000000e+00  0.000000e+00
   outer loop
     vertex  0.000000e+00  0.000000e+00  6.000000e+01
     vertex  0.000000e+00  8.031458e+01  6.000000e+01
     vertex  0.000000e+00  8.031458e+01  0.000000e+00
   endloop
 endfacet
 facet normal  0.000000e+00 -1.000000e+00  0.000000e+00
   outer loop
     vertex  1.417339e+02  0.000000e+00  0.000000e+00
     vertex  0.000000e+00  0.000000e+00  6.000000e+01
     vertex  0.000000e+00  0.000000e+00  0.000000e+00
   endloop
 endfacet
 facet normal -0.000000e+00 -1.000000e+00 -0.000000e+00
   outer loop
     vertex  1.417339e+02  0.000000e+00  6.000000e+01
     vertex  0.000000e+00  0.000000e+00  6.000000e+01
     vertex  1.417339e+02  0.000000e+00  0.000000e+00
   endloop
 endfacet
 facet normal  0.000000e+00  0.000000e+00  1.000000e+00
   outer loop
     vertex  4.633886e+01  3.961547e+01  6.000000e+01
     vertex  0.000000e+00  8.031458e+01  6.000000e+01
     vertex  0.000000e+00  0.000000e+00  6.000000e+01
   endloop
 endfacet
 facet normal -1.551086e-16  1.814330e-16  1.000000e+00
   outer loop
     vertex  6.989297e+01  2.058926e+01  6.000000e+01
     vertex  4.633886e+01  3.961547e+01  6.000000e+01
     vertex  0.000000e+00  0.000000e+00  6.000000e+01
   endloop
 endfacet
 facet normal  0.000000e+00  0.000000e+00  1.000000e+00
   outer loop
     vertex  6.461054e+01  6.223549e+01  6.000000e+01
     vertex  0.000000e+00  8.031458e+01  6.000000e+01
     vertex  4.633886e+01  3.961547e+01  6.000000e+01
   endloop
 endfacet
 facet normal  1.534148e-16  1.901979e-16  1.000000e+00
   outer loop
     vertex  1.417339e+02  0.000000e+00  6.000000e+01
     vertex  8.816465e+01  4.320928e+01  6.000000e+01
     vertex  6.989297e+01  2.058926e+01  6.000000e+01
   endloop
 endfacet
 facet normal  0.000000e+00 -3.451035e-16  1.000000e+00
   outer loop
     vertex  1.417339e+02  0.000000e+00  6.000000e+01
     vertex  6.989297e+01  2.058926e+01  6.000000e+01
     vertex  0.000000e+00  0.000000e+00  6.000000e+01
   endloop
 endfacet
 facet normal  0.000000e+00  0.000000e+00  1.000000e+00
   outer loop
     vertex  1.417339e+02  8.031458e+01  6.000000e+01
     vertex  6.461054e+01  6.223549e+01  6.000000e+01
     vertex  8.816465e+01  4.320928e+01  6.000000e+01
   endloop
 endfacet
 facet normal  0.000000e+00  0.000000e+00  1.000000e+00
   outer loop
     vertex  1.417339e+02  8.031458e+01  6.000000e+01
     vertex  8.816465e+01  4.320928e+01  6.000000e+01
     vertex  1.417339e+02  0.000000e+00  6.000000e+01
   endloop
 endfacet
 facet normal  0.000000e+00  0.000000e+00  1.000000e+00
   outer loop
     vertex  1.417339e+02  8.031458e+01  6.000000e+01
     vertex  0.000000e+00  8.031458e+01  6.000000e+01
     vertex  6.461054e+01  6.223549e+01  6.000000e+01
   endloop
 endfacet
 facet normal  0.000000e+00  1.000000e+00  0.000000e+00
   outer loop
     vertex  1.417339e+02  8.031458e+01  0.000000e+00
     vertex  0.000000e+00  8.031458e+01  0.000000e+00
     vertex  0.000000e+00  8.031458e+01  6.000000e+01
   endloop
 endfacet
 facet normal  0.000000e+00  1.000000e+00  0.000000e+00
   outer loop
     vertex  1.417339e+02  8.031458e+01  6.000000e+01
     vertex  1.417339e+02  8.031458e+01  0.000000e+00
     vertex  0.000000e+00  8.031458e+01  6.000000e+01
   endloop
 endfacet
 facet normal  0.000000e+00  0.000000e+00 -1.000000e+00
   outer loop
     vertex  1.417339e+02  0.000000e+00  0.000000e+00
     vertex  0.000000e+00  0.000000e+00  0.000000e+00
     vertex  0.000000e+00  8.031458e+01  0.000000e+00
   endloop
 endfacet
 facet normal -0.000000e+00 -0.000000e+00 -1.000000e+00
   outer loop
     vertex  1.417339e+02  8.031458e+01  0.000000e+00
     vertex  1.417339e+02  0.000000e+00  0.000000e+00
     vertex  0.000000e+00  8.031458e+01  0.000000e+00
   endloop
 endfacet
 facet normal  1.000000e+00  0.000000e+00  0.000000e+00
   outer loop
     vertex  1.417339e+02  0.000000e+00  6.000000e+01
     vertex  1.417339e+02  0.000000e+00  0.000000e+00
     vertex  1.417339e+02  8.031458e+01  0.000000e+00
   endloop
 endfacet
 facet normal  1.000000e+00 -0.000000e+00  0.000000e+00
   outer loop
     vertex  1.417339e+02  0.000000e+00  6.000000e+01
     vertex  1.417339e+02  8.031458e+01  0.000000e+00
     vertex  1.417339e+02  8.031458e+01  6.000000e+01
   endloop
 endfacet
 facet normal  6.283718e-01  7.779132e-01 -0.000000e+00
   outer loop
     vertex  6.989297e+01  2.058926e+01  4.423154e+01
     vertex  4.633886e+01  3.961547e+01  6.000000e+01
     vertex  6.989297e+01  2.058926e+01  6.000000e+01
   endloop
 endfacet
 facet normal  6.283718e-01  7.779132e-01  0.000000e+00
   outer loop
     vertex  6.989297e+01  2.058926e+01  4.423154e+01
     vertex  4.633886e+01  3.961547e+01  4.423154e+01
     vertex  4.633886e+01  3.961547e+01  6.000000e+01
   endloop
 endfacet
 facet normal -7.779132e-01  6.283718e-01  0.000000e+00
   outer loop
     vertex  8.816465e+01  4.320928e+01  4.423154e+01
     vertex  6.989297e+01  2.058926e+01  6.000000e+01
     vertex  8.816465e+01  4.320928e+01  6.000000e+01
   endloop
 endfacet
 facet normal -7.779132e-01  6.283718e-01  0.000000e+00
   outer loop
     vertex  8.816465e+01  4.320928e+01  4.423154e+01
     vertex  6.989297e+01  2.058926e+01  4.423154e+01
     vertex  6.989297e+01  2.058926e+01  6.000000e+01
   endloop
 endfacet
 facet normal -6.283718e-01 -7.779132e-01  0.000000e+00
   outer loop
     vertex  8.816465e+01  4.320928e+01  4.423154e+01
     vertex  8.816465e+01  4.320928e+01  6.000000e+01
     vertex  6.461054e+01  6.223549e+01  6.000000e+01
   endloop
 endfacet
 facet normal -6.283718e-01 -7.779132e-01  0.000000e+00
   outer loop
     vertex  8.816465e+01  4.320928e+01  4.423154e+01
     vertex  6.461054e+01  6.223549e+01  6.000000e+01
     vertex  6.461054e+01  6.223549e+01  4.423154e+01
   endloop
 endfacet
 facet normal  7.779132e-01 -6.283718e-01  0.000000e+00
   outer loop
     vertex  6.461054e+01  6.223549e+01  6.000000e+01
     vertex  4.633886e+01  3.961547e+01  6.000000e+01
     vertex  4.633886e+01  3.961547e+01  4.423154e+01
   endloop
 endfacet
 facet normal  7.779132e-01 -6.283718e-01  0.000000e+00
   outer loop
     vertex  6.461054e+01  6.223549e+01  4.423154e+01
     vertex  6.461054e+01  6.223549e+01  6.000000e+01
     vertex  4.633886e+01  3.961547e+01  4.423154e+01
   endloop
 endfacet
 facet normal  0.000000e+00  0.000000e+00  1.000000e+00
   outer loop
     vertex  8.816465e+01  4.320928e+01  4.423154e+01
     vertex  6.461054e+01  6.223549e+01  4.423154e+01
     vertex  4.633886e+01  3.961547e+01  4.423154e+01
   endloop
 endfacet
 facet normal  0.000000e+00 -0.000000e+00  1.000000e+00
   outer loop
     vertex  6.989297e+01  2.058926e+01  4.423154e+01
     vertex  8.816465e+01  4.320928e+01  4.423154e+01
     vertex  4.633886e+01  3.961547e+01  4.423154e+01
   endloop
 endfacet
endsolid
