solid 
 facet normal -1.000000e+00  0.000000e+00  0.000000e+00
   outer loop
     vertex  0.000000e+00  0.000000e+00  0.000000e+00
     vertex  0.000000e+00  9.719528e+01  6.000000e+01
     vertex  0.000000e+00  9.719528e+01  0.000000e+00
   endloop
 endfacet
 facet normal -1.000000e+00  0.000000e+00  0.000000e+00
   outer loop
     vertex  0.000000e+00  0.000000e+00  6.000000e+01
     vertex  0.000000e+00  9.719528e+01  6.000000e+01
     vertex  0.000000e+00  0.000000e+00  0.000000e+00
   endloop
 endfacet
 facet normal  0.000000e+00 -1.000000e+00 -0.000000e+00
   outer loop
     vertex  1.251564e+02  0.000000e+00  6.000000e+01
     vertex  0.000000e+00  0.000000e+00  0.000000e+00
     vertex  1.251564e+02  0.000000e+00  0.000000e+00
   endloop
 endfacet
 facet normal -0.000000e+00 -1.000000e+00  0.000000e+00
   outer loop
     vertex  1.251564e+02  0.000000e+00  6.000000e+01
     vertex  0.000000e+00  0.000000e+00  6.000000e+01
     vertex  0.000000e+00  0.000000e+00  0.000000e+00
   endloop
 endfacet
 facet normal -2.843041e-16  8.845325e-17  1.000000e+00
   outer loop
     vertex  3.987870e+01  4.784734e+01  6.000000e+01
     vertex  2.055605e+01  6.607073e+01  6.000000e+01
     vertex  0.000000e+00  0.000000e+00  6.000000e+01
   endloop
 endfacet
 facet normal  0.000000e+00  0.000000e+00  1.000000e+00
   outer loop
     vertex  0.000000e+00  9.719528e+01  6.000000e+01
     vertex  0.000000e+00  0.000000e+00  6.000000e+01
     vertex  2.055605e+01  6.607073e+01  6.000000e+01
   endloop
 endfacet
 facet normal  0.000000e+00  0.000000e+00  1.000000e+00
   outer loop
     vertex  3.374755e+01  8.005796e+01  6.000000e+01
     vertex  0.000000e+00  9.719528e+01  6.000000e+01
     vertex  2.055605e+01  6.607073e+01  6.000000e+01
   endloop
 endfacet
 facet normal  2.408809e-16  2.808167e-16  1.000000e+00
   outer loop
     vertex  1.251564e+02  0.000000e+00  6.000000e+01
     vertex  5.307020e+01  6.183457e+01  6.000000e+01
     vertex  3.987870e+01  4.784734e+01  6.000000e+01
   endloop
 endfacet
 facet normal  0.000000e+00 -1.485020e-16  1.000000e+00
   outer loop
     vertex  1.251564e+02  0.000000e+00  6.000000e+01
     vertex  3.987870e+01  4.784734e+01  6.000000e+01
     vertex  0.000000e+00  0.000000e+00  6.000000e+01
   endloop
 endfacet
 facet normal  0.000000e+00  0.000000e+00  1.000000e+00
   outer loop
     vertex  1.251564e+02  9.719528e+01  6.000000e+01
     vertex  3.374755e+01  8.005796e+01  6.000000e+01
     vertex  5.307020e+01  6.183457e+01  6.000000e+01
   endloop
 endfacet
 facet normal  0.000000e+00  0.000000e+00  1.000000e+00
   outer loop
     vertex  1.251564e+02  9.719528e+01  6.000000e+01
     vertex  5.307020e+01  6.183457e+01  6.000000e+01
     vertex  1.251564e+02  0.000000e+00  6.000000e+01
   endloop
 endfacet
 facet normal  0.000000e+00  0.000000e+00  1.000000e+00
   outer loop
     vertex  1.251564e+02  9.719528e+01  6.000000e+01
     vertex  0.000000e+00  9.719528e+01  6.000000e+01
     vertex  3.374755e+01  8.005796e+01  6.000000e+01
   endloop
 endfacet
 facet normal  0.000000e+00  1.000000e+00  0.000000e+00
   outer loop
     vertex  1.251564e+02  9.719528e+01  6.000000e+01
     vertex  1.251564e+02  9.719528e+01  0.000000e+00
     vertex  0.000000e+00  9.719528e+01  0.000000e+00
   endloop
 endfacet
 facet normal  0.000000e+00  1.000000e+00  0.000000e+00
   outer loop
     vertex  1.251564e+02  9.719528e+01  6.000000e+01
     vertex  0.000000e+00  9.719528e+01  0.000000e+00
     vertex  0.000000e+00  9.719528e+01  6.000000e+01
   endloop
 endfacet
 facet normal  0.000000e+00  0.000000e+00 -1.000000e+00
   outer loop
     vertex  1.251564e+02  0.000000e+00  0.000000e+00
     vertex  0.000000e+00  0.000000e+00  0.000000e+00
     vertex  0.000000e+00  9.719528e+01  0.000000e+00
   endloop
 endfacet
 facet normal -0.000000e+00 -0.000000e+00 -1.000000e+00
   outer loop
     vertex  1.251564e+02  9.719528e+01  0.000000e+00
     vertex  1.251564e+02  0.000000e+00  0.000000e+00
     vertex  0.000000e+00  9.719528e+01  0.000000e+00
   endloop
 endfacet
 facet normal  1.000000e+00  0.000000e+00  0.000000e+00
   outer loop
     vertex  1.251564e+02  0.000000e+00  0.000000e+00
     vertex  1.251564e+02  9.719528e+01  0.000000e+00
     vertex  1.251564e+02  9.719528e+01  6.000000e+01
   endloop
 endfacet
 facet normal  1.000000e+00 -0.000000e+00  0.000000e+00
   outer loop
     vertex  1.251564e+02  0.000000e+00  6.000000e+01
     vertex  1.251564e+02  0.000000e+00  0.000000e+00
     vertex  1.251564e+02  9.719528e+01  6.000000e+01
   endloop
 endfacet
 facet normal  6.861104e-01  7.274974e-01 -0.000000e+00
   outer loop
     vertex  3.987870e+01  4.784734e+01  4.390385e+01
     vertex  2.055605e+01  6.607073e+01  6.000000e+01
     vertex  3.987870e+01  4.784734e+01  6.000000e+01
   endloop
 endfacet
 facet normal  6.861104e-01  7.274974e-01  0.000000e+00
   outer loop
     vertex  3.987870e+01  4.784734e+01  4.390385e+01
     vertex  2.055605e+01  6.607073e+01  4.390385e+01
     vertex  2.055605e+01  6.607073e+01  6.000000e+01
   endloop
 endfacet
 facet normal -7.274974e-01  6.861104e-01  0.000000e+00
   outer loop
     vertex  5.307020e+01  6.183457e+01  6.000000e+01
     vertex  3.987870e+01  4.784734e+01  4.390385e+01
     vertex  3.987870e+01  4.784734e+01  6.000000e+01
   endloop
 endfacet
 facet normal -7.274974e-01  6.861104e-01  0.000000e+00
   outer loop
     vertex  5.307020e+01  6.183457e+01  4.390385e+01
     vertex  3.987870e+01  4.784734e+01  4.390385e+01
     vertex  5.307020e+01  6.183457e+01  6.000000e+01
   endloop
 endfacet
 facet normal -6.861104e-01 -7.274974e-01  0.000000e+00
   outer loop
     vertex  5.307020e+01  6.183457e+01  6.000000e+01
     vertex  3.374755e+01  8.005796e+01  6.000000e+01
     vertex  3.374755e+01  8.005796e+01  4.390385e+01
   endloop
 endfacet
 facet normal -6.861104e-01 -7.274974e-01  0.000000e+00
   outer loop
     vertex  5.307020e+01  6.183457e+01  4.390385e+01
     vertex  5.307020e+01  6.183457e+01  6.000000e+01
     vertex  3.374755e+01  8.005796e+01  4.390385e+01
   endloop
 endfacet
 facet normal  7.274974e-01 -6.861104e-01  0.000000e+00
   outer loop
     vertex  3.374755e+01  8.005796e+01  4.390385e+01
     vertex  3.374755e+01  8.005796e+01  6.000000e+01
     vertex  2.055605e+01  6.607073e+01  6.000000e+01
   endloop
 endfacet
 facet normal  7.274974e-01 -6.861104e-01  0.000000e+00
   outer loop
     vertex  3.374755e+01  8.005796e+01  4.390385e+01
     vertex  2.055605e+01  6.607073e+01  6.000000e+01
     vertex  2.055605e+01  6.607073e+01  4.390385e+01
   endloop
 endfacet
 facet normal -1.946196e-16  1.835477e-16  1.000000e+00
   outer loop
     vertex  3.987870e+01  4.784734e+01  4.390385e+01
     vertex  3.374755e+01  8.005796e+01  4.390385e+01
     vertex  2.055605e+01  6.607073e+01  4.390385e+01
   endloop
 endfacet
 facet normal -1.946196e-16  1.835477e-16  1.000000e+00
   outer loop
     vertex  3.987870e+01  4.784734e+01  4.390385e+01
     vertex  5.307020e+01  6.183457e+01  4.390385e+01
     vertex  3.374755e+01  8.005796e+01  4.390385e+01
   endloop
 endfacet
endsolid
