solid 
 facet normal -1.000000e+00  0.000000e+00  0.000000e+00
   outer loop
     vertex  0.000000e+00  0.000000e+00  6.000000e+01
     vertex  0.000000e+00  9.153020e+01  0.000000e+00
     vertex  0.000000e+00  0.000000e+00  0.000000e+00
   endloop
 endfacet
 facet normal -1.000000e+00  0.000000e+00  0.000000e+00
   outer loop
     vertex  0.000000e+00  0.000000e+00  6.000000e+01
     vertex  0.000000e+00  9.153020e+01  6.000000e+01
     vertex  0.000000e+00  9.153020e+01  0.000000e+00
   endloop
 endfacet
 facet normal  0.000000e+00 -1.000000e+00 -0.000000e+00
   outer loop
     vertex  1.243667e+02  0.000000e+00  6.000000e+01
     vertex  0.000000e+00  0.000000e+00  0.000000e+00
     vertex  1.243667e+02  0.000000e+00  0.000000e+00
   endloop
 endfacet
 facet normal -0.000000e+00 -1.000000e+00  0.000000e+00
   outer loop
     vertex  1.243667e+02  0.000000e+00  6.000000e+01
     vertex  0.000000e+00  0.000000e+00  6.000000e+01
     vertex  0.000000e+00  0.000000e+00  0.000000e+00
   endloop
 endfacet
 facet normal  0.000000e+00  0.000000e+00  1.000000e+00
   outer loop
     vertex  0.000000e+00  9.153020e+01  6.000000e+01
     vertex  0.000000e+00  0.000000e+00  6.000000e+01
     vertex  5.133510e+01  3.605607e+01  6.000000e+01
   endloop
 endfacet
 facet normal  0.000000e+00  0.000000e+00  1.000000e+00
   outer loop
     vertex  6.940499e+01  3.602734e+01  6.000000e+01
     vertex  5.133510e+01  3.605607e+01  6.000000e+01
     vertex  0.000000e+00  0.000000e+00  6.000000e+01
   endloop
 endfacet
 facet normal  0.000000e+00  0.000000e+00  1.000000e+00
   outer loop
     vertex  5.138035e+01  6.451293e+01  6.000000e+01
     vertex  0.000000e+00  9.153020e+01  6.000000e+01
     vertex  5.133510e+01  3.605607e+01  6.000000e+01
   endloop
 endfacet
 facet normal  0.000000e+00  0.000000e+00  1.000000e+00
   outer loop
     vertex  1.243667e+02  0.000000e+00  6.000000e+01
     vertex  6.940499e+01  3.602734e+01  6.000000e+01
     vertex  0.000000e+00  0.000000e+00  6.000000e+01
   endloop
 endfacet
 facet normal  0.000000e+00  0.000000e+00  1.000000e+00
   outer loop
     vertex  1.243667e+02  9.153020e+01  6.000000e+01
     vertex  6.945023e+01  6.448421e+01  6.000000e+01
     vertex  6.940499e+01  3.602734e+01  6.000000e+01
   endloop
 endfacet
 facet normal  0.000000e+00  0.000000e+00  1.000000e+00
   outer loop
     vertex  1.243667e+02  9.153020e+01  6.000000e+01
     vertex  6.940499e+01  3.602734e+01  6.000000e+01
     vertex  1.243667e+02  0.000000e+00  6.000000e+01
   endloop
 endfacet
 facet normal  0.000000e+00  0.000000e+00  1.000000e+00
   outer loop
     vertex  1.243667e+02  9.153020e+01  6.000000e+01
     vertex  0.000000e+00  9.153020e+01  6.000000e+01
     vertex  5.138035e+01  6.451293e+01  6.000000e+01
   endloop
 endfacet
 facet normal  0.000000e+00  0.000000e+00  1.000000e+00
   outer loop
     vertex  1.243667e+02  9.153020e+01  6.000000e+01
     vertex  5.138035e+01  6.451293e+01  6.000000e+01
     vertex  6.945023e+01  6.448421e+01  6.000000e+01
   endloop
 endfacet
 facet normal  0.000000e+00  1.000000e+00  0.000000e+00
   outer loop
     vertex  1.243667e+02  9.153020e+01  6.000000e+01
     vertex  1.243667e+02  9.153020e+01  0.000000e+00
     vertex  0.000000e+00  9.153020e+01  0.000000e+00
   endloop
 endfacet
 facet normal  0.000000e+00  1.000000e+00  0.000000e+00
   outer loop
     vertex  1.243667e+02  9.153020e+01  6.000000e+01
     vertex  0.000000e+00  9.153020e+01  0.000000e+00
     vertex  0.000000e+00  9.153020e+01  6.000000e+01
   endloop
 endfacet
 facet normal -0.000000e+00  0.000000e+00 -1.000000e+00
   outer loop
     vertex  1.243667e+02  9.153020e+01  0.000000e+00
     vertex  0.000000e+00  0.000000e+00  0.000000e+00
     vertex  0.000000e+00  9.153020e+01  0.000000e+00
   endloop
 endfacet
 facet normal  0.000000e+00 -0.000000e+00 -1.000000e+00
   outer loop
     vertex  1.243667e+02  9.153020e+01  0.000000e+00
     vertex  1.243667e+02  0.000000e+00  0.000000e+00
     vertex  0.000000e+00  0.000000e+00  0.000000e+00
   endloop
 endfacet
 facet normal  1.000000e+00  0.000000e+00  0.000000e+00
   outer loop
     vertex  1.243667e+02  0.000000e+00  6.000000e+01
     vertex  1.243667e+02  0.000000e+00  0.000000e+00
     vertex  1.243667e+02  9.153020e+01  0.000000e+00
   endloop
 endfacet
 facet normal  1.000000e+00 -0.000000e+00  0.000000e+00
   outer loop
     vertex  1.243667e+02  0.000000e+00  6.000000e+01
     vertex  1.243667e+02  9.153020e+01  0.000000e+00
     vertex  1.243667e+02  9.153020e+01  6.000000e+01
   endloop
 endfacet
 facet normal -1.589822e-03 -9.999987e-01  0.000000e+00
   outer loop
     vertex  5.138035e+01  6.451293e+01  4.518569e+01
     vertex  6.945023e+01  6.448421e+01  6.000000e+01
     vertex  5.138035e+01  6.451293e+01  6.000000e+01
   endloop
 endfacet
 facet normal -1.589822e-03 -9.999987e-01  0.000000e+00
   outer loop
     vertex  5.138035e+01  6.451293e+01  4.518569e+01
     vertex  6.945023e+01  6.448421e+01  4.518569e+01
     vertex  6.945023e+01  6.448421e+01  6.000000e+01
   endloop
 endfacet
 facet normal  9.999987e-01 -1.589822e-03  0.000000e+00
   outer loop
     vertex  5.133510e+01  3.605607e+01  4.518569e+01
     vertex  5.138035e+01  6.451293e+01  6.000000e+01
     vertex  5.133510e+01  3.605607e+01  6.000000e+01
   endloop
 endfacet
 facet normal  9.999987e-01 -1.589822e-03  0.000000e+00
   outer loop
     vertex  5.133510e+01  3.605607e+01  4.518569e+01
     vertex  5.138035e+01  6.451293e+01  4.518569e+01
     vertex  5.138035e+01  6.451293e+01  6.000000e+01
   endloop
 endfacet
 facet normal  1.589822e-03  9.999987e-01 -0.000000e+00
   outer loop
     vertex  5.133510e+01  3.605607e+01  4.518569e+01
     vertex  5.133510e+01  3.605607e+01  6.000000e+01
     vertex  6.940499e+01  3.602734e+01  6.000000e+01
   endloop
 endfacet
 facet normal  1.589822e-03  9.999987e-01  0.000000e+00
   outer loop
     vertex  5.133510e+01  3.605607e+01  4.518569e+01
     vertex  6.940499e+01  3.602734e+01  6.000000e+01
     vertex  6.940499e+01  3.602734e+01  4.518569e+01
   endloop
 endfacet
 facet normal -9.999987e-01  1.589822e-03  0.000000e+00
   outer loop
     vertex  6.940499e+01  3.602734e+01  4.518569e+01
     vertex  6.940499e+01  3.602734e+01  6.000000e+01
     vertex  6.945023e+01  6.448421e+01  6.000000e+01
   endloop
 endfacet
 facet normal -9.999987e-01  1.589822e-03  0.000000e+00
   outer loop
     vertex  6.940499e+01  3.602734e+01  4.518569e+01
     vertex  6.945023e+01  6.448421e+01  6.000000e+01
     vertex  6.945023e+01  6.448421e+01  4.518569e+01
   endloop
 endfacet
 facet normal  0.000000e+00  0.000000e+00  1.000000e+00
   outer loop
     vertex  5.138035e+01  6.451293e+01  4.518569e+01
     vertex  6.940499e+01  3.602734e+01  4.518569e+01
     vertex  6.945023e+01  6.448421e+01  4.518569e+01
   endloop
 endfacet
 facet normal  0.000000e+00  0.000000e+00  1.000000e+00
   outer loop
     vertex  5.138035e+01  6.451293e+01  4.518569e+01
     vertex  5.133510e+01  3.605607e+01  4.518569e+01
     vertex  6.940499e+01  3.602734e+01  4.518569e+01
   endloop
 endfacet
endsolid
